<svg width="952" height="32" viewBox="0 0 952 32" fill="none" xmlns="http://www.w3.org/2000/svg">
<path d="M1.336 4.272C1.67733 3.952 1.99733 3.792 2.296 3.792C2.46667 3.792 2.616 3.80267 2.744 3.824C3.32 3.888 3.72533 4.08 3.96 4.4L4.376 4.88L4.312 13.264C4.29067 18.7893 4.19467 21.7653 4.024 22.192C3.74667 22.832 3.21333 23.152 2.424 23.152C2.168 23.152 1.976 23.1307 1.848 23.088C1.528 22.9813 1.31467 22.9067 1.208 22.864C1.12267 22.8 1.016 22.608 0.888 22.288C0.781333 21.9467 0.717333 21.4773 0.696 20.88C0.674667 20.2827 0.664 19.3653 0.664 18.128C0.664 17.7867 0.664 17.0933 0.664 16.048C0.685333 15.0027 0.696 14.128 0.696 13.424L0.728 4.784L1.336 4.272ZM28.2353 9.072C28.7686 8.96533 29.2699 8.912 29.7393 8.912C31.1473 8.912 32.4699 9.264 33.7073 9.968C34.2406 10.288 34.5926 10.544 34.7633 10.736C34.9553 10.928 35.1046 11.2053 35.2113 11.568C35.2326 11.632 35.2433 11.728 35.2433 11.856C35.2433 12.5173 34.9873 13.04 34.4753 13.424C34.1979 13.5947 33.9313 13.68 33.6753 13.68C33.3126 13.68 32.7366 13.4987 31.9473 13.136C31.1153 12.752 30.3473 12.56 29.6433 12.56C29.0033 12.56 28.4059 12.72 27.8513 13.04C27.3606 13.3387 26.8273 13.7867 26.2513 14.384C25.6753 14.9813 25.3019 15.4827 25.1313 15.888C24.9606 16.2933 24.8753 16.6133 24.8753 16.848C24.8753 17.2107 25.1633 17.68 25.7393 18.256C26.6139 19.1093 27.8406 19.6107 29.4193 19.76C29.4833 19.76 29.5686 19.7707 29.6753 19.792C29.8033 19.792 29.8886 19.792 29.9313 19.792C30.2939 19.792 30.7846 19.632 31.4033 19.312C32.0646 18.9493 32.5766 18.768 32.9393 18.768C33.2806 18.768 33.6219 18.9173 33.9633 19.216C34.4113 19.6427 34.6353 20.08 34.6353 20.528C34.6353 21.36 33.9846 22.1067 32.6833 22.768C31.9153 23.1733 31.1473 23.376 30.3793 23.376H29.8673C28.0753 23.3547 26.4433 22.9493 24.9713 22.16C23.4993 21.3493 22.4433 20.2933 21.8033 18.992C21.4619 18.3093 21.2913 17.584 21.2913 16.816C21.2913 14.8533 22.4006 12.8907 24.6193 10.928C25.7073 9.94667 26.9126 9.328 28.2353 9.072ZM47.7193 12.816C47.3139 12.7093 46.6526 12.6133 45.7353 12.528C45.1379 12.4853 44.8179 12.464 44.7753 12.464C44.4766 12.464 44.1779 12.624 43.8793 12.944C43.0259 13.8187 42.5673 15.0027 42.5033 16.496C42.5033 16.5813 42.4926 16.6987 42.4713 16.848C42.4713 16.976 42.4713 17.072 42.4713 17.136C42.4713 17.6267 42.5993 18.0853 42.8553 18.512C43.5379 19.728 44.7433 20.336 46.4713 20.336C47.1966 20.3147 47.9326 20.0693 48.6793 19.6C49.4473 19.1093 50.0019 18.5227 50.3433 17.84C50.5353 17.4347 50.6313 16.9973 50.6313 16.528C50.6313 15.7387 50.3539 14.992 49.7993 14.288C49.2659 13.5627 48.5726 13.072 47.7193 12.816ZM42.8553 9.232C43.3459 8.95467 43.8366 8.816 44.3273 8.816C44.4339 8.816 44.8286 8.83733 45.5113 8.88C47.5379 8.98667 49.1699 9.41333 50.4073 10.16C51.6446 10.9067 52.6366 12.0587 53.3833 13.616C53.9593 14.8107 54.2473 15.952 54.2473 17.04C54.2473 17.3813 54.2153 17.68 54.1513 17.936C53.8099 19.2587 53.0633 20.464 51.9113 21.552C50.7593 22.64 49.4899 23.3653 48.1033 23.728C47.3779 23.8987 46.8019 23.984 46.3753 23.984C45.9486 23.984 45.3726 23.8987 44.6473 23.728C42.4499 23.152 40.8713 22.1067 39.9113 20.592C39.1646 19.4187 38.7913 18.1813 38.7913 16.88C38.7913 15.5787 39.1433 14.192 39.8473 12.72C40.6579 10.992 41.6606 9.82933 42.8553 9.232ZM58.24 8.88C58.5813 8.51733 58.9973 8.336 59.488 8.336C60.4053 8.336 60.992 8.69867 61.248 9.424C61.376 9.85067 61.44 11.0987 61.44 13.168C61.44 15.2587 61.504 16.624 61.632 17.264C61.952 18.736 62.6027 19.472 63.584 19.472C63.776 19.472 63.9787 19.44 64.192 19.376C64.4907 19.2907 64.8747 19.0027 65.344 18.512C65.8347 18.0213 66.1867 17.5733 66.4 17.168C66.784 16.3787 67.1253 14.8107 67.424 12.464C67.6373 10.864 67.968 9.89333 68.416 9.552C68.7147 9.31733 69.0453 9.2 69.408 9.2C69.8133 9.2 70.1867 9.34933 70.528 9.648C70.8907 9.92533 71.136 10.288 71.264 10.736C71.3707 11.2053 71.552 12.88 71.808 15.76C72.0853 18.6187 72.224 20.4427 72.224 21.232V21.488C72.1387 21.8933 71.936 22.2133 71.616 22.448C71.296 22.6827 70.944 22.8 70.56 22.8C70.1973 22.8 69.8453 22.6933 69.504 22.48C69.184 22.2667 68.96 21.9573 68.832 21.552C68.6613 21.0613 68.5653 20.816 68.544 20.816C68.4587 20.816 68.096 21.0613 67.456 21.552C66.176 22.576 64.9173 23.088 63.68 23.088H63.584C62.56 23.088 61.6427 22.8427 60.832 22.352C60.0213 21.8613 59.3813 21.168 58.912 20.272C58.464 19.376 58.176 18.5653 58.048 17.84C57.92 17.0933 57.8453 15.6533 57.824 13.52L57.728 9.456L58.24 8.88ZM76.2728 1.424C76.6141 1.08267 77.0194 0.911999 77.4888 0.911999C77.9368 0.911999 78.3314 1.08267 78.6727 1.424C79.0141 1.76533 79.2274 2.32 79.3128 3.088C79.3341 3.30133 79.3448 4.58133 79.3448 6.928C79.3448 17.8933 79.2701 23.6 79.1208 24.048C79.0354 24.304 78.8434 24.5067 78.5448 24.656C78.2461 24.8053 77.9154 24.88 77.5528 24.88C77.1261 24.88 76.7848 24.7947 76.5288 24.624C76.1448 24.368 75.8994 23.9947 75.7928 23.504C75.7074 22.992 75.6648 21.6267 75.6648 19.408C75.6648 16.8267 75.6754 14.5333 75.6968 12.528L75.7928 1.904L76.2728 1.424ZM91.0153 13.616C90.1619 13.2107 89.5646 13.008 89.2233 13.008C88.8179 13.008 88.3059 13.2853 87.6873 13.84C86.8553 14.608 86.4393 15.5573 86.4393 16.688C86.4393 17.6053 86.7379 18.2987 87.3353 18.768C87.6126 18.9813 87.9006 19.088 88.1993 19.088C88.5619 19.088 89.0206 18.9387 89.5753 18.64C91.3673 17.7013 92.2633 16.4853 92.2633 14.992V14.192L91.0153 13.616ZM92.6473 2.256C93.0099 1.95733 93.4366 1.808 93.9273 1.808C94.2473 1.808 94.5139 1.872 94.7273 2C94.9833 2.14933 95.1966 2.39467 95.3673 2.736C95.4953 2.992 95.5806 3.70667 95.6233 4.88C95.6873 6.05333 95.7299 8.74133 95.7513 12.944L95.8153 22.576L95.2713 23.12C94.9086 23.4827 94.4926 23.664 94.0233 23.664C93.5753 23.664 93.1699 23.504 92.8073 23.184C92.4446 22.864 92.2633 22.5013 92.2633 22.096C92.2633 21.7547 92.2419 21.5627 92.1993 21.52H92.1673C92.0179 21.52 91.6659 21.6587 91.1113 21.936C90.0659 22.4267 89.0846 22.672 88.1673 22.672C86.7379 22.672 85.4899 22.096 84.4233 20.944C83.3353 19.7493 82.7913 18.3413 82.7913 16.72C82.7913 14.5867 83.6233 12.752 85.2873 11.216C86.5459 10.064 87.9113 9.488 89.3833 9.488C90.0233 9.488 90.6099 9.57333 91.1433 9.744C91.7193 9.936 92.0286 10.032 92.0713 10.032C92.0926 10.032 92.1033 8.816 92.1033 6.384V2.736L92.6473 2.256ZM99.676 8.112C100.017 7.74933 100.455 7.568 100.988 7.568C101.351 7.568 101.671 7.664 101.948 7.856C102.183 8.02667 102.385 8.304 102.556 8.688C102.748 9.072 102.844 9.424 102.844 9.744C102.844 10.0853 102.929 10.256 103.1 10.256C103.292 10.256 103.601 10.1173 104.028 9.84C104.455 9.584 105.02 9.34933 105.724 9.136C106.428 8.92267 106.993 8.816 107.42 8.816C107.847 8.816 108.369 8.95467 108.988 9.232C109.628 9.50933 110.129 9.81867 110.492 10.16C111.26 10.9067 111.804 11.952 112.124 13.296C112.465 14.64 112.636 16.5067 112.636 18.896C112.636 20.5813 112.583 21.6907 112.476 22.224C112.369 22.736 112.124 23.0987 111.74 23.312C111.484 23.44 111.175 23.504 110.812 23.504C110.428 23.504 110.108 23.44 109.852 23.312C109.489 23.12 109.255 22.768 109.148 22.256C109.063 21.7227 108.999 20.4427 108.956 18.416C108.913 16.3893 108.828 15.056 108.7 14.416C108.572 13.7547 108.305 13.2213 107.9 12.816C107.687 12.6027 107.42 12.496 107.1 12.496C106.567 12.496 105.991 12.7627 105.372 13.296C104.775 13.808 104.284 14.4693 103.9 15.28C103.708 15.6853 103.591 16.0693 103.548 16.432C103.505 16.7947 103.463 17.6267 103.42 18.928C103.377 20.72 103.292 21.7867 103.164 22.128C102.865 22.9173 102.289 23.312 101.436 23.312C100.732 23.312 100.199 23.0027 99.836 22.384C99.7293 22.1493 99.6227 20.1547 99.516 16.4C99.388 12.368 99.3027 10.1387 99.26 9.712C99.2173 9.28533 99.196 9.05067 99.196 9.008C99.196 8.73067 99.356 8.432 99.676 8.112ZM116.903 2.384C117.202 2.10667 117.586 1.968 118.055 1.968C118.567 1.968 118.983 2.13867 119.303 2.48C119.538 2.71467 119.676 2.98133 119.719 3.28C119.783 3.57867 119.826 4.368 119.847 5.648C119.868 6.07467 119.879 6.58667 119.879 7.184C119.879 8.05867 119.804 8.64533 119.655 8.944C119.356 9.62667 118.855 9.968 118.151 9.968C118.066 9.968 117.916 9.94667 117.703 9.904C117.148 9.75467 116.754 9.37067 116.519 8.752C116.284 8.112 116.156 7.056 116.135 5.584V5.296C116.135 3.80267 116.391 2.832 116.903 2.384ZM128.313 1.52C128.676 1.15733 129.113 0.975998 129.625 0.975998C130.009 0.975998 130.35 1.09333 130.649 1.328C130.969 1.54133 131.193 1.85067 131.321 2.256C131.385 2.49067 131.492 3.6 131.641 5.584C131.79 7.54667 131.865 8.912 131.865 9.68C131.865 9.872 131.908 9.98933 131.993 10.032C132.1 10.0747 132.345 10.096 132.729 10.096C133.305 10.096 133.636 10.032 133.721 9.904C133.764 9.79733 134.201 9.744 135.033 9.744C136.1 9.744 136.804 9.81867 137.145 9.968C137.465 10.1173 137.71 10.4053 137.881 10.832C138.03 11.1307 138.105 11.376 138.105 11.568C138.105 11.7173 138.073 11.8987 138.009 12.112C137.86 12.6027 137.582 12.9333 137.177 13.104C136.793 13.2533 136.025 13.36 134.873 13.424C133.572 13.488 132.729 13.5733 132.345 13.68L131.833 13.808L131.961 18.32C132.004 20.3253 132.025 21.4027 132.025 21.552C132.025 22.4907 131.95 23.12 131.801 23.44C131.481 24.1227 130.958 24.464 130.233 24.464C129.956 24.464 129.668 24.4 129.369 24.272C129.134 24.1653 128.964 24.0693 128.857 23.984C128.75 23.8773 128.654 23.6107 128.569 23.184C128.484 22.736 128.43 22.2133 128.409 21.616C128.388 21.0187 128.366 20.0373 128.345 18.672L128.281 14.032L127.321 14.064C126.745 14.1067 126.233 14.192 125.785 14.32C125.678 14.3627 125.508 14.384 125.273 14.384C124.548 14.384 124.025 14.16 123.705 13.712C123.534 13.4347 123.449 13.0613 123.449 12.592C123.449 12.1867 123.513 11.8667 123.641 11.632C123.94 11.0987 124.985 10.6933 126.777 10.416L128.249 10.192L128.121 7.376C128.036 5.37067 127.961 4.00533 127.897 3.28C127.854 2.768 127.833 2.49067 127.833 2.448C127.833 2.14933 127.993 1.84 128.313 1.52ZM165.054 13.808C164.67 13.616 164.126 13.52 163.422 13.52C162.654 13.52 162.004 13.6373 161.47 13.872C161.108 14.0213 160.638 14.352 160.062 14.864C159.486 15.3547 159.198 15.6747 159.198 15.824C159.198 15.888 159.529 15.92 160.19 15.92C161.172 15.92 162.345 15.8667 163.71 15.76C165.076 15.6533 165.854 15.536 166.046 15.408C166.11 15.3867 166.142 15.3227 166.142 15.216C166.142 15.024 166.025 14.7787 165.79 14.48C165.556 14.16 165.31 13.936 165.054 13.808ZM161.278 10.096C161.812 9.94667 162.441 9.872 163.166 9.872C164.51 9.872 165.737 10.1387 166.846 10.672C167.678 11.0987 168.372 11.7493 168.926 12.624C169.481 13.4773 169.822 14.4373 169.95 15.504C169.95 15.5467 169.95 15.6107 169.95 15.696C169.972 15.7813 169.982 15.8453 169.982 15.888C169.982 16.4427 169.876 16.9867 169.662 17.52C169.47 18.0533 169.236 18.416 168.958 18.608C168.596 18.864 166.046 19.184 161.31 19.568C160.308 19.6533 159.806 19.7493 159.806 19.856C159.806 19.984 160.03 20.1867 160.478 20.464C160.926 20.7413 161.364 20.9333 161.79 21.04C162.174 21.1253 162.484 21.168 162.718 21.168C163.401 21.168 164.286 20.944 165.374 20.496C166.142 20.176 166.708 20.016 167.07 20.016C167.433 20.016 167.774 20.176 168.094 20.496C168.521 20.9227 168.734 21.328 168.734 21.712C168.734 21.968 168.67 22.2347 168.542 22.512C168.436 22.768 168.286 22.9707 168.094 23.12C167.924 23.2693 167.604 23.4507 167.134 23.664C165.577 24.3467 164.126 24.688 162.782 24.688C162.014 24.688 161.225 24.5707 160.414 24.336C159.326 23.9947 158.334 23.4187 157.438 22.608C156.542 21.776 155.902 20.8587 155.518 19.856C155.284 19.1947 155.166 18.4587 155.166 17.648C155.166 16.4747 155.358 15.4933 155.742 14.704C156.19 13.7227 156.948 12.784 158.014 11.888C159.081 10.992 160.169 10.3947 161.278 10.096ZM173.607 9.808C173.777 8.93333 174.375 8.496 175.399 8.496H175.463C175.868 8.496 176.188 8.61333 176.423 8.848C176.657 9.06133 177.276 9.85067 178.279 11.216C179.26 12.5173 179.804 13.2 179.911 13.264H179.943C180.092 13.264 180.401 13.0613 180.871 12.656C181.34 12.2293 181.575 11.9413 181.575 11.792C181.575 11.6853 181.873 11.248 182.471 10.48C183.068 9.69067 183.441 9.25333 183.591 9.168C183.719 9.08267 184.049 9.04 184.583 9.04C185.735 9.04 186.311 9.59467 186.311 10.704C186.311 11.088 186.204 11.4613 185.991 11.824C185.777 12.1653 185.287 12.816 184.519 13.776C183.153 15.4827 182.471 16.3893 182.471 16.496C182.471 16.5813 182.929 17.1253 183.847 18.128C185.212 19.6427 186.076 20.656 186.439 21.168C186.823 21.68 187.015 22.128 187.015 22.512C187.015 23.0027 186.833 23.4187 186.471 23.76C186.129 24.1013 185.724 24.272 185.255 24.272C184.977 24.272 184.732 24.208 184.519 24.08C184.22 23.9307 183.409 23.12 182.087 21.648C180.785 20.1547 180.06 19.408 179.911 19.408C179.783 19.408 179.441 19.7173 178.887 20.336C178.353 20.9333 177.799 21.6267 177.223 22.416C176.796 23.0133 176.433 23.4187 176.135 23.632C175.857 23.8453 175.537 23.952 175.175 23.952C174.727 23.952 174.321 23.76 173.959 23.376C173.596 22.9707 173.415 22.544 173.415 22.096C173.415 21.9253 173.447 21.7653 173.511 21.616C173.809 20.848 174.727 19.5893 176.263 17.84C177.031 16.944 177.415 16.4107 177.415 16.24C177.415 15.28 177.212 14.416 176.807 13.648C176.401 12.88 175.964 12.3147 175.495 11.952C175.025 11.568 174.588 11.2267 174.183 10.928C173.777 10.608 173.575 10.3733 173.575 10.224C173.575 10.032 173.585 9.89333 173.607 9.808ZM201.739 13.232C201.12 12.6133 200.16 12.304 198.859 12.304C198.219 12.304 197.654 12.4107 197.163 12.624C196.694 12.8373 196.182 13.2533 195.627 13.872C195.072 14.4907 194.71 15.056 194.539 15.568C194.347 16.1227 194.251 16.6453 194.251 17.136C194.251 18.2667 194.699 19.0667 195.595 19.536C196.128 19.8133 196.822 19.952 197.675 19.952C198.251 19.952 198.688 19.8773 198.987 19.728C200.715 18.8533 201.771 17.2853 202.155 15.024L202.347 13.808L201.739 13.232ZM196.875 8.88C197.387 8.73067 197.984 8.656 198.667 8.656C199.819 8.656 200.95 8.85867 202.059 9.264C203.168 9.66933 203.936 10.1813 204.363 10.8C204.662 11.2267 205.046 11.6747 205.515 12.144C206.027 12.6773 206.496 13.5947 206.923 14.896C207.328 16.1333 207.702 17.5093 208.043 19.024C208.406 20.5387 208.587 21.5627 208.587 22.096C208.587 22.6293 208.427 23.0453 208.107 23.344C207.702 23.728 207.318 23.92 206.955 23.92C206.806 23.92 206.614 23.888 206.379 23.824C205.974 23.6747 205.654 23.4187 205.419 23.056C205.206 22.6933 205.014 22.1067 204.843 21.296C204.63 20.336 204.512 19.856 204.491 19.856C204.406 19.856 203.958 20.2613 203.147 21.072C201.547 22.6293 199.883 23.472 198.155 23.6H197.707C196.662 23.6 195.638 23.4187 194.635 23.056C193.654 22.6933 192.875 22.2133 192.299 21.616C192 21.3173 191.702 20.8693 191.403 20.272C191.104 19.6533 190.902 19.088 190.795 18.576C190.688 18.0427 190.635 17.5627 190.635 17.136C190.635 15.3653 191.232 13.6693 192.427 12.048C193.643 10.4267 195.126 9.37067 196.875 8.88ZM216.23 9.392C216.572 9.264 217.105 9.2 217.83 9.2C218.214 9.2 218.524 9.21067 218.758 9.232C219.612 9.25333 220.198 9.30667 220.518 9.392C220.838 9.456 221.265 9.616 221.798 9.872C223.313 10.64 224.07 11.568 224.07 12.656C224.07 12.8907 223.996 13.1787 223.846 13.52C223.526 14.1387 223.036 14.448 222.374 14.448C221.777 14.448 221.233 14.1707 220.742 13.616C220.508 13.36 220.294 13.1893 220.102 13.104C219.91 12.9973 219.601 12.912 219.174 12.848C218.748 12.8053 218.46 12.784 218.31 12.784C217.564 12.784 217.02 13.0187 216.678 13.488C216.081 14.3627 215.782 15.312 215.782 16.336C215.782 17.4453 216.124 18.3947 216.806 19.184C217.489 19.952 218.385 20.336 219.494 20.336C219.921 20.336 220.518 20.2293 221.286 20.016C222.054 19.7813 222.566 19.568 222.822 19.376C223.036 19.2053 223.409 19.12 223.942 19.12C224.454 19.12 224.87 19.28 225.19 19.6C225.532 19.92 225.702 20.3253 225.702 20.816C225.702 21.264 225.596 21.6267 225.382 21.904C225.169 22.1813 224.764 22.4693 224.166 22.768C222.63 23.536 221.094 23.92 219.558 23.92C217.02 23.92 215.089 23.0133 213.766 21.2C212.7 19.7493 212.166 18.16 212.166 16.432C212.166 15.3653 212.38 14.2453 212.806 13.072C213.126 12.24 213.596 11.4827 214.214 10.8C214.854 10.1173 215.526 9.648 216.23 9.392ZM234.283 2.192C234.625 1.97867 234.945 1.872 235.243 1.872C235.478 1.872 235.745 1.936 236.043 2.064C236.491 2.27733 236.779 2.608 236.907 3.056C237.035 3.504 237.121 4.57067 237.163 6.256L237.259 9.424L238.731 9.328C238.902 9.30667 239.147 9.296 239.467 9.296C240.235 9.296 240.779 9.43467 241.099 9.712C241.441 9.98933 241.611 10.4373 241.611 11.056C241.611 11.7173 241.387 12.1867 240.939 12.464C240.513 12.7413 239.681 12.9333 238.443 13.04L237.099 13.168L236.875 17.616C236.726 20.624 236.587 22.288 236.459 22.608C236.182 23.248 235.649 23.568 234.859 23.568C234.411 23.568 234.059 23.4507 233.803 23.216C233.526 23.0027 233.334 22.768 233.227 22.512C233.121 22.256 233.067 21.84 233.067 21.264C233.067 20.7947 233.099 20.0907 233.163 19.152C233.27 17.4667 233.345 16.0267 233.387 14.832L233.419 13.328L231.979 13.296C231.169 13.2747 230.614 13.2107 230.315 13.104C230.017 12.976 229.761 12.72 229.547 12.336C229.419 12.08 229.355 11.8133 229.355 11.536C229.355 11.024 229.569 10.576 229.995 10.192C230.23 9.97867 230.529 9.84 230.891 9.776C231.254 9.69067 231.926 9.60533 232.907 9.52L233.419 9.456L233.547 6.064C233.569 5.552 233.579 4.99733 233.579 4.4C233.601 3.78133 233.611 3.32266 233.611 3.024L233.643 2.576L233.739 2.512C233.803 2.46933 233.889 2.416 233.995 2.352C234.102 2.288 234.198 2.23467 234.283 2.192ZM246.606 2.864C246.884 2.75733 247.129 2.704 247.342 2.704C247.662 2.704 247.982 2.8 248.302 2.992C248.622 3.20533 248.836 3.44 248.942 3.696C249.07 3.952 249.134 4.44267 249.134 5.168C249.134 6 249.092 7.056 249.006 8.336C248.857 10.96 248.761 14.0533 248.718 17.616C248.718 21.0933 248.644 22.9707 248.494 23.248C248.388 23.4613 248.164 23.6747 247.822 23.888C247.502 24.08 247.225 24.176 246.99 24.176C246.734 24.176 246.446 24.0693 246.126 23.856C245.806 23.6427 245.582 23.408 245.454 23.152C245.198 22.64 245.07 20.9227 245.07 18C245.07 15.056 245.198 11.1733 245.454 6.352C245.518 5.09333 245.625 4.24 245.774 3.792C245.924 3.344 246.201 3.03467 246.606 2.864ZM264.572 8.272C264.785 8.208 264.945 8.176 265.052 8.176C265.137 8.176 265.382 8.26133 265.788 8.432C266.214 8.60267 266.513 8.89067 266.684 9.296C266.769 9.46667 266.812 9.65867 266.812 9.872C266.812 10.192 266.556 11.1627 266.044 12.784C265.105 15.792 263.921 18.8107 262.492 21.84C261.83 23.2907 260.817 25.168 259.452 27.472C258.086 29.7973 257.254 31.0453 256.956 31.216C256.614 31.4293 256.262 31.536 255.9 31.536C255.409 31.536 254.982 31.3653 254.62 31.024C254.278 30.704 254.108 30.2773 254.108 29.744C254.108 29.36 254.449 28.6347 255.132 27.568C255.665 26.736 256.358 25.5627 257.212 24.048C258.065 22.512 258.492 21.6907 258.492 21.584C258.492 21.52 258.257 21.0933 257.788 20.304C257.574 19.9627 256.817 18.576 255.516 16.144C254.236 13.6907 253.457 12.272 253.18 11.888C252.838 11.3973 252.668 10.9067 252.668 10.416C252.668 9.712 253.009 9.21067 253.692 8.912C253.948 8.80533 254.172 8.752 254.364 8.752C254.812 8.752 255.249 9.008 255.676 9.52C256.102 10.0107 256.646 10.864 257.308 12.08C258.737 14.7253 259.708 16.4533 260.22 17.264C260.326 17.4133 260.39 17.488 260.412 17.488C260.497 17.488 260.71 17.0293 261.052 16.112C261.542 14.768 262.033 13.3387 262.524 11.824C262.95 10.4587 263.292 9.552 263.548 9.104C263.825 8.656 264.166 8.37867 264.572 8.272ZM284.647 8.496C285.031 8.432 285.426 8.4 285.831 8.4C287.111 8.4 288.252 8.688 289.255 9.264C290.258 9.84 290.759 10.5013 290.759 11.248C290.759 11.44 290.727 11.6107 290.663 11.76C290.343 12.5707 289.863 12.976 289.223 12.976C288.754 12.976 288.22 12.8267 287.623 12.528C286.94 12.1867 286.311 12.016 285.735 12.016C285.116 12.016 284.604 12.2187 284.199 12.624C283.986 12.8373 283.879 13.008 283.879 13.136C283.879 13.3067 284.039 13.5093 284.359 13.744C284.7 13.9573 285.319 14.2987 286.215 14.768C287.687 15.536 288.679 16.1653 289.191 16.656C289.682 17.0827 290.108 17.616 290.471 18.256C290.834 18.8747 291.015 19.3973 291.015 19.824C291.015 20.3147 290.887 20.8053 290.631 21.296C290.375 21.7867 290.055 22.16 289.671 22.416C288.69 23.0773 287.495 23.408 286.087 23.408C284.764 23.408 283.399 23.0987 281.991 22.48C281.33 22.16 280.914 21.7973 280.743 21.392C280.615 21.0933 280.551 20.8267 280.551 20.592C280.551 20.1653 280.754 19.7493 281.159 19.344C281.436 19.024 281.81 18.864 282.279 18.864C282.727 18.864 283.271 19.0027 283.911 19.28C284.615 19.5787 285.426 19.728 286.343 19.728C286.77 19.728 286.983 19.6747 286.983 19.568C286.983 19.312 286.066 18.7253 284.231 17.808C282.802 17.0613 281.756 16.3253 281.095 15.6C280.434 14.8533 280.103 14.032 280.103 13.136C280.103 12.0693 280.54 11.088 281.415 10.192C282.311 9.27467 283.388 8.70933 284.647 8.496ZM303.726 13.68C303.619 13.3387 303.523 13.1467 303.438 13.104C303.353 13.04 303.118 13.008 302.734 13.008C301.625 13.0293 300.59 13.552 299.63 14.576C298.67 15.5787 298.19 16.592 298.19 17.616C298.19 18.128 298.329 18.5547 298.606 18.896C299.225 19.5787 299.875 19.92 300.558 19.92C300.601 19.92 300.643 19.92 300.686 19.92C300.729 19.8987 300.771 19.888 300.814 19.888C301.198 19.8027 301.603 19.5467 302.03 19.12C302.478 18.6933 302.819 18.224 303.054 17.712C303.545 16.56 303.79 15.44 303.79 14.352C303.79 14.032 303.769 13.808 303.726 13.68ZM300.75 9.648C301.326 9.456 301.987 9.36 302.734 9.36C303.715 9.36 304.547 9.52 305.23 9.84C305.678 10.0747 306.083 10.4267 306.446 10.896C306.83 11.344 307.065 11.7707 307.15 12.176C307.235 12.5813 307.353 12.9653 307.502 13.328C307.737 13.9467 308.206 16.272 308.91 20.304C309.017 20.944 309.07 21.424 309.07 21.744C309.07 23.024 308.473 23.664 307.278 23.664C306.873 23.664 306.499 23.504 306.158 23.184C305.838 22.864 305.635 22.4693 305.55 22C305.465 21.5733 305.39 21.328 305.326 21.264C305.241 21.2 304.995 21.3707 304.59 21.776C303.374 22.992 301.977 23.6 300.398 23.6C300.121 23.6 299.833 23.568 299.534 23.504C298.361 23.248 297.262 22.608 296.238 21.584C295.086 20.432 294.51 19.1413 294.51 17.712C294.51 16.5813 294.862 15.3547 295.566 14.032C296.099 13.0293 296.825 12.1333 297.742 11.344C298.681 10.5547 299.683 9.98933 300.75 9.648ZM324.572 8.272C324.785 8.208 324.945 8.176 325.052 8.176C325.137 8.176 325.382 8.26133 325.788 8.432C326.214 8.60267 326.513 8.89067 326.684 9.296C326.769 9.46667 326.812 9.65867 326.812 9.872C326.812 10.192 326.556 11.1627 326.044 12.784C325.105 15.792 323.921 18.8107 322.492 21.84C321.83 23.2907 320.817 25.168 319.452 27.472C318.086 29.7973 317.254 31.0453 316.956 31.216C316.614 31.4293 316.262 31.536 315.9 31.536C315.409 31.536 314.982 31.3653 314.62 31.024C314.278 30.704 314.108 30.2773 314.108 29.744C314.108 29.36 314.449 28.6347 315.132 27.568C315.665 26.736 316.358 25.5627 317.212 24.048C318.065 22.512 318.492 21.6907 318.492 21.584C318.492 21.52 318.257 21.0933 317.788 20.304C317.574 19.9627 316.817 18.576 315.516 16.144C314.236 13.6907 313.457 12.272 313.18 11.888C312.838 11.3973 312.668 10.9067 312.668 10.416C312.668 9.712 313.009 9.21067 313.692 8.912C313.948 8.80533 314.172 8.752 314.364 8.752C314.812 8.752 315.249 9.008 315.676 9.52C316.102 10.0107 316.646 10.864 317.308 12.08C318.737 14.7253 319.708 16.4533 320.22 17.264C320.326 17.4133 320.39 17.488 320.412 17.488C320.497 17.488 320.71 17.0293 321.052 16.112C321.542 14.768 322.033 13.3387 322.524 11.824C322.95 10.4587 323.292 9.552 323.548 9.104C323.825 8.656 324.166 8.37867 324.572 8.272ZM345.263 2.864C345.54 2.75733 345.785 2.704 345.999 2.704C346.319 2.704 346.639 2.8 346.959 2.992C347.279 3.20533 347.492 3.44 347.599 3.696C347.727 3.952 347.791 4.44267 347.791 5.168C347.791 6 347.748 7.056 347.663 8.336C347.513 10.96 347.417 14.0533 347.375 17.616C347.375 21.0933 347.3 22.9707 347.151 23.248C347.044 23.4613 346.82 23.6747 346.479 23.888C346.159 24.08 345.881 24.176 345.647 24.176C345.391 24.176 345.103 24.0693 344.783 23.856C344.463 23.6427 344.239 23.408 344.111 23.152C343.855 22.64 343.727 20.9227 343.727 18C343.727 15.056 343.855 11.1733 344.111 6.352C344.175 5.09333 344.281 4.24 344.431 3.792C344.58 3.344 344.857 3.03467 345.263 2.864ZM352.956 8.912C353.041 8.89067 353.169 8.88 353.34 8.88C353.745 8.88 354.119 8.98667 354.46 9.2C354.801 9.392 355.036 9.65867 355.164 10C355.249 10.192 355.335 11.6533 355.42 14.384C355.527 17.0933 355.58 19.2267 355.58 20.784C355.58 21.4453 355.569 21.8293 355.548 21.936C355.441 22.7467 355.089 23.2907 354.492 23.568C354.193 23.696 353.959 23.76 353.788 23.76C353.66 23.76 353.468 23.728 353.212 23.664C352.721 23.5147 352.412 23.312 352.284 23.056C352.028 22.5653 351.879 20.6667 351.836 17.36C351.836 16.7627 351.825 15.728 351.804 14.256L351.772 9.872L352.156 9.424C352.412 9.12533 352.679 8.95467 352.956 8.912ZM352.188 2.896C352.444 2.768 352.689 2.704 352.924 2.704C353.393 2.704 353.809 2.896 354.172 3.28C354.535 3.64267 354.716 4.06933 354.716 4.56C354.716 4.90133 354.631 5.2 354.46 5.456C354.097 6.032 353.607 6.32 352.988 6.32C352.583 6.32 352.209 6.18133 351.868 5.904C351.527 5.62667 351.313 5.24267 351.228 4.752C351.228 4.73067 351.217 4.69867 351.196 4.656C351.196 4.592 351.196 4.54933 351.196 4.528C351.196 4.208 351.292 3.89867 351.484 3.6C351.676 3.28 351.911 3.04533 352.188 2.896ZM366.529 1.264C366.743 1.2 367.009 1.168 367.329 1.168C368.353 1.168 369.164 1.33867 369.761 1.68C370.572 2.17067 370.977 2.832 370.977 3.664C370.977 4.304 370.689 4.77333 370.113 5.072C369.836 5.22133 369.537 5.296 369.217 5.296C368.897 5.296 368.524 5.2 368.097 5.008C367.756 4.85867 367.575 4.784 367.553 4.784C367.468 4.784 367.329 4.88 367.137 5.072C366.903 5.30667 366.7 5.78667 366.529 6.512C366.359 7.23733 366.273 8.03733 366.273 8.912V9.584C366.273 9.88267 366.305 10.0853 366.369 10.192C366.433 10.2987 366.583 10.352 366.817 10.352C367.031 10.352 367.543 10.2987 368.353 10.192C368.545 10.1707 368.801 10.16 369.121 10.16C370.593 10.16 371.329 10.7573 371.329 11.952C371.308 12.5707 371.084 13.0187 370.657 13.296C370.252 13.552 369.527 13.7227 368.481 13.808C367.479 13.8933 366.924 13.968 366.817 14.032C366.796 14.032 366.785 14.128 366.785 14.32C366.785 14.8747 366.892 15.9733 367.105 17.616C367.319 19.2587 367.521 20.5493 367.713 21.488C367.799 22 367.841 22.352 367.841 22.544C367.841 23.2693 367.671 23.8453 367.329 24.272C366.988 24.6987 366.519 24.912 365.921 24.912C365.431 24.912 365.015 24.752 364.673 24.432C364.439 24.176 364.279 23.8987 364.193 23.6C364.129 23.28 364.033 22.448 363.905 21.104C363.692 19.0773 363.5 17.4773 363.329 16.304L363.041 14.288L361.473 14.224C360.748 14.1813 360.289 14.128 360.097 14.064C359.905 14 359.713 13.8613 359.521 13.648C359.244 13.3067 359.105 12.8907 359.105 12.4C359.105 12.1013 359.169 11.824 359.297 11.568C359.596 11.056 360.343 10.736 361.537 10.608L362.561 10.512L362.657 8.56C362.785 6.34133 363.159 4.656 363.777 3.504C364.396 2.33067 365.313 1.584 366.529 1.264ZM384.773 13.808C384.389 13.616 383.845 13.52 383.141 13.52C382.373 13.52 381.722 13.6373 381.189 13.872C380.826 14.0213 380.357 14.352 379.781 14.864C379.205 15.3547 378.917 15.6747 378.917 15.824C378.917 15.888 379.248 15.92 379.909 15.92C380.89 15.92 382.064 15.8667 383.429 15.76C384.794 15.6533 385.573 15.536 385.765 15.408C385.829 15.3867 385.861 15.3227 385.861 15.216C385.861 15.024 385.744 14.7787 385.509 14.48C385.274 14.16 385.029 13.936 384.773 13.808ZM380.997 10.096C381.53 9.94667 382.16 9.872 382.885 9.872C384.229 9.872 385.456 10.1387 386.565 10.672C387.397 11.0987 388.09 11.7493 388.645 12.624C389.2 13.4773 389.541 14.4373 389.669 15.504C389.669 15.5467 389.669 15.6107 389.669 15.696C389.69 15.7813 389.701 15.8453 389.701 15.888C389.701 16.4427 389.594 16.9867 389.381 17.52C389.189 18.0533 388.954 18.416 388.677 18.608C388.314 18.864 385.765 19.184 381.029 19.568C380.026 19.6533 379.525 19.7493 379.525 19.856C379.525 19.984 379.749 20.1867 380.197 20.464C380.645 20.7413 381.082 20.9333 381.509 21.04C381.893 21.1253 382.202 21.168 382.437 21.168C383.12 21.168 384.005 20.944 385.093 20.496C385.861 20.176 386.426 20.016 386.789 20.016C387.152 20.016 387.493 20.176 387.813 20.496C388.24 20.9227 388.453 21.328 388.453 21.712C388.453 21.968 388.389 22.2347 388.261 22.512C388.154 22.768 388.005 22.9707 387.813 23.12C387.642 23.2693 387.322 23.4507 386.853 23.664C385.296 24.3467 383.845 24.688 382.501 24.688C381.733 24.688 380.944 24.5707 380.133 24.336C379.045 23.9947 378.053 23.4187 377.157 22.608C376.261 21.776 375.621 20.8587 375.237 19.856C375.002 19.1947 374.885 18.4587 374.885 17.648C374.885 16.4747 375.077 15.4933 375.461 14.704C375.909 13.7227 376.666 12.784 377.733 11.888C378.8 10.992 379.888 10.3947 380.997 10.096ZM415.007 13.68C414.901 13.3387 414.805 13.1467 414.719 13.104C414.634 13.04 414.399 13.008 414.015 13.008C412.906 13.0293 411.871 13.552 410.911 14.576C409.951 15.5787 409.471 16.592 409.471 17.616C409.471 18.128 409.61 18.5547 409.887 18.896C410.506 19.5787 411.157 19.92 411.839 19.92C411.882 19.92 411.925 19.92 411.967 19.92C412.01 19.8987 412.053 19.888 412.095 19.888C412.479 19.8027 412.885 19.5467 413.311 19.12C413.759 18.6933 414.101 18.224 414.335 17.712C414.826 16.56 415.071 15.44 415.071 14.352C415.071 14.032 415.05 13.808 415.007 13.68ZM412.031 9.648C412.607 9.456 413.269 9.36 414.015 9.36C414.997 9.36 415.829 9.52 416.511 9.84C416.959 10.0747 417.365 10.4267 417.727 10.896C418.111 11.344 418.346 11.7707 418.431 12.176C418.517 12.5813 418.634 12.9653 418.783 13.328C419.018 13.9467 419.487 16.272 420.191 20.304C420.298 20.944 420.351 21.424 420.351 21.744C420.351 23.024 419.754 23.664 418.559 23.664C418.154 23.664 417.781 23.504 417.439 23.184C417.119 22.864 416.917 22.4693 416.831 22C416.746 21.5733 416.671 21.328 416.607 21.264C416.522 21.2 416.277 21.3707 415.871 21.776C414.655 22.992 413.258 23.6 411.679 23.6C411.402 23.6 411.114 23.568 410.815 23.504C409.642 23.248 408.543 22.608 407.519 21.584C406.367 20.432 405.791 19.1413 405.791 17.712C405.791 16.5813 406.143 15.3547 406.847 14.032C407.381 13.0293 408.106 12.1333 409.023 11.344C409.962 10.5547 410.965 9.98933 412.031 9.648ZM428.813 1.52C429.176 1.15733 429.613 0.975998 430.125 0.975998C430.509 0.975998 430.85 1.09333 431.149 1.328C431.469 1.54133 431.693 1.85067 431.821 2.256C431.885 2.49067 431.992 3.6 432.141 5.584C432.29 7.54667 432.365 8.912 432.365 9.68C432.365 9.872 432.408 9.98933 432.493 10.032C432.6 10.0747 432.845 10.096 433.229 10.096C433.805 10.096 434.136 10.032 434.221 9.904C434.264 9.79733 434.701 9.744 435.533 9.744C436.6 9.744 437.304 9.81867 437.645 9.968C437.965 10.1173 438.21 10.4053 438.381 10.832C438.53 11.1307 438.605 11.376 438.605 11.568C438.605 11.7173 438.573 11.8987 438.509 12.112C438.36 12.6027 438.082 12.9333 437.677 13.104C437.293 13.2533 436.525 13.36 435.373 13.424C434.072 13.488 433.229 13.5733 432.845 13.68L432.333 13.808L432.461 18.32C432.504 20.3253 432.525 21.4027 432.525 21.552C432.525 22.4907 432.45 23.12 432.301 23.44C431.981 24.1227 431.458 24.464 430.733 24.464C430.456 24.464 430.168 24.4 429.869 24.272C429.634 24.1653 429.464 24.0693 429.357 23.984C429.25 23.8773 429.154 23.6107 429.069 23.184C428.984 22.736 428.93 22.2133 428.909 21.616C428.888 21.0187 428.866 20.0373 428.845 18.672L428.781 14.032L427.821 14.064C427.245 14.1067 426.733 14.192 426.285 14.32C426.178 14.3627 426.008 14.384 425.773 14.384C425.048 14.384 424.525 14.16 424.205 13.712C424.034 13.4347 423.949 13.0613 423.949 12.592C423.949 12.1867 424.013 11.8667 424.141 11.632C424.44 11.0987 425.485 10.6933 427.277 10.416L428.749 10.192L428.621 7.376C428.536 5.37067 428.461 4.00533 428.397 3.28C428.354 2.768 428.333 2.49067 428.333 2.448C428.333 2.14933 428.493 1.84 428.813 1.52ZM456.21 1.648C456.53 1.392 456.872 1.264 457.234 1.264C457.661 1.264 458.056 1.43467 458.418 1.776C458.781 2.096 459.005 2.512 459.09 3.024C459.154 3.49333 459.208 4.784 459.25 6.896C459.25 8.92267 459.293 9.97867 459.378 10.064H459.41C459.496 10.064 459.784 9.89333 460.274 9.552C461.661 8.464 463.101 7.92 464.594 7.92C465.213 7.92 465.81 8.03733 466.386 8.272C467.688 8.80533 468.605 10.16 469.138 12.336C469.266 12.848 469.394 14.0853 469.522 16.048C469.65 18.0107 469.714 19.536 469.714 20.624C469.714 21.072 469.704 21.3387 469.682 21.424C469.597 21.8933 469.384 22.2667 469.042 22.544C468.701 22.8213 468.328 22.96 467.922 22.96C467.432 22.96 467.016 22.7787 466.674 22.416L466.162 21.872L466.066 18.352C466.002 16.368 465.885 14.8107 465.714 13.68C465.608 13.0187 465.437 12.4747 465.202 12.048C464.989 11.6213 464.765 11.408 464.53 11.408C464.253 11.408 463.816 11.5893 463.218 11.952C462.621 12.2933 462.184 12.6133 461.906 12.912C461.181 13.744 460.68 14.6507 460.402 15.632C460.125 16.592 459.976 17.9253 459.954 19.632C459.954 21.1253 459.901 22.0853 459.794 22.512C459.709 22.9813 459.506 23.3547 459.186 23.632C458.866 23.888 458.504 24.016 458.098 24.016C457.629 24.016 457.213 23.8347 456.85 23.472C456.509 23.1307 456.296 22.8 456.21 22.48C456.125 22.1813 456.029 19.7493 455.922 15.184C455.794 10.4693 455.698 7.312 455.634 5.712C455.592 4.64533 455.57 4.016 455.57 3.824C455.57 2.71467 455.784 1.98933 456.21 1.648ZM481.87 11.6C481.294 11.4933 480.814 11.44 480.43 11.44C479.555 11.44 478.819 11.6213 478.222 11.984C477.923 12.176 477.571 12.8267 477.166 13.936C476.782 15.024 476.59 15.8987 476.59 16.56C476.59 17.6267 476.931 18.4907 477.614 19.152C478.318 19.792 479.235 20.1227 480.366 20.144C481.283 20.144 482.136 19.888 482.926 19.376C483.736 18.864 484.323 18.192 484.686 17.36C484.92 16.8267 485.038 16.2187 485.038 15.536C485.038 14.704 484.878 13.9787 484.558 13.36C484.323 12.8693 484.003 12.496 483.598 12.24C483.192 11.984 482.616 11.7707 481.87 11.6ZM478.254 8.176C479 7.984 479.736 7.888 480.462 7.888C481.827 7.888 483.288 8.22933 484.846 8.912C485.955 9.40267 486.83 10.2667 487.47 11.504C488.131 12.7413 488.472 14.2027 488.494 15.888V16.08C488.494 18.6187 487.363 20.6773 485.102 22.256C483.694 23.2587 482.126 23.76 480.398 23.76C478.968 23.76 477.646 23.408 476.43 22.704C475.214 21.9787 474.296 20.9653 473.678 19.664C473.464 19.216 473.326 18.832 473.262 18.512C473.219 18.192 473.198 17.52 473.198 16.496C473.219 14.9813 473.379 13.7867 473.678 12.912C474.382 10.9707 475.214 9.65867 476.174 8.976C476.558 8.69867 477.251 8.432 478.254 8.176ZM493.226 7.344C493.525 7.30133 493.695 7.26933 493.738 7.248C493.845 7.248 494.09 7.32267 494.474 7.472C494.773 7.6 495.039 7.856 495.274 8.24C495.509 8.624 495.626 8.99733 495.626 9.36C495.626 9.63733 495.679 9.85067 495.786 10C495.871 10.1067 495.946 10.1493 496.01 10.128C496.074 10.1067 496.223 10 496.458 9.808C497.418 8.99733 498.591 8.496 499.978 8.304C500.405 8.26133 500.703 8.24 500.874 8.24C501.962 8.24 502.89 8.63467 503.658 9.424L504.394 10.16L505.322 9.424C506.837 8.208 508.309 7.6 509.738 7.6C510.229 7.6 510.666 7.67467 511.05 7.824C511.477 7.99467 511.935 8.32533 512.426 8.816C512.938 9.28533 513.322 9.78667 513.578 10.32C514.346 11.8773 514.847 14.7787 515.082 19.024C515.125 20.0907 515.146 20.6773 515.146 20.784C515.146 21.3387 515.071 21.7547 514.922 22.032C514.602 22.6507 514.111 22.96 513.45 22.96C512.981 22.96 512.565 22.7893 512.202 22.448L511.626 21.968L511.466 18.992C511.231 14.5547 510.698 11.984 509.866 11.28C509.738 11.1947 509.631 11.152 509.546 11.152C509.375 11.152 509.066 11.2693 508.618 11.504C507.509 12.0373 506.719 12.944 506.25 14.224C505.994 14.8853 505.823 16.2613 505.738 18.352C505.631 20.464 505.525 21.6373 505.418 21.872C505.077 22.4693 504.533 22.768 503.786 22.768C503.381 22.768 503.018 22.64 502.698 22.384C502.229 22 501.994 21.0613 501.994 19.568C501.994 18.8853 502.005 18.32 502.026 17.872C502.026 17.7227 502.026 17.52 502.026 17.264C502.047 16.9867 502.058 16.784 502.058 16.656C502.058 14.5653 501.823 13.1147 501.354 12.304C501.162 11.9627 500.97 11.792 500.778 11.792C500.757 11.792 500.618 11.8133 500.362 11.856C498.997 12.112 497.845 13.2107 496.906 15.152C496.522 15.9627 496.33 16.816 496.33 17.712C496.33 18.48 496.394 19.4187 496.522 20.528C496.586 20.976 496.618 21.3493 496.618 21.648C496.618 22.4587 496.266 23.0347 495.562 23.376C495.263 23.5253 495.029 23.6 494.858 23.6C494.73 23.6 494.527 23.5467 494.25 23.44C493.717 23.248 493.365 22.8853 493.194 22.352C493.023 21.7973 492.885 20.6133 492.778 18.8C492.629 15.7067 492.373 12.5173 492.01 9.232C492.01 9.18933 491.999 9.12533 491.978 9.04C491.978 8.95467 491.978 8.90133 491.978 8.88C491.978 8.58133 492.106 8.272 492.362 7.952C492.682 7.58933 492.97 7.38667 493.226 7.344ZM528.523 13.808C528.139 13.616 527.595 13.52 526.891 13.52C526.123 13.52 525.472 13.6373 524.939 13.872C524.576 14.0213 524.107 14.352 523.531 14.864C522.955 15.3547 522.667 15.6747 522.667 15.824C522.667 15.888 522.998 15.92 523.659 15.92C524.64 15.92 525.814 15.8667 527.179 15.76C528.544 15.6533 529.323 15.536 529.515 15.408C529.579 15.3867 529.611 15.3227 529.611 15.216C529.611 15.024 529.494 14.7787 529.259 14.48C529.024 14.16 528.779 13.936 528.523 13.808ZM524.747 10.096C525.28 9.94667 525.91 9.872 526.635 9.872C527.979 9.872 529.206 10.1387 530.315 10.672C531.147 11.0987 531.84 11.7493 532.395 12.624C532.95 13.4773 533.291 14.4373 533.419 15.504C533.419 15.5467 533.419 15.6107 533.419 15.696C533.44 15.7813 533.451 15.8453 533.451 15.888C533.451 16.4427 533.344 16.9867 533.131 17.52C532.939 18.0533 532.704 18.416 532.427 18.608C532.064 18.864 529.515 19.184 524.779 19.568C523.776 19.6533 523.275 19.7493 523.275 19.856C523.275 19.984 523.499 20.1867 523.947 20.464C524.395 20.7413 524.832 20.9333 525.259 21.04C525.643 21.1253 525.952 21.168 526.187 21.168C526.87 21.168 527.755 20.944 528.843 20.496C529.611 20.176 530.176 20.016 530.539 20.016C530.902 20.016 531.243 20.176 531.563 20.496C531.99 20.9227 532.203 21.328 532.203 21.712C532.203 21.968 532.139 22.2347 532.011 22.512C531.904 22.768 531.755 22.9707 531.563 23.12C531.392 23.2693 531.072 23.4507 530.603 23.664C529.046 24.3467 527.595 24.688 526.251 24.688C525.483 24.688 524.694 24.5707 523.883 24.336C522.795 23.9947 521.803 23.4187 520.907 22.608C520.011 21.776 519.371 20.8587 518.987 19.856C518.752 19.1947 518.635 18.4587 518.635 17.648C518.635 16.4747 518.827 15.4933 519.211 14.704C519.659 13.7227 520.416 12.784 521.483 11.888C522.55 10.992 523.638 10.3947 524.747 10.096ZM547.254 8.08C547.638 7.90933 547.883 7.824 547.99 7.824C548.075 7.824 548.32 7.90933 548.726 8.08C549.11 8.22933 549.408 8.54933 549.622 9.04C549.856 9.53067 550.166 10.5227 550.55 12.016C551.595 16.1333 552.235 18.3093 552.47 18.544H552.502C552.587 18.544 552.907 17.9147 553.462 16.656C554.016 15.376 554.656 14.064 555.382 12.72C556.128 11.3547 556.758 10.5973 557.27 10.448C557.483 10.384 557.718 10.352 557.974 10.352C558.784 10.352 559.382 10.576 559.766 11.024C560.022 11.3227 560.416 12.1547 560.95 13.52C562.166 16.5493 562.838 18.064 562.966 18.064H562.998C563.062 18.0213 563.446 16.976 564.15 14.928C564.854 12.7947 565.334 11.4507 565.59 10.896C565.867 10.3413 566.208 9.97867 566.614 9.808C566.891 9.68 567.179 9.616 567.478 9.616C567.584 9.616 567.659 9.62667 567.702 9.648C568.043 9.73333 568.363 9.94667 568.662 10.288C568.982 10.6293 569.142 10.9493 569.142 11.248C569.142 11.5893 568.651 13.104 567.67 15.792C566.71 18.48 565.995 20.3147 565.526 21.296C565.035 22.32 564.63 22.992 564.31 23.312C563.99 23.6107 563.563 23.76 563.03 23.76C562.262 23.76 561.707 23.5573 561.366 23.152C561.046 22.7253 560.448 21.4987 559.574 19.472C558.528 17.104 557.952 15.92 557.846 15.92C557.739 15.92 557.259 16.88 556.406 18.8C555.382 21.1253 554.656 22.576 554.23 23.152C553.803 23.7067 553.206 23.984 552.438 23.984H552.278C551.552 23.9627 551.083 23.8453 550.87 23.632C550.059 22.9493 548.832 19.5467 547.19 13.424C546.571 11.12 546.262 9.78667 546.262 9.424C546.262 9.232 546.304 9.05067 546.39 8.88C546.582 8.47467 546.87 8.208 547.254 8.08ZM583.77 13.232C583.152 12.6133 582.192 12.304 580.89 12.304C580.25 12.304 579.685 12.4107 579.194 12.624C578.725 12.8373 578.213 13.2533 577.658 13.872C577.104 14.4907 576.741 15.056 576.57 15.568C576.378 16.1227 576.282 16.6453 576.282 17.136C576.282 18.2667 576.73 19.0667 577.626 19.536C578.16 19.8133 578.853 19.952 579.706 19.952C580.282 19.952 580.72 19.8773 581.018 19.728C582.746 18.8533 583.802 17.2853 584.186 15.024L584.378 13.808L583.77 13.232ZM578.906 8.88C579.418 8.73067 580.016 8.656 580.698 8.656C581.85 8.656 582.981 8.85867 584.09 9.264C585.2 9.66933 585.968 10.1813 586.394 10.8C586.693 11.2267 587.077 11.6747 587.546 12.144C588.058 12.6773 588.528 13.5947 588.954 14.896C589.36 16.1333 589.733 17.5093 590.074 19.024C590.437 20.5387 590.618 21.5627 590.618 22.096C590.618 22.6293 590.458 23.0453 590.138 23.344C589.733 23.728 589.349 23.92 588.986 23.92C588.837 23.92 588.645 23.888 588.41 23.824C588.005 23.6747 587.685 23.4187 587.45 23.056C587.237 22.6933 587.045 22.1067 586.874 21.296C586.661 20.336 586.544 19.856 586.522 19.856C586.437 19.856 585.989 20.2613 585.178 21.072C583.578 22.6293 581.914 23.472 580.186 23.6H579.738C578.693 23.6 577.669 23.4187 576.666 23.056C575.685 22.6933 574.906 22.2133 574.33 21.616C574.032 21.3173 573.733 20.8693 573.434 20.272C573.136 19.6533 572.933 19.088 572.826 18.576C572.72 18.0427 572.666 17.5627 572.666 17.136C572.666 15.3653 573.264 13.6693 574.458 12.048C575.674 10.4267 577.157 9.37067 578.906 8.88ZM598.71 8.496C599.094 8.432 599.488 8.4 599.894 8.4C601.174 8.4 602.315 8.688 603.318 9.264C604.32 9.84 604.822 10.5013 604.822 11.248C604.822 11.44 604.79 11.6107 604.726 11.76C604.406 12.5707 603.926 12.976 603.286 12.976C602.816 12.976 602.283 12.8267 601.686 12.528C601.003 12.1867 600.374 12.016 599.798 12.016C599.179 12.016 598.667 12.2187 598.262 12.624C598.048 12.8373 597.942 13.008 597.942 13.136C597.942 13.3067 598.102 13.5093 598.422 13.744C598.763 13.9573 599.382 14.2987 600.278 14.768C601.75 15.536 602.742 16.1653 603.254 16.656C603.744 17.0827 604.171 17.616 604.534 18.256C604.896 18.8747 605.078 19.3973 605.078 19.824C605.078 20.3147 604.95 20.8053 604.694 21.296C604.438 21.7867 604.118 22.16 603.734 22.416C602.752 23.0773 601.558 23.408 600.15 23.408C598.827 23.408 597.462 23.0987 596.054 22.48C595.392 22.16 594.976 21.7973 594.806 21.392C594.678 21.0933 594.614 20.8267 594.614 20.592C594.614 20.1653 594.816 19.7493 595.222 19.344C595.499 19.024 595.872 18.864 596.342 18.864C596.79 18.864 597.334 19.0027 597.974 19.28C598.678 19.5787 599.488 19.728 600.406 19.728C600.832 19.728 601.046 19.6747 601.046 19.568C601.046 19.312 600.128 18.7253 598.294 17.808C596.864 17.0613 595.819 16.3253 595.158 15.6C594.496 14.8533 594.166 14.032 594.166 13.136C594.166 12.0693 594.603 11.088 595.478 10.192C596.374 9.27467 597.451 8.70933 598.71 8.496ZM631.214 13.584C630.766 13.4133 630.35 13.328 629.966 13.328C628.622 13.328 627.577 13.9573 626.83 15.216C626.617 15.5787 626.489 15.8987 626.446 16.176C626.404 16.432 626.372 16.9973 626.35 17.872V19.696L627.022 19.856C627.342 19.92 627.769 19.952 628.302 19.952C629.966 19.952 631.054 19.8027 631.566 19.504C632.334 19.056 632.718 18.288 632.718 17.2C632.718 16.7947 632.654 16.3147 632.526 15.76C632.27 14.5653 631.833 13.84 631.214 13.584ZM621.678 3.184C622.02 2.84267 622.446 2.672 622.958 2.672C623.662 2.672 624.174 2.96 624.494 3.536C624.622 3.74933 624.804 5.04 625.038 7.408C625.316 9.84 625.465 11.056 625.486 11.056H625.518C625.668 11.056 625.966 10.928 626.414 10.672C627.652 10.0107 628.878 9.68 630.094 9.68C630.777 9.68 631.449 9.79733 632.11 10.032C632.9 10.288 633.625 10.7467 634.286 11.408C634.841 11.984 635.257 12.6027 635.534 13.264C635.812 13.904 636.036 14.8107 636.206 15.984C636.27 16.3893 636.302 16.7947 636.302 17.2C636.302 19.1627 635.62 20.7627 634.254 22C633.593 22.5973 632.91 22.9813 632.206 23.152C631.502 23.3013 630.244 23.376 628.43 23.376C627.001 23.3547 626.094 23.3227 625.71 23.28C625.326 23.2373 624.9 23.12 624.43 22.928C623.705 22.6293 623.257 22.3413 623.086 22.064C622.788 21.6373 622.542 20.2507 622.35 17.904C622.329 17.5627 622.286 17.008 622.222 16.24C622.073 14.064 621.87 11.8347 621.614 9.552C621.337 6.56533 621.198 4.90133 621.198 4.56C621.198 3.96267 621.358 3.504 621.678 3.184ZM640.271 9.008C640.633 8.64533 641.039 8.464 641.487 8.464C641.935 8.464 642.361 8.64533 642.766 9.008L643.343 9.52L643.439 13.808C643.481 15.7067 643.524 16.9333 643.567 17.488C643.631 18.0427 643.748 18.512 643.919 18.896C644.175 19.4507 644.399 19.728 644.591 19.728C645.081 19.728 645.668 19.3653 646.351 18.64C647.055 17.9147 647.599 17.0933 647.983 16.176C648.26 15.5147 648.58 14.384 648.943 12.784C649.22 11.504 649.433 10.672 649.583 10.288C649.753 9.904 650.02 9.62667 650.383 9.456C650.703 9.30667 651.012 9.232 651.311 9.232C651.609 9.232 651.919 9.31733 652.239 9.488C652.751 9.744 653.092 10.3733 653.263 11.376C653.455 12.3573 653.657 14.64 653.871 18.224C654.02 20.8693 654.095 22.2347 654.095 22.32C654.095 22.8107 654.009 23.1733 653.839 23.408C653.476 23.8987 652.953 24.144 652.271 24.144C651.673 24.144 651.236 23.952 650.959 23.568C650.617 23.0987 650.447 22.32 650.447 21.232C650.447 20.464 650.361 20.08 650.191 20.08C650.02 20.08 649.604 20.4107 648.943 21.072C648.132 21.8613 647.439 22.4373 646.863 22.8C646.479 23.0347 646.148 23.184 645.871 23.248C645.615 23.312 645.177 23.344 644.559 23.344C643.919 23.344 643.481 23.3227 643.247 23.28C643.033 23.216 642.767 23.056 642.447 22.8C641.38 22.0107 640.665 20.976 640.303 19.696C639.94 18.3947 639.759 16.2507 639.759 13.264V9.52L640.271 9.008ZM662.085 8.496C662.469 8.432 662.863 8.4 663.269 8.4C664.549 8.4 665.69 8.688 666.693 9.264C667.695 9.84 668.197 10.5013 668.197 11.248C668.197 11.44 668.165 11.6107 668.101 11.76C667.781 12.5707 667.301 12.976 666.661 12.976C666.191 12.976 665.658 12.8267 665.061 12.528C664.378 12.1867 663.749 12.016 663.173 12.016C662.554 12.016 662.042 12.2187 661.637 12.624C661.423 12.8373 661.317 13.008 661.317 13.136C661.317 13.3067 661.477 13.5093 661.797 13.744C662.138 13.9573 662.757 14.2987 663.653 14.768C665.125 15.536 666.117 16.1653 666.629 16.656C667.119 17.0827 667.546 17.616 667.909 18.256C668.271 18.8747 668.453 19.3973 668.453 19.824C668.453 20.3147 668.325 20.8053 668.069 21.296C667.813 21.7867 667.493 22.16 667.109 22.416C666.127 23.0773 664.933 23.408 663.525 23.408C662.202 23.408 660.837 23.0987 659.429 22.48C658.767 22.16 658.351 21.7973 658.181 21.392C658.053 21.0933 657.989 20.8267 657.989 20.592C657.989 20.1653 658.191 19.7493 658.597 19.344C658.874 19.024 659.247 18.864 659.717 18.864C660.165 18.864 660.709 19.0027 661.349 19.28C662.053 19.5787 662.863 19.728 663.781 19.728C664.207 19.728 664.421 19.6747 664.421 19.568C664.421 19.312 663.503 18.7253 661.669 17.808C660.239 17.0613 659.194 16.3253 658.533 15.6C657.871 14.8533 657.541 14.032 657.541 13.136C657.541 12.0693 657.978 11.088 658.853 10.192C659.749 9.27467 660.826 8.70933 662.085 8.496ZM676.94 2.192C677.281 1.97867 677.601 1.872 677.9 1.872C678.134 1.872 678.401 1.936 678.7 2.064C679.148 2.27733 679.436 2.608 679.564 3.056C679.692 3.504 679.777 4.57067 679.82 6.256L679.916 9.424L681.388 9.328C681.558 9.30667 681.804 9.296 682.124 9.296C682.892 9.296 683.436 9.43467 683.756 9.712C684.097 9.98933 684.268 10.4373 684.268 11.056C684.268 11.7173 684.044 12.1867 683.596 12.464C683.169 12.7413 682.337 12.9333 681.1 13.04L679.756 13.168L679.532 17.616C679.382 20.624 679.244 22.288 679.116 22.608C678.838 23.248 678.305 23.568 677.516 23.568C677.068 23.568 676.716 23.4507 676.46 23.216C676.182 23.0027 675.99 22.768 675.884 22.512C675.777 22.256 675.724 21.84 675.724 21.264C675.724 20.7947 675.756 20.0907 675.82 19.152C675.926 17.4667 676.001 16.0267 676.044 14.832L676.076 13.328L674.636 13.296C673.825 13.2747 673.27 13.2107 672.972 13.104C672.673 12.976 672.417 12.72 672.204 12.336C672.076 12.08 672.012 11.8133 672.012 11.536C672.012 11.024 672.225 10.576 672.652 10.192C672.886 9.97867 673.185 9.84 673.548 9.776C673.91 9.69067 674.582 9.60533 675.564 9.52L676.076 9.456L676.204 6.064C676.225 5.552 676.236 4.99733 676.236 4.4C676.257 3.78133 676.268 3.32266 676.268 3.024L676.3 2.576L676.396 2.512C676.46 2.46933 676.545 2.416 676.652 2.352C676.758 2.288 676.854 2.23467 676.94 2.192ZM689.263 2.864C689.54 2.75733 689.785 2.704 689.999 2.704C690.319 2.704 690.639 2.8 690.959 2.992C691.279 3.20533 691.492 3.44 691.599 3.696C691.727 3.952 691.791 4.44267 691.791 5.168C691.791 6 691.748 7.056 691.663 8.336C691.513 10.96 691.417 14.0533 691.375 17.616C691.375 21.0933 691.3 22.9707 691.151 23.248C691.044 23.4613 690.82 23.6747 690.479 23.888C690.159 24.08 689.881 24.176 689.647 24.176C689.391 24.176 689.103 24.0693 688.783 23.856C688.463 23.6427 688.239 23.408 688.111 23.152C687.855 22.64 687.727 20.9227 687.727 18C687.727 15.056 687.855 11.1733 688.111 6.352C688.175 5.09333 688.281 4.24 688.431 3.792C688.58 3.344 688.857 3.03467 689.263 2.864ZM696.956 8.912C697.041 8.89067 697.169 8.88 697.34 8.88C697.745 8.88 698.119 8.98667 698.46 9.2C698.801 9.392 699.036 9.65867 699.164 10C699.249 10.192 699.335 11.6533 699.42 14.384C699.527 17.0933 699.58 19.2267 699.58 20.784C699.58 21.4453 699.569 21.8293 699.548 21.936C699.441 22.7467 699.089 23.2907 698.492 23.568C698.193 23.696 697.959 23.76 697.788 23.76C697.66 23.76 697.468 23.728 697.212 23.664C696.721 23.5147 696.412 23.312 696.284 23.056C696.028 22.5653 695.879 20.6667 695.836 17.36C695.836 16.7627 695.825 15.728 695.804 14.256L695.772 9.872L696.156 9.424C696.412 9.12533 696.679 8.95467 696.956 8.912ZM696.188 2.896C696.444 2.768 696.689 2.704 696.924 2.704C697.393 2.704 697.809 2.896 698.172 3.28C698.535 3.64267 698.716 4.06933 698.716 4.56C698.716 4.90133 698.631 5.2 698.46 5.456C698.097 6.032 697.607 6.32 696.988 6.32C696.583 6.32 696.209 6.18133 695.868 5.904C695.527 5.62667 695.313 5.24267 695.228 4.752C695.228 4.73067 695.217 4.69867 695.196 4.656C695.196 4.592 695.196 4.54933 695.196 4.528C695.196 4.208 695.292 3.89867 695.484 3.6C695.676 3.28 695.911 3.04533 696.188 2.896ZM703.873 9.072C704.129 8.944 704.396 8.88 704.673 8.88C705.057 8.88 705.42 9.008 705.761 9.264C706.103 9.49867 706.337 9.81867 706.465 10.224L706.657 10.896L707.457 10.416C707.991 10.096 708.727 9.936 709.665 9.936C710.583 9.936 711.34 10.0853 711.937 10.384C712.428 10.6187 712.951 11.0027 713.505 11.536C714.081 12.0693 714.54 12.6027 714.881 13.136C716.033 14.9493 716.663 17.7653 716.769 21.584V22.224C716.769 22.736 716.62 23.152 716.321 23.472C715.959 23.8347 715.532 24.016 715.041 24.016C714.252 24.016 713.729 23.6747 713.473 22.992C713.345 22.6293 713.239 21.9147 713.153 20.848C712.897 17.1147 712.065 14.7787 710.657 13.84C710.359 13.648 710.06 13.552 709.761 13.552C709.207 13.552 708.705 13.8613 708.257 14.48C707.831 15.0773 707.489 15.9307 707.233 17.04C707.127 17.5307 706.999 18.416 706.849 19.696C706.7 20.976 706.625 21.84 706.625 22.288C706.625 22.5013 706.444 22.7893 706.081 23.152C705.719 23.4933 705.303 23.664 704.833 23.664C703.959 23.664 703.383 23.2053 703.105 22.288C702.977 21.84 702.913 19.8987 702.913 16.464C702.913 12.368 702.988 10.1387 703.137 9.776C703.265 9.49867 703.511 9.264 703.873 9.072ZM729.827 12.08C729.528 11.8667 729.272 11.7387 729.059 11.696C728.845 11.632 728.44 11.6 727.843 11.6C726.264 11.6427 725.208 12.048 724.675 12.816C724.461 13.1147 724.269 13.584 724.099 14.224C723.928 14.8427 723.843 15.3653 723.843 15.792C723.843 15.8347 723.843 15.8987 723.843 15.984C723.864 16.048 723.875 16.0907 723.875 16.112C724.003 16.752 724.355 17.3173 724.931 17.808C725.528 18.2987 726.221 18.5973 727.01 18.704C727.117 18.7253 727.277 18.736 727.491 18.736C728.301 18.736 729.101 18.3093 729.891 17.456C730.68 16.6027 731.075 15.7067 731.075 14.768C731.075 14.4693 731.064 14.2453 731.043 14.096C730.979 13.5413 730.883 13.1573 730.755 12.944C730.627 12.7307 730.317 12.4427 729.827 12.08ZM725.795 8.144C726.264 8.03733 726.947 7.984 727.843 7.984H728.355C729.144 8.00533 729.667 8.05867 729.923 8.144C730.2 8.208 730.637 8.41067 731.235 8.752C732.024 9.24267 732.675 9.60533 733.187 9.84C733.677 10.0747 733.997 10.32 734.147 10.576C734.36 10.896 734.573 12.3893 734.787 15.056C735.021 17.7013 735.139 20.0373 735.139 22.064C735.139 23.728 734.957 25.1147 734.595 26.224C734.253 27.3547 733.677 28.3787 732.867 29.296C731.523 30.832 729.848 31.6 727.843 31.6C726.584 31.6 725.123 31.312 723.459 30.736C722.733 30.5013 722.253 30.2987 722.019 30.128C721.784 29.9573 721.581 29.6907 721.411 29.328C721.325 29.136 721.283 28.912 721.283 28.656C721.283 28.1653 721.453 27.7493 721.795 27.408C722.051 27.1093 722.424 26.96 722.915 26.96C723.363 26.96 724.013 27.1093 724.867 27.408C725.635 27.6853 726.445 27.8667 727.299 27.952C727.363 27.952 727.437 27.952 727.523 27.952C727.629 27.9733 727.704 27.984 727.747 27.984C728.941 27.984 729.88 27.4507 730.563 26.384C730.925 25.872 731.171 25.392 731.299 24.944C731.448 24.4747 731.555 23.8027 731.619 22.928C731.661 22.3307 731.683 21.968 731.683 21.84C731.683 21.4347 731.587 21.232 731.395 21.232C731.224 21.232 730.925 21.3493 730.499 21.584C729.517 22.0747 728.504 22.32 727.459 22.32C725.667 22.32 724.056 21.7227 722.627 20.528C721.197 19.3333 720.44 17.8613 720.355 16.112C720.355 16.048 720.344 15.952 720.323 15.824C720.323 15.696 720.323 15.6 720.323 15.536C720.323 13.68 720.803 12.1013 721.763 10.8C722.744 9.47733 724.088 8.592 725.795 8.144ZM762.333 13.232C761.714 12.6133 760.754 12.304 759.453 12.304C758.813 12.304 758.247 12.4107 757.757 12.624C757.287 12.8373 756.775 13.2533 756.221 13.872C755.666 14.4907 755.303 15.056 755.133 15.568C754.941 16.1227 754.845 16.6453 754.845 17.136C754.845 18.2667 755.293 19.0667 756.189 19.536C756.722 19.8133 757.415 19.952 758.269 19.952C758.845 19.952 759.282 19.8773 759.581 19.728C761.309 18.8533 762.365 17.2853 762.749 15.024L762.941 13.808L762.333 13.232ZM757.469 8.88C757.981 8.73067 758.578 8.656 759.261 8.656C760.413 8.656 761.543 8.85867 762.653 9.264C763.762 9.66933 764.53 10.1813 764.957 10.8C765.255 11.2267 765.639 11.6747 766.109 12.144C766.621 12.6773 767.09 13.5947 767.517 14.896C767.922 16.1333 768.295 17.5093 768.637 19.024C768.999 20.5387 769.181 21.5627 769.181 22.096C769.181 22.6293 769.021 23.0453 768.701 23.344C768.295 23.728 767.911 23.92 767.549 23.92C767.399 23.92 767.207 23.888 766.973 23.824C766.567 23.6747 766.247 23.4187 766.013 23.056C765.799 22.6933 765.607 22.1067 765.437 21.296C765.223 20.336 765.106 19.856 765.085 19.856C764.999 19.856 764.551 20.2613 763.741 21.072C762.141 22.6293 760.477 23.472 758.749 23.6H758.301C757.255 23.6 756.231 23.4187 755.229 23.056C754.247 22.6933 753.469 22.2133 752.893 21.616C752.594 21.3173 752.295 20.8693 751.997 20.272C751.698 19.6533 751.495 19.088 751.389 18.576C751.282 18.0427 751.229 17.5627 751.229 17.136C751.229 15.3653 751.826 13.6693 753.021 12.048C754.237 10.4267 755.719 9.37067 757.469 8.88ZM773.592 9.072C773.848 8.944 774.115 8.88 774.392 8.88C774.776 8.88 775.139 9.008 775.48 9.264C775.821 9.49867 776.056 9.81867 776.184 10.224L776.376 10.896L777.176 10.416C777.709 10.096 778.445 9.936 779.384 9.936C780.301 9.936 781.059 10.0853 781.656 10.384C782.147 10.6187 782.669 11.0027 783.224 11.536C783.8 12.0693 784.259 12.6027 784.6 13.136C785.752 14.9493 786.381 17.7653 786.488 21.584V22.224C786.488 22.736 786.339 23.152 786.04 23.472C785.677 23.8347 785.251 24.016 784.76 24.016C783.971 24.016 783.448 23.6747 783.192 22.992C783.064 22.6293 782.957 21.9147 782.872 20.848C782.616 17.1147 781.784 14.7787 780.376 13.84C780.077 13.648 779.779 13.552 779.48 13.552C778.925 13.552 778.424 13.8613 777.976 14.48C777.549 15.0773 777.208 15.9307 776.952 17.04C776.845 17.5307 776.717 18.416 776.568 19.696C776.419 20.976 776.344 21.84 776.344 22.288C776.344 22.5013 776.163 22.7893 775.8 23.152C775.437 23.4933 775.021 23.664 774.552 23.664C773.677 23.664 773.101 23.2053 772.824 22.288C772.696 21.84 772.632 19.8987 772.632 16.464C772.632 12.368 772.707 10.1387 772.856 9.776C772.984 9.49867 773.229 9.264 773.592 9.072ZM798.073 13.872C797.881 13.6373 797.551 13.52 797.081 13.52C796.697 13.52 796.313 13.616 795.929 13.808C795.353 14.0853 794.809 14.672 794.297 15.568C793.785 16.464 793.529 17.2533 793.529 17.936C793.529 18.1493 793.561 18.3307 793.625 18.48C793.775 18.8213 794.137 19.1413 794.713 19.44C795.289 19.7173 795.833 19.856 796.345 19.856C796.452 19.856 796.612 19.8347 796.825 19.792C797.316 19.6427 797.807 19.2373 798.297 18.576C798.809 17.8933 799.204 17.0933 799.481 16.176C799.652 15.6213 799.737 15.248 799.737 15.056C799.737 14.7573 799.513 14.544 799.065 14.416C798.553 14.224 798.223 14.0427 798.073 13.872ZM800.665 2.704C800.857 2.61867 801.081 2.576 801.337 2.576C802.148 2.576 802.692 2.928 802.969 3.632C803.097 3.952 803.3 5.24267 803.577 7.504C803.833 9.872 803.983 11.2053 804.025 11.504C804.9 17.84 805.337 21.4667 805.337 22.384C805.337 22.8107 805.156 23.184 804.793 23.504C804.452 23.824 804.057 23.984 803.609 23.984C802.991 23.984 802.511 23.76 802.169 23.312C801.828 22.8427 801.657 22.2133 801.657 21.424C801.657 21.0827 801.615 20.8693 801.529 20.784H801.497C801.369 20.784 800.975 21.0933 800.313 21.712C799.609 22.416 798.927 22.8853 798.265 23.12C797.668 23.3547 796.985 23.472 796.217 23.472C795.087 23.472 793.999 23.1947 792.953 22.64C791.908 22.064 791.097 21.3067 790.521 20.368C790.308 20.0053 790.169 19.696 790.105 19.44C790.063 19.1627 790.041 18.64 790.041 17.872C790.063 16.8907 790.18 16.0693 790.393 15.408C790.607 14.7467 791.001 13.9787 791.577 13.104C791.983 12.4853 792.559 11.888 793.305 11.312C794.052 10.736 794.703 10.3627 795.257 10.192C795.812 10.0427 796.399 9.968 797.017 9.968C797.785 9.968 798.457 10.064 799.033 10.256C799.652 10.448 799.983 10.544 800.025 10.544C800.068 10.544 800.089 10.416 800.089 10.16C800.089 9.456 800.004 8.57067 799.833 7.504C799.684 6.62933 799.609 5.84 799.609 5.136C799.609 3.81333 799.961 3.00267 800.665 2.704ZM833.011 0.431999C833.395 0.389332 833.683 0.367998 833.875 0.367998C835.411 0.367998 836.563 0.751998 837.331 1.52C837.8 2.01067 838.035 2.53333 838.035 3.088C838.035 3.55733 837.864 3.96267 837.523 4.304C837.203 4.624 836.797 4.784 836.307 4.784C835.859 4.784 835.421 4.63467 834.995 4.336C834.611 4.05866 834.259 3.92 833.939 3.92C833.427 3.92 832.947 4.28267 832.499 5.008C832.051 5.73333 831.773 6.58667 831.667 7.568C831.624 7.90933 831.603 8.112 831.603 8.176C831.603 8.45333 831.741 8.63467 832.019 8.72C832.296 8.784 832.947 8.82667 833.971 8.848C834.141 8.848 834.28 8.848 834.387 8.848C835.368 8.89067 835.955 8.93333 836.147 8.976C836.36 9.01867 836.573 9.15733 836.787 9.392C837.064 9.69067 837.203 10.0747 837.203 10.544C837.203 11.0347 837.053 11.44 836.755 11.76L836.307 12.304H831.251L831.155 12.752C831.133 12.816 831.123 13.168 831.123 13.808C831.123 16.752 831.208 19.3653 831.379 21.648C831.379 21.7333 831.379 21.8507 831.379 22C831.4 22.1493 831.411 22.256 831.411 22.32C831.411 22.8747 831.336 23.28 831.187 23.536C831.037 23.792 830.771 24.016 830.387 24.208C830.131 24.336 829.853 24.4 829.555 24.4C828.957 24.4 828.499 24.176 828.179 23.728C828.008 23.472 827.848 22.5333 827.699 20.912C827.571 19.2693 827.507 17.6587 827.507 16.08C827.507 15.3547 827.517 14.832 827.539 14.512L827.635 12.272L825.555 12.368C824.573 12.4107 824.061 12.432 824.019 12.432C823.613 12.432 823.272 12.3253 822.995 12.112C822.589 11.7493 822.387 11.2693 822.387 10.672C822.387 10.416 822.429 10.192 822.515 10C822.664 9.616 822.973 9.33867 823.443 9.168C823.912 8.99733 824.691 8.88 825.779 8.816C827.123 8.73067 827.805 8.66667 827.827 8.624C827.869 8.58133 827.987 7.97333 828.179 6.8C828.52 4.60267 829.288 2.928 830.483 1.776C830.931 1.328 831.304 1.01867 831.603 0.848C831.923 0.677333 832.392 0.538666 833.011 0.431999ZM842.178 8.88C842.519 8.51733 842.935 8.336 843.426 8.336C844.343 8.336 844.93 8.69867 845.186 9.424C845.314 9.85067 845.378 11.0987 845.378 13.168C845.378 15.2587 845.442 16.624 845.57 17.264C845.89 18.736 846.54 19.472 847.522 19.472C847.714 19.472 847.916 19.44 848.13 19.376C848.428 19.2907 848.812 19.0027 849.282 18.512C849.772 18.0213 850.124 17.5733 850.338 17.168C850.722 16.3787 851.063 14.8107 851.362 12.464C851.575 10.864 851.906 9.89333 852.354 9.552C852.652 9.31733 852.983 9.2 853.346 9.2C853.751 9.2 854.124 9.34933 854.466 9.648C854.828 9.92533 855.074 10.288 855.202 10.736C855.308 11.2053 855.49 12.88 855.746 15.76C856.023 18.6187 856.162 20.4427 856.162 21.232V21.488C856.076 21.8933 855.874 22.2133 855.554 22.448C855.234 22.6827 854.882 22.8 854.498 22.8C854.135 22.8 853.783 22.6933 853.442 22.48C853.122 22.2667 852.898 21.9573 852.77 21.552C852.599 21.0613 852.503 20.816 852.482 20.816C852.396 20.816 852.034 21.0613 851.394 21.552C850.114 22.576 848.855 23.088 847.618 23.088H847.522C846.498 23.088 845.58 22.8427 844.77 22.352C843.959 21.8613 843.319 21.168 842.85 20.272C842.402 19.376 842.114 18.5653 841.986 17.84C841.858 17.0933 841.783 15.6533 841.762 13.52L841.666 9.456L842.178 8.88ZM860.21 1.424C860.552 1.08267 860.957 0.911999 861.426 0.911999C861.874 0.911999 862.269 1.08267 862.61 1.424C862.952 1.76533 863.165 2.32 863.25 3.088C863.272 3.30133 863.282 4.58133 863.282 6.928C863.282 17.8933 863.208 23.6 863.058 24.048C862.973 24.304 862.781 24.5067 862.482 24.656C862.184 24.8053 861.853 24.88 861.49 24.88C861.064 24.88 860.722 24.7947 860.466 24.624C860.082 24.368 859.837 23.9947 859.73 23.504C859.645 22.992 859.602 21.6267 859.602 19.408C859.602 16.8267 859.613 14.5333 859.634 12.528L859.73 1.904L860.21 1.424ZM874.217 1.264C874.43 1.2 874.697 1.168 875.017 1.168C876.041 1.168 876.851 1.33867 877.449 1.68C878.259 2.17067 878.665 2.832 878.665 3.664C878.665 4.304 878.377 4.77333 877.801 5.072C877.523 5.22133 877.225 5.296 876.905 5.296C876.585 5.296 876.211 5.2 875.785 5.008C875.443 4.85867 875.262 4.784 875.241 4.784C875.155 4.784 875.017 4.88 874.825 5.072C874.59 5.30667 874.387 5.78667 874.217 6.512C874.046 7.23733 873.961 8.03733 873.961 8.912V9.584C873.961 9.88267 873.993 10.0853 874.057 10.192C874.121 10.2987 874.27 10.352 874.505 10.352C874.718 10.352 875.23 10.2987 876.041 10.192C876.233 10.1707 876.489 10.16 876.809 10.16C878.281 10.16 879.017 10.7573 879.017 11.952C878.995 12.5707 878.771 13.0187 878.345 13.296C877.939 13.552 877.214 13.7227 876.169 13.808C875.166 13.8933 874.611 13.968 874.505 14.032C874.483 14.032 874.473 14.128 874.473 14.32C874.473 14.8747 874.579 15.9733 874.793 17.616C875.006 19.2587 875.209 20.5493 875.401 21.488C875.486 22 875.529 22.352 875.529 22.544C875.529 23.2693 875.358 23.8453 875.017 24.272C874.675 24.6987 874.206 24.912 873.609 24.912C873.118 24.912 872.702 24.752 872.361 24.432C872.126 24.176 871.966 23.8987 871.881 23.6C871.817 23.28 871.721 22.448 871.593 21.104C871.379 19.0773 871.187 17.4773 871.017 16.304L870.729 14.288L869.161 14.224C868.435 14.1813 867.977 14.128 867.785 14.064C867.593 14 867.401 13.8613 867.209 13.648C866.931 13.3067 866.793 12.8907 866.793 12.4C866.793 12.1013 866.857 11.824 866.985 11.568C867.283 11.056 868.03 10.736 869.225 10.608L870.249 10.512L870.345 8.56C870.473 6.34133 870.846 4.656 871.465 3.504C872.083 2.33067 873.001 1.584 874.217 1.264ZM884.013 9.456C884.098 9.43467 884.226 9.424 884.397 9.424C884.866 9.424 885.282 9.57333 885.645 9.872C886.007 10.1707 886.221 10.5547 886.285 11.024C886.37 11.4933 886.413 13.5093 886.413 17.072L886.445 22.48L885.901 22.992C885.538 23.3547 885.111 23.536 884.621 23.536C884.173 23.536 883.789 23.376 883.469 23.056C883.255 22.8427 883.106 22.6293 883.021 22.416C882.957 22.1813 882.903 21.7333 882.861 21.072C882.797 20.24 882.765 18.2347 882.765 15.056L882.733 10.576L883.181 10.032C883.501 9.69067 883.778 9.49867 884.013 9.456ZM883.437 3.088C883.714 2.93867 884.002 2.864 884.301 2.864C884.791 2.864 885.207 3.04533 885.549 3.408C885.89 3.77067 886.061 4.18667 886.061 4.656C886.061 5.06133 885.901 5.456 885.581 5.84C885.175 6.26667 884.727 6.48 884.237 6.48C883.767 6.48 883.351 6.32 882.989 6C882.647 5.65867 882.477 5.25333 882.477 4.784C882.477 4.50666 882.541 4.22933 882.669 3.952C882.861 3.54667 883.117 3.25867 883.437 3.088ZM891.325 2.864C891.602 2.75733 891.848 2.704 892.061 2.704C892.381 2.704 892.701 2.8 893.021 2.992C893.341 3.20533 893.554 3.44 893.661 3.696C893.789 3.952 893.853 4.44267 893.853 5.168C893.853 6 893.81 7.056 893.725 8.336C893.576 10.96 893.48 14.0533 893.437 17.616C893.437 21.0933 893.362 22.9707 893.213 23.248C893.106 23.4613 892.882 23.6747 892.541 23.888C892.221 24.08 891.944 24.176 891.709 24.176C891.453 24.176 891.165 24.0693 890.845 23.856C890.525 23.6427 890.301 23.408 890.173 23.152C889.917 22.64 889.789 20.9227 889.789 18C889.789 15.056 889.917 11.1733 890.173 6.352C890.237 5.09333 890.344 4.24 890.493 3.792C890.642 3.344 890.92 3.03467 891.325 2.864ZM898.763 2.864C899.04 2.75733 899.285 2.704 899.499 2.704C899.819 2.704 900.139 2.8 900.459 2.992C900.779 3.20533 900.992 3.44 901.099 3.696C901.227 3.952 901.291 4.44267 901.291 5.168C901.291 6 901.248 7.056 901.163 8.336C901.013 10.96 900.917 14.0533 900.875 17.616C900.875 21.0933 900.8 22.9707 900.651 23.248C900.544 23.4613 900.32 23.6747 899.979 23.888C899.659 24.08 899.381 24.176 899.147 24.176C898.891 24.176 898.603 24.0693 898.283 23.856C897.963 23.6427 897.739 23.408 897.611 23.152C897.355 22.64 897.227 20.9227 897.227 18C897.227 15.056 897.355 11.1733 897.611 6.352C897.675 5.09333 897.781 4.24 897.931 3.792C898.08 3.344 898.357 3.03467 898.763 2.864ZM906.456 8.912C906.541 8.89067 906.669 8.88 906.84 8.88C907.245 8.88 907.619 8.98667 907.96 9.2C908.301 9.392 908.536 9.65867 908.664 10C908.749 10.192 908.835 11.6533 908.92 14.384C909.027 17.0933 909.08 19.2267 909.08 20.784C909.08 21.4453 909.069 21.8293 909.048 21.936C908.941 22.7467 908.589 23.2907 907.992 23.568C907.693 23.696 907.459 23.76 907.288 23.76C907.16 23.76 906.968 23.728 906.712 23.664C906.221 23.5147 905.912 23.312 905.784 23.056C905.528 22.5653 905.379 20.6667 905.336 17.36C905.336 16.7627 905.325 15.728 905.304 14.256L905.272 9.872L905.656 9.424C905.912 9.12533 906.179 8.95467 906.456 8.912ZM905.688 2.896C905.944 2.768 906.189 2.704 906.424 2.704C906.893 2.704 907.309 2.896 907.672 3.28C908.035 3.64267 908.216 4.06933 908.216 4.56C908.216 4.90133 908.131 5.2 907.96 5.456C907.597 6.032 907.107 6.32 906.488 6.32C906.083 6.32 905.709 6.18133 905.368 5.904C905.027 5.62667 904.813 5.24267 904.728 4.752C904.728 4.73067 904.717 4.69867 904.696 4.656C904.696 4.592 904.696 4.54933 904.696 4.528C904.696 4.208 904.792 3.89867 904.984 3.6C905.176 3.28 905.411 3.04533 905.688 2.896ZM913.373 9.072C913.629 8.944 913.896 8.88 914.173 8.88C914.557 8.88 914.92 9.008 915.261 9.264C915.603 9.49867 915.837 9.81867 915.965 10.224L916.157 10.896L916.957 10.416C917.491 10.096 918.227 9.936 919.165 9.936C920.083 9.936 920.84 10.0853 921.437 10.384C921.928 10.6187 922.451 11.0027 923.005 11.536C923.581 12.0693 924.04 12.6027 924.381 13.136C925.533 14.9493 926.163 17.7653 926.269 21.584V22.224C926.269 22.736 926.12 23.152 925.821 23.472C925.459 23.8347 925.032 24.016 924.541 24.016C923.752 24.016 923.229 23.6747 922.973 22.992C922.845 22.6293 922.739 21.9147 922.653 20.848C922.397 17.1147 921.565 14.7787 920.157 13.84C919.859 13.648 919.56 13.552 919.261 13.552C918.707 13.552 918.205 13.8613 917.757 14.48C917.331 15.0773 916.989 15.9307 916.733 17.04C916.627 17.5307 916.499 18.416 916.349 19.696C916.2 20.976 916.125 21.84 916.125 22.288C916.125 22.5013 915.944 22.7893 915.581 23.152C915.219 23.4933 914.803 23.664 914.333 23.664C913.459 23.664 912.883 23.2053 912.605 22.288C912.477 21.84 912.413 19.8987 912.413 16.464C912.413 12.368 912.488 10.1387 912.637 9.776C912.765 9.49867 913.011 9.264 913.373 9.072ZM939.327 12.08C939.028 11.8667 938.772 11.7387 938.559 11.696C938.345 11.632 937.94 11.6 937.343 11.6C935.764 11.6427 934.708 12.048 934.175 12.816C933.961 13.1147 933.769 13.584 933.599 14.224C933.428 14.8427 933.343 15.3653 933.343 15.792C933.343 15.8347 933.343 15.8987 933.343 15.984C933.364 16.048 933.375 16.0907 933.375 16.112C933.503 16.752 933.855 17.3173 934.431 17.808C935.028 18.2987 935.721 18.5973 936.51 18.704C936.617 18.7253 936.777 18.736 936.991 18.736C937.801 18.736 938.601 18.3093 939.391 17.456C940.18 16.6027 940.575 15.7067 940.575 14.768C940.575 14.4693 940.564 14.2453 940.543 14.096C940.479 13.5413 940.383 13.1573 940.255 12.944C940.127 12.7307 939.817 12.4427 939.327 12.08ZM935.295 8.144C935.764 8.03733 936.447 7.984 937.343 7.984H937.855C938.644 8.00533 939.167 8.05867 939.423 8.144C939.7 8.208 940.137 8.41067 940.735 8.752C941.524 9.24267 942.175 9.60533 942.687 9.84C943.177 10.0747 943.497 10.32 943.647 10.576C943.86 10.896 944.073 12.3893 944.287 15.056C944.521 17.7013 944.639 20.0373 944.639 22.064C944.639 23.728 944.457 25.1147 944.095 26.224C943.753 27.3547 943.177 28.3787 942.367 29.296C941.023 30.832 939.348 31.6 937.343 31.6C936.084 31.6 934.623 31.312 932.959 30.736C932.233 30.5013 931.753 30.2987 931.519 30.128C931.284 29.9573 931.081 29.6907 930.911 29.328C930.825 29.136 930.783 28.912 930.783 28.656C930.783 28.1653 930.953 27.7493 931.295 27.408C931.551 27.1093 931.924 26.96 932.415 26.96C932.863 26.96 933.513 27.1093 934.367 27.408C935.135 27.6853 935.945 27.8667 936.799 27.952C936.863 27.952 936.937 27.952 937.023 27.952C937.129 27.9733 937.204 27.984 937.247 27.984C938.441 27.984 939.38 27.4507 940.063 26.384C940.425 25.872 940.671 25.392 940.799 24.944C940.948 24.4747 941.055 23.8027 941.119 22.928C941.161 22.3307 941.183 21.968 941.183 21.84C941.183 21.4347 941.087 21.232 940.895 21.232C940.724 21.232 940.425 21.3493 939.999 21.584C939.017 22.0747 938.004 22.32 936.959 22.32C935.167 22.32 933.556 21.7227 932.127 20.528C930.697 19.3333 929.94 17.8613 929.855 16.112C929.855 16.048 929.844 15.952 929.823 15.824C929.823 15.696 929.823 15.6 929.823 15.536C929.823 13.68 930.303 12.1013 931.263 10.8C932.244 9.47733 933.588 8.592 935.295 8.144ZM948.391 21.424C948.562 21.0613 948.754 20.816 948.967 20.688C949.18 20.56 949.554 20.496 950.087 20.496C950.45 20.496 950.695 20.528 950.823 20.592C950.972 20.656 951.143 20.8053 951.335 21.04C951.655 21.424 951.815 21.8293 951.815 22.256C951.815 22.7253 951.612 23.1627 951.207 23.568C950.802 23.9733 950.386 24.176 949.959 24.176C949.532 24.176 949.116 23.9947 948.711 23.632C948.327 23.248 948.135 22.8533 948.135 22.448C948.135 22.128 948.22 21.7867 948.391 21.424Z" fill="#27263C"/>
</svg>
