<svg width="594" height="150" viewBox="0 0 594 150" fill="none" xmlns="http://www.w3.org/2000/svg">
<path d="M1.504 6.408C2.016 5.928 2.496 5.688 2.944 5.688C3.2 5.688 3.424 5.704 3.616 5.736C4.48 5.832 5.088 6.12 5.44 6.6L6.064 7.32L5.968 19.896C5.936 28.184 5.792 32.648 5.536 33.288C5.12 34.248 4.32 34.728 3.136 34.728C2.752 34.728 2.464 34.696 2.272 34.632C1.792 34.472 1.472 34.36 1.312 34.296C1.184 34.2 1.024 33.912 0.832 33.432C0.672 32.92 0.576 32.216 0.544 31.32C0.512 30.424 0.496 29.048 0.496 27.192C0.496 26.68 0.496 25.64 0.496 24.072C0.528 22.504 0.544 21.192 0.544 20.136L0.592 7.176L1.504 6.408ZM18.4338 5.256C18.0178 6.952 17.4258 8.808 16.6578 10.824C15.8898 12.84 15.1058 14.728 14.3058 16.488H9.16975C9.61775 14.6 10.0658 12.584 10.5138 10.44C10.9618 8.296 11.2978 6.392 11.5218 4.728H18.0978L18.4338 5.256ZM23.176 12.792C23.496 12.632 23.88 12.552 24.328 12.552C25.96 12.552 26.984 13.928 27.4 16.68C27.496 17.512 27.608 17.928 27.736 17.928C27.768 17.928 28.216 17.56 29.08 16.824C30.84 15.256 32.632 14.472 34.456 14.472C35.448 14.472 36.392 14.744 37.288 15.288C38.152 15.832 38.712 16.312 38.968 16.728L39.4 17.4L40.552 16.344C42.312 14.776 44.2 13.992 46.216 13.992C48.168 13.992 49.848 14.744 51.256 16.248C53.656 18.712 55.08 22.92 55.528 28.872C55.592 29.96 55.624 30.632 55.624 30.888C55.624 31.72 55.512 32.328 55.288 32.712C55.096 33.096 54.744 33.432 54.232 33.72C53.784 33.944 53.352 34.056 52.936 34.056C52.232 34.056 51.608 33.736 51.064 33.096C50.648 32.552 50.376 31.624 50.248 30.312C49.992 27.368 49.672 25.176 49.288 23.736C48.904 22.296 48.36 21.176 47.656 20.376C47.112 19.8 46.552 19.512 45.976 19.512C44.888 19.512 43.928 20.36 43.096 22.056C42.776 22.728 42.568 23.352 42.472 23.928C42.376 24.504 42.296 25.816 42.232 27.864C42.104 30.68 41.944 32.36 41.752 32.904C41.304 33.96 40.488 34.488 39.304 34.488C38.6 34.488 38.008 34.248 37.528 33.768C36.76 33 36.28 30.728 36.088 26.952C35.992 25.512 35.816 24.12 35.56 22.776C35.304 21.432 35.064 20.632 34.84 20.376C34.648 20.152 34.44 20.04 34.216 20.04C33.832 20.04 33.192 20.44 32.296 21.24C31.336 22.136 30.616 23.096 30.136 24.12C29.688 25.048 29.416 25.8 29.32 26.376C29.256 26.92 29.192 28.792 29.128 31.992C29.096 32.824 28.84 33.496 28.36 34.008C27.88 34.52 27.272 34.776 26.536 34.776C25.8 34.776 25.208 34.632 24.76 34.344C24.12 33.896 23.672 33.032 23.416 31.752C23.16 30.44 22.872 27.352 22.552 22.488C22.36 19.608 22.136 17.656 21.88 16.632C21.688 15.864 21.592 15.352 21.592 15.096C21.592 14.808 21.688 14.472 21.88 14.088C22.168 13.416 22.6 12.984 23.176 12.792ZM89.782 19.224C89.174 19.064 88.182 18.92 86.806 18.792C85.91 18.728 85.43 18.696 85.366 18.696C84.918 18.696 84.47 18.936 84.022 19.416C82.742 20.728 82.054 22.504 81.958 24.744C81.958 24.872 81.942 25.048 81.91 25.272C81.91 25.464 81.91 25.608 81.91 25.704C81.91 26.44 82.102 27.128 82.486 27.768C83.51 29.592 85.318 30.504 87.91 30.504C88.998 30.472 90.102 30.104 91.222 29.4C92.374 28.664 93.206 27.784 93.718 26.76C94.006 26.152 94.15 25.496 94.15 24.792C94.15 23.608 93.734 22.488 92.902 21.432C92.102 20.344 91.062 19.608 89.782 19.224ZM82.486 13.848C83.222 13.432 83.958 13.224 84.694 13.224C84.854 13.224 85.446 13.256 86.47 13.32C89.51 13.48 91.958 14.12 93.814 15.24C95.67 16.36 97.158 18.088 98.278 20.424C99.142 22.216 99.574 23.928 99.574 25.56C99.574 26.072 99.526 26.52 99.43 26.904C98.918 28.888 97.798 30.696 96.07 32.328C94.342 33.96 92.438 35.048 90.358 35.592C89.27 35.848 88.406 35.976 87.766 35.976C87.126 35.976 86.262 35.848 85.174 35.592C81.878 34.728 79.51 33.16 78.07 30.888C76.95 29.128 76.39 27.272 76.39 25.32C76.39 23.368 76.918 21.288 77.974 19.08C79.19 16.488 80.694 14.744 82.486 13.848ZM116.075 1.896C116.395 1.8 116.795 1.752 117.275 1.752C118.811 1.752 120.027 2.008 120.923 2.52C122.139 3.256 122.747 4.248 122.747 5.496C122.747 6.456 122.315 7.16 121.451 7.608C121.035 7.832 120.587 7.944 120.107 7.944C119.627 7.944 119.067 7.8 118.427 7.512C117.915 7.288 117.643 7.176 117.611 7.176C117.483 7.176 117.275 7.32 116.987 7.608C116.635 7.96 116.331 8.68 116.075 9.768C115.819 10.856 115.691 12.056 115.691 13.368V14.376C115.691 14.824 115.739 15.128 115.835 15.288C115.931 15.448 116.155 15.528 116.507 15.528C116.827 15.528 117.595 15.448 118.811 15.288C119.099 15.256 119.483 15.24 119.963 15.24C122.171 15.24 123.275 16.136 123.275 17.928C123.243 18.856 122.907 19.528 122.267 19.944C121.659 20.328 120.571 20.584 119.003 20.712C117.499 20.84 116.667 20.952 116.507 21.048C116.475 21.048 116.459 21.192 116.459 21.48C116.459 22.312 116.619 23.96 116.939 26.424C117.259 28.888 117.563 30.824 117.851 32.232C117.979 33 118.043 33.528 118.043 33.816C118.043 34.904 117.787 35.768 117.275 36.408C116.763 37.048 116.059 37.368 115.163 37.368C114.427 37.368 113.803 37.128 113.291 36.648C112.939 36.264 112.699 35.848 112.571 35.4C112.475 34.92 112.331 33.672 112.139 31.656C111.819 28.616 111.531 26.216 111.275 24.456L110.843 21.432L108.491 21.336C107.403 21.272 106.715 21.192 106.427 21.096C106.139 21 105.851 20.792 105.563 20.472C105.147 19.96 104.939 19.336 104.939 18.6C104.939 18.152 105.035 17.736 105.227 17.352C105.675 16.584 106.795 16.104 108.587 15.912L110.123 15.768L110.267 12.84C110.459 9.512 111.019 6.984 111.947 5.256C112.875 3.496 114.251 2.376 116.075 1.896ZM136.097 3.288C136.609 2.968 137.089 2.808 137.537 2.808C137.889 2.808 138.289 2.904 138.737 3.096C139.409 3.416 139.841 3.912 140.033 4.584C140.225 5.256 140.353 6.856 140.417 9.384L140.561 14.136L142.769 13.992C143.025 13.96 143.393 13.944 143.873 13.944C145.025 13.944 145.841 14.152 146.321 14.568C146.833 14.984 147.089 15.656 147.089 16.584C147.089 17.576 146.753 18.28 146.081 18.696C145.441 19.112 144.193 19.4 142.337 19.56L140.321 19.752L139.985 26.424C139.761 30.936 139.553 33.432 139.361 33.912C138.945 34.872 138.145 35.352 136.961 35.352C136.289 35.352 135.761 35.176 135.377 34.824C134.961 34.504 134.673 34.152 134.513 33.768C134.353 33.384 134.273 32.76 134.273 31.896C134.273 31.192 134.321 30.136 134.417 28.728C134.577 26.2 134.689 24.04 134.753 22.248L134.801 19.992L132.641 19.944C131.425 19.912 130.593 19.816 130.145 19.656C129.697 19.464 129.313 19.08 128.993 18.504C128.801 18.12 128.705 17.72 128.705 17.304C128.705 16.536 129.025 15.864 129.665 15.288C130.017 14.968 130.465 14.76 131.009 14.664C131.553 14.536 132.561 14.408 134.033 14.28L134.801 14.184L134.993 9.096C135.025 8.328 135.041 7.496 135.041 6.6C135.073 5.672 135.089 4.984 135.089 4.536L135.137 3.864L135.281 3.768C135.377 3.704 135.505 3.624 135.665 3.528C135.825 3.432 135.969 3.352 136.097 3.288ZM167.253 20.712C166.677 20.424 165.861 20.28 164.805 20.28C163.653 20.28 162.677 20.456 161.877 20.808C161.333 21.032 160.629 21.528 159.765 22.296C158.901 23.032 158.469 23.512 158.469 23.736C158.469 23.832 158.965 23.88 159.957 23.88C161.429 23.88 163.189 23.8 165.237 23.64C167.285 23.48 168.453 23.304 168.741 23.112C168.837 23.08 168.885 22.984 168.885 22.824C168.885 22.536 168.709 22.168 168.357 21.72C168.005 21.24 167.637 20.904 167.253 20.712ZM161.589 15.144C162.389 14.92 163.333 14.808 164.421 14.808C166.437 14.808 168.277 15.208 169.941 16.008C171.189 16.648 172.229 17.624 173.061 18.936C173.893 20.216 174.405 21.656 174.597 23.256C174.597 23.32 174.597 23.416 174.597 23.544C174.629 23.672 174.645 23.768 174.645 23.832C174.645 24.664 174.485 25.48 174.165 26.28C173.877 27.08 173.525 27.624 173.109 27.912C172.565 28.296 168.741 28.776 161.637 29.352C160.133 29.48 159.381 29.624 159.381 29.784C159.381 29.976 159.717 30.28 160.389 30.696C161.061 31.112 161.717 31.4 162.357 31.56C162.933 31.688 163.397 31.752 163.749 31.752C164.773 31.752 166.101 31.416 167.733 30.744C168.885 30.264 169.733 30.024 170.277 30.024C170.821 30.024 171.333 30.264 171.813 30.744C172.453 31.384 172.773 31.992 172.773 32.568C172.773 32.952 172.677 33.352 172.485 33.768C172.325 34.152 172.101 34.456 171.813 34.68C171.557 34.904 171.077 35.176 170.373 35.496C168.037 36.52 165.861 37.032 163.845 37.032C162.693 37.032 161.509 36.856 160.293 36.504C158.661 35.992 157.173 35.128 155.829 33.912C154.485 32.664 153.525 31.288 152.949 29.784C152.597 28.792 152.421 27.688 152.421 26.472C152.421 24.712 152.709 23.24 153.285 22.056C153.957 20.584 155.093 19.176 156.693 17.832C158.293 16.488 159.925 15.592 161.589 15.144ZM181.138 13.608C181.522 13.416 181.922 13.32 182.338 13.32C182.914 13.32 183.458 13.512 183.97 13.896C184.482 14.248 184.834 14.728 185.026 15.336L185.314 16.344L186.514 15.624C187.314 15.144 188.418 14.904 189.826 14.904C191.202 14.904 192.338 15.128 193.234 15.576C193.97 15.928 194.754 16.504 195.586 17.304C196.45 18.104 197.138 18.904 197.65 19.704C199.378 22.424 200.322 26.648 200.482 32.376V33.336C200.482 34.104 200.258 34.728 199.81 35.208C199.266 35.752 198.626 36.024 197.89 36.024C196.706 36.024 195.922 35.512 195.538 34.488C195.346 33.944 195.186 32.872 195.058 31.272C194.674 25.672 193.426 22.168 191.314 20.76C190.866 20.472 190.418 20.328 189.97 20.328C189.138 20.328 188.386 20.792 187.714 21.72C187.074 22.616 186.562 23.896 186.178 25.56C186.018 26.296 185.826 27.624 185.602 29.544C185.378 31.464 185.266 32.76 185.266 33.432C185.266 33.752 184.994 34.184 184.45 34.728C183.906 35.24 183.282 35.496 182.578 35.496C181.266 35.496 180.402 34.808 179.986 33.432C179.794 32.76 179.698 29.848 179.698 24.696C179.698 18.552 179.81 15.208 180.034 14.664C180.226 14.248 180.594 13.896 181.138 13.608ZM228.559 13.368C228.687 13.336 228.879 13.32 229.135 13.32C229.743 13.32 230.303 13.48 230.815 13.8C231.327 14.088 231.679 14.488 231.871 15C231.999 15.288 232.127 17.48 232.255 21.576C232.415 25.64 232.495 28.84 232.495 31.176C232.495 32.168 232.479 32.744 232.447 32.904C232.287 34.12 231.759 34.936 230.863 35.352C230.415 35.544 230.063 35.64 229.807 35.64C229.615 35.64 229.327 35.592 228.943 35.496C228.207 35.272 227.743 34.968 227.551 34.584C227.167 33.848 226.943 31 226.879 26.04C226.879 25.144 226.863 23.592 226.831 21.384L226.783 14.808L227.359 14.136C227.743 13.688 228.143 13.432 228.559 13.368ZM227.407 4.344C227.791 4.152 228.159 4.056 228.511 4.056C229.215 4.056 229.839 4.344 230.383 4.92C230.927 5.464 231.199 6.104 231.199 6.84C231.199 7.352 231.071 7.8 230.815 8.184C230.271 9.048 229.535 9.48 228.607 9.48C227.999 9.48 227.439 9.272 226.927 8.856C226.415 8.44 226.095 7.864 225.967 7.128C225.967 7.096 225.951 7.048 225.919 6.984C225.919 6.888 225.919 6.824 225.919 6.792C225.919 6.312 226.063 5.848 226.351 5.4C226.639 4.92 226.991 4.568 227.407 4.344ZM238.935 13.608C239.319 13.416 239.719 13.32 240.135 13.32C240.711 13.32 241.255 13.512 241.767 13.896C242.279 14.248 242.631 14.728 242.823 15.336L243.111 16.344L244.311 15.624C245.111 15.144 246.215 14.904 247.623 14.904C248.999 14.904 250.135 15.128 251.031 15.576C251.767 15.928 252.551 16.504 253.383 17.304C254.247 18.104 254.935 18.904 255.447 19.704C257.175 22.424 258.119 26.648 258.279 32.376V33.336C258.279 34.104 258.055 34.728 257.607 35.208C257.063 35.752 256.423 36.024 255.687 36.024C254.503 36.024 253.719 35.512 253.335 34.488C253.143 33.944 252.983 32.872 252.855 31.272C252.471 25.672 251.223 22.168 249.111 20.76C248.663 20.472 248.215 20.328 247.767 20.328C246.935 20.328 246.183 20.792 245.511 21.72C244.871 22.616 244.359 23.896 243.975 25.56C243.815 26.296 243.623 27.624 243.399 29.544C243.175 31.464 243.063 32.76 243.063 33.432C243.063 33.752 242.791 34.184 242.247 34.728C241.703 35.24 241.079 35.496 240.375 35.496C239.063 35.496 238.199 34.808 237.783 33.432C237.591 32.76 237.495 29.848 237.495 24.696C237.495 18.552 237.607 15.208 237.831 14.664C238.023 14.248 238.391 13.896 238.935 13.608ZM296.148 20.424C294.868 19.816 293.972 19.512 293.46 19.512C292.852 19.512 292.084 19.928 291.156 20.76C289.908 21.912 289.284 23.336 289.284 25.032C289.284 26.408 289.732 27.448 290.628 28.152C291.044 28.472 291.476 28.632 291.924 28.632C292.468 28.632 293.156 28.408 293.988 27.96C296.676 26.552 298.02 24.728 298.02 22.488V21.288L296.148 20.424ZM298.596 3.384C299.14 2.936 299.78 2.712 300.516 2.712C300.996 2.712 301.396 2.808 301.716 3C302.1 3.224 302.42 3.592 302.676 4.104C302.868 4.488 302.996 5.56 303.06 7.32C303.156 9.08 303.22 13.112 303.252 19.416L303.348 33.864L302.532 34.68C301.988 35.224 301.364 35.496 300.66 35.496C299.988 35.496 299.38 35.256 298.836 34.776C298.292 34.296 298.02 33.752 298.02 33.144C298.02 32.632 297.988 32.344 297.924 32.28H297.876C297.652 32.28 297.124 32.488 296.292 32.904C294.724 33.64 293.252 34.008 291.876 34.008C289.732 34.008 287.86 33.144 286.26 31.416C284.628 29.624 283.812 27.512 283.812 25.08C283.812 21.88 285.06 19.128 287.556 16.824C289.444 15.096 291.492 14.232 293.7 14.232C294.66 14.232 295.54 14.36 296.34 14.616C297.204 14.904 297.668 15.048 297.732 15.048C297.764 15.048 297.78 13.224 297.78 9.576V4.104L298.596 3.384ZM323.347 20.712C322.771 20.424 321.955 20.28 320.899 20.28C319.747 20.28 318.771 20.456 317.971 20.808C317.427 21.032 316.723 21.528 315.859 22.296C314.995 23.032 314.563 23.512 314.563 23.736C314.563 23.832 315.059 23.88 316.051 23.88C317.523 23.88 319.283 23.8 321.331 23.64C323.379 23.48 324.547 23.304 324.835 23.112C324.931 23.08 324.979 22.984 324.979 22.824C324.979 22.536 324.803 22.168 324.451 21.72C324.099 21.24 323.731 20.904 323.347 20.712ZM317.683 15.144C318.483 14.92 319.427 14.808 320.515 14.808C322.531 14.808 324.371 15.208 326.035 16.008C327.283 16.648 328.323 17.624 329.155 18.936C329.987 20.216 330.499 21.656 330.691 23.256C330.691 23.32 330.691 23.416 330.691 23.544C330.723 23.672 330.739 23.768 330.739 23.832C330.739 24.664 330.579 25.48 330.259 26.28C329.971 27.08 329.619 27.624 329.203 27.912C328.659 28.296 324.835 28.776 317.731 29.352C316.227 29.48 315.475 29.624 315.475 29.784C315.475 29.976 315.811 30.28 316.483 30.696C317.155 31.112 317.811 31.4 318.451 31.56C319.027 31.688 319.491 31.752 319.843 31.752C320.867 31.752 322.195 31.416 323.827 30.744C324.979 30.264 325.827 30.024 326.371 30.024C326.915 30.024 327.427 30.264 327.907 30.744C328.547 31.384 328.867 31.992 328.867 32.568C328.867 32.952 328.771 33.352 328.579 33.768C328.419 34.152 328.195 34.456 327.907 34.68C327.651 34.904 327.171 35.176 326.467 35.496C324.131 36.52 321.955 37.032 319.939 37.032C318.787 37.032 317.603 36.856 316.387 36.504C314.755 35.992 313.267 35.128 311.923 33.912C310.579 32.664 309.619 31.288 309.043 29.784C308.691 28.792 308.515 27.688 308.515 26.472C308.515 24.712 308.803 23.24 309.379 22.056C310.051 20.584 311.187 19.176 312.787 17.832C314.387 16.488 316.019 15.592 317.683 15.144ZM337.232 13.608C337.616 13.416 338.016 13.32 338.432 13.32C339.008 13.32 339.552 13.512 340.064 13.896C340.576 14.248 340.928 14.728 341.12 15.336L341.408 16.344L342.608 15.624C343.408 15.144 344.512 14.904 345.92 14.904C347.296 14.904 348.432 15.128 349.328 15.576C350.064 15.928 350.848 16.504 351.68 17.304C352.544 18.104 353.232 18.904 353.744 19.704C355.472 22.424 356.416 26.648 356.576 32.376V33.336C356.576 34.104 356.352 34.728 355.904 35.208C355.36 35.752 354.72 36.024 353.984 36.024C352.8 36.024 352.016 35.512 351.632 34.488C351.44 33.944 351.28 32.872 351.152 31.272C350.768 25.672 349.52 22.168 347.408 20.76C346.96 20.472 346.512 20.328 346.064 20.328C345.232 20.328 344.48 20.792 343.808 21.72C343.168 22.616 342.656 23.896 342.272 25.56C342.112 26.296 341.92 27.624 341.696 29.544C341.472 31.464 341.36 32.76 341.36 33.432C341.36 33.752 341.088 34.184 340.544 34.728C340 35.24 339.376 35.496 338.672 35.496C337.36 35.496 336.496 34.808 336.08 33.432C335.888 32.76 335.792 29.848 335.792 24.696C335.792 18.552 335.904 15.208 336.128 14.664C336.32 14.248 336.688 13.896 337.232 13.608ZM364.066 14.184C364.194 14.152 364.386 14.136 364.642 14.136C365.346 14.136 365.97 14.36 366.514 14.808C367.058 15.256 367.378 15.832 367.474 16.536C367.602 17.24 367.666 20.264 367.666 25.608L367.714 33.72L366.898 34.488C366.354 35.032 365.714 35.304 364.978 35.304C364.306 35.304 363.73 35.064 363.25 34.584C362.93 34.264 362.706 33.944 362.578 33.624C362.482 33.272 362.402 32.6 362.338 31.608C362.242 30.36 362.194 27.352 362.194 22.584L362.146 15.864L362.818 15.048C363.298 14.536 363.714 14.248 364.066 14.184ZM363.202 4.632C363.618 4.408 364.05 4.296 364.498 4.296C365.234 4.296 365.858 4.568 366.37 5.112C366.882 5.656 367.138 6.28 367.138 6.984C367.138 7.592 366.898 8.184 366.418 8.76C365.81 9.4 365.138 9.72 364.402 9.72C363.698 9.72 363.074 9.48 362.53 9C362.018 8.488 361.762 7.88 361.762 7.176C361.762 6.76 361.858 6.344 362.05 5.928C362.338 5.32 362.722 4.888 363.202 4.632ZM386.698 20.52C386.538 20.008 386.394 19.72 386.266 19.656C386.138 19.56 385.786 19.512 385.21 19.512C383.546 19.544 381.994 20.328 380.554 21.864C379.114 23.368 378.394 24.888 378.394 26.424C378.394 27.192 378.602 27.832 379.018 28.344C379.946 29.368 380.922 29.88 381.946 29.88C382.01 29.88 382.074 29.88 382.138 29.88C382.202 29.848 382.266 29.832 382.33 29.832C382.906 29.704 383.514 29.32 384.154 28.68C384.826 28.04 385.338 27.336 385.69 26.568C386.426 24.84 386.794 23.16 386.794 21.528C386.794 21.048 386.762 20.712 386.698 20.52ZM382.234 14.472C383.098 14.184 384.09 14.04 385.21 14.04C386.682 14.04 387.93 14.28 388.954 14.76C389.626 15.112 390.234 15.64 390.778 16.344C391.354 17.016 391.706 17.656 391.834 18.264C391.962 18.872 392.138 19.448 392.362 19.992C392.714 20.92 393.418 24.408 394.474 30.456C394.634 31.416 394.714 32.136 394.714 32.616C394.714 34.536 393.818 35.496 392.026 35.496C391.418 35.496 390.858 35.256 390.346 34.776C389.866 34.296 389.562 33.704 389.434 33C389.306 32.36 389.194 31.992 389.098 31.896C388.97 31.8 388.602 32.056 387.994 32.664C386.17 34.488 384.074 35.4 381.706 35.4C381.29 35.4 380.858 35.352 380.41 35.256C378.65 34.872 377.002 33.912 375.466 32.376C373.738 30.648 372.874 28.712 372.874 26.568C372.874 24.872 373.402 23.032 374.458 21.048C375.258 19.544 376.346 18.2 377.722 17.016C379.13 15.832 380.634 14.984 382.234 14.472ZM400.831 2.136C401.343 1.624 401.951 1.368 402.655 1.368C403.327 1.368 403.919 1.624 404.431 2.136C404.943 2.648 405.263 3.48 405.391 4.632C405.423 4.952 405.439 6.872 405.439 10.392C405.439 26.84 405.327 35.4 405.103 36.072C404.975 36.456 404.687 36.76 404.239 36.984C403.791 37.208 403.295 37.32 402.751 37.32C402.111 37.32 401.599 37.192 401.215 36.936C400.639 36.552 400.271 35.992 400.111 35.256C399.983 34.488 399.919 32.44 399.919 29.112C399.919 25.24 399.935 21.8 399.967 18.792L400.111 2.856L400.831 2.136ZM439.516 19.224C438.908 19.064 437.916 18.92 436.54 18.792C435.644 18.728 435.164 18.696 435.1 18.696C434.652 18.696 434.204 18.936 433.756 19.416C432.476 20.728 431.788 22.504 431.692 24.744C431.692 24.872 431.676 25.048 431.644 25.272C431.644 25.464 431.644 25.608 431.644 25.704C431.644 26.44 431.836 27.128 432.22 27.768C433.244 29.592 435.052 30.504 437.644 30.504C438.732 30.472 439.836 30.104 440.956 29.4C442.108 28.664 442.94 27.784 443.452 26.76C443.74 26.152 443.884 25.496 443.884 24.792C443.884 23.608 443.468 22.488 442.636 21.432C441.836 20.344 440.796 19.608 439.516 19.224ZM432.22 13.848C432.956 13.432 433.692 13.224 434.428 13.224C434.588 13.224 435.18 13.256 436.204 13.32C439.244 13.48 441.692 14.12 443.548 15.24C445.404 16.36 446.892 18.088 448.012 20.424C448.876 22.216 449.308 23.928 449.308 25.56C449.308 26.072 449.26 26.52 449.164 26.904C448.652 28.888 447.532 30.696 445.804 32.328C444.076 33.96 442.172 35.048 440.092 35.592C439.004 35.848 438.14 35.976 437.5 35.976C436.86 35.976 435.996 35.848 434.908 35.592C431.612 34.728 429.244 33.16 427.804 30.888C426.684 29.128 426.124 27.272 426.124 25.32C426.124 23.368 426.652 21.288 427.708 19.08C428.924 16.488 430.428 14.744 432.22 13.848ZM470.61 0.647999C471.186 0.583998 471.618 0.551997 471.906 0.551997C474.21 0.551997 475.938 1.128 477.09 2.28C477.794 3.016 478.146 3.8 478.146 4.632C478.146 5.336 477.89 5.944 477.378 6.456C476.898 6.936 476.29 7.176 475.554 7.176C474.882 7.176 474.226 6.952 473.586 6.504C473.01 6.088 472.482 5.88 472.002 5.88C471.234 5.88 470.514 6.424 469.842 7.512C469.17 8.6 468.754 9.88 468.594 11.352C468.53 11.864 468.498 12.168 468.498 12.264C468.498 12.68 468.706 12.952 469.122 13.08C469.538 13.176 470.514 13.24 472.05 13.272C472.306 13.272 472.514 13.272 472.674 13.272C474.146 13.336 475.026 13.4 475.314 13.464C475.634 13.528 475.954 13.736 476.274 14.088C476.69 14.536 476.898 15.112 476.898 15.816C476.898 16.552 476.674 17.16 476.226 17.64L475.554 18.456H467.97L467.826 19.128C467.794 19.224 467.778 19.752 467.778 20.712C467.778 25.128 467.906 29.048 468.162 32.472C468.162 32.6 468.162 32.776 468.162 33C468.194 33.224 468.21 33.384 468.21 33.48C468.21 34.312 468.098 34.92 467.874 35.304C467.65 35.688 467.25 36.024 466.674 36.312C466.29 36.504 465.874 36.6 465.426 36.6C464.53 36.6 463.842 36.264 463.362 35.592C463.106 35.208 462.866 33.8 462.642 31.368C462.45 28.904 462.354 26.488 462.354 24.12C462.354 23.032 462.37 22.248 462.402 21.768L462.546 18.408L459.426 18.552C457.954 18.616 457.186 18.648 457.122 18.648C456.514 18.648 456.002 18.488 455.586 18.168C454.978 17.624 454.674 16.904 454.674 16.008C454.674 15.624 454.738 15.288 454.866 15C455.09 14.424 455.554 14.008 456.258 13.752C456.962 13.496 458.13 13.32 459.762 13.224C461.778 13.096 462.802 13 462.834 12.936C462.898 12.872 463.074 11.96 463.362 10.2C463.874 6.904 465.026 4.392 466.818 2.664C467.49 1.992 468.05 1.528 468.498 1.272C468.978 1.016 469.682 0.807999 470.61 0.647999ZM504.659 2.472C505.139 2.088 505.651 1.896 506.195 1.896C506.835 1.896 507.427 2.152 507.971 2.664C508.515 3.144 508.851 3.768 508.979 4.536C509.075 5.24 509.155 7.176 509.219 10.344C509.219 13.384 509.283 14.968 509.411 15.096H509.459C509.587 15.096 510.019 14.84 510.755 14.328C512.835 12.696 514.995 11.88 517.235 11.88C518.163 11.88 519.059 12.056 519.923 12.408C521.875 13.208 523.251 15.24 524.051 18.504C524.243 19.272 524.435 21.128 524.627 24.072C524.819 27.016 524.915 29.304 524.915 30.936C524.915 31.608 524.899 32.008 524.867 32.136C524.739 32.84 524.419 33.4 523.907 33.816C523.395 34.232 522.835 34.44 522.227 34.44C521.491 34.44 520.867 34.168 520.355 33.624L519.587 32.808L519.443 27.528C519.347 24.552 519.171 22.216 518.915 20.52C518.755 19.528 518.499 18.712 518.147 18.072C517.827 17.432 517.491 17.112 517.139 17.112C516.723 17.112 516.067 17.384 515.171 17.928C514.275 18.44 513.619 18.92 513.203 19.368C512.115 20.616 511.363 21.976 510.947 23.448C510.531 24.888 510.307 26.888 510.275 29.448C510.275 31.688 510.195 33.128 510.035 33.768C509.907 34.472 509.603 35.032 509.123 35.448C508.643 35.832 508.099 36.024 507.491 36.024C506.787 36.024 506.163 35.752 505.619 35.208C505.107 34.696 504.787 34.2 504.659 33.72C504.531 33.272 504.387 29.624 504.227 22.776C504.035 15.704 503.891 10.968 503.795 8.568C503.731 6.968 503.699 6.024 503.699 5.736C503.699 4.072 504.019 2.984 504.659 2.472ZM543.148 17.4C542.284 17.24 541.564 17.16 540.988 17.16C539.676 17.16 538.572 17.432 537.676 17.976C537.228 18.264 536.7 19.24 536.092 20.904C535.516 22.536 535.228 23.848 535.228 24.84C535.228 26.44 535.74 27.736 536.764 28.728C537.82 29.688 539.196 30.184 540.892 30.216C542.268 30.216 543.548 29.832 544.732 29.064C545.948 28.296 546.828 27.288 547.372 26.04C547.724 25.24 547.9 24.328 547.9 23.304C547.9 22.056 547.66 20.968 547.18 20.04C546.828 19.304 546.348 18.744 545.74 18.36C545.132 17.976 544.268 17.656 543.148 17.4ZM537.724 12.264C538.844 11.976 539.948 11.832 541.036 11.832C543.084 11.832 545.276 12.344 547.612 13.368C549.276 14.104 550.588 15.4 551.548 17.256C552.54 19.112 553.052 21.304 553.084 23.832V24.12C553.084 27.928 551.388 31.016 547.996 33.384C545.884 34.888 543.532 35.64 540.94 35.64C538.796 35.64 536.812 35.112 534.988 34.056C533.164 32.968 531.788 31.448 530.86 29.496C530.54 28.824 530.332 28.248 530.236 27.768C530.172 27.288 530.14 26.28 530.14 24.744C530.172 22.472 530.412 20.68 530.86 19.368C531.916 16.456 533.164 14.488 534.604 13.464C535.18 13.048 536.22 12.648 537.724 12.264ZM559.127 13.224C559.607 12.744 560.215 12.504 560.951 12.504C561.943 12.504 562.631 12.84 563.015 13.512C563.431 14.152 564.087 15.96 564.983 18.936C565.239 19.768 565.559 20.84 565.943 22.152C567.031 25.608 567.655 27.368 567.815 27.432C568.007 27.432 568.439 26.472 569.111 24.552C570.199 21.288 571.095 19 571.799 17.688C572.535 16.376 573.399 15.512 574.391 15.096C574.871 14.872 575.351 14.76 575.831 14.76C576.535 14.76 577.175 15.096 577.751 15.768C578.359 16.408 579.031 17.496 579.767 19.032C582.583 25.016 584.071 28.008 584.231 28.008C584.295 28.008 584.663 27 585.335 24.984C586.039 22.936 586.775 20.824 587.543 18.648C588.343 16.472 588.871 15.24 589.127 14.952C589.639 14.376 590.247 14.088 590.951 14.088C591.719 14.088 592.423 14.424 593.063 15.096C593.415 15.448 593.591 15.912 593.591 16.488C593.591 17.416 592.855 20.04 591.383 24.36C589.847 28.872 588.663 31.832 587.831 33.24C586.999 34.616 585.959 35.304 584.711 35.304C584.327 35.304 584.039 35.288 583.847 35.256C582.823 35.096 581.943 34.568 581.207 33.672C580.471 32.776 579.399 30.856 577.991 27.912C576.423 24.648 575.591 23.016 575.495 23.016C575.399 23.016 575.111 23.688 574.631 25.032C573.095 29.448 572.007 32.312 571.367 33.624C570.727 34.936 570.055 35.752 569.351 36.072C568.807 36.296 568.167 36.408 567.431 36.408C566.791 36.408 566.295 36.328 565.943 36.168C565.303 35.848 564.535 34.568 563.639 32.328C562.743 30.088 561.479 26.248 559.847 20.808C558.919 17.736 558.455 15.768 558.455 14.904C558.455 14.232 558.679 13.672 559.127 13.224ZM13.648 70.4C12.784 70.24 12.064 70.16 11.488 70.16C10.176 70.16 9.072 70.432 8.176 70.976C7.728 71.264 7.2 72.24 6.592 73.904C6.016 75.536 5.728 76.848 5.728 77.84C5.728 79.44 6.24 80.736 7.264 81.728C8.32 82.688 9.696 83.184 11.392 83.216C12.768 83.216 14.048 82.832 15.232 82.064C16.448 81.296 17.328 80.288 17.872 79.04C18.224 78.24 18.4 77.328 18.4 76.304C18.4 75.056 18.16 73.968 17.68 73.04C17.328 72.304 16.848 71.744 16.24 71.36C15.632 70.976 14.768 70.656 13.648 70.4ZM8.224 65.264C9.344 64.976 10.448 64.832 11.536 64.832C13.584 64.832 15.776 65.344 18.112 66.368C19.776 67.104 21.088 68.4 22.048 70.256C23.04 72.112 23.552 74.304 23.584 76.832V77.12C23.584 80.928 21.888 84.016 18.496 86.384C16.384 87.888 14.032 88.64 11.44 88.64C9.296 88.64 7.312 88.112 5.488 87.056C3.664 85.968 2.288 84.448 1.36 82.496C1.04 81.824 0.832 81.248 0.736 80.768C0.672 80.288 0.64 79.28 0.64 77.744C0.672 75.472 0.912 73.68 1.36 72.368C2.416 69.456 3.664 67.488 5.104 66.464C5.68 66.048 6.72 65.648 8.224 65.264ZM29.6748 55.136C30.1868 54.624 30.7948 54.368 31.4988 54.368C32.1708 54.368 32.7628 54.624 33.2747 55.136C33.7868 55.648 34.1068 56.48 34.2348 57.632C34.2668 57.952 34.2828 59.872 34.2828 63.392C34.2828 79.84 34.1708 88.4 33.9468 89.072C33.8188 89.456 33.5308 89.76 33.0828 89.984C32.6348 90.208 32.1388 90.32 31.5948 90.32C30.9548 90.32 30.4428 90.192 30.0588 89.936C29.4828 89.552 29.1148 88.992 28.9548 88.256C28.8268 87.488 28.7628 85.44 28.7628 82.112C28.7628 78.24 28.7788 74.8 28.8108 71.792L28.9548 55.856L29.6748 55.136ZM51.7885 73.424C50.5085 72.816 49.6125 72.512 49.1005 72.512C48.4925 72.512 47.7245 72.928 46.7965 73.76C45.5485 74.912 44.9245 76.336 44.9245 78.032C44.9245 79.408 45.3725 80.448 46.2685 81.152C46.6845 81.472 47.1165 81.632 47.5645 81.632C48.1085 81.632 48.7965 81.408 49.6285 80.96C52.3165 79.552 53.6605 77.728 53.6605 75.488V74.288L51.7885 73.424ZM54.2365 56.384C54.7805 55.936 55.4205 55.712 56.1565 55.712C56.6365 55.712 57.0365 55.808 57.3565 56C57.7405 56.224 58.0605 56.592 58.3165 57.104C58.5085 57.488 58.6365 58.56 58.7005 60.32C58.7965 62.08 58.8605 66.112 58.8925 72.416L58.9885 86.864L58.1725 87.68C57.6285 88.224 57.0045 88.496 56.3005 88.496C55.6285 88.496 55.0205 88.256 54.4765 87.776C53.9325 87.296 53.6605 86.752 53.6605 86.144C53.6605 85.632 53.6285 85.344 53.5645 85.28H53.5165C53.2925 85.28 52.7645 85.488 51.9325 85.904C50.3645 86.64 48.8925 87.008 47.5165 87.008C45.3725 87.008 43.5005 86.144 41.9005 84.416C40.2685 82.624 39.4525 80.512 39.4525 78.08C39.4525 74.88 40.7005 72.128 43.1965 69.824C45.0845 68.096 47.1325 67.232 49.3405 67.232C50.3005 67.232 51.1805 67.36 51.9805 67.616C52.8445 67.904 53.3085 68.048 53.3725 68.048C53.4045 68.048 53.4205 66.224 53.4205 62.576V57.104L54.2365 56.384ZM81.3321 59.408C81.8441 58.928 82.3241 58.688 82.7721 58.688C83.0281 58.688 83.2521 58.704 83.4441 58.736C84.3081 58.832 84.9161 59.12 85.2681 59.6L85.8921 60.32L85.7961 72.896C85.7641 81.184 85.6201 85.648 85.3641 86.288C84.9481 87.248 84.1481 87.728 82.9641 87.728C82.5801 87.728 82.2921 87.696 82.1001 87.632C81.6201 87.472 81.3001 87.36 81.1401 87.296C81.0121 87.2 80.8521 86.912 80.6601 86.432C80.5001 85.92 80.4041 85.216 80.3721 84.32C80.3401 83.424 80.3241 82.048 80.3241 80.192C80.3241 79.68 80.3241 78.64 80.3241 77.072C80.3561 75.504 80.3721 74.192 80.3721 73.136L80.4201 60.176L81.3321 59.408ZM123.777 73.52C123.617 73.008 123.473 72.72 123.345 72.656C123.217 72.56 122.865 72.512 122.289 72.512C120.625 72.544 119.073 73.328 117.633 74.864C116.193 76.368 115.473 77.888 115.473 79.424C115.473 80.192 115.681 80.832 116.097 81.344C117.025 82.368 118.001 82.88 119.025 82.88C119.089 82.88 119.153 82.88 119.217 82.88C119.281 82.848 119.345 82.832 119.409 82.832C119.985 82.704 120.593 82.32 121.233 81.68C121.905 81.04 122.417 80.336 122.769 79.568C123.505 77.84 123.873 76.16 123.873 74.528C123.873 74.048 123.841 73.712 123.777 73.52ZM119.312 67.472C120.177 67.184 121.169 67.04 122.289 67.04C123.761 67.04 125.009 67.28 126.033 67.76C126.705 68.112 127.313 68.64 127.857 69.344C128.433 70.016 128.785 70.656 128.913 71.264C129.041 71.872 129.217 72.448 129.441 72.992C129.793 73.92 130.497 77.408 131.552 83.456C131.713 84.416 131.793 85.136 131.793 85.616C131.793 87.536 130.897 88.496 129.105 88.496C128.497 88.496 127.937 88.256 127.425 87.776C126.945 87.296 126.641 86.704 126.513 86C126.385 85.36 126.273 84.992 126.177 84.896C126.049 84.8 125.681 85.056 125.073 85.664C123.249 87.488 121.153 88.4 118.785 88.4C118.369 88.4 117.937 88.352 117.489 88.256C115.729 87.872 114.081 86.912 112.545 85.376C110.817 83.648 109.953 81.712 109.953 79.568C109.953 77.872 110.481 76.032 111.537 74.048C112.337 72.544 113.425 71.2 114.801 70.016C116.209 68.832 117.713 67.984 119.312 67.472ZM138.629 65.792C138.949 65.632 139.333 65.552 139.781 65.552C141.413 65.552 142.437 66.928 142.853 69.68C142.949 70.512 143.061 70.928 143.189 70.928C143.221 70.928 143.669 70.56 144.533 69.824C146.293 68.256 148.085 67.472 149.909 67.472C150.901 67.472 151.845 67.744 152.741 68.288C153.605 68.832 154.165 69.312 154.421 69.728L154.853 70.4L156.005 69.344C157.765 67.776 159.653 66.992 161.669 66.992C163.621 66.992 165.301 67.744 166.709 69.248C169.109 71.712 170.533 75.92 170.981 81.872C171.045 82.96 171.077 83.632 171.077 83.888C171.077 84.72 170.965 85.328 170.741 85.712C170.549 86.096 170.197 86.432 169.685 86.72C169.237 86.944 168.805 87.056 168.389 87.056C167.685 87.056 167.061 86.736 166.517 86.096C166.101 85.552 165.829 84.624 165.701 83.312C165.445 80.368 165.125 78.176 164.741 76.736C164.357 75.296 163.813 74.176 163.109 73.376C162.565 72.8 162.005 72.512 161.429 72.512C160.341 72.512 159.381 73.36 158.549 75.056C158.229 75.728 158.021 76.352 157.925 76.928C157.829 77.504 157.749 78.816 157.685 80.864C157.557 83.68 157.397 85.36 157.205 85.904C156.757 86.96 155.941 87.488 154.757 87.488C154.053 87.488 153.461 87.248 152.981 86.768C152.213 86 151.733 83.728 151.541 79.952C151.445 78.512 151.269 77.12 151.013 75.776C150.757 74.432 150.517 73.632 150.293 73.376C150.101 73.152 149.893 73.04 149.669 73.04C149.285 73.04 148.645 73.44 147.749 74.24C146.789 75.136 146.069 76.096 145.589 77.12C145.141 78.048 144.869 78.8 144.773 79.376C144.709 79.92 144.645 81.792 144.581 84.992C144.549 85.824 144.293 86.496 143.813 87.008C143.333 87.52 142.725 87.776 141.989 87.776C141.253 87.776 140.661 87.632 140.213 87.344C139.573 86.896 139.125 86.032 138.869 84.752C138.613 83.44 138.325 80.352 138.005 75.488C137.813 72.608 137.589 70.656 137.333 69.632C137.141 68.864 137.045 68.352 137.045 68.096C137.045 67.808 137.141 67.472 137.333 67.088C137.621 66.416 138.053 65.984 138.629 65.792ZM211.874 72.848C210.946 71.92 209.506 71.456 207.554 71.456C206.594 71.456 205.746 71.616 205.01 71.936C204.306 72.256 203.538 72.88 202.706 73.808C201.874 74.736 201.33 75.584 201.074 76.352C200.786 77.184 200.642 77.968 200.642 78.704C200.642 80.4 201.314 81.6 202.658 82.304C203.458 82.72 204.498 82.928 205.778 82.928C206.642 82.928 207.298 82.816 207.746 82.592C210.338 81.28 211.922 78.928 212.498 75.536L212.786 73.712L211.874 72.848ZM204.578 66.32C205.346 66.096 206.242 65.984 207.266 65.984C208.994 65.984 210.69 66.288 212.354 66.896C214.018 67.504 215.17 68.272 215.81 69.2C216.258 69.84 216.834 70.512 217.538 71.216C218.306 72.016 219.01 73.392 219.65 75.344C220.258 77.2 220.818 79.264 221.33 81.536C221.874 83.808 222.146 85.344 222.146 86.144C222.146 86.944 221.906 87.568 221.426 88.016C220.818 88.592 220.242 88.88 219.698 88.88C219.474 88.88 219.186 88.832 218.834 88.736C218.226 88.512 217.746 88.128 217.394 87.584C217.074 87.04 216.786 86.16 216.53 84.944C216.21 83.504 216.034 82.784 216.002 82.784C215.874 82.784 215.202 83.392 213.986 84.608C211.586 86.944 209.09 88.208 206.498 88.4H205.826C204.258 88.4 202.722 88.128 201.218 87.584C199.746 87.04 198.578 86.32 197.714 85.424C197.266 84.976 196.818 84.304 196.37 83.408C195.922 82.48 195.618 81.632 195.458 80.864C195.298 80.064 195.218 79.344 195.218 78.704C195.218 76.048 196.114 73.504 197.906 71.072C199.73 68.64 201.954 67.056 204.578 66.32ZM228.763 66.608C229.147 66.416 229.547 66.32 229.963 66.32C230.539 66.32 231.083 66.512 231.595 66.896C232.107 67.248 232.459 67.728 232.651 68.336L232.939 69.344L234.139 68.624C234.939 68.144 236.043 67.904 237.451 67.904C238.827 67.904 239.963 68.128 240.859 68.576C241.595 68.928 242.379 69.504 243.211 70.304C244.075 71.104 244.763 71.904 245.275 72.704C247.003 75.424 247.947 79.648 248.107 85.376V86.336C248.107 87.104 247.883 87.728 247.435 88.208C246.891 88.752 246.251 89.024 245.515 89.024C244.331 89.024 243.547 88.512 243.163 87.488C242.971 86.944 242.811 85.872 242.683 84.272C242.299 78.672 241.051 75.168 238.939 73.76C238.491 73.472 238.043 73.328 237.595 73.328C236.763 73.328 236.011 73.792 235.339 74.72C234.699 75.616 234.187 76.896 233.803 78.56C233.643 79.296 233.451 80.624 233.227 82.544C233.003 84.464 232.891 85.76 232.891 86.432C232.891 86.752 232.619 87.184 232.075 87.728C231.531 88.24 230.907 88.496 230.203 88.496C228.891 88.496 228.027 87.808 227.611 86.432C227.419 85.76 227.323 82.848 227.323 77.696C227.323 71.552 227.435 68.208 227.659 67.664C227.851 67.248 228.219 66.896 228.763 66.608ZM265.485 73.808C265.197 73.456 264.701 73.28 263.997 73.28C263.421 73.28 262.845 73.424 262.269 73.712C261.405 74.128 260.589 75.008 259.821 76.352C259.053 77.696 258.669 78.88 258.669 79.904C258.669 80.224 258.717 80.496 258.813 80.72C259.037 81.232 259.581 81.712 260.445 82.16C261.309 82.576 262.125 82.784 262.893 82.784C263.053 82.784 263.293 82.752 263.613 82.688C264.349 82.464 265.085 81.856 265.821 80.864C266.589 79.84 267.181 78.64 267.597 77.264C267.853 76.432 267.981 75.872 267.981 75.584C267.981 75.136 267.645 74.816 266.973 74.624C266.205 74.336 265.709 74.064 265.485 73.808ZM269.373 57.056C269.661 56.928 269.997 56.864 270.381 56.864C271.597 56.864 272.413 57.392 272.829 58.448C273.021 58.928 273.325 60.864 273.741 64.256C274.125 67.808 274.349 69.808 274.413 70.256C275.725 79.76 276.381 85.2 276.381 86.576C276.381 87.216 276.109 87.776 275.565 88.256C275.053 88.736 274.461 88.976 273.789 88.976C272.861 88.976 272.141 88.64 271.629 87.968C271.117 87.264 270.861 86.32 270.861 85.136C270.861 84.624 270.797 84.304 270.669 84.176H270.621C270.429 84.176 269.837 84.64 268.845 85.568C267.789 86.624 266.765 87.328 265.773 87.68C264.877 88.032 263.853 88.208 262.701 88.208C261.005 88.208 259.373 87.792 257.805 86.96C256.237 86.096 255.021 84.96 254.157 83.552C253.837 83.008 253.629 82.544 253.533 82.16C253.469 81.744 253.437 80.96 253.437 79.808C253.469 78.336 253.645 77.104 253.965 76.112C254.285 75.12 254.877 73.968 255.741 72.656C256.349 71.728 257.213 70.832 258.333 69.968C259.453 69.104 260.429 68.544 261.261 68.288C262.093 68.064 262.973 67.952 263.901 67.952C265.053 67.952 266.061 68.096 266.925 68.384C267.853 68.672 268.349 68.816 268.413 68.816C268.477 68.816 268.509 68.624 268.509 68.24C268.509 67.184 268.381 65.856 268.125 64.256C267.901 62.944 267.789 61.76 267.789 60.704C267.789 58.72 268.317 57.504 269.373 57.056ZM302.675 55.472C303.155 55.088 303.667 54.896 304.211 54.896C304.851 54.896 305.443 55.152 305.987 55.664C306.531 56.144 306.867 56.768 306.995 57.536C307.091 58.24 307.171 60.176 307.235 63.344C307.235 66.384 307.299 67.968 307.427 68.096H307.475C307.603 68.096 308.035 67.84 308.771 67.328C310.851 65.696 313.011 64.88 315.251 64.88C316.179 64.88 317.075 65.056 317.939 65.408C319.891 66.208 321.267 68.24 322.067 71.504C322.259 72.272 322.451 74.128 322.643 77.072C322.835 80.016 322.931 82.304 322.931 83.936C322.931 84.608 322.915 85.008 322.883 85.136C322.755 85.84 322.435 86.4 321.923 86.816C321.411 87.232 320.851 87.44 320.243 87.44C319.507 87.44 318.883 87.168 318.371 86.624L317.603 85.808L317.459 80.528C317.363 77.552 317.187 75.216 316.931 73.52C316.771 72.528 316.515 71.712 316.163 71.072C315.843 70.432 315.507 70.112 315.155 70.112C314.739 70.112 314.083 70.384 313.187 70.928C312.291 71.44 311.635 71.92 311.219 72.368C310.131 73.616 309.379 74.976 308.963 76.448C308.547 77.888 308.323 79.888 308.291 82.448C308.291 84.688 308.211 86.128 308.051 86.768C307.923 87.472 307.619 88.032 307.139 88.448C306.659 88.832 306.115 89.024 305.507 89.024C304.803 89.024 304.179 88.752 303.635 88.208C303.123 87.696 302.803 87.2 302.675 86.72C302.547 86.272 302.403 82.624 302.243 75.776C302.051 68.704 301.907 63.968 301.811 61.568C301.747 59.968 301.715 59.024 301.715 58.736C301.715 57.072 302.035 55.984 302.675 55.472ZM341.164 70.4C340.3 70.24 339.58 70.16 339.004 70.16C337.692 70.16 336.588 70.432 335.692 70.976C335.244 71.264 334.716 72.24 334.108 73.904C333.532 75.536 333.244 76.848 333.244 77.84C333.244 79.44 333.756 80.736 334.78 81.728C335.836 82.688 337.212 83.184 338.908 83.216C340.284 83.216 341.564 82.832 342.748 82.064C343.964 81.296 344.844 80.288 345.388 79.04C345.74 78.24 345.916 77.328 345.916 76.304C345.916 75.056 345.676 73.968 345.196 73.04C344.844 72.304 344.364 71.744 343.756 71.36C343.148 70.976 342.284 70.656 341.164 70.4ZM335.74 65.264C336.86 64.976 337.964 64.832 339.052 64.832C341.1 64.832 343.292 65.344 345.628 66.368C347.292 67.104 348.604 68.4 349.564 70.256C350.556 72.112 351.068 74.304 351.1 76.832V77.12C351.1 80.928 349.404 84.016 346.012 86.384C343.9 87.888 341.548 88.64 338.956 88.64C336.812 88.64 334.828 88.112 333.004 87.056C331.18 85.968 329.804 84.448 328.876 82.496C328.556 81.824 328.348 81.248 328.252 80.768C328.188 80.288 328.156 79.28 328.156 77.744C328.188 75.472 328.428 73.68 328.876 72.368C329.932 69.456 331.18 67.488 332.62 66.464C333.196 66.048 334.236 65.648 335.74 65.264ZM357.142 66.224C357.622 65.744 358.23 65.504 358.966 65.504C359.958 65.504 360.646 65.84 361.03 66.512C361.446 67.152 362.102 68.96 362.998 71.936C363.254 72.768 363.574 73.84 363.958 75.152C365.046 78.608 365.67 80.368 365.83 80.432C366.022 80.432 366.454 79.472 367.126 77.552C368.214 74.288 369.11 72 369.814 70.688C370.55 69.376 371.414 68.512 372.406 68.096C372.886 67.872 373.366 67.76 373.846 67.76C374.55 67.76 375.19 68.096 375.766 68.768C376.374 69.408 377.046 70.496 377.782 72.032C380.598 78.016 382.086 81.008 382.246 81.008C382.31 81.008 382.678 80 383.35 77.984C384.054 75.936 384.79 73.824 385.558 71.648C386.358 69.472 386.886 68.24 387.142 67.952C387.654 67.376 388.262 67.088 388.966 67.088C389.734 67.088 390.438 67.424 391.078 68.096C391.43 68.448 391.606 68.912 391.606 69.488C391.606 70.416 390.87 73.04 389.398 77.36C387.862 81.872 386.678 84.832 385.846 86.24C385.014 87.616 383.974 88.304 382.726 88.304C382.342 88.304 382.054 88.288 381.862 88.256C380.838 88.096 379.958 87.568 379.222 86.672C378.486 85.776 377.414 83.856 376.006 80.912C374.438 77.648 373.606 76.016 373.51 76.016C373.414 76.016 373.126 76.688 372.646 78.032C371.11 82.448 370.022 85.312 369.382 86.624C368.742 87.936 368.07 88.752 367.366 89.072C366.822 89.296 366.182 89.408 365.446 89.408C364.806 89.408 364.31 89.328 363.958 89.168C363.318 88.848 362.55 87.568 361.654 85.328C360.758 83.088 359.494 79.248 357.862 73.808C356.934 70.736 356.47 68.768 356.47 67.904C356.47 67.232 356.694 66.672 357.142 66.224ZM413.926 65.792C414.246 65.632 414.63 65.552 415.078 65.552C416.71 65.552 417.734 66.928 418.15 69.68C418.246 70.512 418.358 70.928 418.486 70.928C418.518 70.928 418.966 70.56 419.83 69.824C421.59 68.256 423.382 67.472 425.206 67.472C426.198 67.472 427.142 67.744 428.038 68.288C428.902 68.832 429.462 69.312 429.718 69.728L430.15 70.4L431.302 69.344C433.062 67.776 434.95 66.992 436.966 66.992C438.918 66.992 440.598 67.744 442.006 69.248C444.406 71.712 445.83 75.92 446.278 81.872C446.342 82.96 446.374 83.632 446.374 83.888C446.374 84.72 446.262 85.328 446.038 85.712C445.846 86.096 445.494 86.432 444.982 86.72C444.534 86.944 444.102 87.056 443.686 87.056C442.982 87.056 442.358 86.736 441.814 86.096C441.398 85.552 441.126 84.624 440.998 83.312C440.742 80.368 440.422 78.176 440.038 76.736C439.654 75.296 439.11 74.176 438.406 73.376C437.862 72.8 437.302 72.512 436.726 72.512C435.638 72.512 434.678 73.36 433.846 75.056C433.526 75.728 433.318 76.352 433.222 76.928C433.126 77.504 433.046 78.816 432.982 80.864C432.854 83.68 432.694 85.36 432.502 85.904C432.054 86.96 431.238 87.488 430.054 87.488C429.35 87.488 428.758 87.248 428.278 86.768C427.51 86 427.03 83.728 426.838 79.952C426.742 78.512 426.566 77.12 426.31 75.776C426.054 74.432 425.814 73.632 425.59 73.376C425.398 73.152 425.19 73.04 424.966 73.04C424.582 73.04 423.942 73.44 423.046 74.24C422.086 75.136 421.366 76.096 420.886 77.12C420.438 78.048 420.166 78.8 420.07 79.376C420.006 79.92 419.942 81.792 419.878 84.992C419.846 85.824 419.59 86.496 419.11 87.008C418.63 87.52 418.022 87.776 417.286 87.776C416.55 87.776 415.958 87.632 415.51 87.344C414.87 86.896 414.422 86.032 414.166 84.752C413.91 83.44 413.622 80.352 413.302 75.488C413.11 72.608 412.886 70.656 412.63 69.632C412.438 68.864 412.342 68.352 412.342 68.096C412.342 67.808 412.438 67.472 412.63 67.088C412.918 66.416 413.35 65.984 413.926 65.792ZM452.344 66.32C452.856 65.776 453.48 65.504 454.216 65.504C455.592 65.504 456.472 66.048 456.856 67.136C457.048 67.776 457.144 69.648 457.144 72.752C457.144 75.888 457.24 77.936 457.432 78.896C457.912 81.104 458.888 82.208 460.36 82.208C460.648 82.208 460.952 82.16 461.272 82.064C461.72 81.936 462.296 81.504 463 80.768C463.736 80.032 464.264 79.36 464.584 78.752C465.16 77.568 465.672 75.216 466.12 71.696C466.44 69.296 466.936 67.84 467.608 67.328C468.056 66.976 468.552 66.8 469.096 66.8C469.704 66.8 470.264 67.024 470.776 67.472C471.32 67.888 471.688 68.432 471.88 69.104C472.04 69.808 472.312 72.32 472.696 76.64C473.112 80.928 473.32 83.664 473.32 84.848V85.232C473.192 85.84 472.888 86.32 472.408 86.672C471.928 87.024 471.4 87.2 470.824 87.2C470.28 87.2 469.752 87.04 469.24 86.72C468.76 86.4 468.424 85.936 468.232 85.328C467.976 84.592 467.832 84.224 467.8 84.224C467.672 84.224 467.128 84.592 466.168 85.328C464.248 86.864 462.36 87.632 460.504 87.632H460.36C458.824 87.632 457.448 87.264 456.232 86.528C455.016 85.792 454.056 84.752 453.352 83.408C452.68 82.064 452.248 80.848 452.056 79.76C451.864 78.64 451.752 76.48 451.72 73.28L451.576 67.184L452.344 66.32ZM488.994 66.608C489.794 66.448 490.546 66.368 491.25 66.368C493.362 66.368 495.346 66.896 497.202 67.952C498.002 68.432 498.53 68.816 498.786 69.104C499.074 69.392 499.298 69.808 499.458 70.352C499.49 70.448 499.506 70.592 499.506 70.784C499.506 71.776 499.122 72.56 498.354 73.136C497.938 73.392 497.538 73.52 497.154 73.52C496.61 73.52 495.746 73.248 494.562 72.704C493.314 72.128 492.162 71.84 491.106 71.84C490.146 71.84 489.25 72.08 488.418 72.56C487.682 73.008 486.882 73.68 486.018 74.576C485.154 75.472 484.594 76.224 484.338 76.832C484.082 77.44 483.954 77.92 483.954 78.272C483.954 78.816 484.386 79.52 485.25 80.384C486.562 81.664 488.402 82.416 490.77 82.64C490.866 82.64 490.994 82.656 491.154 82.688C491.346 82.688 491.474 82.688 491.538 82.688C492.082 82.688 492.818 82.448 493.746 81.968C494.738 81.424 495.506 81.152 496.05 81.152C496.562 81.152 497.074 81.376 497.586 81.824C498.258 82.464 498.594 83.12 498.594 83.792C498.594 85.04 497.618 86.16 495.666 87.152C494.514 87.76 493.362 88.064 492.21 88.064H491.442C488.754 88.032 486.306 87.424 484.098 86.24C481.89 85.024 480.306 83.44 479.346 81.488C478.834 80.464 478.578 79.376 478.578 78.224C478.578 75.28 480.242 72.336 483.57 69.392C485.202 67.92 487.01 66.992 488.994 66.608ZM505.644 55.472C506.124 55.088 506.636 54.896 507.18 54.896C507.82 54.896 508.412 55.152 508.956 55.664C509.5 56.144 509.836 56.768 509.964 57.536C510.06 58.24 510.14 60.176 510.204 63.344C510.204 66.384 510.268 67.968 510.396 68.096H510.444C510.572 68.096 511.004 67.84 511.74 67.328C513.82 65.696 515.98 64.88 518.22 64.88C519.148 64.88 520.044 65.056 520.908 65.408C522.86 66.208 524.236 68.24 525.036 71.504C525.228 72.272 525.42 74.128 525.612 77.072C525.804 80.016 525.9 82.304 525.9 83.936C525.9 84.608 525.884 85.008 525.852 85.136C525.724 85.84 525.404 86.4 524.892 86.816C524.38 87.232 523.82 87.44 523.212 87.44C522.476 87.44 521.852 87.168 521.34 86.624L520.572 85.808L520.428 80.528C520.332 77.552 520.156 75.216 519.9 73.52C519.74 72.528 519.484 71.712 519.132 71.072C518.812 70.432 518.476 70.112 518.124 70.112C517.708 70.112 517.052 70.384 516.156 70.928C515.26 71.44 514.604 71.92 514.188 72.368C513.1 73.616 512.348 74.976 511.932 76.448C511.516 77.888 511.292 79.888 511.26 82.448C511.26 84.688 511.18 86.128 511.02 86.768C510.892 87.472 510.588 88.032 510.108 88.448C509.628 88.832 509.084 89.024 508.476 89.024C507.772 89.024 507.148 88.752 506.604 88.208C506.092 87.696 505.772 87.2 505.644 86.72C505.516 86.272 505.372 82.624 505.212 75.776C505.02 68.704 504.876 63.968 504.78 61.568C504.716 59.968 504.684 59.024 504.684 58.736C504.684 57.072 505.004 55.984 505.644 55.472ZM8.128 109.288C8.64 108.968 9.12 108.808 9.568 108.808C9.92 108.808 10.32 108.904 10.768 109.096C11.44 109.416 11.872 109.912 12.064 110.584C12.256 111.256 12.384 112.856 12.448 115.384L12.592 120.136L14.8 119.992C15.056 119.96 15.424 119.944 15.904 119.944C17.056 119.944 17.872 120.152 18.352 120.568C18.864 120.984 19.12 121.656 19.12 122.584C19.12 123.576 18.784 124.28 18.112 124.696C17.472 125.112 16.224 125.4 14.368 125.56L12.352 125.752L12.016 132.424C11.792 136.936 11.584 139.432 11.392 139.912C10.976 140.872 10.176 141.352 8.992 141.352C8.32 141.352 7.792 141.176 7.408 140.824C6.992 140.504 6.704 140.152 6.544 139.768C6.384 139.384 6.304 138.76 6.304 137.896C6.304 137.192 6.352 136.136 6.448 134.728C6.608 132.2 6.72 130.04 6.784 128.248L6.832 125.992L4.672 125.944C3.456 125.912 2.624 125.816 2.176 125.656C1.728 125.464 1.344 125.08 1.024 124.504C0.832 124.12 0.736 123.72 0.736 123.304C0.736 122.536 1.056 121.864 1.696 121.288C2.048 120.968 2.496 120.76 3.04 120.664C3.584 120.536 4.592 120.408 6.064 120.28L6.832 120.184L7.024 115.096C7.056 114.328 7.072 113.496 7.072 112.6C7.104 111.672 7.12 110.984 7.12 110.536L7.168 109.864L7.312 109.768C7.408 109.704 7.536 109.624 7.696 109.528C7.856 109.432 8 109.352 8.128 109.288ZM26.6125 120.184C26.7405 120.152 26.9325 120.136 27.1885 120.136C27.8925 120.136 28.5165 120.36 29.0605 120.808C29.6045 121.256 29.9245 121.832 30.0205 122.536C30.1485 123.24 30.2125 126.264 30.2125 131.608L30.2605 139.72L29.4445 140.488C28.9005 141.032 28.2605 141.304 27.5245 141.304C26.8525 141.304 26.2765 141.064 25.7965 140.584C25.4765 140.264 25.2525 139.944 25.1245 139.624C25.0285 139.272 24.9485 138.6 24.8845 137.608C24.7885 136.36 24.7405 133.352 24.7405 128.584L24.6925 121.864L25.3645 121.048C25.8445 120.536 26.2605 120.248 26.6125 120.184ZM25.7485 110.632C26.1645 110.408 26.5965 110.296 27.0445 110.296C27.7805 110.296 28.4045 110.568 28.9165 111.112C29.4285 111.656 29.6845 112.28 29.6845 112.984C29.6845 113.592 29.4445 114.184 28.9645 114.76C28.3565 115.4 27.6845 115.72 26.9485 115.72C26.2445 115.72 25.6205 115.48 25.0765 115C24.5645 114.488 24.3085 113.88 24.3085 113.176C24.3085 112.76 24.4045 112.344 24.5965 111.928C24.8845 111.32 25.2685 110.888 25.7485 110.632ZM37.2453 117.016C37.6933 116.952 37.9493 116.904 38.0133 116.872C38.1733 116.872 38.5413 116.984 39.1172 117.208C39.5653 117.4 39.9653 117.784 40.3173 118.36C40.6693 118.936 40.8453 119.496 40.8453 120.04C40.8453 120.456 40.9253 120.776 41.0853 121C41.2133 121.16 41.3253 121.224 41.4213 121.192C41.5173 121.16 41.7413 121 42.0933 120.712C43.5333 119.496 45.2933 118.744 47.3733 118.456C48.0133 118.392 48.4613 118.36 48.7173 118.36C50.3493 118.36 51.7413 118.952 52.8933 120.136L53.9973 121.24L55.3893 120.136C57.6613 118.312 59.8693 117.4 62.0133 117.4C62.7493 117.4 63.4053 117.512 63.9813 117.736C64.6213 117.992 65.3093 118.488 66.0453 119.224C66.8133 119.928 67.3893 120.68 67.7733 121.48C68.9253 123.816 69.6773 128.168 70.0293 134.536C70.0933 136.136 70.1253 137.016 70.1253 137.176C70.1253 138.008 70.0133 138.632 69.7893 139.048C69.3093 139.976 68.5733 140.44 67.5813 140.44C66.8773 140.44 66.2533 140.184 65.7093 139.672L64.8453 138.952L64.6053 134.488C64.2533 127.832 63.4533 123.976 62.2053 122.92C62.0133 122.792 61.8533 122.728 61.7253 122.728C61.4693 122.728 61.0053 122.904 60.3333 123.256C58.6693 124.056 57.4853 125.416 56.7812 127.336C56.3973 128.328 56.1413 130.392 56.0133 133.528C55.8533 136.696 55.6933 138.456 55.5333 138.808C55.0213 139.704 54.2053 140.152 53.0853 140.152C52.4773 140.152 51.9333 139.96 51.4533 139.576C50.7493 139 50.3973 137.592 50.3973 135.352C50.3973 134.328 50.4133 133.48 50.4453 132.808C50.4453 132.584 50.4453 132.28 50.4453 131.896C50.4773 131.48 50.4933 131.176 50.4933 130.984C50.4933 127.848 50.1413 125.672 49.4373 124.456C49.1493 123.944 48.8613 123.688 48.5733 123.688C48.5413 123.688 48.3333 123.72 47.9493 123.784C45.9013 124.168 44.1733 125.816 42.7653 128.728C42.1893 129.944 41.9013 131.224 41.9013 132.568C41.9013 133.72 41.9973 135.128 42.1893 136.792C42.2853 137.464 42.3333 138.024 42.3333 138.472C42.3333 139.688 41.8053 140.552 40.7493 141.064C40.3013 141.288 39.9493 141.4 39.6933 141.4C39.5013 141.4 39.1973 141.32 38.7812 141.16C37.9813 140.872 37.4533 140.328 37.1973 139.528C36.9413 138.696 36.7333 136.92 36.5733 134.2C36.3493 129.56 35.9653 124.776 35.4213 119.848C35.4213 119.784 35.4053 119.688 35.3733 119.56C35.3733 119.432 35.3733 119.352 35.3733 119.32C35.3733 118.872 35.5653 118.408 35.9492 117.928C36.4293 117.384 36.8613 117.08 37.2453 117.016ZM90.1908 126.712C89.6148 126.424 88.7988 126.28 87.7428 126.28C86.5908 126.28 85.6148 126.456 84.8148 126.808C84.2708 127.032 83.5668 127.528 82.7028 128.296C81.8388 129.032 81.4068 129.512 81.4068 129.736C81.4068 129.832 81.9028 129.88 82.8948 129.88C84.3668 129.88 86.1268 129.8 88.1748 129.64C90.2228 129.48 91.3908 129.304 91.6788 129.112C91.7748 129.08 91.8228 128.984 91.8228 128.824C91.8228 128.536 91.6468 128.168 91.2948 127.72C90.9428 127.24 90.5748 126.904 90.1908 126.712ZM84.5268 121.144C85.3268 120.92 86.2708 120.808 87.3588 120.808C89.3748 120.808 91.2148 121.208 92.8788 122.008C94.1268 122.648 95.1668 123.624 95.9988 124.936C96.8308 126.216 97.3428 127.656 97.5348 129.256C97.5348 129.32 97.5348 129.416 97.5348 129.544C97.5668 129.672 97.5828 129.768 97.5828 129.832C97.5828 130.664 97.4228 131.48 97.1028 132.28C96.8148 133.08 96.4628 133.624 96.0468 133.912C95.5028 134.296 91.6788 134.776 84.5748 135.352C83.0708 135.48 82.3188 135.624 82.3188 135.784C82.3188 135.976 82.6548 136.28 83.3268 136.696C83.9988 137.112 84.6548 137.4 85.2948 137.56C85.8708 137.688 86.3348 137.752 86.6868 137.752C87.7108 137.752 89.0388 137.416 90.6708 136.744C91.8228 136.264 92.6708 136.024 93.2148 136.024C93.7588 136.024 94.2708 136.264 94.7508 136.744C95.3908 137.384 95.7108 137.992 95.7108 138.568C95.7108 138.952 95.6148 139.352 95.4228 139.768C95.2628 140.152 95.0388 140.456 94.7508 140.68C94.4948 140.904 94.0148 141.176 93.3108 141.496C90.9748 142.52 88.7988 143.032 86.7828 143.032C85.6308 143.032 84.4468 142.856 83.2308 142.504C81.5988 141.992 80.1108 141.128 78.7668 139.912C77.4228 138.664 76.4628 137.288 75.8867 135.784C75.5348 134.792 75.3588 133.688 75.3588 132.472C75.3588 130.712 75.6468 129.24 76.2228 128.056C76.8948 126.584 78.0308 125.176 79.6308 123.832C81.2308 122.488 82.8628 121.592 84.5268 121.144ZM124.087 108.328C124.631 107.88 125.191 107.656 125.767 107.656C126.919 107.656 127.767 108.36 128.311 109.768C128.535 110.408 128.775 111.944 129.031 114.376C129.287 116.776 129.495 119.016 129.655 121.096C129.815 123.144 129.911 124.168 129.943 124.168C130.007 124.168 130.535 123.816 131.527 123.112C133.479 121.736 135.335 121.048 137.095 121.048C138.727 121.048 140.151 121.656 141.367 122.872C142.615 124.056 143.591 125.8 144.295 128.104C144.839 129.896 145.111 132.68 145.111 136.456C145.111 138.824 144.967 140.424 144.679 141.256C144.359 142.12 143.623 142.552 142.471 142.552C141.703 142.552 141.063 142.296 140.551 141.784L139.831 141.064L139.687 136.216C139.495 129.976 138.631 126.76 137.095 126.568H136.951C136.215 126.568 135.303 126.984 134.215 127.816C133.127 128.616 132.343 129.496 131.863 130.456C131.575 131.096 131.191 131.56 130.711 131.848L130.087 132.28L129.991 137.512C129.927 140.072 129.863 141.624 129.799 142.168C129.767 142.68 129.591 143.096 129.271 143.416C128.759 143.96 128.119 144.232 127.351 144.232C126.199 144.232 125.399 143.72 124.951 142.696C124.727 142.088 124.567 138.408 124.471 131.656C124.311 120.36 123.895 113.592 123.223 111.352C123.127 111 123.079 110.664 123.079 110.344C123.079 109.512 123.415 108.84 124.087 108.328ZM167.015 125.848C166.087 124.92 164.647 124.456 162.695 124.456C161.735 124.456 160.887 124.616 160.151 124.936C159.447 125.256 158.679 125.88 157.847 126.808C157.015 127.736 156.471 128.584 156.215 129.352C155.927 130.184 155.783 130.968 155.783 131.704C155.783 133.4 156.455 134.6 157.799 135.304C158.599 135.72 159.639 135.928 160.919 135.928C161.783 135.928 162.439 135.816 162.887 135.592C165.479 134.28 167.063 131.928 167.639 128.536L167.927 126.712L167.015 125.848ZM159.719 119.32C160.487 119.096 161.383 118.984 162.407 118.984C164.135 118.984 165.831 119.288 167.495 119.896C169.159 120.504 170.311 121.272 170.951 122.2C171.399 122.84 171.975 123.512 172.679 124.216C173.447 125.016 174.151 126.392 174.791 128.344C175.399 130.2 175.959 132.264 176.471 134.536C177.015 136.808 177.287 138.344 177.287 139.144C177.287 139.944 177.047 140.568 176.567 141.016C175.959 141.592 175.383 141.88 174.839 141.88C174.615 141.88 174.327 141.832 173.975 141.736C173.367 141.512 172.887 141.128 172.535 140.584C172.215 140.04 171.927 139.16 171.671 137.944C171.351 136.504 171.175 135.784 171.143 135.784C171.015 135.784 170.343 136.392 169.127 137.608C166.727 139.944 164.231 141.208 161.639 141.4H160.967C159.399 141.4 157.863 141.128 156.359 140.584C154.887 140.04 153.719 139.32 152.855 138.424C152.407 137.976 151.959 137.304 151.511 136.408C151.063 135.48 150.759 134.632 150.599 133.864C150.439 133.064 150.359 132.344 150.359 131.704C150.359 129.048 151.255 126.504 153.047 124.072C154.871 121.64 157.095 120.056 159.719 119.32ZM189.424 118.744C190 118.648 190.592 118.6 191.2 118.6C193.12 118.6 194.832 119.032 196.336 119.896C197.84 120.76 198.592 121.752 198.592 122.872C198.592 123.16 198.544 123.416 198.448 123.64C197.968 124.856 197.248 125.464 196.288 125.464C195.584 125.464 194.784 125.24 193.888 124.792C192.864 124.28 191.92 124.024 191.056 124.024C190.128 124.024 189.36 124.328 188.752 124.936C188.432 125.256 188.272 125.512 188.272 125.704C188.272 125.96 188.512 126.264 188.992 126.616C189.504 126.936 190.432 127.448 191.776 128.152C193.984 129.304 195.472 130.248 196.24 130.984C196.976 131.624 197.616 132.424 198.16 133.384C198.704 134.312 198.976 135.096 198.976 135.736C198.976 136.472 198.784 137.208 198.4 137.944C198.016 138.68 197.536 139.24 196.96 139.624C195.488 140.616 193.696 141.112 191.584 141.112C189.6 141.112 187.552 140.648 185.44 139.72C184.448 139.24 183.824 138.696 183.568 138.088C183.376 137.64 183.28 137.24 183.28 136.888C183.28 136.248 183.584 135.624 184.192 135.016C184.608 134.536 185.168 134.296 185.872 134.296C186.544 134.296 187.36 134.504 188.32 134.92C189.376 135.368 190.592 135.592 191.968 135.592C192.608 135.592 192.928 135.512 192.928 135.352C192.928 134.968 191.552 134.088 188.8 132.712C186.656 131.592 185.088 130.488 184.096 129.4C183.104 128.28 182.608 127.048 182.608 125.704C182.608 124.104 183.264 122.632 184.576 121.288C185.92 119.912 187.536 119.064 189.424 118.744ZM234.614 127.192C234.198 126.168 233.654 125.448 232.982 125.032C232.31 124.616 231.494 124.408 230.534 124.408C229.51 124.408 228.502 124.632 227.51 125.08C226.614 125.464 226.102 125.832 225.974 126.184C225.878 126.44 225.686 126.744 225.398 127.096C225.014 127.544 224.822 129.128 224.822 131.848C224.822 132.744 224.854 133.352 224.918 133.672L225.11 134.824L226.598 135.208C227.494 135.432 228.39 135.544 229.286 135.544C230.758 135.544 232.006 135.24 233.03 134.632C234.086 133.992 234.758 133.112 235.046 131.992C235.174 131.512 235.238 130.952 235.238 130.312C235.238 129.224 235.03 128.184 234.614 127.192ZM228.614 119.08C228.998 119.016 229.382 118.984 229.766 118.984C231.622 118.984 233.206 119.224 234.518 119.704C235.83 120.216 236.982 121.112 237.974 122.392C238.998 123.672 239.734 125.144 240.182 126.808C240.406 127.672 240.518 128.712 240.518 129.928C240.518 131.88 240.278 133.48 239.798 134.728C239.19 136.296 238.166 137.608 236.726 138.664C235.318 139.72 233.67 140.408 231.782 140.728C231.11 140.824 230.278 140.872 229.286 140.872C227.59 140.872 226.39 140.76 225.686 140.536C225.494 140.472 225.382 140.44 225.35 140.44C225.19 140.44 225.11 140.584 225.11 140.872C225.11 140.936 225.142 141.32 225.206 142.024C225.238 142.344 225.302 143.592 225.398 145.768V146.584C225.398 147.16 225.35 147.56 225.254 147.784C225.158 148.008 224.95 148.28 224.63 148.6C224.118 149.112 223.478 149.368 222.71 149.368C222.262 149.368 221.846 149.272 221.462 149.08C220.918 148.792 220.534 148.248 220.31 147.448C220.118 146.648 219.958 145 219.83 142.504C219.638 139.368 219.542 135.288 219.542 130.264C219.542 124.344 219.654 121.16 219.878 120.712C220.39 119.72 221.206 119.224 222.326 119.224C222.934 119.224 223.462 119.4 223.91 119.752L224.582 120.28L226.358 119.8C226.646 119.704 226.95 119.608 227.27 119.512C227.59 119.384 227.878 119.288 228.134 119.224C228.39 119.16 228.55 119.112 228.614 119.08ZM262.452 125.848C261.524 124.92 260.084 124.456 258.132 124.456C257.172 124.456 256.324 124.616 255.588 124.936C254.884 125.256 254.116 125.88 253.284 126.808C252.452 127.736 251.908 128.584 251.652 129.352C251.364 130.184 251.22 130.968 251.22 131.704C251.22 133.4 251.892 134.6 253.236 135.304C254.036 135.72 255.076 135.928 256.356 135.928C257.22 135.928 257.876 135.816 258.324 135.592C260.916 134.28 262.5 131.928 263.076 128.536L263.364 126.712L262.452 125.848ZM255.156 119.32C255.924 119.096 256.82 118.984 257.844 118.984C259.572 118.984 261.268 119.288 262.932 119.896C264.596 120.504 265.748 121.272 266.388 122.2C266.836 122.84 267.412 123.512 268.116 124.216C268.884 125.016 269.588 126.392 270.228 128.344C270.836 130.2 271.396 132.264 271.908 134.536C272.452 136.808 272.724 138.344 272.724 139.144C272.724 139.944 272.484 140.568 272.004 141.016C271.396 141.592 270.82 141.88 270.276 141.88C270.052 141.88 269.764 141.832 269.412 141.736C268.804 141.512 268.324 141.128 267.972 140.584C267.652 140.04 267.364 139.16 267.108 137.944C266.788 136.504 266.612 135.784 266.58 135.784C266.452 135.784 265.78 136.392 264.564 137.608C262.164 139.944 259.668 141.208 257.076 141.4H256.404C254.836 141.4 253.3 141.128 251.796 140.584C250.324 140.04 249.156 139.32 248.292 138.424C247.844 137.976 247.396 137.304 246.948 136.408C246.5 135.48 246.196 134.632 246.036 133.864C245.876 133.064 245.796 132.344 245.796 131.704C245.796 129.048 246.692 126.504 248.484 124.072C250.308 121.64 252.532 120.056 255.156 119.32ZM284.861 118.744C285.437 118.648 286.029 118.6 286.637 118.6C288.557 118.6 290.269 119.032 291.773 119.896C293.277 120.76 294.029 121.752 294.029 122.872C294.029 123.16 293.981 123.416 293.885 123.64C293.405 124.856 292.685 125.464 291.725 125.464C291.021 125.464 290.221 125.24 289.325 124.792C288.301 124.28 287.357 124.024 286.493 124.024C285.565 124.024 284.797 124.328 284.189 124.936C283.869 125.256 283.709 125.512 283.709 125.704C283.709 125.96 283.949 126.264 284.429 126.616C284.941 126.936 285.869 127.448 287.213 128.152C289.421 129.304 290.909 130.248 291.677 130.984C292.413 131.624 293.053 132.424 293.597 133.384C294.141 134.312 294.413 135.096 294.413 135.736C294.413 136.472 294.221 137.208 293.837 137.944C293.453 138.68 292.973 139.24 292.397 139.624C290.925 140.616 289.133 141.112 287.021 141.112C285.037 141.112 282.989 140.648 280.877 139.72C279.885 139.24 279.261 138.696 279.005 138.088C278.813 137.64 278.717 137.24 278.717 136.888C278.717 136.248 279.021 135.624 279.629 135.016C280.045 134.536 280.605 134.296 281.309 134.296C281.981 134.296 282.797 134.504 283.757 134.92C284.813 135.368 286.029 135.592 287.405 135.592C288.045 135.592 288.365 135.512 288.365 135.352C288.365 134.968 286.989 134.088 284.237 132.712C282.093 131.592 280.525 130.488 279.533 129.4C278.541 128.28 278.045 127.048 278.045 125.704C278.045 124.104 278.701 122.632 280.013 121.288C281.357 119.912 282.973 119.064 284.861 118.744ZM306.424 118.744C307 118.648 307.592 118.6 308.2 118.6C310.12 118.6 311.832 119.032 313.336 119.896C314.84 120.76 315.592 121.752 315.592 122.872C315.592 123.16 315.544 123.416 315.448 123.64C314.968 124.856 314.248 125.464 313.288 125.464C312.584 125.464 311.784 125.24 310.888 124.792C309.864 124.28 308.92 124.024 308.056 124.024C307.128 124.024 306.36 124.328 305.752 124.936C305.432 125.256 305.272 125.512 305.272 125.704C305.272 125.96 305.512 126.264 305.992 126.616C306.504 126.936 307.432 127.448 308.776 128.152C310.984 129.304 312.472 130.248 313.24 130.984C313.976 131.624 314.616 132.424 315.16 133.384C315.704 134.312 315.976 135.096 315.976 135.736C315.976 136.472 315.784 137.208 315.4 137.944C315.016 138.68 314.536 139.24 313.96 139.624C312.488 140.616 310.696 141.112 308.584 141.112C306.6 141.112 304.552 140.648 302.44 139.72C301.448 139.24 300.824 138.696 300.568 138.088C300.376 137.64 300.28 137.24 300.28 136.888C300.28 136.248 300.584 135.624 301.192 135.016C301.608 134.536 302.168 134.296 302.872 134.296C303.544 134.296 304.36 134.504 305.32 134.92C306.376 135.368 307.592 135.592 308.968 135.592C309.608 135.592 309.928 135.512 309.928 135.352C309.928 134.968 308.552 134.088 305.8 132.712C303.656 131.592 302.088 130.488 301.096 129.4C300.104 128.28 299.608 127.048 299.608 125.704C299.608 124.104 300.264 122.632 301.576 121.288C302.92 119.912 304.536 119.064 306.424 118.744ZM336.05 126.712C335.474 126.424 334.658 126.28 333.602 126.28C332.45 126.28 331.474 126.456 330.674 126.808C330.13 127.032 329.426 127.528 328.562 128.296C327.698 129.032 327.266 129.512 327.266 129.736C327.266 129.832 327.762 129.88 328.754 129.88C330.226 129.88 331.986 129.8 334.034 129.64C336.082 129.48 337.25 129.304 337.538 129.112C337.634 129.08 337.682 128.984 337.682 128.824C337.682 128.536 337.506 128.168 337.154 127.72C336.802 127.24 336.434 126.904 336.05 126.712ZM330.386 121.144C331.186 120.92 332.13 120.808 333.218 120.808C335.234 120.808 337.074 121.208 338.738 122.008C339.986 122.648 341.026 123.624 341.858 124.936C342.69 126.216 343.202 127.656 343.394 129.256C343.394 129.32 343.394 129.416 343.394 129.544C343.426 129.672 343.442 129.768 343.442 129.832C343.442 130.664 343.282 131.48 342.962 132.28C342.674 133.08 342.322 133.624 341.906 133.912C341.362 134.296 337.538 134.776 330.434 135.352C328.93 135.48 328.178 135.624 328.178 135.784C328.178 135.976 328.514 136.28 329.186 136.696C329.858 137.112 330.514 137.4 331.154 137.56C331.73 137.688 332.194 137.752 332.546 137.752C333.57 137.752 334.898 137.416 336.53 136.744C337.682 136.264 338.53 136.024 339.074 136.024C339.618 136.024 340.13 136.264 340.61 136.744C341.25 137.384 341.57 137.992 341.57 138.568C341.57 138.952 341.474 139.352 341.282 139.768C341.122 140.152 340.898 140.456 340.61 140.68C340.354 140.904 339.874 141.176 339.17 141.496C336.834 142.52 334.658 143.032 332.642 143.032C331.49 143.032 330.306 142.856 329.09 142.504C327.458 141.992 325.97 141.128 324.626 139.912C323.282 138.664 322.322 137.288 321.746 135.784C321.394 134.792 321.218 133.688 321.218 132.472C321.218 130.712 321.506 129.24 322.082 128.056C322.754 126.584 323.89 125.176 325.49 123.832C327.09 122.488 328.722 121.592 330.386 121.144ZM361.023 126.424C359.743 125.816 358.847 125.512 358.335 125.512C357.727 125.512 356.959 125.928 356.031 126.76C354.783 127.912 354.159 129.336 354.159 131.032C354.159 132.408 354.607 133.448 355.503 134.152C355.919 134.472 356.351 134.632 356.799 134.632C357.343 134.632 358.031 134.408 358.863 133.96C361.551 132.552 362.895 130.728 362.895 128.488V127.288L361.023 126.424ZM363.471 109.384C364.015 108.936 364.655 108.712 365.391 108.712C365.871 108.712 366.271 108.808 366.591 109C366.975 109.224 367.295 109.592 367.551 110.104C367.743 110.488 367.871 111.56 367.935 113.32C368.031 115.08 368.095 119.112 368.127 125.416L368.223 139.864L367.407 140.68C366.863 141.224 366.239 141.496 365.535 141.496C364.863 141.496 364.255 141.256 363.711 140.776C363.167 140.296 362.895 139.752 362.895 139.144C362.895 138.632 362.863 138.344 362.799 138.28H362.751C362.527 138.28 361.999 138.488 361.167 138.904C359.599 139.64 358.127 140.008 356.751 140.008C354.607 140.008 352.735 139.144 351.135 137.416C349.503 135.624 348.687 133.512 348.687 131.08C348.687 127.88 349.935 125.128 352.431 122.824C354.319 121.096 356.367 120.232 358.575 120.232C359.535 120.232 360.415 120.36 361.215 120.616C362.079 120.904 362.543 121.048 362.607 121.048C362.639 121.048 362.655 119.224 362.655 115.576V110.104L363.471 109.384ZM373.774 138.136C374.03 137.592 374.318 137.224 374.638 137.032C374.958 136.84 375.518 136.744 376.318 136.744C376.862 136.744 377.23 136.792 377.422 136.888C377.646 136.984 377.902 137.208 378.19 137.56C378.67 138.136 378.91 138.744 378.91 139.384C378.91 140.088 378.606 140.744 377.998 141.352C377.39 141.96 376.766 142.264 376.126 142.264C375.486 142.264 374.862 141.992 374.254 141.448C373.678 140.872 373.39 140.28 373.39 139.672C373.39 139.192 373.518 138.68 373.774 138.136Z" fill="white"/>
</svg>
