<svg width="595" height="150" viewBox="0 0 595 150" fill="none" xmlns="http://www.w3.org/2000/svg">
<path d="M1.504 6.408C2.016 5.928 2.496 5.688 2.944 5.688C3.2 5.688 3.424 5.704 3.616 5.736C4.48 5.832 5.088 6.12 5.44 6.6L6.064 7.32L5.968 19.896C5.936 28.184 5.792 32.648 5.536 33.288C5.12 34.248 4.32 34.728 3.136 34.728C2.752 34.728 2.464 34.696 2.272 34.632C1.792 34.472 1.472 34.36 1.312 34.296C1.184 34.2 1.024 33.912 0.832 33.432C0.672 32.92 0.576 32.216 0.544 31.32C0.512 30.424 0.496 29.048 0.496 27.192C0.496 26.68 0.496 25.64 0.496 24.072C0.528 22.504 0.544 21.192 0.544 20.136L0.592 7.176L1.504 6.408ZM12.3858 3.576C12.8338 3.16 13.4098 2.952 14.1138 2.952C14.8818 2.952 15.5058 3.208 15.9858 3.72C16.3378 4.072 16.5458 4.472 16.6098 4.92C16.7058 5.368 16.7698 6.552 16.8018 8.472C16.8338 9.112 16.8498 9.88 16.8498 10.776C16.8498 12.088 16.7378 12.968 16.5138 13.416C16.0658 14.44 15.3138 14.952 14.2578 14.952C14.1298 14.952 13.9058 14.92 13.5858 14.856C12.7538 14.632 12.1618 14.056 11.8098 13.128C11.4578 12.168 11.2658 10.584 11.2338 8.376V7.944C11.2338 5.704 11.6178 4.248 12.3858 3.576ZM23.6448 12.792C23.9648 12.632 24.3488 12.552 24.7968 12.552C26.4288 12.552 27.4528 13.928 27.8688 16.68C27.9648 17.512 28.0768 17.928 28.2048 17.928C28.2368 17.928 28.6848 17.56 29.5488 16.824C31.3088 15.256 33.1008 14.472 34.9248 14.472C35.9168 14.472 36.8608 14.744 37.7568 15.288C38.6208 15.832 39.1808 16.312 39.4368 16.728L39.8688 17.4L41.0208 16.344C42.7808 14.776 44.6688 13.992 46.6848 13.992C48.6368 13.992 50.3168 14.744 51.7248 16.248C54.1248 18.712 55.5488 22.92 55.9968 28.872C56.0608 29.96 56.0928 30.632 56.0928 30.888C56.0928 31.72 55.9808 32.328 55.7568 32.712C55.5648 33.096 55.2128 33.432 54.7008 33.72C54.2528 33.944 53.8208 34.056 53.4048 34.056C52.7008 34.056 52.0768 33.736 51.5328 33.096C51.1168 32.552 50.8448 31.624 50.7168 30.312C50.4608 27.368 50.1408 25.176 49.7568 23.736C49.3728 22.296 48.8288 21.176 48.1248 20.376C47.5808 19.8 47.0208 19.512 46.4448 19.512C45.3568 19.512 44.3968 20.36 43.5648 22.056C43.2448 22.728 43.0368 23.352 42.9408 23.928C42.8448 24.504 42.7648 25.816 42.7008 27.864C42.5728 30.68 42.4128 32.36 42.2208 32.904C41.7728 33.96 40.9568 34.488 39.7728 34.488C39.0688 34.488 38.4768 34.248 37.9968 33.768C37.2288 33 36.7488 30.728 36.5568 26.952C36.4608 25.512 36.2848 24.12 36.0288 22.776C35.7728 21.432 35.5328 20.632 35.3088 20.376C35.1168 20.152 34.9088 20.04 34.6848 20.04C34.3008 20.04 33.6608 20.44 32.7648 21.24C31.8048 22.136 31.0848 23.096 30.6048 24.12C30.1568 25.048 29.8848 25.8 29.7888 26.376C29.7248 26.92 29.6608 28.792 29.5968 31.992C29.5648 32.824 29.3088 33.496 28.8288 34.008C28.3488 34.52 27.7408 34.776 27.0048 34.776C26.2688 34.776 25.6768 34.632 25.2288 34.344C24.5888 33.896 24.1408 33.032 23.8848 31.752C23.6288 30.44 23.3408 27.352 23.0208 22.488C22.8288 19.608 22.6048 17.656 22.3488 16.632C22.1568 15.864 22.0608 15.352 22.0608 15.096C22.0608 14.808 22.1568 14.472 22.3488 14.088C22.6368 13.416 23.0688 12.984 23.6448 12.792ZM90.2508 19.224C89.6428 19.064 88.6508 18.92 87.2748 18.792C86.3788 18.728 85.8988 18.696 85.8348 18.696C85.3868 18.696 84.9388 18.936 84.4908 19.416C83.2108 20.728 82.5228 22.504 82.4268 24.744C82.4268 24.872 82.4108 25.048 82.3788 25.272C82.3788 25.464 82.3788 25.608 82.3788 25.704C82.3788 26.44 82.5708 27.128 82.9548 27.768C83.9788 29.592 85.7868 30.504 88.3788 30.504C89.4668 30.472 90.5708 30.104 91.6908 29.4C92.8428 28.664 93.6748 27.784 94.1868 26.76C94.4748 26.152 94.6188 25.496 94.6188 24.792C94.6188 23.608 94.2028 22.488 93.3708 21.432C92.5708 20.344 91.5308 19.608 90.2508 19.224ZM82.9548 13.848C83.6908 13.432 84.4268 13.224 85.1628 13.224C85.3228 13.224 85.9148 13.256 86.9388 13.32C89.9788 13.48 92.4268 14.12 94.2828 15.24C96.1388 16.36 97.6268 18.088 98.7468 20.424C99.6108 22.216 100.043 23.928 100.043 25.56C100.043 26.072 99.9948 26.52 99.8988 26.904C99.3868 28.888 98.2668 30.696 96.5388 32.328C94.8108 33.96 92.9068 35.048 90.8268 35.592C89.7388 35.848 88.8748 35.976 88.2348 35.976C87.5948 35.976 86.7308 35.848 85.6428 35.592C82.3468 34.728 79.9788 33.16 78.5388 30.888C77.4188 29.128 76.8588 27.272 76.8588 25.32C76.8588 23.368 77.3868 21.288 78.4428 19.08C79.6588 16.488 81.1628 14.744 82.9548 13.848ZM116.544 1.896C116.864 1.8 117.264 1.752 117.744 1.752C119.28 1.752 120.496 2.008 121.392 2.52C122.608 3.256 123.216 4.248 123.216 5.496C123.216 6.456 122.784 7.16 121.92 7.608C121.504 7.832 121.056 7.944 120.576 7.944C120.096 7.944 119.536 7.8 118.896 7.512C118.384 7.288 118.112 7.176 118.08 7.176C117.952 7.176 117.744 7.32 117.456 7.608C117.104 7.96 116.8 8.68 116.544 9.768C116.288 10.856 116.16 12.056 116.16 13.368V14.376C116.16 14.824 116.208 15.128 116.304 15.288C116.4 15.448 116.624 15.528 116.976 15.528C117.296 15.528 118.064 15.448 119.28 15.288C119.568 15.256 119.952 15.24 120.432 15.24C122.64 15.24 123.744 16.136 123.744 17.928C123.712 18.856 123.376 19.528 122.736 19.944C122.128 20.328 121.04 20.584 119.472 20.712C117.968 20.84 117.136 20.952 116.976 21.048C116.944 21.048 116.928 21.192 116.928 21.48C116.928 22.312 117.088 23.96 117.408 26.424C117.728 28.888 118.032 30.824 118.32 32.232C118.448 33 118.512 33.528 118.512 33.816C118.512 34.904 118.256 35.768 117.744 36.408C117.232 37.048 116.528 37.368 115.632 37.368C114.896 37.368 114.272 37.128 113.76 36.648C113.408 36.264 113.168 35.848 113.04 35.4C112.944 34.92 112.8 33.672 112.608 31.656C112.288 28.616 112 26.216 111.744 24.456L111.312 21.432L108.96 21.336C107.872 21.272 107.184 21.192 106.896 21.096C106.608 21 106.32 20.792 106.032 20.472C105.616 19.96 105.408 19.336 105.408 18.6C105.408 18.152 105.504 17.736 105.696 17.352C106.144 16.584 107.264 16.104 109.056 15.912L110.592 15.768L110.736 12.84C110.928 9.512 111.488 6.984 112.416 5.256C113.344 3.496 114.72 2.376 116.544 1.896ZM136.566 3.288C137.078 2.968 137.558 2.808 138.006 2.808C138.358 2.808 138.758 2.904 139.206 3.096C139.878 3.416 140.31 3.912 140.502 4.584C140.694 5.256 140.822 6.856 140.886 9.384L141.03 14.136L143.238 13.992C143.494 13.96 143.862 13.944 144.342 13.944C145.494 13.944 146.31 14.152 146.79 14.568C147.302 14.984 147.558 15.656 147.558 16.584C147.558 17.576 147.222 18.28 146.55 18.696C145.91 19.112 144.662 19.4 142.806 19.56L140.79 19.752L140.454 26.424C140.23 30.936 140.022 33.432 139.83 33.912C139.414 34.872 138.614 35.352 137.43 35.352C136.758 35.352 136.23 35.176 135.846 34.824C135.43 34.504 135.142 34.152 134.982 33.768C134.822 33.384 134.742 32.76 134.742 31.896C134.742 31.192 134.79 30.136 134.886 28.728C135.046 26.2 135.158 24.04 135.222 22.248L135.27 19.992L133.11 19.944C131.894 19.912 131.062 19.816 130.614 19.656C130.166 19.464 129.782 19.08 129.462 18.504C129.27 18.12 129.174 17.72 129.174 17.304C129.174 16.536 129.494 15.864 130.134 15.288C130.486 14.968 130.934 14.76 131.478 14.664C132.022 14.536 133.03 14.408 134.502 14.28L135.27 14.184L135.462 9.096C135.494 8.328 135.51 7.496 135.51 6.6C135.542 5.672 135.558 4.984 135.558 4.536L135.606 3.864L135.75 3.768C135.846 3.704 135.974 3.624 136.134 3.528C136.294 3.432 136.438 3.352 136.566 3.288ZM167.722 20.712C167.146 20.424 166.33 20.28 165.274 20.28C164.122 20.28 163.146 20.456 162.346 20.808C161.802 21.032 161.098 21.528 160.234 22.296C159.37 23.032 158.938 23.512 158.938 23.736C158.938 23.832 159.434 23.88 160.426 23.88C161.898 23.88 163.658 23.8 165.706 23.64C167.754 23.48 168.922 23.304 169.21 23.112C169.306 23.08 169.354 22.984 169.354 22.824C169.354 22.536 169.178 22.168 168.826 21.72C168.474 21.24 168.106 20.904 167.722 20.712ZM162.058 15.144C162.858 14.92 163.802 14.808 164.89 14.808C166.906 14.808 168.746 15.208 170.41 16.008C171.658 16.648 172.698 17.624 173.53 18.936C174.362 20.216 174.874 21.656 175.066 23.256C175.066 23.32 175.066 23.416 175.066 23.544C175.098 23.672 175.114 23.768 175.114 23.832C175.114 24.664 174.954 25.48 174.634 26.28C174.346 27.08 173.994 27.624 173.578 27.912C173.034 28.296 169.21 28.776 162.106 29.352C160.602 29.48 159.85 29.624 159.85 29.784C159.85 29.976 160.186 30.28 160.858 30.696C161.53 31.112 162.186 31.4 162.826 31.56C163.402 31.688 163.866 31.752 164.218 31.752C165.242 31.752 166.57 31.416 168.202 30.744C169.354 30.264 170.202 30.024 170.746 30.024C171.29 30.024 171.802 30.264 172.282 30.744C172.922 31.384 173.242 31.992 173.242 32.568C173.242 32.952 173.146 33.352 172.954 33.768C172.794 34.152 172.57 34.456 172.282 34.68C172.026 34.904 171.546 35.176 170.842 35.496C168.506 36.52 166.33 37.032 164.314 37.032C163.162 37.032 161.978 36.856 160.762 36.504C159.13 35.992 157.642 35.128 156.298 33.912C154.954 32.664 153.994 31.288 153.418 29.784C153.066 28.792 152.89 27.688 152.89 26.472C152.89 24.712 153.178 23.24 153.754 22.056C154.426 20.584 155.562 19.176 157.162 17.832C158.762 16.488 160.394 15.592 162.058 15.144ZM181.607 13.608C181.991 13.416 182.391 13.32 182.807 13.32C183.383 13.32 183.927 13.512 184.439 13.896C184.951 14.248 185.303 14.728 185.495 15.336L185.783 16.344L186.983 15.624C187.783 15.144 188.887 14.904 190.295 14.904C191.671 14.904 192.807 15.128 193.703 15.576C194.439 15.928 195.223 16.504 196.055 17.304C196.919 18.104 197.607 18.904 198.119 19.704C199.847 22.424 200.791 26.648 200.951 32.376V33.336C200.951 34.104 200.727 34.728 200.279 35.208C199.735 35.752 199.095 36.024 198.359 36.024C197.175 36.024 196.391 35.512 196.007 34.488C195.815 33.944 195.655 32.872 195.527 31.272C195.143 25.672 193.895 22.168 191.783 20.76C191.335 20.472 190.887 20.328 190.439 20.328C189.607 20.328 188.855 20.792 188.183 21.72C187.543 22.616 187.031 23.896 186.647 25.56C186.487 26.296 186.295 27.624 186.071 29.544C185.847 31.464 185.735 32.76 185.735 33.432C185.735 33.752 185.463 34.184 184.919 34.728C184.375 35.24 183.751 35.496 183.047 35.496C181.735 35.496 180.871 34.808 180.455 33.432C180.263 32.76 180.167 29.848 180.167 24.696C180.167 18.552 180.279 15.208 180.503 14.664C180.695 14.248 181.063 13.896 181.607 13.608ZM229.028 13.368C229.156 13.336 229.348 13.32 229.604 13.32C230.212 13.32 230.772 13.48 231.284 13.8C231.796 14.088 232.148 14.488 232.34 15C232.468 15.288 232.596 17.48 232.724 21.576C232.884 25.64 232.964 28.84 232.964 31.176C232.964 32.168 232.948 32.744 232.916 32.904C232.756 34.12 232.228 34.936 231.332 35.352C230.884 35.544 230.532 35.64 230.276 35.64C230.084 35.64 229.796 35.592 229.412 35.496C228.676 35.272 228.212 34.968 228.02 34.584C227.636 33.848 227.412 31 227.348 26.04C227.348 25.144 227.332 23.592 227.3 21.384L227.252 14.808L227.828 14.136C228.212 13.688 228.612 13.432 229.028 13.368ZM227.876 4.344C228.26 4.152 228.628 4.056 228.98 4.056C229.684 4.056 230.308 4.344 230.852 4.92C231.396 5.464 231.668 6.104 231.668 6.84C231.668 7.352 231.54 7.8 231.284 8.184C230.74 9.048 230.004 9.48 229.076 9.48C228.468 9.48 227.908 9.272 227.396 8.856C226.884 8.44 226.564 7.864 226.436 7.128C226.436 7.096 226.42 7.048 226.388 6.984C226.388 6.888 226.388 6.824 226.388 6.792C226.388 6.312 226.532 5.848 226.82 5.4C227.108 4.92 227.46 4.568 227.876 4.344ZM239.404 13.608C239.788 13.416 240.188 13.32 240.604 13.32C241.18 13.32 241.724 13.512 242.236 13.896C242.748 14.248 243.1 14.728 243.292 15.336L243.58 16.344L244.78 15.624C245.58 15.144 246.684 14.904 248.092 14.904C249.468 14.904 250.604 15.128 251.5 15.576C252.236 15.928 253.02 16.504 253.852 17.304C254.716 18.104 255.404 18.904 255.916 19.704C257.644 22.424 258.588 26.648 258.748 32.376V33.336C258.748 34.104 258.524 34.728 258.076 35.208C257.532 35.752 256.892 36.024 256.156 36.024C254.972 36.024 254.188 35.512 253.804 34.488C253.612 33.944 253.452 32.872 253.324 31.272C252.94 25.672 251.692 22.168 249.58 20.76C249.132 20.472 248.684 20.328 248.236 20.328C247.404 20.328 246.652 20.792 245.98 21.72C245.34 22.616 244.828 23.896 244.444 25.56C244.284 26.296 244.092 27.624 243.868 29.544C243.644 31.464 243.532 32.76 243.532 33.432C243.532 33.752 243.26 34.184 242.716 34.728C242.172 35.24 241.548 35.496 240.844 35.496C239.532 35.496 238.668 34.808 238.252 33.432C238.06 32.76 237.964 29.848 237.964 24.696C237.964 18.552 238.076 15.208 238.3 14.664C238.492 14.248 238.86 13.896 239.404 13.608ZM296.617 20.424C295.337 19.816 294.441 19.512 293.929 19.512C293.321 19.512 292.553 19.928 291.625 20.76C290.377 21.912 289.753 23.336 289.753 25.032C289.753 26.408 290.201 27.448 291.097 28.152C291.513 28.472 291.945 28.632 292.393 28.632C292.937 28.632 293.625 28.408 294.457 27.96C297.145 26.552 298.489 24.728 298.489 22.488V21.288L296.617 20.424ZM299.065 3.384C299.609 2.936 300.249 2.712 300.985 2.712C301.465 2.712 301.865 2.808 302.185 3C302.569 3.224 302.889 3.592 303.145 4.104C303.337 4.488 303.465 5.56 303.529 7.32C303.625 9.08 303.689 13.112 303.721 19.416L303.817 33.864L303.001 34.68C302.457 35.224 301.833 35.496 301.129 35.496C300.457 35.496 299.849 35.256 299.305 34.776C298.761 34.296 298.489 33.752 298.489 33.144C298.489 32.632 298.457 32.344 298.393 32.28H298.345C298.121 32.28 297.593 32.488 296.761 32.904C295.193 33.64 293.721 34.008 292.345 34.008C290.201 34.008 288.329 33.144 286.729 31.416C285.097 29.624 284.281 27.512 284.281 25.08C284.281 21.88 285.529 19.128 288.025 16.824C289.913 15.096 291.961 14.232 294.169 14.232C295.129 14.232 296.009 14.36 296.809 14.616C297.673 14.904 298.137 15.048 298.201 15.048C298.233 15.048 298.249 13.224 298.249 9.576V4.104L299.065 3.384ZM323.816 20.712C323.24 20.424 322.424 20.28 321.368 20.28C320.216 20.28 319.24 20.456 318.44 20.808C317.896 21.032 317.192 21.528 316.328 22.296C315.464 23.032 315.032 23.512 315.032 23.736C315.032 23.832 315.528 23.88 316.52 23.88C317.992 23.88 319.752 23.8 321.8 23.64C323.848 23.48 325.016 23.304 325.304 23.112C325.4 23.08 325.448 22.984 325.448 22.824C325.448 22.536 325.272 22.168 324.92 21.72C324.568 21.24 324.2 20.904 323.816 20.712ZM318.152 15.144C318.952 14.92 319.896 14.808 320.984 14.808C323 14.808 324.84 15.208 326.504 16.008C327.752 16.648 328.792 17.624 329.624 18.936C330.456 20.216 330.968 21.656 331.16 23.256C331.16 23.32 331.16 23.416 331.16 23.544C331.192 23.672 331.208 23.768 331.208 23.832C331.208 24.664 331.048 25.48 330.728 26.28C330.44 27.08 330.088 27.624 329.672 27.912C329.128 28.296 325.304 28.776 318.2 29.352C316.696 29.48 315.944 29.624 315.944 29.784C315.944 29.976 316.28 30.28 316.952 30.696C317.624 31.112 318.28 31.4 318.92 31.56C319.496 31.688 319.96 31.752 320.312 31.752C321.336 31.752 322.664 31.416 324.296 30.744C325.448 30.264 326.296 30.024 326.84 30.024C327.384 30.024 327.896 30.264 328.376 30.744C329.016 31.384 329.336 31.992 329.336 32.568C329.336 32.952 329.24 33.352 329.048 33.768C328.888 34.152 328.664 34.456 328.376 34.68C328.12 34.904 327.64 35.176 326.936 35.496C324.6 36.52 322.424 37.032 320.408 37.032C319.256 37.032 318.072 36.856 316.856 36.504C315.224 35.992 313.736 35.128 312.392 33.912C311.048 32.664 310.088 31.288 309.512 29.784C309.16 28.792 308.984 27.688 308.984 26.472C308.984 24.712 309.272 23.24 309.848 22.056C310.52 20.584 311.656 19.176 313.256 17.832C314.856 16.488 316.488 15.592 318.152 15.144ZM337.701 13.608C338.085 13.416 338.485 13.32 338.901 13.32C339.477 13.32 340.021 13.512 340.533 13.896C341.045 14.248 341.397 14.728 341.589 15.336L341.877 16.344L343.077 15.624C343.877 15.144 344.981 14.904 346.389 14.904C347.765 14.904 348.901 15.128 349.797 15.576C350.533 15.928 351.317 16.504 352.149 17.304C353.013 18.104 353.701 18.904 354.213 19.704C355.941 22.424 356.885 26.648 357.045 32.376V33.336C357.045 34.104 356.821 34.728 356.373 35.208C355.829 35.752 355.189 36.024 354.453 36.024C353.269 36.024 352.485 35.512 352.101 34.488C351.909 33.944 351.749 32.872 351.621 31.272C351.237 25.672 349.989 22.168 347.877 20.76C347.429 20.472 346.981 20.328 346.533 20.328C345.701 20.328 344.949 20.792 344.277 21.72C343.637 22.616 343.125 23.896 342.741 25.56C342.581 26.296 342.389 27.624 342.165 29.544C341.941 31.464 341.829 32.76 341.829 33.432C341.829 33.752 341.557 34.184 341.013 34.728C340.469 35.24 339.845 35.496 339.141 35.496C337.829 35.496 336.965 34.808 336.549 33.432C336.357 32.76 336.261 29.848 336.261 24.696C336.261 18.552 336.373 15.208 336.597 14.664C336.789 14.248 337.157 13.896 337.701 13.608ZM364.534 14.184C364.662 14.152 364.854 14.136 365.11 14.136C365.814 14.136 366.438 14.36 366.982 14.808C367.526 15.256 367.846 15.832 367.942 16.536C368.07 17.24 368.134 20.264 368.134 25.608L368.182 33.72L367.366 34.488C366.822 35.032 366.182 35.304 365.446 35.304C364.774 35.304 364.198 35.064 363.718 34.584C363.398 34.264 363.174 33.944 363.046 33.624C362.95 33.272 362.87 32.6 362.806 31.608C362.71 30.36 362.662 27.352 362.662 22.584L362.614 15.864L363.286 15.048C363.766 14.536 364.182 14.248 364.534 14.184ZM363.67 4.632C364.086 4.408 364.518 4.296 364.966 4.296C365.702 4.296 366.326 4.568 366.838 5.112C367.35 5.656 367.606 6.28 367.606 6.984C367.606 7.592 367.366 8.184 366.886 8.76C366.278 9.4 365.606 9.72 364.87 9.72C364.166 9.72 363.542 9.48 362.998 9C362.486 8.488 362.23 7.88 362.23 7.176C362.23 6.76 362.326 6.344 362.518 5.928C362.806 5.32 363.19 4.888 363.67 4.632ZM387.167 20.52C387.007 20.008 386.863 19.72 386.735 19.656C386.607 19.56 386.255 19.512 385.679 19.512C384.015 19.544 382.463 20.328 381.023 21.864C379.583 23.368 378.863 24.888 378.863 26.424C378.863 27.192 379.071 27.832 379.487 28.344C380.415 29.368 381.391 29.88 382.415 29.88C382.479 29.88 382.543 29.88 382.607 29.88C382.671 29.848 382.735 29.832 382.799 29.832C383.375 29.704 383.983 29.32 384.623 28.68C385.295 28.04 385.807 27.336 386.159 26.568C386.895 24.84 387.263 23.16 387.263 21.528C387.263 21.048 387.231 20.712 387.167 20.52ZM382.703 14.472C383.567 14.184 384.559 14.04 385.679 14.04C387.151 14.04 388.399 14.28 389.423 14.76C390.095 15.112 390.703 15.64 391.247 16.344C391.823 17.016 392.175 17.656 392.303 18.264C392.431 18.872 392.607 19.448 392.831 19.992C393.183 20.92 393.887 24.408 394.943 30.456C395.103 31.416 395.183 32.136 395.183 32.616C395.183 34.536 394.287 35.496 392.495 35.496C391.887 35.496 391.327 35.256 390.815 34.776C390.335 34.296 390.031 33.704 389.903 33C389.775 32.36 389.663 31.992 389.567 31.896C389.439 31.8 389.071 32.056 388.463 32.664C386.639 34.488 384.543 35.4 382.175 35.4C381.759 35.4 381.327 35.352 380.879 35.256C379.119 34.872 377.471 33.912 375.935 32.376C374.207 30.648 373.343 28.712 373.343 26.568C373.343 24.872 373.871 23.032 374.927 21.048C375.727 19.544 376.815 18.2 378.191 17.016C379.599 15.832 381.103 14.984 382.703 14.472ZM401.3 2.136C401.812 1.624 402.42 1.368 403.124 1.368C403.796 1.368 404.388 1.624 404.9 2.136C405.412 2.648 405.732 3.48 405.86 4.632C405.892 4.952 405.908 6.872 405.908 10.392C405.908 26.84 405.796 35.4 405.572 36.072C405.444 36.456 405.156 36.76 404.708 36.984C404.26 37.208 403.764 37.32 403.22 37.32C402.58 37.32 402.068 37.192 401.684 36.936C401.108 36.552 400.74 35.992 400.58 35.256C400.452 34.488 400.388 32.44 400.388 29.112C400.388 25.24 400.404 21.8 400.436 18.792L400.58 2.856L401.3 2.136ZM439.985 19.224C439.377 19.064 438.385 18.92 437.009 18.792C436.113 18.728 435.633 18.696 435.569 18.696C435.121 18.696 434.673 18.936 434.225 19.416C432.945 20.728 432.257 22.504 432.161 24.744C432.161 24.872 432.145 25.048 432.113 25.272C432.113 25.464 432.113 25.608 432.113 25.704C432.113 26.44 432.305 27.128 432.689 27.768C433.713 29.592 435.521 30.504 438.113 30.504C439.201 30.472 440.305 30.104 441.425 29.4C442.577 28.664 443.409 27.784 443.921 26.76C444.209 26.152 444.353 25.496 444.353 24.792C444.353 23.608 443.937 22.488 443.105 21.432C442.305 20.344 441.265 19.608 439.985 19.224ZM432.689 13.848C433.425 13.432 434.161 13.224 434.897 13.224C435.057 13.224 435.649 13.256 436.673 13.32C439.713 13.48 442.161 14.12 444.017 15.24C445.873 16.36 447.361 18.088 448.481 20.424C449.345 22.216 449.777 23.928 449.777 25.56C449.777 26.072 449.729 26.52 449.633 26.904C449.121 28.888 448.001 30.696 446.273 32.328C444.545 33.96 442.641 35.048 440.561 35.592C439.473 35.848 438.609 35.976 437.969 35.976C437.329 35.976 436.465 35.848 435.377 35.592C432.081 34.728 429.713 33.16 428.273 30.888C427.153 29.128 426.593 27.272 426.593 25.32C426.593 23.368 427.121 21.288 428.177 19.08C429.393 16.488 430.897 14.744 432.689 13.848ZM471.078 0.647999C471.654 0.583998 472.086 0.551997 472.374 0.551997C474.678 0.551997 476.406 1.128 477.558 2.28C478.262 3.016 478.614 3.8 478.614 4.632C478.614 5.336 478.358 5.944 477.846 6.456C477.366 6.936 476.758 7.176 476.022 7.176C475.35 7.176 474.694 6.952 474.054 6.504C473.478 6.088 472.95 5.88 472.47 5.88C471.702 5.88 470.982 6.424 470.31 7.512C469.638 8.6 469.222 9.88 469.062 11.352C468.998 11.864 468.966 12.168 468.966 12.264C468.966 12.68 469.174 12.952 469.59 13.08C470.006 13.176 470.982 13.24 472.518 13.272C472.774 13.272 472.982 13.272 473.142 13.272C474.614 13.336 475.494 13.4 475.782 13.464C476.102 13.528 476.422 13.736 476.742 14.088C477.158 14.536 477.366 15.112 477.366 15.816C477.366 16.552 477.142 17.16 476.694 17.64L476.022 18.456H468.438L468.294 19.128C468.262 19.224 468.246 19.752 468.246 20.712C468.246 25.128 468.374 29.048 468.63 32.472C468.63 32.6 468.63 32.776 468.63 33C468.662 33.224 468.678 33.384 468.678 33.48C468.678 34.312 468.566 34.92 468.342 35.304C468.118 35.688 467.718 36.024 467.142 36.312C466.758 36.504 466.342 36.6 465.894 36.6C464.998 36.6 464.31 36.264 463.83 35.592C463.574 35.208 463.334 33.8 463.11 31.368C462.918 28.904 462.822 26.488 462.822 24.12C462.822 23.032 462.838 22.248 462.87 21.768L463.014 18.408L459.894 18.552C458.422 18.616 457.654 18.648 457.59 18.648C456.982 18.648 456.47 18.488 456.054 18.168C455.446 17.624 455.142 16.904 455.142 16.008C455.142 15.624 455.206 15.288 455.334 15C455.558 14.424 456.022 14.008 456.726 13.752C457.43 13.496 458.598 13.32 460.23 13.224C462.246 13.096 463.27 13 463.302 12.936C463.366 12.872 463.542 11.96 463.83 10.2C464.342 6.904 465.494 4.392 467.286 2.664C467.958 1.992 468.518 1.528 468.966 1.272C469.446 1.016 470.15 0.807999 471.078 0.647999ZM505.128 2.472C505.608 2.088 506.12 1.896 506.664 1.896C507.304 1.896 507.896 2.152 508.44 2.664C508.984 3.144 509.32 3.768 509.448 4.536C509.544 5.24 509.624 7.176 509.688 10.344C509.688 13.384 509.752 14.968 509.88 15.096H509.928C510.056 15.096 510.488 14.84 511.224 14.328C513.304 12.696 515.464 11.88 517.704 11.88C518.632 11.88 519.528 12.056 520.392 12.408C522.344 13.208 523.72 15.24 524.52 18.504C524.712 19.272 524.904 21.128 525.096 24.072C525.288 27.016 525.384 29.304 525.384 30.936C525.384 31.608 525.368 32.008 525.336 32.136C525.208 32.84 524.888 33.4 524.376 33.816C523.864 34.232 523.304 34.44 522.696 34.44C521.96 34.44 521.336 34.168 520.824 33.624L520.056 32.808L519.912 27.528C519.816 24.552 519.64 22.216 519.384 20.52C519.224 19.528 518.968 18.712 518.616 18.072C518.296 17.432 517.96 17.112 517.608 17.112C517.192 17.112 516.536 17.384 515.64 17.928C514.744 18.44 514.088 18.92 513.672 19.368C512.584 20.616 511.832 21.976 511.416 23.448C511 24.888 510.776 26.888 510.744 29.448C510.744 31.688 510.664 33.128 510.504 33.768C510.376 34.472 510.072 35.032 509.592 35.448C509.112 35.832 508.568 36.024 507.96 36.024C507.256 36.024 506.632 35.752 506.088 35.208C505.576 34.696 505.256 34.2 505.128 33.72C505 33.272 504.856 29.624 504.696 22.776C504.504 15.704 504.36 10.968 504.264 8.568C504.2 6.968 504.168 6.024 504.168 5.736C504.168 4.072 504.488 2.984 505.128 2.472ZM543.617 17.4C542.753 17.24 542.033 17.16 541.457 17.16C540.145 17.16 539.041 17.432 538.145 17.976C537.697 18.264 537.169 19.24 536.561 20.904C535.985 22.536 535.697 23.848 535.697 24.84C535.697 26.44 536.209 27.736 537.233 28.728C538.289 29.688 539.665 30.184 541.361 30.216C542.737 30.216 544.017 29.832 545.201 29.064C546.417 28.296 547.297 27.288 547.841 26.04C548.193 25.24 548.369 24.328 548.369 23.304C548.369 22.056 548.129 20.968 547.649 20.04C547.297 19.304 546.817 18.744 546.209 18.36C545.601 17.976 544.737 17.656 543.617 17.4ZM538.193 12.264C539.313 11.976 540.417 11.832 541.505 11.832C543.553 11.832 545.745 12.344 548.081 13.368C549.745 14.104 551.057 15.4 552.017 17.256C553.009 19.112 553.521 21.304 553.553 23.832V24.12C553.553 27.928 551.857 31.016 548.465 33.384C546.353 34.888 544.001 35.64 541.409 35.64C539.265 35.64 537.281 35.112 535.457 34.056C533.633 32.968 532.257 31.448 531.329 29.496C531.009 28.824 530.801 28.248 530.705 27.768C530.641 27.288 530.609 26.28 530.609 24.744C530.641 22.472 530.881 20.68 531.329 19.368C532.385 16.456 533.633 14.488 535.073 13.464C535.649 13.048 536.689 12.648 538.193 12.264ZM559.596 13.224C560.076 12.744 560.684 12.504 561.42 12.504C562.412 12.504 563.1 12.84 563.484 13.512C563.9 14.152 564.556 15.96 565.452 18.936C565.708 19.768 566.028 20.84 566.412 22.152C567.5 25.608 568.124 27.368 568.284 27.432C568.476 27.432 568.908 26.472 569.58 24.552C570.668 21.288 571.564 19 572.268 17.688C573.004 16.376 573.868 15.512 574.86 15.096C575.34 14.872 575.82 14.76 576.3 14.76C577.004 14.76 577.644 15.096 578.22 15.768C578.828 16.408 579.5 17.496 580.236 19.032C583.052 25.016 584.54 28.008 584.7 28.008C584.764 28.008 585.132 27 585.804 24.984C586.508 22.936 587.244 20.824 588.012 18.648C588.812 16.472 589.34 15.24 589.596 14.952C590.108 14.376 590.716 14.088 591.42 14.088C592.188 14.088 592.892 14.424 593.532 15.096C593.884 15.448 594.06 15.912 594.06 16.488C594.06 17.416 593.324 20.04 591.852 24.36C590.316 28.872 589.132 31.832 588.3 33.24C587.468 34.616 586.428 35.304 585.18 35.304C584.796 35.304 584.508 35.288 584.316 35.256C583.292 35.096 582.412 34.568 581.676 33.672C580.94 32.776 579.868 30.856 578.46 27.912C576.892 24.648 576.06 23.016 575.964 23.016C575.868 23.016 575.58 23.688 575.1 25.032C573.564 29.448 572.476 32.312 571.836 33.624C571.196 34.936 570.524 35.752 569.82 36.072C569.276 36.296 568.636 36.408 567.9 36.408C567.26 36.408 566.764 36.328 566.412 36.168C565.772 35.848 565.004 34.568 564.108 32.328C563.212 30.088 561.948 26.248 560.316 20.808C559.388 17.736 558.924 15.768 558.924 14.904C558.924 14.232 559.148 13.672 559.596 13.224ZM13.648 70.4C12.784 70.24 12.064 70.16 11.488 70.16C10.176 70.16 9.072 70.432 8.176 70.976C7.728 71.264 7.2 72.24 6.592 73.904C6.016 75.536 5.728 76.848 5.728 77.84C5.728 79.44 6.24 80.736 7.264 81.728C8.32 82.688 9.696 83.184 11.392 83.216C12.768 83.216 14.048 82.832 15.232 82.064C16.448 81.296 17.328 80.288 17.872 79.04C18.224 78.24 18.4 77.328 18.4 76.304C18.4 75.056 18.16 73.968 17.68 73.04C17.328 72.304 16.848 71.744 16.24 71.36C15.632 70.976 14.768 70.656 13.648 70.4ZM8.224 65.264C9.344 64.976 10.448 64.832 11.536 64.832C13.584 64.832 15.776 65.344 18.112 66.368C19.776 67.104 21.088 68.4 22.048 70.256C23.04 72.112 23.552 74.304 23.584 76.832V77.12C23.584 80.928 21.888 84.016 18.496 86.384C16.384 87.888 14.032 88.64 11.44 88.64C9.296 88.64 7.312 88.112 5.488 87.056C3.664 85.968 2.288 84.448 1.36 82.496C1.04 81.824 0.832 81.248 0.736 80.768C0.672 80.288 0.64 79.28 0.64 77.744C0.672 75.472 0.912 73.68 1.36 72.368C2.416 69.456 3.664 67.488 5.104 66.464C5.68 66.048 6.72 65.648 8.224 65.264ZM29.6748 55.136C30.1868 54.624 30.7948 54.368 31.4988 54.368C32.1708 54.368 32.7628 54.624 33.2747 55.136C33.7868 55.648 34.1068 56.48 34.2348 57.632C34.2668 57.952 34.2828 59.872 34.2828 63.392C34.2828 79.84 34.1708 88.4 33.9468 89.072C33.8188 89.456 33.5308 89.76 33.0828 89.984C32.6348 90.208 32.1388 90.32 31.5948 90.32C30.9548 90.32 30.4428 90.192 30.0588 89.936C29.4828 89.552 29.1148 88.992 28.9548 88.256C28.8268 87.488 28.7628 85.44 28.7628 82.112C28.7628 78.24 28.7788 74.8 28.8108 71.792L28.9548 55.856L29.6748 55.136ZM51.7885 73.424C50.5085 72.816 49.6125 72.512 49.1005 72.512C48.4925 72.512 47.7245 72.928 46.7965 73.76C45.5485 74.912 44.9245 76.336 44.9245 78.032C44.9245 79.408 45.3725 80.448 46.2685 81.152C46.6845 81.472 47.1165 81.632 47.5645 81.632C48.1085 81.632 48.7965 81.408 49.6285 80.96C52.3165 79.552 53.6605 77.728 53.6605 75.488V74.288L51.7885 73.424ZM54.2365 56.384C54.7805 55.936 55.4205 55.712 56.1565 55.712C56.6365 55.712 57.0365 55.808 57.3565 56C57.7405 56.224 58.0605 56.592 58.3165 57.104C58.5085 57.488 58.6365 58.56 58.7005 60.32C58.7965 62.08 58.8605 66.112 58.8925 72.416L58.9885 86.864L58.1725 87.68C57.6285 88.224 57.0045 88.496 56.3005 88.496C55.6285 88.496 55.0205 88.256 54.4765 87.776C53.9325 87.296 53.6605 86.752 53.6605 86.144C53.6605 85.632 53.6285 85.344 53.5645 85.28H53.5165C53.2925 85.28 52.7645 85.488 51.9325 85.904C50.3645 86.64 48.8925 87.008 47.5165 87.008C45.3725 87.008 43.5005 86.144 41.9005 84.416C40.2685 82.624 39.4525 80.512 39.4525 78.08C39.4525 74.88 40.7005 72.128 43.1965 69.824C45.0845 68.096 47.1325 67.232 49.3405 67.232C50.3005 67.232 51.1805 67.36 51.9805 67.616C52.8445 67.904 53.3085 68.048 53.3725 68.048C53.4045 68.048 53.4205 66.224 53.4205 62.576V57.104L54.2365 56.384ZM81.3321 59.408C81.8441 58.928 82.3241 58.688 82.7721 58.688C83.0281 58.688 83.2521 58.704 83.4441 58.736C84.3081 58.832 84.9161 59.12 85.2681 59.6L85.8921 60.32L85.7961 72.896C85.7641 81.184 85.6201 85.648 85.3641 86.288C84.9481 87.248 84.1481 87.728 82.9641 87.728C82.5801 87.728 82.2921 87.696 82.1001 87.632C81.6201 87.472 81.3001 87.36 81.1401 87.296C81.0121 87.2 80.8521 86.912 80.6601 86.432C80.5001 85.92 80.4041 85.216 80.3721 84.32C80.3401 83.424 80.3241 82.048 80.3241 80.192C80.3241 79.68 80.3241 78.64 80.3241 77.072C80.3561 75.504 80.3721 74.192 80.3721 73.136L80.4201 60.176L81.3321 59.408ZM123.777 73.52C123.617 73.008 123.473 72.72 123.345 72.656C123.217 72.56 122.865 72.512 122.289 72.512C120.625 72.544 119.073 73.328 117.633 74.864C116.193 76.368 115.473 77.888 115.473 79.424C115.473 80.192 115.681 80.832 116.097 81.344C117.025 82.368 118.001 82.88 119.025 82.88C119.089 82.88 119.153 82.88 119.217 82.88C119.281 82.848 119.345 82.832 119.409 82.832C119.985 82.704 120.593 82.32 121.233 81.68C121.905 81.04 122.417 80.336 122.769 79.568C123.505 77.84 123.873 76.16 123.873 74.528C123.873 74.048 123.841 73.712 123.777 73.52ZM119.312 67.472C120.177 67.184 121.169 67.04 122.289 67.04C123.761 67.04 125.009 67.28 126.033 67.76C126.705 68.112 127.313 68.64 127.857 69.344C128.433 70.016 128.785 70.656 128.913 71.264C129.041 71.872 129.217 72.448 129.441 72.992C129.793 73.92 130.497 77.408 131.552 83.456C131.713 84.416 131.793 85.136 131.793 85.616C131.793 87.536 130.897 88.496 129.105 88.496C128.497 88.496 127.937 88.256 127.425 87.776C126.945 87.296 126.641 86.704 126.513 86C126.385 85.36 126.273 84.992 126.177 84.896C126.049 84.8 125.681 85.056 125.073 85.664C123.249 87.488 121.153 88.4 118.785 88.4C118.369 88.4 117.937 88.352 117.489 88.256C115.729 87.872 114.081 86.912 112.545 85.376C110.817 83.648 109.953 81.712 109.953 79.568C109.953 77.872 110.481 76.032 111.537 74.048C112.337 72.544 113.425 71.2 114.801 70.016C116.209 68.832 117.713 67.984 119.312 67.472ZM138.629 65.792C138.949 65.632 139.333 65.552 139.781 65.552C141.413 65.552 142.437 66.928 142.853 69.68C142.949 70.512 143.061 70.928 143.189 70.928C143.221 70.928 143.669 70.56 144.533 69.824C146.293 68.256 148.085 67.472 149.909 67.472C150.901 67.472 151.845 67.744 152.741 68.288C153.605 68.832 154.165 69.312 154.421 69.728L154.853 70.4L156.005 69.344C157.765 67.776 159.653 66.992 161.669 66.992C163.621 66.992 165.301 67.744 166.709 69.248C169.109 71.712 170.533 75.92 170.981 81.872C171.045 82.96 171.077 83.632 171.077 83.888C171.077 84.72 170.965 85.328 170.741 85.712C170.549 86.096 170.197 86.432 169.685 86.72C169.237 86.944 168.805 87.056 168.389 87.056C167.685 87.056 167.061 86.736 166.517 86.096C166.101 85.552 165.829 84.624 165.701 83.312C165.445 80.368 165.125 78.176 164.741 76.736C164.357 75.296 163.813 74.176 163.109 73.376C162.565 72.8 162.005 72.512 161.429 72.512C160.341 72.512 159.381 73.36 158.549 75.056C158.229 75.728 158.021 76.352 157.925 76.928C157.829 77.504 157.749 78.816 157.685 80.864C157.557 83.68 157.397 85.36 157.205 85.904C156.757 86.96 155.941 87.488 154.757 87.488C154.053 87.488 153.461 87.248 152.981 86.768C152.213 86 151.733 83.728 151.541 79.952C151.445 78.512 151.269 77.12 151.013 75.776C150.757 74.432 150.517 73.632 150.293 73.376C150.101 73.152 149.893 73.04 149.669 73.04C149.285 73.04 148.645 73.44 147.749 74.24C146.789 75.136 146.069 76.096 145.589 77.12C145.141 78.048 144.869 78.8 144.773 79.376C144.709 79.92 144.645 81.792 144.581 84.992C144.549 85.824 144.293 86.496 143.813 87.008C143.333 87.52 142.725 87.776 141.989 87.776C141.253 87.776 140.661 87.632 140.213 87.344C139.573 86.896 139.125 86.032 138.869 84.752C138.613 83.44 138.325 80.352 138.005 75.488C137.813 72.608 137.589 70.656 137.333 69.632C137.141 68.864 137.045 68.352 137.045 68.096C137.045 67.808 137.141 67.472 137.333 67.088C137.621 66.416 138.053 65.984 138.629 65.792ZM211.874 72.848C210.946 71.92 209.506 71.456 207.554 71.456C206.594 71.456 205.746 71.616 205.01 71.936C204.306 72.256 203.538 72.88 202.706 73.808C201.874 74.736 201.33 75.584 201.074 76.352C200.786 77.184 200.642 77.968 200.642 78.704C200.642 80.4 201.314 81.6 202.658 82.304C203.458 82.72 204.498 82.928 205.778 82.928C206.642 82.928 207.298 82.816 207.746 82.592C210.338 81.28 211.922 78.928 212.498 75.536L212.786 73.712L211.874 72.848ZM204.578 66.32C205.346 66.096 206.242 65.984 207.266 65.984C208.994 65.984 210.69 66.288 212.354 66.896C214.018 67.504 215.17 68.272 215.81 69.2C216.258 69.84 216.834 70.512 217.538 71.216C218.306 72.016 219.01 73.392 219.65 75.344C220.258 77.2 220.818 79.264 221.33 81.536C221.874 83.808 222.146 85.344 222.146 86.144C222.146 86.944 221.906 87.568 221.426 88.016C220.818 88.592 220.242 88.88 219.698 88.88C219.474 88.88 219.186 88.832 218.834 88.736C218.226 88.512 217.746 88.128 217.394 87.584C217.074 87.04 216.786 86.16 216.53 84.944C216.21 83.504 216.034 82.784 216.002 82.784C215.874 82.784 215.202 83.392 213.986 84.608C211.586 86.944 209.09 88.208 206.498 88.4H205.826C204.258 88.4 202.722 88.128 201.218 87.584C199.746 87.04 198.578 86.32 197.714 85.424C197.266 84.976 196.818 84.304 196.37 83.408C195.922 82.48 195.618 81.632 195.458 80.864C195.298 80.064 195.218 79.344 195.218 78.704C195.218 76.048 196.114 73.504 197.906 71.072C199.73 68.64 201.954 67.056 204.578 66.32ZM228.763 66.608C229.147 66.416 229.547 66.32 229.963 66.32C230.539 66.32 231.083 66.512 231.595 66.896C232.107 67.248 232.459 67.728 232.651 68.336L232.939 69.344L234.139 68.624C234.939 68.144 236.043 67.904 237.451 67.904C238.827 67.904 239.963 68.128 240.859 68.576C241.595 68.928 242.379 69.504 243.211 70.304C244.075 71.104 244.763 71.904 245.275 72.704C247.003 75.424 247.947 79.648 248.107 85.376V86.336C248.107 87.104 247.883 87.728 247.435 88.208C246.891 88.752 246.251 89.024 245.515 89.024C244.331 89.024 243.547 88.512 243.163 87.488C242.971 86.944 242.811 85.872 242.683 84.272C242.299 78.672 241.051 75.168 238.939 73.76C238.491 73.472 238.043 73.328 237.595 73.328C236.763 73.328 236.011 73.792 235.339 74.72C234.699 75.616 234.187 76.896 233.803 78.56C233.643 79.296 233.451 80.624 233.227 82.544C233.003 84.464 232.891 85.76 232.891 86.432C232.891 86.752 232.619 87.184 232.075 87.728C231.531 88.24 230.907 88.496 230.203 88.496C228.891 88.496 228.027 87.808 227.611 86.432C227.419 85.76 227.323 82.848 227.323 77.696C227.323 71.552 227.435 68.208 227.659 67.664C227.851 67.248 228.219 66.896 228.763 66.608ZM265.485 73.808C265.197 73.456 264.701 73.28 263.997 73.28C263.421 73.28 262.845 73.424 262.269 73.712C261.405 74.128 260.589 75.008 259.821 76.352C259.053 77.696 258.669 78.88 258.669 79.904C258.669 80.224 258.717 80.496 258.813 80.72C259.037 81.232 259.581 81.712 260.445 82.16C261.309 82.576 262.125 82.784 262.893 82.784C263.053 82.784 263.293 82.752 263.613 82.688C264.349 82.464 265.085 81.856 265.821 80.864C266.589 79.84 267.181 78.64 267.597 77.264C267.853 76.432 267.981 75.872 267.981 75.584C267.981 75.136 267.645 74.816 266.973 74.624C266.205 74.336 265.709 74.064 265.485 73.808ZM269.373 57.056C269.661 56.928 269.997 56.864 270.381 56.864C271.597 56.864 272.413 57.392 272.829 58.448C273.021 58.928 273.325 60.864 273.741 64.256C274.125 67.808 274.349 69.808 274.413 70.256C275.725 79.76 276.381 85.2 276.381 86.576C276.381 87.216 276.109 87.776 275.565 88.256C275.053 88.736 274.461 88.976 273.789 88.976C272.861 88.976 272.141 88.64 271.629 87.968C271.117 87.264 270.861 86.32 270.861 85.136C270.861 84.624 270.797 84.304 270.669 84.176H270.621C270.429 84.176 269.837 84.64 268.845 85.568C267.789 86.624 266.765 87.328 265.773 87.68C264.877 88.032 263.853 88.208 262.701 88.208C261.005 88.208 259.373 87.792 257.805 86.96C256.237 86.096 255.021 84.96 254.157 83.552C253.837 83.008 253.629 82.544 253.533 82.16C253.469 81.744 253.437 80.96 253.437 79.808C253.469 78.336 253.645 77.104 253.965 76.112C254.285 75.12 254.877 73.968 255.741 72.656C256.349 71.728 257.213 70.832 258.333 69.968C259.453 69.104 260.429 68.544 261.261 68.288C262.093 68.064 262.973 67.952 263.901 67.952C265.053 67.952 266.061 68.096 266.925 68.384C267.853 68.672 268.349 68.816 268.413 68.816C268.477 68.816 268.509 68.624 268.509 68.24C268.509 67.184 268.381 65.856 268.125 64.256C267.901 62.944 267.789 61.76 267.789 60.704C267.789 58.72 268.317 57.504 269.373 57.056ZM302.675 55.472C303.155 55.088 303.667 54.896 304.211 54.896C304.851 54.896 305.443 55.152 305.987 55.664C306.531 56.144 306.867 56.768 306.995 57.536C307.091 58.24 307.171 60.176 307.235 63.344C307.235 66.384 307.299 67.968 307.427 68.096H307.475C307.603 68.096 308.035 67.84 308.771 67.328C310.851 65.696 313.011 64.88 315.251 64.88C316.179 64.88 317.075 65.056 317.939 65.408C319.891 66.208 321.267 68.24 322.067 71.504C322.259 72.272 322.451 74.128 322.643 77.072C322.835 80.016 322.931 82.304 322.931 83.936C322.931 84.608 322.915 85.008 322.883 85.136C322.755 85.84 322.435 86.4 321.923 86.816C321.411 87.232 320.851 87.44 320.243 87.44C319.507 87.44 318.883 87.168 318.371 86.624L317.603 85.808L317.459 80.528C317.363 77.552 317.187 75.216 316.931 73.52C316.771 72.528 316.515 71.712 316.163 71.072C315.843 70.432 315.507 70.112 315.155 70.112C314.739 70.112 314.083 70.384 313.187 70.928C312.291 71.44 311.635 71.92 311.219 72.368C310.131 73.616 309.379 74.976 308.963 76.448C308.547 77.888 308.323 79.888 308.291 82.448C308.291 84.688 308.211 86.128 308.051 86.768C307.923 87.472 307.619 88.032 307.139 88.448C306.659 88.832 306.115 89.024 305.507 89.024C304.803 89.024 304.179 88.752 303.635 88.208C303.123 87.696 302.803 87.2 302.675 86.72C302.547 86.272 302.403 82.624 302.243 75.776C302.051 68.704 301.907 63.968 301.811 61.568C301.747 59.968 301.715 59.024 301.715 58.736C301.715 57.072 302.035 55.984 302.675 55.472ZM341.164 70.4C340.3 70.24 339.58 70.16 339.004 70.16C337.692 70.16 336.588 70.432 335.692 70.976C335.244 71.264 334.716 72.24 334.108 73.904C333.532 75.536 333.244 76.848 333.244 77.84C333.244 79.44 333.756 80.736 334.78 81.728C335.836 82.688 337.212 83.184 338.908 83.216C340.284 83.216 341.564 82.832 342.748 82.064C343.964 81.296 344.844 80.288 345.388 79.04C345.74 78.24 345.916 77.328 345.916 76.304C345.916 75.056 345.676 73.968 345.196 73.04C344.844 72.304 344.364 71.744 343.756 71.36C343.148 70.976 342.284 70.656 341.164 70.4ZM335.74 65.264C336.86 64.976 337.964 64.832 339.052 64.832C341.1 64.832 343.292 65.344 345.628 66.368C347.292 67.104 348.604 68.4 349.564 70.256C350.556 72.112 351.068 74.304 351.1 76.832V77.12C351.1 80.928 349.404 84.016 346.012 86.384C343.9 87.888 341.548 88.64 338.956 88.64C336.812 88.64 334.828 88.112 333.004 87.056C331.18 85.968 329.804 84.448 328.876 82.496C328.556 81.824 328.348 81.248 328.252 80.768C328.188 80.288 328.156 79.28 328.156 77.744C328.188 75.472 328.428 73.68 328.876 72.368C329.932 69.456 331.18 67.488 332.62 66.464C333.196 66.048 334.236 65.648 335.74 65.264ZM357.142 66.224C357.622 65.744 358.23 65.504 358.966 65.504C359.958 65.504 360.646 65.84 361.03 66.512C361.446 67.152 362.102 68.96 362.998 71.936C363.254 72.768 363.574 73.84 363.958 75.152C365.046 78.608 365.67 80.368 365.83 80.432C366.022 80.432 366.454 79.472 367.126 77.552C368.214 74.288 369.11 72 369.814 70.688C370.55 69.376 371.414 68.512 372.406 68.096C372.886 67.872 373.366 67.76 373.846 67.76C374.55 67.76 375.19 68.096 375.766 68.768C376.374 69.408 377.046 70.496 377.782 72.032C380.598 78.016 382.086 81.008 382.246 81.008C382.31 81.008 382.678 80 383.35 77.984C384.054 75.936 384.79 73.824 385.558 71.648C386.358 69.472 386.886 68.24 387.142 67.952C387.654 67.376 388.262 67.088 388.966 67.088C389.734 67.088 390.438 67.424 391.078 68.096C391.43 68.448 391.606 68.912 391.606 69.488C391.606 70.416 390.87 73.04 389.398 77.36C387.862 81.872 386.678 84.832 385.846 86.24C385.014 87.616 383.974 88.304 382.726 88.304C382.342 88.304 382.054 88.288 381.862 88.256C380.838 88.096 379.958 87.568 379.222 86.672C378.486 85.776 377.414 83.856 376.006 80.912C374.438 77.648 373.606 76.016 373.51 76.016C373.414 76.016 373.126 76.688 372.646 78.032C371.11 82.448 370.022 85.312 369.382 86.624C368.742 87.936 368.07 88.752 367.366 89.072C366.822 89.296 366.182 89.408 365.446 89.408C364.806 89.408 364.31 89.328 363.958 89.168C363.318 88.848 362.55 87.568 361.654 85.328C360.758 83.088 359.494 79.248 357.862 73.808C356.934 70.736 356.47 68.768 356.47 67.904C356.47 67.232 356.694 66.672 357.142 66.224ZM413.926 65.792C414.246 65.632 414.63 65.552 415.078 65.552C416.71 65.552 417.734 66.928 418.15 69.68C418.246 70.512 418.358 70.928 418.486 70.928C418.518 70.928 418.966 70.56 419.83 69.824C421.59 68.256 423.382 67.472 425.206 67.472C426.198 67.472 427.142 67.744 428.038 68.288C428.902 68.832 429.462 69.312 429.718 69.728L430.15 70.4L431.302 69.344C433.062 67.776 434.95 66.992 436.966 66.992C438.918 66.992 440.598 67.744 442.006 69.248C444.406 71.712 445.83 75.92 446.278 81.872C446.342 82.96 446.374 83.632 446.374 83.888C446.374 84.72 446.262 85.328 446.038 85.712C445.846 86.096 445.494 86.432 444.982 86.72C444.534 86.944 444.102 87.056 443.686 87.056C442.982 87.056 442.358 86.736 441.814 86.096C441.398 85.552 441.126 84.624 440.998 83.312C440.742 80.368 440.422 78.176 440.038 76.736C439.654 75.296 439.11 74.176 438.406 73.376C437.862 72.8 437.302 72.512 436.726 72.512C435.638 72.512 434.678 73.36 433.846 75.056C433.526 75.728 433.318 76.352 433.222 76.928C433.126 77.504 433.046 78.816 432.982 80.864C432.854 83.68 432.694 85.36 432.502 85.904C432.054 86.96 431.238 87.488 430.054 87.488C429.35 87.488 428.758 87.248 428.278 86.768C427.51 86 427.03 83.728 426.838 79.952C426.742 78.512 426.566 77.12 426.31 75.776C426.054 74.432 425.814 73.632 425.59 73.376C425.398 73.152 425.19 73.04 424.966 73.04C424.582 73.04 423.942 73.44 423.046 74.24C422.086 75.136 421.366 76.096 420.886 77.12C420.438 78.048 420.166 78.8 420.07 79.376C420.006 79.92 419.942 81.792 419.878 84.992C419.846 85.824 419.59 86.496 419.11 87.008C418.63 87.52 418.022 87.776 417.286 87.776C416.55 87.776 415.958 87.632 415.51 87.344C414.87 86.896 414.422 86.032 414.166 84.752C413.91 83.44 413.622 80.352 413.302 75.488C413.11 72.608 412.886 70.656 412.63 69.632C412.438 68.864 412.342 68.352 412.342 68.096C412.342 67.808 412.438 67.472 412.63 67.088C412.918 66.416 413.35 65.984 413.926 65.792ZM452.344 66.32C452.856 65.776 453.48 65.504 454.216 65.504C455.592 65.504 456.472 66.048 456.856 67.136C457.048 67.776 457.144 69.648 457.144 72.752C457.144 75.888 457.24 77.936 457.432 78.896C457.912 81.104 458.888 82.208 460.36 82.208C460.648 82.208 460.952 82.16 461.272 82.064C461.72 81.936 462.296 81.504 463 80.768C463.736 80.032 464.264 79.36 464.584 78.752C465.16 77.568 465.672 75.216 466.12 71.696C466.44 69.296 466.936 67.84 467.608 67.328C468.056 66.976 468.552 66.8 469.096 66.8C469.704 66.8 470.264 67.024 470.776 67.472C471.32 67.888 471.688 68.432 471.88 69.104C472.04 69.808 472.312 72.32 472.696 76.64C473.112 80.928 473.32 83.664 473.32 84.848V85.232C473.192 85.84 472.888 86.32 472.408 86.672C471.928 87.024 471.4 87.2 470.824 87.2C470.28 87.2 469.752 87.04 469.24 86.72C468.76 86.4 468.424 85.936 468.232 85.328C467.976 84.592 467.832 84.224 467.8 84.224C467.672 84.224 467.128 84.592 466.168 85.328C464.248 86.864 462.36 87.632 460.504 87.632H460.36C458.824 87.632 457.448 87.264 456.232 86.528C455.016 85.792 454.056 84.752 453.352 83.408C452.68 82.064 452.248 80.848 452.056 79.76C451.864 78.64 451.752 76.48 451.72 73.28L451.576 67.184L452.344 66.32ZM488.994 66.608C489.794 66.448 490.546 66.368 491.25 66.368C493.362 66.368 495.346 66.896 497.202 67.952C498.002 68.432 498.53 68.816 498.786 69.104C499.074 69.392 499.298 69.808 499.458 70.352C499.49 70.448 499.506 70.592 499.506 70.784C499.506 71.776 499.122 72.56 498.354 73.136C497.938 73.392 497.538 73.52 497.154 73.52C496.61 73.52 495.746 73.248 494.562 72.704C493.314 72.128 492.162 71.84 491.106 71.84C490.146 71.84 489.25 72.08 488.418 72.56C487.682 73.008 486.882 73.68 486.018 74.576C485.154 75.472 484.594 76.224 484.338 76.832C484.082 77.44 483.954 77.92 483.954 78.272C483.954 78.816 484.386 79.52 485.25 80.384C486.562 81.664 488.402 82.416 490.77 82.64C490.866 82.64 490.994 82.656 491.154 82.688C491.346 82.688 491.474 82.688 491.538 82.688C492.082 82.688 492.818 82.448 493.746 81.968C494.738 81.424 495.506 81.152 496.05 81.152C496.562 81.152 497.074 81.376 497.586 81.824C498.258 82.464 498.594 83.12 498.594 83.792C498.594 85.04 497.618 86.16 495.666 87.152C494.514 87.76 493.362 88.064 492.21 88.064H491.442C488.754 88.032 486.306 87.424 484.098 86.24C481.89 85.024 480.306 83.44 479.346 81.488C478.834 80.464 478.578 79.376 478.578 78.224C478.578 75.28 480.242 72.336 483.57 69.392C485.202 67.92 487.01 66.992 488.994 66.608ZM505.644 55.472C506.124 55.088 506.636 54.896 507.18 54.896C507.82 54.896 508.412 55.152 508.956 55.664C509.5 56.144 509.836 56.768 509.964 57.536C510.06 58.24 510.14 60.176 510.204 63.344C510.204 66.384 510.268 67.968 510.396 68.096H510.444C510.572 68.096 511.004 67.84 511.74 67.328C513.82 65.696 515.98 64.88 518.22 64.88C519.148 64.88 520.044 65.056 520.908 65.408C522.86 66.208 524.236 68.24 525.036 71.504C525.228 72.272 525.42 74.128 525.612 77.072C525.804 80.016 525.9 82.304 525.9 83.936C525.9 84.608 525.884 85.008 525.852 85.136C525.724 85.84 525.404 86.4 524.892 86.816C524.38 87.232 523.82 87.44 523.212 87.44C522.476 87.44 521.852 87.168 521.34 86.624L520.572 85.808L520.428 80.528C520.332 77.552 520.156 75.216 519.9 73.52C519.74 72.528 519.484 71.712 519.132 71.072C518.812 70.432 518.476 70.112 518.124 70.112C517.708 70.112 517.052 70.384 516.156 70.928C515.26 71.44 514.604 71.92 514.188 72.368C513.1 73.616 512.348 74.976 511.932 76.448C511.516 77.888 511.292 79.888 511.26 82.448C511.26 84.688 511.18 86.128 511.02 86.768C510.892 87.472 510.588 88.032 510.108 88.448C509.628 88.832 509.084 89.024 508.476 89.024C507.772 89.024 507.148 88.752 506.604 88.208C506.092 87.696 505.772 87.2 505.644 86.72C505.516 86.272 505.372 82.624 505.212 75.776C505.02 68.704 504.876 63.968 504.78 61.568C504.716 59.968 504.684 59.024 504.684 58.736C504.684 57.072 505.004 55.984 505.644 55.472ZM8.128 109.288C8.64 108.968 9.12 108.808 9.568 108.808C9.92 108.808 10.32 108.904 10.768 109.096C11.44 109.416 11.872 109.912 12.064 110.584C12.256 111.256 12.384 112.856 12.448 115.384L12.592 120.136L14.8 119.992C15.056 119.96 15.424 119.944 15.904 119.944C17.056 119.944 17.872 120.152 18.352 120.568C18.864 120.984 19.12 121.656 19.12 122.584C19.12 123.576 18.784 124.28 18.112 124.696C17.472 125.112 16.224 125.4 14.368 125.56L12.352 125.752L12.016 132.424C11.792 136.936 11.584 139.432 11.392 139.912C10.976 140.872 10.176 141.352 8.992 141.352C8.32 141.352 7.792 141.176 7.408 140.824C6.992 140.504 6.704 140.152 6.544 139.768C6.384 139.384 6.304 138.76 6.304 137.896C6.304 137.192 6.352 136.136 6.448 134.728C6.608 132.2 6.72 130.04 6.784 128.248L6.832 125.992L4.672 125.944C3.456 125.912 2.624 125.816 2.176 125.656C1.728 125.464 1.344 125.08 1.024 124.504C0.832 124.12 0.736 123.72 0.736 123.304C0.736 122.536 1.056 121.864 1.696 121.288C2.048 120.968 2.496 120.76 3.04 120.664C3.584 120.536 4.592 120.408 6.064 120.28L6.832 120.184L7.024 115.096C7.056 114.328 7.072 113.496 7.072 112.6C7.104 111.672 7.12 110.984 7.12 110.536L7.168 109.864L7.312 109.768C7.408 109.704 7.536 109.624 7.696 109.528C7.856 109.432 8 109.352 8.128 109.288ZM26.6125 120.184C26.7405 120.152 26.9325 120.136 27.1885 120.136C27.8925 120.136 28.5165 120.36 29.0605 120.808C29.6045 121.256 29.9245 121.832 30.0205 122.536C30.1485 123.24 30.2125 126.264 30.2125 131.608L30.2605 139.72L29.4445 140.488C28.9005 141.032 28.2605 141.304 27.5245 141.304C26.8525 141.304 26.2765 141.064 25.7965 140.584C25.4765 140.264 25.2525 139.944 25.1245 139.624C25.0285 139.272 24.9485 138.6 24.8845 137.608C24.7885 136.36 24.7405 133.352 24.7405 128.584L24.6925 121.864L25.3645 121.048C25.8445 120.536 26.2605 120.248 26.6125 120.184ZM25.7485 110.632C26.1645 110.408 26.5965 110.296 27.0445 110.296C27.7805 110.296 28.4045 110.568 28.9165 111.112C29.4285 111.656 29.6845 112.28 29.6845 112.984C29.6845 113.592 29.4445 114.184 28.9645 114.76C28.3565 115.4 27.6845 115.72 26.9485 115.72C26.2445 115.72 25.6205 115.48 25.0765 115C24.5645 114.488 24.3085 113.88 24.3085 113.176C24.3085 112.76 24.4045 112.344 24.5965 111.928C24.8845 111.32 25.2685 110.888 25.7485 110.632ZM37.2453 117.016C37.6933 116.952 37.9493 116.904 38.0133 116.872C38.1733 116.872 38.5413 116.984 39.1172 117.208C39.5653 117.4 39.9653 117.784 40.3173 118.36C40.6693 118.936 40.8453 119.496 40.8453 120.04C40.8453 120.456 40.9253 120.776 41.0853 121C41.2133 121.16 41.3253 121.224 41.4213 121.192C41.5173 121.16 41.7413 121 42.0933 120.712C43.5333 119.496 45.2933 118.744 47.3733 118.456C48.0133 118.392 48.4613 118.36 48.7173 118.36C50.3493 118.36 51.7413 118.952 52.8933 120.136L53.9973 121.24L55.3893 120.136C57.6613 118.312 59.8693 117.4 62.0133 117.4C62.7493 117.4 63.4053 117.512 63.9813 117.736C64.6213 117.992 65.3093 118.488 66.0453 119.224C66.8133 119.928 67.3893 120.68 67.7733 121.48C68.9253 123.816 69.6773 128.168 70.0293 134.536C70.0933 136.136 70.1253 137.016 70.1253 137.176C70.1253 138.008 70.0133 138.632 69.7893 139.048C69.3093 139.976 68.5733 140.44 67.5813 140.44C66.8773 140.44 66.2533 140.184 65.7093 139.672L64.8453 138.952L64.6053 134.488C64.2533 127.832 63.4533 123.976 62.2053 122.92C62.0133 122.792 61.8533 122.728 61.7253 122.728C61.4693 122.728 61.0053 122.904 60.3333 123.256C58.6693 124.056 57.4853 125.416 56.7812 127.336C56.3973 128.328 56.1413 130.392 56.0133 133.528C55.8533 136.696 55.6933 138.456 55.5333 138.808C55.0213 139.704 54.2053 140.152 53.0853 140.152C52.4773 140.152 51.9333 139.96 51.4533 139.576C50.7493 139 50.3973 137.592 50.3973 135.352C50.3973 134.328 50.4133 133.48 50.4453 132.808C50.4453 132.584 50.4453 132.28 50.4453 131.896C50.4773 131.48 50.4933 131.176 50.4933 130.984C50.4933 127.848 50.1413 125.672 49.4373 124.456C49.1493 123.944 48.8613 123.688 48.5733 123.688C48.5413 123.688 48.3333 123.72 47.9493 123.784C45.9013 124.168 44.1733 125.816 42.7653 128.728C42.1893 129.944 41.9013 131.224 41.9013 132.568C41.9013 133.72 41.9973 135.128 42.1893 136.792C42.2853 137.464 42.3333 138.024 42.3333 138.472C42.3333 139.688 41.8053 140.552 40.7493 141.064C40.3013 141.288 39.9493 141.4 39.6933 141.4C39.5013 141.4 39.1973 141.32 38.7812 141.16C37.9813 140.872 37.4533 140.328 37.1973 139.528C36.9413 138.696 36.7333 136.92 36.5733 134.2C36.3493 129.56 35.9653 124.776 35.4213 119.848C35.4213 119.784 35.4053 119.688 35.3733 119.56C35.3733 119.432 35.3733 119.352 35.3733 119.32C35.3733 118.872 35.5653 118.408 35.9492 117.928C36.4293 117.384 36.8613 117.08 37.2453 117.016ZM90.1908 126.712C89.6148 126.424 88.7988 126.28 87.7428 126.28C86.5908 126.28 85.6148 126.456 84.8148 126.808C84.2708 127.032 83.5668 127.528 82.7028 128.296C81.8388 129.032 81.4068 129.512 81.4068 129.736C81.4068 129.832 81.9028 129.88 82.8948 129.88C84.3668 129.88 86.1268 129.8 88.1748 129.64C90.2228 129.48 91.3908 129.304 91.6788 129.112C91.7748 129.08 91.8228 128.984 91.8228 128.824C91.8228 128.536 91.6468 128.168 91.2948 127.72C90.9428 127.24 90.5748 126.904 90.1908 126.712ZM84.5268 121.144C85.3268 120.92 86.2708 120.808 87.3588 120.808C89.3748 120.808 91.2148 121.208 92.8788 122.008C94.1268 122.648 95.1668 123.624 95.9988 124.936C96.8308 126.216 97.3428 127.656 97.5348 129.256C97.5348 129.32 97.5348 129.416 97.5348 129.544C97.5668 129.672 97.5828 129.768 97.5828 129.832C97.5828 130.664 97.4228 131.48 97.1028 132.28C96.8148 133.08 96.4628 133.624 96.0468 133.912C95.5028 134.296 91.6788 134.776 84.5748 135.352C83.0708 135.48 82.3188 135.624 82.3188 135.784C82.3188 135.976 82.6548 136.28 83.3268 136.696C83.9988 137.112 84.6548 137.4 85.2948 137.56C85.8708 137.688 86.3348 137.752 86.6868 137.752C87.7108 137.752 89.0388 137.416 90.6708 136.744C91.8228 136.264 92.6708 136.024 93.2148 136.024C93.7588 136.024 94.2708 136.264 94.7508 136.744C95.3908 137.384 95.7108 137.992 95.7108 138.568C95.7108 138.952 95.6148 139.352 95.4228 139.768C95.2628 140.152 95.0388 140.456 94.7508 140.68C94.4948 140.904 94.0148 141.176 93.3108 141.496C90.9748 142.52 88.7988 143.032 86.7828 143.032C85.6308 143.032 84.4468 142.856 83.2308 142.504C81.5988 141.992 80.1108 141.128 78.7668 139.912C77.4228 138.664 76.4628 137.288 75.8867 135.784C75.5348 134.792 75.3588 133.688 75.3588 132.472C75.3588 130.712 75.6468 129.24 76.2228 128.056C76.8948 126.584 78.0308 125.176 79.6308 123.832C81.2308 122.488 82.8628 121.592 84.5268 121.144ZM124.087 108.328C124.631 107.88 125.191 107.656 125.767 107.656C126.919 107.656 127.767 108.36 128.311 109.768C128.535 110.408 128.775 111.944 129.031 114.376C129.287 116.776 129.495 119.016 129.655 121.096C129.815 123.144 129.911 124.168 129.943 124.168C130.007 124.168 130.535 123.816 131.527 123.112C133.479 121.736 135.335 121.048 137.095 121.048C138.727 121.048 140.151 121.656 141.367 122.872C142.615 124.056 143.591 125.8 144.295 128.104C144.839 129.896 145.111 132.68 145.111 136.456C145.111 138.824 144.967 140.424 144.679 141.256C144.359 142.12 143.623 142.552 142.471 142.552C141.703 142.552 141.063 142.296 140.551 141.784L139.831 141.064L139.687 136.216C139.495 129.976 138.631 126.76 137.095 126.568H136.951C136.215 126.568 135.303 126.984 134.215 127.816C133.127 128.616 132.343 129.496 131.863 130.456C131.575 131.096 131.191 131.56 130.711 131.848L130.087 132.28L129.991 137.512C129.927 140.072 129.863 141.624 129.799 142.168C129.767 142.68 129.591 143.096 129.271 143.416C128.759 143.96 128.119 144.232 127.351 144.232C126.199 144.232 125.399 143.72 124.951 142.696C124.727 142.088 124.567 138.408 124.471 131.656C124.311 120.36 123.895 113.592 123.223 111.352C123.127 111 123.079 110.664 123.079 110.344C123.079 109.512 123.415 108.84 124.087 108.328ZM167.015 125.848C166.087 124.92 164.647 124.456 162.695 124.456C161.735 124.456 160.887 124.616 160.151 124.936C159.447 125.256 158.679 125.88 157.847 126.808C157.015 127.736 156.471 128.584 156.215 129.352C155.927 130.184 155.783 130.968 155.783 131.704C155.783 133.4 156.455 134.6 157.799 135.304C158.599 135.72 159.639 135.928 160.919 135.928C161.783 135.928 162.439 135.816 162.887 135.592C165.479 134.28 167.063 131.928 167.639 128.536L167.927 126.712L167.015 125.848ZM159.719 119.32C160.487 119.096 161.383 118.984 162.407 118.984C164.135 118.984 165.831 119.288 167.495 119.896C169.159 120.504 170.311 121.272 170.951 122.2C171.399 122.84 171.975 123.512 172.679 124.216C173.447 125.016 174.151 126.392 174.791 128.344C175.399 130.2 175.959 132.264 176.471 134.536C177.015 136.808 177.287 138.344 177.287 139.144C177.287 139.944 177.047 140.568 176.567 141.016C175.959 141.592 175.383 141.88 174.839 141.88C174.615 141.88 174.327 141.832 173.975 141.736C173.367 141.512 172.887 141.128 172.535 140.584C172.215 140.04 171.927 139.16 171.671 137.944C171.351 136.504 171.175 135.784 171.143 135.784C171.015 135.784 170.343 136.392 169.127 137.608C166.727 139.944 164.231 141.208 161.639 141.4H160.967C159.399 141.4 157.863 141.128 156.359 140.584C154.887 140.04 153.719 139.32 152.855 138.424C152.407 137.976 151.959 137.304 151.511 136.408C151.063 135.48 150.759 134.632 150.599 133.864C150.439 133.064 150.359 132.344 150.359 131.704C150.359 129.048 151.255 126.504 153.047 124.072C154.871 121.64 157.095 120.056 159.719 119.32ZM189.424 118.744C190 118.648 190.592 118.6 191.2 118.6C193.12 118.6 194.832 119.032 196.336 119.896C197.84 120.76 198.592 121.752 198.592 122.872C198.592 123.16 198.544 123.416 198.448 123.64C197.968 124.856 197.248 125.464 196.288 125.464C195.584 125.464 194.784 125.24 193.888 124.792C192.864 124.28 191.92 124.024 191.056 124.024C190.128 124.024 189.36 124.328 188.752 124.936C188.432 125.256 188.272 125.512 188.272 125.704C188.272 125.96 188.512 126.264 188.992 126.616C189.504 126.936 190.432 127.448 191.776 128.152C193.984 129.304 195.472 130.248 196.24 130.984C196.976 131.624 197.616 132.424 198.16 133.384C198.704 134.312 198.976 135.096 198.976 135.736C198.976 136.472 198.784 137.208 198.4 137.944C198.016 138.68 197.536 139.24 196.96 139.624C195.488 140.616 193.696 141.112 191.584 141.112C189.6 141.112 187.552 140.648 185.44 139.72C184.448 139.24 183.824 138.696 183.568 138.088C183.376 137.64 183.28 137.24 183.28 136.888C183.28 136.248 183.584 135.624 184.192 135.016C184.608 134.536 185.168 134.296 185.872 134.296C186.544 134.296 187.36 134.504 188.32 134.92C189.376 135.368 190.592 135.592 191.968 135.592C192.608 135.592 192.928 135.512 192.928 135.352C192.928 134.968 191.552 134.088 188.8 132.712C186.656 131.592 185.088 130.488 184.096 129.4C183.104 128.28 182.608 127.048 182.608 125.704C182.608 124.104 183.264 122.632 184.576 121.288C185.92 119.912 187.536 119.064 189.424 118.744ZM234.614 127.192C234.198 126.168 233.654 125.448 232.982 125.032C232.31 124.616 231.494 124.408 230.534 124.408C229.51 124.408 228.502 124.632 227.51 125.08C226.614 125.464 226.102 125.832 225.974 126.184C225.878 126.44 225.686 126.744 225.398 127.096C225.014 127.544 224.822 129.128 224.822 131.848C224.822 132.744 224.854 133.352 224.918 133.672L225.11 134.824L226.598 135.208C227.494 135.432 228.39 135.544 229.286 135.544C230.758 135.544 232.006 135.24 233.03 134.632C234.086 133.992 234.758 133.112 235.046 131.992C235.174 131.512 235.238 130.952 235.238 130.312C235.238 129.224 235.03 128.184 234.614 127.192ZM228.614 119.08C228.998 119.016 229.382 118.984 229.766 118.984C231.622 118.984 233.206 119.224 234.518 119.704C235.83 120.216 236.982 121.112 237.974 122.392C238.998 123.672 239.734 125.144 240.182 126.808C240.406 127.672 240.518 128.712 240.518 129.928C240.518 131.88 240.278 133.48 239.798 134.728C239.19 136.296 238.166 137.608 236.726 138.664C235.318 139.72 233.67 140.408 231.782 140.728C231.11 140.824 230.278 140.872 229.286 140.872C227.59 140.872 226.39 140.76 225.686 140.536C225.494 140.472 225.382 140.44 225.35 140.44C225.19 140.44 225.11 140.584 225.11 140.872C225.11 140.936 225.142 141.32 225.206 142.024C225.238 142.344 225.302 143.592 225.398 145.768V146.584C225.398 147.16 225.35 147.56 225.254 147.784C225.158 148.008 224.95 148.28 224.63 148.6C224.118 149.112 223.478 149.368 222.71 149.368C222.262 149.368 221.846 149.272 221.462 149.08C220.918 148.792 220.534 148.248 220.31 147.448C220.118 146.648 219.958 145 219.83 142.504C219.638 139.368 219.542 135.288 219.542 130.264C219.542 124.344 219.654 121.16 219.878 120.712C220.39 119.72 221.206 119.224 222.326 119.224C222.934 119.224 223.462 119.4 223.91 119.752L224.582 120.28L226.358 119.8C226.646 119.704 226.95 119.608 227.27 119.512C227.59 119.384 227.878 119.288 228.134 119.224C228.39 119.16 228.55 119.112 228.614 119.08ZM262.452 125.848C261.524 124.92 260.084 124.456 258.132 124.456C257.172 124.456 256.324 124.616 255.588 124.936C254.884 125.256 254.116 125.88 253.284 126.808C252.452 127.736 251.908 128.584 251.652 129.352C251.364 130.184 251.22 130.968 251.22 131.704C251.22 133.4 251.892 134.6 253.236 135.304C254.036 135.72 255.076 135.928 256.356 135.928C257.22 135.928 257.876 135.816 258.324 135.592C260.916 134.28 262.5 131.928 263.076 128.536L263.364 126.712L262.452 125.848ZM255.156 119.32C255.924 119.096 256.82 118.984 257.844 118.984C259.572 118.984 261.268 119.288 262.932 119.896C264.596 120.504 265.748 121.272 266.388 122.2C266.836 122.84 267.412 123.512 268.116 124.216C268.884 125.016 269.588 126.392 270.228 128.344C270.836 130.2 271.396 132.264 271.908 134.536C272.452 136.808 272.724 138.344 272.724 139.144C272.724 139.944 272.484 140.568 272.004 141.016C271.396 141.592 270.82 141.88 270.276 141.88C270.052 141.88 269.764 141.832 269.412 141.736C268.804 141.512 268.324 141.128 267.972 140.584C267.652 140.04 267.364 139.16 267.108 137.944C266.788 136.504 266.612 135.784 266.58 135.784C266.452 135.784 265.78 136.392 264.564 137.608C262.164 139.944 259.668 141.208 257.076 141.4H256.404C254.836 141.4 253.3 141.128 251.796 140.584C250.324 140.04 249.156 139.32 248.292 138.424C247.844 137.976 247.396 137.304 246.948 136.408C246.5 135.48 246.196 134.632 246.036 133.864C245.876 133.064 245.796 132.344 245.796 131.704C245.796 129.048 246.692 126.504 248.484 124.072C250.308 121.64 252.532 120.056 255.156 119.32ZM284.861 118.744C285.437 118.648 286.029 118.6 286.637 118.6C288.557 118.6 290.269 119.032 291.773 119.896C293.277 120.76 294.029 121.752 294.029 122.872C294.029 123.16 293.981 123.416 293.885 123.64C293.405 124.856 292.685 125.464 291.725 125.464C291.021 125.464 290.221 125.24 289.325 124.792C288.301 124.28 287.357 124.024 286.493 124.024C285.565 124.024 284.797 124.328 284.189 124.936C283.869 125.256 283.709 125.512 283.709 125.704C283.709 125.96 283.949 126.264 284.429 126.616C284.941 126.936 285.869 127.448 287.213 128.152C289.421 129.304 290.909 130.248 291.677 130.984C292.413 131.624 293.053 132.424 293.597 133.384C294.141 134.312 294.413 135.096 294.413 135.736C294.413 136.472 294.221 137.208 293.837 137.944C293.453 138.68 292.973 139.24 292.397 139.624C290.925 140.616 289.133 141.112 287.021 141.112C285.037 141.112 282.989 140.648 280.877 139.72C279.885 139.24 279.261 138.696 279.005 138.088C278.813 137.64 278.717 137.24 278.717 136.888C278.717 136.248 279.021 135.624 279.629 135.016C280.045 134.536 280.605 134.296 281.309 134.296C281.981 134.296 282.797 134.504 283.757 134.92C284.813 135.368 286.029 135.592 287.405 135.592C288.045 135.592 288.365 135.512 288.365 135.352C288.365 134.968 286.989 134.088 284.237 132.712C282.093 131.592 280.525 130.488 279.533 129.4C278.541 128.28 278.045 127.048 278.045 125.704C278.045 124.104 278.701 122.632 280.013 121.288C281.357 119.912 282.973 119.064 284.861 118.744ZM306.424 118.744C307 118.648 307.592 118.6 308.2 118.6C310.12 118.6 311.832 119.032 313.336 119.896C314.84 120.76 315.592 121.752 315.592 122.872C315.592 123.16 315.544 123.416 315.448 123.64C314.968 124.856 314.248 125.464 313.288 125.464C312.584 125.464 311.784 125.24 310.888 124.792C309.864 124.28 308.92 124.024 308.056 124.024C307.128 124.024 306.36 124.328 305.752 124.936C305.432 125.256 305.272 125.512 305.272 125.704C305.272 125.96 305.512 126.264 305.992 126.616C306.504 126.936 307.432 127.448 308.776 128.152C310.984 129.304 312.472 130.248 313.24 130.984C313.976 131.624 314.616 132.424 315.16 133.384C315.704 134.312 315.976 135.096 315.976 135.736C315.976 136.472 315.784 137.208 315.4 137.944C315.016 138.68 314.536 139.24 313.96 139.624C312.488 140.616 310.696 141.112 308.584 141.112C306.6 141.112 304.552 140.648 302.44 139.72C301.448 139.24 300.824 138.696 300.568 138.088C300.376 137.64 300.28 137.24 300.28 136.888C300.28 136.248 300.584 135.624 301.192 135.016C301.608 134.536 302.168 134.296 302.872 134.296C303.544 134.296 304.36 134.504 305.32 134.92C306.376 135.368 307.592 135.592 308.968 135.592C309.608 135.592 309.928 135.512 309.928 135.352C309.928 134.968 308.552 134.088 305.8 132.712C303.656 131.592 302.088 130.488 301.096 129.4C300.104 128.28 299.608 127.048 299.608 125.704C299.608 124.104 300.264 122.632 301.576 121.288C302.92 119.912 304.536 119.064 306.424 118.744ZM336.05 126.712C335.474 126.424 334.658 126.28 333.602 126.28C332.45 126.28 331.474 126.456 330.674 126.808C330.13 127.032 329.426 127.528 328.562 128.296C327.698 129.032 327.266 129.512 327.266 129.736C327.266 129.832 327.762 129.88 328.754 129.88C330.226 129.88 331.986 129.8 334.034 129.64C336.082 129.48 337.25 129.304 337.538 129.112C337.634 129.08 337.682 128.984 337.682 128.824C337.682 128.536 337.506 128.168 337.154 127.72C336.802 127.24 336.434 126.904 336.05 126.712ZM330.386 121.144C331.186 120.92 332.13 120.808 333.218 120.808C335.234 120.808 337.074 121.208 338.738 122.008C339.986 122.648 341.026 123.624 341.858 124.936C342.69 126.216 343.202 127.656 343.394 129.256C343.394 129.32 343.394 129.416 343.394 129.544C343.426 129.672 343.442 129.768 343.442 129.832C343.442 130.664 343.282 131.48 342.962 132.28C342.674 133.08 342.322 133.624 341.906 133.912C341.362 134.296 337.538 134.776 330.434 135.352C328.93 135.48 328.178 135.624 328.178 135.784C328.178 135.976 328.514 136.28 329.186 136.696C329.858 137.112 330.514 137.4 331.154 137.56C331.73 137.688 332.194 137.752 332.546 137.752C333.57 137.752 334.898 137.416 336.53 136.744C337.682 136.264 338.53 136.024 339.074 136.024C339.618 136.024 340.13 136.264 340.61 136.744C341.25 137.384 341.57 137.992 341.57 138.568C341.57 138.952 341.474 139.352 341.282 139.768C341.122 140.152 340.898 140.456 340.61 140.68C340.354 140.904 339.874 141.176 339.17 141.496C336.834 142.52 334.658 143.032 332.642 143.032C331.49 143.032 330.306 142.856 329.09 142.504C327.458 141.992 325.97 141.128 324.626 139.912C323.282 138.664 322.322 137.288 321.746 135.784C321.394 134.792 321.218 133.688 321.218 132.472C321.218 130.712 321.506 129.24 322.082 128.056C322.754 126.584 323.89 125.176 325.49 123.832C327.09 122.488 328.722 121.592 330.386 121.144ZM361.023 126.424C359.743 125.816 358.847 125.512 358.335 125.512C357.727 125.512 356.959 125.928 356.031 126.76C354.783 127.912 354.159 129.336 354.159 131.032C354.159 132.408 354.607 133.448 355.503 134.152C355.919 134.472 356.351 134.632 356.799 134.632C357.343 134.632 358.031 134.408 358.863 133.96C361.551 132.552 362.895 130.728 362.895 128.488V127.288L361.023 126.424ZM363.471 109.384C364.015 108.936 364.655 108.712 365.391 108.712C365.871 108.712 366.271 108.808 366.591 109C366.975 109.224 367.295 109.592 367.551 110.104C367.743 110.488 367.871 111.56 367.935 113.32C368.031 115.08 368.095 119.112 368.127 125.416L368.223 139.864L367.407 140.68C366.863 141.224 366.239 141.496 365.535 141.496C364.863 141.496 364.255 141.256 363.711 140.776C363.167 140.296 362.895 139.752 362.895 139.144C362.895 138.632 362.863 138.344 362.799 138.28H362.751C362.527 138.28 361.999 138.488 361.167 138.904C359.599 139.64 358.127 140.008 356.751 140.008C354.607 140.008 352.735 139.144 351.135 137.416C349.503 135.624 348.687 133.512 348.687 131.08C348.687 127.88 349.935 125.128 352.431 122.824C354.319 121.096 356.367 120.232 358.575 120.232C359.535 120.232 360.415 120.36 361.215 120.616C362.079 120.904 362.543 121.048 362.607 121.048C362.639 121.048 362.655 119.224 362.655 115.576V110.104L363.471 109.384ZM373.774 138.136C374.03 137.592 374.318 137.224 374.638 137.032C374.958 136.84 375.518 136.744 376.318 136.744C376.862 136.744 377.23 136.792 377.422 136.888C377.646 136.984 377.902 137.208 378.19 137.56C378.67 138.136 378.91 138.744 378.91 139.384C378.91 140.088 378.606 140.744 377.998 141.352C377.39 141.96 376.766 142.264 376.126 142.264C375.486 142.264 374.862 141.992 374.254 141.448C373.678 140.872 373.39 140.28 373.39 139.672C373.39 139.192 373.518 138.68 373.774 138.136Z" fill="white"/>
</svg>
