<svg width="351" height="76" viewBox="0 0 351 76" fill="none" xmlns="http://www.w3.org/2000/svg">
<path d="M7.016 2.416C7.72 2.352 8.112 2.32 8.192 2.32C8.624 2.32 8.952 2.456 9.176 2.728C9.416 2.984 9.536 3.296 9.536 3.664C9.536 4 9.424 4.28 9.2 4.504C8.832 4.856 8.064 5.072 6.896 5.152C6.192 5.216 5.44 5.288 4.64 5.368L3.368 5.512L3.296 5.992C3.248 6.408 3.224 7.032 3.224 7.864C3.224 8.824 3.256 9.304 3.32 9.304C3.4 9.304 3.888 9.232 4.784 9.088C5.584 8.992 6.072 8.944 6.248 8.944C6.28 8.944 6.312 8.952 6.344 8.968C6.392 8.968 6.424 8.968 6.44 8.968C6.76 9.048 7.016 9.216 7.208 9.472C7.416 9.712 7.52 9.984 7.52 10.288C7.52 10.48 7.472 10.672 7.376 10.864C7.216 11.152 7 11.352 6.728 11.464C6.472 11.56 5.864 11.68 4.904 11.824C3.784 11.968 3.176 12.072 3.08 12.136C2.984 12.2 2.936 12.712 2.936 13.672V15.136L4.16 15.04C5.52 14.944 6.488 14.864 7.064 14.8C7.592 14.752 8.016 14.728 8.336 14.728C8.72 14.728 8.992 14.776 9.152 14.872C9.328 14.952 9.48 15.12 9.608 15.376C9.72 15.584 9.776 15.8 9.776 16.024C9.776 16.264 9.696 16.512 9.536 16.768C9.376 17.056 9.064 17.248 8.6 17.344C8.136 17.424 6.992 17.528 5.168 17.656C3.776 17.736 2.872 17.776 2.456 17.776C1.88 17.776 1.48 17.728 1.256 17.632C1.048 17.536 0.84 17.336 0.632 17.032L0.248 16.48L0.272 14.368C0.288 12.752 0.352 10.784 0.464 8.464C0.576 6.128 0.664 4.824 0.728 4.552C0.824 4.216 1 3.896 1.256 3.592C1.528 3.272 1.984 3.048 2.624 2.92C2.848 2.872 4.312 2.704 7.016 2.416ZM15.8212 5.872C16.1092 5.824 16.4052 5.8 16.7092 5.8C17.6692 5.8 18.5252 6.016 19.2772 6.448C20.0292 6.88 20.4052 7.376 20.4052 7.936C20.4052 8.08 20.3812 8.208 20.3332 8.32C20.0932 8.928 19.7332 9.232 19.2532 9.232C18.9012 9.232 18.5012 9.12 18.0532 8.896C17.5412 8.64 17.0692 8.512 16.6372 8.512C16.1732 8.512 15.7892 8.664 15.4852 8.968C15.3252 9.128 15.2452 9.256 15.2452 9.352C15.2452 9.48 15.3652 9.632 15.6052 9.808C15.8612 9.968 16.3252 10.224 16.9972 10.576C18.1012 11.152 18.8452 11.624 19.2292 11.992C19.5972 12.312 19.9172 12.712 20.1892 13.192C20.4612 13.656 20.5972 14.048 20.5972 14.368C20.5972 14.736 20.5012 15.104 20.3092 15.472C20.1172 15.84 19.8772 16.12 19.5892 16.312C18.8532 16.808 17.9572 17.056 16.9012 17.056C15.9092 17.056 14.8852 16.824 13.8292 16.36C13.3332 16.12 13.0212 15.848 12.8932 15.544C12.7972 15.32 12.7492 15.12 12.7492 14.944C12.7492 14.624 12.9012 14.312 13.2052 14.008C13.4132 13.768 13.6932 13.648 14.0452 13.648C14.3812 13.648 14.7892 13.752 15.2692 13.96C15.7972 14.184 16.4052 14.296 17.0932 14.296C17.4132 14.296 17.5732 14.256 17.5732 14.176C17.5732 13.984 16.8852 13.544 15.5092 12.856C14.4372 12.296 13.6532 11.744 13.1572 11.2C12.6612 10.64 12.4132 10.024 12.4132 9.352C12.4132 8.552 12.7412 7.816 13.3972 7.144C14.0692 6.456 14.8772 6.032 15.8212 5.872ZM30.6584 10.096C30.4504 9.584 30.1784 9.224 29.8424 9.016C29.5064 8.808 29.0984 8.704 28.6184 8.704C28.1064 8.704 27.6024 8.816 27.1064 9.04C26.6584 9.232 26.4024 9.416 26.3384 9.592C26.2904 9.72 26.1944 9.872 26.0504 10.048C25.8584 10.272 25.7624 11.064 25.7624 12.424C25.7624 12.872 25.7784 13.176 25.8104 13.336L25.9064 13.912L26.6504 14.104C27.0984 14.216 27.5464 14.272 27.9944 14.272C28.7304 14.272 29.3544 14.12 29.8664 13.816C30.3944 13.496 30.7304 13.056 30.8744 12.496C30.9384 12.256 30.9704 11.976 30.9704 11.656C30.9704 11.112 30.8664 10.592 30.6584 10.096ZM27.6584 6.04C27.8504 6.008 28.0424 5.992 28.2344 5.992C29.1624 5.992 29.9544 6.112 30.6104 6.352C31.2664 6.608 31.8424 7.056 32.3384 7.696C32.8504 8.336 33.2184 9.072 33.4424 9.904C33.5544 10.336 33.6104 10.856 33.6104 11.464C33.6104 12.44 33.4904 13.24 33.2504 13.864C32.9464 14.648 32.4344 15.304 31.7144 15.832C31.0104 16.36 30.1864 16.704 29.2424 16.864C28.9064 16.912 28.4904 16.936 27.9944 16.936C27.1464 16.936 26.5464 16.88 26.1944 16.768C26.0984 16.736 26.0424 16.72 26.0264 16.72C25.9464 16.72 25.9064 16.792 25.9064 16.936C25.9064 16.968 25.9224 17.16 25.9544 17.512C25.9704 17.672 26.0024 18.296 26.0504 19.384V19.792C26.0504 20.08 26.0264 20.28 25.9784 20.392C25.9304 20.504 25.8264 20.64 25.6664 20.8C25.4104 21.056 25.0904 21.184 24.7064 21.184C24.4824 21.184 24.2744 21.136 24.0824 21.04C23.8104 20.896 23.6184 20.624 23.5064 20.224C23.4104 19.824 23.3304 19 23.2664 17.752C23.1704 16.184 23.1224 14.144 23.1224 11.632C23.1224 8.672 23.1784 7.08 23.2904 6.856C23.5464 6.36 23.9544 6.112 24.5144 6.112C24.8184 6.112 25.0824 6.2 25.3064 6.376L25.6424 6.64L26.5304 6.4C26.6744 6.352 26.8264 6.304 26.9864 6.256C27.1464 6.192 27.2904 6.144 27.4184 6.112C27.5464 6.08 27.6264 6.056 27.6584 6.04ZM43.6657 9.856C43.3777 9.712 42.9697 9.64 42.4417 9.64C41.8657 9.64 41.3777 9.728 40.9777 9.904C40.7057 10.016 40.3537 10.264 39.9217 10.648C39.4897 11.016 39.2737 11.256 39.2737 11.368C39.2737 11.416 39.5217 11.44 40.0177 11.44C40.7537 11.44 41.6337 11.4 42.6577 11.32C43.6817 11.24 44.2657 11.152 44.4097 11.056C44.4577 11.04 44.4817 10.992 44.4817 10.912C44.4817 10.768 44.3937 10.584 44.2177 10.36C44.0417 10.12 43.8577 9.952 43.6657 9.856ZM40.8337 7.072C41.2337 6.96 41.7057 6.904 42.2497 6.904C43.2577 6.904 44.1777 7.104 45.0097 7.504C45.6337 7.824 46.1537 8.312 46.5697 8.968C46.9857 9.608 47.2417 10.328 47.3377 11.128C47.3377 11.16 47.3377 11.208 47.3377 11.272C47.3537 11.336 47.3617 11.384 47.3617 11.416C47.3617 11.832 47.2817 12.24 47.1217 12.64C46.9777 13.04 46.8017 13.312 46.5937 13.456C46.3217 13.648 44.4097 13.888 40.8577 14.176C40.1057 14.24 39.7297 14.312 39.7297 14.392C39.7297 14.488 39.8977 14.64 40.2337 14.848C40.5697 15.056 40.8977 15.2 41.2177 15.28C41.5057 15.344 41.7377 15.376 41.9137 15.376C42.4257 15.376 43.0897 15.208 43.9057 14.872C44.4817 14.632 44.9057 14.512 45.1777 14.512C45.4497 14.512 45.7057 14.632 45.9457 14.872C46.2657 15.192 46.4257 15.496 46.4257 15.784C46.4257 15.976 46.3777 16.176 46.2817 16.384C46.2017 16.576 46.0897 16.728 45.9457 16.84C45.8177 16.952 45.5777 17.088 45.2257 17.248C44.0577 17.76 42.9697 18.016 41.9617 18.016C41.3857 18.016 40.7937 17.928 40.1857 17.752C39.3697 17.496 38.6257 17.064 37.9537 16.456C37.2817 15.832 36.8017 15.144 36.5137 14.392C36.3377 13.896 36.2497 13.344 36.2497 12.736C36.2497 11.856 36.3937 11.12 36.6817 10.528C37.0177 9.792 37.5857 9.088 38.3857 8.416C39.1857 7.744 40.0017 7.296 40.8337 7.072ZM53.0321 6.544C53.2881 6.448 53.6881 6.4 54.2321 6.4C54.5201 6.4 54.7521 6.408 54.9281 6.424C55.5681 6.44 56.0081 6.48 56.2481 6.544C56.4881 6.592 56.8081 6.712 57.2081 6.904C58.3441 7.48 58.9121 8.176 58.9121 8.992C58.9121 9.168 58.8561 9.384 58.7441 9.64C58.5041 10.104 58.1361 10.336 57.6401 10.336C57.1921 10.336 56.7841 10.128 56.4161 9.712C56.2401 9.52 56.0801 9.392 55.9361 9.328C55.7921 9.248 55.5601 9.184 55.2401 9.136C54.9201 9.104 54.7041 9.088 54.5921 9.088C54.0321 9.088 53.6241 9.264 53.3681 9.616C52.9201 10.272 52.6961 10.984 52.6961 11.752C52.6961 12.584 52.9521 13.296 53.4641 13.888C53.9761 14.464 54.6481 14.752 55.4801 14.752C55.8001 14.752 56.2481 14.672 56.8241 14.512C57.4001 14.336 57.7841 14.176 57.9761 14.032C58.1361 13.904 58.4161 13.84 58.8161 13.84C59.2001 13.84 59.5121 13.96 59.7521 14.2C60.0081 14.44 60.1361 14.744 60.1361 15.112C60.1361 15.448 60.0561 15.72 59.8961 15.928C59.7361 16.136 59.4321 16.352 58.9841 16.576C57.8321 17.152 56.6801 17.44 55.5281 17.44C53.6241 17.44 52.1761 16.76 51.1841 15.4C50.3841 14.312 49.9841 13.12 49.9841 11.824C49.9841 11.024 50.1441 10.184 50.4641 9.304C50.7041 8.68 51.0561 8.112 51.5201 7.6C52.0001 7.088 52.5041 6.736 53.0321 6.544ZM63.9078 6.592C63.9718 6.576 64.0678 6.568 64.1958 6.568C64.5478 6.568 64.8598 6.68 65.1318 6.904C65.4038 7.128 65.5638 7.416 65.6118 7.768C65.6758 8.12 65.7078 9.632 65.7078 12.304L65.7318 16.36L65.3238 16.744C65.0518 17.016 64.7318 17.152 64.3638 17.152C64.0278 17.152 63.7398 17.032 63.4998 16.792C63.3398 16.632 63.2278 16.472 63.1638 16.312C63.1158 16.136 63.0758 15.8 63.0438 15.304C62.9958 14.68 62.9718 13.176 62.9718 10.792L62.9478 7.432L63.2838 7.024C63.5238 6.768 63.7318 6.624 63.9078 6.592ZM63.4758 1.816C63.6838 1.704 63.8998 1.648 64.1238 1.648C64.4918 1.648 64.8038 1.784 65.0598 2.056C65.3158 2.328 65.4438 2.64 65.4438 2.992C65.4438 3.296 65.3238 3.592 65.0838 3.88C64.7798 4.2 64.4438 4.36 64.0758 4.36C63.7238 4.36 63.4118 4.24 63.1398 4C62.8838 3.744 62.7558 3.44 62.7558 3.088C62.7558 2.88 62.8038 2.672 62.8998 2.464C63.0438 2.16 63.2358 1.944 63.4758 1.816ZM75.2242 9.76C75.1442 9.504 75.0722 9.36 75.0082 9.328C74.9442 9.28 74.7682 9.256 74.4802 9.256C73.6482 9.272 72.8722 9.664 72.1522 10.432C71.4322 11.184 71.0722 11.944 71.0722 12.712C71.0722 13.096 71.1762 13.416 71.3842 13.672C71.8482 14.184 72.3362 14.44 72.8482 14.44C72.8802 14.44 72.9122 14.44 72.9442 14.44C72.9762 14.424 73.0082 14.416 73.0402 14.416C73.3282 14.352 73.6322 14.16 73.9522 13.84C74.2882 13.52 74.5442 13.168 74.7202 12.784C75.0882 11.92 75.2722 11.08 75.2722 10.264C75.2722 10.024 75.2562 9.856 75.2242 9.76ZM72.9922 6.736C73.4242 6.592 73.9202 6.52 74.4802 6.52C75.2162 6.52 75.8402 6.64 76.3522 6.88C76.6882 7.056 76.9922 7.32 77.2642 7.672C77.5522 8.008 77.7282 8.328 77.7922 8.632C77.8562 8.936 77.9442 9.224 78.0562 9.496C78.2322 9.96 78.5842 11.704 79.1122 14.728C79.1922 15.208 79.2322 15.568 79.2322 15.808C79.2322 16.768 78.7842 17.248 77.8882 17.248C77.5842 17.248 77.3042 17.128 77.0482 16.888C76.8082 16.648 76.6562 16.352 76.5922 16C76.5282 15.68 76.4722 15.496 76.4242 15.448C76.3602 15.4 76.1762 15.528 75.8722 15.832C74.9602 16.744 73.9122 17.2 72.7282 17.2C72.5202 17.2 72.3042 17.176 72.0802 17.128C71.2002 16.936 70.3762 16.456 69.6082 15.688C68.7442 14.824 68.3122 13.856 68.3122 12.784C68.3122 11.936 68.5762 11.016 69.1042 10.024C69.5042 9.272 70.0482 8.6 70.7362 8.008C71.4402 7.416 72.1922 6.992 72.9922 6.736ZM82.9625 1.648C83.1705 1.568 83.3545 1.528 83.5145 1.528C83.7545 1.528 83.9945 1.6 84.2345 1.744C84.4745 1.904 84.6345 2.08 84.7145 2.272C84.8105 2.464 84.8585 2.832 84.8585 3.376C84.8585 4 84.8265 4.792 84.7625 5.752C84.6505 7.72 84.5785 10.04 84.5465 12.712C84.5465 15.32 84.4905 16.728 84.3785 16.936C84.2985 17.096 84.1305 17.256 83.8745 17.416C83.6345 17.56 83.4265 17.632 83.2505 17.632C83.0585 17.632 82.8425 17.552 82.6025 17.392C82.3625 17.232 82.1945 17.056 82.0985 16.864C81.9065 16.48 81.8105 15.192 81.8105 13C81.8105 10.792 81.9065 7.88 82.0985 4.264C82.1465 3.32 82.2265 2.68 82.3385 2.344C82.4505 2.008 82.6585 1.776 82.9625 1.648ZM88.5406 1.648C88.7486 1.568 88.9326 1.528 89.0926 1.528C89.3326 1.528 89.5726 1.6 89.8126 1.744C90.0526 1.904 90.2126 2.08 90.2926 2.272C90.3886 2.464 90.4366 2.832 90.4366 3.376C90.4366 4 90.4046 4.792 90.3406 5.752C90.2286 7.72 90.1566 10.04 90.1246 12.712C90.1246 15.32 90.0686 16.728 89.9566 16.936C89.8766 17.096 89.7086 17.256 89.4526 17.416C89.2126 17.56 89.0046 17.632 88.8286 17.632C88.6366 17.632 88.4206 17.552 88.1806 17.392C87.9406 17.232 87.7726 17.056 87.6766 16.864C87.4846 16.48 87.3886 15.192 87.3886 13C87.3886 10.792 87.4846 7.88 87.6766 4.264C87.7246 3.32 87.8046 2.68 87.9166 2.344C88.0286 2.008 88.2366 1.776 88.5406 1.648ZM102.015 5.704C102.175 5.656 102.295 5.632 102.375 5.632C102.439 5.632 102.623 5.696 102.927 5.824C103.247 5.952 103.471 6.168 103.599 6.472C103.663 6.6 103.695 6.744 103.695 6.904C103.695 7.144 103.503 7.872 103.119 9.088C102.415 11.344 101.527 13.608 100.455 15.88C99.9588 16.968 99.1988 18.376 98.1748 20.104C97.1508 21.848 96.5268 22.784 96.3028 22.912C96.0468 23.072 95.7828 23.152 95.5108 23.152C95.1428 23.152 94.8228 23.024 94.5508 22.768C94.2948 22.528 94.1668 22.208 94.1668 21.808C94.1668 21.52 94.4228 20.976 94.9348 20.176C95.3348 19.552 95.8548 18.672 96.4948 17.536C97.1348 16.384 97.4548 15.768 97.4548 15.688C97.4548 15.64 97.2788 15.32 96.9268 14.728C96.7668 14.472 96.1988 13.432 95.2228 11.608C94.2628 9.768 93.6788 8.704 93.4708 8.416C93.2148 8.048 93.0868 7.68 93.0868 7.312C93.0868 6.784 93.3428 6.408 93.8548 6.184C94.0468 6.104 94.2148 6.064 94.3588 6.064C94.6948 6.064 95.0228 6.256 95.3428 6.64C95.6628 7.008 96.0708 7.648 96.5668 8.56C97.6388 10.544 98.3668 11.84 98.7508 12.448C98.8308 12.56 98.8788 12.616 98.8948 12.616C98.9588 12.616 99.1188 12.272 99.3748 11.584C99.7428 10.576 100.111 9.504 100.479 8.368C100.799 7.344 101.055 6.664 101.247 6.328C101.455 5.992 101.711 5.784 102.015 5.704ZM114.023 6.496C114.311 6.256 114.623 6.136 114.959 6.136C115.311 6.136 115.615 6.264 115.871 6.52C116.127 6.76 116.255 7.072 116.255 7.456C116.255 7.84 116.327 8.032 116.471 8.032C116.551 8.032 116.719 7.944 116.975 7.768C118.159 6.952 119.335 6.544 120.503 6.544C120.999 6.544 121.487 6.632 121.967 6.808C122.399 6.984 122.703 7.176 122.879 7.384C123.055 7.592 123.143 7.872 123.143 8.224C123.143 8.608 122.999 8.936 122.711 9.208C122.471 9.432 122.255 9.544 122.063 9.544C121.999 9.544 121.551 9.488 120.719 9.376C120.623 9.36 120.487 9.352 120.311 9.352C120.055 9.352 119.727 9.44 119.327 9.616C118.287 10.096 117.559 10.704 117.143 11.44C116.727 12.176 116.519 13.232 116.519 14.608C116.503 15.616 116.383 16.32 116.159 16.72C115.951 17.12 115.575 17.32 115.031 17.32C114.663 17.32 114.351 17.192 114.095 16.936L113.711 16.552L113.663 12.304C113.631 9.168 113.615 7.552 113.615 7.456C113.615 7.072 113.751 6.752 114.023 6.496ZM127.053 6.184C127.117 6.168 127.213 6.16 127.341 6.16C127.645 6.16 127.925 6.24 128.181 6.4C128.437 6.544 128.613 6.744 128.709 7C128.773 7.144 128.837 8.24 128.901 10.288C128.981 12.32 129.021 13.92 129.021 15.088C129.021 15.584 129.013 15.872 128.997 15.952C128.917 16.56 128.653 16.968 128.205 17.176C127.981 17.272 127.805 17.32 127.677 17.32C127.581 17.32 127.437 17.296 127.245 17.248C126.877 17.136 126.645 16.984 126.549 16.792C126.357 16.424 126.245 15 126.213 12.52C126.213 12.072 126.205 11.296 126.189 10.192L126.165 6.904L126.453 6.568C126.645 6.344 126.845 6.216 127.053 6.184ZM126.477 1.672C126.669 1.576 126.853 1.528 127.029 1.528C127.381 1.528 127.693 1.672 127.965 1.96C128.237 2.232 128.373 2.552 128.373 2.92C128.373 3.176 128.309 3.4 128.181 3.592C127.909 4.024 127.541 4.24 127.077 4.24C126.773 4.24 126.493 4.136 126.237 3.928C125.981 3.72 125.821 3.432 125.757 3.064C125.757 3.048 125.749 3.024 125.733 2.992C125.733 2.944 125.733 2.912 125.733 2.896C125.733 2.656 125.805 2.424 125.949 2.2C126.093 1.96 126.269 1.784 126.477 1.672ZM138.121 8.968C138.041 8.904 137.849 8.872 137.545 8.872C136.985 8.872 136.521 8.952 136.153 9.112C134.905 9.688 134.281 10.632 134.281 11.944C134.281 12.52 134.417 13.08 134.689 13.624C135.105 14.456 135.681 14.872 136.417 14.872C136.641 14.872 136.817 14.832 136.945 14.752C137.089 14.672 137.305 14.48 137.593 14.176C138.265 13.488 138.665 12.448 138.793 11.056C138.809 10.928 138.817 10.768 138.817 10.576C138.817 10.272 138.737 9.96 138.577 9.64C138.401 9.272 138.249 9.048 138.121 8.968ZM135.985 6.304C136.337 6.192 136.745 6.136 137.209 6.136C137.801 6.136 138.377 6.232 138.937 6.424C139.497 6.6 139.921 6.84 140.209 7.144C140.417 7.352 140.681 7.776 141.001 8.416C141.225 8.848 141.361 9.2 141.409 9.472C141.473 9.728 141.529 10.264 141.577 11.08C141.609 11.432 141.657 12.032 141.721 12.88C141.801 13.728 141.865 14.512 141.913 15.232C141.961 15.952 141.985 16.608 141.985 17.2C141.985 18.144 141.913 18.952 141.769 19.624C141.305 21.72 140.321 23.04 138.817 23.584C138.337 23.76 137.689 23.848 136.873 23.848C136.329 23.832 135.921 23.792 135.649 23.728C135.377 23.68 134.969 23.552 134.425 23.344C133.497 22.992 132.881 22.72 132.577 22.528C132.273 22.352 132.065 22.136 131.953 21.88C131.889 21.704 131.857 21.528 131.857 21.352C131.857 20.824 132.097 20.44 132.577 20.2L133.105 19.96L134.545 20.536C135.201 20.792 135.673 20.952 135.961 21.016C136.249 21.08 136.617 21.112 137.065 21.112C137.545 21.112 137.849 21.088 137.977 21.04C138.105 21.008 138.257 20.888 138.433 20.68C138.945 20.072 139.249 19.048 139.345 17.608C139.361 17.48 139.369 17.312 139.369 17.104C139.369 16.752 139.305 16.576 139.177 16.576C139.081 16.576 138.921 16.664 138.697 16.84C138.057 17.32 137.297 17.56 136.417 17.56H136.129C135.585 17.56 135.081 17.44 134.617 17.2C133.929 16.864 133.329 16.368 132.817 15.712C132.321 15.056 131.977 14.328 131.785 13.528C131.673 12.968 131.617 12.4 131.617 11.824C131.617 10.496 132.001 9.344 132.769 8.368C133.553 7.376 134.625 6.688 135.985 6.304ZM145.129 0.663999C145.401 0.439999 145.681 0.327999 145.969 0.327999C146.545 0.327999 146.969 0.679999 147.241 1.384C147.353 1.704 147.473 2.472 147.601 3.688C147.729 4.888 147.833 6.008 147.913 7.048C147.993 8.072 148.041 8.584 148.057 8.584C148.089 8.584 148.353 8.408 148.849 8.056C149.825 7.368 150.753 7.024 151.633 7.024C152.449 7.024 153.161 7.328 153.769 7.936C154.393 8.528 154.881 9.4 155.233 10.552C155.505 11.448 155.641 12.84 155.641 14.728C155.641 15.912 155.569 16.712 155.425 17.128C155.265 17.56 154.897 17.776 154.321 17.776C153.937 17.776 153.617 17.648 153.361 17.392L153.001 17.032L152.929 14.608C152.833 11.488 152.401 9.88 151.633 9.784H151.561C151.193 9.784 150.737 9.992 150.193 10.408C149.649 10.808 149.257 11.248 149.017 11.728C148.873 12.048 148.681 12.28 148.441 12.424L148.129 12.64L148.081 15.256C148.049 16.536 148.017 17.312 147.985 17.584C147.969 17.84 147.881 18.048 147.721 18.208C147.465 18.48 147.145 18.616 146.761 18.616C146.185 18.616 145.785 18.36 145.561 17.848C145.449 17.544 145.369 15.704 145.321 12.328C145.241 6.68 145.033 3.296 144.697 2.176C144.649 2 144.625 1.832 144.625 1.672C144.625 1.256 144.793 0.919999 145.129 0.663999ZM161.961 0.639999C162.233 0.367999 162.561 0.231998 162.945 0.231998C163.233 0.231998 163.489 0.319999 163.713 0.495999C163.953 0.655999 164.121 0.887999 164.217 1.192C164.265 1.368 164.345 2.2 164.457 3.688C164.569 5.16 164.625 6.184 164.625 6.76C164.625 6.904 164.657 6.992 164.721 7.024C164.801 7.056 164.985 7.072 165.273 7.072C165.705 7.072 165.953 7.024 166.017 6.928C166.049 6.848 166.377 6.808 167.001 6.808C167.801 6.808 168.329 6.864 168.585 6.976C168.825 7.088 169.009 7.304 169.137 7.624C169.249 7.848 169.305 8.032 169.305 8.176C169.305 8.288 169.281 8.424 169.233 8.584C169.121 8.952 168.913 9.2 168.609 9.328C168.321 9.44 167.745 9.52 166.881 9.568C165.905 9.616 165.273 9.68 164.985 9.76L164.601 9.856L164.697 13.24C164.729 14.744 164.745 15.552 164.745 15.664C164.745 16.368 164.689 16.84 164.577 17.08C164.337 17.592 163.945 17.848 163.401 17.848C163.193 17.848 162.977 17.8 162.753 17.704C162.577 17.624 162.449 17.552 162.369 17.488C162.289 17.408 162.217 17.208 162.153 16.888C162.089 16.552 162.049 16.16 162.033 15.712C162.017 15.264 162.001 14.528 161.985 13.504L161.937 10.024L161.217 10.048C160.785 10.08 160.401 10.144 160.065 10.24C159.985 10.272 159.857 10.288 159.681 10.288C159.137 10.288 158.745 10.12 158.505 9.784C158.377 9.576 158.313 9.296 158.313 8.944C158.313 8.64 158.361 8.4 158.457 8.224C158.681 7.824 159.465 7.52 160.809 7.312L161.913 7.144L161.817 5.032C161.753 3.528 161.697 2.504 161.649 1.96C161.617 1.576 161.601 1.368 161.601 1.336C161.601 1.112 161.721 0.879999 161.961 0.639999ZM180.07 5.584C180.326 5.312 180.654 5.176 181.054 5.176C181.326 5.176 181.566 5.248 181.774 5.392C181.95 5.52 182.102 5.728 182.23 6.016C182.374 6.304 182.446 6.568 182.446 6.808C182.446 7.064 182.51 7.192 182.638 7.192C182.782 7.192 183.014 7.088 183.334 6.88C183.654 6.688 184.078 6.512 184.605 6.352C185.134 6.192 185.558 6.112 185.878 6.112C186.198 6.112 186.59 6.216 187.054 6.424C187.534 6.632 187.91 6.864 188.182 7.12C188.758 7.68 189.166 8.464 189.406 9.472C189.662 10.48 189.79 11.88 189.79 13.672C189.79 14.936 189.75 15.768 189.67 16.168C189.59 16.552 189.406 16.824 189.118 16.984C188.926 17.08 188.694 17.128 188.422 17.128C188.134 17.128 187.894 17.08 187.702 16.984C187.43 16.84 187.254 16.576 187.174 16.192C187.11 15.792 187.062 14.832 187.03 13.312C186.998 11.792 186.934 10.792 186.838 10.312C186.742 9.816 186.542 9.416 186.238 9.112C186.078 8.952 185.878 8.872 185.638 8.872C185.238 8.872 184.806 9.072 184.342 9.472C183.894 9.856 183.526 10.352 183.238 10.96C183.094 11.264 183.006 11.552 182.974 11.824C182.942 12.096 182.91 12.72 182.878 13.696C182.846 15.04 182.782 15.84 182.686 16.096C182.462 16.688 182.03 16.984 181.39 16.984C180.862 16.984 180.462 16.752 180.19 16.288C180.11 16.112 180.03 14.616 179.95 11.8C179.854 8.776 179.79 7.104 179.758 6.784C179.726 6.464 179.71 6.288 179.71 6.256C179.71 6.048 179.83 5.824 180.07 5.584ZM198.918 8.2C198.486 8.12 198.126 8.08 197.838 8.08C197.182 8.08 196.63 8.216 196.182 8.488C195.958 8.632 195.694 9.12 195.39 9.952C195.102 10.768 194.958 11.424 194.958 11.92C194.958 12.72 195.214 13.368 195.726 13.864C196.254 14.344 196.942 14.592 197.79 14.608C198.478 14.608 199.118 14.416 199.71 14.032C200.318 13.648 200.758 13.144 201.03 12.52C201.206 12.12 201.294 11.664 201.294 11.152C201.294 10.528 201.174 9.984 200.934 9.52C200.758 9.152 200.518 8.872 200.214 8.68C199.91 8.488 199.478 8.328 198.918 8.2ZM196.206 5.632C196.766 5.488 197.318 5.416 197.862 5.416C198.886 5.416 199.982 5.672 201.15 6.184C201.982 6.552 202.638 7.2 203.118 8.128C203.614 9.056 203.87 10.152 203.886 11.416V11.56C203.886 13.464 203.038 15.008 201.342 16.192C200.286 16.944 199.11 17.32 197.814 17.32C196.742 17.32 195.75 17.056 194.838 16.528C193.926 15.984 193.238 15.224 192.774 14.248C192.614 13.912 192.51 13.624 192.462 13.384C192.43 13.144 192.414 12.64 192.414 11.872C192.43 10.736 192.55 9.84 192.774 9.184C193.302 7.728 193.926 6.744 194.646 6.232C194.934 6.024 195.454 5.824 196.206 5.632ZM206.907 6.112C207.147 5.872 207.451 5.752 207.819 5.752C208.315 5.752 208.659 5.92 208.851 6.256C209.059 6.576 209.387 7.48 209.835 8.968C209.963 9.384 210.123 9.92 210.315 10.576C210.859 12.304 211.171 13.184 211.251 13.216C211.347 13.216 211.563 12.736 211.899 11.776C212.443 10.144 212.891 9 213.243 8.344C213.611 7.688 214.043 7.256 214.539 7.048C214.779 6.936 215.019 6.88 215.259 6.88C215.611 6.88 215.931 7.048 216.219 7.384C216.523 7.704 216.859 8.248 217.227 9.016C218.635 12.008 219.379 13.504 219.459 13.504C219.491 13.504 219.675 13 220.011 11.992C220.363 10.968 220.731 9.912 221.115 8.824C221.515 7.736 221.779 7.12 221.907 6.976C222.163 6.688 222.467 6.544 222.819 6.544C223.203 6.544 223.555 6.712 223.875 7.048C224.051 7.224 224.139 7.456 224.139 7.744C224.139 8.208 223.771 9.52 223.035 11.68C222.267 13.936 221.675 15.416 221.259 16.12C220.843 16.808 220.323 17.152 219.699 17.152C219.507 17.152 219.363 17.144 219.267 17.128C218.755 17.048 218.315 16.784 217.947 16.336C217.579 15.888 217.043 14.928 216.339 13.456C215.555 11.824 215.139 11.008 215.091 11.008C215.043 11.008 214.899 11.344 214.659 12.016C213.891 14.224 213.347 15.656 213.027 16.312C212.707 16.968 212.371 17.376 212.019 17.536C211.747 17.648 211.427 17.704 211.059 17.704C210.739 17.704 210.491 17.664 210.315 17.584C209.995 17.424 209.611 16.784 209.163 15.664C208.715 14.544 208.083 12.624 207.267 9.904C206.803 8.368 206.571 7.384 206.571 6.952C206.571 6.616 206.683 6.336 206.907 6.112ZM228.693 14.632C228.917 14.456 229.165 14.368 229.437 14.368C229.773 14.368 230.053 14.472 230.277 14.68C230.597 14.952 230.757 15.28 230.757 15.664C230.757 15.968 230.693 16.288 230.565 16.624C230.501 16.8 230.253 17.632 229.821 19.12C229.517 20.224 229.229 20.888 228.957 21.112C228.701 21.336 228.429 21.448 228.141 21.448C227.837 21.448 227.557 21.336 227.301 21.112C226.981 20.824 226.821 20.504 226.821 20.152C226.821 19.928 226.869 19.656 226.965 19.336C226.997 19.224 227.069 18.936 227.181 18.472C227.309 17.992 227.405 17.624 227.469 17.368C227.853 15.864 228.261 14.952 228.693 14.632ZM251.203 9.424C250.739 8.96 250.019 8.728 249.043 8.728C248.563 8.728 248.139 8.808 247.771 8.968C247.419 9.128 247.035 9.44 246.619 9.904C246.203 10.368 245.931 10.792 245.803 11.176C245.659 11.592 245.587 11.984 245.587 12.352C245.587 13.2 245.923 13.8 246.595 14.152C246.995 14.36 247.515 14.464 248.155 14.464C248.587 14.464 248.915 14.408 249.139 14.296C250.435 13.64 251.227 12.464 251.515 10.768L251.659 9.856L251.203 9.424ZM247.555 6.16C247.939 6.048 248.387 5.992 248.899 5.992C249.763 5.992 250.611 6.144 251.443 6.448C252.275 6.752 252.851 7.136 253.171 7.6C253.395 7.92 253.683 8.256 254.035 8.608C254.419 9.008 254.771 9.696 255.091 10.672C255.395 11.6 255.675 12.632 255.931 13.768C256.203 14.904 256.339 15.672 256.339 16.072C256.339 16.472 256.219 16.784 255.979 17.008C255.675 17.296 255.387 17.44 255.115 17.44C255.003 17.44 254.859 17.416 254.683 17.368C254.379 17.256 254.139 17.064 253.963 16.792C253.803 16.52 253.659 16.08 253.531 15.472C253.371 14.752 253.283 14.392 253.267 14.392C253.203 14.392 252.867 14.696 252.259 15.304C251.059 16.472 249.811 17.104 248.515 17.2H248.179C247.395 17.2 246.627 17.064 245.875 16.792C245.139 16.52 244.555 16.16 244.123 15.712C243.899 15.488 243.675 15.152 243.451 14.704C243.227 14.24 243.075 13.816 242.995 13.432C242.915 13.032 242.875 12.672 242.875 12.352C242.875 11.024 243.323 9.752 244.219 8.536C245.131 7.32 246.243 6.528 247.555 6.16ZM264.639 0.447999C264.799 0.399999 264.999 0.375999 265.239 0.375999C266.007 0.375999 266.615 0.503999 267.063 0.759999C267.671 1.128 267.975 1.624 267.975 2.248C267.975 2.728 267.759 3.08 267.327 3.304C267.119 3.416 266.895 3.472 266.655 3.472C266.415 3.472 266.135 3.4 265.815 3.256C265.559 3.144 265.423 3.088 265.407 3.088C265.343 3.088 265.239 3.16 265.095 3.304C264.919 3.48 264.767 3.84 264.639 4.384C264.511 4.928 264.447 5.528 264.447 6.184V6.688C264.447 6.912 264.471 7.064 264.519 7.144C264.567 7.224 264.679 7.264 264.855 7.264C265.015 7.264 265.399 7.224 266.007 7.144C266.151 7.128 266.343 7.12 266.583 7.12C267.687 7.12 268.239 7.568 268.239 8.464C268.223 8.928 268.055 9.264 267.735 9.472C267.431 9.664 266.887 9.792 266.103 9.856C265.351 9.92 264.935 9.976 264.855 10.024C264.839 10.024 264.831 10.096 264.831 10.24C264.831 10.656 264.911 11.48 265.071 12.712C265.231 13.944 265.383 14.912 265.527 15.616C265.591 16 265.623 16.264 265.623 16.408C265.623 16.952 265.495 17.384 265.239 17.704C264.983 18.024 264.631 18.184 264.183 18.184C263.815 18.184 263.503 18.064 263.247 17.824C263.071 17.632 262.951 17.424 262.887 17.2C262.839 16.96 262.767 16.336 262.671 15.328C262.511 13.808 262.367 12.608 262.239 11.728L262.023 10.216L260.847 10.168C260.303 10.136 259.959 10.096 259.815 10.048C259.671 10 259.527 9.896 259.383 9.736C259.175 9.48 259.071 9.168 259.071 8.8C259.071 8.576 259.119 8.368 259.215 8.176C259.439 7.792 259.999 7.552 260.895 7.456L261.663 7.384L261.735 5.92C261.831 4.256 262.111 2.992 262.575 2.128C263.039 1.248 263.727 0.687999 264.639 0.447999ZM274.65 1.144C274.906 0.984 275.146 0.904 275.37 0.904C275.546 0.904 275.746 0.952 275.97 1.048C276.306 1.208 276.522 1.456 276.618 1.792C276.714 2.128 276.778 2.928 276.81 4.192L276.882 6.568L277.986 6.496C278.114 6.48 278.298 6.472 278.538 6.472C279.114 6.472 279.522 6.576 279.762 6.784C280.018 6.992 280.146 7.328 280.146 7.792C280.146 8.288 279.978 8.64 279.642 8.848C279.322 9.056 278.698 9.2 277.77 9.28L276.762 9.376L276.594 12.712C276.482 14.968 276.378 16.216 276.282 16.456C276.074 16.936 275.674 17.176 275.082 17.176C274.746 17.176 274.482 17.088 274.29 16.912C274.082 16.752 273.938 16.576 273.858 16.384C273.778 16.192 273.738 15.88 273.738 15.448C273.738 15.096 273.762 14.568 273.81 13.864C273.89 12.6 273.946 11.52 273.978 10.624L274.002 9.496L272.922 9.472C272.314 9.456 271.898 9.408 271.674 9.328C271.45 9.232 271.258 9.04 271.098 8.752C271.002 8.56 270.954 8.36 270.954 8.152C270.954 7.768 271.114 7.432 271.434 7.144C271.61 6.984 271.834 6.88 272.106 6.832C272.378 6.768 272.882 6.704 273.618 6.64L274.002 6.592L274.098 4.048C274.114 3.664 274.122 3.248 274.122 2.8C274.138 2.336 274.146 1.992 274.146 1.768L274.17 1.432L274.242 1.384C274.29 1.352 274.354 1.312 274.434 1.264C274.514 1.216 274.586 1.176 274.65 1.144ZM290.228 9.856C289.94 9.712 289.532 9.64 289.004 9.64C288.428 9.64 287.94 9.728 287.54 9.904C287.268 10.016 286.916 10.264 286.484 10.648C286.052 11.016 285.836 11.256 285.836 11.368C285.836 11.416 286.084 11.44 286.58 11.44C287.316 11.44 288.196 11.4 289.22 11.32C290.244 11.24 290.828 11.152 290.972 11.056C291.02 11.04 291.044 10.992 291.044 10.912C291.044 10.768 290.956 10.584 290.78 10.36C290.604 10.12 290.42 9.952 290.228 9.856ZM287.396 7.072C287.796 6.96 288.268 6.904 288.812 6.904C289.82 6.904 290.74 7.104 291.572 7.504C292.196 7.824 292.716 8.312 293.132 8.968C293.548 9.608 293.804 10.328 293.9 11.128C293.9 11.16 293.9 11.208 293.9 11.272C293.916 11.336 293.924 11.384 293.924 11.416C293.924 11.832 293.844 12.24 293.684 12.64C293.54 13.04 293.364 13.312 293.156 13.456C292.884 13.648 290.972 13.888 287.42 14.176C286.668 14.24 286.292 14.312 286.292 14.392C286.292 14.488 286.46 14.64 286.796 14.848C287.132 15.056 287.46 15.2 287.78 15.28C288.068 15.344 288.3 15.376 288.476 15.376C288.988 15.376 289.652 15.208 290.468 14.872C291.044 14.632 291.468 14.512 291.74 14.512C292.012 14.512 292.268 14.632 292.508 14.872C292.828 15.192 292.988 15.496 292.988 15.784C292.988 15.976 292.94 16.176 292.844 16.384C292.764 16.576 292.652 16.728 292.508 16.84C292.38 16.952 292.14 17.088 291.788 17.248C290.62 17.76 289.532 18.016 288.524 18.016C287.948 18.016 287.356 17.928 286.748 17.752C285.932 17.496 285.188 17.064 284.516 16.456C283.844 15.832 283.364 15.144 283.076 14.392C282.9 13.896 282.812 13.344 282.812 12.736C282.812 11.856 282.956 11.12 283.244 10.528C283.58 9.792 284.148 9.088 284.948 8.416C285.748 7.744 286.564 7.296 287.396 7.072ZM296.883 6.496C297.171 6.256 297.483 6.136 297.819 6.136C298.171 6.136 298.475 6.264 298.731 6.52C298.987 6.76 299.115 7.072 299.115 7.456C299.115 7.84 299.187 8.032 299.331 8.032C299.411 8.032 299.579 7.944 299.835 7.768C301.019 6.952 302.195 6.544 303.363 6.544C303.859 6.544 304.347 6.632 304.827 6.808C305.259 6.984 305.563 7.176 305.739 7.384C305.915 7.592 306.003 7.872 306.003 8.224C306.003 8.608 305.859 8.936 305.571 9.208C305.331 9.432 305.115 9.544 304.923 9.544C304.859 9.544 304.411 9.488 303.579 9.376C303.483 9.36 303.347 9.352 303.171 9.352C302.915 9.352 302.587 9.44 302.187 9.616C301.147 10.096 300.419 10.704 300.003 11.44C299.587 12.176 299.379 13.232 299.379 14.608C299.363 15.616 299.243 16.32 299.019 16.72C298.811 17.12 298.435 17.32 297.891 17.32C297.523 17.32 297.211 17.192 296.955 16.936L296.571 16.552L296.523 12.304C296.491 9.168 296.475 7.552 296.475 7.456C296.475 7.072 296.611 6.752 296.883 6.496ZM0.728 27.568C0.984 27.312 1.288 27.184 1.64 27.184C1.976 27.184 2.272 27.312 2.528 27.568C2.784 27.824 2.944 28.24 3.008 28.816C3.024 28.976 3.032 29.936 3.032 31.696C3.032 39.92 2.976 44.2 2.864 44.536C2.8 44.728 2.656 44.88 2.432 44.992C2.208 45.104 1.96 45.16 1.688 45.16C1.368 45.16 1.112 45.096 0.92 44.968C0.632 44.776 0.448 44.496 0.368 44.128C0.304 43.744 0.272 42.72 0.272 41.056C0.272 39.12 0.28 37.4 0.296 35.896L0.368 27.928L0.728 27.568ZM12.1209 35.2C11.6889 35.12 11.3289 35.08 11.0409 35.08C10.3849 35.08 9.83288 35.216 9.38488 35.488C9.16088 35.632 8.89688 36.12 8.59288 36.952C8.30488 37.768 8.16088 38.424 8.16088 38.92C8.16088 39.72 8.41688 40.368 8.92888 40.864C9.45688 41.344 10.1449 41.592 10.9929 41.608C11.6809 41.608 12.3209 41.416 12.9129 41.032C13.5209 40.648 13.9609 40.144 14.2329 39.52C14.4089 39.12 14.4969 38.664 14.4969 38.152C14.4969 37.528 14.3769 36.984 14.1369 36.52C13.9609 36.152 13.7209 35.872 13.4169 35.68C13.1129 35.488 12.6809 35.328 12.1209 35.2ZM9.40888 32.632C9.96888 32.488 10.5209 32.416 11.0649 32.416C12.0889 32.416 13.1849 32.672 14.3529 33.184C15.1849 33.552 15.8409 34.2 16.3209 35.128C16.8169 36.056 17.0729 37.152 17.0889 38.416V38.56C17.0889 40.464 16.2409 42.008 14.5449 43.192C13.4889 43.944 12.3129 44.32 11.0169 44.32C9.94488 44.32 8.95288 44.056 8.04088 43.528C7.12888 42.984 6.44088 42.224 5.97688 41.248C5.81688 40.912 5.71288 40.624 5.66488 40.384C5.63288 40.144 5.61688 39.64 5.61688 38.872C5.63288 37.736 5.75288 36.84 5.97688 36.184C6.50488 34.728 7.12888 33.744 7.84888 33.232C8.13688 33.024 8.65688 32.824 9.40888 32.632ZM23.1103 32.872C23.3983 32.824 23.6943 32.8 23.9983 32.8C24.9583 32.8 25.8143 33.016 26.5663 33.448C27.3183 33.88 27.6943 34.376 27.6943 34.936C27.6943 35.08 27.6703 35.208 27.6223 35.32C27.3823 35.928 27.0223 36.232 26.5423 36.232C26.1903 36.232 25.7903 36.12 25.3423 35.896C24.8303 35.64 24.3583 35.512 23.9263 35.512C23.4623 35.512 23.0783 35.664 22.7743 35.968C22.6143 36.128 22.5343 36.256 22.5343 36.352C22.5343 36.48 22.6543 36.632 22.8943 36.808C23.1503 36.968 23.6143 37.224 24.2863 37.576C25.3903 38.152 26.1343 38.624 26.5183 38.992C26.8863 39.312 27.2063 39.712 27.4783 40.192C27.7503 40.656 27.8863 41.048 27.8863 41.368C27.8863 41.736 27.7903 42.104 27.5983 42.472C27.4063 42.84 27.1663 43.12 26.8783 43.312C26.1423 43.808 25.2463 44.056 24.1903 44.056C23.1983 44.056 22.1743 43.824 21.1183 43.36C20.6223 43.12 20.3103 42.848 20.1823 42.544C20.0863 42.32 20.0383 42.12 20.0383 41.944C20.0383 41.624 20.1903 41.312 20.4943 41.008C20.7023 40.768 20.9823 40.648 21.3343 40.648C21.6703 40.648 22.0783 40.752 22.5583 40.96C23.0863 41.184 23.6943 41.296 24.3823 41.296C24.7023 41.296 24.8623 41.256 24.8623 41.176C24.8623 40.984 24.1743 40.544 22.7983 39.856C21.7263 39.296 20.9423 38.744 20.4463 38.2C19.9503 37.64 19.7023 37.024 19.7023 36.352C19.7023 35.552 20.0303 34.816 20.6863 34.144C21.3583 33.456 22.1663 33.032 23.1103 32.872ZM31.7795 33.184C31.8435 33.168 31.9395 33.16 32.0675 33.16C32.3715 33.16 32.6515 33.24 32.9075 33.4C33.1635 33.544 33.3395 33.744 33.4355 34C33.4995 34.144 33.5635 35.24 33.6275 37.288C33.7075 39.32 33.7475 40.92 33.7475 42.088C33.7475 42.584 33.7395 42.872 33.7235 42.952C33.6435 43.56 33.3795 43.968 32.9315 44.176C32.7075 44.272 32.5315 44.32 32.4035 44.32C32.3075 44.32 32.1635 44.296 31.9715 44.248C31.6035 44.136 31.3715 43.984 31.2755 43.792C31.0835 43.424 30.9715 42 30.9395 39.52C30.9395 39.072 30.9315 38.296 30.9155 37.192L30.8915 33.904L31.1795 33.568C31.3715 33.344 31.5715 33.216 31.7795 33.184ZM31.2035 28.672C31.3955 28.576 31.5795 28.528 31.7555 28.528C32.1075 28.528 32.4195 28.672 32.6915 28.96C32.9635 29.232 33.0995 29.552 33.0995 29.92C33.0995 30.176 33.0355 30.4 32.9075 30.592C32.6355 31.024 32.2675 31.24 31.8035 31.24C31.4995 31.24 31.2195 31.136 30.9635 30.928C30.7075 30.72 30.5475 30.432 30.4835 30.064C30.4835 30.048 30.4755 30.024 30.4595 29.992C30.4595 29.944 30.4595 29.912 30.4595 29.896C30.4595 29.656 30.5315 29.424 30.6755 29.2C30.8195 28.96 30.9955 28.784 31.2035 28.672ZM36.9674 33.304C37.1594 33.208 37.3594 33.16 37.5674 33.16C37.8554 33.16 38.1274 33.256 38.3834 33.448C38.6394 33.624 38.8154 33.864 38.9114 34.168L39.0554 34.672L39.6554 34.312C40.0554 34.072 40.6074 33.952 41.3114 33.952C41.9994 33.952 42.5674 34.064 43.0154 34.288C43.3834 34.464 43.7754 34.752 44.1914 35.152C44.6234 35.552 44.9674 35.952 45.2234 36.352C46.0874 37.712 46.5594 39.824 46.6394 42.688V43.168C46.6394 43.552 46.5274 43.864 46.3034 44.104C46.0314 44.376 45.7114 44.512 45.3434 44.512C44.7514 44.512 44.3594 44.256 44.1674 43.744C44.0714 43.472 43.9914 42.936 43.9274 42.136C43.7354 39.336 43.1114 37.584 42.0554 36.88C41.8314 36.736 41.6074 36.664 41.3834 36.664C40.9674 36.664 40.5914 36.896 40.2554 37.36C39.9354 37.808 39.6794 38.448 39.4874 39.28C39.4074 39.648 39.3114 40.312 39.1994 41.272C39.0874 42.232 39.0314 42.88 39.0314 43.216C39.0314 43.376 38.8954 43.592 38.6234 43.864C38.3514 44.12 38.0394 44.248 37.6874 44.248C37.0314 44.248 36.5994 43.904 36.3914 43.216C36.2954 42.88 36.2474 41.424 36.2474 38.848C36.2474 35.776 36.3034 34.104 36.4154 33.832C36.5114 33.624 36.6954 33.448 36.9674 33.304ZM56.4324 35.56C56.2084 35.4 56.0164 35.304 55.8564 35.272C55.6964 35.224 55.3924 35.2 54.9444 35.2C53.7604 35.232 52.9684 35.536 52.5684 36.112C52.4084 36.336 52.2644 36.688 52.1364 37.168C52.0084 37.632 51.9444 38.024 51.9444 38.344C51.9444 38.376 51.9444 38.424 51.9444 38.488C51.9604 38.536 51.9684 38.568 51.9684 38.584C52.0644 39.064 52.3284 39.488 52.7604 39.856C53.2084 40.224 53.7284 40.448 54.3204 40.528C54.4004 40.544 54.5204 40.552 54.6804 40.552C55.2884 40.552 55.8884 40.232 56.4804 39.592C57.0724 38.952 57.3684 38.28 57.3684 37.576C57.3684 37.352 57.3604 37.184 57.3444 37.072C57.2964 36.656 57.2244 36.368 57.1284 36.208C57.0324 36.048 56.8004 35.832 56.4324 35.56ZM53.4084 32.608C53.7604 32.528 54.2724 32.488 54.9444 32.488H55.3284C55.9204 32.504 56.3124 32.544 56.5044 32.608C56.7124 32.656 57.0404 32.808 57.4884 33.064C58.0804 33.432 58.5684 33.704 58.9524 33.88C59.3204 34.056 59.5604 34.24 59.6724 34.432C59.8324 34.672 59.9924 35.792 60.1524 37.792C60.3284 39.776 60.4164 41.528 60.4164 43.048C60.4164 44.296 60.2804 45.336 60.0084 46.168C59.7524 47.016 59.3204 47.784 58.7124 48.472C57.7044 49.624 56.4484 50.2 54.9444 50.2C54.0004 50.2 52.9044 49.984 51.6564 49.552C51.1124 49.376 50.7524 49.224 50.5764 49.096C50.4004 48.968 50.2484 48.768 50.1204 48.496C50.0564 48.352 50.0244 48.184 50.0244 47.992C50.0244 47.624 50.1524 47.312 50.4084 47.056C50.6004 46.832 50.8804 46.72 51.2484 46.72C51.5844 46.72 52.0724 46.832 52.7124 47.056C53.2884 47.264 53.8964 47.4 54.5364 47.464C54.5844 47.464 54.6404 47.464 54.7044 47.464C54.7844 47.48 54.8404 47.488 54.8724 47.488C55.7684 47.488 56.4724 47.088 56.9844 46.288C57.2564 45.904 57.4404 45.544 57.5364 45.208C57.6484 44.856 57.7284 44.352 57.7764 43.696C57.8084 43.248 57.8244 42.976 57.8244 42.88C57.8244 42.576 57.7524 42.424 57.6084 42.424C57.4804 42.424 57.2564 42.512 56.9364 42.688C56.2004 43.056 55.4404 43.24 54.6564 43.24C53.3124 43.24 52.1044 42.792 51.0324 41.896C49.9604 41 49.3924 39.896 49.3284 38.584C49.3284 38.536 49.3204 38.464 49.3044 38.368C49.3044 38.272 49.3044 38.2 49.3044 38.152C49.3044 36.76 49.6644 35.576 50.3844 34.6C51.1204 33.608 52.1284 32.944 53.4084 32.608ZM79.3961 36.76C79.3161 36.504 79.2441 36.36 79.1801 36.328C79.1161 36.28 78.9401 36.256 78.6521 36.256C77.8201 36.272 77.0441 36.664 76.3241 37.432C75.6041 38.184 75.2441 38.944 75.2441 39.712C75.2441 40.096 75.3481 40.416 75.5561 40.672C76.0201 41.184 76.5081 41.44 77.0201 41.44C77.0521 41.44 77.0841 41.44 77.1161 41.44C77.1481 41.424 77.1801 41.416 77.2121 41.416C77.5001 41.352 77.8041 41.16 78.1241 40.84C78.4601 40.52 78.7161 40.168 78.8921 39.784C79.2601 38.92 79.4441 38.08 79.4441 37.264C79.4441 37.024 79.4281 36.856 79.3961 36.76ZM77.1641 33.736C77.5961 33.592 78.0921 33.52 78.6521 33.52C79.3881 33.52 80.0121 33.64 80.5241 33.88C80.8601 34.056 81.1641 34.32 81.4361 34.672C81.7241 35.008 81.9001 35.328 81.9641 35.632C82.0281 35.936 82.1161 36.224 82.2281 36.496C82.4041 36.96 82.7561 38.704 83.2841 41.728C83.3641 42.208 83.4041 42.568 83.4041 42.808C83.4041 43.768 82.9561 44.248 82.0601 44.248C81.7561 44.248 81.4761 44.128 81.2201 43.888C80.9801 43.648 80.8281 43.352 80.7641 43C80.7001 42.68 80.6441 42.496 80.5961 42.448C80.5321 42.4 80.3481 42.528 80.0441 42.832C79.1321 43.744 78.0841 44.2 76.9001 44.2C76.6921 44.2 76.4761 44.176 76.2521 44.128C75.3721 43.936 74.5481 43.456 73.7801 42.688C72.9161 41.824 72.4841 40.856 72.4841 39.784C72.4841 38.936 72.7481 38.016 73.2761 37.024C73.6761 36.272 74.2201 35.6 74.9081 35.008C75.6121 34.416 76.3641 33.992 77.1641 33.736ZM87.1344 28.648C87.3424 28.568 87.5264 28.528 87.6864 28.528C87.9264 28.528 88.1664 28.6 88.4064 28.744C88.6464 28.904 88.8064 29.08 88.8864 29.272C88.9824 29.464 89.0304 29.832 89.0304 30.376C89.0304 31 88.9984 31.792 88.9344 32.752C88.8224 34.72 88.7504 37.04 88.7184 39.712C88.7184 42.32 88.6624 43.728 88.5504 43.936C88.4704 44.096 88.3024 44.256 88.0464 44.416C87.8064 44.56 87.5984 44.632 87.4224 44.632C87.2304 44.632 87.0144 44.552 86.7744 44.392C86.5344 44.232 86.3664 44.056 86.2704 43.864C86.0784 43.48 85.9824 42.192 85.9824 40C85.9824 37.792 86.0784 34.88 86.2704 31.264C86.3184 30.32 86.3984 29.68 86.5104 29.344C86.6224 29.008 86.8304 28.776 87.1344 28.648ZM92.4005 32.896C92.5605 32.816 92.7525 32.776 92.9765 32.776C93.7925 32.776 94.3045 33.464 94.5125 34.84C94.5605 35.256 94.6165 35.464 94.6805 35.464C94.6965 35.464 94.9205 35.28 95.3525 34.912C96.2325 34.128 97.1285 33.736 98.0405 33.736C98.5365 33.736 99.0085 33.872 99.4565 34.144C99.8885 34.416 100.169 34.656 100.297 34.864L100.513 35.2L101.089 34.672C101.969 33.888 102.913 33.496 103.921 33.496C104.897 33.496 105.737 33.872 106.441 34.624C107.641 35.856 108.353 37.96 108.577 40.936C108.609 41.48 108.625 41.816 108.625 41.944C108.625 42.36 108.569 42.664 108.457 42.856C108.361 43.048 108.185 43.216 107.929 43.36C107.705 43.472 107.489 43.528 107.281 43.528C106.929 43.528 106.617 43.368 106.345 43.048C106.137 42.776 106.001 42.312 105.937 41.656C105.809 40.184 105.649 39.088 105.457 38.368C105.265 37.648 104.993 37.088 104.641 36.688C104.369 36.4 104.089 36.256 103.801 36.256C103.257 36.256 102.777 36.68 102.361 37.528C102.201 37.864 102.097 38.176 102.049 38.464C102.001 38.752 101.961 39.408 101.929 40.432C101.865 41.84 101.785 42.68 101.689 42.952C101.465 43.48 101.057 43.744 100.465 43.744C100.113 43.744 99.8165 43.624 99.5765 43.384C99.1925 43 98.9525 41.864 98.8565 39.976C98.8085 39.256 98.7205 38.56 98.5925 37.888C98.4645 37.216 98.3445 36.816 98.2325 36.688C98.1365 36.576 98.0325 36.52 97.9205 36.52C97.7285 36.52 97.4085 36.72 96.9605 37.12C96.4805 37.568 96.1205 38.048 95.8805 38.56C95.6565 39.024 95.5205 39.4 95.4725 39.688C95.4405 39.96 95.4085 40.896 95.3765 42.496C95.3605 42.912 95.2325 43.248 94.9925 43.504C94.7525 43.76 94.4485 43.888 94.0805 43.888C93.7125 43.888 93.4165 43.816 93.1925 43.672C92.8725 43.448 92.6485 43.016 92.5205 42.376C92.3925 41.72 92.2485 40.176 92.0885 37.744C91.9925 36.304 91.8805 35.328 91.7525 34.816C91.6565 34.432 91.6085 34.176 91.6085 34.048C91.6085 33.904 91.6565 33.736 91.7525 33.544C91.8965 33.208 92.1125 32.992 92.4005 32.896ZM117.754 35.2C117.322 35.12 116.962 35.08 116.674 35.08C116.018 35.08 115.466 35.216 115.018 35.488C114.794 35.632 114.53 36.12 114.226 36.952C113.938 37.768 113.794 38.424 113.794 38.92C113.794 39.72 114.05 40.368 114.562 40.864C115.09 41.344 115.778 41.592 116.626 41.608C117.314 41.608 117.954 41.416 118.546 41.032C119.154 40.648 119.594 40.144 119.866 39.52C120.042 39.12 120.13 38.664 120.13 38.152C120.13 37.528 120.01 36.984 119.77 36.52C119.594 36.152 119.354 35.872 119.05 35.68C118.746 35.488 118.314 35.328 117.754 35.2ZM115.042 32.632C115.602 32.488 116.154 32.416 116.698 32.416C117.722 32.416 118.818 32.672 119.986 33.184C120.818 33.552 121.474 34.2 121.954 35.128C122.45 36.056 122.706 37.152 122.722 38.416V38.56C122.722 40.464 121.874 42.008 120.178 43.192C119.122 43.944 117.946 44.32 116.65 44.32C115.578 44.32 114.586 44.056 113.674 43.528C112.762 42.984 112.074 42.224 111.61 41.248C111.45 40.912 111.346 40.624 111.298 40.384C111.266 40.144 111.25 39.64 111.25 38.872C111.266 37.736 111.386 36.84 111.61 36.184C112.138 34.728 112.762 33.744 113.482 33.232C113.77 33.024 114.29 32.824 115.042 32.632ZM128.743 32.872C129.031 32.824 129.327 32.8 129.631 32.8C130.591 32.8 131.447 33.016 132.199 33.448C132.951 33.88 133.327 34.376 133.327 34.936C133.327 35.08 133.303 35.208 133.255 35.32C133.015 35.928 132.655 36.232 132.175 36.232C131.823 36.232 131.423 36.12 130.975 35.896C130.463 35.64 129.991 35.512 129.559 35.512C129.095 35.512 128.711 35.664 128.407 35.968C128.247 36.128 128.167 36.256 128.167 36.352C128.167 36.48 128.287 36.632 128.527 36.808C128.783 36.968 129.247 37.224 129.919 37.576C131.023 38.152 131.767 38.624 132.151 38.992C132.519 39.312 132.839 39.712 133.111 40.192C133.383 40.656 133.519 41.048 133.519 41.368C133.519 41.736 133.423 42.104 133.231 42.472C133.039 42.84 132.799 43.12 132.511 43.312C131.775 43.808 130.879 44.056 129.823 44.056C128.831 44.056 127.807 43.824 126.751 43.36C126.255 43.12 125.943 42.848 125.815 42.544C125.719 42.32 125.671 42.12 125.671 41.944C125.671 41.624 125.823 41.312 126.127 41.008C126.335 40.768 126.615 40.648 126.967 40.648C127.303 40.648 127.711 40.752 128.191 40.96C128.719 41.184 129.327 41.296 130.015 41.296C130.335 41.296 130.495 41.256 130.495 41.176C130.495 40.984 129.807 40.544 128.431 39.856C127.359 39.296 126.575 38.744 126.079 38.2C125.583 37.64 125.335 37.024 125.335 36.352C125.335 35.552 125.663 34.816 126.319 34.144C126.991 33.456 127.799 33.032 128.743 32.872ZM139.836 27.64C140.108 27.368 140.436 27.232 140.82 27.232C141.108 27.232 141.364 27.32 141.588 27.496C141.828 27.656 141.996 27.888 142.092 28.192C142.14 28.368 142.22 29.2 142.332 30.688C142.444 32.16 142.5 33.184 142.5 33.76C142.5 33.904 142.532 33.992 142.596 34.024C142.676 34.056 142.86 34.072 143.148 34.072C143.58 34.072 143.828 34.024 143.892 33.928C143.924 33.848 144.252 33.808 144.876 33.808C145.676 33.808 146.204 33.864 146.46 33.976C146.7 34.088 146.884 34.304 147.012 34.624C147.124 34.848 147.18 35.032 147.18 35.176C147.18 35.288 147.156 35.424 147.108 35.584C146.996 35.952 146.788 36.2 146.484 36.328C146.196 36.44 145.62 36.52 144.756 36.568C143.78 36.616 143.148 36.68 142.86 36.76L142.476 36.856L142.572 40.24C142.604 41.744 142.62 42.552 142.62 42.664C142.62 43.368 142.564 43.84 142.452 44.08C142.212 44.592 141.82 44.848 141.276 44.848C141.068 44.848 140.852 44.8 140.628 44.704C140.452 44.624 140.324 44.552 140.244 44.488C140.164 44.408 140.092 44.208 140.028 43.888C139.964 43.552 139.924 43.16 139.908 42.712C139.892 42.264 139.876 41.528 139.86 40.504L139.812 37.024L139.092 37.048C138.66 37.08 138.276 37.144 137.94 37.24C137.86 37.272 137.732 37.288 137.556 37.288C137.012 37.288 136.62 37.12 136.38 36.784C136.252 36.576 136.188 36.296 136.188 35.944C136.188 35.64 136.236 35.4 136.332 35.224C136.556 34.824 137.34 34.52 138.684 34.312L139.788 34.144L139.692 32.032C139.628 30.528 139.572 29.504 139.524 28.96C139.492 28.576 139.476 28.368 139.476 28.336C139.476 28.112 139.596 27.88 139.836 27.64ZM160.955 28.144C161.211 27.984 161.451 27.904 161.675 27.904C161.851 27.904 162.051 27.952 162.275 28.048C162.611 28.208 162.827 28.456 162.923 28.792C163.019 29.128 163.083 29.928 163.115 31.192L163.187 33.568L164.291 33.496C164.419 33.48 164.603 33.472 164.843 33.472C165.419 33.472 165.827 33.576 166.067 33.784C166.323 33.992 166.451 34.328 166.451 34.792C166.451 35.288 166.283 35.64 165.947 35.848C165.627 36.056 165.003 36.2 164.075 36.28L163.067 36.376L162.899 39.712C162.787 41.968 162.683 43.216 162.587 43.456C162.379 43.936 161.979 44.176 161.387 44.176C161.051 44.176 160.787 44.088 160.595 43.912C160.387 43.752 160.243 43.576 160.163 43.384C160.083 43.192 160.043 42.88 160.043 42.448C160.043 42.096 160.067 41.568 160.115 40.864C160.195 39.6 160.251 38.52 160.283 37.624L160.307 36.496L159.227 36.472C158.619 36.456 158.203 36.408 157.979 36.328C157.755 36.232 157.563 36.04 157.403 35.752C157.307 35.56 157.259 35.36 157.259 35.152C157.259 34.768 157.419 34.432 157.739 34.144C157.915 33.984 158.139 33.88 158.411 33.832C158.683 33.768 159.187 33.704 159.923 33.64L160.307 33.592L160.403 31.048C160.419 30.664 160.427 30.248 160.427 29.8C160.443 29.336 160.451 28.992 160.451 28.768L160.475 28.432L160.547 28.384C160.595 28.352 160.659 28.312 160.739 28.264C160.819 28.216 160.891 28.176 160.955 28.144ZM169.501 33.112C169.741 32.872 170.045 32.752 170.413 32.752C170.909 32.752 171.253 32.92 171.445 33.256C171.653 33.576 171.981 34.48 172.429 35.968C172.557 36.384 172.717 36.92 172.909 37.576C173.453 39.304 173.765 40.184 173.845 40.216C173.941 40.216 174.157 39.736 174.493 38.776C175.037 37.144 175.485 36 175.837 35.344C176.205 34.688 176.637 34.256 177.133 34.048C177.373 33.936 177.613 33.88 177.853 33.88C178.205 33.88 178.525 34.048 178.813 34.384C179.117 34.704 179.453 35.248 179.821 36.016C181.229 39.008 181.973 40.504 182.053 40.504C182.085 40.504 182.269 40 182.605 38.992C182.957 37.968 183.325 36.912 183.709 35.824C184.109 34.736 184.373 34.12 184.501 33.976C184.757 33.688 185.061 33.544 185.413 33.544C185.797 33.544 186.149 33.712 186.469 34.048C186.645 34.224 186.733 34.456 186.733 34.744C186.733 35.208 186.365 36.52 185.629 38.68C184.861 40.936 184.269 42.416 183.853 43.12C183.437 43.808 182.917 44.152 182.293 44.152C182.101 44.152 181.957 44.144 181.861 44.128C181.349 44.048 180.909 43.784 180.541 43.336C180.173 42.888 179.637 41.928 178.933 40.456C178.149 38.824 177.733 38.008 177.685 38.008C177.637 38.008 177.493 38.344 177.253 39.016C176.485 41.224 175.941 42.656 175.621 43.312C175.301 43.968 174.965 44.376 174.613 44.536C174.341 44.648 174.021 44.704 173.653 44.704C173.333 44.704 173.085 44.664 172.909 44.584C172.589 44.424 172.205 43.784 171.757 42.664C171.309 41.544 170.677 39.624 169.861 36.904C169.397 35.368 169.165 34.384 169.165 33.952C169.165 33.616 169.277 33.336 169.501 33.112ZM195.871 35.2C195.439 35.12 195.079 35.08 194.791 35.08C194.135 35.08 193.583 35.216 193.135 35.488C192.911 35.632 192.647 36.12 192.343 36.952C192.055 37.768 191.911 38.424 191.911 38.92C191.911 39.72 192.167 40.368 192.679 40.864C193.207 41.344 193.895 41.592 194.743 41.608C195.431 41.608 196.071 41.416 196.663 41.032C197.271 40.648 197.711 40.144 197.983 39.52C198.159 39.12 198.247 38.664 198.247 38.152C198.247 37.528 198.127 36.984 197.887 36.52C197.711 36.152 197.471 35.872 197.167 35.68C196.863 35.488 196.431 35.328 195.871 35.2ZM193.159 32.632C193.719 32.488 194.271 32.416 194.815 32.416C195.839 32.416 196.935 32.672 198.103 33.184C198.935 33.552 199.591 34.2 200.071 35.128C200.567 36.056 200.823 37.152 200.839 38.416V38.56C200.839 40.464 199.991 42.008 198.295 43.192C197.239 43.944 196.063 44.32 194.767 44.32C193.695 44.32 192.703 44.056 191.791 43.528C190.879 42.984 190.191 42.224 189.727 41.248C189.567 40.912 189.463 40.624 189.415 40.384C189.383 40.144 189.367 39.64 189.367 38.872C189.383 37.736 189.503 36.84 189.727 36.184C190.255 34.728 190.879 33.744 191.599 33.232C191.887 33.024 192.407 32.824 193.159 32.632ZM211.518 33.256C211.534 33.256 211.558 33.256 211.59 33.256C211.638 33.24 211.67 33.232 211.686 33.232C212.102 33.232 212.438 33.376 212.694 33.664C212.806 33.808 213.022 34.248 213.342 34.984C213.678 35.72 213.886 36.152 213.966 36.28C214.078 36.44 214.43 37.112 215.022 38.296C215.55 39.336 215.846 39.856 215.91 39.856C216.006 39.856 216.078 39.736 216.126 39.496C216.158 39.368 216.398 38.576 216.846 37.12C217.294 35.664 217.534 34.864 217.566 34.72C217.694 33.984 217.942 33.544 218.31 33.4C218.566 33.304 218.814 33.256 219.054 33.256C219.614 33.256 219.998 33.512 220.206 34.024C220.286 34.216 220.326 34.4 220.326 34.576C220.326 35.024 219.926 36.44 219.126 38.824C218.646 40.28 218.278 41.456 218.022 42.352C217.766 43.232 217.422 44.352 216.99 45.712C216.302 47.872 215.926 49.168 215.862 49.6C215.75 50.32 215.438 50.752 214.926 50.896C214.766 50.944 214.614 50.968 214.47 50.968C213.958 50.968 213.59 50.768 213.366 50.368C213.238 50.144 213.174 49.872 213.174 49.552C213.174 48.896 213.478 47.664 214.086 45.856C214.614 44.272 214.878 43.448 214.878 43.384C214.878 43.32 214.766 43.16 214.542 42.904C214.238 42.584 213.534 41.352 212.43 39.208C211.342 37.048 210.702 35.632 210.51 34.96C210.478 34.8 210.462 34.68 210.462 34.6C210.462 34.28 210.558 33.992 210.75 33.736C210.958 33.48 211.214 33.32 211.518 33.256ZM229.552 36.208C229.264 36 228.808 35.896 228.184 35.896C227.8 35.896 227.496 35.944 227.272 36.04C227.064 36.136 226.824 36.336 226.552 36.64C226.296 36.928 226.168 37.136 226.168 37.264C226.168 37.376 226.288 37.432 226.528 37.432C226.848 37.416 227.512 37.344 228.52 37.216C229.528 37.088 230.048 37.008 230.08 36.976C230.096 36.96 230.104 36.936 230.104 36.904C230.104 36.728 229.92 36.496 229.552 36.208ZM226.96 33.28C227.248 33.2 227.6 33.16 228.016 33.16C228.864 33.16 229.592 33.28 230.2 33.52C230.696 33.696 231.184 34.04 231.664 34.552C232.16 35.048 232.568 35.608 232.888 36.232C233.208 36.872 233.368 37.304 233.368 37.528C233.368 38.04 233.144 38.52 232.696 38.968C232.216 39.4 230.72 39.72 228.208 39.928C227.248 40.008 226.624 40.072 226.336 40.12C226.048 40.168 225.904 40.24 225.904 40.336C225.904 40.416 226.048 40.584 226.336 40.84C226.832 41.32 227.72 41.608 229 41.704C229.128 41.72 229.296 41.728 229.504 41.728C229.84 41.728 230.24 41.648 230.704 41.488C231.36 41.248 231.88 41.128 232.264 41.128C232.84 41.128 233.216 41.416 233.392 41.992C233.44 42.136 233.464 42.272 233.464 42.4C233.464 42.944 233.12 43.392 232.432 43.744C231.76 44.08 230.808 44.272 229.576 44.32C229.512 44.32 229.424 44.328 229.312 44.344C229.2 44.344 229.12 44.344 229.072 44.344C227.712 44.344 226.536 44.08 225.544 43.552C224.568 43.008 223.832 42.24 223.336 41.248C223.096 40.768 222.976 40.128 222.976 39.328C222.976 38.528 223.056 37.896 223.216 37.432C223.616 36.232 224.112 35.312 224.704 34.672C225.296 34.016 226.048 33.552 226.96 33.28ZM244.406 36.424C243.942 35.96 243.222 35.728 242.246 35.728C241.766 35.728 241.342 35.808 240.974 35.968C240.622 36.128 240.238 36.44 239.822 36.904C239.406 37.368 239.134 37.792 239.006 38.176C238.862 38.592 238.79 38.984 238.79 39.352C238.79 40.2 239.126 40.8 239.798 41.152C240.198 41.36 240.718 41.464 241.358 41.464C241.79 41.464 242.118 41.408 242.342 41.296C243.638 40.64 244.43 39.464 244.718 37.768L244.862 36.856L244.406 36.424ZM240.758 33.16C241.142 33.048 241.59 32.992 242.102 32.992C242.966 32.992 243.814 33.144 244.646 33.448C245.478 33.752 246.054 34.136 246.374 34.6C246.598 34.92 246.886 35.256 247.238 35.608C247.622 36.008 247.974 36.696 248.294 37.672C248.598 38.6 248.878 39.632 249.134 40.768C249.406 41.904 249.542 42.672 249.542 43.072C249.542 43.472 249.422 43.784 249.182 44.008C248.878 44.296 248.59 44.44 248.318 44.44C248.206 44.44 248.062 44.416 247.886 44.368C247.582 44.256 247.342 44.064 247.166 43.792C247.006 43.52 246.862 43.08 246.734 42.472C246.574 41.752 246.486 41.392 246.47 41.392C246.406 41.392 246.07 41.696 245.462 42.304C244.262 43.472 243.014 44.104 241.718 44.2H241.382C240.598 44.2 239.83 44.064 239.078 43.792C238.342 43.52 237.758 43.16 237.326 42.712C237.102 42.488 236.878 42.152 236.654 41.704C236.43 41.24 236.278 40.816 236.198 40.432C236.118 40.032 236.078 39.672 236.078 39.352C236.078 38.024 236.526 36.752 237.422 35.536C238.334 34.32 239.446 33.528 240.758 33.16ZM252.562 33.496C252.85 33.256 253.162 33.136 253.498 33.136C253.85 33.136 254.154 33.264 254.41 33.52C254.666 33.76 254.794 34.072 254.794 34.456C254.794 34.84 254.866 35.032 255.01 35.032C255.09 35.032 255.258 34.944 255.514 34.768C256.698 33.952 257.874 33.544 259.042 33.544C259.538 33.544 260.026 33.632 260.506 33.808C260.938 33.984 261.242 34.176 261.418 34.384C261.594 34.592 261.682 34.872 261.682 35.224C261.682 35.608 261.538 35.936 261.25 36.208C261.01 36.432 260.794 36.544 260.602 36.544C260.538 36.544 260.09 36.488 259.258 36.376C259.162 36.36 259.026 36.352 258.85 36.352C258.594 36.352 258.266 36.44 257.866 36.616C256.826 37.096 256.098 37.704 255.682 38.44C255.266 39.176 255.058 40.232 255.058 41.608C255.042 42.616 254.922 43.32 254.698 43.72C254.49 44.12 254.114 44.32 253.57 44.32C253.202 44.32 252.89 44.192 252.634 43.936L252.25 43.552L252.202 39.304C252.17 36.168 252.154 34.552 252.154 34.456C252.154 34.072 252.29 33.752 252.562 33.496ZM266.936 32.656C267.224 32.576 267.672 32.536 268.28 32.536C269.56 32.536 270.488 32.632 271.064 32.824C271.864 33.08 272.264 33.52 272.264 34.144C272.264 34.512 272.088 34.848 271.736 35.152C271.496 35.376 271.264 35.488 271.04 35.488C271.024 35.488 270.992 35.488 270.944 35.488C270.896 35.472 270.856 35.464 270.824 35.464C269.768 35.288 268.936 35.2 268.328 35.2C268.136 35.2 267.96 35.216 267.8 35.248C267.304 35.376 267.056 35.608 267.056 35.944C267.056 36.008 267.064 36.056 267.08 36.088C267.192 36.408 267.824 36.808 268.976 37.288C271.04 38.152 272.312 39.224 272.792 40.504C272.936 40.888 273.008 41.248 273.008 41.584C273.008 42.176 272.792 42.68 272.36 43.096C271.944 43.512 271.352 43.792 270.584 43.936C270.264 44 269.736 44.032 269 44.032C267.656 44.032 266.8 43.952 266.432 43.792C266.224 43.696 266.048 43.536 265.904 43.312C265.76 43.072 265.688 42.84 265.688 42.616C265.688 42.376 265.768 42.136 265.928 41.896C266.088 41.64 266.28 41.464 266.504 41.368C266.712 41.288 266.96 41.248 267.248 41.248C267.36 41.248 267.608 41.264 267.992 41.296C268.248 41.328 268.592 41.344 269.024 41.344C269.696 41.344 270.032 41.264 270.032 41.104C270.032 40.816 269.336 40.384 267.944 39.808C266.696 39.264 265.776 38.696 265.184 38.104C264.608 37.496 264.32 36.808 264.32 36.04C264.32 35.912 264.336 35.72 264.368 35.464C264.496 34.68 264.816 34.056 265.328 33.592C265.744 33.176 266.28 32.864 266.936 32.656ZM290.118 36.112C289.814 36.032 289.318 35.96 288.63 35.896C288.182 35.864 287.942 35.848 287.91 35.848C287.686 35.848 287.462 35.968 287.238 36.208C286.598 36.864 286.254 37.752 286.206 38.872C286.206 38.936 286.198 39.024 286.182 39.136C286.182 39.232 286.182 39.304 286.182 39.352C286.182 39.72 286.278 40.064 286.47 40.384C286.982 41.296 287.886 41.752 289.182 41.752C289.726 41.736 290.278 41.552 290.838 41.2C291.414 40.832 291.83 40.392 292.086 39.88C292.23 39.576 292.302 39.248 292.302 38.896C292.302 38.304 292.094 37.744 291.678 37.216C291.278 36.672 290.758 36.304 290.118 36.112ZM286.47 33.424C286.838 33.216 287.206 33.112 287.574 33.112C287.654 33.112 287.95 33.128 288.462 33.16C289.982 33.24 291.206 33.56 292.134 34.12C293.062 34.68 293.806 35.544 294.366 36.712C294.798 37.608 295.014 38.464 295.014 39.28C295.014 39.536 294.99 39.76 294.942 39.952C294.686 40.944 294.126 41.848 293.262 42.664C292.398 43.48 291.446 44.024 290.406 44.296C289.862 44.424 289.43 44.488 289.11 44.488C288.79 44.488 288.358 44.424 287.814 44.296C286.166 43.864 284.982 43.08 284.262 41.944C283.702 41.064 283.422 40.136 283.422 39.16C283.422 38.184 283.686 37.144 284.214 36.04C284.822 34.744 285.574 33.872 286.47 33.424ZM305.664 26.824C305.952 26.792 306.168 26.776 306.312 26.776C307.464 26.776 308.328 27.064 308.904 27.64C309.256 28.008 309.432 28.4 309.432 28.816C309.432 29.168 309.304 29.472 309.048 29.728C308.808 29.968 308.504 30.088 308.136 30.088C307.8 30.088 307.472 29.976 307.152 29.752C306.864 29.544 306.6 29.44 306.36 29.44C305.976 29.44 305.616 29.712 305.28 30.256C304.944 30.8 304.736 31.44 304.656 32.176C304.624 32.432 304.608 32.584 304.608 32.632C304.608 32.84 304.712 32.976 304.92 33.04C305.128 33.088 305.616 33.12 306.384 33.136C306.512 33.136 306.616 33.136 306.696 33.136C307.432 33.168 307.872 33.2 308.016 33.232C308.176 33.264 308.336 33.368 308.496 33.544C308.704 33.768 308.808 34.056 308.808 34.408C308.808 34.776 308.696 35.08 308.472 35.32L308.136 35.728H304.344L304.272 36.064C304.256 36.112 304.248 36.376 304.248 36.856C304.248 39.064 304.312 41.024 304.44 42.736C304.44 42.8 304.44 42.888 304.44 43C304.456 43.112 304.464 43.192 304.464 43.24C304.464 43.656 304.408 43.96 304.296 44.152C304.184 44.344 303.984 44.512 303.696 44.656C303.504 44.752 303.296 44.8 303.072 44.8C302.624 44.8 302.28 44.632 302.04 44.296C301.912 44.104 301.792 43.4 301.68 42.184C301.584 40.952 301.536 39.744 301.536 38.56C301.536 38.016 301.544 37.624 301.56 37.384L301.632 35.704L300.072 35.776C299.336 35.808 298.952 35.824 298.92 35.824C298.616 35.824 298.36 35.744 298.152 35.584C297.848 35.312 297.696 34.952 297.696 34.504C297.696 34.312 297.728 34.144 297.792 34C297.904 33.712 298.136 33.504 298.488 33.376C298.84 33.248 299.424 33.16 300.24 33.112C301.248 33.048 301.76 33 301.776 32.968C301.808 32.936 301.896 32.48 302.04 31.6C302.296 29.952 302.872 28.696 303.768 27.832C304.104 27.496 304.384 27.264 304.608 27.136C304.848 27.008 305.2 26.904 305.664 26.824ZM320.849 32.008C321.073 31.976 321.201 31.952 321.233 31.936C321.313 31.936 321.497 31.992 321.785 32.104C322.009 32.2 322.209 32.392 322.385 32.68C322.561 32.968 322.649 33.248 322.649 33.52C322.649 33.728 322.689 33.888 322.769 34C322.833 34.08 322.889 34.112 322.937 34.096C322.985 34.08 323.097 34 323.273 33.856C323.993 33.248 324.873 32.872 325.913 32.728C326.233 32.696 326.457 32.68 326.585 32.68C327.401 32.68 328.097 32.976 328.673 33.568L329.225 34.12L329.921 33.568C331.057 32.656 332.161 32.2 333.233 32.2C333.601 32.2 333.929 32.256 334.217 32.368C334.537 32.496 334.881 32.744 335.249 33.112C335.633 33.464 335.921 33.84 336.113 34.24C336.689 35.408 337.065 37.584 337.241 40.768C337.273 41.568 337.289 42.008 337.289 42.088C337.289 42.504 337.233 42.816 337.121 43.024C336.881 43.488 336.513 43.72 336.017 43.72C335.665 43.72 335.353 43.592 335.081 43.336L334.649 42.976L334.529 40.744C334.353 37.416 333.953 35.488 333.329 34.96C333.233 34.896 333.153 34.864 333.089 34.864C332.961 34.864 332.729 34.952 332.393 35.128C331.561 35.528 330.969 36.208 330.617 37.168C330.425 37.664 330.297 38.696 330.233 40.264C330.153 41.848 330.073 42.728 329.993 42.904C329.737 43.352 329.329 43.576 328.769 43.576C328.465 43.576 328.193 43.48 327.953 43.288C327.601 43 327.425 42.296 327.425 41.176C327.425 40.664 327.433 40.24 327.449 39.904C327.449 39.792 327.449 39.64 327.449 39.448C327.465 39.24 327.473 39.088 327.473 38.992C327.473 37.424 327.297 36.336 326.945 35.728C326.801 35.472 326.657 35.344 326.513 35.344C326.497 35.344 326.393 35.36 326.201 35.392C325.177 35.584 324.313 36.408 323.609 37.864C323.321 38.472 323.177 39.112 323.177 39.784C323.177 40.36 323.225 41.064 323.321 41.896C323.369 42.232 323.393 42.512 323.393 42.736C323.393 43.344 323.129 43.776 322.601 44.032C322.377 44.144 322.201 44.2 322.073 44.2C321.977 44.2 321.825 44.16 321.617 44.08C321.217 43.936 320.953 43.664 320.825 43.264C320.697 42.848 320.593 41.96 320.513 40.6C320.401 38.28 320.209 35.888 319.937 33.424C319.937 33.392 319.929 33.344 319.913 33.28C319.913 33.216 319.913 33.176 319.913 33.16C319.913 32.936 320.009 32.704 320.201 32.464C320.441 32.192 320.657 32.04 320.849 32.008ZM348.882 32.704C349.042 32.656 349.162 32.632 349.242 32.632C349.306 32.632 349.49 32.696 349.794 32.824C350.114 32.952 350.338 33.168 350.466 33.472C350.53 33.6 350.562 33.744 350.562 33.904C350.562 34.144 350.37 34.872 349.986 36.088C349.282 38.344 348.394 40.608 347.322 42.88C346.826 43.968 346.066 45.376 345.042 47.104C344.018 48.848 343.394 49.784 343.17 49.912C342.914 50.072 342.65 50.152 342.378 50.152C342.01 50.152 341.69 50.024 341.418 49.768C341.162 49.528 341.034 49.208 341.034 48.808C341.034 48.52 341.29 47.976 341.802 47.176C342.202 46.552 342.722 45.672 343.362 44.536C344.002 43.384 344.322 42.768 344.322 42.688C344.322 42.64 344.146 42.32 343.794 41.728C343.634 41.472 343.066 40.432 342.09 38.608C341.13 36.768 340.546 35.704 340.338 35.416C340.082 35.048 339.954 34.68 339.954 34.312C339.954 33.784 340.21 33.408 340.722 33.184C340.914 33.104 341.082 33.064 341.226 33.064C341.562 33.064 341.89 33.256 342.21 33.64C342.53 34.008 342.938 34.648 343.434 35.56C344.506 37.544 345.234 38.84 345.618 39.448C345.698 39.56 345.746 39.616 345.762 39.616C345.826 39.616 345.986 39.272 346.242 38.584C346.61 37.576 346.978 36.504 347.346 35.368C347.666 34.344 347.922 33.664 348.114 33.328C348.322 32.992 348.578 32.784 348.882 32.704ZM4.064 55.144C4.32 54.984 4.56 54.904 4.784 54.904C4.96 54.904 5.16 54.952 5.384 55.048C5.72 55.208 5.936 55.456 6.032 55.792C6.128 56.128 6.192 56.928 6.224 58.192L6.296 60.568L7.4 60.496C7.528 60.48 7.712 60.472 7.952 60.472C8.528 60.472 8.936 60.576 9.176 60.784C9.432 60.992 9.56 61.328 9.56 61.792C9.56 62.288 9.392 62.64 9.056 62.848C8.736 63.056 8.112 63.2 7.184 63.28L6.176 63.376L6.008 66.712C5.896 68.968 5.792 70.216 5.696 70.456C5.488 70.936 5.088 71.176 4.496 71.176C4.16 71.176 3.896 71.088 3.704 70.912C3.496 70.752 3.352 70.576 3.272 70.384C3.192 70.192 3.152 69.88 3.152 69.448C3.152 69.096 3.176 68.568 3.224 67.864C3.304 66.6 3.36 65.52 3.392 64.624L3.416 63.496L2.336 63.472C1.728 63.456 1.312 63.408 1.088 63.328C0.864 63.232 0.672 63.04 0.512 62.752C0.416 62.56 0.368 62.36 0.368 62.152C0.368 61.768 0.528 61.432 0.848 61.144C1.024 60.984 1.248 60.88 1.52 60.832C1.792 60.768 2.296 60.704 3.032 60.64L3.416 60.592L3.512 58.048C3.528 57.664 3.536 57.248 3.536 56.8C3.552 56.336 3.56 55.992 3.56 55.768L3.584 55.432L3.656 55.384C3.704 55.352 3.768 55.312 3.848 55.264C3.928 55.216 4 55.176 4.064 55.144ZM13.0183 59.56C13.3063 59.432 13.4903 59.368 13.5703 59.368C13.6343 59.368 13.8183 59.432 14.1223 59.56C14.4103 59.672 14.6343 59.912 14.7943 60.28C14.9703 60.648 15.2023 61.392 15.4903 62.512C16.2743 65.6 16.7543 67.232 16.9303 67.408H16.9543C17.0183 67.408 17.2583 66.936 17.6743 65.992C18.0903 65.032 18.5703 64.048 19.1143 63.04C19.6743 62.016 20.1463 61.448 20.5303 61.336C20.6903 61.288 20.8663 61.264 21.0583 61.264C21.6663 61.264 22.1143 61.432 22.4023 61.768C22.5943 61.992 22.8903 62.616 23.2903 63.64C24.2023 65.912 24.7063 67.048 24.8023 67.048H24.8263C24.8743 67.016 25.1623 66.232 25.6903 64.696C26.2183 63.096 26.5783 62.088 26.7703 61.672C26.9783 61.256 27.2343 60.984 27.5383 60.856C27.7463 60.76 27.9623 60.712 28.1863 60.712C28.2663 60.712 28.3223 60.72 28.3543 60.736C28.6103 60.8 28.8503 60.96 29.0743 61.216C29.3143 61.472 29.4343 61.712 29.4343 61.936C29.4343 62.192 29.0663 63.328 28.3303 65.344C27.6103 67.36 27.0743 68.736 26.7223 69.472C26.3543 70.24 26.0503 70.744 25.8103 70.984C25.5703 71.208 25.2503 71.32 24.8503 71.32C24.2743 71.32 23.8583 71.168 23.6023 70.864C23.3623 70.544 22.9143 69.624 22.2583 68.104C21.4743 66.328 21.0423 65.44 20.9623 65.44C20.8823 65.44 20.5223 66.16 19.8823 67.6C19.1143 69.344 18.5703 70.432 18.2503 70.864C17.9303 71.28 17.4823 71.488 16.9062 71.488H16.7863C16.2423 71.472 15.8903 71.384 15.7303 71.224C15.1223 70.712 14.2023 68.16 12.9703 63.568C12.5063 61.84 12.2743 60.84 12.2743 60.568C12.2743 60.424 12.3063 60.288 12.3703 60.16C12.5143 59.856 12.7303 59.656 13.0183 59.56ZM39.4938 63.856C39.2058 63.712 38.7978 63.64 38.2698 63.64C37.6938 63.64 37.2058 63.728 36.8058 63.904C36.5338 64.016 36.1818 64.264 35.7498 64.648C35.3178 65.016 35.1018 65.256 35.1018 65.368C35.1018 65.416 35.3498 65.44 35.8458 65.44C36.5818 65.44 37.4618 65.4 38.4858 65.32C39.5098 65.24 40.0938 65.152 40.2378 65.056C40.2858 65.04 40.3098 64.992 40.3098 64.912C40.3098 64.768 40.2218 64.584 40.0458 64.36C39.8698 64.12 39.6858 63.952 39.4938 63.856ZM36.6618 61.072C37.0618 60.96 37.5338 60.904 38.0778 60.904C39.0858 60.904 40.0058 61.104 40.8378 61.504C41.4618 61.824 41.9818 62.312 42.3978 62.968C42.8138 63.608 43.0698 64.328 43.1658 65.128C43.1658 65.16 43.1658 65.208 43.1658 65.272C43.1818 65.336 43.1898 65.384 43.1898 65.416C43.1898 65.832 43.1098 66.24 42.9498 66.64C42.8058 67.04 42.6298 67.312 42.4218 67.456C42.1498 67.648 40.2378 67.888 36.6858 68.176C35.9338 68.24 35.5578 68.312 35.5578 68.392C35.5578 68.488 35.7258 68.64 36.0618 68.848C36.3978 69.056 36.7258 69.2 37.0458 69.28C37.3338 69.344 37.5658 69.376 37.7418 69.376C38.2538 69.376 38.9178 69.208 39.7338 68.872C40.3098 68.632 40.7338 68.512 41.0058 68.512C41.2778 68.512 41.5338 68.632 41.7738 68.872C42.0938 69.192 42.2538 69.496 42.2538 69.784C42.2538 69.976 42.2058 70.176 42.1098 70.384C42.0298 70.576 41.9178 70.728 41.7738 70.84C41.6458 70.952 41.4058 71.088 41.0538 71.248C39.8858 71.76 38.7978 72.016 37.7898 72.016C37.2138 72.016 36.6218 71.928 36.0138 71.752C35.1978 71.496 34.4538 71.064 33.7818 70.456C33.1098 69.832 32.6298 69.144 32.3418 68.392C32.1658 67.896 32.0778 67.344 32.0778 66.736C32.0778 65.856 32.2218 65.12 32.5098 64.528C32.8458 63.792 33.4138 63.088 34.2138 62.416C35.0138 61.744 35.8298 61.296 36.6618 61.072ZM46.4362 60.304C46.6282 60.208 46.8282 60.16 47.0362 60.16C47.3242 60.16 47.5962 60.256 47.8522 60.448C48.1082 60.624 48.2842 60.864 48.3802 61.168L48.5242 61.672L49.1242 61.312C49.5242 61.072 50.0762 60.952 50.7802 60.952C51.4682 60.952 52.0362 61.064 52.4842 61.288C52.8522 61.464 53.2442 61.752 53.6602 62.152C54.0922 62.552 54.4362 62.952 54.6922 63.352C55.5562 64.712 56.0282 66.824 56.1082 69.688V70.168C56.1082 70.552 55.9962 70.864 55.7722 71.104C55.5002 71.376 55.1802 71.512 54.8122 71.512C54.2202 71.512 53.8282 71.256 53.6362 70.744C53.5402 70.472 53.4602 69.936 53.3962 69.136C53.2042 66.336 52.5802 64.584 51.5242 63.88C51.3002 63.736 51.0762 63.664 50.8522 63.664C50.4362 63.664 50.0602 63.896 49.7242 64.36C49.4042 64.808 49.1482 65.448 48.9562 66.28C48.8762 66.648 48.7802 67.312 48.6682 68.272C48.5562 69.232 48.5002 69.88 48.5002 70.216C48.5002 70.376 48.3642 70.592 48.0922 70.864C47.8202 71.12 47.5082 71.248 47.1562 71.248C46.5002 71.248 46.0682 70.904 45.8602 70.216C45.7642 69.88 45.7162 68.424 45.7162 65.848C45.7162 62.776 45.7722 61.104 45.8842 60.832C45.9802 60.624 46.1642 60.448 46.4362 60.304ZM62.5171 55.144C62.7731 54.984 63.0131 54.904 63.2371 54.904C63.4131 54.904 63.6131 54.952 63.8371 55.048C64.1731 55.208 64.3891 55.456 64.4851 55.792C64.5811 56.128 64.6451 56.928 64.6771 58.192L64.7491 60.568L65.8531 60.496C65.9811 60.48 66.1651 60.472 66.4051 60.472C66.9811 60.472 67.3891 60.576 67.6291 60.784C67.8851 60.992 68.0131 61.328 68.0131 61.792C68.0131 62.288 67.8451 62.64 67.5091 62.848C67.1891 63.056 66.5651 63.2 65.6371 63.28L64.6291 63.376L64.4611 66.712C64.3491 68.968 64.2451 70.216 64.1491 70.456C63.9411 70.936 63.5411 71.176 62.9491 71.176C62.6131 71.176 62.3491 71.088 62.1571 70.912C61.9491 70.752 61.8051 70.576 61.7251 70.384C61.6451 70.192 61.6051 69.88 61.6051 69.448C61.6051 69.096 61.6291 68.568 61.6771 67.864C61.7571 66.6 61.8131 65.52 61.8451 64.624L61.8691 63.496L60.7891 63.472C60.1811 63.456 59.7651 63.408 59.5411 63.328C59.3171 63.232 59.1251 63.04 58.9651 62.752C58.8691 62.56 58.8211 62.36 58.8211 62.152C58.8211 61.768 58.9811 61.432 59.3011 61.144C59.4771 60.984 59.7011 60.88 59.9731 60.832C60.2451 60.768 60.7491 60.704 61.4851 60.64L61.8691 60.592L61.9651 58.048C61.9811 57.664 61.9891 57.248 61.9891 56.8C62.0051 56.336 62.0131 55.992 62.0131 55.768L62.0371 55.432L62.1091 55.384C62.1571 55.352 62.2211 55.312 62.3011 55.264C62.3811 55.216 62.4531 55.176 62.5171 55.144ZM71.7594 60.592C71.8234 60.576 71.9194 60.568 72.0474 60.568C72.3994 60.568 72.7114 60.68 72.9834 60.904C73.2554 61.128 73.4154 61.416 73.4634 61.768C73.5274 62.12 73.5594 63.632 73.5594 66.304L73.5834 70.36L73.1754 70.744C72.9034 71.016 72.5834 71.152 72.2154 71.152C71.8794 71.152 71.5914 71.032 71.3514 70.792C71.1914 70.632 71.0794 70.472 71.0154 70.312C70.9674 70.136 70.9274 69.8 70.8954 69.304C70.8474 68.68 70.8234 67.176 70.8234 64.792L70.7994 61.432L71.1354 61.024C71.3754 60.768 71.5834 60.624 71.7594 60.592ZM71.3274 55.816C71.5354 55.704 71.7514 55.648 71.9754 55.648C72.3434 55.648 72.6554 55.784 72.9114 56.056C73.1674 56.328 73.2954 56.64 73.2954 56.992C73.2954 57.296 73.1754 57.592 72.9354 57.88C72.6314 58.2 72.2954 58.36 71.9274 58.36C71.5754 58.36 71.2634 58.24 70.9914 58C70.7354 57.744 70.6074 57.44 70.6074 57.088C70.6074 56.88 70.6554 56.672 70.7514 56.464C70.8954 56.16 71.0874 55.944 71.3274 55.816ZM83.5798 63.856C83.2918 63.712 82.8838 63.64 82.3558 63.64C81.7798 63.64 81.2918 63.728 80.8918 63.904C80.6198 64.016 80.2678 64.264 79.8358 64.648C79.4038 65.016 79.1878 65.256 79.1878 65.368C79.1878 65.416 79.4358 65.44 79.9318 65.44C80.6678 65.44 81.5478 65.4 82.5718 65.32C83.5958 65.24 84.1798 65.152 84.3238 65.056C84.3718 65.04 84.3958 64.992 84.3958 64.912C84.3958 64.768 84.3078 64.584 84.1318 64.36C83.9558 64.12 83.7718 63.952 83.5798 63.856ZM80.7478 61.072C81.1478 60.96 81.6198 60.904 82.1638 60.904C83.1718 60.904 84.0918 61.104 84.9238 61.504C85.5478 61.824 86.0678 62.312 86.4838 62.968C86.8998 63.608 87.1558 64.328 87.2518 65.128C87.2518 65.16 87.2518 65.208 87.2518 65.272C87.2678 65.336 87.2758 65.384 87.2758 65.416C87.2758 65.832 87.1958 66.24 87.0358 66.64C86.8918 67.04 86.7158 67.312 86.5078 67.456C86.2358 67.648 84.3238 67.888 80.7718 68.176C80.0198 68.24 79.6438 68.312 79.6438 68.392C79.6438 68.488 79.8118 68.64 80.1478 68.848C80.4838 69.056 80.8118 69.2 81.1318 69.28C81.4198 69.344 81.6518 69.376 81.8278 69.376C82.3398 69.376 83.0038 69.208 83.8198 68.872C84.3958 68.632 84.8198 68.512 85.0918 68.512C85.3638 68.512 85.6198 68.632 85.8598 68.872C86.1798 69.192 86.3398 69.496 86.3398 69.784C86.3398 69.976 86.2918 70.176 86.1958 70.384C86.1158 70.576 86.0038 70.728 85.8598 70.84C85.7318 70.952 85.4918 71.088 85.1398 71.248C83.9718 71.76 82.8838 72.016 81.8758 72.016C81.2998 72.016 80.7078 71.928 80.0998 71.752C79.2838 71.496 78.5398 71.064 77.8678 70.456C77.1958 69.832 76.7158 69.144 76.4277 68.392C76.2518 67.896 76.1638 67.344 76.1638 66.736C76.1638 65.856 76.3078 65.12 76.5958 64.528C76.9318 63.792 77.4998 63.088 78.2998 62.416C79.0998 61.744 79.9158 61.296 80.7478 61.072ZM93.2821 59.872C93.5701 59.824 93.8661 59.8 94.1701 59.8C95.1301 59.8 95.9861 60.016 96.7381 60.448C97.4901 60.88 97.8661 61.376 97.8661 61.936C97.8661 62.08 97.8421 62.208 97.7941 62.32C97.5541 62.928 97.1941 63.232 96.7141 63.232C96.3621 63.232 95.9621 63.12 95.5141 62.896C95.0021 62.64 94.5301 62.512 94.0981 62.512C93.6341 62.512 93.2501 62.664 92.9461 62.968C92.7861 63.128 92.7061 63.256 92.7061 63.352C92.7061 63.48 92.8261 63.632 93.0661 63.808C93.3221 63.968 93.7861 64.224 94.4581 64.576C95.5621 65.152 96.3061 65.624 96.6901 65.992C97.0581 66.312 97.3781 66.712 97.6501 67.192C97.9221 67.656 98.0581 68.048 98.0581 68.368C98.0581 68.736 97.9621 69.104 97.7701 69.472C97.5781 69.84 97.3381 70.12 97.0501 70.312C96.3141 70.808 95.4181 71.056 94.3621 71.056C93.3701 71.056 92.3461 70.824 91.2901 70.36C90.7941 70.12 90.4821 69.848 90.3541 69.544C90.2581 69.32 90.2101 69.12 90.2101 68.944C90.2101 68.624 90.3621 68.312 90.6661 68.008C90.8741 67.768 91.1541 67.648 91.5061 67.648C91.8421 67.648 92.2501 67.752 92.7301 67.96C93.2581 68.184 93.8661 68.296 94.5541 68.296C94.8741 68.296 95.0341 68.256 95.0341 68.176C95.0341 67.984 94.3461 67.544 92.9701 66.856C91.8981 66.296 91.1141 65.744 90.6181 65.2C90.1221 64.64 89.8741 64.024 89.8741 63.352C89.8741 62.552 90.2021 61.816 90.8581 61.144C91.5301 60.456 92.3381 60.032 93.2821 59.872ZM111.711 54.64C111.983 54.368 112.311 54.232 112.695 54.232C112.983 54.232 113.239 54.32 113.463 54.496C113.703 54.656 113.871 54.888 113.967 55.192C114.015 55.368 114.095 56.2 114.207 57.688C114.319 59.16 114.375 60.184 114.375 60.76C114.375 60.904 114.407 60.992 114.471 61.024C114.551 61.056 114.735 61.072 115.023 61.072C115.455 61.072 115.703 61.024 115.767 60.928C115.799 60.848 116.127 60.808 116.751 60.808C117.551 60.808 118.079 60.864 118.335 60.976C118.575 61.088 118.759 61.304 118.887 61.624C118.999 61.848 119.055 62.032 119.055 62.176C119.055 62.288 119.031 62.424 118.983 62.584C118.871 62.952 118.663 63.2 118.359 63.328C118.071 63.44 117.495 63.52 116.631 63.568C115.655 63.616 115.023 63.68 114.735 63.76L114.351 63.856L114.447 67.24C114.479 68.744 114.495 69.552 114.495 69.664C114.495 70.368 114.439 70.84 114.327 71.08C114.087 71.592 113.695 71.848 113.151 71.848C112.943 71.848 112.727 71.8 112.503 71.704C112.327 71.624 112.199 71.552 112.119 71.488C112.039 71.408 111.967 71.208 111.903 70.888C111.839 70.552 111.799 70.16 111.783 69.712C111.767 69.264 111.751 68.528 111.735 67.504L111.687 64.024L110.967 64.048C110.535 64.08 110.151 64.144 109.815 64.24C109.735 64.272 109.607 64.288 109.431 64.288C108.887 64.288 108.495 64.12 108.255 63.784C108.127 63.576 108.063 63.296 108.063 62.944C108.063 62.64 108.111 62.4 108.207 62.224C108.431 61.824 109.215 61.52 110.559 61.312L111.663 61.144L111.567 59.032C111.503 57.528 111.447 56.504 111.399 55.96C111.367 55.576 111.351 55.368 111.351 55.336C111.351 55.112 111.471 54.88 111.711 54.64ZM128.254 62.2C127.822 62.12 127.462 62.08 127.174 62.08C126.518 62.08 125.966 62.216 125.518 62.488C125.294 62.632 125.03 63.12 124.726 63.952C124.438 64.768 124.294 65.424 124.294 65.92C124.294 66.72 124.55 67.368 125.062 67.864C125.59 68.344 126.278 68.592 127.126 68.608C127.814 68.608 128.454 68.416 129.046 68.032C129.654 67.648 130.094 67.144 130.366 66.52C130.542 66.12 130.63 65.664 130.63 65.152C130.63 64.528 130.51 63.984 130.27 63.52C130.094 63.152 129.854 62.872 129.55 62.68C129.246 62.488 128.814 62.328 128.254 62.2ZM125.542 59.632C126.102 59.488 126.654 59.416 127.198 59.416C128.222 59.416 129.318 59.672 130.486 60.184C131.318 60.552 131.974 61.2 132.454 62.128C132.95 63.056 133.206 64.152 133.222 65.416V65.56C133.222 67.464 132.374 69.008 130.678 70.192C129.622 70.944 128.446 71.32 127.15 71.32C126.078 71.32 125.086 71.056 124.174 70.528C123.262 69.984 122.574 69.224 122.11 68.248C121.95 67.912 121.846 67.624 121.798 67.384C121.766 67.144 121.75 66.64 121.75 65.872C121.766 64.736 121.886 63.84 122.11 63.184C122.638 61.728 123.262 60.744 123.982 60.232C124.27 60.024 124.79 59.824 125.542 59.632ZM146.891 54.64C147.163 54.368 147.491 54.232 147.875 54.232C148.163 54.232 148.419 54.32 148.643 54.496C148.883 54.656 149.051 54.888 149.147 55.192C149.195 55.368 149.275 56.2 149.387 57.688C149.499 59.16 149.555 60.184 149.555 60.76C149.555 60.904 149.587 60.992 149.651 61.024C149.731 61.056 149.915 61.072 150.203 61.072C150.635 61.072 150.883 61.024 150.947 60.928C150.979 60.848 151.307 60.808 151.931 60.808C152.731 60.808 153.259 60.864 153.515 60.976C153.755 61.088 153.939 61.304 154.067 61.624C154.179 61.848 154.235 62.032 154.235 62.176C154.235 62.288 154.211 62.424 154.163 62.584C154.051 62.952 153.843 63.2 153.539 63.328C153.251 63.44 152.675 63.52 151.811 63.568C150.835 63.616 150.203 63.68 149.915 63.76L149.531 63.856L149.627 67.24C149.659 68.744 149.675 69.552 149.675 69.664C149.675 70.368 149.619 70.84 149.507 71.08C149.267 71.592 148.875 71.848 148.331 71.848C148.123 71.848 147.907 71.8 147.683 71.704C147.507 71.624 147.379 71.552 147.299 71.488C147.219 71.408 147.147 71.208 147.083 70.888C147.019 70.552 146.979 70.16 146.963 69.712C146.947 69.264 146.931 68.528 146.915 67.504L146.867 64.024L146.147 64.048C145.715 64.08 145.331 64.144 144.995 64.24C144.915 64.272 144.787 64.288 144.611 64.288C144.067 64.288 143.675 64.12 143.435 63.784C143.307 63.576 143.243 63.296 143.243 62.944C143.243 62.64 143.291 62.4 143.387 62.224C143.611 61.824 144.395 61.52 145.739 61.312L146.843 61.144L146.747 59.032C146.683 57.528 146.627 56.504 146.579 55.96C146.547 55.576 146.531 55.368 146.531 55.336C146.531 55.112 146.651 54.88 146.891 54.64ZM157.457 54.664C157.729 54.44 158.009 54.328 158.297 54.328C158.873 54.328 159.297 54.68 159.569 55.384C159.681 55.704 159.801 56.472 159.929 57.688C160.057 58.888 160.161 60.008 160.241 61.048C160.321 62.072 160.369 62.584 160.385 62.584C160.417 62.584 160.681 62.408 161.177 62.056C162.153 61.368 163.081 61.024 163.961 61.024C164.777 61.024 165.489 61.328 166.097 61.936C166.721 62.528 167.209 63.4 167.561 64.552C167.833 65.448 167.969 66.84 167.969 68.728C167.969 69.912 167.897 70.712 167.753 71.128C167.593 71.56 167.225 71.776 166.649 71.776C166.265 71.776 165.945 71.648 165.689 71.392L165.329 71.032L165.257 68.608C165.161 65.488 164.729 63.88 163.961 63.784H163.889C163.521 63.784 163.065 63.992 162.521 64.408C161.977 64.808 161.585 65.248 161.345 65.728C161.201 66.048 161.009 66.28 160.769 66.424L160.457 66.64L160.409 69.256C160.377 70.536 160.345 71.312 160.313 71.584C160.297 71.84 160.209 72.048 160.049 72.208C159.793 72.48 159.473 72.616 159.089 72.616C158.513 72.616 158.113 72.36 157.889 71.848C157.777 71.544 157.697 69.704 157.649 66.328C157.569 60.68 157.361 57.296 157.025 56.176C156.977 56 156.953 55.832 156.953 55.672C156.953 55.256 157.121 54.92 157.457 54.664ZM178.009 63.856C177.721 63.712 177.313 63.64 176.785 63.64C176.209 63.64 175.721 63.728 175.321 63.904C175.049 64.016 174.697 64.264 174.265 64.648C173.833 65.016 173.617 65.256 173.617 65.368C173.617 65.416 173.865 65.44 174.361 65.44C175.097 65.44 175.977 65.4 177.001 65.32C178.025 65.24 178.609 65.152 178.753 65.056C178.801 65.04 178.825 64.992 178.825 64.912C178.825 64.768 178.737 64.584 178.561 64.36C178.385 64.12 178.201 63.952 178.009 63.856ZM175.177 61.072C175.577 60.96 176.049 60.904 176.593 60.904C177.601 60.904 178.521 61.104 179.353 61.504C179.977 61.824 180.497 62.312 180.913 62.968C181.329 63.608 181.585 64.328 181.681 65.128C181.681 65.16 181.681 65.208 181.681 65.272C181.697 65.336 181.705 65.384 181.705 65.416C181.705 65.832 181.625 66.24 181.465 66.64C181.321 67.04 181.145 67.312 180.937 67.456C180.665 67.648 178.753 67.888 175.201 68.176C174.449 68.24 174.073 68.312 174.073 68.392C174.073 68.488 174.241 68.64 174.577 68.848C174.913 69.056 175.241 69.2 175.561 69.28C175.849 69.344 176.081 69.376 176.257 69.376C176.769 69.376 177.433 69.208 178.249 68.872C178.825 68.632 179.249 68.512 179.521 68.512C179.793 68.512 180.049 68.632 180.289 68.872C180.609 69.192 180.769 69.496 180.769 69.784C180.769 69.976 180.721 70.176 180.625 70.384C180.545 70.576 180.433 70.728 180.289 70.84C180.161 70.952 179.921 71.088 179.569 71.248C178.401 71.76 177.313 72.016 176.305 72.016C175.729 72.016 175.137 71.928 174.529 71.752C173.713 71.496 172.969 71.064 172.297 70.456C171.625 69.832 171.145 69.144 170.857 68.392C170.681 67.896 170.593 67.344 170.593 66.736C170.593 65.856 170.737 65.12 171.025 64.528C171.361 63.792 171.929 63.088 172.729 62.416C173.529 61.744 174.345 61.296 175.177 61.072ZM199.526 64.096C199.318 63.584 199.046 63.224 198.71 63.016C198.374 62.808 197.966 62.704 197.486 62.704C196.974 62.704 196.47 62.816 195.974 63.04C195.526 63.232 195.27 63.416 195.206 63.592C195.158 63.72 195.062 63.872 194.918 64.048C194.726 64.272 194.63 65.064 194.63 66.424C194.63 66.872 194.646 67.176 194.678 67.336L194.774 67.912L195.518 68.104C195.966 68.216 196.414 68.272 196.862 68.272C197.598 68.272 198.222 68.12 198.734 67.816C199.262 67.496 199.598 67.056 199.742 66.496C199.806 66.256 199.838 65.976 199.838 65.656C199.838 65.112 199.734 64.592 199.526 64.096ZM196.526 60.04C196.718 60.008 196.91 59.992 197.102 59.992C198.03 59.992 198.822 60.112 199.478 60.352C200.134 60.608 200.71 61.056 201.206 61.696C201.718 62.336 202.086 63.072 202.31 63.904C202.422 64.336 202.478 64.856 202.478 65.464C202.478 66.44 202.358 67.24 202.118 67.864C201.814 68.648 201.302 69.304 200.582 69.832C199.878 70.36 199.054 70.704 198.11 70.864C197.774 70.912 197.358 70.936 196.862 70.936C196.014 70.936 195.414 70.88 195.062 70.768C194.966 70.736 194.91 70.72 194.894 70.72C194.814 70.72 194.774 70.792 194.774 70.936C194.774 70.968 194.79 71.16 194.822 71.512C194.838 71.672 194.87 72.296 194.918 73.384V73.792C194.918 74.08 194.894 74.28 194.846 74.392C194.798 74.504 194.694 74.64 194.534 74.8C194.278 75.056 193.958 75.184 193.574 75.184C193.35 75.184 193.142 75.136 192.95 75.04C192.678 74.896 192.486 74.624 192.374 74.224C192.278 73.824 192.198 73 192.134 71.752C192.038 70.184 191.99 68.144 191.99 65.632C191.99 62.672 192.046 61.08 192.158 60.856C192.414 60.36 192.822 60.112 193.382 60.112C193.686 60.112 193.95 60.2 194.174 60.376L194.51 60.64L195.398 60.4C195.542 60.352 195.694 60.304 195.854 60.256C196.014 60.192 196.158 60.144 196.286 60.112C196.414 60.08 196.494 60.056 196.526 60.04ZM213.445 63.424C212.981 62.96 212.261 62.728 211.285 62.728C210.805 62.728 210.381 62.808 210.013 62.968C209.661 63.128 209.277 63.44 208.861 63.904C208.445 64.368 208.173 64.792 208.045 65.176C207.901 65.592 207.829 65.984 207.829 66.352C207.829 67.2 208.165 67.8 208.837 68.152C209.237 68.36 209.757 68.464 210.397 68.464C210.829 68.464 211.157 68.408 211.381 68.296C212.677 67.64 213.469 66.464 213.757 64.768L213.901 63.856L213.445 63.424ZM209.797 60.16C210.181 60.048 210.629 59.992 211.141 59.992C212.005 59.992 212.853 60.144 213.685 60.448C214.517 60.752 215.093 61.136 215.413 61.6C215.637 61.92 215.925 62.256 216.277 62.608C216.661 63.008 217.013 63.696 217.333 64.672C217.637 65.6 217.917 66.632 218.173 67.768C218.445 68.904 218.581 69.672 218.581 70.072C218.581 70.472 218.461 70.784 218.221 71.008C217.917 71.296 217.629 71.44 217.357 71.44C217.245 71.44 217.101 71.416 216.925 71.368C216.621 71.256 216.381 71.064 216.205 70.792C216.045 70.52 215.901 70.08 215.773 69.472C215.613 68.752 215.525 68.392 215.509 68.392C215.445 68.392 215.109 68.696 214.501 69.304C213.301 70.472 212.053 71.104 210.757 71.2H210.421C209.637 71.2 208.869 71.064 208.117 70.792C207.381 70.52 206.797 70.16 206.365 69.712C206.141 69.488 205.917 69.152 205.693 68.704C205.469 68.24 205.317 67.816 205.237 67.432C205.157 67.032 205.117 66.672 205.117 66.352C205.117 65.024 205.565 63.752 206.461 62.536C207.373 61.32 208.485 60.528 209.797 60.16ZM221.889 60.304C222.081 60.208 222.281 60.16 222.489 60.16C222.777 60.16 223.049 60.256 223.305 60.448C223.561 60.624 223.737 60.864 223.833 61.168L223.977 61.672L224.577 61.312C224.977 61.072 225.529 60.952 226.233 60.952C226.921 60.952 227.489 61.064 227.937 61.288C228.305 61.464 228.697 61.752 229.113 62.152C229.545 62.552 229.889 62.952 230.145 63.352C231.009 64.712 231.481 66.824 231.561 69.688V70.168C231.561 70.552 231.449 70.864 231.225 71.104C230.953 71.376 230.633 71.512 230.265 71.512C229.673 71.512 229.281 71.256 229.089 70.744C228.993 70.472 228.913 69.936 228.849 69.136C228.657 66.336 228.033 64.584 226.977 63.88C226.753 63.736 226.529 63.664 226.305 63.664C225.889 63.664 225.513 63.896 225.177 64.36C224.857 64.808 224.601 65.448 224.409 66.28C224.329 66.648 224.233 67.312 224.121 68.272C224.009 69.232 223.953 69.88 223.953 70.216C223.953 70.376 223.817 70.592 223.545 70.864C223.273 71.12 222.961 71.248 222.609 71.248C221.953 71.248 221.521 70.904 221.313 70.216C221.217 69.88 221.169 68.424 221.169 65.848C221.169 62.776 221.225 61.104 221.337 60.832C221.433 60.624 221.617 60.448 221.889 60.304ZM240.394 63.712C239.754 63.408 239.306 63.256 239.05 63.256C238.746 63.256 238.362 63.464 237.898 63.88C237.274 64.456 236.962 65.168 236.962 66.016C236.962 66.704 237.186 67.224 237.634 67.576C237.842 67.736 238.058 67.816 238.282 67.816C238.554 67.816 238.898 67.704 239.314 67.48C240.658 66.776 241.33 65.864 241.33 64.744V64.144L240.394 63.712ZM241.618 55.192C241.89 54.968 242.21 54.856 242.578 54.856C242.818 54.856 243.018 54.904 243.178 55C243.37 55.112 243.53 55.296 243.658 55.552C243.754 55.744 243.818 56.28 243.85 57.16C243.898 58.04 243.93 60.056 243.946 63.208L243.994 70.432L243.586 70.84C243.314 71.112 243.002 71.248 242.65 71.248C242.314 71.248 242.01 71.128 241.738 70.888C241.466 70.648 241.33 70.376 241.33 70.072C241.33 69.816 241.314 69.672 241.282 69.64H241.258C241.146 69.64 240.882 69.744 240.466 69.952C239.682 70.32 238.946 70.504 238.258 70.504C237.186 70.504 236.25 70.072 235.45 69.208C234.634 68.312 234.226 67.256 234.226 66.04C234.226 64.44 234.85 63.064 236.098 61.912C237.042 61.048 238.066 60.616 239.17 60.616C239.65 60.616 240.09 60.68 240.49 60.808C240.922 60.952 241.154 61.024 241.186 61.024C241.202 61.024 241.21 60.112 241.21 58.288V55.552L241.618 55.192ZM253.154 63.208C252.866 63 252.41 62.896 251.786 62.896C251.402 62.896 251.098 62.944 250.874 63.04C250.666 63.136 250.426 63.336 250.154 63.64C249.898 63.928 249.77 64.136 249.77 64.264C249.77 64.376 249.89 64.432 250.13 64.432C250.45 64.416 251.114 64.344 252.122 64.216C253.13 64.088 253.65 64.008 253.682 63.976C253.698 63.96 253.706 63.936 253.706 63.904C253.706 63.728 253.522 63.496 253.154 63.208ZM250.562 60.28C250.85 60.2 251.202 60.16 251.618 60.16C252.466 60.16 253.194 60.28 253.802 60.52C254.298 60.696 254.786 61.04 255.266 61.552C255.762 62.048 256.17 62.608 256.49 63.232C256.81 63.872 256.97 64.304 256.97 64.528C256.97 65.04 256.746 65.52 256.298 65.968C255.818 66.4 254.322 66.72 251.81 66.928C250.85 67.008 250.226 67.072 249.938 67.12C249.65 67.168 249.506 67.24 249.506 67.336C249.506 67.416 249.65 67.584 249.938 67.84C250.434 68.32 251.322 68.608 252.602 68.704C252.73 68.72 252.898 68.728 253.106 68.728C253.442 68.728 253.842 68.648 254.306 68.488C254.962 68.248 255.482 68.128 255.866 68.128C256.442 68.128 256.818 68.416 256.994 68.992C257.042 69.136 257.066 69.272 257.066 69.4C257.066 69.944 256.722 70.392 256.034 70.744C255.362 71.08 254.41 71.272 253.178 71.32C253.114 71.32 253.026 71.328 252.914 71.344C252.802 71.344 252.722 71.344 252.674 71.344C251.314 71.344 250.138 71.08 249.146 70.552C248.17 70.008 247.434 69.24 246.938 68.248C246.698 67.768 246.578 67.128 246.578 66.328C246.578 65.528 246.658 64.896 246.818 64.432C247.218 63.232 247.714 62.312 248.306 61.672C248.898 61.016 249.65 60.552 250.562 60.28ZM260.591 59.008C260.815 58.976 260.943 58.952 260.975 58.936C261.055 58.936 261.239 58.992 261.527 59.104C261.751 59.2 261.951 59.392 262.127 59.68C262.303 59.968 262.391 60.248 262.391 60.52C262.391 60.728 262.431 60.888 262.511 61C262.575 61.08 262.631 61.112 262.679 61.096C262.727 61.08 262.839 61 263.015 60.856C263.735 60.248 264.615 59.872 265.655 59.728C265.975 59.696 266.199 59.68 266.327 59.68C267.143 59.68 267.839 59.976 268.415 60.568L268.967 61.12L269.663 60.568C270.799 59.656 271.903 59.2 272.975 59.2C273.343 59.2 273.671 59.256 273.959 59.368C274.279 59.496 274.623 59.744 274.991 60.112C275.375 60.464 275.663 60.84 275.855 61.24C276.431 62.408 276.807 64.584 276.983 67.768C277.015 68.568 277.031 69.008 277.031 69.088C277.031 69.504 276.975 69.816 276.863 70.024C276.623 70.488 276.255 70.72 275.759 70.72C275.407 70.72 275.095 70.592 274.823 70.336L274.391 69.976L274.271 67.744C274.095 64.416 273.695 62.488 273.071 61.96C272.975 61.896 272.895 61.864 272.831 61.864C272.703 61.864 272.471 61.952 272.135 62.128C271.303 62.528 270.711 63.208 270.359 64.168C270.167 64.664 270.039 65.696 269.975 67.264C269.895 68.848 269.815 69.728 269.735 69.904C269.479 70.352 269.071 70.576 268.511 70.576C268.207 70.576 267.935 70.48 267.695 70.288C267.343 70 267.167 69.296 267.167 68.176C267.167 67.664 267.175 67.24 267.191 66.904C267.191 66.792 267.191 66.64 267.191 66.448C267.207 66.24 267.215 66.088 267.215 65.992C267.215 64.424 267.039 63.336 266.687 62.728C266.543 62.472 266.399 62.344 266.255 62.344C266.239 62.344 266.135 62.36 265.943 62.392C264.919 62.584 264.055 63.408 263.351 64.864C263.063 65.472 262.919 66.112 262.919 66.784C262.919 67.36 262.967 68.064 263.063 68.896C263.111 69.232 263.135 69.512 263.135 69.736C263.135 70.344 262.871 70.776 262.343 71.032C262.119 71.144 261.943 71.2 261.815 71.2C261.719 71.2 261.567 71.16 261.359 71.08C260.959 70.936 260.695 70.664 260.567 70.264C260.439 69.848 260.335 68.96 260.255 67.6C260.143 65.28 259.951 62.888 259.679 60.424C259.679 60.392 259.671 60.344 259.655 60.28C259.655 60.216 259.655 60.176 259.655 60.16C259.655 59.936 259.751 59.704 259.943 59.464C260.183 59.192 260.399 59.04 260.591 59.008ZM280.92 60.184C280.984 60.168 281.08 60.16 281.208 60.16C281.512 60.16 281.792 60.24 282.048 60.4C282.304 60.544 282.48 60.744 282.576 61C282.64 61.144 282.704 62.24 282.768 64.288C282.848 66.32 282.888 67.92 282.888 69.088C282.888 69.584 282.88 69.872 282.864 69.952C282.784 70.56 282.52 70.968 282.072 71.176C281.848 71.272 281.672 71.32 281.544 71.32C281.448 71.32 281.304 71.296 281.112 71.248C280.744 71.136 280.512 70.984 280.416 70.792C280.224 70.424 280.112 69 280.08 66.52C280.08 66.072 280.072 65.296 280.056 64.192L280.032 60.904L280.32 60.568C280.512 60.344 280.712 60.216 280.92 60.184ZM280.344 55.672C280.536 55.576 280.72 55.528 280.896 55.528C281.248 55.528 281.56 55.672 281.832 55.96C282.104 56.232 282.24 56.552 282.24 56.92C282.24 57.176 282.176 57.4 282.048 57.592C281.776 58.024 281.408 58.24 280.944 58.24C280.64 58.24 280.36 58.136 280.104 57.928C279.848 57.72 279.688 57.432 279.624 57.064C279.624 57.048 279.616 57.024 279.6 56.992C279.6 56.944 279.6 56.912 279.6 56.896C279.6 56.656 279.672 56.424 279.816 56.2C279.96 55.96 280.136 55.784 280.344 55.672ZM288.532 60.544C288.788 60.448 289.188 60.4 289.732 60.4C290.02 60.4 290.252 60.408 290.428 60.424C291.068 60.44 291.508 60.48 291.748 60.544C291.988 60.592 292.308 60.712 292.708 60.904C293.844 61.48 294.412 62.176 294.412 62.992C294.412 63.168 294.356 63.384 294.244 63.64C294.004 64.104 293.636 64.336 293.14 64.336C292.692 64.336 292.284 64.128 291.916 63.712C291.74 63.52 291.58 63.392 291.436 63.328C291.292 63.248 291.06 63.184 290.74 63.136C290.42 63.104 290.204 63.088 290.092 63.088C289.532 63.088 289.124 63.264 288.868 63.616C288.42 64.272 288.196 64.984 288.196 65.752C288.196 66.584 288.452 67.296 288.964 67.888C289.476 68.464 290.148 68.752 290.98 68.752C291.3 68.752 291.748 68.672 292.324 68.512C292.9 68.336 293.284 68.176 293.476 68.032C293.636 67.904 293.916 67.84 294.316 67.84C294.7 67.84 295.012 67.96 295.252 68.2C295.508 68.44 295.636 68.744 295.636 69.112C295.636 69.448 295.556 69.72 295.396 69.928C295.236 70.136 294.932 70.352 294.484 70.576C293.332 71.152 292.18 71.44 291.028 71.44C289.124 71.44 287.676 70.76 286.684 69.4C285.884 68.312 285.484 67.12 285.484 65.824C285.484 65.024 285.644 64.184 285.964 63.304C286.204 62.68 286.556 62.112 287.02 61.6C287.5 61.088 288.004 60.736 288.532 60.544ZM298.52 69.568C298.648 69.296 298.792 69.112 298.952 69.016C299.112 68.92 299.392 68.872 299.792 68.872C300.064 68.872 300.248 68.896 300.344 68.944C300.456 68.992 300.584 69.104 300.728 69.28C300.968 69.568 301.088 69.872 301.088 70.192C301.088 70.544 300.936 70.872 300.632 71.176C300.328 71.48 300.016 71.632 299.696 71.632C299.376 71.632 299.064 71.496 298.76 71.224C298.472 70.936 298.328 70.64 298.328 70.336C298.328 70.096 298.392 69.84 298.52 69.568Z" fill="white"/>
</svg>
