<svg width="874" height="33" viewBox="0 0 874 33" fill="none" xmlns="http://www.w3.org/2000/svg">
<path d="M1.336 4.272C1.67733 3.952 1.99733 3.792 2.296 3.792C2.46667 3.792 2.616 3.80267 2.744 3.824C3.32 3.888 3.72533 4.08 3.96 4.4L4.376 4.88L4.312 13.264C4.29067 18.7893 4.19467 21.7653 4.024 22.192C3.74667 22.832 3.21333 23.152 2.424 23.152C2.168 23.152 1.976 23.1307 1.848 23.088C1.528 22.9813 1.31467 22.9067 1.208 22.864C1.12267 22.8 1.016 22.608 0.888 22.288C0.781333 21.9467 0.717333 21.4773 0.696 20.88C0.674667 20.2827 0.664 19.3653 0.664 18.128C0.664 17.7867 0.664 17.0933 0.664 16.048C0.685333 15.0027 0.696 14.128 0.696 13.424L0.728 4.784L1.336 4.272ZM8.6545 9.072C8.9105 8.944 9.17717 8.88 9.4545 8.88C9.8385 8.88 10.2012 9.008 10.5425 9.264C10.8838 9.49867 11.1185 9.81867 11.2465 10.224L11.4385 10.896L12.2385 10.416C12.7718 10.096 13.5078 9.936 14.4465 9.936C15.3638 9.936 16.1212 10.0853 16.7185 10.384C17.2092 10.6187 17.7318 11.0027 18.2865 11.536C18.8625 12.0693 19.3212 12.6027 19.6625 13.136C20.8145 14.9493 21.4438 17.7653 21.5505 21.584V22.224C21.5505 22.736 21.4012 23.152 21.1025 23.472C20.7398 23.8347 20.3132 24.016 19.8225 24.016C19.0332 24.016 18.5105 23.6747 18.2545 22.992C18.1265 22.6293 18.0198 21.9147 17.9345 20.848C17.6785 17.1147 16.8465 14.7787 15.4385 13.84C15.1398 13.648 14.8412 13.552 14.5425 13.552C13.9878 13.552 13.4865 13.8613 13.0385 14.48C12.6118 15.0773 12.2705 15.9307 12.0145 17.04C11.9078 17.5307 11.7798 18.416 11.6305 19.696C11.4812 20.976 11.4065 21.84 11.4065 22.288C11.4065 22.5013 11.2252 22.7893 10.8625 23.152C10.4998 23.4933 10.0838 23.664 9.6145 23.664C8.73983 23.664 8.16383 23.2053 7.8865 22.288C7.7585 21.84 7.6945 19.8987 7.6945 16.464C7.6945 12.368 7.76917 10.1387 7.9185 9.776C8.0465 9.49867 8.29183 9.264 8.6545 9.072ZM36.6635 7.344C36.9622 7.30133 37.1328 7.26933 37.1755 7.248C37.2822 7.248 37.5275 7.32267 37.9115 7.472C38.2102 7.6 38.4768 7.856 38.7115 8.24C38.9462 8.624 39.0635 8.99733 39.0635 9.36C39.0635 9.63733 39.1168 9.85067 39.2235 10C39.3088 10.1067 39.3835 10.1493 39.4475 10.128C39.5115 10.1067 39.6608 10 39.8955 9.808C40.8555 8.99733 42.0288 8.496 43.4155 8.304C43.8422 8.26133 44.1408 8.24 44.3115 8.24C45.3995 8.24 46.3275 8.63467 47.0955 9.424L47.8315 10.16L48.7595 9.424C50.2742 8.208 51.7462 7.6 53.1755 7.6C53.6662 7.6 54.1035 7.67467 54.4875 7.824C54.9142 7.99467 55.3728 8.32533 55.8635 8.816C56.3755 9.28533 56.7595 9.78667 57.0155 10.32C57.7835 11.8773 58.2848 14.7787 58.5195 19.024C58.5622 20.0907 58.5835 20.6773 58.5835 20.784C58.5835 21.3387 58.5088 21.7547 58.3595 22.032C58.0395 22.6507 57.5488 22.96 56.8875 22.96C56.4182 22.96 56.0022 22.7893 55.6395 22.448L55.0635 21.968L54.9035 18.992C54.6688 14.5547 54.1355 11.984 53.3035 11.28C53.1755 11.1947 53.0688 11.152 52.9835 11.152C52.8128 11.152 52.5035 11.2693 52.0555 11.504C50.9462 12.0373 50.1568 12.944 49.6875 14.224C49.4315 14.8853 49.2608 16.2613 49.1755 18.352C49.0688 20.464 48.9622 21.6373 48.8555 21.872C48.5142 22.4693 47.9702 22.768 47.2235 22.768C46.8182 22.768 46.4555 22.64 46.1355 22.384C45.6662 22 45.4315 21.0613 45.4315 19.568C45.4315 18.8853 45.4422 18.32 45.4635 17.872C45.4635 17.7227 45.4635 17.52 45.4635 17.264C45.4848 16.9867 45.4955 16.784 45.4955 16.656C45.4955 14.5653 45.2608 13.1147 44.7915 12.304C44.5995 11.9627 44.4075 11.792 44.2155 11.792C44.1942 11.792 44.0555 11.8133 43.7995 11.856C42.4342 12.112 41.2822 13.2107 40.3435 15.152C39.9595 15.9627 39.7675 16.816 39.7675 17.712C39.7675 18.48 39.8315 19.4187 39.9595 20.528C40.0235 20.976 40.0555 21.3493 40.0555 21.648C40.0555 22.4587 39.7035 23.0347 38.9995 23.376C38.7008 23.5253 38.4662 23.6 38.2955 23.6C38.1675 23.6 37.9648 23.5467 37.6875 23.44C37.1542 23.248 36.8022 22.8853 36.6315 22.352C36.4608 21.7973 36.3222 20.6133 36.2155 18.8C36.0662 15.7067 35.8102 12.5173 35.4475 9.232C35.4475 9.18933 35.4368 9.12533 35.4155 9.04C35.4155 8.95467 35.4155 8.90133 35.4155 8.88C35.4155 8.58133 35.5435 8.272 35.7995 7.952C36.1195 7.58933 36.4075 7.38667 36.6635 7.344ZM74.0405 8.272C74.2538 8.208 74.4138 8.176 74.5205 8.176C74.6058 8.176 74.8512 8.26133 75.2565 8.432C75.6832 8.60267 75.9818 8.89067 76.1525 9.296C76.2378 9.46667 76.2805 9.65867 76.2805 9.872C76.2805 10.192 76.0245 11.1627 75.5125 12.784C74.5738 15.792 73.3898 18.8107 71.9605 21.84C71.2992 23.2907 70.2858 25.168 68.9205 27.472C67.5552 29.7973 66.7232 31.0453 66.4245 31.216C66.0832 31.4293 65.7312 31.536 65.3685 31.536C64.8778 31.536 64.4512 31.3653 64.0885 31.024C63.7472 30.704 63.5765 30.2773 63.5765 29.744C63.5765 29.36 63.9178 28.6347 64.6005 27.568C65.1338 26.736 65.8272 25.5627 66.6805 24.048C67.5338 22.512 67.9605 21.6907 67.9605 21.584C67.9605 21.52 67.7258 21.0933 67.2565 20.304C67.0432 19.9627 66.2858 18.576 64.9845 16.144C63.7045 13.6907 62.9258 12.272 62.6485 11.888C62.3072 11.3973 62.1365 10.9067 62.1365 10.416C62.1365 9.712 62.4778 9.21067 63.1605 8.912C63.4165 8.80533 63.6405 8.752 63.8325 8.752C64.2805 8.752 64.7178 9.008 65.1445 9.52C65.5712 10.0107 66.1152 10.864 66.7765 12.08C68.2058 14.7253 69.1765 16.4533 69.6885 17.264C69.7952 17.4133 69.8592 17.488 69.8805 17.488C69.9658 17.488 70.1792 17.0293 70.5205 16.112C71.0112 14.768 71.5018 13.3387 71.9925 11.824C72.4192 10.4587 72.7605 9.552 73.0165 9.104C73.2938 8.656 73.6352 8.37867 74.0405 8.272ZM101.323 13.872C101.131 13.6373 100.801 13.52 100.331 13.52C99.9473 13.52 99.5633 13.616 99.1793 13.808C98.6033 14.0853 98.0593 14.672 97.5473 15.568C97.0353 16.464 96.7793 17.2533 96.7793 17.936C96.7793 18.1493 96.8113 18.3307 96.8753 18.48C97.0246 18.8213 97.3873 19.1413 97.9633 19.44C98.5393 19.7173 99.0833 19.856 99.5953 19.856C99.7019 19.856 99.8619 19.8347 100.075 19.792C100.566 19.6427 101.057 19.2373 101.547 18.576C102.059 17.8933 102.454 17.0933 102.731 16.176C102.902 15.6213 102.987 15.248 102.987 15.056C102.987 14.7573 102.763 14.544 102.315 14.416C101.803 14.224 101.473 14.0427 101.323 13.872ZM103.915 2.704C104.107 2.61867 104.331 2.576 104.587 2.576C105.398 2.576 105.942 2.928 106.219 3.632C106.347 3.952 106.55 5.24267 106.827 7.504C107.083 9.872 107.233 11.2053 107.275 11.504C108.15 17.84 108.587 21.4667 108.587 22.384C108.587 22.8107 108.406 23.184 108.043 23.504C107.702 23.824 107.307 23.984 106.859 23.984C106.241 23.984 105.761 23.76 105.419 23.312C105.078 22.8427 104.907 22.2133 104.907 21.424C104.907 21.0827 104.865 20.8693 104.779 20.784H104.747C104.619 20.784 104.225 21.0933 103.563 21.712C102.859 22.416 102.177 22.8853 101.515 23.12C100.918 23.3547 100.235 23.472 99.4673 23.472C98.3366 23.472 97.2486 23.1947 96.2033 22.64C95.1579 22.064 94.3473 21.3067 93.7713 20.368C93.5579 20.0053 93.4193 19.696 93.3553 19.44C93.3126 19.1627 93.2913 18.64 93.2913 17.872C93.3126 16.8907 93.4299 16.0693 93.6432 15.408C93.8566 14.7467 94.2513 13.9787 94.8273 13.104C95.2326 12.4853 95.8086 11.888 96.5553 11.312C97.3019 10.736 97.9526 10.3627 98.5073 10.192C99.0619 10.0427 99.6486 9.968 100.267 9.968C101.035 9.968 101.707 10.064 102.283 10.256C102.902 10.448 103.233 10.544 103.275 10.544C103.318 10.544 103.339 10.416 103.339 10.16C103.339 9.456 103.254 8.57067 103.083 7.504C102.934 6.62933 102.859 5.84 102.859 5.136C102.859 3.81333 103.211 3.00267 103.915 2.704ZM112.552 9.328C112.936 9.008 113.352 8.848 113.8 8.848C114.269 8.848 114.674 9.01867 115.016 9.36C115.357 9.68 115.528 10.096 115.528 10.608C115.528 11.12 115.624 11.376 115.816 11.376C115.922 11.376 116.146 11.2587 116.488 11.024C118.066 9.936 119.634 9.392 121.192 9.392C121.853 9.392 122.504 9.50933 123.144 9.744C123.72 9.97867 124.125 10.2347 124.36 10.512C124.594 10.7893 124.712 11.1627 124.712 11.632C124.712 12.144 124.52 12.5813 124.136 12.944C123.816 13.2427 123.528 13.392 123.272 13.392C123.186 13.392 122.589 13.3173 121.48 13.168C121.352 13.1467 121.17 13.136 120.936 13.136C120.594 13.136 120.157 13.2533 119.624 13.488C118.237 14.128 117.266 14.9387 116.712 15.92C116.157 16.9013 115.88 18.3093 115.88 20.144C115.858 21.488 115.698 22.4267 115.4 22.96C115.122 23.4933 114.621 23.76 113.896 23.76C113.405 23.76 112.989 23.5893 112.648 23.248L112.136 22.736L112.072 17.072C112.029 12.8907 112.008 10.736 112.008 10.608C112.008 10.096 112.189 9.66933 112.552 9.328ZM136.997 12.944C136.613 12.6667 136.005 12.528 135.173 12.528C134.661 12.528 134.255 12.592 133.957 12.72C133.679 12.848 133.359 13.1147 132.997 13.52C132.655 13.904 132.485 14.1813 132.485 14.352C132.485 14.5013 132.645 14.576 132.965 14.576C133.391 14.5547 134.277 14.4587 135.621 14.288C136.965 14.1173 137.658 14.0107 137.701 13.968C137.722 13.9467 137.733 13.9147 137.733 13.872C137.733 13.6373 137.487 13.328 136.997 12.944ZM133.541 9.04C133.925 8.93333 134.394 8.88 134.949 8.88C136.079 8.88 137.05 9.04 137.861 9.36C138.522 9.59467 139.173 10.0533 139.813 10.736C140.474 11.3973 141.018 12.144 141.445 12.976C141.871 13.8293 142.085 14.4053 142.085 14.704C142.085 15.3867 141.786 16.0267 141.189 16.624C140.549 17.2 138.554 17.6267 135.205 17.904C133.925 18.0107 133.093 18.096 132.709 18.16C132.325 18.224 132.133 18.32 132.133 18.448C132.133 18.5547 132.325 18.7787 132.709 19.12C133.37 19.76 134.554 20.144 136.261 20.272C136.431 20.2933 136.655 20.304 136.933 20.304C137.381 20.304 137.914 20.1973 138.533 19.984C139.407 19.664 140.101 19.504 140.613 19.504C141.381 19.504 141.882 19.888 142.117 20.656C142.181 20.848 142.213 21.0293 142.213 21.2C142.213 21.9253 141.754 22.5227 140.837 22.992C139.941 23.44 138.671 23.696 137.029 23.76C136.943 23.76 136.826 23.7707 136.677 23.792C136.527 23.792 136.421 23.792 136.357 23.792C134.543 23.792 132.975 23.44 131.653 22.736C130.351 22.0107 129.37 20.9867 128.709 19.664C128.389 19.024 128.229 18.1707 128.229 17.104C128.229 16.0373 128.335 15.1947 128.549 14.576C129.082 12.976 129.743 11.7493 130.533 10.896C131.322 10.0213 132.325 9.40267 133.541 9.04ZM154.914 13.68C154.807 13.3387 154.711 13.1467 154.626 13.104C154.54 13.04 154.306 13.008 153.922 13.008C152.812 13.0293 151.778 13.552 150.818 14.576C149.858 15.5787 149.378 16.592 149.378 17.616C149.378 18.128 149.516 18.5547 149.794 18.896C150.412 19.5787 151.063 19.92 151.746 19.92C151.788 19.92 151.831 19.92 151.874 19.92C151.916 19.8987 151.959 19.888 152.002 19.888C152.386 19.8027 152.791 19.5467 153.218 19.12C153.666 18.6933 154.007 18.224 154.242 17.712C154.732 16.56 154.978 15.44 154.978 14.352C154.978 14.032 154.956 13.808 154.914 13.68ZM151.938 9.648C152.514 9.456 153.175 9.36 153.922 9.36C154.903 9.36 155.735 9.52 156.418 9.84C156.866 10.0747 157.271 10.4267 157.634 10.896C158.018 11.344 158.252 11.7707 158.338 12.176C158.423 12.5813 158.54 12.9653 158.69 13.328C158.924 13.9467 159.394 16.272 160.097 20.304C160.204 20.944 160.258 21.424 160.258 21.744C160.258 23.024 159.66 23.664 158.466 23.664C158.06 23.664 157.687 23.504 157.346 23.184C157.026 22.864 156.823 22.4693 156.738 22C156.652 21.5733 156.578 21.328 156.514 21.264C156.428 21.2 156.183 21.3707 155.778 21.776C154.562 22.992 153.164 23.6 151.586 23.6C151.308 23.6 151.02 23.568 150.722 23.504C149.548 23.248 148.45 22.608 147.426 21.584C146.274 20.432 145.698 19.1413 145.698 17.712C145.698 16.5813 146.05 15.3547 146.754 14.032C147.287 13.0293 148.012 12.1333 148.93 11.344C149.868 10.5547 150.871 9.98933 151.938 9.648ZM164.815 8.528C165.029 8.42133 165.285 8.368 165.583 8.368C166.671 8.368 167.354 9.28533 167.631 11.12C167.695 11.6747 167.77 11.952 167.855 11.952C167.877 11.952 168.175 11.7067 168.751 11.216C169.925 10.1707 171.119 9.648 172.335 9.648C172.997 9.648 173.626 9.82933 174.223 10.192C174.799 10.5547 175.173 10.8747 175.343 11.152L175.631 11.6L176.399 10.896C177.573 9.85067 178.831 9.328 180.175 9.328C181.477 9.328 182.597 9.82933 183.535 10.832C185.135 12.4747 186.085 15.28 186.383 19.248C186.426 19.9733 186.447 20.4213 186.447 20.592C186.447 21.1467 186.373 21.552 186.223 21.808C186.095 22.064 185.861 22.288 185.519 22.48C185.221 22.6293 184.933 22.704 184.655 22.704C184.186 22.704 183.77 22.4907 183.407 22.064C183.13 21.7013 182.949 21.0827 182.863 20.208C182.693 18.2453 182.479 16.784 182.223 15.824C181.967 14.864 181.605 14.1173 181.135 13.584C180.773 13.2 180.399 13.008 180.015 13.008C179.29 13.008 178.65 13.5733 178.095 14.704C177.882 15.152 177.743 15.568 177.679 15.952C177.615 16.336 177.562 17.2107 177.519 18.576C177.434 20.4533 177.327 21.5733 177.199 21.936C176.901 22.64 176.357 22.992 175.567 22.992C175.098 22.992 174.703 22.832 174.383 22.512C173.871 22 173.551 20.4853 173.423 17.968C173.359 17.008 173.242 16.08 173.071 15.184C172.901 14.288 172.741 13.7547 172.591 13.584C172.463 13.4347 172.325 13.36 172.175 13.36C171.919 13.36 171.493 13.6267 170.895 14.16C170.255 14.7573 169.775 15.3973 169.455 16.08C169.157 16.6987 168.975 17.2 168.911 17.584C168.869 17.9467 168.826 19.1947 168.783 21.328C168.762 21.8827 168.591 22.3307 168.271 22.672C167.951 23.0133 167.546 23.184 167.055 23.184C166.565 23.184 166.17 23.088 165.871 22.896C165.445 22.5973 165.146 22.0213 164.975 21.168C164.805 20.2933 164.613 18.2347 164.399 14.992C164.271 13.072 164.122 11.7707 163.951 11.088C163.823 10.576 163.759 10.2347 163.759 10.064C163.759 9.872 163.823 9.648 163.951 9.392C164.143 8.944 164.431 8.656 164.815 8.528ZM194.46 8.496C194.844 8.432 195.238 8.4 195.644 8.4C196.924 8.4 198.065 8.688 199.068 9.264C200.07 9.84 200.572 10.5013 200.572 11.248C200.572 11.44 200.54 11.6107 200.476 11.76C200.156 12.5707 199.676 12.976 199.036 12.976C198.566 12.976 198.033 12.8267 197.436 12.528C196.753 12.1867 196.124 12.016 195.548 12.016C194.929 12.016 194.417 12.2187 194.012 12.624C193.798 12.8373 193.692 13.008 193.692 13.136C193.692 13.3067 193.852 13.5093 194.172 13.744C194.513 13.9573 195.132 14.2987 196.028 14.768C197.5 15.536 198.492 16.1653 199.004 16.656C199.494 17.0827 199.921 17.616 200.284 18.256C200.646 18.8747 200.828 19.3973 200.828 19.824C200.828 20.3147 200.7 20.8053 200.444 21.296C200.188 21.7867 199.868 22.16 199.484 22.416C198.502 23.0773 197.308 23.408 195.9 23.408C194.577 23.408 193.212 23.0987 191.804 22.48C191.142 22.16 190.726 21.7973 190.556 21.392C190.428 21.0933 190.364 20.8267 190.364 20.592C190.364 20.1653 190.566 19.7493 190.972 19.344C191.249 19.024 191.622 18.864 192.092 18.864C192.54 18.864 193.084 19.0027 193.724 19.28C194.428 19.5787 195.238 19.728 196.156 19.728C196.582 19.728 196.796 19.6747 196.796 19.568C196.796 19.312 195.878 18.7253 194.044 17.808C192.614 17.0613 191.569 16.3253 190.908 15.6C190.246 14.8533 189.916 14.032 189.916 13.136C189.916 12.0693 190.353 11.088 191.228 10.192C192.124 9.27467 193.201 8.70933 194.46 8.496ZM206.691 19.344C206.84 19.1947 207.171 19.12 207.683 19.12C208.109 19.12 208.483 19.248 208.803 19.504C209.123 19.76 209.325 20.0907 209.411 20.496C209.432 20.56 209.443 20.6773 209.443 20.848C209.443 21.4453 209.283 22.3093 208.963 23.44C208.643 24.5493 208.259 25.5947 207.811 26.576C207.491 27.28 206.936 27.632 206.147 27.632C205.293 27.632 204.717 27.216 204.419 26.384C204.376 26.2773 204.355 26.128 204.355 25.936C204.355 25.6587 204.525 25.0827 204.867 24.208C205.336 22.9067 205.624 21.9467 205.731 21.328C205.859 20.7307 205.987 20.304 206.115 20.048C206.243 19.792 206.435 19.5573 206.691 19.344ZM227.719 1.52C228.082 1.15733 228.519 0.975998 229.031 0.975998C229.415 0.975998 229.757 1.09333 230.055 1.328C230.375 1.54133 230.599 1.85067 230.727 2.256C230.791 2.49067 230.898 3.6 231.047 5.584C231.197 7.54667 231.271 8.912 231.271 9.68C231.271 9.872 231.314 9.98933 231.399 10.032C231.506 10.0747 231.751 10.096 232.135 10.096C232.711 10.096 233.042 10.032 233.127 9.904C233.17 9.79733 233.607 9.744 234.439 9.744C235.506 9.744 236.21 9.81867 236.551 9.968C236.871 10.1173 237.117 10.4053 237.287 10.832C237.437 11.1307 237.511 11.376 237.511 11.568C237.511 11.7173 237.479 11.8987 237.415 12.112C237.266 12.6027 236.989 12.9333 236.583 13.104C236.199 13.2533 235.431 13.36 234.279 13.424C232.978 13.488 232.135 13.5733 231.751 13.68L231.239 13.808L231.367 18.32C231.41 20.3253 231.431 21.4027 231.431 21.552C231.431 22.4907 231.357 23.12 231.207 23.44C230.887 24.1227 230.365 24.464 229.639 24.464C229.362 24.464 229.074 24.4 228.775 24.272C228.541 24.1653 228.37 24.0693 228.263 23.984C228.157 23.8773 228.061 23.6107 227.975 23.184C227.89 22.736 227.837 22.2133 227.815 21.616C227.794 21.0187 227.773 20.0373 227.751 18.672L227.687 14.032L226.727 14.064C226.151 14.1067 225.639 14.192 225.191 14.32C225.085 14.3627 224.914 14.384 224.679 14.384C223.954 14.384 223.431 14.16 223.111 13.712C222.941 13.4347 222.855 13.0613 222.855 12.592C222.855 12.1867 222.919 11.8667 223.047 11.632C223.346 11.0987 224.391 10.6933 226.183 10.416L227.655 10.192L227.527 7.376C227.442 5.37067 227.367 4.00533 227.303 3.28C227.261 2.768 227.239 2.49067 227.239 2.448C227.239 2.14933 227.399 1.84 227.719 1.52ZM241.808 1.552C242.17 1.25333 242.544 1.104 242.928 1.104C243.696 1.104 244.261 1.57333 244.624 2.512C244.773 2.93867 244.933 3.96267 245.104 5.584C245.274 7.184 245.413 8.67733 245.52 10.064C245.626 11.4293 245.69 12.112 245.712 12.112C245.754 12.112 246.106 11.8773 246.768 11.408C248.069 10.4907 249.306 10.032 250.48 10.032C251.568 10.032 252.517 10.4373 253.328 11.248C254.16 12.0373 254.81 13.2 255.28 14.736C255.642 15.9307 255.824 17.7867 255.824 20.304C255.824 21.8827 255.728 22.9493 255.536 23.504C255.322 24.08 254.832 24.368 254.064 24.368C253.552 24.368 253.125 24.1973 252.784 23.856L252.304 23.376L252.208 20.144C252.08 15.984 251.504 13.84 250.48 13.712H250.384C249.893 13.712 249.285 13.9893 248.56 14.544C247.834 15.0773 247.312 15.664 246.992 16.304C246.8 16.7307 246.544 17.04 246.224 17.232L245.808 17.52L245.744 21.008C245.701 22.7147 245.658 23.7493 245.616 24.112C245.594 24.4533 245.477 24.7307 245.264 24.944C244.922 25.3067 244.496 25.488 243.984 25.488C243.216 25.488 242.682 25.1467 242.384 24.464C242.234 24.0587 242.128 21.6053 242.064 17.104C241.957 9.57333 241.68 5.06133 241.232 3.568C241.168 3.33333 241.136 3.10933 241.136 2.896C241.136 2.34133 241.36 1.89333 241.808 1.552ZM261.019 8.912C261.104 8.89067 261.232 8.88 261.403 8.88C261.808 8.88 262.181 8.98667 262.523 9.2C262.864 9.392 263.099 9.65867 263.227 10C263.312 10.192 263.397 11.6533 263.483 14.384C263.589 17.0933 263.643 19.2267 263.643 20.784C263.643 21.4453 263.632 21.8293 263.611 21.936C263.504 22.7467 263.152 23.2907 262.555 23.568C262.256 23.696 262.021 23.76 261.851 23.76C261.723 23.76 261.531 23.728 261.275 23.664C260.784 23.5147 260.475 23.312 260.347 23.056C260.091 22.5653 259.941 20.6667 259.899 17.36C259.899 16.7627 259.888 15.728 259.867 14.256L259.835 9.872L260.219 9.424C260.475 9.12533 260.741 8.95467 261.019 8.912ZM260.251 2.896C260.507 2.768 260.752 2.704 260.987 2.704C261.456 2.704 261.872 2.896 262.235 3.28C262.597 3.64267 262.779 4.06933 262.779 4.56C262.779 4.90133 262.693 5.2 262.523 5.456C262.16 6.032 261.669 6.32 261.051 6.32C260.645 6.32 260.272 6.18133 259.931 5.904C259.589 5.62667 259.376 5.24267 259.291 4.752C259.291 4.73067 259.28 4.69867 259.259 4.656C259.259 4.592 259.259 4.54933 259.259 4.528C259.259 4.208 259.355 3.89867 259.547 3.6C259.739 3.28 259.973 3.04533 260.251 2.896ZM267.936 9.072C268.192 8.944 268.458 8.88 268.736 8.88C269.12 8.88 269.482 9.008 269.824 9.264C270.165 9.49867 270.4 9.81867 270.528 10.224L270.72 10.896L271.52 10.416C272.053 10.096 272.789 9.936 273.728 9.936C274.645 9.936 275.402 10.0853 276 10.384C276.49 10.6187 277.013 11.0027 277.568 11.536C278.144 12.0693 278.602 12.6027 278.944 13.136C280.096 14.9493 280.725 17.7653 280.832 21.584V22.224C280.832 22.736 280.682 23.152 280.384 23.472C280.021 23.8347 279.594 24.016 279.104 24.016C278.314 24.016 277.792 23.6747 277.536 22.992C277.408 22.6293 277.301 21.9147 277.216 20.848C276.96 17.1147 276.128 14.7787 274.72 13.84C274.421 13.648 274.122 13.552 273.824 13.552C273.269 13.552 272.768 13.8613 272.32 14.48C271.893 15.0773 271.552 15.9307 271.296 17.04C271.189 17.5307 271.061 18.416 270.912 19.696C270.762 20.976 270.688 21.84 270.688 22.288C270.688 22.5013 270.506 22.7893 270.144 23.152C269.781 23.4933 269.365 23.664 268.896 23.664C268.021 23.664 267.445 23.2053 267.168 22.288C267.04 21.84 266.976 19.8987 266.976 16.464C266.976 12.368 267.05 10.1387 267.2 9.776C267.328 9.49867 267.573 9.264 267.936 9.072ZM293.889 12.08C293.59 11.8667 293.334 11.7387 293.121 11.696C292.908 11.632 292.502 11.6 291.905 11.6C290.326 11.6427 289.27 12.048 288.737 12.816C288.524 13.1147 288.332 13.584 288.161 14.224C287.99 14.8427 287.905 15.3653 287.905 15.792C287.905 15.8347 287.905 15.8987 287.905 15.984C287.926 16.048 287.937 16.0907 287.937 16.112C288.065 16.752 288.417 17.3173 288.993 17.808C289.59 18.2987 290.284 18.5973 291.073 18.704C291.18 18.7253 291.34 18.736 291.553 18.736C292.364 18.736 293.164 18.3093 293.953 17.456C294.742 16.6027 295.137 15.7067 295.137 14.768C295.137 14.4693 295.126 14.2453 295.105 14.096C295.041 13.5413 294.945 13.1573 294.817 12.944C294.689 12.7307 294.38 12.4427 293.889 12.08ZM289.857 8.144C290.326 8.03733 291.009 7.984 291.905 7.984H292.417C293.206 8.00533 293.729 8.05867 293.985 8.144C294.262 8.208 294.7 8.41067 295.297 8.752C296.086 9.24267 296.737 9.60533 297.249 9.84C297.74 10.0747 298.06 10.32 298.209 10.576C298.422 10.896 298.636 12.3893 298.849 15.056C299.084 17.7013 299.201 20.0373 299.201 22.064C299.201 23.728 299.02 25.1147 298.657 26.224C298.316 27.3547 297.74 28.3787 296.929 29.296C295.585 30.832 293.91 31.6 291.905 31.6C290.646 31.6 289.185 31.312 287.521 30.736C286.796 30.5013 286.316 30.2987 286.081 30.128C285.846 29.9573 285.644 29.6907 285.473 29.328C285.388 29.136 285.345 28.912 285.345 28.656C285.345 28.1653 285.516 27.7493 285.857 27.408C286.113 27.1093 286.486 26.96 286.977 26.96C287.425 26.96 288.076 27.1093 288.929 27.408C289.697 27.6853 290.508 27.8667 291.361 27.952C291.425 27.952 291.5 27.952 291.585 27.952C291.692 27.9733 291.766 27.984 291.809 27.984C293.004 27.984 293.942 27.4507 294.625 26.384C294.988 25.872 295.233 25.392 295.361 24.944C295.51 24.4747 295.617 23.8027 295.681 22.928C295.724 22.3307 295.745 21.968 295.745 21.84C295.745 21.4347 295.649 21.232 295.457 21.232C295.286 21.232 294.988 21.3493 294.561 21.584C293.58 22.0747 292.566 22.32 291.521 22.32C289.729 22.32 288.118 21.7227 286.689 20.528C285.26 19.3333 284.502 17.8613 284.417 16.112C284.417 16.048 284.406 15.952 284.385 15.824C284.385 15.696 284.385 15.6 284.385 15.536C284.385 13.68 284.865 12.1013 285.825 10.8C286.806 9.47733 288.15 8.592 289.857 8.144ZM306.186 8.208C306.57 8.10133 307.167 8.048 307.978 8.048C309.684 8.048 310.922 8.176 311.69 8.432C312.756 8.77333 313.29 9.36 313.29 10.192C313.29 10.6827 313.055 11.1307 312.586 11.536C312.266 11.8347 311.956 11.984 311.658 11.984C311.636 11.984 311.594 11.984 311.53 11.984C311.466 11.9627 311.412 11.952 311.37 11.952C309.962 11.7173 308.852 11.6 308.042 11.6C307.786 11.6 307.551 11.6213 307.338 11.664C306.676 11.8347 306.346 12.144 306.346 12.592C306.346 12.6773 306.356 12.7413 306.378 12.784C306.527 13.2107 307.37 13.744 308.906 14.384C311.658 15.536 313.354 16.9653 313.994 18.672C314.186 19.184 314.282 19.664 314.282 20.112C314.282 20.9013 313.994 21.5733 313.418 22.128C312.863 22.6827 312.074 23.056 311.05 23.248C310.623 23.3333 309.919 23.376 308.938 23.376C307.146 23.376 306.004 23.2693 305.514 23.056C305.236 22.928 305.002 22.7147 304.81 22.416C304.618 22.096 304.522 21.7867 304.522 21.488C304.522 21.168 304.628 20.848 304.842 20.528C305.055 20.1867 305.311 19.952 305.61 19.824C305.887 19.7173 306.218 19.664 306.602 19.664C306.751 19.664 307.082 19.6853 307.594 19.728C307.935 19.7707 308.394 19.792 308.97 19.792C309.866 19.792 310.314 19.6853 310.314 19.472C310.314 19.088 309.386 18.512 307.53 17.744C305.866 17.0187 304.639 16.2613 303.85 15.472C303.082 14.6613 302.698 13.744 302.698 12.72C302.698 12.5493 302.719 12.2933 302.762 11.952C302.932 10.9067 303.359 10.0747 304.042 9.456C304.596 8.90133 305.311 8.48533 306.186 8.208ZM329.382 7.344C329.681 7.30133 329.852 7.26933 329.894 7.248C330.001 7.248 330.246 7.32267 330.63 7.472C330.929 7.6 331.196 7.856 331.43 8.24C331.665 8.624 331.782 8.99733 331.782 9.36C331.782 9.63733 331.836 9.85067 331.942 10C332.028 10.1067 332.102 10.1493 332.166 10.128C332.23 10.1067 332.38 10 332.614 9.808C333.574 8.99733 334.748 8.496 336.134 8.304C336.561 8.26133 336.86 8.24 337.03 8.24C338.118 8.24 339.046 8.63467 339.814 9.424L340.55 10.16L341.478 9.424C342.993 8.208 344.465 7.6 345.894 7.6C346.385 7.6 346.822 7.67467 347.206 7.824C347.633 7.99467 348.092 8.32533 348.582 8.816C349.094 9.28533 349.478 9.78667 349.734 10.32C350.502 11.8773 351.004 14.7787 351.238 19.024C351.281 20.0907 351.302 20.6773 351.302 20.784C351.302 21.3387 351.228 21.7547 351.078 22.032C350.758 22.6507 350.268 22.96 349.606 22.96C349.137 22.96 348.721 22.7893 348.358 22.448L347.782 21.968L347.622 18.992C347.388 14.5547 346.854 11.984 346.022 11.28C345.894 11.1947 345.788 11.152 345.702 11.152C345.532 11.152 345.222 11.2693 344.774 11.504C343.665 12.0373 342.876 12.944 342.406 14.224C342.15 14.8853 341.98 16.2613 341.894 18.352C341.788 20.464 341.681 21.6373 341.574 21.872C341.233 22.4693 340.689 22.768 339.942 22.768C339.537 22.768 339.174 22.64 338.854 22.384C338.385 22 338.15 21.0613 338.15 19.568C338.15 18.8853 338.161 18.32 338.182 17.872C338.182 17.7227 338.182 17.52 338.182 17.264C338.204 16.9867 338.214 16.784 338.214 16.656C338.214 14.5653 337.98 13.1147 337.51 12.304C337.318 11.9627 337.126 11.792 336.934 11.792C336.913 11.792 336.774 11.8133 336.518 11.856C335.153 12.112 334.001 13.2107 333.062 15.152C332.678 15.9627 332.486 16.816 332.486 17.712C332.486 18.48 332.55 19.4187 332.678 20.528C332.742 20.976 332.774 21.3493 332.774 21.648C332.774 22.4587 332.422 23.0347 331.718 23.376C331.42 23.5253 331.185 23.6 331.014 23.6C330.886 23.6 330.684 23.5467 330.406 23.44C329.873 23.248 329.521 22.8853 329.35 22.352C329.18 21.7973 329.041 20.6133 328.934 18.8C328.785 15.7067 328.529 12.5173 328.166 9.232C328.166 9.18933 328.156 9.12533 328.134 9.04C328.134 8.95467 328.134 8.90133 328.134 8.88C328.134 8.58133 328.262 8.272 328.518 7.952C328.838 7.58933 329.126 7.38667 329.382 7.344ZM365.895 13.232C365.277 12.6133 364.317 12.304 363.015 12.304C362.375 12.304 361.81 12.4107 361.319 12.624C360.85 12.8373 360.338 13.2533 359.783 13.872C359.229 14.4907 358.866 15.056 358.695 15.568C358.503 16.1227 358.407 16.6453 358.407 17.136C358.407 18.2667 358.855 19.0667 359.751 19.536C360.285 19.8133 360.978 19.952 361.831 19.952C362.407 19.952 362.845 19.8773 363.143 19.728C364.871 18.8533 365.927 17.2853 366.311 15.024L366.503 13.808L365.895 13.232ZM361.031 8.88C361.543 8.73067 362.141 8.656 362.823 8.656C363.975 8.656 365.106 8.85867 366.215 9.264C367.325 9.66933 368.093 10.1813 368.519 10.8C368.818 11.2267 369.202 11.6747 369.671 12.144C370.183 12.6773 370.653 13.5947 371.079 14.896C371.485 16.1333 371.858 17.5093 372.199 19.024C372.562 20.5387 372.743 21.5627 372.743 22.096C372.743 22.6293 372.583 23.0453 372.263 23.344C371.858 23.728 371.474 23.92 371.111 23.92C370.962 23.92 370.77 23.888 370.535 23.824C370.13 23.6747 369.81 23.4187 369.575 23.056C369.362 22.6933 369.17 22.1067 368.999 21.296C368.786 20.336 368.669 19.856 368.647 19.856C368.562 19.856 368.114 20.2613 367.303 21.072C365.703 22.6293 364.039 23.472 362.311 23.6H361.863C360.818 23.6 359.794 23.4187 358.791 23.056C357.81 22.6933 357.031 22.2133 356.455 21.616C356.157 21.3173 355.858 20.8693 355.559 20.272C355.261 19.6533 355.058 19.088 354.951 18.576C354.845 18.0427 354.791 17.5627 354.791 17.136C354.791 15.3653 355.389 13.6693 356.583 12.048C357.799 10.4267 359.282 9.37067 361.031 8.88ZM377.027 2.608C377.347 2.43733 377.677 2.352 378.019 2.352C378.467 2.352 378.851 2.52267 379.171 2.864C379.491 3.20533 379.683 3.67467 379.747 4.272C379.811 4.784 379.896 6.26667 380.003 8.72C380.131 11.152 380.195 12.7093 380.195 13.392C380.195 13.968 380.248 14.2347 380.355 14.192C380.525 14.128 381.005 13.5627 381.795 12.496C382.584 11.4293 383.075 10.6827 383.267 10.256C383.715 9.31733 384.28 8.848 384.963 8.848C385.283 8.848 385.592 8.92267 385.891 9.072C386.531 9.37067 386.851 9.91467 386.851 10.704C386.851 11.0453 386.765 11.4187 386.595 11.824C386.445 12.1867 385.816 13.104 384.707 14.576C383.491 16.2187 382.872 17.072 382.851 17.136C382.808 17.2213 382.786 17.2853 382.786 17.328C382.786 17.52 383.64 18.2027 385.347 19.376C387.203 20.656 388.195 21.392 388.323 21.584C388.493 21.8187 388.579 22.1067 388.579 22.448C388.579 22.9173 388.419 23.3333 388.099 23.696C387.779 24.0373 387.373 24.2187 386.883 24.24C386.563 24.24 386.2 24.144 385.795 23.952C385.411 23.7387 384.611 23.216 383.395 22.384C381.517 21.1253 380.557 20.496 380.515 20.496C380.493 20.496 380.44 21.0827 380.355 22.256C380.312 23.0667 380.259 23.5893 380.195 23.824C380.152 24.0373 380.013 24.272 379.779 24.528C379.416 24.8907 378.989 25.072 378.499 25.072C378.136 25.072 377.805 24.976 377.507 24.784C377.208 24.5707 377.005 24.2933 376.899 23.952C376.813 23.6533 376.728 21.1893 376.643 16.56C376.579 12.464 376.472 9.22133 376.323 6.832C376.259 5.872 376.227 5.136 376.227 4.624C376.227 3.984 376.28 3.536 376.387 3.28C376.515 3.00267 376.728 2.77867 377.027 2.608ZM402.117 13.808C401.733 13.616 401.189 13.52 400.485 13.52C399.717 13.52 399.066 13.6373 398.533 13.872C398.17 14.0213 397.701 14.352 397.125 14.864C396.549 15.3547 396.261 15.6747 396.261 15.824C396.261 15.888 396.591 15.92 397.253 15.92C398.234 15.92 399.407 15.8667 400.773 15.76C402.138 15.6533 402.917 15.536 403.109 15.408C403.173 15.3867 403.205 15.3227 403.205 15.216C403.205 15.024 403.087 14.7787 402.853 14.48C402.618 14.16 402.373 13.936 402.117 13.808ZM398.341 10.096C398.874 9.94667 399.503 9.872 400.229 9.872C401.573 9.872 402.799 10.1387 403.909 10.672C404.741 11.0987 405.434 11.7493 405.989 12.624C406.543 13.4773 406.885 14.4373 407.013 15.504C407.013 15.5467 407.013 15.6107 407.013 15.696C407.034 15.7813 407.045 15.8453 407.045 15.888C407.045 16.4427 406.938 16.9867 406.725 17.52C406.533 18.0533 406.298 18.416 406.021 18.608C405.658 18.864 403.109 19.184 398.373 19.568C397.37 19.6533 396.869 19.7493 396.869 19.856C396.869 19.984 397.093 20.1867 397.541 20.464C397.989 20.7413 398.426 20.9333 398.853 21.04C399.237 21.1253 399.546 21.168 399.781 21.168C400.463 21.168 401.349 20.944 402.437 20.496C403.205 20.176 403.77 20.016 404.133 20.016C404.495 20.016 404.837 20.176 405.157 20.496C405.583 20.9227 405.797 21.328 405.797 21.712C405.797 21.968 405.733 22.2347 405.605 22.512C405.498 22.768 405.349 22.9707 405.157 23.12C404.986 23.2693 404.666 23.4507 404.197 23.664C402.639 24.3467 401.189 24.688 399.845 24.688C399.077 24.688 398.287 24.5707 397.477 24.336C396.389 23.9947 395.397 23.4187 394.501 22.608C393.605 21.776 392.965 20.8587 392.581 19.856C392.346 19.1947 392.229 18.4587 392.229 17.648C392.229 16.4747 392.421 15.4933 392.805 14.704C393.253 13.7227 394.01 12.784 395.077 11.888C396.143 10.992 397.231 10.3947 398.341 10.096ZM421.909 8.528C422.122 8.42133 422.378 8.368 422.677 8.368C423.765 8.368 424.448 9.28533 424.725 11.12C424.789 11.6747 424.864 11.952 424.949 11.952C424.97 11.952 425.269 11.7067 425.845 11.216C427.018 10.1707 428.213 9.648 429.429 9.648C430.09 9.648 430.72 9.82933 431.317 10.192C431.893 10.5547 432.266 10.8747 432.437 11.152L432.725 11.6L433.493 10.896C434.666 9.85067 435.925 9.328 437.269 9.328C438.57 9.328 439.69 9.82933 440.629 10.832C442.229 12.4747 443.178 15.28 443.477 19.248C443.52 19.9733 443.541 20.4213 443.541 20.592C443.541 21.1467 443.466 21.552 443.317 21.808C443.189 22.064 442.954 22.288 442.613 22.48C442.314 22.6293 442.026 22.704 441.749 22.704C441.28 22.704 440.864 22.4907 440.501 22.064C440.224 21.7013 440.042 21.0827 439.957 20.208C439.786 18.2453 439.573 16.784 439.317 15.824C439.061 14.864 438.698 14.1173 438.229 13.584C437.866 13.2 437.493 13.008 437.109 13.008C436.384 13.008 435.744 13.5733 435.189 14.704C434.976 15.152 434.837 15.568 434.773 15.952C434.709 16.336 434.656 17.2107 434.613 18.576C434.528 20.4533 434.421 21.5733 434.293 21.936C433.994 22.64 433.45 22.992 432.661 22.992C432.192 22.992 431.797 22.832 431.477 22.512C430.965 22 430.645 20.4853 430.517 17.968C430.453 17.008 430.336 16.08 430.165 15.184C429.994 14.288 429.834 13.7547 429.685 13.584C429.557 13.4347 429.418 13.36 429.269 13.36C429.013 13.36 428.586 13.6267 427.989 14.16C427.349 14.7573 426.869 15.3973 426.549 16.08C426.25 16.6987 426.069 17.2 426.005 17.584C425.962 17.9467 425.92 19.1947 425.877 21.328C425.856 21.8827 425.685 22.3307 425.365 22.672C425.045 23.0133 424.64 23.184 424.149 23.184C423.658 23.184 423.264 23.088 422.965 22.896C422.538 22.5973 422.24 22.0213 422.069 21.168C421.898 20.2933 421.706 18.2347 421.493 14.992C421.365 13.072 421.216 11.7707 421.045 11.088C420.917 10.576 420.853 10.2347 420.853 10.064C420.853 9.872 420.917 9.648 421.045 9.392C421.237 8.944 421.525 8.656 421.909 8.528ZM455.713 11.6C455.137 11.4933 454.657 11.44 454.273 11.44C453.399 11.44 452.663 11.6213 452.065 11.984C451.767 12.176 451.415 12.8267 451.009 13.936C450.625 15.024 450.433 15.8987 450.433 16.56C450.433 17.6267 450.775 18.4907 451.457 19.152C452.161 19.792 453.079 20.1227 454.209 20.144C455.127 20.144 455.98 19.888 456.769 19.376C457.58 18.864 458.167 18.192 458.529 17.36C458.764 16.8267 458.881 16.2187 458.881 15.536C458.881 14.704 458.721 13.9787 458.401 13.36C458.167 12.8693 457.847 12.496 457.441 12.24C457.036 11.984 456.46 11.7707 455.713 11.6ZM452.097 8.176C452.844 7.984 453.58 7.888 454.305 7.888C455.671 7.888 457.132 8.22933 458.689 8.912C459.799 9.40267 460.673 10.2667 461.313 11.504C461.975 12.7413 462.316 14.2027 462.337 15.888V16.08C462.337 18.6187 461.207 20.6773 458.945 22.256C457.537 23.2587 455.969 23.76 454.241 23.76C452.812 23.76 451.489 23.408 450.273 22.704C449.057 21.9787 448.14 20.9653 447.521 19.664C447.308 19.216 447.169 18.832 447.105 18.512C447.063 18.192 447.041 17.52 447.041 16.496C447.063 14.9813 447.223 13.7867 447.521 12.912C448.225 10.9707 449.057 9.65867 450.017 8.976C450.401 8.69867 451.095 8.432 452.097 8.176ZM466.302 9.328C466.686 9.008 467.102 8.848 467.55 8.848C468.019 8.848 468.424 9.01867 468.766 9.36C469.107 9.68 469.278 10.096 469.278 10.608C469.278 11.12 469.374 11.376 469.566 11.376C469.672 11.376 469.896 11.2587 470.238 11.024C471.816 9.936 473.384 9.392 474.942 9.392C475.603 9.392 476.254 9.50933 476.894 9.744C477.47 9.97867 477.875 10.2347 478.11 10.512C478.344 10.7893 478.462 11.1627 478.462 11.632C478.462 12.144 478.27 12.5813 477.886 12.944C477.566 13.2427 477.278 13.392 477.022 13.392C476.936 13.392 476.339 13.3173 475.23 13.168C475.102 13.1467 474.92 13.136 474.686 13.136C474.344 13.136 473.907 13.2533 473.374 13.488C471.987 14.128 471.016 14.9387 470.462 15.92C469.907 16.9013 469.63 18.3093 469.63 20.144C469.608 21.488 469.448 22.4267 469.15 22.96C468.872 23.4933 468.371 23.76 467.646 23.76C467.155 23.76 466.739 23.5893 466.398 23.248L465.886 22.736L465.822 17.072C465.779 12.8907 465.758 10.736 465.758 10.608C465.758 10.096 465.939 9.66933 466.302 9.328ZM491.867 13.808C491.483 13.616 490.939 13.52 490.235 13.52C489.467 13.52 488.816 13.6373 488.283 13.872C487.92 14.0213 487.451 14.352 486.875 14.864C486.299 15.3547 486.011 15.6747 486.011 15.824C486.011 15.888 486.341 15.92 487.003 15.92C487.984 15.92 489.157 15.8667 490.523 15.76C491.888 15.6533 492.667 15.536 492.859 15.408C492.923 15.3867 492.955 15.3227 492.955 15.216C492.955 15.024 492.837 14.7787 492.603 14.48C492.368 14.16 492.123 13.936 491.867 13.808ZM488.091 10.096C488.624 9.94667 489.253 9.872 489.979 9.872C491.323 9.872 492.549 10.1387 493.659 10.672C494.491 11.0987 495.184 11.7493 495.739 12.624C496.293 13.4773 496.635 14.4373 496.763 15.504C496.763 15.5467 496.763 15.6107 496.763 15.696C496.784 15.7813 496.795 15.8453 496.795 15.888C496.795 16.4427 496.688 16.9867 496.475 17.52C496.283 18.0533 496.048 18.416 495.771 18.608C495.408 18.864 492.859 19.184 488.123 19.568C487.12 19.6533 486.619 19.7493 486.619 19.856C486.619 19.984 486.843 20.1867 487.291 20.464C487.739 20.7413 488.176 20.9333 488.603 21.04C488.987 21.1253 489.296 21.168 489.531 21.168C490.213 21.168 491.099 20.944 492.187 20.496C492.955 20.176 493.52 20.016 493.883 20.016C494.245 20.016 494.587 20.176 494.907 20.496C495.333 20.9227 495.547 21.328 495.547 21.712C495.547 21.968 495.483 22.2347 495.355 22.512C495.248 22.768 495.099 22.9707 494.907 23.12C494.736 23.2693 494.416 23.4507 493.947 23.664C492.389 24.3467 490.939 24.688 489.595 24.688C488.827 24.688 488.037 24.5707 487.227 24.336C486.139 23.9947 485.147 23.4187 484.251 22.608C483.355 21.776 482.715 20.8587 482.331 19.856C482.096 19.1947 481.979 18.4587 481.979 17.648C481.979 16.4747 482.171 15.4933 482.555 14.704C483.003 13.7227 483.76 12.784 484.827 11.888C485.893 10.992 486.981 10.3947 488.091 10.096ZM514.585 8.496C514.969 8.432 515.363 8.4 515.769 8.4C517.049 8.4 518.19 8.688 519.193 9.264C520.195 9.84 520.697 10.5013 520.697 11.248C520.697 11.44 520.665 11.6107 520.601 11.76C520.281 12.5707 519.801 12.976 519.161 12.976C518.691 12.976 518.158 12.8267 517.561 12.528C516.878 12.1867 516.249 12.016 515.673 12.016C515.054 12.016 514.542 12.2187 514.137 12.624C513.923 12.8373 513.817 13.008 513.817 13.136C513.817 13.3067 513.977 13.5093 514.297 13.744C514.638 13.9573 515.257 14.2987 516.153 14.768C517.625 15.536 518.617 16.1653 519.129 16.656C519.619 17.0827 520.046 17.616 520.409 18.256C520.771 18.8747 520.953 19.3973 520.953 19.824C520.953 20.3147 520.825 20.8053 520.569 21.296C520.313 21.7867 519.993 22.16 519.609 22.416C518.627 23.0773 517.433 23.408 516.025 23.408C514.702 23.408 513.337 23.0987 511.929 22.48C511.267 22.16 510.851 21.7973 510.681 21.392C510.553 21.0933 510.489 20.8267 510.489 20.592C510.489 20.1653 510.691 19.7493 511.097 19.344C511.374 19.024 511.747 18.864 512.217 18.864C512.665 18.864 513.209 19.0027 513.849 19.28C514.553 19.5787 515.363 19.728 516.281 19.728C516.707 19.728 516.921 19.6747 516.921 19.568C516.921 19.312 516.003 18.7253 514.169 17.808C512.739 17.0613 511.694 16.3253 511.033 15.6C510.371 14.8533 510.041 14.032 510.041 13.136C510.041 12.0693 510.478 11.088 511.353 10.192C512.249 9.27467 513.326 8.70933 514.585 8.496ZM534.336 13.808C533.952 13.616 533.408 13.52 532.704 13.52C531.936 13.52 531.285 13.6373 530.752 13.872C530.389 14.0213 529.92 14.352 529.344 14.864C528.768 15.3547 528.48 15.6747 528.48 15.824C528.48 15.888 528.81 15.92 529.472 15.92C530.453 15.92 531.626 15.8667 532.992 15.76C534.357 15.6533 535.136 15.536 535.328 15.408C535.392 15.3867 535.424 15.3227 535.424 15.216C535.424 15.024 535.306 14.7787 535.072 14.48C534.837 14.16 534.592 13.936 534.336 13.808ZM530.56 10.096C531.093 9.94667 531.722 9.872 532.448 9.872C533.792 9.872 535.018 10.1387 536.128 10.672C536.96 11.0987 537.653 11.7493 538.208 12.624C538.762 13.4773 539.104 14.4373 539.232 15.504C539.232 15.5467 539.232 15.6107 539.232 15.696C539.253 15.7813 539.264 15.8453 539.264 15.888C539.264 16.4427 539.157 16.9867 538.944 17.52C538.752 18.0533 538.517 18.416 538.24 18.608C537.877 18.864 535.328 19.184 530.592 19.568C529.589 19.6533 529.088 19.7493 529.088 19.856C529.088 19.984 529.312 20.1867 529.76 20.464C530.208 20.7413 530.645 20.9333 531.072 21.04C531.456 21.1253 531.765 21.168 532 21.168C532.682 21.168 533.568 20.944 534.656 20.496C535.424 20.176 535.989 20.016 536.352 20.016C536.714 20.016 537.056 20.176 537.376 20.496C537.802 20.9227 538.016 21.328 538.016 21.712C538.016 21.968 537.952 22.2347 537.824 22.512C537.717 22.768 537.568 22.9707 537.376 23.12C537.205 23.2693 536.885 23.4507 536.416 23.664C534.858 24.3467 533.408 24.688 532.064 24.688C531.296 24.688 530.506 24.5707 529.696 24.336C528.608 23.9947 527.616 23.4187 526.72 22.608C525.824 21.776 525.184 20.8587 524.799 19.856C524.565 19.1947 524.448 18.4587 524.448 17.648C524.448 16.4747 524.64 15.4933 525.024 14.704C525.472 13.7227 526.229 12.784 527.296 11.888C528.362 10.992 529.45 10.3947 530.56 10.096ZM543.592 9.072C543.848 8.944 544.115 8.88 544.392 8.88C544.776 8.88 545.139 9.008 545.48 9.264C545.821 9.49867 546.056 9.81867 546.184 10.224L546.376 10.896L547.176 10.416C547.709 10.096 548.445 9.936 549.384 9.936C550.301 9.936 551.059 10.0853 551.656 10.384C552.147 10.6187 552.669 11.0027 553.224 11.536C553.8 12.0693 554.259 12.6027 554.6 13.136C555.752 14.9493 556.381 17.7653 556.488 21.584V22.224C556.488 22.736 556.339 23.152 556.04 23.472C555.677 23.8347 555.251 24.016 554.76 24.016C553.971 24.016 553.448 23.6747 553.192 22.992C553.064 22.6293 552.957 21.9147 552.872 20.848C552.616 17.1147 551.784 14.7787 550.376 13.84C550.077 13.648 549.779 13.552 549.48 13.552C548.925 13.552 548.424 13.8613 547.976 14.48C547.549 15.0773 547.208 15.9307 546.952 17.04C546.845 17.5307 546.717 18.416 546.568 19.696C546.419 20.976 546.344 21.84 546.344 22.288C546.344 22.5013 546.163 22.7893 545.8 23.152C545.437 23.4933 545.021 23.664 544.552 23.664C543.677 23.664 543.101 23.2053 542.824 22.288C542.696 21.84 542.632 19.8987 542.632 16.464C542.632 12.368 542.707 10.1387 542.856 9.776C542.984 9.49867 543.229 9.264 543.592 9.072ZM564.553 8.496C564.937 8.432 565.332 8.4 565.737 8.4C567.017 8.4 568.159 8.688 569.161 9.264C570.164 9.84 570.665 10.5013 570.665 11.248C570.665 11.44 570.633 11.6107 570.569 11.76C570.249 12.5707 569.769 12.976 569.129 12.976C568.66 12.976 568.127 12.8267 567.529 12.528C566.847 12.1867 566.217 12.016 565.641 12.016C565.023 12.016 564.511 12.2187 564.105 12.624C563.892 12.8373 563.785 13.008 563.785 13.136C563.785 13.3067 563.945 13.5093 564.265 13.744C564.607 13.9573 565.225 14.2987 566.121 14.768C567.593 15.536 568.585 16.1653 569.097 16.656C569.588 17.0827 570.015 17.616 570.377 18.256C570.74 18.8747 570.921 19.3973 570.921 19.824C570.921 20.3147 570.793 20.8053 570.537 21.296C570.281 21.7867 569.961 22.16 569.577 22.416C568.596 23.0773 567.401 23.408 565.993 23.408C564.671 23.408 563.305 23.0987 561.897 22.48C561.236 22.16 560.82 21.7973 560.649 21.392C560.521 21.0933 560.457 20.8267 560.457 20.592C560.457 20.1653 560.66 19.7493 561.065 19.344C561.343 19.024 561.716 18.864 562.185 18.864C562.633 18.864 563.177 19.0027 563.817 19.28C564.521 19.5787 565.332 19.728 566.249 19.728C566.676 19.728 566.889 19.6747 566.889 19.568C566.889 19.312 565.972 18.7253 564.137 17.808C562.708 17.0613 561.663 16.3253 561.001 15.6C560.34 14.8533 560.009 14.032 560.009 13.136C560.009 12.0693 560.447 11.088 561.321 10.192C562.217 9.27467 563.295 8.70933 564.553 8.496ZM584.304 13.808C583.92 13.616 583.376 13.52 582.672 13.52C581.904 13.52 581.254 13.6373 580.72 13.872C580.358 14.0213 579.888 14.352 579.312 14.864C578.736 15.3547 578.448 15.6747 578.448 15.824C578.448 15.888 578.779 15.92 579.44 15.92C580.422 15.92 581.595 15.8667 582.96 15.76C584.326 15.6533 585.104 15.536 585.296 15.408C585.36 15.3867 585.392 15.3227 585.392 15.216C585.392 15.024 585.275 14.7787 585.04 14.48C584.806 14.16 584.56 13.936 584.304 13.808ZM580.528 10.096C581.062 9.94667 581.691 9.872 582.416 9.872C583.76 9.872 584.987 10.1387 586.096 10.672C586.928 11.0987 587.622 11.7493 588.176 12.624C588.731 13.4773 589.072 14.4373 589.2 15.504C589.2 15.5467 589.2 15.6107 589.2 15.696C589.222 15.7813 589.232 15.8453 589.232 15.888C589.232 16.4427 589.126 16.9867 588.912 17.52C588.72 18.0533 588.486 18.416 588.208 18.608C587.846 18.864 585.296 19.184 580.56 19.568C579.558 19.6533 579.056 19.7493 579.056 19.856C579.056 19.984 579.28 20.1867 579.728 20.464C580.176 20.7413 580.614 20.9333 581.04 21.04C581.424 21.1253 581.734 21.168 581.968 21.168C582.651 21.168 583.536 20.944 584.624 20.496C585.392 20.176 585.958 20.016 586.32 20.016C586.683 20.016 587.024 20.176 587.344 20.496C587.771 20.9227 587.984 21.328 587.984 21.712C587.984 21.968 587.92 22.2347 587.792 22.512C587.686 22.768 587.536 22.9707 587.344 23.12C587.174 23.2693 586.854 23.4507 586.384 23.664C584.827 24.3467 583.376 24.688 582.032 24.688C581.264 24.688 580.475 24.5707 579.664 24.336C578.576 23.9947 577.584 23.4187 576.688 22.608C575.792 21.776 575.152 20.8587 574.768 19.856C574.534 19.1947 574.416 18.4587 574.416 17.648C574.416 16.4747 574.608 15.4933 574.992 14.704C575.44 13.7227 576.198 12.784 577.264 11.888C578.331 10.992 579.419 10.3947 580.528 10.096ZM607.894 8.912C607.979 8.89067 608.107 8.88 608.278 8.88C608.683 8.88 609.056 8.98667 609.398 9.2C609.739 9.392 609.974 9.65867 610.102 10C610.187 10.192 610.272 11.6533 610.358 14.384C610.464 17.0933 610.518 19.2267 610.518 20.784C610.518 21.4453 610.507 21.8293 610.486 21.936C610.379 22.7467 610.027 23.2907 609.43 23.568C609.131 23.696 608.896 23.76 608.726 23.76C608.598 23.76 608.406 23.728 608.15 23.664C607.659 23.5147 607.35 23.312 607.222 23.056C606.966 22.5653 606.816 20.6667 606.774 17.36C606.774 16.7627 606.763 15.728 606.742 14.256L606.71 9.872L607.094 9.424C607.35 9.12533 607.616 8.95467 607.894 8.912ZM607.126 2.896C607.382 2.768 607.627 2.704 607.862 2.704C608.331 2.704 608.747 2.896 609.11 3.28C609.472 3.64267 609.654 4.06933 609.654 4.56C609.654 4.90133 609.568 5.2 609.398 5.456C609.035 6.032 608.544 6.32 607.926 6.32C607.52 6.32 607.147 6.18133 606.806 5.904C606.464 5.62667 606.251 5.24267 606.166 4.752C606.166 4.73067 606.155 4.69867 606.134 4.656C606.134 4.592 606.134 4.54933 606.134 4.528C606.134 4.208 606.23 3.89867 606.422 3.6C606.614 3.28 606.848 3.04533 607.126 2.896ZM614.811 9.072C615.067 8.944 615.333 8.88 615.611 8.88C615.995 8.88 616.357 9.008 616.699 9.264C617.04 9.49867 617.275 9.81867 617.403 10.224L617.595 10.896L618.395 10.416C618.928 10.096 619.664 9.936 620.603 9.936C621.52 9.936 622.277 10.0853 622.875 10.384C623.365 10.6187 623.888 11.0027 624.443 11.536C625.019 12.0693 625.477 12.6027 625.819 13.136C626.971 14.9493 627.6 17.7653 627.707 21.584V22.224C627.707 22.736 627.557 23.152 627.259 23.472C626.896 23.8347 626.469 24.016 625.979 24.016C625.189 24.016 624.667 23.6747 624.411 22.992C624.283 22.6293 624.176 21.9147 624.091 20.848C623.835 17.1147 623.003 14.7787 621.595 13.84C621.296 13.648 620.997 13.552 620.699 13.552C620.144 13.552 619.643 13.8613 619.195 14.48C618.768 15.0773 618.427 15.9307 618.171 17.04C618.064 17.5307 617.936 18.416 617.787 19.696C617.637 20.976 617.563 21.84 617.563 22.288C617.563 22.5013 617.381 22.7893 617.019 23.152C616.656 23.4933 616.24 23.664 615.771 23.664C614.896 23.664 614.32 23.2053 614.043 22.288C613.915 21.84 613.851 19.8987 613.851 16.464C613.851 12.368 613.925 10.1387 614.075 9.776C614.203 9.49867 614.448 9.264 614.811 9.072ZM654.958 13.232C654.339 12.6133 653.379 12.304 652.078 12.304C651.438 12.304 650.872 12.4107 650.382 12.624C649.912 12.8373 649.4 13.2533 648.846 13.872C648.291 14.4907 647.928 15.056 647.758 15.568C647.566 16.1227 647.47 16.6453 647.47 17.136C647.47 18.2667 647.918 19.0667 648.814 19.536C649.347 19.8133 650.04 19.952 650.894 19.952C651.47 19.952 651.907 19.8773 652.206 19.728C653.934 18.8533 654.99 17.2853 655.374 15.024L655.566 13.808L654.958 13.232ZM650.094 8.88C650.606 8.73067 651.203 8.656 651.886 8.656C653.038 8.656 654.168 8.85867 655.278 9.264C656.387 9.66933 657.155 10.1813 657.582 10.8C657.88 11.2267 658.264 11.6747 658.734 12.144C659.246 12.6773 659.715 13.5947 660.142 14.896C660.547 16.1333 660.92 17.5093 661.262 19.024C661.624 20.5387 661.806 21.5627 661.806 22.096C661.806 22.6293 661.646 23.0453 661.326 23.344C660.92 23.728 660.536 23.92 660.174 23.92C660.024 23.92 659.832 23.888 659.598 23.824C659.192 23.6747 658.872 23.4187 658.638 23.056C658.424 22.6933 658.232 22.1067 658.062 21.296C657.848 20.336 657.731 19.856 657.71 19.856C657.624 19.856 657.176 20.2613 656.366 21.072C654.766 22.6293 653.102 23.472 651.374 23.6H650.926C649.88 23.6 648.856 23.4187 647.854 23.056C646.872 22.6933 646.094 22.2133 645.518 21.616C645.219 21.3173 644.92 20.8693 644.622 20.272C644.323 19.6533 644.12 19.088 644.014 18.576C643.907 18.0427 643.854 17.5627 643.854 17.136C643.854 15.3653 644.451 13.6693 645.646 12.048C646.862 10.4267 648.344 9.37067 650.094 8.88ZM679.678 8.496C680.062 8.432 680.457 8.4 680.862 8.4C682.142 8.4 683.284 8.688 684.286 9.264C685.289 9.84 685.79 10.5013 685.79 11.248C685.79 11.44 685.758 11.6107 685.694 11.76C685.374 12.5707 684.894 12.976 684.254 12.976C683.785 12.976 683.252 12.8267 682.654 12.528C681.972 12.1867 681.342 12.016 680.766 12.016C680.148 12.016 679.636 12.2187 679.23 12.624C679.017 12.8373 678.91 13.008 678.91 13.136C678.91 13.3067 679.07 13.5093 679.39 13.744C679.732 13.9573 680.35 14.2987 681.246 14.768C682.718 15.536 683.71 16.1653 684.222 16.656C684.713 17.0827 685.14 17.616 685.502 18.256C685.865 18.8747 686.046 19.3973 686.046 19.824C686.046 20.3147 685.918 20.8053 685.662 21.296C685.406 21.7867 685.086 22.16 684.702 22.416C683.721 23.0773 682.526 23.408 681.118 23.408C679.796 23.408 678.43 23.0987 677.022 22.48C676.361 22.16 675.945 21.7973 675.774 21.392C675.646 21.0933 675.582 20.8267 675.582 20.592C675.582 20.1653 675.785 19.7493 676.19 19.344C676.468 19.024 676.841 18.864 677.31 18.864C677.758 18.864 678.302 19.0027 678.942 19.28C679.646 19.5787 680.457 19.728 681.374 19.728C681.801 19.728 682.014 19.6747 682.014 19.568C682.014 19.312 681.097 18.7253 679.262 17.808C677.833 17.0613 676.788 16.3253 676.126 15.6C675.465 14.8533 675.134 14.032 675.134 13.136C675.134 12.0693 675.572 11.088 676.446 10.192C677.342 9.27467 678.42 8.70933 679.678 8.496ZM694.469 1.52C694.832 1.15733 695.269 0.975998 695.781 0.975998C696.165 0.975998 696.507 1.09333 696.805 1.328C697.125 1.54133 697.349 1.85067 697.477 2.256C697.541 2.49067 697.648 3.6 697.797 5.584C697.947 7.54667 698.021 8.912 698.021 9.68C698.021 9.872 698.064 9.98933 698.149 10.032C698.256 10.0747 698.501 10.096 698.885 10.096C699.461 10.096 699.792 10.032 699.877 9.904C699.92 9.79733 700.357 9.744 701.189 9.744C702.256 9.744 702.96 9.81867 703.301 9.968C703.621 10.1173 703.867 10.4053 704.037 10.832C704.187 11.1307 704.261 11.376 704.261 11.568C704.261 11.7173 704.229 11.8987 704.165 12.112C704.016 12.6027 703.739 12.9333 703.333 13.104C702.949 13.2533 702.181 13.36 701.029 13.424C699.728 13.488 698.885 13.5733 698.501 13.68L697.989 13.808L698.117 18.32C698.16 20.3253 698.181 21.4027 698.181 21.552C698.181 22.4907 698.107 23.12 697.957 23.44C697.637 24.1227 697.115 24.464 696.389 24.464C696.112 24.464 695.824 24.4 695.525 24.272C695.291 24.1653 695.12 24.0693 695.013 23.984C694.907 23.8773 694.811 23.6107 694.725 23.184C694.64 22.736 694.587 22.2133 694.565 21.616C694.544 21.0187 694.523 20.0373 694.501 18.672L694.437 14.032L693.477 14.064C692.901 14.1067 692.389 14.192 691.941 14.32C691.835 14.3627 691.664 14.384 691.429 14.384C690.704 14.384 690.181 14.16 689.861 13.712C689.691 13.4347 689.605 13.0613 689.605 12.592C689.605 12.1867 689.669 11.8667 689.797 11.632C690.096 11.0987 691.141 10.6933 692.933 10.416L694.405 10.192L694.277 7.376C694.192 5.37067 694.117 4.00533 694.053 3.28C694.011 2.768 693.989 2.49067 693.989 2.448C693.989 2.14933 694.149 1.84 694.469 1.52ZM708.302 9.328C708.686 9.008 709.102 8.848 709.55 8.848C710.019 8.848 710.424 9.01867 710.766 9.36C711.107 9.68 711.278 10.096 711.278 10.608C711.278 11.12 711.374 11.376 711.566 11.376C711.672 11.376 711.896 11.2587 712.238 11.024C713.816 9.936 715.384 9.392 716.942 9.392C717.603 9.392 718.254 9.50933 718.894 9.744C719.47 9.97867 719.875 10.2347 720.11 10.512C720.344 10.7893 720.462 11.1627 720.462 11.632C720.462 12.144 720.27 12.5813 719.886 12.944C719.566 13.2427 719.278 13.392 719.022 13.392C718.936 13.392 718.339 13.3173 717.23 13.168C717.102 13.1467 716.92 13.136 716.686 13.136C716.344 13.136 715.907 13.2533 715.374 13.488C713.987 14.128 713.016 14.9387 712.462 15.92C711.907 16.9013 711.63 18.3093 711.63 20.144C711.608 21.488 711.448 22.4267 711.15 22.96C710.872 23.4933 710.371 23.76 709.646 23.76C709.155 23.76 708.739 23.5893 708.398 23.248L707.886 22.736L707.822 17.072C707.779 12.8907 707.758 10.736 707.758 10.608C707.758 10.096 707.939 9.66933 708.302 9.328ZM735.083 13.232C734.464 12.6133 733.504 12.304 732.203 12.304C731.563 12.304 730.997 12.4107 730.507 12.624C730.037 12.8373 729.525 13.2533 728.971 13.872C728.416 14.4907 728.053 15.056 727.883 15.568C727.691 16.1227 727.595 16.6453 727.595 17.136C727.595 18.2667 728.043 19.0667 728.939 19.536C729.472 19.8133 730.165 19.952 731.019 19.952C731.595 19.952 732.032 19.8773 732.331 19.728C734.059 18.8533 735.115 17.2853 735.499 15.024L735.691 13.808L735.083 13.232ZM730.219 8.88C730.731 8.73067 731.328 8.656 732.011 8.656C733.163 8.656 734.293 8.85867 735.403 9.264C736.512 9.66933 737.28 10.1813 737.707 10.8C738.005 11.2267 738.389 11.6747 738.859 12.144C739.371 12.6773 739.84 13.5947 740.267 14.896C740.672 16.1333 741.045 17.5093 741.387 19.024C741.749 20.5387 741.931 21.5627 741.931 22.096C741.931 22.6293 741.771 23.0453 741.451 23.344C741.045 23.728 740.661 23.92 740.299 23.92C740.149 23.92 739.957 23.888 739.723 23.824C739.317 23.6747 738.997 23.4187 738.763 23.056C738.549 22.6933 738.357 22.1067 738.187 21.296C737.973 20.336 737.856 19.856 737.835 19.856C737.749 19.856 737.301 20.2613 736.491 21.072C734.891 22.6293 733.227 23.472 731.499 23.6H731.051C730.005 23.6 728.981 23.4187 727.979 23.056C726.997 22.6933 726.219 22.2133 725.643 21.616C725.344 21.3173 725.045 20.8693 724.747 20.272C724.448 19.6533 724.245 19.088 724.139 18.576C724.032 18.0427 723.979 17.5627 723.979 17.136C723.979 15.3653 724.576 13.6693 725.771 12.048C726.987 10.4267 728.469 9.37067 730.219 8.88ZM746.342 9.072C746.598 8.944 746.865 8.88 747.142 8.88C747.526 8.88 747.889 9.008 748.23 9.264C748.571 9.49867 748.806 9.81867 748.934 10.224L749.126 10.896L749.926 10.416C750.459 10.096 751.195 9.936 752.134 9.936C753.051 9.936 753.809 10.0853 754.406 10.384C754.897 10.6187 755.419 11.0027 755.974 11.536C756.55 12.0693 757.009 12.6027 757.35 13.136C758.502 14.9493 759.131 17.7653 759.238 21.584V22.224C759.238 22.736 759.089 23.152 758.79 23.472C758.427 23.8347 758.001 24.016 757.51 24.016C756.721 24.016 756.198 23.6747 755.942 22.992C755.814 22.6293 755.707 21.9147 755.622 20.848C755.366 17.1147 754.534 14.7787 753.126 13.84C752.827 13.648 752.529 13.552 752.23 13.552C751.675 13.552 751.174 13.8613 750.726 14.48C750.299 15.0773 749.958 15.9307 749.702 17.04C749.595 17.5307 749.467 18.416 749.318 19.696C749.169 20.976 749.094 21.84 749.094 22.288C749.094 22.5013 748.913 22.7893 748.55 23.152C748.187 23.4933 747.771 23.664 747.302 23.664C746.427 23.664 745.851 23.2053 745.574 22.288C745.446 21.84 745.382 19.8987 745.382 16.464C745.382 12.368 745.457 10.1387 745.606 9.776C745.734 9.49867 745.979 9.264 746.342 9.072ZM771.463 12.624C771.357 12.5387 771.101 12.496 770.695 12.496C769.949 12.496 769.33 12.6027 768.839 12.816C767.175 13.584 766.343 14.8427 766.343 16.592C766.343 17.36 766.525 18.1067 766.887 18.832C767.442 19.9413 768.21 20.496 769.191 20.496C769.49 20.496 769.725 20.4427 769.895 20.336C770.087 20.2293 770.375 19.9733 770.759 19.568C771.655 18.6507 772.189 17.264 772.359 15.408C772.381 15.2373 772.391 15.024 772.391 14.768C772.391 14.3627 772.285 13.9467 772.071 13.52C771.837 13.0293 771.634 12.7307 771.463 12.624ZM768.615 9.072C769.085 8.92267 769.629 8.848 770.247 8.848C771.037 8.848 771.805 8.976 772.551 9.232C773.298 9.46667 773.863 9.78667 774.247 10.192C774.525 10.4693 774.877 11.0347 775.303 11.888C775.602 12.464 775.783 12.9333 775.847 13.296C775.933 13.6373 776.007 14.352 776.071 15.44C776.114 15.9093 776.178 16.7093 776.263 17.84C776.37 18.9707 776.455 20.016 776.519 20.976C776.583 21.936 776.615 22.8107 776.615 23.6C776.615 24.8587 776.519 25.936 776.327 26.832C775.709 29.6267 774.397 31.3867 772.391 32.112C771.751 32.3467 770.887 32.464 769.799 32.464C769.074 32.4427 768.53 32.3893 768.167 32.304C767.805 32.24 767.261 32.0693 766.535 31.792C765.298 31.3227 764.477 30.96 764.071 30.704C763.666 30.4693 763.389 30.1813 763.239 29.84C763.154 29.6053 763.111 29.3707 763.111 29.136C763.111 28.432 763.431 27.92 764.071 27.6L764.775 27.28L766.695 28.048C767.57 28.3893 768.199 28.6027 768.583 28.688C768.967 28.7733 769.458 28.816 770.055 28.816C770.695 28.816 771.101 28.784 771.271 28.72C771.442 28.6773 771.645 28.5173 771.879 28.24C772.562 27.4293 772.967 26.064 773.095 24.144C773.117 23.9733 773.127 23.7493 773.127 23.472C773.127 23.0027 773.042 22.768 772.871 22.768C772.743 22.768 772.53 22.8853 772.231 23.12C771.378 23.76 770.365 24.08 769.191 24.08H768.807C768.082 24.08 767.41 23.92 766.791 23.6C765.874 23.152 765.074 22.4907 764.391 21.616C763.73 20.7413 763.271 19.7707 763.015 18.704C762.866 17.9573 762.791 17.2 762.791 16.432C762.791 14.6613 763.303 13.1253 764.327 11.824C765.373 10.5013 766.802 9.584 768.615 9.072ZM789.992 13.808C789.608 13.616 789.064 13.52 788.36 13.52C787.592 13.52 786.941 13.6373 786.408 13.872C786.045 14.0213 785.576 14.352 785 14.864C784.424 15.3547 784.136 15.6747 784.136 15.824C784.136 15.888 784.466 15.92 785.128 15.92C786.109 15.92 787.282 15.8667 788.648 15.76C790.013 15.6533 790.792 15.536 790.984 15.408C791.048 15.3867 791.08 15.3227 791.08 15.216C791.08 15.024 790.962 14.7787 790.728 14.48C790.493 14.16 790.248 13.936 789.992 13.808ZM786.216 10.096C786.749 9.94667 787.378 9.872 788.104 9.872C789.448 9.872 790.674 10.1387 791.784 10.672C792.616 11.0987 793.309 11.7493 793.864 12.624C794.418 13.4773 794.76 14.4373 794.888 15.504C794.888 15.5467 794.888 15.6107 794.888 15.696C794.909 15.7813 794.92 15.8453 794.92 15.888C794.92 16.4427 794.813 16.9867 794.6 17.52C794.408 18.0533 794.173 18.416 793.896 18.608C793.533 18.864 790.984 19.184 786.248 19.568C785.245 19.6533 784.744 19.7493 784.744 19.856C784.744 19.984 784.968 20.1867 785.416 20.464C785.864 20.7413 786.301 20.9333 786.728 21.04C787.112 21.1253 787.421 21.168 787.656 21.168C788.338 21.168 789.224 20.944 790.312 20.496C791.08 20.176 791.645 20.016 792.008 20.016C792.37 20.016 792.712 20.176 793.032 20.496C793.458 20.9227 793.672 21.328 793.672 21.712C793.672 21.968 793.608 22.2347 793.48 22.512C793.373 22.768 793.224 22.9707 793.032 23.12C792.861 23.2693 792.541 23.4507 792.072 23.664C790.514 24.3467 789.064 24.688 787.72 24.688C786.952 24.688 786.162 24.5707 785.352 24.336C784.264 23.9947 783.272 23.4187 782.376 22.608C781.48 21.776 780.84 20.8587 780.456 19.856C780.221 19.1947 780.104 18.4587 780.104 17.648C780.104 16.4747 780.296 15.4933 780.68 14.704C781.128 13.7227 781.885 12.784 782.952 11.888C784.018 10.992 785.106 10.3947 786.216 10.096ZM808.722 8.08C809.106 7.90933 809.352 7.824 809.458 7.824C809.544 7.824 809.789 7.90933 810.194 8.08C810.578 8.22933 810.877 8.54933 811.09 9.04C811.325 9.53067 811.634 10.5227 812.018 12.016C813.064 16.1333 813.704 18.3093 813.938 18.544H813.97C814.056 18.544 814.376 17.9147 814.93 16.656C815.485 15.376 816.125 14.064 816.85 12.72C817.597 11.3547 818.226 10.5973 818.738 10.448C818.952 10.384 819.186 10.352 819.442 10.352C820.253 10.352 820.85 10.576 821.234 11.024C821.49 11.3227 821.885 12.1547 822.418 13.52C823.634 16.5493 824.306 18.064 824.434 18.064H824.466C824.53 18.0213 824.914 16.976 825.618 14.928C826.322 12.7947 826.802 11.4507 827.058 10.896C827.336 10.3413 827.677 9.97867 828.082 9.808C828.36 9.68 828.648 9.616 828.946 9.616C829.053 9.616 829.128 9.62667 829.17 9.648C829.512 9.73333 829.832 9.94667 830.13 10.288C830.45 10.6293 830.61 10.9493 830.61 11.248C830.61 11.5893 830.12 13.104 829.138 15.792C828.178 18.48 827.464 20.3147 826.994 21.296C826.504 22.32 826.098 22.992 825.778 23.312C825.458 23.6107 825.032 23.76 824.498 23.76C823.73 23.76 823.176 23.5573 822.834 23.152C822.514 22.7253 821.917 21.4987 821.042 19.472C819.997 17.104 819.421 15.92 819.314 15.92C819.208 15.92 818.728 16.88 817.874 18.8C816.85 21.1253 816.125 22.576 815.698 23.152C815.272 23.7067 814.674 23.984 813.906 23.984H813.746C813.021 23.9627 812.552 23.8453 812.338 23.632C811.528 22.9493 810.301 19.5467 808.658 13.424C808.04 11.12 807.73 9.78667 807.73 9.424C807.73 9.232 807.773 9.05067 807.858 8.88C808.05 8.47467 808.338 8.208 808.722 8.08ZM843.351 13.68C843.244 13.3387 843.148 13.1467 843.063 13.104C842.978 13.04 842.743 13.008 842.359 13.008C841.25 13.0293 840.215 13.552 839.255 14.576C838.295 15.5787 837.815 16.592 837.815 17.616C837.815 18.128 837.954 18.5547 838.231 18.896C838.85 19.5787 839.5 19.92 840.183 19.92C840.226 19.92 840.268 19.92 840.311 19.92C840.354 19.8987 840.396 19.888 840.439 19.888C840.823 19.8027 841.228 19.5467 841.655 19.12C842.103 18.6933 842.444 18.224 842.679 17.712C843.17 16.56 843.415 15.44 843.415 14.352C843.415 14.032 843.394 13.808 843.351 13.68ZM840.375 9.648C840.951 9.456 841.612 9.36 842.359 9.36C843.34 9.36 844.172 9.52 844.855 9.84C845.303 10.0747 845.708 10.4267 846.071 10.896C846.455 11.344 846.69 11.7707 846.775 12.176C846.86 12.5813 846.978 12.9653 847.127 13.328C847.362 13.9467 847.831 16.272 848.535 20.304C848.642 20.944 848.695 21.424 848.695 21.744C848.695 23.024 848.098 23.664 846.903 23.664C846.498 23.664 846.124 23.504 845.783 23.184C845.463 22.864 845.26 22.4693 845.175 22C845.09 21.5733 845.015 21.328 844.951 21.264C844.866 21.2 844.62 21.3707 844.215 21.776C842.999 22.992 841.602 23.6 840.023 23.6C839.746 23.6 839.458 23.568 839.159 23.504C837.986 23.248 836.887 22.608 835.863 21.584C834.711 20.432 834.135 19.1413 834.135 17.712C834.135 16.5813 834.487 15.3547 835.191 14.032C835.724 13.0293 836.45 12.1333 837.367 11.344C838.306 10.5547 839.308 9.98933 840.375 9.648ZM864.197 8.272C864.41 8.208 864.57 8.176 864.677 8.176C864.762 8.176 865.007 8.26133 865.413 8.432C865.839 8.60267 866.138 8.89067 866.309 9.296C866.394 9.46667 866.437 9.65867 866.437 9.872C866.437 10.192 866.181 11.1627 865.669 12.784C864.73 15.792 863.546 18.8107 862.117 21.84C861.455 23.2907 860.442 25.168 859.077 27.472C857.711 29.7973 856.879 31.0453 856.581 31.216C856.239 31.4293 855.887 31.536 855.525 31.536C855.034 31.536 854.607 31.3653 854.245 31.024C853.903 30.704 853.733 30.2773 853.733 29.744C853.733 29.36 854.074 28.6347 854.757 27.568C855.29 26.736 855.983 25.5627 856.837 24.048C857.69 22.512 858.117 21.6907 858.117 21.584C858.117 21.52 857.882 21.0933 857.413 20.304C857.199 19.9627 856.442 18.576 855.141 16.144C853.861 13.6907 853.082 12.272 852.805 11.888C852.463 11.3973 852.293 10.9067 852.293 10.416C852.293 9.712 852.634 9.21067 853.317 8.912C853.573 8.80533 853.797 8.752 853.989 8.752C854.437 8.752 854.874 9.008 855.301 9.52C855.727 10.0107 856.271 10.864 856.933 12.08C858.362 14.7253 859.333 16.4533 859.845 17.264C859.951 17.4133 860.015 17.488 860.037 17.488C860.122 17.488 860.335 17.0293 860.677 16.112C861.167 14.768 861.658 13.3387 862.149 11.824C862.575 10.4587 862.917 9.552 863.173 9.104C863.45 8.656 863.791 8.37867 864.197 8.272ZM871.099 20.56C871.483 20.4107 871.707 20.336 871.771 20.336L872.379 20.56C873.147 20.88 873.531 21.456 873.531 22.288C873.531 22.736 873.339 23.1627 872.955 23.568C872.592 23.9733 872.208 24.176 871.803 24.176C871.419 24.176 871.056 24.048 870.715 23.792C870.395 23.5147 870.171 23.1733 870.043 22.768C869.979 22.576 869.947 22.3947 869.947 22.224C869.947 21.84 870.053 21.4987 870.267 21.2C870.48 20.88 870.757 20.6667 871.099 20.56Z" fill="white"/>
</svg>
