<svg width="1141" height="32" viewBox="0 0 1141 32" fill="none" xmlns="http://www.w3.org/2000/svg">
<path d="M1.336 4.272C1.67733 3.952 1.99733 3.792 2.296 3.792C2.46667 3.792 2.616 3.80267 2.744 3.824C3.32 3.888 3.72533 4.08 3.96 4.4L4.376 4.88L4.312 13.264C4.29067 18.7893 4.19467 21.7653 4.024 22.192C3.74667 22.832 3.21333 23.152 2.424 23.152C2.168 23.152 1.976 23.1307 1.848 23.088C1.528 22.9813 1.31467 22.9067 1.208 22.864C1.12267 22.8 1.016 22.608 0.888 22.288C0.781333 21.9467 0.717333 21.4773 0.696 20.88C0.674667 20.2827 0.664 19.3653 0.664 18.128C0.664 17.7867 0.664 17.0933 0.664 16.048C0.685333 15.0027 0.696 14.128 0.696 13.424L0.728 4.784L1.336 4.272ZM12.6225 3.504C12.3452 4.63467 11.9505 5.872 11.4385 7.216C10.9265 8.56 10.4038 9.81867 9.8705 10.992H6.4465C6.74517 9.73333 7.04383 8.38933 7.3425 6.96C7.64117 5.53067 7.86517 4.26133 8.0145 3.152H12.3985L12.6225 3.504ZM15.784 8.528C15.9973 8.42133 16.2533 8.368 16.552 8.368C17.64 8.368 18.3227 9.28533 18.6 11.12C18.664 11.6747 18.7387 11.952 18.824 11.952C18.8453 11.952 19.144 11.7067 19.72 11.216C20.8933 10.1707 22.088 9.648 23.304 9.648C23.9653 9.648 24.5947 9.82933 25.192 10.192C25.768 10.5547 26.1413 10.8747 26.312 11.152L26.6 11.6L27.368 10.896C28.5413 9.85067 29.8 9.328 31.144 9.328C32.4453 9.328 33.5653 9.82933 34.504 10.832C36.104 12.4747 37.0533 15.28 37.352 19.248C37.3947 19.9733 37.416 20.4213 37.416 20.592C37.416 21.1467 37.3413 21.552 37.192 21.808C37.064 22.064 36.8293 22.288 36.488 22.48C36.1893 22.6293 35.9013 22.704 35.624 22.704C35.1547 22.704 34.7387 22.4907 34.376 22.064C34.0987 21.7013 33.9173 21.0827 33.832 20.208C33.6613 18.2453 33.448 16.784 33.192 15.824C32.936 14.864 32.5733 14.1173 32.104 13.584C31.7413 13.2 31.368 13.008 30.984 13.008C30.2587 13.008 29.6187 13.5733 29.064 14.704C28.8507 15.152 28.712 15.568 28.648 15.952C28.584 16.336 28.5307 17.2107 28.488 18.576C28.4027 20.4533 28.296 21.5733 28.168 21.936C27.8693 22.64 27.3253 22.992 26.536 22.992C26.0667 22.992 25.672 22.832 25.352 22.512C24.84 22 24.52 20.4853 24.392 17.968C24.328 17.008 24.2107 16.08 24.04 15.184C23.8693 14.288 23.7093 13.7547 23.56 13.584C23.432 13.4347 23.2933 13.36 23.144 13.36C22.888 13.36 22.4613 13.6267 21.864 14.16C21.224 14.7573 20.744 15.3973 20.424 16.08C20.1253 16.6987 19.944 17.2 19.88 17.584C19.8373 17.9467 19.7947 19.1947 19.752 21.328C19.7307 21.8827 19.56 22.3307 19.24 22.672C18.92 23.0133 18.5147 23.184 18.024 23.184C17.5333 23.184 17.1387 23.088 16.84 22.896C16.4133 22.5973 16.1147 22.0213 15.944 21.168C15.7733 20.2933 15.5813 18.2347 15.368 14.992C15.24 13.072 15.0907 11.7707 14.92 11.088C14.792 10.576 14.728 10.2347 14.728 10.064C14.728 9.872 14.792 9.648 14.92 9.392C15.112 8.944 15.4 8.656 15.784 8.528ZM51.708 2.544C52.0707 2.18133 52.4973 2 52.988 2C53.6707 2 54.1933 2.30933 54.556 2.928C54.6413 3.09867 54.7587 5.72267 54.908 10.8C55.0787 15.8773 55.164 19.632 55.164 22.064C55.164 22.9387 55.1533 23.4187 55.132 23.504C55.068 23.8667 54.8867 24.1547 54.588 24.368C54.2893 24.56 53.9373 24.656 53.532 24.656C53.0413 24.656 52.604 24.496 52.22 24.176L51.676 23.696L51.548 20.656C51.4413 17.9467 51.356 14.512 51.292 10.352L51.164 3.056L51.708 2.544ZM63.435 3.824C64.1177 3.65333 64.7577 3.568 65.355 3.568C66.7203 3.568 67.979 3.89867 69.131 4.56C70.3043 5.22133 71.1683 6.10667 71.723 7.216C72.043 7.856 72.203 8.64533 72.203 9.584C72.203 10.1813 72.1603 10.6293 72.075 10.928C72.011 11.2267 71.8403 11.6853 71.563 12.304C71.1363 13.2 70.6137 14.0427 69.995 14.832C69.3763 15.6213 68.4483 16.6347 67.211 17.872C65.931 19.152 65.291 19.8773 65.291 20.048C65.291 20.112 66.475 20.1867 68.843 20.272C71.1683 20.3573 72.4483 20.4427 72.683 20.528C73.3443 20.784 73.675 21.3067 73.675 22.096C73.675 22.5653 73.515 22.9813 73.195 23.344L72.683 23.92H70.603C69.5363 23.92 67.403 23.856 64.203 23.728L59.819 23.536L59.339 22.96C58.9977 22.5547 58.827 22.096 58.827 21.584C58.827 21.3707 58.8803 21.136 58.987 20.88C59.115 20.6453 60.107 19.6853 61.963 18C66.4003 13.9253 68.619 11.1307 68.619 9.616C68.619 9.168 68.523 8.80533 68.331 8.528C68.1603 8.25067 67.819 7.96267 67.307 7.664C66.795 7.36533 66.1657 7.216 65.419 7.216C64.6723 7.216 63.9683 7.376 63.307 7.696C62.6457 8.016 62.2083 8.432 61.995 8.944C61.7177 9.584 61.1843 9.904 60.395 9.904C59.883 9.904 59.4563 9.73333 59.115 9.392C58.795 9.072 58.635 8.67733 58.635 8.208C58.635 7.39733 59.0937 6.56533 60.011 5.712C60.9497 4.83733 62.091 4.208 63.435 3.824ZM79.8513 20.176C80.1499 19.9413 80.4806 19.824 80.8433 19.824C81.2913 19.824 81.6646 19.9627 81.9633 20.24C82.3899 20.6027 82.6033 21.04 82.6033 21.552C82.6033 21.9573 82.5179 22.384 82.3473 22.832C82.2619 23.0667 81.9313 24.176 81.3553 26.16C80.9499 27.632 80.5659 28.5173 80.2033 28.816C79.8619 29.1147 79.4993 29.264 79.1153 29.264C78.7099 29.264 78.3366 29.1147 77.9953 28.816C77.5686 28.432 77.3553 28.0053 77.3553 27.536C77.3553 27.2373 77.4193 26.8747 77.5473 26.448C77.5899 26.2987 77.6859 25.9147 77.8353 25.296C78.0059 24.656 78.1339 24.1653 78.2193 23.824C78.7313 21.8187 79.2753 20.6027 79.8513 20.176ZM96.958 2.544C97.3207 2.18133 97.7473 2 98.238 2C98.9207 2 99.4433 2.30933 99.806 2.928C99.8913 3.09867 100.009 5.72267 100.158 10.8C100.329 15.8773 100.414 19.632 100.414 22.064C100.414 22.9387 100.403 23.4187 100.382 23.504C100.318 23.8667 100.137 24.1547 99.838 24.368C99.5393 24.56 99.1873 24.656 98.782 24.656C98.2913 24.656 97.854 24.496 97.47 24.176L96.926 23.696L96.798 20.656C96.6913 17.9467 96.606 14.512 96.542 10.352L96.414 3.056L96.958 2.544ZM108.557 3.248C109.026 3.01333 109.4 2.864 109.677 2.8C109.976 2.736 110.466 2.704 111.149 2.704C112.28 2.704 113.058 2.84267 113.485 3.12C113.912 3.376 114.125 3.856 114.125 4.56C114.125 5.02933 113.965 5.424 113.645 5.744C113.432 5.95733 113.229 6.096 113.037 6.16C112.845 6.20267 112.45 6.224 111.853 6.224C110.957 6.224 110.274 6.37333 109.805 6.672C109.229 7.01333 108.728 7.54667 108.301 8.272C107.874 8.99733 107.661 9.66933 107.661 10.288V10.512C107.704 10.9173 107.917 11.2373 108.301 11.472C108.706 11.7067 109.208 11.824 109.805 11.824C110.317 11.824 110.85 11.728 111.405 11.536C111.81 11.408 112.29 11.184 112.845 10.864C113.421 10.5227 113.752 10.2773 113.837 10.128C113.88 10.064 113.944 9.31733 114.029 7.888C114.093 6.88533 114.157 6.26667 114.221 6.032C114.285 5.776 114.434 5.53067 114.669 5.296C115.01 4.95467 115.416 4.784 115.885 4.784C116.589 4.784 117.144 5.15733 117.549 5.904C117.741 6.24533 117.837 7.06667 117.837 8.368C117.837 9.072 117.784 11.5573 117.677 15.824L117.517 22.224L116.941 22.736C116.536 23.0773 116.141 23.248 115.757 23.248C115.394 23.248 115.01 23.0773 114.605 22.736L114.029 22.224L113.965 18.352C113.922 15.7707 113.89 14.48 113.869 14.48C113.826 14.48 113.432 14.6293 112.685 14.928C111.938 15.248 111.01 15.408 109.901 15.408H109.357C108.589 15.408 107.842 15.248 107.117 14.928C106.413 14.608 105.794 14.1707 105.261 13.616C104.749 13.04 104.397 12.432 104.205 11.792C104.034 11.1733 103.949 10.6933 103.949 10.352C103.949 10.032 104.034 9.50933 104.205 8.784C104.504 7.632 105.048 6.544 105.837 5.52C106.648 4.496 107.554 3.73867 108.557 3.248ZM123.851 20.176C124.15 19.9413 124.481 19.824 124.843 19.824C125.291 19.824 125.665 19.9627 125.963 20.24C126.39 20.6027 126.603 21.04 126.603 21.552C126.603 21.9573 126.518 22.384 126.347 22.832C126.262 23.0667 125.931 24.176 125.355 26.16C124.95 27.632 124.566 28.5173 124.203 28.816C123.862 29.1147 123.499 29.264 123.115 29.264C122.71 29.264 122.337 29.1147 121.995 28.816C121.569 28.432 121.355 28.0053 121.355 27.536C121.355 27.2373 121.419 26.8747 121.547 26.448C121.59 26.2987 121.686 25.9147 121.835 25.296C122.006 24.656 122.134 24.1653 122.219 23.824C122.731 21.8187 123.275 20.6027 123.851 20.176ZM153.864 13.232C153.245 12.6133 152.285 12.304 150.984 12.304C150.344 12.304 149.779 12.4107 149.288 12.624C148.819 12.8373 148.307 13.2533 147.752 13.872C147.197 14.4907 146.835 15.056 146.664 15.568C146.472 16.1227 146.376 16.6453 146.376 17.136C146.376 18.2667 146.824 19.0667 147.72 19.536C148.253 19.8133 148.947 19.952 149.8 19.952C150.376 19.952 150.813 19.8773 151.112 19.728C152.84 18.8533 153.896 17.2853 154.28 15.024L154.472 13.808L153.864 13.232ZM149 8.88C149.512 8.73067 150.109 8.656 150.792 8.656C151.944 8.656 153.075 8.85867 154.184 9.264C155.293 9.66933 156.061 10.1813 156.488 10.8C156.787 11.2267 157.171 11.6747 157.64 12.144C158.152 12.6773 158.621 13.5947 159.048 14.896C159.453 16.1333 159.827 17.5093 160.168 19.024C160.531 20.5387 160.712 21.5627 160.712 22.096C160.712 22.6293 160.552 23.0453 160.232 23.344C159.827 23.728 159.443 23.92 159.08 23.92C158.931 23.92 158.739 23.888 158.504 23.824C158.099 23.6747 157.779 23.4187 157.544 23.056C157.331 22.6933 157.139 22.1067 156.968 21.296C156.755 20.336 156.637 19.856 156.616 19.856C156.531 19.856 156.083 20.2613 155.272 21.072C153.672 22.6293 152.008 23.472 150.28 23.6H149.832C148.787 23.6 147.763 23.4187 146.76 23.056C145.779 22.6933 145 22.2133 144.424 21.616C144.125 21.3173 143.827 20.8693 143.528 20.272C143.229 19.6533 143.027 19.088 142.92 18.576C142.813 18.0427 142.76 17.5627 142.76 17.136C142.76 15.3653 143.357 13.6693 144.552 12.048C145.768 10.4267 147.251 9.37067 149 8.88ZM165.123 9.072C165.379 8.944 165.646 8.88 165.923 8.88C166.307 8.88 166.67 9.008 167.011 9.264C167.353 9.49867 167.587 9.81867 167.715 10.224L167.907 10.896L168.707 10.416C169.241 10.096 169.977 9.936 170.915 9.936C171.833 9.936 172.59 10.0853 173.187 10.384C173.678 10.6187 174.201 11.0027 174.755 11.536C175.331 12.0693 175.79 12.6027 176.131 13.136C177.283 14.9493 177.913 17.7653 178.019 21.584V22.224C178.019 22.736 177.87 23.152 177.571 23.472C177.209 23.8347 176.782 24.016 176.291 24.016C175.502 24.016 174.979 23.6747 174.723 22.992C174.595 22.6293 174.489 21.9147 174.403 20.848C174.147 17.1147 173.315 14.7787 171.907 13.84C171.609 13.648 171.31 13.552 171.011 13.552C170.457 13.552 169.955 13.8613 169.507 14.48C169.081 15.0773 168.739 15.9307 168.483 17.04C168.377 17.5307 168.249 18.416 168.099 19.696C167.95 20.976 167.875 21.84 167.875 22.288C167.875 22.5013 167.694 22.7893 167.331 23.152C166.969 23.4933 166.553 23.664 166.083 23.664C165.209 23.664 164.633 23.2053 164.355 22.288C164.227 21.84 164.163 19.8987 164.163 16.464C164.163 12.368 164.238 10.1387 164.387 9.776C164.515 9.49867 164.761 9.264 165.123 9.072ZM189.605 13.872C189.413 13.6373 189.082 13.52 188.613 13.52C188.229 13.52 187.845 13.616 187.461 13.808C186.885 14.0853 186.341 14.672 185.829 15.568C185.317 16.464 185.061 17.2533 185.061 17.936C185.061 18.1493 185.093 18.3307 185.157 18.48C185.306 18.8213 185.669 19.1413 186.245 19.44C186.821 19.7173 187.365 19.856 187.877 19.856C187.983 19.856 188.143 19.8347 188.357 19.792C188.847 19.6427 189.338 19.2373 189.829 18.576C190.341 17.8933 190.735 17.0933 191.013 16.176C191.183 15.6213 191.269 15.248 191.269 15.056C191.269 14.7573 191.045 14.544 190.597 14.416C190.085 14.224 189.754 14.0427 189.605 13.872ZM192.197 2.704C192.389 2.61867 192.613 2.576 192.869 2.576C193.679 2.576 194.223 2.928 194.501 3.632C194.629 3.952 194.831 5.24267 195.109 7.504C195.365 9.872 195.514 11.2053 195.557 11.504C196.431 17.84 196.869 21.4667 196.869 22.384C196.869 22.8107 196.687 23.184 196.325 23.504C195.983 23.824 195.589 23.984 195.141 23.984C194.522 23.984 194.042 23.76 193.701 23.312C193.359 22.8427 193.189 22.2133 193.189 21.424C193.189 21.0827 193.146 20.8693 193.061 20.784H193.029C192.901 20.784 192.506 21.0933 191.845 21.712C191.141 22.416 190.458 22.8853 189.797 23.12C189.199 23.3547 188.517 23.472 187.749 23.472C186.618 23.472 185.53 23.1947 184.485 22.64C183.439 22.064 182.629 21.3067 182.053 20.368C181.839 20.0053 181.701 19.696 181.637 19.44C181.594 19.1627 181.573 18.64 181.573 17.872C181.594 16.8907 181.711 16.0693 181.924 15.408C182.138 14.7467 182.533 13.9787 183.109 13.104C183.514 12.4853 184.09 11.888 184.837 11.312C185.583 10.736 186.234 10.3627 186.789 10.192C187.343 10.0427 187.93 9.968 188.549 9.968C189.317 9.968 189.989 10.064 190.565 10.256C191.183 10.448 191.514 10.544 191.557 10.544C191.599 10.544 191.621 10.416 191.621 10.16C191.621 9.456 191.535 8.57067 191.365 7.504C191.215 6.62933 191.141 5.84 191.141 5.136C191.141 3.81333 191.493 3.00267 192.197 2.704ZM214.403 3.664C214.958 3.51467 215.587 3.44 216.291 3.44C216.355 3.44 216.451 3.45067 216.579 3.472C216.728 3.472 216.846 3.472 216.931 3.472C218.062 3.51467 219.011 3.71733 219.779 4.08C221.976 5.104 223.075 6.72533 223.075 8.944C223.075 10.2027 222.691 11.568 221.923 13.04C221.624 13.616 220.899 14.6187 219.747 16.048C218.616 17.456 217.731 18.4693 217.091 19.088C216.664 19.472 216.451 19.728 216.451 19.856C216.451 19.9413 217.71 19.984 220.227 19.984H224.003L224.515 20.496C224.856 20.8373 225.027 21.2427 225.027 21.712C225.027 22.2027 224.856 22.6187 224.515 22.96L224.003 23.472H219.907C217.155 23.5147 215.224 23.5893 214.115 23.696C212.984 23.824 212.238 23.888 211.875 23.888C211.406 23.888 211 23.7067 210.659 23.344C210.339 22.96 210.179 22.5547 210.179 22.128C210.179 21.7013 210.36 21.2107 210.723 20.656C211.171 20.08 212.184 18.9813 213.763 17.36C215.683 15.3973 217.07 13.84 217.923 12.688C218.776 11.536 219.278 10.512 219.427 9.616C219.448 9.50933 219.459 9.34933 219.459 9.136C219.459 8.496 219.214 7.984 218.723 7.6C218.254 7.216 217.592 7.01333 216.739 6.992C215.182 6.992 213.934 7.49333 212.995 8.496C212.419 9.072 211.928 9.36 211.523 9.36C210.755 9.36 210.222 9.06133 209.923 8.464C209.752 8.12267 209.667 7.83467 209.667 7.6C209.667 7.30133 209.774 6.94933 209.987 6.544C210.606 5.28533 212.078 4.32533 214.403 3.664ZM240.123 15.76C239.632 15.632 239.216 15.568 238.875 15.568C238.022 15.568 237.126 16.0053 236.187 16.88C235.675 17.328 235.238 17.808 234.875 18.32C234.512 18.832 234.331 19.2053 234.331 19.44C234.331 19.504 234.342 19.5467 234.363 19.568C234.512 19.7813 234.854 19.9947 235.387 20.208C235.92 20.4 236.422 20.496 236.891 20.496H236.923C237.862 20.496 238.907 20.1227 240.059 19.376C241.232 18.6293 241.819 17.9467 241.819 17.328C241.819 16.624 241.254 16.1013 240.123 15.76ZM236.443 3.12C237.488 2.71467 238.374 2.512 239.099 2.512C239.654 2.512 240.08 2.64 240.379 2.896C240.848 3.344 241.083 3.81333 241.083 4.304C241.083 4.73067 240.912 5.11467 240.571 5.456C240.23 5.776 239.76 5.97867 239.163 6.064C237.947 6.256 236.827 6.75733 235.803 7.568C234.8 8.37867 233.99 9.424 233.371 10.704C233.051 11.344 232.774 12.0907 232.539 12.944C232.304 13.7973 232.187 14.448 232.187 14.896C232.187 15.088 232.198 15.2053 232.219 15.248C232.262 15.3547 232.315 15.408 232.379 15.408C232.486 15.408 232.784 15.1627 233.275 14.672C235.046 12.9013 236.944 12.016 238.971 12.016C239.995 12.016 240.859 12.1547 241.563 12.432C242.288 12.688 243.024 13.136 243.771 13.776C244.39 14.3307 244.816 14.8533 245.051 15.344C245.286 15.8347 245.403 16.4747 245.403 17.264C245.403 18.1173 245.264 18.8213 244.987 19.376C244.518 20.2507 243.718 21.1147 242.587 21.968C241.478 22.8 240.326 23.408 239.131 23.792C238.427 24.0053 237.766 24.112 237.147 24.112C237.083 24.112 236.976 24.112 236.827 24.112C236.699 24.0907 236.592 24.08 236.507 24.08C235.483 24.0373 234.544 23.8027 233.691 23.376C232.603 22.864 231.622 22.0427 230.747 20.912C229.894 19.76 229.286 18.512 228.923 17.168C228.731 16.464 228.635 15.7067 228.635 14.896C228.635 12.208 229.542 9.57333 231.355 6.992C232.016 6.07467 232.72 5.328 233.467 4.752C234.235 4.15467 235.227 3.61067 236.443 3.12ZM270.82 13.68C270.713 13.3387 270.617 13.1467 270.532 13.104C270.446 13.04 270.212 13.008 269.828 13.008C268.718 13.0293 267.684 13.552 266.724 14.576C265.764 15.5787 265.284 16.592 265.284 17.616C265.284 18.128 265.422 18.5547 265.7 18.896C266.318 19.5787 266.969 19.92 267.652 19.92C267.694 19.92 267.737 19.92 267.78 19.92C267.822 19.8987 267.865 19.888 267.908 19.888C268.292 19.8027 268.697 19.5467 269.124 19.12C269.572 18.6933 269.913 18.224 270.148 17.712C270.638 16.56 270.884 15.44 270.884 14.352C270.884 14.032 270.862 13.808 270.82 13.68ZM267.844 9.648C268.42 9.456 269.081 9.36 269.828 9.36C270.809 9.36 271.641 9.52 272.324 9.84C272.772 10.0747 273.177 10.4267 273.54 10.896C273.924 11.344 274.158 11.7707 274.244 12.176C274.329 12.5813 274.446 12.9653 274.596 13.328C274.83 13.9467 275.3 16.272 276.004 20.304C276.11 20.944 276.164 21.424 276.164 21.744C276.164 23.024 275.566 23.664 274.372 23.664C273.966 23.664 273.593 23.504 273.252 23.184C272.932 22.864 272.729 22.4693 272.644 22C272.558 21.5733 272.484 21.328 272.42 21.264C272.334 21.2 272.089 21.3707 271.684 21.776C270.468 22.992 269.07 23.6 267.492 23.6C267.214 23.6 266.926 23.568 266.628 23.504C265.454 23.248 264.356 22.608 263.332 21.584C262.18 20.432 261.604 19.1413 261.604 17.712C261.604 16.5813 261.956 15.3547 262.66 14.032C263.193 13.0293 263.918 12.1333 264.836 11.344C265.774 10.5547 266.777 9.98933 267.844 9.648ZM281.138 2.864C281.415 2.75733 281.66 2.704 281.874 2.704C282.194 2.704 282.514 2.8 282.834 2.992C283.154 3.20533 283.367 3.44 283.474 3.696C283.602 3.952 283.666 4.44267 283.666 5.168C283.666 6 283.623 7.056 283.538 8.336C283.388 10.96 283.292 14.0533 283.25 17.616C283.25 21.0933 283.175 22.9707 283.026 23.248C282.919 23.4613 282.695 23.6747 282.354 23.888C282.034 24.08 281.756 24.176 281.522 24.176C281.266 24.176 280.978 24.0693 280.658 23.856C280.338 23.6427 280.114 23.408 279.986 23.152C279.73 22.64 279.602 20.9227 279.602 18C279.602 15.056 279.73 11.1733 279.986 6.352C280.05 5.09333 280.156 4.24 280.306 3.792C280.455 3.344 280.732 3.03467 281.138 2.864ZM287.679 1.424C288.02 1.08267 288.426 0.911999 288.895 0.911999C289.343 0.911999 289.738 1.08267 290.079 1.424C290.42 1.76533 290.634 2.32 290.719 3.088C290.74 3.30133 290.751 4.58133 290.751 6.928C290.751 17.8933 290.676 23.6 290.527 24.048C290.442 24.304 290.25 24.5067 289.951 24.656C289.652 24.8053 289.322 24.88 288.959 24.88C288.532 24.88 288.191 24.7947 287.935 24.624C287.551 24.368 287.306 23.9947 287.199 23.504C287.114 22.992 287.071 21.6267 287.071 19.408C287.071 16.8267 287.082 14.5333 287.103 12.528L287.199 1.904L287.679 1.424ZM316.007 13.68C315.901 13.3387 315.805 13.1467 315.719 13.104C315.634 13.04 315.399 13.008 315.015 13.008C313.906 13.0293 312.871 13.552 311.911 14.576C310.951 15.5787 310.471 16.592 310.471 17.616C310.471 18.128 310.61 18.5547 310.887 18.896C311.506 19.5787 312.157 19.92 312.839 19.92C312.882 19.92 312.925 19.92 312.967 19.92C313.01 19.8987 313.053 19.888 313.095 19.888C313.479 19.8027 313.885 19.5467 314.311 19.12C314.759 18.6933 315.101 18.224 315.335 17.712C315.826 16.56 316.071 15.44 316.071 14.352C316.071 14.032 316.05 13.808 316.007 13.68ZM313.031 9.648C313.607 9.456 314.269 9.36 315.015 9.36C315.997 9.36 316.829 9.52 317.511 9.84C317.959 10.0747 318.365 10.4267 318.727 10.896C319.111 11.344 319.346 11.7707 319.431 12.176C319.517 12.5813 319.634 12.9653 319.783 13.328C320.018 13.9467 320.487 16.272 321.191 20.304C321.298 20.944 321.351 21.424 321.351 21.744C321.351 23.024 320.754 23.664 319.559 23.664C319.154 23.664 318.781 23.504 318.439 23.184C318.119 22.864 317.917 22.4693 317.831 22C317.746 21.5733 317.671 21.328 317.607 21.264C317.522 21.2 317.277 21.3707 316.871 21.776C315.655 22.992 314.258 23.6 312.679 23.6C312.402 23.6 312.114 23.568 311.815 23.504C310.642 23.248 309.543 22.608 308.519 21.584C307.367 20.432 306.791 19.1413 306.791 17.712C306.791 16.5813 307.143 15.3547 307.847 14.032C308.381 13.0293 309.106 12.1333 310.023 11.344C310.962 10.5547 311.965 9.98933 313.031 9.648ZM329.813 1.52C330.176 1.15733 330.613 0.975998 331.125 0.975998C331.509 0.975998 331.85 1.09333 332.149 1.328C332.469 1.54133 332.693 1.85067 332.821 2.256C332.885 2.49067 332.992 3.6 333.141 5.584C333.29 7.54667 333.365 8.912 333.365 9.68C333.365 9.872 333.408 9.98933 333.493 10.032C333.6 10.0747 333.845 10.096 334.229 10.096C334.805 10.096 335.136 10.032 335.221 9.904C335.264 9.79733 335.701 9.744 336.533 9.744C337.6 9.744 338.304 9.81867 338.645 9.968C338.965 10.1173 339.21 10.4053 339.381 10.832C339.53 11.1307 339.605 11.376 339.605 11.568C339.605 11.7173 339.573 11.8987 339.509 12.112C339.36 12.6027 339.082 12.9333 338.677 13.104C338.293 13.2533 337.525 13.36 336.373 13.424C335.072 13.488 334.229 13.5733 333.845 13.68L333.333 13.808L333.461 18.32C333.504 20.3253 333.525 21.4027 333.525 21.552C333.525 22.4907 333.45 23.12 333.301 23.44C332.981 24.1227 332.458 24.464 331.733 24.464C331.456 24.464 331.168 24.4 330.869 24.272C330.634 24.1653 330.464 24.0693 330.357 23.984C330.25 23.8773 330.154 23.6107 330.069 23.184C329.984 22.736 329.93 22.2133 329.909 21.616C329.888 21.0187 329.866 20.0373 329.845 18.672L329.781 14.032L328.821 14.064C328.245 14.1067 327.733 14.192 327.285 14.32C327.178 14.3627 327.008 14.384 326.773 14.384C326.048 14.384 325.525 14.16 325.205 13.712C325.034 13.4347 324.949 13.0613 324.949 12.592C324.949 12.1867 325.013 11.8667 325.141 11.632C325.44 11.0987 326.485 10.6933 328.277 10.416L329.749 10.192L329.621 7.376C329.536 5.37067 329.461 4.00533 329.397 3.28C329.354 2.768 329.333 2.49067 329.333 2.448C329.333 2.14933 329.493 1.84 329.813 1.52ZM362.469 12.816C362.064 12.7093 361.403 12.6133 360.485 12.528C359.888 12.4853 359.568 12.464 359.525 12.464C359.227 12.464 358.928 12.624 358.629 12.944C357.776 13.8187 357.317 15.0027 357.253 16.496C357.253 16.5813 357.243 16.6987 357.221 16.848C357.221 16.976 357.221 17.072 357.221 17.136C357.221 17.6267 357.349 18.0853 357.605 18.512C358.288 19.728 359.493 20.336 361.221 20.336C361.947 20.3147 362.683 20.0693 363.429 19.6C364.197 19.1093 364.752 18.5227 365.093 17.84C365.285 17.4347 365.381 16.9973 365.381 16.528C365.381 15.7387 365.104 14.992 364.549 14.288C364.016 13.5627 363.323 13.072 362.469 12.816ZM357.605 9.232C358.096 8.95467 358.587 8.816 359.077 8.816C359.184 8.816 359.579 8.83733 360.261 8.88C362.288 8.98667 363.92 9.41333 365.157 10.16C366.395 10.9067 367.387 12.0587 368.133 13.616C368.709 14.8107 368.997 15.952 368.997 17.04C368.997 17.3813 368.965 17.68 368.901 17.936C368.56 19.2587 367.813 20.464 366.661 21.552C365.509 22.64 364.24 23.3653 362.853 23.728C362.128 23.8987 361.552 23.984 361.125 23.984C360.699 23.984 360.123 23.8987 359.397 23.728C357.2 23.152 355.621 22.1067 354.661 20.592C353.915 19.4187 353.541 18.1813 353.541 16.88C353.541 15.5787 353.893 14.192 354.597 12.72C355.408 10.992 356.411 9.82933 357.605 9.232ZM372.926 8.112C373.267 7.74933 373.705 7.568 374.238 7.568C374.601 7.568 374.921 7.664 375.198 7.856C375.433 8.02667 375.635 8.304 375.806 8.688C375.998 9.072 376.094 9.424 376.094 9.744C376.094 10.0853 376.179 10.256 376.35 10.256C376.542 10.256 376.851 10.1173 377.278 9.84C377.705 9.584 378.27 9.34933 378.974 9.136C379.678 8.92267 380.243 8.816 380.67 8.816C381.097 8.816 381.619 8.95467 382.238 9.232C382.878 9.50933 383.379 9.81867 383.742 10.16C384.51 10.9067 385.054 11.952 385.374 13.296C385.715 14.64 385.886 16.5067 385.886 18.896C385.886 20.5813 385.833 21.6907 385.726 22.224C385.619 22.736 385.374 23.0987 384.99 23.312C384.734 23.44 384.425 23.504 384.062 23.504C383.678 23.504 383.358 23.44 383.102 23.312C382.739 23.12 382.505 22.768 382.398 22.256C382.313 21.7227 382.249 20.4427 382.206 18.416C382.163 16.3893 382.078 15.056 381.95 14.416C381.822 13.7547 381.555 13.2213 381.15 12.816C380.937 12.6027 380.67 12.496 380.35 12.496C379.817 12.496 379.241 12.7627 378.622 13.296C378.025 13.808 377.534 14.4693 377.15 15.28C376.958 15.6853 376.841 16.0693 376.798 16.432C376.755 16.7947 376.713 17.6267 376.67 18.928C376.627 20.72 376.542 21.7867 376.414 22.128C376.115 22.9173 375.539 23.312 374.686 23.312C373.982 23.312 373.449 23.0027 373.086 22.384C372.979 22.1493 372.873 20.1547 372.766 16.4C372.638 12.368 372.553 10.1387 372.51 9.712C372.467 9.28533 372.446 9.05067 372.446 9.008C372.446 8.73067 372.606 8.432 372.926 8.112ZM393.449 9.392C393.79 9.264 394.324 9.2 395.049 9.2C395.433 9.2 395.742 9.21067 395.977 9.232C396.83 9.25333 397.417 9.30667 397.737 9.392C398.057 9.456 398.484 9.616 399.017 9.872C400.532 10.64 401.289 11.568 401.289 12.656C401.289 12.8907 401.214 13.1787 401.065 13.52C400.745 14.1387 400.254 14.448 399.593 14.448C398.996 14.448 398.452 14.1707 397.961 13.616C397.726 13.36 397.513 13.1893 397.321 13.104C397.129 12.9973 396.82 12.912 396.393 12.848C395.966 12.8053 395.678 12.784 395.529 12.784C394.782 12.784 394.238 13.0187 393.897 13.488C393.3 14.3627 393.001 15.312 393.001 16.336C393.001 17.4453 393.342 18.3947 394.025 19.184C394.708 19.952 395.604 20.336 396.713 20.336C397.14 20.336 397.737 20.2293 398.505 20.016C399.273 19.7813 399.785 19.568 400.041 19.376C400.254 19.2053 400.628 19.12 401.161 19.12C401.673 19.12 402.089 19.28 402.409 19.6C402.75 19.92 402.921 20.3253 402.921 20.816C402.921 21.264 402.814 21.6267 402.601 21.904C402.388 22.1813 401.982 22.4693 401.385 22.768C399.849 23.536 398.313 23.92 396.777 23.92C394.238 23.92 392.308 23.0133 390.985 21.2C389.918 19.7493 389.385 18.16 389.385 16.432C389.385 15.3653 389.598 14.2453 390.025 13.072C390.345 12.24 390.814 11.4827 391.433 10.8C392.073 10.1173 392.745 9.648 393.449 9.392ZM416.398 13.808C416.014 13.616 415.47 13.52 414.766 13.52C413.998 13.52 413.347 13.6373 412.814 13.872C412.451 14.0213 411.982 14.352 411.406 14.864C410.83 15.3547 410.542 15.6747 410.542 15.824C410.542 15.888 410.873 15.92 411.534 15.92C412.515 15.92 413.689 15.8667 415.054 15.76C416.419 15.6533 417.198 15.536 417.39 15.408C417.454 15.3867 417.486 15.3227 417.486 15.216C417.486 15.024 417.369 14.7787 417.134 14.48C416.899 14.16 416.654 13.936 416.398 13.808ZM412.622 10.096C413.155 9.94667 413.785 9.872 414.51 9.872C415.854 9.872 417.081 10.1387 418.19 10.672C419.022 11.0987 419.715 11.7493 420.27 12.624C420.825 13.4773 421.166 14.4373 421.294 15.504C421.294 15.5467 421.294 15.6107 421.294 15.696C421.315 15.7813 421.326 15.8453 421.326 15.888C421.326 16.4427 421.219 16.9867 421.006 17.52C420.814 18.0533 420.579 18.416 420.302 18.608C419.939 18.864 417.39 19.184 412.654 19.568C411.651 19.6533 411.15 19.7493 411.15 19.856C411.15 19.984 411.374 20.1867 411.822 20.464C412.27 20.7413 412.707 20.9333 413.134 21.04C413.518 21.1253 413.827 21.168 414.062 21.168C414.745 21.168 415.63 20.944 416.718 20.496C417.486 20.176 418.051 20.016 418.414 20.016C418.777 20.016 419.118 20.176 419.438 20.496C419.865 20.9227 420.078 21.328 420.078 21.712C420.078 21.968 420.014 22.2347 419.886 22.512C419.779 22.768 419.63 22.9707 419.438 23.12C419.267 23.2693 418.947 23.4507 418.478 23.664C416.921 24.3467 415.47 24.688 414.126 24.688C413.358 24.688 412.569 24.5707 411.758 24.336C410.67 23.9947 409.678 23.4187 408.782 22.608C407.886 21.776 407.246 20.8587 406.862 19.856C406.627 19.1947 406.51 18.4587 406.51 17.648C406.51 16.4747 406.702 15.4933 407.086 14.704C407.534 13.7227 408.291 12.784 409.358 11.888C410.425 10.992 411.513 10.3947 412.622 10.096ZM424.343 19.184V15.6H437.783V19.184H424.343ZM441.399 4.272C441.74 3.952 442.06 3.792 442.359 3.792C442.529 3.792 442.679 3.80267 442.807 3.824C443.383 3.888 443.788 4.08 444.023 4.4L444.439 4.88L444.375 13.264C444.353 18.7893 444.257 21.7653 444.087 22.192C443.809 22.832 443.276 23.152 442.487 23.152C442.231 23.152 442.039 23.1307 441.911 23.088C441.591 22.9813 441.377 22.9067 441.271 22.864C441.185 22.8 441.079 22.608 440.951 22.288C440.844 21.9467 440.78 21.4773 440.759 20.88C440.737 20.2827 440.727 19.3653 440.727 18.128C440.727 17.7867 440.727 17.0933 440.727 16.048C440.748 15.0027 440.759 14.128 440.759 13.424L440.791 4.784L441.399 4.272ZM469.386 13.872C469.194 13.6373 468.863 13.52 468.394 13.52C468.01 13.52 467.626 13.616 467.242 13.808C466.666 14.0853 466.122 14.672 465.61 15.568C465.098 16.464 464.842 17.2533 464.842 17.936C464.842 18.1493 464.874 18.3307 464.938 18.48C465.087 18.8213 465.45 19.1413 466.026 19.44C466.602 19.7173 467.146 19.856 467.658 19.856C467.764 19.856 467.924 19.8347 468.138 19.792C468.628 19.6427 469.119 19.2373 469.61 18.576C470.122 17.8933 470.516 17.0933 470.794 16.176C470.964 15.6213 471.05 15.248 471.05 15.056C471.05 14.7573 470.826 14.544 470.378 14.416C469.866 14.224 469.535 14.0427 469.386 13.872ZM471.978 2.704C472.17 2.61867 472.394 2.576 472.65 2.576C473.46 2.576 474.004 2.928 474.282 3.632C474.41 3.952 474.612 5.24267 474.89 7.504C475.146 9.872 475.295 11.2053 475.338 11.504C476.212 17.84 476.65 21.4667 476.65 22.384C476.65 22.8107 476.468 23.184 476.106 23.504C475.764 23.824 475.37 23.984 474.922 23.984C474.303 23.984 473.823 23.76 473.482 23.312C473.14 22.8427 472.97 22.2133 472.97 21.424C472.97 21.0827 472.927 20.8693 472.842 20.784H472.81C472.682 20.784 472.287 21.0933 471.626 21.712C470.922 22.416 470.239 22.8853 469.578 23.12C468.98 23.3547 468.298 23.472 467.53 23.472C466.399 23.472 465.311 23.1947 464.266 22.64C463.22 22.064 462.41 21.3067 461.834 20.368C461.62 20.0053 461.482 19.696 461.418 19.44C461.375 19.1627 461.354 18.64 461.354 17.872C461.375 16.8907 461.492 16.0693 461.706 15.408C461.919 14.7467 462.314 13.9787 462.89 13.104C463.295 12.4853 463.871 11.888 464.618 11.312C465.364 10.736 466.015 10.3627 466.57 10.192C467.124 10.0427 467.711 9.968 468.33 9.968C469.098 9.968 469.77 10.064 470.346 10.256C470.964 10.448 471.295 10.544 471.338 10.544C471.38 10.544 471.402 10.416 471.402 10.16C471.402 9.456 471.316 8.57067 471.146 7.504C470.996 6.62933 470.922 5.84 470.922 5.136C470.922 3.81333 471.274 3.00267 471.978 2.704ZM489.094 12.816C488.689 12.7093 488.028 12.6133 487.11 12.528C486.513 12.4853 486.193 12.464 486.15 12.464C485.852 12.464 485.553 12.624 485.254 12.944C484.401 13.8187 483.942 15.0027 483.878 16.496C483.878 16.5813 483.868 16.6987 483.846 16.848C483.846 16.976 483.846 17.072 483.846 17.136C483.846 17.6267 483.974 18.0853 484.23 18.512C484.913 19.728 486.118 20.336 487.846 20.336C488.572 20.3147 489.308 20.0693 490.054 19.6C490.822 19.1093 491.377 18.5227 491.718 17.84C491.91 17.4347 492.006 16.9973 492.006 16.528C492.006 15.7387 491.729 14.992 491.174 14.288C490.641 13.5627 489.948 13.072 489.094 12.816ZM484.23 9.232C484.721 8.95467 485.212 8.816 485.702 8.816C485.809 8.816 486.204 8.83733 486.886 8.88C488.913 8.98667 490.545 9.41333 491.782 10.16C493.02 10.9067 494.012 12.0587 494.758 13.616C495.334 14.8107 495.622 15.952 495.622 17.04C495.622 17.3813 495.59 17.68 495.526 17.936C495.185 19.2587 494.438 20.464 493.286 21.552C492.134 22.64 490.865 23.3653 489.478 23.728C488.753 23.8987 488.177 23.984 487.75 23.984C487.324 23.984 486.748 23.8987 486.022 23.728C483.825 23.152 482.246 22.1067 481.286 20.592C480.54 19.4187 480.166 18.1813 480.166 16.88C480.166 15.5787 480.518 14.192 481.222 12.72C482.033 10.992 483.036 9.82933 484.23 9.232ZM499.551 8.112C499.892 7.74933 500.33 7.568 500.863 7.568C501.226 7.568 501.546 7.664 501.823 7.856C502.058 8.02667 502.26 8.304 502.431 8.688C502.623 9.072 502.719 9.424 502.719 9.744C502.719 10.0853 502.804 10.256 502.975 10.256C503.167 10.256 503.476 10.1173 503.903 9.84C504.33 9.584 504.895 9.34933 505.599 9.136C506.303 8.92267 506.868 8.816 507.295 8.816C507.722 8.816 508.244 8.95467 508.863 9.232C509.503 9.50933 510.004 9.81867 510.367 10.16C511.135 10.9067 511.679 11.952 511.999 13.296C512.34 14.64 512.511 16.5067 512.511 18.896C512.511 20.5813 512.458 21.6907 512.351 22.224C512.244 22.736 511.999 23.0987 511.615 23.312C511.359 23.44 511.05 23.504 510.687 23.504C510.303 23.504 509.983 23.44 509.727 23.312C509.364 23.12 509.13 22.768 509.023 22.256C508.938 21.7227 508.874 20.4427 508.831 18.416C508.788 16.3893 508.703 15.056 508.575 14.416C508.447 13.7547 508.18 13.2213 507.775 12.816C507.562 12.6027 507.295 12.496 506.975 12.496C506.442 12.496 505.866 12.7627 505.247 13.296C504.65 13.808 504.159 14.4693 503.775 15.28C503.583 15.6853 503.466 16.0693 503.423 16.432C503.38 16.7947 503.338 17.6267 503.295 18.928C503.252 20.72 503.167 21.7867 503.039 22.128C502.74 22.9173 502.164 23.312 501.311 23.312C500.607 23.312 500.074 23.0027 499.711 22.384C499.604 22.1493 499.498 20.1547 499.391 16.4C499.263 12.368 499.178 10.1387 499.135 9.712C499.092 9.28533 499.071 9.05067 499.071 9.008C499.071 8.73067 499.231 8.432 499.551 8.112ZM520.81 3.504C520.533 4.63467 520.138 5.872 519.626 7.216C519.114 8.56 518.591 9.81867 518.058 10.992H514.634C514.933 9.73333 515.231 8.38933 515.53 6.96C515.829 5.53067 516.053 4.26133 516.202 3.152H520.586L520.81 3.504ZM527.876 1.52C528.238 1.15733 528.676 0.975998 529.188 0.975998C529.572 0.975998 529.913 1.09333 530.212 1.328C530.532 1.54133 530.756 1.85067 530.884 2.256C530.948 2.49067 531.054 3.6 531.204 5.584C531.353 7.54667 531.428 8.912 531.428 9.68C531.428 9.872 531.47 9.98933 531.556 10.032C531.662 10.0747 531.908 10.096 532.292 10.096C532.868 10.096 533.198 10.032 533.284 9.904C533.326 9.79733 533.764 9.744 534.596 9.744C535.662 9.744 536.366 9.81867 536.708 9.968C537.028 10.1173 537.273 10.4053 537.444 10.832C537.593 11.1307 537.668 11.376 537.668 11.568C537.668 11.7173 537.636 11.8987 537.572 12.112C537.422 12.6027 537.145 12.9333 536.74 13.104C536.356 13.2533 535.588 13.36 534.436 13.424C533.134 13.488 532.292 13.5733 531.908 13.68L531.396 13.808L531.524 18.32C531.566 20.3253 531.588 21.4027 531.588 21.552C531.588 22.4907 531.513 23.12 531.364 23.44C531.044 24.1227 530.521 24.464 529.796 24.464C529.518 24.464 529.23 24.4 528.932 24.272C528.697 24.1653 528.526 24.0693 528.42 23.984C528.313 23.8773 528.217 23.6107 528.132 23.184C528.046 22.736 527.993 22.2133 527.972 21.616C527.95 21.0187 527.929 20.0373 527.908 18.672L527.844 14.032L526.884 14.064C526.308 14.1067 525.796 14.192 525.348 14.32C525.241 14.3627 525.07 14.384 524.836 14.384C524.11 14.384 523.588 14.16 523.268 13.712C523.097 13.4347 523.012 13.0613 523.012 12.592C523.012 12.1867 523.076 11.8667 523.204 11.632C523.502 11.0987 524.548 10.6933 526.34 10.416L527.812 10.192L527.684 7.376C527.598 5.37067 527.524 4.00533 527.46 3.28C527.417 2.768 527.396 2.49067 527.396 2.448C527.396 2.14933 527.556 1.84 527.876 1.52ZM555.433 1.552C555.795 1.25333 556.169 1.104 556.553 1.104C557.321 1.104 557.886 1.57333 558.249 2.512C558.398 2.93867 558.558 3.96267 558.729 5.584C558.899 7.184 559.038 8.67733 559.145 10.064C559.251 11.4293 559.315 12.112 559.337 12.112C559.379 12.112 559.731 11.8773 560.393 11.408C561.694 10.4907 562.931 10.032 564.105 10.032C565.193 10.032 566.142 10.4373 566.953 11.248C567.785 12.0373 568.435 13.2 568.905 14.736C569.267 15.9307 569.449 17.7867 569.449 20.304C569.449 21.8827 569.353 22.9493 569.161 23.504C568.947 24.08 568.457 24.368 567.689 24.368C567.177 24.368 566.75 24.1973 566.409 23.856L565.929 23.376L565.833 20.144C565.705 15.984 565.129 13.84 564.105 13.712H564.009C563.518 13.712 562.91 13.9893 562.185 14.544C561.459 15.0773 560.937 15.664 560.617 16.304C560.425 16.7307 560.169 17.04 559.849 17.232L559.433 17.52L559.369 21.008C559.326 22.7147 559.283 23.7493 559.241 24.112C559.219 24.4533 559.102 24.7307 558.889 24.944C558.547 25.3067 558.121 25.488 557.609 25.488C556.841 25.488 556.307 25.1467 556.009 24.464C555.859 24.0587 555.753 21.6053 555.689 17.104C555.582 9.57333 555.305 5.06133 554.857 3.568C554.793 3.33333 554.761 3.10933 554.761 2.896C554.761 2.34133 554.985 1.89333 555.433 1.552ZM584.052 13.232C583.433 12.6133 582.473 12.304 581.172 12.304C580.532 12.304 579.966 12.4107 579.476 12.624C579.006 12.8373 578.494 13.2533 577.94 13.872C577.385 14.4907 577.022 15.056 576.852 15.568C576.66 16.1227 576.564 16.6453 576.564 17.136C576.564 18.2667 577.012 19.0667 577.908 19.536C578.441 19.8133 579.134 19.952 579.988 19.952C580.564 19.952 581.001 19.8773 581.3 19.728C583.028 18.8533 584.084 17.2853 584.468 15.024L584.66 13.808L584.052 13.232ZM579.188 8.88C579.7 8.73067 580.297 8.656 580.98 8.656C582.132 8.656 583.262 8.85867 584.372 9.264C585.481 9.66933 586.249 10.1813 586.676 10.8C586.974 11.2267 587.358 11.6747 587.828 12.144C588.34 12.6773 588.809 13.5947 589.236 14.896C589.641 16.1333 590.014 17.5093 590.356 19.024C590.718 20.5387 590.9 21.5627 590.9 22.096C590.9 22.6293 590.74 23.0453 590.42 23.344C590.014 23.728 589.63 23.92 589.267 23.92C589.118 23.92 588.926 23.888 588.692 23.824C588.286 23.6747 587.966 23.4187 587.732 23.056C587.518 22.6933 587.326 22.1067 587.156 21.296C586.942 20.336 586.825 19.856 586.804 19.856C586.718 19.856 586.27 20.2613 585.46 21.072C583.86 22.6293 582.196 23.472 580.468 23.6H580.02C578.974 23.6 577.95 23.4187 576.948 23.056C575.966 22.6933 575.188 22.2133 574.612 21.616C574.313 21.3173 574.014 20.8693 573.716 20.272C573.417 19.6533 573.214 19.088 573.108 18.576C573.001 18.0427 572.948 17.5627 572.948 17.136C572.948 15.3653 573.545 13.6693 574.74 12.048C575.956 10.4267 577.438 9.37067 579.188 8.88ZM594.543 10.352C594.543 9.904 594.713 9.52 595.055 9.2C595.417 8.85867 595.823 8.688 596.271 8.688C596.783 8.688 597.209 8.88 597.551 9.264C597.892 9.62667 598.265 10.3093 598.671 11.312C599.076 12.3573 599.695 13.7653 600.527 15.536C601.38 17.2853 601.849 18.16 601.935 18.16C601.999 18.16 602.361 17.552 603.023 16.336C603.428 15.568 604.068 14.4373 604.943 12.944C605.839 11.4507 606.361 10.5653 606.511 10.288C606.809 9.75467 607.076 9.41333 607.311 9.264C607.545 9.11467 607.908 9.04 608.399 9.04C608.868 9.04 609.273 9.21067 609.615 9.552C609.977 9.89333 610.159 10.2987 610.159 10.768C610.159 10.8747 610.137 11.0133 610.095 11.184C610.009 11.4613 609.583 12.24 608.815 13.52C606.191 17.808 604.612 20.8267 604.079 22.576C603.737 23.6853 603.055 24.24 602.031 24.24C601.753 24.24 601.455 24.176 601.135 24.048C600.836 23.92 600.559 23.6533 600.303 23.248C600.068 22.8213 599.46 21.6053 598.479 19.6C595.855 14.224 594.543 11.1413 594.543 10.352ZM623.554 13.808C623.17 13.616 622.626 13.52 621.922 13.52C621.154 13.52 620.504 13.6373 619.97 13.872C619.608 14.0213 619.138 14.352 618.562 14.864C617.986 15.3547 617.698 15.6747 617.698 15.824C617.698 15.888 618.029 15.92 618.69 15.92C619.672 15.92 620.845 15.8667 622.21 15.76C623.576 15.6533 624.354 15.536 624.546 15.408C624.61 15.3867 624.642 15.3227 624.642 15.216C624.642 15.024 624.525 14.7787 624.29 14.48C624.056 14.16 623.81 13.936 623.554 13.808ZM619.778 10.096C620.312 9.94667 620.941 9.872 621.666 9.872C623.01 9.872 624.237 10.1387 625.346 10.672C626.178 11.0987 626.872 11.7493 627.426 12.624C627.981 13.4773 628.322 14.4373 628.45 15.504C628.45 15.5467 628.45 15.6107 628.45 15.696C628.472 15.7813 628.482 15.8453 628.482 15.888C628.482 16.4427 628.376 16.9867 628.162 17.52C627.97 18.0533 627.736 18.416 627.458 18.608C627.096 18.864 624.546 19.184 619.81 19.568C618.808 19.6533 618.306 19.7493 618.306 19.856C618.306 19.984 618.53 20.1867 618.978 20.464C619.426 20.7413 619.864 20.9333 620.29 21.04C620.674 21.1253 620.984 21.168 621.218 21.168C621.901 21.168 622.786 20.944 623.874 20.496C624.642 20.176 625.208 20.016 625.57 20.016C625.933 20.016 626.274 20.176 626.594 20.496C627.021 20.9227 627.234 21.328 627.234 21.712C627.234 21.968 627.17 22.2347 627.042 22.512C626.936 22.768 626.786 22.9707 626.594 23.12C626.424 23.2693 626.104 23.4507 625.634 23.664C624.077 24.3467 622.626 24.688 621.282 24.688C620.514 24.688 619.725 24.5707 618.914 24.336C617.826 23.9947 616.834 23.4187 615.938 22.608C615.042 21.776 614.402 20.8587 614.018 19.856C613.784 19.1947 613.666 18.4587 613.666 17.648C613.666 16.4747 613.858 15.4933 614.242 14.704C614.69 13.7227 615.448 12.784 616.514 11.888C617.581 10.992 618.669 10.3947 619.778 10.096ZM646.688 1.52C647.051 1.15733 647.488 0.975998 648 0.975998C648.384 0.975998 648.725 1.09333 649.024 1.328C649.344 1.54133 649.568 1.85067 649.696 2.256C649.76 2.49067 649.867 3.6 650.016 5.584C650.165 7.54667 650.24 8.912 650.24 9.68C650.24 9.872 650.283 9.98933 650.368 10.032C650.475 10.0747 650.72 10.096 651.104 10.096C651.68 10.096 652.011 10.032 652.096 9.904C652.139 9.79733 652.576 9.744 653.408 9.744C654.475 9.744 655.179 9.81867 655.52 9.968C655.84 10.1173 656.085 10.4053 656.256 10.832C656.405 11.1307 656.48 11.376 656.48 11.568C656.48 11.7173 656.448 11.8987 656.384 12.112C656.235 12.6027 655.957 12.9333 655.552 13.104C655.168 13.2533 654.4 13.36 653.248 13.424C651.947 13.488 651.104 13.5733 650.72 13.68L650.208 13.808L650.336 18.32C650.379 20.3253 650.4 21.4027 650.4 21.552C650.4 22.4907 650.325 23.12 650.176 23.44C649.856 24.1227 649.333 24.464 648.608 24.464C648.331 24.464 648.043 24.4 647.744 24.272C647.509 24.1653 647.339 24.0693 647.232 23.984C647.125 23.8773 647.029 23.6107 646.944 23.184C646.859 22.736 646.805 22.2133 646.784 21.616C646.763 21.0187 646.741 20.0373 646.72 18.672L646.656 14.032L645.696 14.064C645.12 14.1067 644.608 14.192 644.16 14.32C644.053 14.3627 643.883 14.384 643.648 14.384C642.923 14.384 642.4 14.16 642.08 13.712C641.909 13.4347 641.824 13.0613 641.824 12.592C641.824 12.1867 641.888 11.8667 642.016 11.632C642.315 11.0987 643.36 10.6933 645.152 10.416L646.624 10.192L646.496 7.376C646.411 5.37067 646.336 4.00533 646.272 3.28C646.229 2.768 646.208 2.49067 646.208 2.448C646.208 2.14933 646.368 1.84 646.688 1.52ZM668.745 11.6C668.169 11.4933 667.689 11.44 667.305 11.44C666.43 11.44 665.694 11.6213 665.097 11.984C664.798 12.176 664.446 12.8267 664.041 13.936C663.657 15.024 663.465 15.8987 663.465 16.56C663.465 17.6267 663.806 18.4907 664.489 19.152C665.193 19.792 666.11 20.1227 667.241 20.144C668.158 20.144 669.011 19.888 669.801 19.376C670.611 18.864 671.198 18.192 671.561 17.36C671.795 16.8267 671.913 16.2187 671.913 15.536C671.913 14.704 671.753 13.9787 671.433 13.36C671.198 12.8693 670.878 12.496 670.473 12.24C670.067 11.984 669.491 11.7707 668.745 11.6ZM665.129 8.176C665.875 7.984 666.611 7.888 667.337 7.888C668.702 7.888 670.163 8.22933 671.721 8.912C672.83 9.40267 673.705 10.2667 674.345 11.504C675.006 12.7413 675.347 14.2027 675.369 15.888V16.08C675.369 18.6187 674.238 20.6773 671.977 22.256C670.569 23.2587 669.001 23.76 667.273 23.76C665.843 23.76 664.521 23.408 663.305 22.704C662.089 21.9787 661.171 20.9653 660.553 19.664C660.339 19.216 660.201 18.832 660.137 18.512C660.094 18.192 660.073 17.52 660.073 16.496C660.094 14.9813 660.254 13.7867 660.553 12.912C661.257 10.9707 662.089 9.65867 663.049 8.976C663.433 8.69867 664.126 8.432 665.129 8.176ZM699.298 9.072C699.831 8.96533 700.332 8.912 700.802 8.912C702.21 8.912 703.532 9.264 704.77 9.968C705.303 10.288 705.655 10.544 705.826 10.736C706.018 10.928 706.167 11.2053 706.274 11.568C706.295 11.632 706.306 11.728 706.306 11.856C706.306 12.5173 706.05 13.04 705.538 13.424C705.26 13.5947 704.994 13.68 704.738 13.68C704.375 13.68 703.799 13.4987 703.01 13.136C702.178 12.752 701.41 12.56 700.706 12.56C700.066 12.56 699.468 12.72 698.914 13.04C698.423 13.3387 697.89 13.7867 697.314 14.384C696.738 14.9813 696.364 15.4827 696.194 15.888C696.023 16.2933 695.938 16.6133 695.938 16.848C695.938 17.2107 696.226 17.68 696.802 18.256C697.676 19.1093 698.903 19.6107 700.482 19.76C700.546 19.76 700.631 19.7707 700.738 19.792C700.866 19.792 700.951 19.792 700.994 19.792C701.356 19.792 701.847 19.632 702.466 19.312C703.127 18.9493 703.639 18.768 704.002 18.768C704.343 18.768 704.684 18.9173 705.026 19.216C705.474 19.6427 705.698 20.08 705.698 20.528C705.698 21.36 705.047 22.1067 703.746 22.768C702.978 23.1733 702.21 23.376 701.442 23.376H700.93C699.138 23.3547 697.506 22.9493 696.034 22.16C694.562 21.3493 693.506 20.2933 692.866 18.992C692.524 18.3093 692.354 17.584 692.354 16.816C692.354 14.8533 693.463 12.8907 695.682 10.928C696.77 9.94667 697.975 9.328 699.298 9.072ZM718.782 12.816C718.376 12.7093 717.715 12.6133 716.798 12.528C716.2 12.4853 715.88 12.464 715.838 12.464C715.539 12.464 715.24 12.624 714.942 12.944C714.088 13.8187 713.63 15.0027 713.566 16.496C713.566 16.5813 713.555 16.6987 713.534 16.848C713.534 16.976 713.534 17.072 713.534 17.136C713.534 17.6267 713.662 18.0853 713.918 18.512C714.6 19.728 715.806 20.336 717.534 20.336C718.259 20.3147 718.995 20.0693 719.742 19.6C720.51 19.1093 721.064 18.5227 721.406 17.84C721.598 17.4347 721.694 16.9973 721.694 16.528C721.694 15.7387 721.416 14.992 720.862 14.288C720.328 13.5627 719.635 13.072 718.782 12.816ZM713.918 9.232C714.408 8.95467 714.899 8.816 715.39 8.816C715.496 8.816 715.891 8.83733 716.574 8.88C718.6 8.98667 720.232 9.41333 721.47 10.16C722.707 10.9067 723.699 12.0587 724.446 13.616C725.022 14.8107 725.31 15.952 725.31 17.04C725.31 17.3813 725.278 17.68 725.214 17.936C724.872 19.2587 724.126 20.464 722.974 21.552C721.822 22.64 720.552 23.3653 719.166 23.728C718.44 23.8987 717.864 23.984 717.438 23.984C717.011 23.984 716.435 23.8987 715.71 23.728C713.512 23.152 711.934 22.1067 710.974 20.592C710.227 19.4187 709.854 18.1813 709.854 16.88C709.854 15.5787 710.206 14.192 710.91 12.72C711.72 10.992 712.723 9.82933 713.918 9.232ZM729.239 8.112C729.58 7.74933 730.017 7.568 730.551 7.568C730.913 7.568 731.233 7.664 731.511 7.856C731.745 8.02667 731.948 8.304 732.119 8.688C732.311 9.072 732.407 9.424 732.407 9.744C732.407 10.0853 732.492 10.256 732.663 10.256C732.855 10.256 733.164 10.1173 733.591 9.84C734.017 9.584 734.583 9.34933 735.286 9.136C735.991 8.92267 736.556 8.816 736.983 8.816C737.409 8.816 737.932 8.95467 738.551 9.232C739.191 9.50933 739.692 9.81867 740.055 10.16C740.823 10.9067 741.367 11.952 741.687 13.296C742.028 14.64 742.199 16.5067 742.199 18.896C742.199 20.5813 742.145 21.6907 742.039 22.224C741.932 22.736 741.687 23.0987 741.303 23.312C741.047 23.44 740.737 23.504 740.375 23.504C739.991 23.504 739.671 23.44 739.415 23.312C739.052 23.12 738.817 22.768 738.711 22.256C738.625 21.7227 738.561 20.4427 738.519 18.416C738.476 16.3893 738.391 15.056 738.263 14.416C738.135 13.7547 737.868 13.2213 737.463 12.816C737.249 12.6027 736.983 12.496 736.663 12.496C736.129 12.496 735.553 12.7627 734.935 13.296C734.337 13.808 733.847 14.4693 733.463 15.28C733.271 15.6853 733.153 16.0693 733.111 16.432C733.068 16.7947 733.025 17.6267 732.983 18.928C732.94 20.72 732.855 21.7867 732.727 22.128C732.428 22.9173 731.852 23.312 730.999 23.312C730.295 23.312 729.761 23.0027 729.399 22.384C729.292 22.1493 729.185 20.1547 729.079 16.4C728.951 12.368 728.865 10.1387 728.823 9.712C728.78 9.28533 728.759 9.05067 728.759 9.008C728.759 8.73067 728.919 8.432 729.239 8.112ZM756.386 0.431999C756.77 0.389332 757.058 0.367998 757.25 0.367998C758.786 0.367998 759.938 0.751998 760.706 1.52C761.175 2.01067 761.41 2.53333 761.41 3.088C761.41 3.55733 761.239 3.96267 760.898 4.304C760.578 4.624 760.172 4.784 759.682 4.784C759.234 4.784 758.796 4.63467 758.37 4.336C757.986 4.05866 757.634 3.92 757.314 3.92C756.802 3.92 756.322 4.28267 755.874 5.008C755.426 5.73333 755.148 6.58667 755.042 7.568C754.999 7.90933 754.978 8.112 754.978 8.176C754.978 8.45333 755.116 8.63467 755.394 8.72C755.671 8.784 756.322 8.82667 757.346 8.848C757.516 8.848 757.655 8.848 757.762 8.848C758.743 8.89067 759.33 8.93333 759.522 8.976C759.735 9.01867 759.948 9.15733 760.162 9.392C760.439 9.69067 760.578 10.0747 760.578 10.544C760.578 11.0347 760.428 11.44 760.13 11.76L759.682 12.304H754.626L754.53 12.752C754.508 12.816 754.498 13.168 754.498 13.808C754.498 16.752 754.583 19.3653 754.754 21.648C754.754 21.7333 754.754 21.8507 754.754 22C754.775 22.1493 754.786 22.256 754.786 22.32C754.786 22.8747 754.711 23.28 754.562 23.536C754.412 23.792 754.146 24.016 753.762 24.208C753.506 24.336 753.228 24.4 752.93 24.4C752.332 24.4 751.874 24.176 751.554 23.728C751.383 23.472 751.223 22.5333 751.074 20.912C750.946 19.2693 750.882 17.6587 750.882 16.08C750.882 15.3547 750.892 14.832 750.914 14.512L751.01 12.272L748.93 12.368C747.948 12.4107 747.436 12.432 747.394 12.432C746.988 12.432 746.647 12.3253 746.37 12.112C745.964 11.7493 745.762 11.2693 745.762 10.672C745.762 10.416 745.804 10.192 745.89 10C746.039 9.616 746.348 9.33867 746.818 9.168C747.287 8.99733 748.066 8.88 749.154 8.816C750.498 8.73067 751.18 8.66667 751.202 8.624C751.244 8.58133 751.362 7.97333 751.554 6.8C751.895 4.60267 752.663 2.928 753.858 1.776C754.306 1.328 754.679 1.01867 754.978 0.848C755.298 0.677333 755.767 0.538666 756.386 0.431999ZM765.553 9.68C765.873 9.36 766.267 9.2 766.737 9.2C767.27 9.2 767.696 9.37067 768.016 9.712C768.315 10.0107 768.465 10.2347 768.465 10.384C768.465 10.5333 768.529 10.608 768.657 10.608C768.785 10.608 769.019 10.4907 769.361 10.256C770.193 9.68 771.153 9.392 772.241 9.392C773.073 9.392 774.065 9.57333 775.217 9.936C775.942 10.1493 776.422 10.3307 776.657 10.48C776.891 10.608 777.083 10.7893 777.233 11.024C777.467 11.3867 777.585 11.7173 777.585 12.016C777.585 12.2507 777.499 12.5387 777.329 12.88C777.03 13.456 776.539 13.744 775.857 13.744C775.409 13.744 774.875 13.6373 774.257 13.424C773.595 13.1893 772.998 13.072 772.465 13.072C771.931 13.072 771.515 13.1893 771.217 13.424C770.897 13.68 770.523 14.256 770.097 15.152C769.691 16.0267 769.414 16.8587 769.265 17.648C769.094 18.6293 769.009 19.6853 769.009 20.816C769.009 22.0747 768.881 22.9387 768.625 23.408C768.369 23.856 767.899 24.08 767.217 24.08H766.961C766.47 24.0373 766.097 23.888 765.841 23.632C765.585 23.3547 765.403 22.896 765.297 22.256C765.211 21.8507 765.137 20.4427 765.073 18.032C765.009 15.6 764.977 13.584 764.977 11.984C764.977 11.152 764.987 10.6933 765.009 10.608C765.073 10.3307 765.254 10.0213 765.553 9.68ZM790.032 12.816C789.626 12.7093 788.965 12.6133 788.048 12.528C787.45 12.4853 787.13 12.464 787.088 12.464C786.789 12.464 786.49 12.624 786.192 12.944C785.338 13.8187 784.88 15.0027 784.816 16.496C784.816 16.5813 784.805 16.6987 784.784 16.848C784.784 16.976 784.784 17.072 784.784 17.136C784.784 17.6267 784.912 18.0853 785.168 18.512C785.85 19.728 787.056 20.336 788.784 20.336C789.509 20.3147 790.245 20.0693 790.992 19.6C791.76 19.1093 792.314 18.5227 792.656 17.84C792.848 17.4347 792.944 16.9973 792.944 16.528C792.944 15.7387 792.666 14.992 792.112 14.288C791.578 13.5627 790.885 13.072 790.032 12.816ZM785.168 9.232C785.658 8.95467 786.149 8.816 786.64 8.816C786.746 8.816 787.141 8.83733 787.824 8.88C789.85 8.98667 791.482 9.41333 792.72 10.16C793.957 10.9067 794.949 12.0587 795.696 13.616C796.272 14.8107 796.56 15.952 796.56 17.04C796.56 17.3813 796.528 17.68 796.464 17.936C796.122 19.2587 795.376 20.464 794.224 21.552C793.072 22.64 791.802 23.3653 790.416 23.728C789.69 23.8987 789.114 23.984 788.688 23.984C788.261 23.984 787.685 23.8987 786.96 23.728C784.762 23.152 783.184 22.1067 782.224 20.592C781.477 19.4187 781.104 18.1813 781.104 16.88C781.104 15.5787 781.456 14.192 782.16 12.72C782.97 10.992 783.973 9.82933 785.168 9.232ZM800.905 9.072C801.161 8.944 801.427 8.88 801.705 8.88C802.089 8.88 802.451 9.008 802.793 9.264C803.134 9.49867 803.369 9.81867 803.497 10.224L803.689 10.896L804.489 10.416C805.022 10.096 805.758 9.936 806.697 9.936C807.614 9.936 808.371 10.0853 808.969 10.384C809.459 10.6187 809.982 11.0027 810.537 11.536C811.113 12.0693 811.571 12.6027 811.913 13.136C813.065 14.9493 813.694 17.7653 813.801 21.584V22.224C813.801 22.736 813.651 23.152 813.353 23.472C812.99 23.8347 812.563 24.016 812.073 24.016C811.283 24.016 810.761 23.6747 810.505 22.992C810.377 22.6293 810.27 21.9147 810.185 20.848C809.929 17.1147 809.097 14.7787 807.689 13.84C807.39 13.648 807.091 13.552 806.793 13.552C806.238 13.552 805.737 13.8613 805.289 14.48C804.862 15.0773 804.521 15.9307 804.265 17.04C804.158 17.5307 804.03 18.416 803.881 19.696C803.731 20.976 803.657 21.84 803.657 22.288C803.657 22.5013 803.475 22.7893 803.113 23.152C802.75 23.4933 802.334 23.664 801.865 23.664C800.99 23.664 800.414 23.2053 800.137 22.288C800.009 21.84 799.945 19.8987 799.945 16.464C799.945 12.368 800.019 10.1387 800.169 9.776C800.297 9.49867 800.542 9.264 800.905 9.072ZM822.282 1.52C822.644 1.15733 823.082 0.975998 823.594 0.975998C823.978 0.975998 824.319 1.09333 824.618 1.328C824.938 1.54133 825.162 1.85067 825.29 2.256C825.354 2.49067 825.46 3.6 825.61 5.584C825.759 7.54667 825.834 8.912 825.834 9.68C825.834 9.872 825.876 9.98933 825.962 10.032C826.068 10.0747 826.314 10.096 826.698 10.096C827.274 10.096 827.604 10.032 827.69 9.904C827.732 9.79733 828.17 9.744 829.002 9.744C830.068 9.744 830.772 9.81867 831.114 9.968C831.434 10.1173 831.679 10.4053 831.85 10.832C831.999 11.1307 832.074 11.376 832.074 11.568C832.074 11.7173 832.042 11.8987 831.978 12.112C831.828 12.6027 831.551 12.9333 831.146 13.104C830.762 13.2533 829.994 13.36 828.842 13.424C827.54 13.488 826.698 13.5733 826.314 13.68L825.802 13.808L825.93 18.32C825.972 20.3253 825.994 21.4027 825.994 21.552C825.994 22.4907 825.919 23.12 825.77 23.44C825.45 24.1227 824.927 24.464 824.202 24.464C823.924 24.464 823.636 24.4 823.338 24.272C823.103 24.1653 822.932 24.0693 822.826 23.984C822.719 23.8773 822.623 23.6107 822.538 23.184C822.452 22.736 822.399 22.2133 822.378 21.616C822.356 21.0187 822.335 20.0373 822.314 18.672L822.25 14.032L821.29 14.064C820.714 14.1067 820.202 14.192 819.754 14.32C819.647 14.3627 819.476 14.384 819.242 14.384C818.516 14.384 817.994 14.16 817.674 13.712C817.503 13.4347 817.418 13.0613 817.418 12.592C817.418 12.1867 817.482 11.8667 817.61 11.632C817.908 11.0987 818.954 10.6933 820.746 10.416L822.218 10.192L822.09 7.376C822.004 5.37067 821.93 4.00533 821.866 3.28C821.823 2.768 821.802 2.49067 821.802 2.448C821.802 2.14933 821.962 1.84 822.282 1.52ZM850.376 1.52C850.738 1.15733 851.176 0.975998 851.688 0.975998C852.072 0.975998 852.413 1.09333 852.712 1.328C853.032 1.54133 853.256 1.85067 853.384 2.256C853.448 2.49067 853.554 3.6 853.704 5.584C853.853 7.54667 853.928 8.912 853.928 9.68C853.928 9.872 853.97 9.98933 854.056 10.032C854.162 10.0747 854.408 10.096 854.792 10.096C855.368 10.096 855.698 10.032 855.784 9.904C855.826 9.79733 856.264 9.744 857.096 9.744C858.162 9.744 858.866 9.81867 859.208 9.968C859.528 10.1173 859.773 10.4053 859.944 10.832C860.093 11.1307 860.168 11.376 860.168 11.568C860.168 11.7173 860.136 11.8987 860.072 12.112C859.922 12.6027 859.645 12.9333 859.24 13.104C858.856 13.2533 858.088 13.36 856.936 13.424C855.634 13.488 854.792 13.5733 854.408 13.68L853.896 13.808L854.024 18.32C854.066 20.3253 854.088 21.4027 854.088 21.552C854.088 22.4907 854.013 23.12 853.864 23.44C853.544 24.1227 853.021 24.464 852.296 24.464C852.018 24.464 851.73 24.4 851.432 24.272C851.197 24.1653 851.026 24.0693 850.92 23.984C850.813 23.8773 850.717 23.6107 850.632 23.184C850.546 22.736 850.493 22.2133 850.472 21.616C850.45 21.0187 850.429 20.0373 850.408 18.672L850.344 14.032L849.384 14.064C848.808 14.1067 848.296 14.192 847.848 14.32C847.741 14.3627 847.57 14.384 847.336 14.384C846.61 14.384 846.088 14.16 845.768 13.712C845.597 13.4347 845.512 13.0613 845.512 12.592C845.512 12.1867 845.576 11.8667 845.704 11.632C846.002 11.0987 847.048 10.6933 848.84 10.416L850.312 10.192L850.184 7.376C850.098 5.37067 850.024 4.00533 849.96 3.28C849.917 2.768 849.896 2.49067 849.896 2.448C849.896 2.14933 850.056 1.84 850.376 1.52ZM864.464 1.552C864.827 1.25333 865.2 1.104 865.584 1.104C866.352 1.104 866.917 1.57333 867.28 2.512C867.429 2.93867 867.589 3.96267 867.76 5.584C867.931 7.184 868.069 8.67733 868.176 10.064C868.283 11.4293 868.347 12.112 868.368 12.112C868.411 12.112 868.763 11.8773 869.424 11.408C870.725 10.4907 871.963 10.032 873.136 10.032C874.224 10.032 875.173 10.4373 875.984 11.248C876.816 12.0373 877.467 13.2 877.936 14.736C878.299 15.9307 878.48 17.7867 878.48 20.304C878.48 21.8827 878.384 22.9493 878.192 23.504C877.979 24.08 877.488 24.368 876.72 24.368C876.208 24.368 875.781 24.1973 875.44 23.856L874.96 23.376L874.864 20.144C874.736 15.984 874.16 13.84 873.136 13.712H873.04C872.549 13.712 871.941 13.9893 871.216 14.544C870.491 15.0773 869.968 15.664 869.648 16.304C869.456 16.7307 869.2 17.04 868.88 17.232L868.464 17.52L868.4 21.008C868.357 22.7147 868.315 23.7493 868.272 24.112C868.251 24.4533 868.133 24.7307 867.92 24.944C867.579 25.3067 867.152 25.488 866.64 25.488C865.872 25.488 865.339 25.1467 865.04 24.464C864.891 24.0587 864.784 21.6053 864.72 17.104C864.613 9.57333 864.336 5.06133 863.888 3.568C863.824 3.33333 863.792 3.10933 863.792 2.896C863.792 2.34133 864.016 1.89333 864.464 1.552ZM891.867 13.808C891.483 13.616 890.939 13.52 890.235 13.52C889.467 13.52 888.816 13.6373 888.283 13.872C887.92 14.0213 887.451 14.352 886.875 14.864C886.299 15.3547 886.011 15.6747 886.011 15.824C886.011 15.888 886.341 15.92 887.003 15.92C887.984 15.92 889.157 15.8667 890.523 15.76C891.888 15.6533 892.667 15.536 892.859 15.408C892.923 15.3867 892.955 15.3227 892.955 15.216C892.955 15.024 892.837 14.7787 892.603 14.48C892.368 14.16 892.123 13.936 891.867 13.808ZM888.091 10.096C888.624 9.94667 889.253 9.872 889.979 9.872C891.323 9.872 892.549 10.1387 893.659 10.672C894.491 11.0987 895.184 11.7493 895.739 12.624C896.293 13.4773 896.635 14.4373 896.763 15.504C896.763 15.5467 896.763 15.6107 896.763 15.696C896.784 15.7813 896.795 15.8453 896.795 15.888C896.795 16.4427 896.688 16.9867 896.475 17.52C896.283 18.0533 896.048 18.416 895.771 18.608C895.408 18.864 892.859 19.184 888.123 19.568C887.12 19.6533 886.619 19.7493 886.619 19.856C886.619 19.984 886.843 20.1867 887.291 20.464C887.739 20.7413 888.176 20.9333 888.603 21.04C888.987 21.1253 889.296 21.168 889.531 21.168C890.213 21.168 891.099 20.944 892.187 20.496C892.955 20.176 893.52 20.016 893.883 20.016C894.245 20.016 894.587 20.176 894.907 20.496C895.333 20.9227 895.547 21.328 895.547 21.712C895.547 21.968 895.483 22.2347 895.355 22.512C895.248 22.768 895.099 22.9707 894.907 23.12C894.736 23.2693 894.416 23.4507 893.947 23.664C892.389 24.3467 890.939 24.688 889.595 24.688C888.827 24.688 888.037 24.5707 887.227 24.336C886.139 23.9947 885.147 23.4187 884.251 22.608C883.355 21.776 882.715 20.8587 882.331 19.856C882.096 19.1947 881.979 18.4587 881.979 17.648C881.979 16.4747 882.171 15.4933 882.555 14.704C883.003 13.7227 883.76 12.784 884.827 11.888C885.893 10.992 886.981 10.3947 888.091 10.096ZM910.521 9.328C910.905 9.008 911.321 8.848 911.769 8.848C912.238 8.848 912.643 9.01867 912.985 9.36C913.326 9.68 913.497 10.096 913.497 10.608C913.497 11.12 913.593 11.376 913.785 11.376C913.891 11.376 914.115 11.2587 914.457 11.024C916.035 9.936 917.603 9.392 919.161 9.392C919.822 9.392 920.473 9.50933 921.113 9.744C921.689 9.97867 922.094 10.2347 922.329 10.512C922.563 10.7893 922.681 11.1627 922.681 11.632C922.681 12.144 922.489 12.5813 922.105 12.944C921.785 13.2427 921.497 13.392 921.241 13.392C921.155 13.392 920.558 13.3173 919.449 13.168C919.321 13.1467 919.139 13.136 918.905 13.136C918.563 13.136 918.126 13.2533 917.593 13.488C916.206 14.128 915.235 14.9387 914.681 15.92C914.126 16.9013 913.849 18.3093 913.849 20.144C913.827 21.488 913.667 22.4267 913.369 22.96C913.091 23.4933 912.59 23.76 911.865 23.76C911.374 23.76 910.958 23.5893 910.617 23.248L910.105 22.736L910.041 17.072C909.998 12.8907 909.977 10.736 909.977 10.608C909.977 10.096 910.158 9.66933 910.521 9.328ZM934.966 12.944C934.582 12.6667 933.974 12.528 933.142 12.528C932.63 12.528 932.224 12.592 931.926 12.72C931.648 12.848 931.328 13.1147 930.966 13.52C930.624 13.904 930.454 14.1813 930.454 14.352C930.454 14.5013 930.614 14.576 930.934 14.576C931.36 14.5547 932.246 14.4587 933.59 14.288C934.934 14.1173 935.627 14.0107 935.67 13.968C935.691 13.9467 935.702 13.9147 935.702 13.872C935.702 13.6373 935.456 13.328 934.966 12.944ZM931.51 9.04C931.894 8.93333 932.363 8.88 932.918 8.88C934.048 8.88 935.019 9.04 935.83 9.36C936.491 9.59467 937.142 10.0533 937.782 10.736C938.443 11.3973 938.987 12.144 939.414 12.976C939.84 13.8293 940.054 14.4053 940.054 14.704C940.054 15.3867 939.755 16.0267 939.158 16.624C938.518 17.2 936.523 17.6267 933.174 17.904C931.894 18.0107 931.062 18.096 930.678 18.16C930.294 18.224 930.102 18.32 930.102 18.448C930.102 18.5547 930.294 18.7787 930.678 19.12C931.339 19.76 932.523 20.144 934.23 20.272C934.4 20.2933 934.624 20.304 934.902 20.304C935.35 20.304 935.883 20.1973 936.502 19.984C937.376 19.664 938.07 19.504 938.582 19.504C939.35 19.504 939.851 19.888 940.086 20.656C940.15 20.848 940.182 21.0293 940.182 21.2C940.182 21.9253 939.723 22.5227 938.806 22.992C937.91 23.44 936.64 23.696 934.998 23.76C934.912 23.76 934.795 23.7707 934.646 23.792C934.496 23.792 934.39 23.792 934.326 23.792C932.512 23.792 930.944 23.44 929.622 22.736C928.32 22.0107 927.339 20.9867 926.678 19.664C926.358 19.024 926.198 18.1707 926.198 17.104C926.198 16.0373 926.304 15.1947 926.518 14.576C927.051 12.976 927.712 11.7493 928.502 10.896C929.291 10.0213 930.294 9.40267 931.51 9.04ZM952.882 13.68C952.776 13.3387 952.68 13.1467 952.594 13.104C952.509 13.04 952.274 13.008 951.89 13.008C950.781 13.0293 949.746 13.552 948.786 14.576C947.826 15.5787 947.346 16.592 947.346 17.616C947.346 18.128 947.485 18.5547 947.762 18.896C948.381 19.5787 949.032 19.92 949.714 19.92C949.757 19.92 949.8 19.92 949.842 19.92C949.885 19.8987 949.928 19.888 949.97 19.888C950.354 19.8027 950.76 19.5467 951.186 19.12C951.634 18.6933 951.976 18.224 952.21 17.712C952.701 16.56 952.946 15.44 952.946 14.352C952.946 14.032 952.925 13.808 952.882 13.68ZM949.906 9.648C950.482 9.456 951.144 9.36 951.89 9.36C952.872 9.36 953.704 9.52 954.386 9.84C954.834 10.0747 955.24 10.4267 955.602 10.896C955.986 11.344 956.221 11.7707 956.306 12.176C956.392 12.5813 956.509 12.9653 956.658 13.328C956.893 13.9467 957.362 16.272 958.066 20.304C958.173 20.944 958.226 21.424 958.226 21.744C958.226 23.024 957.629 23.664 956.434 23.664C956.029 23.664 955.656 23.504 955.314 23.184C954.994 22.864 954.792 22.4693 954.706 22C954.621 21.5733 954.546 21.328 954.482 21.264C954.397 21.2 954.152 21.3707 953.746 21.776C952.53 22.992 951.133 23.6 949.554 23.6C949.277 23.6 948.989 23.568 948.69 23.504C947.517 23.248 946.418 22.608 945.394 21.584C944.242 20.432 943.666 19.1413 943.666 17.712C943.666 16.5813 944.018 15.3547 944.722 14.032C945.256 13.0293 945.981 12.1333 946.898 11.344C947.837 10.5547 948.84 9.98933 949.906 9.648ZM963.2 2.864C963.477 2.75733 963.723 2.704 963.936 2.704C964.256 2.704 964.576 2.8 964.896 2.992C965.216 3.20533 965.429 3.44 965.536 3.696C965.664 3.952 965.728 4.44267 965.728 5.168C965.728 6 965.685 7.056 965.6 8.336C965.451 10.96 965.355 14.0533 965.312 17.616C965.312 21.0933 965.237 22.9707 965.088 23.248C964.981 23.4613 964.757 23.6747 964.416 23.888C964.096 24.08 963.819 24.176 963.584 24.176C963.328 24.176 963.04 24.0693 962.72 23.856C962.4 23.6427 962.176 23.408 962.048 23.152C961.792 22.64 961.664 20.9227 961.664 18C961.664 15.056 961.792 11.1733 962.048 6.352C962.112 5.09333 962.219 4.24 962.368 3.792C962.517 3.344 962.795 3.03467 963.2 2.864ZM970.638 9.456C970.723 9.43467 970.851 9.424 971.022 9.424C971.491 9.424 971.907 9.57333 972.27 9.872C972.632 10.1707 972.846 10.5547 972.91 11.024C972.995 11.4933 973.038 13.5093 973.038 17.072L973.07 22.48L972.526 22.992C972.163 23.3547 971.736 23.536 971.246 23.536C970.798 23.536 970.414 23.376 970.094 23.056C969.88 22.8427 969.731 22.6293 969.646 22.416C969.582 22.1813 969.528 21.7333 969.486 21.072C969.422 20.24 969.39 18.2347 969.39 15.056L969.358 10.576L969.806 10.032C970.126 9.69067 970.403 9.49867 970.638 9.456ZM970.062 3.088C970.339 2.93867 970.627 2.864 970.926 2.864C971.416 2.864 971.832 3.04533 972.174 3.408C972.515 3.77067 972.686 4.18667 972.686 4.656C972.686 5.06133 972.526 5.456 972.206 5.84C971.8 6.26667 971.352 6.48 970.862 6.48C970.392 6.48 969.976 6.32 969.614 6C969.272 5.65867 969.102 5.25333 969.102 4.784C969.102 4.50666 969.166 4.22933 969.294 3.952C969.486 3.54667 969.742 3.25867 970.062 3.088ZM981.502 2.192C981.843 1.97867 982.163 1.872 982.462 1.872C982.697 1.872 982.963 1.936 983.262 2.064C983.71 2.27733 983.998 2.608 984.126 3.056C984.254 3.504 984.339 4.57067 984.382 6.256L984.478 9.424L985.95 9.328C986.121 9.30667 986.366 9.296 986.686 9.296C987.454 9.296 987.998 9.43467 988.318 9.712C988.659 9.98933 988.83 10.4373 988.83 11.056C988.83 11.7173 988.606 12.1867 988.158 12.464C987.731 12.7413 986.899 12.9333 985.662 13.04L984.318 13.168L984.094 17.616C983.945 20.624 983.806 22.288 983.678 22.608C983.401 23.248 982.867 23.568 982.078 23.568C981.63 23.568 981.278 23.4507 981.022 23.216C980.745 23.0027 980.553 22.768 980.446 22.512C980.339 22.256 980.286 21.84 980.286 21.264C980.286 20.7947 980.318 20.0907 980.382 19.152C980.489 17.4667 980.563 16.0267 980.606 14.832L980.638 13.328L979.198 13.296C978.387 13.2747 977.833 13.2107 977.534 13.104C977.235 12.976 976.979 12.72 976.766 12.336C976.638 12.08 976.574 11.8133 976.574 11.536C976.574 11.024 976.787 10.576 977.214 10.192C977.449 9.97867 977.747 9.84 978.11 9.776C978.473 9.69067 979.145 9.60533 980.126 9.52L980.638 9.456L980.766 6.064C980.787 5.552 980.798 4.99733 980.798 4.4C980.819 3.78133 980.83 3.32266 980.83 3.024L980.862 2.576L980.958 2.512C981.022 2.46933 981.107 2.416 981.214 2.352C981.321 2.288 981.417 2.23467 981.502 2.192ZM1004.35 8.272C1004.57 8.208 1004.73 8.176 1004.83 8.176C1004.92 8.176 1005.16 8.26133 1005.57 8.432C1006 8.60267 1006.29 8.89067 1006.47 9.296C1006.55 9.46667 1006.59 9.65867 1006.59 9.872C1006.59 10.192 1006.34 11.1627 1005.83 12.784C1004.89 15.792 1003.7 18.8107 1002.27 21.84C1001.61 23.2907 1000.6 25.168 999.233 27.472C997.868 29.7973 997.036 31.0453 996.737 31.216C996.396 31.4293 996.044 31.536 995.681 31.536C995.19 31.536 994.764 31.3653 994.401 31.024C994.06 30.704 993.889 30.2773 993.889 29.744C993.889 29.36 994.23 28.6347 994.913 27.568C995.446 26.736 996.14 25.5627 996.993 24.048C997.846 22.512 998.273 21.6907 998.273 21.584C998.273 21.52 998.038 21.0933 997.569 20.304C997.356 19.9627 996.598 18.576 995.297 16.144C994.017 13.6907 993.238 12.272 992.961 11.888C992.62 11.3973 992.449 10.9067 992.449 10.416C992.449 9.712 992.79 9.21067 993.473 8.912C993.729 8.80533 993.953 8.752 994.145 8.752C994.593 8.752 995.03 9.008 995.457 9.52C995.884 10.0107 996.428 10.864 997.089 12.08C998.518 14.7253 999.489 16.4533 1000 17.264C1000.11 17.4133 1000.17 17.488 1000.19 17.488C1000.28 17.488 1000.49 17.0293 1000.83 16.112C1001.32 14.768 1001.81 13.3387 1002.31 11.824C1002.73 10.4587 1003.07 9.552 1003.33 9.104C1003.61 8.656 1003.95 8.37867 1004.35 8.272ZM1029.41 12.816C1029 12.7093 1028.34 12.6133 1027.42 12.528C1026.83 12.4853 1026.51 12.464 1026.46 12.464C1026.16 12.464 1025.87 12.624 1025.57 12.944C1024.71 13.8187 1024.25 15.0027 1024.19 16.496C1024.19 16.5813 1024.18 16.6987 1024.16 16.848C1024.16 16.976 1024.16 17.072 1024.16 17.136C1024.16 17.6267 1024.29 18.0853 1024.54 18.512C1025.23 19.728 1026.43 20.336 1028.16 20.336C1028.88 20.3147 1029.62 20.0693 1030.37 19.6C1031.13 19.1093 1031.69 18.5227 1032.03 17.84C1032.22 17.4347 1032.32 16.9973 1032.32 16.528C1032.32 15.7387 1032.04 14.992 1031.49 14.288C1030.95 13.5627 1030.26 13.072 1029.41 12.816ZM1024.54 9.232C1025.03 8.95467 1025.52 8.816 1026.01 8.816C1026.12 8.816 1026.52 8.83733 1027.2 8.88C1029.23 8.98667 1030.86 9.41333 1032.09 10.16C1033.33 10.9067 1034.32 12.0587 1035.07 13.616C1035.65 14.8107 1035.93 15.952 1035.93 17.04C1035.93 17.3813 1035.9 17.68 1035.84 17.936C1035.5 19.2587 1034.75 20.464 1033.6 21.552C1032.45 22.64 1031.18 23.3653 1029.79 23.728C1029.07 23.8987 1028.49 23.984 1028.06 23.984C1027.64 23.984 1027.06 23.8987 1026.33 23.728C1024.14 23.152 1022.56 22.1067 1021.6 20.592C1020.85 19.4187 1020.48 18.1813 1020.48 16.88C1020.48 15.5787 1020.83 14.192 1021.53 12.72C1022.35 10.992 1023.35 9.82933 1024.54 9.232ZM1050.14 0.431999C1050.52 0.389332 1050.81 0.367998 1051 0.367998C1052.54 0.367998 1053.69 0.751998 1054.46 1.52C1054.92 2.01067 1055.16 2.53333 1055.16 3.088C1055.16 3.55733 1054.99 3.96267 1054.65 4.304C1054.33 4.624 1053.92 4.784 1053.43 4.784C1052.98 4.784 1052.55 4.63467 1052.12 4.336C1051.74 4.05866 1051.38 3.92 1051.06 3.92C1050.55 3.92 1050.07 4.28267 1049.62 5.008C1049.18 5.73333 1048.9 6.58667 1048.79 7.568C1048.75 7.90933 1048.73 8.112 1048.73 8.176C1048.73 8.45333 1048.87 8.63467 1049.14 8.72C1049.42 8.784 1050.07 8.82667 1051.1 8.848C1051.27 8.848 1051.4 8.848 1051.51 8.848C1052.49 8.89067 1053.08 8.93333 1053.27 8.976C1053.48 9.01867 1053.7 9.15733 1053.91 9.392C1054.19 9.69067 1054.33 10.0747 1054.33 10.544C1054.33 11.0347 1054.18 11.44 1053.88 11.76L1053.43 12.304H1048.38L1048.28 12.752C1048.26 12.816 1048.25 13.168 1048.25 13.808C1048.25 16.752 1048.33 19.3653 1048.5 21.648C1048.5 21.7333 1048.5 21.8507 1048.5 22C1048.52 22.1493 1048.54 22.256 1048.54 22.32C1048.54 22.8747 1048.46 23.28 1048.31 23.536C1048.16 23.792 1047.9 24.016 1047.51 24.208C1047.26 24.336 1046.98 24.4 1046.68 24.4C1046.08 24.4 1045.62 24.176 1045.3 23.728C1045.13 23.472 1044.97 22.5333 1044.82 20.912C1044.7 19.2693 1044.63 17.6587 1044.63 16.08C1044.63 15.3547 1044.64 14.832 1044.66 14.512L1044.76 12.272L1042.68 12.368C1041.7 12.4107 1041.19 12.432 1041.14 12.432C1040.74 12.432 1040.4 12.3253 1040.12 12.112C1039.71 11.7493 1039.51 11.2693 1039.51 10.672C1039.51 10.416 1039.55 10.192 1039.64 10C1039.79 9.616 1040.1 9.33867 1040.57 9.168C1041.04 8.99733 1041.82 8.88 1042.9 8.816C1044.25 8.73067 1044.93 8.66667 1044.95 8.624C1044.99 8.58133 1045.11 7.97333 1045.3 6.8C1045.64 4.60267 1046.41 2.928 1047.61 1.776C1048.06 1.328 1048.43 1.01867 1048.73 0.848C1049.05 0.677333 1049.52 0.538666 1050.14 0.431999ZM1073.6 2.192C1073.94 1.97867 1074.26 1.872 1074.56 1.872C1074.79 1.872 1075.06 1.936 1075.36 2.064C1075.8 2.27733 1076.09 2.608 1076.22 3.056C1076.35 3.504 1076.43 4.57067 1076.48 6.256L1076.57 9.424L1078.04 9.328C1078.21 9.30667 1078.46 9.296 1078.78 9.296C1079.55 9.296 1080.09 9.43467 1080.41 9.712C1080.75 9.98933 1080.92 10.4373 1080.92 11.056C1080.92 11.7173 1080.7 12.1867 1080.25 12.464C1079.83 12.7413 1078.99 12.9333 1077.76 13.04L1076.41 13.168L1076.19 17.616C1076.04 20.624 1075.9 22.288 1075.77 22.608C1075.49 23.248 1074.96 23.568 1074.17 23.568C1073.72 23.568 1073.37 23.4507 1073.12 23.216C1072.84 23.0027 1072.65 22.768 1072.54 22.512C1072.43 22.256 1072.38 21.84 1072.38 21.264C1072.38 20.7947 1072.41 20.0907 1072.48 19.152C1072.58 17.4667 1072.66 16.0267 1072.7 14.832L1072.73 13.328L1071.29 13.296C1070.48 13.2747 1069.93 13.2107 1069.63 13.104C1069.33 12.976 1069.07 12.72 1068.86 12.336C1068.73 12.08 1068.67 11.8133 1068.67 11.536C1068.67 11.024 1068.88 10.576 1069.31 10.192C1069.54 9.97867 1069.84 9.84 1070.2 9.776C1070.57 9.69067 1071.24 9.60533 1072.22 9.52L1072.73 9.456L1072.86 6.064C1072.88 5.552 1072.89 4.99733 1072.89 4.4C1072.91 3.78133 1072.92 3.32266 1072.92 3.024L1072.96 2.576L1073.05 2.512C1073.12 2.46933 1073.2 2.416 1073.31 2.352C1073.41 2.288 1073.51 2.23467 1073.6 2.192ZM1085.92 9.456C1086 9.43467 1086.13 9.424 1086.3 9.424C1086.77 9.424 1087.19 9.57333 1087.55 9.872C1087.91 10.1707 1088.13 10.5547 1088.19 11.024C1088.28 11.4933 1088.32 13.5093 1088.32 17.072L1088.35 22.48L1087.81 22.992C1087.44 23.3547 1087.02 23.536 1086.53 23.536C1086.08 23.536 1085.69 23.376 1085.37 23.056C1085.16 22.8427 1085.01 22.6293 1084.93 22.416C1084.86 22.1813 1084.81 21.7333 1084.77 21.072C1084.7 20.24 1084.67 18.2347 1084.67 15.056L1084.64 10.576L1085.09 10.032C1085.41 9.69067 1085.68 9.49867 1085.92 9.456ZM1085.34 3.088C1085.62 2.93867 1085.91 2.864 1086.21 2.864C1086.7 2.864 1087.11 3.04533 1087.45 3.408C1087.8 3.77067 1087.97 4.18667 1087.97 4.656C1087.97 5.06133 1087.81 5.456 1087.49 5.84C1087.08 6.26667 1086.63 6.48 1086.14 6.48C1085.67 6.48 1085.26 6.32 1084.89 6C1084.55 5.65867 1084.38 5.25333 1084.38 4.784C1084.38 4.50666 1084.45 4.22933 1084.57 3.952C1084.77 3.54667 1085.02 3.25867 1085.34 3.088ZM1093.01 7.344C1093.31 7.30133 1093.48 7.26933 1093.52 7.248C1093.63 7.248 1093.87 7.32267 1094.26 7.472C1094.55 7.6 1094.82 7.856 1095.06 8.24C1095.29 8.624 1095.41 8.99733 1095.41 9.36C1095.41 9.63733 1095.46 9.85067 1095.57 10C1095.65 10.1067 1095.73 10.1493 1095.79 10.128C1095.86 10.1067 1096 10 1096.24 9.808C1097.2 8.99733 1098.37 8.496 1099.76 8.304C1100.19 8.26133 1100.48 8.24 1100.66 8.24C1101.74 8.24 1102.67 8.63467 1103.44 9.424L1104.18 10.16L1105.1 9.424C1106.62 8.208 1108.09 7.6 1109.52 7.6C1110.01 7.6 1110.45 7.67467 1110.83 7.824C1111.26 7.99467 1111.72 8.32533 1112.21 8.816C1112.72 9.28533 1113.1 9.78667 1113.36 10.32C1114.13 11.8773 1114.63 14.7787 1114.86 19.024C1114.91 20.0907 1114.93 20.6773 1114.93 20.784C1114.93 21.3387 1114.85 21.7547 1114.7 22.032C1114.38 22.6507 1113.89 22.96 1113.23 22.96C1112.76 22.96 1112.35 22.7893 1111.98 22.448L1111.41 21.968L1111.25 18.992C1111.01 14.5547 1110.48 11.984 1109.65 11.28C1109.52 11.1947 1109.41 11.152 1109.33 11.152C1109.16 11.152 1108.85 11.2693 1108.4 11.504C1107.29 12.0373 1106.5 12.944 1106.03 14.224C1105.78 14.8853 1105.6 16.2613 1105.52 18.352C1105.41 20.464 1105.31 21.6373 1105.2 21.872C1104.86 22.4693 1104.31 22.768 1103.57 22.768C1103.16 22.768 1102.8 22.64 1102.48 22.384C1102.01 22 1101.78 21.0613 1101.78 19.568C1101.78 18.8853 1101.79 18.32 1101.81 17.872C1101.81 17.7227 1101.81 17.52 1101.81 17.264C1101.83 16.9867 1101.84 16.784 1101.84 16.656C1101.84 14.5653 1101.6 13.1147 1101.14 12.304C1100.94 11.9627 1100.75 11.792 1100.56 11.792C1100.54 11.792 1100.4 11.8133 1100.14 11.856C1098.78 12.112 1097.63 13.2107 1096.69 15.152C1096.3 15.9627 1096.11 16.816 1096.11 17.712C1096.11 18.48 1096.18 19.4187 1096.3 20.528C1096.37 20.976 1096.4 21.3493 1096.4 21.648C1096.4 22.4587 1096.05 23.0347 1095.34 23.376C1095.04 23.5253 1094.81 23.6 1094.64 23.6C1094.51 23.6 1094.31 23.5467 1094.03 23.44C1093.5 23.248 1093.15 22.8853 1092.98 22.352C1092.8 21.7973 1092.67 20.6133 1092.56 18.8C1092.41 15.7067 1092.15 12.5173 1091.79 9.232C1091.79 9.18933 1091.78 9.12533 1091.76 9.04C1091.76 8.95467 1091.76 8.90133 1091.76 8.88C1091.76 8.58133 1091.89 8.272 1092.14 7.952C1092.46 7.58933 1092.75 7.38667 1093.01 7.344ZM1128.3 13.808C1127.92 13.616 1127.38 13.52 1126.67 13.52C1125.9 13.52 1125.25 13.6373 1124.72 13.872C1124.36 14.0213 1123.89 14.352 1123.31 14.864C1122.74 15.3547 1122.45 15.6747 1122.45 15.824C1122.45 15.888 1122.78 15.92 1123.44 15.92C1124.42 15.92 1125.59 15.8667 1126.96 15.76C1128.33 15.6533 1129.1 15.536 1129.3 15.408C1129.36 15.3867 1129.39 15.3227 1129.39 15.216C1129.39 15.024 1129.27 14.7787 1129.04 14.48C1128.81 14.16 1128.56 13.936 1128.3 13.808ZM1124.53 10.096C1125.06 9.94667 1125.69 9.872 1126.42 9.872C1127.76 9.872 1128.99 10.1387 1130.1 10.672C1130.93 11.0987 1131.62 11.7493 1132.18 12.624C1132.73 13.4773 1133.07 14.4373 1133.2 15.504C1133.2 15.5467 1133.2 15.6107 1133.2 15.696C1133.22 15.7813 1133.23 15.8453 1133.23 15.888C1133.23 16.4427 1133.13 16.9867 1132.91 17.52C1132.72 18.0533 1132.49 18.416 1132.21 18.608C1131.85 18.864 1129.3 19.184 1124.56 19.568C1123.56 19.6533 1123.06 19.7493 1123.06 19.856C1123.06 19.984 1123.28 20.1867 1123.73 20.464C1124.18 20.7413 1124.61 20.9333 1125.04 21.04C1125.42 21.1253 1125.73 21.168 1125.97 21.168C1126.65 21.168 1127.54 20.944 1128.62 20.496C1129.39 20.176 1129.96 20.016 1130.32 20.016C1130.68 20.016 1131.02 20.176 1131.34 20.496C1131.77 20.9227 1131.98 21.328 1131.98 21.712C1131.98 21.968 1131.92 22.2347 1131.79 22.512C1131.69 22.768 1131.54 22.9707 1131.34 23.12C1131.17 23.2693 1130.85 23.4507 1130.38 23.664C1128.83 24.3467 1127.38 24.688 1126.03 24.688C1125.26 24.688 1124.47 24.5707 1123.66 24.336C1122.58 23.9947 1121.58 23.4187 1120.69 22.608C1119.79 21.776 1119.15 20.8587 1118.77 19.856C1118.53 19.1947 1118.42 18.4587 1118.42 17.648C1118.42 16.4747 1118.61 15.4933 1118.99 14.704C1119.44 13.7227 1120.2 12.784 1121.26 11.888C1122.33 10.992 1123.42 10.3947 1124.53 10.096ZM1137.85 20.56C1138.23 20.4107 1138.46 20.336 1138.52 20.336L1139.13 20.56C1139.9 20.88 1140.28 21.456 1140.28 22.288C1140.28 22.736 1140.09 23.1627 1139.7 23.568C1139.34 23.9733 1138.96 24.176 1138.55 24.176C1138.17 24.176 1137.81 24.048 1137.46 23.792C1137.14 23.5147 1136.92 23.1733 1136.79 22.768C1136.73 22.576 1136.7 22.3947 1136.7 22.224C1136.7 21.84 1136.8 21.4987 1137.02 21.2C1137.23 20.88 1137.51 20.6667 1137.85 20.56Z" fill="white"/>
</svg>
