<svg width="1138" height="32" viewBox="0 0 1138 32" fill="none" xmlns="http://www.w3.org/2000/svg">
<path d="M1.336 4.272C1.67733 3.952 1.99733 3.792 2.296 3.792C2.46667 3.792 2.616 3.80267 2.744 3.824C3.32 3.888 3.72533 4.08 3.96 4.4L4.376 4.88L4.312 13.264C4.29067 18.7893 4.19467 21.7653 4.024 22.192C3.74667 22.832 3.21333 23.152 2.424 23.152C2.168 23.152 1.976 23.1307 1.848 23.088C1.528 22.9813 1.31467 22.9067 1.208 22.864C1.12267 22.8 1.016 22.608 0.888 22.288C0.781333 21.9467 0.717333 21.4773 0.696 20.88C0.674667 20.2827 0.664 19.3653 0.664 18.128C0.664 17.7867 0.664 17.0933 0.664 16.048C0.685333 15.0027 0.696 14.128 0.696 13.424L0.728 4.784L1.336 4.272ZM12.6225 3.504C12.3452 4.63467 11.9505 5.872 11.4385 7.216C10.9265 8.56 10.4038 9.81867 9.8705 10.992H6.4465C6.74517 9.73333 7.04383 8.38933 7.3425 6.96C7.64117 5.53067 7.86517 4.26133 8.0145 3.152H12.3985L12.6225 3.504ZM15.784 8.528C15.9973 8.42133 16.2533 8.368 16.552 8.368C17.64 8.368 18.3227 9.28533 18.6 11.12C18.664 11.6747 18.7387 11.952 18.824 11.952C18.8453 11.952 19.144 11.7067 19.72 11.216C20.8933 10.1707 22.088 9.648 23.304 9.648C23.9653 9.648 24.5947 9.82933 25.192 10.192C25.768 10.5547 26.1413 10.8747 26.312 11.152L26.6 11.6L27.368 10.896C28.5413 9.85067 29.8 9.328 31.144 9.328C32.4453 9.328 33.5653 9.82933 34.504 10.832C36.104 12.4747 37.0533 15.28 37.352 19.248C37.3947 19.9733 37.416 20.4213 37.416 20.592C37.416 21.1467 37.3413 21.552 37.192 21.808C37.064 22.064 36.8293 22.288 36.488 22.48C36.1893 22.6293 35.9013 22.704 35.624 22.704C35.1547 22.704 34.7387 22.4907 34.376 22.064C34.0987 21.7013 33.9173 21.0827 33.832 20.208C33.6613 18.2453 33.448 16.784 33.192 15.824C32.936 14.864 32.5733 14.1173 32.104 13.584C31.7413 13.2 31.368 13.008 30.984 13.008C30.2587 13.008 29.6187 13.5733 29.064 14.704C28.8507 15.152 28.712 15.568 28.648 15.952C28.584 16.336 28.5307 17.2107 28.488 18.576C28.4027 20.4533 28.296 21.5733 28.168 21.936C27.8693 22.64 27.3253 22.992 26.536 22.992C26.0667 22.992 25.672 22.832 25.352 22.512C24.84 22 24.52 20.4853 24.392 17.968C24.328 17.008 24.2107 16.08 24.04 15.184C23.8693 14.288 23.7093 13.7547 23.56 13.584C23.432 13.4347 23.2933 13.36 23.144 13.36C22.888 13.36 22.4613 13.6267 21.864 14.16C21.224 14.7573 20.744 15.3973 20.424 16.08C20.1253 16.6987 19.944 17.2 19.88 17.584C19.8373 17.9467 19.7947 19.1947 19.752 21.328C19.7307 21.8827 19.56 22.3307 19.24 22.672C18.92 23.0133 18.5147 23.184 18.024 23.184C17.5333 23.184 17.1387 23.088 16.84 22.896C16.4133 22.5973 16.1147 22.0213 15.944 21.168C15.7733 20.2933 15.5813 18.2347 15.368 14.992C15.24 13.072 15.0907 11.7707 14.92 11.088C14.792 10.576 14.728 10.2347 14.728 10.064C14.728 9.872 14.792 9.648 14.92 9.392C15.112 8.944 15.4 8.656 15.784 8.528ZM51.708 2.544C52.0707 2.18133 52.4973 2 52.988 2C53.6707 2 54.1933 2.30933 54.556 2.928C54.6413 3.09867 54.7587 5.72267 54.908 10.8C55.0787 15.8773 55.164 19.632 55.164 22.064C55.164 22.9387 55.1533 23.4187 55.132 23.504C55.068 23.8667 54.8867 24.1547 54.588 24.368C54.2893 24.56 53.9373 24.656 53.532 24.656C53.0413 24.656 52.604 24.496 52.22 24.176L51.676 23.696L51.548 20.656C51.4413 17.9467 51.356 14.512 51.292 10.352L51.164 3.056L51.708 2.544ZM63.435 3.824C64.1177 3.65333 64.7577 3.568 65.355 3.568C66.7203 3.568 67.979 3.89867 69.131 4.56C70.3043 5.22133 71.1683 6.10667 71.723 7.216C72.043 7.856 72.203 8.64533 72.203 9.584C72.203 10.1813 72.1603 10.6293 72.075 10.928C72.011 11.2267 71.8403 11.6853 71.563 12.304C71.1363 13.2 70.6137 14.0427 69.995 14.832C69.3763 15.6213 68.4483 16.6347 67.211 17.872C65.931 19.152 65.291 19.8773 65.291 20.048C65.291 20.112 66.475 20.1867 68.843 20.272C71.1683 20.3573 72.4483 20.4427 72.683 20.528C73.3443 20.784 73.675 21.3067 73.675 22.096C73.675 22.5653 73.515 22.9813 73.195 23.344L72.683 23.92H70.603C69.5363 23.92 67.403 23.856 64.203 23.728L59.819 23.536L59.339 22.96C58.9977 22.5547 58.827 22.096 58.827 21.584C58.827 21.3707 58.8803 21.136 58.987 20.88C59.115 20.6453 60.107 19.6853 61.963 18C66.4003 13.9253 68.619 11.1307 68.619 9.616C68.619 9.168 68.523 8.80533 68.331 8.528C68.1603 8.25067 67.819 7.96267 67.307 7.664C66.795 7.36533 66.1657 7.216 65.419 7.216C64.6723 7.216 63.9683 7.376 63.307 7.696C62.6457 8.016 62.2083 8.432 61.995 8.944C61.7177 9.584 61.1843 9.904 60.395 9.904C59.883 9.904 59.4563 9.73333 59.115 9.392C58.795 9.072 58.635 8.67733 58.635 8.208C58.635 7.39733 59.0937 6.56533 60.011 5.712C60.9497 4.83733 62.091 4.208 63.435 3.824ZM79.8513 20.176C80.1499 19.9413 80.4806 19.824 80.8433 19.824C81.2913 19.824 81.6646 19.9627 81.9633 20.24C82.3899 20.6027 82.6033 21.04 82.6033 21.552C82.6033 21.9573 82.5179 22.384 82.3473 22.832C82.2619 23.0667 81.9313 24.176 81.3553 26.16C80.9499 27.632 80.5659 28.5173 80.2033 28.816C79.8619 29.1147 79.4993 29.264 79.1153 29.264C78.7099 29.264 78.3366 29.1147 77.9953 28.816C77.5686 28.432 77.3553 28.0053 77.3553 27.536C77.3553 27.2373 77.4193 26.8747 77.5473 26.448C77.5899 26.2987 77.6859 25.9147 77.8353 25.296C78.0059 24.656 78.1339 24.1653 78.2193 23.824C78.7313 21.8187 79.2753 20.6027 79.8513 20.176ZM96.958 2.544C97.3207 2.18133 97.7473 2 98.238 2C98.9207 2 99.4433 2.30933 99.806 2.928C99.8913 3.09867 100.009 5.72267 100.158 10.8C100.329 15.8773 100.414 19.632 100.414 22.064C100.414 22.9387 100.403 23.4187 100.382 23.504C100.318 23.8667 100.137 24.1547 99.838 24.368C99.5393 24.56 99.1873 24.656 98.782 24.656C98.2913 24.656 97.854 24.496 97.47 24.176L96.926 23.696L96.798 20.656C96.6913 17.9467 96.606 14.512 96.542 10.352L96.414 3.056L96.958 2.544ZM108.557 3.248C109.026 3.01333 109.4 2.864 109.677 2.8C109.976 2.736 110.466 2.704 111.149 2.704C112.28 2.704 113.058 2.84267 113.485 3.12C113.912 3.376 114.125 3.856 114.125 4.56C114.125 5.02933 113.965 5.424 113.645 5.744C113.432 5.95733 113.229 6.096 113.037 6.16C112.845 6.20267 112.45 6.224 111.853 6.224C110.957 6.224 110.274 6.37333 109.805 6.672C109.229 7.01333 108.728 7.54667 108.301 8.272C107.874 8.99733 107.661 9.66933 107.661 10.288V10.512C107.704 10.9173 107.917 11.2373 108.301 11.472C108.706 11.7067 109.208 11.824 109.805 11.824C110.317 11.824 110.85 11.728 111.405 11.536C111.81 11.408 112.29 11.184 112.845 10.864C113.421 10.5227 113.752 10.2773 113.837 10.128C113.88 10.064 113.944 9.31733 114.029 7.888C114.093 6.88533 114.157 6.26667 114.221 6.032C114.285 5.776 114.434 5.53067 114.669 5.296C115.01 4.95467 115.416 4.784 115.885 4.784C116.589 4.784 117.144 5.15733 117.549 5.904C117.741 6.24533 117.837 7.06667 117.837 8.368C117.837 9.072 117.784 11.5573 117.677 15.824L117.517 22.224L116.941 22.736C116.536 23.0773 116.141 23.248 115.757 23.248C115.394 23.248 115.01 23.0773 114.605 22.736L114.029 22.224L113.965 18.352C113.922 15.7707 113.89 14.48 113.869 14.48C113.826 14.48 113.432 14.6293 112.685 14.928C111.938 15.248 111.01 15.408 109.901 15.408H109.357C108.589 15.408 107.842 15.248 107.117 14.928C106.413 14.608 105.794 14.1707 105.261 13.616C104.749 13.04 104.397 12.432 104.205 11.792C104.034 11.1733 103.949 10.6933 103.949 10.352C103.949 10.032 104.034 9.50933 104.205 8.784C104.504 7.632 105.048 6.544 105.837 5.52C106.648 4.496 107.554 3.73867 108.557 3.248ZM123.851 20.176C124.15 19.9413 124.481 19.824 124.843 19.824C125.291 19.824 125.665 19.9627 125.963 20.24C126.39 20.6027 126.603 21.04 126.603 21.552C126.603 21.9573 126.518 22.384 126.347 22.832C126.262 23.0667 125.931 24.176 125.355 26.16C124.95 27.632 124.566 28.5173 124.203 28.816C123.862 29.1147 123.499 29.264 123.115 29.264C122.71 29.264 122.337 29.1147 121.995 28.816C121.569 28.432 121.355 28.0053 121.355 27.536C121.355 27.2373 121.419 26.8747 121.547 26.448C121.59 26.2987 121.686 25.9147 121.835 25.296C122.006 24.656 122.134 24.1653 122.219 23.824C122.731 21.8187 123.275 20.6027 123.851 20.176ZM153.864 13.232C153.245 12.6133 152.285 12.304 150.984 12.304C150.344 12.304 149.779 12.4107 149.288 12.624C148.819 12.8373 148.307 13.2533 147.752 13.872C147.197 14.4907 146.835 15.056 146.664 15.568C146.472 16.1227 146.376 16.6453 146.376 17.136C146.376 18.2667 146.824 19.0667 147.72 19.536C148.253 19.8133 148.947 19.952 149.8 19.952C150.376 19.952 150.813 19.8773 151.112 19.728C152.84 18.8533 153.896 17.2853 154.28 15.024L154.472 13.808L153.864 13.232ZM149 8.88C149.512 8.73067 150.109 8.656 150.792 8.656C151.944 8.656 153.075 8.85867 154.184 9.264C155.293 9.66933 156.061 10.1813 156.488 10.8C156.787 11.2267 157.171 11.6747 157.64 12.144C158.152 12.6773 158.621 13.5947 159.048 14.896C159.453 16.1333 159.827 17.5093 160.168 19.024C160.531 20.5387 160.712 21.5627 160.712 22.096C160.712 22.6293 160.552 23.0453 160.232 23.344C159.827 23.728 159.443 23.92 159.08 23.92C158.931 23.92 158.739 23.888 158.504 23.824C158.099 23.6747 157.779 23.4187 157.544 23.056C157.331 22.6933 157.139 22.1067 156.968 21.296C156.755 20.336 156.637 19.856 156.616 19.856C156.531 19.856 156.083 20.2613 155.272 21.072C153.672 22.6293 152.008 23.472 150.28 23.6H149.832C148.787 23.6 147.763 23.4187 146.76 23.056C145.779 22.6933 145 22.2133 144.424 21.616C144.125 21.3173 143.827 20.8693 143.528 20.272C143.229 19.6533 143.027 19.088 142.92 18.576C142.813 18.0427 142.76 17.5627 142.76 17.136C142.76 15.3653 143.357 13.6693 144.552 12.048C145.768 10.4267 147.251 9.37067 149 8.88ZM165.123 9.072C165.379 8.944 165.646 8.88 165.923 8.88C166.307 8.88 166.67 9.008 167.011 9.264C167.353 9.49867 167.587 9.81867 167.715 10.224L167.907 10.896L168.707 10.416C169.241 10.096 169.977 9.936 170.915 9.936C171.833 9.936 172.59 10.0853 173.187 10.384C173.678 10.6187 174.201 11.0027 174.755 11.536C175.331 12.0693 175.79 12.6027 176.131 13.136C177.283 14.9493 177.913 17.7653 178.019 21.584V22.224C178.019 22.736 177.87 23.152 177.571 23.472C177.209 23.8347 176.782 24.016 176.291 24.016C175.502 24.016 174.979 23.6747 174.723 22.992C174.595 22.6293 174.489 21.9147 174.403 20.848C174.147 17.1147 173.315 14.7787 171.907 13.84C171.609 13.648 171.31 13.552 171.011 13.552C170.457 13.552 169.955 13.8613 169.507 14.48C169.081 15.0773 168.739 15.9307 168.483 17.04C168.377 17.5307 168.249 18.416 168.099 19.696C167.95 20.976 167.875 21.84 167.875 22.288C167.875 22.5013 167.694 22.7893 167.331 23.152C166.969 23.4933 166.553 23.664 166.083 23.664C165.209 23.664 164.633 23.2053 164.355 22.288C164.227 21.84 164.163 19.8987 164.163 16.464C164.163 12.368 164.238 10.1387 164.387 9.776C164.515 9.49867 164.761 9.264 165.123 9.072ZM189.605 13.872C189.413 13.6373 189.082 13.52 188.613 13.52C188.229 13.52 187.845 13.616 187.461 13.808C186.885 14.0853 186.341 14.672 185.829 15.568C185.317 16.464 185.061 17.2533 185.061 17.936C185.061 18.1493 185.093 18.3307 185.157 18.48C185.306 18.8213 185.669 19.1413 186.245 19.44C186.821 19.7173 187.365 19.856 187.877 19.856C187.983 19.856 188.143 19.8347 188.357 19.792C188.847 19.6427 189.338 19.2373 189.829 18.576C190.341 17.8933 190.735 17.0933 191.013 16.176C191.183 15.6213 191.269 15.248 191.269 15.056C191.269 14.7573 191.045 14.544 190.597 14.416C190.085 14.224 189.754 14.0427 189.605 13.872ZM192.197 2.704C192.389 2.61867 192.613 2.576 192.869 2.576C193.679 2.576 194.223 2.928 194.501 3.632C194.629 3.952 194.831 5.24267 195.109 7.504C195.365 9.872 195.514 11.2053 195.557 11.504C196.431 17.84 196.869 21.4667 196.869 22.384C196.869 22.8107 196.687 23.184 196.325 23.504C195.983 23.824 195.589 23.984 195.141 23.984C194.522 23.984 194.042 23.76 193.701 23.312C193.359 22.8427 193.189 22.2133 193.189 21.424C193.189 21.0827 193.146 20.8693 193.061 20.784H193.029C192.901 20.784 192.506 21.0933 191.845 21.712C191.141 22.416 190.458 22.8853 189.797 23.12C189.199 23.3547 188.517 23.472 187.749 23.472C186.618 23.472 185.53 23.1947 184.485 22.64C183.439 22.064 182.629 21.3067 182.053 20.368C181.839 20.0053 181.701 19.696 181.637 19.44C181.594 19.1627 181.573 18.64 181.573 17.872C181.594 16.8907 181.711 16.0693 181.924 15.408C182.138 14.7467 182.533 13.9787 183.109 13.104C183.514 12.4853 184.09 11.888 184.837 11.312C185.583 10.736 186.234 10.3627 186.789 10.192C187.343 10.0427 187.93 9.968 188.549 9.968C189.317 9.968 189.989 10.064 190.565 10.256C191.183 10.448 191.514 10.544 191.557 10.544C191.599 10.544 191.621 10.416 191.621 10.16C191.621 9.456 191.535 8.57067 191.365 7.504C191.215 6.62933 191.141 5.84 191.141 5.136C191.141 3.81333 191.493 3.00267 192.197 2.704ZM214.435 3.824C215.118 3.65333 215.758 3.568 216.355 3.568C217.72 3.568 218.979 3.89867 220.131 4.56C221.304 5.22133 222.168 6.10667 222.723 7.216C223.043 7.856 223.203 8.64533 223.203 9.584C223.203 10.1813 223.16 10.6293 223.075 10.928C223.011 11.2267 222.84 11.6853 222.563 12.304C222.136 13.2 221.614 14.0427 220.995 14.832C220.376 15.6213 219.448 16.6347 218.211 17.872C216.931 19.152 216.291 19.8773 216.291 20.048C216.291 20.112 217.475 20.1867 219.843 20.272C222.168 20.3573 223.448 20.4427 223.683 20.528C224.344 20.784 224.675 21.3067 224.675 22.096C224.675 22.5653 224.515 22.9813 224.195 23.344L223.683 23.92H221.603C220.536 23.92 218.403 23.856 215.203 23.728L210.819 23.536L210.339 22.96C209.998 22.5547 209.827 22.096 209.827 21.584C209.827 21.3707 209.88 21.136 209.987 20.88C210.115 20.6453 211.107 19.6853 212.963 18C217.4 13.9253 219.619 11.1307 219.619 9.616C219.619 9.168 219.523 8.80533 219.331 8.528C219.16 8.25067 218.819 7.96267 218.307 7.664C217.795 7.36533 217.166 7.216 216.419 7.216C215.672 7.216 214.968 7.376 214.307 7.696C213.646 8.016 213.208 8.432 212.995 8.944C212.718 9.584 212.184 9.904 211.395 9.904C210.883 9.904 210.456 9.73333 210.115 9.392C209.795 9.072 209.635 8.67733 209.635 8.208C209.635 7.39733 210.094 6.56533 211.011 5.712C211.95 4.83733 213.091 4.208 214.435 3.824ZM237.219 3.952C238.137 3.84533 239.054 3.792 239.971 3.792H240.387C240.942 3.792 241.401 3.94133 241.763 4.24C242.211 4.624 242.435 5.072 242.435 5.584C242.435 5.84 242.371 6.096 242.243 6.352C242.03 6.71467 241.827 6.96 241.635 7.088C241.507 7.17333 240.451 7.29067 238.467 7.44C237.998 7.46133 237.497 7.49333 236.963 7.536C236.43 7.57867 235.939 7.62133 235.491 7.664C235.065 7.70667 234.83 7.728 234.787 7.728L234.051 7.824L234.115 9.584L234.147 11.344L236.163 11.376C237.059 11.3973 237.678 11.44 238.019 11.504C238.361 11.5467 238.766 11.6853 239.235 11.92C241.113 12.8373 242.254 14.3733 242.659 16.528C242.745 16.8693 242.787 17.2533 242.787 17.68C242.787 19.344 242.147 20.688 240.867 21.712C239.31 22.9707 237.497 23.6 235.427 23.6C234.617 23.6 233.795 23.504 232.963 23.312C231.598 23.0133 230.489 22.5547 229.635 21.936C228.782 21.296 228.355 20.6453 228.355 19.984C228.355 19.8133 228.387 19.6427 228.451 19.472C228.75 18.7253 229.262 18.352 229.987 18.352C230.499 18.352 231.022 18.5227 231.555 18.864C232.643 19.568 233.913 19.92 235.363 19.92C236.238 19.92 237.006 19.7707 237.667 19.472C238.222 19.216 238.606 18.9493 238.819 18.672C239.033 18.3947 239.139 18.032 239.139 17.584C239.139 16.752 238.862 16.0907 238.307 15.6C237.753 15.1093 237.027 14.864 236.131 14.864C235.619 14.864 235.107 14.9387 234.595 15.088C233.635 15.344 232.931 15.472 232.483 15.472C232.057 15.472 231.683 15.376 231.363 15.184C230.979 14.9493 230.723 14.672 230.595 14.352C230.467 14.0107 230.403 13.3707 230.403 12.432C230.403 12.176 230.425 11.3227 230.467 9.872C230.531 7.86667 230.585 6.68267 230.627 6.32C230.67 5.936 230.809 5.584 231.043 5.264C231.363 4.816 231.726 4.51733 232.131 4.368C232.558 4.21867 233.241 4.13333 234.179 4.112C235.459 4.06933 236.473 4.016 237.219 3.952ZM268.164 13.68C268.057 13.3387 267.961 13.1467 267.876 13.104C267.79 13.04 267.556 13.008 267.172 13.008C266.062 13.0293 265.028 13.552 264.068 14.576C263.108 15.5787 262.628 16.592 262.628 17.616C262.628 18.128 262.766 18.5547 263.044 18.896C263.662 19.5787 264.313 19.92 264.996 19.92C265.038 19.92 265.081 19.92 265.124 19.92C265.166 19.8987 265.209 19.888 265.252 19.888C265.636 19.8027 266.041 19.5467 266.468 19.12C266.916 18.6933 267.257 18.224 267.492 17.712C267.982 16.56 268.228 15.44 268.228 14.352C268.228 14.032 268.206 13.808 268.164 13.68ZM265.188 9.648C265.764 9.456 266.425 9.36 267.172 9.36C268.153 9.36 268.985 9.52 269.668 9.84C270.116 10.0747 270.521 10.4267 270.884 10.896C271.268 11.344 271.502 11.7707 271.588 12.176C271.673 12.5813 271.79 12.9653 271.94 13.328C272.174 13.9467 272.644 16.272 273.347 20.304C273.454 20.944 273.508 21.424 273.508 21.744C273.508 23.024 272.91 23.664 271.716 23.664C271.31 23.664 270.937 23.504 270.596 23.184C270.276 22.864 270.073 22.4693 269.988 22C269.902 21.5733 269.828 21.328 269.764 21.264C269.678 21.2 269.433 21.3707 269.028 21.776C267.812 22.992 266.414 23.6 264.836 23.6C264.558 23.6 264.27 23.568 263.972 23.504C262.798 23.248 261.7 22.608 260.676 21.584C259.524 20.432 258.948 19.1413 258.948 17.712C258.948 16.5813 259.3 15.3547 260.004 14.032C260.537 13.0293 261.262 12.1333 262.18 11.344C263.118 10.5547 264.121 9.98933 265.188 9.648ZM278.481 2.864C278.759 2.75733 279.004 2.704 279.217 2.704C279.537 2.704 279.857 2.8 280.177 2.992C280.497 3.20533 280.711 3.44 280.817 3.696C280.945 3.952 281.009 4.44267 281.009 5.168C281.009 6 280.967 7.056 280.881 8.336C280.732 10.96 280.636 14.0533 280.593 17.616C280.593 21.0933 280.519 22.9707 280.369 23.248C280.263 23.4613 280.039 23.6747 279.697 23.888C279.377 24.08 279.1 24.176 278.865 24.176C278.609 24.176 278.321 24.0693 278.001 23.856C277.681 23.6427 277.457 23.408 277.329 23.152C277.073 22.64 276.945 20.9227 276.945 18C276.945 15.056 277.073 11.1733 277.329 6.352C277.393 5.09333 277.5 4.24 277.649 3.792C277.799 3.344 278.076 3.03467 278.481 2.864ZM285.023 1.424C285.364 1.08267 285.769 0.911999 286.239 0.911999C286.687 0.911999 287.081 1.08267 287.423 1.424C287.764 1.76533 287.977 2.32 288.063 3.088C288.084 3.30133 288.095 4.58133 288.095 6.928C288.095 17.8933 288.02 23.6 287.871 24.048C287.785 24.304 287.593 24.5067 287.295 24.656C286.996 24.8053 286.665 24.88 286.303 24.88C285.876 24.88 285.535 24.7947 285.279 24.624C284.895 24.368 284.649 23.9947 284.543 23.504C284.457 22.992 284.415 21.6267 284.415 19.408C284.415 16.8267 284.425 14.5333 284.447 12.528L284.543 1.904L285.023 1.424ZM313.351 13.68C313.244 13.3387 313.148 13.1467 313.063 13.104C312.978 13.04 312.743 13.008 312.359 13.008C311.25 13.0293 310.215 13.552 309.255 14.576C308.295 15.5787 307.815 16.592 307.815 17.616C307.815 18.128 307.954 18.5547 308.231 18.896C308.85 19.5787 309.5 19.92 310.183 19.92C310.226 19.92 310.268 19.92 310.311 19.92C310.354 19.8987 310.396 19.888 310.439 19.888C310.823 19.8027 311.228 19.5467 311.655 19.12C312.103 18.6933 312.444 18.224 312.679 17.712C313.17 16.56 313.415 15.44 313.415 14.352C313.415 14.032 313.394 13.808 313.351 13.68ZM310.375 9.648C310.951 9.456 311.612 9.36 312.359 9.36C313.34 9.36 314.172 9.52 314.855 9.84C315.303 10.0747 315.708 10.4267 316.071 10.896C316.455 11.344 316.69 11.7707 316.775 12.176C316.86 12.5813 316.978 12.9653 317.127 13.328C317.362 13.9467 317.831 16.272 318.535 20.304C318.642 20.944 318.695 21.424 318.695 21.744C318.695 23.024 318.098 23.664 316.903 23.664C316.498 23.664 316.124 23.504 315.783 23.184C315.463 22.864 315.26 22.4693 315.175 22C315.09 21.5733 315.015 21.328 314.951 21.264C314.866 21.2 314.62 21.3707 314.215 21.776C312.999 22.992 311.602 23.6 310.023 23.6C309.746 23.6 309.458 23.568 309.159 23.504C307.986 23.248 306.887 22.608 305.863 21.584C304.711 20.432 304.135 19.1413 304.135 17.712C304.135 16.5813 304.487 15.3547 305.191 14.032C305.724 13.0293 306.45 12.1333 307.367 11.344C308.306 10.5547 309.308 9.98933 310.375 9.648ZM327.157 1.52C327.519 1.15733 327.957 0.975998 328.469 0.975998C328.853 0.975998 329.194 1.09333 329.493 1.328C329.813 1.54133 330.037 1.85067 330.165 2.256C330.229 2.49067 330.335 3.6 330.485 5.584C330.634 7.54667 330.709 8.912 330.709 9.68C330.709 9.872 330.751 9.98933 330.837 10.032C330.943 10.0747 331.189 10.096 331.573 10.096C332.149 10.096 332.479 10.032 332.565 9.904C332.607 9.79733 333.045 9.744 333.877 9.744C334.943 9.744 335.647 9.81867 335.989 9.968C336.309 10.1173 336.554 10.4053 336.725 10.832C336.874 11.1307 336.949 11.376 336.949 11.568C336.949 11.7173 336.917 11.8987 336.853 12.112C336.703 12.6027 336.426 12.9333 336.021 13.104C335.637 13.2533 334.869 13.36 333.717 13.424C332.415 13.488 331.573 13.5733 331.189 13.68L330.677 13.808L330.805 18.32C330.847 20.3253 330.869 21.4027 330.869 21.552C330.869 22.4907 330.794 23.12 330.645 23.44C330.325 24.1227 329.802 24.464 329.077 24.464C328.799 24.464 328.511 24.4 328.213 24.272C327.978 24.1653 327.807 24.0693 327.701 23.984C327.594 23.8773 327.498 23.6107 327.413 23.184C327.327 22.736 327.274 22.2133 327.253 21.616C327.231 21.0187 327.21 20.0373 327.189 18.672L327.125 14.032L326.165 14.064C325.589 14.1067 325.077 14.192 324.629 14.32C324.522 14.3627 324.351 14.384 324.117 14.384C323.391 14.384 322.869 14.16 322.549 13.712C322.378 13.4347 322.293 13.0613 322.293 12.592C322.293 12.1867 322.357 11.8667 322.485 11.632C322.783 11.0987 323.829 10.6933 325.621 10.416L327.093 10.192L326.965 7.376C326.879 5.37067 326.805 4.00533 326.741 3.28C326.698 2.768 326.677 2.49067 326.677 2.448C326.677 2.14933 326.837 1.84 327.157 1.52ZM359.813 12.816C359.408 12.7093 358.746 12.6133 357.829 12.528C357.232 12.4853 356.912 12.464 356.869 12.464C356.57 12.464 356.272 12.624 355.973 12.944C355.12 13.8187 354.661 15.0027 354.597 16.496C354.597 16.5813 354.586 16.6987 354.565 16.848C354.565 16.976 354.565 17.072 354.565 17.136C354.565 17.6267 354.693 18.0853 354.949 18.512C355.632 19.728 356.837 20.336 358.565 20.336C359.29 20.3147 360.026 20.0693 360.773 19.6C361.541 19.1093 362.096 18.5227 362.437 17.84C362.629 17.4347 362.725 16.9973 362.725 16.528C362.725 15.7387 362.448 14.992 361.893 14.288C361.36 13.5627 360.666 13.072 359.813 12.816ZM354.949 9.232C355.44 8.95467 355.93 8.816 356.421 8.816C356.528 8.816 356.922 8.83733 357.605 8.88C359.632 8.98667 361.264 9.41333 362.501 10.16C363.738 10.9067 364.73 12.0587 365.477 13.616C366.053 14.8107 366.341 15.952 366.341 17.04C366.341 17.3813 366.309 17.68 366.245 17.936C365.904 19.2587 365.157 20.464 364.005 21.552C362.853 22.64 361.584 23.3653 360.197 23.728C359.472 23.8987 358.896 23.984 358.469 23.984C358.042 23.984 357.466 23.8987 356.741 23.728C354.544 23.152 352.965 22.1067 352.005 20.592C351.258 19.4187 350.885 18.1813 350.885 16.88C350.885 15.5787 351.237 14.192 351.941 12.72C352.752 10.992 353.754 9.82933 354.949 9.232ZM370.27 8.112C370.611 7.74933 371.048 7.568 371.582 7.568C371.944 7.568 372.264 7.664 372.542 7.856C372.776 8.02667 372.979 8.304 373.15 8.688C373.342 9.072 373.438 9.424 373.438 9.744C373.438 10.0853 373.523 10.256 373.694 10.256C373.886 10.256 374.195 10.1173 374.622 9.84C375.048 9.584 375.614 9.34933 376.318 9.136C377.022 8.92267 377.587 8.816 378.014 8.816C378.44 8.816 378.963 8.95467 379.582 9.232C380.222 9.50933 380.723 9.81867 381.086 10.16C381.854 10.9067 382.398 11.952 382.718 13.296C383.059 14.64 383.23 16.5067 383.23 18.896C383.23 20.5813 383.176 21.6907 383.07 22.224C382.963 22.736 382.718 23.0987 382.334 23.312C382.078 23.44 381.768 23.504 381.406 23.504C381.022 23.504 380.702 23.44 380.446 23.312C380.083 23.12 379.848 22.768 379.742 22.256C379.656 21.7227 379.592 20.4427 379.55 18.416C379.507 16.3893 379.422 15.056 379.294 14.416C379.166 13.7547 378.899 13.2213 378.494 12.816C378.28 12.6027 378.014 12.496 377.694 12.496C377.16 12.496 376.584 12.7627 375.966 13.296C375.368 13.808 374.878 14.4693 374.494 15.28C374.302 15.6853 374.184 16.0693 374.142 16.432C374.099 16.7947 374.056 17.6267 374.014 18.928C373.971 20.72 373.886 21.7867 373.758 22.128C373.459 22.9173 372.883 23.312 372.03 23.312C371.326 23.312 370.792 23.0027 370.43 22.384C370.323 22.1493 370.216 20.1547 370.11 16.4C369.982 12.368 369.896 10.1387 369.854 9.712C369.811 9.28533 369.79 9.05067 369.79 9.008C369.79 8.73067 369.95 8.432 370.27 8.112ZM390.793 9.392C391.134 9.264 391.667 9.2 392.393 9.2C392.777 9.2 393.086 9.21067 393.321 9.232C394.174 9.25333 394.761 9.30667 395.081 9.392C395.401 9.456 395.827 9.616 396.361 9.872C397.875 10.64 398.633 11.568 398.633 12.656C398.633 12.8907 398.558 13.1787 398.409 13.52C398.089 14.1387 397.598 14.448 396.937 14.448C396.339 14.448 395.795 14.1707 395.305 13.616C395.07 13.36 394.857 13.1893 394.665 13.104C394.473 12.9973 394.163 12.912 393.737 12.848C393.31 12.8053 393.022 12.784 392.873 12.784C392.126 12.784 391.582 13.0187 391.241 13.488C390.643 14.3627 390.345 15.312 390.345 16.336C390.345 17.4453 390.686 18.3947 391.369 19.184C392.051 19.952 392.947 20.336 394.057 20.336C394.483 20.336 395.081 20.2293 395.849 20.016C396.617 19.7813 397.129 19.568 397.385 19.376C397.598 19.2053 397.971 19.12 398.505 19.12C399.017 19.12 399.433 19.28 399.753 19.6C400.094 19.92 400.265 20.3253 400.265 20.816C400.265 21.264 400.158 21.6267 399.945 21.904C399.731 22.1813 399.326 22.4693 398.729 22.768C397.193 23.536 395.657 23.92 394.121 23.92C391.582 23.92 389.651 23.0133 388.329 21.2C387.262 19.7493 386.729 18.16 386.729 16.432C386.729 15.3653 386.942 14.2453 387.369 13.072C387.689 12.24 388.158 11.4827 388.777 10.8C389.417 10.1173 390.089 9.648 390.793 9.392ZM413.742 13.808C413.358 13.616 412.814 13.52 412.11 13.52C411.342 13.52 410.691 13.6373 410.158 13.872C409.795 14.0213 409.326 14.352 408.75 14.864C408.174 15.3547 407.886 15.6747 407.886 15.824C407.886 15.888 408.216 15.92 408.878 15.92C409.859 15.92 411.032 15.8667 412.398 15.76C413.763 15.6533 414.542 15.536 414.734 15.408C414.798 15.3867 414.83 15.3227 414.83 15.216C414.83 15.024 414.712 14.7787 414.478 14.48C414.243 14.16 413.998 13.936 413.742 13.808ZM409.966 10.096C410.499 9.94667 411.128 9.872 411.854 9.872C413.198 9.872 414.424 10.1387 415.534 10.672C416.366 11.0987 417.059 11.7493 417.614 12.624C418.168 13.4773 418.51 14.4373 418.638 15.504C418.638 15.5467 418.638 15.6107 418.638 15.696C418.659 15.7813 418.67 15.8453 418.67 15.888C418.67 16.4427 418.563 16.9867 418.35 17.52C418.158 18.0533 417.923 18.416 417.646 18.608C417.283 18.864 414.734 19.184 409.998 19.568C408.995 19.6533 408.494 19.7493 408.494 19.856C408.494 19.984 408.718 20.1867 409.166 20.464C409.614 20.7413 410.051 20.9333 410.478 21.04C410.862 21.1253 411.171 21.168 411.406 21.168C412.088 21.168 412.974 20.944 414.062 20.496C414.83 20.176 415.395 20.016 415.758 20.016C416.12 20.016 416.462 20.176 416.782 20.496C417.208 20.9227 417.422 21.328 417.422 21.712C417.422 21.968 417.358 22.2347 417.23 22.512C417.123 22.768 416.974 22.9707 416.782 23.12C416.611 23.2693 416.291 23.4507 415.822 23.664C414.264 24.3467 412.814 24.688 411.47 24.688C410.702 24.688 409.912 24.5707 409.102 24.336C408.014 23.9947 407.022 23.4187 406.126 22.608C405.23 21.776 404.59 20.8587 404.206 19.856C403.971 19.1947 403.854 18.4587 403.854 17.648C403.854 16.4747 404.046 15.4933 404.43 14.704C404.878 13.7227 405.635 12.784 406.702 11.888C407.768 10.992 408.856 10.3947 409.966 10.096ZM421.686 19.184V15.6H435.126V19.184H421.686ZM438.742 4.272C439.084 3.952 439.404 3.792 439.702 3.792C439.873 3.792 440.022 3.80267 440.15 3.824C440.726 3.888 441.132 4.08 441.366 4.4L441.782 4.88L441.718 13.264C441.697 18.7893 441.601 21.7653 441.43 22.192C441.153 22.832 440.62 23.152 439.83 23.152C439.574 23.152 439.382 23.1307 439.254 23.088C438.934 22.9813 438.721 22.9067 438.614 22.864C438.529 22.8 438.422 22.608 438.294 22.288C438.188 21.9467 438.124 21.4773 438.102 20.88C438.081 20.2827 438.07 19.3653 438.07 18.128C438.07 17.7867 438.07 17.0933 438.07 16.048C438.092 15.0027 438.102 14.128 438.102 13.424L438.134 4.784L438.742 4.272ZM466.73 13.872C466.538 13.6373 466.207 13.52 465.738 13.52C465.354 13.52 464.97 13.616 464.586 13.808C464.01 14.0853 463.466 14.672 462.954 15.568C462.442 16.464 462.186 17.2533 462.186 17.936C462.186 18.1493 462.218 18.3307 462.282 18.48C462.431 18.8213 462.794 19.1413 463.37 19.44C463.946 19.7173 464.49 19.856 465.002 19.856C465.108 19.856 465.268 19.8347 465.482 19.792C465.972 19.6427 466.463 19.2373 466.954 18.576C467.466 17.8933 467.86 17.0933 468.138 16.176C468.308 15.6213 468.394 15.248 468.394 15.056C468.394 14.7573 468.17 14.544 467.722 14.416C467.21 14.224 466.879 14.0427 466.73 13.872ZM469.322 2.704C469.514 2.61867 469.738 2.576 469.994 2.576C470.804 2.576 471.348 2.928 471.626 3.632C471.754 3.952 471.956 5.24267 472.234 7.504C472.49 9.872 472.639 11.2053 472.682 11.504C473.556 17.84 473.994 21.4667 473.994 22.384C473.994 22.8107 473.812 23.184 473.45 23.504C473.108 23.824 472.714 23.984 472.266 23.984C471.647 23.984 471.167 23.76 470.826 23.312C470.484 22.8427 470.314 22.2133 470.314 21.424C470.314 21.0827 470.271 20.8693 470.186 20.784H470.154C470.026 20.784 469.631 21.0933 468.97 21.712C468.266 22.416 467.583 22.8853 466.922 23.12C466.324 23.3547 465.642 23.472 464.874 23.472C463.743 23.472 462.655 23.1947 461.61 22.64C460.564 22.064 459.754 21.3067 459.178 20.368C458.964 20.0053 458.826 19.696 458.762 19.44C458.719 19.1627 458.698 18.64 458.698 17.872C458.719 16.8907 458.836 16.0693 459.049 15.408C459.263 14.7467 459.658 13.9787 460.234 13.104C460.639 12.4853 461.215 11.888 461.962 11.312C462.708 10.736 463.359 10.3627 463.914 10.192C464.468 10.0427 465.055 9.968 465.674 9.968C466.442 9.968 467.114 10.064 467.69 10.256C468.308 10.448 468.639 10.544 468.682 10.544C468.724 10.544 468.746 10.416 468.746 10.16C468.746 9.456 468.66 8.57067 468.49 7.504C468.34 6.62933 468.266 5.84 468.266 5.136C468.266 3.81333 468.618 3.00267 469.322 2.704ZM486.438 12.816C486.033 12.7093 485.371 12.6133 484.454 12.528C483.857 12.4853 483.537 12.464 483.494 12.464C483.195 12.464 482.897 12.624 482.598 12.944C481.745 13.8187 481.286 15.0027 481.222 16.496C481.222 16.5813 481.211 16.6987 481.19 16.848C481.19 16.976 481.19 17.072 481.19 17.136C481.19 17.6267 481.318 18.0853 481.574 18.512C482.257 19.728 483.462 20.336 485.19 20.336C485.915 20.3147 486.651 20.0693 487.398 19.6C488.166 19.1093 488.721 18.5227 489.062 17.84C489.254 17.4347 489.35 16.9973 489.35 16.528C489.35 15.7387 489.073 14.992 488.518 14.288C487.985 13.5627 487.291 13.072 486.438 12.816ZM481.574 9.232C482.065 8.95467 482.555 8.816 483.046 8.816C483.153 8.816 483.547 8.83733 484.23 8.88C486.257 8.98667 487.889 9.41333 489.126 10.16C490.363 10.9067 491.355 12.0587 492.102 13.616C492.678 14.8107 492.966 15.952 492.966 17.04C492.966 17.3813 492.934 17.68 492.87 17.936C492.529 19.2587 491.782 20.464 490.63 21.552C489.478 22.64 488.209 23.3653 486.822 23.728C486.097 23.8987 485.521 23.984 485.094 23.984C484.667 23.984 484.091 23.8987 483.366 23.728C481.169 23.152 479.59 22.1067 478.63 20.592C477.883 19.4187 477.51 18.1813 477.51 16.88C477.51 15.5787 477.862 14.192 478.566 12.72C479.377 10.992 480.379 9.82933 481.574 9.232ZM496.895 8.112C497.236 7.74933 497.673 7.568 498.207 7.568C498.569 7.568 498.889 7.664 499.167 7.856C499.401 8.02667 499.604 8.304 499.775 8.688C499.967 9.072 500.063 9.424 500.063 9.744C500.063 10.0853 500.148 10.256 500.319 10.256C500.511 10.256 500.82 10.1173 501.247 9.84C501.673 9.584 502.239 9.34933 502.943 9.136C503.647 8.92267 504.212 8.816 504.639 8.816C505.065 8.816 505.588 8.95467 506.207 9.232C506.847 9.50933 507.348 9.81867 507.711 10.16C508.479 10.9067 509.023 11.952 509.343 13.296C509.684 14.64 509.855 16.5067 509.855 18.896C509.855 20.5813 509.801 21.6907 509.695 22.224C509.588 22.736 509.343 23.0987 508.959 23.312C508.703 23.44 508.393 23.504 508.031 23.504C507.647 23.504 507.327 23.44 507.071 23.312C506.708 23.12 506.473 22.768 506.367 22.256C506.281 21.7227 506.217 20.4427 506.175 18.416C506.132 16.3893 506.047 15.056 505.919 14.416C505.791 13.7547 505.524 13.2213 505.119 12.816C504.905 12.6027 504.639 12.496 504.319 12.496C503.785 12.496 503.209 12.7627 502.591 13.296C501.993 13.808 501.503 14.4693 501.119 15.28C500.927 15.6853 500.809 16.0693 500.767 16.432C500.724 16.7947 500.681 17.6267 500.639 18.928C500.596 20.72 500.511 21.7867 500.383 22.128C500.084 22.9173 499.508 23.312 498.655 23.312C497.951 23.312 497.417 23.0027 497.055 22.384C496.948 22.1493 496.841 20.1547 496.735 16.4C496.607 12.368 496.521 10.1387 496.479 9.712C496.436 9.28533 496.415 9.05067 496.415 9.008C496.415 8.73067 496.575 8.432 496.895 8.112ZM518.154 3.504C517.876 4.63467 517.482 5.872 516.97 7.216C516.458 8.56 515.935 9.81867 515.402 10.992H511.978C512.276 9.73333 512.575 8.38933 512.874 6.96C513.172 5.53067 513.396 4.26133 513.546 3.152H517.93L518.154 3.504ZM525.219 1.52C525.582 1.15733 526.019 0.975998 526.531 0.975998C526.915 0.975998 527.257 1.09333 527.555 1.328C527.875 1.54133 528.099 1.85067 528.227 2.256C528.291 2.49067 528.398 3.6 528.547 5.584C528.697 7.54667 528.771 8.912 528.771 9.68C528.771 9.872 528.814 9.98933 528.899 10.032C529.006 10.0747 529.251 10.096 529.635 10.096C530.211 10.096 530.542 10.032 530.627 9.904C530.67 9.79733 531.107 9.744 531.939 9.744C533.006 9.744 533.71 9.81867 534.051 9.968C534.371 10.1173 534.617 10.4053 534.787 10.832C534.937 11.1307 535.011 11.376 535.011 11.568C535.011 11.7173 534.979 11.8987 534.915 12.112C534.766 12.6027 534.489 12.9333 534.083 13.104C533.699 13.2533 532.931 13.36 531.779 13.424C530.478 13.488 529.635 13.5733 529.251 13.68L528.739 13.808L528.867 18.32C528.91 20.3253 528.931 21.4027 528.931 21.552C528.931 22.4907 528.857 23.12 528.707 23.44C528.387 24.1227 527.865 24.464 527.139 24.464C526.862 24.464 526.574 24.4 526.275 24.272C526.041 24.1653 525.87 24.0693 525.763 23.984C525.657 23.8773 525.561 23.6107 525.475 23.184C525.39 22.736 525.337 22.2133 525.315 21.616C525.294 21.0187 525.273 20.0373 525.251 18.672L525.187 14.032L524.227 14.064C523.651 14.1067 523.139 14.192 522.691 14.32C522.585 14.3627 522.414 14.384 522.179 14.384C521.454 14.384 520.931 14.16 520.611 13.712C520.441 13.4347 520.355 13.0613 520.355 12.592C520.355 12.1867 520.419 11.8667 520.547 11.632C520.846 11.0987 521.891 10.6933 523.683 10.416L525.155 10.192L525.027 7.376C524.942 5.37067 524.867 4.00533 524.803 3.28C524.761 2.768 524.739 2.49067 524.739 2.448C524.739 2.14933 524.899 1.84 525.219 1.52ZM552.777 1.552C553.139 1.25333 553.513 1.104 553.897 1.104C554.665 1.104 555.23 1.57333 555.593 2.512C555.742 2.93867 555.902 3.96267 556.073 5.584C556.243 7.184 556.382 8.67733 556.489 10.064C556.595 11.4293 556.659 12.112 556.681 12.112C556.723 12.112 557.075 11.8773 557.737 11.408C559.038 10.4907 560.275 10.032 561.449 10.032C562.537 10.032 563.486 10.4373 564.297 11.248C565.129 12.0373 565.779 13.2 566.249 14.736C566.611 15.9307 566.793 17.7867 566.793 20.304C566.793 21.8827 566.697 22.9493 566.505 23.504C566.291 24.08 565.801 24.368 565.033 24.368C564.521 24.368 564.094 24.1973 563.753 23.856L563.273 23.376L563.177 20.144C563.049 15.984 562.473 13.84 561.449 13.712H561.353C560.862 13.712 560.254 13.9893 559.529 14.544C558.803 15.0773 558.281 15.664 557.961 16.304C557.769 16.7307 557.513 17.04 557.193 17.232L556.777 17.52L556.713 21.008C556.67 22.7147 556.627 23.7493 556.585 24.112C556.563 24.4533 556.446 24.7307 556.233 24.944C555.891 25.3067 555.465 25.488 554.953 25.488C554.185 25.488 553.651 25.1467 553.353 24.464C553.203 24.0587 553.097 21.6053 553.033 17.104C552.926 9.57333 552.649 5.06133 552.201 3.568C552.137 3.33333 552.105 3.10933 552.105 2.896C552.105 2.34133 552.329 1.89333 552.777 1.552ZM581.395 13.232C580.777 12.6133 579.817 12.304 578.515 12.304C577.875 12.304 577.31 12.4107 576.819 12.624C576.35 12.8373 575.838 13.2533 575.283 13.872C574.729 14.4907 574.366 15.056 574.195 15.568C574.003 16.1227 573.907 16.6453 573.907 17.136C573.907 18.2667 574.355 19.0667 575.251 19.536C575.785 19.8133 576.478 19.952 577.331 19.952C577.907 19.952 578.345 19.8773 578.643 19.728C580.371 18.8533 581.427 17.2853 581.811 15.024L582.003 13.808L581.395 13.232ZM576.531 8.88C577.043 8.73067 577.641 8.656 578.323 8.656C579.475 8.656 580.606 8.85867 581.715 9.264C582.825 9.66933 583.593 10.1813 584.019 10.8C584.318 11.2267 584.702 11.6747 585.171 12.144C585.683 12.6773 586.153 13.5947 586.579 14.896C586.985 16.1333 587.358 17.5093 587.699 19.024C588.062 20.5387 588.243 21.5627 588.243 22.096C588.243 22.6293 588.083 23.0453 587.763 23.344C587.358 23.728 586.974 23.92 586.611 23.92C586.462 23.92 586.27 23.888 586.035 23.824C585.63 23.6747 585.31 23.4187 585.075 23.056C584.862 22.6933 584.67 22.1067 584.499 21.296C584.286 20.336 584.169 19.856 584.147 19.856C584.062 19.856 583.614 20.2613 582.803 21.072C581.203 22.6293 579.539 23.472 577.811 23.6H577.363C576.318 23.6 575.294 23.4187 574.291 23.056C573.31 22.6933 572.531 22.2133 571.955 21.616C571.657 21.3173 571.358 20.8693 571.059 20.272C570.761 19.6533 570.558 19.088 570.451 18.576C570.345 18.0427 570.291 17.5627 570.291 17.136C570.291 15.3653 570.889 13.6693 572.083 12.048C573.299 10.4267 574.782 9.37067 576.531 8.88ZM591.887 10.352C591.887 9.904 592.057 9.52 592.399 9.2C592.761 8.85867 593.167 8.688 593.615 8.688C594.127 8.688 594.553 8.88 594.895 9.264C595.236 9.62667 595.609 10.3093 596.015 11.312C596.42 12.3573 597.039 13.7653 597.871 15.536C598.724 17.2853 599.193 18.16 599.279 18.16C599.343 18.16 599.705 17.552 600.367 16.336C600.772 15.568 601.412 14.4373 602.287 12.944C603.183 11.4507 603.705 10.5653 603.855 10.288C604.153 9.75467 604.42 9.41333 604.655 9.264C604.889 9.11467 605.252 9.04 605.743 9.04C606.212 9.04 606.617 9.21067 606.958 9.552C607.321 9.89333 607.503 10.2987 607.503 10.768C607.503 10.8747 607.481 11.0133 607.439 11.184C607.353 11.4613 606.927 12.24 606.159 13.52C603.535 17.808 601.956 20.8267 601.423 22.576C601.081 23.6853 600.399 24.24 599.375 24.24C599.097 24.24 598.799 24.176 598.479 24.048C598.18 23.92 597.903 23.6533 597.647 23.248C597.412 22.8213 596.804 21.6053 595.823 19.6C593.199 14.224 591.887 11.1413 591.887 10.352ZM620.898 13.808C620.514 13.616 619.97 13.52 619.266 13.52C618.498 13.52 617.847 13.6373 617.314 13.872C616.951 14.0213 616.482 14.352 615.906 14.864C615.33 15.3547 615.042 15.6747 615.042 15.824C615.042 15.888 615.373 15.92 616.034 15.92C617.015 15.92 618.189 15.8667 619.554 15.76C620.919 15.6533 621.698 15.536 621.89 15.408C621.954 15.3867 621.986 15.3227 621.986 15.216C621.986 15.024 621.869 14.7787 621.634 14.48C621.399 14.16 621.154 13.936 620.898 13.808ZM617.122 10.096C617.655 9.94667 618.285 9.872 619.01 9.872C620.354 9.872 621.581 10.1387 622.69 10.672C623.522 11.0987 624.215 11.7493 624.77 12.624C625.325 13.4773 625.666 14.4373 625.794 15.504C625.794 15.5467 625.794 15.6107 625.794 15.696C625.815 15.7813 625.826 15.8453 625.826 15.888C625.826 16.4427 625.719 16.9867 625.506 17.52C625.314 18.0533 625.079 18.416 624.802 18.608C624.439 18.864 621.89 19.184 617.154 19.568C616.151 19.6533 615.65 19.7493 615.65 19.856C615.65 19.984 615.874 20.1867 616.322 20.464C616.77 20.7413 617.207 20.9333 617.634 21.04C618.018 21.1253 618.327 21.168 618.562 21.168C619.245 21.168 620.13 20.944 621.218 20.496C621.986 20.176 622.551 20.016 622.914 20.016C623.277 20.016 623.618 20.176 623.938 20.496C624.365 20.9227 624.578 21.328 624.578 21.712C624.578 21.968 624.514 22.2347 624.386 22.512C624.279 22.768 624.13 22.9707 623.938 23.12C623.767 23.2693 623.447 23.4507 622.978 23.664C621.421 24.3467 619.97 24.688 618.626 24.688C617.858 24.688 617.069 24.5707 616.258 24.336C615.17 23.9947 614.178 23.4187 613.282 22.608C612.386 21.776 611.746 20.8587 611.362 19.856C611.127 19.1947 611.01 18.4587 611.01 17.648C611.01 16.4747 611.202 15.4933 611.586 14.704C612.034 13.7227 612.791 12.784 613.858 11.888C614.925 10.992 616.013 10.3947 617.122 10.096ZM644.032 1.52C644.394 1.15733 644.832 0.975998 645.344 0.975998C645.728 0.975998 646.069 1.09333 646.368 1.328C646.688 1.54133 646.912 1.85067 647.04 2.256C647.104 2.49067 647.21 3.6 647.36 5.584C647.509 7.54667 647.584 8.912 647.584 9.68C647.584 9.872 647.626 9.98933 647.712 10.032C647.818 10.0747 648.064 10.096 648.448 10.096C649.024 10.096 649.354 10.032 649.44 9.904C649.482 9.79733 649.92 9.744 650.752 9.744C651.818 9.744 652.522 9.81867 652.864 9.968C653.184 10.1173 653.429 10.4053 653.6 10.832C653.749 11.1307 653.824 11.376 653.824 11.568C653.824 11.7173 653.792 11.8987 653.728 12.112C653.578 12.6027 653.301 12.9333 652.896 13.104C652.512 13.2533 651.744 13.36 650.592 13.424C649.29 13.488 648.448 13.5733 648.064 13.68L647.552 13.808L647.68 18.32C647.722 20.3253 647.744 21.4027 647.744 21.552C647.744 22.4907 647.669 23.12 647.52 23.44C647.2 24.1227 646.677 24.464 645.952 24.464C645.674 24.464 645.386 24.4 645.088 24.272C644.853 24.1653 644.682 24.0693 644.576 23.984C644.469 23.8773 644.373 23.6107 644.288 23.184C644.202 22.736 644.149 22.2133 644.128 21.616C644.106 21.0187 644.085 20.0373 644.064 18.672L644 14.032L643.04 14.064C642.464 14.1067 641.952 14.192 641.504 14.32C641.397 14.3627 641.226 14.384 640.992 14.384C640.266 14.384 639.744 14.16 639.424 13.712C639.253 13.4347 639.168 13.0613 639.168 12.592C639.168 12.1867 639.232 11.8667 639.36 11.632C639.658 11.0987 640.704 10.6933 642.496 10.416L643.968 10.192L643.84 7.376C643.754 5.37067 643.68 4.00533 643.616 3.28C643.573 2.768 643.552 2.49067 643.552 2.448C643.552 2.14933 643.712 1.84 644.032 1.52ZM666.088 11.6C665.512 11.4933 665.032 11.44 664.648 11.44C663.774 11.44 663.038 11.6213 662.44 11.984C662.142 12.176 661.79 12.8267 661.384 13.936C661 15.024 660.808 15.8987 660.808 16.56C660.808 17.6267 661.15 18.4907 661.832 19.152C662.536 19.792 663.454 20.1227 664.584 20.144C665.502 20.144 666.355 19.888 667.144 19.376C667.955 18.864 668.542 18.192 668.904 17.36C669.139 16.8267 669.256 16.2187 669.256 15.536C669.256 14.704 669.096 13.9787 668.776 13.36C668.542 12.8693 668.222 12.496 667.816 12.24C667.411 11.984 666.835 11.7707 666.088 11.6ZM662.472 8.176C663.219 7.984 663.955 7.888 664.68 7.888C666.046 7.888 667.507 8.22933 669.064 8.912C670.174 9.40267 671.048 10.2667 671.688 11.504C672.35 12.7413 672.691 14.2027 672.712 15.888V16.08C672.712 18.6187 671.582 20.6773 669.32 22.256C667.912 23.2587 666.344 23.76 664.616 23.76C663.187 23.76 661.864 23.408 660.648 22.704C659.432 21.9787 658.515 20.9653 657.896 19.664C657.683 19.216 657.544 18.832 657.48 18.512C657.438 18.192 657.416 17.52 657.416 16.496C657.438 14.9813 657.598 13.7867 657.896 12.912C658.6 10.9707 659.432 9.65867 660.392 8.976C660.776 8.69867 661.47 8.432 662.472 8.176ZM696.642 9.072C697.175 8.96533 697.676 8.912 698.146 8.912C699.554 8.912 700.876 9.264 702.114 9.968C702.647 10.288 702.999 10.544 703.17 10.736C703.362 10.928 703.511 11.2053 703.618 11.568C703.639 11.632 703.65 11.728 703.65 11.856C703.65 12.5173 703.394 13.04 702.882 13.424C702.604 13.5947 702.338 13.68 702.082 13.68C701.719 13.68 701.143 13.4987 700.354 13.136C699.522 12.752 698.754 12.56 698.05 12.56C697.41 12.56 696.812 12.72 696.258 13.04C695.767 13.3387 695.234 13.7867 694.658 14.384C694.082 14.9813 693.708 15.4827 693.538 15.888C693.367 16.2933 693.282 16.6133 693.282 16.848C693.282 17.2107 693.57 17.68 694.146 18.256C695.02 19.1093 696.247 19.6107 697.826 19.76C697.89 19.76 697.975 19.7707 698.082 19.792C698.21 19.792 698.295 19.792 698.338 19.792C698.7 19.792 699.191 19.632 699.81 19.312C700.471 18.9493 700.983 18.768 701.346 18.768C701.687 18.768 702.028 18.9173 702.37 19.216C702.818 19.6427 703.042 20.08 703.042 20.528C703.042 21.36 702.391 22.1067 701.09 22.768C700.322 23.1733 699.554 23.376 698.786 23.376H698.274C696.482 23.3547 694.85 22.9493 693.378 22.16C691.906 21.3493 690.85 20.2933 690.21 18.992C689.868 18.3093 689.698 17.584 689.698 16.816C689.698 14.8533 690.807 12.8907 693.026 10.928C694.114 9.94667 695.319 9.328 696.642 9.072ZM716.126 12.816C715.72 12.7093 715.059 12.6133 714.142 12.528C713.544 12.4853 713.224 12.464 713.182 12.464C712.883 12.464 712.584 12.624 712.286 12.944C711.432 13.8187 710.974 15.0027 710.91 16.496C710.91 16.5813 710.899 16.6987 710.878 16.848C710.878 16.976 710.878 17.072 710.878 17.136C710.878 17.6267 711.006 18.0853 711.262 18.512C711.944 19.728 713.15 20.336 714.878 20.336C715.603 20.3147 716.339 20.0693 717.086 19.6C717.854 19.1093 718.408 18.5227 718.75 17.84C718.942 17.4347 719.038 16.9973 719.038 16.528C719.038 15.7387 718.76 14.992 718.206 14.288C717.672 13.5627 716.979 13.072 716.126 12.816ZM711.262 9.232C711.752 8.95467 712.243 8.816 712.734 8.816C712.84 8.816 713.235 8.83733 713.918 8.88C715.944 8.98667 717.576 9.41333 718.814 10.16C720.051 10.9067 721.043 12.0587 721.79 13.616C722.366 14.8107 722.654 15.952 722.654 17.04C722.654 17.3813 722.622 17.68 722.558 17.936C722.216 19.2587 721.47 20.464 720.318 21.552C719.166 22.64 717.896 23.3653 716.51 23.728C715.784 23.8987 715.208 23.984 714.782 23.984C714.355 23.984 713.779 23.8987 713.054 23.728C710.856 23.152 709.278 22.1067 708.318 20.592C707.571 19.4187 707.198 18.1813 707.198 16.88C707.198 15.5787 707.55 14.192 708.254 12.72C709.064 10.992 710.067 9.82933 711.262 9.232ZM726.582 8.112C726.924 7.74933 727.361 7.568 727.894 7.568C728.257 7.568 728.577 7.664 728.854 7.856C729.089 8.02667 729.292 8.304 729.462 8.688C729.654 9.072 729.75 9.424 729.75 9.744C729.75 10.0853 729.836 10.256 730.006 10.256C730.198 10.256 730.508 10.1173 730.934 9.84C731.361 9.584 731.926 9.34933 732.63 9.136C733.334 8.92267 733.9 8.816 734.326 8.816C734.753 8.816 735.276 8.95467 735.894 9.232C736.534 9.50933 737.036 9.81867 737.398 10.16C738.166 10.9067 738.71 11.952 739.03 13.296C739.372 14.64 739.542 16.5067 739.542 18.896C739.542 20.5813 739.489 21.6907 739.382 22.224C739.276 22.736 739.03 23.0987 738.646 23.312C738.39 23.44 738.081 23.504 737.718 23.504C737.334 23.504 737.014 23.44 736.758 23.312C736.396 23.12 736.161 22.768 736.054 22.256C735.969 21.7227 735.905 20.4427 735.862 18.416C735.82 16.3893 735.734 15.056 735.606 14.416C735.478 13.7547 735.212 13.2213 734.806 12.816C734.593 12.6027 734.326 12.496 734.006 12.496C733.473 12.496 732.897 12.7627 732.278 13.296C731.681 13.808 731.19 14.4693 730.806 15.28C730.614 15.6853 730.497 16.0693 730.454 16.432C730.412 16.7947 730.369 17.6267 730.326 18.928C730.284 20.72 730.198 21.7867 730.07 22.128C729.772 22.9173 729.196 23.312 728.342 23.312C727.638 23.312 727.105 23.0027 726.742 22.384C726.636 22.1493 726.529 20.1547 726.422 16.4C726.294 12.368 726.209 10.1387 726.166 9.712C726.124 9.28533 726.102 9.05067 726.102 9.008C726.102 8.73067 726.262 8.432 726.582 8.112ZM753.729 0.431999C754.113 0.389332 754.401 0.367998 754.593 0.367998C756.129 0.367998 757.281 0.751998 758.049 1.52C758.519 2.01067 758.753 2.53333 758.753 3.088C758.753 3.55733 758.583 3.96267 758.241 4.304C757.921 4.624 757.516 4.784 757.025 4.784C756.577 4.784 756.14 4.63467 755.713 4.336C755.329 4.05866 754.977 3.92 754.657 3.92C754.145 3.92 753.665 4.28267 753.217 5.008C752.769 5.73333 752.492 6.58667 752.385 7.568C752.343 7.90933 752.321 8.112 752.321 8.176C752.321 8.45333 752.46 8.63467 752.737 8.72C753.015 8.784 753.665 8.82667 754.689 8.848C754.86 8.848 754.999 8.848 755.105 8.848C756.087 8.89067 756.673 8.93333 756.865 8.976C757.079 9.01867 757.292 9.15733 757.505 9.392C757.783 9.69067 757.921 10.0747 757.921 10.544C757.921 11.0347 757.772 11.44 757.473 11.76L757.025 12.304H751.969L751.873 12.752C751.852 12.816 751.841 13.168 751.841 13.808C751.841 16.752 751.927 19.3653 752.097 21.648C752.097 21.7333 752.097 21.8507 752.097 22C752.119 22.1493 752.129 22.256 752.129 22.32C752.129 22.8747 752.055 23.28 751.905 23.536C751.756 23.792 751.489 24.016 751.105 24.208C750.849 24.336 750.572 24.4 750.273 24.4C749.676 24.4 749.217 24.176 748.897 23.728C748.727 23.472 748.567 22.5333 748.417 20.912C748.289 19.2693 748.225 17.6587 748.225 16.08C748.225 15.3547 748.236 14.832 748.257 14.512L748.353 12.272L746.273 12.368C745.292 12.4107 744.78 12.432 744.737 12.432C744.332 12.432 743.991 12.3253 743.713 12.112C743.308 11.7493 743.105 11.2693 743.105 10.672C743.105 10.416 743.148 10.192 743.233 10C743.383 9.616 743.692 9.33867 744.161 9.168C744.631 8.99733 745.409 8.88 746.497 8.816C747.841 8.73067 748.524 8.66667 748.545 8.624C748.588 8.58133 748.705 7.97333 748.897 6.8C749.239 4.60267 750.007 2.928 751.201 1.776C751.649 1.328 752.023 1.01867 752.321 0.848C752.641 0.677333 753.111 0.538666 753.729 0.431999ZM762.896 9.68C763.216 9.36 763.611 9.2 764.08 9.2C764.614 9.2 765.04 9.37067 765.36 9.712C765.659 10.0107 765.808 10.2347 765.808 10.384C765.808 10.5333 765.872 10.608 766 10.608C766.128 10.608 766.363 10.4907 766.704 10.256C767.536 9.68 768.496 9.392 769.584 9.392C770.416 9.392 771.408 9.57333 772.56 9.936C773.286 10.1493 773.766 10.3307 774 10.48C774.235 10.608 774.427 10.7893 774.576 11.024C774.811 11.3867 774.928 11.7173 774.928 12.016C774.928 12.2507 774.843 12.5387 774.672 12.88C774.374 13.456 773.883 13.744 773.2 13.744C772.752 13.744 772.219 13.6373 771.6 13.424C770.939 13.1893 770.342 13.072 769.808 13.072C769.275 13.072 768.859 13.1893 768.56 13.424C768.24 13.68 767.867 14.256 767.44 15.152C767.035 16.0267 766.758 16.8587 766.608 17.648C766.438 18.6293 766.352 19.6853 766.352 20.816C766.352 22.0747 766.224 22.9387 765.968 23.408C765.712 23.856 765.243 24.08 764.56 24.08H764.304C763.814 24.0373 763.44 23.888 763.184 23.632C762.928 23.3547 762.747 22.896 762.64 22.256C762.555 21.8507 762.48 20.4427 762.416 18.032C762.352 15.6 762.32 13.584 762.32 11.984C762.32 11.152 762.331 10.6933 762.352 10.608C762.416 10.3307 762.598 10.0213 762.896 9.68ZM787.376 12.816C786.97 12.7093 786.309 12.6133 785.392 12.528C784.794 12.4853 784.474 12.464 784.432 12.464C784.133 12.464 783.834 12.624 783.536 12.944C782.682 13.8187 782.224 15.0027 782.16 16.496C782.16 16.5813 782.149 16.6987 782.128 16.848C782.128 16.976 782.128 17.072 782.128 17.136C782.128 17.6267 782.256 18.0853 782.512 18.512C783.194 19.728 784.4 20.336 786.128 20.336C786.853 20.3147 787.589 20.0693 788.336 19.6C789.104 19.1093 789.658 18.5227 790 17.84C790.192 17.4347 790.288 16.9973 790.288 16.528C790.288 15.7387 790.01 14.992 789.456 14.288C788.922 13.5627 788.229 13.072 787.376 12.816ZM782.512 9.232C783.002 8.95467 783.493 8.816 783.984 8.816C784.09 8.816 784.485 8.83733 785.168 8.88C787.194 8.98667 788.826 9.41333 790.064 10.16C791.301 10.9067 792.293 12.0587 793.04 13.616C793.616 14.8107 793.904 15.952 793.904 17.04C793.904 17.3813 793.872 17.68 793.808 17.936C793.466 19.2587 792.72 20.464 791.568 21.552C790.416 22.64 789.146 23.3653 787.76 23.728C787.034 23.8987 786.458 23.984 786.032 23.984C785.605 23.984 785.029 23.8987 784.304 23.728C782.106 23.152 780.528 22.1067 779.568 20.592C778.821 19.4187 778.448 18.1813 778.448 16.88C778.448 15.5787 778.8 14.192 779.504 12.72C780.314 10.992 781.317 9.82933 782.512 9.232ZM798.248 9.072C798.504 8.944 798.771 8.88 799.048 8.88C799.432 8.88 799.795 9.008 800.136 9.264C800.478 9.49867 800.712 9.81867 800.84 10.224L801.032 10.896L801.832 10.416C802.366 10.096 803.102 9.936 804.04 9.936C804.958 9.936 805.715 10.0853 806.312 10.384C806.803 10.6187 807.326 11.0027 807.88 11.536C808.456 12.0693 808.915 12.6027 809.256 13.136C810.408 14.9493 811.038 17.7653 811.144 21.584V22.224C811.144 22.736 810.995 23.152 810.696 23.472C810.334 23.8347 809.907 24.016 809.416 24.016C808.627 24.016 808.104 23.6747 807.848 22.992C807.72 22.6293 807.614 21.9147 807.528 20.848C807.272 17.1147 806.44 14.7787 805.032 13.84C804.734 13.648 804.435 13.552 804.136 13.552C803.582 13.552 803.08 13.8613 802.632 14.48C802.206 15.0773 801.864 15.9307 801.608 17.04C801.502 17.5307 801.374 18.416 801.224 19.696C801.075 20.976 801 21.84 801 22.288C801 22.5013 800.819 22.7893 800.456 23.152C800.094 23.4933 799.678 23.664 799.208 23.664C798.334 23.664 797.758 23.2053 797.48 22.288C797.352 21.84 797.288 19.8987 797.288 16.464C797.288 12.368 797.363 10.1387 797.512 9.776C797.64 9.49867 797.886 9.264 798.248 9.072ZM819.626 1.52C819.988 1.15733 820.426 0.975998 820.938 0.975998C821.322 0.975998 821.663 1.09333 821.962 1.328C822.282 1.54133 822.506 1.85067 822.634 2.256C822.698 2.49067 822.804 3.6 822.954 5.584C823.103 7.54667 823.178 8.912 823.178 9.68C823.178 9.872 823.22 9.98933 823.306 10.032C823.412 10.0747 823.658 10.096 824.042 10.096C824.618 10.096 824.948 10.032 825.034 9.904C825.076 9.79733 825.514 9.744 826.346 9.744C827.412 9.744 828.116 9.81867 828.458 9.968C828.778 10.1173 829.023 10.4053 829.194 10.832C829.343 11.1307 829.418 11.376 829.418 11.568C829.418 11.7173 829.386 11.8987 829.322 12.112C829.172 12.6027 828.895 12.9333 828.49 13.104C828.106 13.2533 827.338 13.36 826.186 13.424C824.884 13.488 824.042 13.5733 823.658 13.68L823.146 13.808L823.274 18.32C823.316 20.3253 823.338 21.4027 823.338 21.552C823.338 22.4907 823.263 23.12 823.114 23.44C822.794 24.1227 822.271 24.464 821.546 24.464C821.268 24.464 820.98 24.4 820.682 24.272C820.447 24.1653 820.276 24.0693 820.17 23.984C820.063 23.8773 819.967 23.6107 819.882 23.184C819.796 22.736 819.743 22.2133 819.722 21.616C819.7 21.0187 819.679 20.0373 819.658 18.672L819.594 14.032L818.634 14.064C818.058 14.1067 817.546 14.192 817.098 14.32C816.991 14.3627 816.82 14.384 816.586 14.384C815.86 14.384 815.338 14.16 815.018 13.712C814.847 13.4347 814.762 13.0613 814.762 12.592C814.762 12.1867 814.826 11.8667 814.954 11.632C815.252 11.0987 816.298 10.6933 818.09 10.416L819.562 10.192L819.434 7.376C819.348 5.37067 819.274 4.00533 819.21 3.28C819.167 2.768 819.146 2.49067 819.146 2.448C819.146 2.14933 819.306 1.84 819.626 1.52ZM847.719 1.52C848.082 1.15733 848.519 0.975998 849.031 0.975998C849.415 0.975998 849.757 1.09333 850.055 1.328C850.375 1.54133 850.599 1.85067 850.727 2.256C850.791 2.49067 850.898 3.6 851.047 5.584C851.197 7.54667 851.271 8.912 851.271 9.68C851.271 9.872 851.314 9.98933 851.399 10.032C851.506 10.0747 851.751 10.096 852.135 10.096C852.711 10.096 853.042 10.032 853.127 9.904C853.17 9.79733 853.607 9.744 854.439 9.744C855.506 9.744 856.21 9.81867 856.551 9.968C856.871 10.1173 857.117 10.4053 857.287 10.832C857.437 11.1307 857.511 11.376 857.511 11.568C857.511 11.7173 857.479 11.8987 857.415 12.112C857.266 12.6027 856.989 12.9333 856.583 13.104C856.199 13.2533 855.431 13.36 854.279 13.424C852.978 13.488 852.135 13.5733 851.751 13.68L851.239 13.808L851.367 18.32C851.41 20.3253 851.431 21.4027 851.431 21.552C851.431 22.4907 851.357 23.12 851.207 23.44C850.887 24.1227 850.365 24.464 849.639 24.464C849.362 24.464 849.074 24.4 848.775 24.272C848.541 24.1653 848.37 24.0693 848.263 23.984C848.157 23.8773 848.061 23.6107 847.975 23.184C847.89 22.736 847.837 22.2133 847.815 21.616C847.794 21.0187 847.773 20.0373 847.751 18.672L847.687 14.032L846.727 14.064C846.151 14.1067 845.639 14.192 845.191 14.32C845.085 14.3627 844.914 14.384 844.679 14.384C843.954 14.384 843.431 14.16 843.111 13.712C842.941 13.4347 842.855 13.0613 842.855 12.592C842.855 12.1867 842.919 11.8667 843.047 11.632C843.346 11.0987 844.391 10.6933 846.183 10.416L847.655 10.192L847.527 7.376C847.442 5.37067 847.367 4.00533 847.303 3.28C847.261 2.768 847.239 2.49067 847.239 2.448C847.239 2.14933 847.399 1.84 847.719 1.52ZM861.808 1.552C862.17 1.25333 862.544 1.104 862.928 1.104C863.696 1.104 864.261 1.57333 864.624 2.512C864.773 2.93867 864.933 3.96267 865.104 5.584C865.274 7.184 865.413 8.67733 865.52 10.064C865.626 11.4293 865.69 12.112 865.712 12.112C865.754 12.112 866.106 11.8773 866.768 11.408C868.069 10.4907 869.306 10.032 870.48 10.032C871.568 10.032 872.517 10.4373 873.328 11.248C874.16 12.0373 874.81 13.2 875.28 14.736C875.642 15.9307 875.824 17.7867 875.824 20.304C875.824 21.8827 875.728 22.9493 875.536 23.504C875.322 24.08 874.832 24.368 874.064 24.368C873.552 24.368 873.125 24.1973 872.784 23.856L872.304 23.376L872.208 20.144C872.08 15.984 871.504 13.84 870.48 13.712H870.384C869.893 13.712 869.285 13.9893 868.56 14.544C867.834 15.0773 867.312 15.664 866.992 16.304C866.8 16.7307 866.544 17.04 866.224 17.232L865.808 17.52L865.744 21.008C865.701 22.7147 865.658 23.7493 865.616 24.112C865.594 24.4533 865.477 24.7307 865.264 24.944C864.922 25.3067 864.496 25.488 863.984 25.488C863.216 25.488 862.682 25.1467 862.384 24.464C862.234 24.0587 862.128 21.6053 862.064 17.104C861.957 9.57333 861.68 5.06133 861.232 3.568C861.168 3.33333 861.136 3.10933 861.136 2.896C861.136 2.34133 861.36 1.89333 861.808 1.552ZM889.211 13.808C888.827 13.616 888.283 13.52 887.579 13.52C886.811 13.52 886.16 13.6373 885.627 13.872C885.264 14.0213 884.795 14.352 884.219 14.864C883.643 15.3547 883.355 15.6747 883.355 15.824C883.355 15.888 883.685 15.92 884.347 15.92C885.328 15.92 886.501 15.8667 887.867 15.76C889.232 15.6533 890.011 15.536 890.203 15.408C890.267 15.3867 890.299 15.3227 890.299 15.216C890.299 15.024 890.181 14.7787 889.947 14.48C889.712 14.16 889.467 13.936 889.211 13.808ZM885.435 10.096C885.968 9.94667 886.597 9.872 887.323 9.872C888.667 9.872 889.893 10.1387 891.003 10.672C891.835 11.0987 892.528 11.7493 893.083 12.624C893.637 13.4773 893.979 14.4373 894.107 15.504C894.107 15.5467 894.107 15.6107 894.107 15.696C894.128 15.7813 894.139 15.8453 894.139 15.888C894.139 16.4427 894.032 16.9867 893.819 17.52C893.627 18.0533 893.392 18.416 893.115 18.608C892.752 18.864 890.203 19.184 885.467 19.568C884.464 19.6533 883.963 19.7493 883.963 19.856C883.963 19.984 884.187 20.1867 884.635 20.464C885.083 20.7413 885.52 20.9333 885.947 21.04C886.331 21.1253 886.64 21.168 886.875 21.168C887.557 21.168 888.443 20.944 889.531 20.496C890.299 20.176 890.864 20.016 891.227 20.016C891.589 20.016 891.931 20.176 892.251 20.496C892.677 20.9227 892.891 21.328 892.891 21.712C892.891 21.968 892.827 22.2347 892.699 22.512C892.592 22.768 892.443 22.9707 892.251 23.12C892.08 23.2693 891.76 23.4507 891.291 23.664C889.733 24.3467 888.283 24.688 886.939 24.688C886.171 24.688 885.381 24.5707 884.571 24.336C883.483 23.9947 882.491 23.4187 881.595 22.608C880.699 21.776 880.059 20.8587 879.674 19.856C879.44 19.1947 879.323 18.4587 879.323 17.648C879.323 16.4747 879.515 15.4933 879.899 14.704C880.347 13.7227 881.104 12.784 882.171 11.888C883.237 10.992 884.325 10.3947 885.435 10.096ZM907.864 9.328C908.248 9.008 908.664 8.848 909.112 8.848C909.582 8.848 909.987 9.01867 910.328 9.36C910.67 9.68 910.84 10.096 910.84 10.608C910.84 11.12 910.936 11.376 911.128 11.376C911.235 11.376 911.459 11.2587 911.8 11.024C913.379 9.936 914.947 9.392 916.504 9.392C917.166 9.392 917.816 9.50933 918.456 9.744C919.032 9.97867 919.438 10.2347 919.672 10.512C919.907 10.7893 920.024 11.1627 920.024 11.632C920.024 12.144 919.832 12.5813 919.448 12.944C919.128 13.2427 918.84 13.392 918.584 13.392C918.499 13.392 917.902 13.3173 916.792 13.168C916.664 13.1467 916.483 13.136 916.248 13.136C915.907 13.136 915.47 13.2533 914.936 13.488C913.55 14.128 912.579 14.9387 912.024 15.92C911.47 16.9013 911.192 18.3093 911.192 20.144C911.171 21.488 911.011 22.4267 910.712 22.96C910.435 23.4933 909.934 23.76 909.208 23.76C908.718 23.76 908.302 23.5893 907.96 23.248L907.448 22.736L907.384 17.072C907.342 12.8907 907.32 10.736 907.32 10.608C907.32 10.096 907.502 9.66933 907.864 9.328ZM932.309 12.944C931.925 12.6667 931.317 12.528 930.485 12.528C929.973 12.528 929.568 12.592 929.269 12.72C928.992 12.848 928.672 13.1147 928.309 13.52C927.968 13.904 927.797 14.1813 927.797 14.352C927.797 14.5013 927.957 14.576 928.277 14.576C928.704 14.5547 929.589 14.4587 930.933 14.288C932.277 14.1173 932.971 14.0107 933.013 13.968C933.035 13.9467 933.045 13.9147 933.045 13.872C933.045 13.6373 932.8 13.328 932.309 12.944ZM928.853 9.04C929.237 8.93333 929.707 8.88 930.261 8.88C931.392 8.88 932.363 9.04 933.173 9.36C933.835 9.59467 934.485 10.0533 935.125 10.736C935.787 11.3973 936.331 12.144 936.757 12.976C937.184 13.8293 937.397 14.4053 937.397 14.704C937.397 15.3867 937.099 16.0267 936.501 16.624C935.861 17.2 933.867 17.6267 930.517 17.904C929.237 18.0107 928.405 18.096 928.021 18.16C927.637 18.224 927.445 18.32 927.445 18.448C927.445 18.5547 927.637 18.7787 928.021 19.12C928.683 19.76 929.867 20.144 931.573 20.272C931.744 20.2933 931.968 20.304 932.245 20.304C932.693 20.304 933.227 20.1973 933.845 19.984C934.72 19.664 935.413 19.504 935.925 19.504C936.693 19.504 937.195 19.888 937.429 20.656C937.493 20.848 937.525 21.0293 937.525 21.2C937.525 21.9253 937.067 22.5227 936.149 22.992C935.253 23.44 933.984 23.696 932.341 23.76C932.256 23.76 932.139 23.7707 931.989 23.792C931.84 23.792 931.733 23.792 931.669 23.792C929.856 23.792 928.288 23.44 926.965 22.736C925.664 22.0107 924.683 20.9867 924.021 19.664C923.701 19.024 923.541 18.1707 923.541 17.104C923.541 16.0373 923.648 15.1947 923.861 14.576C924.395 12.976 925.056 11.7493 925.845 10.896C926.635 10.0213 927.637 9.40267 928.853 9.04ZM950.226 13.68C950.119 13.3387 950.023 13.1467 949.938 13.104C949.853 13.04 949.618 13.008 949.234 13.008C948.125 13.0293 947.09 13.552 946.13 14.576C945.17 15.5787 944.69 16.592 944.69 17.616C944.69 18.128 944.829 18.5547 945.106 18.896C945.725 19.5787 946.375 19.92 947.058 19.92C947.101 19.92 947.143 19.92 947.186 19.92C947.229 19.8987 947.271 19.888 947.314 19.888C947.698 19.8027 948.103 19.5467 948.53 19.12C948.978 18.6933 949.319 18.224 949.554 17.712C950.045 16.56 950.29 15.44 950.29 14.352C950.29 14.032 950.269 13.808 950.226 13.68ZM947.25 9.648C947.826 9.456 948.487 9.36 949.234 9.36C950.215 9.36 951.047 9.52 951.73 9.84C952.178 10.0747 952.583 10.4267 952.946 10.896C953.33 11.344 953.565 11.7707 953.65 12.176C953.735 12.5813 953.853 12.9653 954.002 13.328C954.237 13.9467 954.706 16.272 955.41 20.304C955.517 20.944 955.57 21.424 955.57 21.744C955.57 23.024 954.973 23.664 953.778 23.664C953.373 23.664 952.999 23.504 952.658 23.184C952.338 22.864 952.135 22.4693 952.05 22C951.965 21.5733 951.89 21.328 951.826 21.264C951.741 21.2 951.495 21.3707 951.09 21.776C949.874 22.992 948.477 23.6 946.898 23.6C946.621 23.6 946.333 23.568 946.034 23.504C944.861 23.248 943.762 22.608 942.738 21.584C941.586 20.432 941.01 19.1413 941.01 17.712C941.01 16.5813 941.362 15.3547 942.066 14.032C942.599 13.0293 943.325 12.1333 944.242 11.344C945.181 10.5547 946.183 9.98933 947.25 9.648ZM960.544 2.864C960.821 2.75733 961.066 2.704 961.28 2.704C961.6 2.704 961.92 2.8 962.24 2.992C962.56 3.20533 962.773 3.44 962.88 3.696C963.008 3.952 963.072 4.44267 963.072 5.168C963.072 6 963.029 7.056 962.944 8.336C962.794 10.96 962.698 14.0533 962.656 17.616C962.656 21.0933 962.581 22.9707 962.432 23.248C962.325 23.4613 962.101 23.6747 961.76 23.888C961.44 24.08 961.162 24.176 960.928 24.176C960.672 24.176 960.384 24.0693 960.064 23.856C959.744 23.6427 959.52 23.408 959.392 23.152C959.136 22.64 959.008 20.9227 959.008 18C959.008 15.056 959.136 11.1733 959.392 6.352C959.456 5.09333 959.562 4.24 959.712 3.792C959.861 3.344 960.138 3.03467 960.544 2.864ZM967.981 9.456C968.067 9.43467 968.195 9.424 968.365 9.424C968.835 9.424 969.251 9.57333 969.613 9.872C969.976 10.1707 970.189 10.5547 970.253 11.024C970.339 11.4933 970.381 13.5093 970.381 17.072L970.413 22.48L969.869 22.992C969.507 23.3547 969.08 23.536 968.589 23.536C968.141 23.536 967.757 23.376 967.437 23.056C967.224 22.8427 967.075 22.6293 966.989 22.416C966.925 22.1813 966.872 21.7333 966.829 21.072C966.765 20.24 966.733 18.2347 966.733 15.056L966.701 10.576L967.149 10.032C967.469 9.69067 967.747 9.49867 967.981 9.456ZM967.405 3.088C967.683 2.93867 967.971 2.864 968.269 2.864C968.76 2.864 969.176 3.04533 969.517 3.408C969.859 3.77067 970.029 4.18667 970.029 4.656C970.029 5.06133 969.869 5.456 969.549 5.84C969.144 6.26667 968.696 6.48 968.205 6.48C967.736 6.48 967.32 6.32 966.957 6C966.616 5.65867 966.445 5.25333 966.445 4.784C966.445 4.50666 966.509 4.22933 966.637 3.952C966.829 3.54667 967.085 3.25867 967.405 3.088ZM978.846 2.192C979.187 1.97867 979.507 1.872 979.806 1.872C980.04 1.872 980.307 1.936 980.606 2.064C981.054 2.27733 981.342 2.608 981.47 3.056C981.598 3.504 981.683 4.57067 981.726 6.256L981.822 9.424L983.294 9.328C983.464 9.30667 983.71 9.296 984.03 9.296C984.798 9.296 985.342 9.43467 985.662 9.712C986.003 9.98933 986.174 10.4373 986.174 11.056C986.174 11.7173 985.95 12.1867 985.502 12.464C985.075 12.7413 984.243 12.9333 983.006 13.04L981.662 13.168L981.438 17.616C981.288 20.624 981.15 22.288 981.022 22.608C980.744 23.248 980.211 23.568 979.422 23.568C978.974 23.568 978.622 23.4507 978.366 23.216C978.088 23.0027 977.896 22.768 977.79 22.512C977.683 22.256 977.63 21.84 977.63 21.264C977.63 20.7947 977.662 20.0907 977.726 19.152C977.832 17.4667 977.907 16.0267 977.95 14.832L977.982 13.328L976.542 13.296C975.731 13.2747 975.176 13.2107 974.878 13.104C974.579 12.976 974.323 12.72 974.11 12.336C973.982 12.08 973.918 11.8133 973.918 11.536C973.918 11.024 974.131 10.576 974.558 10.192C974.792 9.97867 975.091 9.84 975.454 9.776C975.816 9.69067 976.488 9.60533 977.47 9.52L977.982 9.456L978.11 6.064C978.131 5.552 978.142 4.99733 978.142 4.4C978.163 3.78133 978.174 3.32266 978.174 3.024L978.206 2.576L978.302 2.512C978.366 2.46933 978.451 2.416 978.558 2.352C978.664 2.288 978.76 2.23467 978.846 2.192ZM1001.7 8.272C1001.91 8.208 1002.07 8.176 1002.18 8.176C1002.26 8.176 1002.51 8.26133 1002.91 8.432C1003.34 8.60267 1003.64 8.89067 1003.81 9.296C1003.89 9.46667 1003.94 9.65867 1003.94 9.872C1003.94 10.192 1003.68 11.1627 1003.17 12.784C1002.23 15.792 1001.05 18.8107 999.617 21.84C998.955 23.2907 997.942 25.168 996.577 27.472C995.211 29.7973 994.379 31.0453 994.081 31.216C993.739 31.4293 993.387 31.536 993.025 31.536C992.534 31.536 992.107 31.3653 991.745 31.024C991.403 30.704 991.233 30.2773 991.233 29.744C991.233 29.36 991.574 28.6347 992.257 27.568C992.79 26.736 993.483 25.5627 994.337 24.048C995.19 22.512 995.617 21.6907 995.617 21.584C995.617 21.52 995.382 21.0933 994.913 20.304C994.699 19.9627 993.942 18.576 992.641 16.144C991.361 13.6907 990.582 12.272 990.305 11.888C989.963 11.3973 989.793 10.9067 989.793 10.416C989.793 9.712 990.134 9.21067 990.817 8.912C991.073 8.80533 991.297 8.752 991.489 8.752C991.937 8.752 992.374 9.008 992.801 9.52C993.227 10.0107 993.771 10.864 994.433 12.08C995.862 14.7253 996.833 16.4533 997.345 17.264C997.451 17.4133 997.515 17.488 997.537 17.488C997.622 17.488 997.835 17.0293 998.177 16.112C998.667 14.768 999.158 13.3387 999.649 11.824C1000.08 10.4587 1000.42 9.552 1000.67 9.104C1000.95 8.656 1001.29 8.37867 1001.7 8.272ZM1026.75 12.816C1026.35 12.7093 1025.68 12.6133 1024.77 12.528C1024.17 12.4853 1023.85 12.464 1023.81 12.464C1023.51 12.464 1023.21 12.624 1022.91 12.944C1022.06 13.8187 1021.6 15.0027 1021.53 16.496C1021.53 16.5813 1021.52 16.6987 1021.5 16.848C1021.5 16.976 1021.5 17.072 1021.5 17.136C1021.5 17.6267 1021.63 18.0853 1021.89 18.512C1022.57 19.728 1023.77 20.336 1025.5 20.336C1026.23 20.3147 1026.96 20.0693 1027.71 19.6C1028.48 19.1093 1029.03 18.5227 1029.37 17.84C1029.57 17.4347 1029.66 16.9973 1029.66 16.528C1029.66 15.7387 1029.39 14.992 1028.83 14.288C1028.3 13.5627 1027.6 13.072 1026.75 12.816ZM1021.89 9.232C1022.38 8.95467 1022.87 8.816 1023.36 8.816C1023.47 8.816 1023.86 8.83733 1024.54 8.88C1026.57 8.98667 1028.2 9.41333 1029.44 10.16C1030.68 10.9067 1031.67 12.0587 1032.41 13.616C1032.99 14.8107 1033.28 15.952 1033.28 17.04C1033.28 17.3813 1033.25 17.68 1033.18 17.936C1032.84 19.2587 1032.09 20.464 1030.94 21.552C1029.79 22.64 1028.52 23.3653 1027.13 23.728C1026.41 23.8987 1025.83 23.984 1025.41 23.984C1024.98 23.984 1024.4 23.8987 1023.68 23.728C1021.48 23.152 1019.9 22.1067 1018.94 20.592C1018.2 19.4187 1017.82 18.1813 1017.82 16.88C1017.82 15.5787 1018.17 14.192 1018.88 12.72C1019.69 10.992 1020.69 9.82933 1021.89 9.232ZM1047.48 0.431999C1047.86 0.389332 1048.15 0.367998 1048.34 0.367998C1049.88 0.367998 1051.03 0.751998 1051.8 1.52C1052.27 2.01067 1052.5 2.53333 1052.5 3.088C1052.5 3.55733 1052.33 3.96267 1051.99 4.304C1051.67 4.624 1051.27 4.784 1050.78 4.784C1050.33 4.784 1049.89 4.63467 1049.46 4.336C1049.08 4.05866 1048.73 3.92 1048.41 3.92C1047.9 3.92 1047.42 4.28267 1046.97 5.008C1046.52 5.73333 1046.24 6.58667 1046.14 7.568C1046.09 7.90933 1046.07 8.112 1046.07 8.176C1046.07 8.45333 1046.21 8.63467 1046.49 8.72C1046.76 8.784 1047.42 8.82667 1048.44 8.848C1048.61 8.848 1048.75 8.848 1048.86 8.848C1049.84 8.89067 1050.42 8.93333 1050.62 8.976C1050.83 9.01867 1051.04 9.15733 1051.26 9.392C1051.53 9.69067 1051.67 10.0747 1051.67 10.544C1051.67 11.0347 1051.52 11.44 1051.22 11.76L1050.78 12.304H1045.72L1045.62 12.752C1045.6 12.816 1045.59 13.168 1045.59 13.808C1045.59 16.752 1045.68 19.3653 1045.85 21.648C1045.85 21.7333 1045.85 21.8507 1045.85 22C1045.87 22.1493 1045.88 22.256 1045.88 22.32C1045.88 22.8747 1045.8 23.28 1045.66 23.536C1045.51 23.792 1045.24 24.016 1044.86 24.208C1044.6 24.336 1044.32 24.4 1044.02 24.4C1043.43 24.4 1042.97 24.176 1042.65 23.728C1042.48 23.472 1042.32 22.5333 1042.17 20.912C1042.04 19.2693 1041.98 17.6587 1041.98 16.08C1041.98 15.3547 1041.99 14.832 1042.01 14.512L1042.1 12.272L1040.02 12.368C1039.04 12.4107 1038.53 12.432 1038.49 12.432C1038.08 12.432 1037.74 12.3253 1037.46 12.112C1037.06 11.7493 1036.86 11.2693 1036.86 10.672C1036.86 10.416 1036.9 10.192 1036.98 10C1037.13 9.616 1037.44 9.33867 1037.91 9.168C1038.38 8.99733 1039.16 8.88 1040.25 8.816C1041.59 8.73067 1042.27 8.66667 1042.3 8.624C1042.34 8.58133 1042.46 7.97333 1042.65 6.8C1042.99 4.60267 1043.76 2.928 1044.95 1.776C1045.4 1.328 1045.77 1.01867 1046.07 0.848C1046.39 0.677333 1046.86 0.538666 1047.48 0.431999ZM1070.94 2.192C1071.28 1.97867 1071.6 1.872 1071.9 1.872C1072.13 1.872 1072.4 1.936 1072.7 2.064C1073.15 2.27733 1073.44 2.608 1073.56 3.056C1073.69 3.504 1073.78 4.57067 1073.82 6.256L1073.92 9.424L1075.39 9.328C1075.56 9.30667 1075.8 9.296 1076.12 9.296C1076.89 9.296 1077.44 9.43467 1077.76 9.712C1078.1 9.98933 1078.27 10.4373 1078.27 11.056C1078.27 11.7173 1078.04 12.1867 1077.6 12.464C1077.17 12.7413 1076.34 12.9333 1075.1 13.04L1073.76 13.168L1073.53 17.616C1073.38 20.624 1073.24 22.288 1073.12 22.608C1072.84 23.248 1072.3 23.568 1071.52 23.568C1071.07 23.568 1070.72 23.4507 1070.46 23.216C1070.18 23.0027 1069.99 22.768 1069.88 22.512C1069.78 22.256 1069.72 21.84 1069.72 21.264C1069.72 20.7947 1069.76 20.0907 1069.82 19.152C1069.93 17.4667 1070 16.0267 1070.04 14.832L1070.08 13.328L1068.64 13.296C1067.82 13.2747 1067.27 13.2107 1066.97 13.104C1066.67 12.976 1066.42 12.72 1066.2 12.336C1066.08 12.08 1066.01 11.8133 1066.01 11.536C1066.01 11.024 1066.22 10.576 1066.65 10.192C1066.89 9.97867 1067.18 9.84 1067.55 9.776C1067.91 9.69067 1068.58 9.60533 1069.56 9.52L1070.08 9.456L1070.2 6.064C1070.22 5.552 1070.24 4.99733 1070.24 4.4C1070.26 3.78133 1070.27 3.32266 1070.27 3.024L1070.3 2.576L1070.4 2.512C1070.46 2.46933 1070.54 2.416 1070.65 2.352C1070.76 2.288 1070.85 2.23467 1070.94 2.192ZM1083.26 9.456C1083.35 9.43467 1083.48 9.424 1083.65 9.424C1084.12 9.424 1084.53 9.57333 1084.89 9.872C1085.26 10.1707 1085.47 10.5547 1085.53 11.024C1085.62 11.4933 1085.66 13.5093 1085.66 17.072L1085.69 22.48L1085.15 22.992C1084.79 23.3547 1084.36 23.536 1083.87 23.536C1083.42 23.536 1083.04 23.376 1082.72 23.056C1082.51 22.8427 1082.36 22.6293 1082.27 22.416C1082.21 22.1813 1082.15 21.7333 1082.11 21.072C1082.05 20.24 1082.01 18.2347 1082.01 15.056L1081.98 10.576L1082.43 10.032C1082.75 9.69067 1083.03 9.49867 1083.26 9.456ZM1082.69 3.088C1082.96 2.93867 1083.25 2.864 1083.55 2.864C1084.04 2.864 1084.46 3.04533 1084.8 3.408C1085.14 3.77067 1085.31 4.18667 1085.31 4.656C1085.31 5.06133 1085.15 5.456 1084.83 5.84C1084.43 6.26667 1083.98 6.48 1083.49 6.48C1083.02 6.48 1082.6 6.32 1082.24 6C1081.9 5.65867 1081.73 5.25333 1081.73 4.784C1081.73 4.50666 1081.79 4.22933 1081.92 3.952C1082.11 3.54667 1082.37 3.25867 1082.69 3.088ZM1090.35 7.344C1090.65 7.30133 1090.82 7.26933 1090.86 7.248C1090.97 7.248 1091.22 7.32267 1091.6 7.472C1091.9 7.6 1092.16 7.856 1092.4 8.24C1092.63 8.624 1092.75 8.99733 1092.75 9.36C1092.75 9.63733 1092.8 9.85067 1092.91 10C1093 10.1067 1093.07 10.1493 1093.14 10.128C1093.2 10.1067 1093.35 10 1093.58 9.808C1094.54 8.99733 1095.72 8.496 1097.1 8.304C1097.53 8.26133 1097.83 8.24 1098 8.24C1099.09 8.24 1100.02 8.63467 1100.78 9.424L1101.52 10.16L1102.45 9.424C1103.96 8.208 1105.43 7.6 1106.86 7.6C1107.35 7.6 1107.79 7.67467 1108.18 7.824C1108.6 7.99467 1109.06 8.32533 1109.55 8.816C1110.06 9.28533 1110.45 9.78667 1110.7 10.32C1111.47 11.8773 1111.97 14.7787 1112.21 19.024C1112.25 20.0907 1112.27 20.6773 1112.27 20.784C1112.27 21.3387 1112.2 21.7547 1112.05 22.032C1111.73 22.6507 1111.24 22.96 1110.58 22.96C1110.11 22.96 1109.69 22.7893 1109.33 22.448L1108.75 21.968L1108.59 18.992C1108.36 14.5547 1107.82 11.984 1106.99 11.28C1106.86 11.1947 1106.76 11.152 1106.67 11.152C1106.5 11.152 1106.19 11.2693 1105.74 11.504C1104.63 12.0373 1103.84 12.944 1103.38 14.224C1103.12 14.8853 1102.95 16.2613 1102.86 18.352C1102.76 20.464 1102.65 21.6373 1102.54 21.872C1102.2 22.4693 1101.66 22.768 1100.91 22.768C1100.51 22.768 1100.14 22.64 1099.82 22.384C1099.35 22 1099.12 21.0613 1099.12 19.568C1099.12 18.8853 1099.13 18.32 1099.15 17.872C1099.15 17.7227 1099.15 17.52 1099.15 17.264C1099.17 16.9867 1099.18 16.784 1099.18 16.656C1099.18 14.5653 1098.95 13.1147 1098.48 12.304C1098.29 11.9627 1098.1 11.792 1097.9 11.792C1097.88 11.792 1097.74 11.8133 1097.49 11.856C1096.12 12.112 1094.97 13.2107 1094.03 15.152C1093.65 15.9627 1093.46 16.816 1093.46 17.712C1093.46 18.48 1093.52 19.4187 1093.65 20.528C1093.71 20.976 1093.74 21.3493 1093.74 21.648C1093.74 22.4587 1093.39 23.0347 1092.69 23.376C1092.39 23.5253 1092.15 23.6 1091.98 23.6C1091.86 23.6 1091.65 23.5467 1091.38 23.44C1090.84 23.248 1090.49 22.8853 1090.32 22.352C1090.15 21.7973 1090.01 20.6133 1089.9 18.8C1089.75 15.7067 1089.5 12.5173 1089.14 9.232C1089.14 9.18933 1089.12 9.12533 1089.1 9.04C1089.1 8.95467 1089.1 8.90133 1089.1 8.88C1089.1 8.58133 1089.23 8.272 1089.49 7.952C1089.81 7.58933 1090.1 7.38667 1090.35 7.344ZM1125.65 13.808C1125.26 13.616 1124.72 13.52 1124.02 13.52C1123.25 13.52 1122.6 13.6373 1122.06 13.872C1121.7 14.0213 1121.23 14.352 1120.66 14.864C1120.08 15.3547 1119.79 15.6747 1119.79 15.824C1119.79 15.888 1120.12 15.92 1120.78 15.92C1121.77 15.92 1122.94 15.8667 1124.3 15.76C1125.67 15.6533 1126.45 15.536 1126.64 15.408C1126.7 15.3867 1126.74 15.3227 1126.74 15.216C1126.74 15.024 1126.62 14.7787 1126.38 14.48C1126.15 14.16 1125.9 13.936 1125.65 13.808ZM1121.87 10.096C1122.41 9.94667 1123.03 9.872 1123.76 9.872C1125.1 9.872 1126.33 10.1387 1127.44 10.672C1128.27 11.0987 1128.97 11.7493 1129.52 12.624C1130.07 13.4773 1130.42 14.4373 1130.54 15.504C1130.54 15.5467 1130.54 15.6107 1130.54 15.696C1130.57 15.7813 1130.58 15.8453 1130.58 15.888C1130.58 16.4427 1130.47 16.9867 1130.26 17.52C1130.06 18.0533 1129.83 18.416 1129.55 18.608C1129.19 18.864 1126.64 19.184 1121.9 19.568C1120.9 19.6533 1120.4 19.7493 1120.4 19.856C1120.4 19.984 1120.62 20.1867 1121.07 20.464C1121.52 20.7413 1121.96 20.9333 1122.38 21.04C1122.77 21.1253 1123.08 21.168 1123.31 21.168C1123.99 21.168 1124.88 20.944 1125.97 20.496C1126.74 20.176 1127.3 20.016 1127.66 20.016C1128.03 20.016 1128.37 20.176 1128.69 20.496C1129.11 20.9227 1129.33 21.328 1129.33 21.712C1129.33 21.968 1129.26 22.2347 1129.14 22.512C1129.03 22.768 1128.88 22.9707 1128.69 23.12C1128.52 23.2693 1128.2 23.4507 1127.73 23.664C1126.17 24.3467 1124.72 24.688 1123.38 24.688C1122.61 24.688 1121.82 24.5707 1121.01 24.336C1119.92 23.9947 1118.93 23.4187 1118.03 22.608C1117.14 21.776 1116.5 20.8587 1116.11 19.856C1115.88 19.1947 1115.76 18.4587 1115.76 17.648C1115.76 16.4747 1115.95 15.4933 1116.34 14.704C1116.78 13.7227 1117.54 12.784 1118.61 11.888C1119.67 10.992 1120.76 10.3947 1121.87 10.096ZM1135.19 20.56C1135.58 20.4107 1135.8 20.336 1135.86 20.336L1136.47 20.56C1137.24 20.88 1137.62 21.456 1137.62 22.288C1137.62 22.736 1137.43 23.1627 1137.05 23.568C1136.69 23.9733 1136.3 24.176 1135.9 24.176C1135.51 24.176 1135.15 24.048 1134.81 23.792C1134.49 23.5147 1134.26 23.1733 1134.14 22.768C1134.07 22.576 1134.04 22.3947 1134.04 22.224C1134.04 21.84 1134.15 21.4987 1134.36 21.2C1134.57 20.88 1134.85 20.6667 1135.19 20.56Z" fill="white"/>
</svg>
