<svg width="804" height="33" viewBox="0 0 804 33" fill="none" xmlns="http://www.w3.org/2000/svg">
<path d="M14.264 2.8C16.3547 2.672 17.6133 2.608 18.04 2.608H18.264C18.7973 2.62933 19.224 2.81067 19.544 3.152C19.8853 3.49333 20.056 3.888 20.056 4.336C20.056 4.82667 19.8747 5.24267 19.512 5.584C19.256 5.84 18.9787 6 18.68 6.064C18.4027 6.10667 17.464 6.18133 15.864 6.288C13.7307 6.416 12.632 6.52267 12.568 6.608C12.5253 6.65067 12.504 8.13333 12.504 11.056V14.16C12.504 14.672 12.504 15.3227 12.504 16.112C12.5253 16.88 12.536 17.4027 12.536 17.68C12.536 19.856 12.4827 21.2427 12.376 21.84C12.2907 22.416 12.0667 22.8427 11.704 23.12C11.4267 23.3333 11.1067 23.44 10.744 23.44C10.3173 23.44 9.93333 23.312 9.592 23.056C9.25067 22.8 9.03733 22.4587 8.952 22.032C8.90933 21.7973 8.86667 19.1627 8.824 14.128L8.76 6.8H1.848L1.336 6.224C0.994667 5.81867 0.824 5.43467 0.824 5.072C0.824 4.688 0.994667 4.29333 1.336 3.888L1.848 3.312L6.456 3.152C9.42133 3.06667 12.024 2.94933 14.264 2.8ZM24.4015 1.552C24.7642 1.25333 25.1375 1.104 25.5215 1.104C26.2895 1.104 26.8548 1.57333 27.2175 2.512C27.3668 2.93867 27.5268 3.96267 27.6975 5.584C27.8682 7.184 28.0068 8.67733 28.1135 10.064C28.2202 11.4293 28.2842 12.112 28.3055 12.112C28.3482 12.112 28.7002 11.8773 29.3615 11.408C30.6628 10.4907 31.9002 10.032 33.0735 10.032C34.1615 10.032 35.1108 10.4373 35.9215 11.248C36.7535 12.0373 37.4042 13.2 37.8735 14.736C38.2362 15.9307 38.4175 17.7867 38.4175 20.304C38.4175 21.8827 38.3215 22.9493 38.1295 23.504C37.9162 24.08 37.4255 24.368 36.6575 24.368C36.1455 24.368 35.7188 24.1973 35.3775 23.856L34.8975 23.376L34.8015 20.144C34.6735 15.984 34.0975 13.84 33.0735 13.712H32.9775C32.4868 13.712 31.8788 13.9893 31.1535 14.544C30.4282 15.0773 29.9055 15.664 29.5855 16.304C29.3935 16.7307 29.1375 17.04 28.8175 17.232L28.4015 17.52L28.3375 21.008C28.2948 22.7147 28.2522 23.7493 28.2095 24.112C28.1882 24.4533 28.0708 24.7307 27.8575 24.944C27.5162 25.3067 27.0895 25.488 26.5775 25.488C25.8095 25.488 25.2762 25.1467 24.9775 24.464C24.8282 24.0587 24.7215 21.6053 24.6575 17.104C24.5508 9.57333 24.2735 5.06133 23.8255 3.568C23.7615 3.33333 23.7295 3.10933 23.7295 2.896C23.7295 2.34133 23.9535 1.89333 24.4015 1.552ZM51.8043 13.808C51.4203 13.616 50.8763 13.52 50.1723 13.52C49.4043 13.52 48.7536 13.6373 48.2203 13.872C47.8576 14.0213 47.3883 14.352 46.8123 14.864C46.2363 15.3547 45.9483 15.6747 45.9483 15.824C45.9483 15.888 46.2789 15.92 46.9403 15.92C47.9216 15.92 49.0949 15.8667 50.4603 15.76C51.8256 15.6533 52.6043 15.536 52.7963 15.408C52.8603 15.3867 52.8923 15.3227 52.8923 15.216C52.8923 15.024 52.7749 14.7787 52.5403 14.48C52.3056 14.16 52.0603 13.936 51.8043 13.808ZM48.0283 10.096C48.5616 9.94667 49.1909 9.872 49.9163 9.872C51.2603 9.872 52.4869 10.1387 53.5963 10.672C54.4283 11.0987 55.1216 11.7493 55.6763 12.624C56.2309 13.4773 56.5723 14.4373 56.7003 15.504C56.7003 15.5467 56.7003 15.6107 56.7003 15.696C56.7216 15.7813 56.7323 15.8453 56.7323 15.888C56.7323 16.4427 56.6256 16.9867 56.4123 17.52C56.2203 18.0533 55.9856 18.416 55.7083 18.608C55.3456 18.864 52.7963 19.184 48.0603 19.568C47.0576 19.6533 46.5563 19.7493 46.5563 19.856C46.5563 19.984 46.7803 20.1867 47.2283 20.464C47.6763 20.7413 48.1136 20.9333 48.5403 21.04C48.9243 21.1253 49.2336 21.168 49.4683 21.168C50.1509 21.168 51.0363 20.944 52.1243 20.496C52.8923 20.176 53.4576 20.016 53.8203 20.016C54.1829 20.016 54.5243 20.176 54.8443 20.496C55.2709 20.9227 55.4843 21.328 55.4843 21.712C55.4843 21.968 55.4203 22.2347 55.2923 22.512C55.1856 22.768 55.0363 22.9707 54.8443 23.12C54.6736 23.2693 54.3536 23.4507 53.8843 23.664C52.3269 24.3467 50.8763 24.688 49.5323 24.688C48.7643 24.688 47.9749 24.5707 47.1643 24.336C46.0763 23.9947 45.0843 23.4187 44.1883 22.608C43.2923 21.776 42.6523 20.8587 42.2682 19.856C42.0336 19.1947 41.9163 18.4587 41.9163 17.648C41.9163 16.4747 42.1083 15.4933 42.4923 14.704C42.9403 13.7227 43.6976 12.784 44.7643 11.888C45.8309 10.992 46.9189 10.3947 48.0283 10.096ZM75.1375 2.864C75.4148 2.75733 75.6602 2.704 75.8735 2.704C76.1935 2.704 76.5135 2.8 76.8335 2.992C77.1535 3.20533 77.3668 3.44 77.4735 3.696C77.6015 3.952 77.6655 4.44267 77.6655 5.168C77.6655 6 77.6228 7.056 77.5375 8.336C77.3882 10.96 77.2922 14.0533 77.2495 17.616C77.2495 21.0933 77.1748 22.9707 77.0255 23.248C76.9188 23.4613 76.6948 23.6747 76.3535 23.888C76.0335 24.08 75.7562 24.176 75.5215 24.176C75.2655 24.176 74.9775 24.0693 74.6575 23.856C74.3375 23.6427 74.1135 23.408 73.9855 23.152C73.7295 22.64 73.6015 20.9227 73.6015 18C73.6015 15.056 73.7295 11.1733 73.9855 6.352C74.0495 5.09333 74.1562 4.24 74.3055 3.792C74.4548 3.344 74.7322 3.03467 75.1375 2.864ZM82.831 8.912C82.9163 8.89067 83.0443 8.88 83.215 8.88C83.6203 8.88 83.9937 8.98667 84.335 9.2C84.6763 9.392 84.911 9.65867 85.039 10C85.1243 10.192 85.2097 11.6533 85.295 14.384C85.4017 17.0933 85.455 19.2267 85.455 20.784C85.455 21.4453 85.4443 21.8293 85.423 21.936C85.3163 22.7467 84.9643 23.2907 84.367 23.568C84.0683 23.696 83.8337 23.76 83.663 23.76C83.535 23.76 83.343 23.728 83.087 23.664C82.5963 23.5147 82.287 23.312 82.159 23.056C81.903 22.5653 81.7537 20.6667 81.711 17.36C81.711 16.7627 81.7003 15.728 81.679 14.256L81.647 9.872L82.031 9.424C82.287 9.12533 82.5537 8.95467 82.831 8.912ZM82.063 2.896C82.319 2.768 82.5643 2.704 82.799 2.704C83.2683 2.704 83.6843 2.896 84.047 3.28C84.4097 3.64267 84.591 4.06933 84.591 4.56C84.591 4.90133 84.5057 5.2 84.335 5.456C83.9723 6.032 83.4817 6.32 82.863 6.32C82.4577 6.32 82.0843 6.18133 81.743 5.904C81.4017 5.62667 81.1883 5.24267 81.103 4.752C81.103 4.73067 81.0923 4.69867 81.071 4.656C81.071 4.592 81.071 4.54933 81.071 4.528C81.071 4.208 81.167 3.89867 81.359 3.6C81.551 3.28 81.7857 3.04533 82.063 2.896ZM96.4043 1.264C96.6176 1.2 96.8843 1.168 97.2043 1.168C98.2283 1.168 99.0389 1.33867 99.6363 1.68C100.447 2.17067 100.852 2.832 100.852 3.664C100.852 4.304 100.564 4.77333 99.9883 5.072C99.7109 5.22133 99.4123 5.296 99.0923 5.296C98.7723 5.296 98.3989 5.2 97.9723 5.008C97.6309 4.85867 97.4496 4.784 97.4283 4.784C97.3429 4.784 97.2043 4.88 97.0123 5.072C96.7776 5.30667 96.5749 5.78667 96.4043 6.512C96.2336 7.23733 96.1483 8.03733 96.1483 8.912V9.584C96.1483 9.88267 96.1803 10.0853 96.2443 10.192C96.3083 10.2987 96.4576 10.352 96.6923 10.352C96.9056 10.352 97.4176 10.2987 98.2283 10.192C98.4203 10.1707 98.6763 10.16 98.9963 10.16C100.468 10.16 101.204 10.7573 101.204 11.952C101.183 12.5707 100.959 13.0187 100.532 13.296C100.127 13.552 99.4016 13.7227 98.3563 13.808C97.3536 13.8933 96.7989 13.968 96.6923 14.032C96.6709 14.032 96.6603 14.128 96.6603 14.32C96.6603 14.8747 96.7669 15.9733 96.9803 17.616C97.1936 19.2587 97.3963 20.5493 97.5883 21.488C97.6736 22 97.7163 22.352 97.7163 22.544C97.7163 23.2693 97.5456 23.8453 97.2043 24.272C96.8629 24.6987 96.3936 24.912 95.7963 24.912C95.3056 24.912 94.8896 24.752 94.5483 24.432C94.3136 24.176 94.1536 23.8987 94.0683 23.6C94.0043 23.28 93.9083 22.448 93.7803 21.104C93.5669 19.0773 93.3749 17.4773 93.2043 16.304L92.9163 14.288L91.3483 14.224C90.6229 14.1813 90.1643 14.128 89.9723 14.064C89.7803 14 89.5883 13.8613 89.3963 13.648C89.1189 13.3067 88.9803 12.8907 88.9803 12.4C88.9803 12.1013 89.0443 11.824 89.1723 11.568C89.4709 11.056 90.2176 10.736 91.4123 10.608L92.4363 10.512L92.5323 8.56C92.6603 6.34133 93.0336 4.656 93.6523 3.504C94.2709 2.33067 95.1883 1.584 96.4043 1.264ZM114.648 13.808C114.264 13.616 113.72 13.52 113.016 13.52C112.248 13.52 111.597 13.6373 111.064 13.872C110.701 14.0213 110.232 14.352 109.656 14.864C109.08 15.3547 108.792 15.6747 108.792 15.824C108.792 15.888 109.123 15.92 109.784 15.92C110.765 15.92 111.939 15.8667 113.304 15.76C114.669 15.6533 115.448 15.536 115.64 15.408C115.704 15.3867 115.736 15.3227 115.736 15.216C115.736 15.024 115.619 14.7787 115.384 14.48C115.149 14.16 114.904 13.936 114.648 13.808ZM110.872 10.096C111.405 9.94667 112.035 9.872 112.76 9.872C114.104 9.872 115.331 10.1387 116.44 10.672C117.272 11.0987 117.965 11.7493 118.52 12.624C119.075 13.4773 119.416 14.4373 119.544 15.504C119.544 15.5467 119.544 15.6107 119.544 15.696C119.565 15.7813 119.576 15.8453 119.576 15.888C119.576 16.4427 119.469 16.9867 119.256 17.52C119.064 18.0533 118.829 18.416 118.552 18.608C118.189 18.864 115.64 19.184 110.904 19.568C109.901 19.6533 109.4 19.7493 109.4 19.856C109.4 19.984 109.624 20.1867 110.072 20.464C110.52 20.7413 110.957 20.9333 111.384 21.04C111.768 21.1253 112.077 21.168 112.312 21.168C112.995 21.168 113.88 20.944 114.968 20.496C115.736 20.176 116.301 20.016 116.664 20.016C117.027 20.016 117.368 20.176 117.688 20.496C118.115 20.9227 118.328 21.328 118.328 21.712C118.328 21.968 118.264 22.2347 118.136 22.512C118.029 22.768 117.88 22.9707 117.688 23.12C117.517 23.2693 117.197 23.4507 116.728 23.664C115.171 24.3467 113.72 24.688 112.376 24.688C111.608 24.688 110.819 24.5707 110.008 24.336C108.92 23.9947 107.928 23.4187 107.032 22.608C106.136 21.776 105.496 20.8587 105.112 19.856C104.877 19.1947 104.76 18.4587 104.76 17.648C104.76 16.4747 104.952 15.4933 105.336 14.704C105.784 13.7227 106.541 12.784 107.608 11.888C108.675 10.992 109.763 10.3947 110.872 10.096ZM134.524 4.272C134.865 3.952 135.185 3.792 135.484 3.792C135.654 3.792 135.804 3.80267 135.932 3.824C136.508 3.888 136.913 4.08 137.148 4.4L137.564 4.88L137.5 13.264C137.478 18.7893 137.382 21.7653 137.212 22.192C136.934 22.832 136.401 23.152 135.612 23.152C135.356 23.152 135.164 23.1307 135.036 23.088C134.716 22.9813 134.502 22.9067 134.396 22.864C134.31 22.8 134.204 22.608 134.076 22.288C133.969 21.9467 133.905 21.4773 133.884 20.88C133.862 20.2827 133.852 19.3653 133.852 18.128C133.852 17.7867 133.852 17.0933 133.852 16.048C133.873 15.0027 133.884 14.128 133.884 13.424L133.916 4.784L134.524 4.272ZM155.919 2.864C156.196 2.75733 156.441 2.704 156.655 2.704C156.975 2.704 157.295 2.8 157.615 2.992C157.935 3.20533 158.148 3.44 158.255 3.696C158.383 3.952 158.447 4.44267 158.447 5.168C158.447 6 158.404 7.056 158.319 8.336C158.169 10.96 158.073 14.0533 158.031 17.616C158.031 21.0933 157.956 22.9707 157.807 23.248C157.7 23.4613 157.476 23.6747 157.135 23.888C156.815 24.08 156.537 24.176 156.303 24.176C156.047 24.176 155.759 24.0693 155.439 23.856C155.119 23.6427 154.895 23.408 154.767 23.152C154.511 22.64 154.383 20.9227 154.383 18C154.383 15.056 154.511 11.1733 154.767 6.352C154.831 5.09333 154.937 4.24 155.087 3.792C155.236 3.344 155.513 3.03467 155.919 2.864ZM163.612 8.912C163.698 8.89067 163.826 8.88 163.996 8.88C164.402 8.88 164.775 8.98667 165.116 9.2C165.458 9.392 165.692 9.65867 165.82 10C165.906 10.192 165.991 11.6533 166.076 14.384C166.183 17.0933 166.236 19.2267 166.236 20.784C166.236 21.4453 166.226 21.8293 166.204 21.936C166.098 22.7467 165.746 23.2907 165.148 23.568C164.85 23.696 164.615 23.76 164.444 23.76C164.316 23.76 164.124 23.728 163.868 23.664C163.378 23.5147 163.068 23.312 162.94 23.056C162.684 22.5653 162.535 20.6667 162.492 17.36C162.492 16.7627 162.482 15.728 162.46 14.256L162.428 9.872L162.812 9.424C163.068 9.12533 163.335 8.95467 163.612 8.912ZM162.844 2.896C163.1 2.768 163.346 2.704 163.58 2.704C164.05 2.704 164.466 2.896 164.828 3.28C165.191 3.64267 165.372 4.06933 165.372 4.56C165.372 4.90133 165.287 5.2 165.116 5.456C164.754 6.032 164.263 6.32 163.644 6.32C163.239 6.32 162.866 6.18133 162.524 5.904C162.183 5.62667 161.97 5.24267 161.884 4.752C161.884 4.73067 161.874 4.69867 161.852 4.656C161.852 4.592 161.852 4.54933 161.852 4.528C161.852 4.208 161.948 3.89867 162.14 3.6C162.332 3.28 162.567 3.04533 162.844 2.896ZM169.762 10.352C169.762 9.904 169.932 9.52 170.274 9.2C170.636 8.85867 171.042 8.688 171.49 8.688C172.002 8.688 172.428 8.88 172.77 9.264C173.111 9.62667 173.484 10.3093 173.89 11.312C174.295 12.3573 174.914 13.7653 175.746 15.536C176.599 17.2853 177.068 18.16 177.154 18.16C177.218 18.16 177.58 17.552 178.242 16.336C178.647 15.568 179.287 14.4373 180.162 12.944C181.058 11.4507 181.58 10.5653 181.73 10.288C182.028 9.75467 182.295 9.41333 182.53 9.264C182.764 9.11467 183.127 9.04 183.618 9.04C184.087 9.04 184.492 9.21067 184.833 9.552C185.196 9.89333 185.378 10.2987 185.378 10.768C185.378 10.8747 185.356 11.0133 185.314 11.184C185.228 11.4613 184.802 12.24 184.034 13.52C181.41 17.808 179.831 20.8267 179.298 22.576C178.956 23.6853 178.274 24.24 177.25 24.24C176.972 24.24 176.674 24.176 176.354 24.048C176.055 23.92 175.778 23.6533 175.522 23.248C175.287 22.8213 174.679 21.6053 173.698 19.6C171.074 14.224 169.762 11.1413 169.762 10.352ZM198.773 13.808C198.389 13.616 197.845 13.52 197.141 13.52C196.373 13.52 195.722 13.6373 195.189 13.872C194.826 14.0213 194.357 14.352 193.781 14.864C193.205 15.3547 192.917 15.6747 192.917 15.824C192.917 15.888 193.248 15.92 193.909 15.92C194.89 15.92 196.064 15.8667 197.429 15.76C198.794 15.6533 199.573 15.536 199.765 15.408C199.829 15.3867 199.861 15.3227 199.861 15.216C199.861 15.024 199.744 14.7787 199.509 14.48C199.274 14.16 199.029 13.936 198.773 13.808ZM194.997 10.096C195.53 9.94667 196.16 9.872 196.885 9.872C198.229 9.872 199.456 10.1387 200.565 10.672C201.397 11.0987 202.09 11.7493 202.645 12.624C203.2 13.4773 203.541 14.4373 203.669 15.504C203.669 15.5467 203.669 15.6107 203.669 15.696C203.69 15.7813 203.701 15.8453 203.701 15.888C203.701 16.4427 203.594 16.9867 203.381 17.52C203.189 18.0533 202.954 18.416 202.677 18.608C202.314 18.864 199.765 19.184 195.029 19.568C194.026 19.6533 193.525 19.7493 193.525 19.856C193.525 19.984 193.749 20.1867 194.197 20.464C194.645 20.7413 195.082 20.9333 195.509 21.04C195.893 21.1253 196.202 21.168 196.437 21.168C197.12 21.168 198.005 20.944 199.093 20.496C199.861 20.176 200.426 20.016 200.789 20.016C201.152 20.016 201.493 20.176 201.813 20.496C202.24 20.9227 202.453 21.328 202.453 21.712C202.453 21.968 202.389 22.2347 202.261 22.512C202.154 22.768 202.005 22.9707 201.813 23.12C201.642 23.2693 201.322 23.4507 200.853 23.664C199.296 24.3467 197.845 24.688 196.501 24.688C195.733 24.688 194.944 24.5707 194.133 24.336C193.045 23.9947 192.053 23.4187 191.157 22.608C190.261 21.776 189.621 20.8587 189.237 19.856C189.002 19.1947 188.885 18.4587 188.885 17.648C188.885 16.4747 189.077 15.4933 189.461 14.704C189.909 13.7227 190.666 12.784 191.733 11.888C192.8 10.992 193.888 10.3947 194.997 10.096ZM215.422 13.616C214.568 13.2107 213.971 13.008 213.63 13.008C213.224 13.008 212.712 13.2853 212.094 13.84C211.262 14.608 210.846 15.5573 210.846 16.688C210.846 17.6053 211.144 18.2987 211.742 18.768C212.019 18.9813 212.307 19.088 212.606 19.088C212.968 19.088 213.427 18.9387 213.982 18.64C215.774 17.7013 216.67 16.4853 216.67 14.992V14.192L215.422 13.616ZM217.054 2.256C217.416 1.95733 217.843 1.808 218.334 1.808C218.654 1.808 218.92 1.872 219.134 2C219.39 2.14933 219.603 2.39467 219.774 2.736C219.902 2.992 219.987 3.70667 220.03 4.88C220.094 6.05333 220.136 8.74133 220.158 12.944L220.222 22.576L219.678 23.12C219.315 23.4827 218.899 23.664 218.43 23.664C217.982 23.664 217.576 23.504 217.214 23.184C216.851 22.864 216.67 22.5013 216.67 22.096C216.67 21.7547 216.648 21.5627 216.606 21.52H216.574C216.424 21.52 216.072 21.6587 215.518 21.936C214.472 22.4267 213.491 22.672 212.574 22.672C211.144 22.672 209.896 22.096 208.83 20.944C207.742 19.7493 207.198 18.3413 207.198 16.72C207.198 14.5867 208.03 12.752 209.694 11.216C210.952 10.064 212.318 9.488 213.79 9.488C214.43 9.488 215.016 9.57333 215.55 9.744C216.126 9.936 216.435 10.032 216.478 10.032C216.499 10.032 216.51 8.816 216.51 6.384V2.736L217.054 2.256ZM245.476 13.68C245.369 13.3387 245.273 13.1467 245.188 13.104C245.103 13.04 244.868 13.008 244.484 13.008C243.375 13.0293 242.34 13.552 241.38 14.576C240.42 15.5787 239.94 16.592 239.94 17.616C239.94 18.128 240.079 18.5547 240.356 18.896C240.975 19.5787 241.625 19.92 242.308 19.92C242.351 19.92 242.393 19.92 242.436 19.92C242.479 19.8987 242.521 19.888 242.564 19.888C242.948 19.8027 243.353 19.5467 243.78 19.12C244.228 18.6933 244.569 18.224 244.804 17.712C245.295 16.56 245.54 15.44 245.54 14.352C245.54 14.032 245.519 13.808 245.476 13.68ZM242.5 9.648C243.076 9.456 243.737 9.36 244.484 9.36C245.465 9.36 246.297 9.52 246.98 9.84C247.428 10.0747 247.833 10.4267 248.196 10.896C248.58 11.344 248.815 11.7707 248.9 12.176C248.985 12.5813 249.103 12.9653 249.252 13.328C249.487 13.9467 249.956 16.272 250.66 20.304C250.767 20.944 250.82 21.424 250.82 21.744C250.82 23.024 250.223 23.664 249.028 23.664C248.623 23.664 248.249 23.504 247.908 23.184C247.588 22.864 247.385 22.4693 247.3 22C247.215 21.5733 247.14 21.328 247.076 21.264C246.991 21.2 246.745 21.3707 246.34 21.776C245.124 22.992 243.727 23.6 242.148 23.6C241.871 23.6 241.583 23.568 241.284 23.504C240.111 23.248 239.012 22.608 237.988 21.584C236.836 20.432 236.26 19.1413 236.26 17.712C236.26 16.5813 236.612 15.3547 237.316 14.032C237.849 13.0293 238.575 12.1333 239.492 11.344C240.431 10.5547 241.433 9.98933 242.5 9.648ZM259.282 1.52C259.644 1.15733 260.082 0.975998 260.594 0.975998C260.978 0.975998 261.319 1.09333 261.618 1.328C261.938 1.54133 262.162 1.85067 262.29 2.256C262.354 2.49067 262.46 3.6 262.61 5.584C262.759 7.54667 262.834 8.912 262.834 9.68C262.834 9.872 262.876 9.98933 262.962 10.032C263.068 10.0747 263.314 10.096 263.698 10.096C264.274 10.096 264.604 10.032 264.69 9.904C264.732 9.79733 265.17 9.744 266.002 9.744C267.068 9.744 267.772 9.81867 268.114 9.968C268.434 10.1173 268.679 10.4053 268.85 10.832C268.999 11.1307 269.074 11.376 269.074 11.568C269.074 11.7173 269.042 11.8987 268.978 12.112C268.828 12.6027 268.551 12.9333 268.146 13.104C267.762 13.2533 266.994 13.36 265.842 13.424C264.54 13.488 263.698 13.5733 263.314 13.68L262.802 13.808L262.93 18.32C262.972 20.3253 262.994 21.4027 262.994 21.552C262.994 22.4907 262.919 23.12 262.77 23.44C262.45 24.1227 261.927 24.464 261.202 24.464C260.924 24.464 260.636 24.4 260.338 24.272C260.103 24.1653 259.932 24.0693 259.826 23.984C259.719 23.8773 259.623 23.6107 259.538 23.184C259.452 22.736 259.399 22.2133 259.378 21.616C259.356 21.0187 259.335 20.0373 259.314 18.672L259.25 14.032L258.29 14.064C257.714 14.1067 257.202 14.192 256.754 14.32C256.647 14.3627 256.476 14.384 256.242 14.384C255.516 14.384 254.994 14.16 254.674 13.712C254.503 13.4347 254.418 13.0613 254.418 12.592C254.418 12.1867 254.482 11.8667 254.61 11.632C254.908 11.0987 255.954 10.6933 257.746 10.416L259.218 10.192L259.09 7.376C259.004 5.37067 258.93 4.00533 258.866 3.28C258.823 2.768 258.802 2.49067 258.802 2.448C258.802 2.14933 258.962 1.84 259.282 1.52ZM296.364 13.232C295.745 12.6133 294.785 12.304 293.484 12.304C292.844 12.304 292.279 12.4107 291.788 12.624C291.319 12.8373 290.807 13.2533 290.252 13.872C289.697 14.4907 289.335 15.056 289.164 15.568C288.972 16.1227 288.876 16.6453 288.876 17.136C288.876 18.2667 289.324 19.0667 290.22 19.536C290.753 19.8133 291.447 19.952 292.3 19.952C292.876 19.952 293.313 19.8773 293.612 19.728C295.34 18.8533 296.396 17.2853 296.78 15.024L296.972 13.808L296.364 13.232ZM291.5 8.88C292.012 8.73067 292.609 8.656 293.292 8.656C294.444 8.656 295.575 8.85867 296.684 9.264C297.793 9.66933 298.561 10.1813 298.988 10.8C299.287 11.2267 299.671 11.6747 300.14 12.144C300.652 12.6773 301.121 13.5947 301.548 14.896C301.953 16.1333 302.327 17.5093 302.668 19.024C303.031 20.5387 303.212 21.5627 303.212 22.096C303.212 22.6293 303.052 23.0453 302.732 23.344C302.327 23.728 301.943 23.92 301.58 23.92C301.431 23.92 301.239 23.888 301.004 23.824C300.599 23.6747 300.279 23.4187 300.044 23.056C299.831 22.6933 299.639 22.1067 299.468 21.296C299.255 20.336 299.137 19.856 299.116 19.856C299.031 19.856 298.583 20.2613 297.772 21.072C296.172 22.6293 294.508 23.472 292.78 23.6H292.332C291.287 23.6 290.263 23.4187 289.26 23.056C288.279 22.6933 287.5 22.2133 286.924 21.616C286.625 21.3173 286.327 20.8693 286.028 20.272C285.729 19.6533 285.527 19.088 285.42 18.576C285.313 18.0427 285.26 17.5627 285.26 17.136C285.26 15.3653 285.857 13.6693 287.052 12.048C288.268 10.4267 289.751 9.37067 291.5 8.88ZM315.463 12.624C315.357 12.5387 315.101 12.496 314.695 12.496C313.949 12.496 313.33 12.6027 312.839 12.816C311.175 13.584 310.343 14.8427 310.343 16.592C310.343 17.36 310.525 18.1067 310.887 18.832C311.442 19.9413 312.21 20.496 313.191 20.496C313.49 20.496 313.725 20.4427 313.895 20.336C314.087 20.2293 314.375 19.9733 314.759 19.568C315.655 18.6507 316.189 17.264 316.359 15.408C316.381 15.2373 316.391 15.024 316.391 14.768C316.391 14.3627 316.285 13.9467 316.071 13.52C315.837 13.0293 315.634 12.7307 315.463 12.624ZM312.615 9.072C313.085 8.92267 313.629 8.848 314.247 8.848C315.037 8.848 315.805 8.976 316.551 9.232C317.298 9.46667 317.863 9.78667 318.247 10.192C318.525 10.4693 318.877 11.0347 319.303 11.888C319.602 12.464 319.783 12.9333 319.847 13.296C319.933 13.6373 320.007 14.352 320.071 15.44C320.114 15.9093 320.178 16.7093 320.263 17.84C320.37 18.9707 320.455 20.016 320.519 20.976C320.583 21.936 320.615 22.8107 320.615 23.6C320.615 24.8587 320.519 25.936 320.327 26.832C319.709 29.6267 318.397 31.3867 316.391 32.112C315.751 32.3467 314.887 32.464 313.799 32.464C313.074 32.4427 312.53 32.3893 312.167 32.304C311.805 32.24 311.261 32.0693 310.535 31.792C309.298 31.3227 308.477 30.96 308.071 30.704C307.666 30.4693 307.389 30.1813 307.239 29.84C307.154 29.6053 307.111 29.3707 307.111 29.136C307.111 28.432 307.431 27.92 308.071 27.6L308.775 27.28L310.695 28.048C311.57 28.3893 312.199 28.6027 312.583 28.688C312.967 28.7733 313.458 28.816 314.055 28.816C314.695 28.816 315.101 28.784 315.271 28.72C315.442 28.6773 315.645 28.5173 315.879 28.24C316.562 27.4293 316.967 26.064 317.095 24.144C317.117 23.9733 317.127 23.7493 317.127 23.472C317.127 23.0027 317.042 22.768 316.871 22.768C316.743 22.768 316.53 22.8853 316.231 23.12C315.378 23.76 314.365 24.08 313.191 24.08H312.807C312.082 24.08 311.41 23.92 310.791 23.6C309.874 23.152 309.074 22.4907 308.391 21.616C307.73 20.7413 307.271 19.7707 307.015 18.704C306.866 17.9573 306.791 17.2 306.791 16.432C306.791 14.6613 307.303 13.1253 308.327 11.824C309.373 10.5013 310.802 9.584 312.615 9.072ZM333.992 13.808C333.608 13.616 333.064 13.52 332.36 13.52C331.592 13.52 330.941 13.6373 330.408 13.872C330.045 14.0213 329.576 14.352 329 14.864C328.424 15.3547 328.136 15.6747 328.136 15.824C328.136 15.888 328.466 15.92 329.128 15.92C330.109 15.92 331.282 15.8667 332.648 15.76C334.013 15.6533 334.792 15.536 334.984 15.408C335.048 15.3867 335.08 15.3227 335.08 15.216C335.08 15.024 334.962 14.7787 334.728 14.48C334.493 14.16 334.248 13.936 333.992 13.808ZM330.216 10.096C330.749 9.94667 331.378 9.872 332.104 9.872C333.448 9.872 334.674 10.1387 335.784 10.672C336.616 11.0987 337.309 11.7493 337.864 12.624C338.418 13.4773 338.76 14.4373 338.888 15.504C338.888 15.5467 338.888 15.6107 338.888 15.696C338.909 15.7813 338.92 15.8453 338.92 15.888C338.92 16.4427 338.813 16.9867 338.6 17.52C338.408 18.0533 338.173 18.416 337.896 18.608C337.533 18.864 334.984 19.184 330.248 19.568C329.245 19.6533 328.744 19.7493 328.744 19.856C328.744 19.984 328.968 20.1867 329.416 20.464C329.864 20.7413 330.301 20.9333 330.728 21.04C331.112 21.1253 331.421 21.168 331.656 21.168C332.338 21.168 333.224 20.944 334.312 20.496C335.08 20.176 335.645 20.016 336.008 20.016C336.37 20.016 336.712 20.176 337.032 20.496C337.458 20.9227 337.672 21.328 337.672 21.712C337.672 21.968 337.608 22.2347 337.48 22.512C337.373 22.768 337.224 22.9707 337.032 23.12C336.861 23.2693 336.541 23.4507 336.072 23.664C334.514 24.3467 333.064 24.688 331.72 24.688C330.952 24.688 330.162 24.5707 329.352 24.336C328.264 23.9947 327.272 23.4187 326.376 22.608C325.48 21.776 324.84 20.8587 324.456 19.856C324.221 19.1947 324.104 18.4587 324.104 17.648C324.104 16.4747 324.296 15.4933 324.68 14.704C325.128 13.7227 325.885 12.784 326.952 11.888C328.018 10.992 329.106 10.3947 330.216 10.096ZM353.208 2.544C353.571 2.18133 353.997 2 354.488 2C355.171 2 355.693 2.30933 356.056 2.928C356.141 3.09867 356.259 5.72267 356.408 10.8C356.579 15.8773 356.664 19.632 356.664 22.064C356.664 22.9387 356.653 23.4187 356.632 23.504C356.568 23.8667 356.387 24.1547 356.088 24.368C355.789 24.56 355.437 24.656 355.032 24.656C354.541 24.656 354.104 24.496 353.72 24.176L353.176 23.696L353.048 20.656C352.941 17.9467 352.856 14.512 352.792 10.352L352.664 3.056L353.208 2.544ZM364.807 3.248C365.276 3.01333 365.65 2.864 365.927 2.8C366.226 2.736 366.716 2.704 367.399 2.704C368.53 2.704 369.308 2.84267 369.735 3.12C370.162 3.376 370.375 3.856 370.375 4.56C370.375 5.02933 370.215 5.424 369.895 5.744C369.682 5.95733 369.479 6.096 369.287 6.16C369.095 6.20267 368.7 6.224 368.103 6.224C367.207 6.224 366.524 6.37333 366.055 6.672C365.479 7.01333 364.978 7.54667 364.551 8.272C364.124 8.99733 363.911 9.66933 363.911 10.288V10.512C363.954 10.9173 364.167 11.2373 364.551 11.472C364.956 11.7067 365.458 11.824 366.055 11.824C366.567 11.824 367.1 11.728 367.655 11.536C368.06 11.408 368.54 11.184 369.095 10.864C369.671 10.5227 370.002 10.2773 370.087 10.128C370.13 10.064 370.194 9.31733 370.279 7.888C370.343 6.88533 370.407 6.26667 370.471 6.032C370.535 5.776 370.684 5.53067 370.919 5.296C371.26 4.95467 371.666 4.784 372.135 4.784C372.839 4.784 373.394 5.15733 373.799 5.904C373.991 6.24533 374.087 7.06667 374.087 8.368C374.087 9.072 374.034 11.5573 373.927 15.824L373.767 22.224L373.191 22.736C372.786 23.0773 372.391 23.248 372.007 23.248C371.644 23.248 371.26 23.0773 370.855 22.736L370.279 22.224L370.215 18.352C370.172 15.7707 370.14 14.48 370.119 14.48C370.076 14.48 369.682 14.6293 368.935 14.928C368.188 15.248 367.26 15.408 366.151 15.408H365.607C364.839 15.408 364.092 15.248 363.367 14.928C362.663 14.608 362.044 14.1707 361.511 13.616C360.999 13.04 360.647 12.432 360.455 11.792C360.284 11.1733 360.199 10.6933 360.199 10.352C360.199 10.032 360.284 9.50933 360.455 8.784C360.754 7.632 361.298 6.544 362.087 5.52C362.898 4.496 363.804 3.73867 364.807 3.248ZM392.706 8.912C392.791 8.89067 392.919 8.88 393.09 8.88C393.495 8.88 393.869 8.98667 394.21 9.2C394.551 9.392 394.786 9.65867 394.914 10C394.999 10.192 395.085 11.6533 395.17 14.384C395.277 17.0933 395.33 19.2267 395.33 20.784C395.33 21.4453 395.319 21.8293 395.298 21.936C395.191 22.7467 394.839 23.2907 394.242 23.568C393.943 23.696 393.709 23.76 393.538 23.76C393.41 23.76 393.218 23.728 392.962 23.664C392.471 23.5147 392.162 23.312 392.034 23.056C391.778 22.5653 391.629 20.6667 391.586 17.36C391.586 16.7627 391.575 15.728 391.554 14.256L391.522 9.872L391.906 9.424C392.162 9.12533 392.429 8.95467 392.706 8.912ZM391.938 2.896C392.194 2.768 392.439 2.704 392.674 2.704C393.143 2.704 393.559 2.896 393.922 3.28C394.285 3.64267 394.466 4.06933 394.466 4.56C394.466 4.90133 394.381 5.2 394.21 5.456C393.847 6.032 393.357 6.32 392.738 6.32C392.333 6.32 391.959 6.18133 391.618 5.904C391.277 5.62667 391.063 5.24267 390.978 4.752C390.978 4.73067 390.967 4.69867 390.946 4.656C390.946 4.592 390.946 4.54933 390.946 4.528C390.946 4.208 391.042 3.89867 391.234 3.6C391.426 3.28 391.661 3.04533 391.938 2.896ZM403.303 8.496C403.687 8.432 404.082 8.4 404.487 8.4C405.767 8.4 406.909 8.688 407.911 9.264C408.914 9.84 409.415 10.5013 409.415 11.248C409.415 11.44 409.383 11.6107 409.319 11.76C408.999 12.5707 408.519 12.976 407.879 12.976C407.41 12.976 406.877 12.8267 406.279 12.528C405.597 12.1867 404.967 12.016 404.391 12.016C403.773 12.016 403.261 12.2187 402.855 12.624C402.642 12.8373 402.535 13.008 402.535 13.136C402.535 13.3067 402.695 13.5093 403.015 13.744C403.357 13.9573 403.975 14.2987 404.871 14.768C406.343 15.536 407.335 16.1653 407.847 16.656C408.338 17.0827 408.765 17.616 409.127 18.256C409.49 18.8747 409.671 19.3973 409.671 19.824C409.671 20.3147 409.543 20.8053 409.287 21.296C409.031 21.7867 408.711 22.16 408.327 22.416C407.346 23.0773 406.151 23.408 404.743 23.408C403.421 23.408 402.055 23.0987 400.647 22.48C399.986 22.16 399.57 21.7973 399.399 21.392C399.271 21.0933 399.207 20.8267 399.207 20.592C399.207 20.1653 399.41 19.7493 399.815 19.344C400.093 19.024 400.466 18.864 400.935 18.864C401.383 18.864 401.927 19.0027 402.567 19.28C403.271 19.5787 404.082 19.728 404.999 19.728C405.426 19.728 405.639 19.6747 405.639 19.568C405.639 19.312 404.722 18.7253 402.887 17.808C401.458 17.0613 400.413 16.3253 399.751 15.6C399.09 14.8533 398.759 14.032 398.759 13.136C398.759 12.0693 399.197 11.088 400.071 10.192C400.967 9.27467 402.045 8.70933 403.303 8.496ZM427.46 8.496C427.844 8.432 428.238 8.4 428.644 8.4C429.924 8.4 431.065 8.688 432.068 9.264C433.07 9.84 433.572 10.5013 433.572 11.248C433.572 11.44 433.54 11.6107 433.476 11.76C433.156 12.5707 432.676 12.976 432.036 12.976C431.566 12.976 431.033 12.8267 430.436 12.528C429.753 12.1867 429.124 12.016 428.548 12.016C427.929 12.016 427.417 12.2187 427.012 12.624C426.798 12.8373 426.692 13.008 426.692 13.136C426.692 13.3067 426.852 13.5093 427.172 13.744C427.513 13.9573 428.132 14.2987 429.028 14.768C430.5 15.536 431.492 16.1653 432.004 16.656C432.494 17.0827 432.921 17.616 433.284 18.256C433.646 18.8747 433.828 19.3973 433.828 19.824C433.828 20.3147 433.7 20.8053 433.444 21.296C433.188 21.7867 432.868 22.16 432.484 22.416C431.502 23.0773 430.308 23.408 428.9 23.408C427.577 23.408 426.212 23.0987 424.804 22.48C424.142 22.16 423.726 21.7973 423.556 21.392C423.428 21.0933 423.364 20.8267 423.364 20.592C423.364 20.1653 423.566 19.7493 423.972 19.344C424.249 19.024 424.622 18.864 425.092 18.864C425.54 18.864 426.084 19.0027 426.724 19.28C427.428 19.5787 428.238 19.728 429.156 19.728C429.582 19.728 429.796 19.6747 429.796 19.568C429.796 19.312 428.878 18.7253 427.044 17.808C425.614 17.0613 424.569 16.3253 423.908 15.6C423.246 14.8533 422.916 14.032 422.916 13.136C422.916 12.0693 423.353 11.088 424.228 10.192C425.124 9.27467 426.201 8.70933 427.46 8.496ZM442.315 2.192C442.656 1.97867 442.976 1.872 443.275 1.872C443.509 1.872 443.776 1.936 444.075 2.064C444.523 2.27733 444.811 2.608 444.939 3.056C445.067 3.504 445.152 4.57067 445.195 6.256L445.291 9.424L446.763 9.328C446.933 9.30667 447.179 9.296 447.499 9.296C448.267 9.296 448.811 9.43467 449.131 9.712C449.472 9.98933 449.643 10.4373 449.643 11.056C449.643 11.7173 449.419 12.1867 448.971 12.464C448.544 12.7413 447.712 12.9333 446.475 13.04L445.131 13.168L444.907 17.616C444.757 20.624 444.619 22.288 444.491 22.608C444.213 23.248 443.68 23.568 442.891 23.568C442.443 23.568 442.091 23.4507 441.835 23.216C441.557 23.0027 441.365 22.768 441.259 22.512C441.152 22.256 441.099 21.84 441.099 21.264C441.099 20.7947 441.131 20.0907 441.195 19.152C441.301 17.4667 441.376 16.0267 441.419 14.832L441.451 13.328L440.011 13.296C439.2 13.2747 438.645 13.2107 438.347 13.104C438.048 12.976 437.792 12.72 437.579 12.336C437.451 12.08 437.387 11.8133 437.387 11.536C437.387 11.024 437.6 10.576 438.027 10.192C438.261 9.97867 438.56 9.84 438.923 9.776C439.285 9.69067 439.957 9.60533 440.939 9.52L441.451 9.456L441.579 6.064C441.6 5.552 441.611 4.99733 441.611 4.4C441.632 3.78133 441.643 3.32266 441.643 3.024L441.675 2.576L441.771 2.512C441.835 2.46933 441.92 2.416 442.027 2.352C442.133 2.288 442.229 2.23467 442.315 2.192ZM454.638 9.456C454.723 9.43467 454.851 9.424 455.022 9.424C455.491 9.424 455.907 9.57333 456.27 9.872C456.632 10.1707 456.846 10.5547 456.91 11.024C456.995 11.4933 457.038 13.5093 457.038 17.072L457.07 22.48L456.526 22.992C456.163 23.3547 455.736 23.536 455.246 23.536C454.798 23.536 454.414 23.376 454.094 23.056C453.88 22.8427 453.731 22.6293 453.646 22.416C453.582 22.1813 453.528 21.7333 453.486 21.072C453.422 20.24 453.39 18.2347 453.39 15.056L453.358 10.576L453.806 10.032C454.126 9.69067 454.403 9.49867 454.638 9.456ZM454.062 3.088C454.339 2.93867 454.627 2.864 454.926 2.864C455.416 2.864 455.832 3.04533 456.174 3.408C456.515 3.77067 456.686 4.18667 456.686 4.656C456.686 5.06133 456.526 5.456 456.206 5.84C455.8 6.26667 455.352 6.48 454.862 6.48C454.392 6.48 453.976 6.32 453.614 6C453.272 5.65867 453.102 5.25333 453.102 4.784C453.102 4.50666 453.166 4.22933 453.294 3.952C453.486 3.54667 453.742 3.25867 454.062 3.088ZM461.95 2.864C462.227 2.75733 462.473 2.704 462.686 2.704C463.006 2.704 463.326 2.8 463.646 2.992C463.966 3.20533 464.179 3.44 464.286 3.696C464.414 3.952 464.478 4.44267 464.478 5.168C464.478 6 464.435 7.056 464.35 8.336C464.201 10.96 464.105 14.0533 464.062 17.616C464.062 21.0933 463.987 22.9707 463.838 23.248C463.731 23.4613 463.507 23.6747 463.166 23.888C462.846 24.08 462.569 24.176 462.334 24.176C462.078 24.176 461.79 24.0693 461.47 23.856C461.15 23.6427 460.926 23.408 460.798 23.152C460.542 22.64 460.414 20.9227 460.414 18C460.414 15.056 460.542 11.1733 460.798 6.352C460.862 5.09333 460.969 4.24 461.118 3.792C461.267 3.344 461.545 3.03467 461.95 2.864ZM468.492 1.424C468.833 1.08267 469.238 0.911999 469.708 0.911999C470.156 0.911999 470.55 1.08267 470.891 1.424C471.233 1.76533 471.446 2.32 471.532 3.088C471.553 3.30133 471.564 4.58133 471.564 6.928C471.564 17.8933 471.489 23.6 471.34 24.048C471.254 24.304 471.062 24.5067 470.764 24.656C470.465 24.8053 470.134 24.88 469.772 24.88C469.345 24.88 469.004 24.7947 468.748 24.624C468.364 24.368 468.118 23.9947 468.012 23.504C467.926 22.992 467.884 21.6267 467.884 19.408C467.884 16.8267 467.894 14.5333 467.916 12.528L468.012 1.904L468.492 1.424ZM488.279 8.208C488.663 8.10133 489.261 8.048 490.071 8.048C491.778 8.048 493.015 8.176 493.783 8.432C494.85 8.77333 495.383 9.36 495.383 10.192C495.383 10.6827 495.149 11.1307 494.679 11.536C494.359 11.8347 494.05 11.984 493.751 11.984C493.73 11.984 493.687 11.984 493.623 11.984C493.559 11.9627 493.506 11.952 493.463 11.952C492.055 11.7173 490.946 11.6 490.135 11.6C489.879 11.6 489.645 11.6213 489.431 11.664C488.77 11.8347 488.439 12.144 488.439 12.592C488.439 12.6773 488.45 12.7413 488.471 12.784C488.621 13.2107 489.463 13.744 490.999 14.384C493.751 15.536 495.447 16.9653 496.087 18.672C496.279 19.184 496.375 19.664 496.375 20.112C496.375 20.9013 496.087 21.5733 495.511 22.128C494.957 22.6827 494.167 23.056 493.143 23.248C492.717 23.3333 492.013 23.376 491.031 23.376C489.239 23.376 488.098 23.2693 487.607 23.056C487.33 22.928 487.095 22.7147 486.903 22.416C486.711 22.096 486.615 21.7867 486.615 21.488C486.615 21.168 486.722 20.848 486.935 20.528C487.149 20.1867 487.405 19.952 487.703 19.824C487.981 19.7173 488.311 19.664 488.695 19.664C488.845 19.664 489.175 19.6853 489.687 19.728C490.029 19.7707 490.487 19.792 491.063 19.792C491.959 19.792 492.407 19.6853 492.407 19.472C492.407 19.088 491.479 18.512 489.623 17.744C487.959 17.0187 486.733 16.2613 485.943 15.472C485.175 14.6613 484.791 13.744 484.791 12.72C484.791 12.5493 484.813 12.2933 484.855 11.952C485.026 10.9067 485.453 10.0747 486.135 9.456C486.69 8.90133 487.405 8.48533 488.279 8.208ZM508.588 11.6C508.012 11.4933 507.532 11.44 507.148 11.44C506.274 11.44 505.538 11.6213 504.94 11.984C504.642 12.176 504.29 12.8267 503.884 13.936C503.5 15.024 503.308 15.8987 503.308 16.56C503.308 17.6267 503.65 18.4907 504.332 19.152C505.036 19.792 505.954 20.1227 507.084 20.144C508.002 20.144 508.855 19.888 509.644 19.376C510.455 18.864 511.042 18.192 511.404 17.36C511.639 16.8267 511.756 16.2187 511.756 15.536C511.756 14.704 511.596 13.9787 511.276 13.36C511.042 12.8693 510.722 12.496 510.316 12.24C509.911 11.984 509.335 11.7707 508.588 11.6ZM504.972 8.176C505.719 7.984 506.455 7.888 507.18 7.888C508.546 7.888 510.007 8.22933 511.564 8.912C512.674 9.40267 513.548 10.2667 514.188 11.504C514.85 12.7413 515.191 14.2027 515.212 15.888V16.08C515.212 18.6187 514.082 20.6773 511.82 22.256C510.412 23.2587 508.844 23.76 507.116 23.76C505.687 23.76 504.364 23.408 503.148 22.704C501.932 21.9787 501.015 20.9653 500.396 19.664C500.183 19.216 500.044 18.832 499.98 18.512C499.938 18.192 499.916 17.52 499.916 16.496C499.938 14.9813 500.098 13.7867 500.396 12.912C501.1 10.9707 501.932 9.65867 502.892 8.976C503.276 8.69867 503.97 8.432 504.972 8.176ZM519.945 7.344C520.243 7.30133 520.414 7.26933 520.457 7.248C520.563 7.248 520.809 7.32267 521.193 7.472C521.491 7.6 521.758 7.856 521.993 8.24C522.227 8.624 522.345 8.99733 522.345 9.36C522.345 9.63733 522.398 9.85067 522.505 10C522.59 10.1067 522.665 10.1493 522.729 10.128C522.793 10.1067 522.942 10 523.177 9.808C524.137 8.99733 525.31 8.496 526.697 8.304C527.123 8.26133 527.422 8.24 527.593 8.24C528.681 8.24 529.609 8.63467 530.377 9.424L531.113 10.16L532.041 9.424C533.555 8.208 535.027 7.6 536.457 7.6C536.947 7.6 537.385 7.67467 537.769 7.824C538.195 7.99467 538.654 8.32533 539.145 8.816C539.657 9.28533 540.041 9.78667 540.297 10.32C541.065 11.8773 541.566 14.7787 541.801 19.024C541.843 20.0907 541.865 20.6773 541.865 20.784C541.865 21.3387 541.79 21.7547 541.641 22.032C541.321 22.6507 540.83 22.96 540.169 22.96C539.699 22.96 539.283 22.7893 538.921 22.448L538.345 21.968L538.185 18.992C537.95 14.5547 537.417 11.984 536.585 11.28C536.457 11.1947 536.35 11.152 536.265 11.152C536.094 11.152 535.785 11.2693 535.337 11.504C534.227 12.0373 533.438 12.944 532.969 14.224C532.713 14.8853 532.542 16.2613 532.457 18.352C532.35 20.464 532.243 21.6373 532.137 21.872C531.795 22.4693 531.251 22.768 530.505 22.768C530.099 22.768 529.737 22.64 529.417 22.384C528.947 22 528.713 21.0613 528.713 19.568C528.713 18.8853 528.723 18.32 528.745 17.872C528.745 17.7227 528.745 17.52 528.745 17.264C528.766 16.9867 528.777 16.784 528.777 16.656C528.777 14.5653 528.542 13.1147 528.073 12.304C527.881 11.9627 527.689 11.792 527.497 11.792C527.475 11.792 527.337 11.8133 527.081 11.856C525.715 12.112 524.563 13.2107 523.625 15.152C523.241 15.9627 523.049 16.816 523.049 17.712C523.049 18.48 523.113 19.4187 523.241 20.528C523.305 20.976 523.337 21.3493 523.337 21.648C523.337 22.4587 522.985 23.0347 522.281 23.376C521.982 23.5253 521.747 23.6 521.577 23.6C521.449 23.6 521.246 23.5467 520.969 23.44C520.435 23.248 520.083 22.8853 519.913 22.352C519.742 21.7973 519.603 20.6133 519.497 18.8C519.347 15.7067 519.091 12.5173 518.729 9.232C518.729 9.18933 518.718 9.12533 518.697 9.04C518.697 8.95467 518.697 8.90133 518.697 8.88C518.697 8.58133 518.825 8.272 519.081 7.952C519.401 7.58933 519.689 7.38667 519.945 7.344ZM554.122 12.944C553.738 12.6667 553.13 12.528 552.298 12.528C551.786 12.528 551.38 12.592 551.082 12.72C550.804 12.848 550.484 13.1147 550.122 13.52C549.78 13.904 549.61 14.1813 549.61 14.352C549.61 14.5013 549.77 14.576 550.09 14.576C550.516 14.5547 551.402 14.4587 552.746 14.288C554.09 14.1173 554.783 14.0107 554.826 13.968C554.847 13.9467 554.858 13.9147 554.858 13.872C554.858 13.6373 554.612 13.328 554.122 12.944ZM550.666 9.04C551.05 8.93333 551.519 8.88 552.074 8.88C553.204 8.88 554.175 9.04 554.986 9.36C555.647 9.59467 556.298 10.0533 556.938 10.736C557.599 11.3973 558.143 12.144 558.57 12.976C558.996 13.8293 559.21 14.4053 559.21 14.704C559.21 15.3867 558.911 16.0267 558.314 16.624C557.674 17.2 555.679 17.6267 552.33 17.904C551.05 18.0107 550.218 18.096 549.834 18.16C549.45 18.224 549.258 18.32 549.258 18.448C549.258 18.5547 549.45 18.7787 549.834 19.12C550.495 19.76 551.679 20.144 553.386 20.272C553.556 20.2933 553.78 20.304 554.058 20.304C554.506 20.304 555.039 20.1973 555.658 19.984C556.532 19.664 557.226 19.504 557.738 19.504C558.506 19.504 559.007 19.888 559.242 20.656C559.306 20.848 559.338 21.0293 559.338 21.2C559.338 21.9253 558.879 22.5227 557.962 22.992C557.066 23.44 555.796 23.696 554.154 23.76C554.068 23.76 553.951 23.7707 553.802 23.792C553.652 23.792 553.546 23.792 553.482 23.792C551.668 23.792 550.1 23.44 548.778 22.736C547.476 22.0107 546.495 20.9867 545.834 19.664C545.514 19.024 545.354 18.1707 545.354 17.104C545.354 16.0373 545.46 15.1947 545.674 14.576C546.207 12.976 546.868 11.7493 547.658 10.896C548.447 10.0213 549.45 9.40267 550.666 9.04ZM563.335 8.816C563.655 8.496 564.06 8.336 564.551 8.336C565.212 8.336 565.671 8.56 565.927 9.008C566.204 9.43467 566.641 10.64 567.239 12.624C567.409 13.1787 567.623 13.8933 567.879 14.768C568.604 17.072 569.02 18.2453 569.127 18.288C569.255 18.288 569.543 17.648 569.991 16.368C570.716 14.192 571.313 12.6667 571.783 11.792C572.273 10.9173 572.849 10.3413 573.511 10.064C573.831 9.91467 574.151 9.84 574.471 9.84C574.94 9.84 575.367 10.064 575.751 10.512C576.156 10.9387 576.604 11.664 577.095 12.688C578.972 16.6773 579.964 18.672 580.071 18.672C580.113 18.672 580.359 18 580.807 16.656C581.276 15.2907 581.767 13.8827 582.279 12.432C582.812 10.9813 583.164 10.16 583.335 9.968C583.676 9.584 584.081 9.392 584.551 9.392C585.063 9.392 585.532 9.616 585.959 10.064C586.193 10.2987 586.311 10.608 586.311 10.992C586.311 11.6107 585.82 13.36 584.839 16.24C583.815 19.248 583.025 21.2213 582.471 22.16C581.916 23.0773 581.223 23.536 580.391 23.536C580.135 23.536 579.943 23.5253 579.815 23.504C579.132 23.3973 578.545 23.0453 578.055 22.448C577.564 21.8507 576.849 20.5707 575.911 18.608C574.865 16.432 574.311 15.344 574.247 15.344C574.183 15.344 573.991 15.792 573.671 16.688C572.647 19.632 571.921 21.5413 571.495 22.416C571.068 23.2907 570.62 23.8347 570.151 24.048C569.788 24.1973 569.361 24.272 568.871 24.272C568.444 24.272 568.113 24.2187 567.879 24.112C567.452 23.8987 566.94 23.0453 566.343 21.552C565.745 20.0587 564.903 17.4987 563.815 13.872C563.196 11.824 562.887 10.512 562.887 9.936C562.887 9.488 563.036 9.11467 563.335 8.816ZM590.527 1.552C590.889 1.25333 591.263 1.104 591.647 1.104C592.415 1.104 592.98 1.57333 593.343 2.512C593.492 2.93867 593.652 3.96267 593.823 5.584C593.993 7.184 594.132 8.67733 594.239 10.064C594.345 11.4293 594.409 12.112 594.431 12.112C594.473 12.112 594.825 11.8773 595.487 11.408C596.788 10.4907 598.025 10.032 599.199 10.032C600.287 10.032 601.236 10.4373 602.047 11.248C602.879 12.0373 603.529 13.2 603.999 14.736C604.361 15.9307 604.543 17.7867 604.543 20.304C604.543 21.8827 604.447 22.9493 604.255 23.504C604.041 24.08 603.551 24.368 602.783 24.368C602.271 24.368 601.844 24.1973 601.503 23.856L601.023 23.376L600.927 20.144C600.799 15.984 600.223 13.84 599.199 13.712H599.103C598.612 13.712 598.004 13.9893 597.279 14.544C596.553 15.0773 596.031 15.664 595.711 16.304C595.519 16.7307 595.263 17.04 594.943 17.232L594.527 17.52L594.463 21.008C594.42 22.7147 594.377 23.7493 594.335 24.112C594.313 24.4533 594.196 24.7307 593.983 24.944C593.641 25.3067 593.215 25.488 592.703 25.488C591.935 25.488 591.401 25.1467 591.103 24.464C590.953 24.0587 590.847 21.6053 590.783 17.104C590.676 9.57333 590.399 5.06133 589.951 3.568C589.887 3.33333 589.855 3.10933 589.855 2.896C589.855 2.34133 590.079 1.89333 590.527 1.552ZM617.929 13.808C617.545 13.616 617.001 13.52 616.297 13.52C615.529 13.52 614.879 13.6373 614.345 13.872C613.983 14.0213 613.513 14.352 612.937 14.864C612.361 15.3547 612.073 15.6747 612.073 15.824C612.073 15.888 612.404 15.92 613.065 15.92C614.047 15.92 615.22 15.8667 616.585 15.76C617.951 15.6533 618.729 15.536 618.921 15.408C618.985 15.3867 619.017 15.3227 619.017 15.216C619.017 15.024 618.9 14.7787 618.665 14.48C618.431 14.16 618.185 13.936 617.929 13.808ZM614.153 10.096C614.687 9.94667 615.316 9.872 616.041 9.872C617.385 9.872 618.612 10.1387 619.721 10.672C620.553 11.0987 621.247 11.7493 621.801 12.624C622.356 13.4773 622.697 14.4373 622.825 15.504C622.825 15.5467 622.825 15.6107 622.825 15.696C622.847 15.7813 622.857 15.8453 622.857 15.888C622.857 16.4427 622.751 16.9867 622.537 17.52C622.345 18.0533 622.111 18.416 621.833 18.608C621.471 18.864 618.921 19.184 614.185 19.568C613.183 19.6533 612.681 19.7493 612.681 19.856C612.681 19.984 612.905 20.1867 613.353 20.464C613.801 20.7413 614.239 20.9333 614.665 21.04C615.049 21.1253 615.359 21.168 615.593 21.168C616.276 21.168 617.161 20.944 618.249 20.496C619.017 20.176 619.583 20.016 619.945 20.016C620.308 20.016 620.649 20.176 620.969 20.496C621.396 20.9227 621.609 21.328 621.609 21.712C621.609 21.968 621.545 22.2347 621.417 22.512C621.311 22.768 621.161 22.9707 620.969 23.12C620.799 23.2693 620.479 23.4507 620.009 23.664C618.452 24.3467 617.001 24.688 615.657 24.688C614.889 24.688 614.1 24.5707 613.289 24.336C612.201 23.9947 611.209 23.4187 610.313 22.608C609.417 21.776 608.777 20.8587 608.393 19.856C608.159 19.1947 608.041 18.4587 608.041 17.648C608.041 16.4747 608.233 15.4933 608.617 14.704C609.065 13.7227 609.823 12.784 610.889 11.888C611.956 10.992 613.044 10.3947 614.153 10.096ZM626.802 9.328C627.186 9.008 627.602 8.848 628.05 8.848C628.519 8.848 628.924 9.01867 629.266 9.36C629.607 9.68 629.778 10.096 629.778 10.608C629.778 11.12 629.874 11.376 630.066 11.376C630.172 11.376 630.396 11.2587 630.738 11.024C632.316 9.936 633.884 9.392 635.442 9.392C636.103 9.392 636.754 9.50933 637.394 9.744C637.97 9.97867 638.375 10.2347 638.61 10.512C638.844 10.7893 638.962 11.1627 638.962 11.632C638.962 12.144 638.77 12.5813 638.386 12.944C638.066 13.2427 637.778 13.392 637.522 13.392C637.436 13.392 636.839 13.3173 635.73 13.168C635.602 13.1467 635.42 13.136 635.186 13.136C634.844 13.136 634.407 13.2533 633.874 13.488C632.487 14.128 631.516 14.9387 630.962 15.92C630.407 16.9013 630.13 18.3093 630.13 20.144C630.108 21.488 629.948 22.4267 629.65 22.96C629.372 23.4933 628.871 23.76 628.146 23.76C627.655 23.76 627.239 23.5893 626.898 23.248L626.386 22.736L626.322 17.072C626.279 12.8907 626.258 10.736 626.258 10.608C626.258 10.096 626.439 9.66933 626.802 9.328ZM652.367 13.808C651.983 13.616 651.439 13.52 650.735 13.52C649.967 13.52 649.316 13.6373 648.783 13.872C648.42 14.0213 647.951 14.352 647.375 14.864C646.799 15.3547 646.511 15.6747 646.511 15.824C646.511 15.888 646.841 15.92 647.503 15.92C648.484 15.92 649.657 15.8667 651.023 15.76C652.388 15.6533 653.167 15.536 653.359 15.408C653.423 15.3867 653.455 15.3227 653.455 15.216C653.455 15.024 653.337 14.7787 653.103 14.48C652.868 14.16 652.623 13.936 652.367 13.808ZM648.591 10.096C649.124 9.94667 649.753 9.872 650.479 9.872C651.823 9.872 653.049 10.1387 654.159 10.672C654.991 11.0987 655.684 11.7493 656.239 12.624C656.793 13.4773 657.135 14.4373 657.263 15.504C657.263 15.5467 657.263 15.6107 657.263 15.696C657.284 15.7813 657.295 15.8453 657.295 15.888C657.295 16.4427 657.188 16.9867 656.975 17.52C656.783 18.0533 656.548 18.416 656.271 18.608C655.908 18.864 653.359 19.184 648.623 19.568C647.62 19.6533 647.119 19.7493 647.119 19.856C647.119 19.984 647.343 20.1867 647.791 20.464C648.239 20.7413 648.676 20.9333 649.103 21.04C649.487 21.1253 649.796 21.168 650.031 21.168C650.713 21.168 651.599 20.944 652.687 20.496C653.455 20.176 654.02 20.016 654.383 20.016C654.745 20.016 655.087 20.176 655.407 20.496C655.833 20.9227 656.047 21.328 656.047 21.712C656.047 21.968 655.983 22.2347 655.855 22.512C655.748 22.768 655.599 22.9707 655.407 23.12C655.236 23.2693 654.916 23.4507 654.447 23.664C652.889 24.3467 651.439 24.688 650.095 24.688C649.327 24.688 648.537 24.5707 647.727 24.336C646.639 23.9947 645.647 23.4187 644.751 22.608C643.855 21.776 643.215 20.8587 642.831 19.856C642.596 19.1947 642.479 18.4587 642.479 17.648C642.479 16.4747 642.671 15.4933 643.055 14.704C643.503 13.7227 644.26 12.784 645.327 11.888C646.393 10.992 647.481 10.3947 648.591 10.096ZM675.956 8.912C676.041 8.89067 676.169 8.88 676.34 8.88C676.745 8.88 677.119 8.98667 677.46 9.2C677.801 9.392 678.036 9.65867 678.164 10C678.249 10.192 678.335 11.6533 678.42 14.384C678.527 17.0933 678.58 19.2267 678.58 20.784C678.58 21.4453 678.569 21.8293 678.548 21.936C678.441 22.7467 678.089 23.2907 677.492 23.568C677.193 23.696 676.959 23.76 676.788 23.76C676.66 23.76 676.468 23.728 676.212 23.664C675.721 23.5147 675.412 23.312 675.284 23.056C675.028 22.5653 674.879 20.6667 674.836 17.36C674.836 16.7627 674.825 15.728 674.804 14.256L674.772 9.872L675.156 9.424C675.412 9.12533 675.679 8.95467 675.956 8.912ZM675.188 2.896C675.444 2.768 675.689 2.704 675.924 2.704C676.393 2.704 676.809 2.896 677.172 3.28C677.535 3.64267 677.716 4.06933 677.716 4.56C677.716 4.90133 677.631 5.2 677.46 5.456C677.097 6.032 676.607 6.32 675.988 6.32C675.583 6.32 675.209 6.18133 674.868 5.904C674.527 5.62667 674.313 5.24267 674.228 4.752C674.228 4.73067 674.217 4.69867 674.196 4.656C674.196 4.592 674.196 4.54933 674.196 4.528C674.196 4.208 674.292 3.89867 674.484 3.6C674.676 3.28 674.911 3.04533 675.188 2.896ZM682.873 9.072C683.129 8.944 683.396 8.88 683.673 8.88C684.057 8.88 684.42 9.008 684.761 9.264C685.103 9.49867 685.337 9.81867 685.465 10.224L685.657 10.896L686.457 10.416C686.991 10.096 687.727 9.936 688.665 9.936C689.583 9.936 690.34 10.0853 690.937 10.384C691.428 10.6187 691.951 11.0027 692.505 11.536C693.081 12.0693 693.54 12.6027 693.881 13.136C695.033 14.9493 695.663 17.7653 695.769 21.584V22.224C695.769 22.736 695.62 23.152 695.321 23.472C694.959 23.8347 694.532 24.016 694.041 24.016C693.252 24.016 692.729 23.6747 692.473 22.992C692.345 22.6293 692.239 21.9147 692.153 20.848C691.897 17.1147 691.065 14.7787 689.657 13.84C689.359 13.648 689.06 13.552 688.761 13.552C688.207 13.552 687.705 13.8613 687.257 14.48C686.831 15.0773 686.489 15.9307 686.233 17.04C686.127 17.5307 685.999 18.416 685.849 19.696C685.7 20.976 685.625 21.84 685.625 22.288C685.625 22.5013 685.444 22.7893 685.081 23.152C684.719 23.4933 684.303 23.664 683.833 23.664C682.959 23.664 682.383 23.2053 682.105 22.288C681.977 21.84 681.913 19.8987 681.913 16.464C681.913 12.368 681.988 10.1387 682.137 9.776C682.265 9.49867 682.511 9.264 682.873 9.072ZM714.032 1.52C714.394 1.15733 714.832 0.975998 715.344 0.975998C715.728 0.975998 716.069 1.09333 716.368 1.328C716.688 1.54133 716.912 1.85067 717.04 2.256C717.104 2.49067 717.21 3.6 717.36 5.584C717.509 7.54667 717.584 8.912 717.584 9.68C717.584 9.872 717.626 9.98933 717.712 10.032C717.818 10.0747 718.064 10.096 718.448 10.096C719.024 10.096 719.354 10.032 719.44 9.904C719.482 9.79733 719.92 9.744 720.752 9.744C721.818 9.744 722.522 9.81867 722.864 9.968C723.184 10.1173 723.429 10.4053 723.6 10.832C723.749 11.1307 723.824 11.376 723.824 11.568C723.824 11.7173 723.792 11.8987 723.728 12.112C723.578 12.6027 723.301 12.9333 722.896 13.104C722.512 13.2533 721.744 13.36 720.592 13.424C719.29 13.488 718.448 13.5733 718.064 13.68L717.552 13.808L717.68 18.32C717.722 20.3253 717.744 21.4027 717.744 21.552C717.744 22.4907 717.669 23.12 717.52 23.44C717.2 24.1227 716.677 24.464 715.952 24.464C715.674 24.464 715.386 24.4 715.088 24.272C714.853 24.1653 714.682 24.0693 714.576 23.984C714.469 23.8773 714.373 23.6107 714.288 23.184C714.202 22.736 714.149 22.2133 714.128 21.616C714.106 21.0187 714.085 20.0373 714.064 18.672L714 14.032L713.04 14.064C712.464 14.1067 711.952 14.192 711.504 14.32C711.397 14.3627 711.226 14.384 710.992 14.384C710.266 14.384 709.744 14.16 709.424 13.712C709.253 13.4347 709.168 13.0613 709.168 12.592C709.168 12.1867 709.232 11.8667 709.36 11.632C709.658 11.0987 710.704 10.6933 712.496 10.416L713.968 10.192L713.84 7.376C713.754 5.37067 713.68 4.00533 713.616 3.28C713.573 2.768 713.552 2.49067 713.552 2.448C713.552 2.14933 713.712 1.84 714.032 1.52ZM728.12 1.552C728.483 1.25333 728.856 1.104 729.24 1.104C730.008 1.104 730.574 1.57333 730.936 2.512C731.086 2.93867 731.246 3.96267 731.416 5.584C731.587 7.184 731.726 8.67733 731.832 10.064C731.939 11.4293 732.003 12.112 732.024 12.112C732.067 12.112 732.419 11.8773 733.08 11.408C734.382 10.4907 735.619 10.032 736.792 10.032C737.88 10.032 738.83 10.4373 739.64 11.248C740.472 12.0373 741.123 13.2 741.592 14.736C741.955 15.9307 742.136 17.7867 742.136 20.304C742.136 21.8827 742.04 22.9493 741.848 23.504C741.635 24.08 741.144 24.368 740.376 24.368C739.864 24.368 739.438 24.1973 739.096 23.856L738.616 23.376L738.52 20.144C738.392 15.984 737.816 13.84 736.792 13.712H736.696C736.206 13.712 735.598 13.9893 734.872 14.544C734.147 15.0773 733.624 15.664 733.304 16.304C733.112 16.7307 732.856 17.04 732.536 17.232L732.12 17.52L732.056 21.008C732.014 22.7147 731.971 23.7493 731.928 24.112C731.907 24.4533 731.79 24.7307 731.576 24.944C731.235 25.3067 730.808 25.488 730.296 25.488C729.528 25.488 728.995 25.1467 728.696 24.464C728.547 24.0587 728.44 21.6053 728.376 17.104C728.27 9.57333 727.992 5.06133 727.544 3.568C727.48 3.33333 727.448 3.10933 727.448 2.896C727.448 2.34133 727.672 1.89333 728.12 1.552ZM755.523 13.808C755.139 13.616 754.595 13.52 753.891 13.52C753.123 13.52 752.472 13.6373 751.939 13.872C751.576 14.0213 751.107 14.352 750.531 14.864C749.955 15.3547 749.667 15.6747 749.667 15.824C749.667 15.888 749.998 15.92 750.659 15.92C751.64 15.92 752.814 15.8667 754.179 15.76C755.544 15.6533 756.323 15.536 756.515 15.408C756.579 15.3867 756.611 15.3227 756.611 15.216C756.611 15.024 756.494 14.7787 756.259 14.48C756.024 14.16 755.779 13.936 755.523 13.808ZM751.747 10.096C752.28 9.94667 752.91 9.872 753.635 9.872C754.979 9.872 756.206 10.1387 757.315 10.672C758.147 11.0987 758.84 11.7493 759.395 12.624C759.95 13.4773 760.291 14.4373 760.419 15.504C760.419 15.5467 760.419 15.6107 760.419 15.696C760.44 15.7813 760.451 15.8453 760.451 15.888C760.451 16.4427 760.344 16.9867 760.131 17.52C759.939 18.0533 759.704 18.416 759.427 18.608C759.064 18.864 756.515 19.184 751.779 19.568C750.776 19.6533 750.275 19.7493 750.275 19.856C750.275 19.984 750.499 20.1867 750.947 20.464C751.395 20.7413 751.832 20.9333 752.259 21.04C752.643 21.1253 752.952 21.168 753.187 21.168C753.87 21.168 754.755 20.944 755.843 20.496C756.611 20.176 757.176 20.016 757.539 20.016C757.902 20.016 758.243 20.176 758.563 20.496C758.99 20.9227 759.203 21.328 759.203 21.712C759.203 21.968 759.139 22.2347 759.011 22.512C758.904 22.768 758.755 22.9707 758.563 23.12C758.392 23.2693 758.072 23.4507 757.603 23.664C756.046 24.3467 754.595 24.688 753.251 24.688C752.483 24.688 751.694 24.5707 750.883 24.336C749.795 23.9947 748.803 23.4187 747.907 22.608C747.011 21.776 746.371 20.8587 745.987 19.856C745.752 19.1947 745.635 18.4587 745.635 17.648C745.635 16.4747 745.827 15.4933 746.211 14.704C746.659 13.7227 747.416 12.784 748.483 11.888C749.55 10.992 750.638 10.3947 751.747 10.096ZM764.396 9.328C764.78 9.008 765.196 8.848 765.644 8.848C766.113 8.848 766.518 9.01867 766.86 9.36C767.201 9.68 767.372 10.096 767.372 10.608C767.372 11.12 767.468 11.376 767.66 11.376C767.766 11.376 767.99 11.2587 768.332 11.024C769.91 9.936 771.478 9.392 773.036 9.392C773.697 9.392 774.348 9.50933 774.988 9.744C775.564 9.97867 775.969 10.2347 776.204 10.512C776.438 10.7893 776.556 11.1627 776.556 11.632C776.556 12.144 776.364 12.5813 775.98 12.944C775.66 13.2427 775.372 13.392 775.116 13.392C775.03 13.392 774.433 13.3173 773.324 13.168C773.196 13.1467 773.014 13.136 772.78 13.136C772.438 13.136 772.001 13.2533 771.468 13.488C770.081 14.128 769.11 14.9387 768.556 15.92C768.001 16.9013 767.724 18.3093 767.724 20.144C767.702 21.488 767.542 22.4267 767.244 22.96C766.966 23.4933 766.465 23.76 765.74 23.76C765.249 23.76 764.833 23.5893 764.492 23.248L763.98 22.736L763.916 17.072C763.873 12.8907 763.852 10.736 763.852 10.608C763.852 10.096 764.033 9.66933 764.396 9.328ZM789.961 13.808C789.577 13.616 789.033 13.52 788.329 13.52C787.561 13.52 786.91 13.6373 786.377 13.872C786.014 14.0213 785.545 14.352 784.969 14.864C784.393 15.3547 784.105 15.6747 784.105 15.824C784.105 15.888 784.435 15.92 785.097 15.92C786.078 15.92 787.251 15.8667 788.617 15.76C789.982 15.6533 790.761 15.536 790.953 15.408C791.017 15.3867 791.049 15.3227 791.049 15.216C791.049 15.024 790.931 14.7787 790.697 14.48C790.462 14.16 790.217 13.936 789.961 13.808ZM786.185 10.096C786.718 9.94667 787.347 9.872 788.073 9.872C789.417 9.872 790.643 10.1387 791.753 10.672C792.585 11.0987 793.278 11.7493 793.833 12.624C794.387 13.4773 794.729 14.4373 794.857 15.504C794.857 15.5467 794.857 15.6107 794.857 15.696C794.878 15.7813 794.889 15.8453 794.889 15.888C794.889 16.4427 794.782 16.9867 794.569 17.52C794.377 18.0533 794.142 18.416 793.865 18.608C793.502 18.864 790.953 19.184 786.217 19.568C785.214 19.6533 784.713 19.7493 784.713 19.856C784.713 19.984 784.937 20.1867 785.385 20.464C785.833 20.7413 786.27 20.9333 786.697 21.04C787.081 21.1253 787.39 21.168 787.625 21.168C788.307 21.168 789.193 20.944 790.281 20.496C791.049 20.176 791.614 20.016 791.977 20.016C792.339 20.016 792.681 20.176 793.001 20.496C793.427 20.9227 793.641 21.328 793.641 21.712C793.641 21.968 793.577 22.2347 793.449 22.512C793.342 22.768 793.193 22.9707 793.001 23.12C792.83 23.2693 792.51 23.4507 792.041 23.664C790.483 24.3467 789.033 24.688 787.689 24.688C786.921 24.688 786.131 24.5707 785.321 24.336C784.233 23.9947 783.241 23.4187 782.345 22.608C781.449 21.776 780.809 20.8587 780.424 19.856C780.19 19.1947 780.073 18.4587 780.073 17.648C780.073 16.4747 780.265 15.4933 780.649 14.704C781.097 13.7227 781.854 12.784 782.921 11.888C783.987 10.992 785.075 10.3947 786.185 10.096ZM800.945 20.176C801.244 19.9413 801.574 19.824 801.937 19.824C802.385 19.824 802.758 19.9627 803.057 20.24C803.484 20.6027 803.697 21.04 803.697 21.552C803.697 21.9573 803.612 22.384 803.441 22.832C803.356 23.0667 803.025 24.176 802.449 26.16C802.044 27.632 801.66 28.5173 801.297 28.816C800.956 29.1147 800.593 29.264 800.209 29.264C799.804 29.264 799.43 29.1147 799.089 28.816C798.662 28.432 798.449 28.0053 798.449 27.536C798.449 27.2373 798.513 26.8747 798.641 26.448C798.684 26.2987 798.78 25.9147 798.929 25.296C799.1 24.656 799.228 24.1653 799.313 23.824C799.825 21.8187 800.369 20.6027 800.945 20.176Z" fill="white"/>
</svg>
