<svg width="731" height="32" viewBox="0 0 731 32" fill="none" xmlns="http://www.w3.org/2000/svg">
<path d="M11.864 13.232C11.2453 12.6133 10.2853 12.304 8.984 12.304C8.344 12.304 7.77867 12.4107 7.288 12.624C6.81867 12.8373 6.30667 13.2533 5.752 13.872C5.19733 14.4907 4.83467 15.056 4.664 15.568C4.472 16.1227 4.376 16.6453 4.376 17.136C4.376 18.2667 4.824 19.0667 5.72 19.536C6.25333 19.8133 6.94667 19.952 7.8 19.952C8.376 19.952 8.81333 19.8773 9.112 19.728C10.84 18.8533 11.896 17.2853 12.28 15.024L12.472 13.808L11.864 13.232ZM7 8.88C7.512 8.73067 8.10933 8.656 8.792 8.656C9.944 8.656 11.0747 8.85867 12.184 9.264C13.2933 9.66933 14.0613 10.1813 14.488 10.8C14.7867 11.2267 15.1707 11.6747 15.64 12.144C16.152 12.6773 16.6213 13.5947 17.048 14.896C17.4533 16.1333 17.8267 17.5093 18.168 19.024C18.5307 20.5387 18.712 21.5627 18.712 22.096C18.712 22.6293 18.552 23.0453 18.232 23.344C17.8267 23.728 17.4427 23.92 17.08 23.92C16.9307 23.92 16.7387 23.888 16.504 23.824C16.0987 23.6747 15.7787 23.4187 15.544 23.056C15.3307 22.6933 15.1387 22.1067 14.968 21.296C14.7547 20.336 14.6373 19.856 14.616 19.856C14.5307 19.856 14.0827 20.2613 13.272 21.072C11.672 22.6293 10.008 23.472 8.28 23.6H7.832C6.78667 23.6 5.76267 23.4187 4.76 23.056C3.77867 22.6933 3 22.2133 2.424 21.616C2.12533 21.3173 1.82667 20.8693 1.528 20.272C1.22933 19.6533 1.02667 19.088 0.92 18.576C0.813333 18.0427 0.76 17.5627 0.76 17.136C0.76 15.3653 1.35733 13.6693 2.552 12.048C3.768 10.4267 5.25067 9.37067 7 8.88ZM23.1233 9.072C23.3793 8.944 23.6459 8.88 23.9233 8.88C24.3073 8.88 24.6699 9.008 25.0113 9.264C25.3526 9.49867 25.5873 9.81867 25.7153 10.224L25.9073 10.896L26.7073 10.416C27.2406 10.096 27.9766 9.936 28.9153 9.936C29.8326 9.936 30.5899 10.0853 31.1873 10.384C31.6779 10.6187 32.2006 11.0027 32.7553 11.536C33.3313 12.0693 33.7899 12.6027 34.1313 13.136C35.2833 14.9493 35.9126 17.7653 36.0193 21.584V22.224C36.0193 22.736 35.8699 23.152 35.5713 23.472C35.2086 23.8347 34.7819 24.016 34.2913 24.016C33.5019 24.016 32.9793 23.6747 32.7233 22.992C32.5953 22.6293 32.4886 21.9147 32.4033 20.848C32.1473 17.1147 31.3153 14.7787 29.9073 13.84C29.6086 13.648 29.3099 13.552 29.0113 13.552C28.4566 13.552 27.9553 13.8613 27.5073 14.48C27.0806 15.0773 26.7393 15.9307 26.4833 17.04C26.3766 17.5307 26.2486 18.416 26.0993 19.696C25.9499 20.976 25.8753 21.84 25.8753 22.288C25.8753 22.5013 25.6939 22.7893 25.3313 23.152C24.9686 23.4933 24.5526 23.664 24.0833 23.664C23.2086 23.664 22.6326 23.2053 22.3553 22.288C22.2273 21.84 22.1633 19.8987 22.1633 16.464C22.1633 12.368 22.2379 10.1387 22.3873 9.776C22.5153 9.49867 22.7606 9.264 23.1233 9.072ZM47.6045 13.872C47.4125 13.6373 47.0818 13.52 46.6125 13.52C46.2285 13.52 45.8445 13.616 45.4605 13.808C44.8845 14.0853 44.3405 14.672 43.8285 15.568C43.3165 16.464 43.0605 17.2533 43.0605 17.936C43.0605 18.1493 43.0925 18.3307 43.1565 18.48C43.3058 18.8213 43.6685 19.1413 44.2445 19.44C44.8205 19.7173 45.3645 19.856 45.8765 19.856C45.9832 19.856 46.1432 19.8347 46.3565 19.792C46.8472 19.6427 47.3378 19.2373 47.8285 18.576C48.3405 17.8933 48.7352 17.0933 49.0125 16.176C49.1832 15.6213 49.2685 15.248 49.2685 15.056C49.2685 14.7573 49.0445 14.544 48.5965 14.416C48.0845 14.224 47.7538 14.0427 47.6045 13.872ZM50.1965 2.704C50.3885 2.61867 50.6125 2.576 50.8685 2.576C51.6792 2.576 52.2232 2.928 52.5005 3.632C52.6285 3.952 52.8312 5.24267 53.1085 7.504C53.3645 9.872 53.5138 11.2053 53.5565 11.504C54.4312 17.84 54.8685 21.4667 54.8685 22.384C54.8685 22.8107 54.6872 23.184 54.3245 23.504C53.9832 23.824 53.5885 23.984 53.1405 23.984C52.5218 23.984 52.0418 23.76 51.7005 23.312C51.3592 22.8427 51.1885 22.2133 51.1885 21.424C51.1885 21.0827 51.1458 20.8693 51.0605 20.784H51.0285C50.9005 20.784 50.5058 21.0933 49.8445 21.712C49.1405 22.416 48.4578 22.8853 47.7965 23.12C47.1992 23.3547 46.5165 23.472 45.7485 23.472C44.6178 23.472 43.5298 23.1947 42.4845 22.64C41.4392 22.064 40.6285 21.3067 40.0525 20.368C39.8392 20.0053 39.7005 19.696 39.6365 19.44C39.5938 19.1627 39.5725 18.64 39.5725 17.872C39.5938 16.8907 39.7112 16.0693 39.9245 15.408C40.1378 14.7467 40.5325 13.9787 41.1085 13.104C41.5138 12.4853 42.0898 11.888 42.8365 11.312C43.5832 10.736 44.2338 10.3627 44.7885 10.192C45.3432 10.0427 45.9298 9.968 46.5485 9.968C47.3165 9.968 47.9885 10.064 48.5645 10.256C49.1832 10.448 49.5138 10.544 49.5565 10.544C49.5992 10.544 49.6205 10.416 49.6205 10.16C49.6205 9.456 49.5352 8.57067 49.3645 7.504C49.2152 6.62933 49.1405 5.84 49.1405 5.136C49.1405 3.81333 49.4925 3.00267 50.1965 2.704ZM73.5498 8.912C73.6351 8.89067 73.7631 8.88 73.9338 8.88C74.3391 8.88 74.7124 8.98667 75.0538 9.2C75.3951 9.392 75.6298 9.65867 75.7578 10C75.8431 10.192 75.9284 11.6533 76.0138 14.384C76.1204 17.0933 76.1738 19.2267 76.1738 20.784C76.1738 21.4453 76.1631 21.8293 76.1418 21.936C76.0351 22.7467 75.6831 23.2907 75.0858 23.568C74.7871 23.696 74.5524 23.76 74.3818 23.76C74.2538 23.76 74.0618 23.728 73.8058 23.664C73.3151 23.5147 73.0058 23.312 72.8778 23.056C72.6218 22.5653 72.4724 20.6667 72.4298 17.36C72.4298 16.7627 72.4191 15.728 72.3978 14.256L72.3658 9.872L72.7498 9.424C73.0058 9.12533 73.2724 8.95467 73.5498 8.912ZM72.7818 2.896C73.0378 2.768 73.2831 2.704 73.5178 2.704C73.9871 2.704 74.4031 2.896 74.7658 3.28C75.1284 3.64267 75.3098 4.06933 75.3098 4.56C75.3098 4.90133 75.2244 5.2 75.0538 5.456C74.6911 6.032 74.2004 6.32 73.5818 6.32C73.1764 6.32 72.8031 6.18133 72.4618 5.904C72.1204 5.62667 71.9071 5.24267 71.8218 4.752C71.8218 4.73067 71.8111 4.69867 71.7898 4.656C71.7898 4.592 71.7898 4.54933 71.7898 4.528C71.7898 4.208 71.8858 3.89867 72.0778 3.6C72.2698 3.28 72.5044 3.04533 72.7818 2.896ZM87.123 1.264C87.3363 1.2 87.603 1.168 87.923 1.168C88.947 1.168 89.7577 1.33867 90.355 1.68C91.1657 2.17067 91.571 2.832 91.571 3.664C91.571 4.304 91.283 4.77333 90.707 5.072C90.4297 5.22133 90.131 5.296 89.811 5.296C89.491 5.296 89.1177 5.2 88.691 5.008C88.3497 4.85867 88.1683 4.784 88.147 4.784C88.0617 4.784 87.923 4.88 87.731 5.072C87.4963 5.30667 87.2937 5.78667 87.123 6.512C86.9523 7.23733 86.867 8.03733 86.867 8.912V9.584C86.867 9.88267 86.899 10.0853 86.963 10.192C87.027 10.2987 87.1763 10.352 87.411 10.352C87.6243 10.352 88.1363 10.2987 88.947 10.192C89.139 10.1707 89.395 10.16 89.715 10.16C91.187 10.16 91.923 10.7573 91.923 11.952C91.9017 12.5707 91.6777 13.0187 91.251 13.296C90.8457 13.552 90.1203 13.7227 89.075 13.808C88.0723 13.8933 87.5177 13.968 87.411 14.032C87.3897 14.032 87.379 14.128 87.379 14.32C87.379 14.8747 87.4857 15.9733 87.699 17.616C87.9123 19.2587 88.115 20.5493 88.307 21.488C88.3923 22 88.435 22.352 88.435 22.544C88.435 23.2693 88.2643 23.8453 87.923 24.272C87.5817 24.6987 87.1123 24.912 86.515 24.912C86.0243 24.912 85.6083 24.752 85.267 24.432C85.0323 24.176 84.8723 23.8987 84.787 23.6C84.723 23.28 84.627 22.448 84.499 21.104C84.2857 19.0773 84.0937 17.4773 83.923 16.304L83.635 14.288L82.067 14.224C81.3417 14.1813 80.883 14.128 80.691 14.064C80.499 14 80.307 13.8613 80.115 13.648C79.8377 13.3067 79.699 12.8907 79.699 12.4C79.699 12.1013 79.763 11.824 79.891 11.568C80.1897 11.056 80.9363 10.736 82.131 10.608L83.155 10.512L83.251 8.56C83.379 6.34133 83.7523 4.656 84.371 3.504C84.9897 2.33067 85.907 1.584 87.123 1.264ZM106.93 4.272C107.271 3.952 107.591 3.792 107.89 3.792C108.06 3.792 108.21 3.80267 108.338 3.824C108.914 3.888 109.319 4.08 109.554 4.4L109.97 4.88L109.906 13.264C109.884 18.7893 109.788 21.7653 109.618 22.192C109.34 22.832 108.807 23.152 108.018 23.152C107.762 23.152 107.57 23.1307 107.442 23.088C107.122 22.9813 106.908 22.9067 106.802 22.864C106.716 22.8 106.61 22.608 106.482 22.288C106.375 21.9467 106.311 21.4773 106.29 20.88C106.268 20.2827 106.258 19.3653 106.258 18.128C106.258 17.7867 106.258 17.0933 106.258 16.048C106.279 15.0027 106.29 14.128 106.29 13.424L106.322 4.784L106.93 4.272ZM123.646 9.328C124.03 9.008 124.446 8.848 124.894 8.848C125.363 8.848 125.768 9.01867 126.11 9.36C126.451 9.68 126.622 10.096 126.622 10.608C126.622 11.12 126.718 11.376 126.91 11.376C127.016 11.376 127.24 11.2587 127.582 11.024C129.16 9.936 130.728 9.392 132.286 9.392C132.947 9.392 133.598 9.50933 134.238 9.744C134.814 9.97867 135.219 10.2347 135.454 10.512C135.688 10.7893 135.806 11.1627 135.806 11.632C135.806 12.144 135.614 12.5813 135.23 12.944C134.91 13.2427 134.622 13.392 134.366 13.392C134.28 13.392 133.683 13.3173 132.574 13.168C132.446 13.1467 132.264 13.136 132.03 13.136C131.688 13.136 131.251 13.2533 130.718 13.488C129.331 14.128 128.36 14.9387 127.806 15.92C127.251 16.9013 126.974 18.3093 126.974 20.144C126.952 21.488 126.792 22.4267 126.494 22.96C126.216 23.4933 125.715 23.76 124.99 23.76C124.499 23.76 124.083 23.5893 123.742 23.248L123.23 22.736L123.166 17.072C123.123 12.8907 123.102 10.736 123.102 10.608C123.102 10.096 123.283 9.66933 123.646 9.328ZM148.091 12.944C147.707 12.6667 147.099 12.528 146.267 12.528C145.755 12.528 145.349 12.592 145.051 12.72C144.773 12.848 144.453 13.1147 144.091 13.52C143.749 13.904 143.579 14.1813 143.579 14.352C143.579 14.5013 143.739 14.576 144.059 14.576C144.485 14.5547 145.371 14.4587 146.715 14.288C148.059 14.1173 148.752 14.0107 148.795 13.968C148.816 13.9467 148.827 13.9147 148.827 13.872C148.827 13.6373 148.581 13.328 148.091 12.944ZM144.635 9.04C145.019 8.93333 145.488 8.88 146.043 8.88C147.173 8.88 148.144 9.04 148.955 9.36C149.616 9.59467 150.267 10.0533 150.907 10.736C151.568 11.3973 152.112 12.144 152.539 12.976C152.965 13.8293 153.179 14.4053 153.179 14.704C153.179 15.3867 152.88 16.0267 152.283 16.624C151.643 17.2 149.648 17.6267 146.299 17.904C145.019 18.0107 144.187 18.096 143.803 18.16C143.419 18.224 143.227 18.32 143.227 18.448C143.227 18.5547 143.419 18.7787 143.803 19.12C144.464 19.76 145.648 20.144 147.355 20.272C147.525 20.2933 147.749 20.304 148.027 20.304C148.475 20.304 149.008 20.1973 149.627 19.984C150.501 19.664 151.195 19.504 151.707 19.504C152.475 19.504 152.976 19.888 153.211 20.656C153.275 20.848 153.307 21.0293 153.307 21.2C153.307 21.9253 152.848 22.5227 151.931 22.992C151.035 23.44 149.765 23.696 148.123 23.76C148.037 23.76 147.92 23.7707 147.771 23.792C147.621 23.792 147.515 23.792 147.451 23.792C145.637 23.792 144.069 23.44 142.747 22.736C141.445 22.0107 140.464 20.9867 139.803 19.664C139.483 19.024 139.323 18.1707 139.323 17.104C139.323 16.0373 139.429 15.1947 139.643 14.576C140.176 12.976 140.837 11.7493 141.627 10.896C142.416 10.0213 143.419 9.40267 144.635 9.04ZM166.007 13.68C165.901 13.3387 165.805 13.1467 165.719 13.104C165.634 13.04 165.399 13.008 165.015 13.008C163.906 13.0293 162.871 13.552 161.911 14.576C160.951 15.5787 160.471 16.592 160.471 17.616C160.471 18.128 160.61 18.5547 160.887 18.896C161.506 19.5787 162.157 19.92 162.839 19.92C162.882 19.92 162.925 19.92 162.967 19.92C163.01 19.8987 163.053 19.888 163.095 19.888C163.479 19.8027 163.885 19.5467 164.311 19.12C164.759 18.6933 165.101 18.224 165.335 17.712C165.826 16.56 166.071 15.44 166.071 14.352C166.071 14.032 166.05 13.808 166.007 13.68ZM163.031 9.648C163.607 9.456 164.269 9.36 165.015 9.36C165.997 9.36 166.829 9.52 167.511 9.84C167.959 10.0747 168.365 10.4267 168.727 10.896C169.111 11.344 169.346 11.7707 169.431 12.176C169.517 12.5813 169.634 12.9653 169.783 13.328C170.018 13.9467 170.487 16.272 171.191 20.304C171.298 20.944 171.351 21.424 171.351 21.744C171.351 23.024 170.754 23.664 169.559 23.664C169.154 23.664 168.781 23.504 168.439 23.184C168.119 22.864 167.917 22.4693 167.831 22C167.746 21.5733 167.671 21.328 167.607 21.264C167.522 21.2 167.277 21.3707 166.871 21.776C165.655 22.992 164.258 23.6 162.679 23.6C162.402 23.6 162.114 23.568 161.815 23.504C160.642 23.248 159.543 22.608 158.519 21.584C157.367 20.432 156.791 19.1413 156.791 17.712C156.791 16.5813 157.143 15.3547 157.847 14.032C158.381 13.0293 159.106 12.1333 160.023 11.344C160.962 10.5547 161.965 9.98933 163.031 9.648ZM176.325 2.864C176.602 2.75733 176.848 2.704 177.061 2.704C177.381 2.704 177.701 2.8 178.021 2.992C178.341 3.20533 178.554 3.44 178.661 3.696C178.789 3.952 178.853 4.44267 178.853 5.168C178.853 6 178.81 7.056 178.725 8.336C178.576 10.96 178.48 14.0533 178.437 17.616C178.437 21.0933 178.362 22.9707 178.213 23.248C178.106 23.4613 177.882 23.6747 177.541 23.888C177.221 24.08 176.944 24.176 176.709 24.176C176.453 24.176 176.165 24.0693 175.845 23.856C175.525 23.6427 175.301 23.408 175.173 23.152C174.917 22.64 174.789 20.9227 174.789 18C174.789 15.056 174.917 11.1733 175.173 6.352C175.237 5.09333 175.344 4.24 175.493 3.792C175.642 3.344 175.92 3.03467 176.325 2.864ZM183.763 2.864C184.04 2.75733 184.285 2.704 184.499 2.704C184.819 2.704 185.139 2.8 185.459 2.992C185.779 3.20533 185.992 3.44 186.099 3.696C186.227 3.952 186.291 4.44267 186.291 5.168C186.291 6 186.248 7.056 186.163 8.336C186.013 10.96 185.917 14.0533 185.875 17.616C185.875 21.0933 185.8 22.9707 185.651 23.248C185.544 23.4613 185.32 23.6747 184.979 23.888C184.659 24.08 184.381 24.176 184.147 24.176C183.891 24.176 183.603 24.0693 183.283 23.856C182.963 23.6427 182.739 23.408 182.611 23.152C182.355 22.64 182.227 20.9227 182.227 18C182.227 15.056 182.355 11.1733 182.611 6.352C182.675 5.09333 182.781 4.24 182.931 3.792C183.08 3.344 183.357 3.03467 183.763 2.864ZM201.728 8.272C201.941 8.208 202.101 8.176 202.208 8.176C202.293 8.176 202.539 8.26133 202.944 8.432C203.371 8.60267 203.669 8.89067 203.84 9.296C203.925 9.46667 203.968 9.65867 203.968 9.872C203.968 10.192 203.712 11.1627 203.2 12.784C202.261 15.792 201.077 18.8107 199.648 21.84C198.987 23.2907 197.973 25.168 196.608 27.472C195.243 29.7973 194.411 31.0453 194.112 31.216C193.771 31.4293 193.419 31.536 193.056 31.536C192.565 31.536 192.139 31.3653 191.776 31.024C191.435 30.704 191.264 30.2773 191.264 29.744C191.264 29.36 191.605 28.6347 192.288 27.568C192.821 26.736 193.515 25.5627 194.368 24.048C195.221 22.512 195.648 21.6907 195.648 21.584C195.648 21.52 195.413 21.0933 194.944 20.304C194.731 19.9627 193.973 18.576 192.672 16.144C191.392 13.6907 190.613 12.272 190.336 11.888C189.995 11.3973 189.824 10.9067 189.824 10.416C189.824 9.712 190.165 9.21067 190.848 8.912C191.104 8.80533 191.328 8.752 191.52 8.752C191.968 8.752 192.405 9.008 192.832 9.52C193.259 10.0107 193.803 10.864 194.464 12.08C195.893 14.7253 196.864 16.4533 197.376 17.264C197.483 17.4133 197.547 17.488 197.568 17.488C197.653 17.488 197.867 17.0293 198.208 16.112C198.699 14.768 199.189 13.3387 199.68 11.824C200.107 10.4587 200.448 9.552 200.704 9.104C200.981 8.656 201.323 8.37867 201.728 8.272ZM222.219 1.52C222.582 1.15733 223.019 0.975998 223.531 0.975998C223.915 0.975998 224.257 1.09333 224.555 1.328C224.875 1.54133 225.099 1.85067 225.227 2.256C225.291 2.49067 225.398 3.6 225.547 5.584C225.697 7.54667 225.771 8.912 225.771 9.68C225.771 9.872 225.814 9.98933 225.899 10.032C226.006 10.0747 226.251 10.096 226.635 10.096C227.211 10.096 227.542 10.032 227.627 9.904C227.67 9.79733 228.107 9.744 228.939 9.744C230.006 9.744 230.71 9.81867 231.051 9.968C231.371 10.1173 231.617 10.4053 231.787 10.832C231.937 11.1307 232.011 11.376 232.011 11.568C232.011 11.7173 231.979 11.8987 231.915 12.112C231.766 12.6027 231.489 12.9333 231.083 13.104C230.699 13.2533 229.931 13.36 228.779 13.424C227.478 13.488 226.635 13.5733 226.251 13.68L225.739 13.808L225.867 18.32C225.91 20.3253 225.931 21.4027 225.931 21.552C225.931 22.4907 225.857 23.12 225.707 23.44C225.387 24.1227 224.865 24.464 224.139 24.464C223.862 24.464 223.574 24.4 223.275 24.272C223.041 24.1653 222.87 24.0693 222.763 23.984C222.657 23.8773 222.561 23.6107 222.475 23.184C222.39 22.736 222.337 22.2133 222.315 21.616C222.294 21.0187 222.273 20.0373 222.251 18.672L222.187 14.032L221.227 14.064C220.651 14.1067 220.139 14.192 219.691 14.32C219.585 14.3627 219.414 14.384 219.179 14.384C218.454 14.384 217.931 14.16 217.611 13.712C217.441 13.4347 217.355 13.0613 217.355 12.592C217.355 12.1867 217.419 11.8667 217.547 11.632C217.846 11.0987 218.891 10.6933 220.683 10.416L222.155 10.192L222.027 7.376C221.942 5.37067 221.867 4.00533 221.803 3.28C221.761 2.768 221.739 2.49067 221.739 2.448C221.739 2.14933 221.899 1.84 222.219 1.52ZM236.052 9.328C236.436 9.008 236.852 8.848 237.3 8.848C237.769 8.848 238.174 9.01867 238.516 9.36C238.857 9.68 239.028 10.096 239.028 10.608C239.028 11.12 239.124 11.376 239.316 11.376C239.422 11.376 239.646 11.2587 239.988 11.024C241.566 9.936 243.134 9.392 244.692 9.392C245.353 9.392 246.004 9.50933 246.644 9.744C247.22 9.97867 247.625 10.2347 247.86 10.512C248.094 10.7893 248.212 11.1627 248.212 11.632C248.212 12.144 248.02 12.5813 247.636 12.944C247.316 13.2427 247.028 13.392 246.772 13.392C246.686 13.392 246.089 13.3173 244.98 13.168C244.852 13.1467 244.67 13.136 244.436 13.136C244.094 13.136 243.657 13.2533 243.124 13.488C241.737 14.128 240.766 14.9387 240.212 15.92C239.657 16.9013 239.38 18.3093 239.38 20.144C239.358 21.488 239.198 22.4267 238.9 22.96C238.622 23.4933 238.121 23.76 237.396 23.76C236.905 23.76 236.489 23.5893 236.148 23.248L235.636 22.736L235.572 17.072C235.529 12.8907 235.508 10.736 235.508 10.608C235.508 10.096 235.689 9.66933 236.052 9.328ZM263.697 8.272C263.91 8.208 264.07 8.176 264.177 8.176C264.262 8.176 264.507 8.26133 264.913 8.432C265.339 8.60267 265.638 8.89067 265.809 9.296C265.894 9.46667 265.937 9.65867 265.937 9.872C265.937 10.192 265.681 11.1627 265.169 12.784C264.23 15.792 263.046 18.8107 261.617 21.84C260.955 23.2907 259.942 25.168 258.577 27.472C257.211 29.7973 256.379 31.0453 256.081 31.216C255.739 31.4293 255.387 31.536 255.025 31.536C254.534 31.536 254.107 31.3653 253.745 31.024C253.403 30.704 253.233 30.2773 253.233 29.744C253.233 29.36 253.574 28.6347 254.257 27.568C254.79 26.736 255.483 25.5627 256.337 24.048C257.19 22.512 257.617 21.6907 257.617 21.584C257.617 21.52 257.382 21.0933 256.913 20.304C256.699 19.9627 255.942 18.576 254.641 16.144C253.361 13.6907 252.582 12.272 252.305 11.888C251.963 11.3973 251.793 10.9067 251.793 10.416C251.793 9.712 252.134 9.21067 252.817 8.912C253.073 8.80533 253.297 8.752 253.489 8.752C253.937 8.752 254.374 9.008 254.801 9.52C255.227 10.0107 255.771 10.864 256.433 12.08C257.862 14.7253 258.833 16.4533 259.345 17.264C259.451 17.4133 259.515 17.488 259.537 17.488C259.622 17.488 259.835 17.0293 260.177 16.112C260.667 14.768 261.158 13.3387 261.649 11.824C262.075 10.4587 262.417 9.552 262.673 9.104C262.95 8.656 263.291 8.37867 263.697 8.272ZM272.039 20.176C272.337 19.9413 272.668 19.824 273.031 19.824C273.479 19.824 273.852 19.9627 274.151 20.24C274.577 20.6027 274.791 21.04 274.791 21.552C274.791 21.9573 274.705 22.384 274.535 22.832C274.449 23.0667 274.119 24.176 273.543 26.16C273.137 27.632 272.753 28.5173 272.391 28.816C272.049 29.1147 271.687 29.264 271.303 29.264C270.897 29.264 270.524 29.1147 270.183 28.816C269.756 28.432 269.543 28.0053 269.543 27.536C269.543 27.2373 269.607 26.8747 269.735 26.448C269.777 26.2987 269.873 25.9147 270.023 25.296C270.193 24.656 270.321 24.1653 270.407 23.824C270.919 21.8187 271.463 20.6027 272.039 20.176ZM289.805 4.272C290.146 3.952 290.466 3.792 290.765 3.792C290.935 3.792 291.085 3.80267 291.213 3.824C291.789 3.888 292.194 4.08 292.429 4.4L292.845 4.88L292.781 13.264C292.759 18.7893 292.663 21.7653 292.493 22.192C292.215 22.832 291.682 23.152 290.893 23.152C290.637 23.152 290.445 23.1307 290.317 23.088C289.997 22.9813 289.783 22.9067 289.677 22.864C289.591 22.8 289.485 22.608 289.357 22.288C289.25 21.9467 289.186 21.4773 289.165 20.88C289.143 20.2827 289.133 19.3653 289.133 18.128C289.133 17.7867 289.133 17.0933 289.133 16.048C289.154 15.0027 289.165 14.128 289.165 13.424L289.197 4.784L289.805 4.272ZM313.824 9.392C314.165 9.264 314.699 9.2 315.424 9.2C315.808 9.2 316.117 9.21067 316.352 9.232C317.205 9.25333 317.792 9.30667 318.112 9.392C318.432 9.456 318.859 9.616 319.392 9.872C320.907 10.64 321.664 11.568 321.664 12.656C321.664 12.8907 321.589 13.1787 321.44 13.52C321.12 14.1387 320.629 14.448 319.968 14.448C319.371 14.448 318.827 14.1707 318.336 13.616C318.101 13.36 317.888 13.1893 317.696 13.104C317.504 12.9973 317.195 12.912 316.768 12.848C316.341 12.8053 316.053 12.784 315.904 12.784C315.157 12.784 314.613 13.0187 314.272 13.488C313.675 14.3627 313.376 15.312 313.376 16.336C313.376 17.4453 313.717 18.3947 314.4 19.184C315.083 19.952 315.979 20.336 317.088 20.336C317.515 20.336 318.112 20.2293 318.88 20.016C319.648 19.7813 320.16 19.568 320.416 19.376C320.629 19.2053 321.003 19.12 321.536 19.12C322.048 19.12 322.464 19.28 322.784 19.6C323.125 19.92 323.296 20.3253 323.296 20.816C323.296 21.264 323.189 21.6267 322.976 21.904C322.763 22.1813 322.357 22.4693 321.76 22.768C320.224 23.536 318.688 23.92 317.152 23.92C314.613 23.92 312.683 23.0133 311.36 21.2C310.293 19.7493 309.76 18.16 309.76 16.432C309.76 15.3653 309.973 14.2453 310.4 13.072C310.72 12.24 311.189 11.4827 311.808 10.8C312.448 10.1173 313.12 9.648 313.824 9.392ZM337.989 13.232C337.37 12.6133 336.41 12.304 335.109 12.304C334.469 12.304 333.904 12.4107 333.413 12.624C332.944 12.8373 332.432 13.2533 331.877 13.872C331.322 14.4907 330.96 15.056 330.789 15.568C330.597 16.1227 330.501 16.6453 330.501 17.136C330.501 18.2667 330.949 19.0667 331.845 19.536C332.378 19.8133 333.072 19.952 333.925 19.952C334.501 19.952 334.938 19.8773 335.237 19.728C336.965 18.8533 338.021 17.2853 338.405 15.024L338.597 13.808L337.989 13.232ZM333.125 8.88C333.637 8.73067 334.234 8.656 334.917 8.656C336.069 8.656 337.2 8.85867 338.309 9.264C339.418 9.66933 340.186 10.1813 340.613 10.8C340.912 11.2267 341.296 11.6747 341.765 12.144C342.277 12.6773 342.746 13.5947 343.173 14.896C343.578 16.1333 343.952 17.5093 344.293 19.024C344.656 20.5387 344.837 21.5627 344.837 22.096C344.837 22.6293 344.677 23.0453 344.357 23.344C343.952 23.728 343.568 23.92 343.205 23.92C343.056 23.92 342.864 23.888 342.629 23.824C342.224 23.6747 341.904 23.4187 341.669 23.056C341.456 22.6933 341.264 22.1067 341.093 21.296C340.88 20.336 340.762 19.856 340.741 19.856C340.656 19.856 340.208 20.2613 339.397 21.072C337.797 22.6293 336.133 23.472 334.405 23.6H333.957C332.912 23.6 331.888 23.4187 330.885 23.056C329.904 22.6933 329.125 22.2133 328.549 21.616C328.25 21.3173 327.952 20.8693 327.653 20.272C327.354 19.6533 327.152 19.088 327.045 18.576C326.938 18.0427 326.885 17.5627 326.885 17.136C326.885 15.3653 327.482 13.6693 328.677 12.048C329.893 10.4267 331.376 9.37067 333.125 8.88ZM349.248 9.072C349.504 8.944 349.771 8.88 350.048 8.88C350.432 8.88 350.795 9.008 351.136 9.264C351.478 9.49867 351.712 9.81867 351.84 10.224L352.032 10.896L352.832 10.416C353.366 10.096 354.102 9.936 355.04 9.936C355.958 9.936 356.715 10.0853 357.312 10.384C357.803 10.6187 358.326 11.0027 358.88 11.536C359.456 12.0693 359.915 12.6027 360.256 13.136C361.408 14.9493 362.038 17.7653 362.144 21.584V22.224C362.144 22.736 361.995 23.152 361.696 23.472C361.334 23.8347 360.907 24.016 360.416 24.016C359.627 24.016 359.104 23.6747 358.848 22.992C358.72 22.6293 358.614 21.9147 358.528 20.848C358.272 17.1147 357.44 14.7787 356.032 13.84C355.734 13.648 355.435 13.552 355.136 13.552C354.582 13.552 354.08 13.8613 353.632 14.48C353.206 15.0773 352.864 15.9307 352.608 17.04C352.502 17.5307 352.374 18.416 352.224 19.696C352.075 20.976 352 21.84 352 22.288C352 22.5013 351.819 22.7893 351.456 23.152C351.094 23.4933 350.678 23.664 350.208 23.664C349.334 23.664 348.758 23.2053 348.48 22.288C348.352 21.84 348.288 19.8987 348.288 16.464C348.288 12.368 348.363 10.1387 348.512 9.776C348.64 9.49867 348.886 9.264 349.248 9.072ZM375.927 9.328C376.311 9.008 376.727 8.848 377.175 8.848C377.644 8.848 378.049 9.01867 378.391 9.36C378.732 9.68 378.903 10.096 378.903 10.608C378.903 11.12 378.999 11.376 379.191 11.376C379.297 11.376 379.521 11.2587 379.863 11.024C381.441 9.936 383.009 9.392 384.567 9.392C385.228 9.392 385.879 9.50933 386.519 9.744C387.095 9.97867 387.5 10.2347 387.735 10.512C387.969 10.7893 388.087 11.1627 388.087 11.632C388.087 12.144 387.895 12.5813 387.511 12.944C387.191 13.2427 386.903 13.392 386.647 13.392C386.561 13.392 385.964 13.3173 384.855 13.168C384.727 13.1467 384.545 13.136 384.311 13.136C383.969 13.136 383.532 13.2533 382.999 13.488C381.612 14.128 380.641 14.9387 380.087 15.92C379.532 16.9013 379.255 18.3093 379.255 20.144C379.233 21.488 379.073 22.4267 378.775 22.96C378.497 23.4933 377.996 23.76 377.271 23.76C376.78 23.76 376.364 23.5893 376.023 23.248L375.511 22.736L375.447 17.072C375.404 12.8907 375.383 10.736 375.383 10.608C375.383 10.096 375.564 9.66933 375.927 9.328ZM400.372 12.944C399.988 12.6667 399.38 12.528 398.548 12.528C398.036 12.528 397.63 12.592 397.332 12.72C397.054 12.848 396.734 13.1147 396.372 13.52C396.03 13.904 395.86 14.1813 395.86 14.352C395.86 14.5013 396.02 14.576 396.34 14.576C396.766 14.5547 397.652 14.4587 398.996 14.288C400.34 14.1173 401.033 14.0107 401.076 13.968C401.097 13.9467 401.108 13.9147 401.108 13.872C401.108 13.6373 400.862 13.328 400.372 12.944ZM396.916 9.04C397.3 8.93333 397.769 8.88 398.324 8.88C399.454 8.88 400.425 9.04 401.236 9.36C401.897 9.59467 402.548 10.0533 403.188 10.736C403.849 11.3973 404.393 12.144 404.82 12.976C405.246 13.8293 405.46 14.4053 405.46 14.704C405.46 15.3867 405.161 16.0267 404.564 16.624C403.924 17.2 401.929 17.6267 398.58 17.904C397.3 18.0107 396.468 18.096 396.084 18.16C395.7 18.224 395.508 18.32 395.508 18.448C395.508 18.5547 395.7 18.7787 396.084 19.12C396.745 19.76 397.929 20.144 399.636 20.272C399.806 20.2933 400.03 20.304 400.308 20.304C400.756 20.304 401.289 20.1973 401.908 19.984C402.782 19.664 403.476 19.504 403.988 19.504C404.756 19.504 405.257 19.888 405.492 20.656C405.556 20.848 405.588 21.0293 405.588 21.2C405.588 21.9253 405.129 22.5227 404.212 22.992C403.316 23.44 402.046 23.696 400.404 23.76C400.318 23.76 400.201 23.7707 400.052 23.792C399.902 23.792 399.796 23.792 399.732 23.792C397.918 23.792 396.35 23.44 395.028 22.736C393.726 22.0107 392.745 20.9867 392.084 19.664C391.764 19.024 391.604 18.1707 391.604 17.104C391.604 16.0373 391.71 15.1947 391.924 14.576C392.457 12.976 393.118 11.7493 393.908 10.896C394.697 10.0213 395.7 9.40267 396.916 9.04ZM420.177 13.232C419.558 12.6133 418.598 12.304 417.297 12.304C416.657 12.304 416.091 12.4107 415.601 12.624C415.131 12.8373 414.619 13.2533 414.065 13.872C413.51 14.4907 413.147 15.056 412.977 15.568C412.785 16.1227 412.689 16.6453 412.689 17.136C412.689 18.2667 413.137 19.0667 414.033 19.536C414.566 19.8133 415.259 19.952 416.113 19.952C416.689 19.952 417.126 19.8773 417.425 19.728C419.153 18.8533 420.209 17.2853 420.593 15.024L420.785 13.808L420.177 13.232ZM415.312 8.88C415.825 8.73067 416.422 8.656 417.105 8.656C418.257 8.656 419.387 8.85867 420.497 9.264C421.606 9.66933 422.374 10.1813 422.801 10.8C423.099 11.2267 423.483 11.6747 423.953 12.144C424.465 12.6773 424.934 13.5947 425.361 14.896C425.766 16.1333 426.139 17.5093 426.481 19.024C426.843 20.5387 427.025 21.5627 427.025 22.096C427.025 22.6293 426.865 23.0453 426.545 23.344C426.139 23.728 425.755 23.92 425.392 23.92C425.243 23.92 425.051 23.888 424.817 23.824C424.411 23.6747 424.091 23.4187 423.857 23.056C423.643 22.6933 423.451 22.1067 423.281 21.296C423.067 20.336 422.95 19.856 422.929 19.856C422.843 19.856 422.395 20.2613 421.585 21.072C419.985 22.6293 418.321 23.472 416.593 23.6H416.145C415.099 23.6 414.075 23.4187 413.073 23.056C412.091 22.6933 411.313 22.2133 410.737 21.616C410.438 21.3173 410.139 20.8693 409.841 20.272C409.542 19.6533 409.339 19.088 409.233 18.576C409.126 18.0427 409.073 17.5627 409.073 17.136C409.073 15.3653 409.67 13.6693 410.865 12.048C412.081 10.4267 413.563 9.37067 415.312 8.88ZM434.668 9.392C435.009 9.264 435.542 9.2 436.268 9.2C436.652 9.2 436.961 9.21067 437.196 9.232C438.049 9.25333 438.636 9.30667 438.956 9.392C439.276 9.456 439.702 9.616 440.236 9.872C441.75 10.64 442.508 11.568 442.508 12.656C442.508 12.8907 442.433 13.1787 442.284 13.52C441.964 14.1387 441.473 14.448 440.812 14.448C440.214 14.448 439.67 14.1707 439.18 13.616C438.945 13.36 438.732 13.1893 438.54 13.104C438.348 12.9973 438.038 12.912 437.612 12.848C437.185 12.8053 436.897 12.784 436.748 12.784C436.001 12.784 435.457 13.0187 435.116 13.488C434.518 14.3627 434.22 15.312 434.22 16.336C434.22 17.4453 434.561 18.3947 435.244 19.184C435.926 19.952 436.822 20.336 437.932 20.336C438.358 20.336 438.956 20.2293 439.724 20.016C440.492 19.7813 441.004 19.568 441.26 19.376C441.473 19.2053 441.846 19.12 442.38 19.12C442.892 19.12 443.308 19.28 443.628 19.6C443.969 19.92 444.14 20.3253 444.14 20.816C444.14 21.264 444.033 21.6267 443.82 21.904C443.606 22.1813 443.201 22.4693 442.604 22.768C441.068 23.536 439.532 23.92 437.996 23.92C435.457 23.92 433.526 23.0133 432.204 21.2C431.137 19.7493 430.604 18.16 430.604 16.432C430.604 15.3653 430.817 14.2453 431.244 13.072C431.564 12.24 432.033 11.4827 432.652 10.8C433.292 10.1173 433.964 9.648 434.668 9.392ZM448.273 1.648C448.593 1.392 448.934 1.264 449.297 1.264C449.723 1.264 450.118 1.43467 450.481 1.776C450.843 2.096 451.067 2.512 451.153 3.024C451.217 3.49333 451.27 4.784 451.313 6.896C451.313 8.92267 451.355 9.97867 451.441 10.064H451.473C451.558 10.064 451.846 9.89333 452.337 9.552C453.723 8.464 455.163 7.92 456.657 7.92C457.275 7.92 457.873 8.03733 458.449 8.272C459.75 8.80533 460.667 10.16 461.201 12.336C461.329 12.848 461.457 14.0853 461.585 16.048C461.713 18.0107 461.777 19.536 461.777 20.624C461.777 21.072 461.766 21.3387 461.745 21.424C461.659 21.8933 461.446 22.2667 461.105 22.544C460.763 22.8213 460.39 22.96 459.985 22.96C459.494 22.96 459.078 22.7787 458.737 22.416L458.225 21.872L458.129 18.352C458.065 16.368 457.947 14.8107 457.777 13.68C457.67 13.0187 457.499 12.4747 457.265 12.048C457.051 11.6213 456.827 11.408 456.593 11.408C456.315 11.408 455.878 11.5893 455.281 11.952C454.683 12.2933 454.246 12.6133 453.969 12.912C453.243 13.744 452.742 14.6507 452.465 15.632C452.187 16.592 452.038 17.9253 452.017 19.632C452.017 21.1253 451.963 22.0853 451.857 22.512C451.771 22.9813 451.569 23.3547 451.249 23.632C450.929 23.888 450.566 24.016 450.161 24.016C449.691 24.016 449.275 23.8347 448.913 23.472C448.571 23.1307 448.358 22.8 448.273 22.48C448.187 22.1813 448.091 19.7493 447.985 15.184C447.857 10.4693 447.761 7.312 447.697 5.712C447.654 4.64533 447.633 4.016 447.633 3.824C447.633 2.71467 447.846 1.98933 448.273 1.648ZM480.425 8.912C480.51 8.89067 480.638 8.88 480.809 8.88C481.214 8.88 481.587 8.98667 481.929 9.2C482.27 9.392 482.505 9.65867 482.633 10C482.718 10.192 482.803 11.6533 482.889 14.384C482.995 17.0933 483.049 19.2267 483.049 20.784C483.049 21.4453 483.038 21.8293 483.017 21.936C482.91 22.7467 482.558 23.2907 481.961 23.568C481.662 23.696 481.427 23.76 481.257 23.76C481.129 23.76 480.937 23.728 480.681 23.664C480.19 23.5147 479.881 23.312 479.753 23.056C479.497 22.5653 479.347 20.6667 479.305 17.36C479.305 16.7627 479.294 15.728 479.273 14.256L479.241 9.872L479.625 9.424C479.881 9.12533 480.147 8.95467 480.425 8.912ZM479.657 2.896C479.913 2.768 480.158 2.704 480.393 2.704C480.862 2.704 481.278 2.896 481.641 3.28C482.003 3.64267 482.185 4.06933 482.185 4.56C482.185 4.90133 482.099 5.2 481.929 5.456C481.566 6.032 481.075 6.32 480.457 6.32C480.051 6.32 479.678 6.18133 479.337 5.904C478.995 5.62667 478.782 5.24267 478.697 4.752C478.697 4.73067 478.686 4.69867 478.665 4.656C478.665 4.592 478.665 4.54933 478.665 4.528C478.665 4.208 478.761 3.89867 478.953 3.6C479.145 3.28 479.379 3.04533 479.657 2.896ZM487.342 9.072C487.598 8.944 487.865 8.88 488.142 8.88C488.526 8.88 488.889 9.008 489.23 9.264C489.571 9.49867 489.806 9.81867 489.934 10.224L490.126 10.896L490.926 10.416C491.459 10.096 492.195 9.936 493.134 9.936C494.051 9.936 494.809 10.0853 495.406 10.384C495.897 10.6187 496.419 11.0027 496.974 11.536C497.55 12.0693 498.009 12.6027 498.35 13.136C499.502 14.9493 500.131 17.7653 500.238 21.584V22.224C500.238 22.736 500.089 23.152 499.79 23.472C499.427 23.8347 499.001 24.016 498.51 24.016C497.721 24.016 497.198 23.6747 496.942 22.992C496.814 22.6293 496.707 21.9147 496.622 20.848C496.366 17.1147 495.534 14.7787 494.126 13.84C493.827 13.648 493.529 13.552 493.23 13.552C492.675 13.552 492.174 13.8613 491.726 14.48C491.299 15.0773 490.958 15.9307 490.702 17.04C490.595 17.5307 490.467 18.416 490.318 19.696C490.169 20.976 490.094 21.84 490.094 22.288C490.094 22.5013 489.913 22.7893 489.55 23.152C489.187 23.4933 488.771 23.664 488.302 23.664C487.427 23.664 486.851 23.2053 486.574 22.288C486.446 21.84 486.382 19.8987 486.382 16.464C486.382 12.368 486.457 10.1387 486.606 9.776C486.734 9.49867 486.979 9.264 487.342 9.072ZM508.719 1.52C509.082 1.15733 509.519 0.975998 510.031 0.975998C510.415 0.975998 510.757 1.09333 511.055 1.328C511.375 1.54133 511.599 1.85067 511.727 2.256C511.791 2.49067 511.898 3.6 512.047 5.584C512.197 7.54667 512.271 8.912 512.271 9.68C512.271 9.872 512.314 9.98933 512.399 10.032C512.506 10.0747 512.751 10.096 513.135 10.096C513.711 10.096 514.042 10.032 514.127 9.904C514.17 9.79733 514.607 9.744 515.439 9.744C516.506 9.744 517.21 9.81867 517.551 9.968C517.871 10.1173 518.117 10.4053 518.287 10.832C518.437 11.1307 518.511 11.376 518.511 11.568C518.511 11.7173 518.479 11.8987 518.415 12.112C518.266 12.6027 517.989 12.9333 517.583 13.104C517.199 13.2533 516.431 13.36 515.279 13.424C513.978 13.488 513.135 13.5733 512.751 13.68L512.239 13.808L512.367 18.32C512.41 20.3253 512.431 21.4027 512.431 21.552C512.431 22.4907 512.357 23.12 512.207 23.44C511.887 24.1227 511.365 24.464 510.639 24.464C510.362 24.464 510.074 24.4 509.775 24.272C509.541 24.1653 509.37 24.0693 509.263 23.984C509.157 23.8773 509.061 23.6107 508.975 23.184C508.89 22.736 508.837 22.2133 508.815 21.616C508.794 21.0187 508.773 20.0373 508.751 18.672L508.687 14.032L507.727 14.064C507.151 14.1067 506.639 14.192 506.191 14.32C506.085 14.3627 505.914 14.384 505.679 14.384C504.954 14.384 504.431 14.16 504.111 13.712C503.941 13.4347 503.855 13.0613 503.855 12.592C503.855 12.1867 503.919 11.8667 504.047 11.632C504.346 11.0987 505.391 10.6933 507.183 10.416L508.655 10.192L508.527 7.376C508.442 5.37067 508.367 4.00533 508.303 3.28C508.261 2.768 508.239 2.49067 508.239 2.448C508.239 2.14933 508.399 1.84 508.719 1.52ZM530.776 11.6C530.2 11.4933 529.72 11.44 529.336 11.44C528.461 11.44 527.725 11.6213 527.128 11.984C526.829 12.176 526.477 12.8267 526.072 13.936C525.688 15.024 525.496 15.8987 525.496 16.56C525.496 17.6267 525.837 18.4907 526.52 19.152C527.224 19.792 528.141 20.1227 529.272 20.144C530.189 20.144 531.042 19.888 531.832 19.376C532.642 18.864 533.229 18.192 533.592 17.36C533.826 16.8267 533.944 16.2187 533.944 15.536C533.944 14.704 533.784 13.9787 533.464 13.36C533.229 12.8693 532.909 12.496 532.504 12.24C532.098 11.984 531.522 11.7707 530.776 11.6ZM527.16 8.176C527.906 7.984 528.642 7.888 529.368 7.888C530.733 7.888 532.194 8.22933 533.752 8.912C534.861 9.40267 535.736 10.2667 536.376 11.504C537.037 12.7413 537.378 14.2027 537.4 15.888V16.08C537.4 18.6187 536.269 20.6773 534.008 22.256C532.6 23.2587 531.032 23.76 529.304 23.76C527.874 23.76 526.552 23.408 525.336 22.704C524.12 21.9787 523.202 20.9653 522.584 19.664C522.37 19.216 522.232 18.832 522.168 18.512C522.125 18.192 522.104 17.52 522.104 16.496C522.125 14.9813 522.285 13.7867 522.584 12.912C523.288 10.9707 524.12 9.65867 525.08 8.976C525.464 8.69867 526.157 8.432 527.16 8.176ZM550.678 8.816C550.998 8.496 551.404 8.336 551.894 8.336C552.556 8.336 553.014 8.56 553.27 9.008C553.548 9.43467 553.985 10.64 554.582 12.624C554.753 13.1787 554.966 13.8933 555.222 14.768C555.948 17.072 556.364 18.2453 556.47 18.288C556.598 18.288 556.886 17.648 557.334 16.368C558.06 14.192 558.657 12.6667 559.126 11.792C559.617 10.9173 560.193 10.3413 560.854 10.064C561.174 9.91467 561.494 9.84 561.814 9.84C562.284 9.84 562.71 10.064 563.094 10.512C563.5 10.9387 563.948 11.664 564.438 12.688C566.316 16.6773 567.308 18.672 567.414 18.672C567.457 18.672 567.702 18 568.15 16.656C568.62 15.2907 569.11 13.8827 569.622 12.432C570.156 10.9813 570.508 10.16 570.678 9.968C571.02 9.584 571.425 9.392 571.894 9.392C572.406 9.392 572.876 9.616 573.302 10.064C573.537 10.2987 573.654 10.608 573.654 10.992C573.654 11.6107 573.164 13.36 572.182 16.24C571.158 19.248 570.369 21.2213 569.814 22.16C569.26 23.0773 568.566 23.536 567.734 23.536C567.478 23.536 567.286 23.5253 567.158 23.504C566.476 23.3973 565.889 23.0453 565.398 22.448C564.908 21.8507 564.193 20.5707 563.254 18.608C562.209 16.432 561.654 15.344 561.59 15.344C561.526 15.344 561.334 15.792 561.014 16.688C559.99 19.632 559.265 21.5413 558.838 22.416C558.412 23.2907 557.964 23.8347 557.494 24.048C557.132 24.1973 556.705 24.272 556.214 24.272C555.788 24.272 555.457 24.2187 555.222 24.112C554.796 23.8987 554.284 23.0453 553.686 21.552C553.089 20.0587 552.246 17.4987 551.158 13.872C550.54 11.824 550.23 10.512 550.23 9.936C550.23 9.488 550.38 9.11467 550.678 8.816ZM577.87 1.552C578.233 1.25333 578.606 1.104 578.99 1.104C579.758 1.104 580.324 1.57333 580.686 2.512C580.836 2.93867 580.996 3.96267 581.166 5.584C581.337 7.184 581.476 8.67733 581.582 10.064C581.689 11.4293 581.753 12.112 581.774 12.112C581.817 12.112 582.169 11.8773 582.83 11.408C584.132 10.4907 585.369 10.032 586.542 10.032C587.63 10.032 588.58 10.4373 589.39 11.248C590.222 12.0373 590.873 13.2 591.342 14.736C591.705 15.9307 591.886 17.7867 591.886 20.304C591.886 21.8827 591.79 22.9493 591.598 23.504C591.385 24.08 590.894 24.368 590.126 24.368C589.614 24.368 589.188 24.1973 588.846 23.856L588.366 23.376L588.27 20.144C588.142 15.984 587.566 13.84 586.542 13.712H586.446C585.956 13.712 585.348 13.9893 584.622 14.544C583.897 15.0773 583.374 15.664 583.054 16.304C582.862 16.7307 582.606 17.04 582.286 17.232L581.87 17.52L581.806 21.008C581.764 22.7147 581.721 23.7493 581.678 24.112C581.657 24.4533 581.54 24.7307 581.326 24.944C580.985 25.3067 580.558 25.488 580.046 25.488C579.278 25.488 578.745 25.1467 578.446 24.464C578.297 24.0587 578.19 21.6053 578.126 17.104C578.02 9.57333 577.742 5.06133 577.294 3.568C577.23 3.33333 577.198 3.10933 577.198 2.896C577.198 2.34133 577.422 1.89333 577.87 1.552ZM604.601 13.68C604.494 13.3387 604.398 13.1467 604.313 13.104C604.228 13.04 603.993 13.008 603.609 13.008C602.5 13.0293 601.465 13.552 600.505 14.576C599.545 15.5787 599.065 16.592 599.065 17.616C599.065 18.128 599.204 18.5547 599.481 18.896C600.1 19.5787 600.75 19.92 601.433 19.92C601.476 19.92 601.518 19.92 601.561 19.92C601.604 19.8987 601.646 19.888 601.689 19.888C602.073 19.8027 602.478 19.5467 602.905 19.12C603.353 18.6933 603.694 18.224 603.929 17.712C604.42 16.56 604.665 15.44 604.665 14.352C604.665 14.032 604.644 13.808 604.601 13.68ZM601.625 9.648C602.201 9.456 602.862 9.36 603.609 9.36C604.59 9.36 605.422 9.52 606.105 9.84C606.553 10.0747 606.958 10.4267 607.321 10.896C607.705 11.344 607.94 11.7707 608.025 12.176C608.11 12.5813 608.228 12.9653 608.377 13.328C608.612 13.9467 609.081 16.272 609.785 20.304C609.892 20.944 609.945 21.424 609.945 21.744C609.945 23.024 609.348 23.664 608.153 23.664C607.748 23.664 607.374 23.504 607.033 23.184C606.713 22.864 606.51 22.4693 606.425 22C606.34 21.5733 606.265 21.328 606.201 21.264C606.116 21.2 605.87 21.3707 605.465 21.776C604.249 22.992 602.852 23.6 601.273 23.6C600.996 23.6 600.708 23.568 600.409 23.504C599.236 23.248 598.137 22.608 597.113 21.584C595.961 20.432 595.385 19.1413 595.385 17.712C595.385 16.5813 595.737 15.3547 596.441 14.032C596.974 13.0293 597.7 12.1333 598.617 11.344C599.556 10.5547 600.558 9.98933 601.625 9.648ZM618.407 1.52C618.769 1.15733 619.207 0.975998 619.719 0.975998C620.103 0.975998 620.444 1.09333 620.743 1.328C621.063 1.54133 621.287 1.85067 621.415 2.256C621.479 2.49067 621.585 3.6 621.735 5.584C621.884 7.54667 621.959 8.912 621.959 9.68C621.959 9.872 622.001 9.98933 622.087 10.032C622.193 10.0747 622.439 10.096 622.823 10.096C623.399 10.096 623.729 10.032 623.815 9.904C623.857 9.79733 624.295 9.744 625.127 9.744C626.193 9.744 626.897 9.81867 627.239 9.968C627.559 10.1173 627.804 10.4053 627.975 10.832C628.124 11.1307 628.199 11.376 628.199 11.568C628.199 11.7173 628.167 11.8987 628.103 12.112C627.953 12.6027 627.676 12.9333 627.271 13.104C626.887 13.2533 626.119 13.36 624.967 13.424C623.665 13.488 622.823 13.5733 622.439 13.68L621.927 13.808L622.055 18.32C622.097 20.3253 622.119 21.4027 622.119 21.552C622.119 22.4907 622.044 23.12 621.895 23.44C621.575 24.1227 621.052 24.464 620.327 24.464C620.049 24.464 619.761 24.4 619.463 24.272C619.228 24.1653 619.057 24.0693 618.951 23.984C618.844 23.8773 618.748 23.6107 618.663 23.184C618.577 22.736 618.524 22.2133 618.503 21.616C618.481 21.0187 618.46 20.0373 618.439 18.672L618.375 14.032L617.415 14.064C616.839 14.1067 616.327 14.192 615.879 14.32C615.772 14.3627 615.601 14.384 615.367 14.384C614.641 14.384 614.119 14.16 613.799 13.712C613.628 13.4347 613.543 13.0613 613.543 12.592C613.543 12.1867 613.607 11.8667 613.735 11.632C614.033 11.0987 615.079 10.6933 616.871 10.416L618.343 10.192L618.215 7.376C618.129 5.37067 618.055 4.00533 617.991 3.28C617.948 2.768 617.927 2.49067 617.927 2.448C617.927 2.14933 618.087 1.84 618.407 1.52ZM636.591 3.504C636.314 4.63467 635.919 5.872 635.407 7.216C634.895 8.56 634.373 9.81867 633.839 10.992H630.415C630.714 9.73333 631.013 8.38933 631.311 6.96C631.61 5.53067 631.834 4.26133 631.983 3.152H636.367L636.591 3.504ZM642.217 8.208C642.601 8.10133 643.198 8.048 644.009 8.048C645.715 8.048 646.953 8.176 647.721 8.432C648.787 8.77333 649.321 9.36 649.321 10.192C649.321 10.6827 649.086 11.1307 648.617 11.536C648.297 11.8347 647.987 11.984 647.689 11.984C647.667 11.984 647.625 11.984 647.561 11.984C647.497 11.9627 647.443 11.952 647.401 11.952C645.993 11.7173 644.883 11.6 644.073 11.6C643.817 11.6 643.582 11.6213 643.369 11.664C642.707 11.8347 642.377 12.144 642.377 12.592C642.377 12.6773 642.387 12.7413 642.409 12.784C642.558 13.2107 643.401 13.744 644.937 14.384C647.689 15.536 649.385 16.9653 650.025 18.672C650.217 19.184 650.313 19.664 650.313 20.112C650.313 20.9013 650.025 21.5733 649.449 22.128C648.894 22.6827 648.105 23.056 647.081 23.248C646.654 23.3333 645.95 23.376 644.969 23.376C643.177 23.376 642.035 23.2693 641.545 23.056C641.267 22.928 641.033 22.7147 640.841 22.416C640.649 22.096 640.553 21.7867 640.553 21.488C640.553 21.168 640.659 20.848 640.873 20.528C641.086 20.1867 641.342 19.952 641.641 19.824C641.918 19.7173 642.249 19.664 642.633 19.664C642.782 19.664 643.113 19.6853 643.625 19.728C643.966 19.7707 644.425 19.792 645.001 19.792C645.897 19.792 646.345 19.6853 646.345 19.472C646.345 19.088 645.417 18.512 643.561 17.744C641.897 17.0187 640.67 16.2613 639.881 15.472C639.113 14.6613 638.729 13.744 638.729 12.72C638.729 12.5493 638.75 12.2933 638.793 11.952C638.963 10.9067 639.39 10.0747 640.073 9.456C640.627 8.90133 641.342 8.48533 642.217 8.208ZM668.763 2.864C669.04 2.75733 669.285 2.704 669.499 2.704C669.819 2.704 670.139 2.8 670.459 2.992C670.779 3.20533 670.992 3.44 671.099 3.696C671.227 3.952 671.291 4.44267 671.291 5.168C671.291 6 671.248 7.056 671.163 8.336C671.013 10.96 670.917 14.0533 670.875 17.616C670.875 21.0933 670.8 22.9707 670.651 23.248C670.544 23.4613 670.32 23.6747 669.979 23.888C669.659 24.08 669.381 24.176 669.147 24.176C668.891 24.176 668.603 24.0693 668.283 23.856C667.963 23.6427 667.739 23.408 667.611 23.152C667.355 22.64 667.227 20.9227 667.227 18C667.227 15.056 667.355 11.1733 667.611 6.352C667.675 5.09333 667.781 4.24 667.931 3.792C668.08 3.344 668.357 3.03467 668.763 2.864ZM684.648 13.808C684.264 13.616 683.72 13.52 683.016 13.52C682.248 13.52 681.597 13.6373 681.064 13.872C680.701 14.0213 680.232 14.352 679.656 14.864C679.08 15.3547 678.792 15.6747 678.792 15.824C678.792 15.888 679.123 15.92 679.784 15.92C680.765 15.92 681.939 15.8667 683.304 15.76C684.669 15.6533 685.448 15.536 685.64 15.408C685.704 15.3867 685.736 15.3227 685.736 15.216C685.736 15.024 685.619 14.7787 685.384 14.48C685.149 14.16 684.904 13.936 684.648 13.808ZM680.872 10.096C681.405 9.94667 682.035 9.872 682.76 9.872C684.104 9.872 685.331 10.1387 686.44 10.672C687.272 11.0987 687.965 11.7493 688.52 12.624C689.075 13.4773 689.416 14.4373 689.544 15.504C689.544 15.5467 689.544 15.6107 689.544 15.696C689.565 15.7813 689.576 15.8453 689.576 15.888C689.576 16.4427 689.469 16.9867 689.256 17.52C689.064 18.0533 688.829 18.416 688.552 18.608C688.189 18.864 685.64 19.184 680.904 19.568C679.901 19.6533 679.4 19.7493 679.4 19.856C679.4 19.984 679.624 20.1867 680.072 20.464C680.52 20.7413 680.957 20.9333 681.384 21.04C681.768 21.1253 682.077 21.168 682.312 21.168C682.995 21.168 683.88 20.944 684.968 20.496C685.736 20.176 686.301 20.016 686.664 20.016C687.027 20.016 687.368 20.176 687.688 20.496C688.115 20.9227 688.328 21.328 688.328 21.712C688.328 21.968 688.264 22.2347 688.136 22.512C688.029 22.768 687.88 22.9707 687.688 23.12C687.517 23.2693 687.197 23.4507 686.728 23.664C685.171 24.3467 683.72 24.688 682.376 24.688C681.608 24.688 680.819 24.5707 680.008 24.336C678.92 23.9947 677.928 23.4187 677.032 22.608C676.136 21.776 675.496 20.8587 675.112 19.856C674.877 19.1947 674.76 18.4587 674.76 17.648C674.76 16.4747 674.952 15.4933 675.336 14.704C675.784 13.7227 676.541 12.784 677.608 11.888C678.675 10.992 679.763 10.3947 680.872 10.096ZM700.561 1.264C700.774 1.2 701.041 1.168 701.361 1.168C702.385 1.168 703.195 1.33867 703.793 1.68C704.603 2.17067 705.009 2.832 705.009 3.664C705.009 4.304 704.721 4.77333 704.145 5.072C703.867 5.22133 703.569 5.296 703.249 5.296C702.929 5.296 702.555 5.2 702.129 5.008C701.787 4.85867 701.606 4.784 701.585 4.784C701.499 4.784 701.361 4.88 701.169 5.072C700.934 5.30667 700.731 5.78667 700.561 6.512C700.39 7.23733 700.305 8.03733 700.305 8.912V9.584C700.305 9.88267 700.337 10.0853 700.401 10.192C700.465 10.2987 700.614 10.352 700.849 10.352C701.062 10.352 701.574 10.2987 702.385 10.192C702.577 10.1707 702.833 10.16 703.153 10.16C704.625 10.16 705.361 10.7573 705.361 11.952C705.339 12.5707 705.115 13.0187 704.689 13.296C704.283 13.552 703.558 13.7227 702.513 13.808C701.51 13.8933 700.955 13.968 700.849 14.032C700.827 14.032 700.817 14.128 700.817 14.32C700.817 14.8747 700.923 15.9733 701.137 17.616C701.35 19.2587 701.553 20.5493 701.745 21.488C701.83 22 701.873 22.352 701.873 22.544C701.873 23.2693 701.702 23.8453 701.361 24.272C701.019 24.6987 700.55 24.912 699.953 24.912C699.462 24.912 699.046 24.752 698.705 24.432C698.47 24.176 698.31 23.8987 698.225 23.6C698.161 23.28 698.065 22.448 697.937 21.104C697.723 19.0773 697.531 17.4773 697.361 16.304L697.073 14.288L695.505 14.224C694.779 14.1813 694.321 14.128 694.129 14.064C693.937 14 693.745 13.8613 693.553 13.648C693.275 13.3067 693.137 12.8907 693.137 12.4C693.137 12.1013 693.201 11.824 693.329 11.568C693.627 11.056 694.374 10.736 695.569 10.608L696.593 10.512L696.689 8.56C696.817 6.34133 697.19 4.656 697.809 3.504C698.427 2.33067 699.345 1.584 700.561 1.264ZM713.844 1.52C714.207 1.15733 714.644 0.975998 715.156 0.975998C715.54 0.975998 715.882 1.09333 716.18 1.328C716.5 1.54133 716.724 1.85067 716.852 2.256C716.916 2.49067 717.023 3.6 717.172 5.584C717.322 7.54667 717.396 8.912 717.396 9.68C717.396 9.872 717.439 9.98933 717.524 10.032C717.631 10.0747 717.876 10.096 718.26 10.096C718.836 10.096 719.167 10.032 719.252 9.904C719.295 9.79733 719.732 9.744 720.564 9.744C721.631 9.744 722.335 9.81867 722.676 9.968C722.996 10.1173 723.242 10.4053 723.412 10.832C723.562 11.1307 723.636 11.376 723.636 11.568C723.636 11.7173 723.604 11.8987 723.54 12.112C723.391 12.6027 723.114 12.9333 722.708 13.104C722.324 13.2533 721.556 13.36 720.404 13.424C719.103 13.488 718.26 13.5733 717.876 13.68L717.364 13.808L717.492 18.32C717.535 20.3253 717.556 21.4027 717.556 21.552C717.556 22.4907 717.482 23.12 717.332 23.44C717.012 24.1227 716.49 24.464 715.764 24.464C715.487 24.464 715.199 24.4 714.9 24.272C714.666 24.1653 714.495 24.0693 714.388 23.984C714.282 23.8773 714.186 23.6107 714.1 23.184C714.015 22.736 713.962 22.2133 713.94 21.616C713.919 21.0187 713.898 20.0373 713.876 18.672L713.812 14.032L712.852 14.064C712.276 14.1067 711.764 14.192 711.316 14.32C711.21 14.3627 711.039 14.384 710.804 14.384C710.079 14.384 709.556 14.16 709.236 13.712C709.066 13.4347 708.98 13.0613 708.98 12.592C708.98 12.1867 709.044 11.8667 709.172 11.632C709.471 11.0987 710.516 10.6933 712.308 10.416L713.78 10.192L713.652 7.376C713.567 5.37067 713.492 4.00533 713.428 3.28C713.386 2.768 713.364 2.49067 713.364 2.448C713.364 2.14933 713.524 1.84 713.844 1.52ZM728.349 20.56C728.733 20.4107 728.957 20.336 729.021 20.336L729.629 20.56C730.397 20.88 730.781 21.456 730.781 22.288C730.781 22.736 730.589 23.1627 730.205 23.568C729.842 23.9733 729.458 24.176 729.053 24.176C728.669 24.176 728.306 24.048 727.965 23.792C727.645 23.5147 727.421 23.1733 727.293 22.768C727.229 22.576 727.197 22.3947 727.197 22.224C727.197 21.84 727.303 21.4987 727.517 21.2C727.73 20.88 728.007 20.6667 728.349 20.56Z" fill="white"/>
</svg>
