<svg width="1055" height="32" viewBox="0 0 1055 32" fill="none" xmlns="http://www.w3.org/2000/svg">
<path d="M1.336 4.272C1.67733 3.952 1.99733 3.792 2.296 3.792C2.46667 3.792 2.616 3.80267 2.744 3.824C3.32 3.888 3.72533 4.08 3.96 4.4L4.376 4.88L4.312 13.264C4.29067 18.7893 4.19467 21.7653 4.024 22.192C3.74667 22.832 3.21333 23.152 2.424 23.152C2.168 23.152 1.976 23.1307 1.848 23.088C1.528 22.9813 1.31467 22.9067 1.208 22.864C1.12267 22.8 1.016 22.608 0.888 22.288C0.781333 21.9467 0.717333 21.4773 0.696 20.88C0.674667 20.2827 0.664 19.3653 0.664 18.128C0.664 17.7867 0.664 17.0933 0.664 16.048C0.685333 15.0027 0.696 14.128 0.696 13.424L0.728 4.784L1.336 4.272ZM18.0518 9.328C18.4358 9.008 18.8518 8.848 19.2998 8.848C19.7691 8.848 20.1744 9.01867 20.5158 9.36C20.8571 9.68 21.0278 10.096 21.0278 10.608C21.0278 11.12 21.1238 11.376 21.3158 11.376C21.4224 11.376 21.6464 11.2587 21.9878 11.024C23.5664 9.936 25.1344 9.392 26.6918 9.392C27.3531 9.392 28.0038 9.50933 28.6438 9.744C29.2198 9.97867 29.6251 10.2347 29.8598 10.512C30.0944 10.7893 30.2118 11.1627 30.2118 11.632C30.2118 12.144 30.0198 12.5813 29.6358 12.944C29.3158 13.2427 29.0278 13.392 28.7718 13.392C28.6864 13.392 28.0891 13.3173 26.9798 13.168C26.8518 13.1467 26.6704 13.136 26.4358 13.136C26.0944 13.136 25.6571 13.2533 25.1238 13.488C23.7371 14.128 22.7664 14.9387 22.2118 15.92C21.6571 16.9013 21.3798 18.3093 21.3798 20.144C21.3584 21.488 21.1984 22.4267 20.8998 22.96C20.6224 23.4933 20.1211 23.76 19.3958 23.76C18.9051 23.76 18.4891 23.5893 18.1478 23.248L17.6358 22.736L17.5718 17.072C17.5291 12.8907 17.5078 10.736 17.5078 10.608C17.5078 10.096 17.6891 9.66933 18.0518 9.328ZM42.4968 12.944C42.1128 12.6667 41.5048 12.528 40.6728 12.528C40.1608 12.528 39.7554 12.592 39.4568 12.72C39.1794 12.848 38.8594 13.1147 38.4968 13.52C38.1554 13.904 37.9848 14.1813 37.9848 14.352C37.9848 14.5013 38.1448 14.576 38.4648 14.576C38.8914 14.5547 39.7768 14.4587 41.1208 14.288C42.4648 14.1173 43.1581 14.0107 43.2008 13.968C43.2221 13.9467 43.2328 13.9147 43.2328 13.872C43.2328 13.6373 42.9874 13.328 42.4968 12.944ZM39.0408 9.04C39.4248 8.93333 39.8941 8.88 40.4488 8.88C41.5794 8.88 42.5501 9.04 43.3608 9.36C44.0221 9.59467 44.6728 10.0533 45.3128 10.736C45.9741 11.3973 46.5181 12.144 46.9448 12.976C47.3714 13.8293 47.5848 14.4053 47.5848 14.704C47.5848 15.3867 47.2861 16.0267 46.6888 16.624C46.0488 17.2 44.0541 17.6267 40.7048 17.904C39.4248 18.0107 38.5928 18.096 38.2088 18.16C37.8248 18.224 37.6328 18.32 37.6328 18.448C37.6328 18.5547 37.8248 18.7787 38.2088 19.12C38.8701 19.76 40.0541 20.144 41.7608 20.272C41.9314 20.2933 42.1554 20.304 42.4328 20.304C42.8808 20.304 43.4141 20.1973 44.0328 19.984C44.9074 19.664 45.6008 19.504 46.1128 19.504C46.8808 19.504 47.3821 19.888 47.6168 20.656C47.6808 20.848 47.7128 21.0293 47.7128 21.2C47.7128 21.9253 47.2541 22.5227 46.3368 22.992C45.4408 23.44 44.1714 23.696 42.5288 23.76C42.4434 23.76 42.3261 23.7707 42.1768 23.792C42.0274 23.792 41.9208 23.792 41.8568 23.792C40.0434 23.792 38.4754 23.44 37.1528 22.736C35.8514 22.0107 34.8701 20.9867 34.2088 19.664C33.8888 19.024 33.7288 18.1707 33.7288 17.104C33.7288 16.0373 33.8354 15.1947 34.0488 14.576C34.5821 12.976 35.2434 11.7493 36.0328 10.896C36.8221 10.0213 37.8248 9.40267 39.0408 9.04ZM52.4135 7.344C52.7122 7.30133 52.8828 7.26933 52.9255 7.248C53.0322 7.248 53.2775 7.32267 53.6615 7.472C53.9602 7.6 54.2268 7.856 54.4615 8.24C54.6962 8.624 54.8135 8.99733 54.8135 9.36C54.8135 9.63733 54.8668 9.85067 54.9735 10C55.0588 10.1067 55.1335 10.1493 55.1975 10.128C55.2615 10.1067 55.4108 10 55.6455 9.808C56.6055 8.99733 57.7788 8.496 59.1655 8.304C59.5922 8.26133 59.8908 8.24 60.0615 8.24C61.1495 8.24 62.0775 8.63467 62.8455 9.424L63.5815 10.16L64.5095 9.424C66.0242 8.208 67.4962 7.6 68.9255 7.6C69.4162 7.6 69.8535 7.67467 70.2375 7.824C70.6642 7.99467 71.1228 8.32533 71.6135 8.816C72.1255 9.28533 72.5095 9.78667 72.7655 10.32C73.5335 11.8773 74.0348 14.7787 74.2695 19.024C74.3122 20.0907 74.3335 20.6773 74.3335 20.784C74.3335 21.3387 74.2588 21.7547 74.1095 22.032C73.7895 22.6507 73.2988 22.96 72.6375 22.96C72.1682 22.96 71.7522 22.7893 71.3895 22.448L70.8135 21.968L70.6535 18.992C70.4188 14.5547 69.8855 11.984 69.0535 11.28C68.9255 11.1947 68.8188 11.152 68.7335 11.152C68.5628 11.152 68.2535 11.2693 67.8055 11.504C66.6962 12.0373 65.9068 12.944 65.4375 14.224C65.1815 14.8853 65.0108 16.2613 64.9255 18.352C64.8188 20.464 64.7122 21.6373 64.6055 21.872C64.2642 22.4693 63.7202 22.768 62.9735 22.768C62.5682 22.768 62.2055 22.64 61.8855 22.384C61.4162 22 61.1815 21.0613 61.1815 19.568C61.1815 18.8853 61.1922 18.32 61.2135 17.872C61.2135 17.7227 61.2135 17.52 61.2135 17.264C61.2348 16.9867 61.2455 16.784 61.2455 16.656C61.2455 14.5653 61.0108 13.1147 60.5415 12.304C60.3495 11.9627 60.1575 11.792 59.9655 11.792C59.9442 11.792 59.8055 11.8133 59.5495 11.856C58.1842 12.112 57.0322 13.2107 56.0935 15.152C55.7095 15.9627 55.5175 16.816 55.5175 17.712C55.5175 18.48 55.5815 19.4187 55.7095 20.528C55.7735 20.976 55.8055 21.3493 55.8055 21.648C55.8055 22.4587 55.4535 23.0347 54.7495 23.376C54.4508 23.5253 54.2162 23.6 54.0455 23.6C53.9175 23.6 53.7148 23.5467 53.4375 23.44C52.9042 23.248 52.5522 22.8853 52.3815 22.352C52.2108 21.7973 52.0722 20.6133 51.9655 18.8C51.8162 15.7067 51.5602 12.5173 51.1975 9.232C51.1975 9.18933 51.1868 9.12533 51.1655 9.04C51.1655 8.95467 51.1655 8.90133 51.1655 8.88C51.1655 8.58133 51.2935 8.272 51.5495 7.952C51.8695 7.58933 52.1575 7.38667 52.4135 7.344ZM86.5905 12.944C86.2065 12.6667 85.5985 12.528 84.7665 12.528C84.2545 12.528 83.8492 12.592 83.5505 12.72C83.2732 12.848 82.9532 13.1147 82.5905 13.52C82.2492 13.904 82.0785 14.1813 82.0785 14.352C82.0785 14.5013 82.2385 14.576 82.5585 14.576C82.9852 14.5547 83.8705 14.4587 85.2145 14.288C86.5585 14.1173 87.2518 14.0107 87.2945 13.968C87.3158 13.9467 87.3265 13.9147 87.3265 13.872C87.3265 13.6373 87.0812 13.328 86.5905 12.944ZM83.1345 9.04C83.5185 8.93333 83.9878 8.88 84.5425 8.88C85.6732 8.88 86.6438 9.04 87.4545 9.36C88.1158 9.59467 88.7665 10.0533 89.4065 10.736C90.0678 11.3973 90.6118 12.144 91.0385 12.976C91.4652 13.8293 91.6785 14.4053 91.6785 14.704C91.6785 15.3867 91.3798 16.0267 90.7825 16.624C90.1425 17.2 88.1478 17.6267 84.7985 17.904C83.5185 18.0107 82.6865 18.096 82.3025 18.16C81.9185 18.224 81.7265 18.32 81.7265 18.448C81.7265 18.5547 81.9185 18.7787 82.3025 19.12C82.9638 19.76 84.1478 20.144 85.8545 20.272C86.0252 20.2933 86.2492 20.304 86.5265 20.304C86.9745 20.304 87.5078 20.1973 88.1265 19.984C89.0012 19.664 89.6945 19.504 90.2065 19.504C90.9745 19.504 91.4758 19.888 91.7105 20.656C91.7745 20.848 91.8065 21.0293 91.8065 21.2C91.8065 21.9253 91.3478 22.5227 90.4305 22.992C89.5345 23.44 88.2652 23.696 86.6225 23.76C86.5372 23.76 86.4198 23.7707 86.2705 23.792C86.1212 23.792 86.0145 23.792 85.9505 23.792C84.1372 23.792 82.5692 23.44 81.2465 22.736C79.9452 22.0107 78.9638 20.9867 78.3025 19.664C77.9825 19.024 77.8225 18.1707 77.8225 17.104C77.8225 16.0373 77.9292 15.1947 78.1425 14.576C78.6758 12.976 79.3372 11.7493 80.1265 10.896C80.9158 10.0213 81.9185 9.40267 83.1345 9.04ZM96.3153 8.528C96.5286 8.42133 96.7846 8.368 97.0833 8.368C98.1713 8.368 98.8539 9.28533 99.1313 11.12C99.1953 11.6747 99.2699 11.952 99.3553 11.952C99.3766 11.952 99.6753 11.7067 100.251 11.216C101.425 10.1707 102.619 9.648 103.835 9.648C104.497 9.648 105.126 9.82933 105.723 10.192C106.299 10.5547 106.673 10.8747 106.843 11.152L107.131 11.6L107.899 10.896C109.073 9.85067 110.331 9.328 111.675 9.328C112.977 9.328 114.097 9.82933 115.035 10.832C116.635 12.4747 117.585 15.28 117.883 19.248C117.926 19.9733 117.947 20.4213 117.947 20.592C117.947 21.1467 117.873 21.552 117.723 21.808C117.595 22.064 117.361 22.288 117.019 22.48C116.721 22.6293 116.433 22.704 116.155 22.704C115.686 22.704 115.27 22.4907 114.907 22.064C114.63 21.7013 114.449 21.0827 114.363 20.208C114.193 18.2453 113.979 16.784 113.723 15.824C113.467 14.864 113.105 14.1173 112.635 13.584C112.273 13.2 111.899 13.008 111.515 13.008C110.79 13.008 110.15 13.5733 109.595 14.704C109.382 15.152 109.243 15.568 109.179 15.952C109.115 16.336 109.062 17.2107 109.019 18.576C108.934 20.4533 108.827 21.5733 108.699 21.936C108.401 22.64 107.857 22.992 107.067 22.992C106.598 22.992 106.203 22.832 105.883 22.512C105.371 22 105.051 20.4853 104.923 17.968C104.859 17.008 104.742 16.08 104.571 15.184C104.401 14.288 104.241 13.7547 104.091 13.584C103.963 13.4347 103.825 13.36 103.675 13.36C103.419 13.36 102.993 13.6267 102.395 14.16C101.755 14.7573 101.275 15.3973 100.955 16.08C100.657 16.6987 100.475 17.2 100.411 17.584C100.369 17.9467 100.326 19.1947 100.283 21.328C100.262 21.8827 100.091 22.3307 99.7713 22.672C99.4513 23.0133 99.0459 23.184 98.5553 23.184C98.0646 23.184 97.6699 23.088 97.3713 22.896C96.9446 22.5973 96.6459 22.0213 96.4753 21.168C96.3046 20.2933 96.1126 18.2347 95.8993 14.992C95.7713 13.072 95.6219 11.7707 95.4513 11.088C95.3233 10.576 95.2593 10.2347 95.2593 10.064C95.2593 9.872 95.3233 9.648 95.4513 9.392C95.6433 8.944 95.9313 8.656 96.3153 8.528ZM132.296 15.152C131.89 14.64 131.314 14.2133 130.568 13.872C129.821 13.5307 128.957 13.36 127.976 13.36C127.378 13.36 126.92 13.4347 126.6 13.584C126.258 13.7333 125.928 14.0747 125.608 14.608C125.309 15.12 125.16 15.7493 125.16 16.496V17.04C125.224 18.5547 125.266 19.4507 125.288 19.728L125.416 20.752L126.184 20.88C126.482 20.9227 126.728 20.944 126.92 20.944C128.178 20.944 129.32 20.6987 130.344 20.208C130.856 19.9733 131.346 19.5893 131.816 19.056C132.306 18.5013 132.637 17.9573 132.808 17.424C132.893 17.1253 132.936 16.8907 132.936 16.72C132.936 16.1653 132.722 15.6427 132.296 15.152ZM122.216 2.416C122.429 2.30933 122.685 2.256 122.984 2.256C123.496 2.256 123.944 2.448 124.328 2.832C124.562 3.06667 124.701 3.35467 124.744 3.696C124.808 4.016 124.893 5.02933 125 6.736C125.106 8.976 125.181 10.1173 125.224 10.16H125.256C125.362 10.16 125.736 10.0853 126.376 9.936C127.122 9.76533 127.773 9.68 128.328 9.68C129.394 9.68 130.696 10.032 132.232 10.736C133.981 11.5467 135.208 12.6773 135.912 14.128C136.125 14.576 136.253 14.9493 136.296 15.248C136.36 15.5467 136.392 16.048 136.392 16.752C136.392 17.456 136.36 17.9573 136.296 18.256C136.232 18.5333 136.061 18.96 135.784 19.536C135.165 20.7307 134.312 21.744 133.224 22.576C132.136 23.408 130.93 23.9627 129.608 24.24C128.84 24.4107 128.04 24.496 127.208 24.496C126.418 24.496 125.49 24.4213 124.424 24.272C123.613 24.144 123.08 24.0373 122.824 23.952C122.568 23.8667 122.333 23.7067 122.12 23.472L121.64 22.96V17.968C121.64 14.96 121.576 11.7067 121.448 8.208C121.384 6.56533 121.352 5.38133 121.352 4.656C121.352 3.80267 121.405 3.25867 121.512 3.024C121.618 2.78933 121.853 2.58667 122.216 2.416ZM149.804 13.808C149.42 13.616 148.876 13.52 148.172 13.52C147.404 13.52 146.754 13.6373 146.22 13.872C145.858 14.0213 145.388 14.352 144.812 14.864C144.236 15.3547 143.948 15.6747 143.948 15.824C143.948 15.888 144.279 15.92 144.94 15.92C145.922 15.92 147.095 15.8667 148.46 15.76C149.826 15.6533 150.604 15.536 150.796 15.408C150.86 15.3867 150.892 15.3227 150.892 15.216C150.892 15.024 150.775 14.7787 150.54 14.48C150.306 14.16 150.06 13.936 149.804 13.808ZM146.028 10.096C146.562 9.94667 147.191 9.872 147.916 9.872C149.26 9.872 150.487 10.1387 151.596 10.672C152.428 11.0987 153.122 11.7493 153.676 12.624C154.231 13.4773 154.572 14.4373 154.7 15.504C154.7 15.5467 154.7 15.6107 154.7 15.696C154.722 15.7813 154.732 15.8453 154.732 15.888C154.732 16.4427 154.626 16.9867 154.412 17.52C154.22 18.0533 153.986 18.416 153.708 18.608C153.346 18.864 150.796 19.184 146.06 19.568C145.058 19.6533 144.556 19.7493 144.556 19.856C144.556 19.984 144.78 20.1867 145.228 20.464C145.676 20.7413 146.114 20.9333 146.54 21.04C146.924 21.1253 147.234 21.168 147.468 21.168C148.151 21.168 149.036 20.944 150.124 20.496C150.892 20.176 151.458 20.016 151.82 20.016C152.183 20.016 152.524 20.176 152.844 20.496C153.271 20.9227 153.484 21.328 153.484 21.712C153.484 21.968 153.42 22.2347 153.292 22.512C153.186 22.768 153.036 22.9707 152.844 23.12C152.674 23.2693 152.354 23.4507 151.884 23.664C150.327 24.3467 148.876 24.688 147.532 24.688C146.764 24.688 145.975 24.5707 145.164 24.336C144.076 23.9947 143.084 23.4187 142.188 22.608C141.292 21.776 140.652 20.8587 140.268 19.856C140.034 19.1947 139.916 18.4587 139.916 17.648C139.916 16.4747 140.108 15.4933 140.492 14.704C140.94 13.7227 141.698 12.784 142.764 11.888C143.831 10.992 144.919 10.3947 146.028 10.096ZM158.677 9.328C159.061 9.008 159.477 8.848 159.925 8.848C160.394 8.848 160.799 9.01867 161.141 9.36C161.482 9.68 161.653 10.096 161.653 10.608C161.653 11.12 161.749 11.376 161.941 11.376C162.047 11.376 162.271 11.2587 162.613 11.024C164.191 9.936 165.759 9.392 167.317 9.392C167.978 9.392 168.629 9.50933 169.269 9.744C169.845 9.97867 170.25 10.2347 170.485 10.512C170.719 10.7893 170.837 11.1627 170.837 11.632C170.837 12.144 170.645 12.5813 170.261 12.944C169.941 13.2427 169.653 13.392 169.397 13.392C169.311 13.392 168.714 13.3173 167.605 13.168C167.477 13.1467 167.295 13.136 167.061 13.136C166.719 13.136 166.282 13.2533 165.749 13.488C164.362 14.128 163.391 14.9387 162.837 15.92C162.282 16.9013 162.005 18.3093 162.005 20.144C161.983 21.488 161.823 22.4267 161.525 22.96C161.247 23.4933 160.746 23.76 160.021 23.76C159.53 23.76 159.114 23.5893 158.773 23.248L158.261 22.736L158.197 17.072C158.154 12.8907 158.133 10.736 158.133 10.608C158.133 10.096 158.314 9.66933 158.677 9.328ZM197.796 15.152C197.39 14.64 196.814 14.2133 196.068 13.872C195.321 13.5307 194.457 13.36 193.476 13.36C192.878 13.36 192.42 13.4347 192.1 13.584C191.758 13.7333 191.428 14.0747 191.108 14.608C190.809 15.12 190.66 15.7493 190.66 16.496V17.04C190.724 18.5547 190.766 19.4507 190.788 19.728L190.916 20.752L191.684 20.88C191.982 20.9227 192.228 20.944 192.42 20.944C193.678 20.944 194.82 20.6987 195.844 20.208C196.356 19.9733 196.846 19.5893 197.316 19.056C197.806 18.5013 198.137 17.9573 198.308 17.424C198.393 17.1253 198.436 16.8907 198.436 16.72C198.436 16.1653 198.222 15.6427 197.796 15.152ZM187.716 2.416C187.929 2.30933 188.185 2.256 188.484 2.256C188.996 2.256 189.444 2.448 189.828 2.832C190.062 3.06667 190.201 3.35467 190.244 3.696C190.308 4.016 190.393 5.02933 190.5 6.736C190.606 8.976 190.681 10.1173 190.724 10.16H190.756C190.862 10.16 191.236 10.0853 191.876 9.936C192.622 9.76533 193.273 9.68 193.828 9.68C194.894 9.68 196.196 10.032 197.732 10.736C199.481 11.5467 200.708 12.6773 201.412 14.128C201.625 14.576 201.753 14.9493 201.796 15.248C201.86 15.5467 201.892 16.048 201.892 16.752C201.892 17.456 201.86 17.9573 201.796 18.256C201.732 18.5333 201.561 18.96 201.284 19.536C200.665 20.7307 199.812 21.744 198.724 22.576C197.636 23.408 196.43 23.9627 195.108 24.24C194.34 24.4107 193.54 24.496 192.708 24.496C191.918 24.496 190.99 24.4213 189.924 24.272C189.113 24.144 188.58 24.0373 188.324 23.952C188.068 23.8667 187.833 23.7067 187.62 23.472L187.14 22.96V17.968C187.14 14.96 187.076 11.7067 186.948 8.208C186.884 6.56533 186.852 5.38133 186.852 4.656C186.852 3.80267 186.905 3.25867 187.012 3.024C187.118 2.78933 187.353 2.58667 187.716 2.416ZM214.184 12.944C213.8 12.6667 213.192 12.528 212.36 12.528C211.848 12.528 211.443 12.592 211.144 12.72C210.867 12.848 210.547 13.1147 210.184 13.52C209.843 13.904 209.672 14.1813 209.672 14.352C209.672 14.5013 209.832 14.576 210.152 14.576C210.579 14.5547 211.464 14.4587 212.808 14.288C214.152 14.1173 214.846 14.0107 214.888 13.968C214.91 13.9467 214.92 13.9147 214.92 13.872C214.92 13.6373 214.675 13.328 214.184 12.944ZM210.728 9.04C211.112 8.93333 211.582 8.88 212.136 8.88C213.267 8.88 214.238 9.04 215.048 9.36C215.71 9.59467 216.36 10.0533 217 10.736C217.662 11.3973 218.206 12.144 218.632 12.976C219.059 13.8293 219.272 14.4053 219.272 14.704C219.272 15.3867 218.974 16.0267 218.376 16.624C217.736 17.2 215.742 17.6267 212.392 17.904C211.112 18.0107 210.28 18.096 209.896 18.16C209.512 18.224 209.32 18.32 209.32 18.448C209.32 18.5547 209.512 18.7787 209.896 19.12C210.558 19.76 211.742 20.144 213.448 20.272C213.619 20.2933 213.843 20.304 214.12 20.304C214.568 20.304 215.102 20.1973 215.72 19.984C216.595 19.664 217.288 19.504 217.8 19.504C218.568 19.504 219.07 19.888 219.304 20.656C219.368 20.848 219.4 21.0293 219.4 21.2C219.4 21.9253 218.942 22.5227 218.024 22.992C217.128 23.44 215.859 23.696 214.216 23.76C214.131 23.76 214.014 23.7707 213.864 23.792C213.715 23.792 213.608 23.792 213.544 23.792C211.731 23.792 210.163 23.44 208.84 22.736C207.539 22.0107 206.558 20.9867 205.896 19.664C205.576 19.024 205.416 18.1707 205.416 17.104C205.416 16.0373 205.523 15.1947 205.736 14.576C206.27 12.976 206.931 11.7493 207.72 10.896C208.51 10.0213 209.512 9.40267 210.728 9.04ZM224.581 8.912C224.666 8.89067 224.794 8.88 224.965 8.88C225.37 8.88 225.744 8.98667 226.085 9.2C226.426 9.392 226.661 9.65867 226.789 10C226.874 10.192 226.96 11.6533 227.045 14.384C227.152 17.0933 227.205 19.2267 227.205 20.784C227.205 21.4453 227.194 21.8293 227.173 21.936C227.066 22.7467 226.714 23.2907 226.117 23.568C225.818 23.696 225.584 23.76 225.413 23.76C225.285 23.76 225.093 23.728 224.837 23.664C224.346 23.5147 224.037 23.312 223.909 23.056C223.653 22.5653 223.504 20.6667 223.461 17.36C223.461 16.7627 223.45 15.728 223.429 14.256L223.397 9.872L223.781 9.424C224.037 9.12533 224.304 8.95467 224.581 8.912ZM223.813 2.896C224.069 2.768 224.314 2.704 224.549 2.704C225.018 2.704 225.434 2.896 225.797 3.28C226.16 3.64267 226.341 4.06933 226.341 4.56C226.341 4.90133 226.256 5.2 226.085 5.456C225.722 6.032 225.232 6.32 224.613 6.32C224.208 6.32 223.834 6.18133 223.493 5.904C223.152 5.62667 222.938 5.24267 222.853 4.752C222.853 4.73067 222.842 4.69867 222.821 4.656C222.821 4.592 222.821 4.54933 222.821 4.528C222.821 4.208 222.917 3.89867 223.109 3.6C223.301 3.28 223.536 3.04533 223.813 2.896ZM231.498 9.072C231.754 8.944 232.021 8.88 232.298 8.88C232.682 8.88 233.045 9.008 233.386 9.264C233.728 9.49867 233.962 9.81867 234.09 10.224L234.282 10.896L235.082 10.416C235.616 10.096 236.352 9.936 237.29 9.936C238.208 9.936 238.965 10.0853 239.562 10.384C240.053 10.6187 240.576 11.0027 241.13 11.536C241.706 12.0693 242.165 12.6027 242.506 13.136C243.658 14.9493 244.288 17.7653 244.394 21.584V22.224C244.394 22.736 244.245 23.152 243.946 23.472C243.584 23.8347 243.157 24.016 242.666 24.016C241.877 24.016 241.354 23.6747 241.098 22.992C240.97 22.6293 240.864 21.9147 240.778 20.848C240.522 17.1147 239.69 14.7787 238.282 13.84C237.984 13.648 237.685 13.552 237.386 13.552C236.832 13.552 236.33 13.8613 235.882 14.48C235.456 15.0773 235.114 15.9307 234.858 17.04C234.752 17.5307 234.624 18.416 234.474 19.696C234.325 20.976 234.25 21.84 234.25 22.288C234.25 22.5013 234.069 22.7893 233.706 23.152C233.344 23.4933 232.928 23.664 232.458 23.664C231.584 23.664 231.008 23.2053 230.73 22.288C230.602 21.84 230.538 19.8987 230.538 16.464C230.538 12.368 230.613 10.1387 230.762 9.776C230.89 9.49867 231.136 9.264 231.498 9.072ZM257.452 12.08C257.153 11.8667 256.897 11.7387 256.684 11.696C256.47 11.632 256.065 11.6 255.468 11.6C253.889 11.6427 252.833 12.048 252.3 12.816C252.086 13.1147 251.894 13.584 251.724 14.224C251.553 14.8427 251.468 15.3653 251.468 15.792C251.468 15.8347 251.468 15.8987 251.468 15.984C251.489 16.048 251.5 16.0907 251.5 16.112C251.628 16.752 251.98 17.3173 252.556 17.808C253.153 18.2987 253.846 18.5973 254.635 18.704C254.742 18.7253 254.902 18.736 255.116 18.736C255.926 18.736 256.726 18.3093 257.516 17.456C258.305 16.6027 258.7 15.7067 258.7 14.768C258.7 14.4693 258.689 14.2453 258.668 14.096C258.604 13.5413 258.508 13.1573 258.38 12.944C258.252 12.7307 257.942 12.4427 257.452 12.08ZM253.42 8.144C253.889 8.03733 254.572 7.984 255.468 7.984H255.98C256.769 8.00533 257.292 8.05867 257.548 8.144C257.825 8.208 258.262 8.41067 258.86 8.752C259.649 9.24267 260.3 9.60533 260.812 9.84C261.302 10.0747 261.622 10.32 261.772 10.576C261.985 10.896 262.198 12.3893 262.412 15.056C262.646 17.7013 262.764 20.0373 262.764 22.064C262.764 23.728 262.582 25.1147 262.22 26.224C261.878 27.3547 261.302 28.3787 260.492 29.296C259.148 30.832 257.473 31.6 255.468 31.6C254.209 31.6 252.748 31.312 251.084 30.736C250.358 30.5013 249.878 30.2987 249.644 30.128C249.409 29.9573 249.206 29.6907 249.036 29.328C248.95 29.136 248.908 28.912 248.908 28.656C248.908 28.1653 249.078 27.7493 249.42 27.408C249.676 27.1093 250.049 26.96 250.54 26.96C250.988 26.96 251.638 27.1093 252.492 27.408C253.26 27.6853 254.07 27.8667 254.924 27.952C254.988 27.952 255.062 27.952 255.148 27.952C255.254 27.9733 255.329 27.984 255.372 27.984C256.566 27.984 257.505 27.4507 258.188 26.384C258.55 25.872 258.796 25.392 258.924 24.944C259.073 24.4747 259.18 23.8027 259.244 22.928C259.286 22.3307 259.308 21.968 259.308 21.84C259.308 21.4347 259.212 21.232 259.02 21.232C258.849 21.232 258.55 21.3493 258.124 21.584C257.142 22.0747 256.129 22.32 255.084 22.32C253.292 22.32 251.681 21.7227 250.252 20.528C248.822 19.3333 248.065 17.8613 247.98 16.112C247.98 16.048 247.969 15.952 247.948 15.824C247.948 15.696 247.948 15.6 247.948 15.536C247.948 13.68 248.428 12.1013 249.388 10.8C250.369 9.47733 251.713 8.592 253.42 8.144ZM279.529 8.208C279.913 8.10133 280.511 8.048 281.321 8.048C283.028 8.048 284.265 8.176 285.033 8.432C286.1 8.77333 286.633 9.36 286.633 10.192C286.633 10.6827 286.399 11.1307 285.929 11.536C285.609 11.8347 285.3 11.984 285.001 11.984C284.98 11.984 284.937 11.984 284.873 11.984C284.809 11.9627 284.756 11.952 284.713 11.952C283.305 11.7173 282.196 11.6 281.385 11.6C281.129 11.6 280.895 11.6213 280.681 11.664C280.02 11.8347 279.689 12.144 279.689 12.592C279.689 12.6773 279.7 12.7413 279.721 12.784C279.871 13.2107 280.713 13.744 282.249 14.384C285.001 15.536 286.697 16.9653 287.337 18.672C287.529 19.184 287.625 19.664 287.625 20.112C287.625 20.9013 287.337 21.5733 286.761 22.128C286.207 22.6827 285.417 23.056 284.393 23.248C283.967 23.3333 283.263 23.376 282.281 23.376C280.489 23.376 279.348 23.2693 278.857 23.056C278.58 22.928 278.345 22.7147 278.153 22.416C277.961 22.096 277.865 21.7867 277.865 21.488C277.865 21.168 277.972 20.848 278.185 20.528C278.399 20.1867 278.655 19.952 278.953 19.824C279.231 19.7173 279.561 19.664 279.945 19.664C280.095 19.664 280.425 19.6853 280.937 19.728C281.279 19.7707 281.737 19.792 282.313 19.792C283.209 19.792 283.657 19.6853 283.657 19.472C283.657 19.088 282.729 18.512 280.873 17.744C279.209 17.0187 277.983 16.2613 277.193 15.472C276.425 14.6613 276.041 13.744 276.041 12.72C276.041 12.5493 276.063 12.2933 276.105 11.952C276.276 10.9067 276.703 10.0747 277.385 9.456C277.94 8.90133 278.655 8.48533 279.529 8.208ZM300.094 12.816C299.689 12.7093 299.028 12.6133 298.11 12.528C297.513 12.4853 297.193 12.464 297.15 12.464C296.852 12.464 296.553 12.624 296.254 12.944C295.401 13.8187 294.942 15.0027 294.878 16.496C294.878 16.5813 294.868 16.6987 294.846 16.848C294.846 16.976 294.846 17.072 294.846 17.136C294.846 17.6267 294.974 18.0853 295.23 18.512C295.913 19.728 297.118 20.336 298.846 20.336C299.572 20.3147 300.308 20.0693 301.054 19.6C301.822 19.1093 302.377 18.5227 302.718 17.84C302.91 17.4347 303.006 16.9973 303.006 16.528C303.006 15.7387 302.729 14.992 302.174 14.288C301.641 13.5627 300.948 13.072 300.094 12.816ZM295.23 9.232C295.721 8.95467 296.212 8.816 296.702 8.816C296.809 8.816 297.204 8.83733 297.886 8.88C299.913 8.98667 301.545 9.41333 302.782 10.16C304.02 10.9067 305.012 12.0587 305.758 13.616C306.334 14.8107 306.622 15.952 306.622 17.04C306.622 17.3813 306.59 17.68 306.526 17.936C306.185 19.2587 305.438 20.464 304.286 21.552C303.134 22.64 301.865 23.3653 300.478 23.728C299.753 23.8987 299.177 23.984 298.75 23.984C298.324 23.984 297.748 23.8987 297.022 23.728C294.825 23.152 293.246 22.1067 292.286 20.592C291.54 19.4187 291.166 18.1813 291.166 16.88C291.166 15.5787 291.518 14.192 292.222 12.72C293.033 10.992 294.036 9.82933 295.23 9.232ZM319.833 9.008C320.196 8.64533 320.601 8.464 321.049 8.464C321.497 8.464 321.924 8.64533 322.329 9.008L322.905 9.52L323.001 13.808C323.044 15.7067 323.086 16.9333 323.129 17.488C323.193 18.0427 323.31 18.512 323.481 18.896C323.737 19.4507 323.961 19.728 324.153 19.728C324.644 19.728 325.23 19.3653 325.913 18.64C326.617 17.9147 327.161 17.0933 327.545 16.176C327.822 15.5147 328.142 14.384 328.505 12.784C328.782 11.504 328.996 10.672 329.145 10.288C329.316 9.904 329.582 9.62667 329.945 9.456C330.265 9.30667 330.574 9.232 330.873 9.232C331.172 9.232 331.481 9.31733 331.801 9.488C332.313 9.744 332.654 10.3733 332.825 11.376C333.017 12.3573 333.22 14.64 333.433 18.224C333.582 20.8693 333.657 22.2347 333.657 22.32C333.657 22.8107 333.572 23.1733 333.401 23.408C333.038 23.8987 332.516 24.144 331.833 24.144C331.236 24.144 330.798 23.952 330.521 23.568C330.18 23.0987 330.009 22.32 330.009 21.232C330.009 20.464 329.924 20.08 329.753 20.08C329.582 20.08 329.166 20.4107 328.505 21.072C327.694 21.8613 327.001 22.4373 326.425 22.8C326.041 23.0347 325.71 23.184 325.433 23.248C325.177 23.312 324.74 23.344 324.121 23.344C323.481 23.344 323.044 23.3227 322.809 23.28C322.596 23.216 322.329 23.056 322.009 22.8C320.942 22.0107 320.228 20.976 319.865 19.696C319.502 18.3947 319.321 16.2507 319.321 13.264V9.52L319.833 9.008ZM337.551 8.112C337.892 7.74933 338.33 7.568 338.863 7.568C339.226 7.568 339.546 7.664 339.823 7.856C340.058 8.02667 340.26 8.304 340.431 8.688C340.623 9.072 340.719 9.424 340.719 9.744C340.719 10.0853 340.804 10.256 340.975 10.256C341.167 10.256 341.476 10.1173 341.903 9.84C342.33 9.584 342.895 9.34933 343.599 9.136C344.303 8.92267 344.868 8.816 345.295 8.816C345.722 8.816 346.244 8.95467 346.863 9.232C347.503 9.50933 348.004 9.81867 348.367 10.16C349.135 10.9067 349.679 11.952 349.999 13.296C350.34 14.64 350.511 16.5067 350.511 18.896C350.511 20.5813 350.458 21.6907 350.351 22.224C350.244 22.736 349.999 23.0987 349.615 23.312C349.359 23.44 349.05 23.504 348.687 23.504C348.303 23.504 347.983 23.44 347.727 23.312C347.364 23.12 347.13 22.768 347.023 22.256C346.938 21.7227 346.874 20.4427 346.831 18.416C346.788 16.3893 346.703 15.056 346.575 14.416C346.447 13.7547 346.18 13.2213 345.775 12.816C345.562 12.6027 345.295 12.496 344.975 12.496C344.442 12.496 343.866 12.7627 343.247 13.296C342.65 13.808 342.159 14.4693 341.775 15.28C341.583 15.6853 341.466 16.0693 341.423 16.432C341.38 16.7947 341.338 17.6267 341.295 18.928C341.252 20.72 341.167 21.7867 341.039 22.128C340.74 22.9173 340.164 23.312 339.311 23.312C338.607 23.312 338.074 23.0027 337.711 22.384C337.604 22.1493 337.498 20.1547 337.391 16.4C337.263 12.368 337.178 10.1387 337.135 9.712C337.092 9.28533 337.071 9.05067 337.071 9.008C337.071 8.73067 337.231 8.432 337.551 8.112ZM357.498 8.208C357.882 8.10133 358.479 8.048 359.29 8.048C360.997 8.048 362.234 8.176 363.002 8.432C364.069 8.77333 364.602 9.36 364.602 10.192C364.602 10.6827 364.367 11.1307 363.898 11.536C363.578 11.8347 363.269 11.984 362.97 11.984C362.949 11.984 362.906 11.984 362.842 11.984C362.778 11.9627 362.725 11.952 362.682 11.952C361.274 11.7173 360.165 11.6 359.354 11.6C359.098 11.6 358.863 11.6213 358.65 11.664C357.989 11.8347 357.658 12.144 357.658 12.592C357.658 12.6773 357.669 12.7413 357.69 12.784C357.839 13.2107 358.682 13.744 360.218 14.384C362.97 15.536 364.666 16.9653 365.306 18.672C365.498 19.184 365.594 19.664 365.594 20.112C365.594 20.9013 365.306 21.5733 364.73 22.128C364.175 22.6827 363.386 23.056 362.362 23.248C361.935 23.3333 361.231 23.376 360.25 23.376C358.458 23.376 357.317 23.2693 356.826 23.056C356.549 22.928 356.314 22.7147 356.122 22.416C355.93 22.096 355.834 21.7867 355.834 21.488C355.834 21.168 355.941 20.848 356.154 20.528C356.367 20.1867 356.623 19.952 356.922 19.824C357.199 19.7173 357.53 19.664 357.914 19.664C358.063 19.664 358.394 19.6853 358.906 19.728C359.247 19.7707 359.706 19.792 360.282 19.792C361.178 19.792 361.626 19.6853 361.626 19.472C361.626 19.088 360.698 18.512 358.842 17.744C357.178 17.0187 355.951 16.2613 355.162 15.472C354.394 14.6613 354.01 13.744 354.01 12.72C354.01 12.5493 354.031 12.2933 354.074 11.952C354.245 10.9067 354.671 10.0747 355.354 9.456C355.909 8.90133 356.623 8.48533 357.498 8.208ZM369.583 9.008C369.946 8.64533 370.351 8.464 370.799 8.464C371.247 8.464 371.674 8.64533 372.079 9.008L372.655 9.52L372.751 13.808C372.794 15.7067 372.836 16.9333 372.879 17.488C372.943 18.0427 373.06 18.512 373.231 18.896C373.487 19.4507 373.711 19.728 373.903 19.728C374.394 19.728 374.98 19.3653 375.663 18.64C376.367 17.9147 376.911 17.0933 377.295 16.176C377.572 15.5147 377.892 14.384 378.255 12.784C378.532 11.504 378.746 10.672 378.895 10.288C379.066 9.904 379.332 9.62667 379.695 9.456C380.015 9.30667 380.324 9.232 380.623 9.232C380.922 9.232 381.231 9.31733 381.551 9.488C382.063 9.744 382.404 10.3733 382.575 11.376C382.767 12.3573 382.97 14.64 383.183 18.224C383.332 20.8693 383.407 22.2347 383.407 22.32C383.407 22.8107 383.322 23.1733 383.151 23.408C382.788 23.8987 382.266 24.144 381.583 24.144C380.986 24.144 380.548 23.952 380.271 23.568C379.93 23.0987 379.759 22.32 379.759 21.232C379.759 20.464 379.674 20.08 379.503 20.08C379.332 20.08 378.916 20.4107 378.255 21.072C377.444 21.8613 376.751 22.4373 376.175 22.8C375.791 23.0347 375.46 23.184 375.183 23.248C374.927 23.312 374.49 23.344 373.871 23.344C373.231 23.344 372.794 23.3227 372.559 23.28C372.346 23.216 372.079 23.056 371.759 22.8C370.692 22.0107 369.978 20.976 369.615 19.696C369.252 18.3947 369.071 16.2507 369.071 13.264V9.52L369.583 9.008ZM387.333 9.328C387.717 9.008 388.133 8.848 388.581 8.848C389.05 8.848 389.456 9.01867 389.797 9.36C390.138 9.68 390.309 10.096 390.309 10.608C390.309 11.12 390.405 11.376 390.597 11.376C390.704 11.376 390.928 11.2587 391.269 11.024C392.848 9.936 394.416 9.392 395.973 9.392C396.634 9.392 397.285 9.50933 397.925 9.744C398.501 9.97867 398.906 10.2347 399.141 10.512C399.376 10.7893 399.493 11.1627 399.493 11.632C399.493 12.144 399.301 12.5813 398.917 12.944C398.597 13.2427 398.309 13.392 398.053 13.392C397.968 13.392 397.37 13.3173 396.261 13.168C396.133 13.1467 395.952 13.136 395.717 13.136C395.376 13.136 394.938 13.2533 394.405 13.488C393.018 14.128 392.048 14.9387 391.493 15.92C390.938 16.9013 390.661 18.3093 390.661 20.144C390.64 21.488 390.48 22.4267 390.181 22.96C389.904 23.4933 389.402 23.76 388.677 23.76C388.186 23.76 387.77 23.5893 387.429 23.248L386.917 22.736L386.853 17.072C386.81 12.8907 386.789 10.736 386.789 10.608C386.789 10.096 386.97 9.66933 387.333 9.328ZM412.898 13.808C412.514 13.616 411.97 13.52 411.266 13.52C410.498 13.52 409.847 13.6373 409.314 13.872C408.951 14.0213 408.482 14.352 407.906 14.864C407.33 15.3547 407.042 15.6747 407.042 15.824C407.042 15.888 407.373 15.92 408.034 15.92C409.015 15.92 410.189 15.8667 411.554 15.76C412.919 15.6533 413.698 15.536 413.89 15.408C413.954 15.3867 413.986 15.3227 413.986 15.216C413.986 15.024 413.869 14.7787 413.634 14.48C413.399 14.16 413.154 13.936 412.898 13.808ZM409.122 10.096C409.655 9.94667 410.285 9.872 411.01 9.872C412.354 9.872 413.581 10.1387 414.69 10.672C415.522 11.0987 416.215 11.7493 416.77 12.624C417.325 13.4773 417.666 14.4373 417.794 15.504C417.794 15.5467 417.794 15.6107 417.794 15.696C417.815 15.7813 417.826 15.8453 417.826 15.888C417.826 16.4427 417.719 16.9867 417.506 17.52C417.314 18.0533 417.079 18.416 416.802 18.608C416.439 18.864 413.89 19.184 409.154 19.568C408.151 19.6533 407.65 19.7493 407.65 19.856C407.65 19.984 407.874 20.1867 408.322 20.464C408.77 20.7413 409.207 20.9333 409.634 21.04C410.018 21.1253 410.327 21.168 410.562 21.168C411.245 21.168 412.13 20.944 413.218 20.496C413.986 20.176 414.551 20.016 414.914 20.016C415.277 20.016 415.618 20.176 415.938 20.496C416.365 20.9227 416.578 21.328 416.578 21.712C416.578 21.968 416.514 22.2347 416.386 22.512C416.279 22.768 416.13 22.9707 415.938 23.12C415.767 23.2693 415.447 23.4507 414.978 23.664C413.421 24.3467 411.97 24.688 410.626 24.688C409.858 24.688 409.069 24.5707 408.258 24.336C407.17 23.9947 406.178 23.4187 405.282 22.608C404.386 21.776 403.746 20.8587 403.362 19.856C403.127 19.1947 403.01 18.4587 403.01 17.648C403.01 16.4747 403.202 15.4933 403.586 14.704C404.034 13.7227 404.791 12.784 405.858 11.888C406.925 10.992 408.013 10.3947 409.122 10.096ZM440.594 12.816C440.189 12.7093 439.528 12.6133 438.61 12.528C438.013 12.4853 437.693 12.464 437.65 12.464C437.352 12.464 437.053 12.624 436.754 12.944C435.901 13.8187 435.442 15.0027 435.378 16.496C435.378 16.5813 435.368 16.6987 435.346 16.848C435.346 16.976 435.346 17.072 435.346 17.136C435.346 17.6267 435.474 18.0853 435.73 18.512C436.413 19.728 437.618 20.336 439.346 20.336C440.072 20.3147 440.808 20.0693 441.554 19.6C442.322 19.1093 442.877 18.5227 443.218 17.84C443.41 17.4347 443.506 16.9973 443.506 16.528C443.506 15.7387 443.229 14.992 442.674 14.288C442.141 13.5627 441.448 13.072 440.594 12.816ZM435.73 9.232C436.221 8.95467 436.712 8.816 437.202 8.816C437.309 8.816 437.704 8.83733 438.386 8.88C440.413 8.98667 442.045 9.41333 443.282 10.16C444.52 10.9067 445.512 12.0587 446.258 13.616C446.834 14.8107 447.122 15.952 447.122 17.04C447.122 17.3813 447.09 17.68 447.026 17.936C446.685 19.2587 445.938 20.464 444.786 21.552C443.634 22.64 442.365 23.3653 440.978 23.728C440.253 23.8987 439.677 23.984 439.25 23.984C438.824 23.984 438.248 23.8987 437.522 23.728C435.325 23.152 433.746 22.1067 432.786 20.592C432.04 19.4187 431.666 18.1813 431.666 16.88C431.666 15.5787 432.018 14.192 432.722 12.72C433.533 10.992 434.536 9.82933 435.73 9.232ZM461.323 0.431999C461.707 0.389332 461.995 0.367998 462.187 0.367998C463.723 0.367998 464.875 0.751998 465.643 1.52C466.112 2.01067 466.347 2.53333 466.347 3.088C466.347 3.55733 466.176 3.96267 465.835 4.304C465.515 4.624 465.11 4.784 464.619 4.784C464.171 4.784 463.734 4.63467 463.307 4.336C462.923 4.05866 462.571 3.92 462.251 3.92C461.739 3.92 461.259 4.28267 460.811 5.008C460.363 5.73333 460.086 6.58667 459.979 7.568C459.936 7.90933 459.915 8.112 459.915 8.176C459.915 8.45333 460.054 8.63467 460.331 8.72C460.608 8.784 461.259 8.82667 462.283 8.848C462.454 8.848 462.592 8.848 462.699 8.848C463.68 8.89067 464.267 8.93333 464.459 8.976C464.672 9.01867 464.886 9.15733 465.099 9.392C465.376 9.69067 465.515 10.0747 465.515 10.544C465.515 11.0347 465.366 11.44 465.067 11.76L464.619 12.304H459.563L459.467 12.752C459.446 12.816 459.435 13.168 459.435 13.808C459.435 16.752 459.52 19.3653 459.691 21.648C459.691 21.7333 459.691 21.8507 459.691 22C459.712 22.1493 459.723 22.256 459.723 22.32C459.723 22.8747 459.648 23.28 459.499 23.536C459.35 23.792 459.083 24.016 458.699 24.208C458.443 24.336 458.166 24.4 457.867 24.4C457.27 24.4 456.811 24.176 456.491 23.728C456.32 23.472 456.16 22.5333 456.011 20.912C455.883 19.2693 455.819 17.6587 455.819 16.08C455.819 15.3547 455.83 14.832 455.851 14.512L455.947 12.272L453.867 12.368C452.886 12.4107 452.374 12.432 452.331 12.432C451.926 12.432 451.584 12.3253 451.307 12.112C450.902 11.7493 450.699 11.2693 450.699 10.672C450.699 10.416 450.742 10.192 450.827 10C450.976 9.616 451.286 9.33867 451.755 9.168C452.224 8.99733 453.003 8.88 454.091 8.816C455.435 8.73067 456.118 8.66667 456.139 8.624C456.182 8.58133 456.299 7.97333 456.491 6.8C456.832 4.60267 457.6 2.928 458.795 1.776C459.243 1.328 459.616 1.01867 459.915 0.848C460.235 0.677333 460.704 0.538666 461.323 0.431999ZM479.772 8.816C480.092 8.496 480.497 8.336 480.988 8.336C481.649 8.336 482.108 8.56 482.364 9.008C482.641 9.43467 483.079 10.64 483.676 12.624C483.847 13.1787 484.06 13.8933 484.316 14.768C485.041 17.072 485.457 18.2453 485.564 18.288C485.692 18.288 485.98 17.648 486.428 16.368C487.153 14.192 487.751 12.6667 488.22 11.792C488.711 10.9173 489.287 10.3413 489.948 10.064C490.268 9.91467 490.588 9.84 490.908 9.84C491.377 9.84 491.804 10.064 492.188 10.512C492.593 10.9387 493.041 11.664 493.532 12.688C495.409 16.6773 496.401 18.672 496.508 18.672C496.551 18.672 496.796 18 497.244 16.656C497.713 15.2907 498.204 13.8827 498.716 12.432C499.249 10.9813 499.601 10.16 499.772 9.968C500.113 9.584 500.519 9.392 500.988 9.392C501.5 9.392 501.969 9.616 502.396 10.064C502.631 10.2987 502.748 10.608 502.748 10.992C502.748 11.6107 502.257 13.36 501.276 16.24C500.252 19.248 499.463 21.2213 498.908 22.16C498.353 23.0773 497.66 23.536 496.828 23.536C496.572 23.536 496.38 23.5253 496.252 23.504C495.569 23.3973 494.983 23.0453 494.492 22.448C494.001 21.8507 493.287 20.5707 492.348 18.608C491.303 16.432 490.748 15.344 490.684 15.344C490.62 15.344 490.428 15.792 490.108 16.688C489.084 19.632 488.359 21.5413 487.932 22.416C487.505 23.2907 487.057 23.8347 486.588 24.048C486.225 24.1973 485.799 24.272 485.308 24.272C484.881 24.272 484.551 24.2187 484.316 24.112C483.889 23.8987 483.377 23.0453 482.78 21.552C482.183 20.0587 481.34 17.4987 480.252 13.872C479.633 11.824 479.324 10.512 479.324 9.936C479.324 9.488 479.473 9.11467 479.772 8.816ZM506.964 1.552C507.327 1.25333 507.7 1.104 508.084 1.104C508.852 1.104 509.417 1.57333 509.78 2.512C509.929 2.93867 510.089 3.96267 510.26 5.584C510.431 7.184 510.569 8.67733 510.676 10.064C510.783 11.4293 510.847 12.112 510.868 12.112C510.911 12.112 511.263 11.8773 511.924 11.408C513.225 10.4907 514.463 10.032 515.636 10.032C516.724 10.032 517.673 10.4373 518.484 11.248C519.316 12.0373 519.967 13.2 520.436 14.736C520.799 15.9307 520.98 17.7867 520.98 20.304C520.98 21.8827 520.884 22.9493 520.692 23.504C520.479 24.08 519.988 24.368 519.22 24.368C518.708 24.368 518.281 24.1973 517.94 23.856L517.46 23.376L517.364 20.144C517.236 15.984 516.66 13.84 515.636 13.712H515.54C515.049 13.712 514.441 13.9893 513.716 14.544C512.991 15.0773 512.468 15.664 512.148 16.304C511.956 16.7307 511.7 17.04 511.38 17.232L510.964 17.52L510.9 21.008C510.857 22.7147 510.815 23.7493 510.772 24.112C510.751 24.4533 510.633 24.7307 510.42 24.944C510.079 25.3067 509.652 25.488 509.14 25.488C508.372 25.488 507.839 25.1467 507.54 24.464C507.391 24.0587 507.284 21.6053 507.22 17.104C507.113 9.57333 506.836 5.06133 506.388 3.568C506.324 3.33333 506.292 3.10933 506.292 2.896C506.292 2.34133 506.516 1.89333 506.964 1.552ZM533.407 12.816C533.001 12.7093 532.34 12.6133 531.423 12.528C530.825 12.4853 530.505 12.464 530.463 12.464C530.164 12.464 529.865 12.624 529.567 12.944C528.713 13.8187 528.255 15.0027 528.191 16.496C528.191 16.5813 528.18 16.6987 528.159 16.848C528.159 16.976 528.159 17.072 528.159 17.136C528.159 17.6267 528.287 18.0853 528.543 18.512C529.225 19.728 530.431 20.336 532.159 20.336C532.884 20.3147 533.62 20.0693 534.367 19.6C535.135 19.1093 535.689 18.5227 536.031 17.84C536.223 17.4347 536.319 16.9973 536.319 16.528C536.319 15.7387 536.041 14.992 535.487 14.288C534.953 13.5627 534.26 13.072 533.407 12.816ZM528.543 9.232C529.033 8.95467 529.524 8.816 530.015 8.816C530.121 8.816 530.516 8.83733 531.199 8.88C533.225 8.98667 534.857 9.41333 536.095 10.16C537.332 10.9067 538.324 12.0587 539.071 13.616C539.647 14.8107 539.935 15.952 539.935 17.04C539.935 17.3813 539.903 17.68 539.839 17.936C539.497 19.2587 538.751 20.464 537.599 21.552C536.447 22.64 535.177 23.3653 533.791 23.728C533.065 23.8987 532.489 23.984 532.063 23.984C531.636 23.984 531.06 23.8987 530.335 23.728C528.137 23.152 526.559 22.1067 525.599 20.592C524.852 19.4187 524.479 18.1813 524.479 16.88C524.479 15.5787 524.831 14.192 525.535 12.72C526.345 10.992 527.348 9.82933 528.543 9.232ZM554.899 4.272C555.24 3.952 555.56 3.792 555.859 3.792C556.029 3.792 556.179 3.80267 556.307 3.824C556.883 3.888 557.288 4.08 557.523 4.4L557.939 4.88L557.875 13.264C557.853 18.7893 557.757 21.7653 557.587 22.192C557.309 22.832 556.776 23.152 555.987 23.152C555.731 23.152 555.539 23.1307 555.411 23.088C555.091 22.9813 554.877 22.9067 554.771 22.864C554.685 22.8 554.579 22.608 554.451 22.288C554.344 21.9467 554.28 21.4773 554.259 20.88C554.237 20.2827 554.227 19.3653 554.227 18.128C554.227 17.7867 554.227 17.0933 554.227 16.048C554.248 15.0027 554.259 14.128 554.259 13.424L554.291 4.784L554.899 4.272ZM571.691 8.08C572.075 7.90933 572.32 7.824 572.427 7.824C572.512 7.824 572.758 7.90933 573.163 8.08C573.547 8.22933 573.846 8.54933 574.059 9.04C574.294 9.53067 574.603 10.5227 574.987 12.016C576.032 16.1333 576.672 18.3093 576.907 18.544H576.939C577.024 18.544 577.344 17.9147 577.899 16.656C578.454 15.376 579.094 14.064 579.819 12.72C580.566 11.3547 581.195 10.5973 581.707 10.448C581.92 10.384 582.155 10.352 582.411 10.352C583.222 10.352 583.819 10.576 584.203 11.024C584.459 11.3227 584.854 12.1547 585.387 13.52C586.603 16.5493 587.275 18.064 587.403 18.064H587.435C587.499 18.0213 587.883 16.976 588.587 14.928C589.291 12.7947 589.771 11.4507 590.027 10.896C590.304 10.3413 590.646 9.97867 591.051 9.808C591.328 9.68 591.616 9.616 591.915 9.616C592.022 9.616 592.096 9.62667 592.139 9.648C592.48 9.73333 592.8 9.94667 593.099 10.288C593.419 10.6293 593.579 10.9493 593.579 11.248C593.579 11.5893 593.088 13.104 592.107 15.792C591.147 18.48 590.432 20.3147 589.963 21.296C589.472 22.32 589.067 22.992 588.747 23.312C588.427 23.6107 588 23.76 587.467 23.76C586.699 23.76 586.144 23.5573 585.803 23.152C585.483 22.7253 584.886 21.4987 584.011 19.472C582.966 17.104 582.39 15.92 582.283 15.92C582.176 15.92 581.696 16.88 580.843 18.8C579.819 21.1253 579.094 22.576 578.667 23.152C578.24 23.7067 577.643 23.984 576.875 23.984H576.715C575.99 23.9627 575.52 23.8453 575.307 23.632C574.496 22.9493 573.27 19.5467 571.627 13.424C571.008 11.12 570.699 9.78667 570.699 9.424C570.699 9.232 570.742 9.05067 570.827 8.88C571.019 8.47467 571.307 8.208 571.691 8.08ZM608.208 13.232C607.589 12.6133 606.629 12.304 605.328 12.304C604.688 12.304 604.122 12.4107 603.632 12.624C603.162 12.8373 602.65 13.2533 602.096 13.872C601.541 14.4907 601.178 15.056 601.008 15.568C600.816 16.1227 600.72 16.6453 600.72 17.136C600.72 18.2667 601.168 19.0667 602.064 19.536C602.597 19.8133 603.29 19.952 604.144 19.952C604.72 19.952 605.157 19.8773 605.456 19.728C607.184 18.8533 608.24 17.2853 608.624 15.024L608.816 13.808L608.208 13.232ZM603.344 8.88C603.856 8.73067 604.453 8.656 605.136 8.656C606.288 8.656 607.418 8.85867 608.528 9.264C609.637 9.66933 610.405 10.1813 610.832 10.8C611.13 11.2267 611.514 11.6747 611.984 12.144C612.496 12.6773 612.965 13.5947 613.392 14.896C613.797 16.1333 614.17 17.5093 614.512 19.024C614.874 20.5387 615.056 21.5627 615.056 22.096C615.056 22.6293 614.896 23.0453 614.576 23.344C614.17 23.728 613.786 23.92 613.424 23.92C613.274 23.92 613.082 23.888 612.848 23.824C612.442 23.6747 612.122 23.4187 611.888 23.056C611.674 22.6933 611.482 22.1067 611.312 21.296C611.098 20.336 610.981 19.856 610.96 19.856C610.874 19.856 610.426 20.2613 609.616 21.072C608.016 22.6293 606.352 23.472 604.624 23.6H604.176C603.13 23.6 602.106 23.4187 601.104 23.056C600.122 22.6933 599.344 22.2133 598.768 21.616C598.469 21.3173 598.17 20.8693 597.872 20.272C597.573 19.6533 597.37 19.088 597.264 18.576C597.157 18.0427 597.104 17.5627 597.104 17.136C597.104 15.3653 597.701 13.6693 598.896 12.048C600.112 10.4267 601.594 9.37067 603.344 8.88ZM623.147 8.496C623.531 8.432 623.926 8.4 624.331 8.4C625.611 8.4 626.752 8.688 627.755 9.264C628.758 9.84 629.259 10.5013 629.259 11.248C629.259 11.44 629.227 11.6107 629.163 11.76C628.843 12.5707 628.363 12.976 627.723 12.976C627.254 12.976 626.72 12.8267 626.123 12.528C625.44 12.1867 624.811 12.016 624.235 12.016C623.616 12.016 623.104 12.2187 622.699 12.624C622.486 12.8373 622.379 13.008 622.379 13.136C622.379 13.3067 622.539 13.5093 622.859 13.744C623.2 13.9573 623.819 14.2987 624.715 14.768C626.187 15.536 627.179 16.1653 627.691 16.656C628.182 17.0827 628.608 17.616 628.971 18.256C629.334 18.8747 629.515 19.3973 629.515 19.824C629.515 20.3147 629.387 20.8053 629.131 21.296C628.875 21.7867 628.555 22.16 628.171 22.416C627.19 23.0773 625.995 23.408 624.587 23.408C623.264 23.408 621.899 23.0987 620.491 22.48C619.83 22.16 619.414 21.7973 619.243 21.392C619.115 21.0933 619.051 20.8267 619.051 20.592C619.051 20.1653 619.254 19.7493 619.659 19.344C619.936 19.024 620.31 18.864 620.779 18.864C621.227 18.864 621.771 19.0027 622.411 19.28C623.115 19.5787 623.926 19.728 624.843 19.728C625.27 19.728 625.483 19.6747 625.483 19.568C625.483 19.312 624.566 18.7253 622.731 17.808C621.302 17.0613 620.256 16.3253 619.595 15.6C618.934 14.8533 618.603 14.032 618.603 13.136C618.603 12.0693 619.04 11.088 619.915 10.192C620.811 9.27467 621.888 8.70933 623.147 8.496ZM635.378 19.344C635.527 19.1947 635.858 19.12 636.37 19.12C636.797 19.12 637.17 19.248 637.49 19.504C637.81 19.76 638.013 20.0907 638.098 20.496C638.119 20.56 638.13 20.6773 638.13 20.848C638.13 21.4453 637.97 22.3093 637.65 23.44C637.33 24.5493 636.946 25.5947 636.498 26.576C636.178 27.28 635.623 27.632 634.834 27.632C633.981 27.632 633.405 27.216 633.106 26.384C633.063 26.2773 633.042 26.128 633.042 25.936C633.042 25.6587 633.213 25.0827 633.554 24.208C634.023 22.9067 634.311 21.9467 634.418 21.328C634.546 20.7307 634.674 20.304 634.802 20.048C634.93 19.792 635.122 19.5573 635.378 19.344ZM665.395 13.232C664.777 12.6133 663.817 12.304 662.515 12.304C661.875 12.304 661.31 12.4107 660.819 12.624C660.35 12.8373 659.838 13.2533 659.283 13.872C658.729 14.4907 658.366 15.056 658.195 15.568C658.003 16.1227 657.907 16.6453 657.907 17.136C657.907 18.2667 658.355 19.0667 659.251 19.536C659.785 19.8133 660.478 19.952 661.331 19.952C661.907 19.952 662.345 19.8773 662.643 19.728C664.371 18.8533 665.427 17.2853 665.811 15.024L666.003 13.808L665.395 13.232ZM660.531 8.88C661.043 8.73067 661.641 8.656 662.323 8.656C663.475 8.656 664.606 8.85867 665.715 9.264C666.825 9.66933 667.593 10.1813 668.019 10.8C668.318 11.2267 668.702 11.6747 669.171 12.144C669.683 12.6773 670.153 13.5947 670.579 14.896C670.985 16.1333 671.358 17.5093 671.699 19.024C672.062 20.5387 672.243 21.5627 672.243 22.096C672.243 22.6293 672.083 23.0453 671.763 23.344C671.358 23.728 670.974 23.92 670.611 23.92C670.462 23.92 670.27 23.888 670.035 23.824C669.63 23.6747 669.31 23.4187 669.075 23.056C668.862 22.6933 668.67 22.1067 668.499 21.296C668.286 20.336 668.169 19.856 668.147 19.856C668.062 19.856 667.614 20.2613 666.803 21.072C665.203 22.6293 663.539 23.472 661.811 23.6H661.363C660.318 23.6 659.294 23.4187 658.291 23.056C657.31 22.6933 656.531 22.2133 655.955 21.616C655.657 21.3173 655.358 20.8693 655.059 20.272C654.761 19.6533 654.558 19.088 654.451 18.576C654.345 18.0427 654.291 17.5627 654.291 17.136C654.291 15.3653 654.889 13.6693 656.083 12.048C657.299 10.4267 658.782 9.37067 660.531 8.88ZM676.655 9.072C676.911 8.944 677.177 8.88 677.455 8.88C677.839 8.88 678.201 9.008 678.543 9.264C678.884 9.49867 679.119 9.81867 679.247 10.224L679.439 10.896L680.239 10.416C680.772 10.096 681.508 9.936 682.447 9.936C683.364 9.936 684.121 10.0853 684.719 10.384C685.209 10.6187 685.732 11.0027 686.287 11.536C686.863 12.0693 687.321 12.6027 687.663 13.136C688.815 14.9493 689.444 17.7653 689.551 21.584V22.224C689.551 22.736 689.401 23.152 689.103 23.472C688.74 23.8347 688.313 24.016 687.823 24.016C687.033 24.016 686.511 23.6747 686.255 22.992C686.127 22.6293 686.02 21.9147 685.935 20.848C685.679 17.1147 684.847 14.7787 683.439 13.84C683.14 13.648 682.841 13.552 682.543 13.552C681.988 13.552 681.487 13.8613 681.039 14.48C680.612 15.0773 680.271 15.9307 680.015 17.04C679.908 17.5307 679.78 18.416 679.631 19.696C679.481 20.976 679.407 21.84 679.407 22.288C679.407 22.5013 679.225 22.7893 678.863 23.152C678.5 23.4933 678.084 23.664 677.615 23.664C676.74 23.664 676.164 23.2053 675.887 22.288C675.759 21.84 675.695 19.8987 675.695 16.464C675.695 12.368 675.769 10.1387 675.919 9.776C676.047 9.49867 676.292 9.264 676.655 9.072ZM701.136 13.872C700.944 13.6373 700.613 13.52 700.144 13.52C699.76 13.52 699.376 13.616 698.992 13.808C698.416 14.0853 697.872 14.672 697.36 15.568C696.848 16.464 696.592 17.2533 696.592 17.936C696.592 18.1493 696.624 18.3307 696.688 18.48C696.837 18.8213 697.2 19.1413 697.776 19.44C698.352 19.7173 698.896 19.856 699.408 19.856C699.514 19.856 699.674 19.8347 699.888 19.792C700.378 19.6427 700.869 19.2373 701.36 18.576C701.872 17.8933 702.266 17.0933 702.544 16.176C702.714 15.6213 702.8 15.248 702.8 15.056C702.8 14.7573 702.576 14.544 702.128 14.416C701.616 14.224 701.285 14.0427 701.136 13.872ZM703.728 2.704C703.92 2.61867 704.144 2.576 704.4 2.576C705.21 2.576 705.754 2.928 706.032 3.632C706.16 3.952 706.362 5.24267 706.64 7.504C706.896 9.872 707.045 11.2053 707.088 11.504C707.962 17.84 708.4 21.4667 708.4 22.384C708.4 22.8107 708.218 23.184 707.856 23.504C707.514 23.824 707.12 23.984 706.672 23.984C706.053 23.984 705.573 23.76 705.232 23.312C704.89 22.8427 704.72 22.2133 704.72 21.424C704.72 21.0827 704.677 20.8693 704.592 20.784H704.56C704.432 20.784 704.037 21.0933 703.376 21.712C702.672 22.416 701.989 22.8853 701.328 23.12C700.73 23.3547 700.048 23.472 699.28 23.472C698.149 23.472 697.061 23.1947 696.016 22.64C694.97 22.064 694.16 21.3067 693.584 20.368C693.37 20.0053 693.232 19.696 693.168 19.44C693.125 19.1627 693.104 18.64 693.104 17.872C693.125 16.8907 693.242 16.0693 693.456 15.408C693.669 14.7467 694.064 13.9787 694.64 13.104C695.045 12.4853 695.621 11.888 696.368 11.312C697.114 10.736 697.765 10.3627 698.32 10.192C698.874 10.0427 699.461 9.968 700.08 9.968C700.848 9.968 701.52 10.064 702.096 10.256C702.714 10.448 703.045 10.544 703.088 10.544C703.13 10.544 703.152 10.416 703.152 10.16C703.152 9.456 703.066 8.57067 702.896 7.504C702.746 6.62933 702.672 5.84 702.672 5.136C702.672 3.81333 703.024 3.00267 703.728 2.704ZM721.678 8.816C721.998 8.496 722.404 8.336 722.894 8.336C723.556 8.336 724.014 8.56 724.27 9.008C724.548 9.43467 724.985 10.64 725.582 12.624C725.753 13.1787 725.966 13.8933 726.222 14.768C726.948 17.072 727.364 18.2453 727.47 18.288C727.598 18.288 727.886 17.648 728.334 16.368C729.06 14.192 729.657 12.6667 730.126 11.792C730.617 10.9173 731.193 10.3413 731.854 10.064C732.174 9.91467 732.494 9.84 732.814 9.84C733.284 9.84 733.71 10.064 734.094 10.512C734.5 10.9387 734.948 11.664 735.438 12.688C737.316 16.6773 738.308 18.672 738.414 18.672C738.457 18.672 738.702 18 739.15 16.656C739.62 15.2907 740.11 13.8827 740.622 12.432C741.156 10.9813 741.508 10.16 741.678 9.968C742.02 9.584 742.425 9.392 742.894 9.392C743.406 9.392 743.876 9.616 744.302 10.064C744.537 10.2987 744.654 10.608 744.654 10.992C744.654 11.6107 744.164 13.36 743.182 16.24C742.158 19.248 741.369 21.2213 740.814 22.16C740.26 23.0773 739.566 23.536 738.734 23.536C738.478 23.536 738.286 23.5253 738.158 23.504C737.476 23.3973 736.889 23.0453 736.398 22.448C735.908 21.8507 735.193 20.5707 734.254 18.608C733.209 16.432 732.654 15.344 732.59 15.344C732.526 15.344 732.334 15.792 732.014 16.688C730.99 19.632 730.265 21.5413 729.838 22.416C729.412 23.2907 728.964 23.8347 728.494 24.048C728.132 24.1973 727.705 24.272 727.214 24.272C726.788 24.272 726.457 24.2187 726.222 24.112C725.796 23.8987 725.284 23.0453 724.686 21.552C724.089 20.0587 723.246 17.4987 722.158 13.872C721.54 11.824 721.23 10.512 721.23 9.936C721.23 9.488 721.38 9.11467 721.678 8.816ZM748.87 1.552C749.233 1.25333 749.606 1.104 749.99 1.104C750.758 1.104 751.324 1.57333 751.686 2.512C751.836 2.93867 751.996 3.96267 752.166 5.584C752.337 7.184 752.476 8.67733 752.582 10.064C752.689 11.4293 752.753 12.112 752.774 12.112C752.817 12.112 753.169 11.8773 753.83 11.408C755.132 10.4907 756.369 10.032 757.542 10.032C758.63 10.032 759.58 10.4373 760.39 11.248C761.222 12.0373 761.873 13.2 762.342 14.736C762.705 15.9307 762.886 17.7867 762.886 20.304C762.886 21.8827 762.79 22.9493 762.598 23.504C762.385 24.08 761.894 24.368 761.126 24.368C760.614 24.368 760.188 24.1973 759.846 23.856L759.366 23.376L759.27 20.144C759.142 15.984 758.566 13.84 757.542 13.712H757.446C756.956 13.712 756.348 13.9893 755.622 14.544C754.897 15.0773 754.374 15.664 754.054 16.304C753.862 16.7307 753.606 17.04 753.286 17.232L752.87 17.52L752.806 21.008C752.764 22.7147 752.721 23.7493 752.678 24.112C752.657 24.4533 752.54 24.7307 752.326 24.944C751.985 25.3067 751.558 25.488 751.046 25.488C750.278 25.488 749.745 25.1467 749.446 24.464C749.297 24.0587 749.19 21.6053 749.126 17.104C749.02 9.57333 748.742 5.06133 748.294 3.568C748.23 3.33333 748.198 3.10933 748.198 2.896C748.198 2.34133 748.422 1.89333 748.87 1.552ZM775.601 13.68C775.494 13.3387 775.398 13.1467 775.313 13.104C775.228 13.04 774.993 13.008 774.609 13.008C773.5 13.0293 772.465 13.552 771.505 14.576C770.545 15.5787 770.065 16.592 770.065 17.616C770.065 18.128 770.204 18.5547 770.481 18.896C771.1 19.5787 771.75 19.92 772.433 19.92C772.476 19.92 772.518 19.92 772.561 19.92C772.604 19.8987 772.646 19.888 772.689 19.888C773.073 19.8027 773.478 19.5467 773.905 19.12C774.353 18.6933 774.694 18.224 774.929 17.712C775.42 16.56 775.665 15.44 775.665 14.352C775.665 14.032 775.644 13.808 775.601 13.68ZM772.625 9.648C773.201 9.456 773.862 9.36 774.609 9.36C775.59 9.36 776.422 9.52 777.105 9.84C777.553 10.0747 777.958 10.4267 778.321 10.896C778.705 11.344 778.94 11.7707 779.025 12.176C779.11 12.5813 779.228 12.9653 779.377 13.328C779.612 13.9467 780.081 16.272 780.785 20.304C780.892 20.944 780.945 21.424 780.945 21.744C780.945 23.024 780.348 23.664 779.153 23.664C778.748 23.664 778.374 23.504 778.033 23.184C777.713 22.864 777.51 22.4693 777.425 22C777.34 21.5733 777.265 21.328 777.201 21.264C777.116 21.2 776.87 21.3707 776.465 21.776C775.249 22.992 773.852 23.6 772.273 23.6C771.996 23.6 771.708 23.568 771.409 23.504C770.236 23.248 769.137 22.608 768.113 21.584C766.961 20.432 766.385 19.1413 766.385 17.712C766.385 16.5813 766.737 15.3547 767.441 14.032C767.974 13.0293 768.7 12.1333 769.617 11.344C770.556 10.5547 771.558 9.98933 772.625 9.648ZM789.407 1.52C789.769 1.15733 790.207 0.975998 790.719 0.975998C791.103 0.975998 791.444 1.09333 791.743 1.328C792.063 1.54133 792.287 1.85067 792.415 2.256C792.479 2.49067 792.585 3.6 792.735 5.584C792.884 7.54667 792.959 8.912 792.959 9.68C792.959 9.872 793.001 9.98933 793.087 10.032C793.193 10.0747 793.439 10.096 793.823 10.096C794.399 10.096 794.729 10.032 794.815 9.904C794.857 9.79733 795.295 9.744 796.127 9.744C797.193 9.744 797.897 9.81867 798.239 9.968C798.559 10.1173 798.804 10.4053 798.975 10.832C799.124 11.1307 799.199 11.376 799.199 11.568C799.199 11.7173 799.167 11.8987 799.103 12.112C798.953 12.6027 798.676 12.9333 798.271 13.104C797.887 13.2533 797.119 13.36 795.967 13.424C794.665 13.488 793.823 13.5733 793.439 13.68L792.927 13.808L793.055 18.32C793.097 20.3253 793.119 21.4027 793.119 21.552C793.119 22.4907 793.044 23.12 792.895 23.44C792.575 24.1227 792.052 24.464 791.327 24.464C791.049 24.464 790.761 24.4 790.463 24.272C790.228 24.1653 790.057 24.0693 789.951 23.984C789.844 23.8773 789.748 23.6107 789.663 23.184C789.577 22.736 789.524 22.2133 789.503 21.616C789.481 21.0187 789.46 20.0373 789.439 18.672L789.375 14.032L788.415 14.064C787.839 14.1067 787.327 14.192 786.879 14.32C786.772 14.3627 786.601 14.384 786.367 14.384C785.641 14.384 785.119 14.16 784.799 13.712C784.628 13.4347 784.543 13.0613 784.543 12.592C784.543 12.1867 784.607 11.8667 784.735 11.632C785.033 11.0987 786.079 10.6933 787.871 10.416L789.343 10.192L789.215 7.376C789.129 5.37067 789.055 4.00533 788.991 3.28C788.948 2.768 788.927 2.49067 788.927 2.448C788.927 2.14933 789.087 1.84 789.407 1.52ZM814.242 4.272C814.584 3.952 814.904 3.792 815.202 3.792C815.373 3.792 815.522 3.80267 815.65 3.824C816.226 3.888 816.632 4.08 816.866 4.4L817.282 4.88L817.218 13.264C817.197 18.7893 817.101 21.7653 816.93 22.192C816.653 22.832 816.12 23.152 815.33 23.152C815.074 23.152 814.882 23.1307 814.754 23.088C814.434 22.9813 814.221 22.9067 814.114 22.864C814.029 22.8 813.922 22.608 813.794 22.288C813.688 21.9467 813.624 21.4773 813.602 20.88C813.581 20.2827 813.57 19.3653 813.57 18.128C813.57 17.7867 813.57 17.0933 813.57 16.048C813.592 15.0027 813.602 14.128 813.602 13.424L813.634 4.784L814.242 4.272ZM834.902 1.552C835.264 1.25333 835.638 1.104 836.022 1.104C836.79 1.104 837.355 1.57333 837.718 2.512C837.867 2.93867 838.027 3.96267 838.198 5.584C838.368 7.184 838.507 8.67733 838.614 10.064C838.72 11.4293 838.784 12.112 838.806 12.112C838.848 12.112 839.2 11.8773 839.862 11.408C841.163 10.4907 842.4 10.032 843.574 10.032C844.662 10.032 845.611 10.4373 846.422 11.248C847.254 12.0373 847.904 13.2 848.374 14.736C848.736 15.9307 848.918 17.7867 848.918 20.304C848.918 21.8827 848.822 22.9493 848.63 23.504C848.416 24.08 847.926 24.368 847.158 24.368C846.646 24.368 846.219 24.1973 845.878 23.856L845.398 23.376L845.302 20.144C845.174 15.984 844.598 13.84 843.574 13.712H843.478C842.987 13.712 842.379 13.9893 841.654 14.544C840.928 15.0773 840.406 15.664 840.086 16.304C839.894 16.7307 839.638 17.04 839.318 17.232L838.902 17.52L838.838 21.008C838.795 22.7147 838.752 23.7493 838.71 24.112C838.688 24.4533 838.571 24.7307 838.358 24.944C838.016 25.3067 837.59 25.488 837.078 25.488C836.31 25.488 835.776 25.1467 835.478 24.464C835.328 24.0587 835.222 21.6053 835.158 17.104C835.051 9.57333 834.774 5.06133 834.326 3.568C834.262 3.33333 834.23 3.10933 834.23 2.896C834.23 2.34133 834.454 1.89333 834.902 1.552ZM863.52 13.232C862.902 12.6133 861.942 12.304 860.64 12.304C860 12.304 859.435 12.4107 858.944 12.624C858.475 12.8373 857.963 13.2533 857.408 13.872C856.854 14.4907 856.491 15.056 856.32 15.568C856.128 16.1227 856.032 16.6453 856.032 17.136C856.032 18.2667 856.48 19.0667 857.376 19.536C857.91 19.8133 858.603 19.952 859.456 19.952C860.032 19.952 860.47 19.8773 860.768 19.728C862.496 18.8533 863.552 17.2853 863.936 15.024L864.128 13.808L863.52 13.232ZM858.656 8.88C859.168 8.73067 859.766 8.656 860.448 8.656C861.6 8.656 862.731 8.85867 863.84 9.264C864.95 9.66933 865.718 10.1813 866.144 10.8C866.443 11.2267 866.827 11.6747 867.296 12.144C867.808 12.6773 868.278 13.5947 868.704 14.896C869.11 16.1333 869.483 17.5093 869.824 19.024C870.187 20.5387 870.368 21.5627 870.368 22.096C870.368 22.6293 870.208 23.0453 869.888 23.344C869.483 23.728 869.099 23.92 868.736 23.92C868.587 23.92 868.395 23.888 868.16 23.824C867.755 23.6747 867.435 23.4187 867.2 23.056C866.987 22.6933 866.795 22.1067 866.624 21.296C866.411 20.336 866.294 19.856 866.272 19.856C866.187 19.856 865.739 20.2613 864.928 21.072C863.328 22.6293 861.664 23.472 859.936 23.6H859.488C858.443 23.6 857.419 23.4187 856.416 23.056C855.435 22.6933 854.656 22.2133 854.08 21.616C853.782 21.3173 853.483 20.8693 853.184 20.272C852.886 19.6533 852.683 19.088 852.576 18.576C852.47 18.0427 852.416 17.5627 852.416 17.136C852.416 15.3653 853.014 13.6693 854.208 12.048C855.424 10.4267 856.907 9.37067 858.656 8.88ZM882.172 13.616C881.318 13.2107 880.721 13.008 880.38 13.008C879.974 13.008 879.462 13.2853 878.844 13.84C878.012 14.608 877.596 15.5573 877.596 16.688C877.596 17.6053 877.894 18.2987 878.492 18.768C878.769 18.9813 879.057 19.088 879.356 19.088C879.718 19.088 880.177 18.9387 880.732 18.64C882.524 17.7013 883.42 16.4853 883.42 14.992V14.192L882.172 13.616ZM883.804 2.256C884.166 1.95733 884.593 1.808 885.084 1.808C885.404 1.808 885.67 1.872 885.884 2C886.14 2.14933 886.353 2.39467 886.524 2.736C886.652 2.992 886.737 3.70667 886.78 4.88C886.844 6.05333 886.886 8.74133 886.908 12.944L886.972 22.576L886.428 23.12C886.065 23.4827 885.649 23.664 885.18 23.664C884.732 23.664 884.326 23.504 883.964 23.184C883.601 22.864 883.42 22.5013 883.42 22.096C883.42 21.7547 883.398 21.5627 883.356 21.52H883.324C883.174 21.52 882.822 21.6587 882.268 21.936C881.222 22.4267 880.241 22.672 879.324 22.672C877.894 22.672 876.646 22.096 875.58 20.944C874.492 19.7493 873.948 18.3413 873.948 16.72C873.948 14.5867 874.78 12.752 876.444 11.216C877.702 10.064 879.068 9.488 880.54 9.488C881.18 9.488 881.766 9.57333 882.3 9.744C882.876 9.936 883.185 10.032 883.228 10.032C883.249 10.032 883.26 8.816 883.26 6.384V2.736L883.804 2.256ZM905.126 1.52C905.488 1.15733 905.926 0.975998 906.438 0.975998C906.822 0.975998 907.163 1.09333 907.462 1.328C907.782 1.54133 908.006 1.85067 908.134 2.256C908.198 2.49067 908.304 3.6 908.454 5.584C908.603 7.54667 908.678 8.912 908.678 9.68C908.678 9.872 908.72 9.98933 908.806 10.032C908.912 10.0747 909.158 10.096 909.542 10.096C910.118 10.096 910.448 10.032 910.534 9.904C910.576 9.79733 911.014 9.744 911.846 9.744C912.912 9.744 913.616 9.81867 913.958 9.968C914.278 10.1173 914.523 10.4053 914.694 10.832C914.843 11.1307 914.918 11.376 914.918 11.568C914.918 11.7173 914.886 11.8987 914.822 12.112C914.672 12.6027 914.395 12.9333 913.99 13.104C913.606 13.2533 912.838 13.36 911.686 13.424C910.384 13.488 909.542 13.5733 909.158 13.68L908.646 13.808L908.774 18.32C908.816 20.3253 908.838 21.4027 908.838 21.552C908.838 22.4907 908.763 23.12 908.614 23.44C908.294 24.1227 907.771 24.464 907.046 24.464C906.768 24.464 906.48 24.4 906.182 24.272C905.947 24.1653 905.776 24.0693 905.67 23.984C905.563 23.8773 905.467 23.6107 905.382 23.184C905.296 22.736 905.243 22.2133 905.222 21.616C905.2 21.0187 905.179 20.0373 905.158 18.672L905.094 14.032L904.134 14.064C903.558 14.1067 903.046 14.192 902.598 14.32C902.491 14.3627 902.32 14.384 902.086 14.384C901.36 14.384 900.838 14.16 900.518 13.712C900.347 13.4347 900.262 13.0613 900.262 12.592C900.262 12.1867 900.326 11.8667 900.454 11.632C900.752 11.0987 901.798 10.6933 903.59 10.416L905.062 10.192L904.934 7.376C904.848 5.37067 904.774 4.00533 904.71 3.28C904.667 2.768 904.646 2.49067 904.646 2.448C904.646 2.14933 904.806 1.84 905.126 1.52ZM927.182 11.6C926.606 11.4933 926.126 11.44 925.742 11.44C924.867 11.44 924.131 11.6213 923.534 11.984C923.235 12.176 922.883 12.8267 922.478 13.936C922.094 15.024 921.902 15.8987 921.902 16.56C921.902 17.6267 922.243 18.4907 922.926 19.152C923.63 19.792 924.547 20.1227 925.678 20.144C926.595 20.144 927.449 19.888 928.238 19.376C929.049 18.864 929.635 18.192 929.998 17.36C930.233 16.8267 930.35 16.2187 930.35 15.536C930.35 14.704 930.19 13.9787 929.87 13.36C929.635 12.8693 929.315 12.496 928.91 12.24C928.505 11.984 927.929 11.7707 927.182 11.6ZM923.566 8.176C924.313 7.984 925.049 7.888 925.774 7.888C927.139 7.888 928.601 8.22933 930.158 8.912C931.267 9.40267 932.142 10.2667 932.782 11.504C933.443 12.7413 933.785 14.2027 933.806 15.888V16.08C933.806 18.6187 932.675 20.6773 930.414 22.256C929.006 23.2587 927.438 23.76 925.71 23.76C924.281 23.76 922.958 23.408 921.742 22.704C920.526 21.9787 919.609 20.9653 918.99 19.664C918.777 19.216 918.638 18.832 918.574 18.512C918.531 18.192 918.51 17.52 918.51 16.496C918.531 14.9813 918.691 13.7867 918.99 12.912C919.694 10.9707 920.526 9.65867 921.486 8.976C921.87 8.69867 922.563 8.432 923.566 8.176ZM956.594 12.816C956.189 12.7093 955.528 12.6133 954.61 12.528C954.013 12.4853 953.693 12.464 953.65 12.464C953.352 12.464 953.053 12.624 952.754 12.944C951.901 13.8187 951.442 15.0027 951.378 16.496C951.378 16.5813 951.368 16.6987 951.346 16.848C951.346 16.976 951.346 17.072 951.346 17.136C951.346 17.6267 951.474 18.0853 951.73 18.512C952.413 19.728 953.618 20.336 955.346 20.336C956.072 20.3147 956.808 20.0693 957.554 19.6C958.322 19.1093 958.877 18.5227 959.218 17.84C959.41 17.4347 959.506 16.9973 959.506 16.528C959.506 15.7387 959.229 14.992 958.674 14.288C958.141 13.5627 957.448 13.072 956.594 12.816ZM951.73 9.232C952.221 8.95467 952.712 8.816 953.202 8.816C953.309 8.816 953.704 8.83733 954.386 8.88C956.413 8.98667 958.045 9.41333 959.282 10.16C960.52 10.9067 961.512 12.0587 962.258 13.616C962.834 14.8107 963.122 15.952 963.122 17.04C963.122 17.3813 963.09 17.68 963.026 17.936C962.685 19.2587 961.938 20.464 960.786 21.552C959.634 22.64 958.365 23.3653 956.978 23.728C956.253 23.8987 955.677 23.984 955.25 23.984C954.824 23.984 954.248 23.8987 953.522 23.728C951.325 23.152 949.746 22.1067 948.786 20.592C948.04 19.4187 947.666 18.1813 947.666 16.88C947.666 15.5787 948.018 14.192 948.722 12.72C949.533 10.992 950.536 9.82933 951.73 9.232ZM977.323 0.431999C977.707 0.389332 977.995 0.367998 978.187 0.367998C979.723 0.367998 980.875 0.751998 981.643 1.52C982.112 2.01067 982.347 2.53333 982.347 3.088C982.347 3.55733 982.176 3.96267 981.835 4.304C981.515 4.624 981.11 4.784 980.619 4.784C980.171 4.784 979.734 4.63467 979.307 4.336C978.923 4.05866 978.571 3.92 978.251 3.92C977.739 3.92 977.259 4.28267 976.811 5.008C976.363 5.73333 976.086 6.58667 975.979 7.568C975.936 7.90933 975.915 8.112 975.915 8.176C975.915 8.45333 976.054 8.63467 976.331 8.72C976.608 8.784 977.259 8.82667 978.283 8.848C978.454 8.848 978.592 8.848 978.699 8.848C979.68 8.89067 980.267 8.93333 980.459 8.976C980.672 9.01867 980.886 9.15733 981.099 9.392C981.376 9.69067 981.515 10.0747 981.515 10.544C981.515 11.0347 981.366 11.44 981.067 11.76L980.619 12.304H975.563L975.467 12.752C975.446 12.816 975.435 13.168 975.435 13.808C975.435 16.752 975.52 19.3653 975.691 21.648C975.691 21.7333 975.691 21.8507 975.691 22C975.712 22.1493 975.723 22.256 975.723 22.32C975.723 22.8747 975.648 23.28 975.499 23.536C975.35 23.792 975.083 24.016 974.699 24.208C974.443 24.336 974.166 24.4 973.867 24.4C973.27 24.4 972.811 24.176 972.491 23.728C972.32 23.472 972.16 22.5333 972.011 20.912C971.883 19.2693 971.819 17.6587 971.819 16.08C971.819 15.3547 971.83 14.832 971.851 14.512L971.947 12.272L969.867 12.368C968.886 12.4107 968.374 12.432 968.331 12.432C967.926 12.432 967.584 12.3253 967.307 12.112C966.902 11.7493 966.699 11.2693 966.699 10.672C966.699 10.416 966.742 10.192 966.827 10C966.976 9.616 967.286 9.33867 967.755 9.168C968.224 8.99733 969.003 8.88 970.091 8.816C971.435 8.73067 972.118 8.66667 972.139 8.624C972.182 8.58133 972.299 7.97333 972.491 6.8C972.832 4.60267 973.6 2.928 974.795 1.776C975.243 1.328 975.616 1.01867 975.915 0.848C976.235 0.677333 976.704 0.538666 977.323 0.431999ZM993.498 1.264C993.711 1.2 993.978 1.168 994.298 1.168C995.322 1.168 996.133 1.33867 996.73 1.68C997.541 2.17067 997.946 2.832 997.946 3.664C997.946 4.304 997.658 4.77333 997.082 5.072C996.805 5.22133 996.506 5.296 996.186 5.296C995.866 5.296 995.493 5.2 995.066 5.008C994.725 4.85867 994.543 4.784 994.522 4.784C994.437 4.784 994.298 4.88 994.106 5.072C993.871 5.30667 993.669 5.78667 993.498 6.512C993.327 7.23733 993.242 8.03733 993.242 8.912V9.584C993.242 9.88267 993.274 10.0853 993.338 10.192C993.402 10.2987 993.551 10.352 993.786 10.352C993.999 10.352 994.511 10.2987 995.322 10.192C995.514 10.1707 995.77 10.16 996.09 10.16C997.562 10.16 998.298 10.7573 998.298 11.952C998.277 12.5707 998.053 13.0187 997.626 13.296C997.221 13.552 996.495 13.7227 995.45 13.808C994.447 13.8933 993.893 13.968 993.786 14.032C993.765 14.032 993.754 14.128 993.754 14.32C993.754 14.8747 993.861 15.9733 994.074 17.616C994.287 19.2587 994.49 20.5493 994.682 21.488C994.767 22 994.81 22.352 994.81 22.544C994.81 23.2693 994.639 23.8453 994.298 24.272C993.957 24.6987 993.487 24.912 992.89 24.912C992.399 24.912 991.983 24.752 991.642 24.432C991.407 24.176 991.247 23.8987 991.162 23.6C991.098 23.28 991.002 22.448 990.874 21.104C990.661 19.0773 990.469 17.4773 990.298 16.304L990.01 14.288L988.442 14.224C987.717 14.1813 987.258 14.128 987.066 14.064C986.874 14 986.682 13.8613 986.49 13.648C986.213 13.3067 986.074 12.8907 986.074 12.4C986.074 12.1013 986.138 11.824 986.266 11.568C986.565 11.056 987.311 10.736 988.506 10.608L989.53 10.512L989.626 8.56C989.754 6.34133 990.127 4.656 990.746 3.504C991.365 2.33067 992.282 1.584 993.498 1.264ZM1011.74 13.808C1011.36 13.616 1010.81 13.52 1010.11 13.52C1009.34 13.52 1008.69 13.6373 1008.16 13.872C1007.8 14.0213 1007.33 14.352 1006.75 14.864C1006.17 15.3547 1005.89 15.6747 1005.89 15.824C1005.89 15.888 1006.22 15.92 1006.88 15.92C1007.86 15.92 1009.03 15.8667 1010.4 15.76C1011.76 15.6533 1012.54 15.536 1012.73 15.408C1012.8 15.3867 1012.83 15.3227 1012.83 15.216C1012.83 15.024 1012.71 14.7787 1012.48 14.48C1012.24 14.16 1012 13.936 1011.74 13.808ZM1007.97 10.096C1008.5 9.94667 1009.13 9.872 1009.85 9.872C1011.2 9.872 1012.42 10.1387 1013.53 10.672C1014.37 11.0987 1015.06 11.7493 1015.61 12.624C1016.17 13.4773 1016.51 14.4373 1016.64 15.504C1016.64 15.5467 1016.64 15.6107 1016.64 15.696C1016.66 15.7813 1016.67 15.8453 1016.67 15.888C1016.67 16.4427 1016.56 16.9867 1016.35 17.52C1016.16 18.0533 1015.92 18.416 1015.65 18.608C1015.28 18.864 1012.73 19.184 1008 19.568C1007 19.6533 1006.49 19.7493 1006.49 19.856C1006.49 19.984 1006.72 20.1867 1007.17 20.464C1007.61 20.7413 1008.05 20.9333 1008.48 21.04C1008.86 21.1253 1009.17 21.168 1009.41 21.168C1010.09 21.168 1010.97 20.944 1012.06 20.496C1012.83 20.176 1013.4 20.016 1013.76 20.016C1014.12 20.016 1014.46 20.176 1014.78 20.496C1015.21 20.9227 1015.42 21.328 1015.42 21.712C1015.42 21.968 1015.36 22.2347 1015.23 22.512C1015.12 22.768 1014.97 22.9707 1014.78 23.12C1014.61 23.2693 1014.29 23.4507 1013.82 23.664C1012.26 24.3467 1010.81 24.688 1009.47 24.688C1008.7 24.688 1007.91 24.5707 1007.1 24.336C1006.01 23.9947 1005.02 23.4187 1004.13 22.608C1003.23 21.776 1002.59 20.8587 1002.21 19.856C1001.97 19.1947 1001.85 18.4587 1001.85 17.648C1001.85 16.4747 1002.05 15.4933 1002.43 14.704C1002.88 13.7227 1003.64 12.784 1004.7 11.888C1005.77 10.992 1006.86 10.3947 1007.97 10.096ZM1020.61 9.328C1021 9.008 1021.41 8.848 1021.86 8.848C1022.33 8.848 1022.74 9.01867 1023.08 9.36C1023.42 9.68 1023.59 10.096 1023.59 10.608C1023.59 11.12 1023.69 11.376 1023.88 11.376C1023.98 11.376 1024.21 11.2587 1024.55 11.024C1026.13 9.936 1027.7 9.392 1029.25 9.392C1029.92 9.392 1030.57 9.50933 1031.21 9.744C1031.78 9.97867 1032.19 10.2347 1032.42 10.512C1032.66 10.7893 1032.77 11.1627 1032.77 11.632C1032.77 12.144 1032.58 12.5813 1032.2 12.944C1031.88 13.2427 1031.59 13.392 1031.33 13.392C1031.25 13.392 1030.65 13.3173 1029.54 13.168C1029.41 13.1467 1029.23 13.136 1029 13.136C1028.66 13.136 1028.22 13.2533 1027.69 13.488C1026.3 14.128 1025.33 14.9387 1024.77 15.92C1024.22 16.9013 1023.94 18.3093 1023.94 20.144C1023.92 21.488 1023.76 22.4267 1023.46 22.96C1023.18 23.4933 1022.68 23.76 1021.96 23.76C1021.47 23.76 1021.05 23.5893 1020.71 23.248L1020.2 22.736L1020.13 17.072C1020.09 12.8907 1020.07 10.736 1020.07 10.608C1020.07 10.096 1020.25 9.66933 1020.61 9.328ZM1036.55 21.424C1036.72 21.0613 1036.91 20.816 1037.12 20.688C1037.34 20.56 1037.71 20.496 1038.24 20.496C1038.61 20.496 1038.85 20.528 1038.98 20.592C1039.13 20.656 1039.3 20.8053 1039.49 21.04C1039.81 21.424 1039.97 21.8293 1039.97 22.256C1039.97 22.7253 1039.77 23.1627 1039.36 23.568C1038.96 23.9733 1038.54 24.176 1038.12 24.176C1037.69 24.176 1037.27 23.9947 1036.87 23.632C1036.48 23.248 1036.29 22.8533 1036.29 22.448C1036.29 22.128 1036.38 21.7867 1036.55 21.424ZM1043.77 21.424C1043.94 21.0613 1044.13 20.816 1044.34 20.688C1044.56 20.56 1044.93 20.496 1045.46 20.496C1045.82 20.496 1046.07 20.528 1046.2 20.592C1046.35 20.656 1046.52 20.8053 1046.71 21.04C1047.03 21.424 1047.19 21.8293 1047.19 22.256C1047.19 22.7253 1046.99 23.1627 1046.58 23.568C1046.18 23.9733 1045.76 24.176 1045.33 24.176C1044.91 24.176 1044.49 23.9947 1044.09 23.632C1043.7 23.248 1043.51 22.8533 1043.51 22.448C1043.51 22.128 1043.6 21.7867 1043.77 21.424ZM1050.98 21.424C1051.16 21.0613 1051.35 20.816 1051.56 20.688C1051.77 20.56 1052.15 20.496 1052.68 20.496C1053.04 20.496 1053.29 20.528 1053.42 20.592C1053.57 20.656 1053.74 20.8053 1053.93 21.04C1054.25 21.424 1054.41 21.8293 1054.41 22.256C1054.41 22.7253 1054.21 23.1627 1053.8 23.568C1053.4 23.9733 1052.98 24.176 1052.55 24.176C1052.13 24.176 1051.71 23.9947 1051.3 23.632C1050.92 23.248 1050.73 22.8533 1050.73 22.448C1050.73 22.128 1050.81 21.7867 1050.98 21.424Z" fill="#27263C"/>
</svg>
