<svg width="761" height="32" viewBox="0 0 761 32" fill="none" xmlns="http://www.w3.org/2000/svg">
<path d="M1.336 4.272C1.67733 3.952 1.99733 3.792 2.296 3.792C2.46667 3.792 2.616 3.80267 2.744 3.824C3.32 3.888 3.72533 4.08 3.96 4.4L4.376 4.88L4.312 13.264C4.29067 18.7893 4.19467 21.7653 4.024 22.192C3.74667 22.832 3.21333 23.152 2.424 23.152C2.168 23.152 1.976 23.1307 1.848 23.088C1.528 22.9813 1.31467 22.9067 1.208 22.864C1.12267 22.8 1.016 22.608 0.888 22.288C0.781333 21.9467 0.717333 21.4773 0.696 20.88C0.674667 20.2827 0.664 19.3653 0.664 18.128C0.664 17.7867 0.664 17.0933 0.664 16.048C0.685333 15.0027 0.696 14.128 0.696 13.424L0.728 4.784L1.336 4.272ZM18.0518 9.328C18.4358 9.008 18.8518 8.848 19.2998 8.848C19.7691 8.848 20.1744 9.01867 20.5158 9.36C20.8571 9.68 21.0278 10.096 21.0278 10.608C21.0278 11.12 21.1238 11.376 21.3158 11.376C21.4224 11.376 21.6464 11.2587 21.9878 11.024C23.5664 9.936 25.1344 9.392 26.6918 9.392C27.3531 9.392 28.0038 9.50933 28.6438 9.744C29.2198 9.97867 29.6251 10.2347 29.8598 10.512C30.0944 10.7893 30.2118 11.1627 30.2118 11.632C30.2118 12.144 30.0198 12.5813 29.6358 12.944C29.3158 13.2427 29.0278 13.392 28.7718 13.392C28.6864 13.392 28.0891 13.3173 26.9798 13.168C26.8518 13.1467 26.6704 13.136 26.4358 13.136C26.0944 13.136 25.6571 13.2533 25.1238 13.488C23.7371 14.128 22.7664 14.9387 22.2118 15.92C21.6571 16.9013 21.3798 18.3093 21.3798 20.144C21.3584 21.488 21.1984 22.4267 20.8998 22.96C20.6224 23.4933 20.1211 23.76 19.3958 23.76C18.9051 23.76 18.4891 23.5893 18.1478 23.248L17.6358 22.736L17.5718 17.072C17.5291 12.8907 17.5078 10.736 17.5078 10.608C17.5078 10.096 17.6891 9.66933 18.0518 9.328ZM42.4968 12.944C42.1128 12.6667 41.5048 12.528 40.6728 12.528C40.1608 12.528 39.7554 12.592 39.4568 12.72C39.1794 12.848 38.8594 13.1147 38.4968 13.52C38.1554 13.904 37.9848 14.1813 37.9848 14.352C37.9848 14.5013 38.1448 14.576 38.4648 14.576C38.8914 14.5547 39.7768 14.4587 41.1208 14.288C42.4648 14.1173 43.1581 14.0107 43.2008 13.968C43.2221 13.9467 43.2328 13.9147 43.2328 13.872C43.2328 13.6373 42.9874 13.328 42.4968 12.944ZM39.0408 9.04C39.4248 8.93333 39.8941 8.88 40.4488 8.88C41.5794 8.88 42.5501 9.04 43.3608 9.36C44.0221 9.59467 44.6728 10.0533 45.3128 10.736C45.9741 11.3973 46.5181 12.144 46.9448 12.976C47.3714 13.8293 47.5848 14.4053 47.5848 14.704C47.5848 15.3867 47.2861 16.0267 46.6888 16.624C46.0488 17.2 44.0541 17.6267 40.7048 17.904C39.4248 18.0107 38.5928 18.096 38.2088 18.16C37.8248 18.224 37.6328 18.32 37.6328 18.448C37.6328 18.5547 37.8248 18.7787 38.2088 19.12C38.8701 19.76 40.0541 20.144 41.7608 20.272C41.9314 20.2933 42.1554 20.304 42.4328 20.304C42.8808 20.304 43.4141 20.1973 44.0328 19.984C44.9074 19.664 45.6008 19.504 46.1128 19.504C46.8808 19.504 47.3821 19.888 47.6168 20.656C47.6808 20.848 47.7128 21.0293 47.7128 21.2C47.7128 21.9253 47.2541 22.5227 46.3368 22.992C45.4408 23.44 44.1714 23.696 42.5288 23.76C42.4434 23.76 42.3261 23.7707 42.1768 23.792C42.0274 23.792 41.9208 23.792 41.8568 23.792C40.0434 23.792 38.4754 23.44 37.1528 22.736C35.8514 22.0107 34.8701 20.9867 34.2088 19.664C33.8888 19.024 33.7288 18.1707 33.7288 17.104C33.7288 16.0373 33.8354 15.1947 34.0488 14.576C34.5821 12.976 35.2434 11.7493 36.0328 10.896C36.8221 10.0213 37.8248 9.40267 39.0408 9.04ZM52.4135 7.344C52.7122 7.30133 52.8828 7.26933 52.9255 7.248C53.0322 7.248 53.2775 7.32267 53.6615 7.472C53.9602 7.6 54.2268 7.856 54.4615 8.24C54.6962 8.624 54.8135 8.99733 54.8135 9.36C54.8135 9.63733 54.8668 9.85067 54.9735 10C55.0588 10.1067 55.1335 10.1493 55.1975 10.128C55.2615 10.1067 55.4108 10 55.6455 9.808C56.6055 8.99733 57.7788 8.496 59.1655 8.304C59.5922 8.26133 59.8908 8.24 60.0615 8.24C61.1495 8.24 62.0775 8.63467 62.8455 9.424L63.5815 10.16L64.5095 9.424C66.0242 8.208 67.4962 7.6 68.9255 7.6C69.4162 7.6 69.8535 7.67467 70.2375 7.824C70.6642 7.99467 71.1228 8.32533 71.6135 8.816C72.1255 9.28533 72.5095 9.78667 72.7655 10.32C73.5335 11.8773 74.0348 14.7787 74.2695 19.024C74.3122 20.0907 74.3335 20.6773 74.3335 20.784C74.3335 21.3387 74.2588 21.7547 74.1095 22.032C73.7895 22.6507 73.2988 22.96 72.6375 22.96C72.1682 22.96 71.7522 22.7893 71.3895 22.448L70.8135 21.968L70.6535 18.992C70.4188 14.5547 69.8855 11.984 69.0535 11.28C68.9255 11.1947 68.8188 11.152 68.7335 11.152C68.5628 11.152 68.2535 11.2693 67.8055 11.504C66.6962 12.0373 65.9068 12.944 65.4375 14.224C65.1815 14.8853 65.0108 16.2613 64.9255 18.352C64.8188 20.464 64.7122 21.6373 64.6055 21.872C64.2642 22.4693 63.7202 22.768 62.9735 22.768C62.5682 22.768 62.2055 22.64 61.8855 22.384C61.4162 22 61.1815 21.0613 61.1815 19.568C61.1815 18.8853 61.1922 18.32 61.2135 17.872C61.2135 17.7227 61.2135 17.52 61.2135 17.264C61.2348 16.9867 61.2455 16.784 61.2455 16.656C61.2455 14.5653 61.0108 13.1147 60.5415 12.304C60.3495 11.9627 60.1575 11.792 59.9655 11.792C59.9442 11.792 59.8055 11.8133 59.5495 11.856C58.1842 12.112 57.0322 13.2107 56.0935 15.152C55.7095 15.9627 55.5175 16.816 55.5175 17.712C55.5175 18.48 55.5815 19.4187 55.7095 20.528C55.7735 20.976 55.8055 21.3493 55.8055 21.648C55.8055 22.4587 55.4535 23.0347 54.7495 23.376C54.4508 23.5253 54.2162 23.6 54.0455 23.6C53.9175 23.6 53.7148 23.5467 53.4375 23.44C52.9042 23.248 52.5522 22.8853 52.3815 22.352C52.2108 21.7973 52.0722 20.6133 51.9655 18.8C51.8162 15.7067 51.5602 12.5173 51.1975 9.232C51.1975 9.18933 51.1868 9.12533 51.1655 9.04C51.1655 8.95467 51.1655 8.90133 51.1655 8.88C51.1655 8.58133 51.2935 8.272 51.5495 7.952C51.8695 7.58933 52.1575 7.38667 52.4135 7.344ZM86.5905 12.944C86.2065 12.6667 85.5985 12.528 84.7665 12.528C84.2545 12.528 83.8492 12.592 83.5505 12.72C83.2732 12.848 82.9532 13.1147 82.5905 13.52C82.2492 13.904 82.0785 14.1813 82.0785 14.352C82.0785 14.5013 82.2385 14.576 82.5585 14.576C82.9852 14.5547 83.8705 14.4587 85.2145 14.288C86.5585 14.1173 87.2518 14.0107 87.2945 13.968C87.3158 13.9467 87.3265 13.9147 87.3265 13.872C87.3265 13.6373 87.0812 13.328 86.5905 12.944ZM83.1345 9.04C83.5185 8.93333 83.9878 8.88 84.5425 8.88C85.6732 8.88 86.6438 9.04 87.4545 9.36C88.1158 9.59467 88.7665 10.0533 89.4065 10.736C90.0678 11.3973 90.6118 12.144 91.0385 12.976C91.4652 13.8293 91.6785 14.4053 91.6785 14.704C91.6785 15.3867 91.3798 16.0267 90.7825 16.624C90.1425 17.2 88.1478 17.6267 84.7985 17.904C83.5185 18.0107 82.6865 18.096 82.3025 18.16C81.9185 18.224 81.7265 18.32 81.7265 18.448C81.7265 18.5547 81.9185 18.7787 82.3025 19.12C82.9638 19.76 84.1478 20.144 85.8545 20.272C86.0252 20.2933 86.2492 20.304 86.5265 20.304C86.9745 20.304 87.5078 20.1973 88.1265 19.984C89.0012 19.664 89.6945 19.504 90.2065 19.504C90.9745 19.504 91.4758 19.888 91.7105 20.656C91.7745 20.848 91.8065 21.0293 91.8065 21.2C91.8065 21.9253 91.3478 22.5227 90.4305 22.992C89.5345 23.44 88.2652 23.696 86.6225 23.76C86.5372 23.76 86.4198 23.7707 86.2705 23.792C86.1212 23.792 86.0145 23.792 85.9505 23.792C84.1372 23.792 82.5692 23.44 81.2465 22.736C79.9452 22.0107 78.9638 20.9867 78.3025 19.664C77.9825 19.024 77.8225 18.1707 77.8225 17.104C77.8225 16.0373 77.9292 15.1947 78.1425 14.576C78.6758 12.976 79.3372 11.7493 80.1265 10.896C80.9158 10.0213 81.9185 9.40267 83.1345 9.04ZM96.3153 8.528C96.5286 8.42133 96.7846 8.368 97.0833 8.368C98.1713 8.368 98.8539 9.28533 99.1313 11.12C99.1953 11.6747 99.2699 11.952 99.3553 11.952C99.3766 11.952 99.6753 11.7067 100.251 11.216C101.425 10.1707 102.619 9.648 103.835 9.648C104.497 9.648 105.126 9.82933 105.723 10.192C106.299 10.5547 106.673 10.8747 106.843 11.152L107.131 11.6L107.899 10.896C109.073 9.85067 110.331 9.328 111.675 9.328C112.977 9.328 114.097 9.82933 115.035 10.832C116.635 12.4747 117.585 15.28 117.883 19.248C117.926 19.9733 117.947 20.4213 117.947 20.592C117.947 21.1467 117.873 21.552 117.723 21.808C117.595 22.064 117.361 22.288 117.019 22.48C116.721 22.6293 116.433 22.704 116.155 22.704C115.686 22.704 115.27 22.4907 114.907 22.064C114.63 21.7013 114.449 21.0827 114.363 20.208C114.193 18.2453 113.979 16.784 113.723 15.824C113.467 14.864 113.105 14.1173 112.635 13.584C112.273 13.2 111.899 13.008 111.515 13.008C110.79 13.008 110.15 13.5733 109.595 14.704C109.382 15.152 109.243 15.568 109.179 15.952C109.115 16.336 109.062 17.2107 109.019 18.576C108.934 20.4533 108.827 21.5733 108.699 21.936C108.401 22.64 107.857 22.992 107.067 22.992C106.598 22.992 106.203 22.832 105.883 22.512C105.371 22 105.051 20.4853 104.923 17.968C104.859 17.008 104.742 16.08 104.571 15.184C104.401 14.288 104.241 13.7547 104.091 13.584C103.963 13.4347 103.825 13.36 103.675 13.36C103.419 13.36 102.993 13.6267 102.395 14.16C101.755 14.7573 101.275 15.3973 100.955 16.08C100.657 16.6987 100.475 17.2 100.411 17.584C100.369 17.9467 100.326 19.1947 100.283 21.328C100.262 21.8827 100.091 22.3307 99.7713 22.672C99.4513 23.0133 99.0459 23.184 98.5553 23.184C98.0646 23.184 97.6699 23.088 97.3713 22.896C96.9446 22.5973 96.6459 22.0213 96.4753 21.168C96.3046 20.2933 96.1126 18.2347 95.8993 14.992C95.7713 13.072 95.6219 11.7707 95.4513 11.088C95.3233 10.576 95.2593 10.2347 95.2593 10.064C95.2593 9.872 95.3233 9.648 95.4513 9.392C95.6433 8.944 95.9313 8.656 96.3153 8.528ZM132.296 15.152C131.89 14.64 131.314 14.2133 130.568 13.872C129.821 13.5307 128.957 13.36 127.976 13.36C127.378 13.36 126.92 13.4347 126.6 13.584C126.258 13.7333 125.928 14.0747 125.608 14.608C125.309 15.12 125.16 15.7493 125.16 16.496V17.04C125.224 18.5547 125.266 19.4507 125.288 19.728L125.416 20.752L126.184 20.88C126.482 20.9227 126.728 20.944 126.92 20.944C128.178 20.944 129.32 20.6987 130.344 20.208C130.856 19.9733 131.346 19.5893 131.816 19.056C132.306 18.5013 132.637 17.9573 132.808 17.424C132.893 17.1253 132.936 16.8907 132.936 16.72C132.936 16.1653 132.722 15.6427 132.296 15.152ZM122.216 2.416C122.429 2.30933 122.685 2.256 122.984 2.256C123.496 2.256 123.944 2.448 124.328 2.832C124.562 3.06667 124.701 3.35467 124.744 3.696C124.808 4.016 124.893 5.02933 125 6.736C125.106 8.976 125.181 10.1173 125.224 10.16H125.256C125.362 10.16 125.736 10.0853 126.376 9.936C127.122 9.76533 127.773 9.68 128.328 9.68C129.394 9.68 130.696 10.032 132.232 10.736C133.981 11.5467 135.208 12.6773 135.912 14.128C136.125 14.576 136.253 14.9493 136.296 15.248C136.36 15.5467 136.392 16.048 136.392 16.752C136.392 17.456 136.36 17.9573 136.296 18.256C136.232 18.5333 136.061 18.96 135.784 19.536C135.165 20.7307 134.312 21.744 133.224 22.576C132.136 23.408 130.93 23.9627 129.608 24.24C128.84 24.4107 128.04 24.496 127.208 24.496C126.418 24.496 125.49 24.4213 124.424 24.272C123.613 24.144 123.08 24.0373 122.824 23.952C122.568 23.8667 122.333 23.7067 122.12 23.472L121.64 22.96V17.968C121.64 14.96 121.576 11.7067 121.448 8.208C121.384 6.56533 121.352 5.38133 121.352 4.656C121.352 3.80267 121.405 3.25867 121.512 3.024C121.618 2.78933 121.853 2.58667 122.216 2.416ZM149.804 13.808C149.42 13.616 148.876 13.52 148.172 13.52C147.404 13.52 146.754 13.6373 146.22 13.872C145.858 14.0213 145.388 14.352 144.812 14.864C144.236 15.3547 143.948 15.6747 143.948 15.824C143.948 15.888 144.279 15.92 144.94 15.92C145.922 15.92 147.095 15.8667 148.46 15.76C149.826 15.6533 150.604 15.536 150.796 15.408C150.86 15.3867 150.892 15.3227 150.892 15.216C150.892 15.024 150.775 14.7787 150.54 14.48C150.306 14.16 150.06 13.936 149.804 13.808ZM146.028 10.096C146.562 9.94667 147.191 9.872 147.916 9.872C149.26 9.872 150.487 10.1387 151.596 10.672C152.428 11.0987 153.122 11.7493 153.676 12.624C154.231 13.4773 154.572 14.4373 154.7 15.504C154.7 15.5467 154.7 15.6107 154.7 15.696C154.722 15.7813 154.732 15.8453 154.732 15.888C154.732 16.4427 154.626 16.9867 154.412 17.52C154.22 18.0533 153.986 18.416 153.708 18.608C153.346 18.864 150.796 19.184 146.06 19.568C145.058 19.6533 144.556 19.7493 144.556 19.856C144.556 19.984 144.78 20.1867 145.228 20.464C145.676 20.7413 146.114 20.9333 146.54 21.04C146.924 21.1253 147.234 21.168 147.468 21.168C148.151 21.168 149.036 20.944 150.124 20.496C150.892 20.176 151.458 20.016 151.82 20.016C152.183 20.016 152.524 20.176 152.844 20.496C153.271 20.9227 153.484 21.328 153.484 21.712C153.484 21.968 153.42 22.2347 153.292 22.512C153.186 22.768 153.036 22.9707 152.844 23.12C152.674 23.2693 152.354 23.4507 151.884 23.664C150.327 24.3467 148.876 24.688 147.532 24.688C146.764 24.688 145.975 24.5707 145.164 24.336C144.076 23.9947 143.084 23.4187 142.188 22.608C141.292 21.776 140.652 20.8587 140.268 19.856C140.034 19.1947 139.916 18.4587 139.916 17.648C139.916 16.4747 140.108 15.4933 140.492 14.704C140.94 13.7227 141.698 12.784 142.764 11.888C143.831 10.992 144.919 10.3947 146.028 10.096ZM158.677 9.328C159.061 9.008 159.477 8.848 159.925 8.848C160.394 8.848 160.799 9.01867 161.141 9.36C161.482 9.68 161.653 10.096 161.653 10.608C161.653 11.12 161.749 11.376 161.941 11.376C162.047 11.376 162.271 11.2587 162.613 11.024C164.191 9.936 165.759 9.392 167.317 9.392C167.978 9.392 168.629 9.50933 169.269 9.744C169.845 9.97867 170.25 10.2347 170.485 10.512C170.719 10.7893 170.837 11.1627 170.837 11.632C170.837 12.144 170.645 12.5813 170.261 12.944C169.941 13.2427 169.653 13.392 169.397 13.392C169.311 13.392 168.714 13.3173 167.605 13.168C167.477 13.1467 167.295 13.136 167.061 13.136C166.719 13.136 166.282 13.2533 165.749 13.488C164.362 14.128 163.391 14.9387 162.837 15.92C162.282 16.9013 162.005 18.3093 162.005 20.144C161.983 21.488 161.823 22.4267 161.525 22.96C161.247 23.4933 160.746 23.76 160.021 23.76C159.53 23.76 159.114 23.5893 158.773 23.248L158.261 22.736L158.197 17.072C158.154 12.8907 158.133 10.736 158.133 10.608C158.133 10.096 158.314 9.66933 158.677 9.328ZM189.063 1.52C189.426 1.15733 189.863 0.975998 190.375 0.975998C190.759 0.975998 191.1 1.09333 191.399 1.328C191.719 1.54133 191.943 1.85067 192.071 2.256C192.135 2.49067 192.242 3.6 192.391 5.584C192.54 7.54667 192.615 8.912 192.615 9.68C192.615 9.872 192.658 9.98933 192.743 10.032C192.85 10.0747 193.095 10.096 193.479 10.096C194.055 10.096 194.386 10.032 194.471 9.904C194.514 9.79733 194.951 9.744 195.783 9.744C196.85 9.744 197.554 9.81867 197.895 9.968C198.215 10.1173 198.46 10.4053 198.631 10.832C198.78 11.1307 198.855 11.376 198.855 11.568C198.855 11.7173 198.823 11.8987 198.759 12.112C198.61 12.6027 198.332 12.9333 197.927 13.104C197.543 13.2533 196.775 13.36 195.623 13.424C194.322 13.488 193.479 13.5733 193.095 13.68L192.583 13.808L192.711 18.32C192.754 20.3253 192.775 21.4027 192.775 21.552C192.775 22.4907 192.7 23.12 192.551 23.44C192.231 24.1227 191.708 24.464 190.983 24.464C190.706 24.464 190.418 24.4 190.119 24.272C189.884 24.1653 189.714 24.0693 189.607 23.984C189.5 23.8773 189.404 23.6107 189.319 23.184C189.234 22.736 189.18 22.2133 189.159 21.616C189.138 21.0187 189.116 20.0373 189.095 18.672L189.031 14.032L188.071 14.064C187.495 14.1067 186.983 14.192 186.535 14.32C186.428 14.3627 186.258 14.384 186.023 14.384C185.298 14.384 184.775 14.16 184.455 13.712C184.284 13.4347 184.199 13.0613 184.199 12.592C184.199 12.1867 184.263 11.8667 184.391 11.632C184.69 11.0987 185.735 10.6933 187.527 10.416L188.999 10.192L188.871 7.376C188.786 5.37067 188.711 4.00533 188.647 3.28C188.604 2.768 188.583 2.49067 188.583 2.448C188.583 2.14933 188.743 1.84 189.063 1.52ZM203.152 1.552C203.514 1.25333 203.888 1.104 204.272 1.104C205.04 1.104 205.605 1.57333 205.968 2.512C206.117 2.93867 206.277 3.96267 206.448 5.584C206.618 7.184 206.757 8.67733 206.864 10.064C206.97 11.4293 207.034 12.112 207.056 12.112C207.098 12.112 207.45 11.8773 208.112 11.408C209.413 10.4907 210.65 10.032 211.824 10.032C212.912 10.032 213.861 10.4373 214.672 11.248C215.504 12.0373 216.154 13.2 216.624 14.736C216.986 15.9307 217.168 17.7867 217.168 20.304C217.168 21.8827 217.072 22.9493 216.88 23.504C216.666 24.08 216.176 24.368 215.408 24.368C214.896 24.368 214.469 24.1973 214.128 23.856L213.648 23.376L213.552 20.144C213.424 15.984 212.848 13.84 211.824 13.712H211.728C211.237 13.712 210.629 13.9893 209.904 14.544C209.178 15.0773 208.656 15.664 208.336 16.304C208.144 16.7307 207.888 17.04 207.568 17.232L207.152 17.52L207.088 21.008C207.045 22.7147 207.002 23.7493 206.96 24.112C206.938 24.4533 206.821 24.7307 206.608 24.944C206.266 25.3067 205.84 25.488 205.328 25.488C204.56 25.488 204.026 25.1467 203.728 24.464C203.578 24.0587 203.472 21.6053 203.408 17.104C203.301 9.57333 203.024 5.06133 202.576 3.568C202.512 3.33333 202.48 3.10933 202.48 2.896C202.48 2.34133 202.704 1.89333 203.152 1.552ZM230.554 13.808C230.17 13.616 229.626 13.52 228.922 13.52C228.154 13.52 227.504 13.6373 226.97 13.872C226.608 14.0213 226.138 14.352 225.562 14.864C224.986 15.3547 224.698 15.6747 224.698 15.824C224.698 15.888 225.029 15.92 225.69 15.92C226.672 15.92 227.845 15.8667 229.21 15.76C230.576 15.6533 231.354 15.536 231.546 15.408C231.61 15.3867 231.642 15.3227 231.642 15.216C231.642 15.024 231.525 14.7787 231.29 14.48C231.056 14.16 230.81 13.936 230.554 13.808ZM226.778 10.096C227.312 9.94667 227.941 9.872 228.666 9.872C230.01 9.872 231.237 10.1387 232.346 10.672C233.178 11.0987 233.872 11.7493 234.426 12.624C234.981 13.4773 235.322 14.4373 235.45 15.504C235.45 15.5467 235.45 15.6107 235.45 15.696C235.472 15.7813 235.482 15.8453 235.482 15.888C235.482 16.4427 235.376 16.9867 235.162 17.52C234.97 18.0533 234.736 18.416 234.458 18.608C234.096 18.864 231.546 19.184 226.81 19.568C225.808 19.6533 225.306 19.7493 225.306 19.856C225.306 19.984 225.53 20.1867 225.978 20.464C226.426 20.7413 226.864 20.9333 227.29 21.04C227.674 21.1253 227.984 21.168 228.218 21.168C228.901 21.168 229.786 20.944 230.874 20.496C231.642 20.176 232.208 20.016 232.57 20.016C232.933 20.016 233.274 20.176 233.594 20.496C234.021 20.9227 234.234 21.328 234.234 21.712C234.234 21.968 234.17 22.2347 234.042 22.512C233.936 22.768 233.786 22.9707 233.594 23.12C233.424 23.2693 233.104 23.4507 232.634 23.664C231.077 24.3467 229.626 24.688 228.282 24.688C227.514 24.688 226.725 24.5707 225.914 24.336C224.826 23.9947 223.834 23.4187 222.938 22.608C222.042 21.776 221.402 20.8587 221.018 19.856C220.784 19.1947 220.666 18.4587 220.666 17.648C220.666 16.4747 220.858 15.4933 221.242 14.704C221.69 13.7227 222.448 12.784 223.514 11.888C224.581 10.992 225.669 10.3947 226.778 10.096ZM262.336 13.808C261.952 13.616 261.408 13.52 260.704 13.52C259.936 13.52 259.285 13.6373 258.752 13.872C258.389 14.0213 257.92 14.352 257.344 14.864C256.768 15.3547 256.48 15.6747 256.48 15.824C256.48 15.888 256.81 15.92 257.472 15.92C258.453 15.92 259.626 15.8667 260.992 15.76C262.357 15.6533 263.136 15.536 263.328 15.408C263.392 15.3867 263.424 15.3227 263.424 15.216C263.424 15.024 263.306 14.7787 263.072 14.48C262.837 14.16 262.592 13.936 262.336 13.808ZM258.56 10.096C259.093 9.94667 259.722 9.872 260.448 9.872C261.792 9.872 263.018 10.1387 264.128 10.672C264.96 11.0987 265.653 11.7493 266.208 12.624C266.762 13.4773 267.104 14.4373 267.232 15.504C267.232 15.5467 267.232 15.6107 267.232 15.696C267.253 15.7813 267.264 15.8453 267.264 15.888C267.264 16.4427 267.157 16.9867 266.944 17.52C266.752 18.0533 266.517 18.416 266.24 18.608C265.877 18.864 263.328 19.184 258.592 19.568C257.589 19.6533 257.088 19.7493 257.088 19.856C257.088 19.984 257.312 20.1867 257.76 20.464C258.208 20.7413 258.645 20.9333 259.072 21.04C259.456 21.1253 259.765 21.168 260 21.168C260.682 21.168 261.568 20.944 262.656 20.496C263.424 20.176 263.989 20.016 264.352 20.016C264.714 20.016 265.056 20.176 265.376 20.496C265.802 20.9227 266.016 21.328 266.016 21.712C266.016 21.968 265.952 22.2347 265.824 22.512C265.717 22.768 265.568 22.9707 265.376 23.12C265.205 23.2693 264.885 23.4507 264.416 23.664C262.858 24.3467 261.408 24.688 260.064 24.688C259.296 24.688 258.506 24.5707 257.696 24.336C256.608 23.9947 255.616 23.4187 254.72 22.608C253.824 21.776 253.184 20.8587 252.799 19.856C252.565 19.1947 252.448 18.4587 252.448 17.648C252.448 16.4747 252.64 15.4933 253.024 14.704C253.472 13.7227 254.229 12.784 255.296 11.888C256.362 10.992 257.45 10.3947 258.56 10.096ZM271.24 8.88C271.581 8.51733 271.997 8.336 272.488 8.336C273.405 8.336 273.992 8.69867 274.248 9.424C274.376 9.85067 274.44 11.0987 274.44 13.168C274.44 15.2587 274.504 16.624 274.632 17.264C274.952 18.736 275.603 19.472 276.584 19.472C276.776 19.472 276.979 19.44 277.192 19.376C277.491 19.2907 277.875 19.0027 278.344 18.512C278.835 18.0213 279.187 17.5733 279.4 17.168C279.784 16.3787 280.125 14.8107 280.424 12.464C280.637 10.864 280.968 9.89333 281.416 9.552C281.715 9.31733 282.045 9.2 282.408 9.2C282.813 9.2 283.187 9.34933 283.528 9.648C283.891 9.92533 284.136 10.288 284.264 10.736C284.371 11.2053 284.552 12.88 284.808 15.76C285.085 18.6187 285.224 20.4427 285.224 21.232V21.488C285.139 21.8933 284.936 22.2133 284.616 22.448C284.296 22.6827 283.944 22.8 283.56 22.8C283.197 22.8 282.845 22.6933 282.504 22.48C282.184 22.2667 281.96 21.9573 281.832 21.552C281.661 21.0613 281.565 20.816 281.544 20.816C281.459 20.816 281.096 21.0613 280.456 21.552C279.176 22.576 277.917 23.088 276.68 23.088H276.584C275.56 23.088 274.643 22.8427 273.832 22.352C273.021 21.8613 272.381 21.168 271.912 20.272C271.464 19.376 271.176 18.5653 271.048 17.84C270.92 17.0933 270.845 15.6533 270.824 13.52L270.728 9.456L271.24 8.88ZM298.425 16.304C298.425 15.6213 298.019 14.928 297.209 14.224C296.398 13.52 295.545 13.168 294.649 13.168C294.094 13.1893 293.699 13.264 293.465 13.392C293.23 13.52 293.006 13.808 292.793 14.256C292.601 14.704 292.505 15.1627 292.505 15.632C292.505 15.76 292.526 16.2933 292.569 17.232L292.697 19.472L293.273 19.568C293.337 19.5893 293.433 19.6 293.561 19.6C294.137 19.6 294.83 19.408 295.641 19.024C296.473 18.6187 297.177 18.1387 297.753 17.584C298.201 17.136 298.425 16.7093 298.425 16.304ZM289.945 9.456C289.966 9.456 289.998 9.456 290.041 9.456C290.083 9.43467 290.126 9.424 290.169 9.424C290.787 9.424 291.246 9.57333 291.545 9.872C291.651 9.936 291.769 9.968 291.897 9.968C292.067 9.968 292.355 9.904 292.761 9.776C293.337 9.60533 293.902 9.52 294.457 9.52C295.481 9.52 296.505 9.75467 297.529 10.224C298.574 10.672 299.459 11.2907 300.185 12.08C301.443 13.4667 302.073 14.896 302.073 16.368C302.073 18.0747 301.262 19.5253 299.641 20.72C298.681 21.4453 297.635 22.0427 296.505 22.512C295.374 22.9813 294.446 23.216 293.721 23.216C293.529 23.216 293.39 23.2053 293.305 23.184L292.793 23.088C292.835 23.856 292.878 25.0187 292.921 26.576C292.963 28.1333 293.006 29.3067 293.049 30.096L292.409 30.736C291.982 31.1627 291.566 31.376 291.161 31.376C290.777 31.376 290.403 31.1947 290.041 30.832C289.721 30.512 289.518 30.2027 289.433 29.904C289.39 29.648 289.294 27.2693 289.145 22.768C289.038 18.288 288.921 15.4933 288.793 14.384C288.686 13.3813 288.633 12.4427 288.633 11.568C288.633 11.056 288.654 10.7253 288.697 10.576C288.761 10.4053 288.899 10.2133 289.113 10C289.433 9.68 289.71 9.49867 289.945 9.456ZM306.277 1.552C306.639 1.25333 307.013 1.104 307.397 1.104C308.165 1.104 308.73 1.57333 309.093 2.512C309.242 2.93867 309.402 3.96267 309.573 5.584C309.743 7.184 309.882 8.67733 309.989 10.064C310.095 11.4293 310.159 12.112 310.181 12.112C310.223 12.112 310.575 11.8773 311.237 11.408C312.538 10.4907 313.775 10.032 314.949 10.032C316.037 10.032 316.986 10.4373 317.797 11.248C318.629 12.0373 319.279 13.2 319.749 14.736C320.111 15.9307 320.293 17.7867 320.293 20.304C320.293 21.8827 320.197 22.9493 320.005 23.504C319.791 24.08 319.301 24.368 318.533 24.368C318.021 24.368 317.594 24.1973 317.253 23.856L316.773 23.376L316.677 20.144C316.549 15.984 315.973 13.84 314.949 13.712H314.853C314.362 13.712 313.754 13.9893 313.029 14.544C312.303 15.0773 311.781 15.664 311.461 16.304C311.269 16.7307 311.013 17.04 310.693 17.232L310.277 17.52L310.213 21.008C310.17 22.7147 310.127 23.7493 310.085 24.112C310.063 24.4533 309.946 24.7307 309.733 24.944C309.391 25.3067 308.965 25.488 308.453 25.488C307.685 25.488 307.151 25.1467 306.853 24.464C306.703 24.0587 306.597 21.6053 306.533 17.104C306.426 9.57333 306.149 5.06133 305.701 3.568C305.637 3.33333 305.605 3.10933 305.605 2.896C305.605 2.34133 305.829 1.89333 306.277 1.552ZM332.719 12.816C332.314 12.7093 331.653 12.6133 330.735 12.528C330.138 12.4853 329.818 12.464 329.775 12.464C329.477 12.464 329.178 12.624 328.879 12.944C328.026 13.8187 327.567 15.0027 327.503 16.496C327.503 16.5813 327.493 16.6987 327.471 16.848C327.471 16.976 327.471 17.072 327.471 17.136C327.471 17.6267 327.599 18.0853 327.855 18.512C328.538 19.728 329.743 20.336 331.471 20.336C332.197 20.3147 332.933 20.0693 333.679 19.6C334.447 19.1093 335.002 18.5227 335.343 17.84C335.535 17.4347 335.631 16.9973 335.631 16.528C335.631 15.7387 335.354 14.992 334.799 14.288C334.266 13.5627 333.573 13.072 332.719 12.816ZM327.855 9.232C328.346 8.95467 328.837 8.816 329.327 8.816C329.434 8.816 329.829 8.83733 330.511 8.88C332.538 8.98667 334.17 9.41333 335.407 10.16C336.645 10.9067 337.637 12.0587 338.383 13.616C338.959 14.8107 339.247 15.952 339.247 17.04C339.247 17.3813 339.215 17.68 339.151 17.936C338.81 19.2587 338.063 20.464 336.911 21.552C335.759 22.64 334.49 23.3653 333.103 23.728C332.378 23.8987 331.802 23.984 331.375 23.984C330.949 23.984 330.373 23.8987 329.647 23.728C327.45 23.152 325.871 22.1067 324.911 20.592C324.165 19.4187 323.791 18.1813 323.791 16.88C323.791 15.5787 324.143 14.192 324.847 12.72C325.658 10.992 326.661 9.82933 327.855 9.232ZM343.208 9.328C343.592 9.008 344.008 8.848 344.456 8.848C344.925 8.848 345.331 9.01867 345.672 9.36C346.013 9.68 346.184 10.096 346.184 10.608C346.184 11.12 346.28 11.376 346.472 11.376C346.579 11.376 346.803 11.2587 347.144 11.024C348.723 9.936 350.291 9.392 351.848 9.392C352.509 9.392 353.16 9.50933 353.8 9.744C354.376 9.97867 354.781 10.2347 355.016 10.512C355.251 10.7893 355.368 11.1627 355.368 11.632C355.368 12.144 355.176 12.5813 354.792 12.944C354.472 13.2427 354.184 13.392 353.928 13.392C353.843 13.392 353.245 13.3173 352.136 13.168C352.008 13.1467 351.827 13.136 351.592 13.136C351.251 13.136 350.813 13.2533 350.28 13.488C348.893 14.128 347.923 14.9387 347.368 15.92C346.813 16.9013 346.536 18.3093 346.536 20.144C346.515 21.488 346.355 22.4267 346.056 22.96C345.779 23.4933 345.277 23.76 344.552 23.76C344.061 23.76 343.645 23.5893 343.304 23.248L342.792 22.736L342.728 17.072C342.685 12.8907 342.664 10.736 342.664 10.608C342.664 10.096 342.845 9.66933 343.208 9.328ZM360.325 9.456C360.41 9.43467 360.538 9.424 360.709 9.424C361.178 9.424 361.594 9.57333 361.957 9.872C362.32 10.1707 362.533 10.5547 362.597 11.024C362.682 11.4933 362.725 13.5093 362.725 17.072L362.757 22.48L362.213 22.992C361.85 23.3547 361.424 23.536 360.933 23.536C360.485 23.536 360.101 23.376 359.781 23.056C359.568 22.8427 359.418 22.6293 359.333 22.416C359.269 22.1813 359.216 21.7333 359.173 21.072C359.109 20.24 359.077 18.2347 359.077 15.056L359.045 10.576L359.493 10.032C359.813 9.69067 360.09 9.49867 360.325 9.456ZM359.749 3.088C360.026 2.93867 360.314 2.864 360.613 2.864C361.104 2.864 361.52 3.04533 361.861 3.408C362.202 3.77067 362.373 4.18667 362.373 4.656C362.373 5.06133 362.213 5.456 361.893 5.84C361.488 6.26667 361.04 6.48 360.549 6.48C360.08 6.48 359.664 6.32 359.301 6C358.96 5.65867 358.789 5.25333 358.789 4.784C358.789 4.50666 358.853 4.22933 358.981 3.952C359.173 3.54667 359.429 3.25867 359.749 3.088ZM377.302 13.232C376.683 12.6133 375.723 12.304 374.422 12.304C373.782 12.304 373.216 12.4107 372.726 12.624C372.256 12.8373 371.744 13.2533 371.19 13.872C370.635 14.4907 370.272 15.056 370.102 15.568C369.91 16.1227 369.814 16.6453 369.814 17.136C369.814 18.2667 370.262 19.0667 371.158 19.536C371.691 19.8133 372.384 19.952 373.238 19.952C373.814 19.952 374.251 19.8773 374.55 19.728C376.278 18.8533 377.334 17.2853 377.718 15.024L377.91 13.808L377.302 13.232ZM372.438 8.88C372.95 8.73067 373.547 8.656 374.23 8.656C375.382 8.656 376.512 8.85867 377.622 9.264C378.731 9.66933 379.499 10.1813 379.926 10.8C380.224 11.2267 380.608 11.6747 381.078 12.144C381.59 12.6773 382.059 13.5947 382.486 14.896C382.891 16.1333 383.264 17.5093 383.606 19.024C383.968 20.5387 384.15 21.5627 384.15 22.096C384.15 22.6293 383.99 23.0453 383.67 23.344C383.264 23.728 382.88 23.92 382.517 23.92C382.368 23.92 382.176 23.888 381.942 23.824C381.536 23.6747 381.216 23.4187 380.982 23.056C380.768 22.6933 380.576 22.1067 380.406 21.296C380.192 20.336 380.075 19.856 380.054 19.856C379.968 19.856 379.52 20.2613 378.71 21.072C377.11 22.6293 375.446 23.472 373.718 23.6H373.27C372.224 23.6 371.2 23.4187 370.198 23.056C369.216 22.6933 368.438 22.2133 367.862 21.616C367.563 21.3173 367.264 20.8693 366.966 20.272C366.667 19.6533 366.464 19.088 366.358 18.576C366.251 18.0427 366.198 17.5627 366.198 17.136C366.198 15.3653 366.795 13.6693 367.99 12.048C369.206 10.4267 370.688 9.37067 372.438 8.88ZM407.001 12.816C406.595 12.7093 405.934 12.6133 405.017 12.528C404.419 12.4853 404.099 12.464 404.057 12.464C403.758 12.464 403.459 12.624 403.161 12.944C402.307 13.8187 401.849 15.0027 401.785 16.496C401.785 16.5813 401.774 16.6987 401.753 16.848C401.753 16.976 401.753 17.072 401.753 17.136C401.753 17.6267 401.881 18.0853 402.137 18.512C402.819 19.728 404.025 20.336 405.753 20.336C406.478 20.3147 407.214 20.0693 407.961 19.6C408.729 19.1093 409.283 18.5227 409.625 17.84C409.817 17.4347 409.913 16.9973 409.913 16.528C409.913 15.7387 409.635 14.992 409.081 14.288C408.547 13.5627 407.854 13.072 407.001 12.816ZM402.137 9.232C402.627 8.95467 403.118 8.816 403.609 8.816C403.715 8.816 404.11 8.83733 404.793 8.88C406.819 8.98667 408.451 9.41333 409.689 10.16C410.926 10.9067 411.918 12.0587 412.665 13.616C413.241 14.8107 413.529 15.952 413.529 17.04C413.529 17.3813 413.497 17.68 413.433 17.936C413.091 19.2587 412.345 20.464 411.193 21.552C410.041 22.64 408.771 23.3653 407.385 23.728C406.659 23.8987 406.083 23.984 405.657 23.984C405.23 23.984 404.654 23.8987 403.929 23.728C401.731 23.152 400.153 22.1067 399.193 20.592C398.446 19.4187 398.073 18.1813 398.073 16.88C398.073 15.5787 398.425 14.192 399.129 12.72C399.939 10.992 400.942 9.82933 402.137 9.232ZM427.729 0.431999C428.113 0.389332 428.401 0.367998 428.593 0.367998C430.129 0.367998 431.281 0.751998 432.049 1.52C432.519 2.01067 432.753 2.53333 432.753 3.088C432.753 3.55733 432.583 3.96267 432.241 4.304C431.921 4.624 431.516 4.784 431.025 4.784C430.577 4.784 430.14 4.63467 429.713 4.336C429.329 4.05866 428.977 3.92 428.657 3.92C428.145 3.92 427.665 4.28267 427.217 5.008C426.769 5.73333 426.492 6.58667 426.385 7.568C426.343 7.90933 426.321 8.112 426.321 8.176C426.321 8.45333 426.46 8.63467 426.737 8.72C427.015 8.784 427.665 8.82667 428.689 8.848C428.86 8.848 428.999 8.848 429.105 8.848C430.087 8.89067 430.673 8.93333 430.865 8.976C431.079 9.01867 431.292 9.15733 431.505 9.392C431.783 9.69067 431.921 10.0747 431.921 10.544C431.921 11.0347 431.772 11.44 431.473 11.76L431.025 12.304H425.969L425.873 12.752C425.852 12.816 425.841 13.168 425.841 13.808C425.841 16.752 425.927 19.3653 426.097 21.648C426.097 21.7333 426.097 21.8507 426.097 22C426.119 22.1493 426.129 22.256 426.129 22.32C426.129 22.8747 426.055 23.28 425.905 23.536C425.756 23.792 425.489 24.016 425.105 24.208C424.849 24.336 424.572 24.4 424.273 24.4C423.676 24.4 423.217 24.176 422.897 23.728C422.727 23.472 422.567 22.5333 422.417 20.912C422.289 19.2693 422.225 17.6587 422.225 16.08C422.225 15.3547 422.236 14.832 422.257 14.512L422.353 12.272L420.273 12.368C419.292 12.4107 418.78 12.432 418.737 12.432C418.332 12.432 417.991 12.3253 417.713 12.112C417.308 11.7493 417.105 11.2693 417.105 10.672C417.105 10.416 417.148 10.192 417.233 10C417.383 9.616 417.692 9.33867 418.161 9.168C418.631 8.99733 419.409 8.88 420.497 8.816C421.841 8.73067 422.524 8.66667 422.545 8.624C422.588 8.58133 422.705 7.97333 422.897 6.8C423.239 4.60267 424.007 2.928 425.201 1.776C425.649 1.328 426.023 1.01867 426.321 0.848C426.641 0.677333 427.111 0.538666 427.729 0.431999ZM460.114 13.232C459.495 12.6133 458.535 12.304 457.234 12.304C456.594 12.304 456.029 12.4107 455.538 12.624C455.069 12.8373 454.557 13.2533 454.002 13.872C453.447 14.4907 453.085 15.056 452.914 15.568C452.722 16.1227 452.626 16.6453 452.626 17.136C452.626 18.2667 453.074 19.0667 453.97 19.536C454.503 19.8133 455.197 19.952 456.05 19.952C456.626 19.952 457.063 19.8773 457.362 19.728C459.09 18.8533 460.146 17.2853 460.53 15.024L460.722 13.808L460.114 13.232ZM455.25 8.88C455.762 8.73067 456.359 8.656 457.042 8.656C458.194 8.656 459.325 8.85867 460.434 9.264C461.543 9.66933 462.311 10.1813 462.738 10.8C463.037 11.2267 463.421 11.6747 463.89 12.144C464.402 12.6773 464.871 13.5947 465.298 14.896C465.703 16.1333 466.077 17.5093 466.418 19.024C466.781 20.5387 466.962 21.5627 466.962 22.096C466.962 22.6293 466.802 23.0453 466.482 23.344C466.077 23.728 465.693 23.92 465.33 23.92C465.181 23.92 464.989 23.888 464.754 23.824C464.349 23.6747 464.029 23.4187 463.794 23.056C463.581 22.6933 463.389 22.1067 463.218 21.296C463.005 20.336 462.887 19.856 462.866 19.856C462.781 19.856 462.333 20.2613 461.522 21.072C459.922 22.6293 458.258 23.472 456.53 23.6H456.082C455.037 23.6 454.013 23.4187 453.01 23.056C452.029 22.6933 451.25 22.2133 450.674 21.616C450.375 21.3173 450.077 20.8693 449.778 20.272C449.479 19.6533 449.277 19.088 449.17 18.576C449.063 18.0427 449.01 17.5627 449.01 17.136C449.01 15.3653 449.607 13.6693 450.802 12.048C452.018 10.4267 453.501 9.37067 455.25 8.88ZM491.498 1.264C491.711 1.2 491.978 1.168 492.298 1.168C493.322 1.168 494.133 1.33867 494.73 1.68C495.541 2.17067 495.946 2.832 495.946 3.664C495.946 4.304 495.658 4.77333 495.082 5.072C494.805 5.22133 494.506 5.296 494.186 5.296C493.866 5.296 493.493 5.2 493.066 5.008C492.725 4.85867 492.543 4.784 492.522 4.784C492.437 4.784 492.298 4.88 492.106 5.072C491.871 5.30667 491.669 5.78667 491.498 6.512C491.327 7.23733 491.242 8.03733 491.242 8.912V9.584C491.242 9.88267 491.274 10.0853 491.338 10.192C491.402 10.2987 491.551 10.352 491.786 10.352C491.999 10.352 492.511 10.2987 493.322 10.192C493.514 10.1707 493.77 10.16 494.09 10.16C495.562 10.16 496.298 10.7573 496.298 11.952C496.277 12.5707 496.053 13.0187 495.626 13.296C495.221 13.552 494.495 13.7227 493.45 13.808C492.447 13.8933 491.893 13.968 491.786 14.032C491.765 14.032 491.754 14.128 491.754 14.32C491.754 14.8747 491.861 15.9733 492.074 17.616C492.287 19.2587 492.49 20.5493 492.682 21.488C492.767 22 492.81 22.352 492.81 22.544C492.81 23.2693 492.639 23.8453 492.298 24.272C491.957 24.6987 491.487 24.912 490.89 24.912C490.399 24.912 489.983 24.752 489.642 24.432C489.407 24.176 489.247 23.8987 489.162 23.6C489.098 23.28 489.002 22.448 488.874 21.104C488.661 19.0773 488.469 17.4773 488.298 16.304L488.01 14.288L486.442 14.224C485.717 14.1813 485.258 14.128 485.066 14.064C484.874 14 484.682 13.8613 484.49 13.648C484.213 13.3067 484.074 12.8907 484.074 12.4C484.074 12.1013 484.138 11.824 484.266 11.568C484.565 11.056 485.311 10.736 486.506 10.608L487.53 10.512L487.626 8.56C487.754 6.34133 488.127 4.656 488.746 3.504C489.365 2.33067 490.282 1.584 491.498 1.264ZM501.55 8.912C501.635 8.89067 501.763 8.88 501.934 8.88C502.339 8.88 502.712 8.98667 503.054 9.2C503.395 9.392 503.63 9.65867 503.758 10C503.843 10.192 503.928 11.6533 504.014 14.384C504.12 17.0933 504.174 19.2267 504.174 20.784C504.174 21.4453 504.163 21.8293 504.142 21.936C504.035 22.7467 503.683 23.2907 503.086 23.568C502.787 23.696 502.552 23.76 502.382 23.76C502.254 23.76 502.062 23.728 501.806 23.664C501.315 23.5147 501.006 23.312 500.878 23.056C500.622 22.5653 500.472 20.6667 500.43 17.36C500.43 16.7627 500.419 15.728 500.398 14.256L500.366 9.872L500.75 9.424C501.006 9.12533 501.272 8.95467 501.55 8.912ZM500.782 2.896C501.038 2.768 501.283 2.704 501.518 2.704C501.987 2.704 502.403 2.896 502.766 3.28C503.128 3.64267 503.31 4.06933 503.31 4.56C503.31 4.90133 503.224 5.2 503.054 5.456C502.691 6.032 502.2 6.32 501.582 6.32C501.176 6.32 500.803 6.18133 500.462 5.904C500.12 5.62667 499.907 5.24267 499.822 4.752C499.822 4.73067 499.811 4.69867 499.79 4.656C499.79 4.592 499.79 4.54933 499.79 4.528C499.79 4.208 499.886 3.89867 500.078 3.6C500.27 3.28 500.504 3.04533 500.782 2.896ZM508.083 9.328C508.467 9.008 508.883 8.848 509.331 8.848C509.8 8.848 510.206 9.01867 510.547 9.36C510.888 9.68 511.059 10.096 511.059 10.608C511.059 11.12 511.155 11.376 511.347 11.376C511.454 11.376 511.678 11.2587 512.019 11.024C513.598 9.936 515.166 9.392 516.723 9.392C517.384 9.392 518.035 9.50933 518.675 9.744C519.251 9.97867 519.656 10.2347 519.891 10.512C520.126 10.7893 520.243 11.1627 520.243 11.632C520.243 12.144 520.051 12.5813 519.667 12.944C519.347 13.2427 519.059 13.392 518.803 13.392C518.718 13.392 518.12 13.3173 517.011 13.168C516.883 13.1467 516.702 13.136 516.467 13.136C516.126 13.136 515.688 13.2533 515.155 13.488C513.768 14.128 512.798 14.9387 512.243 15.92C511.688 16.9013 511.411 18.3093 511.411 20.144C511.39 21.488 511.23 22.4267 510.931 22.96C510.654 23.4933 510.152 23.76 509.427 23.76C508.936 23.76 508.52 23.5893 508.179 23.248L507.667 22.736L507.603 17.072C507.56 12.8907 507.539 10.736 507.539 10.608C507.539 10.096 507.72 9.66933 508.083 9.328ZM528.272 8.496C528.656 8.432 529.051 8.4 529.456 8.4C530.736 8.4 531.877 8.688 532.88 9.264C533.883 9.84 534.384 10.5013 534.384 11.248C534.384 11.44 534.352 11.6107 534.288 11.76C533.968 12.5707 533.488 12.976 532.848 12.976C532.379 12.976 531.845 12.8267 531.248 12.528C530.565 12.1867 529.936 12.016 529.36 12.016C528.741 12.016 528.229 12.2187 527.824 12.624C527.611 12.8373 527.504 13.008 527.504 13.136C527.504 13.3067 527.664 13.5093 527.984 13.744C528.325 13.9573 528.944 14.2987 529.84 14.768C531.312 15.536 532.304 16.1653 532.816 16.656C533.307 17.0827 533.733 17.616 534.096 18.256C534.459 18.8747 534.64 19.3973 534.64 19.824C534.64 20.3147 534.512 20.8053 534.256 21.296C534 21.7867 533.68 22.16 533.296 22.416C532.315 23.0773 531.12 23.408 529.712 23.408C528.389 23.408 527.024 23.0987 525.616 22.48C524.955 22.16 524.539 21.7973 524.368 21.392C524.24 21.0933 524.176 20.8267 524.176 20.592C524.176 20.1653 524.379 19.7493 524.784 19.344C525.061 19.024 525.435 18.864 525.904 18.864C526.352 18.864 526.896 19.0027 527.536 19.28C528.24 19.5787 529.051 19.728 529.968 19.728C530.395 19.728 530.608 19.6747 530.608 19.568C530.608 19.312 529.691 18.7253 527.856 17.808C526.427 17.0613 525.381 16.3253 524.72 15.6C524.059 14.8533 523.728 14.032 523.728 13.136C523.728 12.0693 524.165 11.088 525.04 10.192C525.936 9.27467 527.013 8.70933 528.272 8.496ZM543.063 1.52C543.426 1.15733 543.863 0.975998 544.375 0.975998C544.759 0.975998 545.1 1.09333 545.399 1.328C545.719 1.54133 545.943 1.85067 546.071 2.256C546.135 2.49067 546.242 3.6 546.391 5.584C546.54 7.54667 546.615 8.912 546.615 9.68C546.615 9.872 546.658 9.98933 546.743 10.032C546.85 10.0747 547.095 10.096 547.479 10.096C548.055 10.096 548.386 10.032 548.471 9.904C548.514 9.79733 548.951 9.744 549.783 9.744C550.85 9.744 551.554 9.81867 551.895 9.968C552.215 10.1173 552.46 10.4053 552.631 10.832C552.78 11.1307 552.855 11.376 552.855 11.568C552.855 11.7173 552.823 11.8987 552.759 12.112C552.61 12.6027 552.332 12.9333 551.927 13.104C551.543 13.2533 550.775 13.36 549.623 13.424C548.322 13.488 547.479 13.5733 547.095 13.68L546.583 13.808L546.711 18.32C546.754 20.3253 546.775 21.4027 546.775 21.552C546.775 22.4907 546.7 23.12 546.551 23.44C546.231 24.1227 545.708 24.464 544.983 24.464C544.706 24.464 544.418 24.4 544.119 24.272C543.884 24.1653 543.714 24.0693 543.607 23.984C543.5 23.8773 543.404 23.6107 543.319 23.184C543.234 22.736 543.18 22.2133 543.159 21.616C543.138 21.0187 543.116 20.0373 543.095 18.672L543.031 14.032L542.071 14.064C541.495 14.1067 540.983 14.192 540.535 14.32C540.428 14.3627 540.258 14.384 540.023 14.384C539.298 14.384 538.775 14.16 538.455 13.712C538.284 13.4347 538.199 13.0613 538.199 12.592C538.199 12.1867 538.263 11.8667 538.391 11.632C538.69 11.0987 539.735 10.6933 541.527 10.416L542.999 10.192L542.871 7.376C542.786 5.37067 542.711 4.00533 542.647 3.28C542.604 2.768 542.583 2.49067 542.583 2.448C542.583 2.14933 542.743 1.84 543.063 1.52ZM566.677 9.328C567.061 9.008 567.477 8.848 567.925 8.848C568.394 8.848 568.799 9.01867 569.141 9.36C569.482 9.68 569.653 10.096 569.653 10.608C569.653 11.12 569.749 11.376 569.941 11.376C570.047 11.376 570.271 11.2587 570.613 11.024C572.191 9.936 573.759 9.392 575.317 9.392C575.978 9.392 576.629 9.50933 577.269 9.744C577.845 9.97867 578.25 10.2347 578.485 10.512C578.719 10.7893 578.837 11.1627 578.837 11.632C578.837 12.144 578.645 12.5813 578.261 12.944C577.941 13.2427 577.653 13.392 577.397 13.392C577.311 13.392 576.714 13.3173 575.605 13.168C575.477 13.1467 575.295 13.136 575.061 13.136C574.719 13.136 574.282 13.2533 573.749 13.488C572.362 14.128 571.391 14.9387 570.837 15.92C570.282 16.9013 570.005 18.3093 570.005 20.144C569.983 21.488 569.823 22.4267 569.525 22.96C569.247 23.4933 568.746 23.76 568.021 23.76C567.53 23.76 567.114 23.5893 566.773 23.248L566.261 22.736L566.197 17.072C566.154 12.8907 566.133 10.736 566.133 10.608C566.133 10.096 566.314 9.66933 566.677 9.328ZM591.122 12.944C590.738 12.6667 590.13 12.528 589.298 12.528C588.786 12.528 588.38 12.592 588.082 12.72C587.804 12.848 587.484 13.1147 587.122 13.52C586.78 13.904 586.61 14.1813 586.61 14.352C586.61 14.5013 586.77 14.576 587.09 14.576C587.516 14.5547 588.402 14.4587 589.746 14.288C591.09 14.1173 591.783 14.0107 591.826 13.968C591.847 13.9467 591.858 13.9147 591.858 13.872C591.858 13.6373 591.612 13.328 591.122 12.944ZM587.666 9.04C588.05 8.93333 588.519 8.88 589.074 8.88C590.204 8.88 591.175 9.04 591.986 9.36C592.647 9.59467 593.298 10.0533 593.938 10.736C594.599 11.3973 595.143 12.144 595.57 12.976C595.996 13.8293 596.21 14.4053 596.21 14.704C596.21 15.3867 595.911 16.0267 595.314 16.624C594.674 17.2 592.679 17.6267 589.33 17.904C588.05 18.0107 587.218 18.096 586.834 18.16C586.45 18.224 586.258 18.32 586.258 18.448C586.258 18.5547 586.45 18.7787 586.834 19.12C587.495 19.76 588.679 20.144 590.386 20.272C590.556 20.2933 590.78 20.304 591.058 20.304C591.506 20.304 592.039 20.1973 592.658 19.984C593.532 19.664 594.226 19.504 594.738 19.504C595.506 19.504 596.007 19.888 596.242 20.656C596.306 20.848 596.338 21.0293 596.338 21.2C596.338 21.9253 595.879 22.5227 594.962 22.992C594.066 23.44 592.796 23.696 591.154 23.76C591.068 23.76 590.951 23.7707 590.802 23.792C590.652 23.792 590.546 23.792 590.482 23.792C588.668 23.792 587.1 23.44 585.778 22.736C584.476 22.0107 583.495 20.9867 582.834 19.664C582.514 19.024 582.354 18.1707 582.354 17.104C582.354 16.0373 582.46 15.1947 582.674 14.576C583.207 12.976 583.868 11.7493 584.658 10.896C585.447 10.0213 586.45 9.40267 587.666 9.04ZM601.263 2.864C601.54 2.75733 601.785 2.704 601.999 2.704C602.319 2.704 602.639 2.8 602.959 2.992C603.279 3.20533 603.492 3.44 603.599 3.696C603.727 3.952 603.791 4.44267 603.791 5.168C603.791 6 603.748 7.056 603.663 8.336C603.513 10.96 603.417 14.0533 603.375 17.616C603.375 21.0933 603.3 22.9707 603.151 23.248C603.044 23.4613 602.82 23.6747 602.479 23.888C602.159 24.08 601.881 24.176 601.647 24.176C601.391 24.176 601.103 24.0693 600.783 23.856C600.463 23.6427 600.239 23.408 600.111 23.152C599.855 22.64 599.727 20.9227 599.727 18C599.727 15.056 599.855 11.1733 600.111 6.352C600.175 5.09333 600.281 4.24 600.431 3.792C600.58 3.344 600.857 3.03467 601.263 2.864ZM616.476 13.68C616.369 13.3387 616.273 13.1467 616.188 13.104C616.103 13.04 615.868 13.008 615.484 13.008C614.375 13.0293 613.34 13.552 612.38 14.576C611.42 15.5787 610.94 16.592 610.94 17.616C610.94 18.128 611.079 18.5547 611.356 18.896C611.975 19.5787 612.625 19.92 613.308 19.92C613.351 19.92 613.393 19.92 613.436 19.92C613.479 19.8987 613.521 19.888 613.564 19.888C613.948 19.8027 614.353 19.5467 614.78 19.12C615.228 18.6933 615.569 18.224 615.804 17.712C616.295 16.56 616.54 15.44 616.54 14.352C616.54 14.032 616.519 13.808 616.476 13.68ZM613.5 9.648C614.076 9.456 614.737 9.36 615.484 9.36C616.465 9.36 617.297 9.52 617.98 9.84C618.428 10.0747 618.833 10.4267 619.196 10.896C619.58 11.344 619.815 11.7707 619.9 12.176C619.985 12.5813 620.103 12.9653 620.252 13.328C620.487 13.9467 620.956 16.272 621.66 20.304C621.767 20.944 621.82 21.424 621.82 21.744C621.82 23.024 621.223 23.664 620.028 23.664C619.623 23.664 619.249 23.504 618.908 23.184C618.588 22.864 618.385 22.4693 618.3 22C618.215 21.5733 618.14 21.328 618.076 21.264C617.991 21.2 617.745 21.3707 617.34 21.776C616.124 22.992 614.727 23.6 613.148 23.6C612.871 23.6 612.583 23.568 612.284 23.504C611.111 23.248 610.012 22.608 608.988 21.584C607.836 20.432 607.26 19.1413 607.26 17.712C607.26 16.5813 607.612 15.3547 608.316 14.032C608.849 13.0293 609.575 12.1333 610.492 11.344C611.431 10.5547 612.433 9.98933 613.5 9.648ZM630.346 2.192C630.687 1.97867 631.007 1.872 631.306 1.872C631.54 1.872 631.807 1.936 632.106 2.064C632.554 2.27733 632.842 2.608 632.97 3.056C633.098 3.504 633.183 4.57067 633.226 6.256L633.322 9.424L634.794 9.328C634.964 9.30667 635.21 9.296 635.53 9.296C636.298 9.296 636.842 9.43467 637.162 9.712C637.503 9.98933 637.674 10.4373 637.674 11.056C637.674 11.7173 637.45 12.1867 637.002 12.464C636.575 12.7413 635.743 12.9333 634.506 13.04L633.162 13.168L632.938 17.616C632.788 20.624 632.65 22.288 632.522 22.608C632.244 23.248 631.711 23.568 630.922 23.568C630.474 23.568 630.122 23.4507 629.866 23.216C629.588 23.0027 629.396 22.768 629.29 22.512C629.183 22.256 629.13 21.84 629.13 21.264C629.13 20.7947 629.162 20.0907 629.226 19.152C629.332 17.4667 629.407 16.0267 629.45 14.832L629.482 13.328L628.042 13.296C627.231 13.2747 626.676 13.2107 626.378 13.104C626.079 12.976 625.823 12.72 625.61 12.336C625.482 12.08 625.418 11.8133 625.418 11.536C625.418 11.024 625.631 10.576 626.058 10.192C626.292 9.97867 626.591 9.84 626.954 9.776C627.316 9.69067 627.988 9.60533 628.97 9.52L629.482 9.456L629.61 6.064C629.631 5.552 629.642 4.99733 629.642 4.4C629.663 3.78133 629.674 3.32266 629.674 3.024L629.706 2.576L629.802 2.512C629.866 2.46933 629.951 2.416 630.058 2.352C630.164 2.288 630.26 2.23467 630.346 2.192ZM642.925 8.912C643.01 8.89067 643.138 8.88 643.309 8.88C643.714 8.88 644.087 8.98667 644.429 9.2C644.77 9.392 645.005 9.65867 645.133 10C645.218 10.192 645.303 11.6533 645.389 14.384C645.495 17.0933 645.549 19.2267 645.549 20.784C645.549 21.4453 645.538 21.8293 645.517 21.936C645.41 22.7467 645.058 23.2907 644.461 23.568C644.162 23.696 643.927 23.76 643.757 23.76C643.629 23.76 643.437 23.728 643.181 23.664C642.69 23.5147 642.381 23.312 642.253 23.056C641.997 22.5653 641.847 20.6667 641.805 17.36C641.805 16.7627 641.794 15.728 641.773 14.256L641.741 9.872L642.125 9.424C642.381 9.12533 642.647 8.95467 642.925 8.912ZM642.157 2.896C642.413 2.768 642.658 2.704 642.893 2.704C643.362 2.704 643.778 2.896 644.141 3.28C644.503 3.64267 644.685 4.06933 644.685 4.56C644.685 4.90133 644.599 5.2 644.429 5.456C644.066 6.032 643.575 6.32 642.957 6.32C642.551 6.32 642.178 6.18133 641.837 5.904C641.495 5.62667 641.282 5.24267 641.197 4.752C641.197 4.73067 641.186 4.69867 641.165 4.656C641.165 4.592 641.165 4.54933 641.165 4.528C641.165 4.208 641.261 3.89867 641.453 3.6C641.645 3.28 641.879 3.04533 642.157 2.896ZM657.682 11.6C657.106 11.4933 656.626 11.44 656.242 11.44C655.367 11.44 654.631 11.6213 654.034 11.984C653.735 12.176 653.383 12.8267 652.978 13.936C652.594 15.024 652.402 15.8987 652.402 16.56C652.402 17.6267 652.743 18.4907 653.426 19.152C654.13 19.792 655.047 20.1227 656.178 20.144C657.095 20.144 657.949 19.888 658.738 19.376C659.549 18.864 660.135 18.192 660.498 17.36C660.733 16.8267 660.85 16.2187 660.85 15.536C660.85 14.704 660.69 13.9787 660.37 13.36C660.135 12.8693 659.815 12.496 659.41 12.24C659.005 11.984 658.429 11.7707 657.682 11.6ZM654.066 8.176C654.813 7.984 655.549 7.888 656.274 7.888C657.639 7.888 659.101 8.22933 660.658 8.912C661.767 9.40267 662.642 10.2667 663.282 11.504C663.943 12.7413 664.285 14.2027 664.306 15.888V16.08C664.306 18.6187 663.175 20.6773 660.914 22.256C659.506 23.2587 657.938 23.76 656.21 23.76C654.781 23.76 653.458 23.408 652.242 22.704C651.026 21.9787 650.109 20.9653 649.49 19.664C649.277 19.216 649.138 18.832 649.074 18.512C649.031 18.192 649.01 17.52 649.01 16.496C649.031 14.9813 649.191 13.7867 649.49 12.912C650.194 10.9707 651.026 9.65867 651.986 8.976C652.37 8.69867 653.063 8.432 654.066 8.176ZM668.239 8.112C668.58 7.74933 669.017 7.568 669.551 7.568C669.913 7.568 670.233 7.664 670.511 7.856C670.745 8.02667 670.948 8.304 671.119 8.688C671.311 9.072 671.407 9.424 671.407 9.744C671.407 10.0853 671.492 10.256 671.663 10.256C671.855 10.256 672.164 10.1173 672.591 9.84C673.017 9.584 673.583 9.34933 674.286 9.136C674.991 8.92267 675.556 8.816 675.983 8.816C676.409 8.816 676.932 8.95467 677.551 9.232C678.191 9.50933 678.692 9.81867 679.055 10.16C679.823 10.9067 680.367 11.952 680.687 13.296C681.028 14.64 681.199 16.5067 681.199 18.896C681.199 20.5813 681.145 21.6907 681.039 22.224C680.932 22.736 680.687 23.0987 680.303 23.312C680.047 23.44 679.737 23.504 679.375 23.504C678.991 23.504 678.671 23.44 678.415 23.312C678.052 23.12 677.817 22.768 677.711 22.256C677.625 21.7227 677.561 20.4427 677.519 18.416C677.476 16.3893 677.391 15.056 677.263 14.416C677.135 13.7547 676.868 13.2213 676.463 12.816C676.249 12.6027 675.983 12.496 675.663 12.496C675.129 12.496 674.553 12.7627 673.935 13.296C673.337 13.808 672.847 14.4693 672.463 15.28C672.271 15.6853 672.153 16.0693 672.111 16.432C672.068 16.7947 672.025 17.6267 671.983 18.928C671.94 20.72 671.855 21.7867 671.727 22.128C671.428 22.9173 670.852 23.312 669.999 23.312C669.295 23.312 668.761 23.0027 668.399 22.384C668.292 22.1493 668.185 20.1547 668.079 16.4C667.951 12.368 667.865 10.1387 667.823 9.712C667.78 9.28533 667.759 9.05067 667.759 9.008C667.759 8.73067 667.919 8.432 668.239 8.112ZM688.186 8.208C688.57 8.10133 689.167 8.048 689.978 8.048C691.684 8.048 692.922 8.176 693.69 8.432C694.756 8.77333 695.29 9.36 695.29 10.192C695.29 10.6827 695.055 11.1307 694.586 11.536C694.266 11.8347 693.956 11.984 693.658 11.984C693.636 11.984 693.594 11.984 693.53 11.984C693.466 11.9627 693.412 11.952 693.37 11.952C691.962 11.7173 690.852 11.6 690.042 11.6C689.786 11.6 689.551 11.6213 689.338 11.664C688.676 11.8347 688.346 12.144 688.346 12.592C688.346 12.6773 688.356 12.7413 688.378 12.784C688.527 13.2107 689.37 13.744 690.906 14.384C693.658 15.536 695.354 16.9653 695.994 18.672C696.186 19.184 696.282 19.664 696.282 20.112C696.282 20.9013 695.994 21.5733 695.418 22.128C694.863 22.6827 694.074 23.056 693.05 23.248C692.623 23.3333 691.919 23.376 690.938 23.376C689.146 23.376 688.004 23.2693 687.514 23.056C687.236 22.928 687.002 22.7147 686.81 22.416C686.618 22.096 686.522 21.7867 686.522 21.488C686.522 21.168 686.628 20.848 686.842 20.528C687.055 20.1867 687.311 19.952 687.61 19.824C687.887 19.7173 688.218 19.664 688.602 19.664C688.751 19.664 689.082 19.6853 689.594 19.728C689.935 19.7707 690.394 19.792 690.97 19.792C691.866 19.792 692.314 19.6853 692.314 19.472C692.314 19.088 691.386 18.512 689.53 17.744C687.866 17.0187 686.639 16.2613 685.85 15.472C685.082 14.6613 684.698 13.744 684.698 12.72C684.698 12.5493 684.719 12.2933 684.762 11.952C684.932 10.9067 685.359 10.0747 686.042 9.456C686.596 8.90133 687.311 8.48533 688.186 8.208ZM700.527 1.552C700.889 1.25333 701.263 1.104 701.647 1.104C702.415 1.104 702.98 1.57333 703.343 2.512C703.492 2.93867 703.652 3.96267 703.823 5.584C703.993 7.184 704.132 8.67733 704.239 10.064C704.345 11.4293 704.409 12.112 704.431 12.112C704.473 12.112 704.825 11.8773 705.487 11.408C706.788 10.4907 708.025 10.032 709.199 10.032C710.287 10.032 711.236 10.4373 712.047 11.248C712.879 12.0373 713.529 13.2 713.999 14.736C714.361 15.9307 714.543 17.7867 714.543 20.304C714.543 21.8827 714.447 22.9493 714.255 23.504C714.041 24.08 713.551 24.368 712.783 24.368C712.271 24.368 711.844 24.1973 711.503 23.856L711.023 23.376L710.927 20.144C710.799 15.984 710.223 13.84 709.199 13.712H709.103C708.612 13.712 708.004 13.9893 707.279 14.544C706.553 15.0773 706.031 15.664 705.711 16.304C705.519 16.7307 705.263 17.04 704.943 17.232L704.527 17.52L704.463 21.008C704.42 22.7147 704.377 23.7493 704.335 24.112C704.313 24.4533 704.196 24.7307 703.983 24.944C703.641 25.3067 703.215 25.488 702.703 25.488C701.935 25.488 701.401 25.1467 701.103 24.464C700.953 24.0587 700.847 21.6053 700.783 17.104C700.676 9.57333 700.399 5.06133 699.951 3.568C699.887 3.33333 699.855 3.10933 699.855 2.896C699.855 2.34133 700.079 1.89333 700.527 1.552ZM719.481 9.456C719.567 9.43467 719.695 9.424 719.865 9.424C720.335 9.424 720.751 9.57333 721.113 9.872C721.476 10.1707 721.689 10.5547 721.753 11.024C721.839 11.4933 721.881 13.5093 721.881 17.072L721.913 22.48L721.369 22.992C721.007 23.3547 720.58 23.536 720.089 23.536C719.641 23.536 719.257 23.376 718.937 23.056C718.724 22.8427 718.575 22.6293 718.489 22.416C718.425 22.1813 718.372 21.7333 718.329 21.072C718.265 20.24 718.233 18.2347 718.233 15.056L718.201 10.576L718.649 10.032C718.969 9.69067 719.247 9.49867 719.481 9.456ZM718.905 3.088C719.183 2.93867 719.471 2.864 719.769 2.864C720.26 2.864 720.676 3.04533 721.017 3.408C721.359 3.77067 721.529 4.18667 721.529 4.656C721.529 5.06133 721.369 5.456 721.049 5.84C720.644 6.26667 720.196 6.48 719.705 6.48C719.236 6.48 718.82 6.32 718.457 6C718.116 5.65867 717.945 5.25333 717.945 4.784C717.945 4.50666 718.009 4.22933 718.137 3.952C718.329 3.54667 718.585 3.25867 718.905 3.088ZM735.05 16.304C735.05 15.6213 734.644 14.928 733.834 14.224C733.023 13.52 732.17 13.168 731.274 13.168C730.719 13.1893 730.324 13.264 730.09 13.392C729.855 13.52 729.631 13.808 729.418 14.256C729.226 14.704 729.13 15.1627 729.13 15.632C729.13 15.76 729.151 16.2933 729.194 17.232L729.322 19.472L729.898 19.568C729.962 19.5893 730.058 19.6 730.186 19.6C730.762 19.6 731.455 19.408 732.266 19.024C733.098 18.6187 733.802 18.1387 734.378 17.584C734.826 17.136 735.05 16.7093 735.05 16.304ZM726.57 9.456C726.591 9.456 726.623 9.456 726.666 9.456C726.708 9.43467 726.751 9.424 726.794 9.424C727.412 9.424 727.871 9.57333 728.17 9.872C728.276 9.936 728.394 9.968 728.522 9.968C728.692 9.968 728.98 9.904 729.386 9.776C729.962 9.60533 730.527 9.52 731.082 9.52C732.106 9.52 733.13 9.75467 734.154 10.224C735.199 10.672 736.084 11.2907 736.81 12.08C738.068 13.4667 738.698 14.896 738.698 16.368C738.698 18.0747 737.887 19.5253 736.266 20.72C735.306 21.4453 734.26 22.0427 733.13 22.512C731.999 22.9813 731.071 23.216 730.346 23.216C730.154 23.216 730.015 23.2053 729.93 23.184L729.418 23.088C729.46 23.856 729.503 25.0187 729.546 26.576C729.588 28.1333 729.631 29.3067 729.674 30.096L729.034 30.736C728.607 31.1627 728.191 31.376 727.786 31.376C727.402 31.376 727.028 31.1947 726.666 30.832C726.346 30.512 726.143 30.2027 726.058 29.904C726.015 29.648 725.919 27.2693 725.77 22.768C725.663 18.288 725.546 15.4933 725.418 14.384C725.311 13.3813 725.258 12.4427 725.258 11.568C725.258 11.056 725.279 10.7253 725.322 10.576C725.386 10.4053 725.524 10.2133 725.738 10C726.058 9.68 726.335 9.49867 726.57 9.456ZM743.318 20.56C743.702 20.4107 743.926 20.336 743.99 20.336L744.598 20.56C745.366 20.88 745.75 21.456 745.75 22.288C745.75 22.736 745.558 23.1627 745.174 23.568C744.811 23.9733 744.427 24.176 744.022 24.176C743.638 24.176 743.275 24.048 742.934 23.792C742.614 23.5147 742.39 23.1733 742.262 22.768C742.198 22.576 742.166 22.3947 742.166 22.224C742.166 21.84 742.272 21.4987 742.486 21.2C742.699 20.88 742.976 20.6667 743.318 20.56ZM749.547 21.424C749.718 21.0613 749.91 20.816 750.123 20.688C750.337 20.56 750.71 20.496 751.243 20.496C751.606 20.496 751.851 20.528 751.979 20.592C752.129 20.656 752.299 20.8053 752.491 21.04C752.811 21.424 752.971 21.8293 752.971 22.256C752.971 22.7253 752.769 23.1627 752.363 23.568C751.958 23.9733 751.542 24.176 751.115 24.176C750.689 24.176 750.273 23.9947 749.867 23.632C749.483 23.248 749.291 22.8533 749.291 22.448C749.291 22.128 749.377 21.7867 749.547 21.424ZM756.766 21.424C756.937 21.0613 757.129 20.816 757.342 20.688C757.555 20.56 757.929 20.496 758.462 20.496C758.825 20.496 759.07 20.528 759.198 20.592C759.347 20.656 759.518 20.8053 759.71 21.04C760.03 21.424 760.19 21.8293 760.19 22.256C760.19 22.7253 759.987 23.1627 759.582 23.568C759.177 23.9733 758.761 24.176 758.334 24.176C757.907 24.176 757.491 23.9947 757.086 23.632C756.702 23.248 756.51 22.8533 756.51 22.448C756.51 22.128 756.595 21.7867 756.766 21.424Z" fill="#27263C"/>
</svg>
