<svg width="853" height="32" viewBox="0 0 853 32" fill="none" xmlns="http://www.w3.org/2000/svg">
<path d="M1.016 21.424C1.18667 21.0613 1.37867 20.816 1.592 20.688C1.80533 20.56 2.17867 20.496 2.712 20.496C3.07467 20.496 3.32 20.528 3.448 20.592C3.59733 20.656 3.768 20.8053 3.96 21.04C4.28 21.424 4.44 21.8293 4.44 22.256C4.44 22.7253 4.23733 23.1627 3.832 23.568C3.42667 23.9733 3.01067 24.176 2.584 24.176C2.15733 24.176 1.74133 23.9947 1.336 23.632C0.952 23.248 0.76 22.8533 0.76 22.448C0.76 22.128 0.845333 21.7867 1.016 21.424ZM9.09875 20.56C9.48275 20.4107 9.70675 20.336 9.77075 20.336L10.3788 20.56C11.1468 20.88 11.5308 21.456 11.5308 22.288C11.5308 22.736 11.3388 23.1627 10.9548 23.568C10.5921 23.9733 10.2081 24.176 9.80275 24.176C9.41875 24.176 9.05608 24.048 8.71475 23.792C8.39475 23.5147 8.17075 23.1733 8.04275 22.768C7.97875 22.576 7.94675 22.3947 7.94675 22.224C7.94675 21.84 8.05342 21.4987 8.26675 21.2C8.48008 20.88 8.75742 20.6667 9.09875 20.56ZM26.1765 13.232C25.5578 12.6133 24.5978 12.304 23.2965 12.304C22.6565 12.304 22.0912 12.4107 21.6005 12.624C21.1312 12.8373 20.6192 13.2533 20.0645 13.872C19.5098 14.4907 19.1472 15.056 18.9765 15.568C18.7845 16.1227 18.6885 16.6453 18.6885 17.136C18.6885 18.2667 19.1365 19.0667 20.0325 19.536C20.5658 19.8133 21.2592 19.952 22.1125 19.952C22.6885 19.952 23.1258 19.8773 23.4245 19.728C25.1525 18.8533 26.2085 17.2853 26.5925 15.024L26.7845 13.808L26.1765 13.232ZM21.3125 8.88C21.8245 8.73067 22.4218 8.656 23.1045 8.656C24.2565 8.656 25.3872 8.85867 26.4965 9.264C27.6058 9.66933 28.3738 10.1813 28.8005 10.8C29.0992 11.2267 29.4832 11.6747 29.9525 12.144C30.4645 12.6773 30.9338 13.5947 31.3605 14.896C31.7658 16.1333 32.1392 17.5093 32.4805 19.024C32.8432 20.5387 33.0245 21.5627 33.0245 22.096C33.0245 22.6293 32.8645 23.0453 32.5445 23.344C32.1392 23.728 31.7552 23.92 31.3925 23.92C31.2432 23.92 31.0512 23.888 30.8165 23.824C30.4112 23.6747 30.0912 23.4187 29.8565 23.056C29.6432 22.6933 29.4512 22.1067 29.2805 21.296C29.0672 20.336 28.9498 19.856 28.9285 19.856C28.8432 19.856 28.3952 20.2613 27.5845 21.072C25.9845 22.6293 24.3205 23.472 22.5925 23.6H22.1445C21.0992 23.6 20.0752 23.4187 19.0725 23.056C18.0912 22.6933 17.3125 22.2133 16.7365 21.616C16.4378 21.3173 16.1392 20.8693 15.8405 20.272C15.5418 19.6533 15.3392 19.088 15.2325 18.576C15.1258 18.0427 15.0725 17.5627 15.0725 17.136C15.0725 15.3653 15.6698 13.6693 16.8645 12.048C18.0805 10.4267 19.5632 9.37067 21.3125 8.88ZM37.4358 9.072C37.6918 8.944 37.9584 8.88 38.2358 8.88C38.6198 8.88 38.9824 9.008 39.3238 9.264C39.6651 9.49867 39.8998 9.81867 40.0278 10.224L40.2198 10.896L41.0198 10.416C41.5531 10.096 42.2891 9.936 43.2278 9.936C44.1451 9.936 44.9024 10.0853 45.4998 10.384C45.9904 10.6187 46.5131 11.0027 47.0678 11.536C47.6438 12.0693 48.1024 12.6027 48.4438 13.136C49.5958 14.9493 50.2251 17.7653 50.3318 21.584V22.224C50.3318 22.736 50.1824 23.152 49.8838 23.472C49.5211 23.8347 49.0944 24.016 48.6038 24.016C47.8144 24.016 47.2918 23.6747 47.0358 22.992C46.9078 22.6293 46.8011 21.9147 46.7158 20.848C46.4598 17.1147 45.6278 14.7787 44.2198 13.84C43.9211 13.648 43.6224 13.552 43.3238 13.552C42.7691 13.552 42.2678 13.8613 41.8198 14.48C41.3931 15.0773 41.0518 15.9307 40.7958 17.04C40.6891 17.5307 40.5611 18.416 40.4118 19.696C40.2624 20.976 40.1878 21.84 40.1878 22.288C40.1878 22.5013 40.0064 22.7893 39.6438 23.152C39.2811 23.4933 38.8651 23.664 38.3958 23.664C37.5211 23.664 36.9451 23.2053 36.6678 22.288C36.5398 21.84 36.4758 19.8987 36.4758 16.464C36.4758 12.368 36.5504 10.1387 36.6998 9.776C36.8278 9.49867 37.0731 9.264 37.4358 9.072ZM61.917 13.872C61.725 13.6373 61.3943 13.52 60.925 13.52C60.541 13.52 60.157 13.616 59.773 13.808C59.197 14.0853 58.653 14.672 58.141 15.568C57.629 16.464 57.373 17.2533 57.373 17.936C57.373 18.1493 57.405 18.3307 57.469 18.48C57.6183 18.8213 57.981 19.1413 58.557 19.44C59.133 19.7173 59.677 19.856 60.189 19.856C60.2957 19.856 60.4557 19.8347 60.669 19.792C61.1597 19.6427 61.6503 19.2373 62.141 18.576C62.653 17.8933 63.0477 17.0933 63.325 16.176C63.4957 15.6213 63.581 15.248 63.581 15.056C63.581 14.7573 63.357 14.544 62.909 14.416C62.397 14.224 62.0663 14.0427 61.917 13.872ZM64.509 2.704C64.701 2.61867 64.925 2.576 65.181 2.576C65.9917 2.576 66.5357 2.928 66.813 3.632C66.941 3.952 67.1437 5.24267 67.421 7.504C67.677 9.872 67.8263 11.2053 67.869 11.504C68.7437 17.84 69.181 21.4667 69.181 22.384C69.181 22.8107 68.9997 23.184 68.637 23.504C68.2957 23.824 67.901 23.984 67.453 23.984C66.8343 23.984 66.3543 23.76 66.013 23.312C65.6717 22.8427 65.501 22.2133 65.501 21.424C65.501 21.0827 65.4583 20.8693 65.373 20.784H65.341C65.213 20.784 64.8183 21.0933 64.157 21.712C63.453 22.416 62.7703 22.8853 62.109 23.12C61.5117 23.3547 60.829 23.472 60.061 23.472C58.9303 23.472 57.8423 23.1947 56.797 22.64C55.7517 22.064 54.941 21.3067 54.365 20.368C54.1517 20.0053 54.013 19.696 53.949 19.44C53.9063 19.1627 53.885 18.64 53.885 17.872C53.9063 16.8907 54.0237 16.0693 54.237 15.408C54.4503 14.7467 54.845 13.9787 55.421 13.104C55.8263 12.4853 56.4023 11.888 57.149 11.312C57.8957 10.736 58.5463 10.3627 59.101 10.192C59.6557 10.0427 60.2423 9.968 60.861 9.968C61.629 9.968 62.301 10.064 62.877 10.256C63.4957 10.448 63.8263 10.544 63.869 10.544C63.9117 10.544 63.933 10.416 63.933 10.16C63.933 9.456 63.8477 8.57067 63.677 7.504C63.5277 6.62933 63.453 5.84 63.453 5.136C63.453 3.81333 63.805 3.00267 64.509 2.704ZM87.4068 1.52C87.7694 1.15733 88.2068 0.975998 88.7188 0.975998C89.1028 0.975998 89.4441 1.09333 89.7428 1.328C90.0628 1.54133 90.2868 1.85067 90.4148 2.256C90.4788 2.49067 90.5854 3.6 90.7348 5.584C90.8841 7.54667 90.9588 8.912 90.9588 9.68C90.9588 9.872 91.0014 9.98933 91.0868 10.032C91.1934 10.0747 91.4388 10.096 91.8228 10.096C92.3988 10.096 92.7294 10.032 92.8148 9.904C92.8574 9.79733 93.2948 9.744 94.1268 9.744C95.1934 9.744 95.8974 9.81867 96.2388 9.968C96.5588 10.1173 96.8041 10.4053 96.9748 10.832C97.1241 11.1307 97.1988 11.376 97.1988 11.568C97.1988 11.7173 97.1668 11.8987 97.1028 12.112C96.9534 12.6027 96.6761 12.9333 96.2708 13.104C95.8868 13.2533 95.1188 13.36 93.9668 13.424C92.6654 13.488 91.8228 13.5733 91.4388 13.68L90.9268 13.808L91.0548 18.32C91.0974 20.3253 91.1188 21.4027 91.1188 21.552C91.1188 22.4907 91.0441 23.12 90.8948 23.44C90.5748 24.1227 90.0521 24.464 89.3268 24.464C89.0494 24.464 88.7614 24.4 88.4628 24.272C88.2281 24.1653 88.0574 24.0693 87.9508 23.984C87.8441 23.8773 87.7481 23.6107 87.6628 23.184C87.5774 22.736 87.5241 22.2133 87.5028 21.616C87.4814 21.0187 87.4601 20.0373 87.4388 18.672L87.3748 14.032L86.4148 14.064C85.8388 14.1067 85.3268 14.192 84.8788 14.32C84.7721 14.3627 84.6014 14.384 84.3668 14.384C83.6414 14.384 83.1188 14.16 82.7988 13.712C82.6281 13.4347 82.5428 13.0613 82.5428 12.592C82.5428 12.1867 82.6068 11.8667 82.7348 11.632C83.0334 11.0987 84.0788 10.6933 85.8708 10.416L87.3428 10.192L87.2148 7.376C87.1294 5.37067 87.0548 4.00533 86.9908 3.28C86.9481 2.768 86.9268 2.49067 86.9268 2.448C86.9268 2.14933 87.0868 1.84 87.4068 1.52ZM101.495 1.552C101.858 1.25333 102.231 1.104 102.615 1.104C103.383 1.104 103.949 1.57333 104.311 2.512C104.461 2.93867 104.621 3.96267 104.791 5.584C104.962 7.184 105.101 8.67733 105.207 10.064C105.314 11.4293 105.378 12.112 105.399 12.112C105.442 12.112 105.794 11.8773 106.455 11.408C107.757 10.4907 108.994 10.032 110.167 10.032C111.255 10.032 112.205 10.4373 113.015 11.248C113.847 12.0373 114.498 13.2 114.967 14.736C115.33 15.9307 115.511 17.7867 115.511 20.304C115.511 21.8827 115.415 22.9493 115.223 23.504C115.01 24.08 114.519 24.368 113.751 24.368C113.239 24.368 112.813 24.1973 112.471 23.856L111.991 23.376L111.895 20.144C111.767 15.984 111.191 13.84 110.167 13.712H110.071C109.581 13.712 108.973 13.9893 108.247 14.544C107.522 15.0773 106.999 15.664 106.679 16.304C106.487 16.7307 106.231 17.04 105.911 17.232L105.495 17.52L105.431 21.008C105.389 22.7147 105.346 23.7493 105.303 24.112C105.282 24.4533 105.165 24.7307 104.951 24.944C104.61 25.3067 104.183 25.488 103.671 25.488C102.903 25.488 102.37 25.1467 102.071 24.464C101.922 24.0587 101.815 21.6053 101.751 17.104C101.645 9.57333 101.367 5.06133 100.919 3.568C100.855 3.33333 100.823 3.10933 100.823 2.896C100.823 2.34133 101.047 1.89333 101.495 1.552ZM128.898 13.808C128.514 13.616 127.97 13.52 127.266 13.52C126.498 13.52 125.847 13.6373 125.314 13.872C124.951 14.0213 124.482 14.352 123.906 14.864C123.33 15.3547 123.042 15.6747 123.042 15.824C123.042 15.888 123.373 15.92 124.034 15.92C125.015 15.92 126.189 15.8667 127.554 15.76C128.919 15.6533 129.698 15.536 129.89 15.408C129.954 15.3867 129.986 15.3227 129.986 15.216C129.986 15.024 129.869 14.7787 129.634 14.48C129.399 14.16 129.154 13.936 128.898 13.808ZM125.122 10.096C125.655 9.94667 126.285 9.872 127.01 9.872C128.354 9.872 129.581 10.1387 130.69 10.672C131.522 11.0987 132.215 11.7493 132.77 12.624C133.325 13.4773 133.666 14.4373 133.794 15.504C133.794 15.5467 133.794 15.6107 133.794 15.696C133.815 15.7813 133.826 15.8453 133.826 15.888C133.826 16.4427 133.719 16.9867 133.506 17.52C133.314 18.0533 133.079 18.416 132.802 18.608C132.439 18.864 129.89 19.184 125.154 19.568C124.151 19.6533 123.65 19.7493 123.65 19.856C123.65 19.984 123.874 20.1867 124.322 20.464C124.77 20.7413 125.207 20.9333 125.634 21.04C126.018 21.1253 126.327 21.168 126.562 21.168C127.245 21.168 128.13 20.944 129.218 20.496C129.986 20.176 130.551 20.016 130.914 20.016C131.277 20.016 131.618 20.176 131.938 20.496C132.365 20.9227 132.578 21.328 132.578 21.712C132.578 21.968 132.514 22.2347 132.386 22.512C132.279 22.768 132.13 22.9707 131.938 23.12C131.767 23.2693 131.447 23.4507 130.978 23.664C129.421 24.3467 127.97 24.688 126.626 24.688C125.858 24.688 125.069 24.5707 124.258 24.336C123.17 23.9947 122.178 23.4187 121.282 22.608C120.386 21.776 119.746 20.8587 119.362 19.856C119.127 19.1947 119.01 18.4587 119.01 17.648C119.01 16.4747 119.202 15.4933 119.586 14.704C120.034 13.7227 120.791 12.784 121.858 11.888C122.925 10.992 124.013 10.3947 125.122 10.096ZM152.032 1.52C152.394 1.15733 152.832 0.975998 153.344 0.975998C153.728 0.975998 154.069 1.09333 154.368 1.328C154.688 1.54133 154.912 1.85067 155.04 2.256C155.104 2.49067 155.21 3.6 155.36 5.584C155.509 7.54667 155.584 8.912 155.584 9.68C155.584 9.872 155.626 9.98933 155.712 10.032C155.818 10.0747 156.064 10.096 156.448 10.096C157.024 10.096 157.354 10.032 157.44 9.904C157.482 9.79733 157.92 9.744 158.752 9.744C159.818 9.744 160.522 9.81867 160.864 9.968C161.184 10.1173 161.429 10.4053 161.6 10.832C161.749 11.1307 161.824 11.376 161.824 11.568C161.824 11.7173 161.792 11.8987 161.728 12.112C161.578 12.6027 161.301 12.9333 160.896 13.104C160.512 13.2533 159.744 13.36 158.592 13.424C157.29 13.488 156.448 13.5733 156.064 13.68L155.552 13.808L155.68 18.32C155.722 20.3253 155.744 21.4027 155.744 21.552C155.744 22.4907 155.669 23.12 155.52 23.44C155.2 24.1227 154.677 24.464 153.952 24.464C153.674 24.464 153.386 24.4 153.088 24.272C152.853 24.1653 152.682 24.0693 152.576 23.984C152.469 23.8773 152.373 23.6107 152.288 23.184C152.202 22.736 152.149 22.2133 152.128 21.616C152.106 21.0187 152.085 20.0373 152.064 18.672L152 14.032L151.04 14.064C150.464 14.1067 149.952 14.192 149.504 14.32C149.397 14.3627 149.226 14.384 148.992 14.384C148.266 14.384 147.744 14.16 147.424 13.712C147.253 13.4347 147.168 13.0613 147.168 12.592C147.168 12.1867 147.232 11.8667 147.36 11.632C147.658 11.0987 148.704 10.6933 150.496 10.416L151.968 10.192L151.84 7.376C151.754 5.37067 151.68 4.00533 151.616 3.28C151.573 2.768 151.552 2.49067 151.552 2.448C151.552 2.14933 151.712 1.84 152.032 1.52ZM165.896 8.88C166.238 8.51733 166.654 8.336 167.144 8.336C168.062 8.336 168.648 8.69867 168.904 9.424C169.032 9.85067 169.096 11.0987 169.096 13.168C169.096 15.2587 169.16 16.624 169.288 17.264C169.608 18.736 170.259 19.472 171.24 19.472C171.432 19.472 171.635 19.44 171.848 19.376C172.147 19.2907 172.531 19.0027 173 18.512C173.491 18.0213 173.843 17.5733 174.056 17.168C174.44 16.3787 174.782 14.8107 175.08 12.464C175.294 10.864 175.624 9.89333 176.072 9.552C176.371 9.31733 176.702 9.2 177.064 9.2C177.47 9.2 177.843 9.34933 178.184 9.648C178.547 9.92533 178.792 10.288 178.92 10.736C179.027 11.2053 179.208 12.88 179.464 15.76C179.742 18.6187 179.88 20.4427 179.88 21.232V21.488C179.795 21.8933 179.592 22.2133 179.272 22.448C178.952 22.6827 178.6 22.8 178.216 22.8C177.854 22.8 177.502 22.6933 177.16 22.48C176.84 22.2667 176.616 21.9573 176.488 21.552C176.318 21.0613 176.222 20.816 176.2 20.816C176.115 20.816 175.752 21.0613 175.112 21.552C173.832 22.576 172.574 23.088 171.336 23.088H171.24C170.216 23.088 169.299 22.8427 168.488 22.352C167.678 21.8613 167.038 21.168 166.568 20.272C166.12 19.376 165.832 18.5653 165.704 17.84C165.576 17.0933 165.502 15.6533 165.48 13.52L165.384 9.456L165.896 8.88ZM183.865 9.68C184.185 9.36 184.58 9.2 185.049 9.2C185.582 9.2 186.009 9.37067 186.329 9.712C186.628 10.0107 186.777 10.2347 186.777 10.384C186.777 10.5333 186.841 10.608 186.969 10.608C187.097 10.608 187.332 10.4907 187.673 10.256C188.505 9.68 189.465 9.392 190.553 9.392C191.385 9.392 192.377 9.57333 193.529 9.936C194.254 10.1493 194.734 10.3307 194.969 10.48C195.204 10.608 195.396 10.7893 195.545 11.024C195.78 11.3867 195.897 11.7173 195.897 12.016C195.897 12.2507 195.812 12.5387 195.641 12.88C195.342 13.456 194.852 13.744 194.169 13.744C193.721 13.744 193.188 13.6373 192.569 13.424C191.908 13.1893 191.31 13.072 190.777 13.072C190.244 13.072 189.828 13.1893 189.529 13.424C189.209 13.68 188.836 14.256 188.409 15.152C188.004 16.0267 187.726 16.8587 187.577 17.648C187.406 18.6293 187.321 19.6853 187.321 20.816C187.321 22.0747 187.193 22.9387 186.937 23.408C186.681 23.856 186.212 24.08 185.529 24.08H185.273C184.782 24.0373 184.409 23.888 184.153 23.632C183.897 23.3547 183.716 22.896 183.609 22.256C183.524 21.8507 183.449 20.4427 183.385 18.032C183.321 15.6 183.289 13.584 183.289 11.984C183.289 11.152 183.3 10.6933 183.321 10.608C183.385 10.3307 183.566 10.0213 183.865 9.68ZM209.464 13.584C209.016 13.4133 208.6 13.328 208.216 13.328C206.872 13.328 205.827 13.9573 205.08 15.216C204.867 15.5787 204.739 15.8987 204.696 16.176C204.654 16.432 204.622 16.9973 204.6 17.872V19.696L205.272 19.856C205.592 19.92 206.019 19.952 206.552 19.952C208.216 19.952 209.304 19.8027 209.816 19.504C210.584 19.056 210.968 18.288 210.968 17.2C210.968 16.7947 210.904 16.3147 210.776 15.76C210.52 14.5653 210.083 13.84 209.464 13.584ZM199.928 3.184C200.27 2.84267 200.696 2.672 201.208 2.672C201.912 2.672 202.424 2.96 202.744 3.536C202.872 3.74933 203.054 5.04 203.288 7.408C203.566 9.84 203.715 11.056 203.736 11.056H203.768C203.918 11.056 204.216 10.928 204.664 10.672C205.902 10.0107 207.128 9.68 208.344 9.68C209.027 9.68 209.699 9.79733 210.36 10.032C211.15 10.288 211.875 10.7467 212.536 11.408C213.091 11.984 213.507 12.6027 213.784 13.264C214.062 13.904 214.286 14.8107 214.456 15.984C214.52 16.3893 214.552 16.7947 214.552 17.2C214.552 19.1627 213.87 20.7627 212.504 22C211.843 22.5973 211.16 22.9813 210.456 23.152C209.752 23.3013 208.494 23.376 206.68 23.376C205.251 23.3547 204.344 23.3227 203.96 23.28C203.576 23.2373 203.15 23.12 202.68 22.928C201.955 22.6293 201.507 22.3413 201.336 22.064C201.038 21.6373 200.792 20.2507 200.6 17.904C200.579 17.5627 200.536 17.008 200.472 16.24C200.323 14.064 200.12 11.8347 199.864 9.552C199.587 6.56533 199.448 4.90133 199.448 4.56C199.448 3.96267 199.608 3.504 199.928 3.184ZM218.553 8.88C218.894 8.51733 219.31 8.336 219.801 8.336C220.718 8.336 221.305 8.69867 221.561 9.424C221.689 9.85067 221.753 11.0987 221.753 13.168C221.753 15.2587 221.817 16.624 221.945 17.264C222.265 18.736 222.915 19.472 223.897 19.472C224.089 19.472 224.291 19.44 224.505 19.376C224.803 19.2907 225.187 19.0027 225.657 18.512C226.147 18.0213 226.499 17.5733 226.713 17.168C227.097 16.3787 227.438 14.8107 227.737 12.464C227.95 10.864 228.281 9.89333 228.729 9.552C229.027 9.31733 229.358 9.2 229.721 9.2C230.126 9.2 230.499 9.34933 230.841 9.648C231.203 9.92533 231.449 10.288 231.577 10.736C231.683 11.2053 231.865 12.88 232.121 15.76C232.398 18.6187 232.537 20.4427 232.537 21.232V21.488C232.451 21.8933 232.249 22.2133 231.929 22.448C231.609 22.6827 231.257 22.8 230.873 22.8C230.51 22.8 230.158 22.6933 229.817 22.48C229.497 22.2667 229.273 21.9573 229.145 21.552C228.974 21.0613 228.878 20.816 228.857 20.816C228.771 20.816 228.409 21.0613 227.769 21.552C226.489 22.576 225.23 23.088 223.993 23.088H223.897C222.873 23.088 221.955 22.8427 221.145 22.352C220.334 21.8613 219.694 21.168 219.225 20.272C218.777 19.376 218.489 18.5653 218.361 17.84C218.233 17.0933 218.158 15.6533 218.137 13.52L218.041 9.456L218.553 8.88ZM237.481 2.864C237.759 2.75733 238.004 2.704 238.217 2.704C238.537 2.704 238.857 2.8 239.177 2.992C239.497 3.20533 239.711 3.44 239.817 3.696C239.945 3.952 240.009 4.44267 240.009 5.168C240.009 6 239.967 7.056 239.881 8.336C239.732 10.96 239.636 14.0533 239.593 17.616C239.593 21.0933 239.519 22.9707 239.369 23.248C239.263 23.4613 239.039 23.6747 238.697 23.888C238.377 24.08 238.1 24.176 237.865 24.176C237.609 24.176 237.321 24.0693 237.001 23.856C236.681 23.6427 236.457 23.408 236.329 23.152C236.073 22.64 235.945 20.9227 235.945 18C235.945 15.056 236.073 11.1733 236.329 6.352C236.393 5.09333 236.5 4.24 236.649 3.792C236.799 3.344 237.076 3.03467 237.481 2.864ZM253.367 13.808C252.983 13.616 252.439 13.52 251.735 13.52C250.967 13.52 250.316 13.6373 249.783 13.872C249.42 14.0213 248.951 14.352 248.375 14.864C247.799 15.3547 247.511 15.6747 247.511 15.824C247.511 15.888 247.841 15.92 248.503 15.92C249.484 15.92 250.657 15.8667 252.023 15.76C253.388 15.6533 254.167 15.536 254.359 15.408C254.423 15.3867 254.455 15.3227 254.455 15.216C254.455 15.024 254.337 14.7787 254.103 14.48C253.868 14.16 253.623 13.936 253.367 13.808ZM249.591 10.096C250.124 9.94667 250.753 9.872 251.479 9.872C252.823 9.872 254.049 10.1387 255.159 10.672C255.991 11.0987 256.684 11.7493 257.239 12.624C257.793 13.4773 258.135 14.4373 258.263 15.504C258.263 15.5467 258.263 15.6107 258.263 15.696C258.284 15.7813 258.295 15.8453 258.295 15.888C258.295 16.4427 258.188 16.9867 257.975 17.52C257.783 18.0533 257.548 18.416 257.271 18.608C256.908 18.864 254.359 19.184 249.623 19.568C248.62 19.6533 248.119 19.7493 248.119 19.856C248.119 19.984 248.343 20.1867 248.791 20.464C249.239 20.7413 249.676 20.9333 250.103 21.04C250.487 21.1253 250.796 21.168 251.031 21.168C251.713 21.168 252.599 20.944 253.687 20.496C254.455 20.176 255.02 20.016 255.383 20.016C255.745 20.016 256.087 20.176 256.407 20.496C256.833 20.9227 257.047 21.328 257.047 21.712C257.047 21.968 256.983 22.2347 256.855 22.512C256.748 22.768 256.599 22.9707 256.407 23.12C256.236 23.2693 255.916 23.4507 255.447 23.664C253.889 24.3467 252.439 24.688 251.095 24.688C250.327 24.688 249.537 24.5707 248.727 24.336C247.639 23.9947 246.647 23.4187 245.751 22.608C244.855 21.776 244.215 20.8587 243.831 19.856C243.596 19.1947 243.479 18.4587 243.479 17.648C243.479 16.4747 243.671 15.4933 244.055 14.704C244.503 13.7227 245.26 12.784 246.327 11.888C247.393 10.992 248.481 10.3947 249.591 10.096ZM262.623 9.072C262.879 8.944 263.146 8.88 263.423 8.88C263.807 8.88 264.17 9.008 264.511 9.264C264.853 9.49867 265.087 9.81867 265.215 10.224L265.407 10.896L266.207 10.416C266.741 10.096 267.477 9.936 268.415 9.936C269.333 9.936 270.09 10.0853 270.687 10.384C271.178 10.6187 271.701 11.0027 272.255 11.536C272.831 12.0693 273.29 12.6027 273.631 13.136C274.783 14.9493 275.413 17.7653 275.519 21.584V22.224C275.519 22.736 275.37 23.152 275.071 23.472C274.709 23.8347 274.282 24.016 273.791 24.016C273.002 24.016 272.479 23.6747 272.223 22.992C272.095 22.6293 271.989 21.9147 271.903 20.848C271.647 17.1147 270.815 14.7787 269.407 13.84C269.109 13.648 268.81 13.552 268.511 13.552C267.957 13.552 267.455 13.8613 267.007 14.48C266.581 15.0773 266.239 15.9307 265.983 17.04C265.877 17.5307 265.749 18.416 265.599 19.696C265.45 20.976 265.375 21.84 265.375 22.288C265.375 22.5013 265.194 22.7893 264.831 23.152C264.469 23.4933 264.053 23.664 263.583 23.664C262.709 23.664 262.133 23.2053 261.855 22.288C261.727 21.84 261.663 19.8987 261.663 16.464C261.663 12.368 261.738 10.1387 261.887 9.776C262.015 9.49867 262.261 9.264 262.623 9.072ZM283.137 9.392C283.478 9.264 284.011 9.2 284.737 9.2C285.121 9.2 285.43 9.21067 285.665 9.232C286.518 9.25333 287.105 9.30667 287.425 9.392C287.745 9.456 288.171 9.616 288.705 9.872C290.219 10.64 290.977 11.568 290.977 12.656C290.977 12.8907 290.902 13.1787 290.753 13.52C290.433 14.1387 289.942 14.448 289.281 14.448C288.683 14.448 288.139 14.1707 287.649 13.616C287.414 13.36 287.201 13.1893 287.009 13.104C286.817 12.9973 286.507 12.912 286.081 12.848C285.654 12.8053 285.366 12.784 285.217 12.784C284.47 12.784 283.926 13.0187 283.585 13.488C282.987 14.3627 282.689 15.312 282.689 16.336C282.689 17.4453 283.03 18.3947 283.713 19.184C284.395 19.952 285.291 20.336 286.401 20.336C286.827 20.336 287.425 20.2293 288.193 20.016C288.961 19.7813 289.473 19.568 289.729 19.376C289.942 19.2053 290.315 19.12 290.849 19.12C291.361 19.12 291.777 19.28 292.097 19.6C292.438 19.92 292.609 20.3253 292.609 20.816C292.609 21.264 292.502 21.6267 292.289 21.904C292.075 22.1813 291.67 22.4693 291.073 22.768C289.537 23.536 288.001 23.92 286.465 23.92C283.926 23.92 281.995 23.0133 280.673 21.2C279.606 19.7493 279.073 18.16 279.073 16.432C279.073 15.3653 279.286 14.2453 279.713 13.072C280.033 12.24 280.502 11.4827 281.121 10.8C281.761 10.1173 282.433 9.648 283.137 9.392ZM306.086 13.808C305.702 13.616 305.158 13.52 304.454 13.52C303.686 13.52 303.035 13.6373 302.502 13.872C302.139 14.0213 301.67 14.352 301.094 14.864C300.518 15.3547 300.23 15.6747 300.23 15.824C300.23 15.888 300.56 15.92 301.222 15.92C302.203 15.92 303.376 15.8667 304.742 15.76C306.107 15.6533 306.886 15.536 307.078 15.408C307.142 15.3867 307.174 15.3227 307.174 15.216C307.174 15.024 307.056 14.7787 306.822 14.48C306.587 14.16 306.342 13.936 306.086 13.808ZM302.31 10.096C302.843 9.94667 303.472 9.872 304.198 9.872C305.542 9.872 306.768 10.1387 307.878 10.672C308.71 11.0987 309.403 11.7493 309.958 12.624C310.512 13.4773 310.854 14.4373 310.982 15.504C310.982 15.5467 310.982 15.6107 310.982 15.696C311.003 15.7813 311.014 15.8453 311.014 15.888C311.014 16.4427 310.907 16.9867 310.694 17.52C310.502 18.0533 310.267 18.416 309.99 18.608C309.627 18.864 307.078 19.184 302.342 19.568C301.339 19.6533 300.838 19.7493 300.838 19.856C300.838 19.984 301.062 20.1867 301.51 20.464C301.958 20.7413 302.395 20.9333 302.822 21.04C303.206 21.1253 303.515 21.168 303.75 21.168C304.432 21.168 305.318 20.944 306.406 20.496C307.174 20.176 307.739 20.016 308.102 20.016C308.464 20.016 308.806 20.176 309.126 20.496C309.552 20.9227 309.766 21.328 309.766 21.712C309.766 21.968 309.702 22.2347 309.574 22.512C309.467 22.768 309.318 22.9707 309.126 23.12C308.955 23.2693 308.635 23.4507 308.166 23.664C306.608 24.3467 305.158 24.688 303.814 24.688C303.046 24.688 302.256 24.5707 301.446 24.336C300.358 23.9947 299.366 23.4187 298.47 22.608C297.574 21.776 296.934 20.8587 296.549 19.856C296.315 19.1947 296.198 18.4587 296.198 17.648C296.198 16.4747 296.39 15.4933 296.774 14.704C297.222 13.7227 297.979 12.784 299.046 11.888C300.112 10.992 301.2 10.3947 302.31 10.096ZM329.219 1.52C329.582 1.15733 330.019 0.975998 330.531 0.975998C330.915 0.975998 331.257 1.09333 331.555 1.328C331.875 1.54133 332.099 1.85067 332.227 2.256C332.291 2.49067 332.398 3.6 332.547 5.584C332.697 7.54667 332.771 8.912 332.771 9.68C332.771 9.872 332.814 9.98933 332.899 10.032C333.006 10.0747 333.251 10.096 333.635 10.096C334.211 10.096 334.542 10.032 334.627 9.904C334.67 9.79733 335.107 9.744 335.939 9.744C337.006 9.744 337.71 9.81867 338.051 9.968C338.371 10.1173 338.617 10.4053 338.787 10.832C338.937 11.1307 339.011 11.376 339.011 11.568C339.011 11.7173 338.979 11.8987 338.915 12.112C338.766 12.6027 338.489 12.9333 338.083 13.104C337.699 13.2533 336.931 13.36 335.779 13.424C334.478 13.488 333.635 13.5733 333.251 13.68L332.739 13.808L332.867 18.32C332.91 20.3253 332.931 21.4027 332.931 21.552C332.931 22.4907 332.857 23.12 332.707 23.44C332.387 24.1227 331.865 24.464 331.139 24.464C330.862 24.464 330.574 24.4 330.275 24.272C330.041 24.1653 329.87 24.0693 329.763 23.984C329.657 23.8773 329.561 23.6107 329.475 23.184C329.39 22.736 329.337 22.2133 329.315 21.616C329.294 21.0187 329.273 20.0373 329.251 18.672L329.187 14.032L328.227 14.064C327.651 14.1067 327.139 14.192 326.691 14.32C326.585 14.3627 326.414 14.384 326.179 14.384C325.454 14.384 324.931 14.16 324.611 13.712C324.441 13.4347 324.355 13.0613 324.355 12.592C324.355 12.1867 324.419 11.8667 324.547 11.632C324.846 11.0987 325.891 10.6933 327.683 10.416L329.155 10.192L329.027 7.376C328.942 5.37067 328.867 4.00533 328.803 3.28C328.761 2.768 328.739 2.49067 328.739 2.448C328.739 2.14933 328.899 1.84 329.219 1.52ZM343.308 1.552C343.67 1.25333 344.044 1.104 344.428 1.104C345.196 1.104 345.761 1.57333 346.124 2.512C346.273 2.93867 346.433 3.96267 346.604 5.584C346.774 7.184 346.913 8.67733 347.02 10.064C347.126 11.4293 347.19 12.112 347.212 12.112C347.254 12.112 347.606 11.8773 348.268 11.408C349.569 10.4907 350.806 10.032 351.98 10.032C353.068 10.032 354.017 10.4373 354.828 11.248C355.66 12.0373 356.31 13.2 356.78 14.736C357.142 15.9307 357.324 17.7867 357.324 20.304C357.324 21.8827 357.228 22.9493 357.036 23.504C356.822 24.08 356.332 24.368 355.564 24.368C355.052 24.368 354.625 24.1973 354.284 23.856L353.804 23.376L353.708 20.144C353.58 15.984 353.004 13.84 351.98 13.712H351.884C351.393 13.712 350.785 13.9893 350.06 14.544C349.334 15.0773 348.812 15.664 348.492 16.304C348.3 16.7307 348.044 17.04 347.724 17.232L347.308 17.52L347.244 21.008C347.201 22.7147 347.158 23.7493 347.116 24.112C347.094 24.4533 346.977 24.7307 346.764 24.944C346.422 25.3067 345.996 25.488 345.484 25.488C344.716 25.488 344.182 25.1467 343.884 24.464C343.734 24.0587 343.628 21.6053 343.564 17.104C343.457 9.57333 343.18 5.06133 342.732 3.568C342.668 3.33333 342.636 3.10933 342.636 2.896C342.636 2.34133 342.86 1.89333 343.308 1.552ZM370.039 13.68C369.932 13.3387 369.836 13.1467 369.751 13.104C369.665 13.04 369.431 13.008 369.047 13.008C367.937 13.0293 366.903 13.552 365.943 14.576C364.983 15.5787 364.503 16.592 364.503 17.616C364.503 18.128 364.641 18.5547 364.919 18.896C365.537 19.5787 366.188 19.92 366.871 19.92C366.913 19.92 366.956 19.92 366.999 19.92C367.041 19.8987 367.084 19.888 367.127 19.888C367.511 19.8027 367.916 19.5467 368.343 19.12C368.791 18.6933 369.132 18.224 369.367 17.712C369.857 16.56 370.103 15.44 370.103 14.352C370.103 14.032 370.081 13.808 370.039 13.68ZM367.062 9.648C367.639 9.456 368.3 9.36 369.047 9.36C370.028 9.36 370.86 9.52 371.543 9.84C371.991 10.0747 372.396 10.4267 372.759 10.896C373.143 11.344 373.377 11.7707 373.463 12.176C373.548 12.5813 373.665 12.9653 373.815 13.328C374.049 13.9467 374.519 16.272 375.222 20.304C375.329 20.944 375.383 21.424 375.383 21.744C375.383 23.024 374.785 23.664 373.591 23.664C373.185 23.664 372.812 23.504 372.471 23.184C372.151 22.864 371.948 22.4693 371.863 22C371.777 21.5733 371.703 21.328 371.639 21.264C371.553 21.2 371.308 21.3707 370.903 21.776C369.687 22.992 368.289 23.6 366.711 23.6C366.433 23.6 366.145 23.568 365.847 23.504C364.673 23.248 363.575 22.608 362.551 21.584C361.399 20.432 360.823 19.1413 360.823 17.712C360.823 16.5813 361.175 15.3547 361.879 14.032C362.412 13.0293 363.137 12.1333 364.055 11.344C364.993 10.5547 365.996 9.98933 367.062 9.648ZM383.844 1.52C384.207 1.15733 384.644 0.975998 385.156 0.975998C385.54 0.975998 385.882 1.09333 386.18 1.328C386.5 1.54133 386.724 1.85067 386.852 2.256C386.916 2.49067 387.023 3.6 387.172 5.584C387.322 7.54667 387.396 8.912 387.396 9.68C387.396 9.872 387.439 9.98933 387.524 10.032C387.631 10.0747 387.876 10.096 388.26 10.096C388.836 10.096 389.167 10.032 389.252 9.904C389.295 9.79733 389.732 9.744 390.564 9.744C391.631 9.744 392.335 9.81867 392.676 9.968C392.996 10.1173 393.242 10.4053 393.412 10.832C393.562 11.1307 393.636 11.376 393.636 11.568C393.636 11.7173 393.604 11.8987 393.54 12.112C393.391 12.6027 393.114 12.9333 392.708 13.104C392.324 13.2533 391.556 13.36 390.404 13.424C389.103 13.488 388.26 13.5733 387.876 13.68L387.364 13.808L387.492 18.32C387.535 20.3253 387.556 21.4027 387.556 21.552C387.556 22.4907 387.482 23.12 387.332 23.44C387.012 24.1227 386.49 24.464 385.764 24.464C385.487 24.464 385.199 24.4 384.9 24.272C384.666 24.1653 384.495 24.0693 384.388 23.984C384.282 23.8773 384.186 23.6107 384.1 23.184C384.015 22.736 383.962 22.2133 383.94 21.616C383.919 21.0187 383.898 20.0373 383.876 18.672L383.812 14.032L382.852 14.064C382.276 14.1067 381.764 14.192 381.316 14.32C381.21 14.3627 381.039 14.384 380.804 14.384C380.079 14.384 379.556 14.16 379.236 13.712C379.066 13.4347 378.98 13.0613 378.98 12.592C378.98 12.1867 379.044 11.8667 379.172 11.632C379.471 11.0987 380.516 10.6933 382.308 10.416L383.78 10.192L383.652 7.376C383.567 5.37067 383.492 4.00533 383.428 3.28C383.386 2.768 383.364 2.49067 383.364 2.448C383.364 2.14933 383.524 1.84 383.844 1.52ZM421.386 0.431999C421.77 0.389332 422.058 0.367998 422.25 0.367998C423.786 0.367998 424.938 0.751998 425.706 1.52C426.175 2.01067 426.41 2.53333 426.41 3.088C426.41 3.55733 426.239 3.96267 425.898 4.304C425.578 4.624 425.172 4.784 424.682 4.784C424.234 4.784 423.796 4.63467 423.37 4.336C422.986 4.05866 422.634 3.92 422.314 3.92C421.802 3.92 421.322 4.28267 420.874 5.008C420.426 5.73333 420.148 6.58667 420.042 7.568C419.999 7.90933 419.978 8.112 419.978 8.176C419.978 8.45333 420.116 8.63467 420.394 8.72C420.671 8.784 421.322 8.82667 422.346 8.848C422.516 8.848 422.655 8.848 422.762 8.848C423.743 8.89067 424.33 8.93333 424.522 8.976C424.735 9.01867 424.948 9.15733 425.162 9.392C425.439 9.69067 425.578 10.0747 425.578 10.544C425.578 11.0347 425.428 11.44 425.13 11.76L424.682 12.304H419.626L419.53 12.752C419.508 12.816 419.498 13.168 419.498 13.808C419.498 16.752 419.583 19.3653 419.754 21.648C419.754 21.7333 419.754 21.8507 419.754 22C419.775 22.1493 419.786 22.256 419.786 22.32C419.786 22.8747 419.711 23.28 419.562 23.536C419.412 23.792 419.146 24.016 418.762 24.208C418.506 24.336 418.228 24.4 417.93 24.4C417.332 24.4 416.874 24.176 416.554 23.728C416.383 23.472 416.223 22.5333 416.074 20.912C415.946 19.2693 415.882 17.6587 415.882 16.08C415.882 15.3547 415.892 14.832 415.914 14.512L416.01 12.272L413.93 12.368C412.948 12.4107 412.436 12.432 412.394 12.432C411.988 12.432 411.647 12.3253 411.37 12.112C410.964 11.7493 410.762 11.2693 410.762 10.672C410.762 10.416 410.804 10.192 410.89 10C411.039 9.616 411.348 9.33867 411.818 9.168C412.287 8.99733 413.066 8.88 414.154 8.816C415.498 8.73067 416.18 8.66667 416.202 8.624C416.244 8.58133 416.362 7.97333 416.554 6.8C416.895 4.60267 417.663 2.928 418.858 1.776C419.306 1.328 419.679 1.01867 419.978 0.848C420.298 0.677333 420.767 0.538666 421.386 0.431999ZM438.745 11.6C438.169 11.4933 437.689 11.44 437.305 11.44C436.43 11.44 435.694 11.6213 435.097 11.984C434.798 12.176 434.446 12.8267 434.041 13.936C433.657 15.024 433.465 15.8987 433.465 16.56C433.465 17.6267 433.806 18.4907 434.489 19.152C435.193 19.792 436.11 20.1227 437.241 20.144C438.158 20.144 439.011 19.888 439.801 19.376C440.611 18.864 441.198 18.192 441.561 17.36C441.795 16.8267 441.913 16.2187 441.913 15.536C441.913 14.704 441.753 13.9787 441.433 13.36C441.198 12.8693 440.878 12.496 440.473 12.24C440.067 11.984 439.491 11.7707 438.745 11.6ZM435.129 8.176C435.875 7.984 436.611 7.888 437.337 7.888C438.702 7.888 440.163 8.22933 441.721 8.912C442.83 9.40267 443.705 10.2667 444.345 11.504C445.006 12.7413 445.347 14.2027 445.369 15.888V16.08C445.369 18.6187 444.238 20.6773 441.977 22.256C440.569 23.2587 439.001 23.76 437.273 23.76C435.843 23.76 434.521 23.408 433.305 22.704C432.089 21.9787 431.171 20.9653 430.553 19.664C430.339 19.216 430.201 18.832 430.137 18.512C430.094 18.192 430.073 17.52 430.073 16.496C430.094 14.9813 430.254 13.7867 430.553 12.912C431.257 10.9707 432.089 9.65867 433.049 8.976C433.433 8.69867 434.126 8.432 435.129 8.176ZM450.325 2.864C450.602 2.75733 450.848 2.704 451.061 2.704C451.381 2.704 451.701 2.8 452.021 2.992C452.341 3.20533 452.554 3.44 452.661 3.696C452.789 3.952 452.853 4.44267 452.853 5.168C452.853 6 452.81 7.056 452.725 8.336C452.576 10.96 452.48 14.0533 452.437 17.616C452.437 21.0933 452.362 22.9707 452.213 23.248C452.106 23.4613 451.882 23.6747 451.541 23.888C451.221 24.08 450.944 24.176 450.709 24.176C450.453 24.176 450.165 24.0693 449.845 23.856C449.525 23.6427 449.301 23.408 449.173 23.152C448.917 22.64 448.789 20.9227 448.789 18C448.789 15.056 448.917 11.1733 449.173 6.352C449.237 5.09333 449.344 4.24 449.493 3.792C449.642 3.344 449.92 3.03467 450.325 2.864ZM456.867 1.424C457.208 1.08267 457.613 0.911999 458.083 0.911999C458.531 0.911999 458.925 1.08267 459.266 1.424C459.608 1.76533 459.821 2.32 459.907 3.088C459.928 3.30133 459.939 4.58133 459.939 6.928C459.939 17.8933 459.864 23.6 459.715 24.048C459.629 24.304 459.437 24.5067 459.139 24.656C458.84 24.8053 458.509 24.88 458.147 24.88C457.72 24.88 457.379 24.7947 457.123 24.624C456.739 24.368 456.493 23.9947 456.387 23.504C456.301 22.992 456.259 21.6267 456.259 19.408C456.259 16.8267 456.269 14.5333 456.291 12.528L456.387 1.904L456.867 1.424ZM472.057 11.6C471.481 11.4933 471.001 11.44 470.617 11.44C469.742 11.44 469.006 11.6213 468.409 11.984C468.11 12.176 467.758 12.8267 467.353 13.936C466.969 15.024 466.777 15.8987 466.777 16.56C466.777 17.6267 467.118 18.4907 467.801 19.152C468.505 19.792 469.422 20.1227 470.553 20.144C471.47 20.144 472.324 19.888 473.113 19.376C473.924 18.864 474.51 18.192 474.873 17.36C475.108 16.8267 475.225 16.2187 475.225 15.536C475.225 14.704 475.065 13.9787 474.745 13.36C474.51 12.8693 474.19 12.496 473.785 12.24C473.38 11.984 472.804 11.7707 472.057 11.6ZM468.441 8.176C469.188 7.984 469.924 7.888 470.649 7.888C472.014 7.888 473.476 8.22933 475.033 8.912C476.142 9.40267 477.017 10.2667 477.657 11.504C478.318 12.7413 478.66 14.2027 478.681 15.888V16.08C478.681 18.6187 477.55 20.6773 475.289 22.256C473.881 23.2587 472.313 23.76 470.585 23.76C469.156 23.76 467.833 23.408 466.617 22.704C465.401 21.9787 464.484 20.9653 463.865 19.664C463.652 19.216 463.513 18.832 463.449 18.512C463.406 18.192 463.385 17.52 463.385 16.496C463.406 14.9813 463.566 13.7867 463.865 12.912C464.569 10.9707 465.401 9.65867 466.361 8.976C466.745 8.69867 467.438 8.432 468.441 8.176ZM483.254 8.08C483.638 7.90933 483.883 7.824 483.99 7.824C484.075 7.824 484.32 7.90933 484.726 8.08C485.11 8.22933 485.408 8.54933 485.622 9.04C485.856 9.53067 486.166 10.5227 486.55 12.016C487.595 16.1333 488.235 18.3093 488.47 18.544H488.502C488.587 18.544 488.907 17.9147 489.462 16.656C490.016 15.376 490.656 14.064 491.382 12.72C492.128 11.3547 492.758 10.5973 493.27 10.448C493.483 10.384 493.718 10.352 493.974 10.352C494.784 10.352 495.382 10.576 495.766 11.024C496.022 11.3227 496.416 12.1547 496.95 13.52C498.166 16.5493 498.838 18.064 498.966 18.064H498.998C499.062 18.0213 499.446 16.976 500.15 14.928C500.854 12.7947 501.334 11.4507 501.59 10.896C501.867 10.3413 502.208 9.97867 502.614 9.808C502.891 9.68 503.179 9.616 503.478 9.616C503.584 9.616 503.659 9.62667 503.702 9.648C504.043 9.73333 504.363 9.94667 504.662 10.288C504.982 10.6293 505.142 10.9493 505.142 11.248C505.142 11.5893 504.651 13.104 503.67 15.792C502.71 18.48 501.995 20.3147 501.526 21.296C501.035 22.32 500.63 22.992 500.31 23.312C499.99 23.6107 499.563 23.76 499.03 23.76C498.262 23.76 497.707 23.5573 497.366 23.152C497.046 22.7253 496.448 21.4987 495.574 19.472C494.528 17.104 493.952 15.92 493.846 15.92C493.739 15.92 493.259 16.88 492.406 18.8C491.382 21.1253 490.656 22.576 490.23 23.152C489.803 23.7067 489.206 23.984 488.438 23.984H488.278C487.552 23.9627 487.083 23.8453 486.87 23.632C486.059 22.9493 484.832 19.5467 483.19 13.424C482.571 11.12 482.262 9.78667 482.262 9.424C482.262 9.232 482.304 9.05067 482.39 8.88C482.582 8.47467 482.87 8.208 483.254 8.08ZM518.554 13.808C518.17 13.616 517.626 13.52 516.922 13.52C516.154 13.52 515.504 13.6373 514.97 13.872C514.608 14.0213 514.138 14.352 513.562 14.864C512.986 15.3547 512.698 15.6747 512.698 15.824C512.698 15.888 513.029 15.92 513.69 15.92C514.672 15.92 515.845 15.8667 517.21 15.76C518.576 15.6533 519.354 15.536 519.546 15.408C519.61 15.3867 519.642 15.3227 519.642 15.216C519.642 15.024 519.525 14.7787 519.29 14.48C519.056 14.16 518.81 13.936 518.554 13.808ZM514.778 10.096C515.312 9.94667 515.941 9.872 516.666 9.872C518.01 9.872 519.237 10.1387 520.346 10.672C521.178 11.0987 521.872 11.7493 522.426 12.624C522.981 13.4773 523.322 14.4373 523.45 15.504C523.45 15.5467 523.45 15.6107 523.45 15.696C523.472 15.7813 523.482 15.8453 523.482 15.888C523.482 16.4427 523.376 16.9867 523.162 17.52C522.97 18.0533 522.736 18.416 522.458 18.608C522.096 18.864 519.546 19.184 514.81 19.568C513.808 19.6533 513.306 19.7493 513.306 19.856C513.306 19.984 513.53 20.1867 513.978 20.464C514.426 20.7413 514.864 20.9333 515.29 21.04C515.674 21.1253 515.984 21.168 516.218 21.168C516.901 21.168 517.786 20.944 518.874 20.496C519.642 20.176 520.208 20.016 520.57 20.016C520.933 20.016 521.274 20.176 521.594 20.496C522.021 20.9227 522.234 21.328 522.234 21.712C522.234 21.968 522.17 22.2347 522.042 22.512C521.936 22.768 521.786 22.9707 521.594 23.12C521.424 23.2693 521.104 23.4507 520.634 23.664C519.077 24.3467 517.626 24.688 516.282 24.688C515.514 24.688 514.725 24.5707 513.914 24.336C512.826 23.9947 511.834 23.4187 510.938 22.608C510.042 21.776 509.402 20.8587 509.018 19.856C508.784 19.1947 508.666 18.4587 508.666 17.648C508.666 16.4747 508.858 15.4933 509.242 14.704C509.69 13.7227 510.448 12.784 511.514 11.888C512.581 10.992 513.669 10.3947 514.778 10.096ZM535.203 13.616C534.349 13.2107 533.752 13.008 533.411 13.008C533.005 13.008 532.493 13.2853 531.875 13.84C531.043 14.608 530.627 15.5573 530.627 16.688C530.627 17.6053 530.925 18.2987 531.523 18.768C531.8 18.9813 532.088 19.088 532.387 19.088C532.749 19.088 533.208 18.9387 533.763 18.64C535.555 17.7013 536.451 16.4853 536.451 14.992V14.192L535.203 13.616ZM536.835 2.256C537.197 1.95733 537.624 1.808 538.115 1.808C538.435 1.808 538.701 1.872 538.915 2C539.171 2.14933 539.384 2.39467 539.555 2.736C539.683 2.992 539.768 3.70667 539.811 4.88C539.875 6.05333 539.917 8.74133 539.939 12.944L540.003 22.576L539.459 23.12C539.096 23.4827 538.68 23.664 538.211 23.664C537.763 23.664 537.357 23.504 536.995 23.184C536.632 22.864 536.451 22.5013 536.451 22.096C536.451 21.7547 536.429 21.5627 536.387 21.52H536.355C536.205 21.52 535.853 21.6587 535.299 21.936C534.253 22.4267 533.272 22.672 532.355 22.672C530.925 22.672 529.677 22.096 528.611 20.944C527.523 19.7493 526.979 18.3413 526.979 16.72C526.979 14.5867 527.811 12.752 529.475 11.216C530.733 10.064 532.099 9.488 533.571 9.488C534.211 9.488 534.797 9.57333 535.331 9.744C535.907 9.936 536.216 10.032 536.259 10.032C536.28 10.032 536.291 8.816 536.291 6.384V2.736L536.835 2.256ZM554.207 8.112C554.549 7.74933 554.986 7.568 555.519 7.568C555.882 7.568 556.202 7.664 556.479 7.856C556.714 8.02667 556.917 8.304 557.087 8.688C557.279 9.072 557.375 9.424 557.375 9.744C557.375 10.0853 557.461 10.256 557.631 10.256C557.823 10.256 558.133 10.1173 558.559 9.84C558.986 9.584 559.551 9.34933 560.255 9.136C560.959 8.92267 561.525 8.816 561.951 8.816C562.378 8.816 562.901 8.95467 563.519 9.232C564.159 9.50933 564.661 9.81867 565.023 10.16C565.791 10.9067 566.335 11.952 566.655 13.296C566.997 14.64 567.167 16.5067 567.167 18.896C567.167 20.5813 567.114 21.6907 567.007 22.224C566.901 22.736 566.655 23.0987 566.271 23.312C566.015 23.44 565.706 23.504 565.343 23.504C564.959 23.504 564.639 23.44 564.383 23.312C564.021 23.12 563.786 22.768 563.679 22.256C563.594 21.7227 563.53 20.4427 563.487 18.416C563.445 16.3893 563.359 15.056 563.231 14.416C563.103 13.7547 562.837 13.2213 562.431 12.816C562.218 12.6027 561.951 12.496 561.631 12.496C561.098 12.496 560.522 12.7627 559.903 13.296C559.306 13.808 558.815 14.4693 558.431 15.28C558.239 15.6853 558.122 16.0693 558.079 16.432C558.037 16.7947 557.994 17.6267 557.951 18.928C557.909 20.72 557.823 21.7867 557.695 22.128C557.397 22.9173 556.821 23.312 555.967 23.312C555.263 23.312 554.73 23.0027 554.367 22.384C554.261 22.1493 554.154 20.1547 554.047 16.4C553.919 12.368 553.834 10.1387 553.791 9.712C553.749 9.28533 553.727 9.05067 553.727 9.008C553.727 8.73067 553.887 8.432 554.207 8.112ZM579.338 11.6C578.762 11.4933 578.282 11.44 577.898 11.44C577.024 11.44 576.288 11.6213 575.69 11.984C575.392 12.176 575.04 12.8267 574.634 13.936C574.25 15.024 574.058 15.8987 574.058 16.56C574.058 17.6267 574.4 18.4907 575.082 19.152C575.786 19.792 576.704 20.1227 577.834 20.144C578.752 20.144 579.605 19.888 580.394 19.376C581.205 18.864 581.792 18.192 582.154 17.36C582.389 16.8267 582.506 16.2187 582.506 15.536C582.506 14.704 582.346 13.9787 582.026 13.36C581.792 12.8693 581.472 12.496 581.066 12.24C580.661 11.984 580.085 11.7707 579.338 11.6ZM575.722 8.176C576.469 7.984 577.205 7.888 577.93 7.888C579.296 7.888 580.757 8.22933 582.314 8.912C583.424 9.40267 584.298 10.2667 584.938 11.504C585.6 12.7413 585.941 14.2027 585.962 15.888V16.08C585.962 18.6187 584.832 20.6773 582.57 22.256C581.162 23.2587 579.594 23.76 577.866 23.76C576.437 23.76 575.114 23.408 573.898 22.704C572.682 21.9787 571.765 20.9653 571.146 19.664C570.933 19.216 570.794 18.832 570.73 18.512C570.688 18.192 570.666 17.52 570.666 16.496C570.688 14.9813 570.848 13.7867 571.146 12.912C571.85 10.9707 572.682 9.65867 573.642 8.976C574.026 8.69867 574.72 8.432 575.722 8.176ZM594.407 1.52C594.769 1.15733 595.207 0.975998 595.719 0.975998C596.103 0.975998 596.444 1.09333 596.743 1.328C597.063 1.54133 597.287 1.85067 597.415 2.256C597.479 2.49067 597.585 3.6 597.735 5.584C597.884 7.54667 597.959 8.912 597.959 9.68C597.959 9.872 598.001 9.98933 598.087 10.032C598.193 10.0747 598.439 10.096 598.823 10.096C599.399 10.096 599.729 10.032 599.815 9.904C599.857 9.79733 600.295 9.744 601.127 9.744C602.193 9.744 602.897 9.81867 603.239 9.968C603.559 10.1173 603.804 10.4053 603.975 10.832C604.124 11.1307 604.199 11.376 604.199 11.568C604.199 11.7173 604.167 11.8987 604.103 12.112C603.953 12.6027 603.676 12.9333 603.271 13.104C602.887 13.2533 602.119 13.36 600.967 13.424C599.665 13.488 598.823 13.5733 598.439 13.68L597.927 13.808L598.055 18.32C598.097 20.3253 598.119 21.4027 598.119 21.552C598.119 22.4907 598.044 23.12 597.895 23.44C597.575 24.1227 597.052 24.464 596.327 24.464C596.049 24.464 595.761 24.4 595.463 24.272C595.228 24.1653 595.057 24.0693 594.951 23.984C594.844 23.8773 594.748 23.6107 594.663 23.184C594.577 22.736 594.524 22.2133 594.503 21.616C594.481 21.0187 594.46 20.0373 594.439 18.672L594.375 14.032L593.415 14.064C592.839 14.1067 592.327 14.192 591.879 14.32C591.772 14.3627 591.601 14.384 591.367 14.384C590.641 14.384 590.119 14.16 589.799 13.712C589.628 13.4347 589.543 13.0613 589.543 12.592C589.543 12.1867 589.607 11.8667 589.735 11.632C590.033 11.0987 591.079 10.6933 592.871 10.416L594.343 10.192L594.215 7.376C594.129 5.37067 594.055 4.00533 593.991 3.28C593.948 2.768 593.927 2.49067 593.927 2.448C593.927 2.14933 594.087 1.84 594.407 1.52ZM622.501 1.52C622.863 1.15733 623.301 0.975998 623.812 0.975998C624.197 0.975998 624.538 1.09333 624.837 1.328C625.157 1.54133 625.381 1.85067 625.509 2.256C625.573 2.49067 625.679 3.6 625.829 5.584C625.978 7.54667 626.053 8.912 626.053 9.68C626.053 9.872 626.095 9.98933 626.181 10.032C626.287 10.0747 626.533 10.096 626.917 10.096C627.493 10.096 627.823 10.032 627.909 9.904C627.951 9.79733 628.389 9.744 629.221 9.744C630.287 9.744 630.991 9.81867 631.333 9.968C631.653 10.1173 631.898 10.4053 632.069 10.832C632.218 11.1307 632.293 11.376 632.293 11.568C632.293 11.7173 632.261 11.8987 632.197 12.112C632.047 12.6027 631.77 12.9333 631.365 13.104C630.981 13.2533 630.213 13.36 629.061 13.424C627.759 13.488 626.917 13.5733 626.533 13.68L626.021 13.808L626.149 18.32C626.191 20.3253 626.213 21.4027 626.213 21.552C626.213 22.4907 626.138 23.12 625.989 23.44C625.669 24.1227 625.146 24.464 624.421 24.464C624.143 24.464 623.855 24.4 623.557 24.272C623.322 24.1653 623.151 24.0693 623.045 23.984C622.938 23.8773 622.842 23.6107 622.757 23.184C622.671 22.736 622.618 22.2133 622.597 21.616C622.575 21.0187 622.554 20.0373 622.533 18.672L622.469 14.032L621.509 14.064C620.933 14.1067 620.421 14.192 619.973 14.32C619.866 14.3627 619.695 14.384 619.461 14.384C618.735 14.384 618.213 14.16 617.893 13.712C617.722 13.4347 617.637 13.0613 617.637 12.592C617.637 12.1867 617.701 11.8667 617.829 11.632C618.127 11.0987 619.173 10.6933 620.965 10.416L622.437 10.192L622.309 7.376C622.223 5.37067 622.149 4.00533 622.085 3.28C622.042 2.768 622.021 2.49067 622.021 2.448C622.021 2.14933 622.181 1.84 622.501 1.52ZM644.557 11.6C643.981 11.4933 643.501 11.44 643.117 11.44C642.242 11.44 641.506 11.6213 640.909 11.984C640.61 12.176 640.258 12.8267 639.853 13.936C639.469 15.024 639.277 15.8987 639.277 16.56C639.277 17.6267 639.618 18.4907 640.301 19.152C641.005 19.792 641.922 20.1227 643.053 20.144C643.97 20.144 644.824 19.888 645.613 19.376C646.424 18.864 647.01 18.192 647.373 17.36C647.608 16.8267 647.725 16.2187 647.725 15.536C647.725 14.704 647.565 13.9787 647.245 13.36C647.01 12.8693 646.69 12.496 646.285 12.24C645.88 11.984 645.304 11.7707 644.557 11.6ZM640.941 8.176C641.688 7.984 642.424 7.888 643.149 7.888C644.514 7.888 645.976 8.22933 647.533 8.912C648.642 9.40267 649.517 10.2667 650.157 11.504C650.818 12.7413 651.16 14.2027 651.181 15.888V16.08C651.181 18.6187 650.05 20.6773 647.789 22.256C646.381 23.2587 644.813 23.76 643.085 23.76C641.656 23.76 640.333 23.408 639.117 22.704C637.901 21.9787 636.984 20.9653 636.365 19.664C636.152 19.216 636.013 18.832 635.949 18.512C635.906 18.192 635.885 17.52 635.885 16.496C635.906 14.9813 636.066 13.7867 636.365 12.912C637.069 10.9707 637.901 9.65867 638.861 8.976C639.245 8.69867 639.938 8.432 640.941 8.176ZM663.626 12.816C663.22 12.7093 662.559 12.6133 661.642 12.528C661.044 12.4853 660.724 12.464 660.682 12.464C660.383 12.464 660.084 12.624 659.786 12.944C658.932 13.8187 658.474 15.0027 658.41 16.496C658.41 16.5813 658.399 16.6987 658.378 16.848C658.378 16.976 658.378 17.072 658.378 17.136C658.378 17.6267 658.506 18.0853 658.762 18.512C659.444 19.728 660.65 20.336 662.378 20.336C663.103 20.3147 663.839 20.0693 664.586 19.6C665.354 19.1093 665.908 18.5227 666.25 17.84C666.442 17.4347 666.538 16.9973 666.538 16.528C666.538 15.7387 666.26 14.992 665.706 14.288C665.172 13.5627 664.479 13.072 663.626 12.816ZM658.762 9.232C659.252 8.95467 659.743 8.816 660.234 8.816C660.34 8.816 660.735 8.83733 661.418 8.88C663.444 8.98667 665.076 9.41333 666.314 10.16C667.551 10.9067 668.543 12.0587 669.29 13.616C669.866 14.8107 670.154 15.952 670.154 17.04C670.154 17.3813 670.122 17.68 670.058 17.936C669.716 19.2587 668.97 20.464 667.818 21.552C666.666 22.64 665.396 23.3653 664.01 23.728C663.284 23.8987 662.708 23.984 662.282 23.984C661.855 23.984 661.279 23.8987 660.554 23.728C658.356 23.152 656.778 22.1067 655.818 20.592C655.071 19.4187 654.698 18.1813 654.698 16.88C654.698 15.5787 655.05 14.192 655.754 12.72C656.564 10.992 657.567 9.82933 658.762 9.232ZM687.679 1.424C688.02 1.08267 688.426 0.911999 688.895 0.911999C689.343 0.911999 689.738 1.08267 690.079 1.424C690.42 1.76533 690.634 2.32 690.719 3.088C690.74 3.30133 690.751 4.58133 690.751 6.928C690.751 17.8933 690.676 23.6 690.527 24.048C690.442 24.304 690.25 24.5067 689.951 24.656C689.652 24.8053 689.322 24.88 688.959 24.88C688.532 24.88 688.191 24.7947 687.935 24.624C687.551 24.368 687.306 23.9947 687.199 23.504C687.114 22.992 687.071 21.6267 687.071 19.408C687.071 16.8267 687.082 14.5333 687.103 12.528L687.199 1.904L687.679 1.424ZM702.87 11.6C702.294 11.4933 701.814 11.44 701.43 11.44C700.555 11.44 699.819 11.6213 699.222 11.984C698.923 12.176 698.571 12.8267 698.166 13.936C697.782 15.024 697.59 15.8987 697.59 16.56C697.59 17.6267 697.931 18.4907 698.614 19.152C699.318 19.792 700.235 20.1227 701.366 20.144C702.283 20.144 703.136 19.888 703.926 19.376C704.736 18.864 705.323 18.192 705.686 17.36C705.92 16.8267 706.038 16.2187 706.038 15.536C706.038 14.704 705.878 13.9787 705.558 13.36C705.323 12.8693 705.003 12.496 704.598 12.24C704.192 11.984 703.616 11.7707 702.87 11.6ZM699.254 8.176C700 7.984 700.736 7.888 701.462 7.888C702.827 7.888 704.288 8.22933 705.846 8.912C706.955 9.40267 707.83 10.2667 708.47 11.504C709.131 12.7413 709.472 14.2027 709.494 15.888V16.08C709.494 18.6187 708.363 20.6773 706.102 22.256C704.694 23.2587 703.126 23.76 701.398 23.76C699.968 23.76 698.646 23.408 697.43 22.704C696.214 21.9787 695.296 20.9653 694.678 19.664C694.464 19.216 694.326 18.832 694.262 18.512C694.219 18.192 694.198 17.52 694.198 16.496C694.219 14.9813 694.379 13.7867 694.678 12.912C695.382 10.9707 696.214 9.65867 697.174 8.976C697.558 8.69867 698.251 8.432 699.254 8.176ZM713.426 8.112C713.767 7.74933 714.205 7.568 714.738 7.568C715.101 7.568 715.421 7.664 715.698 7.856C715.933 8.02667 716.135 8.304 716.306 8.688C716.498 9.072 716.594 9.424 716.594 9.744C716.594 10.0853 716.679 10.256 716.85 10.256C717.042 10.256 717.351 10.1173 717.778 9.84C718.205 9.584 718.77 9.34933 719.474 9.136C720.178 8.92267 720.743 8.816 721.17 8.816C721.597 8.816 722.119 8.95467 722.738 9.232C723.378 9.50933 723.879 9.81867 724.242 10.16C725.01 10.9067 725.554 11.952 725.874 13.296C726.215 14.64 726.386 16.5067 726.386 18.896C726.386 20.5813 726.333 21.6907 726.226 22.224C726.119 22.736 725.874 23.0987 725.49 23.312C725.234 23.44 724.925 23.504 724.562 23.504C724.178 23.504 723.858 23.44 723.602 23.312C723.239 23.12 723.005 22.768 722.898 22.256C722.813 21.7227 722.749 20.4427 722.706 18.416C722.663 16.3893 722.578 15.056 722.45 14.416C722.322 13.7547 722.055 13.2213 721.65 12.816C721.437 12.6027 721.17 12.496 720.85 12.496C720.317 12.496 719.741 12.7627 719.122 13.296C718.525 13.808 718.034 14.4693 717.65 15.28C717.458 15.6853 717.341 16.0693 717.298 16.432C717.255 16.7947 717.213 17.6267 717.17 18.928C717.127 20.72 717.042 21.7867 716.914 22.128C716.615 22.9173 716.039 23.312 715.186 23.312C714.482 23.312 713.949 23.0027 713.586 22.384C713.479 22.1493 713.373 20.1547 713.266 16.4C713.138 12.368 713.053 10.1387 713.01 9.712C712.967 9.28533 712.946 9.05067 712.946 9.008C712.946 8.73067 713.106 8.432 713.426 8.112ZM739.389 12.08C739.09 11.8667 738.834 11.7387 738.621 11.696C738.408 11.632 738.002 11.6 737.405 11.6C735.826 11.6427 734.77 12.048 734.237 12.816C734.024 13.1147 733.832 13.584 733.661 14.224C733.49 14.8427 733.405 15.3653 733.405 15.792C733.405 15.8347 733.405 15.8987 733.405 15.984C733.426 16.048 733.437 16.0907 733.437 16.112C733.565 16.752 733.917 17.3173 734.493 17.808C735.09 18.2987 735.784 18.5973 736.573 18.704C736.68 18.7253 736.84 18.736 737.053 18.736C737.864 18.736 738.664 18.3093 739.453 17.456C740.242 16.6027 740.637 15.7067 740.637 14.768C740.637 14.4693 740.626 14.2453 740.605 14.096C740.541 13.5413 740.445 13.1573 740.317 12.944C740.189 12.7307 739.88 12.4427 739.389 12.08ZM735.357 8.144C735.826 8.03733 736.509 7.984 737.405 7.984H737.917C738.706 8.00533 739.229 8.05867 739.485 8.144C739.762 8.208 740.2 8.41067 740.797 8.752C741.586 9.24267 742.237 9.60533 742.749 9.84C743.24 10.0747 743.56 10.32 743.709 10.576C743.922 10.896 744.136 12.3893 744.349 15.056C744.584 17.7013 744.701 20.0373 744.701 22.064C744.701 23.728 744.52 25.1147 744.157 26.224C743.816 27.3547 743.24 28.3787 742.429 29.296C741.085 30.832 739.41 31.6 737.405 31.6C736.146 31.6 734.685 31.312 733.021 30.736C732.296 30.5013 731.816 30.2987 731.581 30.128C731.346 29.9573 731.144 29.6907 730.973 29.328C730.888 29.136 730.845 28.912 730.845 28.656C730.845 28.1653 731.016 27.7493 731.357 27.408C731.613 27.1093 731.986 26.96 732.477 26.96C732.925 26.96 733.576 27.1093 734.429 27.408C735.197 27.6853 736.008 27.8667 736.861 27.952C736.925 27.952 737 27.952 737.085 27.952C737.192 27.9733 737.266 27.984 737.309 27.984C738.504 27.984 739.442 27.4507 740.125 26.384C740.488 25.872 740.733 25.392 740.861 24.944C741.01 24.4747 741.117 23.8027 741.181 22.928C741.224 22.3307 741.245 21.968 741.245 21.84C741.245 21.4347 741.149 21.232 740.957 21.232C740.786 21.232 740.488 21.3493 740.061 21.584C739.08 22.0747 738.066 22.32 737.021 22.32C735.229 22.32 733.618 21.7227 732.189 20.528C730.76 19.3333 730.002 17.8613 729.917 16.112C729.917 16.048 729.906 15.952 729.885 15.824C729.885 15.696 729.885 15.6 729.885 15.536C729.885 13.68 730.365 12.1013 731.325 10.8C732.306 9.47733 733.65 8.592 735.357 8.144ZM771.895 13.232C771.277 12.6133 770.317 12.304 769.015 12.304C768.375 12.304 767.81 12.4107 767.319 12.624C766.85 12.8373 766.338 13.2533 765.783 13.872C765.229 14.4907 764.866 15.056 764.695 15.568C764.503 16.1227 764.407 16.6453 764.407 17.136C764.407 18.2667 764.855 19.0667 765.751 19.536C766.285 19.8133 766.978 19.952 767.831 19.952C768.407 19.952 768.845 19.8773 769.143 19.728C770.871 18.8533 771.927 17.2853 772.311 15.024L772.503 13.808L771.895 13.232ZM767.031 8.88C767.543 8.73067 768.141 8.656 768.823 8.656C769.975 8.656 771.106 8.85867 772.215 9.264C773.325 9.66933 774.093 10.1813 774.519 10.8C774.818 11.2267 775.202 11.6747 775.671 12.144C776.183 12.6773 776.653 13.5947 777.079 14.896C777.485 16.1333 777.858 17.5093 778.199 19.024C778.562 20.5387 778.743 21.5627 778.743 22.096C778.743 22.6293 778.583 23.0453 778.263 23.344C777.858 23.728 777.474 23.92 777.111 23.92C776.962 23.92 776.77 23.888 776.535 23.824C776.13 23.6747 775.81 23.4187 775.575 23.056C775.362 22.6933 775.17 22.1067 774.999 21.296C774.786 20.336 774.669 19.856 774.647 19.856C774.562 19.856 774.114 20.2613 773.303 21.072C771.703 22.6293 770.039 23.472 768.311 23.6H767.863C766.818 23.6 765.794 23.4187 764.791 23.056C763.81 22.6933 763.031 22.2133 762.455 21.616C762.157 21.3173 761.858 20.8693 761.559 20.272C761.261 19.6533 761.058 19.088 760.951 18.576C760.845 18.0427 760.791 17.5627 760.791 17.136C760.791 15.3653 761.389 13.6693 762.583 12.048C763.799 10.4267 765.282 9.37067 767.031 8.88ZM789.811 1.264C790.024 1.2 790.291 1.168 790.611 1.168C791.635 1.168 792.445 1.33867 793.043 1.68C793.853 2.17067 794.259 2.832 794.259 3.664C794.259 4.304 793.971 4.77333 793.395 5.072C793.117 5.22133 792.819 5.296 792.499 5.296C792.179 5.296 791.805 5.2 791.379 5.008C791.037 4.85867 790.856 4.784 790.835 4.784C790.749 4.784 790.611 4.88 790.419 5.072C790.184 5.30667 789.981 5.78667 789.811 6.512C789.64 7.23733 789.555 8.03733 789.555 8.912V9.584C789.555 9.88267 789.587 10.0853 789.651 10.192C789.715 10.2987 789.864 10.352 790.099 10.352C790.312 10.352 790.824 10.2987 791.635 10.192C791.827 10.1707 792.083 10.16 792.403 10.16C793.875 10.16 794.611 10.7573 794.611 11.952C794.589 12.5707 794.365 13.0187 793.939 13.296C793.533 13.552 792.808 13.7227 791.763 13.808C790.76 13.8933 790.205 13.968 790.099 14.032C790.077 14.032 790.067 14.128 790.067 14.32C790.067 14.8747 790.173 15.9733 790.387 17.616C790.6 19.2587 790.803 20.5493 790.995 21.488C791.08 22 791.123 22.352 791.123 22.544C791.123 23.2693 790.952 23.8453 790.611 24.272C790.269 24.6987 789.8 24.912 789.203 24.912C788.712 24.912 788.296 24.752 787.955 24.432C787.72 24.176 787.56 23.8987 787.475 23.6C787.411 23.28 787.315 22.448 787.187 21.104C786.973 19.0773 786.781 17.4773 786.611 16.304L786.323 14.288L784.755 14.224C784.029 14.1813 783.571 14.128 783.379 14.064C783.187 14 782.995 13.8613 782.803 13.648C782.525 13.3067 782.387 12.8907 782.387 12.4C782.387 12.1013 782.451 11.824 782.579 11.568C782.877 11.056 783.624 10.736 784.819 10.608L785.843 10.512L785.939 8.56C786.067 6.34133 786.44 4.656 787.059 3.504C787.677 2.33067 788.595 1.584 789.811 1.264ZM803.158 2.192C803.5 1.97867 803.82 1.872 804.118 1.872C804.353 1.872 804.62 1.936 804.918 2.064C805.366 2.27733 805.654 2.608 805.782 3.056C805.91 3.504 805.996 4.57067 806.038 6.256L806.134 9.424L807.606 9.328C807.777 9.30667 808.022 9.296 808.342 9.296C809.11 9.296 809.654 9.43467 809.974 9.712C810.316 9.98933 810.486 10.4373 810.486 11.056C810.486 11.7173 810.262 12.1867 809.814 12.464C809.388 12.7413 808.556 12.9333 807.318 13.04L805.974 13.168L805.75 17.616C805.601 20.624 805.462 22.288 805.334 22.608C805.057 23.248 804.524 23.568 803.734 23.568C803.286 23.568 802.934 23.4507 802.678 23.216C802.401 23.0027 802.209 22.768 802.102 22.512C801.996 22.256 801.942 21.84 801.942 21.264C801.942 20.7947 801.974 20.0907 802.038 19.152C802.145 17.4667 802.22 16.0267 802.262 14.832L802.294 13.328L800.854 13.296C800.044 13.2747 799.489 13.2107 799.19 13.104C798.892 12.976 798.636 12.72 798.422 12.336C798.294 12.08 798.23 11.8133 798.23 11.536C798.23 11.024 798.444 10.576 798.87 10.192C799.105 9.97867 799.404 9.84 799.766 9.776C800.129 9.69067 800.801 9.60533 801.782 9.52L802.294 9.456L802.422 6.064C802.444 5.552 802.454 4.99733 802.454 4.4C802.476 3.78133 802.486 3.32266 802.486 3.024L802.518 2.576L802.614 2.512C802.678 2.46933 802.764 2.416 802.87 2.352C802.977 2.288 803.073 2.23467 803.158 2.192ZM823.929 13.808C823.545 13.616 823.001 13.52 822.297 13.52C821.529 13.52 820.879 13.6373 820.345 13.872C819.983 14.0213 819.513 14.352 818.937 14.864C818.361 15.3547 818.073 15.6747 818.073 15.824C818.073 15.888 818.404 15.92 819.065 15.92C820.047 15.92 821.22 15.8667 822.585 15.76C823.951 15.6533 824.729 15.536 824.921 15.408C824.985 15.3867 825.017 15.3227 825.017 15.216C825.017 15.024 824.9 14.7787 824.665 14.48C824.431 14.16 824.185 13.936 823.929 13.808ZM820.153 10.096C820.687 9.94667 821.316 9.872 822.041 9.872C823.385 9.872 824.612 10.1387 825.721 10.672C826.553 11.0987 827.247 11.7493 827.801 12.624C828.356 13.4773 828.697 14.4373 828.825 15.504C828.825 15.5467 828.825 15.6107 828.825 15.696C828.847 15.7813 828.857 15.8453 828.857 15.888C828.857 16.4427 828.751 16.9867 828.537 17.52C828.345 18.0533 828.111 18.416 827.833 18.608C827.471 18.864 824.921 19.184 820.185 19.568C819.183 19.6533 818.681 19.7493 818.681 19.856C818.681 19.984 818.905 20.1867 819.353 20.464C819.801 20.7413 820.239 20.9333 820.665 21.04C821.049 21.1253 821.359 21.168 821.593 21.168C822.276 21.168 823.161 20.944 824.249 20.496C825.017 20.176 825.583 20.016 825.945 20.016C826.308 20.016 826.649 20.176 826.969 20.496C827.396 20.9227 827.609 21.328 827.609 21.712C827.609 21.968 827.545 22.2347 827.417 22.512C827.311 22.768 827.161 22.9707 826.969 23.12C826.799 23.2693 826.479 23.4507 826.009 23.664C824.452 24.3467 823.001 24.688 821.657 24.688C820.889 24.688 820.1 24.5707 819.289 24.336C818.201 23.9947 817.209 23.4187 816.313 22.608C815.417 21.776 814.777 20.8587 814.393 19.856C814.159 19.1947 814.041 18.4587 814.041 17.648C814.041 16.4747 814.233 15.4933 814.617 14.704C815.065 13.7227 815.823 12.784 816.889 11.888C817.956 10.992 819.044 10.3947 820.153 10.096ZM832.802 9.328C833.186 9.008 833.602 8.848 834.05 8.848C834.519 8.848 834.924 9.01867 835.266 9.36C835.607 9.68 835.778 10.096 835.778 10.608C835.778 11.12 835.874 11.376 836.066 11.376C836.172 11.376 836.396 11.2587 836.738 11.024C838.316 9.936 839.884 9.392 841.442 9.392C842.103 9.392 842.754 9.50933 843.394 9.744C843.97 9.97867 844.375 10.2347 844.61 10.512C844.844 10.7893 844.962 11.1627 844.962 11.632C844.962 12.144 844.77 12.5813 844.386 12.944C844.066 13.2427 843.778 13.392 843.522 13.392C843.436 13.392 842.839 13.3173 841.73 13.168C841.602 13.1467 841.42 13.136 841.186 13.136C840.844 13.136 840.407 13.2533 839.874 13.488C838.487 14.128 837.516 14.9387 836.962 15.92C836.407 16.9013 836.13 18.3093 836.13 20.144C836.108 21.488 835.948 22.4267 835.65 22.96C835.372 23.4933 834.871 23.76 834.146 23.76C833.655 23.76 833.239 23.5893 832.898 23.248L832.386 22.736L832.322 17.072C832.279 12.8907 832.258 10.736 832.258 10.608C832.258 10.096 832.439 9.66933 832.802 9.328ZM848.735 21.424C848.905 21.0613 849.097 20.816 849.311 20.688C849.524 20.56 849.897 20.496 850.431 20.496C850.793 20.496 851.039 20.528 851.167 20.592C851.316 20.656 851.487 20.8053 851.679 21.04C851.999 21.424 852.159 21.8293 852.159 22.256C852.159 22.7253 851.956 23.1627 851.551 23.568C851.145 23.9733 850.729 24.176 850.303 24.176C849.876 24.176 849.46 23.9947 849.055 23.632C848.671 23.248 848.479 22.8533 848.479 22.448C848.479 22.128 848.564 21.7867 848.735 21.424Z" fill="#27263C"/>
</svg>
