<svg width="562" height="32" viewBox="0 0 562 32" fill="none" xmlns="http://www.w3.org/2000/svg">
<path d="M12.088 10.544C11.2347 8.70933 10.7333 7.792 10.584 7.792C10.4773 7.792 9.976 8.67733 9.08 10.448C8.20533 12.1973 7.768 13.1787 7.768 13.392C7.768 13.52 8.03467 13.584 8.568 13.584C8.632 13.584 9.28267 13.5627 10.52 13.52C12.3973 13.4347 13.336 13.3707 13.336 13.328C13.336 13.2213 12.92 12.2933 12.088 10.544ZM9.208 2.8C9.57067 2.50133 9.96533 2.352 10.392 2.352C10.8187 2.352 11.224 2.48 11.608 2.736C11.9493 2.97067 12.344 3.472 12.792 4.24C13.2613 4.98667 13.976 6.32 14.936 8.24C17.368 13.1253 18.9573 17.0827 19.704 20.112C19.9813 21.1573 20.12 21.8933 20.12 22.32C20.12 22.5547 20.0987 22.7253 20.056 22.832C19.8 23.5787 19.2453 23.952 18.392 23.952C17.7947 23.952 17.3467 23.7493 17.048 23.344C16.7707 22.9173 16.4613 22.0107 16.12 20.624C15.7573 19.152 15.4587 18.128 15.224 17.552L14.936 16.88L13.496 16.976C12.664 17.04 11.2773 17.1147 9.336 17.2C7.50133 17.2853 6.456 17.36 6.2 17.424C5.944 17.5093 5.61333 18.0747 5.208 19.12C4.86667 20.0373 4.6 20.8587 4.408 21.584C4.152 22.8 3.52267 23.408 2.52 23.408C2.02933 23.408 1.61333 23.2373 1.272 22.896C0.930667 22.5547 0.76 22.1493 0.76 21.68C0.76 21.1467 0.962667 20.2827 1.368 19.088C2.11467 16.9547 3.48 13.808 5.464 9.648C7.46933 5.488 8.71733 3.20533 9.208 2.8ZM28.6255 1.52C28.9882 1.15733 29.4255 0.975998 29.9375 0.975998C30.3215 0.975998 30.6628 1.09333 30.9615 1.328C31.2815 1.54133 31.5055 1.85067 31.6335 2.256C31.6975 2.49067 31.8042 3.6 31.9535 5.584C32.1028 7.54667 32.1775 8.912 32.1775 9.68C32.1775 9.872 32.2202 9.98933 32.3055 10.032C32.4122 10.0747 32.6575 10.096 33.0415 10.096C33.6175 10.096 33.9482 10.032 34.0335 9.904C34.0762 9.79733 34.5135 9.744 35.3455 9.744C36.4122 9.744 37.1162 9.81867 37.4575 9.968C37.7775 10.1173 38.0228 10.4053 38.1935 10.832C38.3428 11.1307 38.4175 11.376 38.4175 11.568C38.4175 11.7173 38.3855 11.8987 38.3215 12.112C38.1722 12.6027 37.8948 12.9333 37.4895 13.104C37.1055 13.2533 36.3375 13.36 35.1855 13.424C33.8842 13.488 33.0415 13.5733 32.6575 13.68L32.1455 13.808L32.2735 18.32C32.3162 20.3253 32.3375 21.4027 32.3375 21.552C32.3375 22.4907 32.2628 23.12 32.1135 23.44C31.7935 24.1227 31.2708 24.464 30.5455 24.464C30.2682 24.464 29.9802 24.4 29.6815 24.272C29.4468 24.1653 29.2762 24.0693 29.1695 23.984C29.0628 23.8773 28.9668 23.6107 28.8815 23.184C28.7962 22.736 28.7428 22.2133 28.7215 21.616C28.7002 21.0187 28.6788 20.0373 28.6575 18.672L28.5935 14.032L27.6335 14.064C27.0575 14.1067 26.5455 14.192 26.0975 14.32C25.9908 14.3627 25.8202 14.384 25.5855 14.384C24.8602 14.384 24.3375 14.16 24.0175 13.712C23.8468 13.4347 23.7615 13.0613 23.7615 12.592C23.7615 12.1867 23.8255 11.8667 23.9535 11.632C24.2522 11.0987 25.2975 10.6933 27.0895 10.416L28.5615 10.192L28.4335 7.376C28.3482 5.37067 28.2735 4.00533 28.2095 3.28C28.1668 2.768 28.1455 2.49067 28.1455 2.448C28.1455 2.14933 28.3055 1.84 28.6255 1.52ZM55.2793 8.208C55.6633 8.10133 56.2606 8.048 57.0713 8.048C58.7779 8.048 60.0153 8.176 60.7833 8.432C61.8499 8.77333 62.3833 9.36 62.3833 10.192C62.3833 10.6827 62.1486 11.1307 61.6793 11.536C61.3593 11.8347 61.0499 11.984 60.7513 11.984C60.7299 11.984 60.6873 11.984 60.6233 11.984C60.5593 11.9627 60.5059 11.952 60.4633 11.952C59.0553 11.7173 57.9459 11.6 57.1353 11.6C56.8793 11.6 56.6446 11.6213 56.4313 11.664C55.7699 11.8347 55.4393 12.144 55.4393 12.592C55.4393 12.6773 55.4499 12.7413 55.4713 12.784C55.6206 13.2107 56.4633 13.744 57.9993 14.384C60.7513 15.536 62.4473 16.9653 63.0873 18.672C63.2793 19.184 63.3753 19.664 63.3753 20.112C63.3753 20.9013 63.0873 21.5733 62.5113 22.128C61.9566 22.6827 61.1673 23.056 60.1433 23.248C59.7166 23.3333 59.0126 23.376 58.0312 23.376C56.2393 23.376 55.0979 23.2693 54.6073 23.056C54.3299 22.928 54.0953 22.7147 53.9033 22.416C53.7113 22.096 53.6153 21.7867 53.6153 21.488C53.6153 21.168 53.7219 20.848 53.9353 20.528C54.1486 20.1867 54.4046 19.952 54.7033 19.824C54.9806 19.7173 55.3113 19.664 55.6953 19.664C55.8446 19.664 56.1753 19.6853 56.6873 19.728C57.0286 19.7707 57.4873 19.792 58.0633 19.792C58.9593 19.792 59.4073 19.6853 59.4073 19.472C59.4073 19.088 58.4793 18.512 56.6233 17.744C54.9593 17.0187 53.7326 16.2613 52.9433 15.472C52.1753 14.6613 51.7913 13.744 51.7913 12.72C51.7913 12.5493 51.8126 12.2933 51.8553 11.952C52.0259 10.9067 52.4526 10.0747 53.1353 9.456C53.6899 8.90133 54.4046 8.48533 55.2793 8.208ZM75.5883 11.6C75.0123 11.4933 74.5323 11.44 74.1483 11.44C73.2736 11.44 72.5376 11.6213 71.9403 11.984C71.6416 12.176 71.2896 12.8267 70.8843 13.936C70.5003 15.024 70.3083 15.8987 70.3083 16.56C70.3083 17.6267 70.6496 18.4907 71.3323 19.152C72.0363 19.792 72.9536 20.1227 74.0843 20.144C75.0016 20.144 75.8549 19.888 76.6443 19.376C77.4549 18.864 78.0416 18.192 78.4043 17.36C78.6389 16.8267 78.7563 16.2187 78.7563 15.536C78.7563 14.704 78.5963 13.9787 78.2763 13.36C78.0416 12.8693 77.7216 12.496 77.3163 12.24C76.9109 11.984 76.3349 11.7707 75.5883 11.6ZM71.9723 8.176C72.7189 7.984 73.4549 7.888 74.1803 7.888C75.5456 7.888 77.0069 8.22933 78.5643 8.912C79.6736 9.40267 80.5483 10.2667 81.1883 11.504C81.8496 12.7413 82.1909 14.2027 82.2123 15.888V16.08C82.2123 18.6187 81.0816 20.6773 78.8203 22.256C77.4123 23.2587 75.8443 23.76 74.1163 23.76C72.6869 23.76 71.3643 23.408 70.1483 22.704C68.9323 21.9787 68.0149 20.9653 67.3963 19.664C67.1829 19.216 67.0443 18.832 66.9803 18.512C66.9376 18.192 66.9163 17.52 66.9163 16.496C66.9376 14.9813 67.0976 13.7867 67.3963 12.912C68.1003 10.9707 68.9323 9.65867 69.8923 8.976C70.2763 8.69867 70.9696 8.432 71.9723 8.176ZM86.9448 7.344C87.2434 7.30133 87.4141 7.26933 87.4568 7.248C87.5634 7.248 87.8088 7.32267 88.1927 7.472C88.4914 7.6 88.7581 7.856 88.9928 8.24C89.2274 8.624 89.3448 8.99733 89.3448 9.36C89.3448 9.63733 89.3981 9.85067 89.5048 10C89.5901 10.1067 89.6648 10.1493 89.7288 10.128C89.7928 10.1067 89.9421 10 90.1768 9.808C91.1368 8.99733 92.3101 8.496 93.6968 8.304C94.1234 8.26133 94.4221 8.24 94.5928 8.24C95.6808 8.24 96.6088 8.63467 97.3768 9.424L98.1128 10.16L99.0408 9.424C100.555 8.208 102.027 7.6 103.457 7.6C103.947 7.6 104.385 7.67467 104.769 7.824C105.195 7.99467 105.654 8.32533 106.145 8.816C106.657 9.28533 107.041 9.78667 107.297 10.32C108.065 11.8773 108.566 14.7787 108.801 19.024C108.843 20.0907 108.865 20.6773 108.865 20.784C108.865 21.3387 108.79 21.7547 108.641 22.032C108.321 22.6507 107.83 22.96 107.169 22.96C106.699 22.96 106.283 22.7893 105.921 22.448L105.345 21.968L105.185 18.992C104.95 14.5547 104.417 11.984 103.585 11.28C103.457 11.1947 103.35 11.152 103.265 11.152C103.094 11.152 102.785 11.2693 102.337 11.504C101.227 12.0373 100.438 12.944 99.9688 14.224C99.7128 14.8853 99.5421 16.2613 99.4568 18.352C99.3501 20.464 99.2434 21.6373 99.1368 21.872C98.7954 22.4693 98.2514 22.768 97.5048 22.768C97.0994 22.768 96.7368 22.64 96.4168 22.384C95.9474 22 95.7128 21.0613 95.7128 19.568C95.7128 18.8853 95.7234 18.32 95.7448 17.872C95.7448 17.7227 95.7448 17.52 95.7448 17.264C95.7661 16.9867 95.7768 16.784 95.7768 16.656C95.7768 14.5653 95.5421 13.1147 95.0728 12.304C94.8808 11.9627 94.6888 11.792 94.4968 11.792C94.4754 11.792 94.3368 11.8133 94.0808 11.856C92.7154 12.112 91.5634 13.2107 90.6248 15.152C90.2408 15.9627 90.0488 16.816 90.0488 17.712C90.0488 18.48 90.1128 19.4187 90.2408 20.528C90.3048 20.976 90.3368 21.3493 90.3368 21.648C90.3368 22.4587 89.9848 23.0347 89.2808 23.376C88.9821 23.5253 88.7474 23.6 88.5768 23.6C88.4488 23.6 88.2461 23.5467 87.9688 23.44C87.4354 23.248 87.0834 22.8853 86.9128 22.352C86.7421 21.7973 86.6034 20.6133 86.4968 18.8C86.3474 15.7067 86.0914 12.5173 85.7288 9.232C85.7288 9.18933 85.7181 9.12533 85.6968 9.04C85.6968 8.95467 85.6968 8.90133 85.6968 8.88C85.6968 8.58133 85.8248 8.272 86.0807 7.952C86.4008 7.58933 86.6888 7.38667 86.9448 7.344ZM122.242 13.808C121.858 13.616 121.314 13.52 120.61 13.52C119.842 13.52 119.191 13.6373 118.658 13.872C118.295 14.0213 117.826 14.352 117.25 14.864C116.674 15.3547 116.386 15.6747 116.386 15.824C116.386 15.888 116.716 15.92 117.378 15.92C118.359 15.92 119.532 15.8667 120.898 15.76C122.263 15.6533 123.042 15.536 123.234 15.408C123.298 15.3867 123.33 15.3227 123.33 15.216C123.33 15.024 123.212 14.7787 122.978 14.48C122.743 14.16 122.498 13.936 122.242 13.808ZM118.466 10.096C118.999 9.94667 119.628 9.872 120.354 9.872C121.698 9.872 122.924 10.1387 124.034 10.672C124.866 11.0987 125.559 11.7493 126.114 12.624C126.668 13.4773 127.01 14.4373 127.138 15.504C127.138 15.5467 127.138 15.6107 127.138 15.696C127.159 15.7813 127.17 15.8453 127.17 15.888C127.17 16.4427 127.063 16.9867 126.85 17.52C126.658 18.0533 126.423 18.416 126.146 18.608C125.783 18.864 123.234 19.184 118.498 19.568C117.495 19.6533 116.994 19.7493 116.994 19.856C116.994 19.984 117.218 20.1867 117.666 20.464C118.114 20.7413 118.551 20.9333 118.978 21.04C119.362 21.1253 119.671 21.168 119.906 21.168C120.588 21.168 121.474 20.944 122.562 20.496C123.33 20.176 123.895 20.016 124.258 20.016C124.62 20.016 124.962 20.176 125.282 20.496C125.708 20.9227 125.922 21.328 125.922 21.712C125.922 21.968 125.858 22.2347 125.73 22.512C125.623 22.768 125.474 22.9707 125.282 23.12C125.111 23.2693 124.791 23.4507 124.322 23.664C122.764 24.3467 121.314 24.688 119.97 24.688C119.202 24.688 118.412 24.5707 117.602 24.336C116.514 23.9947 115.522 23.4187 114.626 22.608C113.73 21.776 113.09 20.8587 112.706 19.856C112.471 19.1947 112.354 18.4587 112.354 17.648C112.354 16.4747 112.546 15.4933 112.93 14.704C113.378 13.7227 114.135 12.784 115.202 11.888C116.268 10.992 117.356 10.3947 118.466 10.096ZM150.706 16.304C150.706 15.6213 150.301 14.928 149.49 14.224C148.679 13.52 147.826 13.168 146.93 13.168C146.375 13.1893 145.981 13.264 145.746 13.392C145.511 13.52 145.287 13.808 145.074 14.256C144.882 14.704 144.786 15.1627 144.786 15.632C144.786 15.76 144.807 16.2933 144.85 17.232L144.978 19.472L145.554 19.568C145.618 19.5893 145.714 19.6 145.842 19.6C146.418 19.6 147.111 19.408 147.922 19.024C148.754 18.6187 149.458 18.1387 150.034 17.584C150.482 17.136 150.706 16.7093 150.706 16.304ZM142.226 9.456C142.247 9.456 142.279 9.456 142.322 9.456C142.365 9.43467 142.407 9.424 142.45 9.424C143.069 9.424 143.527 9.57333 143.826 9.872C143.933 9.936 144.05 9.968 144.178 9.968C144.349 9.968 144.637 9.904 145.042 9.776C145.618 9.60533 146.183 9.52 146.738 9.52C147.762 9.52 148.786 9.75467 149.81 10.224C150.855 10.672 151.741 11.2907 152.466 12.08C153.725 13.4667 154.354 14.896 154.354 16.368C154.354 18.0747 153.543 19.5253 151.922 20.72C150.962 21.4453 149.917 22.0427 148.786 22.512C147.655 22.9813 146.727 23.216 146.002 23.216C145.81 23.216 145.671 23.2053 145.586 23.184L145.074 23.088C145.117 23.856 145.159 25.0187 145.202 26.576C145.245 28.1333 145.287 29.3067 145.33 30.096L144.69 30.736C144.263 31.1627 143.847 31.376 143.442 31.376C143.058 31.376 142.685 31.1947 142.322 30.832C142.002 30.512 141.799 30.2027 141.714 29.904C141.671 29.648 141.575 27.2693 141.426 22.768C141.319 18.288 141.202 15.4933 141.074 14.384C140.967 13.3813 140.914 12.4427 140.914 11.568C140.914 11.056 140.935 10.7253 140.978 10.576C141.042 10.4053 141.181 10.2133 141.394 10C141.714 9.68 141.991 9.49867 142.226 9.456ZM166.526 11.6C165.95 11.4933 165.47 11.44 165.086 11.44C164.211 11.44 163.475 11.6213 162.878 11.984C162.579 12.176 162.227 12.8267 161.822 13.936C161.438 15.024 161.246 15.8987 161.246 16.56C161.246 17.6267 161.587 18.4907 162.27 19.152C162.974 19.792 163.891 20.1227 165.022 20.144C165.939 20.144 166.792 19.888 167.582 19.376C168.392 18.864 168.979 18.192 169.342 17.36C169.576 16.8267 169.694 16.2187 169.694 15.536C169.694 14.704 169.534 13.9787 169.214 13.36C168.979 12.8693 168.659 12.496 168.254 12.24C167.848 11.984 167.272 11.7707 166.526 11.6ZM162.91 8.176C163.656 7.984 164.392 7.888 165.118 7.888C166.483 7.888 167.944 8.22933 169.502 8.912C170.611 9.40267 171.486 10.2667 172.126 11.504C172.787 12.7413 173.128 14.2027 173.15 15.888V16.08C173.15 18.6187 172.019 20.6773 169.758 22.256C168.35 23.2587 166.782 23.76 165.054 23.76C163.624 23.76 162.302 23.408 161.086 22.704C159.87 21.9787 158.952 20.9653 158.334 19.664C158.12 19.216 157.982 18.832 157.918 18.512C157.875 18.192 157.854 17.52 157.854 16.496C157.875 14.9813 158.035 13.7867 158.334 12.912C159.038 10.9707 159.87 9.65867 160.83 8.976C161.214 8.69867 161.907 8.432 162.91 8.176ZM178.362 8.912C178.448 8.89067 178.576 8.88 178.746 8.88C179.152 8.88 179.525 8.98667 179.866 9.2C180.208 9.392 180.442 9.65867 180.57 10C180.656 10.192 180.741 11.6533 180.826 14.384C180.933 17.0933 180.986 19.2267 180.986 20.784C180.986 21.4453 180.976 21.8293 180.954 21.936C180.848 22.7467 180.496 23.2907 179.898 23.568C179.6 23.696 179.365 23.76 179.194 23.76C179.066 23.76 178.874 23.728 178.618 23.664C178.128 23.5147 177.818 23.312 177.69 23.056C177.434 22.5653 177.285 20.6667 177.242 17.36C177.242 16.7627 177.232 15.728 177.21 14.256L177.178 9.872L177.562 9.424C177.818 9.12533 178.085 8.95467 178.362 8.912ZM177.594 2.896C177.85 2.768 178.096 2.704 178.33 2.704C178.8 2.704 179.216 2.896 179.578 3.28C179.941 3.64267 180.122 4.06933 180.122 4.56C180.122 4.90133 180.037 5.2 179.866 5.456C179.504 6.032 179.013 6.32 178.394 6.32C177.989 6.32 177.616 6.18133 177.274 5.904C176.933 5.62667 176.72 5.24267 176.634 4.752C176.634 4.73067 176.624 4.69867 176.602 4.656C176.602 4.592 176.602 4.54933 176.602 4.528C176.602 4.208 176.698 3.89867 176.89 3.6C177.082 3.28 177.317 3.04533 177.594 2.896ZM185.28 9.072C185.536 8.944 185.802 8.88 186.08 8.88C186.464 8.88 186.826 9.008 187.168 9.264C187.509 9.49867 187.744 9.81867 187.872 10.224L188.064 10.896L188.864 10.416C189.397 10.096 190.133 9.936 191.072 9.936C191.989 9.936 192.746 10.0853 193.344 10.384C193.834 10.6187 194.357 11.0027 194.912 11.536C195.488 12.0693 195.946 12.6027 196.288 13.136C197.44 14.9493 198.069 17.7653 198.176 21.584V22.224C198.176 22.736 198.026 23.152 197.728 23.472C197.365 23.8347 196.938 24.016 196.448 24.016C195.658 24.016 195.136 23.6747 194.88 22.992C194.752 22.6293 194.645 21.9147 194.56 20.848C194.304 17.1147 193.472 14.7787 192.064 13.84C191.765 13.648 191.466 13.552 191.168 13.552C190.613 13.552 190.112 13.8613 189.664 14.48C189.237 15.0773 188.896 15.9307 188.64 17.04C188.533 17.5307 188.405 18.416 188.256 19.696C188.106 20.976 188.032 21.84 188.032 22.288C188.032 22.5013 187.85 22.7893 187.488 23.152C187.125 23.4933 186.709 23.664 186.24 23.664C185.365 23.664 184.789 23.2053 184.512 22.288C184.384 21.84 184.32 19.8987 184.32 16.464C184.32 12.368 184.394 10.1387 184.544 9.776C184.672 9.49867 184.917 9.264 185.28 9.072ZM206.657 1.52C207.019 1.15733 207.457 0.975998 207.969 0.975998C208.353 0.975998 208.694 1.09333 208.993 1.328C209.313 1.54133 209.537 1.85067 209.665 2.256C209.729 2.49067 209.835 3.6 209.985 5.584C210.134 7.54667 210.209 8.912 210.209 9.68C210.209 9.872 210.251 9.98933 210.337 10.032C210.443 10.0747 210.689 10.096 211.073 10.096C211.649 10.096 211.979 10.032 212.065 9.904C212.107 9.79733 212.545 9.744 213.377 9.744C214.443 9.744 215.147 9.81867 215.489 9.968C215.809 10.1173 216.054 10.4053 216.225 10.832C216.374 11.1307 216.449 11.376 216.449 11.568C216.449 11.7173 216.417 11.8987 216.353 12.112C216.203 12.6027 215.926 12.9333 215.521 13.104C215.137 13.2533 214.369 13.36 213.217 13.424C211.915 13.488 211.073 13.5733 210.689 13.68L210.177 13.808L210.305 18.32C210.347 20.3253 210.369 21.4027 210.369 21.552C210.369 22.4907 210.294 23.12 210.145 23.44C209.825 24.1227 209.302 24.464 208.577 24.464C208.299 24.464 208.011 24.4 207.713 24.272C207.478 24.1653 207.307 24.0693 207.201 23.984C207.094 23.8773 206.998 23.6107 206.913 23.184C206.827 22.736 206.774 22.2133 206.753 21.616C206.731 21.0187 206.71 20.0373 206.689 18.672L206.625 14.032L205.665 14.064C205.089 14.1067 204.577 14.192 204.129 14.32C204.022 14.3627 203.851 14.384 203.617 14.384C202.891 14.384 202.369 14.16 202.049 13.712C201.878 13.4347 201.793 13.0613 201.793 12.592C201.793 12.1867 201.857 11.8667 201.985 11.632C202.283 11.0987 203.329 10.6933 205.121 10.416L206.593 10.192L206.465 7.376C206.379 5.37067 206.305 4.00533 206.241 3.28C206.198 2.768 206.177 2.49067 206.177 2.448C206.177 2.14933 206.337 1.84 206.657 1.52ZM235.206 8.912C235.291 8.89067 235.419 8.88 235.59 8.88C235.995 8.88 236.369 8.98667 236.71 9.2C237.051 9.392 237.286 9.65867 237.414 10C237.499 10.192 237.585 11.6533 237.67 14.384C237.777 17.0933 237.83 19.2267 237.83 20.784C237.83 21.4453 237.819 21.8293 237.798 21.936C237.691 22.7467 237.339 23.2907 236.742 23.568C236.443 23.696 236.209 23.76 236.038 23.76C235.91 23.76 235.718 23.728 235.462 23.664C234.971 23.5147 234.662 23.312 234.534 23.056C234.278 22.5653 234.129 20.6667 234.086 17.36C234.086 16.7627 234.075 15.728 234.054 14.256L234.022 9.872L234.406 9.424C234.662 9.12533 234.929 8.95467 235.206 8.912ZM234.438 2.896C234.694 2.768 234.939 2.704 235.174 2.704C235.643 2.704 236.059 2.896 236.422 3.28C236.785 3.64267 236.966 4.06933 236.966 4.56C236.966 4.90133 236.881 5.2 236.71 5.456C236.347 6.032 235.857 6.32 235.238 6.32C234.833 6.32 234.459 6.18133 234.118 5.904C233.777 5.62667 233.563 5.24267 233.478 4.752C233.478 4.73067 233.467 4.69867 233.446 4.656C233.446 4.592 233.446 4.54933 233.446 4.528C233.446 4.208 233.542 3.89867 233.734 3.6C233.926 3.28 234.161 3.04533 234.438 2.896ZM242.123 9.072C242.379 8.944 242.646 8.88 242.923 8.88C243.307 8.88 243.67 9.008 244.011 9.264C244.353 9.49867 244.587 9.81867 244.715 10.224L244.907 10.896L245.707 10.416C246.241 10.096 246.977 9.936 247.915 9.936C248.833 9.936 249.59 10.0853 250.187 10.384C250.678 10.6187 251.201 11.0027 251.755 11.536C252.331 12.0693 252.79 12.6027 253.131 13.136C254.283 14.9493 254.913 17.7653 255.019 21.584V22.224C255.019 22.736 254.87 23.152 254.571 23.472C254.209 23.8347 253.782 24.016 253.291 24.016C252.502 24.016 251.979 23.6747 251.723 22.992C251.595 22.6293 251.489 21.9147 251.403 20.848C251.147 17.1147 250.315 14.7787 248.907 13.84C248.609 13.648 248.31 13.552 248.011 13.552C247.457 13.552 246.955 13.8613 246.507 14.48C246.081 15.0773 245.739 15.9307 245.483 17.04C245.377 17.5307 245.249 18.416 245.099 19.696C244.95 20.976 244.875 21.84 244.875 22.288C244.875 22.5013 244.694 22.7893 244.331 23.152C243.969 23.4933 243.553 23.664 243.083 23.664C242.209 23.664 241.633 23.2053 241.355 22.288C241.227 21.84 241.163 19.8987 241.163 16.464C241.163 12.368 241.238 10.1387 241.387 9.776C241.515 9.49867 241.761 9.264 242.123 9.072ZM273.282 1.52C273.644 1.15733 274.082 0.975998 274.594 0.975998C274.978 0.975998 275.319 1.09333 275.618 1.328C275.938 1.54133 276.162 1.85067 276.29 2.256C276.354 2.49067 276.46 3.6 276.61 5.584C276.759 7.54667 276.834 8.912 276.834 9.68C276.834 9.872 276.876 9.98933 276.962 10.032C277.068 10.0747 277.314 10.096 277.698 10.096C278.274 10.096 278.604 10.032 278.69 9.904C278.732 9.79733 279.17 9.744 280.002 9.744C281.068 9.744 281.772 9.81867 282.114 9.968C282.434 10.1173 282.679 10.4053 282.85 10.832C282.999 11.1307 283.074 11.376 283.074 11.568C283.074 11.7173 283.042 11.8987 282.978 12.112C282.828 12.6027 282.551 12.9333 282.146 13.104C281.762 13.2533 280.994 13.36 279.842 13.424C278.54 13.488 277.698 13.5733 277.314 13.68L276.802 13.808L276.93 18.32C276.972 20.3253 276.994 21.4027 276.994 21.552C276.994 22.4907 276.919 23.12 276.77 23.44C276.45 24.1227 275.927 24.464 275.202 24.464C274.924 24.464 274.636 24.4 274.338 24.272C274.103 24.1653 273.932 24.0693 273.826 23.984C273.719 23.8773 273.623 23.6107 273.538 23.184C273.452 22.736 273.399 22.2133 273.378 21.616C273.356 21.0187 273.335 20.0373 273.314 18.672L273.25 14.032L272.29 14.064C271.714 14.1067 271.202 14.192 270.754 14.32C270.647 14.3627 270.476 14.384 270.242 14.384C269.516 14.384 268.994 14.16 268.674 13.712C268.503 13.4347 268.418 13.0613 268.418 12.592C268.418 12.1867 268.482 11.8667 268.61 11.632C268.908 11.0987 269.954 10.6933 271.746 10.416L273.218 10.192L273.09 7.376C273.004 5.37067 272.93 4.00533 272.866 3.28C272.823 2.768 272.802 2.49067 272.802 2.448C272.802 2.14933 272.962 1.84 273.282 1.52ZM287.37 1.552C287.733 1.25333 288.106 1.104 288.49 1.104C289.258 1.104 289.824 1.57333 290.186 2.512C290.336 2.93867 290.496 3.96267 290.666 5.584C290.837 7.184 290.976 8.67733 291.082 10.064C291.189 11.4293 291.253 12.112 291.274 12.112C291.317 12.112 291.669 11.8773 292.33 11.408C293.632 10.4907 294.869 10.032 296.042 10.032C297.13 10.032 298.08 10.4373 298.89 11.248C299.722 12.0373 300.373 13.2 300.842 14.736C301.205 15.9307 301.386 17.7867 301.386 20.304C301.386 21.8827 301.29 22.9493 301.098 23.504C300.885 24.08 300.394 24.368 299.626 24.368C299.114 24.368 298.688 24.1973 298.346 23.856L297.866 23.376L297.77 20.144C297.642 15.984 297.066 13.84 296.042 13.712H295.946C295.456 13.712 294.848 13.9893 294.122 14.544C293.397 15.0773 292.874 15.664 292.554 16.304C292.362 16.7307 292.106 17.04 291.786 17.232L291.37 17.52L291.306 21.008C291.264 22.7147 291.221 23.7493 291.178 24.112C291.157 24.4533 291.04 24.7307 290.826 24.944C290.485 25.3067 290.058 25.488 289.546 25.488C288.778 25.488 288.245 25.1467 287.946 24.464C287.797 24.0587 287.69 21.6053 287.626 17.104C287.52 9.57333 287.242 5.06133 286.794 3.568C286.73 3.33333 286.698 3.10933 286.698 2.896C286.698 2.34133 286.922 1.89333 287.37 1.552ZM314.773 13.808C314.389 13.616 313.845 13.52 313.141 13.52C312.373 13.52 311.722 13.6373 311.189 13.872C310.826 14.0213 310.357 14.352 309.781 14.864C309.205 15.3547 308.917 15.6747 308.917 15.824C308.917 15.888 309.248 15.92 309.909 15.92C310.89 15.92 312.064 15.8667 313.429 15.76C314.794 15.6533 315.573 15.536 315.765 15.408C315.829 15.3867 315.861 15.3227 315.861 15.216C315.861 15.024 315.744 14.7787 315.509 14.48C315.274 14.16 315.029 13.936 314.773 13.808ZM310.997 10.096C311.53 9.94667 312.16 9.872 312.885 9.872C314.229 9.872 315.456 10.1387 316.565 10.672C317.397 11.0987 318.09 11.7493 318.645 12.624C319.2 13.4773 319.541 14.4373 319.669 15.504C319.669 15.5467 319.669 15.6107 319.669 15.696C319.69 15.7813 319.701 15.8453 319.701 15.888C319.701 16.4427 319.594 16.9867 319.381 17.52C319.189 18.0533 318.954 18.416 318.677 18.608C318.314 18.864 315.765 19.184 311.029 19.568C310.026 19.6533 309.525 19.7493 309.525 19.856C309.525 19.984 309.749 20.1867 310.197 20.464C310.645 20.7413 311.082 20.9333 311.509 21.04C311.893 21.1253 312.202 21.168 312.437 21.168C313.12 21.168 314.005 20.944 315.093 20.496C315.861 20.176 316.426 20.016 316.789 20.016C317.152 20.016 317.493 20.176 317.813 20.496C318.24 20.9227 318.453 21.328 318.453 21.712C318.453 21.968 318.389 22.2347 318.261 22.512C318.154 22.768 318.005 22.9707 317.813 23.12C317.642 23.2693 317.322 23.4507 316.853 23.664C315.296 24.3467 313.845 24.688 312.501 24.688C311.733 24.688 310.944 24.5707 310.133 24.336C309.045 23.9947 308.053 23.4187 307.157 22.608C306.261 21.776 305.621 20.8587 305.237 19.856C305.002 19.1947 304.885 18.4587 304.885 17.648C304.885 16.4747 305.077 15.4933 305.461 14.704C305.909 13.7227 306.666 12.784 307.733 11.888C308.8 10.992 309.888 10.3947 310.997 10.096ZM337.491 8.496C337.875 8.432 338.269 8.4 338.675 8.4C339.955 8.4 341.096 8.688 342.099 9.264C343.101 9.84 343.603 10.5013 343.603 11.248C343.603 11.44 343.571 11.6107 343.507 11.76C343.187 12.5707 342.707 12.976 342.067 12.976C341.597 12.976 341.064 12.8267 340.467 12.528C339.784 12.1867 339.155 12.016 338.579 12.016C337.96 12.016 337.448 12.2187 337.043 12.624C336.829 12.8373 336.723 13.008 336.723 13.136C336.723 13.3067 336.883 13.5093 337.203 13.744C337.544 13.9573 338.163 14.2987 339.059 14.768C340.531 15.536 341.523 16.1653 342.035 16.656C342.525 17.0827 342.952 17.616 343.315 18.256C343.677 18.8747 343.859 19.3973 343.859 19.824C343.859 20.3147 343.731 20.8053 343.475 21.296C343.219 21.7867 342.899 22.16 342.515 22.416C341.533 23.0773 340.339 23.408 338.931 23.408C337.608 23.408 336.243 23.0987 334.835 22.48C334.173 22.16 333.757 21.7973 333.587 21.392C333.459 21.0933 333.395 20.8267 333.395 20.592C333.395 20.1653 333.597 19.7493 334.003 19.344C334.28 19.024 334.653 18.864 335.123 18.864C335.571 18.864 336.115 19.0027 336.755 19.28C337.459 19.5787 338.269 19.728 339.187 19.728C339.613 19.728 339.827 19.6747 339.827 19.568C339.827 19.312 338.909 18.7253 337.075 17.808C335.645 17.0613 334.6 16.3253 333.939 15.6C333.277 14.8533 332.947 14.032 332.947 13.136C332.947 12.0693 333.384 11.088 334.259 10.192C335.155 9.27467 336.232 8.70933 337.491 8.496ZM357.05 16.304C357.05 15.6213 356.644 14.928 355.834 14.224C355.023 13.52 354.17 13.168 353.274 13.168C352.719 13.1893 352.324 13.264 352.09 13.392C351.855 13.52 351.631 13.808 351.418 14.256C351.226 14.704 351.13 15.1627 351.13 15.632C351.13 15.76 351.151 16.2933 351.194 17.232L351.322 19.472L351.898 19.568C351.962 19.5893 352.058 19.6 352.186 19.6C352.762 19.6 353.455 19.408 354.266 19.024C355.098 18.6187 355.802 18.1387 356.378 17.584C356.826 17.136 357.05 16.7093 357.05 16.304ZM348.57 9.456C348.591 9.456 348.623 9.456 348.666 9.456C348.708 9.43467 348.751 9.424 348.794 9.424C349.412 9.424 349.871 9.57333 350.17 9.872C350.276 9.936 350.394 9.968 350.522 9.968C350.692 9.968 350.98 9.904 351.386 9.776C351.962 9.60533 352.527 9.52 353.082 9.52C354.106 9.52 355.13 9.75467 356.154 10.224C357.199 10.672 358.084 11.2907 358.81 12.08C360.068 13.4667 360.698 14.896 360.698 16.368C360.698 18.0747 359.887 19.5253 358.266 20.72C357.306 21.4453 356.26 22.0427 355.13 22.512C353.999 22.9813 353.071 23.216 352.346 23.216C352.154 23.216 352.015 23.2053 351.93 23.184L351.418 23.088C351.46 23.856 351.503 25.0187 351.546 26.576C351.588 28.1333 351.631 29.3067 351.674 30.096L351.034 30.736C350.607 31.1627 350.191 31.376 349.786 31.376C349.402 31.376 349.028 31.1947 348.666 30.832C348.346 30.512 348.143 30.2027 348.058 29.904C348.015 29.648 347.919 27.2693 347.77 22.768C347.663 18.288 347.546 15.4933 347.418 14.384C347.311 13.3813 347.258 12.4427 347.258 11.568C347.258 11.056 347.279 10.7253 347.322 10.576C347.386 10.4053 347.524 10.2133 347.738 10C348.058 9.68 348.335 9.49867 348.57 9.456ZM364.646 9.328C365.03 9.008 365.446 8.848 365.894 8.848C366.363 8.848 366.768 9.01867 367.11 9.36C367.451 9.68 367.622 10.096 367.622 10.608C367.622 11.12 367.718 11.376 367.91 11.376C368.016 11.376 368.24 11.2587 368.582 11.024C370.16 9.936 371.728 9.392 373.286 9.392C373.947 9.392 374.598 9.50933 375.238 9.744C375.814 9.97867 376.219 10.2347 376.454 10.512C376.688 10.7893 376.806 11.1627 376.806 11.632C376.806 12.144 376.614 12.5813 376.23 12.944C375.91 13.2427 375.622 13.392 375.366 13.392C375.28 13.392 374.683 13.3173 373.574 13.168C373.446 13.1467 373.264 13.136 373.03 13.136C372.688 13.136 372.251 13.2533 371.718 13.488C370.331 14.128 369.36 14.9387 368.806 15.92C368.251 16.9013 367.974 18.3093 367.974 20.144C367.952 21.488 367.792 22.4267 367.494 22.96C367.216 23.4933 366.715 23.76 365.99 23.76C365.499 23.76 365.083 23.5893 364.742 23.248L364.23 22.736L364.166 17.072C364.123 12.8907 364.102 10.736 364.102 10.608C364.102 10.096 364.283 9.66933 364.646 9.328ZM382.019 8.912C382.104 8.89067 382.232 8.88 382.403 8.88C382.808 8.88 383.181 8.98667 383.523 9.2C383.864 9.392 384.099 9.65867 384.227 10C384.312 10.192 384.397 11.6533 384.483 14.384C384.589 17.0933 384.643 19.2267 384.643 20.784C384.643 21.4453 384.632 21.8293 384.611 21.936C384.504 22.7467 384.152 23.2907 383.555 23.568C383.256 23.696 383.021 23.76 382.851 23.76C382.723 23.76 382.531 23.728 382.275 23.664C381.784 23.5147 381.475 23.312 381.347 23.056C381.091 22.5653 380.941 20.6667 380.899 17.36C380.899 16.7627 380.888 15.728 380.867 14.256L380.835 9.872L381.219 9.424C381.475 9.12533 381.741 8.95467 382.019 8.912ZM381.251 2.896C381.507 2.768 381.752 2.704 381.987 2.704C382.456 2.704 382.872 2.896 383.235 3.28C383.597 3.64267 383.779 4.06933 383.779 4.56C383.779 4.90133 383.693 5.2 383.523 5.456C383.16 6.032 382.669 6.32 382.051 6.32C381.645 6.32 381.272 6.18133 380.931 5.904C380.589 5.62667 380.376 5.24267 380.291 4.752C380.291 4.73067 380.28 4.69867 380.259 4.656C380.259 4.592 380.259 4.54933 380.259 4.528C380.259 4.208 380.355 3.89867 380.547 3.6C380.739 3.28 380.973 3.04533 381.251 2.896ZM388.936 9.072C389.192 8.944 389.458 8.88 389.736 8.88C390.12 8.88 390.482 9.008 390.824 9.264C391.165 9.49867 391.4 9.81867 391.528 10.224L391.72 10.896L392.52 10.416C393.053 10.096 393.789 9.936 394.728 9.936C395.645 9.936 396.402 10.0853 397 10.384C397.49 10.6187 398.013 11.0027 398.568 11.536C399.144 12.0693 399.602 12.6027 399.944 13.136C401.096 14.9493 401.725 17.7653 401.832 21.584V22.224C401.832 22.736 401.682 23.152 401.384 23.472C401.021 23.8347 400.594 24.016 400.104 24.016C399.314 24.016 398.792 23.6747 398.536 22.992C398.408 22.6293 398.301 21.9147 398.216 20.848C397.96 17.1147 397.128 14.7787 395.72 13.84C395.421 13.648 395.122 13.552 394.824 13.552C394.269 13.552 393.768 13.8613 393.32 14.48C392.893 15.0773 392.552 15.9307 392.296 17.04C392.189 17.5307 392.061 18.416 391.912 19.696C391.762 20.976 391.688 21.84 391.688 22.288C391.688 22.5013 391.506 22.7893 391.144 23.152C390.781 23.4933 390.365 23.664 389.896 23.664C389.021 23.664 388.445 23.2053 388.168 22.288C388.04 21.84 387.976 19.8987 387.976 16.464C387.976 12.368 388.05 10.1387 388.2 9.776C388.328 9.49867 388.573 9.264 388.936 9.072ZM414.889 12.08C414.59 11.8667 414.334 11.7387 414.121 11.696C413.908 11.632 413.502 11.6 412.905 11.6C411.326 11.6427 410.27 12.048 409.737 12.816C409.524 13.1147 409.332 13.584 409.161 14.224C408.99 14.8427 408.905 15.3653 408.905 15.792C408.905 15.8347 408.905 15.8987 408.905 15.984C408.926 16.048 408.937 16.0907 408.937 16.112C409.065 16.752 409.417 17.3173 409.993 17.808C410.59 18.2987 411.284 18.5973 412.073 18.704C412.18 18.7253 412.34 18.736 412.553 18.736C413.364 18.736 414.164 18.3093 414.953 17.456C415.742 16.6027 416.137 15.7067 416.137 14.768C416.137 14.4693 416.126 14.2453 416.105 14.096C416.041 13.5413 415.945 13.1573 415.817 12.944C415.689 12.7307 415.38 12.4427 414.889 12.08ZM410.857 8.144C411.326 8.03733 412.009 7.984 412.905 7.984H413.417C414.206 8.00533 414.729 8.05867 414.985 8.144C415.262 8.208 415.7 8.41067 416.297 8.752C417.086 9.24267 417.737 9.60533 418.249 9.84C418.74 10.0747 419.06 10.32 419.209 10.576C419.422 10.896 419.636 12.3893 419.849 15.056C420.084 17.7013 420.201 20.0373 420.201 22.064C420.201 23.728 420.02 25.1147 419.657 26.224C419.316 27.3547 418.74 28.3787 417.929 29.296C416.585 30.832 414.91 31.6 412.905 31.6C411.646 31.6 410.185 31.312 408.521 30.736C407.796 30.5013 407.316 30.2987 407.081 30.128C406.846 29.9573 406.644 29.6907 406.473 29.328C406.388 29.136 406.345 28.912 406.345 28.656C406.345 28.1653 406.516 27.7493 406.857 27.408C407.113 27.1093 407.486 26.96 407.977 26.96C408.425 26.96 409.076 27.1093 409.929 27.408C410.697 27.6853 411.508 27.8667 412.361 27.952C412.425 27.952 412.5 27.952 412.585 27.952C412.692 27.9733 412.766 27.984 412.809 27.984C414.004 27.984 414.942 27.4507 415.625 26.384C415.988 25.872 416.233 25.392 416.361 24.944C416.51 24.4747 416.617 23.8027 416.681 22.928C416.724 22.3307 416.745 21.968 416.745 21.84C416.745 21.4347 416.649 21.232 416.457 21.232C416.286 21.232 415.988 21.3493 415.561 21.584C414.58 22.0747 413.566 22.32 412.521 22.32C410.729 22.32 409.118 21.7227 407.689 20.528C406.26 19.3333 405.502 17.8613 405.417 16.112C405.417 16.048 405.406 15.952 405.385 15.824C405.385 15.696 405.385 15.6 405.385 15.536C405.385 13.68 405.865 12.1013 406.825 10.8C407.806 9.47733 409.15 8.592 410.857 8.144ZM442.969 12.816C442.564 12.7093 441.903 12.6133 440.985 12.528C440.388 12.4853 440.068 12.464 440.025 12.464C439.727 12.464 439.428 12.624 439.129 12.944C438.276 13.8187 437.817 15.0027 437.753 16.496C437.753 16.5813 437.743 16.6987 437.721 16.848C437.721 16.976 437.721 17.072 437.721 17.136C437.721 17.6267 437.849 18.0853 438.105 18.512C438.788 19.728 439.993 20.336 441.721 20.336C442.447 20.3147 443.183 20.0693 443.929 19.6C444.697 19.1093 445.252 18.5227 445.593 17.84C445.785 17.4347 445.881 16.9973 445.881 16.528C445.881 15.7387 445.604 14.992 445.049 14.288C444.516 13.5627 443.823 13.072 442.969 12.816ZM438.105 9.232C438.596 8.95467 439.087 8.816 439.577 8.816C439.684 8.816 440.079 8.83733 440.761 8.88C442.788 8.98667 444.42 9.41333 445.657 10.16C446.895 10.9067 447.887 12.0587 448.633 13.616C449.209 14.8107 449.497 15.952 449.497 17.04C449.497 17.3813 449.465 17.68 449.401 17.936C449.06 19.2587 448.313 20.464 447.161 21.552C446.009 22.64 444.74 23.3653 443.353 23.728C442.628 23.8987 442.052 23.984 441.625 23.984C441.199 23.984 440.623 23.8987 439.897 23.728C437.7 23.152 436.121 22.1067 435.161 20.592C434.415 19.4187 434.041 18.1813 434.041 16.88C434.041 15.5787 434.393 14.192 435.097 12.72C435.908 10.992 436.911 9.82933 438.105 9.232ZM463.698 0.431999C464.082 0.389332 464.37 0.367998 464.562 0.367998C466.098 0.367998 467.25 0.751998 468.018 1.52C468.487 2.01067 468.722 2.53333 468.722 3.088C468.722 3.55733 468.551 3.96267 468.21 4.304C467.89 4.624 467.485 4.784 466.994 4.784C466.546 4.784 466.109 4.63467 465.682 4.336C465.298 4.05866 464.946 3.92 464.626 3.92C464.114 3.92 463.634 4.28267 463.186 5.008C462.738 5.73333 462.461 6.58667 462.354 7.568C462.311 7.90933 462.29 8.112 462.29 8.176C462.29 8.45333 462.429 8.63467 462.706 8.72C462.983 8.784 463.634 8.82667 464.658 8.848C464.829 8.848 464.967 8.848 465.074 8.848C466.055 8.89067 466.642 8.93333 466.834 8.976C467.047 9.01867 467.261 9.15733 467.474 9.392C467.751 9.69067 467.89 10.0747 467.89 10.544C467.89 11.0347 467.741 11.44 467.442 11.76L466.994 12.304H461.938L461.842 12.752C461.821 12.816 461.81 13.168 461.81 13.808C461.81 16.752 461.895 19.3653 462.066 21.648C462.066 21.7333 462.066 21.8507 462.066 22C462.087 22.1493 462.098 22.256 462.098 22.32C462.098 22.8747 462.023 23.28 461.874 23.536C461.725 23.792 461.458 24.016 461.074 24.208C460.818 24.336 460.541 24.4 460.242 24.4C459.645 24.4 459.186 24.176 458.866 23.728C458.695 23.472 458.535 22.5333 458.386 20.912C458.258 19.2693 458.194 17.6587 458.194 16.08C458.194 15.3547 458.205 14.832 458.226 14.512L458.322 12.272L456.242 12.368C455.261 12.4107 454.749 12.432 454.706 12.432C454.301 12.432 453.959 12.3253 453.682 12.112C453.277 11.7493 453.074 11.2693 453.074 10.672C453.074 10.416 453.117 10.192 453.202 10C453.351 9.616 453.661 9.33867 454.13 9.168C454.599 8.99733 455.378 8.88 456.466 8.816C457.81 8.73067 458.493 8.66667 458.514 8.624C458.557 8.58133 458.674 7.97333 458.866 6.8C459.207 4.60267 459.975 2.928 461.17 1.776C461.618 1.328 461.991 1.01867 462.29 0.848C462.61 0.677333 463.079 0.538666 463.698 0.431999ZM486.403 3.664C486.958 3.51467 487.587 3.44 488.291 3.44C488.355 3.44 488.451 3.45067 488.579 3.472C488.728 3.472 488.846 3.472 488.931 3.472C490.062 3.51467 491.011 3.71733 491.779 4.08C493.976 5.104 495.075 6.72533 495.075 8.944C495.075 10.2027 494.691 11.568 493.923 13.04C493.624 13.616 492.899 14.6187 491.747 16.048C490.616 17.456 489.731 18.4693 489.091 19.088C488.664 19.472 488.451 19.728 488.451 19.856C488.451 19.9413 489.71 19.984 492.227 19.984H496.003L496.515 20.496C496.856 20.8373 497.027 21.2427 497.027 21.712C497.027 22.2027 496.856 22.6187 496.515 22.96L496.003 23.472H491.907C489.155 23.5147 487.224 23.5893 486.115 23.696C484.984 23.824 484.238 23.888 483.875 23.888C483.406 23.888 483 23.7067 482.659 23.344C482.339 22.96 482.179 22.5547 482.179 22.128C482.179 21.7013 482.36 21.2107 482.723 20.656C483.171 20.08 484.184 18.9813 485.763 17.36C487.683 15.3973 489.07 13.84 489.923 12.688C490.776 11.536 491.278 10.512 491.427 9.616C491.448 9.50933 491.459 9.34933 491.459 9.136C491.459 8.496 491.214 7.984 490.723 7.6C490.254 7.216 489.592 7.01333 488.739 6.992C487.182 6.992 485.934 7.49333 484.995 8.496C484.419 9.072 483.928 9.36 483.523 9.36C482.755 9.36 482.222 9.06133 481.923 8.464C481.752 8.12267 481.667 7.83467 481.667 7.6C481.667 7.30133 481.774 6.94933 481.987 6.544C482.606 5.28533 484.078 4.32533 486.403 3.664ZM511.227 7.664C510.971 7.42933 510.726 7.26933 510.491 7.184C510.278 7.09867 509.883 7.03467 509.307 6.992C509.264 6.992 509.179 6.992 509.051 6.992C508.923 6.97067 508.838 6.96 508.795 6.96C507.92 6.96 507.216 7.16267 506.683 7.568C506.171 7.97333 505.68 8.688 505.211 9.712C504.592 11.0773 504.283 12.4427 504.283 13.808C504.283 15.7067 504.816 17.168 505.883 18.192C506.395 18.704 507.163 18.96 508.187 18.96C509.574 18.96 510.758 18.5227 511.739 17.648C512.187 17.2213 512.486 16.784 512.635 16.336C512.806 15.8667 512.891 15.184 512.891 14.288V13.968C512.891 12.9867 512.806 11.9627 512.635 10.896C512.464 9.808 512.262 9.05067 512.027 8.624C511.878 8.32533 511.611 8.00533 511.227 7.664ZM508.859 3.056C508.944 2.94933 509.158 2.896 509.499 2.896C510.182 2.896 510.832 3.056 511.451 3.376C511.92 3.58933 512.528 4.03733 513.275 4.72C514.022 5.38133 514.544 5.936 514.843 6.384C515.654 7.64267 516.208 9.65867 516.507 12.432C516.571 12.9867 516.603 13.52 516.603 14.032C516.603 16.528 515.792 18.5867 514.171 20.208C512.614 21.7867 510.608 22.576 508.155 22.576H507.579C506.576 22.512 505.755 22.3307 505.115 22.032C503.856 21.4347 502.79 20.3573 501.915 18.8C501.062 17.2213 500.635 15.6107 500.635 13.968C500.635 13.648 500.646 13.4027 500.667 13.232C500.902 10.5867 501.659 8.34667 502.939 6.512C504.24 4.67733 505.787 3.64267 507.579 3.408C508.304 3.30133 508.731 3.184 508.859 3.056ZM524.872 3.664C525.426 3.51467 526.056 3.44 526.76 3.44C526.824 3.44 526.92 3.45067 527.048 3.472C527.197 3.472 527.314 3.472 527.4 3.472C528.53 3.51467 529.48 3.71733 530.248 4.08C532.445 5.104 533.544 6.72533 533.544 8.944C533.544 10.2027 533.16 11.568 532.392 13.04C532.093 13.616 531.368 14.6187 530.216 16.048C529.085 17.456 528.2 18.4693 527.56 19.088C527.133 19.472 526.92 19.728 526.92 19.856C526.92 19.9413 528.178 19.984 530.696 19.984H534.472L534.984 20.496C535.325 20.8373 535.496 21.2427 535.496 21.712C535.496 22.2027 535.325 22.6187 534.984 22.96L534.472 23.472H530.376C527.624 23.5147 525.693 23.5893 524.584 23.696C523.453 23.824 522.706 23.888 522.344 23.888C521.874 23.888 521.469 23.7067 521.128 23.344C520.808 22.96 520.648 22.5547 520.648 22.128C520.648 21.7013 520.829 21.2107 521.192 20.656C521.64 20.08 522.653 18.9813 524.232 17.36C526.152 15.3973 527.538 13.84 528.392 12.688C529.245 11.536 529.746 10.512 529.896 9.616C529.917 9.50933 529.928 9.34933 529.928 9.136C529.928 8.496 529.682 7.984 529.192 7.6C528.722 7.216 528.061 7.01333 527.208 6.992C525.65 6.992 524.402 7.49333 523.464 8.496C522.888 9.072 522.397 9.36 521.992 9.36C521.224 9.36 520.69 9.06133 520.392 8.464C520.221 8.12267 520.136 7.83467 520.136 7.6C520.136 7.30133 520.242 6.94933 520.456 6.544C521.074 5.28533 522.546 4.32533 524.872 3.664ZM546.592 7.504C546.229 7.20533 545.941 7.056 545.728 7.056C545.408 7.056 544.981 7.52533 544.448 8.464C543.914 9.38133 543.466 10.4267 543.104 11.6C542.805 12.5387 542.656 13.6587 542.656 14.96C542.656 16.0907 542.773 16.976 543.008 17.616C543.669 19.408 544.512 20.304 545.536 20.304C546.133 20.304 546.741 19.9627 547.36 19.28C547.85 18.7467 548.202 18.256 548.416 17.808C548.65 17.36 548.842 16.7307 548.992 15.92C549.12 15.344 549.184 14.7573 549.184 14.16C549.184 12.88 548.938 11.6213 548.448 10.384C547.978 9.12533 547.36 8.16533 546.592 7.504ZM544.832 3.536C545.173 3.49333 545.418 3.472 545.568 3.472C546.656 3.472 547.712 3.87733 548.736 4.688C549.781 5.49867 550.634 6.576 551.296 7.92C551.765 8.90133 552.096 9.78667 552.288 10.576C552.48 11.344 552.597 12.3253 552.64 13.52C552.661 13.776 552.672 14.1387 552.672 14.608C552.672 16.336 552.288 17.9787 551.52 19.536C550.88 20.8587 550.016 21.9253 548.928 22.736C547.861 23.5253 546.773 23.92 545.664 23.92C545.365 23.92 545.066 23.888 544.768 23.824C542.997 23.4187 541.6 22.416 540.576 20.816C539.573 19.1947 539.072 17.1893 539.072 14.8C539.072 12.2187 539.658 9.776 540.832 7.472C542.026 5.14667 543.36 3.83467 544.832 3.536ZM558.789 20.176C559.087 19.9413 559.418 19.824 559.781 19.824C560.229 19.824 560.602 19.9627 560.901 20.24C561.327 20.6027 561.541 21.04 561.541 21.552C561.541 21.9573 561.455 22.384 561.285 22.832C561.199 23.0667 560.869 24.176 560.293 26.16C559.887 27.632 559.503 28.5173 559.141 28.816C558.799 29.1147 558.437 29.264 558.053 29.264C557.647 29.264 557.274 29.1147 556.933 28.816C556.506 28.432 556.293 28.0053 556.293 27.536C556.293 27.2373 556.357 26.8747 556.485 26.448C556.527 26.2987 556.623 25.9147 556.773 25.296C556.943 24.656 557.071 24.1653 557.157 23.824C557.669 21.8187 558.213 20.6027 558.789 20.176Z" fill="#27263C"/>
</svg>
