<svg width="364" height="32" viewBox="0 0 364 32" fill="none" xmlns="http://www.w3.org/2000/svg">
<path d="M1.272 8.816C1.592 8.496 1.99733 8.336 2.488 8.336C3.14933 8.336 3.608 8.56 3.864 9.008C4.14133 9.43467 4.57867 10.64 5.176 12.624C5.34667 13.1787 5.56 13.8933 5.816 14.768C6.54133 17.072 6.95733 18.2453 7.064 18.288C7.192 18.288 7.48 17.648 7.928 16.368C8.65333 14.192 9.25067 12.6667 9.72 11.792C10.2107 10.9173 10.7867 10.3413 11.448 10.064C11.768 9.91467 12.088 9.84 12.408 9.84C12.8773 9.84 13.304 10.064 13.688 10.512C14.0933 10.9387 14.5413 11.664 15.032 12.688C16.9093 16.6773 17.9013 18.672 18.008 18.672C18.0507 18.672 18.296 18 18.744 16.656C19.2133 15.2907 19.704 13.8827 20.216 12.432C20.7493 10.9813 21.1013 10.16 21.272 9.968C21.6133 9.584 22.0187 9.392 22.488 9.392C23 9.392 23.4693 9.616 23.896 10.064C24.1307 10.2987 24.248 10.608 24.248 10.992C24.248 11.6107 23.7573 13.36 22.776 16.24C21.752 19.248 20.9627 21.2213 20.408 22.16C19.8533 23.0773 19.16 23.536 18.328 23.536C18.072 23.536 17.88 23.5253 17.752 23.504C17.0693 23.3973 16.4827 23.0453 15.992 22.448C15.5013 21.8507 14.7867 20.5707 13.848 18.608C12.8027 16.432 12.248 15.344 12.184 15.344C12.12 15.344 11.928 15.792 11.608 16.688C10.584 19.632 9.85867 21.5413 9.432 22.416C9.00533 23.2907 8.55733 23.8347 8.088 24.048C7.72533 24.1973 7.29867 24.272 6.808 24.272C6.38133 24.272 6.05067 24.2187 5.816 24.112C5.38933 23.8987 4.87733 23.0453 4.28 21.552C3.68267 20.0587 2.84 17.4987 1.752 13.872C1.13333 11.824 0.824 10.512 0.824 9.936C0.824 9.488 0.973333 9.11467 1.272 8.816ZM28.464 1.552C28.8267 1.25333 29.2 1.104 29.584 1.104C30.352 1.104 30.9173 1.57333 31.28 2.512C31.4293 2.93867 31.5893 3.96267 31.76 5.584C31.9307 7.184 32.0693 8.67733 32.176 10.064C32.2827 11.4293 32.3467 12.112 32.368 12.112C32.4107 12.112 32.7627 11.8773 33.424 11.408C34.7253 10.4907 35.9627 10.032 37.136 10.032C38.224 10.032 39.1733 10.4373 39.984 11.248C40.816 12.0373 41.4667 13.2 41.936 14.736C42.2987 15.9307 42.48 17.7867 42.48 20.304C42.48 21.8827 42.384 22.9493 42.192 23.504C41.9787 24.08 41.488 24.368 40.72 24.368C40.208 24.368 39.7813 24.1973 39.44 23.856L38.96 23.376L38.864 20.144C38.736 15.984 38.16 13.84 37.136 13.712H37.04C36.5493 13.712 35.9413 13.9893 35.216 14.544C34.4907 15.0773 33.968 15.664 33.648 16.304C33.456 16.7307 33.2 17.04 32.88 17.232L32.464 17.52L32.4 21.008C32.3573 22.7147 32.3147 23.7493 32.272 24.112C32.2507 24.4533 32.1333 24.7307 31.92 24.944C31.5787 25.3067 31.152 25.488 30.64 25.488C29.872 25.488 29.3387 25.1467 29.04 24.464C28.8907 24.0587 28.784 21.6053 28.72 17.104C28.6133 9.57333 28.336 5.06133 27.888 3.568C27.824 3.33333 27.792 3.10933 27.792 2.896C27.792 2.34133 28.016 1.89333 28.464 1.552ZM55.8668 13.808C55.4828 13.616 54.9388 13.52 54.2348 13.52C53.4668 13.52 52.8161 13.6373 52.2828 13.872C51.9201 14.0213 51.4508 14.352 50.8748 14.864C50.2988 15.3547 50.0108 15.6747 50.0108 15.824C50.0108 15.888 50.3414 15.92 51.0028 15.92C51.9841 15.92 53.1574 15.8667 54.5228 15.76C55.8881 15.6533 56.6668 15.536 56.8588 15.408C56.9228 15.3867 56.9548 15.3227 56.9548 15.216C56.9548 15.024 56.8374 14.7787 56.6028 14.48C56.3681 14.16 56.1228 13.936 55.8668 13.808ZM52.0908 10.096C52.6241 9.94667 53.2534 9.872 53.9788 9.872C55.3228 9.872 56.5494 10.1387 57.6588 10.672C58.4908 11.0987 59.1841 11.7493 59.7388 12.624C60.2934 13.4773 60.6348 14.4373 60.7628 15.504C60.7628 15.5467 60.7628 15.6107 60.7628 15.696C60.7841 15.7813 60.7948 15.8453 60.7948 15.888C60.7948 16.4427 60.6881 16.9867 60.4748 17.52C60.2828 18.0533 60.0481 18.416 59.7708 18.608C59.4081 18.864 56.8588 19.184 52.1228 19.568C51.1201 19.6533 50.6188 19.7493 50.6188 19.856C50.6188 19.984 50.8428 20.1867 51.2908 20.464C51.7388 20.7413 52.1761 20.9333 52.6028 21.04C52.9868 21.1253 53.2961 21.168 53.5308 21.168C54.2134 21.168 55.0988 20.944 56.1868 20.496C56.9548 20.176 57.5201 20.016 57.8828 20.016C58.2454 20.016 58.5868 20.176 58.9068 20.496C59.3334 20.9227 59.5468 21.328 59.5468 21.712C59.5468 21.968 59.4828 22.2347 59.3548 22.512C59.2481 22.768 59.0988 22.9707 58.9068 23.12C58.7361 23.2693 58.4161 23.4507 57.9468 23.664C56.3894 24.3467 54.9388 24.688 53.5948 24.688C52.8268 24.688 52.0374 24.5707 51.2268 24.336C50.1388 23.9947 49.1468 23.4187 48.2508 22.608C47.3548 21.776 46.7148 20.8587 46.3307 19.856C46.0961 19.1947 45.9788 18.4587 45.9788 17.648C45.9788 16.4747 46.1708 15.4933 46.5548 14.704C47.0028 13.7227 47.7601 12.784 48.8268 11.888C49.8934 10.992 50.9814 10.3947 52.0908 10.096ZM64.7393 9.328C65.1233 9.008 65.5393 8.848 65.9873 8.848C66.4566 8.848 66.8619 9.01867 67.2033 9.36C67.5446 9.68 67.7153 10.096 67.7153 10.608C67.7153 11.12 67.8113 11.376 68.0033 11.376C68.1099 11.376 68.3339 11.2587 68.6753 11.024C70.2539 9.936 71.8219 9.392 73.3793 9.392C74.0406 9.392 74.6913 9.50933 75.3313 9.744C75.9073 9.97867 76.3126 10.2347 76.5473 10.512C76.7819 10.7893 76.8993 11.1627 76.8993 11.632C76.8993 12.144 76.7073 12.5813 76.3233 12.944C76.0033 13.2427 75.7153 13.392 75.4593 13.392C75.3739 13.392 74.7766 13.3173 73.6673 13.168C73.5393 13.1467 73.3579 13.136 73.1233 13.136C72.7819 13.136 72.3446 13.2533 71.8113 13.488C70.4246 14.128 69.4539 14.9387 68.8993 15.92C68.3446 16.9013 68.0673 18.3093 68.0673 20.144C68.0459 21.488 67.8859 22.4267 67.5873 22.96C67.3099 23.4933 66.8086 23.76 66.0833 23.76C65.5926 23.76 65.1766 23.5893 64.8353 23.248L64.3233 22.736L64.2593 17.072C64.2166 12.8907 64.1953 10.736 64.1953 10.608C64.1953 10.096 64.3766 9.66933 64.7393 9.328ZM90.3043 13.808C89.9203 13.616 89.3763 13.52 88.6723 13.52C87.9043 13.52 87.2536 13.6373 86.7203 13.872C86.3576 14.0213 85.8883 14.352 85.3123 14.864C84.7363 15.3547 84.4483 15.6747 84.4483 15.824C84.4483 15.888 84.7789 15.92 85.4403 15.92C86.4216 15.92 87.5949 15.8667 88.9603 15.76C90.3256 15.6533 91.1043 15.536 91.2963 15.408C91.3603 15.3867 91.3923 15.3227 91.3923 15.216C91.3923 15.024 91.2749 14.7787 91.0403 14.48C90.8056 14.16 90.5603 13.936 90.3043 13.808ZM86.5283 10.096C87.0616 9.94667 87.6909 9.872 88.4163 9.872C89.7603 9.872 90.9869 10.1387 92.0963 10.672C92.9283 11.0987 93.6216 11.7493 94.1763 12.624C94.7309 13.4773 95.0723 14.4373 95.2003 15.504C95.2003 15.5467 95.2003 15.6107 95.2003 15.696C95.2216 15.7813 95.2323 15.8453 95.2323 15.888C95.2323 16.4427 95.1256 16.9867 94.9123 17.52C94.7203 18.0533 94.4856 18.416 94.2083 18.608C93.8456 18.864 91.2963 19.184 86.5603 19.568C85.5576 19.6533 85.0563 19.7493 85.0563 19.856C85.0563 19.984 85.2803 20.1867 85.7283 20.464C86.1763 20.7413 86.6136 20.9333 87.0403 21.04C87.4243 21.1253 87.7336 21.168 87.9683 21.168C88.6509 21.168 89.5363 20.944 90.6243 20.496C91.3923 20.176 91.9576 20.016 92.3203 20.016C92.6829 20.016 93.0243 20.176 93.3443 20.496C93.7709 20.9227 93.9843 21.328 93.9843 21.712C93.9843 21.968 93.9203 22.2347 93.7923 22.512C93.6856 22.768 93.5363 22.9707 93.3443 23.12C93.1736 23.2693 92.8536 23.4507 92.3843 23.664C90.8269 24.3467 89.3763 24.688 88.0323 24.688C87.2643 24.688 86.4749 24.5707 85.6643 24.336C84.5763 23.9947 83.5843 23.4187 82.6883 22.608C81.7923 21.776 81.1523 20.8587 80.7682 19.856C80.5336 19.1947 80.4163 18.4587 80.4163 17.648C80.4163 16.4747 80.6083 15.4933 80.9923 14.704C81.4403 13.7227 82.1976 12.784 83.2643 11.888C84.3309 10.992 85.4189 10.3947 86.5283 10.096ZM110.18 4.272C110.521 3.952 110.841 3.792 111.14 3.792C111.31 3.792 111.46 3.80267 111.588 3.824C112.164 3.888 112.569 4.08 112.804 4.4L113.22 4.88L113.156 13.264C113.134 18.7893 113.038 21.7653 112.868 22.192C112.59 22.832 112.057 23.152 111.268 23.152C111.012 23.152 110.82 23.1307 110.692 23.088C110.372 22.9813 110.158 22.9067 110.052 22.864C109.966 22.8 109.86 22.608 109.732 22.288C109.625 21.9467 109.561 21.4773 109.54 20.88C109.518 20.2827 109.508 19.3653 109.508 18.128C109.508 17.7867 109.508 17.0933 109.508 16.048C109.529 15.0027 109.54 14.128 109.54 13.424L109.572 4.784L110.18 4.272ZM131.376 1.52C131.738 1.15733 132.176 0.975998 132.688 0.975998C133.072 0.975998 133.413 1.09333 133.712 1.328C134.032 1.54133 134.256 1.85067 134.384 2.256C134.448 2.49067 134.554 3.6 134.704 5.584C134.853 7.54667 134.928 8.912 134.928 9.68C134.928 9.872 134.97 9.98933 135.056 10.032C135.162 10.0747 135.408 10.096 135.792 10.096C136.368 10.096 136.698 10.032 136.784 9.904C136.826 9.79733 137.264 9.744 138.096 9.744C139.162 9.744 139.866 9.81867 140.208 9.968C140.528 10.1173 140.773 10.4053 140.944 10.832C141.093 11.1307 141.168 11.376 141.168 11.568C141.168 11.7173 141.136 11.8987 141.072 12.112C140.922 12.6027 140.645 12.9333 140.24 13.104C139.856 13.2533 139.088 13.36 137.936 13.424C136.634 13.488 135.792 13.5733 135.408 13.68L134.896 13.808L135.024 18.32C135.066 20.3253 135.088 21.4027 135.088 21.552C135.088 22.4907 135.013 23.12 134.864 23.44C134.544 24.1227 134.021 24.464 133.296 24.464C133.018 24.464 132.73 24.4 132.432 24.272C132.197 24.1653 132.026 24.0693 131.92 23.984C131.813 23.8773 131.717 23.6107 131.632 23.184C131.546 22.736 131.493 22.2133 131.472 21.616C131.45 21.0187 131.429 20.0373 131.408 18.672L131.344 14.032L130.384 14.064C129.808 14.1067 129.296 14.192 128.848 14.32C128.741 14.3627 128.57 14.384 128.336 14.384C127.61 14.384 127.088 14.16 126.768 13.712C126.597 13.4347 126.512 13.0613 126.512 12.592C126.512 12.1867 126.576 11.8667 126.704 11.632C127.002 11.0987 128.048 10.6933 129.84 10.416L131.312 10.192L131.184 7.376C131.098 5.37067 131.024 4.00533 130.96 3.28C130.917 2.768 130.896 2.49067 130.896 2.448C130.896 2.14933 131.056 1.84 131.376 1.52ZM145.208 9.328C145.592 9.008 146.008 8.848 146.456 8.848C146.925 8.848 147.331 9.01867 147.672 9.36C148.013 9.68 148.184 10.096 148.184 10.608C148.184 11.12 148.28 11.376 148.472 11.376C148.579 11.376 148.803 11.2587 149.144 11.024C150.723 9.936 152.291 9.392 153.848 9.392C154.509 9.392 155.16 9.50933 155.8 9.744C156.376 9.97867 156.781 10.2347 157.016 10.512C157.251 10.7893 157.368 11.1627 157.368 11.632C157.368 12.144 157.176 12.5813 156.792 12.944C156.472 13.2427 156.184 13.392 155.928 13.392C155.843 13.392 155.245 13.3173 154.136 13.168C154.008 13.1467 153.827 13.136 153.592 13.136C153.251 13.136 152.813 13.2533 152.28 13.488C150.893 14.128 149.923 14.9387 149.368 15.92C148.813 16.9013 148.536 18.3093 148.536 20.144C148.515 21.488 148.355 22.4267 148.056 22.96C147.779 23.4933 147.277 23.76 146.552 23.76C146.061 23.76 145.645 23.5893 145.304 23.248L144.792 22.736L144.728 17.072C144.685 12.8907 144.664 10.736 144.664 10.608C144.664 10.096 144.845 9.66933 145.208 9.328ZM161.365 8.88C161.706 8.51733 162.122 8.336 162.613 8.336C163.53 8.336 164.117 8.69867 164.373 9.424C164.501 9.85067 164.565 11.0987 164.565 13.168C164.565 15.2587 164.629 16.624 164.757 17.264C165.077 18.736 165.728 19.472 166.709 19.472C166.901 19.472 167.104 19.44 167.317 19.376C167.616 19.2907 168 19.0027 168.469 18.512C168.96 18.0213 169.312 17.5733 169.525 17.168C169.909 16.3787 170.25 14.8107 170.549 12.464C170.762 10.864 171.093 9.89333 171.541 9.552C171.84 9.31733 172.17 9.2 172.533 9.2C172.938 9.2 173.312 9.34933 173.653 9.648C174.016 9.92533 174.261 10.288 174.389 10.736C174.496 11.2053 174.677 12.88 174.933 15.76C175.21 18.6187 175.349 20.4427 175.349 21.232V21.488C175.264 21.8933 175.061 22.2133 174.741 22.448C174.421 22.6827 174.069 22.8 173.685 22.8C173.322 22.8 172.97 22.6933 172.629 22.48C172.309 22.2667 172.085 21.9573 171.957 21.552C171.786 21.0613 171.69 20.816 171.669 20.816C171.584 20.816 171.221 21.0613 170.581 21.552C169.301 22.576 168.042 23.088 166.805 23.088H166.709C165.685 23.088 164.768 22.8427 163.957 22.352C163.146 21.8613 162.506 21.168 162.037 20.272C161.589 19.376 161.301 18.5653 161.173 17.84C161.045 17.0933 160.97 15.6533 160.949 13.52L160.853 9.456L161.365 8.88ZM180.294 2.864C180.571 2.75733 180.816 2.704 181.03 2.704C181.35 2.704 181.67 2.8 181.99 2.992C182.31 3.20533 182.523 3.44 182.63 3.696C182.758 3.952 182.822 4.44267 182.822 5.168C182.822 6 182.779 7.056 182.694 8.336C182.544 10.96 182.448 14.0533 182.406 17.616C182.406 21.0933 182.331 22.9707 182.182 23.248C182.075 23.4613 181.851 23.6747 181.51 23.888C181.19 24.08 180.912 24.176 180.678 24.176C180.422 24.176 180.134 24.0693 179.814 23.856C179.494 23.6427 179.27 23.408 179.142 23.152C178.886 22.64 178.758 20.9227 178.758 18C178.758 15.056 178.886 11.1733 179.142 6.352C179.206 5.09333 179.312 4.24 179.462 3.792C179.611 3.344 179.888 3.03467 180.294 2.864ZM198.259 8.272C198.473 8.208 198.633 8.176 198.739 8.176C198.825 8.176 199.07 8.26133 199.475 8.432C199.902 8.60267 200.201 8.89067 200.371 9.296C200.457 9.46667 200.499 9.65867 200.499 9.872C200.499 10.192 200.243 11.1627 199.731 12.784C198.793 15.792 197.609 18.8107 196.179 21.84C195.518 23.2907 194.505 25.168 193.139 27.472C191.774 29.7973 190.942 31.0453 190.643 31.216C190.302 31.4293 189.95 31.536 189.587 31.536C189.097 31.536 188.67 31.3653 188.307 31.024C187.966 30.704 187.795 30.2773 187.795 29.744C187.795 29.36 188.137 28.6347 188.819 27.568C189.353 26.736 190.046 25.5627 190.899 24.048C191.753 22.512 192.179 21.6907 192.179 21.584C192.179 21.52 191.945 21.0933 191.475 20.304C191.262 19.9627 190.505 18.576 189.203 16.144C187.923 13.6907 187.145 12.272 186.867 11.888C186.526 11.3973 186.355 10.9067 186.355 10.416C186.355 9.712 186.697 9.21067 187.379 8.912C187.635 8.80533 187.859 8.752 188.051 8.752C188.499 8.752 188.937 9.008 189.363 9.52C189.79 10.0107 190.334 10.864 190.995 12.08C192.425 14.7253 193.395 16.4533 193.907 17.264C194.014 17.4133 194.078 17.488 194.099 17.488C194.185 17.488 194.398 17.0293 194.739 16.112C195.23 14.768 195.721 13.3387 196.211 11.824C196.638 10.4587 196.979 9.552 197.235 9.104C197.513 8.656 197.854 8.37867 198.259 8.272ZM224.998 1.264C225.211 1.2 225.478 1.168 225.798 1.168C226.822 1.168 227.633 1.33867 228.23 1.68C229.041 2.17067 229.446 2.832 229.446 3.664C229.446 4.304 229.158 4.77333 228.582 5.072C228.305 5.22133 228.006 5.296 227.686 5.296C227.366 5.296 226.993 5.2 226.566 5.008C226.225 4.85867 226.043 4.784 226.022 4.784C225.937 4.784 225.798 4.88 225.606 5.072C225.371 5.30667 225.169 5.78667 224.998 6.512C224.827 7.23733 224.742 8.03733 224.742 8.912V9.584C224.742 9.88267 224.774 10.0853 224.838 10.192C224.902 10.2987 225.051 10.352 225.286 10.352C225.499 10.352 226.011 10.2987 226.822 10.192C227.014 10.1707 227.27 10.16 227.59 10.16C229.062 10.16 229.798 10.7573 229.798 11.952C229.777 12.5707 229.553 13.0187 229.126 13.296C228.721 13.552 227.995 13.7227 226.95 13.808C225.947 13.8933 225.393 13.968 225.286 14.032C225.265 14.032 225.254 14.128 225.254 14.32C225.254 14.8747 225.361 15.9733 225.574 17.616C225.787 19.2587 225.99 20.5493 226.182 21.488C226.267 22 226.31 22.352 226.31 22.544C226.31 23.2693 226.139 23.8453 225.798 24.272C225.457 24.6987 224.987 24.912 224.39 24.912C223.899 24.912 223.483 24.752 223.142 24.432C222.907 24.176 222.747 23.8987 222.662 23.6C222.598 23.28 222.502 22.448 222.374 21.104C222.161 19.0773 221.969 17.4773 221.798 16.304L221.51 14.288L219.942 14.224C219.217 14.1813 218.758 14.128 218.566 14.064C218.374 14 218.182 13.8613 217.99 13.648C217.713 13.3067 217.574 12.8907 217.574 12.4C217.574 12.1013 217.638 11.824 217.766 11.568C218.065 11.056 218.811 10.736 220.006 10.608L221.03 10.512L221.126 8.56C221.254 6.34133 221.627 4.656 222.246 3.504C222.865 2.33067 223.782 1.584 224.998 1.264ZM242.122 12.944C241.738 12.6667 241.13 12.528 240.298 12.528C239.786 12.528 239.38 12.592 239.082 12.72C238.804 12.848 238.484 13.1147 238.122 13.52C237.78 13.904 237.61 14.1813 237.61 14.352C237.61 14.5013 237.77 14.576 238.09 14.576C238.516 14.5547 239.402 14.4587 240.746 14.288C242.09 14.1173 242.783 14.0107 242.826 13.968C242.847 13.9467 242.858 13.9147 242.858 13.872C242.858 13.6373 242.612 13.328 242.122 12.944ZM238.666 9.04C239.05 8.93333 239.519 8.88 240.074 8.88C241.204 8.88 242.175 9.04 242.986 9.36C243.647 9.59467 244.298 10.0533 244.938 10.736C245.599 11.3973 246.143 12.144 246.57 12.976C246.996 13.8293 247.21 14.4053 247.21 14.704C247.21 15.3867 246.911 16.0267 246.314 16.624C245.674 17.2 243.679 17.6267 240.33 17.904C239.05 18.0107 238.218 18.096 237.834 18.16C237.45 18.224 237.258 18.32 237.258 18.448C237.258 18.5547 237.45 18.7787 237.834 19.12C238.495 19.76 239.679 20.144 241.386 20.272C241.556 20.2933 241.78 20.304 242.058 20.304C242.506 20.304 243.039 20.1973 243.658 19.984C244.532 19.664 245.226 19.504 245.738 19.504C246.506 19.504 247.007 19.888 247.242 20.656C247.306 20.848 247.338 21.0293 247.338 21.2C247.338 21.9253 246.879 22.5227 245.962 22.992C245.066 23.44 243.796 23.696 242.154 23.76C242.068 23.76 241.951 23.7707 241.802 23.792C241.652 23.792 241.546 23.792 241.482 23.792C239.668 23.792 238.1 23.44 236.778 22.736C235.476 22.0107 234.495 20.9867 233.834 19.664C233.514 19.024 233.354 18.1707 233.354 17.104C233.354 16.0373 233.46 15.1947 233.674 14.576C234.207 12.976 234.868 11.7493 235.658 10.896C236.447 10.0213 237.45 9.40267 238.666 9.04ZM252.263 2.864C252.54 2.75733 252.785 2.704 252.999 2.704C253.319 2.704 253.639 2.8 253.959 2.992C254.279 3.20533 254.492 3.44 254.599 3.696C254.727 3.952 254.791 4.44267 254.791 5.168C254.791 6 254.748 7.056 254.663 8.336C254.513 10.96 254.417 14.0533 254.375 17.616C254.375 21.0933 254.3 22.9707 254.151 23.248C254.044 23.4613 253.82 23.6747 253.479 23.888C253.159 24.08 252.881 24.176 252.647 24.176C252.391 24.176 252.103 24.0693 251.783 23.856C251.463 23.6427 251.239 23.408 251.111 23.152C250.855 22.64 250.727 20.9227 250.727 18C250.727 15.056 250.855 11.1733 251.111 6.352C251.175 5.09333 251.281 4.24 251.431 3.792C251.58 3.344 251.857 3.03467 252.263 2.864ZM263.188 1.52C263.551 1.15733 263.988 0.975998 264.5 0.975998C264.884 0.975998 265.225 1.09333 265.524 1.328C265.844 1.54133 266.068 1.85067 266.196 2.256C266.26 2.49067 266.367 3.6 266.516 5.584C266.665 7.54667 266.74 8.912 266.74 9.68C266.74 9.872 266.783 9.98933 266.868 10.032C266.975 10.0747 267.22 10.096 267.604 10.096C268.18 10.096 268.511 10.032 268.596 9.904C268.639 9.79733 269.076 9.744 269.908 9.744C270.975 9.744 271.679 9.81867 272.02 9.968C272.34 10.1173 272.585 10.4053 272.756 10.832C272.905 11.1307 272.98 11.376 272.98 11.568C272.98 11.7173 272.948 11.8987 272.884 12.112C272.735 12.6027 272.457 12.9333 272.052 13.104C271.668 13.2533 270.9 13.36 269.748 13.424C268.447 13.488 267.604 13.5733 267.22 13.68L266.708 13.808L266.836 18.32C266.879 20.3253 266.9 21.4027 266.9 21.552C266.9 22.4907 266.825 23.12 266.676 23.44C266.356 24.1227 265.833 24.464 265.108 24.464C264.831 24.464 264.543 24.4 264.244 24.272C264.009 24.1653 263.839 24.0693 263.732 23.984C263.625 23.8773 263.529 23.6107 263.444 23.184C263.359 22.736 263.305 22.2133 263.284 21.616C263.263 21.0187 263.241 20.0373 263.22 18.672L263.156 14.032L262.196 14.064C261.62 14.1067 261.108 14.192 260.66 14.32C260.553 14.3627 260.383 14.384 260.148 14.384C259.423 14.384 258.9 14.16 258.58 13.712C258.409 13.4347 258.324 13.0613 258.324 12.592C258.324 12.1867 258.388 11.8667 258.516 11.632C258.815 11.0987 259.86 10.6933 261.652 10.416L263.124 10.192L262.996 7.376C262.911 5.37067 262.836 4.00533 262.772 3.28C262.729 2.768 262.708 2.49067 262.708 2.448C262.708 2.14933 262.868 1.84 263.188 1.52ZM298.382 13.68C298.276 13.3387 298.18 13.1467 298.094 13.104C298.009 13.04 297.774 13.008 297.39 13.008C296.281 13.0293 295.246 13.552 294.286 14.576C293.326 15.5787 292.846 16.592 292.846 17.616C292.846 18.128 292.985 18.5547 293.262 18.896C293.881 19.5787 294.532 19.92 295.214 19.92C295.257 19.92 295.3 19.92 295.342 19.92C295.385 19.8987 295.428 19.888 295.47 19.888C295.854 19.8027 296.26 19.5467 296.686 19.12C297.134 18.6933 297.476 18.224 297.71 17.712C298.201 16.56 298.446 15.44 298.446 14.352C298.446 14.032 298.425 13.808 298.382 13.68ZM295.406 9.648C295.982 9.456 296.644 9.36 297.39 9.36C298.372 9.36 299.204 9.52 299.886 9.84C300.334 10.0747 300.74 10.4267 301.102 10.896C301.486 11.344 301.721 11.7707 301.806 12.176C301.892 12.5813 302.009 12.9653 302.158 13.328C302.393 13.9467 302.862 16.272 303.566 20.304C303.673 20.944 303.726 21.424 303.726 21.744C303.726 23.024 303.129 23.664 301.934 23.664C301.529 23.664 301.156 23.504 300.814 23.184C300.494 22.864 300.292 22.4693 300.206 22C300.121 21.5733 300.046 21.328 299.982 21.264C299.897 21.2 299.652 21.3707 299.246 21.776C298.03 22.992 296.633 23.6 295.054 23.6C294.777 23.6 294.489 23.568 294.19 23.504C293.017 23.248 291.918 22.608 290.894 21.584C289.742 20.432 289.166 19.1413 289.166 17.712C289.166 16.5813 289.518 15.3547 290.222 14.032C290.756 13.0293 291.481 12.1333 292.398 11.344C293.337 10.5547 294.34 9.98933 295.406 9.648ZM308.7 2.864C308.977 2.75733 309.223 2.704 309.436 2.704C309.756 2.704 310.076 2.8 310.396 2.992C310.716 3.20533 310.929 3.44 311.036 3.696C311.164 3.952 311.228 4.44267 311.228 5.168C311.228 6 311.185 7.056 311.1 8.336C310.951 10.96 310.855 14.0533 310.812 17.616C310.812 21.0933 310.737 22.9707 310.588 23.248C310.481 23.4613 310.257 23.6747 309.916 23.888C309.596 24.08 309.319 24.176 309.084 24.176C308.828 24.176 308.54 24.0693 308.22 23.856C307.9 23.6427 307.676 23.408 307.548 23.152C307.292 22.64 307.164 20.9227 307.164 18C307.164 15.056 307.292 11.1733 307.548 6.352C307.612 5.09333 307.719 4.24 307.868 3.792C308.017 3.344 308.295 3.03467 308.7 2.864ZM316.394 8.912C316.479 8.89067 316.607 8.88 316.778 8.88C317.183 8.88 317.556 8.98667 317.898 9.2C318.239 9.392 318.474 9.65867 318.602 10C318.687 10.192 318.772 11.6533 318.858 14.384C318.964 17.0933 319.018 19.2267 319.018 20.784C319.018 21.4453 319.007 21.8293 318.986 21.936C318.879 22.7467 318.527 23.2907 317.93 23.568C317.631 23.696 317.396 23.76 317.226 23.76C317.098 23.76 316.906 23.728 316.65 23.664C316.159 23.5147 315.85 23.312 315.722 23.056C315.466 22.5653 315.316 20.6667 315.274 17.36C315.274 16.7627 315.263 15.728 315.242 14.256L315.21 9.872L315.594 9.424C315.85 9.12533 316.116 8.95467 316.394 8.912ZM315.626 2.896C315.882 2.768 316.127 2.704 316.362 2.704C316.831 2.704 317.247 2.896 317.61 3.28C317.972 3.64267 318.154 4.06933 318.154 4.56C318.154 4.90133 318.068 5.2 317.898 5.456C317.535 6.032 317.044 6.32 316.426 6.32C316.02 6.32 315.647 6.18133 315.306 5.904C314.964 5.62667 314.751 5.24267 314.666 4.752C314.666 4.73067 314.655 4.69867 314.634 4.656C314.634 4.592 314.634 4.54933 314.634 4.528C314.634 4.208 314.73 3.89867 314.922 3.6C315.114 3.28 315.348 3.04533 315.626 2.896ZM322.543 10.352C322.543 9.904 322.713 9.52 323.055 9.2C323.417 8.85867 323.823 8.688 324.271 8.688C324.783 8.688 325.209 8.88 325.551 9.264C325.892 9.62667 326.265 10.3093 326.671 11.312C327.076 12.3573 327.695 13.7653 328.527 15.536C329.38 17.2853 329.849 18.16 329.935 18.16C329.999 18.16 330.361 17.552 331.023 16.336C331.428 15.568 332.068 14.4373 332.943 12.944C333.839 11.4507 334.361 10.5653 334.511 10.288C334.809 9.75467 335.076 9.41333 335.311 9.264C335.545 9.11467 335.908 9.04 336.399 9.04C336.868 9.04 337.273 9.21067 337.615 9.552C337.977 9.89333 338.159 10.2987 338.159 10.768C338.159 10.8747 338.137 11.0133 338.095 11.184C338.009 11.4613 337.583 12.24 336.815 13.52C334.191 17.808 332.612 20.8267 332.079 22.576C331.737 23.6853 331.055 24.24 330.031 24.24C329.753 24.24 329.455 24.176 329.135 24.048C328.836 23.92 328.559 23.6533 328.303 23.248C328.068 22.8213 327.46 21.6053 326.479 19.6C323.855 14.224 322.543 11.1413 322.543 10.352ZM351.554 13.808C351.17 13.616 350.626 13.52 349.922 13.52C349.154 13.52 348.504 13.6373 347.97 13.872C347.608 14.0213 347.138 14.352 346.562 14.864C345.986 15.3547 345.698 15.6747 345.698 15.824C345.698 15.888 346.029 15.92 346.69 15.92C347.672 15.92 348.845 15.8667 350.21 15.76C351.576 15.6533 352.354 15.536 352.546 15.408C352.61 15.3867 352.642 15.3227 352.642 15.216C352.642 15.024 352.525 14.7787 352.29 14.48C352.056 14.16 351.81 13.936 351.554 13.808ZM347.778 10.096C348.312 9.94667 348.941 9.872 349.666 9.872C351.01 9.872 352.237 10.1387 353.346 10.672C354.178 11.0987 354.872 11.7493 355.426 12.624C355.981 13.4773 356.322 14.4373 356.45 15.504C356.45 15.5467 356.45 15.6107 356.45 15.696C356.472 15.7813 356.482 15.8453 356.482 15.888C356.482 16.4427 356.376 16.9867 356.162 17.52C355.97 18.0533 355.736 18.416 355.458 18.608C355.096 18.864 352.546 19.184 347.81 19.568C346.808 19.6533 346.306 19.7493 346.306 19.856C346.306 19.984 346.53 20.1867 346.978 20.464C347.426 20.7413 347.864 20.9333 348.29 21.04C348.674 21.1253 348.984 21.168 349.218 21.168C349.901 21.168 350.786 20.944 351.874 20.496C352.642 20.176 353.208 20.016 353.57 20.016C353.933 20.016 354.274 20.176 354.594 20.496C355.021 20.9227 355.234 21.328 355.234 21.712C355.234 21.968 355.17 22.2347 355.042 22.512C354.936 22.768 354.786 22.9707 354.594 23.12C354.424 23.2693 354.104 23.4507 353.634 23.664C352.077 24.3467 350.626 24.688 349.282 24.688C348.514 24.688 347.725 24.5707 346.914 24.336C345.826 23.9947 344.834 23.4187 343.938 22.608C343.042 21.776 342.402 20.8587 342.018 19.856C341.784 19.1947 341.666 18.4587 341.666 17.648C341.666 16.4747 341.858 15.4933 342.242 14.704C342.69 13.7227 343.448 12.784 344.514 11.888C345.581 10.992 346.669 10.3947 347.778 10.096ZM361.099 20.56C361.483 20.4107 361.707 20.336 361.771 20.336L362.379 20.56C363.147 20.88 363.531 21.456 363.531 22.288C363.531 22.736 363.339 23.1627 362.955 23.568C362.592 23.9733 362.208 24.176 361.803 24.176C361.419 24.176 361.056 24.048 360.715 23.792C360.395 23.5147 360.171 23.1733 360.043 22.768C359.979 22.576 359.947 22.3947 359.947 22.224C359.947 21.84 360.053 21.4987 360.267 21.2C360.48 20.88 360.757 20.6667 361.099 20.56Z" fill="#27263C"/>
</svg>
