<svg width="397" height="32" viewBox="0 0 397 32" fill="none" xmlns="http://www.w3.org/2000/svg">
<path d="M3 2.128C3.23467 1.91467 3.544 1.808 3.928 1.808C4.39733 1.808 4.81333 1.968 5.176 2.288C5.38933 2.50133 5.77333 3.07733 6.328 4.016C6.88267 4.95467 7.45867 5.94667 8.056 6.992C8.65333 8.03733 9.00533 8.64533 9.112 8.816C9.56 9.47733 10.0507 10.1707 10.584 10.896C11.1387 11.6 11.448 11.952 11.512 11.952C11.5547 11.952 11.896 11.3973 12.536 10.288C13.0907 9.264 13.8373 8.048 14.776 6.64C15.7147 5.232 16.3973 4.304 16.824 3.856C17.2507 3.42933 17.7093 3.216 18.2 3.216C18.4987 3.216 18.7547 3.25867 18.968 3.344C19.2027 3.408 19.416 3.55733 19.608 3.792C19.8213 4.00533 19.992 4.28267 20.12 4.624C20.2693 4.944 20.408 5.41333 20.536 6.032C20.6853 6.65067 20.8027 7.33333 20.888 8.08C20.9733 8.80533 21.0587 9.75467 21.144 10.928C21.2507 12.08 21.336 13.3067 21.4 14.608C21.4853 15.9093 21.5707 17.488 21.656 19.344L21.88 23.664L21.336 24.208C20.952 24.592 20.5253 24.784 20.056 24.784C19.5867 24.784 19.1707 24.6027 18.808 24.24L18.296 23.728L18.04 19.12C17.72 13.1253 17.5067 9.95733 17.4 9.616C17.3573 9.50933 17.3147 9.44533 17.272 9.424C17.208 9.424 17.016 9.69067 16.696 10.224C16.2693 10.8853 15.672 11.9627 14.904 13.456C14.2 14.8213 13.6453 15.728 13.24 16.176C12.8347 16.624 12.3547 16.848 11.8 16.848C11.4587 16.848 11.192 16.7947 11 16.688C10.8293 16.56 10.488 16.24 9.976 15.728C9.42133 15.152 8.71733 14.32 7.864 13.232C7.032 12.1227 6.38133 11.184 5.912 10.416C5.57067 9.88267 5.34667 9.616 5.24 9.616H5.208C5.144 9.65867 5.06933 10.1067 4.984 10.96C4.92 11.792 4.84533 12.816 4.76 14.032C4.67467 15.2267 4.6 16.4107 4.536 17.584C4.472 18.7573 4.408 19.792 4.344 20.688C4.30133 21.584 4.28 22.0533 4.28 22.096C4.19467 23.248 3.77867 23.9413 3.032 24.176C2.88267 24.24 2.712 24.272 2.52 24.272C1.85867 24.272 1.32533 23.984 0.92 23.408C0.792 23.216 0.728 22.864 0.728 22.352C0.728 21.584 0.92 18.4053 1.304 12.816C1.624 8.272 1.86933 5.44533 2.04 4.336C2.21067 3.22667 2.53067 2.49067 3 2.128ZM34.5698 13.68C34.4631 13.3387 34.3671 13.1467 34.2818 13.104C34.1964 13.04 33.9618 13.008 33.5778 13.008C32.4684 13.0293 31.4338 13.552 30.4738 14.576C29.5138 15.5787 29.0338 16.592 29.0338 17.616C29.0338 18.128 29.1724 18.5547 29.4498 18.896C30.0684 19.5787 30.7191 19.92 31.4018 19.92C31.4444 19.92 31.4871 19.92 31.5298 19.92C31.5724 19.8987 31.6151 19.888 31.6578 19.888C32.0418 19.8027 32.4471 19.5467 32.8738 19.12C33.3218 18.6933 33.6631 18.224 33.8978 17.712C34.3884 16.56 34.6338 15.44 34.6338 14.352C34.6338 14.032 34.6124 13.808 34.5698 13.68ZM31.5938 9.648C32.1698 9.456 32.8311 9.36 33.5778 9.36C34.5591 9.36 35.3911 9.52 36.0738 9.84C36.5218 10.0747 36.9271 10.4267 37.2898 10.896C37.6738 11.344 37.9084 11.7707 37.9938 12.176C38.0791 12.5813 38.1964 12.9653 38.3458 13.328C38.5804 13.9467 39.0498 16.272 39.7537 20.304C39.8604 20.944 39.9138 21.424 39.9138 21.744C39.9138 23.024 39.3164 23.664 38.1218 23.664C37.7164 23.664 37.3431 23.504 37.0018 23.184C36.6818 22.864 36.4791 22.4693 36.3938 22C36.3084 21.5733 36.2338 21.328 36.1698 21.264C36.0844 21.2 35.8391 21.3707 35.4338 21.776C34.2178 22.992 32.8204 23.6 31.2418 23.6C30.9644 23.6 30.6764 23.568 30.3778 23.504C29.2044 23.248 28.1058 22.608 27.0818 21.584C25.9298 20.432 25.3538 19.1413 25.3538 17.712C25.3538 16.5813 25.7058 15.3547 26.4098 14.032C26.9431 13.0293 27.6684 12.1333 28.5858 11.344C29.5244 10.5547 30.5271 9.98933 31.5938 9.648ZM55.4155 8.272C55.6288 8.208 55.7888 8.176 55.8955 8.176C55.9808 8.176 56.2262 8.26133 56.6315 8.432C57.0582 8.60267 57.3568 8.89067 57.5275 9.296C57.6128 9.46667 57.6555 9.65867 57.6555 9.872C57.6555 10.192 57.3995 11.1627 56.8875 12.784C55.9488 15.792 54.7648 18.8107 53.3355 21.84C52.6742 23.2907 51.6608 25.168 50.2955 27.472C48.9302 29.7973 48.0982 31.0453 47.7995 31.216C47.4582 31.4293 47.1062 31.536 46.7435 31.536C46.2528 31.536 45.8262 31.3653 45.4635 31.024C45.1222 30.704 44.9515 30.2773 44.9515 29.744C44.9515 29.36 45.2928 28.6347 45.9755 27.568C46.5088 26.736 47.2022 25.5627 48.0555 24.048C48.9088 22.512 49.3355 21.6907 49.3355 21.584C49.3355 21.52 49.1008 21.0933 48.6315 20.304C48.4182 19.9627 47.6608 18.576 46.3595 16.144C45.0795 13.6907 44.3008 12.272 44.0235 11.888C43.6822 11.3973 43.5115 10.9067 43.5115 10.416C43.5115 9.712 43.8528 9.21067 44.5355 8.912C44.7915 8.80533 45.0155 8.752 45.2075 8.752C45.6555 8.752 46.0928 9.008 46.5195 9.52C46.9462 10.0107 47.4902 10.864 48.1515 12.08C49.5808 14.7253 50.5515 16.4533 51.0635 17.264C51.1702 17.4133 51.2342 17.488 51.2555 17.488C51.3408 17.488 51.5542 17.0293 51.8955 16.112C52.3862 14.768 52.8768 13.3387 53.3675 11.824C53.7942 10.4587 54.1355 9.552 54.3915 9.104C54.6688 8.656 55.0102 8.37867 55.4155 8.272ZM72.0455 15.152C71.6402 14.64 71.0642 14.2133 70.3175 13.872C69.5708 13.5307 68.7068 13.36 67.7255 13.36C67.1282 13.36 66.6695 13.4347 66.3495 13.584C66.0082 13.7333 65.6775 14.0747 65.3575 14.608C65.0588 15.12 64.9095 15.7493 64.9095 16.496V17.04C64.9735 18.5547 65.0162 19.4507 65.0375 19.728L65.1655 20.752L65.9335 20.88C66.2322 20.9227 66.4775 20.944 66.6695 20.944C67.9282 20.944 69.0695 20.6987 70.0935 20.208C70.6055 19.9733 71.0962 19.5893 71.5655 19.056C72.0562 18.5013 72.3868 17.9573 72.5575 17.424C72.6428 17.1253 72.6855 16.8907 72.6855 16.72C72.6855 16.1653 72.4722 15.6427 72.0455 15.152ZM61.9655 2.416C62.1788 2.30933 62.4348 2.256 62.7335 2.256C63.2455 2.256 63.6935 2.448 64.0775 2.832C64.3122 3.06667 64.4508 3.35467 64.4935 3.696C64.5575 4.016 64.6428 5.02933 64.7495 6.736C64.8562 8.976 64.9308 10.1173 64.9735 10.16H65.0055C65.1122 10.16 65.4855 10.0853 66.1255 9.936C66.8722 9.76533 67.5228 9.68 68.0775 9.68C69.1442 9.68 70.4455 10.032 71.9815 10.736C73.7308 11.5467 74.9575 12.6773 75.6615 14.128C75.8748 14.576 76.0028 14.9493 76.0455 15.248C76.1095 15.5467 76.1415 16.048 76.1415 16.752C76.1415 17.456 76.1095 17.9573 76.0455 18.256C75.9815 18.5333 75.8108 18.96 75.5335 19.536C74.9148 20.7307 74.0615 21.744 72.9735 22.576C71.8855 23.408 70.6802 23.9627 69.3575 24.24C68.5895 24.4107 67.7895 24.496 66.9575 24.496C66.1682 24.496 65.2402 24.4213 64.1735 24.272C63.3628 24.144 62.8295 24.0373 62.5735 23.952C62.3175 23.8667 62.0828 23.7067 61.8695 23.472L61.3895 22.96V17.968C61.3895 14.96 61.3255 11.7067 61.1975 8.208C61.1335 6.56533 61.1015 5.38133 61.1015 4.656C61.1015 3.80267 61.1548 3.25867 61.2615 3.024C61.3682 2.78933 61.6028 2.58667 61.9655 2.416ZM89.5543 13.808C89.1703 13.616 88.6263 13.52 87.9223 13.52C87.1543 13.52 86.5036 13.6373 85.9703 13.872C85.6076 14.0213 85.1383 14.352 84.5623 14.864C83.9863 15.3547 83.6983 15.6747 83.6983 15.824C83.6983 15.888 84.0289 15.92 84.6903 15.92C85.6716 15.92 86.8449 15.8667 88.2103 15.76C89.5756 15.6533 90.3543 15.536 90.5463 15.408C90.6103 15.3867 90.6423 15.3227 90.6423 15.216C90.6423 15.024 90.5249 14.7787 90.2903 14.48C90.0556 14.16 89.8103 13.936 89.5543 13.808ZM85.7783 10.096C86.3116 9.94667 86.9409 9.872 87.6663 9.872C89.0103 9.872 90.2369 10.1387 91.3463 10.672C92.1783 11.0987 92.8716 11.7493 93.4263 12.624C93.9809 13.4773 94.3223 14.4373 94.4503 15.504C94.4503 15.5467 94.4503 15.6107 94.4503 15.696C94.4716 15.7813 94.4823 15.8453 94.4823 15.888C94.4823 16.4427 94.3756 16.9867 94.1623 17.52C93.9703 18.0533 93.7356 18.416 93.4583 18.608C93.0956 18.864 90.5463 19.184 85.8103 19.568C84.8076 19.6533 84.3063 19.7493 84.3063 19.856C84.3063 19.984 84.5303 20.1867 84.9783 20.464C85.4263 20.7413 85.8636 20.9333 86.2903 21.04C86.6743 21.1253 86.9836 21.168 87.2183 21.168C87.9009 21.168 88.7863 20.944 89.8743 20.496C90.6423 20.176 91.2076 20.016 91.5703 20.016C91.9329 20.016 92.2743 20.176 92.5943 20.496C93.0209 20.9227 93.2343 21.328 93.2343 21.712C93.2343 21.968 93.1703 22.2347 93.0423 22.512C92.9356 22.768 92.7863 22.9707 92.5943 23.12C92.4236 23.2693 92.1036 23.4507 91.6343 23.664C90.0769 24.3467 88.6263 24.688 87.2823 24.688C86.5143 24.688 85.7249 24.5707 84.9143 24.336C83.8263 23.9947 82.8343 23.4187 81.9383 22.608C81.0423 21.776 80.4023 20.8587 80.0182 19.856C79.7836 19.1947 79.6663 18.4587 79.6663 17.648C79.6663 16.4747 79.8583 15.4933 80.2423 14.704C80.6903 13.7227 81.4476 12.784 82.5143 11.888C83.5809 10.992 84.6689 10.3947 85.7783 10.096ZM107.741 8.816C108.061 8.496 108.466 8.336 108.957 8.336C109.618 8.336 110.077 8.56 110.333 9.008C110.61 9.43467 111.047 10.64 111.645 12.624C111.815 13.1787 112.029 13.8933 112.285 14.768C113.01 17.072 113.426 18.2453 113.533 18.288C113.661 18.288 113.949 17.648 114.397 16.368C115.122 14.192 115.719 12.6667 116.189 11.792C116.679 10.9173 117.255 10.3413 117.917 10.064C118.237 9.91467 118.557 9.84 118.877 9.84C119.346 9.84 119.773 10.064 120.157 10.512C120.562 10.9387 121.01 11.664 121.501 12.688C123.378 16.6773 124.37 18.672 124.477 18.672C124.519 18.672 124.765 18 125.213 16.656C125.682 15.2907 126.173 13.8827 126.685 12.432C127.218 10.9813 127.57 10.16 127.741 9.968C128.082 9.584 128.487 9.392 128.957 9.392C129.469 9.392 129.938 9.616 130.365 10.064C130.599 10.2987 130.717 10.608 130.717 10.992C130.717 11.6107 130.226 13.36 129.245 16.24C128.221 19.248 127.431 21.2213 126.877 22.16C126.322 23.0773 125.629 23.536 124.797 23.536C124.541 23.536 124.349 23.5253 124.221 23.504C123.538 23.3973 122.951 23.0453 122.461 22.448C121.97 21.8507 121.255 20.5707 120.317 18.608C119.271 16.432 118.717 15.344 118.653 15.344C118.589 15.344 118.397 15.792 118.077 16.688C117.053 19.632 116.327 21.5413 115.901 22.416C115.474 23.2907 115.026 23.8347 114.557 24.048C114.194 24.1973 113.767 24.272 113.277 24.272C112.85 24.272 112.519 24.2187 112.285 24.112C111.858 23.8987 111.346 23.0453 110.749 21.552C110.151 20.0587 109.309 17.4987 108.221 13.872C107.602 11.824 107.293 10.512 107.293 9.936C107.293 9.488 107.442 9.11467 107.741 8.816ZM134.933 1.552C135.295 1.25333 135.669 1.104 136.053 1.104C136.821 1.104 137.386 1.57333 137.749 2.512C137.898 2.93867 138.058 3.96267 138.229 5.584C138.399 7.184 138.538 8.67733 138.645 10.064C138.751 11.4293 138.815 12.112 138.837 12.112C138.879 12.112 139.231 11.8773 139.893 11.408C141.194 10.4907 142.431 10.032 143.605 10.032C144.693 10.032 145.642 10.4373 146.453 11.248C147.285 12.0373 147.935 13.2 148.405 14.736C148.767 15.9307 148.949 17.7867 148.949 20.304C148.949 21.8827 148.853 22.9493 148.661 23.504C148.447 24.08 147.957 24.368 147.189 24.368C146.677 24.368 146.25 24.1973 145.909 23.856L145.429 23.376L145.333 20.144C145.205 15.984 144.629 13.84 143.605 13.712H143.509C143.018 13.712 142.41 13.9893 141.685 14.544C140.959 15.0773 140.437 15.664 140.117 16.304C139.925 16.7307 139.669 17.04 139.349 17.232L138.933 17.52L138.869 21.008C138.826 22.7147 138.783 23.7493 138.741 24.112C138.719 24.4533 138.602 24.7307 138.389 24.944C138.047 25.3067 137.621 25.488 137.109 25.488C136.341 25.488 135.807 25.1467 135.509 24.464C135.359 24.0587 135.253 21.6053 135.189 17.104C135.082 9.57333 134.805 5.06133 134.357 3.568C134.293 3.33333 134.261 3.10933 134.261 2.896C134.261 2.34133 134.485 1.89333 134.933 1.552ZM161.664 13.68C161.557 13.3387 161.461 13.1467 161.376 13.104C161.29 13.04 161.056 13.008 160.672 13.008C159.562 13.0293 158.528 13.552 157.568 14.576C156.608 15.5787 156.128 16.592 156.128 17.616C156.128 18.128 156.266 18.5547 156.544 18.896C157.162 19.5787 157.813 19.92 158.496 19.92C158.538 19.92 158.581 19.92 158.624 19.92C158.666 19.8987 158.709 19.888 158.752 19.888C159.136 19.8027 159.541 19.5467 159.968 19.12C160.416 18.6933 160.757 18.224 160.992 17.712C161.482 16.56 161.728 15.44 161.728 14.352C161.728 14.032 161.706 13.808 161.664 13.68ZM158.688 9.648C159.264 9.456 159.925 9.36 160.672 9.36C161.653 9.36 162.485 9.52 163.168 9.84C163.616 10.0747 164.021 10.4267 164.384 10.896C164.768 11.344 165.002 11.7707 165.088 12.176C165.173 12.5813 165.29 12.9653 165.44 13.328C165.674 13.9467 166.144 16.272 166.847 20.304C166.954 20.944 167.008 21.424 167.008 21.744C167.008 23.024 166.41 23.664 165.216 23.664C164.81 23.664 164.437 23.504 164.096 23.184C163.776 22.864 163.573 22.4693 163.488 22C163.402 21.5733 163.328 21.328 163.264 21.264C163.178 21.2 162.933 21.3707 162.528 21.776C161.312 22.992 159.914 23.6 158.336 23.6C158.058 23.6 157.77 23.568 157.472 23.504C156.298 23.248 155.2 22.608 154.176 21.584C153.024 20.432 152.448 19.1413 152.448 17.712C152.448 16.5813 152.8 15.3547 153.504 14.032C154.037 13.0293 154.762 12.1333 155.68 11.344C156.618 10.5547 157.621 9.98933 158.688 9.648ZM175.469 1.52C175.832 1.15733 176.269 0.975998 176.781 0.975998C177.165 0.975998 177.507 1.09333 177.805 1.328C178.125 1.54133 178.349 1.85067 178.477 2.256C178.541 2.49067 178.648 3.6 178.797 5.584C178.947 7.54667 179.021 8.912 179.021 9.68C179.021 9.872 179.064 9.98933 179.149 10.032C179.256 10.0747 179.501 10.096 179.885 10.096C180.461 10.096 180.792 10.032 180.877 9.904C180.92 9.79733 181.357 9.744 182.189 9.744C183.256 9.744 183.96 9.81867 184.301 9.968C184.621 10.1173 184.867 10.4053 185.037 10.832C185.187 11.1307 185.261 11.376 185.261 11.568C185.261 11.7173 185.229 11.8987 185.165 12.112C185.016 12.6027 184.739 12.9333 184.333 13.104C183.949 13.2533 183.181 13.36 182.029 13.424C180.728 13.488 179.885 13.5733 179.501 13.68L178.989 13.808L179.117 18.32C179.16 20.3253 179.181 21.4027 179.181 21.552C179.181 22.4907 179.107 23.12 178.957 23.44C178.637 24.1227 178.115 24.464 177.389 24.464C177.112 24.464 176.824 24.4 176.525 24.272C176.291 24.1653 176.12 24.0693 176.013 23.984C175.907 23.8773 175.811 23.6107 175.725 23.184C175.64 22.736 175.587 22.2133 175.565 21.616C175.544 21.0187 175.523 20.0373 175.501 18.672L175.437 14.032L174.477 14.064C173.901 14.1067 173.389 14.192 172.941 14.32C172.835 14.3627 172.664 14.384 172.429 14.384C171.704 14.384 171.181 14.16 170.861 13.712C170.691 13.4347 170.605 13.0613 170.605 12.592C170.605 12.1867 170.669 11.8667 170.797 11.632C171.096 11.0987 172.141 10.6933 173.933 10.416L175.405 10.192L175.277 7.376C175.192 5.37067 175.117 4.00533 175.053 3.28C175.011 2.768 174.989 2.49067 174.989 2.448C174.989 2.14933 175.149 1.84 175.469 1.52ZM193.654 3.504C193.376 4.63467 192.982 5.872 192.47 7.216C191.958 8.56 191.435 9.81867 190.902 10.992H187.478C187.776 9.73333 188.075 8.38933 188.374 6.96C188.672 5.53067 188.896 4.26133 189.046 3.152H193.43L193.654 3.504ZM199.279 8.208C199.663 8.10133 200.261 8.048 201.071 8.048C202.778 8.048 204.015 8.176 204.783 8.432C205.85 8.77333 206.383 9.36 206.383 10.192C206.383 10.6827 206.149 11.1307 205.679 11.536C205.359 11.8347 205.05 11.984 204.751 11.984C204.73 11.984 204.687 11.984 204.623 11.984C204.559 11.9627 204.506 11.952 204.463 11.952C203.055 11.7173 201.946 11.6 201.135 11.6C200.879 11.6 200.645 11.6213 200.431 11.664C199.77 11.8347 199.439 12.144 199.439 12.592C199.439 12.6773 199.45 12.7413 199.471 12.784C199.621 13.2107 200.463 13.744 201.999 14.384C204.751 15.536 206.447 16.9653 207.087 18.672C207.279 19.184 207.375 19.664 207.375 20.112C207.375 20.9013 207.087 21.5733 206.511 22.128C205.957 22.6827 205.167 23.056 204.143 23.248C203.717 23.3333 203.013 23.376 202.031 23.376C200.239 23.376 199.098 23.2693 198.607 23.056C198.33 22.928 198.095 22.7147 197.903 22.416C197.711 22.096 197.615 21.7867 197.615 21.488C197.615 21.168 197.722 20.848 197.935 20.528C198.149 20.1867 198.405 19.952 198.703 19.824C198.981 19.7173 199.311 19.664 199.695 19.664C199.845 19.664 200.175 19.6853 200.687 19.728C201.029 19.7707 201.487 19.792 202.063 19.792C202.959 19.792 203.407 19.6853 203.407 19.472C203.407 19.088 202.479 18.512 200.623 17.744C198.959 17.0187 197.733 16.2613 196.943 15.472C196.175 14.6613 195.791 13.744 195.791 12.72C195.791 12.5493 195.813 12.2933 195.855 11.952C196.026 10.9067 196.453 10.0747 197.135 9.456C197.69 8.90133 198.405 8.48533 199.279 8.208ZM226.081 8.912C226.166 8.89067 226.294 8.88 226.465 8.88C226.87 8.88 227.244 8.98667 227.585 9.2C227.926 9.392 228.161 9.65867 228.289 10C228.374 10.192 228.46 11.6533 228.545 14.384C228.652 17.0933 228.705 19.2267 228.705 20.784C228.705 21.4453 228.694 21.8293 228.673 21.936C228.566 22.7467 228.214 23.2907 227.617 23.568C227.318 23.696 227.084 23.76 226.913 23.76C226.785 23.76 226.593 23.728 226.337 23.664C225.846 23.5147 225.537 23.312 225.409 23.056C225.153 22.5653 225.004 20.6667 224.961 17.36C224.961 16.7627 224.95 15.728 224.929 14.256L224.897 9.872L225.281 9.424C225.537 9.12533 225.804 8.95467 226.081 8.912ZM225.313 2.896C225.569 2.768 225.814 2.704 226.049 2.704C226.518 2.704 226.934 2.896 227.297 3.28C227.66 3.64267 227.841 4.06933 227.841 4.56C227.841 4.90133 227.756 5.2 227.585 5.456C227.222 6.032 226.732 6.32 226.113 6.32C225.708 6.32 225.334 6.18133 224.993 5.904C224.652 5.62667 224.438 5.24267 224.353 4.752C224.353 4.73067 224.342 4.69867 224.321 4.656C224.321 4.592 224.321 4.54933 224.321 4.528C224.321 4.208 224.417 3.89867 224.609 3.6C224.801 3.28 225.036 3.04533 225.313 2.896ZM232.998 9.072C233.254 8.944 233.521 8.88 233.798 8.88C234.182 8.88 234.545 9.008 234.886 9.264C235.228 9.49867 235.462 9.81867 235.59 10.224L235.782 10.896L236.582 10.416C237.116 10.096 237.852 9.936 238.79 9.936C239.708 9.936 240.465 10.0853 241.062 10.384C241.553 10.6187 242.076 11.0027 242.63 11.536C243.206 12.0693 243.665 12.6027 244.006 13.136C245.158 14.9493 245.788 17.7653 245.894 21.584V22.224C245.894 22.736 245.745 23.152 245.446 23.472C245.084 23.8347 244.657 24.016 244.166 24.016C243.377 24.016 242.854 23.6747 242.598 22.992C242.47 22.6293 242.364 21.9147 242.278 20.848C242.022 17.1147 241.19 14.7787 239.782 13.84C239.484 13.648 239.185 13.552 238.886 13.552C238.332 13.552 237.83 13.8613 237.382 14.48C236.956 15.0773 236.614 15.9307 236.358 17.04C236.252 17.5307 236.124 18.416 235.974 19.696C235.825 20.976 235.75 21.84 235.75 22.288C235.75 22.5013 235.569 22.7893 235.206 23.152C234.844 23.4933 234.428 23.664 233.958 23.664C233.084 23.664 232.508 23.2053 232.23 22.288C232.102 21.84 232.038 19.8987 232.038 16.464C232.038 12.368 232.113 10.1387 232.262 9.776C232.39 9.49867 232.636 9.264 232.998 9.072ZM254.44 2.192C254.781 1.97867 255.101 1.872 255.4 1.872C255.634 1.872 255.901 1.936 256.2 2.064C256.648 2.27733 256.936 2.608 257.064 3.056C257.192 3.504 257.277 4.57067 257.32 6.256L257.416 9.424L258.888 9.328C259.058 9.30667 259.304 9.296 259.624 9.296C260.392 9.296 260.936 9.43467 261.256 9.712C261.597 9.98933 261.768 10.4373 261.768 11.056C261.768 11.7173 261.544 12.1867 261.096 12.464C260.669 12.7413 259.837 12.9333 258.6 13.04L257.256 13.168L257.032 17.616C256.882 20.624 256.744 22.288 256.616 22.608C256.338 23.248 255.805 23.568 255.016 23.568C254.568 23.568 254.216 23.4507 253.96 23.216C253.682 23.0027 253.49 22.768 253.384 22.512C253.277 22.256 253.224 21.84 253.224 21.264C253.224 20.7947 253.256 20.0907 253.32 19.152C253.426 17.4667 253.501 16.0267 253.544 14.832L253.576 13.328L252.136 13.296C251.325 13.2747 250.77 13.2107 250.472 13.104C250.173 12.976 249.917 12.72 249.704 12.336C249.576 12.08 249.512 11.8133 249.512 11.536C249.512 11.024 249.725 10.576 250.152 10.192C250.386 9.97867 250.685 9.84 251.048 9.776C251.41 9.69067 252.082 9.60533 253.064 9.52L253.576 9.456L253.704 6.064C253.725 5.552 253.736 4.99733 253.736 4.4C253.757 3.78133 253.768 3.32266 253.768 3.024L253.8 2.576L253.896 2.512C253.96 2.46933 254.045 2.416 254.152 2.352C254.258 2.288 254.354 2.23467 254.44 2.192ZM275.211 13.808C274.827 13.616 274.283 13.52 273.579 13.52C272.811 13.52 272.16 13.6373 271.627 13.872C271.264 14.0213 270.795 14.352 270.219 14.864C269.643 15.3547 269.355 15.6747 269.355 15.824C269.355 15.888 269.685 15.92 270.347 15.92C271.328 15.92 272.501 15.8667 273.867 15.76C275.232 15.6533 276.011 15.536 276.203 15.408C276.267 15.3867 276.299 15.3227 276.299 15.216C276.299 15.024 276.181 14.7787 275.947 14.48C275.712 14.16 275.467 13.936 275.211 13.808ZM271.435 10.096C271.968 9.94667 272.597 9.872 273.323 9.872C274.667 9.872 275.893 10.1387 277.003 10.672C277.835 11.0987 278.528 11.7493 279.083 12.624C279.637 13.4773 279.979 14.4373 280.107 15.504C280.107 15.5467 280.107 15.6107 280.107 15.696C280.128 15.7813 280.139 15.8453 280.139 15.888C280.139 16.4427 280.032 16.9867 279.819 17.52C279.627 18.0533 279.392 18.416 279.115 18.608C278.752 18.864 276.203 19.184 271.467 19.568C270.464 19.6533 269.963 19.7493 269.963 19.856C269.963 19.984 270.187 20.1867 270.635 20.464C271.083 20.7413 271.52 20.9333 271.947 21.04C272.331 21.1253 272.64 21.168 272.875 21.168C273.557 21.168 274.443 20.944 275.531 20.496C276.299 20.176 276.864 20.016 277.227 20.016C277.589 20.016 277.931 20.176 278.251 20.496C278.677 20.9227 278.891 21.328 278.891 21.712C278.891 21.968 278.827 22.2347 278.699 22.512C278.592 22.768 278.443 22.9707 278.251 23.12C278.08 23.2693 277.76 23.4507 277.291 23.664C275.733 24.3467 274.283 24.688 272.939 24.688C272.171 24.688 271.381 24.5707 270.571 24.336C269.483 23.9947 268.491 23.4187 267.595 22.608C266.699 21.776 266.059 20.8587 265.674 19.856C265.44 19.1947 265.323 18.4587 265.323 17.648C265.323 16.4747 265.515 15.4933 265.899 14.704C266.347 13.7227 267.104 12.784 268.171 11.888C269.237 10.992 270.325 10.3947 271.435 10.096ZM284.083 9.328C284.467 9.008 284.883 8.848 285.331 8.848C285.8 8.848 286.206 9.01867 286.547 9.36C286.888 9.68 287.059 10.096 287.059 10.608C287.059 11.12 287.155 11.376 287.347 11.376C287.454 11.376 287.678 11.2587 288.019 11.024C289.598 9.936 291.166 9.392 292.723 9.392C293.384 9.392 294.035 9.50933 294.675 9.744C295.251 9.97867 295.656 10.2347 295.891 10.512C296.126 10.7893 296.243 11.1627 296.243 11.632C296.243 12.144 296.051 12.5813 295.667 12.944C295.347 13.2427 295.059 13.392 294.803 13.392C294.718 13.392 294.12 13.3173 293.011 13.168C292.883 13.1467 292.702 13.136 292.467 13.136C292.126 13.136 291.688 13.2533 291.155 13.488C289.768 14.128 288.798 14.9387 288.243 15.92C287.688 16.9013 287.411 18.3093 287.411 20.144C287.39 21.488 287.23 22.4267 286.931 22.96C286.654 23.4933 286.152 23.76 285.427 23.76C284.936 23.76 284.52 23.5893 284.179 23.248L283.667 22.736L283.603 17.072C283.56 12.8907 283.539 10.736 283.539 10.608C283.539 10.096 283.72 9.66933 284.083 9.328ZM309.648 13.808C309.264 13.616 308.72 13.52 308.016 13.52C307.248 13.52 306.597 13.6373 306.064 13.872C305.701 14.0213 305.232 14.352 304.656 14.864C304.08 15.3547 303.792 15.6747 303.792 15.824C303.792 15.888 304.123 15.92 304.784 15.92C305.765 15.92 306.939 15.8667 308.304 15.76C309.669 15.6533 310.448 15.536 310.64 15.408C310.704 15.3867 310.736 15.3227 310.736 15.216C310.736 15.024 310.619 14.7787 310.384 14.48C310.149 14.16 309.904 13.936 309.648 13.808ZM305.872 10.096C306.405 9.94667 307.035 9.872 307.76 9.872C309.104 9.872 310.331 10.1387 311.44 10.672C312.272 11.0987 312.965 11.7493 313.52 12.624C314.075 13.4773 314.416 14.4373 314.544 15.504C314.544 15.5467 314.544 15.6107 314.544 15.696C314.565 15.7813 314.576 15.8453 314.576 15.888C314.576 16.4427 314.469 16.9867 314.256 17.52C314.064 18.0533 313.829 18.416 313.552 18.608C313.189 18.864 310.64 19.184 305.904 19.568C304.901 19.6533 304.4 19.7493 304.4 19.856C304.4 19.984 304.624 20.1867 305.072 20.464C305.52 20.7413 305.957 20.9333 306.384 21.04C306.768 21.1253 307.077 21.168 307.312 21.168C307.995 21.168 308.88 20.944 309.968 20.496C310.736 20.176 311.301 20.016 311.664 20.016C312.027 20.016 312.368 20.176 312.688 20.496C313.115 20.9227 313.328 21.328 313.328 21.712C313.328 21.968 313.264 22.2347 313.136 22.512C313.029 22.768 312.88 22.9707 312.688 23.12C312.517 23.2693 312.197 23.4507 311.728 23.664C310.171 24.3467 308.72 24.688 307.376 24.688C306.608 24.688 305.819 24.5707 305.008 24.336C303.92 23.9947 302.928 23.4187 302.032 22.608C301.136 21.776 300.496 20.8587 300.112 19.856C299.877 19.1947 299.76 18.4587 299.76 17.648C299.76 16.4747 299.952 15.4933 300.336 14.704C300.784 13.7227 301.541 12.784 302.608 11.888C303.675 10.992 304.763 10.3947 305.872 10.096ZM322.585 8.496C322.969 8.432 323.363 8.4 323.769 8.4C325.049 8.4 326.19 8.688 327.193 9.264C328.195 9.84 328.697 10.5013 328.697 11.248C328.697 11.44 328.665 11.6107 328.601 11.76C328.281 12.5707 327.801 12.976 327.161 12.976C326.691 12.976 326.158 12.8267 325.561 12.528C324.878 12.1867 324.249 12.016 323.673 12.016C323.054 12.016 322.542 12.2187 322.137 12.624C321.923 12.8373 321.817 13.008 321.817 13.136C321.817 13.3067 321.977 13.5093 322.297 13.744C322.638 13.9573 323.257 14.2987 324.153 14.768C325.625 15.536 326.617 16.1653 327.129 16.656C327.619 17.0827 328.046 17.616 328.409 18.256C328.771 18.8747 328.953 19.3973 328.953 19.824C328.953 20.3147 328.825 20.8053 328.569 21.296C328.313 21.7867 327.993 22.16 327.609 22.416C326.627 23.0773 325.433 23.408 324.025 23.408C322.702 23.408 321.337 23.0987 319.929 22.48C319.267 22.16 318.851 21.7973 318.681 21.392C318.553 21.0933 318.489 20.8267 318.489 20.592C318.489 20.1653 318.691 19.7493 319.097 19.344C319.374 19.024 319.747 18.864 320.217 18.864C320.665 18.864 321.209 19.0027 321.849 19.28C322.553 19.5787 323.363 19.728 324.281 19.728C324.707 19.728 324.921 19.6747 324.921 19.568C324.921 19.312 324.003 18.7253 322.169 17.808C320.739 17.0613 319.694 16.3253 319.033 15.6C318.371 14.8533 318.041 14.032 318.041 13.136C318.041 12.0693 318.478 11.088 319.353 10.192C320.249 9.27467 321.326 8.70933 322.585 8.496ZM337.44 2.192C337.781 1.97867 338.101 1.872 338.4 1.872C338.634 1.872 338.901 1.936 339.2 2.064C339.648 2.27733 339.936 2.608 340.064 3.056C340.192 3.504 340.277 4.57067 340.32 6.256L340.416 9.424L341.888 9.328C342.058 9.30667 342.304 9.296 342.624 9.296C343.392 9.296 343.936 9.43467 344.256 9.712C344.597 9.98933 344.768 10.4373 344.768 11.056C344.768 11.7173 344.544 12.1867 344.096 12.464C343.669 12.7413 342.837 12.9333 341.6 13.04L340.256 13.168L340.032 17.616C339.882 20.624 339.744 22.288 339.616 22.608C339.338 23.248 338.805 23.568 338.016 23.568C337.568 23.568 337.216 23.4507 336.96 23.216C336.682 23.0027 336.49 22.768 336.384 22.512C336.277 22.256 336.224 21.84 336.224 21.264C336.224 20.7947 336.256 20.0907 336.32 19.152C336.426 17.4667 336.501 16.0267 336.544 14.832L336.576 13.328L335.136 13.296C334.325 13.2747 333.77 13.2107 333.472 13.104C333.173 12.976 332.917 12.72 332.704 12.336C332.576 12.08 332.512 11.8133 332.512 11.536C332.512 11.024 332.725 10.576 333.152 10.192C333.386 9.97867 333.685 9.84 334.048 9.776C334.41 9.69067 335.082 9.60533 336.064 9.52L336.576 9.456L336.704 6.064C336.725 5.552 336.736 4.99733 336.736 4.4C336.757 3.78133 336.768 3.32266 336.768 3.024L336.8 2.576L336.896 2.512C336.96 2.46933 337.045 2.416 337.152 2.352C337.258 2.288 337.354 2.23467 337.44 2.192ZM350.019 8.912C350.104 8.89067 350.232 8.88 350.403 8.88C350.808 8.88 351.181 8.98667 351.523 9.2C351.864 9.392 352.099 9.65867 352.227 10C352.312 10.192 352.397 11.6533 352.483 14.384C352.589 17.0933 352.643 19.2267 352.643 20.784C352.643 21.4453 352.632 21.8293 352.611 21.936C352.504 22.7467 352.152 23.2907 351.555 23.568C351.256 23.696 351.021 23.76 350.851 23.76C350.723 23.76 350.531 23.728 350.275 23.664C349.784 23.5147 349.475 23.312 349.347 23.056C349.091 22.5653 348.941 20.6667 348.899 17.36C348.899 16.7627 348.888 15.728 348.867 14.256L348.835 9.872L349.219 9.424C349.475 9.12533 349.741 8.95467 350.019 8.912ZM349.251 2.896C349.507 2.768 349.752 2.704 349.987 2.704C350.456 2.704 350.872 2.896 351.235 3.28C351.597 3.64267 351.779 4.06933 351.779 4.56C351.779 4.90133 351.693 5.2 351.523 5.456C351.16 6.032 350.669 6.32 350.051 6.32C349.645 6.32 349.272 6.18133 348.931 5.904C348.589 5.62667 348.376 5.24267 348.291 4.752C348.291 4.73067 348.28 4.69867 348.259 4.656C348.259 4.592 348.259 4.54933 348.259 4.528C348.259 4.208 348.355 3.89867 348.547 3.6C348.739 3.28 348.973 3.04533 349.251 2.896ZM356.936 9.072C357.192 8.944 357.458 8.88 357.736 8.88C358.12 8.88 358.482 9.008 358.824 9.264C359.165 9.49867 359.4 9.81867 359.528 10.224L359.72 10.896L360.52 10.416C361.053 10.096 361.789 9.936 362.728 9.936C363.645 9.936 364.402 10.0853 365 10.384C365.49 10.6187 366.013 11.0027 366.568 11.536C367.144 12.0693 367.602 12.6027 367.944 13.136C369.096 14.9493 369.725 17.7653 369.832 21.584V22.224C369.832 22.736 369.682 23.152 369.384 23.472C369.021 23.8347 368.594 24.016 368.104 24.016C367.314 24.016 366.792 23.6747 366.536 22.992C366.408 22.6293 366.301 21.9147 366.216 20.848C365.96 17.1147 365.128 14.7787 363.72 13.84C363.421 13.648 363.122 13.552 362.824 13.552C362.269 13.552 361.768 13.8613 361.32 14.48C360.893 15.0773 360.552 15.9307 360.296 17.04C360.189 17.5307 360.061 18.416 359.912 19.696C359.762 20.976 359.688 21.84 359.688 22.288C359.688 22.5013 359.506 22.7893 359.144 23.152C358.781 23.4933 358.365 23.664 357.896 23.664C357.021 23.664 356.445 23.2053 356.168 22.288C356.04 21.84 355.976 19.8987 355.976 16.464C355.976 12.368 356.05 10.1387 356.2 9.776C356.328 9.49867 356.573 9.264 356.936 9.072ZM382.889 12.08C382.59 11.8667 382.334 11.7387 382.121 11.696C381.908 11.632 381.502 11.6 380.905 11.6C379.326 11.6427 378.27 12.048 377.737 12.816C377.524 13.1147 377.332 13.584 377.161 14.224C376.99 14.8427 376.905 15.3653 376.905 15.792C376.905 15.8347 376.905 15.8987 376.905 15.984C376.926 16.048 376.937 16.0907 376.937 16.112C377.065 16.752 377.417 17.3173 377.993 17.808C378.59 18.2987 379.284 18.5973 380.073 18.704C380.18 18.7253 380.34 18.736 380.553 18.736C381.364 18.736 382.164 18.3093 382.953 17.456C383.742 16.6027 384.137 15.7067 384.137 14.768C384.137 14.4693 384.126 14.2453 384.105 14.096C384.041 13.5413 383.945 13.1573 383.817 12.944C383.689 12.7307 383.38 12.4427 382.889 12.08ZM378.857 8.144C379.326 8.03733 380.009 7.984 380.905 7.984H381.417C382.206 8.00533 382.729 8.05867 382.985 8.144C383.262 8.208 383.7 8.41067 384.297 8.752C385.086 9.24267 385.737 9.60533 386.249 9.84C386.74 10.0747 387.06 10.32 387.209 10.576C387.422 10.896 387.636 12.3893 387.849 15.056C388.084 17.7013 388.201 20.0373 388.201 22.064C388.201 23.728 388.02 25.1147 387.657 26.224C387.316 27.3547 386.74 28.3787 385.929 29.296C384.585 30.832 382.91 31.6 380.905 31.6C379.646 31.6 378.185 31.312 376.521 30.736C375.796 30.5013 375.316 30.2987 375.081 30.128C374.846 29.9573 374.644 29.6907 374.473 29.328C374.388 29.136 374.345 28.912 374.345 28.656C374.345 28.1653 374.516 27.7493 374.857 27.408C375.113 27.1093 375.486 26.96 375.977 26.96C376.425 26.96 377.076 27.1093 377.929 27.408C378.697 27.6853 379.508 27.8667 380.361 27.952C380.425 27.952 380.5 27.952 380.585 27.952C380.692 27.9733 380.766 27.984 380.809 27.984C382.004 27.984 382.942 27.4507 383.625 26.384C383.988 25.872 384.233 25.392 384.361 24.944C384.51 24.4747 384.617 23.8027 384.681 22.928C384.724 22.3307 384.745 21.968 384.745 21.84C384.745 21.4347 384.649 21.232 384.457 21.232C384.286 21.232 383.988 21.3493 383.561 21.584C382.58 22.0747 381.566 22.32 380.521 22.32C378.729 22.32 377.118 21.7227 375.689 20.528C374.26 19.3333 373.502 17.8613 373.417 16.112C373.417 16.048 373.406 15.952 373.385 15.824C373.385 15.696 373.385 15.6 373.385 15.536C373.385 13.68 373.865 12.1013 374.825 10.8C375.806 9.47733 377.15 8.592 378.857 8.144ZM394.066 19.344C394.215 19.1947 394.546 19.12 395.058 19.12C395.484 19.12 395.858 19.248 396.178 19.504C396.498 19.76 396.7 20.0907 396.786 20.496C396.807 20.56 396.818 20.6773 396.818 20.848C396.818 21.4453 396.658 22.3093 396.338 23.44C396.018 24.5493 395.634 25.5947 395.186 26.576C394.866 27.28 394.311 27.632 393.522 27.632C392.668 27.632 392.092 27.216 391.794 26.384C391.751 26.2773 391.73 26.128 391.73 25.936C391.73 25.6587 391.9 25.0827 392.242 24.208C392.711 22.9067 392.999 21.9467 393.106 21.328C393.234 20.7307 393.362 20.304 393.49 20.048C393.618 19.792 393.81 19.5573 394.066 19.344Z" fill="#27263C"/>
</svg>
