<svg width="408" height="64" viewBox="0 0 408 64" fill="none" xmlns="http://www.w3.org/2000/svg">
<path d="M2.456 8.912C2.54133 8.89067 2.66933 8.88 2.84 8.88C3.24533 8.88 3.61867 8.98667 3.96 9.2C4.30133 9.392 4.536 9.65867 4.664 10C4.74933 10.192 4.83467 11.6533 4.92 14.384C5.02667 17.0933 5.08 19.2267 5.08 20.784C5.08 21.4453 5.06933 21.8293 5.048 21.936C4.94133 22.7467 4.58933 23.2907 3.992 23.568C3.69333 23.696 3.45867 23.76 3.288 23.76C3.16 23.76 2.968 23.728 2.712 23.664C2.22133 23.5147 1.912 23.312 1.784 23.056C1.528 22.5653 1.37867 20.6667 1.336 17.36C1.336 16.7627 1.32533 15.728 1.304 14.256L1.272 9.872L1.656 9.424C1.912 9.12533 2.17867 8.95467 2.456 8.912ZM1.688 2.896C1.944 2.768 2.18933 2.704 2.424 2.704C2.89333 2.704 3.30933 2.896 3.672 3.28C4.03467 3.64267 4.216 4.06933 4.216 4.56C4.216 4.90133 4.13067 5.2 3.96 5.456C3.59733 6.032 3.10667 6.32 2.488 6.32C2.08267 6.32 1.70933 6.18133 1.368 5.904C1.02667 5.62667 0.813333 5.24267 0.728 4.752C0.728 4.73067 0.717333 4.69867 0.696 4.656C0.696 4.592 0.696 4.54933 0.696 4.528C0.696 4.208 0.792 3.89867 0.984 3.6C1.176 3.28 1.41067 3.04533 1.688 2.896ZM13.0533 8.496C13.4373 8.432 13.8319 8.4 14.2373 8.4C15.5173 8.4 16.6586 8.688 17.6613 9.264C18.6639 9.84 19.1653 10.5013 19.1653 11.248C19.1653 11.44 19.1333 11.6107 19.0693 11.76C18.7493 12.5707 18.2693 12.976 17.6293 12.976C17.1599 12.976 16.6266 12.8267 16.0293 12.528C15.3466 12.1867 14.7173 12.016 14.1413 12.016C13.5226 12.016 13.0106 12.2187 12.6053 12.624C12.3919 12.8373 12.2853 13.008 12.2853 13.136C12.2853 13.3067 12.4453 13.5093 12.7653 13.744C13.1066 13.9573 13.7253 14.2987 14.6213 14.768C16.0933 15.536 17.0853 16.1653 17.5973 16.656C18.0879 17.0827 18.5146 17.616 18.8773 18.256C19.2399 18.8747 19.4213 19.3973 19.4213 19.824C19.4213 20.3147 19.2933 20.8053 19.0373 21.296C18.7813 21.7867 18.4613 22.16 18.0773 22.416C17.0959 23.0773 15.9013 23.408 14.4933 23.408C13.1706 23.408 11.8053 23.0987 10.3973 22.48C9.73592 22.16 9.31992 21.7973 9.14925 21.392C9.02125 21.0933 8.95725 20.8267 8.95725 20.592C8.95725 20.1653 9.15992 19.7493 9.56525 19.344C9.84258 19.024 10.2159 18.864 10.6853 18.864C11.1333 18.864 11.6773 19.0027 12.3173 19.28C13.0213 19.5787 13.8319 19.728 14.7493 19.728C15.1759 19.728 15.3893 19.6747 15.3893 19.568C15.3893 19.312 14.4719 18.7253 12.6373 17.808C11.2079 17.0613 10.1626 16.3253 9.50125 15.6C8.83992 14.8533 8.50925 14.032 8.50925 13.136C8.50925 12.0693 8.94658 11.088 9.82125 10.192C10.7173 9.27467 11.7946 8.70933 13.0533 8.496ZM37.6255 1.52C37.9882 1.15733 38.4255 0.975998 38.9375 0.975998C39.3215 0.975998 39.6628 1.09333 39.9615 1.328C40.2815 1.54133 40.5055 1.85067 40.6335 2.256C40.6975 2.49067 40.8042 3.6 40.9535 5.584C41.1028 7.54667 41.1775 8.912 41.1775 9.68C41.1775 9.872 41.2202 9.98933 41.3055 10.032C41.4122 10.0747 41.6575 10.096 42.0415 10.096C42.6175 10.096 42.9482 10.032 43.0335 9.904C43.0762 9.79733 43.5135 9.744 44.3455 9.744C45.4122 9.744 46.1162 9.81867 46.4575 9.968C46.7775 10.1173 47.0228 10.4053 47.1935 10.832C47.3428 11.1307 47.4175 11.376 47.4175 11.568C47.4175 11.7173 47.3855 11.8987 47.3215 12.112C47.1722 12.6027 46.8948 12.9333 46.4895 13.104C46.1055 13.2533 45.3375 13.36 44.1855 13.424C42.8842 13.488 42.0415 13.5733 41.6575 13.68L41.1455 13.808L41.2735 18.32C41.3162 20.3253 41.3375 21.4027 41.3375 21.552C41.3375 22.4907 41.2628 23.12 41.1135 23.44C40.7935 24.1227 40.2708 24.464 39.5455 24.464C39.2682 24.464 38.9802 24.4 38.6815 24.272C38.4468 24.1653 38.2762 24.0693 38.1695 23.984C38.0628 23.8773 37.9668 23.6107 37.8815 23.184C37.7962 22.736 37.7428 22.2133 37.7215 21.616C37.7002 21.0187 37.6788 20.0373 37.6575 18.672L37.5935 14.032L36.6335 14.064C36.0575 14.1067 35.5455 14.192 35.0975 14.32C34.9908 14.3627 34.8202 14.384 34.5855 14.384C33.8602 14.384 33.3375 14.16 33.0175 13.712C32.8468 13.4347 32.7615 13.0613 32.7615 12.592C32.7615 12.1867 32.8255 11.8667 32.9535 11.632C33.2522 11.0987 34.2975 10.6933 36.0895 10.416L37.5615 10.192L37.4335 7.376C37.3482 5.37067 37.2735 4.00533 37.2095 3.28C37.1668 2.768 37.1455 2.49067 37.1455 2.448C37.1455 2.14933 37.3055 1.84 37.6255 1.52ZM51.714 1.552C52.0767 1.25333 52.45 1.104 52.834 1.104C53.602 1.104 54.1673 1.57333 54.53 2.512C54.6793 2.93867 54.8393 3.96267 55.01 5.584C55.1807 7.184 55.3193 8.67733 55.426 10.064C55.5327 11.4293 55.5967 12.112 55.618 12.112C55.6607 12.112 56.0127 11.8773 56.674 11.408C57.9753 10.4907 59.2127 10.032 60.386 10.032C61.474 10.032 62.4233 10.4373 63.234 11.248C64.066 12.0373 64.7167 13.2 65.186 14.736C65.5487 15.9307 65.73 17.7867 65.73 20.304C65.73 21.8827 65.634 22.9493 65.442 23.504C65.2287 24.08 64.738 24.368 63.97 24.368C63.458 24.368 63.0313 24.1973 62.69 23.856L62.21 23.376L62.114 20.144C61.986 15.984 61.41 13.84 60.386 13.712H60.29C59.7993 13.712 59.1913 13.9893 58.466 14.544C57.7407 15.0773 57.218 15.664 56.898 16.304C56.706 16.7307 56.45 17.04 56.13 17.232L55.714 17.52L55.65 21.008C55.6073 22.7147 55.5647 23.7493 55.522 24.112C55.5007 24.4533 55.3833 24.7307 55.17 24.944C54.8287 25.3067 54.402 25.488 53.89 25.488C53.122 25.488 52.5887 25.1467 52.29 24.464C52.1407 24.0587 52.034 21.6053 51.97 17.104C51.8633 9.57333 51.586 5.06133 51.138 3.568C51.074 3.33333 51.042 3.10933 51.042 2.896C51.042 2.34133 51.266 1.89333 51.714 1.552ZM78.4448 13.68C78.3381 13.3387 78.2421 13.1467 78.1568 13.104C78.0714 13.04 77.8368 13.008 77.4528 13.008C76.3434 13.0293 75.3088 13.552 74.3488 14.576C73.3888 15.5787 72.9088 16.592 72.9088 17.616C72.9088 18.128 73.0474 18.5547 73.3248 18.896C73.9434 19.5787 74.5941 19.92 75.2768 19.92C75.3194 19.92 75.3621 19.92 75.4048 19.92C75.4474 19.8987 75.4901 19.888 75.5328 19.888C75.9168 19.8027 76.3221 19.5467 76.7488 19.12C77.1968 18.6933 77.5381 18.224 77.7728 17.712C78.2634 16.56 78.5088 15.44 78.5088 14.352C78.5088 14.032 78.4874 13.808 78.4448 13.68ZM75.4688 9.648C76.0448 9.456 76.7061 9.36 77.4528 9.36C78.4341 9.36 79.2661 9.52 79.9488 9.84C80.3968 10.0747 80.8021 10.4267 81.1648 10.896C81.5488 11.344 81.7834 11.7707 81.8688 12.176C81.9541 12.5813 82.0714 12.9653 82.2208 13.328C82.4554 13.9467 82.9248 16.272 83.6287 20.304C83.7354 20.944 83.7888 21.424 83.7888 21.744C83.7888 23.024 83.1914 23.664 81.9968 23.664C81.5914 23.664 81.2181 23.504 80.8768 23.184C80.5568 22.864 80.3541 22.4693 80.2688 22C80.1834 21.5733 80.1088 21.328 80.0448 21.264C79.9594 21.2 79.7141 21.3707 79.3088 21.776C78.0928 22.992 76.6954 23.6 75.1168 23.6C74.8394 23.6 74.5514 23.568 74.2528 23.504C73.0794 23.248 71.9808 22.608 70.9568 21.584C69.8048 20.432 69.2288 19.1413 69.2288 17.712C69.2288 16.5813 69.5808 15.3547 70.2848 14.032C70.8181 13.0293 71.5434 12.1333 72.4608 11.344C73.3994 10.5547 74.4021 9.98933 75.4688 9.648ZM92.2505 1.52C92.6132 1.15733 93.0505 0.975998 93.5625 0.975998C93.9465 0.975998 94.2878 1.09333 94.5865 1.328C94.9065 1.54133 95.1305 1.85067 95.2585 2.256C95.3225 2.49067 95.4292 3.6 95.5785 5.584C95.7278 7.54667 95.8025 8.912 95.8025 9.68C95.8025 9.872 95.8452 9.98933 95.9305 10.032C96.0372 10.0747 96.2825 10.096 96.6665 10.096C97.2425 10.096 97.5732 10.032 97.6585 9.904C97.7012 9.79733 98.1385 9.744 98.9705 9.744C100.037 9.744 100.741 9.81867 101.083 9.968C101.403 10.1173 101.648 10.4053 101.819 10.832C101.968 11.1307 102.043 11.376 102.043 11.568C102.043 11.7173 102.011 11.8987 101.947 12.112C101.797 12.6027 101.52 12.9333 101.115 13.104C100.731 13.2533 99.9625 13.36 98.8105 13.424C97.5092 13.488 96.6665 13.5733 96.2825 13.68L95.7705 13.808L95.8985 18.32C95.9412 20.3253 95.9625 21.4027 95.9625 21.552C95.9625 22.4907 95.8878 23.12 95.7385 23.44C95.4185 24.1227 94.8958 24.464 94.1705 24.464C93.8932 24.464 93.6052 24.4 93.3065 24.272C93.0718 24.1653 92.9012 24.0693 92.7945 23.984C92.6878 23.8773 92.5918 23.6107 92.5065 23.184C92.4212 22.736 92.3678 22.2133 92.3465 21.616C92.3252 21.0187 92.3038 20.0373 92.2825 18.672L92.2185 14.032L91.2585 14.064C90.6825 14.1067 90.1705 14.192 89.7225 14.32C89.6158 14.3627 89.4452 14.384 89.2105 14.384C88.4852 14.384 87.9625 14.16 87.6425 13.712C87.4718 13.4347 87.3865 13.0613 87.3865 12.592C87.3865 12.1867 87.4505 11.8667 87.5785 11.632C87.8772 11.0987 88.9225 10.6933 90.7145 10.416L92.1865 10.192L92.0585 7.376C91.9732 5.37067 91.8985 4.00533 91.8345 3.28C91.7918 2.768 91.7705 2.49067 91.7705 2.448C91.7705 2.14933 91.9305 1.84 92.2505 1.52ZM117.195 7.344C117.493 7.30133 117.664 7.26933 117.707 7.248C117.813 7.248 118.059 7.32267 118.443 7.472C118.741 7.6 119.008 7.856 119.243 8.24C119.477 8.624 119.595 8.99733 119.595 9.36C119.595 9.63733 119.648 9.85067 119.755 10C119.84 10.1067 119.915 10.1493 119.979 10.128C120.043 10.1067 120.192 10 120.427 9.808C121.387 8.99733 122.56 8.496 123.947 8.304C124.373 8.26133 124.672 8.24 124.843 8.24C125.931 8.24 126.859 8.63467 127.627 9.424L128.363 10.16L129.291 9.424C130.805 8.208 132.277 7.6 133.707 7.6C134.197 7.6 134.635 7.67467 135.019 7.824C135.445 7.99467 135.904 8.32533 136.395 8.816C136.907 9.28533 137.291 9.78667 137.547 10.32C138.315 11.8773 138.816 14.7787 139.051 19.024C139.093 20.0907 139.115 20.6773 139.115 20.784C139.115 21.3387 139.04 21.7547 138.891 22.032C138.571 22.6507 138.08 22.96 137.419 22.96C136.949 22.96 136.533 22.7893 136.171 22.448L135.595 21.968L135.435 18.992C135.2 14.5547 134.667 11.984 133.835 11.28C133.707 11.1947 133.6 11.152 133.515 11.152C133.344 11.152 133.035 11.2693 132.587 11.504C131.477 12.0373 130.688 12.944 130.219 14.224C129.963 14.8853 129.792 16.2613 129.707 18.352C129.6 20.464 129.493 21.6373 129.387 21.872C129.045 22.4693 128.501 22.768 127.755 22.768C127.349 22.768 126.987 22.64 126.667 22.384C126.197 22 125.963 21.0613 125.963 19.568C125.963 18.8853 125.973 18.32 125.995 17.872C125.995 17.7227 125.995 17.52 125.995 17.264C126.016 16.9867 126.027 16.784 126.027 16.656C126.027 14.5653 125.792 13.1147 125.323 12.304C125.131 11.9627 124.939 11.792 124.747 11.792C124.725 11.792 124.587 11.8133 124.331 11.856C122.965 12.112 121.813 13.2107 120.875 15.152C120.491 15.9627 120.299 16.816 120.299 17.712C120.299 18.48 120.363 19.4187 120.491 20.528C120.555 20.976 120.587 21.3493 120.587 21.648C120.587 22.4587 120.235 23.0347 119.531 23.376C119.232 23.5253 118.997 23.6 118.827 23.6C118.699 23.6 118.496 23.5467 118.219 23.44C117.685 23.248 117.333 22.8853 117.163 22.352C116.992 21.7973 116.853 20.6133 116.747 18.8C116.597 15.7067 116.341 12.5173 115.979 9.232C115.979 9.18933 115.968 9.12533 115.947 9.04C115.947 8.95467 115.947 8.90133 115.947 8.88C115.947 8.58133 116.075 8.272 116.331 7.952C116.651 7.58933 116.939 7.38667 117.195 7.344ZM153.708 13.232C153.089 12.6133 152.129 12.304 150.828 12.304C150.188 12.304 149.622 12.4107 149.132 12.624C148.662 12.8373 148.15 13.2533 147.596 13.872C147.041 14.4907 146.678 15.056 146.508 15.568C146.316 16.1227 146.22 16.6453 146.22 17.136C146.22 18.2667 146.668 19.0667 147.564 19.536C148.097 19.8133 148.79 19.952 149.644 19.952C150.22 19.952 150.657 19.8773 150.956 19.728C152.684 18.8533 153.74 17.2853 154.124 15.024L154.316 13.808L153.708 13.232ZM148.844 8.88C149.356 8.73067 149.953 8.656 150.636 8.656C151.788 8.656 152.918 8.85867 154.028 9.264C155.137 9.66933 155.905 10.1813 156.332 10.8C156.63 11.2267 157.014 11.6747 157.484 12.144C157.996 12.6773 158.465 13.5947 158.892 14.896C159.297 16.1333 159.67 17.5093 160.012 19.024C160.374 20.5387 160.556 21.5627 160.556 22.096C160.556 22.6293 160.396 23.0453 160.076 23.344C159.67 23.728 159.286 23.92 158.924 23.92C158.774 23.92 158.582 23.888 158.348 23.824C157.942 23.6747 157.622 23.4187 157.388 23.056C157.174 22.6933 156.982 22.1067 156.812 21.296C156.598 20.336 156.481 19.856 156.46 19.856C156.374 19.856 155.926 20.2613 155.116 21.072C153.516 22.6293 151.852 23.472 150.124 23.6H149.676C148.63 23.6 147.606 23.4187 146.604 23.056C145.622 22.6933 144.844 22.2133 144.268 21.616C143.969 21.3173 143.67 20.8693 143.372 20.272C143.073 19.6533 142.87 19.088 142.764 18.576C142.657 18.0427 142.604 17.5627 142.604 17.136C142.604 15.3653 143.201 13.6693 144.396 12.048C145.612 10.4267 147.094 9.37067 148.844 8.88ZM164.967 9.072C165.223 8.944 165.49 8.88 165.767 8.88C166.151 8.88 166.514 9.008 166.855 9.264C167.196 9.49867 167.431 9.81867 167.559 10.224L167.751 10.896L168.551 10.416C169.084 10.096 169.82 9.936 170.759 9.936C171.676 9.936 172.434 10.0853 173.031 10.384C173.522 10.6187 174.044 11.0027 174.599 11.536C175.175 12.0693 175.634 12.6027 175.975 13.136C177.127 14.9493 177.756 17.7653 177.863 21.584V22.224C177.863 22.736 177.714 23.152 177.415 23.472C177.052 23.8347 176.626 24.016 176.135 24.016C175.346 24.016 174.823 23.6747 174.567 22.992C174.439 22.6293 174.332 21.9147 174.247 20.848C173.991 17.1147 173.159 14.7787 171.751 13.84C171.452 13.648 171.154 13.552 170.855 13.552C170.3 13.552 169.799 13.8613 169.351 14.48C168.924 15.0773 168.583 15.9307 168.327 17.04C168.22 17.5307 168.092 18.416 167.943 19.696C167.794 20.976 167.719 21.84 167.719 22.288C167.719 22.5013 167.538 22.7893 167.175 23.152C166.812 23.4933 166.396 23.664 165.927 23.664C165.052 23.664 164.476 23.2053 164.199 22.288C164.071 21.84 164.007 19.8987 164.007 16.464C164.007 12.368 164.082 10.1387 164.231 9.776C164.359 9.49867 164.604 9.264 164.967 9.072ZM193.384 8.272C193.598 8.208 193.758 8.176 193.864 8.176C193.95 8.176 194.195 8.26133 194.6 8.432C195.027 8.60267 195.326 8.89067 195.496 9.296C195.582 9.46667 195.624 9.65867 195.624 9.872C195.624 10.192 195.368 11.1627 194.856 12.784C193.918 15.792 192.734 18.8107 191.304 21.84C190.643 23.2907 189.63 25.168 188.264 27.472C186.899 29.7973 186.067 31.0453 185.768 31.216C185.427 31.4293 185.075 31.536 184.712 31.536C184.222 31.536 183.795 31.3653 183.432 31.024C183.091 30.704 182.92 30.2773 182.92 29.744C182.92 29.36 183.262 28.6347 183.944 27.568C184.478 26.736 185.171 25.5627 186.024 24.048C186.878 22.512 187.304 21.6907 187.304 21.584C187.304 21.52 187.07 21.0933 186.6 20.304C186.387 19.9627 185.63 18.576 184.328 16.144C183.048 13.6907 182.27 12.272 181.992 11.888C181.651 11.3973 181.48 10.9067 181.48 10.416C181.48 9.712 181.822 9.21067 182.504 8.912C182.76 8.80533 182.984 8.752 183.176 8.752C183.624 8.752 184.062 9.008 184.488 9.52C184.915 10.0107 185.459 10.864 186.12 12.08C187.55 14.7253 188.52 16.4533 189.032 17.264C189.139 17.4133 189.203 17.488 189.224 17.488C189.31 17.488 189.523 17.0293 189.864 16.112C190.355 14.768 190.846 13.3387 191.336 11.824C191.763 10.4587 192.104 9.552 192.36 9.104C192.638 8.656 192.979 8.37867 193.384 8.272ZM218.438 12.816C218.033 12.7093 217.371 12.6133 216.454 12.528C215.857 12.4853 215.537 12.464 215.494 12.464C215.195 12.464 214.897 12.624 214.598 12.944C213.745 13.8187 213.286 15.0027 213.222 16.496C213.222 16.5813 213.211 16.6987 213.19 16.848C213.19 16.976 213.19 17.072 213.19 17.136C213.19 17.6267 213.318 18.0853 213.574 18.512C214.257 19.728 215.462 20.336 217.19 20.336C217.915 20.3147 218.651 20.0693 219.398 19.6C220.166 19.1093 220.721 18.5227 221.062 17.84C221.254 17.4347 221.35 16.9973 221.35 16.528C221.35 15.7387 221.073 14.992 220.518 14.288C219.985 13.5627 219.291 13.072 218.438 12.816ZM213.574 9.232C214.065 8.95467 214.555 8.816 215.046 8.816C215.153 8.816 215.547 8.83733 216.23 8.88C218.257 8.98667 219.889 9.41333 221.126 10.16C222.363 10.9067 223.355 12.0587 224.102 13.616C224.678 14.8107 224.966 15.952 224.966 17.04C224.966 17.3813 224.934 17.68 224.87 17.936C224.529 19.2587 223.782 20.464 222.63 21.552C221.478 22.64 220.209 23.3653 218.822 23.728C218.097 23.8987 217.521 23.984 217.094 23.984C216.667 23.984 216.091 23.8987 215.366 23.728C213.169 23.152 211.59 22.1067 210.63 20.592C209.883 19.4187 209.51 18.1813 209.51 16.88C209.51 15.5787 209.862 14.192 210.566 12.72C211.377 10.992 212.379 9.82933 213.574 9.232ZM239.167 0.431999C239.551 0.389332 239.839 0.367998 240.031 0.367998C241.567 0.367998 242.719 0.751998 243.487 1.52C243.956 2.01067 244.191 2.53333 244.191 3.088C244.191 3.55733 244.02 3.96267 243.679 4.304C243.359 4.624 242.953 4.784 242.463 4.784C242.015 4.784 241.577 4.63467 241.151 4.336C240.767 4.05866 240.415 3.92 240.095 3.92C239.583 3.92 239.103 4.28267 238.655 5.008C238.207 5.73333 237.929 6.58667 237.823 7.568C237.78 7.90933 237.759 8.112 237.759 8.176C237.759 8.45333 237.897 8.63467 238.175 8.72C238.452 8.784 239.103 8.82667 240.127 8.848C240.297 8.848 240.436 8.848 240.543 8.848C241.524 8.89067 242.111 8.93333 242.303 8.976C242.516 9.01867 242.729 9.15733 242.943 9.392C243.22 9.69067 243.359 10.0747 243.359 10.544C243.359 11.0347 243.209 11.44 242.911 11.76L242.463 12.304H237.407L237.311 12.752C237.289 12.816 237.279 13.168 237.279 13.808C237.279 16.752 237.364 19.3653 237.535 21.648C237.535 21.7333 237.535 21.8507 237.535 22C237.556 22.1493 237.567 22.256 237.567 22.32C237.567 22.8747 237.492 23.28 237.343 23.536C237.193 23.792 236.927 24.016 236.543 24.208C236.287 24.336 236.009 24.4 235.711 24.4C235.113 24.4 234.655 24.176 234.335 23.728C234.164 23.472 234.004 22.5333 233.855 20.912C233.727 19.2693 233.663 17.6587 233.663 16.08C233.663 15.3547 233.673 14.832 233.695 14.512L233.791 12.272L231.711 12.368C230.729 12.4107 230.217 12.432 230.175 12.432C229.769 12.432 229.428 12.3253 229.151 12.112C228.745 11.7493 228.543 11.2693 228.543 10.672C228.543 10.416 228.585 10.192 228.671 10C228.82 9.616 229.129 9.33867 229.599 9.168C230.068 8.99733 230.847 8.88 231.935 8.816C233.279 8.73067 233.961 8.66667 233.983 8.624C234.025 8.58133 234.143 7.97333 234.335 6.8C234.676 4.60267 235.444 2.928 236.639 1.776C237.087 1.328 237.46 1.01867 237.759 0.848C238.079 0.677333 238.548 0.538666 239.167 0.431999ZM262.563 1.52C262.926 1.15733 263.363 0.975998 263.875 0.975998C264.259 0.975998 264.6 1.09333 264.899 1.328C265.219 1.54133 265.443 1.85067 265.571 2.256C265.635 2.49067 265.742 3.6 265.891 5.584C266.04 7.54667 266.115 8.912 266.115 9.68C266.115 9.872 266.158 9.98933 266.243 10.032C266.35 10.0747 266.595 10.096 266.979 10.096C267.555 10.096 267.886 10.032 267.971 9.904C268.014 9.79733 268.451 9.744 269.283 9.744C270.35 9.744 271.054 9.81867 271.395 9.968C271.715 10.1173 271.96 10.4053 272.131 10.832C272.28 11.1307 272.355 11.376 272.355 11.568C272.355 11.7173 272.323 11.8987 272.259 12.112C272.11 12.6027 271.832 12.9333 271.427 13.104C271.043 13.2533 270.275 13.36 269.123 13.424C267.822 13.488 266.979 13.5733 266.595 13.68L266.083 13.808L266.211 18.32C266.254 20.3253 266.275 21.4027 266.275 21.552C266.275 22.4907 266.2 23.12 266.051 23.44C265.731 24.1227 265.208 24.464 264.483 24.464C264.206 24.464 263.918 24.4 263.619 24.272C263.384 24.1653 263.214 24.0693 263.107 23.984C263 23.8773 262.904 23.6107 262.819 23.184C262.734 22.736 262.68 22.2133 262.659 21.616C262.638 21.0187 262.616 20.0373 262.595 18.672L262.531 14.032L261.571 14.064C260.995 14.1067 260.483 14.192 260.035 14.32C259.928 14.3627 259.758 14.384 259.523 14.384C258.798 14.384 258.275 14.16 257.955 13.712C257.784 13.4347 257.699 13.0613 257.699 12.592C257.699 12.1867 257.763 11.8667 257.891 11.632C258.19 11.0987 259.235 10.6933 261.027 10.416L262.499 10.192L262.371 7.376C262.286 5.37067 262.211 4.00533 262.147 3.28C262.104 2.768 262.083 2.49067 262.083 2.448C262.083 2.14933 262.243 1.84 262.563 1.52ZM276.652 1.552C277.014 1.25333 277.388 1.104 277.772 1.104C278.54 1.104 279.105 1.57333 279.468 2.512C279.617 2.93867 279.777 3.96267 279.948 5.584C280.118 7.184 280.257 8.67733 280.364 10.064C280.47 11.4293 280.534 12.112 280.556 12.112C280.598 12.112 280.95 11.8773 281.612 11.408C282.913 10.4907 284.15 10.032 285.324 10.032C286.412 10.032 287.361 10.4373 288.172 11.248C289.004 12.0373 289.654 13.2 290.124 14.736C290.486 15.9307 290.668 17.7867 290.668 20.304C290.668 21.8827 290.572 22.9493 290.38 23.504C290.166 24.08 289.676 24.368 288.908 24.368C288.396 24.368 287.969 24.1973 287.628 23.856L287.148 23.376L287.052 20.144C286.924 15.984 286.348 13.84 285.324 13.712H285.228C284.737 13.712 284.129 13.9893 283.404 14.544C282.678 15.0773 282.156 15.664 281.836 16.304C281.644 16.7307 281.388 17.04 281.068 17.232L280.652 17.52L280.588 21.008C280.545 22.7147 280.502 23.7493 280.46 24.112C280.438 24.4533 280.321 24.7307 280.108 24.944C279.766 25.3067 279.34 25.488 278.828 25.488C278.06 25.488 277.526 25.1467 277.228 24.464C277.078 24.0587 276.972 21.6053 276.908 17.104C276.801 9.57333 276.524 5.06133 276.076 3.568C276.012 3.33333 275.98 3.10933 275.98 2.896C275.98 2.34133 276.204 1.89333 276.652 1.552ZM303.094 12.816C302.689 12.7093 302.028 12.6133 301.11 12.528C300.513 12.4853 300.193 12.464 300.15 12.464C299.852 12.464 299.553 12.624 299.254 12.944C298.401 13.8187 297.942 15.0027 297.878 16.496C297.878 16.5813 297.868 16.6987 297.846 16.848C297.846 16.976 297.846 17.072 297.846 17.136C297.846 17.6267 297.974 18.0853 298.23 18.512C298.913 19.728 300.118 20.336 301.846 20.336C302.572 20.3147 303.308 20.0693 304.054 19.6C304.822 19.1093 305.377 18.5227 305.718 17.84C305.91 17.4347 306.006 16.9973 306.006 16.528C306.006 15.7387 305.729 14.992 305.174 14.288C304.641 13.5627 303.948 13.072 303.094 12.816ZM298.23 9.232C298.721 8.95467 299.212 8.816 299.702 8.816C299.809 8.816 300.204 8.83733 300.886 8.88C302.913 8.98667 304.545 9.41333 305.782 10.16C307.02 10.9067 308.012 12.0587 308.758 13.616C309.334 14.8107 309.622 15.952 309.622 17.04C309.622 17.3813 309.59 17.68 309.526 17.936C309.185 19.2587 308.438 20.464 307.286 21.552C306.134 22.64 304.865 23.3653 303.478 23.728C302.753 23.8987 302.177 23.984 301.75 23.984C301.324 23.984 300.748 23.8987 300.022 23.728C297.825 23.152 296.246 22.1067 295.286 20.592C294.54 19.4187 294.166 18.1813 294.166 16.88C294.166 15.5787 294.518 14.192 295.222 12.72C296.033 10.992 297.036 9.82933 298.23 9.232ZM317.647 8.496C318.031 8.432 318.426 8.4 318.831 8.4C320.111 8.4 321.252 8.688 322.255 9.264C323.258 9.84 323.759 10.5013 323.759 11.248C323.759 11.44 323.727 11.6107 323.663 11.76C323.343 12.5707 322.863 12.976 322.223 12.976C321.754 12.976 321.22 12.8267 320.623 12.528C319.94 12.1867 319.311 12.016 318.735 12.016C318.116 12.016 317.604 12.2187 317.199 12.624C316.986 12.8373 316.879 13.008 316.879 13.136C316.879 13.3067 317.039 13.5093 317.359 13.744C317.7 13.9573 318.319 14.2987 319.215 14.768C320.687 15.536 321.679 16.1653 322.191 16.656C322.682 17.0827 323.108 17.616 323.471 18.256C323.834 18.8747 324.015 19.3973 324.015 19.824C324.015 20.3147 323.887 20.8053 323.631 21.296C323.375 21.7867 323.055 22.16 322.671 22.416C321.69 23.0773 320.495 23.408 319.087 23.408C317.764 23.408 316.399 23.0987 314.991 22.48C314.33 22.16 313.914 21.7973 313.743 21.392C313.615 21.0933 313.551 20.8267 313.551 20.592C313.551 20.1653 313.754 19.7493 314.159 19.344C314.436 19.024 314.81 18.864 315.279 18.864C315.727 18.864 316.271 19.0027 316.911 19.28C317.615 19.5787 318.426 19.728 319.343 19.728C319.77 19.728 319.983 19.6747 319.983 19.568C319.983 19.312 319.066 18.7253 317.231 17.808C315.802 17.0613 314.756 16.3253 314.095 15.6C313.434 14.8533 313.103 14.032 313.103 13.136C313.103 12.0693 313.54 11.088 314.415 10.192C315.311 9.27467 316.388 8.70933 317.647 8.496ZM337.398 13.808C337.014 13.616 336.47 13.52 335.766 13.52C334.998 13.52 334.347 13.6373 333.814 13.872C333.451 14.0213 332.982 14.352 332.406 14.864C331.83 15.3547 331.542 15.6747 331.542 15.824C331.542 15.888 331.873 15.92 332.534 15.92C333.515 15.92 334.689 15.8667 336.054 15.76C337.419 15.6533 338.198 15.536 338.39 15.408C338.454 15.3867 338.486 15.3227 338.486 15.216C338.486 15.024 338.369 14.7787 338.134 14.48C337.899 14.16 337.654 13.936 337.398 13.808ZM333.622 10.096C334.155 9.94667 334.785 9.872 335.51 9.872C336.854 9.872 338.081 10.1387 339.19 10.672C340.022 11.0987 340.715 11.7493 341.27 12.624C341.825 13.4773 342.166 14.4373 342.294 15.504C342.294 15.5467 342.294 15.6107 342.294 15.696C342.315 15.7813 342.326 15.8453 342.326 15.888C342.326 16.4427 342.219 16.9867 342.006 17.52C341.814 18.0533 341.579 18.416 341.302 18.608C340.939 18.864 338.39 19.184 333.654 19.568C332.651 19.6533 332.15 19.7493 332.15 19.856C332.15 19.984 332.374 20.1867 332.822 20.464C333.27 20.7413 333.707 20.9333 334.134 21.04C334.518 21.1253 334.827 21.168 335.062 21.168C335.745 21.168 336.63 20.944 337.718 20.496C338.486 20.176 339.051 20.016 339.414 20.016C339.777 20.016 340.118 20.176 340.438 20.496C340.865 20.9227 341.078 21.328 341.078 21.712C341.078 21.968 341.014 22.2347 340.886 22.512C340.779 22.768 340.63 22.9707 340.438 23.12C340.267 23.2693 339.947 23.4507 339.478 23.664C337.921 24.3467 336.47 24.688 335.126 24.688C334.358 24.688 333.569 24.5707 332.758 24.336C331.67 23.9947 330.678 23.4187 329.782 22.608C328.886 21.776 328.246 20.8587 327.862 19.856C327.627 19.1947 327.51 18.4587 327.51 17.648C327.51 16.4747 327.702 15.4933 328.086 14.704C328.534 13.7227 329.291 12.784 330.358 11.888C331.425 10.992 332.513 10.3947 333.622 10.096ZM1.784 44.528C1.99733 44.4213 2.25333 44.368 2.552 44.368C3.64 44.368 4.32267 45.2853 4.6 47.12C4.664 47.6747 4.73867 47.952 4.824 47.952C4.84533 47.952 5.144 47.7067 5.72 47.216C6.89333 46.1707 8.088 45.648 9.304 45.648C9.96533 45.648 10.5947 45.8293 11.192 46.192C11.768 46.5547 12.1413 46.8747 12.312 47.152L12.6 47.6L13.368 46.896C14.5413 45.8507 15.8 45.328 17.144 45.328C18.4453 45.328 19.5653 45.8293 20.504 46.832C22.104 48.4747 23.0533 51.28 23.352 55.248C23.3947 55.9733 23.416 56.4213 23.416 56.592C23.416 57.1467 23.3413 57.552 23.192 57.808C23.064 58.064 22.8293 58.288 22.488 58.48C22.1893 58.6293 21.9013 58.704 21.624 58.704C21.1547 58.704 20.7387 58.4907 20.376 58.064C20.0987 57.7013 19.9173 57.0827 19.832 56.208C19.6613 54.2453 19.448 52.784 19.192 51.824C18.936 50.864 18.5733 50.1173 18.104 49.584C17.7413 49.2 17.368 49.008 16.984 49.008C16.2587 49.008 15.6187 49.5733 15.064 50.704C14.8507 51.152 14.712 51.568 14.648 51.952C14.584 52.336 14.5307 53.2107 14.488 54.576C14.4027 56.4533 14.296 57.5733 14.168 57.936C13.8693 58.64 13.3253 58.992 12.536 58.992C12.0667 58.992 11.672 58.832 11.352 58.512C10.84 58 10.52 56.4853 10.392 53.968C10.328 53.008 10.2107 52.08 10.04 51.184C9.86933 50.288 9.70933 49.7547 9.56 49.584C9.432 49.4347 9.29333 49.36 9.144 49.36C8.888 49.36 8.46133 49.6267 7.864 50.16C7.224 50.7573 6.744 51.3973 6.424 52.08C6.12533 52.6987 5.944 53.2 5.88 53.584C5.83733 53.9467 5.79467 55.1947 5.752 57.328C5.73067 57.8827 5.56 58.3307 5.24 58.672C4.92 59.0133 4.51467 59.184 4.024 59.184C3.53333 59.184 3.13867 59.088 2.84 58.896C2.41333 58.5973 2.11467 58.0213 1.944 57.168C1.77333 56.2933 1.58133 54.2347 1.368 50.992C1.24 49.072 1.09067 47.7707 0.92 47.088C0.792 46.576 0.728 46.2347 0.728 46.064C0.728 45.872 0.792 45.648 0.92 45.392C1.112 44.944 1.4 44.656 1.784 44.528ZM35.5883 47.6C35.0123 47.4933 34.5323 47.44 34.1483 47.44C33.2736 47.44 32.5376 47.6213 31.9403 47.984C31.6416 48.176 31.2896 48.8267 30.8843 49.936C30.5003 51.024 30.3083 51.8987 30.3083 52.56C30.3083 53.6267 30.6496 54.4907 31.3323 55.152C32.0363 55.792 32.9536 56.1227 34.0843 56.144C35.0016 56.144 35.8549 55.888 36.6443 55.376C37.4549 54.864 38.0416 54.192 38.4043 53.36C38.6389 52.8267 38.7563 52.2187 38.7563 51.536C38.7563 50.704 38.5963 49.9787 38.2763 49.36C38.0416 48.8693 37.7216 48.496 37.3163 48.24C36.9109 47.984 36.3349 47.7707 35.5883 47.6ZM31.9723 44.176C32.7189 43.984 33.4549 43.888 34.1803 43.888C35.5456 43.888 37.0069 44.2293 38.5643 44.912C39.6736 45.4027 40.5483 46.2667 41.1883 47.504C41.8496 48.7413 42.1909 50.2027 42.2123 51.888V52.08C42.2123 54.6187 41.0816 56.6773 38.8203 58.256C37.4123 59.2587 35.8443 59.76 34.1163 59.76C32.6869 59.76 31.3643 59.408 30.1483 58.704C28.9323 57.9787 28.0149 56.9653 27.3963 55.664C27.1829 55.216 27.0443 54.832 26.9803 54.512C26.9376 54.192 26.9163 53.52 26.9163 52.496C26.9376 50.9813 27.0976 49.7867 27.3963 48.912C28.1003 46.9707 28.9323 45.6587 29.8923 44.976C30.2763 44.6987 30.9696 44.432 31.9723 44.176ZM50.2408 44.496C50.6248 44.432 51.0194 44.4 51.4248 44.4C52.7048 44.4 53.8461 44.688 54.8488 45.264C55.8514 45.84 56.3528 46.5013 56.3528 47.248C56.3528 47.44 56.3208 47.6107 56.2568 47.76C55.9368 48.5707 55.4568 48.976 54.8168 48.976C54.3474 48.976 53.8141 48.8267 53.2168 48.528C52.5341 48.1867 51.9048 48.016 51.3288 48.016C50.7101 48.016 50.1981 48.2187 49.7928 48.624C49.5794 48.8373 49.4728 49.008 49.4728 49.136C49.4728 49.3067 49.6328 49.5093 49.9528 49.744C50.2941 49.9573 50.9128 50.2987 51.8088 50.768C53.2808 51.536 54.2728 52.1653 54.7848 52.656C55.2754 53.0827 55.7021 53.616 56.0648 54.256C56.4274 54.8747 56.6088 55.3973 56.6088 55.824C56.6088 56.3147 56.4808 56.8053 56.2248 57.296C55.9688 57.7867 55.6488 58.16 55.2648 58.416C54.2834 59.0773 53.0888 59.408 51.6808 59.408C50.3581 59.408 48.9928 59.0987 47.5848 58.48C46.9234 58.16 46.5074 57.7973 46.3368 57.392C46.2088 57.0933 46.1448 56.8267 46.1448 56.592C46.1448 56.1653 46.3474 55.7493 46.7528 55.344C47.0301 55.024 47.4034 54.864 47.8728 54.864C48.3208 54.864 48.8648 55.0027 49.5048 55.28C50.2088 55.5787 51.0194 55.728 51.9368 55.728C52.3634 55.728 52.5768 55.6747 52.5768 55.568C52.5768 55.312 51.6594 54.7253 49.8248 53.808C48.3954 53.0613 47.3501 52.3253 46.6888 51.6C46.0274 50.8533 45.6968 50.032 45.6968 49.136C45.6968 48.0693 46.1341 47.088 47.0088 46.192C47.9048 45.2747 48.9821 44.7093 50.2408 44.496ZM65.0318 37.52C65.3944 37.1573 65.8318 36.976 66.3438 36.976C66.7278 36.976 67.0691 37.0933 67.3678 37.328C67.6878 37.5413 67.9118 37.8507 68.0398 38.256C68.1038 38.4907 68.2104 39.6 68.3598 41.584C68.5091 43.5467 68.5838 44.912 68.5838 45.68C68.5838 45.872 68.6264 45.9893 68.7118 46.032C68.8184 46.0747 69.0638 46.096 69.4478 46.096C70.0238 46.096 70.3544 46.032 70.4398 45.904C70.4824 45.7973 70.9198 45.744 71.7518 45.744C72.8184 45.744 73.5224 45.8187 73.8638 45.968C74.1838 46.1173 74.4291 46.4053 74.5998 46.832C74.7491 47.1307 74.8238 47.376 74.8238 47.568C74.8238 47.7173 74.7918 47.8987 74.7278 48.112C74.5784 48.6027 74.3011 48.9333 73.8958 49.104C73.5118 49.2533 72.7438 49.36 71.5918 49.424C70.2904 49.488 69.4478 49.5733 69.0638 49.68L68.5518 49.808L68.6798 54.32C68.7224 56.3253 68.7438 57.4027 68.7438 57.552C68.7438 58.4907 68.6691 59.12 68.5198 59.44C68.1998 60.1227 67.6771 60.464 66.9518 60.464C66.6744 60.464 66.3864 60.4 66.0878 60.272C65.8531 60.1653 65.6824 60.0693 65.5758 59.984C65.4691 59.8773 65.3731 59.6107 65.2878 59.184C65.2024 58.736 65.1491 58.2133 65.1278 57.616C65.1064 57.0187 65.0851 56.0373 65.0638 54.672L64.9998 50.032L64.0398 50.064C63.4638 50.1067 62.9518 50.192 62.5038 50.32C62.3971 50.3627 62.2264 50.384 61.9918 50.384C61.2664 50.384 60.7438 50.16 60.4238 49.712C60.2531 49.4347 60.1678 49.0613 60.1678 48.592C60.1678 48.1867 60.2318 47.8667 60.3598 47.632C60.6584 47.0987 61.7038 46.6933 63.4958 46.416L64.9678 46.192L64.8398 43.376C64.7544 41.3707 64.6798 40.0053 64.6158 39.28C64.5731 38.768 64.5518 38.4907 64.5518 38.448C64.5518 38.1493 64.7118 37.84 65.0318 37.52ZM102.573 36.432C102.957 36.3893 103.245 36.368 103.437 36.368C104.973 36.368 106.125 36.752 106.893 37.52C107.362 38.0107 107.597 38.5333 107.597 39.088C107.597 39.5573 107.426 39.9627 107.085 40.304C106.765 40.624 106.36 40.784 105.869 40.784C105.421 40.784 104.984 40.6347 104.557 40.336C104.173 40.0587 103.821 39.92 103.501 39.92C102.989 39.92 102.509 40.2827 102.061 41.008C101.613 41.7333 101.336 42.5867 101.229 43.568C101.186 43.9093 101.165 44.112 101.165 44.176C101.165 44.4533 101.304 44.6347 101.581 44.72C101.858 44.784 102.509 44.8267 103.533 44.848C103.704 44.848 103.842 44.848 103.949 44.848C104.93 44.8907 105.517 44.9333 105.709 44.976C105.922 45.0187 106.136 45.1573 106.349 45.392C106.626 45.6907 106.765 46.0747 106.765 46.544C106.765 47.0347 106.616 47.44 106.317 47.76L105.869 48.304H100.813L100.717 48.752C100.696 48.816 100.685 49.168 100.685 49.808C100.685 52.752 100.77 55.3653 100.941 57.648C100.941 57.7333 100.941 57.8507 100.941 58C100.962 58.1493 100.973 58.256 100.973 58.32C100.973 58.8747 100.898 59.28 100.749 59.536C100.6 59.792 100.333 60.016 99.949 60.208C99.693 60.336 99.4157 60.4 99.117 60.4C98.5197 60.4 98.061 60.176 97.741 59.728C97.5703 59.472 97.4103 58.5333 97.261 56.912C97.133 55.2693 97.069 53.6587 97.069 52.08C97.069 51.3547 97.0797 50.832 97.101 50.512L97.197 48.272L95.117 48.368C94.1357 48.4107 93.6237 48.432 93.581 48.432C93.1757 48.432 92.8343 48.3253 92.557 48.112C92.1517 47.7493 91.949 47.2693 91.949 46.672C91.949 46.416 91.9917 46.192 92.077 46C92.2263 45.616 92.5357 45.3387 93.005 45.168C93.4743 44.9973 94.253 44.88 95.341 44.816C96.685 44.7307 97.3677 44.6667 97.389 44.624C97.4317 44.5813 97.549 43.9733 97.741 42.8C98.0823 40.6027 98.8503 38.928 100.045 37.776C100.493 37.328 100.866 37.0187 101.165 36.848C101.485 36.6773 101.954 36.5387 102.573 36.432ZM120.188 48.816C119.783 48.7093 119.121 48.6133 118.204 48.528C117.607 48.4853 117.287 48.464 117.244 48.464C116.945 48.464 116.647 48.624 116.348 48.944C115.495 49.8187 115.036 51.0027 114.972 52.496C114.972 52.5813 114.961 52.6987 114.94 52.848C114.94 52.976 114.94 53.072 114.94 53.136C114.94 53.6267 115.068 54.0853 115.324 54.512C116.007 55.728 117.212 56.336 118.94 56.336C119.665 56.3147 120.401 56.0693 121.148 55.6C121.916 55.1093 122.471 54.5227 122.812 53.84C123.004 53.4347 123.1 52.9973 123.1 52.528C123.1 51.7387 122.823 50.992 122.268 50.288C121.735 49.5627 121.041 49.072 120.188 48.816ZM115.324 45.232C115.815 44.9547 116.305 44.816 116.796 44.816C116.903 44.816 117.297 44.8373 117.98 44.88C120.007 44.9867 121.639 45.4133 122.876 46.16C124.113 46.9067 125.105 48.0587 125.852 49.616C126.428 50.8107 126.716 51.952 126.716 53.04C126.716 53.3813 126.684 53.68 126.62 53.936C126.279 55.2587 125.532 56.464 124.38 57.552C123.228 58.64 121.959 59.3653 120.572 59.728C119.847 59.8987 119.271 59.984 118.844 59.984C118.417 59.984 117.841 59.8987 117.116 59.728C114.919 59.152 113.34 58.1067 112.38 56.592C111.633 55.4187 111.26 54.1813 111.26 52.88C111.26 51.5787 111.612 50.192 112.316 48.72C113.127 46.992 114.129 45.8293 115.324 45.232ZM130.677 45.328C131.061 45.008 131.477 44.848 131.925 44.848C132.394 44.848 132.799 45.0187 133.141 45.36C133.482 45.68 133.653 46.096 133.653 46.608C133.653 47.12 133.749 47.376 133.941 47.376C134.047 47.376 134.271 47.2587 134.613 47.024C136.191 45.936 137.759 45.392 139.317 45.392C139.978 45.392 140.629 45.5093 141.269 45.744C141.845 45.9787 142.25 46.2347 142.485 46.512C142.719 46.7893 142.837 47.1627 142.837 47.632C142.837 48.144 142.645 48.5813 142.261 48.944C141.941 49.2427 141.653 49.392 141.397 49.392C141.311 49.392 140.714 49.3173 139.605 49.168C139.477 49.1467 139.295 49.136 139.061 49.136C138.719 49.136 138.282 49.2533 137.749 49.488C136.362 50.128 135.391 50.9387 134.837 51.92C134.282 52.9013 134.005 54.3093 134.005 56.144C133.983 57.488 133.823 58.4267 133.525 58.96C133.247 59.4933 132.746 59.76 132.021 59.76C131.53 59.76 131.114 59.5893 130.773 59.248L130.261 58.736L130.197 53.072C130.154 48.8907 130.133 46.736 130.133 46.608C130.133 46.096 130.314 45.6693 130.677 45.328ZM147.57 43.344C147.868 43.3013 148.039 43.2693 148.082 43.248C148.188 43.248 148.434 43.3227 148.818 43.472C149.116 43.6 149.383 43.856 149.618 44.24C149.852 44.624 149.97 44.9973 149.97 45.36C149.97 45.6373 150.023 45.8507 150.13 46C150.215 46.1067 150.29 46.1493 150.354 46.128C150.418 46.1067 150.567 46 150.802 45.808C151.762 44.9973 152.935 44.496 154.322 44.304C154.748 44.2613 155.047 44.24 155.218 44.24C156.306 44.24 157.234 44.6347 158.002 45.424L158.738 46.16L159.666 45.424C161.18 44.208 162.652 43.6 164.082 43.6C164.572 43.6 165.01 43.6747 165.394 43.824C165.82 43.9947 166.279 44.3253 166.77 44.816C167.282 45.2853 167.666 45.7867 167.922 46.32C168.69 47.8773 169.191 50.7787 169.426 55.024C169.468 56.0907 169.49 56.6773 169.49 56.784C169.49 57.3387 169.415 57.7547 169.266 58.032C168.946 58.6507 168.455 58.96 167.794 58.96C167.324 58.96 166.908 58.7893 166.546 58.448L165.97 57.968L165.81 54.992C165.575 50.5547 165.042 47.984 164.21 47.28C164.082 47.1947 163.975 47.152 163.89 47.152C163.719 47.152 163.41 47.2693 162.962 47.504C161.852 48.0373 161.063 48.944 160.594 50.224C160.338 50.8853 160.167 52.2613 160.082 54.352C159.975 56.464 159.868 57.6373 159.762 57.872C159.42 58.4693 158.876 58.768 158.13 58.768C157.724 58.768 157.362 58.64 157.042 58.384C156.572 58 156.338 57.0613 156.338 55.568C156.338 54.8853 156.348 54.32 156.37 53.872C156.37 53.7227 156.37 53.52 156.37 53.264C156.391 52.9867 156.402 52.784 156.402 52.656C156.402 50.5653 156.167 49.1147 155.698 48.304C155.506 47.9627 155.314 47.792 155.122 47.792C155.1 47.792 154.962 47.8133 154.706 47.856C153.34 48.112 152.188 49.2107 151.25 51.152C150.866 51.9627 150.674 52.816 150.674 53.712C150.674 54.48 150.738 55.4187 150.866 56.528C150.93 56.976 150.962 57.3493 150.962 57.648C150.962 58.4587 150.61 59.0347 149.906 59.376C149.607 59.5253 149.372 59.6 149.202 59.6C149.074 59.6 148.871 59.5467 148.594 59.44C148.06 59.248 147.708 58.8853 147.538 58.352C147.367 57.7973 147.228 56.6133 147.122 54.8C146.972 51.7067 146.716 48.5173 146.354 45.232C146.354 45.1893 146.343 45.1253 146.322 45.04C146.322 44.9547 146.322 44.9013 146.322 44.88C146.322 44.5813 146.45 44.272 146.706 43.952C147.026 43.5893 147.314 43.3867 147.57 43.344ZM182.195 49.68C182.088 49.3387 181.992 49.1467 181.907 49.104C181.821 49.04 181.587 49.008 181.203 49.008C180.093 49.0293 179.059 49.552 178.099 50.576C177.139 51.5787 176.659 52.592 176.659 53.616C176.659 54.128 176.797 54.5547 177.075 54.896C177.693 55.5787 178.344 55.92 179.027 55.92C179.069 55.92 179.112 55.92 179.155 55.92C179.197 55.8987 179.24 55.888 179.283 55.888C179.667 55.8027 180.072 55.5467 180.499 55.12C180.947 54.6933 181.288 54.224 181.523 53.712C182.013 52.56 182.259 51.44 182.259 50.352C182.259 50.032 182.237 49.808 182.195 49.68ZM179.219 45.648C179.795 45.456 180.456 45.36 181.203 45.36C182.184 45.36 183.016 45.52 183.699 45.84C184.147 46.0747 184.552 46.4267 184.915 46.896C185.299 47.344 185.533 47.7707 185.619 48.176C185.704 48.5813 185.821 48.9653 185.971 49.328C186.205 49.9467 186.675 52.272 187.379 56.304C187.485 56.944 187.539 57.424 187.539 57.744C187.539 59.024 186.941 59.664 185.747 59.664C185.341 59.664 184.968 59.504 184.627 59.184C184.307 58.864 184.104 58.4693 184.019 58C183.933 57.5733 183.859 57.328 183.795 57.264C183.709 57.2 183.464 57.3707 183.059 57.776C181.843 58.992 180.445 59.6 178.867 59.6C178.589 59.6 178.301 59.568 178.003 59.504C176.829 59.248 175.731 58.608 174.707 57.584C173.555 56.432 172.979 55.1413 172.979 53.712C172.979 52.5813 173.331 51.3547 174.035 50.032C174.568 49.0293 175.293 48.1333 176.211 47.344C177.149 46.5547 178.152 45.9893 179.219 45.648ZM196.065 38.192C196.406 37.9787 196.726 37.872 197.025 37.872C197.259 37.872 197.526 37.936 197.825 38.064C198.273 38.2773 198.561 38.608 198.689 39.056C198.817 39.504 198.902 40.5707 198.945 42.256L199.041 45.424L200.513 45.328C200.683 45.3067 200.929 45.296 201.249 45.296C202.017 45.296 202.561 45.4347 202.881 45.712C203.222 45.9893 203.393 46.4373 203.393 47.056C203.393 47.7173 203.169 48.1867 202.721 48.464C202.294 48.7413 201.462 48.9333 200.225 49.04L198.881 49.168L198.657 53.616C198.507 56.624 198.369 58.288 198.241 58.608C197.963 59.248 197.43 59.568 196.641 59.568C196.193 59.568 195.841 59.4507 195.585 59.216C195.307 59.0027 195.115 58.768 195.009 58.512C194.902 58.256 194.849 57.84 194.849 57.264C194.849 56.7947 194.881 56.0907 194.945 55.152C195.051 53.4667 195.126 52.0267 195.169 50.832L195.201 49.328L193.761 49.296C192.95 49.2747 192.395 49.2107 192.097 49.104C191.798 48.976 191.542 48.72 191.329 48.336C191.201 48.08 191.137 47.8133 191.137 47.536C191.137 47.024 191.35 46.576 191.777 46.192C192.011 45.9787 192.31 45.84 192.673 45.776C193.035 45.6907 193.707 45.6053 194.689 45.52L195.201 45.456L195.329 42.064C195.35 41.552 195.361 40.9973 195.361 40.4C195.382 39.7813 195.393 39.3227 195.393 39.024L195.425 38.576L195.521 38.512C195.585 38.4693 195.67 38.416 195.777 38.352C195.883 38.288 195.979 38.2347 196.065 38.192ZM208.644 44.912C208.729 44.8907 208.857 44.88 209.028 44.88C209.433 44.88 209.806 44.9867 210.148 45.2C210.489 45.392 210.724 45.6587 210.852 46C210.937 46.192 211.022 47.6533 211.108 50.384C211.214 53.0933 211.268 55.2267 211.268 56.784C211.268 57.4453 211.257 57.8293 211.236 57.936C211.129 58.7467 210.777 59.2907 210.18 59.568C209.881 59.696 209.646 59.76 209.476 59.76C209.348 59.76 209.156 59.728 208.9 59.664C208.409 59.5147 208.1 59.312 207.972 59.056C207.716 58.5653 207.566 56.6667 207.524 53.36C207.524 52.7627 207.513 51.728 207.492 50.256L207.46 45.872L207.844 45.424C208.1 45.1253 208.366 44.9547 208.644 44.912ZM207.876 38.896C208.132 38.768 208.377 38.704 208.612 38.704C209.081 38.704 209.497 38.896 209.86 39.28C210.222 39.6427 210.404 40.0693 210.404 40.56C210.404 40.9013 210.318 41.2 210.148 41.456C209.785 42.032 209.294 42.32 208.676 42.32C208.27 42.32 207.897 42.1813 207.556 41.904C207.214 41.6267 207.001 41.2427 206.916 40.752C206.916 40.7307 206.905 40.6987 206.884 40.656C206.884 40.592 206.884 40.5493 206.884 40.528C206.884 40.208 206.98 39.8987 207.172 39.6C207.364 39.28 207.598 39.0453 207.876 38.896ZM214.793 46.352C214.793 45.904 214.963 45.52 215.305 45.2C215.667 44.8587 216.073 44.688 216.521 44.688C217.033 44.688 217.459 44.88 217.801 45.264C218.142 45.6267 218.515 46.3093 218.921 47.312C219.326 48.3573 219.945 49.7653 220.777 51.536C221.63 53.2853 222.099 54.16 222.185 54.16C222.249 54.16 222.611 53.552 223.273 52.336C223.678 51.568 224.318 50.4373 225.193 48.944C226.089 47.4507 226.611 46.5653 226.761 46.288C227.059 45.7547 227.326 45.4133 227.561 45.264C227.795 45.1147 228.158 45.04 228.649 45.04C229.118 45.04 229.523 45.2107 229.865 45.552C230.227 45.8933 230.409 46.2987 230.409 46.768C230.409 46.8747 230.387 47.0133 230.345 47.184C230.259 47.4613 229.833 48.24 229.065 49.52C226.441 53.808 224.862 56.8267 224.329 58.576C223.987 59.6853 223.305 60.24 222.281 60.24C222.003 60.24 221.705 60.176 221.385 60.048C221.086 59.92 220.809 59.6533 220.553 59.248C220.318 58.8213 219.71 57.6053 218.729 55.6C216.105 50.224 214.793 47.1413 214.793 46.352ZM243.804 49.808C243.42 49.616 242.876 49.52 242.172 49.52C241.404 49.52 240.754 49.6373 240.22 49.872C239.858 50.0213 239.388 50.352 238.812 50.864C238.236 51.3547 237.948 51.6747 237.948 51.824C237.948 51.888 238.279 51.92 238.94 51.92C239.922 51.92 241.095 51.8667 242.46 51.76C243.826 51.6533 244.604 51.536 244.796 51.408C244.86 51.3867 244.892 51.3227 244.892 51.216C244.892 51.024 244.775 50.7787 244.54 50.48C244.306 50.16 244.06 49.936 243.804 49.808ZM240.028 46.096C240.562 45.9467 241.191 45.872 241.916 45.872C243.26 45.872 244.487 46.1387 245.596 46.672C246.428 47.0987 247.122 47.7493 247.676 48.624C248.231 49.4773 248.572 50.4373 248.7 51.504C248.7 51.5467 248.7 51.6107 248.7 51.696C248.722 51.7813 248.732 51.8453 248.732 51.888C248.732 52.4427 248.626 52.9867 248.412 53.52C248.22 54.0533 247.986 54.416 247.708 54.608C247.346 54.864 244.796 55.184 240.06 55.568C239.058 55.6533 238.556 55.7493 238.556 55.856C238.556 55.984 238.78 56.1867 239.228 56.464C239.676 56.7413 240.114 56.9333 240.54 57.04C240.924 57.1253 241.234 57.168 241.468 57.168C242.151 57.168 243.036 56.944 244.124 56.496C244.892 56.176 245.458 56.016 245.82 56.016C246.183 56.016 246.524 56.176 246.844 56.496C247.271 56.9227 247.484 57.328 247.484 57.712C247.484 57.968 247.42 58.2347 247.292 58.512C247.186 58.768 247.036 58.9707 246.844 59.12C246.674 59.2693 246.354 59.4507 245.884 59.664C244.327 60.3467 242.876 60.688 241.532 60.688C240.764 60.688 239.975 60.5707 239.164 60.336C238.076 59.9947 237.084 59.4187 236.188 58.608C235.292 57.776 234.652 56.8587 234.268 55.856C234.034 55.1947 233.916 54.4587 233.916 53.648C233.916 52.4747 234.108 51.4933 234.492 50.704C234.94 49.7227 235.698 48.784 236.764 47.888C237.831 46.992 238.919 46.3947 240.028 46.096ZM263.597 44.528C263.81 44.4213 264.066 44.368 264.365 44.368C265.453 44.368 266.135 45.2853 266.413 47.12C266.477 47.6747 266.551 47.952 266.637 47.952C266.658 47.952 266.957 47.7067 267.533 47.216C268.706 46.1707 269.901 45.648 271.117 45.648C271.778 45.648 272.407 45.8293 273.005 46.192C273.581 46.5547 273.954 46.8747 274.125 47.152L274.413 47.6L275.181 46.896C276.354 45.8507 277.613 45.328 278.957 45.328C280.258 45.328 281.378 45.8293 282.317 46.832C283.917 48.4747 284.866 51.28 285.165 55.248C285.207 55.9733 285.229 56.4213 285.229 56.592C285.229 57.1467 285.154 57.552 285.005 57.808C284.877 58.064 284.642 58.288 284.301 58.48C284.002 58.6293 283.714 58.704 283.437 58.704C282.967 58.704 282.551 58.4907 282.189 58.064C281.911 57.7013 281.73 57.0827 281.645 56.208C281.474 54.2453 281.261 52.784 281.005 51.824C280.749 50.864 280.386 50.1173 279.917 49.584C279.554 49.2 279.181 49.008 278.797 49.008C278.071 49.008 277.431 49.5733 276.877 50.704C276.663 51.152 276.525 51.568 276.461 51.952C276.397 52.336 276.343 53.2107 276.301 54.576C276.215 56.4533 276.109 57.5733 275.981 57.936C275.682 58.64 275.138 58.992 274.349 58.992C273.879 58.992 273.485 58.832 273.165 58.512C272.653 58 272.333 56.4853 272.205 53.968C272.141 53.008 272.023 52.08 271.853 51.184C271.682 50.288 271.522 49.7547 271.373 49.584C271.245 49.4347 271.106 49.36 270.957 49.36C270.701 49.36 270.274 49.6267 269.677 50.16C269.037 50.7573 268.557 51.3973 268.237 52.08C267.938 52.6987 267.757 53.2 267.693 53.584C267.65 53.9467 267.607 55.1947 267.565 57.328C267.543 57.8827 267.373 58.3307 267.053 58.672C266.733 59.0133 266.327 59.184 265.837 59.184C265.346 59.184 264.951 59.088 264.653 58.896C264.226 58.5973 263.927 58.0213 263.757 57.168C263.586 56.2933 263.394 54.2347 263.181 50.992C263.053 49.072 262.903 47.7707 262.733 47.088C262.605 46.576 262.541 46.2347 262.541 46.064C262.541 45.872 262.605 45.648 262.733 45.392C262.925 44.944 263.213 44.656 263.597 44.528ZM297.401 47.6C296.825 47.4933 296.345 47.44 295.961 47.44C295.086 47.44 294.35 47.6213 293.753 47.984C293.454 48.176 293.102 48.8267 292.697 49.936C292.313 51.024 292.121 51.8987 292.121 52.56C292.121 53.6267 292.462 54.4907 293.145 55.152C293.849 55.792 294.766 56.1227 295.897 56.144C296.814 56.144 297.667 55.888 298.457 55.376C299.267 54.864 299.854 54.192 300.217 53.36C300.451 52.8267 300.569 52.2187 300.569 51.536C300.569 50.704 300.409 49.9787 300.089 49.36C299.854 48.8693 299.534 48.496 299.129 48.24C298.723 47.984 298.147 47.7707 297.401 47.6ZM293.785 44.176C294.531 43.984 295.267 43.888 295.993 43.888C297.358 43.888 298.819 44.2293 300.377 44.912C301.486 45.4027 302.361 46.2667 303.001 47.504C303.662 48.7413 304.003 50.2027 304.025 51.888V52.08C304.025 54.6187 302.894 56.6773 300.633 58.256C299.225 59.2587 297.657 59.76 295.929 59.76C294.499 59.76 293.177 59.408 291.961 58.704C290.745 57.9787 289.827 56.9653 289.209 55.664C288.995 55.216 288.857 54.832 288.793 54.512C288.75 54.192 288.729 53.52 288.729 52.496C288.75 50.9813 288.91 49.7867 289.209 48.912C289.913 46.9707 290.745 45.6587 291.705 44.976C292.089 44.6987 292.782 44.432 293.785 44.176ZM308.757 43.344C309.056 43.3013 309.227 43.2693 309.269 43.248C309.376 43.248 309.621 43.3227 310.005 43.472C310.304 43.6 310.571 43.856 310.805 44.24C311.04 44.624 311.157 44.9973 311.157 45.36C311.157 45.6373 311.211 45.8507 311.317 46C311.403 46.1067 311.477 46.1493 311.541 46.128C311.605 46.1067 311.755 46 311.989 45.808C312.949 44.9973 314.123 44.496 315.509 44.304C315.936 44.2613 316.235 44.24 316.405 44.24C317.493 44.24 318.421 44.6347 319.189 45.424L319.925 46.16L320.853 45.424C322.368 44.208 323.84 43.6 325.269 43.6C325.76 43.6 326.197 43.6747 326.581 43.824C327.008 43.9947 327.467 44.3253 327.957 44.816C328.469 45.2853 328.853 45.7867 329.109 46.32C329.877 47.8773 330.379 50.7787 330.613 55.024C330.656 56.0907 330.677 56.6773 330.677 56.784C330.677 57.3387 330.603 57.7547 330.453 58.032C330.133 58.6507 329.643 58.96 328.981 58.96C328.512 58.96 328.096 58.7893 327.733 58.448L327.157 57.968L326.997 54.992C326.763 50.5547 326.229 47.984 325.397 47.28C325.269 47.1947 325.163 47.152 325.077 47.152C324.907 47.152 324.597 47.2693 324.149 47.504C323.04 48.0373 322.251 48.944 321.781 50.224C321.525 50.8853 321.355 52.2613 321.269 54.352C321.163 56.464 321.056 57.6373 320.949 57.872C320.608 58.4693 320.064 58.768 319.317 58.768C318.912 58.768 318.549 58.64 318.229 58.384C317.76 58 317.525 57.0613 317.525 55.568C317.525 54.8853 317.536 54.32 317.557 53.872C317.557 53.7227 317.557 53.52 317.557 53.264C317.579 52.9867 317.589 52.784 317.589 52.656C317.589 50.5653 317.355 49.1147 316.885 48.304C316.693 47.9627 316.501 47.792 316.309 47.792C316.288 47.792 316.149 47.8133 315.893 47.856C314.528 48.112 313.376 49.2107 312.437 51.152C312.053 51.9627 311.861 52.816 311.861 53.712C311.861 54.48 311.925 55.4187 312.053 56.528C312.117 56.976 312.149 57.3493 312.149 57.648C312.149 58.4587 311.797 59.0347 311.093 59.376C310.795 59.5253 310.56 59.6 310.389 59.6C310.261 59.6 310.059 59.5467 309.781 59.44C309.248 59.248 308.896 58.8853 308.725 58.352C308.555 57.7973 308.416 56.6133 308.309 54.8C308.16 51.7067 307.904 48.5173 307.541 45.232C307.541 45.1893 307.531 45.1253 307.509 45.04C307.509 44.9547 307.509 44.9013 307.509 44.88C307.509 44.5813 307.637 44.272 307.893 43.952C308.213 43.5893 308.501 43.3867 308.757 43.344ZM344.054 49.808C343.67 49.616 343.126 49.52 342.422 49.52C341.654 49.52 341.004 49.6373 340.47 49.872C340.108 50.0213 339.638 50.352 339.062 50.864C338.486 51.3547 338.198 51.6747 338.198 51.824C338.198 51.888 338.529 51.92 339.19 51.92C340.172 51.92 341.345 51.8667 342.71 51.76C344.076 51.6533 344.854 51.536 345.046 51.408C345.11 51.3867 345.142 51.3227 345.142 51.216C345.142 51.024 345.025 50.7787 344.79 50.48C344.556 50.16 344.31 49.936 344.054 49.808ZM340.278 46.096C340.812 45.9467 341.441 45.872 342.166 45.872C343.51 45.872 344.737 46.1387 345.846 46.672C346.678 47.0987 347.372 47.7493 347.926 48.624C348.481 49.4773 348.822 50.4373 348.95 51.504C348.95 51.5467 348.95 51.6107 348.95 51.696C348.972 51.7813 348.982 51.8453 348.982 51.888C348.982 52.4427 348.876 52.9867 348.662 53.52C348.47 54.0533 348.236 54.416 347.958 54.608C347.596 54.864 345.046 55.184 340.31 55.568C339.308 55.6533 338.806 55.7493 338.806 55.856C338.806 55.984 339.03 56.1867 339.478 56.464C339.926 56.7413 340.364 56.9333 340.79 57.04C341.174 57.1253 341.484 57.168 341.718 57.168C342.401 57.168 343.286 56.944 344.374 56.496C345.142 56.176 345.708 56.016 346.07 56.016C346.433 56.016 346.774 56.176 347.094 56.496C347.521 56.9227 347.734 57.328 347.734 57.712C347.734 57.968 347.67 58.2347 347.542 58.512C347.436 58.768 347.286 58.9707 347.094 59.12C346.924 59.2693 346.604 59.4507 346.134 59.664C344.577 60.3467 343.126 60.688 341.782 60.688C341.014 60.688 340.225 60.5707 339.414 60.336C338.326 59.9947 337.334 59.4187 336.438 58.608C335.542 57.776 334.902 56.8587 334.518 55.856C334.284 55.1947 334.166 54.4587 334.166 53.648C334.166 52.4747 334.358 51.4933 334.742 50.704C335.19 49.7227 335.948 48.784 337.014 47.888C338.081 46.992 339.169 46.3947 340.278 46.096ZM353.311 45.072C353.567 44.944 353.833 44.88 354.111 44.88C354.495 44.88 354.857 45.008 355.199 45.264C355.54 45.4987 355.775 45.8187 355.903 46.224L356.095 46.896L356.895 46.416C357.428 46.096 358.164 45.936 359.103 45.936C360.02 45.936 360.777 46.0853 361.375 46.384C361.865 46.6187 362.388 47.0027 362.943 47.536C363.519 48.0693 363.977 48.6027 364.319 49.136C365.471 50.9493 366.1 53.7653 366.207 57.584V58.224C366.207 58.736 366.057 59.152 365.759 59.472C365.396 59.8347 364.969 60.016 364.479 60.016C363.689 60.016 363.167 59.6747 362.911 58.992C362.783 58.6293 362.676 57.9147 362.591 56.848C362.335 53.1147 361.503 50.7787 360.095 49.84C359.796 49.648 359.497 49.552 359.199 49.552C358.644 49.552 358.143 49.8613 357.695 50.48C357.268 51.0773 356.927 51.9307 356.671 53.04C356.564 53.5307 356.436 54.416 356.287 55.696C356.137 56.976 356.063 57.84 356.063 58.288C356.063 58.5013 355.881 58.7893 355.519 59.152C355.156 59.4933 354.74 59.664 354.271 59.664C353.396 59.664 352.82 59.2053 352.543 58.288C352.415 57.84 352.351 55.8987 352.351 52.464C352.351 48.368 352.425 46.1387 352.575 45.776C352.703 45.4987 352.948 45.264 353.311 45.072ZM374.688 37.52C375.051 37.1573 375.488 36.976 376 36.976C376.384 36.976 376.725 37.0933 377.024 37.328C377.344 37.5413 377.568 37.8507 377.696 38.256C377.76 38.4907 377.867 39.6 378.016 41.584C378.165 43.5467 378.24 44.912 378.24 45.68C378.24 45.872 378.283 45.9893 378.368 46.032C378.475 46.0747 378.72 46.096 379.104 46.096C379.68 46.096 380.011 46.032 380.096 45.904C380.139 45.7973 380.576 45.744 381.408 45.744C382.475 45.744 383.179 45.8187 383.52 45.968C383.84 46.1173 384.085 46.4053 384.256 46.832C384.405 47.1307 384.48 47.376 384.48 47.568C384.48 47.7173 384.448 47.8987 384.384 48.112C384.235 48.6027 383.957 48.9333 383.552 49.104C383.168 49.2533 382.4 49.36 381.248 49.424C379.947 49.488 379.104 49.5733 378.72 49.68L378.208 49.808L378.336 54.32C378.379 56.3253 378.4 57.4027 378.4 57.552C378.4 58.4907 378.325 59.12 378.176 59.44C377.856 60.1227 377.333 60.464 376.608 60.464C376.331 60.464 376.043 60.4 375.744 60.272C375.509 60.1653 375.339 60.0693 375.232 59.984C375.125 59.8773 375.029 59.6107 374.944 59.184C374.859 58.736 374.805 58.2133 374.784 57.616C374.763 57.0187 374.741 56.0373 374.72 54.672L374.656 50.032L373.696 50.064C373.12 50.1067 372.608 50.192 372.16 50.32C372.053 50.3627 371.883 50.384 371.648 50.384C370.923 50.384 370.4 50.16 370.08 49.712C369.909 49.4347 369.824 49.0613 369.824 48.592C369.824 48.1867 369.888 47.8667 370.016 47.632C370.315 47.0987 371.36 46.6933 373.152 46.416L374.624 46.192L374.496 43.376C374.411 41.3707 374.336 40.0053 374.272 39.28C374.229 38.768 374.208 38.4907 374.208 38.448C374.208 38.1493 374.368 37.84 374.688 37.52ZM392.585 44.496C392.969 44.432 393.363 44.4 393.769 44.4C395.049 44.4 396.19 44.688 397.193 45.264C398.195 45.84 398.697 46.5013 398.697 47.248C398.697 47.44 398.665 47.6107 398.601 47.76C398.281 48.5707 397.801 48.976 397.161 48.976C396.691 48.976 396.158 48.8267 395.561 48.528C394.878 48.1867 394.249 48.016 393.673 48.016C393.054 48.016 392.542 48.2187 392.137 48.624C391.923 48.8373 391.817 49.008 391.817 49.136C391.817 49.3067 391.977 49.5093 392.297 49.744C392.638 49.9573 393.257 50.2987 394.153 50.768C395.625 51.536 396.617 52.1653 397.129 52.656C397.619 53.0827 398.046 53.616 398.409 54.256C398.771 54.8747 398.953 55.3973 398.953 55.824C398.953 56.3147 398.825 56.8053 398.569 57.296C398.313 57.7867 397.993 58.16 397.609 58.416C396.627 59.0773 395.433 59.408 394.025 59.408C392.702 59.408 391.337 59.0987 389.929 58.48C389.267 58.16 388.851 57.7973 388.681 57.392C388.553 57.0933 388.489 56.8267 388.489 56.592C388.489 56.1653 388.691 55.7493 389.097 55.344C389.374 55.024 389.747 54.864 390.217 54.864C390.665 54.864 391.209 55.0027 391.849 55.28C392.553 55.5787 393.363 55.728 394.281 55.728C394.707 55.728 394.921 55.6747 394.921 55.568C394.921 55.312 394.003 54.7253 392.169 53.808C390.739 53.0613 389.694 52.3253 389.033 51.6C388.371 50.8533 388.041 50.032 388.041 49.136C388.041 48.0693 388.478 47.088 389.353 46.192C390.249 45.2747 391.326 44.7093 392.585 44.496ZM404.816 55.344C404.965 55.1947 405.296 55.12 405.808 55.12C406.234 55.12 406.608 55.248 406.928 55.504C407.248 55.76 407.45 56.0907 407.536 56.496C407.557 56.56 407.568 56.6773 407.568 56.848C407.568 57.4453 407.408 58.3093 407.088 59.44C406.768 60.5493 406.384 61.5947 405.936 62.576C405.616 63.28 405.061 63.632 404.272 63.632C403.418 63.632 402.842 63.216 402.544 62.384C402.501 62.2773 402.48 62.128 402.48 61.936C402.48 61.6587 402.65 61.0827 402.992 60.208C403.461 58.9067 403.749 57.9467 403.856 57.328C403.984 56.7307 404.112 56.304 404.24 56.048C404.368 55.792 404.56 55.5573 404.816 55.344Z" fill="#27263C"/>
</svg>
