<svg width="344" height="104" viewBox="0 0 344 104" fill="none" xmlns="http://www.w3.org/2000/svg">
<path d="M10.456 16.304C10.456 15.6213 10.0507 14.928 9.24 14.224C8.42933 13.52 7.576 13.168 6.68 13.168C6.12533 13.1893 5.73067 13.264 5.496 13.392C5.26133 13.52 5.03733 13.808 4.824 14.256C4.632 14.704 4.536 15.1627 4.536 15.632C4.536 15.76 4.55733 16.2933 4.6 17.232L4.728 19.472L5.304 19.568C5.368 19.5893 5.464 19.6 5.592 19.6C6.168 19.6 6.86133 19.408 7.672 19.024C8.504 18.6187 9.208 18.1387 9.784 17.584C10.232 17.136 10.456 16.7093 10.456 16.304ZM1.976 9.456C1.99733 9.456 2.02933 9.456 2.072 9.456C2.11467 9.43467 2.15733 9.424 2.2 9.424C2.81867 9.424 3.27733 9.57333 3.576 9.872C3.68267 9.936 3.8 9.968 3.928 9.968C4.09867 9.968 4.38667 9.904 4.792 9.776C5.368 9.60533 5.93333 9.52 6.488 9.52C7.512 9.52 8.536 9.75467 9.56 10.224C10.6053 10.672 11.4907 11.2907 12.216 12.08C13.4747 13.4667 14.104 14.896 14.104 16.368C14.104 18.0747 13.2933 19.5253 11.672 20.72C10.712 21.4453 9.66667 22.0427 8.536 22.512C7.40533 22.9813 6.47733 23.216 5.752 23.216C5.56 23.216 5.42133 23.2053 5.336 23.184L4.824 23.088C4.86667 23.856 4.90933 25.0187 4.952 26.576C4.99467 28.1333 5.03733 29.3067 5.08 30.096L4.44 30.736C4.01333 31.1627 3.59733 31.376 3.192 31.376C2.808 31.376 2.43467 31.1947 2.072 30.832C1.752 30.512 1.54933 30.2027 1.464 29.904C1.42133 29.648 1.32533 27.2693 1.176 22.768C1.06933 18.288 0.952 15.4933 0.824 14.384C0.717333 13.3813 0.664 12.4427 0.664 11.568C0.664 11.056 0.685333 10.7253 0.728 10.576C0.792 10.4053 0.930667 10.2133 1.144 10C1.464 9.68 1.74133 9.49867 1.976 9.456ZM18.0518 9.328C18.4358 9.008 18.8518 8.848 19.2998 8.848C19.7691 8.848 20.1744 9.01867 20.5158 9.36C20.8571 9.68 21.0278 10.096 21.0278 10.608C21.0278 11.12 21.1238 11.376 21.3158 11.376C21.4224 11.376 21.6464 11.2587 21.9878 11.024C23.5664 9.936 25.1344 9.392 26.6918 9.392C27.3531 9.392 28.0038 9.50933 28.6438 9.744C29.2198 9.97867 29.6251 10.2347 29.8598 10.512C30.0944 10.7893 30.2118 11.1627 30.2118 11.632C30.2118 12.144 30.0198 12.5813 29.6358 12.944C29.3158 13.2427 29.0278 13.392 28.7718 13.392C28.6864 13.392 28.0891 13.3173 26.9798 13.168C26.8518 13.1467 26.6704 13.136 26.4358 13.136C26.0944 13.136 25.6571 13.2533 25.1238 13.488C23.7371 14.128 22.7664 14.9387 22.2118 15.92C21.6571 16.9013 21.3798 18.3093 21.3798 20.144C21.3584 21.488 21.1984 22.4267 20.8998 22.96C20.6224 23.4933 20.1211 23.76 19.3958 23.76C18.9051 23.76 18.4891 23.5893 18.1478 23.248L17.6358 22.736L17.5718 17.072C17.5291 12.8907 17.5078 10.736 17.5078 10.608C17.5078 10.096 17.6891 9.66933 18.0518 9.328ZM42.6568 12.816C42.2514 12.7093 41.5901 12.6133 40.6728 12.528C40.0754 12.4853 39.7554 12.464 39.7128 12.464C39.4141 12.464 39.1154 12.624 38.8168 12.944C37.9634 13.8187 37.5048 15.0027 37.4408 16.496C37.4408 16.5813 37.4301 16.6987 37.4088 16.848C37.4088 16.976 37.4088 17.072 37.4088 17.136C37.4088 17.6267 37.5368 18.0853 37.7928 18.512C38.4754 19.728 39.6808 20.336 41.4088 20.336C42.1341 20.3147 42.8701 20.0693 43.6168 19.6C44.3848 19.1093 44.9394 18.5227 45.2808 17.84C45.4728 17.4347 45.5688 16.9973 45.5688 16.528C45.5688 15.7387 45.2914 14.992 44.7368 14.288C44.2034 13.5627 43.5101 13.072 42.6568 12.816ZM37.7928 9.232C38.2834 8.95467 38.7741 8.816 39.2648 8.816C39.3714 8.816 39.7661 8.83733 40.4488 8.88C42.4754 8.98667 44.1074 9.41333 45.3448 10.16C46.5821 10.9067 47.5741 12.0587 48.3208 13.616C48.8968 14.8107 49.1848 15.952 49.1848 17.04C49.1848 17.3813 49.1528 17.68 49.0888 17.936C48.7474 19.2587 48.0008 20.464 46.8488 21.552C45.6968 22.64 44.4274 23.3653 43.0408 23.728C42.3154 23.8987 41.7394 23.984 41.3128 23.984C40.8861 23.984 40.3101 23.8987 39.5848 23.728C37.3874 23.152 35.8088 22.1067 34.8488 20.592C34.1021 19.4187 33.7288 18.1813 33.7288 16.88C33.7288 15.5787 34.0808 14.192 34.7848 12.72C35.5954 10.992 36.5981 9.82933 37.7928 9.232ZM63.5455 15.152C63.1402 14.64 62.5642 14.2133 61.8175 13.872C61.0708 13.5307 60.2068 13.36 59.2255 13.36C58.6282 13.36 58.1695 13.4347 57.8495 13.584C57.5082 13.7333 57.1775 14.0747 56.8575 14.608C56.5588 15.12 56.4095 15.7493 56.4095 16.496V17.04C56.4735 18.5547 56.5162 19.4507 56.5375 19.728L56.6655 20.752L57.4335 20.88C57.7322 20.9227 57.9775 20.944 58.1695 20.944C59.4282 20.944 60.5695 20.6987 61.5935 20.208C62.1055 19.9733 62.5962 19.5893 63.0655 19.056C63.5562 18.5013 63.8868 17.9573 64.0575 17.424C64.1428 17.1253 64.1855 16.8907 64.1855 16.72C64.1855 16.1653 63.9722 15.6427 63.5455 15.152ZM53.4655 2.416C53.6788 2.30933 53.9348 2.256 54.2335 2.256C54.7455 2.256 55.1935 2.448 55.5775 2.832C55.8122 3.06667 55.9508 3.35467 55.9935 3.696C56.0575 4.016 56.1428 5.02933 56.2495 6.736C56.3562 8.976 56.4308 10.1173 56.4735 10.16H56.5055C56.6122 10.16 56.9855 10.0853 57.6255 9.936C58.3722 9.76533 59.0228 9.68 59.5775 9.68C60.6442 9.68 61.9455 10.032 63.4815 10.736C65.2308 11.5467 66.4575 12.6773 67.1615 14.128C67.3748 14.576 67.5028 14.9493 67.5455 15.248C67.6095 15.5467 67.6415 16.048 67.6415 16.752C67.6415 17.456 67.6095 17.9573 67.5455 18.256C67.4815 18.5333 67.3108 18.96 67.0335 19.536C66.4148 20.7307 65.5615 21.744 64.4735 22.576C63.3855 23.408 62.1802 23.9627 60.8575 24.24C60.0895 24.4107 59.2895 24.496 58.4575 24.496C57.6682 24.496 56.7402 24.4213 55.6735 24.272C54.8628 24.144 54.3295 24.0373 54.0735 23.952C53.8175 23.8667 53.5828 23.7067 53.3695 23.472L52.8895 22.96V17.968C52.8895 14.96 52.8255 11.7067 52.6975 8.208C52.6335 6.56533 52.6015 5.38133 52.6015 4.656C52.6015 3.80267 52.6548 3.25867 52.7615 3.024C52.8682 2.78933 53.1028 2.58667 53.4655 2.416ZM82.2703 13.232C81.6516 12.6133 80.6916 12.304 79.3903 12.304C78.7503 12.304 78.1849 12.4107 77.6943 12.624C77.2249 12.8373 76.7129 13.2533 76.1583 13.872C75.6036 14.4907 75.2409 15.056 75.0703 15.568C74.8783 16.1227 74.7823 16.6453 74.7823 17.136C74.7823 18.2667 75.2303 19.0667 76.1263 19.536C76.6596 19.8133 77.3529 19.952 78.2063 19.952C78.7823 19.952 79.2196 19.8773 79.5183 19.728C81.2463 18.8533 82.3023 17.2853 82.6863 15.024L82.8783 13.808L82.2703 13.232ZM77.4062 8.88C77.9183 8.73067 78.5156 8.656 79.1983 8.656C80.3503 8.656 81.4809 8.85867 82.5903 9.264C83.6996 9.66933 84.4676 10.1813 84.8943 10.8C85.1929 11.2267 85.5769 11.6747 86.0463 12.144C86.5583 12.6773 87.0276 13.5947 87.4543 14.896C87.8596 16.1333 88.2329 17.5093 88.5743 19.024C88.9369 20.5387 89.1183 21.5627 89.1183 22.096C89.1183 22.6293 88.9583 23.0453 88.6383 23.344C88.2329 23.728 87.8489 23.92 87.4862 23.92C87.3369 23.92 87.1449 23.888 86.9103 23.824C86.5049 23.6747 86.1849 23.4187 85.9503 23.056C85.7369 22.6933 85.5449 22.1067 85.3743 21.296C85.1609 20.336 85.0436 19.856 85.0223 19.856C84.9369 19.856 84.4889 20.2613 83.6783 21.072C82.0783 22.6293 80.4143 23.472 78.6863 23.6H78.2383C77.1929 23.6 76.1689 23.4187 75.1663 23.056C74.1849 22.6933 73.4063 22.2133 72.8303 21.616C72.5316 21.3173 72.2329 20.8693 71.9343 20.272C71.6356 19.6533 71.4329 19.088 71.3263 18.576C71.2196 18.0427 71.1663 17.5627 71.1663 17.136C71.1663 15.3653 71.7636 13.6693 72.9583 12.048C74.1743 10.4267 75.6569 9.37067 77.4062 8.88ZM103.546 15.152C103.14 14.64 102.564 14.2133 101.818 13.872C101.071 13.5307 100.207 13.36 99.2255 13.36C98.6282 13.36 98.1695 13.4347 97.8495 13.584C97.5082 13.7333 97.1775 14.0747 96.8575 14.608C96.5588 15.12 96.4095 15.7493 96.4095 16.496V17.04C96.4735 18.5547 96.5162 19.4507 96.5375 19.728L96.6655 20.752L97.4335 20.88C97.7322 20.9227 97.9775 20.944 98.1695 20.944C99.4282 20.944 100.57 20.6987 101.594 20.208C102.106 19.9733 102.596 19.5893 103.066 19.056C103.556 18.5013 103.887 17.9573 104.058 17.424C104.143 17.1253 104.186 16.8907 104.186 16.72C104.186 16.1653 103.972 15.6427 103.546 15.152ZM93.4655 2.416C93.6788 2.30933 93.9348 2.256 94.2335 2.256C94.7455 2.256 95.1935 2.448 95.5775 2.832C95.8122 3.06667 95.9508 3.35467 95.9935 3.696C96.0575 4.016 96.1428 5.02933 96.2495 6.736C96.3562 8.976 96.4308 10.1173 96.4735 10.16H96.5055C96.6122 10.16 96.9855 10.0853 97.6255 9.936C98.3722 9.76533 99.0228 9.68 99.5775 9.68C100.644 9.68 101.946 10.032 103.482 10.736C105.231 11.5467 106.458 12.6773 107.162 14.128C107.375 14.576 107.503 14.9493 107.546 15.248C107.61 15.5467 107.642 16.048 107.642 16.752C107.642 17.456 107.61 17.9573 107.546 18.256C107.482 18.5333 107.311 18.96 107.034 19.536C106.415 20.7307 105.562 21.744 104.474 22.576C103.386 23.408 102.18 23.9627 100.858 24.24C100.09 24.4107 99.2895 24.496 98.4575 24.496C97.6682 24.496 96.7402 24.4213 95.6735 24.272C94.8628 24.144 94.3295 24.0373 94.0735 23.952C93.8175 23.8667 93.5828 23.7067 93.3695 23.472L92.8895 22.96V17.968C92.8895 14.96 92.8255 11.7067 92.6975 8.208C92.6335 6.56533 92.6015 5.38133 92.6015 4.656C92.6015 3.80267 92.6548 3.25867 92.7615 3.024C92.8682 2.78933 93.1028 2.58667 93.4655 2.416ZM112.606 2.864C112.884 2.75733 113.129 2.704 113.342 2.704C113.662 2.704 113.982 2.8 114.302 2.992C114.622 3.20533 114.836 3.44 114.942 3.696C115.07 3.952 115.134 4.44267 115.134 5.168C115.134 6 115.092 7.056 115.006 8.336C114.857 10.96 114.761 14.0533 114.718 17.616C114.718 21.0933 114.644 22.9707 114.494 23.248C114.388 23.4613 114.164 23.6747 113.822 23.888C113.502 24.08 113.225 24.176 112.99 24.176C112.734 24.176 112.446 24.0693 112.126 23.856C111.806 23.6427 111.582 23.408 111.454 23.152C111.198 22.64 111.07 20.9227 111.07 18C111.07 15.056 111.198 11.1733 111.454 6.352C111.518 5.09333 111.625 4.24 111.774 3.792C111.924 3.344 112.201 3.03467 112.606 2.864ZM130.572 8.272C130.785 8.208 130.945 8.176 131.052 8.176C131.137 8.176 131.382 8.26133 131.788 8.432C132.214 8.60267 132.513 8.89067 132.684 9.296C132.769 9.46667 132.812 9.65867 132.812 9.872C132.812 10.192 132.556 11.1627 132.044 12.784C131.105 15.792 129.921 18.8107 128.492 21.84C127.83 23.2907 126.817 25.168 125.452 27.472C124.086 29.7973 123.254 31.0453 122.956 31.216C122.614 31.4293 122.262 31.536 121.9 31.536C121.409 31.536 120.982 31.3653 120.62 31.024C120.278 30.704 120.108 30.2773 120.108 29.744C120.108 29.36 120.449 28.6347 121.132 27.568C121.665 26.736 122.358 25.5627 123.212 24.048C124.065 22.512 124.492 21.6907 124.492 21.584C124.492 21.52 124.257 21.0933 123.788 20.304C123.574 19.9627 122.817 18.576 121.516 16.144C120.236 13.6907 119.457 12.272 119.18 11.888C118.838 11.3973 118.668 10.9067 118.668 10.416C118.668 9.712 119.009 9.21067 119.692 8.912C119.948 8.80533 120.172 8.752 120.364 8.752C120.812 8.752 121.249 9.008 121.676 9.52C122.102 10.0107 122.646 10.864 123.308 12.08C124.737 14.7253 125.708 16.4533 126.22 17.264C126.326 17.4133 126.39 17.488 126.412 17.488C126.497 17.488 126.71 17.0293 127.052 16.112C127.542 14.768 128.033 13.3387 128.524 11.824C128.95 10.4587 129.292 9.552 129.548 9.104C129.825 8.656 130.166 8.37867 130.572 8.272ZM146.66 8.08C147.044 7.90933 147.289 7.824 147.396 7.824C147.481 7.824 147.726 7.90933 148.132 8.08C148.516 8.22933 148.814 8.54933 149.028 9.04C149.262 9.53067 149.572 10.5227 149.956 12.016C151.001 16.1333 151.641 18.3093 151.876 18.544H151.908C151.993 18.544 152.313 17.9147 152.868 16.656C153.422 15.376 154.062 14.064 154.788 12.72C155.534 11.3547 156.164 10.5973 156.676 10.448C156.889 10.384 157.124 10.352 157.38 10.352C158.19 10.352 158.788 10.576 159.172 11.024C159.428 11.3227 159.822 12.1547 160.356 13.52C161.572 16.5493 162.244 18.064 162.372 18.064H162.404C162.468 18.0213 162.852 16.976 163.556 14.928C164.26 12.7947 164.74 11.4507 164.996 10.896C165.273 10.3413 165.614 9.97867 166.02 9.808C166.297 9.68 166.585 9.616 166.884 9.616C166.99 9.616 167.065 9.62667 167.108 9.648C167.449 9.73333 167.769 9.94667 168.068 10.288C168.388 10.6293 168.548 10.9493 168.548 11.248C168.548 11.5893 168.057 13.104 167.076 15.792C166.116 18.48 165.401 20.3147 164.932 21.296C164.441 22.32 164.036 22.992 163.716 23.312C163.396 23.6107 162.969 23.76 162.436 23.76C161.668 23.76 161.113 23.5573 160.772 23.152C160.452 22.7253 159.854 21.4987 158.98 19.472C157.934 17.104 157.358 15.92 157.252 15.92C157.145 15.92 156.665 16.88 155.812 18.8C154.788 21.1253 154.062 22.576 153.636 23.152C153.209 23.7067 152.612 23.984 151.844 23.984H151.684C150.958 23.9627 150.489 23.8453 150.276 23.632C149.465 22.9493 148.238 19.5467 146.596 13.424C145.977 11.12 145.668 9.78667 145.668 9.424C145.668 9.232 145.71 9.05067 145.796 8.88C145.988 8.47467 146.276 8.208 146.66 8.08ZM181.961 13.808C181.577 13.616 181.033 13.52 180.329 13.52C179.561 13.52 178.91 13.6373 178.377 13.872C178.014 14.0213 177.545 14.352 176.969 14.864C176.393 15.3547 176.105 15.6747 176.105 15.824C176.105 15.888 176.435 15.92 177.097 15.92C178.078 15.92 179.251 15.8667 180.617 15.76C181.982 15.6533 182.761 15.536 182.953 15.408C183.017 15.3867 183.049 15.3227 183.049 15.216C183.049 15.024 182.931 14.7787 182.697 14.48C182.462 14.16 182.217 13.936 181.961 13.808ZM178.185 10.096C178.718 9.94667 179.347 9.872 180.073 9.872C181.417 9.872 182.643 10.1387 183.753 10.672C184.585 11.0987 185.278 11.7493 185.833 12.624C186.387 13.4773 186.729 14.4373 186.857 15.504C186.857 15.5467 186.857 15.6107 186.857 15.696C186.878 15.7813 186.889 15.8453 186.889 15.888C186.889 16.4427 186.782 16.9867 186.569 17.52C186.377 18.0533 186.142 18.416 185.865 18.608C185.502 18.864 182.953 19.184 178.217 19.568C177.214 19.6533 176.713 19.7493 176.713 19.856C176.713 19.984 176.937 20.1867 177.385 20.464C177.833 20.7413 178.27 20.9333 178.697 21.04C179.081 21.1253 179.39 21.168 179.625 21.168C180.307 21.168 181.193 20.944 182.281 20.496C183.049 20.176 183.614 20.016 183.977 20.016C184.339 20.016 184.681 20.176 185.001 20.496C185.427 20.9227 185.641 21.328 185.641 21.712C185.641 21.968 185.577 22.2347 185.449 22.512C185.342 22.768 185.193 22.9707 185.001 23.12C184.83 23.2693 184.51 23.4507 184.041 23.664C182.483 24.3467 181.033 24.688 179.689 24.688C178.921 24.688 178.131 24.5707 177.321 24.336C176.233 23.9947 175.241 23.4187 174.345 22.608C173.449 21.776 172.809 20.8587 172.424 19.856C172.19 19.1947 172.073 18.4587 172.073 17.648C172.073 16.4747 172.265 15.4933 172.649 14.704C173.097 13.7227 173.854 12.784 174.921 11.888C175.987 10.992 177.075 10.3947 178.185 10.096ZM190.833 9.328C191.217 9.008 191.633 8.848 192.081 8.848C192.55 8.848 192.956 9.01867 193.297 9.36C193.638 9.68 193.809 10.096 193.809 10.608C193.809 11.12 193.905 11.376 194.097 11.376C194.204 11.376 194.428 11.2587 194.769 11.024C196.348 9.936 197.916 9.392 199.473 9.392C200.134 9.392 200.785 9.50933 201.425 9.744C202.001 9.97867 202.406 10.2347 202.641 10.512C202.876 10.7893 202.993 11.1627 202.993 11.632C202.993 12.144 202.801 12.5813 202.417 12.944C202.097 13.2427 201.809 13.392 201.553 13.392C201.468 13.392 200.87 13.3173 199.761 13.168C199.633 13.1467 199.452 13.136 199.217 13.136C198.876 13.136 198.438 13.2533 197.905 13.488C196.518 14.128 195.548 14.9387 194.993 15.92C194.438 16.9013 194.161 18.3093 194.161 20.144C194.14 21.488 193.98 22.4267 193.681 22.96C193.404 23.4933 192.902 23.76 192.177 23.76C191.686 23.76 191.27 23.5893 190.929 23.248L190.417 22.736L190.353 17.072C190.31 12.8907 190.289 10.736 190.289 10.608C190.289 10.096 190.47 9.66933 190.833 9.328ZM216.398 13.808C216.014 13.616 215.47 13.52 214.766 13.52C213.998 13.52 213.347 13.6373 212.814 13.872C212.451 14.0213 211.982 14.352 211.406 14.864C210.83 15.3547 210.542 15.6747 210.542 15.824C210.542 15.888 210.873 15.92 211.534 15.92C212.515 15.92 213.689 15.8667 215.054 15.76C216.419 15.6533 217.198 15.536 217.39 15.408C217.454 15.3867 217.486 15.3227 217.486 15.216C217.486 15.024 217.369 14.7787 217.134 14.48C216.899 14.16 216.654 13.936 216.398 13.808ZM212.622 10.096C213.155 9.94667 213.785 9.872 214.51 9.872C215.854 9.872 217.081 10.1387 218.19 10.672C219.022 11.0987 219.715 11.7493 220.27 12.624C220.825 13.4773 221.166 14.4373 221.294 15.504C221.294 15.5467 221.294 15.6107 221.294 15.696C221.315 15.7813 221.326 15.8453 221.326 15.888C221.326 16.4427 221.219 16.9867 221.006 17.52C220.814 18.0533 220.579 18.416 220.302 18.608C219.939 18.864 217.39 19.184 212.654 19.568C211.651 19.6533 211.15 19.7493 211.15 19.856C211.15 19.984 211.374 20.1867 211.822 20.464C212.27 20.7413 212.707 20.9333 213.134 21.04C213.518 21.1253 213.827 21.168 214.062 21.168C214.745 21.168 215.63 20.944 216.718 20.496C217.486 20.176 218.051 20.016 218.414 20.016C218.777 20.016 219.118 20.176 219.438 20.496C219.865 20.9227 220.078 21.328 220.078 21.712C220.078 21.968 220.014 22.2347 219.886 22.512C219.779 22.768 219.63 22.9707 219.438 23.12C219.267 23.2693 218.947 23.4507 218.478 23.664C216.921 24.3467 215.47 24.688 214.126 24.688C213.358 24.688 212.569 24.5707 211.758 24.336C210.67 23.9947 209.678 23.4187 208.782 22.608C207.886 21.776 207.246 20.8587 206.862 19.856C206.627 19.1947 206.51 18.4587 206.51 17.648C206.51 16.4747 206.702 15.4933 207.086 14.704C207.534 13.7227 208.291 12.784 209.358 11.888C210.425 10.992 211.513 10.3947 212.622 10.096ZM225.655 9.072C225.911 8.944 226.177 8.88 226.455 8.88C226.839 8.88 227.201 9.008 227.543 9.264C227.884 9.49867 228.119 9.81867 228.247 10.224L228.439 10.896L229.239 10.416C229.772 10.096 230.508 9.936 231.447 9.936C232.364 9.936 233.121 10.0853 233.719 10.384C234.209 10.6187 234.732 11.0027 235.287 11.536C235.863 12.0693 236.321 12.6027 236.663 13.136C237.815 14.9493 238.444 17.7653 238.551 21.584V22.224C238.551 22.736 238.401 23.152 238.103 23.472C237.74 23.8347 237.313 24.016 236.823 24.016C236.033 24.016 235.511 23.6747 235.255 22.992C235.127 22.6293 235.02 21.9147 234.935 20.848C234.679 17.1147 233.847 14.7787 232.439 13.84C232.14 13.648 231.841 13.552 231.543 13.552C230.988 13.552 230.487 13.8613 230.039 14.48C229.612 15.0773 229.271 15.9307 229.015 17.04C228.908 17.5307 228.78 18.416 228.631 19.696C228.481 20.976 228.407 21.84 228.407 22.288C228.407 22.5013 228.225 22.7893 227.863 23.152C227.5 23.4933 227.084 23.664 226.615 23.664C225.74 23.664 225.164 23.2053 224.887 22.288C224.759 21.84 224.695 19.8987 224.695 16.464C224.695 12.368 224.769 10.1387 224.919 9.776C225.047 9.49867 225.292 9.264 225.655 9.072ZM246.904 3.504C246.626 4.63467 246.232 5.872 245.72 7.216C245.208 8.56 244.685 9.81867 244.152 10.992H240.728C241.026 9.73333 241.325 8.38933 241.624 6.96C241.922 5.53067 242.146 4.26133 242.296 3.152H246.68L246.904 3.504ZM253.969 1.52C254.332 1.15733 254.769 0.975998 255.281 0.975998C255.665 0.975998 256.007 1.09333 256.305 1.328C256.625 1.54133 256.849 1.85067 256.977 2.256C257.041 2.49067 257.148 3.6 257.297 5.584C257.447 7.54667 257.521 8.912 257.521 9.68C257.521 9.872 257.564 9.98933 257.649 10.032C257.756 10.0747 258.001 10.096 258.385 10.096C258.961 10.096 259.292 10.032 259.377 9.904C259.42 9.79733 259.857 9.744 260.689 9.744C261.756 9.744 262.46 9.81867 262.801 9.968C263.121 10.1173 263.367 10.4053 263.537 10.832C263.687 11.1307 263.761 11.376 263.761 11.568C263.761 11.7173 263.729 11.8987 263.665 12.112C263.516 12.6027 263.239 12.9333 262.833 13.104C262.449 13.2533 261.681 13.36 260.529 13.424C259.228 13.488 258.385 13.5733 258.001 13.68L257.489 13.808L257.617 18.32C257.66 20.3253 257.681 21.4027 257.681 21.552C257.681 22.4907 257.607 23.12 257.457 23.44C257.137 24.1227 256.615 24.464 255.889 24.464C255.612 24.464 255.324 24.4 255.025 24.272C254.791 24.1653 254.62 24.0693 254.513 23.984C254.407 23.8773 254.311 23.6107 254.225 23.184C254.14 22.736 254.087 22.2133 254.065 21.616C254.044 21.0187 254.023 20.0373 254.001 18.672L253.937 14.032L252.977 14.064C252.401 14.1067 251.889 14.192 251.441 14.32C251.335 14.3627 251.164 14.384 250.929 14.384C250.204 14.384 249.681 14.16 249.361 13.712C249.191 13.4347 249.105 13.0613 249.105 12.592C249.105 12.1867 249.169 11.8667 249.297 11.632C249.596 11.0987 250.641 10.6933 252.433 10.416L253.905 10.192L253.777 7.376C253.692 5.37067 253.617 4.00533 253.553 3.28C253.511 2.768 253.489 2.49067 253.489 2.448C253.489 2.14933 253.649 1.84 253.969 1.52ZM286.626 12.816C286.22 12.7093 285.559 12.6133 284.642 12.528C284.044 12.4853 283.724 12.464 283.682 12.464C283.383 12.464 283.084 12.624 282.786 12.944C281.932 13.8187 281.474 15.0027 281.41 16.496C281.41 16.5813 281.399 16.6987 281.378 16.848C281.378 16.976 281.378 17.072 281.378 17.136C281.378 17.6267 281.506 18.0853 281.762 18.512C282.444 19.728 283.65 20.336 285.378 20.336C286.103 20.3147 286.839 20.0693 287.586 19.6C288.354 19.1093 288.908 18.5227 289.25 17.84C289.442 17.4347 289.538 16.9973 289.538 16.528C289.538 15.7387 289.26 14.992 288.706 14.288C288.172 13.5627 287.479 13.072 286.626 12.816ZM281.762 9.232C282.252 8.95467 282.743 8.816 283.234 8.816C283.34 8.816 283.735 8.83733 284.418 8.88C286.444 8.98667 288.076 9.41333 289.314 10.16C290.551 10.9067 291.543 12.0587 292.29 13.616C292.866 14.8107 293.154 15.952 293.154 17.04C293.154 17.3813 293.122 17.68 293.058 17.936C292.716 19.2587 291.97 20.464 290.818 21.552C289.666 22.64 288.396 23.3653 287.01 23.728C286.284 23.8987 285.708 23.984 285.282 23.984C284.855 23.984 284.279 23.8987 283.554 23.728C281.356 23.152 279.778 22.1067 278.818 20.592C278.071 19.4187 277.698 18.1813 277.698 16.88C277.698 15.5787 278.05 14.192 278.754 12.72C279.564 10.992 280.567 9.82933 281.762 9.232ZM297.498 9.072C297.754 8.944 298.021 8.88 298.298 8.88C298.682 8.88 299.045 9.008 299.386 9.264C299.728 9.49867 299.962 9.81867 300.09 10.224L300.282 10.896L301.082 10.416C301.616 10.096 302.352 9.936 303.29 9.936C304.208 9.936 304.965 10.0853 305.562 10.384C306.053 10.6187 306.576 11.0027 307.13 11.536C307.706 12.0693 308.165 12.6027 308.506 13.136C309.658 14.9493 310.288 17.7653 310.394 21.584V22.224C310.394 22.736 310.245 23.152 309.946 23.472C309.584 23.8347 309.157 24.016 308.666 24.016C307.877 24.016 307.354 23.6747 307.098 22.992C306.97 22.6293 306.864 21.9147 306.778 20.848C306.522 17.1147 305.69 14.7787 304.282 13.84C303.984 13.648 303.685 13.552 303.386 13.552C302.832 13.552 302.33 13.8613 301.882 14.48C301.456 15.0773 301.114 15.9307 300.858 17.04C300.752 17.5307 300.624 18.416 300.474 19.696C300.325 20.976 300.25 21.84 300.25 22.288C300.25 22.5013 300.069 22.7893 299.706 23.152C299.344 23.4933 298.928 23.664 298.458 23.664C297.584 23.664 297.008 23.2053 296.73 22.288C296.602 21.84 296.538 19.8987 296.538 16.464C296.538 12.368 296.613 10.1387 296.762 9.776C296.89 9.49867 297.136 9.264 297.498 9.072ZM323.836 13.808C323.452 13.616 322.908 13.52 322.204 13.52C321.436 13.52 320.785 13.6373 320.252 13.872C319.889 14.0213 319.42 14.352 318.844 14.864C318.268 15.3547 317.98 15.6747 317.98 15.824C317.98 15.888 318.31 15.92 318.972 15.92C319.953 15.92 321.126 15.8667 322.492 15.76C323.857 15.6533 324.636 15.536 324.828 15.408C324.892 15.3867 324.924 15.3227 324.924 15.216C324.924 15.024 324.806 14.7787 324.572 14.48C324.337 14.16 324.092 13.936 323.836 13.808ZM320.06 10.096C320.593 9.94667 321.222 9.872 321.948 9.872C323.292 9.872 324.518 10.1387 325.628 10.672C326.46 11.0987 327.153 11.7493 327.708 12.624C328.262 13.4773 328.604 14.4373 328.732 15.504C328.732 15.5467 328.732 15.6107 328.732 15.696C328.753 15.7813 328.764 15.8453 328.764 15.888C328.764 16.4427 328.657 16.9867 328.444 17.52C328.252 18.0533 328.017 18.416 327.74 18.608C327.377 18.864 324.828 19.184 320.092 19.568C319.089 19.6533 318.588 19.7493 318.588 19.856C318.588 19.984 318.812 20.1867 319.26 20.464C319.708 20.7413 320.145 20.9333 320.572 21.04C320.956 21.1253 321.265 21.168 321.5 21.168C322.182 21.168 323.068 20.944 324.156 20.496C324.924 20.176 325.489 20.016 325.852 20.016C326.214 20.016 326.556 20.176 326.876 20.496C327.302 20.9227 327.516 21.328 327.516 21.712C327.516 21.968 327.452 22.2347 327.324 22.512C327.217 22.768 327.068 22.9707 326.876 23.12C326.705 23.2693 326.385 23.4507 325.916 23.664C324.358 24.3467 322.908 24.688 321.564 24.688C320.796 24.688 320.006 24.5707 319.196 24.336C318.108 23.9947 317.116 23.4187 316.22 22.608C315.324 21.776 314.684 20.8587 314.299 19.856C314.065 19.1947 313.948 18.4587 313.948 17.648C313.948 16.4747 314.14 15.4933 314.524 14.704C314.972 13.7227 315.729 12.784 316.796 11.888C317.862 10.992 318.95 10.3947 320.06 10.096ZM336.772 8.496C337.156 8.432 337.551 8.4 337.956 8.4C339.236 8.4 340.377 8.688 341.38 9.264C342.383 9.84 342.884 10.5013 342.884 11.248C342.884 11.44 342.852 11.6107 342.788 11.76C342.468 12.5707 341.988 12.976 341.348 12.976C340.879 12.976 340.345 12.8267 339.748 12.528C339.065 12.1867 338.436 12.016 337.86 12.016C337.241 12.016 336.729 12.2187 336.324 12.624C336.111 12.8373 336.004 13.008 336.004 13.136C336.004 13.3067 336.164 13.5093 336.484 13.744C336.825 13.9573 337.444 14.2987 338.34 14.768C339.812 15.536 340.804 16.1653 341.316 16.656C341.807 17.0827 342.233 17.616 342.596 18.256C342.959 18.8747 343.14 19.3973 343.14 19.824C343.14 20.3147 343.012 20.8053 342.756 21.296C342.5 21.7867 342.18 22.16 341.796 22.416C340.815 23.0773 339.62 23.408 338.212 23.408C336.889 23.408 335.524 23.0987 334.116 22.48C333.455 22.16 333.039 21.7973 332.868 21.392C332.74 21.0933 332.676 20.8267 332.676 20.592C332.676 20.1653 332.879 19.7493 333.284 19.344C333.561 19.024 333.935 18.864 334.404 18.864C334.852 18.864 335.396 19.0027 336.036 19.28C336.74 19.5787 337.551 19.728 338.468 19.728C338.895 19.728 339.108 19.6747 339.108 19.568C339.108 19.312 338.191 18.7253 336.356 17.808C334.927 17.0613 333.881 16.3253 333.22 15.6C332.559 14.8533 332.228 14.032 332.228 13.136C332.228 12.0693 332.665 11.088 333.54 10.192C334.436 9.27467 335.513 8.70933 336.772 8.496ZM1.336 40.272C1.67733 39.952 1.99733 39.792 2.296 39.792C2.46667 39.792 2.616 39.8027 2.744 39.824C3.32 39.888 3.72533 40.08 3.96 40.4L4.376 40.88L4.312 49.264C4.29067 54.7893 4.19467 57.7653 4.024 58.192C3.74667 58.832 3.21333 59.152 2.424 59.152C2.168 59.152 1.976 59.1307 1.848 59.088C1.528 58.9813 1.31467 58.9067 1.208 58.864C1.12267 58.8 1.016 58.608 0.888 58.288C0.781333 57.9467 0.717333 57.4773 0.696 56.88C0.674667 56.2827 0.664 55.3653 0.664 54.128C0.664 53.7867 0.664 53.0933 0.664 52.048C0.685333 51.0027 0.696 50.128 0.696 49.424L0.728 40.784L1.336 40.272ZM31.1793 49.808C30.7953 49.616 30.2513 49.52 29.5473 49.52C28.7793 49.52 28.1286 49.6373 27.5953 49.872C27.2326 50.0213 26.7633 50.352 26.1873 50.864C25.6113 51.3547 25.3233 51.6747 25.3233 51.824C25.3233 51.888 25.6539 51.92 26.3153 51.92C27.2966 51.92 28.4699 51.8667 29.8353 51.76C31.2006 51.6533 31.9793 51.536 32.1713 51.408C32.2353 51.3867 32.2673 51.3227 32.2673 51.216C32.2673 51.024 32.1499 50.7787 31.9153 50.48C31.6806 50.16 31.4353 49.936 31.1793 49.808ZM27.4033 46.096C27.9366 45.9467 28.5659 45.872 29.2913 45.872C30.6353 45.872 31.8619 46.1387 32.9713 46.672C33.8033 47.0987 34.4966 47.7493 35.0513 48.624C35.6059 49.4773 35.9473 50.4373 36.0753 51.504C36.0753 51.5467 36.0753 51.6107 36.0753 51.696C36.0966 51.7813 36.1073 51.8453 36.1073 51.888C36.1073 52.4427 36.0006 52.9867 35.7873 53.52C35.5953 54.0533 35.3606 54.416 35.0833 54.608C34.7206 54.864 32.1713 55.184 27.4353 55.568C26.4326 55.6533 25.9313 55.7493 25.9313 55.856C25.9313 55.984 26.1553 56.1867 26.6033 56.464C27.0513 56.7413 27.4886 56.9333 27.9153 57.04C28.2993 57.1253 28.6086 57.168 28.8433 57.168C29.5259 57.168 30.4113 56.944 31.4993 56.496C32.2673 56.176 32.8326 56.016 33.1953 56.016C33.5579 56.016 33.8993 56.176 34.2193 56.496C34.6459 56.9227 34.8593 57.328 34.8593 57.712C34.8593 57.968 34.7953 58.2347 34.6673 58.512C34.5606 58.768 34.4113 58.9707 34.2193 59.12C34.0486 59.2693 33.7286 59.4507 33.2593 59.664C31.7019 60.3467 30.2513 60.688 28.9073 60.688C28.1393 60.688 27.3499 60.5707 26.5393 60.336C25.4513 59.9947 24.4593 59.4187 23.5633 58.608C22.6673 57.776 22.0273 56.8587 21.6432 55.856C21.4086 55.1947 21.2913 54.4587 21.2913 53.648C21.2913 52.4747 21.4833 51.4933 21.8673 50.704C22.3153 49.7227 23.0726 48.784 24.1393 47.888C25.2059 46.992 26.2939 46.3947 27.4033 46.096ZM39.6678 46.352C39.6678 45.904 39.8384 45.52 40.1798 45.2C40.5424 44.8587 40.9478 44.688 41.3958 44.688C41.9078 44.688 42.3344 44.88 42.6758 45.264C43.0171 45.6267 43.3904 46.3093 43.7958 47.312C44.2011 48.3573 44.8198 49.7653 45.6518 51.536C46.5051 53.2853 46.9744 54.16 47.0598 54.16C47.1238 54.16 47.4864 53.552 48.1478 52.336C48.5531 51.568 49.1931 50.4373 50.0678 48.944C50.9638 47.4507 51.4864 46.5653 51.6358 46.288C51.9344 45.7547 52.2011 45.4133 52.4358 45.264C52.6704 45.1147 53.0331 45.04 53.5238 45.04C53.9931 45.04 54.3984 45.2107 54.7397 45.552C55.1024 45.8933 55.2838 46.2987 55.2838 46.768C55.2838 46.8747 55.2624 47.0133 55.2198 47.184C55.1344 47.4613 54.7078 48.24 53.9398 49.52C51.3158 53.808 49.7371 56.8267 49.2038 58.576C48.8624 59.6853 48.1798 60.24 47.1558 60.24C46.8784 60.24 46.5798 60.176 46.2598 60.048C45.9611 59.92 45.6838 59.6533 45.4278 59.248C45.1931 58.8213 44.5851 57.6053 43.6038 55.6C40.9798 50.224 39.6678 47.1413 39.6678 46.352ZM68.6793 49.808C68.2953 49.616 67.7513 49.52 67.0473 49.52C66.2793 49.52 65.6286 49.6373 65.0953 49.872C64.7326 50.0213 64.2633 50.352 63.6873 50.864C63.1113 51.3547 62.8233 51.6747 62.8233 51.824C62.8233 51.888 63.1539 51.92 63.8153 51.92C64.7966 51.92 65.9699 51.8667 67.3353 51.76C68.7006 51.6533 69.4793 51.536 69.6713 51.408C69.7353 51.3867 69.7673 51.3227 69.7673 51.216C69.7673 51.024 69.6499 50.7787 69.4153 50.48C69.1806 50.16 68.9353 49.936 68.6793 49.808ZM64.9033 46.096C65.4366 45.9467 66.0659 45.872 66.7913 45.872C68.1353 45.872 69.3619 46.1387 70.4713 46.672C71.3033 47.0987 71.9966 47.7493 72.5513 48.624C73.1059 49.4773 73.4473 50.4373 73.5753 51.504C73.5753 51.5467 73.5753 51.6107 73.5753 51.696C73.5966 51.7813 73.6073 51.8453 73.6073 51.888C73.6073 52.4427 73.5006 52.9867 73.2873 53.52C73.0953 54.0533 72.8606 54.416 72.5833 54.608C72.2206 54.864 69.6713 55.184 64.9353 55.568C63.9326 55.6533 63.4313 55.7493 63.4313 55.856C63.4313 55.984 63.6553 56.1867 64.1033 56.464C64.5513 56.7413 64.9886 56.9333 65.4153 57.04C65.7993 57.1253 66.1086 57.168 66.3433 57.168C67.0259 57.168 67.9113 56.944 68.9993 56.496C69.7673 56.176 70.3326 56.016 70.6953 56.016C71.0579 56.016 71.3993 56.176 71.7193 56.496C72.1459 56.9227 72.3593 57.328 72.3593 57.712C72.3593 57.968 72.2953 58.2347 72.1673 58.512C72.0606 58.768 71.9113 58.9707 71.7193 59.12C71.5486 59.2693 71.2286 59.4507 70.7593 59.664C69.2019 60.3467 67.7513 60.688 66.4073 60.688C65.6393 60.688 64.8499 60.5707 64.0393 60.336C62.9513 59.9947 61.9593 59.4187 61.0633 58.608C60.1673 57.776 59.5273 56.8587 59.1432 55.856C58.9086 55.1947 58.7913 54.4587 58.7913 53.648C58.7913 52.4747 58.9833 51.4933 59.3673 50.704C59.8153 49.7227 60.5726 48.784 61.6393 47.888C62.7059 46.992 63.7939 46.3947 64.9033 46.096ZM77.9358 45.072C78.1918 44.944 78.4584 44.88 78.7358 44.88C79.1198 44.88 79.4824 45.008 79.8238 45.264C80.1651 45.4987 80.3998 45.8187 80.5278 46.224L80.7198 46.896L81.5198 46.416C82.0531 46.096 82.7891 45.936 83.7278 45.936C84.6451 45.936 85.4024 46.0853 85.9998 46.384C86.4904 46.6187 87.0131 47.0027 87.5678 47.536C88.1438 48.0693 88.6024 48.6027 88.9438 49.136C90.0958 50.9493 90.7251 53.7653 90.8318 57.584V58.224C90.8318 58.736 90.6824 59.152 90.3838 59.472C90.0211 59.8347 89.5944 60.016 89.1038 60.016C88.3144 60.016 87.7918 59.6747 87.5358 58.992C87.4078 58.6293 87.3011 57.9147 87.2158 56.848C86.9598 53.1147 86.1278 50.7787 84.7198 49.84C84.4211 49.648 84.1224 49.552 83.8238 49.552C83.2691 49.552 82.7678 49.8613 82.3198 50.48C81.8931 51.0773 81.5518 51.9307 81.2958 53.04C81.1891 53.5307 81.0611 54.416 80.9118 55.696C80.7624 56.976 80.6878 57.84 80.6878 58.288C80.6878 58.5013 80.5064 58.7893 80.1438 59.152C79.7811 59.4933 79.3651 59.664 78.8958 59.664C78.0211 59.664 77.4451 59.2053 77.1678 58.288C77.0398 57.84 76.9758 55.8987 76.9758 52.464C76.9758 48.368 77.0504 46.1387 77.1998 45.776C77.3278 45.4987 77.5731 45.264 77.9358 45.072ZM111.918 45.392C112.259 45.264 112.792 45.2 113.518 45.2C113.902 45.2 114.211 45.2107 114.446 45.232C115.299 45.2533 115.886 45.3067 116.206 45.392C116.526 45.456 116.952 45.616 117.486 45.872C119 46.64 119.758 47.568 119.758 48.656C119.758 48.8907 119.683 49.1787 119.534 49.52C119.214 50.1387 118.723 50.448 118.062 50.448C117.464 50.448 116.92 50.1707 116.43 49.616C116.195 49.36 115.982 49.1893 115.79 49.104C115.598 48.9973 115.288 48.912 114.862 48.848C114.435 48.8053 114.147 48.784 113.998 48.784C113.251 48.784 112.707 49.0187 112.366 49.488C111.768 50.3627 111.47 51.312 111.47 52.336C111.47 53.4453 111.811 54.3947 112.494 55.184C113.176 55.952 114.072 56.336 115.182 56.336C115.608 56.336 116.206 56.2293 116.974 56.016C117.742 55.7813 118.254 55.568 118.51 55.376C118.723 55.2053 119.096 55.12 119.63 55.12C120.142 55.12 120.558 55.28 120.878 55.6C121.219 55.92 121.39 56.3253 121.39 56.816C121.39 57.264 121.283 57.6267 121.07 57.904C120.856 58.1813 120.451 58.4693 119.854 58.768C118.318 59.536 116.782 59.92 115.246 59.92C112.707 59.92 110.776 59.0133 109.454 57.2C108.387 55.7493 107.854 54.16 107.854 52.432C107.854 51.3653 108.067 50.2453 108.494 49.072C108.814 48.24 109.283 47.4827 109.902 46.8C110.542 46.1173 111.214 45.648 111.918 45.392ZM134.195 49.68C134.088 49.3387 133.992 49.1467 133.907 49.104C133.821 49.04 133.587 49.008 133.203 49.008C132.093 49.0293 131.059 49.552 130.099 50.576C129.139 51.5787 128.659 52.592 128.659 53.616C128.659 54.128 128.797 54.5547 129.075 54.896C129.693 55.5787 130.344 55.92 131.027 55.92C131.069 55.92 131.112 55.92 131.155 55.92C131.197 55.8987 131.24 55.888 131.283 55.888C131.667 55.8027 132.072 55.5467 132.499 55.12C132.947 54.6933 133.288 54.224 133.523 53.712C134.013 52.56 134.259 51.44 134.259 50.352C134.259 50.032 134.237 49.808 134.195 49.68ZM131.219 45.648C131.795 45.456 132.456 45.36 133.203 45.36C134.184 45.36 135.016 45.52 135.699 45.84C136.147 46.0747 136.552 46.4267 136.915 46.896C137.299 47.344 137.533 47.7707 137.619 48.176C137.704 48.5813 137.821 48.9653 137.971 49.328C138.205 49.9467 138.675 52.272 139.379 56.304C139.485 56.944 139.539 57.424 139.539 57.744C139.539 59.024 138.941 59.664 137.747 59.664C137.341 59.664 136.968 59.504 136.627 59.184C136.307 58.864 136.104 58.4693 136.019 58C135.933 57.5733 135.859 57.328 135.795 57.264C135.709 57.2 135.464 57.3707 135.059 57.776C133.843 58.992 132.445 59.6 130.867 59.6C130.589 59.6 130.301 59.568 130.003 59.504C128.829 59.248 127.731 58.608 126.707 57.584C125.555 56.432 124.979 55.1413 124.979 53.712C124.979 52.5813 125.331 51.3547 126.035 50.032C126.568 49.0293 127.293 48.1333 128.211 47.344C129.149 46.5547 130.152 45.9893 131.219 45.648ZM152.993 50.128C152.715 49.4453 152.353 48.9653 151.905 48.688C151.457 48.4107 150.913 48.272 150.273 48.272C149.59 48.272 148.918 48.4213 148.257 48.72C147.659 48.976 147.318 49.2213 147.233 49.456C147.169 49.6267 147.041 49.8293 146.849 50.064C146.593 50.3627 146.465 51.4187 146.465 53.232C146.465 53.8293 146.486 54.2347 146.529 54.448L146.657 55.216L147.649 55.472C148.246 55.6213 148.843 55.696 149.441 55.696C150.422 55.696 151.254 55.4933 151.937 55.088C152.641 54.6613 153.089 54.0747 153.281 53.328C153.366 53.008 153.409 52.6347 153.409 52.208C153.409 51.4827 153.27 50.7893 152.993 50.128ZM148.993 44.72C149.249 44.6773 149.505 44.656 149.76 44.656C150.998 44.656 152.054 44.816 152.929 45.136C153.803 45.4773 154.571 46.0747 155.233 46.928C155.915 47.7813 156.406 48.7627 156.705 49.872C156.854 50.448 156.929 51.1413 156.929 51.952C156.929 53.2533 156.769 54.32 156.449 55.152C156.043 56.1973 155.361 57.072 154.401 57.776C153.462 58.48 152.363 58.9387 151.105 59.152C150.657 59.216 150.102 59.248 149.441 59.248C148.31 59.248 147.51 59.1733 147.041 59.024C146.913 58.9813 146.838 58.96 146.817 58.96C146.71 58.96 146.657 59.056 146.657 59.248C146.657 59.2907 146.678 59.5467 146.721 60.016C146.742 60.2293 146.785 61.0613 146.849 62.512V63.056C146.849 63.44 146.817 63.7067 146.753 63.856C146.689 64.0053 146.55 64.1867 146.337 64.4C145.995 64.7413 145.569 64.912 145.057 64.912C144.758 64.912 144.481 64.848 144.225 64.72C143.862 64.528 143.606 64.1653 143.457 63.632C143.329 63.0987 143.222 62 143.137 60.336C143.009 58.2453 142.945 55.5253 142.945 52.176C142.945 48.2293 143.019 46.1067 143.169 45.808C143.51 45.1467 144.054 44.816 144.801 44.816C145.206 44.816 145.558 44.9333 145.857 45.168L146.305 45.52L147.489 45.2C147.681 45.136 147.883 45.072 148.097 45.008C148.31 44.9227 148.502 44.8587 148.673 44.816C148.843 44.7733 148.95 44.7413 148.993 44.72ZM165.376 37.52C165.738 37.1573 166.176 36.976 166.688 36.976C167.072 36.976 167.413 37.0933 167.712 37.328C168.032 37.5413 168.256 37.8507 168.384 38.256C168.448 38.4907 168.554 39.6 168.704 41.584C168.853 43.5467 168.928 44.912 168.928 45.68C168.928 45.872 168.97 45.9893 169.056 46.032C169.162 46.0747 169.408 46.096 169.792 46.096C170.368 46.096 170.698 46.032 170.784 45.904C170.826 45.7973 171.264 45.744 172.096 45.744C173.162 45.744 173.866 45.8187 174.208 45.968C174.528 46.1173 174.773 46.4053 174.944 46.832C175.093 47.1307 175.168 47.376 175.168 47.568C175.168 47.7173 175.136 47.8987 175.072 48.112C174.922 48.6027 174.645 48.9333 174.24 49.104C173.856 49.2533 173.088 49.36 171.936 49.424C170.634 49.488 169.792 49.5733 169.408 49.68L168.896 49.808L169.024 54.32C169.066 56.3253 169.088 57.4027 169.088 57.552C169.088 58.4907 169.013 59.12 168.864 59.44C168.544 60.1227 168.021 60.464 167.296 60.464C167.018 60.464 166.73 60.4 166.432 60.272C166.197 60.1653 166.026 60.0693 165.92 59.984C165.813 59.8773 165.717 59.6107 165.632 59.184C165.546 58.736 165.493 58.2133 165.472 57.616C165.45 57.0187 165.429 56.0373 165.408 54.672L165.344 50.032L164.384 50.064C163.808 50.1067 163.296 50.192 162.848 50.32C162.741 50.3627 162.57 50.384 162.336 50.384C161.61 50.384 161.088 50.16 160.768 49.712C160.597 49.4347 160.512 49.0613 160.512 48.592C160.512 48.1867 160.576 47.8667 160.704 47.632C161.002 47.0987 162.048 46.6933 163.84 46.416L165.312 46.192L165.184 43.376C165.098 41.3707 165.024 40.0053 164.96 39.28C164.917 38.768 164.896 38.4907 164.896 38.448C164.896 38.1493 165.056 37.84 165.376 37.52ZM179.24 44.88C179.581 44.5173 179.997 44.336 180.488 44.336C181.405 44.336 181.992 44.6987 182.248 45.424C182.376 45.8507 182.44 47.0987 182.44 49.168C182.44 51.2587 182.504 52.624 182.632 53.264C182.952 54.736 183.603 55.472 184.584 55.472C184.776 55.472 184.979 55.44 185.192 55.376C185.491 55.2907 185.875 55.0027 186.344 54.512C186.835 54.0213 187.187 53.5733 187.4 53.168C187.784 52.3787 188.125 50.8107 188.424 48.464C188.637 46.864 188.968 45.8933 189.416 45.552C189.715 45.3173 190.045 45.2 190.408 45.2C190.813 45.2 191.187 45.3493 191.528 45.648C191.891 45.9253 192.136 46.288 192.264 46.736C192.371 47.2053 192.552 48.88 192.808 51.76C193.085 54.6187 193.224 56.4427 193.224 57.232V57.488C193.139 57.8933 192.936 58.2133 192.616 58.448C192.296 58.6827 191.944 58.8 191.56 58.8C191.197 58.8 190.845 58.6933 190.504 58.48C190.184 58.2667 189.96 57.9573 189.832 57.552C189.661 57.0613 189.565 56.816 189.544 56.816C189.459 56.816 189.096 57.0613 188.456 57.552C187.176 58.576 185.917 59.088 184.68 59.088H184.584C183.56 59.088 182.643 58.8427 181.832 58.352C181.021 57.8613 180.381 57.168 179.912 56.272C179.464 55.376 179.176 54.5653 179.048 53.84C178.92 53.0933 178.845 51.6533 178.824 49.52L178.728 45.456L179.24 44.88ZM197.177 45.328C197.561 45.008 197.977 44.848 198.425 44.848C198.894 44.848 199.299 45.0187 199.641 45.36C199.982 45.68 200.153 46.096 200.153 46.608C200.153 47.12 200.249 47.376 200.441 47.376C200.547 47.376 200.771 47.2587 201.113 47.024C202.691 45.936 204.259 45.392 205.817 45.392C206.478 45.392 207.129 45.5093 207.769 45.744C208.345 45.9787 208.75 46.2347 208.985 46.512C209.219 46.7893 209.337 47.1627 209.337 47.632C209.337 48.144 209.145 48.5813 208.761 48.944C208.441 49.2427 208.153 49.392 207.897 49.392C207.811 49.392 207.214 49.3173 206.105 49.168C205.977 49.1467 205.795 49.136 205.561 49.136C205.219 49.136 204.782 49.2533 204.249 49.488C202.862 50.128 201.891 50.9387 201.337 51.92C200.782 52.9013 200.505 54.3093 200.505 56.144C200.483 57.488 200.323 58.4267 200.025 58.96C199.747 59.4933 199.246 59.76 198.521 59.76C198.03 59.76 197.614 59.5893 197.273 59.248L196.761 58.736L196.697 53.072C196.654 48.8907 196.633 46.736 196.633 46.608C196.633 46.096 196.814 45.6693 197.177 45.328ZM222.742 49.808C222.358 49.616 221.814 49.52 221.11 49.52C220.342 49.52 219.691 49.6373 219.158 49.872C218.795 50.0213 218.326 50.352 217.75 50.864C217.174 51.3547 216.886 51.6747 216.886 51.824C216.886 51.888 217.216 51.92 217.878 51.92C218.859 51.92 220.032 51.8667 221.398 51.76C222.763 51.6533 223.542 51.536 223.734 51.408C223.798 51.3867 223.83 51.3227 223.83 51.216C223.83 51.024 223.712 50.7787 223.478 50.48C223.243 50.16 222.998 49.936 222.742 49.808ZM218.966 46.096C219.499 45.9467 220.128 45.872 220.854 45.872C222.198 45.872 223.424 46.1387 224.534 46.672C225.366 47.0987 226.059 47.7493 226.614 48.624C227.168 49.4773 227.51 50.4373 227.638 51.504C227.638 51.5467 227.638 51.6107 227.638 51.696C227.659 51.7813 227.67 51.8453 227.67 51.888C227.67 52.4427 227.563 52.9867 227.35 53.52C227.158 54.0533 226.923 54.416 226.646 54.608C226.283 54.864 223.734 55.184 218.998 55.568C217.995 55.6533 217.494 55.7493 217.494 55.856C217.494 55.984 217.718 56.1867 218.166 56.464C218.614 56.7413 219.051 56.9333 219.478 57.04C219.862 57.1253 220.171 57.168 220.406 57.168C221.088 57.168 221.974 56.944 223.062 56.496C223.83 56.176 224.395 56.016 224.758 56.016C225.12 56.016 225.462 56.176 225.782 56.496C226.208 56.9227 226.422 57.328 226.422 57.712C226.422 57.968 226.358 58.2347 226.23 58.512C226.123 58.768 225.974 58.9707 225.782 59.12C225.611 59.2693 225.291 59.4507 224.822 59.664C223.264 60.3467 221.814 60.688 220.47 60.688C219.702 60.688 218.912 60.5707 218.102 60.336C217.014 59.9947 216.022 59.4187 215.126 58.608C214.23 57.776 213.59 56.8587 213.206 55.856C212.971 55.1947 212.854 54.4587 212.854 53.648C212.854 52.4747 213.046 51.4933 213.43 50.704C213.878 49.7227 214.635 48.784 215.702 47.888C216.768 46.992 217.856 46.3947 218.966 46.096ZM239.39 49.616C238.537 49.2107 237.94 49.008 237.598 49.008C237.193 49.008 236.681 49.2853 236.062 49.84C235.23 50.608 234.814 51.5573 234.814 52.688C234.814 53.6053 235.113 54.2987 235.71 54.768C235.988 54.9813 236.276 55.088 236.574 55.088C236.937 55.088 237.396 54.9387 237.95 54.64C239.742 53.7013 240.638 52.4853 240.638 50.992V50.192L239.39 49.616ZM241.022 38.256C241.385 37.9573 241.812 37.808 242.302 37.808C242.622 37.808 242.889 37.872 243.102 38C243.358 38.1493 243.572 38.3947 243.742 38.736C243.87 38.992 243.956 39.7067 243.998 40.88C244.062 42.0533 244.105 44.7413 244.126 48.944L244.19 58.576L243.646 59.12C243.284 59.4827 242.868 59.664 242.398 59.664C241.95 59.664 241.545 59.504 241.182 59.184C240.82 58.864 240.638 58.5013 240.638 58.096C240.638 57.7547 240.617 57.5627 240.574 57.52H240.542C240.393 57.52 240.041 57.6587 239.486 57.936C238.441 58.4267 237.46 58.672 236.542 58.672C235.113 58.672 233.865 58.096 232.798 56.944C231.71 55.7493 231.166 54.3413 231.166 52.72C231.166 50.5867 231.998 48.752 233.662 47.216C234.921 46.064 236.286 45.488 237.758 45.488C238.398 45.488 238.985 45.5733 239.518 45.744C240.094 45.936 240.404 46.032 240.446 46.032C240.468 46.032 240.478 44.816 240.478 42.384V38.736L241.022 38.256ZM257.941 44.08C258.325 43.9093 258.57 43.824 258.677 43.824C258.762 43.824 259.008 43.9093 259.413 44.08C259.797 44.2293 260.096 44.5493 260.309 45.04C260.544 45.5307 260.853 46.5227 261.237 48.016C262.282 52.1333 262.922 54.3093 263.157 54.544H263.189C263.274 54.544 263.594 53.9147 264.149 52.656C264.704 51.376 265.344 50.064 266.069 48.72C266.816 47.3547 267.445 46.5973 267.957 46.448C268.17 46.384 268.405 46.352 268.661 46.352C269.472 46.352 270.069 46.576 270.453 47.024C270.709 47.3227 271.104 48.1547 271.637 49.52C272.853 52.5493 273.525 54.064 273.653 54.064H273.685C273.749 54.0213 274.133 52.976 274.837 50.928C275.541 48.7947 276.021 47.4507 276.277 46.896C276.554 46.3413 276.896 45.9787 277.301 45.808C277.578 45.68 277.866 45.616 278.165 45.616C278.272 45.616 278.346 45.6267 278.389 45.648C278.73 45.7333 279.05 45.9467 279.349 46.288C279.669 46.6293 279.829 46.9493 279.829 47.248C279.829 47.5893 279.338 49.104 278.357 51.792C277.397 54.48 276.682 56.3147 276.213 57.296C275.722 58.32 275.317 58.992 274.997 59.312C274.677 59.6107 274.25 59.76 273.717 59.76C272.949 59.76 272.394 59.5573 272.053 59.152C271.733 58.7253 271.136 57.4987 270.261 55.472C269.216 53.104 268.64 51.92 268.533 51.92C268.426 51.92 267.946 52.88 267.093 54.8C266.069 57.1253 265.344 58.576 264.917 59.152C264.49 59.7067 263.893 59.984 263.125 59.984H262.965C262.24 59.9627 261.77 59.8453 261.557 59.632C260.746 58.9493 259.52 55.5467 257.877 49.424C257.258 47.12 256.949 45.7867 256.949 45.424C256.949 45.232 256.992 45.0507 257.077 44.88C257.269 44.4747 257.557 44.208 257.941 44.08ZM284.794 45.456C284.879 45.4347 285.007 45.424 285.178 45.424C285.647 45.424 286.063 45.5733 286.426 45.872C286.788 46.1707 287.002 46.5547 287.066 47.024C287.151 47.4933 287.194 49.5093 287.194 53.072L287.226 58.48L286.682 58.992C286.319 59.3547 285.892 59.536 285.402 59.536C284.954 59.536 284.57 59.376 284.25 59.056C284.036 58.8427 283.887 58.6293 283.802 58.416C283.738 58.1813 283.684 57.7333 283.642 57.072C283.578 56.24 283.546 54.2347 283.546 51.056L283.514 46.576L283.962 46.032C284.282 45.6907 284.559 45.4987 284.794 45.456ZM284.218 39.088C284.495 38.9387 284.783 38.864 285.082 38.864C285.572 38.864 285.988 39.0453 286.33 39.408C286.671 39.7707 286.842 40.1867 286.842 40.656C286.842 41.0613 286.682 41.456 286.362 41.84C285.956 42.2667 285.508 42.48 285.018 42.48C284.548 42.48 284.132 42.32 283.77 42C283.428 41.6587 283.258 41.2533 283.258 40.784C283.258 40.5067 283.322 40.2293 283.45 39.952C283.642 39.5467 283.898 39.2587 284.218 39.088ZM295.594 37.52C295.957 37.1573 296.394 36.976 296.906 36.976C297.29 36.976 297.632 37.0933 297.93 37.328C298.25 37.5413 298.474 37.8507 298.602 38.256C298.666 38.4907 298.773 39.6 298.922 41.584C299.072 43.5467 299.146 44.912 299.146 45.68C299.146 45.872 299.189 45.9893 299.274 46.032C299.381 46.0747 299.626 46.096 300.01 46.096C300.586 46.096 300.917 46.032 301.002 45.904C301.045 45.7973 301.482 45.744 302.314 45.744C303.381 45.744 304.085 45.8187 304.426 45.968C304.746 46.1173 304.992 46.4053 305.162 46.832C305.312 47.1307 305.386 47.376 305.386 47.568C305.386 47.7173 305.354 47.8987 305.29 48.112C305.141 48.6027 304.864 48.9333 304.458 49.104C304.074 49.2533 303.306 49.36 302.154 49.424C300.853 49.488 300.01 49.5733 299.626 49.68L299.114 49.808L299.242 54.32C299.285 56.3253 299.306 57.4027 299.306 57.552C299.306 58.4907 299.232 59.12 299.082 59.44C298.762 60.1227 298.24 60.464 297.514 60.464C297.237 60.464 296.949 60.4 296.65 60.272C296.416 60.1653 296.245 60.0693 296.138 59.984C296.032 59.8773 295.936 59.6107 295.85 59.184C295.765 58.736 295.712 58.2133 295.69 57.616C295.669 57.0187 295.648 56.0373 295.626 54.672L295.562 50.032L294.602 50.064C294.026 50.1067 293.514 50.192 293.066 50.32C292.96 50.3627 292.789 50.384 292.554 50.384C291.829 50.384 291.306 50.16 290.986 49.712C290.816 49.4347 290.73 49.0613 290.73 48.592C290.73 48.1867 290.794 47.8667 290.922 47.632C291.221 47.0987 292.266 46.6933 294.058 46.416L295.53 46.192L295.402 43.376C295.317 41.3707 295.242 40.0053 295.178 39.28C295.136 38.768 295.114 38.4907 295.114 38.448C295.114 38.1493 295.274 37.84 295.594 37.52ZM309.683 37.552C310.045 37.2533 310.419 37.104 310.803 37.104C311.571 37.104 312.136 37.5733 312.499 38.512C312.648 38.9387 312.808 39.9627 312.979 41.584C313.149 43.184 313.288 44.6773 313.395 46.064C313.501 47.4293 313.565 48.112 313.587 48.112C313.629 48.112 313.981 47.8773 314.643 47.408C315.944 46.4907 317.181 46.032 318.355 46.032C319.443 46.032 320.392 46.4373 321.203 47.248C322.035 48.0373 322.685 49.2 323.155 50.736C323.517 51.9307 323.699 53.7867 323.699 56.304C323.699 57.8827 323.603 58.9493 323.411 59.504C323.197 60.08 322.707 60.368 321.939 60.368C321.427 60.368 321 60.1973 320.659 59.856L320.179 59.376L320.083 56.144C319.955 51.984 319.379 49.84 318.355 49.712H318.259C317.768 49.712 317.16 49.9893 316.435 50.544C315.709 51.0773 315.187 51.664 314.867 52.304C314.675 52.7307 314.419 53.04 314.099 53.232L313.683 53.52L313.619 57.008C313.576 58.7147 313.533 59.7493 313.491 60.112C313.469 60.4533 313.352 60.7307 313.139 60.944C312.797 61.3067 312.371 61.488 311.859 61.488C311.091 61.488 310.557 61.1467 310.259 60.464C310.109 60.0587 310.003 57.6053 309.939 53.104C309.832 45.5733 309.555 41.0613 309.107 39.568C309.043 39.3333 309.011 39.1093 309.011 38.896C309.011 38.3413 309.235 37.8933 309.683 37.552ZM1.976 79.344C2.27467 79.3013 2.44533 79.2693 2.488 79.248C2.59467 79.248 2.84 79.3227 3.224 79.472C3.52267 79.6 3.78933 79.856 4.024 80.24C4.25867 80.624 4.376 80.9973 4.376 81.36C4.376 81.6373 4.42933 81.8507 4.536 82C4.62133 82.1067 4.696 82.1493 4.76 82.128C4.824 82.1067 4.97333 82 5.208 81.808C6.168 80.9973 7.34133 80.496 8.728 80.304C9.15467 80.2613 9.45333 80.24 9.624 80.24C10.712 80.24 11.64 80.6347 12.408 81.424L13.144 82.16L14.072 81.424C15.5867 80.208 17.0587 79.6 18.488 79.6C18.9787 79.6 19.416 79.6747 19.8 79.824C20.2267 79.9947 20.6853 80.3253 21.176 80.816C21.688 81.2853 22.072 81.7867 22.328 82.32C23.096 83.8773 23.5973 86.7787 23.832 91.024C23.8747 92.0907 23.896 92.6773 23.896 92.784C23.896 93.3387 23.8213 93.7547 23.672 94.032C23.352 94.6507 22.8613 94.96 22.2 94.96C21.7307 94.96 21.3147 94.7893 20.952 94.448L20.376 93.968L20.216 90.992C19.9813 86.5547 19.448 83.984 18.616 83.28C18.488 83.1947 18.3813 83.152 18.296 83.152C18.1253 83.152 17.816 83.2693 17.368 83.504C16.2587 84.0373 15.4693 84.944 15 86.224C14.744 86.8853 14.5733 88.2613 14.488 90.352C14.3813 92.464 14.2747 93.6373 14.168 93.872C13.8267 94.4693 13.2827 94.768 12.536 94.768C12.1307 94.768 11.768 94.64 11.448 94.384C10.9787 94 10.744 93.0613 10.744 91.568C10.744 90.8853 10.7547 90.32 10.776 89.872C10.776 89.7227 10.776 89.52 10.776 89.264C10.7973 88.9867 10.808 88.784 10.808 88.656C10.808 86.5653 10.5733 85.1147 10.104 84.304C9.912 83.9627 9.72 83.792 9.528 83.792C9.50667 83.792 9.368 83.8133 9.112 83.856C7.74667 84.112 6.59467 85.2107 5.656 87.152C5.272 87.9627 5.08 88.816 5.08 89.712C5.08 90.48 5.144 91.4187 5.272 92.528C5.336 92.976 5.368 93.3493 5.368 93.648C5.368 94.4587 5.016 95.0347 4.312 95.376C4.01333 95.5253 3.77867 95.6 3.608 95.6C3.48 95.6 3.27733 95.5467 3 95.44C2.46667 95.248 2.11467 94.8853 1.944 94.352C1.77333 93.7973 1.63467 92.6133 1.528 90.8C1.37867 87.7067 1.12267 84.5173 0.76 81.232C0.76 81.1893 0.749333 81.1253 0.728 81.04C0.728 80.9547 0.728 80.9013 0.728 80.88C0.728 80.5813 0.856 80.272 1.112 79.952C1.432 79.5893 1.72 79.3867 1.976 79.344ZM39.353 80.272C39.5663 80.208 39.7263 80.176 39.833 80.176C39.9183 80.176 40.1637 80.2613 40.569 80.432C40.9957 80.6027 41.2943 80.8907 41.465 81.296C41.5503 81.4667 41.593 81.6587 41.593 81.872C41.593 82.192 41.337 83.1627 40.825 84.784C39.8863 87.792 38.7023 90.8107 37.273 93.84C36.6117 95.2907 35.5983 97.168 34.233 99.472C32.8677 101.797 32.0357 103.045 31.737 103.216C31.3957 103.429 31.0437 103.536 30.681 103.536C30.1903 103.536 29.7637 103.365 29.401 103.024C29.0597 102.704 28.889 102.277 28.889 101.744C28.889 101.36 29.2303 100.635 29.913 99.568C30.4463 98.736 31.1397 97.5627 31.993 96.048C32.8463 94.512 33.273 93.6907 33.273 93.584C33.273 93.52 33.0383 93.0933 32.569 92.304C32.3557 91.9627 31.5983 90.576 30.297 88.144C29.017 85.6907 28.2383 84.272 27.961 83.888C27.6197 83.3973 27.449 82.9067 27.449 82.416C27.449 81.712 27.7903 81.2107 28.473 80.912C28.729 80.8053 28.953 80.752 29.145 80.752C29.593 80.752 30.0303 81.008 30.457 81.52C30.8837 82.0107 31.4277 82.864 32.089 84.08C33.5183 86.7253 34.489 88.4533 35.001 89.264C35.1077 89.4133 35.1717 89.488 35.193 89.488C35.2783 89.488 35.4917 89.0293 35.833 88.112C36.3237 86.768 36.8143 85.3387 37.305 83.824C37.7317 82.4587 38.073 81.552 38.329 81.104C38.6063 80.656 38.9477 80.3787 39.353 80.272ZM65.1748 88.304C65.1748 87.6213 64.7694 86.928 63.9588 86.224C63.1481 85.52 62.2948 85.168 61.3988 85.168C60.8441 85.1893 60.4494 85.264 60.2148 85.392C59.9801 85.52 59.7561 85.808 59.5428 86.256C59.3508 86.704 59.2548 87.1627 59.2548 87.632C59.2548 87.76 59.2761 88.2933 59.3188 89.232L59.4468 91.472L60.0228 91.568C60.0868 91.5893 60.1828 91.6 60.3108 91.6C60.8868 91.6 61.5801 91.408 62.3908 91.024C63.2228 90.6187 63.9268 90.1387 64.5028 89.584C64.9508 89.136 65.1748 88.7093 65.1748 88.304ZM56.6948 81.456C56.7161 81.456 56.7481 81.456 56.7908 81.456C56.8334 81.4347 56.8761 81.424 56.9188 81.424C57.5374 81.424 57.9961 81.5733 58.2948 81.872C58.4014 81.936 58.5188 81.968 58.6468 81.968C58.8174 81.968 59.1054 81.904 59.5108 81.776C60.0868 81.6053 60.6521 81.52 61.2068 81.52C62.2308 81.52 63.2548 81.7547 64.2788 82.224C65.3241 82.672 66.2094 83.2907 66.9348 84.08C68.1934 85.4667 68.8228 86.896 68.8228 88.368C68.8228 90.0747 68.0121 91.5253 66.3908 92.72C65.4308 93.4453 64.3854 94.0427 63.2548 94.512C62.1241 94.9813 61.1961 95.216 60.4708 95.216C60.2788 95.216 60.1401 95.2053 60.0548 95.184L59.5428 95.088C59.5854 95.856 59.6281 97.0187 59.6708 98.576C59.7134 100.133 59.7561 101.307 59.7988 102.096L59.1588 102.736C58.7321 103.163 58.3161 103.376 57.9108 103.376C57.5268 103.376 57.1534 103.195 56.7908 102.832C56.4708 102.512 56.2681 102.203 56.1828 101.904C56.1401 101.648 56.0441 99.2693 55.8948 94.768C55.7881 90.288 55.6708 87.4933 55.5428 86.384C55.4361 85.3813 55.3828 84.4427 55.3828 83.568C55.3828 83.056 55.4041 82.7253 55.4468 82.576C55.5108 82.4053 55.6494 82.2133 55.8628 82C56.1828 81.68 56.4601 81.4987 56.6948 81.456ZM73.0265 73.552C73.3892 73.2533 73.7625 73.104 74.1465 73.104C74.9145 73.104 75.4798 73.5733 75.8425 74.512C75.9918 74.9387 76.1518 75.9627 76.3225 77.584C76.4932 79.184 76.6318 80.6773 76.7385 82.064C76.8452 83.4293 76.9092 84.112 76.9305 84.112C76.9732 84.112 77.3252 83.8773 77.9865 83.408C79.2878 82.4907 80.5252 82.032 81.6985 82.032C82.7865 82.032 83.7358 82.4373 84.5465 83.248C85.3785 84.0373 86.0292 85.2 86.4985 86.736C86.8612 87.9307 87.0425 89.7867 87.0425 92.304C87.0425 93.8827 86.9465 94.9493 86.7545 95.504C86.5412 96.08 86.0505 96.368 85.2825 96.368C84.7705 96.368 84.3438 96.1973 84.0025 95.856L83.5225 95.376L83.4265 92.144C83.2985 87.984 82.7225 85.84 81.6985 85.712H81.6025C81.1118 85.712 80.5038 85.9893 79.7785 86.544C79.0532 87.0773 78.5305 87.664 78.2105 88.304C78.0185 88.7307 77.7625 89.04 77.4425 89.232L77.0265 89.52L76.9625 93.008C76.9198 94.7147 76.8772 95.7493 76.8345 96.112C76.8132 96.4533 76.6958 96.7307 76.4825 96.944C76.1412 97.3067 75.7145 97.488 75.2025 97.488C74.4345 97.488 73.9012 97.1467 73.6025 96.464C73.4532 96.0587 73.3465 93.6053 73.2825 89.104C73.1758 81.5733 72.8985 77.0613 72.4505 75.568C72.3865 75.3333 72.3545 75.1093 72.3545 74.896C72.3545 74.3413 72.5785 73.8933 73.0265 73.552ZM99.4693 84.816C99.0639 84.7093 98.4026 84.6133 97.4853 84.528C96.8879 84.4853 96.5679 84.464 96.5253 84.464C96.2266 84.464 95.9279 84.624 95.6293 84.944C94.7759 85.8187 94.3173 87.0027 94.2533 88.496C94.2533 88.5813 94.2426 88.6987 94.2213 88.848C94.2213 88.976 94.2213 89.072 94.2213 89.136C94.2213 89.6267 94.3493 90.0853 94.6053 90.512C95.2879 91.728 96.4933 92.336 98.2213 92.336C98.9466 92.3147 99.6826 92.0693 100.429 91.6C101.197 91.1093 101.752 90.5227 102.093 89.84C102.285 89.4347 102.381 88.9973 102.381 88.528C102.381 87.7387 102.104 86.992 101.549 86.288C101.016 85.5627 100.323 85.072 99.4693 84.816ZM94.6053 81.232C95.0959 80.9547 95.5866 80.816 96.0773 80.816C96.1839 80.816 96.5786 80.8373 97.2613 80.88C99.2879 80.9867 100.92 81.4133 102.157 82.16C103.395 82.9067 104.387 84.0587 105.133 85.616C105.709 86.8107 105.997 87.952 105.997 89.04C105.997 89.3813 105.965 89.68 105.901 89.936C105.56 91.2587 104.813 92.464 103.661 93.552C102.509 94.64 101.24 95.3653 99.8533 95.728C99.1279 95.8987 98.5519 95.984 98.1253 95.984C97.6986 95.984 97.1226 95.8987 96.3973 95.728C94.1999 95.152 92.6213 94.1067 91.6613 92.592C90.9146 91.4187 90.5413 90.1813 90.5413 88.88C90.5413 87.5787 90.8933 86.192 91.5973 84.72C92.4079 82.992 93.4106 81.8293 94.6053 81.232ZM110.342 81.072C110.598 80.944 110.865 80.88 111.142 80.88C111.526 80.88 111.889 81.008 112.23 81.264C112.571 81.4987 112.806 81.8187 112.934 82.224L113.126 82.896L113.926 82.416C114.459 82.096 115.195 81.936 116.134 81.936C117.051 81.936 117.809 82.0853 118.406 82.384C118.897 82.6187 119.419 83.0027 119.974 83.536C120.55 84.0693 121.009 84.6027 121.35 85.136C122.502 86.9493 123.131 89.7653 123.238 93.584V94.224C123.238 94.736 123.089 95.152 122.79 95.472C122.427 95.8347 122.001 96.016 121.51 96.016C120.721 96.016 120.198 95.6747 119.942 94.992C119.814 94.6293 119.707 93.9147 119.622 92.848C119.366 89.1147 118.534 86.7787 117.126 85.84C116.827 85.648 116.529 85.552 116.23 85.552C115.675 85.552 115.174 85.8613 114.726 86.48C114.299 87.0773 113.958 87.9307 113.702 89.04C113.595 89.5307 113.467 90.416 113.318 91.696C113.169 92.976 113.094 93.84 113.094 94.288C113.094 94.5013 112.913 94.7893 112.55 95.152C112.187 95.4933 111.771 95.664 111.302 95.664C110.427 95.664 109.851 95.2053 109.574 94.288C109.446 93.84 109.382 91.8987 109.382 88.464C109.382 84.368 109.457 82.1387 109.606 81.776C109.734 81.4987 109.979 81.264 110.342 81.072ZM136.679 85.808C136.295 85.616 135.751 85.52 135.047 85.52C134.279 85.52 133.629 85.6373 133.095 85.872C132.733 86.0213 132.263 86.352 131.687 86.864C131.111 87.3547 130.823 87.6747 130.823 87.824C130.823 87.888 131.154 87.92 131.815 87.92C132.797 87.92 133.97 87.8667 135.335 87.76C136.701 87.6533 137.479 87.536 137.671 87.408C137.735 87.3867 137.767 87.3227 137.767 87.216C137.767 87.024 137.65 86.7787 137.415 86.48C137.181 86.16 136.935 85.936 136.679 85.808ZM132.903 82.096C133.437 81.9467 134.066 81.872 134.791 81.872C136.135 81.872 137.362 82.1387 138.471 82.672C139.303 83.0987 139.997 83.7493 140.551 84.624C141.106 85.4773 141.447 86.4373 141.575 87.504C141.575 87.5467 141.575 87.6107 141.575 87.696C141.597 87.7813 141.607 87.8453 141.607 87.888C141.607 88.4427 141.501 88.9867 141.287 89.52C141.095 90.0533 140.861 90.416 140.583 90.608C140.221 90.864 137.671 91.184 132.935 91.568C131.933 91.6533 131.431 91.7493 131.431 91.856C131.431 91.984 131.655 92.1867 132.103 92.464C132.551 92.7413 132.989 92.9333 133.415 93.04C133.799 93.1253 134.109 93.168 134.343 93.168C135.026 93.168 135.911 92.944 136.999 92.496C137.767 92.176 138.333 92.016 138.695 92.016C139.058 92.016 139.399 92.176 139.719 92.496C140.146 92.9227 140.359 93.328 140.359 93.712C140.359 93.968 140.295 94.2347 140.167 94.512C140.061 94.768 139.911 94.9707 139.719 95.12C139.549 95.2693 139.229 95.4507 138.759 95.664C137.202 96.3467 135.751 96.688 134.407 96.688C133.639 96.688 132.85 96.5707 132.039 96.336C130.951 95.9947 129.959 95.4187 129.063 94.608C128.167 93.776 127.527 92.8587 127.143 91.856C126.909 91.1947 126.791 90.4587 126.791 89.648C126.791 88.4747 126.983 87.4933 127.367 86.704C127.815 85.7227 128.573 84.784 129.639 83.888C130.706 82.992 131.794 82.3947 132.903 82.096ZM146.224 92.56C146.608 92.4107 146.832 92.336 146.896 92.336L147.504 92.56C148.272 92.88 148.656 93.456 148.656 94.288C148.656 94.736 148.464 95.1627 148.08 95.568C147.717 95.9733 147.333 96.176 146.928 96.176C146.544 96.176 146.181 96.048 145.84 95.792C145.52 95.5147 145.296 95.1733 145.168 94.768C145.104 94.576 145.072 94.3947 145.072 94.224C145.072 93.84 145.178 93.4987 145.392 93.2C145.605 92.88 145.882 92.6667 146.224 92.56Z" fill="#27263C"/>
</svg>
