<svg width="709" height="68" viewBox="0 0 709 68" fill="none" xmlns="http://www.w3.org/2000/svg">
<path d="M1.24 3.568C1.60267 3.22667 2.04 3.056 2.552 3.056C3.27733 3.056 3.78933 3.35467 4.088 3.952C4.344 4.4 4.472 8.176 4.472 15.28V17.808L4.44 23.152L3.896 23.632C3.53333 23.9733 3.08533 24.144 2.552 24.144C2.06133 24.144 1.66667 23.984 1.368 23.664C1.15467 23.4293 1.00533 23.2053 0.92 22.992C0.92 22.4373 0.888 19.568 0.824 14.384C0.76 9.17867 0.717333 6.352 0.696 5.904L0.664 4.08L1.24 3.568ZM12.8443 1.52C13.2069 1.15733 13.6443 0.975998 14.1562 0.975998C14.5403 0.975998 14.8816 1.09333 15.1803 1.328C15.5003 1.54133 15.7243 1.85067 15.8523 2.256C15.9163 2.49067 16.0229 3.6 16.1723 5.584C16.3216 7.54667 16.3963 8.912 16.3963 9.68C16.3963 9.872 16.4389 9.98933 16.5243 10.032C16.6309 10.0747 16.8763 10.096 17.2603 10.096C17.8363 10.096 18.1669 10.032 18.2523 9.904C18.2949 9.79733 18.7323 9.744 19.5643 9.744C20.6309 9.744 21.3349 9.81867 21.6763 9.968C21.9963 10.1173 22.2416 10.4053 22.4123 10.832C22.5616 11.1307 22.6363 11.376 22.6363 11.568C22.6363 11.7173 22.6043 11.8987 22.5403 12.112C22.3909 12.6027 22.1136 12.9333 21.7083 13.104C21.3243 13.2533 20.5563 13.36 19.4043 13.424C18.1029 13.488 17.2603 13.5733 16.8763 13.68L16.3643 13.808L16.4923 18.32C16.5349 20.3253 16.5563 21.4027 16.5563 21.552C16.5563 22.4907 16.4816 23.12 16.3323 23.44C16.0123 24.1227 15.4896 24.464 14.7643 24.464C14.4869 24.464 14.1989 24.4 13.9003 24.272C13.6656 24.1653 13.4949 24.0693 13.3883 23.984C13.2816 23.8773 13.1856 23.6107 13.1003 23.184C13.0149 22.736 12.9616 22.2133 12.9403 21.616C12.9189 21.0187 12.8976 20.0373 12.8763 18.672L12.8123 14.032L11.8523 14.064C11.2763 14.1067 10.7643 14.192 10.3163 14.32C10.2096 14.3627 10.0389 14.384 9.80425 14.384C9.07892 14.384 8.55625 14.16 8.23625 13.712C8.06558 13.4347 7.98025 13.0613 7.98025 12.592C7.98025 12.1867 8.04425 11.8667 8.17225 11.632C8.47092 11.0987 9.51625 10.6933 11.3083 10.416L12.7803 10.192L12.6523 7.376C12.5669 5.37067 12.4923 4.00533 12.4283 3.28C12.3856 2.768 12.3643 2.49067 12.3643 2.448C12.3643 2.14933 12.5243 1.84 12.8443 1.52ZM31.0288 3.504C30.7514 4.63467 30.3568 5.872 29.8448 7.216C29.3328 8.56 28.8101 9.81867 28.2768 10.992H24.8528C25.1514 9.73333 25.4501 8.38933 25.7488 6.96C26.0474 5.53067 26.2714 4.26133 26.4208 3.152H30.8048L31.0288 3.504ZM36.6543 8.208C37.0383 8.10133 37.6356 8.048 38.4463 8.048C40.1529 8.048 41.3903 8.176 42.1583 8.432C43.2249 8.77333 43.7583 9.36 43.7583 10.192C43.7583 10.6827 43.5236 11.1307 43.0543 11.536C42.7343 11.8347 42.4249 11.984 42.1263 11.984C42.1049 11.984 42.0623 11.984 41.9983 11.984C41.9343 11.9627 41.8809 11.952 41.8383 11.952C40.4303 11.7173 39.3209 11.6 38.5103 11.6C38.2543 11.6 38.0196 11.6213 37.8063 11.664C37.1449 11.8347 36.8143 12.144 36.8143 12.592C36.8143 12.6773 36.8249 12.7413 36.8463 12.784C36.9956 13.2107 37.8383 13.744 39.3743 14.384C42.1263 15.536 43.8223 16.9653 44.4623 18.672C44.6543 19.184 44.7503 19.664 44.7503 20.112C44.7503 20.9013 44.4623 21.5733 43.8863 22.128C43.3316 22.6827 42.5423 23.056 41.5183 23.248C41.0916 23.3333 40.3876 23.376 39.4062 23.376C37.6143 23.376 36.4729 23.2693 35.9823 23.056C35.7049 22.928 35.4703 22.7147 35.2783 22.416C35.0863 22.096 34.9903 21.7867 34.9903 21.488C34.9903 21.168 35.0969 20.848 35.3103 20.528C35.5236 20.1867 35.7796 19.952 36.0783 19.824C36.3556 19.7173 36.6863 19.664 37.0703 19.664C37.2196 19.664 37.5503 19.6853 38.0623 19.728C38.4036 19.7707 38.8623 19.792 39.4383 19.792C40.3343 19.792 40.7823 19.6853 40.7823 19.472C40.7823 19.088 39.8543 18.512 37.9983 17.744C36.3343 17.0187 35.1076 16.2613 34.3183 15.472C33.5503 14.6613 33.1663 13.744 33.1663 12.72C33.1663 12.5493 33.1876 12.2933 33.2303 11.952C33.4009 10.9067 33.8276 10.0747 34.5103 9.456C35.0649 8.90133 35.7796 8.48533 36.6543 8.208ZM71.733 15.152C71.3277 14.64 70.7517 14.2133 70.005 13.872C69.2583 13.5307 68.3943 13.36 67.413 13.36C66.8157 13.36 66.357 13.4347 66.037 13.584C65.6957 13.7333 65.365 14.0747 65.045 14.608C64.7463 15.12 64.597 15.7493 64.597 16.496V17.04C64.661 18.5547 64.7037 19.4507 64.725 19.728L64.853 20.752L65.621 20.88C65.9197 20.9227 66.165 20.944 66.357 20.944C67.6157 20.944 68.757 20.6987 69.781 20.208C70.293 19.9733 70.7837 19.5893 71.253 19.056C71.7437 18.5013 72.0743 17.9573 72.245 17.424C72.3303 17.1253 72.373 16.8907 72.373 16.72C72.373 16.1653 72.1597 15.6427 71.733 15.152ZM61.653 2.416C61.8663 2.30933 62.1223 2.256 62.421 2.256C62.933 2.256 63.381 2.448 63.765 2.832C63.9997 3.06667 64.1383 3.35467 64.181 3.696C64.245 4.016 64.3303 5.02933 64.437 6.736C64.5437 8.976 64.6183 10.1173 64.661 10.16H64.693C64.7997 10.16 65.173 10.0853 65.813 9.936C66.5597 9.76533 67.2103 9.68 67.765 9.68C68.8317 9.68 70.133 10.032 71.669 10.736C73.4183 11.5467 74.645 12.6773 75.349 14.128C75.5623 14.576 75.6903 14.9493 75.733 15.248C75.797 15.5467 75.829 16.048 75.829 16.752C75.829 17.456 75.797 17.9573 75.733 18.256C75.669 18.5333 75.4983 18.96 75.221 19.536C74.6023 20.7307 73.749 21.744 72.661 22.576C71.573 23.408 70.3677 23.9627 69.045 24.24C68.277 24.4107 67.477 24.496 66.645 24.496C65.8557 24.496 64.9277 24.4213 63.861 24.272C63.0503 24.144 62.517 24.0373 62.261 23.952C62.005 23.8667 61.7703 23.7067 61.557 23.472L61.077 22.96V17.968C61.077 14.96 61.013 11.7067 60.885 8.208C60.821 6.56533 60.789 5.38133 60.789 4.656C60.789 3.80267 60.8423 3.25867 60.949 3.024C61.0557 2.78933 61.2903 2.58667 61.653 2.416ZM88.1218 12.944C87.7378 12.6667 87.1298 12.528 86.2978 12.528C85.7858 12.528 85.3804 12.592 85.0818 12.72C84.8044 12.848 84.4844 13.1147 84.1218 13.52C83.7804 13.904 83.6098 14.1813 83.6098 14.352C83.6098 14.5013 83.7698 14.576 84.0898 14.576C84.5164 14.5547 85.4018 14.4587 86.7458 14.288C88.0898 14.1173 88.7831 14.0107 88.8258 13.968C88.8471 13.9467 88.8578 13.9147 88.8578 13.872C88.8578 13.6373 88.6124 13.328 88.1218 12.944ZM84.6658 9.04C85.0498 8.93333 85.5191 8.88 86.0738 8.88C87.2044 8.88 88.1751 9.04 88.9858 9.36C89.6471 9.59467 90.2978 10.0533 90.9378 10.736C91.5991 11.3973 92.1431 12.144 92.5698 12.976C92.9964 13.8293 93.2098 14.4053 93.2098 14.704C93.2098 15.3867 92.9111 16.0267 92.3138 16.624C91.6738 17.2 89.6791 17.6267 86.3298 17.904C85.0498 18.0107 84.2178 18.096 83.8338 18.16C83.4498 18.224 83.2578 18.32 83.2578 18.448C83.2578 18.5547 83.4498 18.7787 83.8338 19.12C84.4951 19.76 85.6791 20.144 87.3858 20.272C87.5564 20.2933 87.7804 20.304 88.0578 20.304C88.5058 20.304 89.0391 20.1973 89.6578 19.984C90.5324 19.664 91.2258 19.504 91.7378 19.504C92.5058 19.504 93.0071 19.888 93.2418 20.656C93.3058 20.848 93.3378 21.0293 93.3378 21.2C93.3378 21.9253 92.8791 22.5227 91.9618 22.992C91.0658 23.44 89.7964 23.696 88.1538 23.76C88.0684 23.76 87.9511 23.7707 87.8018 23.792C87.6524 23.792 87.5458 23.792 87.4818 23.792C85.6684 23.792 84.1004 23.44 82.7778 22.736C81.4764 22.0107 80.4951 20.9867 79.8338 19.664C79.5138 19.024 79.3538 18.1707 79.3538 17.104C79.3538 16.0373 79.4604 15.1947 79.6738 14.576C80.2071 12.976 80.8684 11.7493 81.6578 10.896C82.4471 10.0213 83.4498 9.40267 84.6658 9.04ZM106.711 13.808C106.327 13.616 105.783 13.52 105.079 13.52C104.311 13.52 103.66 13.6373 103.127 13.872C102.764 14.0213 102.295 14.352 101.719 14.864C101.143 15.3547 100.855 15.6747 100.855 15.824C100.855 15.888 101.185 15.92 101.847 15.92C102.828 15.92 104.001 15.8667 105.367 15.76C106.732 15.6533 107.511 15.536 107.703 15.408C107.767 15.3867 107.799 15.3227 107.799 15.216C107.799 15.024 107.681 14.7787 107.447 14.48C107.212 14.16 106.967 13.936 106.711 13.808ZM102.935 10.096C103.468 9.94667 104.097 9.872 104.823 9.872C106.167 9.872 107.393 10.1387 108.503 10.672C109.335 11.0987 110.028 11.7493 110.583 12.624C111.137 13.4773 111.479 14.4373 111.607 15.504C111.607 15.5467 111.607 15.6107 111.607 15.696C111.628 15.7813 111.639 15.8453 111.639 15.888C111.639 16.4427 111.532 16.9867 111.319 17.52C111.127 18.0533 110.892 18.416 110.615 18.608C110.252 18.864 107.703 19.184 102.967 19.568C101.964 19.6533 101.463 19.7493 101.463 19.856C101.463 19.984 101.687 20.1867 102.135 20.464C102.583 20.7413 103.02 20.9333 103.447 21.04C103.831 21.1253 104.14 21.168 104.375 21.168C105.057 21.168 105.943 20.944 107.031 20.496C107.799 20.176 108.364 20.016 108.727 20.016C109.089 20.016 109.431 20.176 109.751 20.496C110.177 20.9227 110.391 21.328 110.391 21.712C110.391 21.968 110.327 22.2347 110.199 22.512C110.092 22.768 109.943 22.9707 109.751 23.12C109.58 23.2693 109.26 23.4507 108.791 23.664C107.233 24.3467 105.783 24.688 104.439 24.688C103.671 24.688 102.881 24.5707 102.071 24.336C100.983 23.9947 99.9905 23.4187 99.0945 22.608C98.1985 21.776 97.5585 20.8587 97.1745 19.856C96.9398 19.1947 96.8225 18.4587 96.8225 17.648C96.8225 16.4747 97.0145 15.4933 97.3985 14.704C97.8465 13.7227 98.6038 12.784 99.6705 11.888C100.737 10.992 101.825 10.3947 102.935 10.096ZM115.967 9.072C116.223 8.944 116.49 8.88 116.767 8.88C117.151 8.88 117.514 9.008 117.855 9.264C118.196 9.49867 118.431 9.81867 118.559 10.224L118.751 10.896L119.551 10.416C120.084 10.096 120.82 9.936 121.759 9.936C122.676 9.936 123.434 10.0853 124.031 10.384C124.522 10.6187 125.044 11.0027 125.599 11.536C126.175 12.0693 126.634 12.6027 126.975 13.136C128.127 14.9493 128.756 17.7653 128.863 21.584V22.224C128.863 22.736 128.714 23.152 128.415 23.472C128.052 23.8347 127.626 24.016 127.135 24.016C126.346 24.016 125.823 23.6747 125.567 22.992C125.439 22.6293 125.332 21.9147 125.247 20.848C124.991 17.1147 124.159 14.7787 122.751 13.84C122.452 13.648 122.154 13.552 121.855 13.552C121.3 13.552 120.799 13.8613 120.351 14.48C119.924 15.0773 119.583 15.9307 119.327 17.04C119.22 17.5307 119.092 18.416 118.943 19.696C118.794 20.976 118.719 21.84 118.719 22.288C118.719 22.5013 118.538 22.7893 118.175 23.152C117.812 23.4933 117.396 23.664 116.927 23.664C116.052 23.664 115.476 23.2053 115.199 22.288C115.071 21.84 115.007 19.8987 115.007 16.464C115.007 12.368 115.082 10.1387 115.231 9.776C115.359 9.49867 115.604 9.264 115.967 9.072ZM145.686 8.208C146.07 8.10133 146.667 8.048 147.478 8.048C149.184 8.048 150.422 8.176 151.19 8.432C152.256 8.77333 152.79 9.36 152.79 10.192C152.79 10.6827 152.555 11.1307 152.086 11.536C151.766 11.8347 151.456 11.984 151.158 11.984C151.136 11.984 151.094 11.984 151.03 11.984C150.966 11.9627 150.912 11.952 150.87 11.952C149.462 11.7173 148.352 11.6 147.542 11.6C147.286 11.6 147.051 11.6213 146.838 11.664C146.176 11.8347 145.846 12.144 145.846 12.592C145.846 12.6773 145.856 12.7413 145.878 12.784C146.027 13.2107 146.87 13.744 148.406 14.384C151.158 15.536 152.854 16.9653 153.494 18.672C153.686 19.184 153.782 19.664 153.782 20.112C153.782 20.9013 153.494 21.5733 152.918 22.128C152.363 22.6827 151.574 23.056 150.55 23.248C150.123 23.3333 149.419 23.376 148.438 23.376C146.646 23.376 145.504 23.2693 145.014 23.056C144.736 22.928 144.502 22.7147 144.31 22.416C144.118 22.096 144.022 21.7867 144.022 21.488C144.022 21.168 144.128 20.848 144.342 20.528C144.555 20.1867 144.811 19.952 145.11 19.824C145.387 19.7173 145.718 19.664 146.102 19.664C146.251 19.664 146.582 19.6853 147.094 19.728C147.435 19.7707 147.894 19.792 148.47 19.792C149.366 19.792 149.814 19.6853 149.814 19.472C149.814 19.088 148.886 18.512 147.03 17.744C145.366 17.0187 144.139 16.2613 143.35 15.472C142.582 14.6613 142.198 13.744 142.198 12.72C142.198 12.5493 142.219 12.2933 142.262 11.952C142.432 10.9067 142.859 10.0747 143.542 9.456C144.096 8.90133 144.811 8.48533 145.686 8.208ZM166.251 12.816C165.845 12.7093 165.184 12.6133 164.267 12.528C163.669 12.4853 163.349 12.464 163.307 12.464C163.008 12.464 162.709 12.624 162.411 12.944C161.557 13.8187 161.099 15.0027 161.035 16.496C161.035 16.5813 161.024 16.6987 161.003 16.848C161.003 16.976 161.003 17.072 161.003 17.136C161.003 17.6267 161.131 18.0853 161.387 18.512C162.069 19.728 163.275 20.336 165.003 20.336C165.728 20.3147 166.464 20.0693 167.211 19.6C167.979 19.1093 168.533 18.5227 168.875 17.84C169.067 17.4347 169.163 16.9973 169.163 16.528C169.163 15.7387 168.885 14.992 168.331 14.288C167.797 13.5627 167.104 13.072 166.251 12.816ZM161.387 9.232C161.877 8.95467 162.368 8.816 162.859 8.816C162.965 8.816 163.36 8.83733 164.043 8.88C166.069 8.98667 167.701 9.41333 168.939 10.16C170.176 10.9067 171.168 12.0587 171.915 13.616C172.491 14.8107 172.779 15.952 172.779 17.04C172.779 17.3813 172.747 17.68 172.683 17.936C172.341 19.2587 171.595 20.464 170.443 21.552C169.291 22.64 168.021 23.3653 166.635 23.728C165.909 23.8987 165.333 23.984 164.907 23.984C164.48 23.984 163.904 23.8987 163.179 23.728C160.981 23.152 159.403 22.1067 158.443 20.592C157.696 19.4187 157.323 18.1813 157.323 16.88C157.323 15.5787 157.675 14.192 158.379 12.72C159.189 10.992 160.192 9.82933 161.387 9.232ZM190.304 1.424C190.645 1.08267 191.051 0.911999 191.52 0.911999C191.968 0.911999 192.363 1.08267 192.704 1.424C193.045 1.76533 193.259 2.32 193.344 3.088C193.365 3.30133 193.376 4.58133 193.376 6.928C193.376 17.8933 193.301 23.6 193.152 24.048C193.067 24.304 192.875 24.5067 192.576 24.656C192.277 24.8053 191.947 24.88 191.584 24.88C191.157 24.88 190.816 24.7947 190.56 24.624C190.176 24.368 189.931 23.9947 189.824 23.504C189.739 22.992 189.696 21.6267 189.696 19.408C189.696 16.8267 189.707 14.5333 189.728 12.528L189.824 1.904L190.304 1.424ZM205.495 11.6C204.919 11.4933 204.439 11.44 204.055 11.44C203.18 11.44 202.444 11.6213 201.847 11.984C201.548 12.176 201.196 12.8267 200.791 13.936C200.407 15.024 200.215 15.8987 200.215 16.56C200.215 17.6267 200.556 18.4907 201.239 19.152C201.943 19.792 202.86 20.1227 203.991 20.144C204.908 20.144 205.761 19.888 206.551 19.376C207.361 18.864 207.948 18.192 208.311 17.36C208.545 16.8267 208.663 16.2187 208.663 15.536C208.663 14.704 208.503 13.9787 208.183 13.36C207.948 12.8693 207.628 12.496 207.223 12.24C206.817 11.984 206.241 11.7707 205.495 11.6ZM201.879 8.176C202.625 7.984 203.361 7.888 204.087 7.888C205.452 7.888 206.913 8.22933 208.471 8.912C209.58 9.40267 210.455 10.2667 211.095 11.504C211.756 12.7413 212.097 14.2027 212.119 15.888V16.08C212.119 18.6187 210.988 20.6773 208.727 22.256C207.319 23.2587 205.751 23.76 204.023 23.76C202.593 23.76 201.271 23.408 200.055 22.704C198.839 21.9787 197.921 20.9653 197.303 19.664C197.089 19.216 196.951 18.832 196.887 18.512C196.844 18.192 196.823 17.52 196.823 16.496C196.844 14.9813 197.004 13.7867 197.303 12.912C198.007 10.9707 198.839 9.65867 199.799 8.976C200.183 8.69867 200.876 8.432 201.879 8.176ZM216.051 8.112C216.392 7.74933 216.83 7.568 217.363 7.568C217.726 7.568 218.046 7.664 218.323 7.856C218.558 8.02667 218.76 8.304 218.931 8.688C219.123 9.072 219.219 9.424 219.219 9.744C219.219 10.0853 219.304 10.256 219.475 10.256C219.667 10.256 219.976 10.1173 220.403 9.84C220.83 9.584 221.395 9.34933 222.099 9.136C222.803 8.92267 223.368 8.816 223.795 8.816C224.222 8.816 224.744 8.95467 225.363 9.232C226.003 9.50933 226.504 9.81867 226.867 10.16C227.635 10.9067 228.179 11.952 228.499 13.296C228.84 14.64 229.011 16.5067 229.011 18.896C229.011 20.5813 228.958 21.6907 228.851 22.224C228.744 22.736 228.499 23.0987 228.115 23.312C227.859 23.44 227.55 23.504 227.187 23.504C226.803 23.504 226.483 23.44 226.227 23.312C225.864 23.12 225.63 22.768 225.523 22.256C225.438 21.7227 225.374 20.4427 225.331 18.416C225.288 16.3893 225.203 15.056 225.075 14.416C224.947 13.7547 224.68 13.2213 224.275 12.816C224.062 12.6027 223.795 12.496 223.475 12.496C222.942 12.496 222.366 12.7627 221.747 13.296C221.15 13.808 220.659 14.4693 220.275 15.28C220.083 15.6853 219.966 16.0693 219.923 16.432C219.88 16.7947 219.838 17.6267 219.795 18.928C219.752 20.72 219.667 21.7867 219.539 22.128C219.24 22.9173 218.664 23.312 217.811 23.312C217.107 23.312 216.574 23.0027 216.211 22.384C216.104 22.1493 215.998 20.1547 215.891 16.4C215.763 12.368 215.678 10.1387 215.635 9.712C215.592 9.28533 215.571 9.05067 215.571 9.008C215.571 8.73067 215.731 8.432 216.051 8.112ZM242.014 12.08C241.715 11.8667 241.459 11.7387 241.246 11.696C241.033 11.632 240.627 11.6 240.03 11.6C238.451 11.6427 237.395 12.048 236.862 12.816C236.649 13.1147 236.457 13.584 236.286 14.224C236.115 14.8427 236.03 15.3653 236.03 15.792C236.03 15.8347 236.03 15.8987 236.03 15.984C236.051 16.048 236.062 16.0907 236.062 16.112C236.19 16.752 236.542 17.3173 237.118 17.808C237.715 18.2987 238.409 18.5973 239.198 18.704C239.305 18.7253 239.465 18.736 239.678 18.736C240.489 18.736 241.289 18.3093 242.078 17.456C242.867 16.6027 243.262 15.7067 243.262 14.768C243.262 14.4693 243.251 14.2453 243.23 14.096C243.166 13.5413 243.07 13.1573 242.942 12.944C242.814 12.7307 242.505 12.4427 242.014 12.08ZM237.982 8.144C238.451 8.03733 239.134 7.984 240.03 7.984H240.542C241.331 8.00533 241.854 8.05867 242.11 8.144C242.387 8.208 242.825 8.41067 243.422 8.752C244.211 9.24267 244.862 9.60533 245.374 9.84C245.865 10.0747 246.185 10.32 246.334 10.576C246.547 10.896 246.761 12.3893 246.974 15.056C247.209 17.7013 247.326 20.0373 247.326 22.064C247.326 23.728 247.145 25.1147 246.782 26.224C246.441 27.3547 245.865 28.3787 245.054 29.296C243.71 30.832 242.035 31.6 240.03 31.6C238.771 31.6 237.31 31.312 235.646 30.736C234.921 30.5013 234.441 30.2987 234.206 30.128C233.971 29.9573 233.769 29.6907 233.598 29.328C233.513 29.136 233.47 28.912 233.47 28.656C233.47 28.1653 233.641 27.7493 233.982 27.408C234.238 27.1093 234.611 26.96 235.102 26.96C235.55 26.96 236.201 27.1093 237.054 27.408C237.822 27.6853 238.633 27.8667 239.486 27.952C239.55 27.952 239.625 27.952 239.71 27.952C239.817 27.9733 239.891 27.984 239.934 27.984C241.129 27.984 242.067 27.4507 242.75 26.384C243.113 25.872 243.358 25.392 243.486 24.944C243.635 24.4747 243.742 23.8027 243.806 22.928C243.849 22.3307 243.87 21.968 243.87 21.84C243.87 21.4347 243.774 21.232 243.582 21.232C243.411 21.232 243.113 21.3493 242.686 21.584C241.705 22.0747 240.691 22.32 239.646 22.32C237.854 22.32 236.243 21.7227 234.814 20.528C233.385 19.3333 232.627 17.8613 232.542 16.112C232.542 16.048 232.531 15.952 232.51 15.824C232.51 15.696 232.51 15.6 232.51 15.536C232.51 13.68 232.99 12.1013 233.95 10.8C234.931 9.47733 236.275 8.592 237.982 8.144ZM253.191 19.344C253.34 19.1947 253.671 19.12 254.183 19.12C254.609 19.12 254.983 19.248 255.303 19.504C255.623 19.76 255.825 20.0907 255.911 20.496C255.932 20.56 255.943 20.6773 255.943 20.848C255.943 21.4453 255.783 22.3093 255.463 23.44C255.143 24.5493 254.759 25.5947 254.311 26.576C253.991 27.28 253.436 27.632 252.647 27.632C251.793 27.632 251.217 27.216 250.919 26.384C250.876 26.2773 250.855 26.128 250.855 25.936C250.855 25.6587 251.025 25.0827 251.367 24.208C251.836 22.9067 252.124 21.9467 252.231 21.328C252.359 20.7307 252.487 20.304 252.615 20.048C252.743 19.792 252.935 19.5573 253.191 19.344ZM274.219 1.52C274.582 1.15733 275.019 0.975998 275.531 0.975998C275.915 0.975998 276.257 1.09333 276.555 1.328C276.875 1.54133 277.099 1.85067 277.227 2.256C277.291 2.49067 277.398 3.6 277.547 5.584C277.697 7.54667 277.771 8.912 277.771 9.68C277.771 9.872 277.814 9.98933 277.899 10.032C278.006 10.0747 278.251 10.096 278.635 10.096C279.211 10.096 279.542 10.032 279.627 9.904C279.67 9.79733 280.107 9.744 280.939 9.744C282.006 9.744 282.71 9.81867 283.051 9.968C283.371 10.1173 283.617 10.4053 283.787 10.832C283.937 11.1307 284.011 11.376 284.011 11.568C284.011 11.7173 283.979 11.8987 283.915 12.112C283.766 12.6027 283.489 12.9333 283.083 13.104C282.699 13.2533 281.931 13.36 280.779 13.424C279.478 13.488 278.635 13.5733 278.251 13.68L277.739 13.808L277.867 18.32C277.91 20.3253 277.931 21.4027 277.931 21.552C277.931 22.4907 277.857 23.12 277.707 23.44C277.387 24.1227 276.865 24.464 276.139 24.464C275.862 24.464 275.574 24.4 275.275 24.272C275.041 24.1653 274.87 24.0693 274.763 23.984C274.657 23.8773 274.561 23.6107 274.475 23.184C274.39 22.736 274.337 22.2133 274.315 21.616C274.294 21.0187 274.273 20.0373 274.251 18.672L274.187 14.032L273.227 14.064C272.651 14.1067 272.139 14.192 271.691 14.32C271.585 14.3627 271.414 14.384 271.179 14.384C270.454 14.384 269.931 14.16 269.611 13.712C269.441 13.4347 269.355 13.0613 269.355 12.592C269.355 12.1867 269.419 11.8667 269.547 11.632C269.846 11.0987 270.891 10.6933 272.683 10.416L274.155 10.192L274.027 7.376C273.942 5.37067 273.867 4.00533 273.803 3.28C273.761 2.768 273.739 2.49067 273.739 2.448C273.739 2.14933 273.899 1.84 274.219 1.52ZM288.308 1.552C288.67 1.25333 289.044 1.104 289.428 1.104C290.196 1.104 290.761 1.57333 291.124 2.512C291.273 2.93867 291.433 3.96267 291.604 5.584C291.774 7.184 291.913 8.67733 292.02 10.064C292.126 11.4293 292.19 12.112 292.212 12.112C292.254 12.112 292.606 11.8773 293.268 11.408C294.569 10.4907 295.806 10.032 296.98 10.032C298.068 10.032 299.017 10.4373 299.828 11.248C300.66 12.0373 301.31 13.2 301.78 14.736C302.142 15.9307 302.324 17.7867 302.324 20.304C302.324 21.8827 302.228 22.9493 302.036 23.504C301.822 24.08 301.332 24.368 300.564 24.368C300.052 24.368 299.625 24.1973 299.284 23.856L298.804 23.376L298.708 20.144C298.58 15.984 298.004 13.84 296.98 13.712H296.884C296.393 13.712 295.785 13.9893 295.06 14.544C294.334 15.0773 293.812 15.664 293.492 16.304C293.3 16.7307 293.044 17.04 292.724 17.232L292.308 17.52L292.244 21.008C292.201 22.7147 292.158 23.7493 292.116 24.112C292.094 24.4533 291.977 24.7307 291.764 24.944C291.422 25.3067 290.996 25.488 290.484 25.488C289.716 25.488 289.182 25.1467 288.884 24.464C288.734 24.0587 288.628 21.6053 288.564 17.104C288.457 9.57333 288.18 5.06133 287.732 3.568C287.668 3.33333 287.636 3.10933 287.636 2.896C287.636 2.34133 287.86 1.89333 288.308 1.552ZM315.039 13.68C314.932 13.3387 314.836 13.1467 314.751 13.104C314.665 13.04 314.431 13.008 314.047 13.008C312.937 13.0293 311.903 13.552 310.943 14.576C309.983 15.5787 309.503 16.592 309.503 17.616C309.503 18.128 309.641 18.5547 309.919 18.896C310.537 19.5787 311.188 19.92 311.871 19.92C311.913 19.92 311.956 19.92 311.999 19.92C312.041 19.8987 312.084 19.888 312.127 19.888C312.511 19.8027 312.916 19.5467 313.343 19.12C313.791 18.6933 314.132 18.224 314.367 17.712C314.857 16.56 315.103 15.44 315.103 14.352C315.103 14.032 315.081 13.808 315.039 13.68ZM312.062 9.648C312.639 9.456 313.3 9.36 314.047 9.36C315.028 9.36 315.86 9.52 316.543 9.84C316.991 10.0747 317.396 10.4267 317.759 10.896C318.143 11.344 318.377 11.7707 318.463 12.176C318.548 12.5813 318.665 12.9653 318.815 13.328C319.049 13.9467 319.519 16.272 320.222 20.304C320.329 20.944 320.383 21.424 320.383 21.744C320.383 23.024 319.785 23.664 318.591 23.664C318.185 23.664 317.812 23.504 317.471 23.184C317.151 22.864 316.948 22.4693 316.863 22C316.777 21.5733 316.703 21.328 316.639 21.264C316.553 21.2 316.308 21.3707 315.903 21.776C314.687 22.992 313.289 23.6 311.711 23.6C311.433 23.6 311.145 23.568 310.847 23.504C309.673 23.248 308.575 22.608 307.551 21.584C306.399 20.432 305.823 19.1413 305.823 17.712C305.823 16.5813 306.175 15.3547 306.879 14.032C307.412 13.0293 308.137 12.1333 309.055 11.344C309.993 10.5547 310.996 9.98933 312.062 9.648ZM328.844 1.52C329.207 1.15733 329.644 0.975998 330.156 0.975998C330.54 0.975998 330.882 1.09333 331.18 1.328C331.5 1.54133 331.724 1.85067 331.852 2.256C331.916 2.49067 332.023 3.6 332.172 5.584C332.322 7.54667 332.396 8.912 332.396 9.68C332.396 9.872 332.439 9.98933 332.524 10.032C332.631 10.0747 332.876 10.096 333.26 10.096C333.836 10.096 334.167 10.032 334.252 9.904C334.295 9.79733 334.732 9.744 335.564 9.744C336.631 9.744 337.335 9.81867 337.676 9.968C337.996 10.1173 338.242 10.4053 338.412 10.832C338.562 11.1307 338.636 11.376 338.636 11.568C338.636 11.7173 338.604 11.8987 338.54 12.112C338.391 12.6027 338.114 12.9333 337.708 13.104C337.324 13.2533 336.556 13.36 335.404 13.424C334.103 13.488 333.26 13.5733 332.876 13.68L332.364 13.808L332.492 18.32C332.535 20.3253 332.556 21.4027 332.556 21.552C332.556 22.4907 332.482 23.12 332.332 23.44C332.012 24.1227 331.49 24.464 330.764 24.464C330.487 24.464 330.199 24.4 329.9 24.272C329.666 24.1653 329.495 24.0693 329.388 23.984C329.282 23.8773 329.186 23.6107 329.1 23.184C329.015 22.736 328.962 22.2133 328.94 21.616C328.919 21.0187 328.898 20.0373 328.876 18.672L328.812 14.032L327.852 14.064C327.276 14.1067 326.764 14.192 326.316 14.32C326.21 14.3627 326.039 14.384 325.804 14.384C325.079 14.384 324.556 14.16 324.236 13.712C324.066 13.4347 323.98 13.0613 323.98 12.592C323.98 12.1867 324.044 11.8667 324.172 11.632C324.471 11.0987 325.516 10.6933 327.308 10.416L328.78 10.192L328.652 7.376C328.567 5.37067 328.492 4.00533 328.428 3.28C328.386 2.768 328.364 2.49067 328.364 2.448C328.364 2.14933 328.524 1.84 328.844 1.52ZM353.68 4.272C354.021 3.952 354.341 3.792 354.64 3.792C354.81 3.792 354.96 3.80267 355.088 3.824C355.664 3.888 356.069 4.08 356.304 4.4L356.72 4.88L356.656 13.264C356.634 18.7893 356.538 21.7653 356.368 22.192C356.09 22.832 355.557 23.152 354.768 23.152C354.512 23.152 354.32 23.1307 354.192 23.088C353.872 22.9813 353.658 22.9067 353.552 22.864C353.466 22.8 353.36 22.608 353.232 22.288C353.125 21.9467 353.061 21.4773 353.04 20.88C353.018 20.2827 353.008 19.3653 353.008 18.128C353.008 17.7867 353.008 17.0933 353.008 16.048C353.029 15.0027 353.04 14.128 353.04 13.424L353.072 4.784L353.68 4.272ZM364.966 3.504C364.689 4.63467 364.294 5.872 363.782 7.216C363.27 8.56 362.748 9.81867 362.214 10.992H358.79C359.089 9.73333 359.388 8.38933 359.686 6.96C359.985 5.53067 360.209 4.26133 360.358 3.152H364.742L364.966 3.504ZM368.128 8.528C368.341 8.42133 368.597 8.368 368.896 8.368C369.984 8.368 370.666 9.28533 370.944 11.12C371.008 11.6747 371.082 11.952 371.168 11.952C371.189 11.952 371.488 11.7067 372.064 11.216C373.237 10.1707 374.432 9.648 375.648 9.648C376.309 9.648 376.938 9.82933 377.536 10.192C378.112 10.5547 378.485 10.8747 378.656 11.152L378.944 11.6L379.712 10.896C380.885 9.85067 382.144 9.328 383.488 9.328C384.789 9.328 385.909 9.82933 386.848 10.832C388.448 12.4747 389.397 15.28 389.696 19.248C389.738 19.9733 389.76 20.4213 389.76 20.592C389.76 21.1467 389.685 21.552 389.536 21.808C389.408 22.064 389.173 22.288 388.832 22.48C388.533 22.6293 388.245 22.704 387.968 22.704C387.498 22.704 387.082 22.4907 386.72 22.064C386.442 21.7013 386.261 21.0827 386.176 20.208C386.005 18.2453 385.792 16.784 385.536 15.824C385.28 14.864 384.917 14.1173 384.448 13.584C384.085 13.2 383.712 13.008 383.328 13.008C382.602 13.008 381.962 13.5733 381.408 14.704C381.194 15.152 381.056 15.568 380.992 15.952C380.928 16.336 380.874 17.2107 380.832 18.576C380.746 20.4533 380.64 21.5733 380.512 21.936C380.213 22.64 379.669 22.992 378.88 22.992C378.41 22.992 378.016 22.832 377.696 22.512C377.184 22 376.864 20.4853 376.736 17.968C376.672 17.008 376.554 16.08 376.384 15.184C376.213 14.288 376.053 13.7547 375.904 13.584C375.776 13.4347 375.637 13.36 375.488 13.36C375.232 13.36 374.805 13.6267 374.208 14.16C373.568 14.7573 373.088 15.3973 372.768 16.08C372.469 16.6987 372.288 17.2 372.224 17.584C372.181 17.9467 372.138 19.1947 372.096 21.328C372.074 21.8827 371.904 22.3307 371.584 22.672C371.264 23.0133 370.858 23.184 370.368 23.184C369.877 23.184 369.482 23.088 369.184 22.896C368.757 22.5973 368.458 22.0213 368.288 21.168C368.117 20.2933 367.925 18.2347 367.712 14.992C367.584 13.072 367.434 11.7707 367.264 11.088C367.136 10.576 367.072 10.2347 367.072 10.064C367.072 9.872 367.136 9.648 367.264 9.392C367.456 8.944 367.744 8.656 368.128 8.528ZM404.02 8.112C404.361 7.74933 404.798 7.568 405.332 7.568C405.694 7.568 406.014 7.664 406.292 7.856C406.526 8.02667 406.729 8.304 406.9 8.688C407.092 9.072 407.188 9.424 407.188 9.744C407.188 10.0853 407.273 10.256 407.444 10.256C407.636 10.256 407.945 10.1173 408.372 9.84C408.798 9.584 409.364 9.34933 410.068 9.136C410.772 8.92267 411.337 8.816 411.764 8.816C412.19 8.816 412.713 8.95467 413.332 9.232C413.972 9.50933 414.473 9.81867 414.836 10.16C415.604 10.9067 416.148 11.952 416.468 13.296C416.809 14.64 416.98 16.5067 416.98 18.896C416.98 20.5813 416.926 21.6907 416.82 22.224C416.713 22.736 416.468 23.0987 416.084 23.312C415.828 23.44 415.518 23.504 415.156 23.504C414.772 23.504 414.452 23.44 414.196 23.312C413.833 23.12 413.598 22.768 413.492 22.256C413.406 21.7227 413.342 20.4427 413.3 18.416C413.257 16.3893 413.172 15.056 413.044 14.416C412.916 13.7547 412.649 13.2213 412.244 12.816C412.03 12.6027 411.764 12.496 411.444 12.496C410.91 12.496 410.334 12.7627 409.716 13.296C409.118 13.808 408.628 14.4693 408.244 15.28C408.052 15.6853 407.934 16.0693 407.892 16.432C407.849 16.7947 407.806 17.6267 407.764 18.928C407.721 20.72 407.636 21.7867 407.508 22.128C407.209 22.9173 406.633 23.312 405.78 23.312C405.076 23.312 404.542 23.0027 404.18 22.384C404.073 22.1493 403.966 20.1547 403.86 16.4C403.732 12.368 403.646 10.1387 403.604 9.712C403.561 9.28533 403.54 9.05067 403.54 9.008C403.54 8.73067 403.7 8.432 404.02 8.112ZM429.151 11.6C428.575 11.4933 428.095 11.44 427.711 11.44C426.836 11.44 426.1 11.6213 425.503 11.984C425.204 12.176 424.852 12.8267 424.447 13.936C424.063 15.024 423.871 15.8987 423.871 16.56C423.871 17.6267 424.212 18.4907 424.895 19.152C425.599 19.792 426.516 20.1227 427.647 20.144C428.564 20.144 429.417 19.888 430.207 19.376C431.017 18.864 431.604 18.192 431.967 17.36C432.201 16.8267 432.319 16.2187 432.319 15.536C432.319 14.704 432.159 13.9787 431.839 13.36C431.604 12.8693 431.284 12.496 430.879 12.24C430.473 11.984 429.897 11.7707 429.151 11.6ZM425.535 8.176C426.281 7.984 427.017 7.888 427.743 7.888C429.108 7.888 430.569 8.22933 432.127 8.912C433.236 9.40267 434.111 10.2667 434.751 11.504C435.412 12.7413 435.753 14.2027 435.775 15.888V16.08C435.775 18.6187 434.644 20.6773 432.383 22.256C430.975 23.2587 429.407 23.76 427.679 23.76C426.249 23.76 424.927 23.408 423.711 22.704C422.495 21.9787 421.577 20.9653 420.959 19.664C420.745 19.216 420.607 18.832 420.543 18.512C420.5 18.192 420.479 17.52 420.479 16.496C420.5 14.9813 420.66 13.7867 420.959 12.912C421.663 10.9707 422.495 9.65867 423.455 8.976C423.839 8.69867 424.532 8.432 425.535 8.176ZM444.219 1.52C444.582 1.15733 445.019 0.975998 445.531 0.975998C445.915 0.975998 446.257 1.09333 446.555 1.328C446.875 1.54133 447.099 1.85067 447.227 2.256C447.291 2.49067 447.398 3.6 447.547 5.584C447.697 7.54667 447.771 8.912 447.771 9.68C447.771 9.872 447.814 9.98933 447.899 10.032C448.006 10.0747 448.251 10.096 448.635 10.096C449.211 10.096 449.542 10.032 449.627 9.904C449.67 9.79733 450.107 9.744 450.939 9.744C452.006 9.744 452.71 9.81867 453.051 9.968C453.371 10.1173 453.617 10.4053 453.787 10.832C453.937 11.1307 454.011 11.376 454.011 11.568C454.011 11.7173 453.979 11.8987 453.915 12.112C453.766 12.6027 453.489 12.9333 453.083 13.104C452.699 13.2533 451.931 13.36 450.779 13.424C449.478 13.488 448.635 13.5733 448.251 13.68L447.739 13.808L447.867 18.32C447.91 20.3253 447.931 21.4027 447.931 21.552C447.931 22.4907 447.857 23.12 447.707 23.44C447.387 24.1227 446.865 24.464 446.139 24.464C445.862 24.464 445.574 24.4 445.275 24.272C445.041 24.1653 444.87 24.0693 444.763 23.984C444.657 23.8773 444.561 23.6107 444.475 23.184C444.39 22.736 444.337 22.2133 444.315 21.616C444.294 21.0187 444.273 20.0373 444.251 18.672L444.187 14.032L443.227 14.064C442.651 14.1067 442.139 14.192 441.691 14.32C441.585 14.3627 441.414 14.384 441.179 14.384C440.454 14.384 439.931 14.16 439.611 13.712C439.441 13.4347 439.355 13.0613 439.355 12.592C439.355 12.1867 439.419 11.8667 439.547 11.632C439.846 11.0987 440.891 10.6933 442.683 10.416L444.155 10.192L444.027 7.376C443.942 5.37067 443.867 4.00533 443.803 3.28C443.761 2.768 443.739 2.49067 443.739 2.448C443.739 2.14933 443.899 1.84 444.219 1.52ZM480.961 13.808C480.577 13.616 480.033 13.52 479.329 13.52C478.561 13.52 477.91 13.6373 477.377 13.872C477.014 14.0213 476.545 14.352 475.969 14.864C475.393 15.3547 475.105 15.6747 475.105 15.824C475.105 15.888 475.435 15.92 476.097 15.92C477.078 15.92 478.251 15.8667 479.617 15.76C480.982 15.6533 481.761 15.536 481.953 15.408C482.017 15.3867 482.049 15.3227 482.049 15.216C482.049 15.024 481.931 14.7787 481.697 14.48C481.462 14.16 481.217 13.936 480.961 13.808ZM477.185 10.096C477.718 9.94667 478.347 9.872 479.073 9.872C480.417 9.872 481.643 10.1387 482.753 10.672C483.585 11.0987 484.278 11.7493 484.833 12.624C485.387 13.4773 485.729 14.4373 485.857 15.504C485.857 15.5467 485.857 15.6107 485.857 15.696C485.878 15.7813 485.889 15.8453 485.889 15.888C485.889 16.4427 485.782 16.9867 485.569 17.52C485.377 18.0533 485.142 18.416 484.865 18.608C484.502 18.864 481.953 19.184 477.217 19.568C476.214 19.6533 475.713 19.7493 475.713 19.856C475.713 19.984 475.937 20.1867 476.385 20.464C476.833 20.7413 477.27 20.9333 477.697 21.04C478.081 21.1253 478.39 21.168 478.625 21.168C479.307 21.168 480.193 20.944 481.281 20.496C482.049 20.176 482.614 20.016 482.977 20.016C483.339 20.016 483.681 20.176 484.001 20.496C484.427 20.9227 484.641 21.328 484.641 21.712C484.641 21.968 484.577 22.2347 484.449 22.512C484.342 22.768 484.193 22.9707 484.001 23.12C483.83 23.2693 483.51 23.4507 483.041 23.664C481.483 24.3467 480.033 24.688 478.689 24.688C477.921 24.688 477.131 24.5707 476.321 24.336C475.233 23.9947 474.241 23.4187 473.345 22.608C472.449 21.776 471.809 20.8587 471.424 19.856C471.19 19.1947 471.073 18.4587 471.073 17.648C471.073 16.4747 471.265 15.4933 471.649 14.704C472.097 13.7227 472.854 12.784 473.921 11.888C474.987 10.992 476.075 10.3947 477.185 10.096ZM489.449 10.352C489.449 9.904 489.62 9.52 489.961 9.2C490.324 8.85867 490.729 8.688 491.177 8.688C491.689 8.688 492.116 8.88 492.457 9.264C492.798 9.62667 493.172 10.3093 493.577 11.312C493.982 12.3573 494.601 13.7653 495.433 15.536C496.286 17.2853 496.756 18.16 496.841 18.16C496.905 18.16 497.268 17.552 497.929 16.336C498.334 15.568 498.974 14.4373 499.849 12.944C500.745 11.4507 501.268 10.5653 501.417 10.288C501.716 9.75467 501.982 9.41333 502.217 9.264C502.452 9.11467 502.814 9.04 503.305 9.04C503.774 9.04 504.18 9.21067 504.521 9.552C504.884 9.89333 505.065 10.2987 505.065 10.768C505.065 10.8747 505.044 11.0133 505.001 11.184C504.916 11.4613 504.489 12.24 503.721 13.52C501.097 17.808 499.518 20.8267 498.985 22.576C498.644 23.6853 497.961 24.24 496.937 24.24C496.66 24.24 496.361 24.176 496.041 24.048C495.742 23.92 495.465 23.6533 495.209 23.248C494.974 22.8213 494.366 21.6053 493.385 19.6C490.761 14.224 489.449 11.1413 489.449 10.352ZM518.461 13.808C518.077 13.616 517.533 13.52 516.829 13.52C516.061 13.52 515.41 13.6373 514.877 13.872C514.514 14.0213 514.045 14.352 513.469 14.864C512.893 15.3547 512.605 15.6747 512.605 15.824C512.605 15.888 512.935 15.92 513.597 15.92C514.578 15.92 515.751 15.8667 517.117 15.76C518.482 15.6533 519.261 15.536 519.453 15.408C519.517 15.3867 519.549 15.3227 519.549 15.216C519.549 15.024 519.431 14.7787 519.197 14.48C518.962 14.16 518.717 13.936 518.461 13.808ZM514.685 10.096C515.218 9.94667 515.847 9.872 516.573 9.872C517.917 9.872 519.143 10.1387 520.253 10.672C521.085 11.0987 521.778 11.7493 522.333 12.624C522.887 13.4773 523.229 14.4373 523.357 15.504C523.357 15.5467 523.357 15.6107 523.357 15.696C523.378 15.7813 523.389 15.8453 523.389 15.888C523.389 16.4427 523.282 16.9867 523.069 17.52C522.877 18.0533 522.642 18.416 522.365 18.608C522.002 18.864 519.453 19.184 514.717 19.568C513.714 19.6533 513.213 19.7493 513.213 19.856C513.213 19.984 513.437 20.1867 513.885 20.464C514.333 20.7413 514.77 20.9333 515.197 21.04C515.581 21.1253 515.89 21.168 516.125 21.168C516.807 21.168 517.693 20.944 518.781 20.496C519.549 20.176 520.114 20.016 520.477 20.016C520.839 20.016 521.181 20.176 521.501 20.496C521.927 20.9227 522.141 21.328 522.141 21.712C522.141 21.968 522.077 22.2347 521.949 22.512C521.842 22.768 521.693 22.9707 521.501 23.12C521.33 23.2693 521.01 23.4507 520.541 23.664C518.983 24.3467 517.533 24.688 516.189 24.688C515.421 24.688 514.631 24.5707 513.821 24.336C512.733 23.9947 511.741 23.4187 510.845 22.608C509.949 21.776 509.309 20.8587 508.924 19.856C508.69 19.1947 508.573 18.4587 508.573 17.648C508.573 16.4747 508.765 15.4933 509.149 14.704C509.597 13.7227 510.354 12.784 511.421 11.888C512.487 10.992 513.575 10.3947 514.685 10.096ZM527.717 9.072C527.973 8.944 528.24 8.88 528.517 8.88C528.901 8.88 529.264 9.008 529.605 9.264C529.946 9.49867 530.181 9.81867 530.309 10.224L530.501 10.896L531.301 10.416C531.834 10.096 532.57 9.936 533.509 9.936C534.426 9.936 535.184 10.0853 535.781 10.384C536.272 10.6187 536.794 11.0027 537.349 11.536C537.925 12.0693 538.384 12.6027 538.725 13.136C539.877 14.9493 540.506 17.7653 540.613 21.584V22.224C540.613 22.736 540.464 23.152 540.165 23.472C539.802 23.8347 539.376 24.016 538.885 24.016C538.096 24.016 537.573 23.6747 537.317 22.992C537.189 22.6293 537.082 21.9147 536.997 20.848C536.741 17.1147 535.909 14.7787 534.501 13.84C534.202 13.648 533.904 13.552 533.605 13.552C533.05 13.552 532.549 13.8613 532.101 14.48C531.674 15.0773 531.333 15.9307 531.077 17.04C530.97 17.5307 530.842 18.416 530.693 19.696C530.544 20.976 530.469 21.84 530.469 22.288C530.469 22.5013 530.288 22.7893 529.925 23.152C529.562 23.4933 529.146 23.664 528.677 23.664C527.802 23.664 527.226 23.2053 526.949 22.288C526.821 21.84 526.757 19.8987 526.757 16.464C526.757 12.368 526.832 10.1387 526.981 9.776C527.109 9.49867 527.354 9.264 527.717 9.072ZM557.436 8.208C557.82 8.10133 558.417 8.048 559.228 8.048C560.934 8.048 562.172 8.176 562.94 8.432C564.006 8.77333 564.54 9.36 564.54 10.192C564.54 10.6827 564.305 11.1307 563.836 11.536C563.516 11.8347 563.206 11.984 562.908 11.984C562.886 11.984 562.844 11.984 562.78 11.984C562.716 11.9627 562.662 11.952 562.62 11.952C561.212 11.7173 560.102 11.6 559.292 11.6C559.036 11.6 558.801 11.6213 558.588 11.664C557.926 11.8347 557.596 12.144 557.596 12.592C557.596 12.6773 557.606 12.7413 557.628 12.784C557.777 13.2107 558.62 13.744 560.156 14.384C562.908 15.536 564.604 16.9653 565.244 18.672C565.436 19.184 565.532 19.664 565.532 20.112C565.532 20.9013 565.244 21.5733 564.668 22.128C564.113 22.6827 563.324 23.056 562.3 23.248C561.873 23.3333 561.169 23.376 560.188 23.376C558.396 23.376 557.254 23.2693 556.764 23.056C556.486 22.928 556.252 22.7147 556.06 22.416C555.868 22.096 555.772 21.7867 555.772 21.488C555.772 21.168 555.878 20.848 556.092 20.528C556.305 20.1867 556.561 19.952 556.86 19.824C557.137 19.7173 557.468 19.664 557.852 19.664C558.001 19.664 558.332 19.6853 558.844 19.728C559.185 19.7707 559.644 19.792 560.22 19.792C561.116 19.792 561.564 19.6853 561.564 19.472C561.564 19.088 560.636 18.512 558.78 17.744C557.116 17.0187 555.889 16.2613 555.1 15.472C554.332 14.6613 553.948 13.744 553.948 12.72C553.948 12.5493 553.969 12.2933 554.012 11.952C554.182 10.9067 554.609 10.0747 555.292 9.456C555.846 8.90133 556.561 8.48533 557.436 8.208ZM569.521 9.008C569.883 8.64533 570.289 8.464 570.737 8.464C571.185 8.464 571.611 8.64533 572.016 9.008L572.593 9.52L572.689 13.808C572.731 15.7067 572.774 16.9333 572.817 17.488C572.881 18.0427 572.998 18.512 573.169 18.896C573.425 19.4507 573.649 19.728 573.841 19.728C574.331 19.728 574.918 19.3653 575.601 18.64C576.305 17.9147 576.849 17.0933 577.233 16.176C577.51 15.5147 577.83 14.384 578.193 12.784C578.47 11.504 578.683 10.672 578.833 10.288C579.003 9.904 579.27 9.62667 579.633 9.456C579.953 9.30667 580.262 9.232 580.561 9.232C580.859 9.232 581.169 9.31733 581.489 9.488C582.001 9.744 582.342 10.3733 582.513 11.376C582.705 12.3573 582.907 14.64 583.121 18.224C583.27 20.8693 583.345 22.2347 583.345 22.32C583.345 22.8107 583.259 23.1733 583.089 23.408C582.726 23.8987 582.203 24.144 581.521 24.144C580.923 24.144 580.486 23.952 580.209 23.568C579.867 23.0987 579.697 22.32 579.697 21.232C579.697 20.464 579.611 20.08 579.441 20.08C579.27 20.08 578.854 20.4107 578.193 21.072C577.382 21.8613 576.689 22.4373 576.113 22.8C575.729 23.0347 575.398 23.184 575.121 23.248C574.865 23.312 574.427 23.344 573.809 23.344C573.169 23.344 572.731 23.3227 572.497 23.28C572.283 23.216 572.017 23.056 571.697 22.8C570.63 22.0107 569.915 20.976 569.553 19.696C569.19 18.3947 569.009 16.2507 569.009 13.264V9.52L569.521 9.008ZM587.271 9.328C587.655 9.008 588.071 8.848 588.519 8.848C588.988 8.848 589.393 9.01867 589.735 9.36C590.076 9.68 590.247 10.096 590.247 10.608C590.247 11.12 590.343 11.376 590.535 11.376C590.641 11.376 590.865 11.2587 591.207 11.024C592.785 9.936 594.353 9.392 595.911 9.392C596.572 9.392 597.223 9.50933 597.863 9.744C598.439 9.97867 598.844 10.2347 599.079 10.512C599.313 10.7893 599.431 11.1627 599.431 11.632C599.431 12.144 599.239 12.5813 598.855 12.944C598.535 13.2427 598.247 13.392 597.991 13.392C597.905 13.392 597.308 13.3173 596.199 13.168C596.071 13.1467 595.889 13.136 595.655 13.136C595.313 13.136 594.876 13.2533 594.343 13.488C592.956 14.128 591.985 14.9387 591.431 15.92C590.876 16.9013 590.599 18.3093 590.599 20.144C590.577 21.488 590.417 22.4267 590.119 22.96C589.841 23.4933 589.34 23.76 588.615 23.76C588.124 23.76 587.708 23.5893 587.367 23.248L586.855 22.736L586.791 17.072C586.748 12.8907 586.727 10.736 586.727 10.608C586.727 10.096 586.908 9.66933 587.271 9.328ZM612.836 13.808C612.452 13.616 611.908 13.52 611.204 13.52C610.436 13.52 609.785 13.6373 609.252 13.872C608.889 14.0213 608.42 14.352 607.844 14.864C607.268 15.3547 606.98 15.6747 606.98 15.824C606.98 15.888 607.31 15.92 607.972 15.92C608.953 15.92 610.126 15.8667 611.492 15.76C612.857 15.6533 613.636 15.536 613.828 15.408C613.892 15.3867 613.924 15.3227 613.924 15.216C613.924 15.024 613.806 14.7787 613.572 14.48C613.337 14.16 613.092 13.936 612.836 13.808ZM609.06 10.096C609.593 9.94667 610.222 9.872 610.948 9.872C612.292 9.872 613.518 10.1387 614.628 10.672C615.46 11.0987 616.153 11.7493 616.708 12.624C617.262 13.4773 617.604 14.4373 617.732 15.504C617.732 15.5467 617.732 15.6107 617.732 15.696C617.753 15.7813 617.764 15.8453 617.764 15.888C617.764 16.4427 617.657 16.9867 617.444 17.52C617.252 18.0533 617.017 18.416 616.74 18.608C616.377 18.864 613.828 19.184 609.092 19.568C608.089 19.6533 607.588 19.7493 607.588 19.856C607.588 19.984 607.812 20.1867 608.26 20.464C608.708 20.7413 609.145 20.9333 609.572 21.04C609.956 21.1253 610.265 21.168 610.5 21.168C611.182 21.168 612.068 20.944 613.156 20.496C613.924 20.176 614.489 20.016 614.852 20.016C615.214 20.016 615.556 20.176 615.876 20.496C616.302 20.9227 616.516 21.328 616.516 21.712C616.516 21.968 616.452 22.2347 616.324 22.512C616.217 22.768 616.068 22.9707 615.876 23.12C615.705 23.2693 615.385 23.4507 614.916 23.664C613.358 24.3467 611.908 24.688 610.564 24.688C609.796 24.688 609.006 24.5707 608.196 24.336C607.108 23.9947 606.116 23.4187 605.22 22.608C604.324 21.776 603.684 20.8587 603.299 19.856C603.065 19.1947 602.948 18.4587 602.948 17.648C602.948 16.4747 603.14 15.4933 603.524 14.704C603.972 13.7227 604.729 12.784 605.796 11.888C606.862 10.992 607.95 10.3947 609.06 10.096ZM631.022 8.816C631.342 8.496 631.747 8.336 632.238 8.336C632.899 8.336 633.358 8.56 633.614 9.008C633.891 9.43467 634.329 10.64 634.926 12.624C635.097 13.1787 635.31 13.8933 635.566 14.768C636.291 17.072 636.707 18.2453 636.814 18.288C636.942 18.288 637.23 17.648 637.678 16.368C638.403 14.192 639.001 12.6667 639.47 11.792C639.961 10.9173 640.537 10.3413 641.198 10.064C641.518 9.91467 641.838 9.84 642.158 9.84C642.627 9.84 643.054 10.064 643.438 10.512C643.843 10.9387 644.291 11.664 644.782 12.688C646.659 16.6773 647.651 18.672 647.758 18.672C647.801 18.672 648.046 18 648.494 16.656C648.963 15.2907 649.454 13.8827 649.966 12.432C650.499 10.9813 650.851 10.16 651.022 9.968C651.363 9.584 651.769 9.392 652.238 9.392C652.75 9.392 653.219 9.616 653.646 10.064C653.881 10.2987 653.998 10.608 653.998 10.992C653.998 11.6107 653.507 13.36 652.526 16.24C651.502 19.248 650.713 21.2213 650.158 22.16C649.603 23.0773 648.91 23.536 648.078 23.536C647.822 23.536 647.63 23.5253 647.502 23.504C646.819 23.3973 646.233 23.0453 645.742 22.448C645.251 21.8507 644.537 20.5707 643.598 18.608C642.553 16.432 641.998 15.344 641.934 15.344C641.87 15.344 641.678 15.792 641.358 16.688C640.334 19.632 639.609 21.5413 639.182 22.416C638.755 23.2907 638.307 23.8347 637.838 24.048C637.475 24.1973 637.049 24.272 636.558 24.272C636.131 24.272 635.801 24.2187 635.566 24.112C635.139 23.8987 634.627 23.0453 634.03 21.552C633.433 20.0587 632.59 17.4987 631.502 13.872C630.883 11.824 630.574 10.512 630.574 9.936C630.574 9.488 630.723 9.11467 631.022 8.816ZM658.214 1.552C658.577 1.25333 658.95 1.104 659.334 1.104C660.102 1.104 660.667 1.57333 661.03 2.512C661.179 2.93867 661.339 3.96267 661.51 5.584C661.681 7.184 661.819 8.67733 661.926 10.064C662.033 11.4293 662.097 12.112 662.118 12.112C662.161 12.112 662.513 11.8773 663.174 11.408C664.475 10.4907 665.713 10.032 666.886 10.032C667.974 10.032 668.923 10.4373 669.734 11.248C670.566 12.0373 671.217 13.2 671.686 14.736C672.049 15.9307 672.23 17.7867 672.23 20.304C672.23 21.8827 672.134 22.9493 671.942 23.504C671.729 24.08 671.238 24.368 670.47 24.368C669.958 24.368 669.531 24.1973 669.19 23.856L668.71 23.376L668.614 20.144C668.486 15.984 667.91 13.84 666.886 13.712H666.79C666.299 13.712 665.691 13.9893 664.966 14.544C664.241 15.0773 663.718 15.664 663.398 16.304C663.206 16.7307 662.95 17.04 662.63 17.232L662.214 17.52L662.15 21.008C662.107 22.7147 662.065 23.7493 662.022 24.112C662.001 24.4533 661.883 24.7307 661.67 24.944C661.329 25.3067 660.902 25.488 660.39 25.488C659.622 25.488 659.089 25.1467 658.79 24.464C658.641 24.0587 658.534 21.6053 658.47 17.104C658.363 9.57333 658.086 5.06133 657.638 3.568C657.574 3.33333 657.542 3.10933 657.542 2.896C657.542 2.34133 657.766 1.89333 658.214 1.552ZM684.945 13.68C684.838 13.3387 684.742 13.1467 684.657 13.104C684.571 13.04 684.337 13.008 683.953 13.008C682.843 13.0293 681.809 13.552 680.849 14.576C679.889 15.5787 679.409 16.592 679.409 17.616C679.409 18.128 679.547 18.5547 679.825 18.896C680.443 19.5787 681.094 19.92 681.777 19.92C681.819 19.92 681.862 19.92 681.905 19.92C681.947 19.8987 681.99 19.888 682.033 19.888C682.417 19.8027 682.822 19.5467 683.249 19.12C683.697 18.6933 684.038 18.224 684.273 17.712C684.763 16.56 685.009 15.44 685.009 14.352C685.009 14.032 684.987 13.808 684.945 13.68ZM681.969 9.648C682.545 9.456 683.206 9.36 683.953 9.36C684.934 9.36 685.766 9.52 686.449 9.84C686.897 10.0747 687.302 10.4267 687.665 10.896C688.049 11.344 688.283 11.7707 688.369 12.176C688.454 12.5813 688.571 12.9653 688.721 13.328C688.955 13.9467 689.425 16.272 690.129 20.304C690.235 20.944 690.289 21.424 690.289 21.744C690.289 23.024 689.691 23.664 688.497 23.664C688.091 23.664 687.718 23.504 687.377 23.184C687.057 22.864 686.854 22.4693 686.769 22C686.683 21.5733 686.609 21.328 686.545 21.264C686.459 21.2 686.214 21.3707 685.809 21.776C684.593 22.992 683.195 23.6 681.617 23.6C681.339 23.6 681.051 23.568 680.753 23.504C679.579 23.248 678.481 22.608 677.457 21.584C676.305 20.432 675.729 19.1413 675.729 17.712C675.729 16.5813 676.081 15.3547 676.785 14.032C677.318 13.0293 678.043 12.1333 678.961 11.344C679.899 10.5547 680.902 9.98933 681.969 9.648ZM698.751 1.52C699.113 1.15733 699.551 0.975998 700.062 0.975998C700.447 0.975998 700.788 1.09333 701.087 1.328C701.407 1.54133 701.631 1.85067 701.759 2.256C701.823 2.49067 701.929 3.6 702.079 5.584C702.228 7.54667 702.303 8.912 702.303 9.68C702.303 9.872 702.345 9.98933 702.431 10.032C702.537 10.0747 702.783 10.096 703.167 10.096C703.743 10.096 704.073 10.032 704.159 9.904C704.201 9.79733 704.639 9.744 705.471 9.744C706.537 9.744 707.241 9.81867 707.583 9.968C707.903 10.1173 708.148 10.4053 708.319 10.832C708.468 11.1307 708.543 11.376 708.543 11.568C708.543 11.7173 708.511 11.8987 708.447 12.112C708.297 12.6027 708.02 12.9333 707.615 13.104C707.231 13.2533 706.463 13.36 705.311 13.424C704.009 13.488 703.167 13.5733 702.783 13.68L702.271 13.808L702.399 18.32C702.441 20.3253 702.463 21.4027 702.463 21.552C702.463 22.4907 702.388 23.12 702.239 23.44C701.919 24.1227 701.396 24.464 700.671 24.464C700.393 24.464 700.105 24.4 699.807 24.272C699.572 24.1653 699.401 24.0693 699.295 23.984C699.188 23.8773 699.092 23.6107 699.007 23.184C698.921 22.736 698.868 22.2133 698.847 21.616C698.825 21.0187 698.804 20.0373 698.783 18.672L698.719 14.032L697.759 14.064C697.183 14.1067 696.671 14.192 696.223 14.32C696.116 14.3627 695.945 14.384 695.711 14.384C694.985 14.384 694.463 14.16 694.143 13.712C693.972 13.4347 693.887 13.0613 693.887 12.592C693.887 12.1867 693.951 11.8667 694.079 11.632C694.377 11.0987 695.423 10.6933 697.215 10.416L698.687 10.192L698.559 7.376C698.473 5.37067 698.399 4.00533 698.335 3.28C698.292 2.768 698.271 2.49067 698.271 2.448C698.271 2.14933 698.431 1.84 698.751 1.52ZM10.648 49.808C10.264 49.616 9.72 49.52 9.016 49.52C8.248 49.52 7.59733 49.6373 7.064 49.872C6.70133 50.0213 6.232 50.352 5.656 50.864C5.08 51.3547 4.792 51.6747 4.792 51.824C4.792 51.888 5.12267 51.92 5.784 51.92C6.76533 51.92 7.93867 51.8667 9.304 51.76C10.6693 51.6533 11.448 51.536 11.64 51.408C11.704 51.3867 11.736 51.3227 11.736 51.216C11.736 51.024 11.6187 50.7787 11.384 50.48C11.1493 50.16 10.904 49.936 10.648 49.808ZM6.872 46.096C7.40533 45.9467 8.03467 45.872 8.76 45.872C10.104 45.872 11.3307 46.1387 12.44 46.672C13.272 47.0987 13.9653 47.7493 14.52 48.624C15.0747 49.4773 15.416 50.4373 15.544 51.504C15.544 51.5467 15.544 51.6107 15.544 51.696C15.5653 51.7813 15.576 51.8453 15.576 51.888C15.576 52.4427 15.4693 52.9867 15.256 53.52C15.064 54.0533 14.8293 54.416 14.552 54.608C14.1893 54.864 11.64 55.184 6.904 55.568C5.90133 55.6533 5.4 55.7493 5.4 55.856C5.4 55.984 5.624 56.1867 6.072 56.464C6.52 56.7413 6.95733 56.9333 7.384 57.04C7.768 57.1253 8.07733 57.168 8.312 57.168C8.99467 57.168 9.88 56.944 10.968 56.496C11.736 56.176 12.3013 56.016 12.664 56.016C13.0267 56.016 13.368 56.176 13.688 56.496C14.1147 56.9227 14.328 57.328 14.328 57.712C14.328 57.968 14.264 58.2347 14.136 58.512C14.0293 58.768 13.88 58.9707 13.688 59.12C13.5173 59.2693 13.1973 59.4507 12.728 59.664C11.1707 60.3467 9.72 60.688 8.376 60.688C7.608 60.688 6.81867 60.5707 6.008 60.336C4.92 59.9947 3.928 59.4187 3.032 58.608C2.136 57.776 1.496 56.8587 1.112 55.856C0.877333 55.1947 0.76 54.4587 0.76 53.648C0.76 52.4747 0.952 51.4933 1.336 50.704C1.784 49.7227 2.54133 48.784 3.608 47.888C4.67467 46.992 5.76267 46.3947 6.872 46.096ZM19.2005 45.808C19.3712 44.9333 19.9685 44.496 20.9925 44.496H21.0565C21.4618 44.496 21.7818 44.6133 22.0165 44.848C22.2512 45.0613 22.8698 45.8507 23.8725 47.216C24.8538 48.5173 25.3978 49.2 25.5045 49.264H25.5365C25.6858 49.264 25.9952 49.0613 26.4645 48.656C26.9338 48.2293 27.1685 47.9413 27.1685 47.792C27.1685 47.6853 27.4672 47.248 28.0645 46.48C28.6618 45.6907 29.0352 45.2533 29.1845 45.168C29.3125 45.0827 29.6432 45.04 30.1765 45.04C31.3285 45.04 31.9045 45.5947 31.9045 46.704C31.9045 47.088 31.7978 47.4613 31.5845 47.824C31.3712 48.1653 30.8805 48.816 30.1125 49.776C28.7472 51.4827 28.0645 52.3893 28.0645 52.496C28.0645 52.5813 28.5232 53.1253 29.4405 54.128C30.8058 55.6427 31.6698 56.656 32.0325 57.168C32.4165 57.68 32.6085 58.128 32.6085 58.512C32.6085 59.0027 32.4272 59.4187 32.0645 59.76C31.7232 60.1013 31.3178 60.272 30.8485 60.272C30.5712 60.272 30.3258 60.208 30.1125 60.08C29.8138 59.9307 29.0032 59.12 27.6805 57.648C26.3792 56.1547 25.6538 55.408 25.5045 55.408C25.3765 55.408 25.0352 55.7173 24.4805 56.336C23.9472 56.9333 23.3925 57.6267 22.8165 58.416C22.3898 59.0133 22.0272 59.4187 21.7285 59.632C21.4512 59.8453 21.1312 59.952 20.7685 59.952C20.3205 59.952 19.9152 59.76 19.5525 59.376C19.1898 58.9707 19.0085 58.544 19.0085 58.096C19.0085 57.9253 19.0405 57.7653 19.1045 57.616C19.4032 56.848 20.3205 55.5893 21.8565 53.84C22.6245 52.944 23.0085 52.4107 23.0085 52.24C23.0085 51.28 22.8058 50.416 22.4005 49.648C21.9952 48.88 21.5578 48.3147 21.0885 47.952C20.6192 47.568 20.1818 47.2267 19.7765 46.928C19.3712 46.608 19.1685 46.3733 19.1685 46.224C19.1685 46.032 19.1792 45.8933 19.2005 45.808ZM47.3328 49.232C46.7141 48.6133 45.7541 48.304 44.4528 48.304C43.8128 48.304 43.2474 48.4107 42.7568 48.624C42.2874 48.8373 41.7754 49.2533 41.2208 49.872C40.6661 50.4907 40.3034 51.056 40.1328 51.568C39.9408 52.1227 39.8448 52.6453 39.8448 53.136C39.8448 54.2667 40.2928 55.0667 41.1888 55.536C41.7221 55.8133 42.4154 55.952 43.2688 55.952C43.8448 55.952 44.2821 55.8773 44.5808 55.728C46.3088 54.8533 47.3648 53.2853 47.7488 51.024L47.9408 49.808L47.3328 49.232ZM42.4688 44.88C42.9808 44.7307 43.5781 44.656 44.2608 44.656C45.4128 44.656 46.5434 44.8587 47.6528 45.264C48.7621 45.6693 49.5301 46.1813 49.9568 46.8C50.2554 47.2267 50.6394 47.6747 51.1088 48.144C51.6208 48.6773 52.0901 49.5947 52.5168 50.896C52.9221 52.1333 53.2954 53.5093 53.6368 55.024C53.9994 56.5387 54.1808 57.5627 54.1808 58.096C54.1808 58.6293 54.0208 59.0453 53.7008 59.344C53.2954 59.728 52.9114 59.92 52.5487 59.92C52.3994 59.92 52.2074 59.888 51.9728 59.824C51.5674 59.6747 51.2474 59.4187 51.0128 59.056C50.7994 58.6933 50.6074 58.1067 50.4368 57.296C50.2234 56.336 50.1061 55.856 50.0848 55.856C49.9994 55.856 49.5514 56.2613 48.7408 57.072C47.1408 58.6293 45.4768 59.472 43.7488 59.6H43.3008C42.2554 59.6 41.2314 59.4187 40.2288 59.056C39.2474 58.6933 38.4688 58.2133 37.8928 57.616C37.5941 57.3173 37.2954 56.8693 36.9968 56.272C36.6981 55.6533 36.4954 55.088 36.3888 54.576C36.2821 54.0427 36.2288 53.5627 36.2288 53.136C36.2288 51.3653 36.8261 49.6693 38.0208 48.048C39.2368 46.4267 40.7194 45.3707 42.4688 44.88ZM61.824 45.392C62.1653 45.264 62.6987 45.2 63.424 45.2C63.808 45.2 64.1173 45.2107 64.352 45.232C65.2053 45.2533 65.792 45.3067 66.112 45.392C66.432 45.456 66.8587 45.616 67.392 45.872C68.9067 46.64 69.664 47.568 69.664 48.656C69.664 48.8907 69.5893 49.1787 69.44 49.52C69.12 50.1387 68.6293 50.448 67.968 50.448C67.3707 50.448 66.8267 50.1707 66.336 49.616C66.1013 49.36 65.888 49.1893 65.696 49.104C65.504 48.9973 65.1947 48.912 64.768 48.848C64.3413 48.8053 64.0533 48.784 63.904 48.784C63.1573 48.784 62.6133 49.0187 62.272 49.488C61.6747 50.3627 61.376 51.312 61.376 52.336C61.376 53.4453 61.7173 54.3947 62.4 55.184C63.0827 55.952 63.9787 56.336 65.088 56.336C65.5147 56.336 66.112 56.2293 66.88 56.016C67.648 55.7813 68.16 55.568 68.416 55.376C68.6293 55.2053 69.0027 55.12 69.536 55.12C70.048 55.12 70.464 55.28 70.784 55.6C71.1253 55.92 71.296 56.3253 71.296 56.816C71.296 57.264 71.1893 57.6267 70.976 57.904C70.7627 58.1813 70.3573 58.4693 69.76 58.768C68.224 59.536 66.688 59.92 65.152 59.92C62.6133 59.92 60.6827 59.0133 59.36 57.2C58.2933 55.7493 57.76 54.16 57.76 52.432C57.76 51.3653 57.9733 50.2453 58.4 49.072C58.72 48.24 59.1893 47.4827 59.808 46.8C60.448 46.1173 61.12 45.648 61.824 45.392ZM79.877 38.192C80.2183 37.9787 80.5383 37.872 80.837 37.872C81.0717 37.872 81.3383 37.936 81.637 38.064C82.085 38.2773 82.373 38.608 82.501 39.056C82.629 39.504 82.7143 40.5707 82.757 42.256L82.853 45.424L84.325 45.328C84.4957 45.3067 84.741 45.296 85.061 45.296C85.829 45.296 86.373 45.4347 86.693 45.712C87.0343 45.9893 87.205 46.4373 87.205 47.056C87.205 47.7173 86.981 48.1867 86.533 48.464C86.1063 48.7413 85.2743 48.9333 84.037 49.04L82.693 49.168L82.469 53.616C82.3197 56.624 82.181 58.288 82.053 58.608C81.7757 59.248 81.2423 59.568 80.453 59.568C80.005 59.568 79.653 59.4507 79.397 59.216C79.1197 59.0027 78.9277 58.768 78.821 58.512C78.7143 58.256 78.661 57.84 78.661 57.264C78.661 56.7947 78.693 56.0907 78.757 55.152C78.8637 53.4667 78.9383 52.0267 78.981 50.832L79.013 49.328L77.573 49.296C76.7623 49.2747 76.2077 49.2107 75.909 49.104C75.6103 48.976 75.3543 48.72 75.141 48.336C75.013 48.08 74.949 47.8133 74.949 47.536C74.949 47.024 75.1623 46.576 75.589 46.192C75.8237 45.9787 76.1223 45.84 76.485 45.776C76.8477 45.6907 77.5197 45.6053 78.501 45.52L79.013 45.456L79.141 42.064C79.1623 41.552 79.173 40.9973 79.173 40.4C79.1943 39.7813 79.205 39.3227 79.205 39.024L79.237 38.576L79.333 38.512C79.397 38.4693 79.4823 38.416 79.589 38.352C79.6957 38.288 79.7917 38.2347 79.877 38.192ZM92.2 38.864C92.4773 38.7573 92.7227 38.704 92.936 38.704C93.256 38.704 93.576 38.8 93.896 38.992C94.216 39.2053 94.4293 39.44 94.536 39.696C94.664 39.952 94.728 40.4427 94.728 41.168C94.728 42 94.6853 43.056 94.6 44.336C94.4507 46.96 94.3547 50.0533 94.312 53.616C94.312 57.0933 94.2373 58.9707 94.088 59.248C93.9813 59.4613 93.7573 59.6747 93.416 59.888C93.096 60.08 92.8187 60.176 92.584 60.176C92.328 60.176 92.04 60.0693 91.72 59.856C91.4 59.6427 91.176 59.408 91.048 59.152C90.792 58.64 90.664 56.9227 90.664 54C90.664 51.056 90.792 47.1733 91.048 42.352C91.112 41.0933 91.2187 40.24 91.368 39.792C91.5173 39.344 91.7947 39.0347 92.2 38.864ZM110.166 44.272C110.379 44.208 110.539 44.176 110.646 44.176C110.731 44.176 110.976 44.2613 111.382 44.432C111.808 44.6027 112.107 44.8907 112.278 45.296C112.363 45.4667 112.406 45.6587 112.406 45.872C112.406 46.192 112.15 47.1627 111.638 48.784C110.699 51.792 109.515 54.8107 108.086 57.84C107.424 59.2907 106.411 61.168 105.046 63.472C103.68 65.7973 102.848 67.0453 102.55 67.216C102.208 67.4293 101.856 67.536 101.494 67.536C101.003 67.536 100.576 67.3653 100.214 67.024C99.8722 66.704 99.7015 66.2773 99.7015 65.744C99.7015 65.36 100.043 64.6347 100.726 63.568C101.259 62.736 101.952 61.5627 102.806 60.048C103.659 58.512 104.086 57.6907 104.086 57.584C104.086 57.52 103.851 57.0933 103.382 56.304C103.168 55.9627 102.411 54.576 101.11 52.144C99.8295 49.6907 99.0508 48.272 98.7735 47.888C98.4322 47.3973 98.2615 46.9067 98.2615 46.416C98.2615 45.712 98.6028 45.2107 99.2855 44.912C99.5415 44.8053 99.7655 44.752 99.9575 44.752C100.406 44.752 100.843 45.008 101.27 45.52C101.696 46.0107 102.24 46.864 102.902 48.08C104.331 50.7253 105.302 52.4533 105.814 53.264C105.92 53.4133 105.984 53.488 106.006 53.488C106.091 53.488 106.304 53.0293 106.646 52.112C107.136 50.768 107.627 49.3387 108.118 47.824C108.544 46.4587 108.886 45.552 109.142 45.104C109.419 44.656 109.76 44.3787 110.166 44.272ZM127.399 40.272C127.74 39.952 128.06 39.792 128.359 39.792C128.529 39.792 128.679 39.8027 128.807 39.824C129.383 39.888 129.788 40.08 130.023 40.4L130.439 40.88L130.375 49.264C130.353 54.7893 130.257 57.7653 130.087 58.192C129.809 58.832 129.276 59.152 128.487 59.152C128.231 59.152 128.039 59.1307 127.911 59.088C127.591 58.9813 127.377 58.9067 127.271 58.864C127.185 58.8 127.079 58.608 126.951 58.288C126.844 57.9467 126.78 57.4773 126.759 56.88C126.737 56.2827 126.727 55.3653 126.727 54.128C126.727 53.7867 126.727 53.0933 126.727 52.048C126.748 51.0027 126.759 50.128 126.759 49.424L126.791 40.784L127.399 40.272ZM138.685 39.504C138.408 40.6347 138.013 41.872 137.501 43.216C136.989 44.56 136.466 45.8187 135.933 46.992H132.509C132.808 45.7333 133.106 44.3893 133.405 42.96C133.704 41.5307 133.928 40.2613 134.077 39.152H138.461L138.685 39.504ZM141.847 44.528C142.06 44.4213 142.316 44.368 142.615 44.368C143.703 44.368 144.385 45.2853 144.663 47.12C144.727 47.6747 144.801 47.952 144.887 47.952C144.908 47.952 145.207 47.7067 145.783 47.216C146.956 46.1707 148.151 45.648 149.367 45.648C150.028 45.648 150.657 45.8293 151.255 46.192C151.831 46.5547 152.204 46.8747 152.375 47.152L152.663 47.6L153.431 46.896C154.604 45.8507 155.863 45.328 157.207 45.328C158.508 45.328 159.628 45.8293 160.567 46.832C162.167 48.4747 163.116 51.28 163.415 55.248C163.457 55.9733 163.479 56.4213 163.479 56.592C163.479 57.1467 163.404 57.552 163.255 57.808C163.127 58.064 162.892 58.288 162.551 58.48C162.252 58.6293 161.964 58.704 161.687 58.704C161.217 58.704 160.801 58.4907 160.439 58.064C160.161 57.7013 159.98 57.0827 159.895 56.208C159.724 54.2453 159.511 52.784 159.255 51.824C158.999 50.864 158.636 50.1173 158.167 49.584C157.804 49.2 157.431 49.008 157.047 49.008C156.321 49.008 155.681 49.5733 155.127 50.704C154.913 51.152 154.775 51.568 154.711 51.952C154.647 52.336 154.593 53.2107 154.551 54.576C154.465 56.4533 154.359 57.5733 154.231 57.936C153.932 58.64 153.388 58.992 152.599 58.992C152.129 58.992 151.735 58.832 151.415 58.512C150.903 58 150.583 56.4853 150.455 53.968C150.391 53.008 150.273 52.08 150.103 51.184C149.932 50.288 149.772 49.7547 149.623 49.584C149.495 49.4347 149.356 49.36 149.207 49.36C148.951 49.36 148.524 49.6267 147.927 50.16C147.287 50.7573 146.807 51.3973 146.487 52.08C146.188 52.6987 146.007 53.2 145.943 53.584C145.9 53.9467 145.857 55.1947 145.815 57.328C145.793 57.8827 145.623 58.3307 145.303 58.672C144.983 59.0133 144.577 59.184 144.087 59.184C143.596 59.184 143.201 59.088 142.903 58.896C142.476 58.5973 142.177 58.0213 142.007 57.168C141.836 56.2933 141.644 54.2347 141.431 50.992C141.303 49.072 141.153 47.7707 140.983 47.088C140.855 46.576 140.791 46.2347 140.791 46.064C140.791 45.872 140.855 45.648 140.983 45.392C141.175 44.944 141.463 44.656 141.847 44.528ZM178.539 43.344C178.837 43.3013 179.008 43.2693 179.051 43.248C179.157 43.248 179.403 43.3227 179.786 43.472C180.085 43.6 180.352 43.856 180.587 44.24C180.821 44.624 180.939 44.9973 180.939 45.36C180.939 45.6373 180.992 45.8507 181.099 46C181.184 46.1067 181.259 46.1493 181.323 46.128C181.387 46.1067 181.536 46 181.771 45.808C182.731 44.9973 183.904 44.496 185.291 44.304C185.717 44.2613 186.016 44.24 186.187 44.24C187.275 44.24 188.203 44.6347 188.971 45.424L189.707 46.16L190.635 45.424C192.149 44.208 193.621 43.6 195.051 43.6C195.541 43.6 195.979 43.6747 196.363 43.824C196.789 43.9947 197.248 44.3253 197.739 44.816C198.251 45.2853 198.635 45.7867 198.891 46.32C199.659 47.8773 200.16 50.7787 200.395 55.024C200.437 56.0907 200.459 56.6773 200.459 56.784C200.459 57.3387 200.384 57.7547 200.235 58.032C199.915 58.6507 199.424 58.96 198.763 58.96C198.293 58.96 197.877 58.7893 197.515 58.448L196.939 57.968L196.779 54.992C196.544 50.5547 196.011 47.984 195.179 47.28C195.051 47.1947 194.944 47.152 194.859 47.152C194.688 47.152 194.379 47.2693 193.931 47.504C192.821 48.0373 192.032 48.944 191.562 50.224C191.307 50.8853 191.136 52.2613 191.051 54.352C190.944 56.464 190.837 57.6373 190.731 57.872C190.389 58.4693 189.845 58.768 189.099 58.768C188.693 58.768 188.331 58.64 188.011 58.384C187.541 58 187.307 57.0613 187.307 55.568C187.307 54.8853 187.317 54.32 187.339 53.872C187.339 53.7227 187.339 53.52 187.339 53.264C187.36 52.9867 187.371 52.784 187.371 52.656C187.371 50.5653 187.136 49.1147 186.667 48.304C186.475 47.9627 186.283 47.792 186.091 47.792C186.069 47.792 185.931 47.8133 185.675 47.856C184.309 48.112 183.157 49.2107 182.219 51.152C181.835 51.9627 181.643 52.816 181.643 53.712C181.643 54.48 181.707 55.4187 181.835 56.528C181.899 56.976 181.931 57.3493 181.931 57.648C181.931 58.4587 181.579 59.0347 180.875 59.376C180.576 59.5253 180.341 59.6 180.171 59.6C180.043 59.6 179.84 59.5467 179.562 59.44C179.029 59.248 178.677 58.8853 178.507 58.352C178.336 57.7973 178.197 56.6133 178.091 54.8C177.941 51.7067 177.685 48.5173 177.323 45.232C177.323 45.1893 177.312 45.1253 177.291 45.04C177.291 44.9547 177.291 44.9013 177.291 44.88C177.291 44.5813 177.419 44.272 177.674 43.952C177.995 43.5893 178.283 43.3867 178.539 43.344ZM205.644 44.912C205.729 44.8907 205.857 44.88 206.028 44.88C206.433 44.88 206.806 44.9867 207.148 45.2C207.489 45.392 207.724 45.6587 207.852 46C207.937 46.192 208.022 47.6533 208.108 50.384C208.214 53.0933 208.268 55.2267 208.268 56.784C208.268 57.4453 208.257 57.8293 208.236 57.936C208.129 58.7467 207.777 59.2907 207.18 59.568C206.881 59.696 206.646 59.76 206.476 59.76C206.348 59.76 206.156 59.728 205.9 59.664C205.409 59.5147 205.1 59.312 204.972 59.056C204.716 58.5653 204.566 56.6667 204.524 53.36C204.524 52.7627 204.513 51.728 204.492 50.256L204.46 45.872L204.844 45.424C205.1 45.1253 205.366 44.9547 205.644 44.912ZM204.876 38.896C205.132 38.768 205.377 38.704 205.612 38.704C206.081 38.704 206.497 38.896 206.86 39.28C207.222 39.6427 207.404 40.0693 207.404 40.56C207.404 40.9013 207.318 41.2 207.148 41.456C206.785 42.032 206.294 42.32 205.676 42.32C205.27 42.32 204.897 42.1813 204.556 41.904C204.214 41.6267 204.001 41.2427 203.916 40.752C203.916 40.7307 203.905 40.6987 203.884 40.656C203.884 40.592 203.884 40.5493 203.884 40.528C203.884 40.208 203.98 39.8987 204.172 39.6C204.364 39.28 204.598 39.0453 204.876 38.896ZM216.241 44.496C216.625 44.432 217.019 44.4 217.425 44.4C218.705 44.4 219.846 44.688 220.849 45.264C221.851 45.84 222.353 46.5013 222.353 47.248C222.353 47.44 222.321 47.6107 222.257 47.76C221.937 48.5707 221.457 48.976 220.817 48.976C220.347 48.976 219.814 48.8267 219.217 48.528C218.534 48.1867 217.905 48.016 217.329 48.016C216.71 48.016 216.198 48.2187 215.793 48.624C215.579 48.8373 215.473 49.008 215.473 49.136C215.473 49.3067 215.633 49.5093 215.953 49.744C216.294 49.9573 216.913 50.2987 217.809 50.768C219.281 51.536 220.273 52.1653 220.785 52.656C221.275 53.0827 221.702 53.616 222.065 54.256C222.427 54.8747 222.609 55.3973 222.609 55.824C222.609 56.3147 222.481 56.8053 222.225 57.296C221.969 57.7867 221.649 58.16 221.265 58.416C220.283 59.0773 219.089 59.408 217.681 59.408C216.358 59.408 214.993 59.0987 213.585 58.48C212.923 58.16 212.507 57.7973 212.337 57.392C212.209 57.0933 212.145 56.8267 212.145 56.592C212.145 56.1653 212.347 55.7493 212.753 55.344C213.03 55.024 213.403 54.864 213.873 54.864C214.321 54.864 214.865 55.0027 215.505 55.28C216.209 55.5787 217.019 55.728 217.937 55.728C218.363 55.728 218.577 55.6747 218.577 55.568C218.577 55.312 217.659 54.7253 215.825 53.808C214.395 53.0613 213.35 52.3253 212.689 51.6C212.027 50.8533 211.697 50.032 211.697 49.136C211.697 48.0693 212.134 47.088 213.009 46.192C213.905 45.2747 214.982 44.7093 216.241 44.496ZM230.616 44.496C231 44.432 231.394 44.4 231.8 44.4C233.08 44.4 234.221 44.688 235.224 45.264C236.226 45.84 236.728 46.5013 236.728 47.248C236.728 47.44 236.696 47.6107 236.632 47.76C236.312 48.5707 235.832 48.976 235.192 48.976C234.722 48.976 234.189 48.8267 233.592 48.528C232.909 48.1867 232.28 48.016 231.704 48.016C231.085 48.016 230.573 48.2187 230.168 48.624C229.954 48.8373 229.848 49.008 229.848 49.136C229.848 49.3067 230.008 49.5093 230.328 49.744C230.669 49.9573 231.288 50.2987 232.184 50.768C233.656 51.536 234.648 52.1653 235.16 52.656C235.65 53.0827 236.077 53.616 236.44 54.256C236.802 54.8747 236.984 55.3973 236.984 55.824C236.984 56.3147 236.856 56.8053 236.6 57.296C236.344 57.7867 236.024 58.16 235.64 58.416C234.658 59.0773 233.464 59.408 232.056 59.408C230.733 59.408 229.368 59.0987 227.96 58.48C227.298 58.16 226.882 57.7973 226.712 57.392C226.584 57.0933 226.52 56.8267 226.52 56.592C226.52 56.1653 226.722 55.7493 227.128 55.344C227.405 55.024 227.778 54.864 228.248 54.864C228.696 54.864 229.24 55.0027 229.88 55.28C230.584 55.5787 231.394 55.728 232.312 55.728C232.738 55.728 232.952 55.6747 232.952 55.568C232.952 55.312 232.034 54.7253 230.2 53.808C228.77 53.0613 227.725 52.3253 227.064 51.6C226.402 50.8533 226.072 50.032 226.072 49.136C226.072 48.0693 226.509 47.088 227.384 46.192C228.28 45.2747 229.357 44.7093 230.616 44.496ZM242.175 44.912C242.26 44.8907 242.388 44.88 242.559 44.88C242.964 44.88 243.337 44.9867 243.679 45.2C244.02 45.392 244.255 45.6587 244.383 46C244.468 46.192 244.553 47.6533 244.639 50.384C244.745 53.0933 244.799 55.2267 244.799 56.784C244.799 57.4453 244.788 57.8293 244.767 57.936C244.66 58.7467 244.308 59.2907 243.711 59.568C243.412 59.696 243.177 59.76 243.007 59.76C242.879 59.76 242.687 59.728 242.431 59.664C241.94 59.5147 241.631 59.312 241.503 59.056C241.247 58.5653 241.097 56.6667 241.055 53.36C241.055 52.7627 241.044 51.728 241.023 50.256L240.991 45.872L241.375 45.424C241.631 45.1253 241.897 44.9547 242.175 44.912ZM241.407 38.896C241.663 38.768 241.908 38.704 242.143 38.704C242.612 38.704 243.028 38.896 243.391 39.28C243.753 39.6427 243.935 40.0693 243.935 40.56C243.935 40.9013 243.849 41.2 243.679 41.456C243.316 42.032 242.825 42.32 242.207 42.32C241.801 42.32 241.428 42.1813 241.087 41.904C240.745 41.6267 240.532 41.2427 240.447 40.752C240.447 40.7307 240.436 40.6987 240.415 40.656C240.415 40.592 240.415 40.5493 240.415 40.528C240.415 40.208 240.511 39.8987 240.703 39.6C240.895 39.28 241.129 39.0453 241.407 38.896ZM249.092 45.072C249.348 44.944 249.615 44.88 249.892 44.88C250.276 44.88 250.639 45.008 250.98 45.264C251.321 45.4987 251.556 45.8187 251.684 46.224L251.876 46.896L252.676 46.416C253.209 46.096 253.945 45.936 254.884 45.936C255.801 45.936 256.559 46.0853 257.156 46.384C257.647 46.6187 258.169 47.0027 258.724 47.536C259.3 48.0693 259.759 48.6027 260.1 49.136C261.252 50.9493 261.881 53.7653 261.988 57.584V58.224C261.988 58.736 261.839 59.152 261.54 59.472C261.177 59.8347 260.751 60.016 260.26 60.016C259.471 60.016 258.948 59.6747 258.692 58.992C258.564 58.6293 258.457 57.9147 258.372 56.848C258.116 53.1147 257.284 50.7787 255.876 49.84C255.577 49.648 255.279 49.552 254.98 49.552C254.425 49.552 253.924 49.8613 253.476 50.48C253.049 51.0773 252.708 51.9307 252.452 53.04C252.345 53.5307 252.217 54.416 252.068 55.696C251.919 56.976 251.844 57.84 251.844 58.288C251.844 58.5013 251.663 58.7893 251.3 59.152C250.937 59.4933 250.521 59.664 250.052 59.664C249.177 59.664 248.601 59.2053 248.324 58.288C248.196 57.84 248.132 55.8987 248.132 52.464C248.132 48.368 248.207 46.1387 248.356 45.776C248.484 45.4987 248.729 45.264 249.092 45.072ZM275.045 48.08C274.747 47.8667 274.491 47.7387 274.277 47.696C274.064 47.632 273.659 47.6 273.061 47.6C271.483 47.6427 270.427 48.048 269.893 48.816C269.68 49.1147 269.488 49.584 269.317 50.224C269.147 50.8427 269.061 51.3653 269.061 51.792C269.061 51.8347 269.061 51.8987 269.061 51.984C269.083 52.048 269.093 52.0907 269.093 52.112C269.221 52.752 269.573 53.3173 270.149 53.808C270.747 54.2987 271.44 54.5973 272.229 54.704C272.336 54.7253 272.496 54.736 272.709 54.736C273.52 54.736 274.32 54.3093 275.109 53.456C275.899 52.6027 276.293 51.7067 276.293 50.768C276.293 50.4693 276.283 50.2453 276.261 50.096C276.197 49.5413 276.101 49.1573 275.973 48.944C275.845 48.7307 275.536 48.4427 275.045 48.08ZM271.013 44.144C271.483 44.0373 272.165 43.984 273.061 43.984H273.573C274.363 44.0053 274.885 44.0587 275.141 44.144C275.419 44.208 275.856 44.4107 276.453 44.752C277.243 45.2427 277.893 45.6053 278.405 45.84C278.896 46.0747 279.216 46.32 279.365 46.576C279.579 46.896 279.792 48.3893 280.005 51.056C280.24 53.7013 280.357 56.0373 280.357 58.064C280.357 59.728 280.176 61.1147 279.813 62.224C279.472 63.3547 278.896 64.3787 278.085 65.296C276.741 66.832 275.067 67.6 273.061 67.6C271.803 67.6 270.341 67.312 268.677 66.736C267.952 66.5013 267.472 66.2987 267.237 66.128C267.003 65.9573 266.8 65.6907 266.629 65.328C266.544 65.136 266.501 64.912 266.501 64.656C266.501 64.1653 266.672 63.7493 267.013 63.408C267.269 63.1093 267.643 62.96 268.133 62.96C268.581 62.96 269.232 63.1093 270.085 63.408C270.853 63.6853 271.664 63.8667 272.517 63.952C272.581 63.952 272.656 63.952 272.741 63.952C272.848 63.9733 272.923 63.984 272.965 63.984C274.16 63.984 275.099 63.4507 275.781 62.384C276.144 61.872 276.389 61.392 276.517 60.944C276.667 60.4747 276.773 59.8027 276.837 58.928C276.88 58.3307 276.901 57.968 276.901 57.84C276.901 57.4347 276.805 57.232 276.613 57.232C276.443 57.232 276.144 57.3493 275.717 57.584C274.736 58.0747 273.723 58.32 272.677 58.32C270.885 58.32 269.275 57.7227 267.845 56.528C266.416 55.3333 265.659 53.8613 265.573 52.112C265.573 52.048 265.563 51.952 265.541 51.824C265.541 51.696 265.541 51.6 265.541 51.536C265.541 49.68 266.021 48.1013 266.981 46.8C267.963 45.4773 269.307 44.592 271.013 44.144ZM305.664 49.68C305.557 49.3387 305.461 49.1467 305.376 49.104C305.29 49.04 305.056 49.008 304.672 49.008C303.562 49.0293 302.528 49.552 301.568 50.576C300.608 51.5787 300.128 52.592 300.128 53.616C300.128 54.128 300.266 54.5547 300.544 54.896C301.162 55.5787 301.813 55.92 302.496 55.92C302.538 55.92 302.581 55.92 302.624 55.92C302.666 55.8987 302.709 55.888 302.752 55.888C303.136 55.8027 303.541 55.5467 303.968 55.12C304.416 54.6933 304.757 54.224 304.992 53.712C305.482 52.56 305.728 51.44 305.728 50.352C305.728 50.032 305.706 49.808 305.664 49.68ZM302.688 45.648C303.264 45.456 303.925 45.36 304.672 45.36C305.653 45.36 306.485 45.52 307.168 45.84C307.616 46.0747 308.021 46.4267 308.384 46.896C308.768 47.344 309.002 47.7707 309.088 48.176C309.173 48.5813 309.29 48.9653 309.44 49.328C309.674 49.9467 310.144 52.272 310.847 56.304C310.954 56.944 311.008 57.424 311.008 57.744C311.008 59.024 310.41 59.664 309.216 59.664C308.81 59.664 308.437 59.504 308.096 59.184C307.776 58.864 307.573 58.4693 307.488 58C307.402 57.5733 307.328 57.328 307.264 57.264C307.178 57.2 306.933 57.3707 306.528 57.776C305.312 58.992 303.914 59.6 302.336 59.6C302.058 59.6 301.77 59.568 301.472 59.504C300.298 59.248 299.2 58.608 298.176 57.584C297.024 56.432 296.448 55.1413 296.448 53.712C296.448 52.5813 296.8 51.3547 297.504 50.032C298.037 49.0293 298.762 48.1333 299.68 47.344C300.618 46.5547 301.621 45.9893 302.688 45.648ZM319.469 37.52C319.832 37.1573 320.269 36.976 320.781 36.976C321.165 36.976 321.507 37.0933 321.805 37.328C322.125 37.5413 322.349 37.8507 322.477 38.256C322.541 38.4907 322.648 39.6 322.797 41.584C322.947 43.5467 323.021 44.912 323.021 45.68C323.021 45.872 323.064 45.9893 323.149 46.032C323.256 46.0747 323.501 46.096 323.885 46.096C324.461 46.096 324.792 46.032 324.877 45.904C324.92 45.7973 325.357 45.744 326.189 45.744C327.256 45.744 327.96 45.8187 328.301 45.968C328.621 46.1173 328.867 46.4053 329.037 46.832C329.187 47.1307 329.261 47.376 329.261 47.568C329.261 47.7173 329.229 47.8987 329.165 48.112C329.016 48.6027 328.739 48.9333 328.333 49.104C327.949 49.2533 327.181 49.36 326.029 49.424C324.728 49.488 323.885 49.5733 323.501 49.68L322.989 49.808L323.117 54.32C323.16 56.3253 323.181 57.4027 323.181 57.552C323.181 58.4907 323.107 59.12 322.957 59.44C322.637 60.1227 322.115 60.464 321.389 60.464C321.112 60.464 320.824 60.4 320.525 60.272C320.291 60.1653 320.12 60.0693 320.013 59.984C319.907 59.8773 319.811 59.6107 319.725 59.184C319.64 58.736 319.587 58.2133 319.565 57.616C319.544 57.0187 319.523 56.0373 319.501 54.672L319.437 50.032L318.477 50.064C317.901 50.1067 317.389 50.192 316.941 50.32C316.835 50.3627 316.664 50.384 316.429 50.384C315.704 50.384 315.181 50.16 314.861 49.712C314.691 49.4347 314.605 49.0613 314.605 48.592C314.605 48.1867 314.669 47.8667 314.797 47.632C315.096 47.0987 316.141 46.6933 317.933 46.416L319.405 46.192L319.277 43.376C319.192 41.3707 319.117 40.0053 319.053 39.28C319.011 38.768 318.989 38.4907 318.989 38.448C318.989 38.1493 319.149 37.84 319.469 37.52ZM347.563 37.52C347.926 37.1573 348.363 36.976 348.875 36.976C349.259 36.976 349.6 37.0933 349.899 37.328C350.219 37.5413 350.443 37.8507 350.571 38.256C350.635 38.4907 350.742 39.6 350.891 41.584C351.04 43.5467 351.115 44.912 351.115 45.68C351.115 45.872 351.158 45.9893 351.243 46.032C351.35 46.0747 351.595 46.096 351.979 46.096C352.555 46.096 352.886 46.032 352.971 45.904C353.014 45.7973 353.451 45.744 354.283 45.744C355.35 45.744 356.054 45.8187 356.395 45.968C356.715 46.1173 356.96 46.4053 357.131 46.832C357.28 47.1307 357.355 47.376 357.355 47.568C357.355 47.7173 357.323 47.8987 357.259 48.112C357.11 48.6027 356.832 48.9333 356.427 49.104C356.043 49.2533 355.275 49.36 354.123 49.424C352.822 49.488 351.979 49.5733 351.595 49.68L351.083 49.808L351.211 54.32C351.254 56.3253 351.275 57.4027 351.275 57.552C351.275 58.4907 351.2 59.12 351.051 59.44C350.731 60.1227 350.208 60.464 349.483 60.464C349.206 60.464 348.918 60.4 348.619 60.272C348.384 60.1653 348.214 60.0693 348.107 59.984C348 59.8773 347.904 59.6107 347.819 59.184C347.734 58.736 347.68 58.2133 347.659 57.616C347.638 57.0187 347.616 56.0373 347.595 54.672L347.531 50.032L346.571 50.064C345.995 50.1067 345.483 50.192 345.035 50.32C344.928 50.3627 344.758 50.384 344.523 50.384C343.798 50.384 343.275 50.16 342.955 49.712C342.784 49.4347 342.699 49.0613 342.699 48.592C342.699 48.1867 342.763 47.8667 342.891 47.632C343.19 47.0987 344.235 46.6933 346.027 46.416L347.499 46.192L347.371 43.376C347.286 41.3707 347.211 40.0053 347.147 39.28C347.104 38.768 347.083 38.4907 347.083 38.448C347.083 38.1493 347.243 37.84 347.563 37.52ZM361.652 37.552C362.014 37.2533 362.388 37.104 362.772 37.104C363.54 37.104 364.105 37.5733 364.468 38.512C364.617 38.9387 364.777 39.9627 364.948 41.584C365.118 43.184 365.257 44.6773 365.364 46.064C365.47 47.4293 365.534 48.112 365.556 48.112C365.598 48.112 365.95 47.8773 366.612 47.408C367.913 46.4907 369.15 46.032 370.324 46.032C371.412 46.032 372.361 46.4373 373.172 47.248C374.004 48.0373 374.654 49.2 375.124 50.736C375.486 51.9307 375.668 53.7867 375.668 56.304C375.668 57.8827 375.572 58.9493 375.38 59.504C375.166 60.08 374.676 60.368 373.908 60.368C373.396 60.368 372.969 60.1973 372.628 59.856L372.148 59.376L372.052 56.144C371.924 51.984 371.348 49.84 370.324 49.712H370.228C369.737 49.712 369.129 49.9893 368.404 50.544C367.678 51.0773 367.156 51.664 366.836 52.304C366.644 52.7307 366.388 53.04 366.068 53.232L365.652 53.52L365.588 57.008C365.545 58.7147 365.502 59.7493 365.46 60.112C365.438 60.4533 365.321 60.7307 365.108 60.944C364.766 61.3067 364.34 61.488 363.828 61.488C363.06 61.488 362.526 61.1467 362.228 60.464C362.078 60.0587 361.972 57.6053 361.908 53.104C361.801 45.5733 361.524 41.0613 361.076 39.568C361.012 39.3333 360.98 39.1093 360.98 38.896C360.98 38.3413 361.204 37.8933 361.652 37.552ZM380.862 44.912C380.948 44.8907 381.076 44.88 381.246 44.88C381.652 44.88 382.025 44.9867 382.366 45.2C382.708 45.392 382.942 45.6587 383.07 46C383.156 46.192 383.241 47.6533 383.326 50.384C383.433 53.0933 383.486 55.2267 383.486 56.784C383.486 57.4453 383.476 57.8293 383.454 57.936C383.348 58.7467 382.996 59.2907 382.398 59.568C382.1 59.696 381.865 59.76 381.694 59.76C381.566 59.76 381.374 59.728 381.118 59.664C380.628 59.5147 380.318 59.312 380.19 59.056C379.934 58.5653 379.785 56.6667 379.742 53.36C379.742 52.7627 379.732 51.728 379.71 50.256L379.678 45.872L380.062 45.424C380.318 45.1253 380.585 44.9547 380.862 44.912ZM380.094 38.896C380.35 38.768 380.596 38.704 380.83 38.704C381.3 38.704 381.716 38.896 382.078 39.28C382.441 39.6427 382.622 40.0693 382.622 40.56C382.622 40.9013 382.537 41.2 382.366 41.456C382.004 42.032 381.513 42.32 380.894 42.32C380.489 42.32 380.116 42.1813 379.774 41.904C379.433 41.6267 379.22 41.2427 379.134 40.752C379.134 40.7307 379.124 40.6987 379.102 40.656C379.102 40.592 379.102 40.5493 379.102 40.528C379.102 40.208 379.198 39.8987 379.39 39.6C379.582 39.28 379.817 39.0453 380.094 38.896ZM391.46 44.496C391.844 44.432 392.238 44.4 392.644 44.4C393.924 44.4 395.065 44.688 396.068 45.264C397.07 45.84 397.572 46.5013 397.572 47.248C397.572 47.44 397.54 47.6107 397.476 47.76C397.156 48.5707 396.676 48.976 396.036 48.976C395.566 48.976 395.033 48.8267 394.436 48.528C393.753 48.1867 393.124 48.016 392.548 48.016C391.929 48.016 391.417 48.2187 391.012 48.624C390.798 48.8373 390.692 49.008 390.692 49.136C390.692 49.3067 390.852 49.5093 391.172 49.744C391.513 49.9573 392.132 50.2987 393.028 50.768C394.5 51.536 395.492 52.1653 396.004 52.656C396.494 53.0827 396.921 53.616 397.284 54.256C397.646 54.8747 397.828 55.3973 397.828 55.824C397.828 56.3147 397.7 56.8053 397.444 57.296C397.188 57.7867 396.868 58.16 396.484 58.416C395.502 59.0773 394.308 59.408 392.9 59.408C391.577 59.408 390.212 59.0987 388.804 58.48C388.142 58.16 387.726 57.7973 387.556 57.392C387.428 57.0933 387.364 56.8267 387.364 56.592C387.364 56.1653 387.566 55.7493 387.972 55.344C388.249 55.024 388.622 54.864 389.092 54.864C389.54 54.864 390.084 55.0027 390.724 55.28C391.428 55.5787 392.238 55.728 393.156 55.728C393.582 55.728 393.796 55.6747 393.796 55.568C393.796 55.312 392.878 54.7253 391.044 53.808C389.614 53.0613 388.569 52.3253 387.908 51.6C387.246 50.8533 386.916 50.032 386.916 49.136C386.916 48.0693 387.353 47.088 388.228 46.192C389.124 45.2747 390.201 44.7093 391.46 44.496ZM421.362 52.304C421.362 51.6213 420.957 50.928 420.146 50.224C419.336 49.52 418.482 49.168 417.586 49.168C417.032 49.1893 416.637 49.264 416.402 49.392C416.168 49.52 415.944 49.808 415.73 50.256C415.538 50.704 415.442 51.1627 415.442 51.632C415.442 51.76 415.464 52.2933 415.506 53.232L415.634 55.472L416.21 55.568C416.274 55.5893 416.37 55.6 416.498 55.6C417.074 55.6 417.768 55.408 418.578 55.024C419.41 54.6187 420.114 54.1387 420.69 53.584C421.138 53.136 421.362 52.7093 421.362 52.304ZM412.882 45.456C412.904 45.456 412.936 45.456 412.978 45.456C413.021 45.4347 413.064 45.424 413.106 45.424C413.725 45.424 414.184 45.5733 414.482 45.872C414.589 45.936 414.706 45.968 414.834 45.968C415.005 45.968 415.293 45.904 415.698 45.776C416.274 45.6053 416.84 45.52 417.394 45.52C418.418 45.52 419.442 45.7547 420.466 46.224C421.512 46.672 422.397 47.2907 423.122 48.08C424.381 49.4667 425.01 50.896 425.01 52.368C425.01 54.0747 424.2 55.5253 422.578 56.72C421.618 57.4453 420.573 58.0427 419.442 58.512C418.312 58.9813 417.384 59.216 416.658 59.216C416.466 59.216 416.328 59.2053 416.242 59.184L415.73 59.088C415.773 59.856 415.816 61.0187 415.858 62.576C415.901 64.1333 415.944 65.3067 415.986 66.096L415.346 66.736C414.92 67.1627 414.504 67.376 414.098 67.376C413.714 67.376 413.341 67.1947 412.978 66.832C412.658 66.512 412.456 66.2027 412.37 65.904C412.328 65.648 412.232 63.2693 412.082 58.768C411.976 54.288 411.858 51.4933 411.73 50.384C411.624 49.3813 411.57 48.4427 411.57 47.568C411.57 47.056 411.592 46.7253 411.634 46.576C411.698 46.4053 411.837 46.2133 412.05 46C412.37 45.68 412.648 45.4987 412.882 45.456ZM437.182 47.6C436.606 47.4933 436.126 47.44 435.742 47.44C434.867 47.44 434.131 47.6213 433.534 47.984C433.235 48.176 432.883 48.8267 432.478 49.936C432.094 51.024 431.902 51.8987 431.902 52.56C431.902 53.6267 432.243 54.4907 432.926 55.152C433.63 55.792 434.547 56.1227 435.678 56.144C436.595 56.144 437.449 55.888 438.238 55.376C439.049 54.864 439.635 54.192 439.998 53.36C440.233 52.8267 440.35 52.2187 440.35 51.536C440.35 50.704 440.19 49.9787 439.87 49.36C439.635 48.8693 439.315 48.496 438.91 48.24C438.505 47.984 437.929 47.7707 437.182 47.6ZM433.566 44.176C434.313 43.984 435.049 43.888 435.774 43.888C437.139 43.888 438.601 44.2293 440.158 44.912C441.267 45.4027 442.142 46.2667 442.782 47.504C443.443 48.7413 443.785 50.2027 443.806 51.888V52.08C443.806 54.6187 442.675 56.6773 440.414 58.256C439.006 59.2587 437.438 59.76 435.71 59.76C434.281 59.76 432.958 59.408 431.742 58.704C430.526 57.9787 429.609 56.9653 428.99 55.664C428.777 55.216 428.638 54.832 428.574 54.512C428.531 54.192 428.51 53.52 428.51 52.496C428.531 50.9813 428.691 49.7867 428.99 48.912C429.694 46.9707 430.526 45.6587 431.486 44.976C431.87 44.6987 432.563 44.432 433.566 44.176ZM449.019 44.912C449.104 44.8907 449.232 44.88 449.403 44.88C449.808 44.88 450.181 44.9867 450.523 45.2C450.864 45.392 451.099 45.6587 451.227 46C451.312 46.192 451.397 47.6533 451.483 50.384C451.589 53.0933 451.643 55.2267 451.643 56.784C451.643 57.4453 451.632 57.8293 451.611 57.936C451.504 58.7467 451.152 59.2907 450.555 59.568C450.256 59.696 450.021 59.76 449.851 59.76C449.723 59.76 449.531 59.728 449.275 59.664C448.784 59.5147 448.475 59.312 448.347 59.056C448.091 58.5653 447.941 56.6667 447.899 53.36C447.899 52.7627 447.888 51.728 447.867 50.256L447.835 45.872L448.219 45.424C448.475 45.1253 448.741 44.9547 449.019 44.912ZM448.251 38.896C448.507 38.768 448.752 38.704 448.987 38.704C449.456 38.704 449.872 38.896 450.235 39.28C450.597 39.6427 450.779 40.0693 450.779 40.56C450.779 40.9013 450.693 41.2 450.523 41.456C450.16 42.032 449.669 42.32 449.051 42.32C448.645 42.32 448.272 42.1813 447.931 41.904C447.589 41.6267 447.376 41.2427 447.291 40.752C447.291 40.7307 447.28 40.6987 447.259 40.656C447.259 40.592 447.259 40.5493 447.259 40.528C447.259 40.208 447.355 39.8987 447.547 39.6C447.739 39.28 447.973 39.0453 448.251 38.896ZM455.936 45.072C456.192 44.944 456.458 44.88 456.736 44.88C457.12 44.88 457.482 45.008 457.824 45.264C458.165 45.4987 458.4 45.8187 458.528 46.224L458.72 46.896L459.52 46.416C460.053 46.096 460.789 45.936 461.728 45.936C462.645 45.936 463.402 46.0853 464 46.384C464.49 46.6187 465.013 47.0027 465.568 47.536C466.144 48.0693 466.602 48.6027 466.944 49.136C468.096 50.9493 468.725 53.7653 468.832 57.584V58.224C468.832 58.736 468.682 59.152 468.384 59.472C468.021 59.8347 467.594 60.016 467.104 60.016C466.314 60.016 465.792 59.6747 465.536 58.992C465.408 58.6293 465.301 57.9147 465.216 56.848C464.96 53.1147 464.128 50.7787 462.72 49.84C462.421 49.648 462.122 49.552 461.824 49.552C461.269 49.552 460.768 49.8613 460.32 50.48C459.893 51.0773 459.552 51.9307 459.296 53.04C459.189 53.5307 459.061 54.416 458.912 55.696C458.762 56.976 458.688 57.84 458.688 58.288C458.688 58.5013 458.506 58.7893 458.144 59.152C457.781 59.4933 457.365 59.664 456.896 59.664C456.021 59.664 455.445 59.2053 455.168 58.288C455.04 57.84 454.976 55.8987 454.976 52.464C454.976 48.368 455.05 46.1387 455.2 45.776C455.328 45.4987 455.573 45.264 455.936 45.072ZM477.313 37.52C477.676 37.1573 478.113 36.976 478.625 36.976C479.009 36.976 479.35 37.0933 479.649 37.328C479.969 37.5413 480.193 37.8507 480.321 38.256C480.385 38.4907 480.492 39.6 480.641 41.584C480.79 43.5467 480.865 44.912 480.865 45.68C480.865 45.872 480.908 45.9893 480.993 46.032C481.1 46.0747 481.345 46.096 481.729 46.096C482.305 46.096 482.636 46.032 482.721 45.904C482.764 45.7973 483.201 45.744 484.033 45.744C485.1 45.744 485.804 45.8187 486.145 45.968C486.465 46.1173 486.71 46.4053 486.881 46.832C487.03 47.1307 487.105 47.376 487.105 47.568C487.105 47.7173 487.073 47.8987 487.009 48.112C486.86 48.6027 486.582 48.9333 486.177 49.104C485.793 49.2533 485.025 49.36 483.873 49.424C482.572 49.488 481.729 49.5733 481.345 49.68L480.833 49.808L480.961 54.32C481.004 56.3253 481.025 57.4027 481.025 57.552C481.025 58.4907 480.95 59.12 480.801 59.44C480.481 60.1227 479.958 60.464 479.233 60.464C478.956 60.464 478.668 60.4 478.369 60.272C478.134 60.1653 477.964 60.0693 477.857 59.984C477.75 59.8773 477.654 59.6107 477.569 59.184C477.484 58.736 477.43 58.2133 477.409 57.616C477.388 57.0187 477.366 56.0373 477.345 54.672L477.281 50.032L476.321 50.064C475.745 50.1067 475.233 50.192 474.785 50.32C474.678 50.3627 474.508 50.384 474.273 50.384C473.548 50.384 473.025 50.16 472.705 49.712C472.534 49.4347 472.449 49.0613 472.449 48.592C472.449 48.1867 472.513 47.8667 472.641 47.632C472.94 47.0987 473.985 46.6933 475.777 46.416L477.249 46.192L477.121 43.376C477.036 41.3707 476.961 40.0053 476.897 39.28C476.854 38.768 476.833 38.4907 476.833 38.448C476.833 38.1493 476.993 37.84 477.313 37.52ZM491.818 56.56C492.202 56.4107 492.426 56.336 492.49 56.336L493.098 56.56C493.866 56.88 494.25 57.456 494.25 58.288C494.25 58.736 494.058 59.1627 493.674 59.568C493.311 59.9733 492.927 60.176 492.522 60.176C492.138 60.176 491.775 60.048 491.434 59.792C491.114 59.5147 490.89 59.1733 490.762 58.768C490.698 58.576 490.666 58.3947 490.666 58.224C490.666 57.84 490.772 57.4987 490.986 57.2C491.199 56.88 491.476 56.6667 491.818 56.56Z" fill="#27263C"/>
</svg>
