<svg width="709" height="68" viewBox="0 0 709 68" fill="none" xmlns="http://www.w3.org/2000/svg">
<path d="M1.24 3.568C1.60267 3.22667 2.04 3.056 2.552 3.056C3.27733 3.056 3.78933 3.35467 4.088 3.952C4.344 4.4 4.472 8.176 4.472 15.28V17.808L4.44 23.152L3.896 23.632C3.53333 23.9733 3.08533 24.144 2.552 24.144C2.06133 24.144 1.66667 23.984 1.368 23.664C1.15467 23.4293 1.00533 23.2053 0.92 22.992C0.92 22.4373 0.888 19.568 0.824 14.384C0.76 9.17867 0.717333 6.352 0.696 5.904L0.664 4.08L1.24 3.568ZM12.8443 1.52C13.2069 1.15733 13.6443 0.975998 14.1562 0.975998C14.5403 0.975998 14.8816 1.09333 15.1803 1.328C15.5003 1.54133 15.7243 1.85067 15.8523 2.256C15.9163 2.49067 16.0229 3.6 16.1723 5.584C16.3216 7.54667 16.3963 8.912 16.3963 9.68C16.3963 9.872 16.4389 9.98933 16.5243 10.032C16.6309 10.0747 16.8763 10.096 17.2603 10.096C17.8363 10.096 18.1669 10.032 18.2523 9.904C18.2949 9.79733 18.7323 9.744 19.5643 9.744C20.6309 9.744 21.3349 9.81867 21.6763 9.968C21.9963 10.1173 22.2416 10.4053 22.4123 10.832C22.5616 11.1307 22.6363 11.376 22.6363 11.568C22.6363 11.7173 22.6043 11.8987 22.5403 12.112C22.3909 12.6027 22.1136 12.9333 21.7083 13.104C21.3243 13.2533 20.5563 13.36 19.4043 13.424C18.1029 13.488 17.2603 13.5733 16.8763 13.68L16.3643 13.808L16.4923 18.32C16.5349 20.3253 16.5563 21.4027 16.5563 21.552C16.5563 22.4907 16.4816 23.12 16.3323 23.44C16.0123 24.1227 15.4896 24.464 14.7643 24.464C14.4869 24.464 14.1989 24.4 13.9003 24.272C13.6656 24.1653 13.4949 24.0693 13.3883 23.984C13.2816 23.8773 13.1856 23.6107 13.1003 23.184C13.0149 22.736 12.9616 22.2133 12.9403 21.616C12.9189 21.0187 12.8976 20.0373 12.8763 18.672L12.8123 14.032L11.8523 14.064C11.2763 14.1067 10.7643 14.192 10.3163 14.32C10.2096 14.3627 10.0389 14.384 9.80425 14.384C9.07892 14.384 8.55625 14.16 8.23625 13.712C8.06558 13.4347 7.98025 13.0613 7.98025 12.592C7.98025 12.1867 8.04425 11.8667 8.17225 11.632C8.47092 11.0987 9.51625 10.6933 11.3083 10.416L12.7803 10.192L12.6523 7.376C12.5669 5.37067 12.4923 4.00533 12.4283 3.28C12.3856 2.768 12.3643 2.49067 12.3643 2.448C12.3643 2.14933 12.5243 1.84 12.8443 1.52ZM26.9968 2.384C27.2954 2.10667 27.6794 1.968 28.1488 1.968C28.6608 1.968 29.0768 2.13867 29.3968 2.48C29.6314 2.71467 29.7701 2.98133 29.8128 3.28C29.8768 3.57867 29.9194 4.368 29.9408 5.648C29.9621 6.07467 29.9728 6.58667 29.9728 7.184C29.9728 8.05867 29.8981 8.64533 29.7488 8.944C29.4501 9.62667 28.9488 9.968 28.2448 9.968C28.1594 9.968 28.0101 9.94667 27.7968 9.904C27.2421 9.75467 26.8474 9.37067 26.6128 8.752C26.3781 8.112 26.2501 7.056 26.2288 5.584V5.296C26.2288 3.80267 26.4848 2.832 26.9968 2.384ZM36.9668 8.208C37.3508 8.10133 37.9481 8.048 38.7588 8.048C40.4654 8.048 41.7028 8.176 42.4708 8.432C43.5374 8.77333 44.0708 9.36 44.0708 10.192C44.0708 10.6827 43.8361 11.1307 43.3668 11.536C43.0468 11.8347 42.7374 11.984 42.4388 11.984C42.4174 11.984 42.3748 11.984 42.3108 11.984C42.2468 11.9627 42.1934 11.952 42.1508 11.952C40.7428 11.7173 39.6334 11.6 38.8228 11.6C38.5668 11.6 38.3321 11.6213 38.1188 11.664C37.4574 11.8347 37.1268 12.144 37.1268 12.592C37.1268 12.6773 37.1374 12.7413 37.1588 12.784C37.3081 13.2107 38.1508 13.744 39.6868 14.384C42.4388 15.536 44.1348 16.9653 44.7748 18.672C44.9668 19.184 45.0628 19.664 45.0628 20.112C45.0628 20.9013 44.7748 21.5733 44.1988 22.128C43.6441 22.6827 42.8548 23.056 41.8308 23.248C41.4041 23.3333 40.7001 23.376 39.7188 23.376C37.9268 23.376 36.7854 23.2693 36.2948 23.056C36.0174 22.928 35.7828 22.7147 35.5908 22.416C35.3988 22.096 35.3028 21.7867 35.3028 21.488C35.3028 21.168 35.4094 20.848 35.6228 20.528C35.8361 20.1867 36.0921 19.952 36.3908 19.824C36.6681 19.7173 36.9988 19.664 37.3828 19.664C37.5321 19.664 37.8628 19.6853 38.3748 19.728C38.7161 19.7707 39.1748 19.792 39.7508 19.792C40.6468 19.792 41.0948 19.6853 41.0948 19.472C41.0948 19.088 40.1668 18.512 38.3108 17.744C36.6468 17.0187 35.4201 16.2613 34.6308 15.472C33.8628 14.6613 33.4788 13.744 33.4788 12.72C33.4788 12.5493 33.5001 12.2933 33.5428 11.952C33.7134 10.9067 34.1401 10.0747 34.8228 9.456C35.3774 8.90133 36.0921 8.48533 36.9668 8.208ZM72.0455 15.152C71.6402 14.64 71.0642 14.2133 70.3175 13.872C69.5708 13.5307 68.7068 13.36 67.7255 13.36C67.1282 13.36 66.6695 13.4347 66.3495 13.584C66.0082 13.7333 65.6775 14.0747 65.3575 14.608C65.0588 15.12 64.9095 15.7493 64.9095 16.496V17.04C64.9735 18.5547 65.0162 19.4507 65.0375 19.728L65.1655 20.752L65.9335 20.88C66.2322 20.9227 66.4775 20.944 66.6695 20.944C67.9282 20.944 69.0695 20.6987 70.0935 20.208C70.6055 19.9733 71.0962 19.5893 71.5655 19.056C72.0562 18.5013 72.3868 17.9573 72.5575 17.424C72.6428 17.1253 72.6855 16.8907 72.6855 16.72C72.6855 16.1653 72.4722 15.6427 72.0455 15.152ZM61.9655 2.416C62.1788 2.30933 62.4348 2.256 62.7335 2.256C63.2455 2.256 63.6935 2.448 64.0775 2.832C64.3122 3.06667 64.4508 3.35467 64.4935 3.696C64.5575 4.016 64.6428 5.02933 64.7495 6.736C64.8562 8.976 64.9308 10.1173 64.9735 10.16H65.0055C65.1122 10.16 65.4855 10.0853 66.1255 9.936C66.8722 9.76533 67.5228 9.68 68.0775 9.68C69.1442 9.68 70.4455 10.032 71.9815 10.736C73.7308 11.5467 74.9575 12.6773 75.6615 14.128C75.8748 14.576 76.0028 14.9493 76.0455 15.248C76.1095 15.5467 76.1415 16.048 76.1415 16.752C76.1415 17.456 76.1095 17.9573 76.0455 18.256C75.9815 18.5333 75.8108 18.96 75.5335 19.536C74.9148 20.7307 74.0615 21.744 72.9735 22.576C71.8855 23.408 70.6802 23.9627 69.3575 24.24C68.5895 24.4107 67.7895 24.496 66.9575 24.496C66.1682 24.496 65.2402 24.4213 64.1735 24.272C63.3628 24.144 62.8295 24.0373 62.5735 23.952C62.3175 23.8667 62.0828 23.7067 61.8695 23.472L61.3895 22.96V17.968C61.3895 14.96 61.3255 11.7067 61.1975 8.208C61.1335 6.56533 61.1015 5.38133 61.1015 4.656C61.1015 3.80267 61.1548 3.25867 61.2615 3.024C61.3682 2.78933 61.6028 2.58667 61.9655 2.416ZM88.4343 12.944C88.0503 12.6667 87.4423 12.528 86.6103 12.528C86.0983 12.528 85.6929 12.592 85.3943 12.72C85.1169 12.848 84.7969 13.1147 84.4343 13.52C84.0929 13.904 83.9223 14.1813 83.9223 14.352C83.9223 14.5013 84.0823 14.576 84.4023 14.576C84.8289 14.5547 85.7143 14.4587 87.0583 14.288C88.4023 14.1173 89.0956 14.0107 89.1383 13.968C89.1596 13.9467 89.1703 13.9147 89.1703 13.872C89.1703 13.6373 88.9249 13.328 88.4343 12.944ZM84.9783 9.04C85.3623 8.93333 85.8316 8.88 86.3863 8.88C87.5169 8.88 88.4876 9.04 89.2983 9.36C89.9596 9.59467 90.6103 10.0533 91.2503 10.736C91.9116 11.3973 92.4556 12.144 92.8823 12.976C93.3089 13.8293 93.5223 14.4053 93.5223 14.704C93.5223 15.3867 93.2236 16.0267 92.6263 16.624C91.9863 17.2 89.9916 17.6267 86.6423 17.904C85.3623 18.0107 84.5303 18.096 84.1463 18.16C83.7623 18.224 83.5703 18.32 83.5703 18.448C83.5703 18.5547 83.7623 18.7787 84.1463 19.12C84.8076 19.76 85.9916 20.144 87.6983 20.272C87.8689 20.2933 88.0929 20.304 88.3703 20.304C88.8183 20.304 89.3516 20.1973 89.9703 19.984C90.8449 19.664 91.5383 19.504 92.0503 19.504C92.8183 19.504 93.3196 19.888 93.5543 20.656C93.6183 20.848 93.6503 21.0293 93.6503 21.2C93.6503 21.9253 93.1916 22.5227 92.2743 22.992C91.3783 23.44 90.1089 23.696 88.4663 23.76C88.3809 23.76 88.2636 23.7707 88.1143 23.792C87.9649 23.792 87.8583 23.792 87.7943 23.792C85.9809 23.792 84.4129 23.44 83.0903 22.736C81.7889 22.0107 80.8076 20.9867 80.1463 19.664C79.8263 19.024 79.6663 18.1707 79.6663 17.104C79.6663 16.0373 79.7729 15.1947 79.9863 14.576C80.5196 12.976 81.1809 11.7493 81.9703 10.896C82.7596 10.0213 83.7623 9.40267 84.9783 9.04ZM107.023 13.808C106.639 13.616 106.095 13.52 105.391 13.52C104.623 13.52 103.972 13.6373 103.439 13.872C103.076 14.0213 102.607 14.352 102.031 14.864C101.455 15.3547 101.167 15.6747 101.167 15.824C101.167 15.888 101.498 15.92 102.159 15.92C103.14 15.92 104.314 15.8667 105.679 15.76C107.044 15.6533 107.823 15.536 108.015 15.408C108.079 15.3867 108.111 15.3227 108.111 15.216C108.111 15.024 107.994 14.7787 107.759 14.48C107.524 14.16 107.279 13.936 107.023 13.808ZM103.247 10.096C103.78 9.94667 104.41 9.872 105.135 9.872C106.479 9.872 107.706 10.1387 108.815 10.672C109.647 11.0987 110.34 11.7493 110.895 12.624C111.45 13.4773 111.791 14.4373 111.919 15.504C111.919 15.5467 111.919 15.6107 111.919 15.696C111.94 15.7813 111.951 15.8453 111.951 15.888C111.951 16.4427 111.844 16.9867 111.631 17.52C111.439 18.0533 111.204 18.416 110.927 18.608C110.564 18.864 108.015 19.184 103.279 19.568C102.276 19.6533 101.775 19.7493 101.775 19.856C101.775 19.984 101.999 20.1867 102.447 20.464C102.895 20.7413 103.332 20.9333 103.759 21.04C104.143 21.1253 104.452 21.168 104.687 21.168C105.37 21.168 106.255 20.944 107.343 20.496C108.111 20.176 108.676 20.016 109.039 20.016C109.402 20.016 109.743 20.176 110.063 20.496C110.49 20.9227 110.703 21.328 110.703 21.712C110.703 21.968 110.639 22.2347 110.511 22.512C110.404 22.768 110.255 22.9707 110.063 23.12C109.892 23.2693 109.572 23.4507 109.103 23.664C107.546 24.3467 106.095 24.688 104.751 24.688C103.983 24.688 103.194 24.5707 102.383 24.336C101.295 23.9947 100.303 23.4187 99.407 22.608C98.511 21.776 97.871 20.8587 97.487 19.856C97.2523 19.1947 97.135 18.4587 97.135 17.648C97.135 16.4747 97.327 15.4933 97.711 14.704C98.159 13.7227 98.9163 12.784 99.983 11.888C101.05 10.992 102.138 10.3947 103.247 10.096ZM116.28 9.072C116.536 8.944 116.802 8.88 117.08 8.88C117.464 8.88 117.826 9.008 118.168 9.264C118.509 9.49867 118.744 9.81867 118.872 10.224L119.064 10.896L119.864 10.416C120.397 10.096 121.133 9.936 122.072 9.936C122.989 9.936 123.746 10.0853 124.344 10.384C124.834 10.6187 125.357 11.0027 125.912 11.536C126.488 12.0693 126.946 12.6027 127.288 13.136C128.44 14.9493 129.069 17.7653 129.176 21.584V22.224C129.176 22.736 129.026 23.152 128.728 23.472C128.365 23.8347 127.938 24.016 127.448 24.016C126.658 24.016 126.136 23.6747 125.88 22.992C125.752 22.6293 125.645 21.9147 125.56 20.848C125.304 17.1147 124.472 14.7787 123.064 13.84C122.765 13.648 122.466 13.552 122.168 13.552C121.613 13.552 121.112 13.8613 120.664 14.48C120.237 15.0773 119.896 15.9307 119.64 17.04C119.533 17.5307 119.405 18.416 119.256 19.696C119.106 20.976 119.032 21.84 119.032 22.288C119.032 22.5013 118.85 22.7893 118.488 23.152C118.125 23.4933 117.709 23.664 117.24 23.664C116.365 23.664 115.789 23.2053 115.512 22.288C115.384 21.84 115.32 19.8987 115.32 16.464C115.32 12.368 115.394 10.1387 115.544 9.776C115.672 9.49867 115.917 9.264 116.28 9.072ZM145.998 8.208C146.382 8.10133 146.979 8.048 147.79 8.048C149.497 8.048 150.734 8.176 151.502 8.432C152.569 8.77333 153.102 9.36 153.102 10.192C153.102 10.6827 152.867 11.1307 152.398 11.536C152.078 11.8347 151.769 11.984 151.47 11.984C151.449 11.984 151.406 11.984 151.342 11.984C151.278 11.9627 151.225 11.952 151.182 11.952C149.774 11.7173 148.665 11.6 147.854 11.6C147.598 11.6 147.363 11.6213 147.15 11.664C146.489 11.8347 146.158 12.144 146.158 12.592C146.158 12.6773 146.169 12.7413 146.19 12.784C146.339 13.2107 147.182 13.744 148.718 14.384C151.47 15.536 153.166 16.9653 153.806 18.672C153.998 19.184 154.094 19.664 154.094 20.112C154.094 20.9013 153.806 21.5733 153.23 22.128C152.675 22.6827 151.886 23.056 150.862 23.248C150.435 23.3333 149.731 23.376 148.75 23.376C146.958 23.376 145.817 23.2693 145.326 23.056C145.049 22.928 144.814 22.7147 144.622 22.416C144.43 22.096 144.334 21.7867 144.334 21.488C144.334 21.168 144.441 20.848 144.654 20.528C144.867 20.1867 145.123 19.952 145.422 19.824C145.699 19.7173 146.03 19.664 146.414 19.664C146.563 19.664 146.894 19.6853 147.406 19.728C147.747 19.7707 148.206 19.792 148.782 19.792C149.678 19.792 150.126 19.6853 150.126 19.472C150.126 19.088 149.198 18.512 147.342 17.744C145.678 17.0187 144.451 16.2613 143.662 15.472C142.894 14.6613 142.51 13.744 142.51 12.72C142.51 12.5493 142.531 12.2933 142.574 11.952C142.745 10.9067 143.171 10.0747 143.854 9.456C144.409 8.90133 145.123 8.48533 145.998 8.208ZM166.563 12.816C166.158 12.7093 165.496 12.6133 164.579 12.528C163.982 12.4853 163.662 12.464 163.619 12.464C163.32 12.464 163.022 12.624 162.723 12.944C161.87 13.8187 161.411 15.0027 161.347 16.496C161.347 16.5813 161.336 16.6987 161.315 16.848C161.315 16.976 161.315 17.072 161.315 17.136C161.315 17.6267 161.443 18.0853 161.699 18.512C162.382 19.728 163.587 20.336 165.315 20.336C166.04 20.3147 166.776 20.0693 167.523 19.6C168.291 19.1093 168.846 18.5227 169.187 17.84C169.379 17.4347 169.475 16.9973 169.475 16.528C169.475 15.7387 169.198 14.992 168.643 14.288C168.11 13.5627 167.416 13.072 166.563 12.816ZM161.699 9.232C162.19 8.95467 162.68 8.816 163.171 8.816C163.278 8.816 163.672 8.83733 164.355 8.88C166.382 8.98667 168.014 9.41333 169.251 10.16C170.488 10.9067 171.48 12.0587 172.227 13.616C172.803 14.8107 173.091 15.952 173.091 17.04C173.091 17.3813 173.059 17.68 172.995 17.936C172.654 19.2587 171.907 20.464 170.755 21.552C169.603 22.64 168.334 23.3653 166.947 23.728C166.222 23.8987 165.646 23.984 165.219 23.984C164.792 23.984 164.216 23.8987 163.491 23.728C161.294 23.152 159.715 22.1067 158.755 20.592C158.008 19.4187 157.635 18.1813 157.635 16.88C157.635 15.5787 157.987 14.192 158.691 12.72C159.502 10.992 160.504 9.82933 161.699 9.232ZM190.617 1.424C190.958 1.08267 191.363 0.911999 191.833 0.911999C192.281 0.911999 192.675 1.08267 193.016 1.424C193.358 1.76533 193.571 2.32 193.657 3.088C193.678 3.30133 193.689 4.58133 193.689 6.928C193.689 17.8933 193.614 23.6 193.465 24.048C193.379 24.304 193.187 24.5067 192.889 24.656C192.59 24.8053 192.259 24.88 191.897 24.88C191.47 24.88 191.129 24.7947 190.873 24.624C190.489 24.368 190.243 23.9947 190.137 23.504C190.051 22.992 190.009 21.6267 190.009 19.408C190.009 16.8267 190.019 14.5333 190.041 12.528L190.137 1.904L190.617 1.424ZM205.807 11.6C205.231 11.4933 204.751 11.44 204.367 11.44C203.492 11.44 202.756 11.6213 202.159 11.984C201.86 12.176 201.508 12.8267 201.103 13.936C200.719 15.024 200.527 15.8987 200.527 16.56C200.527 17.6267 200.868 18.4907 201.551 19.152C202.255 19.792 203.172 20.1227 204.303 20.144C205.22 20.144 206.074 19.888 206.863 19.376C207.674 18.864 208.26 18.192 208.623 17.36C208.858 16.8267 208.975 16.2187 208.975 15.536C208.975 14.704 208.815 13.9787 208.495 13.36C208.26 12.8693 207.94 12.496 207.535 12.24C207.13 11.984 206.554 11.7707 205.807 11.6ZM202.191 8.176C202.938 7.984 203.674 7.888 204.399 7.888C205.764 7.888 207.226 8.22933 208.783 8.912C209.892 9.40267 210.767 10.2667 211.407 11.504C212.068 12.7413 212.41 14.2027 212.431 15.888V16.08C212.431 18.6187 211.3 20.6773 209.039 22.256C207.631 23.2587 206.063 23.76 204.335 23.76C202.906 23.76 201.583 23.408 200.367 22.704C199.151 21.9787 198.234 20.9653 197.615 19.664C197.402 19.216 197.263 18.832 197.199 18.512C197.156 18.192 197.135 17.52 197.135 16.496C197.156 14.9813 197.316 13.7867 197.615 12.912C198.319 10.9707 199.151 9.65867 200.111 8.976C200.495 8.69867 201.188 8.432 202.191 8.176ZM216.364 8.112C216.705 7.74933 217.142 7.568 217.676 7.568C218.038 7.568 218.358 7.664 218.636 7.856C218.87 8.02667 219.073 8.304 219.244 8.688C219.436 9.072 219.532 9.424 219.532 9.744C219.532 10.0853 219.617 10.256 219.788 10.256C219.98 10.256 220.289 10.1173 220.716 9.84C221.142 9.584 221.708 9.34933 222.411 9.136C223.116 8.92267 223.681 8.816 224.108 8.816C224.534 8.816 225.057 8.95467 225.676 9.232C226.316 9.50933 226.817 9.81867 227.18 10.16C227.948 10.9067 228.492 11.952 228.812 13.296C229.153 14.64 229.324 16.5067 229.324 18.896C229.324 20.5813 229.27 21.6907 229.164 22.224C229.057 22.736 228.812 23.0987 228.428 23.312C228.172 23.44 227.862 23.504 227.5 23.504C227.116 23.504 226.796 23.44 226.54 23.312C226.177 23.12 225.942 22.768 225.836 22.256C225.75 21.7227 225.686 20.4427 225.644 18.416C225.601 16.3893 225.516 15.056 225.388 14.416C225.26 13.7547 224.993 13.2213 224.588 12.816C224.374 12.6027 224.108 12.496 223.788 12.496C223.254 12.496 222.678 12.7627 222.06 13.296C221.462 13.808 220.972 14.4693 220.588 15.28C220.396 15.6853 220.278 16.0693 220.236 16.432C220.193 16.7947 220.15 17.6267 220.108 18.928C220.065 20.72 219.98 21.7867 219.852 22.128C219.553 22.9173 218.977 23.312 218.124 23.312C217.42 23.312 216.886 23.0027 216.524 22.384C216.417 22.1493 216.31 20.1547 216.204 16.4C216.076 12.368 215.99 10.1387 215.948 9.712C215.905 9.28533 215.884 9.05067 215.884 9.008C215.884 8.73067 216.044 8.432 216.364 8.112ZM242.327 12.08C242.028 11.8667 241.772 11.7387 241.559 11.696C241.345 11.632 240.94 11.6 240.343 11.6C238.764 11.6427 237.708 12.048 237.175 12.816C236.961 13.1147 236.769 13.584 236.599 14.224C236.428 14.8427 236.343 15.3653 236.343 15.792C236.343 15.8347 236.343 15.8987 236.343 15.984C236.364 16.048 236.375 16.0907 236.375 16.112C236.503 16.752 236.855 17.3173 237.431 17.808C238.028 18.2987 238.721 18.5973 239.51 18.704C239.617 18.7253 239.777 18.736 239.991 18.736C240.801 18.736 241.601 18.3093 242.391 17.456C243.18 16.6027 243.575 15.7067 243.575 14.768C243.575 14.4693 243.564 14.2453 243.543 14.096C243.479 13.5413 243.383 13.1573 243.255 12.944C243.127 12.7307 242.817 12.4427 242.327 12.08ZM238.295 8.144C238.764 8.03733 239.447 7.984 240.343 7.984H240.855C241.644 8.00533 242.167 8.05867 242.423 8.144C242.7 8.208 243.137 8.41067 243.735 8.752C244.524 9.24267 245.175 9.60533 245.687 9.84C246.177 10.0747 246.497 10.32 246.647 10.576C246.86 10.896 247.073 12.3893 247.287 15.056C247.521 17.7013 247.639 20.0373 247.639 22.064C247.639 23.728 247.457 25.1147 247.095 26.224C246.753 27.3547 246.177 28.3787 245.367 29.296C244.023 30.832 242.348 31.6 240.343 31.6C239.084 31.6 237.623 31.312 235.959 30.736C235.233 30.5013 234.753 30.2987 234.519 30.128C234.284 29.9573 234.081 29.6907 233.911 29.328C233.825 29.136 233.783 28.912 233.783 28.656C233.783 28.1653 233.953 27.7493 234.295 27.408C234.551 27.1093 234.924 26.96 235.415 26.96C235.863 26.96 236.513 27.1093 237.367 27.408C238.135 27.6853 238.945 27.8667 239.799 27.952C239.863 27.952 239.937 27.952 240.023 27.952C240.129 27.9733 240.204 27.984 240.247 27.984C241.441 27.984 242.38 27.4507 243.063 26.384C243.425 25.872 243.671 25.392 243.799 24.944C243.948 24.4747 244.055 23.8027 244.119 22.928C244.161 22.3307 244.183 21.968 244.183 21.84C244.183 21.4347 244.087 21.232 243.895 21.232C243.724 21.232 243.425 21.3493 242.999 21.584C242.017 22.0747 241.004 22.32 239.959 22.32C238.167 22.32 236.556 21.7227 235.127 20.528C233.697 19.3333 232.94 17.8613 232.855 16.112C232.855 16.048 232.844 15.952 232.823 15.824C232.823 15.696 232.823 15.6 232.823 15.536C232.823 13.68 233.303 12.1013 234.263 10.8C235.244 9.47733 236.588 8.592 238.295 8.144ZM253.503 19.344C253.652 19.1947 253.983 19.12 254.495 19.12C254.922 19.12 255.295 19.248 255.615 19.504C255.935 19.76 256.138 20.0907 256.223 20.496C256.244 20.56 256.255 20.6773 256.255 20.848C256.255 21.4453 256.095 22.3093 255.775 23.44C255.455 24.5493 255.071 25.5947 254.623 26.576C254.303 27.28 253.748 27.632 252.959 27.632C252.106 27.632 251.53 27.216 251.231 26.384C251.188 26.2773 251.167 26.128 251.167 25.936C251.167 25.6587 251.338 25.0827 251.679 24.208C252.148 22.9067 252.436 21.9467 252.543 21.328C252.671 20.7307 252.799 20.304 252.927 20.048C253.055 19.792 253.247 19.5573 253.503 19.344ZM274.532 1.52C274.894 1.15733 275.332 0.975998 275.844 0.975998C276.228 0.975998 276.569 1.09333 276.868 1.328C277.188 1.54133 277.412 1.85067 277.54 2.256C277.604 2.49067 277.71 3.6 277.86 5.584C278.009 7.54667 278.084 8.912 278.084 9.68C278.084 9.872 278.126 9.98933 278.212 10.032C278.318 10.0747 278.564 10.096 278.948 10.096C279.524 10.096 279.854 10.032 279.94 9.904C279.982 9.79733 280.42 9.744 281.252 9.744C282.318 9.744 283.022 9.81867 283.364 9.968C283.684 10.1173 283.929 10.4053 284.1 10.832C284.249 11.1307 284.324 11.376 284.324 11.568C284.324 11.7173 284.292 11.8987 284.228 12.112C284.078 12.6027 283.801 12.9333 283.396 13.104C283.012 13.2533 282.244 13.36 281.092 13.424C279.79 13.488 278.948 13.5733 278.564 13.68L278.052 13.808L278.18 18.32C278.222 20.3253 278.244 21.4027 278.244 21.552C278.244 22.4907 278.169 23.12 278.02 23.44C277.7 24.1227 277.177 24.464 276.452 24.464C276.174 24.464 275.886 24.4 275.588 24.272C275.353 24.1653 275.182 24.0693 275.076 23.984C274.969 23.8773 274.873 23.6107 274.788 23.184C274.702 22.736 274.649 22.2133 274.628 21.616C274.606 21.0187 274.585 20.0373 274.564 18.672L274.5 14.032L273.54 14.064C272.964 14.1067 272.452 14.192 272.004 14.32C271.897 14.3627 271.726 14.384 271.492 14.384C270.766 14.384 270.244 14.16 269.924 13.712C269.753 13.4347 269.668 13.0613 269.668 12.592C269.668 12.1867 269.732 11.8667 269.86 11.632C270.158 11.0987 271.204 10.6933 272.996 10.416L274.468 10.192L274.34 7.376C274.254 5.37067 274.18 4.00533 274.116 3.28C274.073 2.768 274.052 2.49067 274.052 2.448C274.052 2.14933 274.212 1.84 274.532 1.52ZM288.62 1.552C288.983 1.25333 289.356 1.104 289.74 1.104C290.508 1.104 291.074 1.57333 291.436 2.512C291.586 2.93867 291.746 3.96267 291.916 5.584C292.087 7.184 292.226 8.67733 292.332 10.064C292.439 11.4293 292.503 12.112 292.524 12.112C292.567 12.112 292.919 11.8773 293.58 11.408C294.882 10.4907 296.119 10.032 297.292 10.032C298.38 10.032 299.33 10.4373 300.14 11.248C300.972 12.0373 301.623 13.2 302.092 14.736C302.455 15.9307 302.636 17.7867 302.636 20.304C302.636 21.8827 302.54 22.9493 302.348 23.504C302.135 24.08 301.644 24.368 300.876 24.368C300.364 24.368 299.938 24.1973 299.596 23.856L299.116 23.376L299.02 20.144C298.892 15.984 298.316 13.84 297.292 13.712H297.196C296.706 13.712 296.098 13.9893 295.372 14.544C294.647 15.0773 294.124 15.664 293.804 16.304C293.612 16.7307 293.356 17.04 293.036 17.232L292.62 17.52L292.556 21.008C292.514 22.7147 292.471 23.7493 292.428 24.112C292.407 24.4533 292.29 24.7307 292.076 24.944C291.735 25.3067 291.308 25.488 290.796 25.488C290.028 25.488 289.495 25.1467 289.196 24.464C289.047 24.0587 288.94 21.6053 288.876 17.104C288.77 9.57333 288.492 5.06133 288.044 3.568C287.98 3.33333 287.948 3.10933 287.948 2.896C287.948 2.34133 288.172 1.89333 288.62 1.552ZM315.351 13.68C315.244 13.3387 315.148 13.1467 315.063 13.104C314.978 13.04 314.743 13.008 314.359 13.008C313.25 13.0293 312.215 13.552 311.255 14.576C310.295 15.5787 309.815 16.592 309.815 17.616C309.815 18.128 309.954 18.5547 310.231 18.896C310.85 19.5787 311.5 19.92 312.183 19.92C312.226 19.92 312.268 19.92 312.311 19.92C312.354 19.8987 312.396 19.888 312.439 19.888C312.823 19.8027 313.228 19.5467 313.655 19.12C314.103 18.6933 314.444 18.224 314.679 17.712C315.17 16.56 315.415 15.44 315.415 14.352C315.415 14.032 315.394 13.808 315.351 13.68ZM312.375 9.648C312.951 9.456 313.612 9.36 314.359 9.36C315.34 9.36 316.172 9.52 316.855 9.84C317.303 10.0747 317.708 10.4267 318.071 10.896C318.455 11.344 318.69 11.7707 318.775 12.176C318.86 12.5813 318.978 12.9653 319.127 13.328C319.362 13.9467 319.831 16.272 320.535 20.304C320.642 20.944 320.695 21.424 320.695 21.744C320.695 23.024 320.098 23.664 318.903 23.664C318.498 23.664 318.124 23.504 317.783 23.184C317.463 22.864 317.26 22.4693 317.175 22C317.09 21.5733 317.015 21.328 316.951 21.264C316.866 21.2 316.62 21.3707 316.215 21.776C314.999 22.992 313.602 23.6 312.023 23.6C311.746 23.6 311.458 23.568 311.159 23.504C309.986 23.248 308.887 22.608 307.863 21.584C306.711 20.432 306.135 19.1413 306.135 17.712C306.135 16.5813 306.487 15.3547 307.191 14.032C307.724 13.0293 308.45 12.1333 309.367 11.344C310.306 10.5547 311.308 9.98933 312.375 9.648ZM329.157 1.52C329.519 1.15733 329.957 0.975998 330.469 0.975998C330.853 0.975998 331.194 1.09333 331.493 1.328C331.813 1.54133 332.037 1.85067 332.165 2.256C332.229 2.49067 332.335 3.6 332.485 5.584C332.634 7.54667 332.709 8.912 332.709 9.68C332.709 9.872 332.751 9.98933 332.837 10.032C332.943 10.0747 333.189 10.096 333.573 10.096C334.149 10.096 334.479 10.032 334.565 9.904C334.607 9.79733 335.045 9.744 335.877 9.744C336.943 9.744 337.647 9.81867 337.989 9.968C338.309 10.1173 338.554 10.4053 338.725 10.832C338.874 11.1307 338.949 11.376 338.949 11.568C338.949 11.7173 338.917 11.8987 338.853 12.112C338.703 12.6027 338.426 12.9333 338.021 13.104C337.637 13.2533 336.869 13.36 335.717 13.424C334.415 13.488 333.573 13.5733 333.189 13.68L332.677 13.808L332.805 18.32C332.847 20.3253 332.869 21.4027 332.869 21.552C332.869 22.4907 332.794 23.12 332.645 23.44C332.325 24.1227 331.802 24.464 331.077 24.464C330.799 24.464 330.511 24.4 330.213 24.272C329.978 24.1653 329.807 24.0693 329.701 23.984C329.594 23.8773 329.498 23.6107 329.413 23.184C329.327 22.736 329.274 22.2133 329.253 21.616C329.231 21.0187 329.21 20.0373 329.189 18.672L329.125 14.032L328.165 14.064C327.589 14.1067 327.077 14.192 326.629 14.32C326.522 14.3627 326.351 14.384 326.117 14.384C325.391 14.384 324.869 14.16 324.549 13.712C324.378 13.4347 324.293 13.0613 324.293 12.592C324.293 12.1867 324.357 11.8667 324.485 11.632C324.783 11.0987 325.829 10.6933 327.621 10.416L329.093 10.192L328.965 7.376C328.879 5.37067 328.805 4.00533 328.741 3.28C328.698 2.768 328.677 2.49067 328.677 2.448C328.677 2.14933 328.837 1.84 329.157 1.52ZM353.992 4.272C354.334 3.952 354.654 3.792 354.952 3.792C355.123 3.792 355.272 3.80267 355.4 3.824C355.976 3.888 356.382 4.08 356.616 4.4L357.032 4.88L356.968 13.264C356.947 18.7893 356.851 21.7653 356.68 22.192C356.403 22.832 355.87 23.152 355.08 23.152C354.824 23.152 354.632 23.1307 354.504 23.088C354.184 22.9813 353.971 22.9067 353.864 22.864C353.779 22.8 353.672 22.608 353.544 22.288C353.438 21.9467 353.374 21.4773 353.352 20.88C353.331 20.2827 353.32 19.3653 353.32 18.128C353.32 17.7867 353.32 17.0933 353.32 16.048C353.342 15.0027 353.352 14.128 353.352 13.424L353.384 4.784L353.992 4.272ZM365.279 3.504C365.001 4.63467 364.607 5.872 364.095 7.216C363.583 8.56 363.06 9.81867 362.527 10.992H359.103C359.401 9.73333 359.7 8.38933 359.999 6.96C360.297 5.53067 360.521 4.26133 360.671 3.152H365.055L365.279 3.504ZM368.44 8.528C368.654 8.42133 368.91 8.368 369.208 8.368C370.296 8.368 370.979 9.28533 371.256 11.12C371.32 11.6747 371.395 11.952 371.48 11.952C371.502 11.952 371.8 11.7067 372.376 11.216C373.55 10.1707 374.744 9.648 375.96 9.648C376.622 9.648 377.251 9.82933 377.848 10.192C378.424 10.5547 378.798 10.8747 378.968 11.152L379.256 11.6L380.024 10.896C381.198 9.85067 382.456 9.328 383.8 9.328C385.102 9.328 386.222 9.82933 387.16 10.832C388.76 12.4747 389.71 15.28 390.008 19.248C390.051 19.9733 390.072 20.4213 390.072 20.592C390.072 21.1467 389.998 21.552 389.848 21.808C389.72 22.064 389.486 22.288 389.144 22.48C388.846 22.6293 388.558 22.704 388.28 22.704C387.811 22.704 387.395 22.4907 387.032 22.064C386.755 21.7013 386.574 21.0827 386.488 20.208C386.318 18.2453 386.104 16.784 385.848 15.824C385.592 14.864 385.23 14.1173 384.76 13.584C384.398 13.2 384.024 13.008 383.64 13.008C382.915 13.008 382.275 13.5733 381.72 14.704C381.507 15.152 381.368 15.568 381.304 15.952C381.24 16.336 381.187 17.2107 381.144 18.576C381.059 20.4533 380.952 21.5733 380.824 21.936C380.526 22.64 379.982 22.992 379.192 22.992C378.723 22.992 378.328 22.832 378.008 22.512C377.496 22 377.176 20.4853 377.048 17.968C376.984 17.008 376.867 16.08 376.696 15.184C376.526 14.288 376.366 13.7547 376.216 13.584C376.088 13.4347 375.95 13.36 375.8 13.36C375.544 13.36 375.118 13.6267 374.52 14.16C373.88 14.7573 373.4 15.3973 373.08 16.08C372.782 16.6987 372.6 17.2 372.536 17.584C372.494 17.9467 372.451 19.1947 372.408 21.328C372.387 21.8827 372.216 22.3307 371.896 22.672C371.576 23.0133 371.171 23.184 370.68 23.184C370.19 23.184 369.795 23.088 369.496 22.896C369.07 22.5973 368.771 22.0213 368.6 21.168C368.43 20.2933 368.238 18.2347 368.024 14.992C367.896 13.072 367.747 11.7707 367.576 11.088C367.448 10.576 367.384 10.2347 367.384 10.064C367.384 9.872 367.448 9.648 367.576 9.392C367.768 8.944 368.056 8.656 368.44 8.528ZM404.332 8.112C404.674 7.74933 405.111 7.568 405.644 7.568C406.007 7.568 406.327 7.664 406.604 7.856C406.839 8.02667 407.042 8.304 407.212 8.688C407.404 9.072 407.5 9.424 407.5 9.744C407.5 10.0853 407.586 10.256 407.756 10.256C407.948 10.256 408.258 10.1173 408.684 9.84C409.111 9.584 409.676 9.34933 410.38 9.136C411.084 8.92267 411.65 8.816 412.076 8.816C412.503 8.816 413.026 8.95467 413.644 9.232C414.284 9.50933 414.786 9.81867 415.148 10.16C415.916 10.9067 416.46 11.952 416.78 13.296C417.122 14.64 417.292 16.5067 417.292 18.896C417.292 20.5813 417.239 21.6907 417.132 22.224C417.026 22.736 416.78 23.0987 416.396 23.312C416.14 23.44 415.831 23.504 415.468 23.504C415.084 23.504 414.764 23.44 414.508 23.312C414.146 23.12 413.911 22.768 413.804 22.256C413.719 21.7227 413.655 20.4427 413.612 18.416C413.57 16.3893 413.484 15.056 413.356 14.416C413.228 13.7547 412.962 13.2213 412.556 12.816C412.343 12.6027 412.076 12.496 411.756 12.496C411.223 12.496 410.647 12.7627 410.028 13.296C409.431 13.808 408.94 14.4693 408.556 15.28C408.364 15.6853 408.247 16.0693 408.204 16.432C408.162 16.7947 408.119 17.6267 408.076 18.928C408.034 20.72 407.948 21.7867 407.82 22.128C407.522 22.9173 406.946 23.312 406.092 23.312C405.388 23.312 404.855 23.0027 404.492 22.384C404.386 22.1493 404.279 20.1547 404.172 16.4C404.044 12.368 403.959 10.1387 403.916 9.712C403.874 9.28533 403.852 9.05067 403.852 9.008C403.852 8.73067 404.012 8.432 404.332 8.112ZM429.463 11.6C428.887 11.4933 428.407 11.44 428.023 11.44C427.149 11.44 426.413 11.6213 425.815 11.984C425.517 12.176 425.165 12.8267 424.759 13.936C424.375 15.024 424.183 15.8987 424.183 16.56C424.183 17.6267 424.525 18.4907 425.207 19.152C425.911 19.792 426.829 20.1227 427.959 20.144C428.877 20.144 429.73 19.888 430.519 19.376C431.33 18.864 431.917 18.192 432.279 17.36C432.514 16.8267 432.631 16.2187 432.631 15.536C432.631 14.704 432.471 13.9787 432.151 13.36C431.917 12.8693 431.597 12.496 431.191 12.24C430.786 11.984 430.21 11.7707 429.463 11.6ZM425.847 8.176C426.594 7.984 427.33 7.888 428.055 7.888C429.421 7.888 430.882 8.22933 432.439 8.912C433.549 9.40267 434.423 10.2667 435.063 11.504C435.725 12.7413 436.066 14.2027 436.087 15.888V16.08C436.087 18.6187 434.957 20.6773 432.695 22.256C431.287 23.2587 429.719 23.76 427.991 23.76C426.562 23.76 425.239 23.408 424.023 22.704C422.807 21.9787 421.89 20.9653 421.271 19.664C421.058 19.216 420.919 18.832 420.855 18.512C420.813 18.192 420.791 17.52 420.791 16.496C420.813 14.9813 420.973 13.7867 421.271 12.912C421.975 10.9707 422.807 9.65867 423.767 8.976C424.151 8.69867 424.845 8.432 425.847 8.176ZM444.532 1.52C444.894 1.15733 445.332 0.975998 445.844 0.975998C446.228 0.975998 446.569 1.09333 446.868 1.328C447.188 1.54133 447.412 1.85067 447.54 2.256C447.604 2.49067 447.71 3.6 447.86 5.584C448.009 7.54667 448.084 8.912 448.084 9.68C448.084 9.872 448.126 9.98933 448.212 10.032C448.318 10.0747 448.564 10.096 448.948 10.096C449.524 10.096 449.854 10.032 449.94 9.904C449.982 9.79733 450.42 9.744 451.252 9.744C452.318 9.744 453.022 9.81867 453.364 9.968C453.684 10.1173 453.929 10.4053 454.1 10.832C454.249 11.1307 454.324 11.376 454.324 11.568C454.324 11.7173 454.292 11.8987 454.228 12.112C454.078 12.6027 453.801 12.9333 453.396 13.104C453.012 13.2533 452.244 13.36 451.092 13.424C449.79 13.488 448.948 13.5733 448.564 13.68L448.052 13.808L448.18 18.32C448.222 20.3253 448.244 21.4027 448.244 21.552C448.244 22.4907 448.169 23.12 448.02 23.44C447.7 24.1227 447.177 24.464 446.452 24.464C446.174 24.464 445.886 24.4 445.588 24.272C445.353 24.1653 445.182 24.0693 445.076 23.984C444.969 23.8773 444.873 23.6107 444.788 23.184C444.702 22.736 444.649 22.2133 444.628 21.616C444.606 21.0187 444.585 20.0373 444.564 18.672L444.5 14.032L443.54 14.064C442.964 14.1067 442.452 14.192 442.004 14.32C441.897 14.3627 441.726 14.384 441.492 14.384C440.766 14.384 440.244 14.16 439.924 13.712C439.753 13.4347 439.668 13.0613 439.668 12.592C439.668 12.1867 439.732 11.8667 439.86 11.632C440.158 11.0987 441.204 10.6933 442.996 10.416L444.468 10.192L444.34 7.376C444.254 5.37067 444.18 4.00533 444.116 3.28C444.073 2.768 444.052 2.49067 444.052 2.448C444.052 2.14933 444.212 1.84 444.532 1.52ZM481.273 13.808C480.889 13.616 480.345 13.52 479.641 13.52C478.873 13.52 478.222 13.6373 477.689 13.872C477.326 14.0213 476.857 14.352 476.281 14.864C475.705 15.3547 475.417 15.6747 475.417 15.824C475.417 15.888 475.748 15.92 476.409 15.92C477.39 15.92 478.564 15.8667 479.929 15.76C481.294 15.6533 482.073 15.536 482.265 15.408C482.329 15.3867 482.361 15.3227 482.361 15.216C482.361 15.024 482.244 14.7787 482.009 14.48C481.774 14.16 481.529 13.936 481.273 13.808ZM477.497 10.096C478.03 9.94667 478.66 9.872 479.385 9.872C480.729 9.872 481.956 10.1387 483.065 10.672C483.897 11.0987 484.59 11.7493 485.145 12.624C485.7 13.4773 486.041 14.4373 486.169 15.504C486.169 15.5467 486.169 15.6107 486.169 15.696C486.19 15.7813 486.201 15.8453 486.201 15.888C486.201 16.4427 486.094 16.9867 485.881 17.52C485.689 18.0533 485.454 18.416 485.177 18.608C484.814 18.864 482.265 19.184 477.529 19.568C476.526 19.6533 476.025 19.7493 476.025 19.856C476.025 19.984 476.249 20.1867 476.697 20.464C477.145 20.7413 477.582 20.9333 478.009 21.04C478.393 21.1253 478.702 21.168 478.937 21.168C479.62 21.168 480.505 20.944 481.593 20.496C482.361 20.176 482.926 20.016 483.289 20.016C483.652 20.016 483.993 20.176 484.313 20.496C484.74 20.9227 484.953 21.328 484.953 21.712C484.953 21.968 484.889 22.2347 484.761 22.512C484.654 22.768 484.505 22.9707 484.313 23.12C484.142 23.2693 483.822 23.4507 483.353 23.664C481.796 24.3467 480.345 24.688 479.001 24.688C478.233 24.688 477.444 24.5707 476.633 24.336C475.545 23.9947 474.553 23.4187 473.657 22.608C472.761 21.776 472.121 20.8587 471.737 19.856C471.502 19.1947 471.385 18.4587 471.385 17.648C471.385 16.4747 471.577 15.4933 471.961 14.704C472.409 13.7227 473.166 12.784 474.233 11.888C475.3 10.992 476.388 10.3947 477.497 10.096ZM489.762 10.352C489.762 9.904 489.932 9.52 490.274 9.2C490.636 8.85867 491.042 8.688 491.49 8.688C492.002 8.688 492.428 8.88 492.77 9.264C493.111 9.62667 493.484 10.3093 493.89 11.312C494.295 12.3573 494.914 13.7653 495.746 15.536C496.599 17.2853 497.068 18.16 497.154 18.16C497.218 18.16 497.58 17.552 498.242 16.336C498.647 15.568 499.287 14.4373 500.162 12.944C501.058 11.4507 501.58 10.5653 501.73 10.288C502.028 9.75467 502.295 9.41333 502.53 9.264C502.764 9.11467 503.127 9.04 503.618 9.04C504.087 9.04 504.492 9.21067 504.833 9.552C505.196 9.89333 505.378 10.2987 505.378 10.768C505.378 10.8747 505.356 11.0133 505.314 11.184C505.228 11.4613 504.802 12.24 504.034 13.52C501.41 17.808 499.831 20.8267 499.298 22.576C498.956 23.6853 498.274 24.24 497.25 24.24C496.972 24.24 496.674 24.176 496.354 24.048C496.055 23.92 495.778 23.6533 495.522 23.248C495.287 22.8213 494.679 21.6053 493.698 19.6C491.074 14.224 489.762 11.1413 489.762 10.352ZM518.773 13.808C518.389 13.616 517.845 13.52 517.141 13.52C516.373 13.52 515.722 13.6373 515.189 13.872C514.826 14.0213 514.357 14.352 513.781 14.864C513.205 15.3547 512.917 15.6747 512.917 15.824C512.917 15.888 513.248 15.92 513.909 15.92C514.89 15.92 516.064 15.8667 517.429 15.76C518.794 15.6533 519.573 15.536 519.765 15.408C519.829 15.3867 519.861 15.3227 519.861 15.216C519.861 15.024 519.744 14.7787 519.509 14.48C519.274 14.16 519.029 13.936 518.773 13.808ZM514.997 10.096C515.53 9.94667 516.16 9.872 516.885 9.872C518.229 9.872 519.456 10.1387 520.565 10.672C521.397 11.0987 522.09 11.7493 522.645 12.624C523.2 13.4773 523.541 14.4373 523.669 15.504C523.669 15.5467 523.669 15.6107 523.669 15.696C523.69 15.7813 523.701 15.8453 523.701 15.888C523.701 16.4427 523.594 16.9867 523.381 17.52C523.189 18.0533 522.954 18.416 522.677 18.608C522.314 18.864 519.765 19.184 515.029 19.568C514.026 19.6533 513.525 19.7493 513.525 19.856C513.525 19.984 513.749 20.1867 514.197 20.464C514.645 20.7413 515.082 20.9333 515.509 21.04C515.893 21.1253 516.202 21.168 516.437 21.168C517.12 21.168 518.005 20.944 519.093 20.496C519.861 20.176 520.426 20.016 520.789 20.016C521.152 20.016 521.493 20.176 521.813 20.496C522.24 20.9227 522.453 21.328 522.453 21.712C522.453 21.968 522.389 22.2347 522.261 22.512C522.154 22.768 522.005 22.9707 521.813 23.12C521.642 23.2693 521.322 23.4507 520.853 23.664C519.296 24.3467 517.845 24.688 516.501 24.688C515.733 24.688 514.944 24.5707 514.133 24.336C513.045 23.9947 512.053 23.4187 511.157 22.608C510.261 21.776 509.621 20.8587 509.237 19.856C509.002 19.1947 508.885 18.4587 508.885 17.648C508.885 16.4747 509.077 15.4933 509.461 14.704C509.909 13.7227 510.666 12.784 511.733 11.888C512.8 10.992 513.888 10.3947 514.997 10.096ZM528.03 9.072C528.286 8.944 528.552 8.88 528.83 8.88C529.214 8.88 529.576 9.008 529.918 9.264C530.259 9.49867 530.494 9.81867 530.622 10.224L530.814 10.896L531.614 10.416C532.147 10.096 532.883 9.936 533.822 9.936C534.739 9.936 535.496 10.0853 536.094 10.384C536.584 10.6187 537.107 11.0027 537.662 11.536C538.238 12.0693 538.696 12.6027 539.038 13.136C540.19 14.9493 540.819 17.7653 540.926 21.584V22.224C540.926 22.736 540.776 23.152 540.478 23.472C540.115 23.8347 539.688 24.016 539.198 24.016C538.408 24.016 537.886 23.6747 537.63 22.992C537.502 22.6293 537.395 21.9147 537.31 20.848C537.054 17.1147 536.222 14.7787 534.814 13.84C534.515 13.648 534.216 13.552 533.918 13.552C533.363 13.552 532.862 13.8613 532.414 14.48C531.987 15.0773 531.646 15.9307 531.39 17.04C531.283 17.5307 531.155 18.416 531.006 19.696C530.856 20.976 530.782 21.84 530.782 22.288C530.782 22.5013 530.6 22.7893 530.238 23.152C529.875 23.4933 529.459 23.664 528.99 23.664C528.115 23.664 527.539 23.2053 527.262 22.288C527.134 21.84 527.07 19.8987 527.07 16.464C527.07 12.368 527.144 10.1387 527.294 9.776C527.422 9.49867 527.667 9.264 528.03 9.072ZM557.748 8.208C558.132 8.10133 558.729 8.048 559.54 8.048C561.247 8.048 562.484 8.176 563.252 8.432C564.319 8.77333 564.852 9.36 564.852 10.192C564.852 10.6827 564.617 11.1307 564.148 11.536C563.828 11.8347 563.519 11.984 563.22 11.984C563.199 11.984 563.156 11.984 563.092 11.984C563.028 11.9627 562.975 11.952 562.932 11.952C561.524 11.7173 560.415 11.6 559.604 11.6C559.348 11.6 559.113 11.6213 558.9 11.664C558.239 11.8347 557.908 12.144 557.908 12.592C557.908 12.6773 557.919 12.7413 557.94 12.784C558.089 13.2107 558.932 13.744 560.468 14.384C563.22 15.536 564.916 16.9653 565.556 18.672C565.748 19.184 565.844 19.664 565.844 20.112C565.844 20.9013 565.556 21.5733 564.98 22.128C564.425 22.6827 563.636 23.056 562.612 23.248C562.185 23.3333 561.481 23.376 560.5 23.376C558.708 23.376 557.567 23.2693 557.076 23.056C556.799 22.928 556.564 22.7147 556.372 22.416C556.18 22.096 556.084 21.7867 556.084 21.488C556.084 21.168 556.191 20.848 556.404 20.528C556.617 20.1867 556.873 19.952 557.172 19.824C557.449 19.7173 557.78 19.664 558.164 19.664C558.313 19.664 558.644 19.6853 559.156 19.728C559.497 19.7707 559.956 19.792 560.532 19.792C561.428 19.792 561.876 19.6853 561.876 19.472C561.876 19.088 560.948 18.512 559.092 17.744C557.428 17.0187 556.201 16.2613 555.412 15.472C554.644 14.6613 554.26 13.744 554.26 12.72C554.26 12.5493 554.281 12.2933 554.324 11.952C554.495 10.9067 554.921 10.0747 555.604 9.456C556.159 8.90133 556.873 8.48533 557.748 8.208ZM569.833 9.008C570.196 8.64533 570.601 8.464 571.049 8.464C571.497 8.464 571.924 8.64533 572.329 9.008L572.905 9.52L573.001 13.808C573.044 15.7067 573.086 16.9333 573.129 17.488C573.193 18.0427 573.31 18.512 573.481 18.896C573.737 19.4507 573.961 19.728 574.153 19.728C574.644 19.728 575.23 19.3653 575.913 18.64C576.617 17.9147 577.161 17.0933 577.545 16.176C577.822 15.5147 578.142 14.384 578.505 12.784C578.782 11.504 578.996 10.672 579.145 10.288C579.316 9.904 579.582 9.62667 579.945 9.456C580.265 9.30667 580.574 9.232 580.873 9.232C581.172 9.232 581.481 9.31733 581.801 9.488C582.313 9.744 582.654 10.3733 582.825 11.376C583.017 12.3573 583.22 14.64 583.433 18.224C583.582 20.8693 583.657 22.2347 583.657 22.32C583.657 22.8107 583.572 23.1733 583.401 23.408C583.038 23.8987 582.516 24.144 581.833 24.144C581.236 24.144 580.798 23.952 580.521 23.568C580.18 23.0987 580.009 22.32 580.009 21.232C580.009 20.464 579.924 20.08 579.753 20.08C579.582 20.08 579.166 20.4107 578.505 21.072C577.694 21.8613 577.001 22.4373 576.425 22.8C576.041 23.0347 575.71 23.184 575.433 23.248C575.177 23.312 574.74 23.344 574.121 23.344C573.481 23.344 573.044 23.3227 572.809 23.28C572.596 23.216 572.329 23.056 572.009 22.8C570.942 22.0107 570.228 20.976 569.865 19.696C569.502 18.3947 569.321 16.2507 569.321 13.264V9.52L569.833 9.008ZM587.583 9.328C587.967 9.008 588.383 8.848 588.831 8.848C589.3 8.848 589.706 9.01867 590.047 9.36C590.388 9.68 590.559 10.096 590.559 10.608C590.559 11.12 590.655 11.376 590.847 11.376C590.954 11.376 591.178 11.2587 591.519 11.024C593.098 9.936 594.666 9.392 596.223 9.392C596.884 9.392 597.535 9.50933 598.175 9.744C598.751 9.97867 599.156 10.2347 599.391 10.512C599.626 10.7893 599.743 11.1627 599.743 11.632C599.743 12.144 599.551 12.5813 599.167 12.944C598.847 13.2427 598.559 13.392 598.303 13.392C598.218 13.392 597.62 13.3173 596.511 13.168C596.383 13.1467 596.202 13.136 595.967 13.136C595.626 13.136 595.188 13.2533 594.655 13.488C593.268 14.128 592.298 14.9387 591.743 15.92C591.188 16.9013 590.911 18.3093 590.911 20.144C590.89 21.488 590.73 22.4267 590.431 22.96C590.154 23.4933 589.652 23.76 588.927 23.76C588.436 23.76 588.02 23.5893 587.679 23.248L587.167 22.736L587.103 17.072C587.06 12.8907 587.039 10.736 587.039 10.608C587.039 10.096 587.22 9.66933 587.583 9.328ZM613.148 13.808C612.764 13.616 612.22 13.52 611.516 13.52C610.748 13.52 610.097 13.6373 609.564 13.872C609.201 14.0213 608.732 14.352 608.156 14.864C607.58 15.3547 607.292 15.6747 607.292 15.824C607.292 15.888 607.623 15.92 608.284 15.92C609.265 15.92 610.439 15.8667 611.804 15.76C613.169 15.6533 613.948 15.536 614.14 15.408C614.204 15.3867 614.236 15.3227 614.236 15.216C614.236 15.024 614.119 14.7787 613.884 14.48C613.649 14.16 613.404 13.936 613.148 13.808ZM609.372 10.096C609.905 9.94667 610.535 9.872 611.26 9.872C612.604 9.872 613.831 10.1387 614.94 10.672C615.772 11.0987 616.465 11.7493 617.02 12.624C617.575 13.4773 617.916 14.4373 618.044 15.504C618.044 15.5467 618.044 15.6107 618.044 15.696C618.065 15.7813 618.076 15.8453 618.076 15.888C618.076 16.4427 617.969 16.9867 617.756 17.52C617.564 18.0533 617.329 18.416 617.052 18.608C616.689 18.864 614.14 19.184 609.404 19.568C608.401 19.6533 607.9 19.7493 607.9 19.856C607.9 19.984 608.124 20.1867 608.572 20.464C609.02 20.7413 609.457 20.9333 609.884 21.04C610.268 21.1253 610.577 21.168 610.812 21.168C611.495 21.168 612.38 20.944 613.468 20.496C614.236 20.176 614.801 20.016 615.164 20.016C615.527 20.016 615.868 20.176 616.188 20.496C616.615 20.9227 616.828 21.328 616.828 21.712C616.828 21.968 616.764 22.2347 616.636 22.512C616.529 22.768 616.38 22.9707 616.188 23.12C616.017 23.2693 615.697 23.4507 615.228 23.664C613.671 24.3467 612.22 24.688 610.876 24.688C610.108 24.688 609.319 24.5707 608.508 24.336C607.42 23.9947 606.428 23.4187 605.532 22.608C604.636 21.776 603.996 20.8587 603.612 19.856C603.377 19.1947 603.26 18.4587 603.26 17.648C603.26 16.4747 603.452 15.4933 603.836 14.704C604.284 13.7227 605.041 12.784 606.108 11.888C607.175 10.992 608.263 10.3947 609.372 10.096ZM631.335 8.816C631.655 8.496 632.06 8.336 632.551 8.336C633.212 8.336 633.671 8.56 633.927 9.008C634.204 9.43467 634.641 10.64 635.239 12.624C635.409 13.1787 635.623 13.8933 635.879 14.768C636.604 17.072 637.02 18.2453 637.127 18.288C637.255 18.288 637.543 17.648 637.991 16.368C638.716 14.192 639.313 12.6667 639.783 11.792C640.273 10.9173 640.849 10.3413 641.511 10.064C641.831 9.91467 642.151 9.84 642.471 9.84C642.94 9.84 643.367 10.064 643.751 10.512C644.156 10.9387 644.604 11.664 645.095 12.688C646.972 16.6773 647.964 18.672 648.071 18.672C648.113 18.672 648.359 18 648.807 16.656C649.276 15.2907 649.767 13.8827 650.279 12.432C650.812 10.9813 651.164 10.16 651.335 9.968C651.676 9.584 652.081 9.392 652.551 9.392C653.063 9.392 653.532 9.616 653.959 10.064C654.193 10.2987 654.311 10.608 654.311 10.992C654.311 11.6107 653.82 13.36 652.839 16.24C651.815 19.248 651.025 21.2213 650.471 22.16C649.916 23.0773 649.223 23.536 648.391 23.536C648.135 23.536 647.943 23.5253 647.815 23.504C647.132 23.3973 646.545 23.0453 646.055 22.448C645.564 21.8507 644.849 20.5707 643.911 18.608C642.865 16.432 642.311 15.344 642.247 15.344C642.183 15.344 641.991 15.792 641.671 16.688C640.647 19.632 639.921 21.5413 639.495 22.416C639.068 23.2907 638.62 23.8347 638.151 24.048C637.788 24.1973 637.361 24.272 636.871 24.272C636.444 24.272 636.113 24.2187 635.879 24.112C635.452 23.8987 634.94 23.0453 634.343 21.552C633.745 20.0587 632.903 17.4987 631.815 13.872C631.196 11.824 630.887 10.512 630.887 9.936C630.887 9.488 631.036 9.11467 631.335 8.816ZM658.527 1.552C658.889 1.25333 659.263 1.104 659.647 1.104C660.415 1.104 660.98 1.57333 661.343 2.512C661.492 2.93867 661.652 3.96267 661.823 5.584C661.993 7.184 662.132 8.67733 662.239 10.064C662.345 11.4293 662.409 12.112 662.431 12.112C662.473 12.112 662.825 11.8773 663.487 11.408C664.788 10.4907 666.025 10.032 667.199 10.032C668.287 10.032 669.236 10.4373 670.047 11.248C670.879 12.0373 671.529 13.2 671.999 14.736C672.361 15.9307 672.543 17.7867 672.543 20.304C672.543 21.8827 672.447 22.9493 672.255 23.504C672.041 24.08 671.551 24.368 670.783 24.368C670.271 24.368 669.844 24.1973 669.503 23.856L669.023 23.376L668.927 20.144C668.799 15.984 668.223 13.84 667.199 13.712H667.103C666.612 13.712 666.004 13.9893 665.279 14.544C664.553 15.0773 664.031 15.664 663.711 16.304C663.519 16.7307 663.263 17.04 662.943 17.232L662.527 17.52L662.463 21.008C662.42 22.7147 662.377 23.7493 662.335 24.112C662.313 24.4533 662.196 24.7307 661.983 24.944C661.641 25.3067 661.215 25.488 660.703 25.488C659.935 25.488 659.401 25.1467 659.103 24.464C658.953 24.0587 658.847 21.6053 658.783 17.104C658.676 9.57333 658.399 5.06133 657.951 3.568C657.887 3.33333 657.855 3.10933 657.855 2.896C657.855 2.34133 658.079 1.89333 658.527 1.552ZM685.257 13.68C685.151 13.3387 685.055 13.1467 684.969 13.104C684.884 13.04 684.649 13.008 684.265 13.008C683.156 13.0293 682.121 13.552 681.161 14.576C680.201 15.5787 679.721 16.592 679.721 17.616C679.721 18.128 679.86 18.5547 680.137 18.896C680.756 19.5787 681.407 19.92 682.089 19.92C682.132 19.92 682.175 19.92 682.217 19.92C682.26 19.8987 682.303 19.888 682.345 19.888C682.729 19.8027 683.135 19.5467 683.561 19.12C684.009 18.6933 684.351 18.224 684.585 17.712C685.076 16.56 685.321 15.44 685.321 14.352C685.321 14.032 685.3 13.808 685.257 13.68ZM682.281 9.648C682.857 9.456 683.519 9.36 684.265 9.36C685.247 9.36 686.079 9.52 686.761 9.84C687.209 10.0747 687.615 10.4267 687.977 10.896C688.361 11.344 688.596 11.7707 688.681 12.176C688.767 12.5813 688.884 12.9653 689.033 13.328C689.268 13.9467 689.737 16.272 690.441 20.304C690.548 20.944 690.601 21.424 690.601 21.744C690.601 23.024 690.004 23.664 688.809 23.664C688.404 23.664 688.031 23.504 687.689 23.184C687.369 22.864 687.167 22.4693 687.081 22C686.996 21.5733 686.921 21.328 686.857 21.264C686.772 21.2 686.527 21.3707 686.121 21.776C684.905 22.992 683.508 23.6 681.929 23.6C681.652 23.6 681.364 23.568 681.065 23.504C679.892 23.248 678.793 22.608 677.769 21.584C676.617 20.432 676.041 19.1413 676.041 17.712C676.041 16.5813 676.393 15.3547 677.097 14.032C677.631 13.0293 678.356 12.1333 679.273 11.344C680.212 10.5547 681.215 9.98933 682.281 9.648ZM699.063 1.52C699.426 1.15733 699.863 0.975998 700.375 0.975998C700.759 0.975998 701.1 1.09333 701.399 1.328C701.719 1.54133 701.943 1.85067 702.071 2.256C702.135 2.49067 702.242 3.6 702.391 5.584C702.54 7.54667 702.615 8.912 702.615 9.68C702.615 9.872 702.658 9.98933 702.743 10.032C702.85 10.0747 703.095 10.096 703.479 10.096C704.055 10.096 704.386 10.032 704.471 9.904C704.514 9.79733 704.951 9.744 705.783 9.744C706.85 9.744 707.554 9.81867 707.895 9.968C708.215 10.1173 708.46 10.4053 708.631 10.832C708.78 11.1307 708.855 11.376 708.855 11.568C708.855 11.7173 708.823 11.8987 708.759 12.112C708.61 12.6027 708.332 12.9333 707.927 13.104C707.543 13.2533 706.775 13.36 705.623 13.424C704.322 13.488 703.479 13.5733 703.095 13.68L702.583 13.808L702.711 18.32C702.754 20.3253 702.775 21.4027 702.775 21.552C702.775 22.4907 702.7 23.12 702.551 23.44C702.231 24.1227 701.708 24.464 700.983 24.464C700.706 24.464 700.418 24.4 700.119 24.272C699.884 24.1653 699.714 24.0693 699.607 23.984C699.5 23.8773 699.404 23.6107 699.319 23.184C699.234 22.736 699.18 22.2133 699.159 21.616C699.138 21.0187 699.116 20.0373 699.095 18.672L699.031 14.032L698.071 14.064C697.495 14.1067 696.983 14.192 696.535 14.32C696.428 14.3627 696.258 14.384 696.023 14.384C695.298 14.384 694.775 14.16 694.455 13.712C694.284 13.4347 694.199 13.0613 694.199 12.592C694.199 12.1867 694.263 11.8667 694.391 11.632C694.69 11.0987 695.735 10.6933 697.527 10.416L698.999 10.192L698.871 7.376C698.786 5.37067 698.711 4.00533 698.647 3.28C698.604 2.768 698.583 2.49067 698.583 2.448C698.583 2.14933 698.743 1.84 699.063 1.52ZM10.648 49.808C10.264 49.616 9.72 49.52 9.016 49.52C8.248 49.52 7.59733 49.6373 7.064 49.872C6.70133 50.0213 6.232 50.352 5.656 50.864C5.08 51.3547 4.792 51.6747 4.792 51.824C4.792 51.888 5.12267 51.92 5.784 51.92C6.76533 51.92 7.93867 51.8667 9.304 51.76C10.6693 51.6533 11.448 51.536 11.64 51.408C11.704 51.3867 11.736 51.3227 11.736 51.216C11.736 51.024 11.6187 50.7787 11.384 50.48C11.1493 50.16 10.904 49.936 10.648 49.808ZM6.872 46.096C7.40533 45.9467 8.03467 45.872 8.76 45.872C10.104 45.872 11.3307 46.1387 12.44 46.672C13.272 47.0987 13.9653 47.7493 14.52 48.624C15.0747 49.4773 15.416 50.4373 15.544 51.504C15.544 51.5467 15.544 51.6107 15.544 51.696C15.5653 51.7813 15.576 51.8453 15.576 51.888C15.576 52.4427 15.4693 52.9867 15.256 53.52C15.064 54.0533 14.8293 54.416 14.552 54.608C14.1893 54.864 11.64 55.184 6.904 55.568C5.90133 55.6533 5.4 55.7493 5.4 55.856C5.4 55.984 5.624 56.1867 6.072 56.464C6.52 56.7413 6.95733 56.9333 7.384 57.04C7.768 57.1253 8.07733 57.168 8.312 57.168C8.99467 57.168 9.88 56.944 10.968 56.496C11.736 56.176 12.3013 56.016 12.664 56.016C13.0267 56.016 13.368 56.176 13.688 56.496C14.1147 56.9227 14.328 57.328 14.328 57.712C14.328 57.968 14.264 58.2347 14.136 58.512C14.0293 58.768 13.88 58.9707 13.688 59.12C13.5173 59.2693 13.1973 59.4507 12.728 59.664C11.1707 60.3467 9.72 60.688 8.376 60.688C7.608 60.688 6.81867 60.5707 6.008 60.336C4.92 59.9947 3.928 59.4187 3.032 58.608C2.136 57.776 1.496 56.8587 1.112 55.856C0.877333 55.1947 0.76 54.4587 0.76 53.648C0.76 52.4747 0.952 51.4933 1.336 50.704C1.784 49.7227 2.54133 48.784 3.608 47.888C4.67467 46.992 5.76267 46.3947 6.872 46.096ZM19.2005 45.808C19.3712 44.9333 19.9685 44.496 20.9925 44.496H21.0565C21.4618 44.496 21.7818 44.6133 22.0165 44.848C22.2512 45.0613 22.8698 45.8507 23.8725 47.216C24.8538 48.5173 25.3978 49.2 25.5045 49.264H25.5365C25.6858 49.264 25.9952 49.0613 26.4645 48.656C26.9338 48.2293 27.1685 47.9413 27.1685 47.792C27.1685 47.6853 27.4672 47.248 28.0645 46.48C28.6618 45.6907 29.0352 45.2533 29.1845 45.168C29.3125 45.0827 29.6432 45.04 30.1765 45.04C31.3285 45.04 31.9045 45.5947 31.9045 46.704C31.9045 47.088 31.7978 47.4613 31.5845 47.824C31.3712 48.1653 30.8805 48.816 30.1125 49.776C28.7472 51.4827 28.0645 52.3893 28.0645 52.496C28.0645 52.5813 28.5232 53.1253 29.4405 54.128C30.8058 55.6427 31.6698 56.656 32.0325 57.168C32.4165 57.68 32.6085 58.128 32.6085 58.512C32.6085 59.0027 32.4272 59.4187 32.0645 59.76C31.7232 60.1013 31.3178 60.272 30.8485 60.272C30.5712 60.272 30.3258 60.208 30.1125 60.08C29.8138 59.9307 29.0032 59.12 27.6805 57.648C26.3792 56.1547 25.6538 55.408 25.5045 55.408C25.3765 55.408 25.0352 55.7173 24.4805 56.336C23.9472 56.9333 23.3925 57.6267 22.8165 58.416C22.3898 59.0133 22.0272 59.4187 21.7285 59.632C21.4512 59.8453 21.1312 59.952 20.7685 59.952C20.3205 59.952 19.9152 59.76 19.5525 59.376C19.1898 58.9707 19.0085 58.544 19.0085 58.096C19.0085 57.9253 19.0405 57.7653 19.1045 57.616C19.4032 56.848 20.3205 55.5893 21.8565 53.84C22.6245 52.944 23.0085 52.4107 23.0085 52.24C23.0085 51.28 22.8058 50.416 22.4005 49.648C21.9952 48.88 21.5578 48.3147 21.0885 47.952C20.6192 47.568 20.1818 47.2267 19.7765 46.928C19.3712 46.608 19.1685 46.3733 19.1685 46.224C19.1685 46.032 19.1792 45.8933 19.2005 45.808ZM47.3328 49.232C46.7141 48.6133 45.7541 48.304 44.4528 48.304C43.8128 48.304 43.2474 48.4107 42.7568 48.624C42.2874 48.8373 41.7754 49.2533 41.2208 49.872C40.6661 50.4907 40.3034 51.056 40.1328 51.568C39.9408 52.1227 39.8448 52.6453 39.8448 53.136C39.8448 54.2667 40.2928 55.0667 41.1888 55.536C41.7221 55.8133 42.4154 55.952 43.2688 55.952C43.8448 55.952 44.2821 55.8773 44.5808 55.728C46.3088 54.8533 47.3648 53.2853 47.7488 51.024L47.9408 49.808L47.3328 49.232ZM42.4688 44.88C42.9808 44.7307 43.5781 44.656 44.2608 44.656C45.4128 44.656 46.5434 44.8587 47.6528 45.264C48.7621 45.6693 49.5301 46.1813 49.9568 46.8C50.2554 47.2267 50.6394 47.6747 51.1088 48.144C51.6208 48.6773 52.0901 49.5947 52.5168 50.896C52.9221 52.1333 53.2954 53.5093 53.6368 55.024C53.9994 56.5387 54.1808 57.5627 54.1808 58.096C54.1808 58.6293 54.0208 59.0453 53.7008 59.344C53.2954 59.728 52.9114 59.92 52.5487 59.92C52.3994 59.92 52.2074 59.888 51.9728 59.824C51.5674 59.6747 51.2474 59.4187 51.0128 59.056C50.7994 58.6933 50.6074 58.1067 50.4368 57.296C50.2234 56.336 50.1061 55.856 50.0848 55.856C49.9994 55.856 49.5514 56.2613 48.7408 57.072C47.1408 58.6293 45.4768 59.472 43.7488 59.6H43.3008C42.2554 59.6 41.2314 59.4187 40.2288 59.056C39.2474 58.6933 38.4688 58.2133 37.8928 57.616C37.5941 57.3173 37.2954 56.8693 36.9968 56.272C36.6981 55.6533 36.4954 55.088 36.3888 54.576C36.2821 54.0427 36.2288 53.5627 36.2288 53.136C36.2288 51.3653 36.8261 49.6693 38.0208 48.048C39.2368 46.4267 40.7194 45.3707 42.4688 44.88ZM61.824 45.392C62.1653 45.264 62.6987 45.2 63.424 45.2C63.808 45.2 64.1173 45.2107 64.352 45.232C65.2053 45.2533 65.792 45.3067 66.112 45.392C66.432 45.456 66.8587 45.616 67.392 45.872C68.9067 46.64 69.664 47.568 69.664 48.656C69.664 48.8907 69.5893 49.1787 69.44 49.52C69.12 50.1387 68.6293 50.448 67.968 50.448C67.3707 50.448 66.8267 50.1707 66.336 49.616C66.1013 49.36 65.888 49.1893 65.696 49.104C65.504 48.9973 65.1947 48.912 64.768 48.848C64.3413 48.8053 64.0533 48.784 63.904 48.784C63.1573 48.784 62.6133 49.0187 62.272 49.488C61.6747 50.3627 61.376 51.312 61.376 52.336C61.376 53.4453 61.7173 54.3947 62.4 55.184C63.0827 55.952 63.9787 56.336 65.088 56.336C65.5147 56.336 66.112 56.2293 66.88 56.016C67.648 55.7813 68.16 55.568 68.416 55.376C68.6293 55.2053 69.0027 55.12 69.536 55.12C70.048 55.12 70.464 55.28 70.784 55.6C71.1253 55.92 71.296 56.3253 71.296 56.816C71.296 57.264 71.1893 57.6267 70.976 57.904C70.7627 58.1813 70.3573 58.4693 69.76 58.768C68.224 59.536 66.688 59.92 65.152 59.92C62.6133 59.92 60.6827 59.0133 59.36 57.2C58.2933 55.7493 57.76 54.16 57.76 52.432C57.76 51.3653 57.9733 50.2453 58.4 49.072C58.72 48.24 59.1893 47.4827 59.808 46.8C60.448 46.1173 61.12 45.648 61.824 45.392ZM79.877 38.192C80.2183 37.9787 80.5383 37.872 80.837 37.872C81.0717 37.872 81.3383 37.936 81.637 38.064C82.085 38.2773 82.373 38.608 82.501 39.056C82.629 39.504 82.7143 40.5707 82.757 42.256L82.853 45.424L84.325 45.328C84.4957 45.3067 84.741 45.296 85.061 45.296C85.829 45.296 86.373 45.4347 86.693 45.712C87.0343 45.9893 87.205 46.4373 87.205 47.056C87.205 47.7173 86.981 48.1867 86.533 48.464C86.1063 48.7413 85.2743 48.9333 84.037 49.04L82.693 49.168L82.469 53.616C82.3197 56.624 82.181 58.288 82.053 58.608C81.7757 59.248 81.2423 59.568 80.453 59.568C80.005 59.568 79.653 59.4507 79.397 59.216C79.1197 59.0027 78.9277 58.768 78.821 58.512C78.7143 58.256 78.661 57.84 78.661 57.264C78.661 56.7947 78.693 56.0907 78.757 55.152C78.8637 53.4667 78.9383 52.0267 78.981 50.832L79.013 49.328L77.573 49.296C76.7623 49.2747 76.2077 49.2107 75.909 49.104C75.6103 48.976 75.3543 48.72 75.141 48.336C75.013 48.08 74.949 47.8133 74.949 47.536C74.949 47.024 75.1623 46.576 75.589 46.192C75.8237 45.9787 76.1223 45.84 76.485 45.776C76.8477 45.6907 77.5197 45.6053 78.501 45.52L79.013 45.456L79.141 42.064C79.1623 41.552 79.173 40.9973 79.173 40.4C79.1943 39.7813 79.205 39.3227 79.205 39.024L79.237 38.576L79.333 38.512C79.397 38.4693 79.4823 38.416 79.589 38.352C79.6957 38.288 79.7917 38.2347 79.877 38.192ZM92.2 38.864C92.4773 38.7573 92.7227 38.704 92.936 38.704C93.256 38.704 93.576 38.8 93.896 38.992C94.216 39.2053 94.4293 39.44 94.536 39.696C94.664 39.952 94.728 40.4427 94.728 41.168C94.728 42 94.6853 43.056 94.6 44.336C94.4507 46.96 94.3547 50.0533 94.312 53.616C94.312 57.0933 94.2373 58.9707 94.088 59.248C93.9813 59.4613 93.7573 59.6747 93.416 59.888C93.096 60.08 92.8187 60.176 92.584 60.176C92.328 60.176 92.04 60.0693 91.72 59.856C91.4 59.6427 91.176 59.408 91.048 59.152C90.792 58.64 90.664 56.9227 90.664 54C90.664 51.056 90.792 47.1733 91.048 42.352C91.112 41.0933 91.2187 40.24 91.368 39.792C91.5173 39.344 91.7947 39.0347 92.2 38.864ZM110.166 44.272C110.379 44.208 110.539 44.176 110.646 44.176C110.731 44.176 110.976 44.2613 111.382 44.432C111.808 44.6027 112.107 44.8907 112.278 45.296C112.363 45.4667 112.406 45.6587 112.406 45.872C112.406 46.192 112.15 47.1627 111.638 48.784C110.699 51.792 109.515 54.8107 108.086 57.84C107.424 59.2907 106.411 61.168 105.046 63.472C103.68 65.7973 102.848 67.0453 102.55 67.216C102.208 67.4293 101.856 67.536 101.494 67.536C101.003 67.536 100.576 67.3653 100.214 67.024C99.8722 66.704 99.7015 66.2773 99.7015 65.744C99.7015 65.36 100.043 64.6347 100.726 63.568C101.259 62.736 101.952 61.5627 102.806 60.048C103.659 58.512 104.086 57.6907 104.086 57.584C104.086 57.52 103.851 57.0933 103.382 56.304C103.168 55.9627 102.411 54.576 101.11 52.144C99.8295 49.6907 99.0508 48.272 98.7735 47.888C98.4322 47.3973 98.2615 46.9067 98.2615 46.416C98.2615 45.712 98.6028 45.2107 99.2855 44.912C99.5415 44.8053 99.7655 44.752 99.9575 44.752C100.406 44.752 100.843 45.008 101.27 45.52C101.696 46.0107 102.24 46.864 102.902 48.08C104.331 50.7253 105.302 52.4533 105.814 53.264C105.92 53.4133 105.984 53.488 106.006 53.488C106.091 53.488 106.304 53.0293 106.646 52.112C107.136 50.768 107.627 49.3387 108.118 47.824C108.544 46.4587 108.886 45.552 109.142 45.104C109.419 44.656 109.76 44.3787 110.166 44.272ZM127.399 40.272C127.74 39.952 128.06 39.792 128.359 39.792C128.529 39.792 128.679 39.8027 128.807 39.824C129.383 39.888 129.788 40.08 130.023 40.4L130.439 40.88L130.375 49.264C130.353 54.7893 130.257 57.7653 130.087 58.192C129.809 58.832 129.276 59.152 128.487 59.152C128.231 59.152 128.039 59.1307 127.911 59.088C127.591 58.9813 127.377 58.9067 127.271 58.864C127.185 58.8 127.079 58.608 126.951 58.288C126.844 57.9467 126.78 57.4773 126.759 56.88C126.737 56.2827 126.727 55.3653 126.727 54.128C126.727 53.7867 126.727 53.0933 126.727 52.048C126.748 51.0027 126.759 50.128 126.759 49.424L126.791 40.784L127.399 40.272ZM138.685 39.504C138.408 40.6347 138.013 41.872 137.501 43.216C136.989 44.56 136.466 45.8187 135.933 46.992H132.509C132.808 45.7333 133.106 44.3893 133.405 42.96C133.704 41.5307 133.928 40.2613 134.077 39.152H138.461L138.685 39.504ZM141.847 44.528C142.06 44.4213 142.316 44.368 142.615 44.368C143.703 44.368 144.385 45.2853 144.663 47.12C144.727 47.6747 144.801 47.952 144.887 47.952C144.908 47.952 145.207 47.7067 145.783 47.216C146.956 46.1707 148.151 45.648 149.367 45.648C150.028 45.648 150.657 45.8293 151.255 46.192C151.831 46.5547 152.204 46.8747 152.375 47.152L152.663 47.6L153.431 46.896C154.604 45.8507 155.863 45.328 157.207 45.328C158.508 45.328 159.628 45.8293 160.567 46.832C162.167 48.4747 163.116 51.28 163.415 55.248C163.457 55.9733 163.479 56.4213 163.479 56.592C163.479 57.1467 163.404 57.552 163.255 57.808C163.127 58.064 162.892 58.288 162.551 58.48C162.252 58.6293 161.964 58.704 161.687 58.704C161.217 58.704 160.801 58.4907 160.439 58.064C160.161 57.7013 159.98 57.0827 159.895 56.208C159.724 54.2453 159.511 52.784 159.255 51.824C158.999 50.864 158.636 50.1173 158.167 49.584C157.804 49.2 157.431 49.008 157.047 49.008C156.321 49.008 155.681 49.5733 155.127 50.704C154.913 51.152 154.775 51.568 154.711 51.952C154.647 52.336 154.593 53.2107 154.551 54.576C154.465 56.4533 154.359 57.5733 154.231 57.936C153.932 58.64 153.388 58.992 152.599 58.992C152.129 58.992 151.735 58.832 151.415 58.512C150.903 58 150.583 56.4853 150.455 53.968C150.391 53.008 150.273 52.08 150.103 51.184C149.932 50.288 149.772 49.7547 149.623 49.584C149.495 49.4347 149.356 49.36 149.207 49.36C148.951 49.36 148.524 49.6267 147.927 50.16C147.287 50.7573 146.807 51.3973 146.487 52.08C146.188 52.6987 146.007 53.2 145.943 53.584C145.9 53.9467 145.857 55.1947 145.815 57.328C145.793 57.8827 145.623 58.3307 145.303 58.672C144.983 59.0133 144.577 59.184 144.087 59.184C143.596 59.184 143.201 59.088 142.903 58.896C142.476 58.5973 142.177 58.0213 142.007 57.168C141.836 56.2933 141.644 54.2347 141.431 50.992C141.303 49.072 141.153 47.7707 140.983 47.088C140.855 46.576 140.791 46.2347 140.791 46.064C140.791 45.872 140.855 45.648 140.983 45.392C141.175 44.944 141.463 44.656 141.847 44.528ZM178.539 43.344C178.837 43.3013 179.008 43.2693 179.051 43.248C179.157 43.248 179.403 43.3227 179.786 43.472C180.085 43.6 180.352 43.856 180.587 44.24C180.821 44.624 180.939 44.9973 180.939 45.36C180.939 45.6373 180.992 45.8507 181.099 46C181.184 46.1067 181.259 46.1493 181.323 46.128C181.387 46.1067 181.536 46 181.771 45.808C182.731 44.9973 183.904 44.496 185.291 44.304C185.717 44.2613 186.016 44.24 186.187 44.24C187.275 44.24 188.203 44.6347 188.971 45.424L189.707 46.16L190.635 45.424C192.149 44.208 193.621 43.6 195.051 43.6C195.541 43.6 195.979 43.6747 196.363 43.824C196.789 43.9947 197.248 44.3253 197.739 44.816C198.251 45.2853 198.635 45.7867 198.891 46.32C199.659 47.8773 200.16 50.7787 200.395 55.024C200.437 56.0907 200.459 56.6773 200.459 56.784C200.459 57.3387 200.384 57.7547 200.235 58.032C199.915 58.6507 199.424 58.96 198.763 58.96C198.293 58.96 197.877 58.7893 197.515 58.448L196.939 57.968L196.779 54.992C196.544 50.5547 196.011 47.984 195.179 47.28C195.051 47.1947 194.944 47.152 194.859 47.152C194.688 47.152 194.379 47.2693 193.931 47.504C192.821 48.0373 192.032 48.944 191.562 50.224C191.307 50.8853 191.136 52.2613 191.051 54.352C190.944 56.464 190.837 57.6373 190.731 57.872C190.389 58.4693 189.845 58.768 189.099 58.768C188.693 58.768 188.331 58.64 188.011 58.384C187.541 58 187.307 57.0613 187.307 55.568C187.307 54.8853 187.317 54.32 187.339 53.872C187.339 53.7227 187.339 53.52 187.339 53.264C187.36 52.9867 187.371 52.784 187.371 52.656C187.371 50.5653 187.136 49.1147 186.667 48.304C186.475 47.9627 186.283 47.792 186.091 47.792C186.069 47.792 185.931 47.8133 185.675 47.856C184.309 48.112 183.157 49.2107 182.219 51.152C181.835 51.9627 181.643 52.816 181.643 53.712C181.643 54.48 181.707 55.4187 181.835 56.528C181.899 56.976 181.931 57.3493 181.931 57.648C181.931 58.4587 181.579 59.0347 180.875 59.376C180.576 59.5253 180.341 59.6 180.171 59.6C180.043 59.6 179.84 59.5467 179.562 59.44C179.029 59.248 178.677 58.8853 178.507 58.352C178.336 57.7973 178.197 56.6133 178.091 54.8C177.941 51.7067 177.685 48.5173 177.323 45.232C177.323 45.1893 177.312 45.1253 177.291 45.04C177.291 44.9547 177.291 44.9013 177.291 44.88C177.291 44.5813 177.419 44.272 177.674 43.952C177.995 43.5893 178.283 43.3867 178.539 43.344ZM205.644 44.912C205.729 44.8907 205.857 44.88 206.028 44.88C206.433 44.88 206.806 44.9867 207.148 45.2C207.489 45.392 207.724 45.6587 207.852 46C207.937 46.192 208.022 47.6533 208.108 50.384C208.214 53.0933 208.268 55.2267 208.268 56.784C208.268 57.4453 208.257 57.8293 208.236 57.936C208.129 58.7467 207.777 59.2907 207.18 59.568C206.881 59.696 206.646 59.76 206.476 59.76C206.348 59.76 206.156 59.728 205.9 59.664C205.409 59.5147 205.1 59.312 204.972 59.056C204.716 58.5653 204.566 56.6667 204.524 53.36C204.524 52.7627 204.513 51.728 204.492 50.256L204.46 45.872L204.844 45.424C205.1 45.1253 205.366 44.9547 205.644 44.912ZM204.876 38.896C205.132 38.768 205.377 38.704 205.612 38.704C206.081 38.704 206.497 38.896 206.86 39.28C207.222 39.6427 207.404 40.0693 207.404 40.56C207.404 40.9013 207.318 41.2 207.148 41.456C206.785 42.032 206.294 42.32 205.676 42.32C205.27 42.32 204.897 42.1813 204.556 41.904C204.214 41.6267 204.001 41.2427 203.916 40.752C203.916 40.7307 203.905 40.6987 203.884 40.656C203.884 40.592 203.884 40.5493 203.884 40.528C203.884 40.208 203.98 39.8987 204.172 39.6C204.364 39.28 204.598 39.0453 204.876 38.896ZM216.241 44.496C216.625 44.432 217.019 44.4 217.425 44.4C218.705 44.4 219.846 44.688 220.849 45.264C221.851 45.84 222.353 46.5013 222.353 47.248C222.353 47.44 222.321 47.6107 222.257 47.76C221.937 48.5707 221.457 48.976 220.817 48.976C220.347 48.976 219.814 48.8267 219.217 48.528C218.534 48.1867 217.905 48.016 217.329 48.016C216.71 48.016 216.198 48.2187 215.793 48.624C215.579 48.8373 215.473 49.008 215.473 49.136C215.473 49.3067 215.633 49.5093 215.953 49.744C216.294 49.9573 216.913 50.2987 217.809 50.768C219.281 51.536 220.273 52.1653 220.785 52.656C221.275 53.0827 221.702 53.616 222.065 54.256C222.427 54.8747 222.609 55.3973 222.609 55.824C222.609 56.3147 222.481 56.8053 222.225 57.296C221.969 57.7867 221.649 58.16 221.265 58.416C220.283 59.0773 219.089 59.408 217.681 59.408C216.358 59.408 214.993 59.0987 213.585 58.48C212.923 58.16 212.507 57.7973 212.337 57.392C212.209 57.0933 212.145 56.8267 212.145 56.592C212.145 56.1653 212.347 55.7493 212.753 55.344C213.03 55.024 213.403 54.864 213.873 54.864C214.321 54.864 214.865 55.0027 215.505 55.28C216.209 55.5787 217.019 55.728 217.937 55.728C218.363 55.728 218.577 55.6747 218.577 55.568C218.577 55.312 217.659 54.7253 215.825 53.808C214.395 53.0613 213.35 52.3253 212.689 51.6C212.027 50.8533 211.697 50.032 211.697 49.136C211.697 48.0693 212.134 47.088 213.009 46.192C213.905 45.2747 214.982 44.7093 216.241 44.496ZM230.616 44.496C231 44.432 231.394 44.4 231.8 44.4C233.08 44.4 234.221 44.688 235.224 45.264C236.226 45.84 236.728 46.5013 236.728 47.248C236.728 47.44 236.696 47.6107 236.632 47.76C236.312 48.5707 235.832 48.976 235.192 48.976C234.722 48.976 234.189 48.8267 233.592 48.528C232.909 48.1867 232.28 48.016 231.704 48.016C231.085 48.016 230.573 48.2187 230.168 48.624C229.954 48.8373 229.848 49.008 229.848 49.136C229.848 49.3067 230.008 49.5093 230.328 49.744C230.669 49.9573 231.288 50.2987 232.184 50.768C233.656 51.536 234.648 52.1653 235.16 52.656C235.65 53.0827 236.077 53.616 236.44 54.256C236.802 54.8747 236.984 55.3973 236.984 55.824C236.984 56.3147 236.856 56.8053 236.6 57.296C236.344 57.7867 236.024 58.16 235.64 58.416C234.658 59.0773 233.464 59.408 232.056 59.408C230.733 59.408 229.368 59.0987 227.96 58.48C227.298 58.16 226.882 57.7973 226.712 57.392C226.584 57.0933 226.52 56.8267 226.52 56.592C226.52 56.1653 226.722 55.7493 227.128 55.344C227.405 55.024 227.778 54.864 228.248 54.864C228.696 54.864 229.24 55.0027 229.88 55.28C230.584 55.5787 231.394 55.728 232.312 55.728C232.738 55.728 232.952 55.6747 232.952 55.568C232.952 55.312 232.034 54.7253 230.2 53.808C228.77 53.0613 227.725 52.3253 227.064 51.6C226.402 50.8533 226.072 50.032 226.072 49.136C226.072 48.0693 226.509 47.088 227.384 46.192C228.28 45.2747 229.357 44.7093 230.616 44.496ZM242.175 44.912C242.26 44.8907 242.388 44.88 242.559 44.88C242.964 44.88 243.337 44.9867 243.679 45.2C244.02 45.392 244.255 45.6587 244.383 46C244.468 46.192 244.553 47.6533 244.639 50.384C244.745 53.0933 244.799 55.2267 244.799 56.784C244.799 57.4453 244.788 57.8293 244.767 57.936C244.66 58.7467 244.308 59.2907 243.711 59.568C243.412 59.696 243.177 59.76 243.007 59.76C242.879 59.76 242.687 59.728 242.431 59.664C241.94 59.5147 241.631 59.312 241.503 59.056C241.247 58.5653 241.097 56.6667 241.055 53.36C241.055 52.7627 241.044 51.728 241.023 50.256L240.991 45.872L241.375 45.424C241.631 45.1253 241.897 44.9547 242.175 44.912ZM241.407 38.896C241.663 38.768 241.908 38.704 242.143 38.704C242.612 38.704 243.028 38.896 243.391 39.28C243.753 39.6427 243.935 40.0693 243.935 40.56C243.935 40.9013 243.849 41.2 243.679 41.456C243.316 42.032 242.825 42.32 242.207 42.32C241.801 42.32 241.428 42.1813 241.087 41.904C240.745 41.6267 240.532 41.2427 240.447 40.752C240.447 40.7307 240.436 40.6987 240.415 40.656C240.415 40.592 240.415 40.5493 240.415 40.528C240.415 40.208 240.511 39.8987 240.703 39.6C240.895 39.28 241.129 39.0453 241.407 38.896ZM249.092 45.072C249.348 44.944 249.615 44.88 249.892 44.88C250.276 44.88 250.639 45.008 250.98 45.264C251.321 45.4987 251.556 45.8187 251.684 46.224L251.876 46.896L252.676 46.416C253.209 46.096 253.945 45.936 254.884 45.936C255.801 45.936 256.559 46.0853 257.156 46.384C257.647 46.6187 258.169 47.0027 258.724 47.536C259.3 48.0693 259.759 48.6027 260.1 49.136C261.252 50.9493 261.881 53.7653 261.988 57.584V58.224C261.988 58.736 261.839 59.152 261.54 59.472C261.177 59.8347 260.751 60.016 260.26 60.016C259.471 60.016 258.948 59.6747 258.692 58.992C258.564 58.6293 258.457 57.9147 258.372 56.848C258.116 53.1147 257.284 50.7787 255.876 49.84C255.577 49.648 255.279 49.552 254.98 49.552C254.425 49.552 253.924 49.8613 253.476 50.48C253.049 51.0773 252.708 51.9307 252.452 53.04C252.345 53.5307 252.217 54.416 252.068 55.696C251.919 56.976 251.844 57.84 251.844 58.288C251.844 58.5013 251.663 58.7893 251.3 59.152C250.937 59.4933 250.521 59.664 250.052 59.664C249.177 59.664 248.601 59.2053 248.324 58.288C248.196 57.84 248.132 55.8987 248.132 52.464C248.132 48.368 248.207 46.1387 248.356 45.776C248.484 45.4987 248.729 45.264 249.092 45.072ZM275.045 48.08C274.747 47.8667 274.491 47.7387 274.277 47.696C274.064 47.632 273.659 47.6 273.061 47.6C271.483 47.6427 270.427 48.048 269.893 48.816C269.68 49.1147 269.488 49.584 269.317 50.224C269.147 50.8427 269.061 51.3653 269.061 51.792C269.061 51.8347 269.061 51.8987 269.061 51.984C269.083 52.048 269.093 52.0907 269.093 52.112C269.221 52.752 269.573 53.3173 270.149 53.808C270.747 54.2987 271.44 54.5973 272.229 54.704C272.336 54.7253 272.496 54.736 272.709 54.736C273.52 54.736 274.32 54.3093 275.109 53.456C275.899 52.6027 276.293 51.7067 276.293 50.768C276.293 50.4693 276.283 50.2453 276.261 50.096C276.197 49.5413 276.101 49.1573 275.973 48.944C275.845 48.7307 275.536 48.4427 275.045 48.08ZM271.013 44.144C271.483 44.0373 272.165 43.984 273.061 43.984H273.573C274.363 44.0053 274.885 44.0587 275.141 44.144C275.419 44.208 275.856 44.4107 276.453 44.752C277.243 45.2427 277.893 45.6053 278.405 45.84C278.896 46.0747 279.216 46.32 279.365 46.576C279.579 46.896 279.792 48.3893 280.005 51.056C280.24 53.7013 280.357 56.0373 280.357 58.064C280.357 59.728 280.176 61.1147 279.813 62.224C279.472 63.3547 278.896 64.3787 278.085 65.296C276.741 66.832 275.067 67.6 273.061 67.6C271.803 67.6 270.341 67.312 268.677 66.736C267.952 66.5013 267.472 66.2987 267.237 66.128C267.003 65.9573 266.8 65.6907 266.629 65.328C266.544 65.136 266.501 64.912 266.501 64.656C266.501 64.1653 266.672 63.7493 267.013 63.408C267.269 63.1093 267.643 62.96 268.133 62.96C268.581 62.96 269.232 63.1093 270.085 63.408C270.853 63.6853 271.664 63.8667 272.517 63.952C272.581 63.952 272.656 63.952 272.741 63.952C272.848 63.9733 272.923 63.984 272.965 63.984C274.16 63.984 275.099 63.4507 275.781 62.384C276.144 61.872 276.389 61.392 276.517 60.944C276.667 60.4747 276.773 59.8027 276.837 58.928C276.88 58.3307 276.901 57.968 276.901 57.84C276.901 57.4347 276.805 57.232 276.613 57.232C276.443 57.232 276.144 57.3493 275.717 57.584C274.736 58.0747 273.723 58.32 272.677 58.32C270.885 58.32 269.275 57.7227 267.845 56.528C266.416 55.3333 265.659 53.8613 265.573 52.112C265.573 52.048 265.563 51.952 265.541 51.824C265.541 51.696 265.541 51.6 265.541 51.536C265.541 49.68 266.021 48.1013 266.981 46.8C267.963 45.4773 269.307 44.592 271.013 44.144ZM305.664 49.68C305.557 49.3387 305.461 49.1467 305.376 49.104C305.29 49.04 305.056 49.008 304.672 49.008C303.562 49.0293 302.528 49.552 301.568 50.576C300.608 51.5787 300.128 52.592 300.128 53.616C300.128 54.128 300.266 54.5547 300.544 54.896C301.162 55.5787 301.813 55.92 302.496 55.92C302.538 55.92 302.581 55.92 302.624 55.92C302.666 55.8987 302.709 55.888 302.752 55.888C303.136 55.8027 303.541 55.5467 303.968 55.12C304.416 54.6933 304.757 54.224 304.992 53.712C305.482 52.56 305.728 51.44 305.728 50.352C305.728 50.032 305.706 49.808 305.664 49.68ZM302.688 45.648C303.264 45.456 303.925 45.36 304.672 45.36C305.653 45.36 306.485 45.52 307.168 45.84C307.616 46.0747 308.021 46.4267 308.384 46.896C308.768 47.344 309.002 47.7707 309.088 48.176C309.173 48.5813 309.29 48.9653 309.44 49.328C309.674 49.9467 310.144 52.272 310.847 56.304C310.954 56.944 311.008 57.424 311.008 57.744C311.008 59.024 310.41 59.664 309.216 59.664C308.81 59.664 308.437 59.504 308.096 59.184C307.776 58.864 307.573 58.4693 307.488 58C307.402 57.5733 307.328 57.328 307.264 57.264C307.178 57.2 306.933 57.3707 306.528 57.776C305.312 58.992 303.914 59.6 302.336 59.6C302.058 59.6 301.77 59.568 301.472 59.504C300.298 59.248 299.2 58.608 298.176 57.584C297.024 56.432 296.448 55.1413 296.448 53.712C296.448 52.5813 296.8 51.3547 297.504 50.032C298.037 49.0293 298.762 48.1333 299.68 47.344C300.618 46.5547 301.621 45.9893 302.688 45.648ZM319.469 37.52C319.832 37.1573 320.269 36.976 320.781 36.976C321.165 36.976 321.507 37.0933 321.805 37.328C322.125 37.5413 322.349 37.8507 322.477 38.256C322.541 38.4907 322.648 39.6 322.797 41.584C322.947 43.5467 323.021 44.912 323.021 45.68C323.021 45.872 323.064 45.9893 323.149 46.032C323.256 46.0747 323.501 46.096 323.885 46.096C324.461 46.096 324.792 46.032 324.877 45.904C324.92 45.7973 325.357 45.744 326.189 45.744C327.256 45.744 327.96 45.8187 328.301 45.968C328.621 46.1173 328.867 46.4053 329.037 46.832C329.187 47.1307 329.261 47.376 329.261 47.568C329.261 47.7173 329.229 47.8987 329.165 48.112C329.016 48.6027 328.739 48.9333 328.333 49.104C327.949 49.2533 327.181 49.36 326.029 49.424C324.728 49.488 323.885 49.5733 323.501 49.68L322.989 49.808L323.117 54.32C323.16 56.3253 323.181 57.4027 323.181 57.552C323.181 58.4907 323.107 59.12 322.957 59.44C322.637 60.1227 322.115 60.464 321.389 60.464C321.112 60.464 320.824 60.4 320.525 60.272C320.291 60.1653 320.12 60.0693 320.013 59.984C319.907 59.8773 319.811 59.6107 319.725 59.184C319.64 58.736 319.587 58.2133 319.565 57.616C319.544 57.0187 319.523 56.0373 319.501 54.672L319.437 50.032L318.477 50.064C317.901 50.1067 317.389 50.192 316.941 50.32C316.835 50.3627 316.664 50.384 316.429 50.384C315.704 50.384 315.181 50.16 314.861 49.712C314.691 49.4347 314.605 49.0613 314.605 48.592C314.605 48.1867 314.669 47.8667 314.797 47.632C315.096 47.0987 316.141 46.6933 317.933 46.416L319.405 46.192L319.277 43.376C319.192 41.3707 319.117 40.0053 319.053 39.28C319.011 38.768 318.989 38.4907 318.989 38.448C318.989 38.1493 319.149 37.84 319.469 37.52ZM347.563 37.52C347.926 37.1573 348.363 36.976 348.875 36.976C349.259 36.976 349.6 37.0933 349.899 37.328C350.219 37.5413 350.443 37.8507 350.571 38.256C350.635 38.4907 350.742 39.6 350.891 41.584C351.04 43.5467 351.115 44.912 351.115 45.68C351.115 45.872 351.158 45.9893 351.243 46.032C351.35 46.0747 351.595 46.096 351.979 46.096C352.555 46.096 352.886 46.032 352.971 45.904C353.014 45.7973 353.451 45.744 354.283 45.744C355.35 45.744 356.054 45.8187 356.395 45.968C356.715 46.1173 356.96 46.4053 357.131 46.832C357.28 47.1307 357.355 47.376 357.355 47.568C357.355 47.7173 357.323 47.8987 357.259 48.112C357.11 48.6027 356.832 48.9333 356.427 49.104C356.043 49.2533 355.275 49.36 354.123 49.424C352.822 49.488 351.979 49.5733 351.595 49.68L351.083 49.808L351.211 54.32C351.254 56.3253 351.275 57.4027 351.275 57.552C351.275 58.4907 351.2 59.12 351.051 59.44C350.731 60.1227 350.208 60.464 349.483 60.464C349.206 60.464 348.918 60.4 348.619 60.272C348.384 60.1653 348.214 60.0693 348.107 59.984C348 59.8773 347.904 59.6107 347.819 59.184C347.734 58.736 347.68 58.2133 347.659 57.616C347.638 57.0187 347.616 56.0373 347.595 54.672L347.531 50.032L346.571 50.064C345.995 50.1067 345.483 50.192 345.035 50.32C344.928 50.3627 344.758 50.384 344.523 50.384C343.798 50.384 343.275 50.16 342.955 49.712C342.784 49.4347 342.699 49.0613 342.699 48.592C342.699 48.1867 342.763 47.8667 342.891 47.632C343.19 47.0987 344.235 46.6933 346.027 46.416L347.499 46.192L347.371 43.376C347.286 41.3707 347.211 40.0053 347.147 39.28C347.104 38.768 347.083 38.4907 347.083 38.448C347.083 38.1493 347.243 37.84 347.563 37.52ZM361.652 37.552C362.014 37.2533 362.388 37.104 362.772 37.104C363.54 37.104 364.105 37.5733 364.468 38.512C364.617 38.9387 364.777 39.9627 364.948 41.584C365.118 43.184 365.257 44.6773 365.364 46.064C365.47 47.4293 365.534 48.112 365.556 48.112C365.598 48.112 365.95 47.8773 366.612 47.408C367.913 46.4907 369.15 46.032 370.324 46.032C371.412 46.032 372.361 46.4373 373.172 47.248C374.004 48.0373 374.654 49.2 375.124 50.736C375.486 51.9307 375.668 53.7867 375.668 56.304C375.668 57.8827 375.572 58.9493 375.38 59.504C375.166 60.08 374.676 60.368 373.908 60.368C373.396 60.368 372.969 60.1973 372.628 59.856L372.148 59.376L372.052 56.144C371.924 51.984 371.348 49.84 370.324 49.712H370.228C369.737 49.712 369.129 49.9893 368.404 50.544C367.678 51.0773 367.156 51.664 366.836 52.304C366.644 52.7307 366.388 53.04 366.068 53.232L365.652 53.52L365.588 57.008C365.545 58.7147 365.502 59.7493 365.46 60.112C365.438 60.4533 365.321 60.7307 365.108 60.944C364.766 61.3067 364.34 61.488 363.828 61.488C363.06 61.488 362.526 61.1467 362.228 60.464C362.078 60.0587 361.972 57.6053 361.908 53.104C361.801 45.5733 361.524 41.0613 361.076 39.568C361.012 39.3333 360.98 39.1093 360.98 38.896C360.98 38.3413 361.204 37.8933 361.652 37.552ZM380.862 44.912C380.948 44.8907 381.076 44.88 381.246 44.88C381.652 44.88 382.025 44.9867 382.366 45.2C382.708 45.392 382.942 45.6587 383.07 46C383.156 46.192 383.241 47.6533 383.326 50.384C383.433 53.0933 383.486 55.2267 383.486 56.784C383.486 57.4453 383.476 57.8293 383.454 57.936C383.348 58.7467 382.996 59.2907 382.398 59.568C382.1 59.696 381.865 59.76 381.694 59.76C381.566 59.76 381.374 59.728 381.118 59.664C380.628 59.5147 380.318 59.312 380.19 59.056C379.934 58.5653 379.785 56.6667 379.742 53.36C379.742 52.7627 379.732 51.728 379.71 50.256L379.678 45.872L380.062 45.424C380.318 45.1253 380.585 44.9547 380.862 44.912ZM380.094 38.896C380.35 38.768 380.596 38.704 380.83 38.704C381.3 38.704 381.716 38.896 382.078 39.28C382.441 39.6427 382.622 40.0693 382.622 40.56C382.622 40.9013 382.537 41.2 382.366 41.456C382.004 42.032 381.513 42.32 380.894 42.32C380.489 42.32 380.116 42.1813 379.774 41.904C379.433 41.6267 379.22 41.2427 379.134 40.752C379.134 40.7307 379.124 40.6987 379.102 40.656C379.102 40.592 379.102 40.5493 379.102 40.528C379.102 40.208 379.198 39.8987 379.39 39.6C379.582 39.28 379.817 39.0453 380.094 38.896ZM391.46 44.496C391.844 44.432 392.238 44.4 392.644 44.4C393.924 44.4 395.065 44.688 396.068 45.264C397.07 45.84 397.572 46.5013 397.572 47.248C397.572 47.44 397.54 47.6107 397.476 47.76C397.156 48.5707 396.676 48.976 396.036 48.976C395.566 48.976 395.033 48.8267 394.436 48.528C393.753 48.1867 393.124 48.016 392.548 48.016C391.929 48.016 391.417 48.2187 391.012 48.624C390.798 48.8373 390.692 49.008 390.692 49.136C390.692 49.3067 390.852 49.5093 391.172 49.744C391.513 49.9573 392.132 50.2987 393.028 50.768C394.5 51.536 395.492 52.1653 396.004 52.656C396.494 53.0827 396.921 53.616 397.284 54.256C397.646 54.8747 397.828 55.3973 397.828 55.824C397.828 56.3147 397.7 56.8053 397.444 57.296C397.188 57.7867 396.868 58.16 396.484 58.416C395.502 59.0773 394.308 59.408 392.9 59.408C391.577 59.408 390.212 59.0987 388.804 58.48C388.142 58.16 387.726 57.7973 387.556 57.392C387.428 57.0933 387.364 56.8267 387.364 56.592C387.364 56.1653 387.566 55.7493 387.972 55.344C388.249 55.024 388.622 54.864 389.092 54.864C389.54 54.864 390.084 55.0027 390.724 55.28C391.428 55.5787 392.238 55.728 393.156 55.728C393.582 55.728 393.796 55.6747 393.796 55.568C393.796 55.312 392.878 54.7253 391.044 53.808C389.614 53.0613 388.569 52.3253 387.908 51.6C387.246 50.8533 386.916 50.032 386.916 49.136C386.916 48.0693 387.353 47.088 388.228 46.192C389.124 45.2747 390.201 44.7093 391.46 44.496ZM421.362 52.304C421.362 51.6213 420.957 50.928 420.146 50.224C419.336 49.52 418.482 49.168 417.586 49.168C417.032 49.1893 416.637 49.264 416.402 49.392C416.168 49.52 415.944 49.808 415.73 50.256C415.538 50.704 415.442 51.1627 415.442 51.632C415.442 51.76 415.464 52.2933 415.506 53.232L415.634 55.472L416.21 55.568C416.274 55.5893 416.37 55.6 416.498 55.6C417.074 55.6 417.768 55.408 418.578 55.024C419.41 54.6187 420.114 54.1387 420.69 53.584C421.138 53.136 421.362 52.7093 421.362 52.304ZM412.882 45.456C412.904 45.456 412.936 45.456 412.978 45.456C413.021 45.4347 413.064 45.424 413.106 45.424C413.725 45.424 414.184 45.5733 414.482 45.872C414.589 45.936 414.706 45.968 414.834 45.968C415.005 45.968 415.293 45.904 415.698 45.776C416.274 45.6053 416.84 45.52 417.394 45.52C418.418 45.52 419.442 45.7547 420.466 46.224C421.512 46.672 422.397 47.2907 423.122 48.08C424.381 49.4667 425.01 50.896 425.01 52.368C425.01 54.0747 424.2 55.5253 422.578 56.72C421.618 57.4453 420.573 58.0427 419.442 58.512C418.312 58.9813 417.384 59.216 416.658 59.216C416.466 59.216 416.328 59.2053 416.242 59.184L415.73 59.088C415.773 59.856 415.816 61.0187 415.858 62.576C415.901 64.1333 415.944 65.3067 415.986 66.096L415.346 66.736C414.92 67.1627 414.504 67.376 414.098 67.376C413.714 67.376 413.341 67.1947 412.978 66.832C412.658 66.512 412.456 66.2027 412.37 65.904C412.328 65.648 412.232 63.2693 412.082 58.768C411.976 54.288 411.858 51.4933 411.73 50.384C411.624 49.3813 411.57 48.4427 411.57 47.568C411.57 47.056 411.592 46.7253 411.634 46.576C411.698 46.4053 411.837 46.2133 412.05 46C412.37 45.68 412.648 45.4987 412.882 45.456ZM437.182 47.6C436.606 47.4933 436.126 47.44 435.742 47.44C434.867 47.44 434.131 47.6213 433.534 47.984C433.235 48.176 432.883 48.8267 432.478 49.936C432.094 51.024 431.902 51.8987 431.902 52.56C431.902 53.6267 432.243 54.4907 432.926 55.152C433.63 55.792 434.547 56.1227 435.678 56.144C436.595 56.144 437.449 55.888 438.238 55.376C439.049 54.864 439.635 54.192 439.998 53.36C440.233 52.8267 440.35 52.2187 440.35 51.536C440.35 50.704 440.19 49.9787 439.87 49.36C439.635 48.8693 439.315 48.496 438.91 48.24C438.505 47.984 437.929 47.7707 437.182 47.6ZM433.566 44.176C434.313 43.984 435.049 43.888 435.774 43.888C437.139 43.888 438.601 44.2293 440.158 44.912C441.267 45.4027 442.142 46.2667 442.782 47.504C443.443 48.7413 443.785 50.2027 443.806 51.888V52.08C443.806 54.6187 442.675 56.6773 440.414 58.256C439.006 59.2587 437.438 59.76 435.71 59.76C434.281 59.76 432.958 59.408 431.742 58.704C430.526 57.9787 429.609 56.9653 428.99 55.664C428.777 55.216 428.638 54.832 428.574 54.512C428.531 54.192 428.51 53.52 428.51 52.496C428.531 50.9813 428.691 49.7867 428.99 48.912C429.694 46.9707 430.526 45.6587 431.486 44.976C431.87 44.6987 432.563 44.432 433.566 44.176ZM449.019 44.912C449.104 44.8907 449.232 44.88 449.403 44.88C449.808 44.88 450.181 44.9867 450.523 45.2C450.864 45.392 451.099 45.6587 451.227 46C451.312 46.192 451.397 47.6533 451.483 50.384C451.589 53.0933 451.643 55.2267 451.643 56.784C451.643 57.4453 451.632 57.8293 451.611 57.936C451.504 58.7467 451.152 59.2907 450.555 59.568C450.256 59.696 450.021 59.76 449.851 59.76C449.723 59.76 449.531 59.728 449.275 59.664C448.784 59.5147 448.475 59.312 448.347 59.056C448.091 58.5653 447.941 56.6667 447.899 53.36C447.899 52.7627 447.888 51.728 447.867 50.256L447.835 45.872L448.219 45.424C448.475 45.1253 448.741 44.9547 449.019 44.912ZM448.251 38.896C448.507 38.768 448.752 38.704 448.987 38.704C449.456 38.704 449.872 38.896 450.235 39.28C450.597 39.6427 450.779 40.0693 450.779 40.56C450.779 40.9013 450.693 41.2 450.523 41.456C450.16 42.032 449.669 42.32 449.051 42.32C448.645 42.32 448.272 42.1813 447.931 41.904C447.589 41.6267 447.376 41.2427 447.291 40.752C447.291 40.7307 447.28 40.6987 447.259 40.656C447.259 40.592 447.259 40.5493 447.259 40.528C447.259 40.208 447.355 39.8987 447.547 39.6C447.739 39.28 447.973 39.0453 448.251 38.896ZM455.936 45.072C456.192 44.944 456.458 44.88 456.736 44.88C457.12 44.88 457.482 45.008 457.824 45.264C458.165 45.4987 458.4 45.8187 458.528 46.224L458.72 46.896L459.52 46.416C460.053 46.096 460.789 45.936 461.728 45.936C462.645 45.936 463.402 46.0853 464 46.384C464.49 46.6187 465.013 47.0027 465.568 47.536C466.144 48.0693 466.602 48.6027 466.944 49.136C468.096 50.9493 468.725 53.7653 468.832 57.584V58.224C468.832 58.736 468.682 59.152 468.384 59.472C468.021 59.8347 467.594 60.016 467.104 60.016C466.314 60.016 465.792 59.6747 465.536 58.992C465.408 58.6293 465.301 57.9147 465.216 56.848C464.96 53.1147 464.128 50.7787 462.72 49.84C462.421 49.648 462.122 49.552 461.824 49.552C461.269 49.552 460.768 49.8613 460.32 50.48C459.893 51.0773 459.552 51.9307 459.296 53.04C459.189 53.5307 459.061 54.416 458.912 55.696C458.762 56.976 458.688 57.84 458.688 58.288C458.688 58.5013 458.506 58.7893 458.144 59.152C457.781 59.4933 457.365 59.664 456.896 59.664C456.021 59.664 455.445 59.2053 455.168 58.288C455.04 57.84 454.976 55.8987 454.976 52.464C454.976 48.368 455.05 46.1387 455.2 45.776C455.328 45.4987 455.573 45.264 455.936 45.072ZM477.313 37.52C477.676 37.1573 478.113 36.976 478.625 36.976C479.009 36.976 479.35 37.0933 479.649 37.328C479.969 37.5413 480.193 37.8507 480.321 38.256C480.385 38.4907 480.492 39.6 480.641 41.584C480.79 43.5467 480.865 44.912 480.865 45.68C480.865 45.872 480.908 45.9893 480.993 46.032C481.1 46.0747 481.345 46.096 481.729 46.096C482.305 46.096 482.636 46.032 482.721 45.904C482.764 45.7973 483.201 45.744 484.033 45.744C485.1 45.744 485.804 45.8187 486.145 45.968C486.465 46.1173 486.71 46.4053 486.881 46.832C487.03 47.1307 487.105 47.376 487.105 47.568C487.105 47.7173 487.073 47.8987 487.009 48.112C486.86 48.6027 486.582 48.9333 486.177 49.104C485.793 49.2533 485.025 49.36 483.873 49.424C482.572 49.488 481.729 49.5733 481.345 49.68L480.833 49.808L480.961 54.32C481.004 56.3253 481.025 57.4027 481.025 57.552C481.025 58.4907 480.95 59.12 480.801 59.44C480.481 60.1227 479.958 60.464 479.233 60.464C478.956 60.464 478.668 60.4 478.369 60.272C478.134 60.1653 477.964 60.0693 477.857 59.984C477.75 59.8773 477.654 59.6107 477.569 59.184C477.484 58.736 477.43 58.2133 477.409 57.616C477.388 57.0187 477.366 56.0373 477.345 54.672L477.281 50.032L476.321 50.064C475.745 50.1067 475.233 50.192 474.785 50.32C474.678 50.3627 474.508 50.384 474.273 50.384C473.548 50.384 473.025 50.16 472.705 49.712C472.534 49.4347 472.449 49.0613 472.449 48.592C472.449 48.1867 472.513 47.8667 472.641 47.632C472.94 47.0987 473.985 46.6933 475.777 46.416L477.249 46.192L477.121 43.376C477.036 41.3707 476.961 40.0053 476.897 39.28C476.854 38.768 476.833 38.4907 476.833 38.448C476.833 38.1493 476.993 37.84 477.313 37.52ZM491.818 56.56C492.202 56.4107 492.426 56.336 492.49 56.336L493.098 56.56C493.866 56.88 494.25 57.456 494.25 58.288C494.25 58.736 494.058 59.1627 493.674 59.568C493.311 59.9733 492.927 60.176 492.522 60.176C492.138 60.176 491.775 60.048 491.434 59.792C491.114 59.5147 490.89 59.1733 490.762 58.768C490.698 58.576 490.666 58.3947 490.666 58.224C490.666 57.84 490.772 57.4987 490.986 57.2C491.199 56.88 491.476 56.6667 491.818 56.56Z" fill="#27263C"/>
</svg>
