<svg width="342" height="104" viewBox="0 0 342 104" fill="none" xmlns="http://www.w3.org/2000/svg">
<path d="M3 2.128C3.23467 1.91467 3.544 1.808 3.928 1.808C4.39733 1.808 4.81333 1.968 5.176 2.288C5.38933 2.50133 5.77333 3.07733 6.328 4.016C6.88267 4.95467 7.45867 5.94667 8.056 6.992C8.65333 8.03733 9.00533 8.64533 9.112 8.816C9.56 9.47733 10.0507 10.1707 10.584 10.896C11.1387 11.6 11.448 11.952 11.512 11.952C11.5547 11.952 11.896 11.3973 12.536 10.288C13.0907 9.264 13.8373 8.048 14.776 6.64C15.7147 5.232 16.3973 4.304 16.824 3.856C17.2507 3.42933 17.7093 3.216 18.2 3.216C18.4987 3.216 18.7547 3.25867 18.968 3.344C19.2027 3.408 19.416 3.55733 19.608 3.792C19.8213 4.00533 19.992 4.28267 20.12 4.624C20.2693 4.944 20.408 5.41333 20.536 6.032C20.6853 6.65067 20.8027 7.33333 20.888 8.08C20.9733 8.80533 21.0587 9.75467 21.144 10.928C21.2507 12.08 21.336 13.3067 21.4 14.608C21.4853 15.9093 21.5707 17.488 21.656 19.344L21.88 23.664L21.336 24.208C20.952 24.592 20.5253 24.784 20.056 24.784C19.5867 24.784 19.1707 24.6027 18.808 24.24L18.296 23.728L18.04 19.12C17.72 13.1253 17.5067 9.95733 17.4 9.616C17.3573 9.50933 17.3147 9.44533 17.272 9.424C17.208 9.424 17.016 9.69067 16.696 10.224C16.2693 10.8853 15.672 11.9627 14.904 13.456C14.2 14.8213 13.6453 15.728 13.24 16.176C12.8347 16.624 12.3547 16.848 11.8 16.848C11.4587 16.848 11.192 16.7947 11 16.688C10.8293 16.56 10.488 16.24 9.976 15.728C9.42133 15.152 8.71733 14.32 7.864 13.232C7.032 12.1227 6.38133 11.184 5.912 10.416C5.57067 9.88267 5.34667 9.616 5.24 9.616H5.208C5.144 9.65867 5.06933 10.1067 4.984 10.96C4.92 11.792 4.84533 12.816 4.76 14.032C4.67467 15.2267 4.6 16.4107 4.536 17.584C4.472 18.7573 4.408 19.792 4.344 20.688C4.30133 21.584 4.28 22.0533 4.28 22.096C4.19467 23.248 3.77867 23.9413 3.032 24.176C2.88267 24.24 2.712 24.272 2.52 24.272C1.85867 24.272 1.32533 23.984 0.92 23.408C0.792 23.216 0.728 22.864 0.728 22.352C0.728 21.584 0.92 18.4053 1.304 12.816C1.624 8.272 1.86933 5.44533 2.04 4.336C2.21067 3.22667 2.53067 2.49067 3 2.128ZM34.5698 13.68C34.4631 13.3387 34.3671 13.1467 34.2818 13.104C34.1964 13.04 33.9618 13.008 33.5778 13.008C32.4684 13.0293 31.4338 13.552 30.4738 14.576C29.5138 15.5787 29.0338 16.592 29.0338 17.616C29.0338 18.128 29.1724 18.5547 29.4498 18.896C30.0684 19.5787 30.7191 19.92 31.4018 19.92C31.4444 19.92 31.4871 19.92 31.5298 19.92C31.5724 19.8987 31.6151 19.888 31.6578 19.888C32.0418 19.8027 32.4471 19.5467 32.8738 19.12C33.3218 18.6933 33.6631 18.224 33.8978 17.712C34.3884 16.56 34.6338 15.44 34.6338 14.352C34.6338 14.032 34.6124 13.808 34.5698 13.68ZM31.5938 9.648C32.1698 9.456 32.8311 9.36 33.5778 9.36C34.5591 9.36 35.3911 9.52 36.0738 9.84C36.5218 10.0747 36.9271 10.4267 37.2898 10.896C37.6738 11.344 37.9084 11.7707 37.9938 12.176C38.0791 12.5813 38.1964 12.9653 38.3458 13.328C38.5804 13.9467 39.0498 16.272 39.7537 20.304C39.8604 20.944 39.9138 21.424 39.9138 21.744C39.9138 23.024 39.3164 23.664 38.1218 23.664C37.7164 23.664 37.3431 23.504 37.0018 23.184C36.6818 22.864 36.4791 22.4693 36.3938 22C36.3084 21.5733 36.2338 21.328 36.1698 21.264C36.0844 21.2 35.8391 21.3707 35.4338 21.776C34.2178 22.992 32.8204 23.6 31.2418 23.6C30.9644 23.6 30.6764 23.568 30.3778 23.504C29.2044 23.248 28.1058 22.608 27.0818 21.584C25.9298 20.432 25.3538 19.1413 25.3538 17.712C25.3538 16.5813 25.7058 15.3547 26.4098 14.032C26.9431 13.0293 27.6684 12.1333 28.5858 11.344C29.5244 10.5547 30.5271 9.98933 31.5938 9.648ZM55.4155 8.272C55.6288 8.208 55.7888 8.176 55.8955 8.176C55.9808 8.176 56.2262 8.26133 56.6315 8.432C57.0582 8.60267 57.3568 8.89067 57.5275 9.296C57.6128 9.46667 57.6555 9.65867 57.6555 9.872C57.6555 10.192 57.3995 11.1627 56.8875 12.784C55.9488 15.792 54.7648 18.8107 53.3355 21.84C52.6742 23.2907 51.6608 25.168 50.2955 27.472C48.9302 29.7973 48.0982 31.0453 47.7995 31.216C47.4582 31.4293 47.1062 31.536 46.7435 31.536C46.2528 31.536 45.8262 31.3653 45.4635 31.024C45.1222 30.704 44.9515 30.2773 44.9515 29.744C44.9515 29.36 45.2928 28.6347 45.9755 27.568C46.5088 26.736 47.2022 25.5627 48.0555 24.048C48.9088 22.512 49.3355 21.6907 49.3355 21.584C49.3355 21.52 49.1008 21.0933 48.6315 20.304C48.4182 19.9627 47.6608 18.576 46.3595 16.144C45.0795 13.6907 44.3008 12.272 44.0235 11.888C43.6822 11.3973 43.5115 10.9067 43.5115 10.416C43.5115 9.712 43.8528 9.21067 44.5355 8.912C44.7915 8.80533 45.0155 8.752 45.2075 8.752C45.6555 8.752 46.0928 9.008 46.5195 9.52C46.9462 10.0107 47.4902 10.864 48.1515 12.08C49.5808 14.7253 50.5515 16.4533 51.0635 17.264C51.1702 17.4133 51.2342 17.488 51.2555 17.488C51.3408 17.488 51.5542 17.0293 51.8955 16.112C52.3862 14.768 52.8768 13.3387 53.3675 11.824C53.7942 10.4587 54.1355 9.552 54.3915 9.104C54.6688 8.656 55.0102 8.37867 55.4155 8.272ZM72.0455 15.152C71.6402 14.64 71.0642 14.2133 70.3175 13.872C69.5708 13.5307 68.7068 13.36 67.7255 13.36C67.1282 13.36 66.6695 13.4347 66.3495 13.584C66.0082 13.7333 65.6775 14.0747 65.3575 14.608C65.0588 15.12 64.9095 15.7493 64.9095 16.496V17.04C64.9735 18.5547 65.0162 19.4507 65.0375 19.728L65.1655 20.752L65.9335 20.88C66.2322 20.9227 66.4775 20.944 66.6695 20.944C67.9282 20.944 69.0695 20.6987 70.0935 20.208C70.6055 19.9733 71.0962 19.5893 71.5655 19.056C72.0562 18.5013 72.3868 17.9573 72.5575 17.424C72.6428 17.1253 72.6855 16.8907 72.6855 16.72C72.6855 16.1653 72.4722 15.6427 72.0455 15.152ZM61.9655 2.416C62.1788 2.30933 62.4348 2.256 62.7335 2.256C63.2455 2.256 63.6935 2.448 64.0775 2.832C64.3122 3.06667 64.4508 3.35467 64.4935 3.696C64.5575 4.016 64.6428 5.02933 64.7495 6.736C64.8562 8.976 64.9308 10.1173 64.9735 10.16H65.0055C65.1122 10.16 65.4855 10.0853 66.1255 9.936C66.8722 9.76533 67.5228 9.68 68.0775 9.68C69.1442 9.68 70.4455 10.032 71.9815 10.736C73.7308 11.5467 74.9575 12.6773 75.6615 14.128C75.8748 14.576 76.0028 14.9493 76.0455 15.248C76.1095 15.5467 76.1415 16.048 76.1415 16.752C76.1415 17.456 76.1095 17.9573 76.0455 18.256C75.9815 18.5333 75.8108 18.96 75.5335 19.536C74.9148 20.7307 74.0615 21.744 72.9735 22.576C71.8855 23.408 70.6802 23.9627 69.3575 24.24C68.5895 24.4107 67.7895 24.496 66.9575 24.496C66.1682 24.496 65.2402 24.4213 64.1735 24.272C63.3628 24.144 62.8295 24.0373 62.5735 23.952C62.3175 23.8667 62.0828 23.7067 61.8695 23.472L61.3895 22.96V17.968C61.3895 14.96 61.3255 11.7067 61.1975 8.208C61.1335 6.56533 61.1015 5.38133 61.1015 4.656C61.1015 3.80267 61.1548 3.25867 61.2615 3.024C61.3682 2.78933 61.6028 2.58667 61.9655 2.416ZM89.5543 13.808C89.1703 13.616 88.6263 13.52 87.9223 13.52C87.1543 13.52 86.5036 13.6373 85.9703 13.872C85.6076 14.0213 85.1383 14.352 84.5623 14.864C83.9863 15.3547 83.6983 15.6747 83.6983 15.824C83.6983 15.888 84.0289 15.92 84.6903 15.92C85.6716 15.92 86.8449 15.8667 88.2103 15.76C89.5756 15.6533 90.3543 15.536 90.5463 15.408C90.6103 15.3867 90.6423 15.3227 90.6423 15.216C90.6423 15.024 90.5249 14.7787 90.2903 14.48C90.0556 14.16 89.8103 13.936 89.5543 13.808ZM85.7783 10.096C86.3116 9.94667 86.9409 9.872 87.6663 9.872C89.0103 9.872 90.2369 10.1387 91.3463 10.672C92.1783 11.0987 92.8716 11.7493 93.4263 12.624C93.9809 13.4773 94.3223 14.4373 94.4503 15.504C94.4503 15.5467 94.4503 15.6107 94.4503 15.696C94.4716 15.7813 94.4823 15.8453 94.4823 15.888C94.4823 16.4427 94.3756 16.9867 94.1623 17.52C93.9703 18.0533 93.7356 18.416 93.4583 18.608C93.0956 18.864 90.5463 19.184 85.8103 19.568C84.8076 19.6533 84.3063 19.7493 84.3063 19.856C84.3063 19.984 84.5303 20.1867 84.9783 20.464C85.4263 20.7413 85.8636 20.9333 86.2903 21.04C86.6743 21.1253 86.9836 21.168 87.2183 21.168C87.9009 21.168 88.7863 20.944 89.8743 20.496C90.6423 20.176 91.2076 20.016 91.5703 20.016C91.9329 20.016 92.2743 20.176 92.5943 20.496C93.0209 20.9227 93.2343 21.328 93.2343 21.712C93.2343 21.968 93.1703 22.2347 93.0423 22.512C92.9356 22.768 92.7863 22.9707 92.5943 23.12C92.4236 23.2693 92.1036 23.4507 91.6343 23.664C90.0769 24.3467 88.6263 24.688 87.2823 24.688C86.5143 24.688 85.7249 24.5707 84.9143 24.336C83.8263 23.9947 82.8343 23.4187 81.9383 22.608C81.0423 21.776 80.4023 20.8587 80.0182 19.856C79.7836 19.1947 79.6663 18.4587 79.6663 17.648C79.6663 16.4747 79.8583 15.4933 80.2423 14.704C80.6903 13.7227 81.4476 12.784 82.5143 11.888C83.5809 10.992 84.6689 10.3947 85.7783 10.096ZM112.688 1.52C113.051 1.15733 113.488 0.975998 114 0.975998C114.384 0.975998 114.725 1.09333 115.024 1.328C115.344 1.54133 115.568 1.85067 115.696 2.256C115.76 2.49067 115.867 3.6 116.016 5.584C116.165 7.54667 116.24 8.912 116.24 9.68C116.24 9.872 116.283 9.98933 116.368 10.032C116.475 10.0747 116.72 10.096 117.104 10.096C117.68 10.096 118.011 10.032 118.096 9.904C118.139 9.79733 118.576 9.744 119.408 9.744C120.475 9.744 121.179 9.81867 121.52 9.968C121.84 10.1173 122.085 10.4053 122.256 10.832C122.405 11.1307 122.48 11.376 122.48 11.568C122.48 11.7173 122.448 11.8987 122.384 12.112C122.235 12.6027 121.957 12.9333 121.552 13.104C121.168 13.2533 120.4 13.36 119.248 13.424C117.947 13.488 117.104 13.5733 116.72 13.68L116.208 13.808L116.336 18.32C116.379 20.3253 116.4 21.4027 116.4 21.552C116.4 22.4907 116.325 23.12 116.176 23.44C115.856 24.1227 115.333 24.464 114.608 24.464C114.331 24.464 114.043 24.4 113.744 24.272C113.509 24.1653 113.339 24.0693 113.232 23.984C113.125 23.8773 113.029 23.6107 112.944 23.184C112.859 22.736 112.805 22.2133 112.784 21.616C112.763 21.0187 112.741 20.0373 112.72 18.672L112.656 14.032L111.696 14.064C111.12 14.1067 110.608 14.192 110.16 14.32C110.053 14.3627 109.883 14.384 109.648 14.384C108.923 14.384 108.4 14.16 108.08 13.712C107.909 13.4347 107.824 13.0613 107.824 12.592C107.824 12.1867 107.888 11.8667 108.016 11.632C108.315 11.0987 109.36 10.6933 111.152 10.416L112.624 10.192L112.496 7.376C112.411 5.37067 112.336 4.00533 112.272 3.28C112.229 2.768 112.208 2.49067 112.208 2.448C112.208 2.14933 112.368 1.84 112.688 1.52ZM126.777 1.552C127.139 1.25333 127.513 1.104 127.897 1.104C128.665 1.104 129.23 1.57333 129.593 2.512C129.742 2.93867 129.902 3.96267 130.073 5.584C130.243 7.184 130.382 8.67733 130.489 10.064C130.595 11.4293 130.659 12.112 130.681 12.112C130.723 12.112 131.075 11.8773 131.737 11.408C133.038 10.4907 134.275 10.032 135.449 10.032C136.537 10.032 137.486 10.4373 138.297 11.248C139.129 12.0373 139.779 13.2 140.249 14.736C140.611 15.9307 140.793 17.7867 140.793 20.304C140.793 21.8827 140.697 22.9493 140.505 23.504C140.291 24.08 139.801 24.368 139.033 24.368C138.521 24.368 138.094 24.1973 137.753 23.856L137.273 23.376L137.177 20.144C137.049 15.984 136.473 13.84 135.449 13.712H135.353C134.862 13.712 134.254 13.9893 133.529 14.544C132.803 15.0773 132.281 15.664 131.961 16.304C131.769 16.7307 131.513 17.04 131.193 17.232L130.777 17.52L130.713 21.008C130.67 22.7147 130.627 23.7493 130.585 24.112C130.563 24.4533 130.446 24.7307 130.233 24.944C129.891 25.3067 129.465 25.488 128.953 25.488C128.185 25.488 127.651 25.1467 127.353 24.464C127.203 24.0587 127.097 21.6053 127.033 17.104C126.926 9.57333 126.649 5.06133 126.201 3.568C126.137 3.33333 126.105 3.10933 126.105 2.896C126.105 2.34133 126.329 1.89333 126.777 1.552ZM153.059 12.944C152.675 12.6667 152.067 12.528 151.235 12.528C150.723 12.528 150.318 12.592 150.019 12.72C149.742 12.848 149.422 13.1147 149.059 13.52C148.718 13.904 148.547 14.1813 148.547 14.352C148.547 14.5013 148.707 14.576 149.027 14.576C149.454 14.5547 150.339 14.4587 151.683 14.288C153.027 14.1173 153.721 14.0107 153.763 13.968C153.785 13.9467 153.795 13.9147 153.795 13.872C153.795 13.6373 153.55 13.328 153.059 12.944ZM149.603 9.04C149.987 8.93333 150.457 8.88 151.011 8.88C152.142 8.88 153.113 9.04 153.923 9.36C154.585 9.59467 155.235 10.0533 155.875 10.736C156.537 11.3973 157.081 12.144 157.507 12.976C157.934 13.8293 158.147 14.4053 158.147 14.704C158.147 15.3867 157.849 16.0267 157.251 16.624C156.611 17.2 154.617 17.6267 151.267 17.904C149.987 18.0107 149.155 18.096 148.771 18.16C148.387 18.224 148.195 18.32 148.195 18.448C148.195 18.5547 148.387 18.7787 148.771 19.12C149.433 19.76 150.617 20.144 152.323 20.272C152.494 20.2933 152.718 20.304 152.995 20.304C153.443 20.304 153.977 20.1973 154.595 19.984C155.47 19.664 156.163 19.504 156.675 19.504C157.443 19.504 157.945 19.888 158.179 20.656C158.243 20.848 158.275 21.0293 158.275 21.2C158.275 21.9253 157.817 22.5227 156.899 22.992C156.003 23.44 154.734 23.696 153.091 23.76C153.006 23.76 152.889 23.7707 152.739 23.792C152.59 23.792 152.483 23.792 152.419 23.792C150.606 23.792 149.038 23.44 147.715 22.736C146.414 22.0107 145.433 20.9867 144.771 19.664C144.451 19.024 144.291 18.1707 144.291 17.104C144.291 16.0373 144.398 15.1947 144.611 14.576C145.145 12.976 145.806 11.7493 146.595 10.896C147.385 10.0213 148.387 9.40267 149.603 9.04ZM173.728 8.272C173.941 8.208 174.101 8.176 174.208 8.176C174.293 8.176 174.539 8.26133 174.944 8.432C175.371 8.60267 175.669 8.89067 175.84 9.296C175.925 9.46667 175.968 9.65867 175.968 9.872C175.968 10.192 175.712 11.1627 175.2 12.784C174.261 15.792 173.077 18.8107 171.648 21.84C170.987 23.2907 169.973 25.168 168.608 27.472C167.243 29.7973 166.411 31.0453 166.112 31.216C165.771 31.4293 165.419 31.536 165.056 31.536C164.565 31.536 164.139 31.3653 163.776 31.024C163.435 30.704 163.264 30.2773 163.264 29.744C163.264 29.36 163.605 28.6347 164.288 27.568C164.821 26.736 165.515 25.5627 166.368 24.048C167.221 22.512 167.648 21.6907 167.648 21.584C167.648 21.52 167.413 21.0933 166.944 20.304C166.731 19.9627 165.973 18.576 164.672 16.144C163.392 13.6907 162.613 12.272 162.336 11.888C161.995 11.3973 161.824 10.9067 161.824 10.416C161.824 9.712 162.165 9.21067 162.848 8.912C163.104 8.80533 163.328 8.752 163.52 8.752C163.968 8.752 164.405 9.008 164.832 9.52C165.259 10.0107 165.803 10.864 166.464 12.08C167.893 14.7253 168.864 16.4533 169.376 17.264C169.483 17.4133 169.547 17.488 169.568 17.488C169.653 17.488 169.867 17.0293 170.208 16.112C170.699 14.768 171.189 13.3387 171.68 11.824C172.107 10.4587 172.448 9.552 172.704 9.104C172.981 8.656 173.323 8.37867 173.728 8.272ZM189.816 8.08C190.2 7.90933 190.445 7.824 190.552 7.824C190.637 7.824 190.883 7.90933 191.288 8.08C191.672 8.22933 191.971 8.54933 192.184 9.04C192.419 9.53067 192.728 10.5227 193.112 12.016C194.157 16.1333 194.797 18.3093 195.032 18.544H195.064C195.149 18.544 195.469 17.9147 196.024 16.656C196.579 15.376 197.219 14.064 197.944 12.72C198.691 11.3547 199.32 10.5973 199.832 10.448C200.045 10.384 200.28 10.352 200.536 10.352C201.347 10.352 201.944 10.576 202.328 11.024C202.584 11.3227 202.979 12.1547 203.512 13.52C204.728 16.5493 205.4 18.064 205.528 18.064H205.56C205.624 18.0213 206.008 16.976 206.712 14.928C207.416 12.7947 207.896 11.4507 208.152 10.896C208.429 10.3413 208.771 9.97867 209.176 9.808C209.453 9.68 209.741 9.616 210.04 9.616C210.147 9.616 210.221 9.62667 210.264 9.648C210.605 9.73333 210.925 9.94667 211.224 10.288C211.544 10.6293 211.704 10.9493 211.704 11.248C211.704 11.5893 211.213 13.104 210.232 15.792C209.272 18.48 208.557 20.3147 208.088 21.296C207.597 22.32 207.192 22.992 206.872 23.312C206.552 23.6107 206.125 23.76 205.592 23.76C204.824 23.76 204.269 23.5573 203.928 23.152C203.608 22.7253 203.011 21.4987 202.136 19.472C201.091 17.104 200.515 15.92 200.408 15.92C200.301 15.92 199.821 16.88 198.968 18.8C197.944 21.1253 197.219 22.576 196.792 23.152C196.365 23.7067 195.768 23.984 195 23.984H194.84C194.115 23.9627 193.645 23.8453 193.432 23.632C192.621 22.9493 191.395 19.5467 189.752 13.424C189.133 11.12 188.824 9.78667 188.824 9.424C188.824 9.232 188.867 9.05067 188.952 8.88C189.144 8.47467 189.432 8.208 189.816 8.08ZM225.117 13.808C224.733 13.616 224.189 13.52 223.485 13.52C222.717 13.52 222.066 13.6373 221.533 13.872C221.17 14.0213 220.701 14.352 220.125 14.864C219.549 15.3547 219.261 15.6747 219.261 15.824C219.261 15.888 219.591 15.92 220.253 15.92C221.234 15.92 222.407 15.8667 223.773 15.76C225.138 15.6533 225.917 15.536 226.109 15.408C226.173 15.3867 226.205 15.3227 226.205 15.216C226.205 15.024 226.087 14.7787 225.853 14.48C225.618 14.16 225.373 13.936 225.117 13.808ZM221.341 10.096C221.874 9.94667 222.503 9.872 223.229 9.872C224.573 9.872 225.799 10.1387 226.909 10.672C227.741 11.0987 228.434 11.7493 228.989 12.624C229.543 13.4773 229.885 14.4373 230.013 15.504C230.013 15.5467 230.013 15.6107 230.013 15.696C230.034 15.7813 230.045 15.8453 230.045 15.888C230.045 16.4427 229.938 16.9867 229.725 17.52C229.533 18.0533 229.298 18.416 229.021 18.608C228.658 18.864 226.109 19.184 221.373 19.568C220.37 19.6533 219.869 19.7493 219.869 19.856C219.869 19.984 220.093 20.1867 220.541 20.464C220.989 20.7413 221.426 20.9333 221.853 21.04C222.237 21.1253 222.546 21.168 222.781 21.168C223.463 21.168 224.349 20.944 225.437 20.496C226.205 20.176 226.77 20.016 227.133 20.016C227.495 20.016 227.837 20.176 228.157 20.496C228.583 20.9227 228.797 21.328 228.797 21.712C228.797 21.968 228.733 22.2347 228.605 22.512C228.498 22.768 228.349 22.9707 228.157 23.12C227.986 23.2693 227.666 23.4507 227.197 23.664C225.639 24.3467 224.189 24.688 222.845 24.688C222.077 24.688 221.287 24.5707 220.477 24.336C219.389 23.9947 218.397 23.4187 217.501 22.608C216.605 21.776 215.965 20.8587 215.581 19.856C215.346 19.1947 215.229 18.4587 215.229 17.648C215.229 16.4747 215.421 15.4933 215.805 14.704C216.253 13.7227 217.01 12.784 218.077 11.888C219.143 10.992 220.231 10.3947 221.341 10.096ZM233.989 9.328C234.373 9.008 234.789 8.848 235.237 8.848C235.707 8.848 236.112 9.01867 236.453 9.36C236.795 9.68 236.965 10.096 236.965 10.608C236.965 11.12 237.061 11.376 237.253 11.376C237.36 11.376 237.584 11.2587 237.925 11.024C239.504 9.936 241.072 9.392 242.629 9.392C243.291 9.392 243.941 9.50933 244.581 9.744C245.157 9.97867 245.563 10.2347 245.797 10.512C246.032 10.7893 246.149 11.1627 246.149 11.632C246.149 12.144 245.957 12.5813 245.573 12.944C245.253 13.2427 244.965 13.392 244.709 13.392C244.624 13.392 244.027 13.3173 242.917 13.168C242.789 13.1467 242.608 13.136 242.373 13.136C242.032 13.136 241.595 13.2533 241.061 13.488C239.675 14.128 238.704 14.9387 238.149 15.92C237.595 16.9013 237.317 18.3093 237.317 20.144C237.296 21.488 237.136 22.4267 236.837 22.96C236.56 23.4933 236.059 23.76 235.333 23.76C234.843 23.76 234.427 23.5893 234.085 23.248L233.573 22.736L233.509 17.072C233.467 12.8907 233.445 10.736 233.445 10.608C233.445 10.096 233.627 9.66933 233.989 9.328ZM259.554 13.808C259.17 13.616 258.626 13.52 257.922 13.52C257.154 13.52 256.504 13.6373 255.97 13.872C255.608 14.0213 255.138 14.352 254.562 14.864C253.986 15.3547 253.698 15.6747 253.698 15.824C253.698 15.888 254.029 15.92 254.69 15.92C255.672 15.92 256.845 15.8667 258.21 15.76C259.576 15.6533 260.354 15.536 260.546 15.408C260.61 15.3867 260.642 15.3227 260.642 15.216C260.642 15.024 260.525 14.7787 260.29 14.48C260.056 14.16 259.81 13.936 259.554 13.808ZM255.778 10.096C256.312 9.94667 256.941 9.872 257.666 9.872C259.01 9.872 260.237 10.1387 261.346 10.672C262.178 11.0987 262.872 11.7493 263.426 12.624C263.981 13.4773 264.322 14.4373 264.45 15.504C264.45 15.5467 264.45 15.6107 264.45 15.696C264.472 15.7813 264.482 15.8453 264.482 15.888C264.482 16.4427 264.376 16.9867 264.162 17.52C263.97 18.0533 263.736 18.416 263.458 18.608C263.096 18.864 260.546 19.184 255.81 19.568C254.808 19.6533 254.306 19.7493 254.306 19.856C254.306 19.984 254.53 20.1867 254.978 20.464C255.426 20.7413 255.864 20.9333 256.29 21.04C256.674 21.1253 256.984 21.168 257.218 21.168C257.901 21.168 258.786 20.944 259.874 20.496C260.642 20.176 261.208 20.016 261.57 20.016C261.933 20.016 262.274 20.176 262.594 20.496C263.021 20.9227 263.234 21.328 263.234 21.712C263.234 21.968 263.17 22.2347 263.042 22.512C262.936 22.768 262.786 22.9707 262.594 23.12C262.424 23.2693 262.104 23.4507 261.634 23.664C260.077 24.3467 258.626 24.688 257.282 24.688C256.514 24.688 255.725 24.5707 254.914 24.336C253.826 23.9947 252.834 23.4187 251.938 22.608C251.042 21.776 250.402 20.8587 250.018 19.856C249.784 19.1947 249.666 18.4587 249.666 17.648C249.666 16.4747 249.858 15.4933 250.242 14.704C250.69 13.7227 251.448 12.784 252.514 11.888C253.581 10.992 254.669 10.3947 255.778 10.096ZM1.784 44.528C1.99733 44.4213 2.25333 44.368 2.552 44.368C3.64 44.368 4.32267 45.2853 4.6 47.12C4.664 47.6747 4.73867 47.952 4.824 47.952C4.84533 47.952 5.144 47.7067 5.72 47.216C6.89333 46.1707 8.088 45.648 9.304 45.648C9.96533 45.648 10.5947 45.8293 11.192 46.192C11.768 46.5547 12.1413 46.8747 12.312 47.152L12.6 47.6L13.368 46.896C14.5413 45.8507 15.8 45.328 17.144 45.328C18.4453 45.328 19.5653 45.8293 20.504 46.832C22.104 48.4747 23.0533 51.28 23.352 55.248C23.3947 55.9733 23.416 56.4213 23.416 56.592C23.416 57.1467 23.3413 57.552 23.192 57.808C23.064 58.064 22.8293 58.288 22.488 58.48C22.1893 58.6293 21.9013 58.704 21.624 58.704C21.1547 58.704 20.7387 58.4907 20.376 58.064C20.0987 57.7013 19.9173 57.0827 19.832 56.208C19.6613 54.2453 19.448 52.784 19.192 51.824C18.936 50.864 18.5733 50.1173 18.104 49.584C17.7413 49.2 17.368 49.008 16.984 49.008C16.2587 49.008 15.6187 49.5733 15.064 50.704C14.8507 51.152 14.712 51.568 14.648 51.952C14.584 52.336 14.5307 53.2107 14.488 54.576C14.4027 56.4533 14.296 57.5733 14.168 57.936C13.8693 58.64 13.3253 58.992 12.536 58.992C12.0667 58.992 11.672 58.832 11.352 58.512C10.84 58 10.52 56.4853 10.392 53.968C10.328 53.008 10.2107 52.08 10.04 51.184C9.86933 50.288 9.70933 49.7547 9.56 49.584C9.432 49.4347 9.29333 49.36 9.144 49.36C8.888 49.36 8.46133 49.6267 7.864 50.16C7.224 50.7573 6.744 51.3973 6.424 52.08C6.12533 52.6987 5.944 53.2 5.88 53.584C5.83733 53.9467 5.79467 55.1947 5.752 57.328C5.73067 57.8827 5.56 58.3307 5.24 58.672C4.92 59.0133 4.51467 59.184 4.024 59.184C3.53333 59.184 3.13867 59.088 2.84 58.896C2.41333 58.5973 2.11467 58.0213 1.944 57.168C1.77333 56.2933 1.58133 54.2347 1.368 50.992C1.24 49.072 1.09067 47.7707 0.92 47.088C0.792 46.576 0.728 46.2347 0.728 46.064C0.728 45.872 0.792 45.648 0.92 45.392C1.112 44.944 1.4 44.656 1.784 44.528ZM35.5883 47.6C35.0123 47.4933 34.5323 47.44 34.1483 47.44C33.2736 47.44 32.5376 47.6213 31.9403 47.984C31.6416 48.176 31.2896 48.8267 30.8843 49.936C30.5003 51.024 30.3083 51.8987 30.3083 52.56C30.3083 53.6267 30.6496 54.4907 31.3323 55.152C32.0363 55.792 32.9536 56.1227 34.0843 56.144C35.0016 56.144 35.8549 55.888 36.6443 55.376C37.4549 54.864 38.0416 54.192 38.4043 53.36C38.6389 52.8267 38.7563 52.2187 38.7563 51.536C38.7563 50.704 38.5963 49.9787 38.2763 49.36C38.0416 48.8693 37.7216 48.496 37.3163 48.24C36.9109 47.984 36.3349 47.7707 35.5883 47.6ZM31.9723 44.176C32.7189 43.984 33.4549 43.888 34.1803 43.888C35.5456 43.888 37.0069 44.2293 38.5643 44.912C39.6736 45.4027 40.5483 46.2667 41.1883 47.504C41.8496 48.7413 42.1909 50.2027 42.2123 51.888V52.08C42.2123 54.6187 41.0816 56.6773 38.8203 58.256C37.4123 59.2587 35.8443 59.76 34.1163 59.76C32.6869 59.76 31.3643 59.408 30.1483 58.704C28.9323 57.9787 28.0149 56.9653 27.3963 55.664C27.1829 55.216 27.0443 54.832 26.9803 54.512C26.9376 54.192 26.9163 53.52 26.9163 52.496C26.9376 50.9813 27.0976 49.7867 27.3963 48.912C28.1003 46.9707 28.9323 45.6587 29.8923 44.976C30.2763 44.6987 30.9696 44.432 31.9723 44.176ZM50.2408 44.496C50.6248 44.432 51.0194 44.4 51.4248 44.4C52.7048 44.4 53.8461 44.688 54.8488 45.264C55.8514 45.84 56.3528 46.5013 56.3528 47.248C56.3528 47.44 56.3208 47.6107 56.2568 47.76C55.9368 48.5707 55.4568 48.976 54.8168 48.976C54.3474 48.976 53.8141 48.8267 53.2168 48.528C52.5341 48.1867 51.9048 48.016 51.3288 48.016C50.7101 48.016 50.1981 48.2187 49.7928 48.624C49.5794 48.8373 49.4728 49.008 49.4728 49.136C49.4728 49.3067 49.6328 49.5093 49.9528 49.744C50.2941 49.9573 50.9128 50.2987 51.8088 50.768C53.2808 51.536 54.2728 52.1653 54.7848 52.656C55.2754 53.0827 55.7021 53.616 56.0648 54.256C56.4274 54.8747 56.6088 55.3973 56.6088 55.824C56.6088 56.3147 56.4808 56.8053 56.2248 57.296C55.9688 57.7867 55.6488 58.16 55.2648 58.416C54.2834 59.0773 53.0888 59.408 51.6808 59.408C50.3581 59.408 48.9928 59.0987 47.5848 58.48C46.9234 58.16 46.5074 57.7973 46.3368 57.392C46.2088 57.0933 46.1448 56.8267 46.1448 56.592C46.1448 56.1653 46.3474 55.7493 46.7528 55.344C47.0301 55.024 47.4034 54.864 47.8728 54.864C48.3208 54.864 48.8648 55.0027 49.5048 55.28C50.2088 55.5787 51.0194 55.728 51.9368 55.728C52.3634 55.728 52.5768 55.6747 52.5768 55.568C52.5768 55.312 51.6594 54.7253 49.8248 53.808C48.3954 53.0613 47.3501 52.3253 46.6888 51.6C46.0274 50.8533 45.6968 50.032 45.6968 49.136C45.6968 48.0693 46.1341 47.088 47.0088 46.192C47.9048 45.2747 48.9821 44.7093 50.2408 44.496ZM65.0958 38.192C65.4371 37.9787 65.7571 37.872 66.0558 37.872C66.2904 37.872 66.5571 37.936 66.8558 38.064C67.3038 38.2773 67.5918 38.608 67.7198 39.056C67.8478 39.504 67.9331 40.5707 67.9758 42.256L68.0718 45.424L69.5438 45.328C69.7144 45.3067 69.9598 45.296 70.2798 45.296C71.0478 45.296 71.5918 45.4347 71.9118 45.712C72.2531 45.9893 72.4238 46.4373 72.4238 47.056C72.4238 47.7173 72.1998 48.1867 71.7518 48.464C71.3251 48.7413 70.4931 48.9333 69.2558 49.04L67.9118 49.168L67.6878 53.616C67.5384 56.624 67.3998 58.288 67.2718 58.608C66.9944 59.248 66.4611 59.568 65.6718 59.568C65.2238 59.568 64.8718 59.4507 64.6158 59.216C64.3384 59.0027 64.1464 58.768 64.0398 58.512C63.9331 58.256 63.8798 57.84 63.8798 57.264C63.8798 56.7947 63.9118 56.0907 63.9758 55.152C64.0824 53.4667 64.1571 52.0267 64.1998 50.832L64.2318 49.328L62.7918 49.296C61.9811 49.2747 61.4264 49.2107 61.1278 49.104C60.8291 48.976 60.5731 48.72 60.3598 48.336C60.2318 48.08 60.1678 47.8133 60.1678 47.536C60.1678 47.024 60.3811 46.576 60.8078 46.192C61.0424 45.9787 61.3411 45.84 61.7038 45.776C62.0664 45.6907 62.7384 45.6053 63.7198 45.52L64.2318 45.456L64.3598 42.064C64.3811 41.552 64.3918 40.9973 64.3918 40.4C64.4131 39.7813 64.4238 39.3227 64.4238 39.024L64.4558 38.576L64.5518 38.512C64.6158 38.4693 64.7011 38.416 64.8078 38.352C64.9144 38.288 65.0104 38.2347 65.0958 38.192ZM77.4188 38.864C77.6961 38.7573 77.9414 38.704 78.1548 38.704C78.4748 38.704 78.7948 38.8 79.1148 38.992C79.4348 39.2053 79.6481 39.44 79.7548 39.696C79.8828 39.952 79.9468 40.4427 79.9468 41.168C79.9468 42 79.9041 43.056 79.8188 44.336C79.6694 46.96 79.5734 50.0533 79.5308 53.616C79.5308 57.0933 79.4561 58.9707 79.3068 59.248C79.2001 59.4613 78.9761 59.6747 78.6348 59.888C78.3148 60.08 78.0374 60.176 77.8028 60.176C77.5468 60.176 77.2588 60.0693 76.9388 59.856C76.6188 59.6427 76.3948 59.408 76.2668 59.152C76.0108 58.64 75.8828 56.9227 75.8828 54C75.8828 51.056 76.0108 47.1733 76.2668 42.352C76.3308 41.0933 76.4374 40.24 76.5868 39.792C76.7361 39.344 77.0134 39.0347 77.4188 38.864ZM95.3843 44.272C95.5976 44.208 95.7576 44.176 95.8643 44.176C95.9496 44.176 96.1949 44.2613 96.6003 44.432C97.0269 44.6027 97.3256 44.8907 97.4963 45.296C97.5816 45.4667 97.6243 45.6587 97.6243 45.872C97.6243 46.192 97.3683 47.1627 96.8563 48.784C95.9176 51.792 94.7336 54.8107 93.3043 57.84C92.6429 59.2907 91.6296 61.168 90.2643 63.472C88.8989 65.7973 88.0669 67.0453 87.7683 67.216C87.4269 67.4293 87.0749 67.536 86.7123 67.536C86.2216 67.536 85.7949 67.3653 85.4323 67.024C85.0909 66.704 84.9203 66.2773 84.9203 65.744C84.9203 65.36 85.2616 64.6347 85.9443 63.568C86.4776 62.736 87.1709 61.5627 88.0243 60.048C88.8776 58.512 89.3043 57.6907 89.3043 57.584C89.3043 57.52 89.0696 57.0933 88.6003 56.304C88.3869 55.9627 87.6296 54.576 86.3283 52.144C85.0483 49.6907 84.2696 48.272 83.9923 47.888C83.6509 47.3973 83.4803 46.9067 83.4803 46.416C83.4803 45.712 83.8216 45.2107 84.5043 44.912C84.7603 44.8053 84.9843 44.752 85.1763 44.752C85.6243 44.752 86.0616 45.008 86.4883 45.52C86.9149 46.0107 87.4589 46.864 88.1203 48.08C89.5496 50.7253 90.5203 52.4533 91.0323 53.264C91.1389 53.4133 91.2029 53.488 91.2243 53.488C91.3096 53.488 91.5229 53.0293 91.8643 52.112C92.3549 50.768 92.8456 49.3387 93.3363 47.824C93.7629 46.4587 94.1043 45.552 94.3603 45.104C94.6376 44.656 94.9789 44.3787 95.3843 44.272ZM116.075 38.864C116.352 38.7573 116.598 38.704 116.811 38.704C117.131 38.704 117.451 38.8 117.771 38.992C118.091 39.2053 118.304 39.44 118.411 39.696C118.539 39.952 118.603 40.4427 118.603 41.168C118.603 42 118.56 43.056 118.475 44.336C118.326 46.96 118.23 50.0533 118.187 53.616C118.187 57.0933 118.112 58.9707 117.963 59.248C117.856 59.4613 117.632 59.6747 117.291 59.888C116.971 60.08 116.694 60.176 116.459 60.176C116.203 60.176 115.915 60.0693 115.595 59.856C115.275 59.6427 115.051 59.408 114.923 59.152C114.667 58.64 114.539 56.9227 114.539 54C114.539 51.056 114.667 47.1733 114.923 42.352C114.987 41.0933 115.094 40.24 115.243 39.792C115.392 39.344 115.67 39.0347 116.075 38.864ZM123.769 44.912C123.854 44.8907 123.982 44.88 124.153 44.88C124.558 44.88 124.931 44.9867 125.273 45.2C125.614 45.392 125.849 45.6587 125.977 46C126.062 46.192 126.147 47.6533 126.233 50.384C126.339 53.0933 126.393 55.2267 126.393 56.784C126.393 57.4453 126.382 57.8293 126.361 57.936C126.254 58.7467 125.902 59.2907 125.305 59.568C125.006 59.696 124.771 59.76 124.601 59.76C124.473 59.76 124.281 59.728 124.025 59.664C123.534 59.5147 123.225 59.312 123.097 59.056C122.841 58.5653 122.691 56.6667 122.649 53.36C122.649 52.7627 122.638 51.728 122.617 50.256L122.585 45.872L122.969 45.424C123.225 45.1253 123.491 44.9547 123.769 44.912ZM123.001 38.896C123.257 38.768 123.502 38.704 123.737 38.704C124.206 38.704 124.622 38.896 124.985 39.28C125.347 39.6427 125.529 40.0693 125.529 40.56C125.529 40.9013 125.443 41.2 125.273 41.456C124.91 42.032 124.419 42.32 123.801 42.32C123.395 42.32 123.022 42.1813 122.681 41.904C122.339 41.6267 122.126 41.2427 122.041 40.752C122.041 40.7307 122.03 40.6987 122.009 40.656C122.009 40.592 122.009 40.5493 122.009 40.528C122.009 40.208 122.105 39.8987 122.297 39.6C122.489 39.28 122.723 39.0453 123.001 38.896ZM130.558 38.608C130.878 38.4373 131.208 38.352 131.55 38.352C131.998 38.352 132.382 38.5227 132.702 38.864C133.022 39.2053 133.214 39.6747 133.278 40.272C133.342 40.784 133.427 42.2667 133.534 44.72C133.662 47.152 133.726 48.7093 133.726 49.392C133.726 49.968 133.779 50.2347 133.886 50.192C134.056 50.128 134.536 49.5627 135.326 48.496C136.115 47.4293 136.606 46.6827 136.798 46.256C137.246 45.3173 137.811 44.848 138.494 44.848C138.814 44.848 139.123 44.9227 139.422 45.072C140.062 45.3707 140.382 45.9147 140.382 46.704C140.382 47.0453 140.296 47.4187 140.126 47.824C139.976 48.1867 139.347 49.104 138.238 50.576C137.022 52.2187 136.403 53.072 136.382 53.136C136.339 53.2213 136.318 53.2853 136.318 53.328C136.318 53.52 137.171 54.2027 138.878 55.376C140.734 56.656 141.726 57.392 141.854 57.584C142.024 57.8187 142.11 58.1067 142.11 58.448C142.11 58.9173 141.95 59.3333 141.63 59.696C141.31 60.0373 140.904 60.2187 140.414 60.24C140.094 60.24 139.731 60.144 139.326 59.952C138.942 59.7387 138.142 59.216 136.926 58.384C135.048 57.1253 134.088 56.496 134.046 56.496C134.024 56.496 133.971 57.0827 133.886 58.256C133.843 59.0667 133.79 59.5893 133.726 59.824C133.683 60.0373 133.544 60.272 133.31 60.528C132.947 60.8907 132.52 61.072 132.03 61.072C131.667 61.072 131.336 60.976 131.038 60.784C130.739 60.5707 130.536 60.2933 130.43 59.952C130.344 59.6533 130.259 57.1893 130.174 52.56C130.11 48.464 130.003 45.2213 129.854 42.832C129.79 41.872 129.758 41.136 129.758 40.624C129.758 39.984 129.811 39.536 129.918 39.28C130.046 39.0027 130.259 38.7787 130.558 38.608ZM155.648 49.808C155.264 49.616 154.72 49.52 154.016 49.52C153.248 49.52 152.597 49.6373 152.064 49.872C151.701 50.0213 151.232 50.352 150.656 50.864C150.08 51.3547 149.792 51.6747 149.792 51.824C149.792 51.888 150.123 51.92 150.784 51.92C151.765 51.92 152.939 51.8667 154.304 51.76C155.669 51.6533 156.448 51.536 156.64 51.408C156.704 51.3867 156.736 51.3227 156.736 51.216C156.736 51.024 156.619 50.7787 156.384 50.48C156.149 50.16 155.904 49.936 155.648 49.808ZM151.872 46.096C152.405 45.9467 153.035 45.872 153.76 45.872C155.104 45.872 156.331 46.1387 157.44 46.672C158.272 47.0987 158.965 47.7493 159.52 48.624C160.075 49.4773 160.416 50.4373 160.544 51.504C160.544 51.5467 160.544 51.6107 160.544 51.696C160.565 51.7813 160.576 51.8453 160.576 51.888C160.576 52.4427 160.469 52.9867 160.256 53.52C160.064 54.0533 159.829 54.416 159.552 54.608C159.189 54.864 156.64 55.184 151.904 55.568C150.901 55.6533 150.4 55.7493 150.4 55.856C150.4 55.984 150.624 56.1867 151.072 56.464C151.52 56.7413 151.957 56.9333 152.384 57.04C152.768 57.1253 153.077 57.168 153.312 57.168C153.995 57.168 154.88 56.944 155.968 56.496C156.736 56.176 157.301 56.016 157.664 56.016C158.027 56.016 158.368 56.176 158.688 56.496C159.115 56.9227 159.328 57.328 159.328 57.712C159.328 57.968 159.264 58.2347 159.136 58.512C159.029 58.768 158.88 58.9707 158.688 59.12C158.517 59.2693 158.197 59.4507 157.728 59.664C156.171 60.3467 154.72 60.688 153.376 60.688C152.608 60.688 151.819 60.5707 151.008 60.336C149.92 59.9947 148.928 59.4187 148.032 58.608C147.136 57.776 146.496 56.8587 146.112 55.856C145.877 55.1947 145.76 54.4587 145.76 53.648C145.76 52.4747 145.952 51.4933 146.336 50.704C146.784 49.7227 147.541 48.784 148.608 47.888C149.675 46.992 150.763 46.3947 151.872 46.096ZM178.782 37.52C179.144 37.1573 179.582 36.976 180.094 36.976C180.478 36.976 180.819 37.0933 181.118 37.328C181.438 37.5413 181.662 37.8507 181.79 38.256C181.854 38.4907 181.96 39.6 182.11 41.584C182.259 43.5467 182.334 44.912 182.334 45.68C182.334 45.872 182.376 45.9893 182.462 46.032C182.568 46.0747 182.814 46.096 183.198 46.096C183.774 46.096 184.104 46.032 184.19 45.904C184.232 45.7973 184.67 45.744 185.502 45.744C186.568 45.744 187.272 45.8187 187.614 45.968C187.934 46.1173 188.179 46.4053 188.35 46.832C188.499 47.1307 188.574 47.376 188.574 47.568C188.574 47.7173 188.542 47.8987 188.478 48.112C188.328 48.6027 188.051 48.9333 187.646 49.104C187.262 49.2533 186.494 49.36 185.342 49.424C184.04 49.488 183.198 49.5733 182.814 49.68L182.302 49.808L182.43 54.32C182.472 56.3253 182.494 57.4027 182.494 57.552C182.494 58.4907 182.419 59.12 182.27 59.44C181.95 60.1227 181.427 60.464 180.702 60.464C180.424 60.464 180.136 60.4 179.838 60.272C179.603 60.1653 179.432 60.0693 179.326 59.984C179.219 59.8773 179.123 59.6107 179.038 59.184C178.952 58.736 178.899 58.2133 178.878 57.616C178.856 57.0187 178.835 56.0373 178.814 54.672L178.75 50.032L177.79 50.064C177.214 50.1067 176.702 50.192 176.254 50.32C176.147 50.3627 175.976 50.384 175.742 50.384C175.016 50.384 174.494 50.16 174.174 49.712C174.003 49.4347 173.918 49.0613 173.918 48.592C173.918 48.1867 173.982 47.8667 174.11 47.632C174.408 47.0987 175.454 46.6933 177.246 46.416L178.718 46.192L178.59 43.376C178.504 41.3707 178.43 40.0053 178.366 39.28C178.323 38.768 178.302 38.4907 178.302 38.448C178.302 38.1493 178.462 37.84 178.782 37.52ZM192.87 37.552C193.233 37.2533 193.606 37.104 193.99 37.104C194.758 37.104 195.324 37.5733 195.686 38.512C195.836 38.9387 195.996 39.9627 196.166 41.584C196.337 43.184 196.476 44.6773 196.582 46.064C196.689 47.4293 196.753 48.112 196.774 48.112C196.817 48.112 197.169 47.8773 197.83 47.408C199.132 46.4907 200.369 46.032 201.542 46.032C202.63 46.032 203.58 46.4373 204.39 47.248C205.222 48.0373 205.873 49.2 206.342 50.736C206.705 51.9307 206.886 53.7867 206.886 56.304C206.886 57.8827 206.79 58.9493 206.598 59.504C206.385 60.08 205.894 60.368 205.126 60.368C204.614 60.368 204.188 60.1973 203.846 59.856L203.366 59.376L203.27 56.144C203.142 51.984 202.566 49.84 201.542 49.712H201.446C200.956 49.712 200.348 49.9893 199.622 50.544C198.897 51.0773 198.374 51.664 198.054 52.304C197.862 52.7307 197.606 53.04 197.286 53.232L196.87 53.52L196.806 57.008C196.764 58.7147 196.721 59.7493 196.678 60.112C196.657 60.4533 196.54 60.7307 196.326 60.944C195.985 61.3067 195.558 61.488 195.046 61.488C194.278 61.488 193.745 61.1467 193.446 60.464C193.297 60.0587 193.19 57.6053 193.126 53.104C193.02 45.5733 192.742 41.0613 192.294 39.568C192.23 39.3333 192.198 39.1093 192.198 38.896C192.198 38.3413 192.422 37.8933 192.87 37.552ZM220.273 49.808C219.889 49.616 219.345 49.52 218.641 49.52C217.873 49.52 217.222 49.6373 216.689 49.872C216.326 50.0213 215.857 50.352 215.281 50.864C214.705 51.3547 214.417 51.6747 214.417 51.824C214.417 51.888 214.748 51.92 215.409 51.92C216.39 51.92 217.564 51.8667 218.929 51.76C220.294 51.6533 221.073 51.536 221.265 51.408C221.329 51.3867 221.361 51.3227 221.361 51.216C221.361 51.024 221.244 50.7787 221.009 50.48C220.774 50.16 220.529 49.936 220.273 49.808ZM216.497 46.096C217.03 45.9467 217.66 45.872 218.385 45.872C219.729 45.872 220.956 46.1387 222.065 46.672C222.897 47.0987 223.59 47.7493 224.145 48.624C224.7 49.4773 225.041 50.4373 225.169 51.504C225.169 51.5467 225.169 51.6107 225.169 51.696C225.19 51.7813 225.201 51.8453 225.201 51.888C225.201 52.4427 225.094 52.9867 224.881 53.52C224.689 54.0533 224.454 54.416 224.177 54.608C223.814 54.864 221.265 55.184 216.529 55.568C215.526 55.6533 215.025 55.7493 215.025 55.856C215.025 55.984 215.249 56.1867 215.697 56.464C216.145 56.7413 216.582 56.9333 217.009 57.04C217.393 57.1253 217.702 57.168 217.937 57.168C218.62 57.168 219.505 56.944 220.593 56.496C221.361 56.176 221.926 56.016 222.289 56.016C222.652 56.016 222.993 56.176 223.313 56.496C223.74 56.9227 223.953 57.328 223.953 57.712C223.953 57.968 223.889 58.2347 223.761 58.512C223.654 58.768 223.505 58.9707 223.313 59.12C223.142 59.2693 222.822 59.4507 222.353 59.664C220.796 60.3467 219.345 60.688 218.001 60.688C217.233 60.688 216.444 60.5707 215.633 60.336C214.545 59.9947 213.553 59.4187 212.657 58.608C211.761 57.776 211.121 56.8587 210.737 55.856C210.502 55.1947 210.385 54.4587 210.385 53.648C210.385 52.4747 210.577 51.4933 210.961 50.704C211.409 49.7227 212.166 48.784 213.233 47.888C214.3 46.992 215.388 46.3947 216.497 46.096ZM248.737 52.304C248.737 51.6213 248.332 50.928 247.521 50.224C246.711 49.52 245.857 49.168 244.961 49.168C244.407 49.1893 244.012 49.264 243.777 49.392C243.543 49.52 243.319 49.808 243.105 50.256C242.913 50.704 242.817 51.1627 242.817 51.632C242.817 51.76 242.839 52.2933 242.881 53.232L243.009 55.472L243.585 55.568C243.649 55.5893 243.745 55.6 243.873 55.6C244.449 55.6 245.143 55.408 245.953 55.024C246.785 54.6187 247.489 54.1387 248.065 53.584C248.513 53.136 248.737 52.7093 248.737 52.304ZM240.257 45.456C240.279 45.456 240.311 45.456 240.353 45.456C240.396 45.4347 240.439 45.424 240.481 45.424C241.1 45.424 241.559 45.5733 241.857 45.872C241.964 45.936 242.081 45.968 242.209 45.968C242.38 45.968 242.668 45.904 243.073 45.776C243.649 45.6053 244.215 45.52 244.769 45.52C245.793 45.52 246.817 45.7547 247.841 46.224C248.887 46.672 249.772 47.2907 250.497 48.08C251.756 49.4667 252.385 50.896 252.385 52.368C252.385 54.0747 251.575 55.5253 249.953 56.72C248.993 57.4453 247.948 58.0427 246.817 58.512C245.687 58.9813 244.759 59.216 244.033 59.216C243.841 59.216 243.703 59.2053 243.617 59.184L243.105 59.088C243.148 59.856 243.191 61.0187 243.233 62.576C243.276 64.1333 243.319 65.3067 243.361 66.096L242.721 66.736C242.295 67.1627 241.879 67.376 241.473 67.376C241.089 67.376 240.716 67.1947 240.353 66.832C240.033 66.512 239.831 66.2027 239.745 65.904C239.703 65.648 239.607 63.2693 239.457 58.768C239.351 54.288 239.233 51.4933 239.105 50.384C238.999 49.3813 238.945 48.4427 238.945 47.568C238.945 47.056 238.967 46.7253 239.009 46.576C239.073 46.4053 239.212 46.2133 239.425 46C239.745 45.68 240.023 45.4987 240.257 45.456ZM256.589 37.552C256.952 37.2533 257.325 37.104 257.709 37.104C258.477 37.104 259.042 37.5733 259.405 38.512C259.554 38.9387 259.714 39.9627 259.885 41.584C260.056 43.184 260.194 44.6773 260.301 46.064C260.408 47.4293 260.472 48.112 260.493 48.112C260.536 48.112 260.888 47.8773 261.549 47.408C262.85 46.4907 264.088 46.032 265.261 46.032C266.349 46.032 267.298 46.4373 268.109 47.248C268.941 48.0373 269.592 49.2 270.061 50.736C270.424 51.9307 270.605 53.7867 270.605 56.304C270.605 57.8827 270.509 58.9493 270.317 59.504C270.104 60.08 269.613 60.368 268.845 60.368C268.333 60.368 267.906 60.1973 267.565 59.856L267.085 59.376L266.989 56.144C266.861 51.984 266.285 49.84 265.261 49.712H265.165C264.674 49.712 264.066 49.9893 263.341 50.544C262.616 51.0773 262.093 51.664 261.773 52.304C261.581 52.7307 261.325 53.04 261.005 53.232L260.589 53.52L260.525 57.008C260.482 58.7147 260.44 59.7493 260.397 60.112C260.376 60.4533 260.258 60.7307 260.045 60.944C259.704 61.3067 259.277 61.488 258.765 61.488C257.997 61.488 257.464 61.1467 257.165 60.464C257.016 60.0587 256.909 57.6053 256.845 53.104C256.738 45.5733 256.461 41.0613 256.013 39.568C255.949 39.3333 255.917 39.1093 255.917 38.896C255.917 38.3413 256.141 37.8933 256.589 37.552ZM282.776 47.6C282.2 47.4933 281.72 47.44 281.336 47.44C280.461 47.44 279.725 47.6213 279.128 47.984C278.829 48.176 278.477 48.8267 278.072 49.936C277.688 51.024 277.496 51.8987 277.496 52.56C277.496 53.6267 277.837 54.4907 278.52 55.152C279.224 55.792 280.141 56.1227 281.272 56.144C282.189 56.144 283.042 55.888 283.832 55.376C284.642 54.864 285.229 54.192 285.592 53.36C285.826 52.8267 285.944 52.2187 285.944 51.536C285.944 50.704 285.784 49.9787 285.464 49.36C285.229 48.8693 284.909 48.496 284.504 48.24C284.098 47.984 283.522 47.7707 282.776 47.6ZM279.16 44.176C279.906 43.984 280.642 43.888 281.368 43.888C282.733 43.888 284.194 44.2293 285.752 44.912C286.861 45.4027 287.736 46.2667 288.376 47.504C289.037 48.7413 289.378 50.2027 289.4 51.888V52.08C289.4 54.6187 288.269 56.6773 286.008 58.256C284.6 59.2587 283.032 59.76 281.304 59.76C279.874 59.76 278.552 59.408 277.336 58.704C276.12 57.9787 275.202 56.9653 274.584 55.664C274.37 55.216 274.232 54.832 274.168 54.512C274.125 54.192 274.104 53.52 274.104 52.496C274.125 50.9813 274.285 49.7867 274.584 48.912C275.288 46.9707 276.12 45.6587 277.08 44.976C277.464 44.6987 278.157 44.432 279.16 44.176ZM297.844 37.52C298.207 37.1573 298.644 36.976 299.156 36.976C299.54 36.976 299.882 37.0933 300.18 37.328C300.5 37.5413 300.724 37.8507 300.852 38.256C300.916 38.4907 301.023 39.6 301.172 41.584C301.322 43.5467 301.396 44.912 301.396 45.68C301.396 45.872 301.439 45.9893 301.524 46.032C301.631 46.0747 301.876 46.096 302.26 46.096C302.836 46.096 303.167 46.032 303.252 45.904C303.295 45.7973 303.732 45.744 304.564 45.744C305.631 45.744 306.335 45.8187 306.676 45.968C306.996 46.1173 307.242 46.4053 307.412 46.832C307.562 47.1307 307.636 47.376 307.636 47.568C307.636 47.7173 307.604 47.8987 307.54 48.112C307.391 48.6027 307.114 48.9333 306.708 49.104C306.324 49.2533 305.556 49.36 304.404 49.424C303.103 49.488 302.26 49.5733 301.876 49.68L301.364 49.808L301.492 54.32C301.535 56.3253 301.556 57.4027 301.556 57.552C301.556 58.4907 301.482 59.12 301.332 59.44C301.012 60.1227 300.49 60.464 299.764 60.464C299.487 60.464 299.199 60.4 298.9 60.272C298.666 60.1653 298.495 60.0693 298.388 59.984C298.282 59.8773 298.186 59.6107 298.1 59.184C298.015 58.736 297.962 58.2133 297.94 57.616C297.919 57.0187 297.898 56.0373 297.876 54.672L297.812 50.032L296.852 50.064C296.276 50.1067 295.764 50.192 295.316 50.32C295.21 50.3627 295.039 50.384 294.804 50.384C294.079 50.384 293.556 50.16 293.236 49.712C293.066 49.4347 292.98 49.0613 292.98 48.592C292.98 48.1867 293.044 47.8667 293.172 47.632C293.471 47.0987 294.516 46.6933 296.308 46.416L297.78 46.192L297.652 43.376C297.567 41.3707 297.492 40.0053 297.428 39.28C297.386 38.768 297.364 38.4907 297.364 38.448C297.364 38.1493 297.524 37.84 297.844 37.52ZM319.901 47.6C319.325 47.4933 318.845 47.44 318.461 47.44C317.586 47.44 316.85 47.6213 316.253 47.984C315.954 48.176 315.602 48.8267 315.197 49.936C314.813 51.024 314.621 51.8987 314.621 52.56C314.621 53.6267 314.962 54.4907 315.645 55.152C316.349 55.792 317.266 56.1227 318.397 56.144C319.314 56.144 320.167 55.888 320.957 55.376C321.767 54.864 322.354 54.192 322.717 53.36C322.951 52.8267 323.069 52.2187 323.069 51.536C323.069 50.704 322.909 49.9787 322.589 49.36C322.354 48.8693 322.034 48.496 321.629 48.24C321.223 47.984 320.647 47.7707 319.901 47.6ZM316.285 44.176C317.031 43.984 317.767 43.888 318.493 43.888C319.858 43.888 321.319 44.2293 322.877 44.912C323.986 45.4027 324.861 46.2667 325.501 47.504C326.162 48.7413 326.503 50.2027 326.525 51.888V52.08C326.525 54.6187 325.394 56.6773 323.133 58.256C321.725 59.2587 320.157 59.76 318.429 59.76C316.999 59.76 315.677 59.408 314.461 58.704C313.245 57.9787 312.327 56.9653 311.709 55.664C311.495 55.216 311.357 54.832 311.293 54.512C311.25 54.192 311.229 53.52 311.229 52.496C311.25 50.9813 311.41 49.7867 311.709 48.912C312.413 46.9707 313.245 45.6587 314.205 44.976C314.589 44.6987 315.282 44.432 316.285 44.176ZM333.529 44.208C333.913 44.1013 334.511 44.048 335.321 44.048C337.028 44.048 338.265 44.176 339.033 44.432C340.1 44.7733 340.633 45.36 340.633 46.192C340.633 46.6827 340.399 47.1307 339.929 47.536C339.609 47.8347 339.3 47.984 339.001 47.984C338.98 47.984 338.937 47.984 338.873 47.984C338.809 47.9627 338.756 47.952 338.713 47.952C337.305 47.7173 336.196 47.6 335.385 47.6C335.129 47.6 334.895 47.6213 334.681 47.664C334.02 47.8347 333.689 48.144 333.689 48.592C333.689 48.6773 333.7 48.7413 333.721 48.784C333.871 49.2107 334.713 49.744 336.249 50.384C339.001 51.536 340.697 52.9653 341.337 54.672C341.529 55.184 341.625 55.664 341.625 56.112C341.625 56.9013 341.337 57.5733 340.761 58.128C340.207 58.6827 339.417 59.056 338.393 59.248C337.967 59.3333 337.263 59.376 336.281 59.376C334.489 59.376 333.348 59.2693 332.857 59.056C332.58 58.928 332.345 58.7147 332.153 58.416C331.961 58.096 331.865 57.7867 331.865 57.488C331.865 57.168 331.972 56.848 332.185 56.528C332.399 56.1867 332.655 55.952 332.953 55.824C333.231 55.7173 333.561 55.664 333.945 55.664C334.095 55.664 334.425 55.6853 334.937 55.728C335.279 55.7707 335.737 55.792 336.313 55.792C337.209 55.792 337.657 55.6853 337.657 55.472C337.657 55.088 336.729 54.512 334.873 53.744C333.209 53.0187 331.983 52.2613 331.193 51.472C330.425 50.6613 330.041 49.744 330.041 48.72C330.041 48.5493 330.063 48.2933 330.105 47.952C330.276 46.9067 330.703 46.0747 331.385 45.456C331.94 44.9013 332.655 44.4853 333.529 44.208ZM1.336 76.272C1.67733 75.952 1.99733 75.792 2.296 75.792C2.46667 75.792 2.616 75.8027 2.744 75.824C3.32 75.888 3.72533 76.08 3.96 76.4L4.376 76.88L4.312 85.264C4.29067 90.7893 4.19467 93.7653 4.024 94.192C3.74667 94.832 3.21333 95.152 2.424 95.152C2.168 95.152 1.976 95.1307 1.848 95.088C1.528 94.9813 1.31467 94.9067 1.208 94.864C1.12267 94.8 1.016 94.608 0.888 94.288C0.781333 93.9467 0.717333 93.4773 0.696 92.88C0.674667 92.2827 0.664 91.3653 0.664 90.128C0.664 89.7867 0.664 89.0933 0.664 88.048C0.685333 87.0027 0.696 86.128 0.696 85.424L0.728 76.784L1.336 76.272ZM22.5958 74.192C22.9371 73.9787 23.2571 73.872 23.5558 73.872C23.7904 73.872 24.0571 73.936 24.3558 74.064C24.8038 74.2773 25.0918 74.608 25.2198 75.056C25.3478 75.504 25.4331 76.5707 25.4758 78.256L25.5718 81.424L27.0438 81.328C27.2144 81.3067 27.4598 81.296 27.7798 81.296C28.5478 81.296 29.0918 81.4347 29.4118 81.712C29.7531 81.9893 29.9238 82.4373 29.9238 83.056C29.9238 83.7173 29.6998 84.1867 29.2518 84.464C28.8251 84.7413 27.9931 84.9333 26.7558 85.04L25.4118 85.168L25.1878 89.616C25.0384 92.624 24.8998 94.288 24.7718 94.608C24.4944 95.248 23.9611 95.568 23.1718 95.568C22.7238 95.568 22.3718 95.4507 22.1158 95.216C21.8384 95.0027 21.6464 94.768 21.5398 94.512C21.4331 94.256 21.3798 93.84 21.3798 93.264C21.3798 92.7947 21.4118 92.0907 21.4758 91.152C21.5824 89.4667 21.6571 88.0267 21.6998 86.832L21.7318 85.328L20.2918 85.296C19.4811 85.2747 18.9264 85.2107 18.6278 85.104C18.3291 84.976 18.0731 84.72 17.8598 84.336C17.7318 84.08 17.6678 83.8133 17.6678 83.536C17.6678 83.024 17.8811 82.576 18.3078 82.192C18.5424 81.9787 18.8411 81.84 19.2038 81.776C19.5664 81.6907 20.2384 81.6053 21.2198 81.52L21.7318 81.456L21.8598 78.064C21.8811 77.552 21.8918 76.9973 21.8918 76.4C21.9131 75.7813 21.9238 75.3227 21.9238 75.024L21.9558 74.576L22.0518 74.512C22.1158 74.4693 22.2011 74.416 22.3078 74.352C22.4144 74.288 22.5104 74.2347 22.5958 74.192ZM44.5828 85.232C43.9641 84.6133 43.0041 84.304 41.7028 84.304C41.0628 84.304 40.4974 84.4107 40.0068 84.624C39.5374 84.8373 39.0254 85.2533 38.4708 85.872C37.9161 86.4907 37.5534 87.056 37.3828 87.568C37.1908 88.1227 37.0948 88.6453 37.0948 89.136C37.0948 90.2667 37.5428 91.0667 38.4388 91.536C38.9721 91.8133 39.6654 91.952 40.5188 91.952C41.0948 91.952 41.5321 91.8773 41.8308 91.728C43.5588 90.8533 44.6148 89.2853 44.9988 87.024L45.1908 85.808L44.5828 85.232ZM39.7188 80.88C40.2308 80.7307 40.8281 80.656 41.5108 80.656C42.6628 80.656 43.7934 80.8587 44.9028 81.264C46.0121 81.6693 46.7801 82.1813 47.2068 82.8C47.5054 83.2267 47.8894 83.6747 48.3588 84.144C48.8708 84.6773 49.3401 85.5947 49.7668 86.896C50.1721 88.1333 50.5454 89.5093 50.8868 91.024C51.2494 92.5387 51.4308 93.5627 51.4308 94.096C51.4308 94.6293 51.2708 95.0453 50.9508 95.344C50.5454 95.728 50.1614 95.92 49.7987 95.92C49.6494 95.92 49.4574 95.888 49.2228 95.824C48.8174 95.6747 48.4974 95.4187 48.2628 95.056C48.0494 94.6933 47.8574 94.1067 47.6868 93.296C47.4734 92.336 47.3561 91.856 47.3348 91.856C47.2494 91.856 46.8014 92.2613 45.9908 93.072C44.3908 94.6293 42.7268 95.472 40.9988 95.6H40.5508C39.5054 95.6 38.4814 95.4187 37.4788 95.056C36.4974 94.6933 35.7188 94.2133 35.1428 93.616C34.8441 93.3173 34.5454 92.8693 34.2468 92.272C33.9481 91.6533 33.7454 91.088 33.6388 90.576C33.5321 90.0427 33.4788 89.5627 33.4788 89.136C33.4788 87.3653 34.0761 85.6693 35.2708 84.048C36.4868 82.4267 37.9694 81.3707 39.7188 80.88ZM55.714 74.608C56.034 74.4373 56.3647 74.352 56.706 74.352C57.154 74.352 57.538 74.5227 57.858 74.864C58.178 75.2053 58.37 75.6747 58.434 76.272C58.498 76.784 58.5833 78.2667 58.69 80.72C58.818 83.152 58.882 84.7093 58.882 85.392C58.882 85.968 58.9353 86.2347 59.042 86.192C59.2127 86.128 59.6927 85.5627 60.482 84.496C61.2713 83.4293 61.762 82.6827 61.954 82.256C62.402 81.3173 62.9673 80.848 63.65 80.848C63.97 80.848 64.2793 80.9227 64.578 81.072C65.218 81.3707 65.538 81.9147 65.538 82.704C65.538 83.0453 65.4527 83.4187 65.282 83.824C65.1327 84.1867 64.5033 85.104 63.394 86.576C62.178 88.2187 61.5593 89.072 61.538 89.136C61.4953 89.2213 61.474 89.2853 61.474 89.328C61.474 89.52 62.3273 90.2027 64.034 91.376C65.89 92.656 66.882 93.392 67.01 93.584C67.1807 93.8187 67.266 94.1067 67.266 94.448C67.266 94.9173 67.106 95.3333 66.786 95.696C66.466 96.0373 66.0607 96.2187 65.57 96.24C65.25 96.24 64.8873 96.144 64.482 95.952C64.098 95.7387 63.298 95.216 62.082 94.384C60.2047 93.1253 59.2447 92.496 59.202 92.496C59.1807 92.496 59.1273 93.0827 59.042 94.256C58.9993 95.0667 58.946 95.5893 58.882 95.824C58.8393 96.0373 58.7007 96.272 58.466 96.528C58.1033 96.8907 57.6767 97.072 57.186 97.072C56.8233 97.072 56.4927 96.976 56.194 96.784C55.8953 96.5707 55.6927 96.2933 55.586 95.952C55.5007 95.6533 55.4153 93.1893 55.33 88.56C55.266 84.464 55.1593 81.2213 55.01 78.832C54.946 77.872 54.914 77.136 54.914 76.624C54.914 75.984 54.9673 75.536 55.074 75.28C55.202 75.0027 55.4153 74.7787 55.714 74.608ZM80.8043 85.808C80.4203 85.616 79.8763 85.52 79.1723 85.52C78.4043 85.52 77.7536 85.6373 77.2203 85.872C76.8576 86.0213 76.3883 86.352 75.8123 86.864C75.2363 87.3547 74.9483 87.6747 74.9483 87.824C74.9483 87.888 75.2789 87.92 75.9403 87.92C76.9216 87.92 78.0949 87.8667 79.4603 87.76C80.8256 87.6533 81.6043 87.536 81.7963 87.408C81.8603 87.3867 81.8923 87.3227 81.8923 87.216C81.8923 87.024 81.7749 86.7787 81.5403 86.48C81.3056 86.16 81.0603 85.936 80.8043 85.808ZM77.0283 82.096C77.5616 81.9467 78.1909 81.872 78.9163 81.872C80.2603 81.872 81.4869 82.1387 82.5963 82.672C83.4283 83.0987 84.1216 83.7493 84.6763 84.624C85.2309 85.4773 85.5723 86.4373 85.7003 87.504C85.7003 87.5467 85.7003 87.6107 85.7003 87.696C85.7216 87.7813 85.7323 87.8453 85.7323 87.888C85.7323 88.4427 85.6256 88.9867 85.4123 89.52C85.2203 90.0533 84.9856 90.416 84.7083 90.608C84.3456 90.864 81.7963 91.184 77.0603 91.568C76.0576 91.6533 75.5563 91.7493 75.5563 91.856C75.5563 91.984 75.7803 92.1867 76.2283 92.464C76.6763 92.7413 77.1136 92.9333 77.5403 93.04C77.9243 93.1253 78.2336 93.168 78.4683 93.168C79.1509 93.168 80.0363 92.944 81.1243 92.496C81.8923 92.176 82.4576 92.016 82.8203 92.016C83.1829 92.016 83.5243 92.176 83.8443 92.496C84.2709 92.9227 84.4843 93.328 84.4843 93.712C84.4843 93.968 84.4203 94.2347 84.2923 94.512C84.1856 94.768 84.0363 94.9707 83.8443 95.12C83.6736 95.2693 83.3536 95.4507 82.8843 95.664C81.3269 96.3467 79.8763 96.688 78.5323 96.688C77.7643 96.688 76.9749 96.5707 76.1643 96.336C75.0763 95.9947 74.0843 95.4187 73.1883 94.608C72.2923 93.776 71.6523 92.8587 71.2682 91.856C71.0336 91.1947 70.9163 90.4587 70.9163 89.648C70.9163 88.4747 71.1083 87.4933 71.4923 86.704C71.9403 85.7227 72.6976 84.784 73.7643 83.888C74.8309 82.992 75.9189 82.3947 77.0283 82.096ZM103.938 73.52C104.301 73.1573 104.738 72.976 105.25 72.976C105.634 72.976 105.975 73.0933 106.274 73.328C106.594 73.5413 106.818 73.8507 106.946 74.256C107.01 74.4907 107.117 75.6 107.266 77.584C107.415 79.5467 107.49 80.912 107.49 81.68C107.49 81.872 107.533 81.9893 107.618 82.032C107.725 82.0747 107.97 82.096 108.354 82.096C108.93 82.096 109.261 82.032 109.346 81.904C109.389 81.7973 109.826 81.744 110.658 81.744C111.725 81.744 112.429 81.8187 112.77 81.968C113.09 82.1173 113.335 82.4053 113.506 82.832C113.655 83.1307 113.73 83.376 113.73 83.568C113.73 83.7173 113.698 83.8987 113.634 84.112C113.485 84.6027 113.207 84.9333 112.802 85.104C112.418 85.2533 111.65 85.36 110.498 85.424C109.197 85.488 108.354 85.5733 107.97 85.68L107.458 85.808L107.586 90.32C107.629 92.3253 107.65 93.4027 107.65 93.552C107.65 94.4907 107.575 95.12 107.426 95.44C107.106 96.1227 106.583 96.464 105.858 96.464C105.581 96.464 105.293 96.4 104.994 96.272C104.759 96.1653 104.589 96.0693 104.482 95.984C104.375 95.8773 104.279 95.6107 104.194 95.184C104.109 94.736 104.055 94.2133 104.034 93.616C104.013 93.0187 103.991 92.0373 103.97 90.672L103.906 86.032L102.946 86.064C102.37 86.1067 101.858 86.192 101.41 86.32C101.303 86.3627 101.133 86.384 100.898 86.384C100.173 86.384 99.65 86.16 99.33 85.712C99.1593 85.4347 99.074 85.0613 99.074 84.592C99.074 84.1867 99.138 83.8667 99.266 83.632C99.5647 83.0987 100.61 82.6933 102.402 82.416L103.874 82.192L103.746 79.376C103.661 77.3707 103.586 76.0053 103.522 75.28C103.479 74.768 103.458 74.4907 103.458 74.448C103.458 74.1493 103.618 73.84 103.938 73.52ZM125.995 83.6C125.419 83.4933 124.939 83.44 124.555 83.44C123.68 83.44 122.944 83.6213 122.347 83.984C122.048 84.176 121.696 84.8267 121.291 85.936C120.907 87.024 120.715 87.8987 120.715 88.56C120.715 89.6267 121.056 90.4907 121.739 91.152C122.443 91.792 123.36 92.1227 124.491 92.144C125.408 92.144 126.261 91.888 127.051 91.376C127.861 90.864 128.448 90.192 128.811 89.36C129.045 88.8267 129.163 88.2187 129.163 87.536C129.163 86.704 129.003 85.9787 128.683 85.36C128.448 84.8693 128.128 84.496 127.723 84.24C127.317 83.984 126.741 83.7707 125.995 83.6ZM122.379 80.176C123.125 79.984 123.861 79.888 124.587 79.888C125.952 79.888 127.413 80.2293 128.971 80.912C130.08 81.4027 130.955 82.2667 131.595 83.504C132.256 84.7413 132.597 86.2027 132.619 87.888V88.08C132.619 90.6187 131.488 92.6773 129.227 94.256C127.819 95.2587 126.251 95.76 124.523 95.76C123.093 95.76 121.771 95.408 120.555 94.704C119.339 93.9787 118.421 92.9653 117.803 91.664C117.589 91.216 117.451 90.832 117.387 90.512C117.344 90.192 117.323 89.52 117.323 88.496C117.344 86.9813 117.504 85.7867 117.803 84.912C118.507 82.9707 119.339 81.6587 120.299 80.976C120.683 80.6987 121.376 80.432 122.379 80.176ZM144.359 85.616C143.506 85.2107 142.908 85.008 142.567 85.008C142.162 85.008 141.65 85.2853 141.031 85.84C140.199 86.608 139.783 87.5573 139.783 88.688C139.783 89.6053 140.082 90.2987 140.679 90.768C140.956 90.9813 141.244 91.088 141.543 91.088C141.906 91.088 142.364 90.9387 142.919 90.64C144.711 89.7013 145.607 88.4853 145.607 86.992V86.192L144.359 85.616ZM145.991 74.256C146.354 73.9573 146.78 73.808 147.271 73.808C147.591 73.808 147.858 73.872 148.071 74C148.327 74.1493 148.54 74.3947 148.711 74.736C148.839 74.992 148.924 75.7067 148.967 76.88C149.031 78.0533 149.074 80.7413 149.095 84.944L149.159 94.576L148.615 95.12C148.252 95.4827 147.836 95.664 147.367 95.664C146.919 95.664 146.514 95.504 146.151 95.184C145.788 94.864 145.607 94.5013 145.607 94.096C145.607 93.7547 145.586 93.5627 145.543 93.52H145.511C145.362 93.52 145.01 93.6587 144.455 93.936C143.41 94.4267 142.428 94.672 141.511 94.672C140.082 94.672 138.834 94.096 137.767 92.944C136.679 91.7493 136.135 90.3413 136.135 88.72C136.135 86.5867 136.967 84.752 138.631 83.216C139.89 82.064 141.255 81.488 142.727 81.488C143.367 81.488 143.954 81.5733 144.487 81.744C145.063 81.936 145.372 82.032 145.415 82.032C145.436 82.032 145.447 80.816 145.447 78.384V74.736L145.991 74.256ZM161.82 85.68C161.713 85.3387 161.617 85.1467 161.532 85.104C161.446 85.04 161.212 85.008 160.828 85.008C159.718 85.0293 158.684 85.552 157.724 86.576C156.764 87.5787 156.284 88.592 156.284 89.616C156.284 90.128 156.422 90.5547 156.7 90.896C157.318 91.5787 157.969 91.92 158.652 91.92C158.694 91.92 158.737 91.92 158.78 91.92C158.822 91.8987 158.865 91.888 158.908 91.888C159.292 91.8027 159.697 91.5467 160.124 91.12C160.572 90.6933 160.913 90.224 161.148 89.712C161.638 88.56 161.884 87.44 161.884 86.352C161.884 86.032 161.862 85.808 161.82 85.68ZM158.844 81.648C159.42 81.456 160.081 81.36 160.828 81.36C161.809 81.36 162.641 81.52 163.324 81.84C163.772 82.0747 164.177 82.4267 164.54 82.896C164.924 83.344 165.158 83.7707 165.244 84.176C165.329 84.5813 165.446 84.9653 165.596 85.328C165.83 85.9467 166.3 88.272 167.004 92.304C167.11 92.944 167.164 93.424 167.164 93.744C167.164 95.024 166.566 95.664 165.372 95.664C164.966 95.664 164.593 95.504 164.252 95.184C163.932 94.864 163.729 94.4693 163.644 94C163.558 93.5733 163.484 93.328 163.42 93.264C163.334 93.2 163.089 93.3707 162.684 93.776C161.468 94.992 160.07 95.6 158.492 95.6C158.214 95.6 157.926 95.568 157.628 95.504C156.454 95.248 155.356 94.608 154.332 93.584C153.18 92.432 152.604 91.1413 152.604 89.712C152.604 88.5813 152.956 87.3547 153.66 86.032C154.193 85.0293 154.918 84.1333 155.836 83.344C156.774 82.5547 157.777 81.9893 158.844 81.648ZM182.666 80.272C182.879 80.208 183.039 80.176 183.146 80.176C183.231 80.176 183.476 80.2613 183.882 80.432C184.308 80.6027 184.607 80.8907 184.778 81.296C184.863 81.4667 184.906 81.6587 184.906 81.872C184.906 82.192 184.65 83.1627 184.138 84.784C183.199 87.792 182.015 90.8107 180.586 93.84C179.924 95.2907 178.911 97.168 177.546 99.472C176.18 101.797 175.348 103.045 175.05 103.216C174.708 103.429 174.356 103.536 173.994 103.536C173.503 103.536 173.076 103.365 172.714 103.024C172.372 102.704 172.202 102.277 172.202 101.744C172.202 101.36 172.543 100.635 173.226 99.568C173.759 98.736 174.452 97.5627 175.306 96.048C176.159 94.512 176.586 93.6907 176.586 93.584C176.586 93.52 176.351 93.0933 175.882 92.304C175.668 91.9627 174.911 90.576 173.61 88.144C172.33 85.6907 171.551 84.272 171.274 83.888C170.932 83.3973 170.762 82.9067 170.762 82.416C170.762 81.712 171.103 81.2107 171.786 80.912C172.042 80.8053 172.266 80.752 172.458 80.752C172.906 80.752 173.343 81.008 173.77 81.52C174.196 82.0107 174.74 82.864 175.402 84.08C176.831 86.7253 177.802 88.4533 178.314 89.264C178.42 89.4133 178.484 89.488 178.506 89.488C178.591 89.488 178.804 89.0293 179.146 88.112C179.636 86.768 180.127 85.3387 180.618 83.824C181.044 82.4587 181.386 81.552 181.642 81.104C181.919 80.656 182.26 80.3787 182.666 80.272ZM189.568 92.56C189.952 92.4107 190.176 92.336 190.24 92.336L190.848 92.56C191.616 92.88 192 93.456 192 94.288C192 94.736 191.808 95.1627 191.424 95.568C191.061 95.9733 190.677 96.176 190.272 96.176C189.888 96.176 189.525 96.048 189.184 95.792C188.864 95.5147 188.64 95.1733 188.512 94.768C188.448 94.576 188.416 94.3947 188.416 94.224C188.416 93.84 188.522 93.4987 188.736 93.2C188.949 92.88 189.226 92.6667 189.568 92.56Z" fill="#27263C"/>
</svg>
