<svg width="147" height="27" viewBox="0 0 147 27" fill="none" xmlns="http://www.w3.org/2000/svg">
<path d="M2.072 2.08C2.392 1.888 3.08533 1.792 4.152 1.792C4.30133 1.792 5.57067 1.81333 7.96 1.856L13.304 1.952L13.88 2.56C14.264 3.02933 14.456 3.38133 14.456 3.616C14.456 3.91467 14.36 4.24533 14.168 4.608C13.9973 4.94933 13.8053 5.17333 13.592 5.28C13.336 5.38667 11.7467 5.44 8.824 5.44H4.408L4.504 7.328C4.58933 8.672 4.664 9.57867 4.728 10.048L4.824 10.88H6.328C7.43733 10.8373 8.216 10.784 8.664 10.72C8.96267 10.6773 9.18667 10.656 9.336 10.656C10.1253 10.656 10.68 10.9867 11 11.648C11.1493 11.9467 11.224 12.1813 11.224 12.352C11.224 12.48 11.1707 12.6827 11.064 12.96C10.872 13.4507 10.552 13.792 10.104 13.984C9.67733 14.176 8.86667 14.3253 7.672 14.432C6.15733 14.56 5.32533 14.6453 5.176 14.688L4.728 14.784C4.74933 15.424 4.792 16.384 4.856 17.664C4.92 18.944 4.96267 19.904 4.984 20.544L4.472 21.056C4.10933 21.4187 3.69333 21.6 3.224 21.6C2.75467 21.6 2.34933 21.4293 2.008 21.088L1.528 20.64L1.304 15.104C1.13333 11.1787 0.984 8.416 0.856 6.816C0.749333 5.38667 0.696 4.40533 0.696 3.872V3.648C0.845333 3.11467 1.304 2.592 2.072 2.08ZM27.0005 10.816C26.5952 10.7093 25.9338 10.6133 25.0165 10.528C24.4192 10.4853 24.0992 10.464 24.0565 10.464C23.7578 10.464 23.4592 10.624 23.1605 10.944C22.3072 11.8187 21.8485 13.0027 21.7845 14.496C21.7845 14.5813 21.7738 14.6987 21.7525 14.848C21.7525 14.976 21.7525 15.072 21.7525 15.136C21.7525 15.6267 21.8805 16.0853 22.1365 16.512C22.8192 17.728 24.0245 18.336 25.7525 18.336C26.4778 18.3147 27.2138 18.0693 27.9605 17.6C28.7285 17.1093 29.2832 16.5227 29.6245 15.84C29.8165 15.4347 29.9125 14.9973 29.9125 14.528C29.9125 13.7387 29.6352 12.992 29.0805 12.288C28.5472 11.5627 27.8538 11.072 27.0005 10.816ZM22.1365 7.232C22.6272 6.95467 23.1178 6.816 23.6085 6.816C23.7152 6.816 24.1098 6.83733 24.7925 6.88C26.8192 6.98667 28.4512 7.41333 29.6885 8.16C30.9258 8.90667 31.9178 10.0587 32.6645 11.616C33.2405 12.8107 33.5285 13.952 33.5285 15.04C33.5285 15.3813 33.4965 15.68 33.4325 15.936C33.0912 17.2587 32.3445 18.464 31.1925 19.552C30.0405 20.64 28.7712 21.3653 27.3845 21.728C26.6592 21.8987 26.0832 21.984 25.6565 21.984C25.2298 21.984 24.6538 21.8987 23.9285 21.728C21.7312 21.152 20.1525 20.1067 19.1925 18.592C18.4458 17.4187 18.0725 16.1813 18.0725 14.88C18.0725 13.5787 18.4245 12.192 19.1285 10.72C19.9392 8.992 20.9418 7.82933 22.1365 7.232ZM45.9693 10.816C45.5639 10.7093 44.9026 10.6133 43.9853 10.528C43.3879 10.4853 43.0679 10.464 43.0253 10.464C42.7266 10.464 42.4279 10.624 42.1293 10.944C41.2759 11.8187 40.8173 13.0027 40.7533 14.496C40.7533 14.5813 40.7426 14.6987 40.7213 14.848C40.7213 14.976 40.7213 15.072 40.7213 15.136C40.7213 15.6267 40.8493 16.0853 41.1053 16.512C41.7879 17.728 42.9933 18.336 44.7213 18.336C45.4466 18.3147 46.1826 18.0693 46.9293 17.6C47.6973 17.1093 48.2519 16.5227 48.5933 15.84C48.7853 15.4347 48.8813 14.9973 48.8813 14.528C48.8813 13.7387 48.6039 12.992 48.0493 12.288C47.5159 11.5627 46.8226 11.072 45.9693 10.816ZM41.1053 7.232C41.5959 6.95467 42.0866 6.816 42.5773 6.816C42.6839 6.816 43.0786 6.83733 43.7613 6.88C45.7879 6.98667 47.4199 7.41333 48.6573 8.16C49.8946 8.90667 50.8866 10.0587 51.6333 11.616C52.2093 12.8107 52.4973 13.952 52.4973 15.04C52.4973 15.3813 52.4653 15.68 52.4013 15.936C52.0599 17.2587 51.3133 18.464 50.1613 19.552C49.0093 20.64 47.7399 21.3653 46.3533 21.728C45.6279 21.8987 45.0519 21.984 44.6253 21.984C44.1986 21.984 43.6226 21.8987 42.8973 21.728C40.6999 21.152 39.1213 20.1067 38.1613 18.592C37.4146 17.4187 37.0413 16.1813 37.0413 14.88C37.0413 13.5787 37.3933 12.192 38.0973 10.72C38.9079 8.992 39.9106 7.82933 41.1053 7.232ZM64.042 11.872C63.85 11.6373 63.5193 11.52 63.05 11.52C62.666 11.52 62.282 11.616 61.898 11.808C61.322 12.0853 60.778 12.672 60.266 13.568C59.754 14.464 59.498 15.2533 59.498 15.936C59.498 16.1493 59.53 16.3307 59.594 16.48C59.7433 16.8213 60.106 17.1413 60.682 17.44C61.258 17.7173 61.802 17.856 62.314 17.856C62.4207 17.856 62.5807 17.8347 62.794 17.792C63.2847 17.6427 63.7753 17.2373 64.266 16.576C64.778 15.8933 65.1727 15.0933 65.45 14.176C65.6207 13.6213 65.706 13.248 65.706 13.056C65.706 12.7573 65.482 12.544 65.034 12.416C64.522 12.224 64.1913 12.0427 64.042 11.872ZM66.634 0.703999C66.826 0.618665 67.05 0.575998 67.306 0.575998C68.1167 0.575998 68.6607 0.927998 68.938 1.632C69.066 1.952 69.2687 3.24267 69.546 5.504C69.802 7.872 69.9513 9.20533 69.994 9.504C70.8687 15.84 71.306 19.4667 71.306 20.384C71.306 20.8107 71.1247 21.184 70.762 21.504C70.4207 21.824 70.026 21.984 69.578 21.984C68.9593 21.984 68.4793 21.76 68.138 21.312C67.7967 20.8427 67.626 20.2133 67.626 19.424C67.626 19.0827 67.5833 18.8693 67.498 18.784H67.466C67.338 18.784 66.9433 19.0933 66.282 19.712C65.578 20.416 64.8953 20.8853 64.234 21.12C63.6367 21.3547 62.954 21.472 62.186 21.472C61.0553 21.472 59.9673 21.1947 58.922 20.64C57.8767 20.064 57.066 19.3067 56.49 18.368C56.2767 18.0053 56.138 17.696 56.074 17.44C56.0313 17.1627 56.01 16.64 56.01 15.872C56.0313 14.8907 56.1487 14.0693 56.362 13.408C56.5753 12.7467 56.97 11.9787 57.546 11.104C57.9513 10.4853 58.5273 9.888 59.274 9.312C60.0207 8.736 60.6713 8.36267 61.226 8.192C61.7807 8.04267 62.3673 7.968 62.986 7.968C63.754 7.968 64.426 8.064 65.002 8.256C65.6207 8.448 65.9513 8.544 65.994 8.544C66.0367 8.544 66.058 8.416 66.058 8.16C66.058 7.456 65.9727 6.57067 65.802 5.504C65.6527 4.62933 65.578 3.84 65.578 3.136C65.578 1.81333 65.93 1.00267 66.634 0.703999ZM95.0863 12.128C94.8089 11.4453 94.4463 10.9653 93.9983 10.688C93.5503 10.4107 93.0063 10.272 92.3663 10.272C91.6836 10.272 91.0116 10.4213 90.3503 10.72C89.7529 10.976 89.4116 11.2213 89.3263 11.456C89.2623 11.6267 89.1343 11.8293 88.9423 12.064C88.6863 12.3627 88.5583 13.4187 88.5583 15.232C88.5583 15.8293 88.5796 16.2347 88.6223 16.448L88.7503 17.216L89.7423 17.472C90.3396 17.6213 90.9369 17.696 91.5343 17.696C92.5156 17.696 93.3476 17.4933 94.0303 17.088C94.7343 16.6613 95.1823 16.0747 95.3743 15.328C95.4596 15.008 95.5023 14.6347 95.5023 14.208C95.5023 13.4827 95.3636 12.7893 95.0863 12.128ZM91.0863 6.72C91.3423 6.67733 91.5983 6.656 91.8542 6.656C93.0916 6.656 94.1476 6.816 95.0223 7.136C95.8969 7.47733 96.6649 8.07467 97.3263 8.928C98.0089 9.78133 98.4996 10.7627 98.7983 11.872C98.9476 12.448 99.0223 13.1413 99.0223 13.952C99.0223 15.2533 98.8623 16.32 98.5423 17.152C98.1369 18.1973 97.4543 19.072 96.4943 19.776C95.5556 20.48 94.4569 20.9387 93.1983 21.152C92.7503 21.216 92.1956 21.248 91.5343 21.248C90.4036 21.248 89.6036 21.1733 89.1343 21.024C89.0063 20.9813 88.9316 20.96 88.9103 20.96C88.8036 20.96 88.7503 21.056 88.7503 21.248C88.7503 21.2907 88.7716 21.5467 88.8143 22.016C88.8356 22.2293 88.8783 23.0613 88.9423 24.512V25.056C88.9423 25.44 88.9103 25.7067 88.8463 25.856C88.7823 26.0053 88.6436 26.1867 88.4303 26.4C88.0889 26.7413 87.6623 26.912 87.1503 26.912C86.8516 26.912 86.5743 26.848 86.3183 26.72C85.9556 26.528 85.6996 26.1653 85.5503 25.632C85.4223 25.0987 85.3156 24 85.2303 22.336C85.1023 20.2453 85.0383 17.5253 85.0383 14.176C85.0383 10.2293 85.1129 8.10667 85.2623 7.808C85.6036 7.14667 86.1476 6.816 86.8943 6.816C87.2996 6.816 87.6516 6.93333 87.9503 7.168L88.3983 7.52L89.5823 7.2C89.7743 7.136 89.9769 7.072 90.1903 7.008C90.4036 6.92267 90.5956 6.85867 90.7663 6.816C90.9369 6.77333 91.0436 6.74133 91.0863 6.72ZM104.237 6.912C104.323 6.89067 104.451 6.88 104.621 6.88C105.027 6.88 105.4 6.98667 105.741 7.2C106.083 7.392 106.317 7.65867 106.445 8C106.531 8.192 106.616 9.65333 106.701 12.384C106.808 15.0933 106.861 17.2267 106.861 18.784C106.861 19.4453 106.851 19.8293 106.829 19.936C106.723 20.7467 106.371 21.2907 105.773 21.568C105.475 21.696 105.24 21.76 105.069 21.76C104.941 21.76 104.749 21.728 104.493 21.664C104.003 21.5147 103.693 21.312 103.565 21.056C103.309 20.5653 103.16 18.6667 103.117 15.36C103.117 14.7627 103.107 13.728 103.085 12.256L103.053 7.872L103.437 7.424C103.693 7.12533 103.96 6.95467 104.237 6.912ZM103.469 0.895998C103.725 0.767998 103.971 0.703999 104.205 0.703999C104.675 0.703999 105.091 0.895999 105.453 1.28C105.816 1.64267 105.997 2.06933 105.997 2.56C105.997 2.90133 105.912 3.2 105.741 3.456C105.379 4.032 104.888 4.32 104.269 4.32C103.864 4.32 103.491 4.18133 103.149 3.904C102.808 3.62667 102.595 3.24267 102.509 2.752C102.509 2.73067 102.499 2.69867 102.477 2.656C102.477 2.592 102.477 2.54933 102.477 2.528C102.477 2.208 102.573 1.89867 102.765 1.6C102.957 1.28 103.192 1.04533 103.469 0.895998ZM114.387 7.392C114.728 7.264 115.261 7.2 115.987 7.2C116.371 7.2 116.68 7.21067 116.915 7.232C117.768 7.25333 118.355 7.30667 118.675 7.392C118.995 7.456 119.421 7.616 119.955 7.872C121.469 8.64 122.227 9.568 122.227 10.656C122.227 10.8907 122.152 11.1787 122.003 11.52C121.683 12.1387 121.192 12.448 120.531 12.448C119.933 12.448 119.389 12.1707 118.899 11.616C118.664 11.36 118.451 11.1893 118.259 11.104C118.067 10.9973 117.757 10.912 117.331 10.848C116.904 10.8053 116.616 10.784 116.467 10.784C115.72 10.784 115.176 11.0187 114.835 11.488C114.237 12.3627 113.939 13.312 113.939 14.336C113.939 15.4453 114.28 16.3947 114.963 17.184C115.645 17.952 116.541 18.336 117.651 18.336C118.077 18.336 118.675 18.2293 119.443 18.016C120.211 17.7813 120.723 17.568 120.979 17.376C121.192 17.2053 121.565 17.12 122.099 17.12C122.611 17.12 123.027 17.28 123.347 17.6C123.688 17.92 123.859 18.3253 123.859 18.816C123.859 19.264 123.752 19.6267 123.539 19.904C123.325 20.1813 122.92 20.4693 122.323 20.768C120.787 21.536 119.251 21.92 117.715 21.92C115.176 21.92 113.245 21.0133 111.923 19.2C110.856 17.7493 110.323 16.16 110.323 14.432C110.323 13.3653 110.536 12.2453 110.963 11.072C111.283 10.24 111.752 9.48267 112.371 8.8C113.011 8.11733 113.683 7.648 114.387 7.392ZM130.936 6.208C131.32 6.10133 131.917 6.048 132.728 6.048C134.434 6.048 135.672 6.176 136.44 6.432C137.506 6.77333 138.04 7.36 138.04 8.192C138.04 8.68267 137.805 9.13067 137.336 9.536C137.016 9.83467 136.706 9.984 136.408 9.984C136.386 9.984 136.344 9.984 136.28 9.984C136.216 9.96267 136.162 9.952 136.12 9.952C134.712 9.71733 133.602 9.6 132.792 9.6C132.536 9.6 132.301 9.62133 132.088 9.664C131.426 9.83467 131.096 10.144 131.096 10.592C131.096 10.6773 131.106 10.7413 131.128 10.784C131.277 11.2107 132.12 11.744 133.656 12.384C136.408 13.536 138.104 14.9653 138.744 16.672C138.936 17.184 139.032 17.664 139.032 18.112C139.032 18.9013 138.744 19.5733 138.168 20.128C137.613 20.6827 136.824 21.056 135.8 21.248C135.373 21.3333 134.669 21.376 133.688 21.376C131.896 21.376 130.754 21.2693 130.264 21.056C129.986 20.928 129.752 20.7147 129.56 20.416C129.368 20.096 129.272 19.7867 129.272 19.488C129.272 19.168 129.378 18.848 129.592 18.528C129.805 18.1867 130.061 17.952 130.36 17.824C130.637 17.7173 130.968 17.664 131.352 17.664C131.501 17.664 131.832 17.6853 132.344 17.728C132.685 17.7707 133.144 17.792 133.72 17.792C134.616 17.792 135.064 17.6853 135.064 17.472C135.064 17.088 134.136 16.512 132.28 15.744C130.616 15.0187 129.389 14.2613 128.6 13.472C127.832 12.6613 127.448 11.744 127.448 10.72C127.448 10.5493 127.469 10.2933 127.512 9.952C127.682 8.90667 128.109 8.07467 128.792 7.456C129.346 6.90133 130.061 6.48533 130.936 6.208ZM142.829 19.424C142.999 19.0613 143.191 18.816 143.405 18.688C143.618 18.56 143.991 18.496 144.525 18.496C144.887 18.496 145.133 18.528 145.261 18.592C145.41 18.656 145.581 18.8053 145.773 19.04C146.093 19.424 146.253 19.8293 146.253 20.256C146.253 20.7253 146.05 21.1627 145.645 21.568C145.239 21.9733 144.823 22.176 144.397 22.176C143.97 22.176 143.554 21.9947 143.149 21.632C142.765 21.248 142.573 20.8533 142.573 20.448C142.573 20.128 142.658 19.7867 142.829 19.424Z" fill="#27263C"/>
</svg>
