<svg width="121" height="25" viewBox="0 0 121 25" fill="none" xmlns="http://www.w3.org/2000/svg">
<path d="M5.912 3.536C6.488 3.344 7.16 3.248 7.928 3.248C9.10133 3.248 10.232 3.45067 11.32 3.856C12.4293 4.24 13.112 4.72 13.368 5.296C13.496 5.57333 13.56 5.85067 13.56 6.128C13.56 6.55467 13.3893 6.94933 13.048 7.312C12.7493 7.61067 12.3867 7.76 11.96 7.76C11.5547 7.76 10.9893 7.61067 10.264 7.312C9.53867 7.01333 8.77067 6.864 7.96 6.864C7.40533 6.864 6.936 6.94933 6.552 7.12C6.25333 7.26933 5.90133 7.568 5.496 8.016C5.13333 8.42133 4.952 8.89067 4.952 9.424C4.952 9.97867 5.15467 10.4373 5.56 10.8C5.98667 11.1413 6.92533 11.664 8.376 12.368C9.82667 13.0507 10.84 13.6053 11.416 14.032C12.0133 14.4373 12.504 14.928 12.888 15.504C13.5067 16.4853 13.816 17.4667 13.816 18.448C13.816 19.216 13.6453 19.9413 13.304 20.624C13.0267 21.1787 12.5467 21.7547 11.864 22.352C11.2027 22.928 10.584 23.3227 10.008 23.536C9.304 23.7707 8.504 23.888 7.608 23.888C5.79467 23.888 4.056 23.5147 2.392 22.768C1.304 22.256 0.76 21.616 0.76 20.848C0.76 20.592 0.856 20.2933 1.048 19.952C1.24 19.6107 1.432 19.3867 1.624 19.28C1.816 19.1733 2.11467 19.12 2.52 19.12C3.01067 19.12 3.37333 19.1947 3.608 19.344C3.90667 19.536 4.504 19.7493 5.4 19.984C6.296 20.2187 6.97867 20.336 7.448 20.336C8.23733 20.336 8.888 20.1547 9.4 19.792C9.93333 19.4293 10.2 18.9707 10.2 18.416C10.2 17.9467 10.008 17.552 9.624 17.232C9.24 16.8907 8.42933 16.4213 7.192 15.824C5.31467 14.9067 4.00267 14.128 3.256 13.488C2.50933 12.848 1.944 12.0267 1.56 11.024C1.38933 10.5973 1.304 10.096 1.304 9.52C1.304 7.87733 1.912 6.448 3.128 5.232C3.87467 4.48533 4.80267 3.92 5.912 3.536ZM17.8025 8.88C18.1438 8.51733 18.5598 8.336 19.0505 8.336C19.9678 8.336 20.5545 8.69867 20.8105 9.424C20.9385 9.85067 21.0025 11.0987 21.0025 13.168C21.0025 15.2587 21.0665 16.624 21.1945 17.264C21.5145 18.736 22.1652 19.472 23.1465 19.472C23.3385 19.472 23.5412 19.44 23.7545 19.376C24.0532 19.2907 24.4372 19.0027 24.9065 18.512C25.3972 18.0213 25.7492 17.5733 25.9625 17.168C26.3465 16.3787 26.6878 14.8107 26.9865 12.464C27.1998 10.864 27.5305 9.89333 27.9785 9.552C28.2772 9.31733 28.6078 9.2 28.9705 9.2C29.3758 9.2 29.7492 9.34933 30.0905 9.648C30.4532 9.92533 30.6985 10.288 30.8265 10.736C30.9332 11.2053 31.1145 12.88 31.3705 15.76C31.6478 18.6187 31.7865 20.4427 31.7865 21.232V21.488C31.7012 21.8933 31.4985 22.2133 31.1785 22.448C30.8585 22.6827 30.5065 22.8 30.1225 22.8C29.7598 22.8 29.4078 22.6933 29.0665 22.48C28.7465 22.2667 28.5225 21.9573 28.3945 21.552C28.2238 21.0613 28.1278 20.816 28.1065 20.816C28.0212 20.816 27.6585 21.0613 27.0185 21.552C25.7385 22.576 24.4798 23.088 23.2425 23.088H23.1465C22.1225 23.088 21.2052 22.8427 20.3945 22.352C19.5838 21.8613 18.9438 21.168 18.4745 20.272C18.0265 19.376 17.7385 18.5653 17.6105 17.84C17.4825 17.0933 17.4078 15.6533 17.3865 13.52L17.2905 9.456L17.8025 8.88ZM35.7073 8.112C36.0486 7.74933 36.4859 7.568 37.0193 7.568C37.3819 7.568 37.7019 7.664 37.9793 7.856C38.2139 8.02667 38.4166 8.304 38.5873 8.688C38.7793 9.072 38.8753 9.424 38.8753 9.744C38.8753 10.0853 38.9606 10.256 39.1313 10.256C39.3233 10.256 39.6326 10.1173 40.0593 9.84C40.4859 9.584 41.0513 9.34933 41.7552 9.136C42.4593 8.92267 43.0246 8.816 43.4513 8.816C43.8779 8.816 44.4006 8.95467 45.0193 9.232C45.6593 9.50933 46.1606 9.81867 46.5233 10.16C47.2913 10.9067 47.8353 11.952 48.1553 13.296C48.4966 14.64 48.6673 16.5067 48.6673 18.896C48.6673 20.5813 48.6139 21.6907 48.5073 22.224C48.4006 22.736 48.1553 23.0987 47.7713 23.312C47.5153 23.44 47.2059 23.504 46.8433 23.504C46.4593 23.504 46.1393 23.44 45.8833 23.312C45.5206 23.12 45.2859 22.768 45.1793 22.256C45.0939 21.7227 45.0299 20.4427 44.9873 18.416C44.9446 16.3893 44.8593 15.056 44.7313 14.416C44.6033 13.7547 44.3366 13.2213 43.9313 12.816C43.7179 12.6027 43.4513 12.496 43.1313 12.496C42.5979 12.496 42.0219 12.7627 41.4033 13.296C40.8059 13.808 40.3153 14.4693 39.9313 15.28C39.7393 15.6853 39.6219 16.0693 39.5793 16.432C39.5366 16.7947 39.4939 17.6267 39.4513 18.928C39.4086 20.72 39.3233 21.7867 39.1953 22.128C38.8966 22.9173 38.3206 23.312 37.4673 23.312C36.7633 23.312 36.2299 23.0027 35.8673 22.384C35.7606 22.1493 35.6539 20.1547 35.5473 16.4C35.4193 12.368 35.3339 10.1387 35.2913 9.712C35.2486 9.28533 35.2273 9.05067 35.2273 9.008C35.2273 8.73067 35.3873 8.432 35.7073 8.112ZM56.6783 8.496C57.0623 8.432 57.4569 8.4 57.8623 8.4C59.1423 8.4 60.2836 8.688 61.2863 9.264C62.2889 9.84 62.7903 10.5013 62.7903 11.248C62.7903 11.44 62.7583 11.6107 62.6943 11.76C62.3743 12.5707 61.8943 12.976 61.2543 12.976C60.7849 12.976 60.2516 12.8267 59.6543 12.528C58.9716 12.1867 58.3423 12.016 57.7663 12.016C57.1476 12.016 56.6356 12.2187 56.2303 12.624C56.0169 12.8373 55.9103 13.008 55.9103 13.136C55.9103 13.3067 56.0703 13.5093 56.3903 13.744C56.7316 13.9573 57.3503 14.2987 58.2463 14.768C59.7183 15.536 60.7103 16.1653 61.2223 16.656C61.7129 17.0827 62.1396 17.616 62.5023 18.256C62.8649 18.8747 63.0463 19.3973 63.0463 19.824C63.0463 20.3147 62.9183 20.8053 62.6623 21.296C62.4063 21.7867 62.0863 22.16 61.7023 22.416C60.7209 23.0773 59.5263 23.408 58.1183 23.408C56.7956 23.408 55.4303 23.0987 54.0223 22.48C53.3609 22.16 52.9449 21.7973 52.7743 21.392C52.6463 21.0933 52.5823 20.8267 52.5823 20.592C52.5823 20.1653 52.7849 19.7493 53.1903 19.344C53.4676 19.024 53.8409 18.864 54.3103 18.864C54.7583 18.864 55.3023 19.0027 55.9423 19.28C56.6463 19.5787 57.4569 19.728 58.3743 19.728C58.8009 19.728 59.0143 19.6747 59.0143 19.568C59.0143 19.312 58.0969 18.7253 56.2623 17.808C54.8329 17.0613 53.7876 16.3253 53.1263 15.6C52.4649 14.8533 52.1343 14.032 52.1343 13.136C52.1343 12.0693 52.5716 11.088 53.4463 10.192C54.3423 9.27467 55.4196 8.70933 56.6783 8.496ZM75.3093 12.944C74.9253 12.6667 74.3173 12.528 73.4853 12.528C72.9733 12.528 72.5679 12.592 72.2693 12.72C71.9919 12.848 71.6719 13.1147 71.3093 13.52C70.9679 13.904 70.7973 14.1813 70.7973 14.352C70.7973 14.5013 70.9573 14.576 71.2773 14.576C71.7039 14.5547 72.5893 14.4587 73.9333 14.288C75.2773 14.1173 75.9706 14.0107 76.0133 13.968C76.0346 13.9467 76.0453 13.9147 76.0453 13.872C76.0453 13.6373 75.7999 13.328 75.3093 12.944ZM71.8533 9.04C72.2373 8.93333 72.7066 8.88 73.2613 8.88C74.3919 8.88 75.3626 9.04 76.1733 9.36C76.8346 9.59467 77.4853 10.0533 78.1253 10.736C78.7866 11.3973 79.3306 12.144 79.7573 12.976C80.1839 13.8293 80.3973 14.4053 80.3973 14.704C80.3973 15.3867 80.0986 16.0267 79.5013 16.624C78.8613 17.2 76.8666 17.6267 73.5173 17.904C72.2373 18.0107 71.4053 18.096 71.0213 18.16C70.6373 18.224 70.4453 18.32 70.4453 18.448C70.4453 18.5547 70.6373 18.7787 71.0213 19.12C71.6826 19.76 72.8666 20.144 74.5733 20.272C74.7439 20.2933 74.9679 20.304 75.2453 20.304C75.6933 20.304 76.2266 20.1973 76.8453 19.984C77.7199 19.664 78.4133 19.504 78.9253 19.504C79.6933 19.504 80.1946 19.888 80.4293 20.656C80.4933 20.848 80.5253 21.0293 80.5253 21.2C80.5253 21.9253 80.0666 22.5227 79.1493 22.992C78.2533 23.44 76.9839 23.696 75.3413 23.76C75.2559 23.76 75.1386 23.7707 74.9893 23.792C74.8399 23.792 74.7333 23.792 74.6693 23.792C72.8559 23.792 71.2879 23.44 69.9653 22.736C68.6639 22.0107 67.6826 20.9867 67.0213 19.664C66.7013 19.024 66.5413 18.1707 66.5413 17.104C66.5413 16.0373 66.6479 15.1947 66.8613 14.576C67.3946 12.976 68.0559 11.7493 68.8453 10.896C69.6346 10.0213 70.6373 9.40267 71.8533 9.04ZM88.938 1.52C89.3007 1.15733 89.738 0.975998 90.25 0.975998C90.634 0.975998 90.9753 1.09333 91.274 1.328C91.594 1.54133 91.818 1.85067 91.946 2.256C92.01 2.49067 92.1167 3.6 92.266 5.584C92.4153 7.54667 92.49 8.912 92.49 9.68C92.49 9.872 92.5327 9.98933 92.618 10.032C92.7247 10.0747 92.97 10.096 93.354 10.096C93.93 10.096 94.2607 10.032 94.346 9.904C94.3887 9.79733 94.826 9.744 95.658 9.744C96.7247 9.744 97.4287 9.81867 97.77 9.968C98.09 10.1173 98.3353 10.4053 98.506 10.832C98.6553 11.1307 98.73 11.376 98.73 11.568C98.73 11.7173 98.698 11.8987 98.634 12.112C98.4847 12.6027 98.2073 12.9333 97.802 13.104C97.418 13.2533 96.65 13.36 95.498 13.424C94.1967 13.488 93.354 13.5733 92.97 13.68L92.458 13.808L92.586 18.32C92.6287 20.3253 92.65 21.4027 92.65 21.552C92.65 22.4907 92.5753 23.12 92.426 23.44C92.106 24.1227 91.5833 24.464 90.858 24.464C90.5807 24.464 90.2927 24.4 89.994 24.272C89.7593 24.1653 89.5887 24.0693 89.482 23.984C89.3753 23.8773 89.2793 23.6107 89.194 23.184C89.1087 22.736 89.0553 22.2133 89.034 21.616C89.0127 21.0187 88.9913 20.0373 88.97 18.672L88.906 14.032L87.946 14.064C87.37 14.1067 86.858 14.192 86.41 14.32C86.3033 14.3627 86.1327 14.384 85.898 14.384C85.1727 14.384 84.65 14.16 84.33 13.712C84.1593 13.4347 84.074 13.0613 84.074 12.592C84.074 12.1867 84.138 11.8667 84.266 11.632C84.5647 11.0987 85.61 10.6933 87.402 10.416L88.874 10.192L88.746 7.376C88.6607 5.37067 88.586 4.00533 88.522 3.28C88.4793 2.768 88.458 2.49067 88.458 2.448C88.458 2.14933 88.618 1.84 88.938 1.52ZM106.835 8.496C107.219 8.432 107.613 8.4 108.019 8.4C109.299 8.4 110.44 8.688 111.443 9.264C112.445 9.84 112.947 10.5013 112.947 11.248C112.947 11.44 112.915 11.6107 112.851 11.76C112.531 12.5707 112.051 12.976 111.411 12.976C110.941 12.976 110.408 12.8267 109.811 12.528C109.128 12.1867 108.499 12.016 107.923 12.016C107.304 12.016 106.792 12.2187 106.387 12.624C106.173 12.8373 106.067 13.008 106.067 13.136C106.067 13.3067 106.227 13.5093 106.547 13.744C106.888 13.9573 107.507 14.2987 108.403 14.768C109.875 15.536 110.867 16.1653 111.379 16.656C111.869 17.0827 112.296 17.616 112.659 18.256C113.021 18.8747 113.203 19.3973 113.203 19.824C113.203 20.3147 113.075 20.8053 112.819 21.296C112.563 21.7867 112.243 22.16 111.859 22.416C110.877 23.0773 109.683 23.408 108.275 23.408C106.952 23.408 105.587 23.0987 104.179 22.48C103.517 22.16 103.101 21.7973 102.931 21.392C102.803 21.0933 102.739 20.8267 102.739 20.592C102.739 20.1653 102.941 19.7493 103.347 19.344C103.624 19.024 103.997 18.864 104.467 18.864C104.915 18.864 105.459 19.0027 106.099 19.28C106.803 19.5787 107.613 19.728 108.531 19.728C108.957 19.728 109.171 19.6747 109.171 19.568C109.171 19.312 108.253 18.7253 106.419 17.808C104.989 17.0613 103.944 16.3253 103.283 15.6C102.621 14.8533 102.291 14.032 102.291 13.136C102.291 12.0693 102.728 11.088 103.603 10.192C104.499 9.27467 105.576 8.70933 106.835 8.496ZM116.954 21.424C117.124 21.0613 117.316 20.816 117.53 20.688C117.743 20.56 118.116 20.496 118.65 20.496C119.012 20.496 119.258 20.528 119.386 20.592C119.535 20.656 119.706 20.8053 119.898 21.04C120.218 21.424 120.378 21.8293 120.378 22.256C120.378 22.7253 120.175 23.1627 119.77 23.568C119.364 23.9733 118.948 24.176 118.522 24.176C118.095 24.176 117.679 23.9947 117.274 23.632C116.89 23.248 116.698 22.8533 116.698 22.448C116.698 22.128 116.783 21.7867 116.954 21.424Z" fill="#27263C"/>
</svg>
