<svg width="102" height="25" viewBox="0 0 102 25" fill="none" xmlns="http://www.w3.org/2000/svg">
<path d="M6.744 2.768C7.21333 2.64 7.74667 2.576 8.344 2.576C9.21867 2.576 10.0613 2.704 10.872 2.96C11.6827 3.19467 12.2373 3.504 12.536 3.888C12.7707 4.18667 12.888 4.50667 12.888 4.848C12.888 5.57333 12.536 6.10667 11.832 6.448C11.5547 6.59733 11.32 6.672 11.128 6.672C10.9573 6.672 10.7547 6.62933 10.52 6.544C9.98667 6.37333 9.4 6.26667 8.76 6.224C8.696 6.224 8.6 6.224 8.472 6.224C8.36533 6.20267 8.29067 6.192 8.248 6.192C7.8 6.192 7.33067 6.32 6.84 6.576C5.90133 7.04533 5.37867 7.62133 5.272 8.304C5.272 8.34667 5.26133 8.4 5.24 8.464C5.24 8.50667 5.24 8.53867 5.24 8.56C5.24 8.88 5.4 9.15733 5.72 9.392C6.06133 9.62667 6.70133 9.92533 7.64 10.288C9.688 11.0773 11.16 11.888 12.056 12.72C12.9733 13.552 13.6133 14.6613 13.976 16.048C14.168 16.752 14.264 17.424 14.264 18.064C14.264 20.2187 13.176 21.8293 11 22.896C10.3813 23.1733 9.92267 23.3547 9.624 23.44C9.32533 23.504 8.86667 23.536 8.248 23.536C6.92533 23.5147 5.57067 23.28 4.184 22.832C2.81867 22.384 1.86933 21.8613 1.336 21.264C0.973333 20.8373 0.792 20.4 0.792 19.952C0.792 19.504 0.973333 19.0987 1.336 18.736C1.72 18.3947 2.11467 18.224 2.52 18.224C2.904 18.224 3.37333 18.3947 3.928 18.736C4.29067 18.992 4.97333 19.2693 5.976 19.568C6.97867 19.8453 7.74667 19.984 8.28 19.984C8.62133 19.984 9.048 19.8453 9.56 19.568C10.3067 19.2053 10.68 18.6507 10.68 17.904C10.68 17.6693 10.648 17.424 10.584 17.168C10.4133 16.336 10.0613 15.7067 9.528 15.28C8.99467 14.832 7.90667 14.2773 6.264 13.616C4.87733 13.0827 3.88533 12.592 3.288 12.144C2.2 11.248 1.656 10.0213 1.656 8.464C1.656 7.48267 1.88 6.61867 2.328 5.872C2.69067 5.232 3.288 4.624 4.12 4.048C4.97333 3.45067 5.848 3.024 6.744 2.768ZM26.5593 12.944C26.1753 12.6667 25.5673 12.528 24.7353 12.528C24.2233 12.528 23.8179 12.592 23.5193 12.72C23.2419 12.848 22.9219 13.1147 22.5593 13.52C22.2179 13.904 22.0473 14.1813 22.0473 14.352C22.0473 14.5013 22.2073 14.576 22.5273 14.576C22.9539 14.5547 23.8393 14.4587 25.1833 14.288C26.5273 14.1173 27.2206 14.0107 27.2633 13.968C27.2846 13.9467 27.2953 13.9147 27.2953 13.872C27.2953 13.6373 27.0499 13.328 26.5593 12.944ZM23.1033 9.04C23.4873 8.93333 23.9566 8.88 24.5113 8.88C25.6419 8.88 26.6126 9.04 27.4233 9.36C28.0846 9.59467 28.7353 10.0533 29.3753 10.736C30.0366 11.3973 30.5806 12.144 31.0073 12.976C31.4339 13.8293 31.6473 14.4053 31.6473 14.704C31.6473 15.3867 31.3486 16.0267 30.7513 16.624C30.1113 17.2 28.1166 17.6267 24.7673 17.904C23.4873 18.0107 22.6553 18.096 22.2713 18.16C21.8873 18.224 21.6953 18.32 21.6953 18.448C21.6953 18.5547 21.8873 18.7787 22.2713 19.12C22.9326 19.76 24.1166 20.144 25.8233 20.272C25.9939 20.2933 26.2179 20.304 26.4953 20.304C26.9433 20.304 27.4766 20.1973 28.0953 19.984C28.9699 19.664 29.6633 19.504 30.1753 19.504C30.9433 19.504 31.4446 19.888 31.6793 20.656C31.7433 20.848 31.7753 21.0293 31.7753 21.2C31.7753 21.9253 31.3166 22.5227 30.3993 22.992C29.5033 23.44 28.2339 23.696 26.5913 23.76C26.5059 23.76 26.3886 23.7707 26.2393 23.792C26.0899 23.792 25.9833 23.792 25.9193 23.792C24.1059 23.792 22.5379 23.44 21.2153 22.736C19.9139 22.0107 18.9326 20.9867 18.2713 19.664C17.9513 19.024 17.7913 18.1707 17.7913 17.104C17.7913 16.0373 17.8979 15.1947 18.1113 14.576C18.6446 12.976 19.3059 11.7493 20.0953 10.896C20.8846 10.0213 21.8873 9.40267 23.1033 9.04ZM35.804 1.424C36.1453 1.08267 36.5507 0.911999 37.02 0.911999C37.468 0.911999 37.8627 1.08267 38.204 1.424C38.5453 1.76533 38.7587 2.32 38.844 3.088C38.8653 3.30133 38.876 4.58133 38.876 6.928C38.876 17.8933 38.8013 23.6 38.652 24.048C38.5667 24.304 38.3747 24.5067 38.076 24.656C37.7773 24.8053 37.4467 24.88 37.084 24.88C36.6573 24.88 36.316 24.7947 36.06 24.624C35.676 24.368 35.4307 23.9947 35.324 23.504C35.2387 22.992 35.196 21.6267 35.196 19.408C35.196 16.8267 35.2067 14.5333 35.228 12.528L35.324 1.904L35.804 1.424ZM49.8105 1.264C50.0238 1.2 50.2905 1.168 50.6105 1.168C51.6345 1.168 52.4452 1.33867 53.0425 1.68C53.8532 2.17067 54.2585 2.832 54.2585 3.664C54.2585 4.304 53.9705 4.77333 53.3945 5.072C53.1172 5.22133 52.8185 5.296 52.4985 5.296C52.1785 5.296 51.8052 5.2 51.3785 5.008C51.0372 4.85867 50.8558 4.784 50.8345 4.784C50.7492 4.784 50.6105 4.88 50.4185 5.072C50.1838 5.30667 49.9812 5.78667 49.8105 6.512C49.6398 7.23733 49.5545 8.03733 49.5545 8.912V9.584C49.5545 9.88267 49.5865 10.0853 49.6505 10.192C49.7145 10.2987 49.8638 10.352 50.0985 10.352C50.3118 10.352 50.8238 10.2987 51.6345 10.192C51.8265 10.1707 52.0825 10.16 52.4025 10.16C53.8745 10.16 54.6105 10.7573 54.6105 11.952C54.5892 12.5707 54.3652 13.0187 53.9385 13.296C53.5332 13.552 52.8078 13.7227 51.7625 13.808C50.7598 13.8933 50.2052 13.968 50.0985 14.032C50.0772 14.032 50.0665 14.128 50.0665 14.32C50.0665 14.8747 50.1732 15.9733 50.3865 17.616C50.5998 19.2587 50.8025 20.5493 50.9945 21.488C51.0798 22 51.1225 22.352 51.1225 22.544C51.1225 23.2693 50.9518 23.8453 50.6105 24.272C50.2692 24.6987 49.7998 24.912 49.2025 24.912C48.7118 24.912 48.2958 24.752 47.9545 24.432C47.7198 24.176 47.5598 23.8987 47.4745 23.6C47.4105 23.28 47.3145 22.448 47.1865 21.104C46.9732 19.0773 46.7812 17.4773 46.6105 16.304L46.3225 14.288L44.7545 14.224C44.0292 14.1813 43.5705 14.128 43.3785 14.064C43.1865 14 42.9945 13.8613 42.8025 13.648C42.5252 13.3067 42.3865 12.8907 42.3865 12.4C42.3865 12.1013 42.4505 11.824 42.5785 11.568C42.8772 11.056 43.6238 10.736 44.8185 10.608L45.8425 10.512L45.9385 8.56C46.0665 6.34133 46.4398 4.656 47.0585 3.504C47.6772 2.33067 48.5945 1.584 49.8105 1.264ZM59.6063 9.456C59.6916 9.43467 59.8196 9.424 59.9903 9.424C60.4596 9.424 60.8756 9.57333 61.2383 9.872C61.6009 10.1707 61.8143 10.5547 61.8783 11.024C61.9636 11.4933 62.0063 13.5093 62.0063 17.072L62.0383 22.48L61.4943 22.992C61.1316 23.3547 60.7049 23.536 60.2143 23.536C59.7663 23.536 59.3823 23.376 59.0623 23.056C58.8489 22.8427 58.6996 22.6293 58.6143 22.416C58.5503 22.1813 58.4969 21.7333 58.4543 21.072C58.3903 20.24 58.3583 18.2347 58.3583 15.056L58.3263 10.576L58.7743 10.032C59.0943 9.69067 59.3716 9.49867 59.6063 9.456ZM59.0303 3.088C59.3076 2.93867 59.5956 2.864 59.8943 2.864C60.3849 2.864 60.8009 3.04533 61.1423 3.408C61.4836 3.77067 61.6543 4.18667 61.6543 4.656C61.6543 5.06133 61.4943 5.456 61.1743 5.84C60.7689 6.26667 60.3209 6.48 59.8303 6.48C59.3609 6.48 58.9449 6.32 58.5823 6C58.2409 5.65867 58.0703 5.25333 58.0703 4.784C58.0703 4.50666 58.1343 4.22933 58.2623 3.952C58.4543 3.54667 58.7103 3.25867 59.0303 3.088ZM75.3668 13.808C74.9828 13.616 74.4388 13.52 73.7348 13.52C72.9668 13.52 72.3161 13.6373 71.7828 13.872C71.4201 14.0213 70.9508 14.352 70.3748 14.864C69.7988 15.3547 69.5108 15.6747 69.5108 15.824C69.5108 15.888 69.8414 15.92 70.5028 15.92C71.4841 15.92 72.6574 15.8667 74.0228 15.76C75.3881 15.6533 76.1668 15.536 76.3588 15.408C76.4228 15.3867 76.4548 15.3227 76.4548 15.216C76.4548 15.024 76.3374 14.7787 76.1028 14.48C75.8681 14.16 75.6228 13.936 75.3668 13.808ZM71.5908 10.096C72.1241 9.94667 72.7534 9.872 73.4788 9.872C74.8228 9.872 76.0494 10.1387 77.1588 10.672C77.9908 11.0987 78.6841 11.7493 79.2388 12.624C79.7934 13.4773 80.1348 14.4373 80.2628 15.504C80.2628 15.5467 80.2628 15.6107 80.2628 15.696C80.2841 15.7813 80.2948 15.8453 80.2948 15.888C80.2948 16.4427 80.1881 16.9867 79.9748 17.52C79.7828 18.0533 79.5481 18.416 79.2708 18.608C78.9081 18.864 76.3588 19.184 71.6228 19.568C70.6201 19.6533 70.1188 19.7493 70.1188 19.856C70.1188 19.984 70.3428 20.1867 70.7908 20.464C71.2388 20.7413 71.6761 20.9333 72.1028 21.04C72.4868 21.1253 72.7961 21.168 73.0308 21.168C73.7134 21.168 74.5988 20.944 75.6868 20.496C76.4548 20.176 77.0201 20.016 77.3828 20.016C77.7454 20.016 78.0868 20.176 78.4068 20.496C78.8334 20.9227 79.0468 21.328 79.0468 21.712C79.0468 21.968 78.9828 22.2347 78.8548 22.512C78.7481 22.768 78.5988 22.9707 78.4068 23.12C78.2361 23.2693 77.9161 23.4507 77.4468 23.664C75.8894 24.3467 74.4388 24.688 73.0948 24.688C72.3268 24.688 71.5374 24.5707 70.7268 24.336C69.6388 23.9947 68.6468 23.4187 67.7508 22.608C66.8548 21.776 66.2148 20.8587 65.8307 19.856C65.5961 19.1947 65.4788 18.4587 65.4788 17.648C65.4788 16.4747 65.6708 15.4933 66.0548 14.704C66.5028 13.7227 67.2601 12.784 68.3268 11.888C69.3934 10.992 70.4814 10.3947 71.5908 10.096ZM88.3033 8.496C88.6873 8.432 89.0819 8.4 89.4873 8.4C90.7673 8.4 91.9086 8.688 92.9113 9.264C93.9139 9.84 94.4153 10.5013 94.4153 11.248C94.4153 11.44 94.3833 11.6107 94.3193 11.76C93.9993 12.5707 93.5193 12.976 92.8793 12.976C92.4099 12.976 91.8766 12.8267 91.2793 12.528C90.5966 12.1867 89.9673 12.016 89.3913 12.016C88.7726 12.016 88.2606 12.2187 87.8553 12.624C87.6419 12.8373 87.5353 13.008 87.5353 13.136C87.5353 13.3067 87.6953 13.5093 88.0153 13.744C88.3566 13.9573 88.9753 14.2987 89.8713 14.768C91.3433 15.536 92.3353 16.1653 92.8473 16.656C93.3379 17.0827 93.7646 17.616 94.1273 18.256C94.4899 18.8747 94.6713 19.3973 94.6713 19.824C94.6713 20.3147 94.5433 20.8053 94.2873 21.296C94.0313 21.7867 93.7113 22.16 93.3273 22.416C92.3459 23.0773 91.1513 23.408 89.7433 23.408C88.4206 23.408 87.0553 23.0987 85.6473 22.48C84.9859 22.16 84.5699 21.7973 84.3993 21.392C84.2713 21.0933 84.2073 20.8267 84.2073 20.592C84.2073 20.1653 84.4099 19.7493 84.8153 19.344C85.0926 19.024 85.4659 18.864 85.9353 18.864C86.3833 18.864 86.9273 19.0027 87.5673 19.28C88.2713 19.5787 89.0819 19.728 89.9993 19.728C90.4259 19.728 90.6393 19.6747 90.6393 19.568C90.6393 19.312 89.7219 18.7253 87.8873 17.808C86.4579 17.0613 85.4126 16.3253 84.7513 15.6C84.0899 14.8533 83.7593 14.032 83.7593 13.136C83.7593 12.0693 84.1966 11.088 85.0713 10.192C85.9673 9.27467 87.0446 8.70933 88.3033 8.496ZM98.4223 21.424C98.5929 21.0613 98.7849 20.816 98.9983 20.688C99.2116 20.56 99.5849 20.496 100.118 20.496C100.481 20.496 100.726 20.528 100.854 20.592C101.004 20.656 101.174 20.8053 101.366 21.04C101.686 21.424 101.846 21.8293 101.846 22.256C101.846 22.7253 101.644 23.1627 101.238 23.568C100.833 23.9733 100.417 24.176 99.9903 24.176C99.5636 24.176 99.1476 23.9947 98.7423 23.632C98.3583 23.248 98.1663 22.8533 98.1663 22.448C98.1663 22.128 98.2516 21.7867 98.4223 21.424Z" fill="#27263C"/>
</svg>
