<svg width="286" height="65" viewBox="0 0 286 65" fill="none" xmlns="http://www.w3.org/2000/svg">
<path d="M1.304 3.408C1.66667 3.04533 2.06133 2.864 2.488 2.864C2.76533 2.864 3.07467 2.94933 3.416 3.12C3.69333 3.26933 3.90667 3.504 4.056 3.824C4.20533 4.144 4.376 4.73067 4.568 5.584C4.86667 6.928 5.58133 9.392 6.712 12.976C7.864 16.56 8.52533 18.4053 8.696 18.512C8.71733 18.512 8.728 18.5227 8.728 18.544C8.728 18.544 8.73867 18.544 8.76 18.544C8.90933 18.544 9.464 17.3493 10.424 14.96C11.2347 13.0187 11.8213 11.6853 12.184 10.96C12.5467 10.2133 12.8453 9.776 13.08 9.648C13.336 9.49867 13.7733 9.424 14.392 9.424H14.616C15.2347 9.424 15.7147 9.70133 16.056 10.256C16.3973 10.7893 17.1973 12.464 18.456 15.28C19.3733 17.3067 19.928 18.32 20.12 18.32C20.1413 18.32 20.1627 18.3093 20.184 18.288C20.312 18.16 20.6427 16.9227 21.176 14.576C21.5387 12.9333 22.072 10.96 22.776 8.656C23.48 6.352 24.0027 4.83733 24.344 4.112C24.6853 3.38667 25.2827 3.024 26.136 3.024C26.4987 3.024 26.8507 3.19467 27.192 3.536C27.5547 3.856 27.736 4.19733 27.736 4.56C27.736 4.92267 27.3307 6.32 26.52 8.752C25.688 11.2053 25.1013 13.232 24.76 14.832C24.0773 17.776 23.5333 19.8453 23.128 21.04C22.744 22.2133 22.3173 23.056 21.848 23.568C21.592 23.8453 21.304 23.984 20.984 23.984C20.7493 23.984 20.5467 23.9733 20.376 23.952C19.928 23.9093 19.5973 23.856 19.384 23.792C19.192 23.728 19 23.5893 18.808 23.376C18.104 22.6293 16.9947 20.6027 15.48 17.296C14.84 15.9093 14.4667 15.216 14.36 15.216C14.2533 15.216 14.008 15.6427 13.624 16.496C13.5173 16.752 13.3147 17.2213 13.016 17.904C12.7173 18.5653 12.5147 19.024 12.408 19.28C11.128 22.1813 9.816 23.632 8.472 23.632C7.68267 23.632 6.968 23.088 6.328 22C5.66667 20.8693 4.62133 18.0853 3.192 13.648C1.76267 9.21067 0.994667 6.36267 0.888 5.104C0.845333 4.63467 0.824 4.37867 0.824 4.336C0.824 4.03733 0.984 3.728 1.304 3.408ZM40.1218 12.944C39.7378 12.6667 39.1298 12.528 38.2978 12.528C37.7858 12.528 37.3804 12.592 37.0818 12.72C36.8044 12.848 36.4844 13.1147 36.1218 13.52C35.7804 13.904 35.6098 14.1813 35.6098 14.352C35.6098 14.5013 35.7698 14.576 36.0898 14.576C36.5164 14.5547 37.4018 14.4587 38.7458 14.288C40.0898 14.1173 40.7831 14.0107 40.8258 13.968C40.8471 13.9467 40.8578 13.9147 40.8578 13.872C40.8578 13.6373 40.6124 13.328 40.1218 12.944ZM36.6658 9.04C37.0498 8.93333 37.5191 8.88 38.0738 8.88C39.2044 8.88 40.1751 9.04 40.9858 9.36C41.6471 9.59467 42.2978 10.0533 42.9378 10.736C43.5991 11.3973 44.1431 12.144 44.5698 12.976C44.9964 13.8293 45.2098 14.4053 45.2098 14.704C45.2098 15.3867 44.9111 16.0267 44.3138 16.624C43.6738 17.2 41.6791 17.6267 38.3298 17.904C37.0498 18.0107 36.2178 18.096 35.8338 18.16C35.4498 18.224 35.2578 18.32 35.2578 18.448C35.2578 18.5547 35.4498 18.7787 35.8338 19.12C36.4951 19.76 37.6791 20.144 39.3858 20.272C39.5564 20.2933 39.7804 20.304 40.0578 20.304C40.5058 20.304 41.0391 20.1973 41.6578 19.984C42.5324 19.664 43.2258 19.504 43.7378 19.504C44.5058 19.504 45.0071 19.888 45.2418 20.656C45.3058 20.848 45.3378 21.0293 45.3378 21.2C45.3378 21.9253 44.8791 22.5227 43.9618 22.992C43.0658 23.44 41.7964 23.696 40.1538 23.76C40.0684 23.76 39.9511 23.7707 39.8018 23.792C39.6524 23.792 39.5458 23.792 39.4818 23.792C37.6684 23.792 36.1004 23.44 34.7778 22.736C33.4764 22.0107 32.4951 20.9867 31.8338 19.664C31.5138 19.024 31.3538 18.1707 31.3538 17.104C31.3538 16.0373 31.4604 15.1947 31.6738 14.576C32.2071 12.976 32.8684 11.7493 33.6578 10.896C34.4471 10.0213 35.4498 9.40267 36.6658 9.04ZM50.5185 8.912C50.6038 8.89067 50.7318 8.88 50.9025 8.88C51.3078 8.88 51.6812 8.98667 52.0225 9.2C52.3638 9.392 52.5985 9.65867 52.7265 10C52.8118 10.192 52.8972 11.6533 52.9825 14.384C53.0892 17.0933 53.1425 19.2267 53.1425 20.784C53.1425 21.4453 53.1318 21.8293 53.1105 21.936C53.0038 22.7467 52.6518 23.2907 52.0545 23.568C51.7558 23.696 51.5212 23.76 51.3505 23.76C51.2225 23.76 51.0305 23.728 50.7745 23.664C50.2838 23.5147 49.9745 23.312 49.8465 23.056C49.5905 22.5653 49.4412 20.6667 49.3985 17.36C49.3985 16.7627 49.3878 15.728 49.3665 14.256L49.3345 9.872L49.7185 9.424C49.9745 9.12533 50.2412 8.95467 50.5185 8.912ZM49.7505 2.896C50.0065 2.768 50.2518 2.704 50.4865 2.704C50.9558 2.704 51.3718 2.896 51.7345 3.28C52.0972 3.64267 52.2785 4.06933 52.2785 4.56C52.2785 4.90133 52.1932 5.2 52.0225 5.456C51.6598 6.032 51.1692 6.32 50.5505 6.32C50.1452 6.32 49.7718 6.18133 49.4305 5.904C49.0892 5.62667 48.8758 5.24267 48.7905 4.752C48.7905 4.73067 48.7798 4.69867 48.7585 4.656C48.7585 4.592 48.7585 4.54933 48.7585 4.528C48.7585 4.208 48.8545 3.89867 49.0465 3.6C49.2385 3.28 49.4732 3.04533 49.7505 2.896ZM57.0518 9.328C57.4358 9.008 57.8518 8.848 58.2998 8.848C58.7691 8.848 59.1744 9.01867 59.5158 9.36C59.8571 9.68 60.0278 10.096 60.0278 10.608C60.0278 11.12 60.1238 11.376 60.3158 11.376C60.4224 11.376 60.6464 11.2587 60.9878 11.024C62.5664 9.936 64.1344 9.392 65.6918 9.392C66.3531 9.392 67.0038 9.50933 67.6438 9.744C68.2198 9.97867 68.6251 10.2347 68.8598 10.512C69.0944 10.7893 69.2118 11.1627 69.2118 11.632C69.2118 12.144 69.0198 12.5813 68.6358 12.944C68.3158 13.2427 68.0278 13.392 67.7718 13.392C67.6864 13.392 67.0891 13.3173 65.9798 13.168C65.8518 13.1467 65.6704 13.136 65.4358 13.136C65.0944 13.136 64.6571 13.2533 64.1238 13.488C62.7371 14.128 61.7664 14.9387 61.2118 15.92C60.6571 16.9013 60.3798 18.3093 60.3798 20.144C60.3584 21.488 60.1984 22.4267 59.8998 22.96C59.6224 23.4933 59.1211 23.76 58.3958 23.76C57.9051 23.76 57.4891 23.5893 57.1478 23.248L56.6358 22.736L56.5718 17.072C56.5291 12.8907 56.5078 10.736 56.5078 10.608C56.5078 10.096 56.6891 9.66933 57.0518 9.328ZM80.7608 13.872C80.5688 13.6373 80.2381 13.52 79.7688 13.52C79.3848 13.52 79.0008 13.616 78.6168 13.808C78.0408 14.0853 77.4968 14.672 76.9848 15.568C76.4728 16.464 76.2168 17.2533 76.2168 17.936C76.2168 18.1493 76.2488 18.3307 76.3128 18.48C76.4621 18.8213 76.8248 19.1413 77.4008 19.44C77.9768 19.7173 78.5208 19.856 79.0328 19.856C79.1394 19.856 79.2994 19.8347 79.5128 19.792C80.0034 19.6427 80.4941 19.2373 80.9848 18.576C81.4968 17.8933 81.8914 17.0933 82.1688 16.176C82.3394 15.6213 82.4248 15.248 82.4248 15.056C82.4248 14.7573 82.2008 14.544 81.7528 14.416C81.2408 14.224 80.9101 14.0427 80.7608 13.872ZM83.3528 2.704C83.5448 2.61867 83.7688 2.576 84.0248 2.576C84.8354 2.576 85.3794 2.928 85.6568 3.632C85.7848 3.952 85.9874 5.24267 86.2648 7.504C86.5208 9.872 86.6701 11.2053 86.7128 11.504C87.5874 17.84 88.0248 21.4667 88.0248 22.384C88.0248 22.8107 87.8434 23.184 87.4808 23.504C87.1394 23.824 86.7448 23.984 86.2968 23.984C85.6781 23.984 85.1981 23.76 84.8568 23.312C84.5154 22.8427 84.3448 22.2133 84.3448 21.424C84.3448 21.0827 84.3021 20.8693 84.2168 20.784H84.1848C84.0568 20.784 83.6621 21.0933 83.0008 21.712C82.2968 22.416 81.6141 22.8853 80.9528 23.12C80.3554 23.3547 79.6728 23.472 78.9048 23.472C77.7741 23.472 76.6861 23.1947 75.6408 22.64C74.5954 22.064 73.7848 21.3067 73.2088 20.368C72.9954 20.0053 72.8568 19.696 72.7928 19.44C72.7501 19.1627 72.7288 18.64 72.7288 17.872C72.7501 16.8907 72.8674 16.0693 73.0807 15.408C73.2941 14.7467 73.6888 13.9787 74.2648 13.104C74.6701 12.4853 75.2461 11.888 75.9928 11.312C76.7394 10.736 77.3901 10.3627 77.9448 10.192C78.4994 10.0427 79.0861 9.968 79.7048 9.968C80.4728 9.968 81.1448 10.064 81.7208 10.256C82.3394 10.448 82.6701 10.544 82.7128 10.544C82.7554 10.544 82.7768 10.416 82.7768 10.16C82.7768 9.456 82.6914 8.57067 82.5208 7.504C82.3714 6.62933 82.2968 5.84 82.2968 5.136C82.2968 3.81333 82.6488 3.00267 83.3528 2.704ZM101.771 9.328C102.155 9.008 102.571 8.848 103.019 8.848C103.488 8.848 103.893 9.01867 104.235 9.36C104.576 9.68 104.747 10.096 104.747 10.608C104.747 11.12 104.843 11.376 105.035 11.376C105.141 11.376 105.365 11.2587 105.707 11.024C107.285 9.936 108.853 9.392 110.411 9.392C111.072 9.392 111.723 9.50933 112.363 9.744C112.939 9.97867 113.344 10.2347 113.579 10.512C113.813 10.7893 113.931 11.1627 113.931 11.632C113.931 12.144 113.739 12.5813 113.355 12.944C113.035 13.2427 112.747 13.392 112.491 13.392C112.405 13.392 111.808 13.3173 110.699 13.168C110.571 13.1467 110.389 13.136 110.155 13.136C109.813 13.136 109.376 13.2533 108.843 13.488C107.456 14.128 106.485 14.9387 105.931 15.92C105.376 16.9013 105.099 18.3093 105.099 20.144C105.077 21.488 104.917 22.4267 104.619 22.96C104.341 23.4933 103.84 23.76 103.115 23.76C102.624 23.76 102.208 23.5893 101.867 23.248L101.355 22.736L101.291 17.072C101.248 12.8907 101.227 10.736 101.227 10.608C101.227 10.096 101.408 9.66933 101.771 9.328ZM128.552 13.232C127.933 12.6133 126.973 12.304 125.672 12.304C125.032 12.304 124.466 12.4107 123.976 12.624C123.506 12.8373 122.994 13.2533 122.44 13.872C121.885 14.4907 121.522 15.056 121.352 15.568C121.16 16.1227 121.064 16.6453 121.064 17.136C121.064 18.2667 121.512 19.0667 122.408 19.536C122.941 19.8133 123.634 19.952 124.488 19.952C125.064 19.952 125.501 19.8773 125.8 19.728C127.528 18.8533 128.584 17.2853 128.968 15.024L129.16 13.808L128.552 13.232ZM123.688 8.88C124.2 8.73067 124.797 8.656 125.48 8.656C126.632 8.656 127.762 8.85867 128.872 9.264C129.981 9.66933 130.749 10.1813 131.176 10.8C131.474 11.2267 131.858 11.6747 132.328 12.144C132.84 12.6773 133.309 13.5947 133.736 14.896C134.141 16.1333 134.514 17.5093 134.856 19.024C135.218 20.5387 135.4 21.5627 135.4 22.096C135.4 22.6293 135.24 23.0453 134.92 23.344C134.514 23.728 134.13 23.92 133.767 23.92C133.618 23.92 133.426 23.888 133.192 23.824C132.786 23.6747 132.466 23.4187 132.232 23.056C132.018 22.6933 131.826 22.1067 131.656 21.296C131.442 20.336 131.325 19.856 131.304 19.856C131.218 19.856 130.77 20.2613 129.96 21.072C128.36 22.6293 126.696 23.472 124.968 23.6H124.52C123.474 23.6 122.45 23.4187 121.448 23.056C120.466 22.6933 119.688 22.2133 119.112 21.616C118.813 21.3173 118.514 20.8693 118.216 20.272C117.917 19.6533 117.714 19.088 117.608 18.576C117.501 18.0427 117.448 17.5627 117.448 17.136C117.448 15.3653 118.045 13.6693 119.24 12.048C120.456 10.4267 121.938 9.37067 123.688 8.88ZM143.491 8.496C143.875 8.432 144.269 8.4 144.675 8.4C145.955 8.4 147.096 8.688 148.099 9.264C149.101 9.84 149.603 10.5013 149.603 11.248C149.603 11.44 149.571 11.6107 149.507 11.76C149.187 12.5707 148.707 12.976 148.067 12.976C147.597 12.976 147.064 12.8267 146.467 12.528C145.784 12.1867 145.155 12.016 144.579 12.016C143.96 12.016 143.448 12.2187 143.043 12.624C142.829 12.8373 142.723 13.008 142.723 13.136C142.723 13.3067 142.883 13.5093 143.203 13.744C143.544 13.9573 144.163 14.2987 145.059 14.768C146.531 15.536 147.523 16.1653 148.035 16.656C148.525 17.0827 148.952 17.616 149.315 18.256C149.677 18.8747 149.859 19.3973 149.859 19.824C149.859 20.3147 149.731 20.8053 149.475 21.296C149.219 21.7867 148.899 22.16 148.515 22.416C147.533 23.0773 146.339 23.408 144.931 23.408C143.608 23.408 142.243 23.0987 140.835 22.48C140.173 22.16 139.757 21.7973 139.587 21.392C139.459 21.0933 139.395 20.8267 139.395 20.592C139.395 20.1653 139.597 19.7493 140.003 19.344C140.28 19.024 140.653 18.864 141.123 18.864C141.571 18.864 142.115 19.0027 142.755 19.28C143.459 19.5787 144.269 19.728 145.187 19.728C145.613 19.728 145.827 19.6747 145.827 19.568C145.827 19.312 144.909 18.7253 143.075 17.808C141.645 17.0613 140.6 16.3253 139.939 15.6C139.277 14.8533 138.947 14.032 138.947 13.136C138.947 12.0693 139.384 11.088 140.259 10.192C141.155 9.27467 142.232 8.70933 143.491 8.496ZM154.058 1.552C154.42 1.25333 154.794 1.104 155.178 1.104C155.946 1.104 156.511 1.57333 156.874 2.512C157.023 2.93867 157.183 3.96267 157.354 5.584C157.524 7.184 157.663 8.67733 157.77 10.064C157.876 11.4293 157.94 12.112 157.962 12.112C158.004 12.112 158.356 11.8773 159.018 11.408C160.319 10.4907 161.556 10.032 162.73 10.032C163.818 10.032 164.767 10.4373 165.578 11.248C166.41 12.0373 167.06 13.2 167.53 14.736C167.892 15.9307 168.074 17.7867 168.074 20.304C168.074 21.8827 167.978 22.9493 167.786 23.504C167.572 24.08 167.082 24.368 166.314 24.368C165.802 24.368 165.375 24.1973 165.034 23.856L164.554 23.376L164.458 20.144C164.33 15.984 163.754 13.84 162.73 13.712H162.634C162.143 13.712 161.535 13.9893 160.81 14.544C160.084 15.0773 159.562 15.664 159.242 16.304C159.05 16.7307 158.794 17.04 158.474 17.232L158.058 17.52L157.994 21.008C157.951 22.7147 157.908 23.7493 157.866 24.112C157.844 24.4533 157.727 24.7307 157.514 24.944C157.172 25.3067 156.746 25.488 156.234 25.488C155.466 25.488 154.932 25.1467 154.634 24.464C154.484 24.0587 154.378 21.6053 154.314 17.104C154.207 9.57333 153.93 5.06133 153.482 3.568C153.418 3.33333 153.386 3.10933 153.386 2.896C153.386 2.34133 153.61 1.89333 154.058 1.552ZM181.461 13.808C181.077 13.616 180.533 13.52 179.829 13.52C179.061 13.52 178.41 13.6373 177.877 13.872C177.514 14.0213 177.045 14.352 176.469 14.864C175.893 15.3547 175.605 15.6747 175.605 15.824C175.605 15.888 175.935 15.92 176.597 15.92C177.578 15.92 178.751 15.8667 180.117 15.76C181.482 15.6533 182.261 15.536 182.453 15.408C182.517 15.3867 182.549 15.3227 182.549 15.216C182.549 15.024 182.431 14.7787 182.197 14.48C181.962 14.16 181.717 13.936 181.461 13.808ZM177.685 10.096C178.218 9.94667 178.847 9.872 179.573 9.872C180.917 9.872 182.143 10.1387 183.253 10.672C184.085 11.0987 184.778 11.7493 185.333 12.624C185.887 13.4773 186.229 14.4373 186.357 15.504C186.357 15.5467 186.357 15.6107 186.357 15.696C186.378 15.7813 186.389 15.8453 186.389 15.888C186.389 16.4427 186.282 16.9867 186.069 17.52C185.877 18.0533 185.642 18.416 185.365 18.608C185.002 18.864 182.453 19.184 177.717 19.568C176.714 19.6533 176.213 19.7493 176.213 19.856C176.213 19.984 176.437 20.1867 176.885 20.464C177.333 20.7413 177.77 20.9333 178.197 21.04C178.581 21.1253 178.89 21.168 179.125 21.168C179.807 21.168 180.693 20.944 181.781 20.496C182.549 20.176 183.114 20.016 183.477 20.016C183.839 20.016 184.181 20.176 184.501 20.496C184.927 20.9227 185.141 21.328 185.141 21.712C185.141 21.968 185.077 22.2347 184.949 22.512C184.842 22.768 184.693 22.9707 184.501 23.12C184.33 23.2693 184.01 23.4507 183.541 23.664C181.983 24.3467 180.533 24.688 179.189 24.688C178.421 24.688 177.631 24.5707 176.821 24.336C175.733 23.9947 174.741 23.4187 173.845 22.608C172.949 21.776 172.309 20.8587 171.924 19.856C171.69 19.1947 171.573 18.4587 171.573 17.648C171.573 16.4747 171.765 15.4933 172.149 14.704C172.597 13.7227 173.354 12.784 174.421 11.888C175.487 10.992 176.575 10.3947 177.685 10.096ZM194.397 8.496C194.781 8.432 195.176 8.4 195.581 8.4C196.861 8.4 198.002 8.688 199.005 9.264C200.008 9.84 200.509 10.5013 200.509 11.248C200.509 11.44 200.477 11.6107 200.413 11.76C200.093 12.5707 199.613 12.976 198.973 12.976C198.504 12.976 197.97 12.8267 197.373 12.528C196.69 12.1867 196.061 12.016 195.485 12.016C194.866 12.016 194.354 12.2187 193.949 12.624C193.736 12.8373 193.629 13.008 193.629 13.136C193.629 13.3067 193.789 13.5093 194.109 13.744C194.45 13.9573 195.069 14.2987 195.965 14.768C197.437 15.536 198.429 16.1653 198.941 16.656C199.432 17.0827 199.858 17.616 200.221 18.256C200.584 18.8747 200.765 19.3973 200.765 19.824C200.765 20.3147 200.637 20.8053 200.381 21.296C200.125 21.7867 199.805 22.16 199.421 22.416C198.44 23.0773 197.245 23.408 195.837 23.408C194.514 23.408 193.149 23.0987 191.741 22.48C191.08 22.16 190.664 21.7973 190.493 21.392C190.365 21.0933 190.301 20.8267 190.301 20.592C190.301 20.1653 190.504 19.7493 190.909 19.344C191.186 19.024 191.56 18.864 192.029 18.864C192.477 18.864 193.021 19.0027 193.661 19.28C194.365 19.5787 195.176 19.728 196.093 19.728C196.52 19.728 196.733 19.6747 196.733 19.568C196.733 19.312 195.816 18.7253 193.981 17.808C192.552 17.0613 191.506 16.3253 190.845 15.6C190.184 14.8533 189.853 14.032 189.853 13.136C189.853 12.0693 190.29 11.088 191.165 10.192C192.061 9.27467 193.138 8.70933 194.397 8.496ZM215.711 4.272C216.052 3.952 216.372 3.792 216.671 3.792C216.842 3.792 216.991 3.80267 217.119 3.824C217.695 3.888 218.1 4.08 218.335 4.4L218.751 4.88L218.687 13.264C218.666 18.7893 218.57 21.7653 218.399 22.192C218.122 22.832 217.588 23.152 216.799 23.152C216.543 23.152 216.351 23.1307 216.223 23.088C215.903 22.9813 215.69 22.9067 215.583 22.864C215.498 22.8 215.391 22.608 215.263 22.288C215.156 21.9467 215.092 21.4773 215.071 20.88C215.05 20.2827 215.039 19.3653 215.039 18.128C215.039 17.7867 215.039 17.0933 215.039 16.048C215.06 15.0027 215.071 14.128 215.071 13.424L215.103 4.784L215.711 4.272ZM244.338 12.624C244.232 12.5387 243.976 12.496 243.57 12.496C242.824 12.496 242.205 12.6027 241.714 12.816C240.05 13.584 239.218 14.8427 239.218 16.592C239.218 17.36 239.4 18.1067 239.762 18.832C240.317 19.9413 241.085 20.496 242.066 20.496C242.365 20.496 242.6 20.4427 242.77 20.336C242.962 20.2293 243.25 19.9733 243.634 19.568C244.53 18.6507 245.064 17.264 245.234 15.408C245.256 15.2373 245.266 15.024 245.266 14.768C245.266 14.3627 245.16 13.9467 244.946 13.52C244.712 13.0293 244.509 12.7307 244.338 12.624ZM241.49 9.072C241.96 8.92267 242.504 8.848 243.122 8.848C243.912 8.848 244.68 8.976 245.426 9.232C246.173 9.46667 246.738 9.78667 247.122 10.192C247.4 10.4693 247.752 11.0347 248.178 11.888C248.477 12.464 248.658 12.9333 248.722 13.296C248.808 13.6373 248.882 14.352 248.946 15.44C248.989 15.9093 249.053 16.7093 249.138 17.84C249.245 18.9707 249.33 20.016 249.394 20.976C249.458 21.936 249.49 22.8107 249.49 23.6C249.49 24.8587 249.394 25.936 249.202 26.832C248.584 29.6267 247.272 31.3867 245.266 32.112C244.626 32.3467 243.762 32.464 242.674 32.464C241.949 32.4427 241.405 32.3893 241.042 32.304C240.68 32.24 240.136 32.0693 239.41 31.792C238.173 31.3227 237.352 30.96 236.946 30.704C236.541 30.4693 236.264 30.1813 236.114 29.84C236.029 29.6053 235.986 29.3707 235.986 29.136C235.986 28.432 236.306 27.92 236.946 27.6L237.65 27.28L239.57 28.048C240.445 28.3893 241.074 28.6027 241.458 28.688C241.842 28.7733 242.333 28.816 242.93 28.816C243.57 28.816 243.976 28.784 244.146 28.72C244.317 28.6773 244.52 28.5173 244.754 28.24C245.437 27.4293 245.842 26.064 245.97 24.144C245.992 23.9733 246.002 23.7493 246.002 23.472C246.002 23.0027 245.917 22.768 245.746 22.768C245.618 22.768 245.405 22.8853 245.106 23.12C244.253 23.76 243.24 24.08 242.066 24.08H241.682C240.957 24.08 240.285 23.92 239.666 23.6C238.749 23.152 237.949 22.4907 237.266 21.616C236.605 20.7413 236.146 19.7707 235.89 18.704C235.741 17.9573 235.666 17.2 235.666 16.432C235.666 14.6613 236.178 13.1253 237.202 11.824C238.248 10.5013 239.677 9.584 241.49 9.072ZM261.747 12.944C261.363 12.6667 260.755 12.528 259.923 12.528C259.411 12.528 259.005 12.592 258.707 12.72C258.429 12.848 258.109 13.1147 257.747 13.52C257.405 13.904 257.235 14.1813 257.235 14.352C257.235 14.5013 257.395 14.576 257.715 14.576C258.141 14.5547 259.027 14.4587 260.371 14.288C261.715 14.1173 262.408 14.0107 262.451 13.968C262.472 13.9467 262.483 13.9147 262.483 13.872C262.483 13.6373 262.237 13.328 261.747 12.944ZM258.291 9.04C258.675 8.93333 259.144 8.88 259.699 8.88C260.829 8.88 261.8 9.04 262.611 9.36C263.272 9.59467 263.923 10.0533 264.563 10.736C265.224 11.3973 265.768 12.144 266.195 12.976C266.621 13.8293 266.835 14.4053 266.835 14.704C266.835 15.3867 266.536 16.0267 265.939 16.624C265.299 17.2 263.304 17.6267 259.955 17.904C258.675 18.0107 257.843 18.096 257.459 18.16C257.075 18.224 256.883 18.32 256.883 18.448C256.883 18.5547 257.075 18.7787 257.459 19.12C258.12 19.76 259.304 20.144 261.011 20.272C261.181 20.2933 261.405 20.304 261.683 20.304C262.131 20.304 262.664 20.1973 263.283 19.984C264.157 19.664 264.851 19.504 265.363 19.504C266.131 19.504 266.632 19.888 266.867 20.656C266.931 20.848 266.963 21.0293 266.963 21.2C266.963 21.9253 266.504 22.5227 265.587 22.992C264.691 23.44 263.421 23.696 261.779 23.76C261.693 23.76 261.576 23.7707 261.427 23.792C261.277 23.792 261.171 23.792 261.107 23.792C259.293 23.792 257.725 23.44 256.403 22.736C255.101 22.0107 254.12 20.9867 253.459 19.664C253.139 19.024 252.979 18.1707 252.979 17.104C252.979 16.0373 253.085 15.1947 253.299 14.576C253.832 12.976 254.493 11.7493 255.283 10.896C256.072 10.0213 257.075 9.40267 258.291 9.04ZM275.376 1.52C275.738 1.15733 276.176 0.975998 276.688 0.975998C277.072 0.975998 277.413 1.09333 277.712 1.328C278.032 1.54133 278.256 1.85067 278.384 2.256C278.448 2.49067 278.554 3.6 278.704 5.584C278.853 7.54667 278.928 8.912 278.928 9.68C278.928 9.872 278.97 9.98933 279.056 10.032C279.162 10.0747 279.408 10.096 279.792 10.096C280.368 10.096 280.698 10.032 280.784 9.904C280.826 9.79733 281.264 9.744 282.096 9.744C283.162 9.744 283.866 9.81867 284.208 9.968C284.528 10.1173 284.773 10.4053 284.944 10.832C285.093 11.1307 285.168 11.376 285.168 11.568C285.168 11.7173 285.136 11.8987 285.072 12.112C284.922 12.6027 284.645 12.9333 284.24 13.104C283.856 13.2533 283.088 13.36 281.936 13.424C280.634 13.488 279.792 13.5733 279.408 13.68L278.896 13.808L279.024 18.32C279.066 20.3253 279.088 21.4027 279.088 21.552C279.088 22.4907 279.013 23.12 278.864 23.44C278.544 24.1227 278.021 24.464 277.296 24.464C277.018 24.464 276.73 24.4 276.432 24.272C276.197 24.1653 276.026 24.0693 275.92 23.984C275.813 23.8773 275.717 23.6107 275.632 23.184C275.546 22.736 275.493 22.2133 275.472 21.616C275.45 21.0187 275.429 20.0373 275.408 18.672L275.344 14.032L274.384 14.064C273.808 14.1067 273.296 14.192 272.848 14.32C272.741 14.3627 272.57 14.384 272.336 14.384C271.61 14.384 271.088 14.16 270.768 13.712C270.597 13.4347 270.512 13.0613 270.512 12.592C270.512 12.1867 270.576 11.8667 270.704 11.632C271.002 11.0987 272.048 10.6933 273.84 10.416L275.312 10.192L275.184 7.376C275.098 5.37067 275.024 4.00533 274.96 3.28C274.917 2.768 274.896 2.49067 274.896 2.448C274.896 2.14933 275.056 1.84 275.376 1.52ZM10.68 50.128C10.4027 49.4453 10.04 48.9653 9.592 48.688C9.144 48.4107 8.6 48.272 7.96 48.272C7.27733 48.272 6.60533 48.4213 5.944 48.72C5.34667 48.976 5.00533 49.2213 4.92 49.456C4.856 49.6267 4.728 49.8293 4.536 50.064C4.28 50.3627 4.152 51.4187 4.152 53.232C4.152 53.8293 4.17333 54.2347 4.216 54.448L4.344 55.216L5.336 55.472C5.93333 55.6213 6.53067 55.696 7.128 55.696C8.10933 55.696 8.94133 55.4933 9.624 55.088C10.328 54.6613 10.776 54.0747 10.968 53.328C11.0533 53.008 11.096 52.6347 11.096 52.208C11.096 51.4827 10.9573 50.7893 10.68 50.128ZM6.68 44.72C6.936 44.6773 7.192 44.656 7.448 44.656C8.68533 44.656 9.74133 44.816 10.616 45.136C11.4907 45.4773 12.2587 46.0747 12.92 46.928C13.6027 47.7813 14.0933 48.7627 14.392 49.872C14.5413 50.448 14.616 51.1413 14.616 51.952C14.616 53.2533 14.456 54.32 14.136 55.152C13.7307 56.1973 13.048 57.072 12.088 57.776C11.1493 58.48 10.0507 58.9387 8.792 59.152C8.344 59.216 7.78933 59.248 7.128 59.248C5.99733 59.248 5.19733 59.1733 4.728 59.024C4.6 58.9813 4.52533 58.96 4.504 58.96C4.39733 58.96 4.344 59.056 4.344 59.248C4.344 59.2907 4.36533 59.5467 4.408 60.016C4.42933 60.2293 4.472 61.0613 4.536 62.512V63.056C4.536 63.44 4.504 63.7067 4.44 63.856C4.376 64.0053 4.23733 64.1867 4.024 64.4C3.68267 64.7413 3.256 64.912 2.744 64.912C2.44533 64.912 2.168 64.848 1.912 64.72C1.54933 64.528 1.29333 64.1653 1.144 63.632C1.016 63.0987 0.909333 62 0.824 60.336C0.696 58.2453 0.632 55.5253 0.632 52.176C0.632 48.2293 0.706667 46.1067 0.856 45.808C1.19733 45.1467 1.74133 44.816 2.488 44.816C2.89333 44.816 3.24533 44.9333 3.544 45.168L3.992 45.52L5.176 45.2C5.368 45.136 5.57067 45.072 5.784 45.008C5.99733 44.9227 6.18933 44.8587 6.36 44.816C6.53067 44.7733 6.63733 44.7413 6.68 44.72ZM29.239 49.232C28.6203 48.6133 27.6603 48.304 26.359 48.304C25.719 48.304 25.1537 48.4107 24.663 48.624C24.1937 48.8373 23.6817 49.2533 23.127 49.872C22.5723 50.4907 22.2097 51.056 22.039 51.568C21.847 52.1227 21.751 52.6453 21.751 53.136C21.751 54.2667 22.199 55.0667 23.095 55.536C23.6283 55.8133 24.3217 55.952 25.175 55.952C25.751 55.952 26.1883 55.8773 26.487 55.728C28.215 54.8533 29.271 53.2853 29.655 51.024L29.847 49.808L29.239 49.232ZM24.375 44.88C24.887 44.7307 25.4843 44.656 26.167 44.656C27.319 44.656 28.4497 44.8587 29.559 45.264C30.6683 45.6693 31.4363 46.1813 31.863 46.8C32.1617 47.2267 32.5457 47.6747 33.015 48.144C33.527 48.6773 33.9963 49.5947 34.423 50.896C34.8283 52.1333 35.2017 53.5093 35.543 55.024C35.9057 56.5387 36.087 57.5627 36.087 58.096C36.087 58.6293 35.927 59.0453 35.607 59.344C35.2017 59.728 34.8177 59.92 34.455 59.92C34.3057 59.92 34.1137 59.888 33.879 59.824C33.4737 59.6747 33.1537 59.4187 32.919 59.056C32.7057 58.6933 32.5137 58.1067 32.343 57.296C32.1297 56.336 32.0123 55.856 31.991 55.856C31.9057 55.856 31.4577 56.2613 30.647 57.072C29.047 58.6293 27.383 59.472 25.655 59.6H25.207C24.1617 59.6 23.1377 59.4187 22.135 59.056C21.1537 58.6933 20.375 58.2133 19.799 57.616C19.5003 57.3173 19.2017 56.8693 18.903 56.272C18.6043 55.6533 18.4017 55.088 18.295 54.576C18.1883 54.0427 18.135 53.5627 18.135 53.136C18.135 51.3653 18.7323 49.6693 19.927 48.048C21.143 46.4267 22.6257 45.3707 24.375 44.88ZM40.1143 45.328C40.4983 45.008 40.9143 44.848 41.3623 44.848C41.8316 44.848 42.2369 45.0187 42.5783 45.36C42.9196 45.68 43.0903 46.096 43.0903 46.608C43.0903 47.12 43.1863 47.376 43.3783 47.376C43.4849 47.376 43.7089 47.2587 44.0503 47.024C45.6289 45.936 47.1969 45.392 48.7543 45.392C49.4156 45.392 50.0663 45.5093 50.7063 45.744C51.2823 45.9787 51.6876 46.2347 51.9223 46.512C52.1569 46.7893 52.2743 47.1627 52.2743 47.632C52.2743 48.144 52.0823 48.5813 51.6983 48.944C51.3783 49.2427 51.0903 49.392 50.8343 49.392C50.7489 49.392 50.1516 49.3173 49.0423 49.168C48.9143 49.1467 48.7329 49.136 48.4983 49.136C48.1569 49.136 47.7196 49.2533 47.1863 49.488C45.7996 50.128 44.8289 50.9387 44.2743 51.92C43.7196 52.9013 43.4423 54.3093 43.4423 56.144C43.4209 57.488 43.2609 58.4267 42.9623 58.96C42.6849 59.4933 42.1836 59.76 41.4583 59.76C40.9676 59.76 40.5516 59.5893 40.2103 59.248L39.6983 58.736L39.6343 53.072C39.5916 48.8907 39.5703 46.736 39.5703 46.608C39.5703 46.096 39.7516 45.6693 40.1143 45.328ZM66.8953 49.232C66.2766 48.6133 65.3166 48.304 64.0153 48.304C63.3753 48.304 62.8099 48.4107 62.3193 48.624C61.8499 48.8373 61.3379 49.2533 60.7833 49.872C60.2286 50.4907 59.8659 51.056 59.6953 51.568C59.5033 52.1227 59.4073 52.6453 59.4073 53.136C59.4073 54.2667 59.8553 55.0667 60.7513 55.536C61.2846 55.8133 61.9779 55.952 62.8313 55.952C63.4073 55.952 63.8446 55.8773 64.1433 55.728C65.8713 54.8533 66.9273 53.2853 67.3113 51.024L67.5033 49.808L66.8953 49.232ZM62.0312 44.88C62.5433 44.7307 63.1406 44.656 63.8233 44.656C64.9753 44.656 66.1059 44.8587 67.2153 45.264C68.3246 45.6693 69.0926 46.1813 69.5193 46.8C69.8179 47.2267 70.2019 47.6747 70.6713 48.144C71.1833 48.6773 71.6526 49.5947 72.0793 50.896C72.4846 52.1333 72.8579 53.5093 73.1993 55.024C73.5619 56.5387 73.7433 57.5627 73.7433 58.096C73.7433 58.6293 73.5833 59.0453 73.2633 59.344C72.8579 59.728 72.4739 59.92 72.1112 59.92C71.9619 59.92 71.7699 59.888 71.5353 59.824C71.1299 59.6747 70.8099 59.4187 70.5753 59.056C70.3619 58.6933 70.1699 58.1067 69.9993 57.296C69.7859 56.336 69.6686 55.856 69.6473 55.856C69.5619 55.856 69.1139 56.2613 68.3033 57.072C66.7033 58.6293 65.0393 59.472 63.3113 59.6H62.8633C61.8179 59.6 60.7939 59.4187 59.7913 59.056C58.8099 58.6933 58.0313 58.2133 57.4553 57.616C57.1566 57.3173 56.8579 56.8693 56.5593 56.272C56.2606 55.6533 56.0579 55.088 55.9513 54.576C55.8446 54.0427 55.7913 53.5627 55.7913 53.136C55.7913 51.3653 56.3886 49.6693 57.5833 48.048C58.7993 46.4267 60.2819 45.3707 62.0312 44.88ZM78.1545 45.072C78.4105 44.944 78.6772 44.88 78.9545 44.88C79.3385 44.88 79.7012 45.008 80.0425 45.264C80.3838 45.4987 80.6185 45.8187 80.7465 46.224L80.9385 46.896L81.7385 46.416C82.2718 46.096 83.0078 45.936 83.9465 45.936C84.8638 45.936 85.6212 46.0853 86.2185 46.384C86.7092 46.6187 87.2318 47.0027 87.7865 47.536C88.3625 48.0693 88.8212 48.6027 89.1625 49.136C90.3145 50.9493 90.9438 53.7653 91.0505 57.584V58.224C91.0505 58.736 90.9012 59.152 90.6025 59.472C90.2398 59.8347 89.8132 60.016 89.3225 60.016C88.5332 60.016 88.0105 59.6747 87.7545 58.992C87.6265 58.6293 87.5198 57.9147 87.4345 56.848C87.1785 53.1147 86.3465 50.7787 84.9385 49.84C84.6398 49.648 84.3412 49.552 84.0425 49.552C83.4878 49.552 82.9865 49.8613 82.5385 50.48C82.1118 51.0773 81.7705 51.9307 81.5145 53.04C81.4078 53.5307 81.2798 54.416 81.1305 55.696C80.9812 56.976 80.9065 57.84 80.9065 58.288C80.9065 58.5013 80.7252 58.7893 80.3625 59.152C79.9998 59.4933 79.5838 59.664 79.1145 59.664C78.2398 59.664 77.6638 59.2053 77.3865 58.288C77.2585 57.84 77.1945 55.8987 77.1945 52.464C77.1945 48.368 77.2692 46.1387 77.4185 45.776C77.5465 45.4987 77.7918 45.264 78.1545 45.072ZM103.276 47.6C102.7 47.4933 102.22 47.44 101.836 47.44C100.961 47.44 100.225 47.6213 99.6278 47.984C99.3291 48.176 98.9771 48.8267 98.5718 49.936C98.1878 51.024 97.9958 51.8987 97.9958 52.56C97.9958 53.6267 98.3371 54.4907 99.0198 55.152C99.7238 55.792 100.641 56.1227 101.772 56.144C102.689 56.144 103.542 55.888 104.332 55.376C105.142 54.864 105.729 54.192 106.092 53.36C106.326 52.8267 106.444 52.2187 106.444 51.536C106.444 50.704 106.284 49.9787 105.964 49.36C105.729 48.8693 105.409 48.496 105.004 48.24C104.598 47.984 104.022 47.7707 103.276 47.6ZM99.6598 44.176C100.406 43.984 101.142 43.888 101.868 43.888C103.233 43.888 104.694 44.2293 106.252 44.912C107.361 45.4027 108.236 46.2667 108.876 47.504C109.537 48.7413 109.878 50.2027 109.9 51.888V52.08C109.9 54.6187 108.769 56.6773 106.508 58.256C105.1 59.2587 103.532 59.76 101.804 59.76C100.374 59.76 99.0518 59.408 97.8358 58.704C96.6198 57.9787 95.7024 56.9653 95.0838 55.664C94.8704 55.216 94.7318 54.832 94.6678 54.512C94.6251 54.192 94.6038 53.52 94.6038 52.496C94.6251 50.9813 94.7851 49.7867 95.0838 48.912C95.7878 46.9707 96.6198 45.6587 97.5798 44.976C97.9638 44.6987 98.6571 44.432 99.6598 44.176ZM115.112 44.912C115.198 44.8907 115.326 44.88 115.496 44.88C115.902 44.88 116.275 44.9867 116.616 45.2C116.958 45.392 117.192 45.6587 117.32 46C117.406 46.192 117.491 47.6533 117.576 50.384C117.683 53.0933 117.736 55.2267 117.736 56.784C117.736 57.4453 117.726 57.8293 117.704 57.936C117.598 58.7467 117.246 59.2907 116.648 59.568C116.35 59.696 116.115 59.76 115.944 59.76C115.816 59.76 115.624 59.728 115.368 59.664C114.878 59.5147 114.568 59.312 114.44 59.056C114.184 58.5653 114.035 56.6667 113.992 53.36C113.992 52.7627 113.982 51.728 113.96 50.256L113.928 45.872L114.312 45.424C114.568 45.1253 114.835 44.9547 115.112 44.912ZM114.344 38.896C114.6 38.768 114.846 38.704 115.08 38.704C115.55 38.704 115.966 38.896 116.328 39.28C116.691 39.6427 116.872 40.0693 116.872 40.56C116.872 40.9013 116.787 41.2 116.616 41.456C116.254 42.032 115.763 42.32 115.144 42.32C114.739 42.32 114.366 42.1813 114.024 41.904C113.683 41.6267 113.47 41.2427 113.384 40.752C113.384 40.7307 113.374 40.6987 113.352 40.656C113.352 40.592 113.352 40.5493 113.352 40.528C113.352 40.208 113.448 39.8987 113.64 39.6C113.832 39.28 114.067 39.0453 114.344 38.896ZM129.422 49.616C128.568 49.2107 127.971 49.008 127.63 49.008C127.224 49.008 126.712 49.2853 126.094 49.84C125.262 50.608 124.846 51.5573 124.846 52.688C124.846 53.6053 125.144 54.2987 125.742 54.768C126.019 54.9813 126.307 55.088 126.606 55.088C126.968 55.088 127.427 54.9387 127.982 54.64C129.774 53.7013 130.67 52.4853 130.67 50.992V50.192L129.422 49.616ZM131.054 38.256C131.416 37.9573 131.843 37.808 132.334 37.808C132.654 37.808 132.92 37.872 133.134 38C133.39 38.1493 133.603 38.3947 133.774 38.736C133.902 38.992 133.987 39.7067 134.03 40.88C134.094 42.0533 134.136 44.7413 134.158 48.944L134.222 58.576L133.678 59.12C133.315 59.4827 132.899 59.664 132.43 59.664C131.982 59.664 131.576 59.504 131.214 59.184C130.851 58.864 130.67 58.5013 130.67 58.096C130.67 57.7547 130.648 57.5627 130.606 57.52H130.574C130.424 57.52 130.072 57.6587 129.518 57.936C128.472 58.4267 127.491 58.672 126.574 58.672C125.144 58.672 123.896 58.096 122.83 56.944C121.742 55.7493 121.198 54.3413 121.198 52.72C121.198 50.5867 122.03 48.752 123.694 47.216C124.952 46.064 126.318 45.488 127.79 45.488C128.43 45.488 129.016 45.5733 129.55 45.744C130.126 45.936 130.435 46.032 130.478 46.032C130.499 46.032 130.51 44.816 130.51 42.384V38.736L131.054 38.256ZM161.364 49.232C160.745 48.6133 159.785 48.304 158.484 48.304C157.844 48.304 157.279 48.4107 156.788 48.624C156.319 48.8373 155.807 49.2533 155.252 49.872C154.697 50.4907 154.335 51.056 154.164 51.568C153.972 52.1227 153.876 52.6453 153.876 53.136C153.876 54.2667 154.324 55.0667 155.22 55.536C155.753 55.8133 156.447 55.952 157.3 55.952C157.876 55.952 158.313 55.8773 158.612 55.728C160.34 54.8533 161.396 53.2853 161.78 51.024L161.972 49.808L161.364 49.232ZM156.5 44.88C157.012 44.7307 157.609 44.656 158.292 44.656C159.444 44.656 160.575 44.8587 161.684 45.264C162.793 45.6693 163.561 46.1813 163.988 46.8C164.287 47.2267 164.671 47.6747 165.14 48.144C165.652 48.6773 166.121 49.5947 166.548 50.896C166.953 52.1333 167.327 53.5093 167.668 55.024C168.031 56.5387 168.212 57.5627 168.212 58.096C168.212 58.6293 168.052 59.0453 167.732 59.344C167.327 59.728 166.943 59.92 166.58 59.92C166.431 59.92 166.239 59.888 166.004 59.824C165.599 59.6747 165.279 59.4187 165.044 59.056C164.831 58.6933 164.639 58.1067 164.468 57.296C164.255 56.336 164.137 55.856 164.116 55.856C164.031 55.856 163.583 56.2613 162.772 57.072C161.172 58.6293 159.508 59.472 157.78 59.6H157.332C156.287 59.6 155.263 59.4187 154.26 59.056C153.279 58.6933 152.5 58.2133 151.924 57.616C151.625 57.3173 151.327 56.8693 151.028 56.272C150.729 55.6533 150.527 55.088 150.42 54.576C150.313 54.0427 150.26 53.5627 150.26 53.136C150.26 51.3653 150.857 49.6693 152.052 48.048C153.268 46.4267 154.751 45.3707 156.5 44.88ZM182.639 51.152C182.234 50.64 181.658 50.2133 180.911 49.872C180.165 49.5307 179.301 49.36 178.319 49.36C177.722 49.36 177.263 49.4347 176.943 49.584C176.602 49.7333 176.271 50.0747 175.951 50.608C175.653 51.12 175.503 51.7493 175.503 52.496V53.04C175.567 54.5547 175.61 55.4507 175.631 55.728L175.759 56.752L176.527 56.88C176.826 56.9227 177.071 56.944 177.263 56.944C178.522 56.944 179.663 56.6987 180.687 56.208C181.199 55.9733 181.69 55.5893 182.159 55.056C182.65 54.5013 182.981 53.9573 183.151 53.424C183.237 53.1253 183.279 52.8907 183.279 52.72C183.279 52.1653 183.066 51.6427 182.639 51.152ZM172.559 38.416C172.773 38.3093 173.029 38.256 173.327 38.256C173.839 38.256 174.287 38.448 174.671 38.832C174.906 39.0667 175.045 39.3547 175.087 39.696C175.151 40.016 175.237 41.0293 175.343 42.736C175.45 44.976 175.525 46.1173 175.567 46.16H175.599C175.706 46.16 176.079 46.0853 176.719 45.936C177.466 45.7653 178.117 45.68 178.671 45.68C179.738 45.68 181.039 46.032 182.575 46.736C184.325 47.5467 185.551 48.6773 186.255 50.128C186.469 50.576 186.597 50.9493 186.639 51.248C186.703 51.5467 186.735 52.048 186.735 52.752C186.735 53.456 186.703 53.9573 186.639 54.256C186.575 54.5333 186.405 54.96 186.127 55.536C185.509 56.7307 184.655 57.744 183.567 58.576C182.479 59.408 181.274 59.9627 179.951 60.24C179.183 60.4107 178.383 60.496 177.551 60.496C176.762 60.496 175.834 60.4213 174.767 60.272C173.957 60.144 173.423 60.0373 173.167 59.952C172.911 59.8667 172.677 59.7067 172.463 59.472L171.983 58.96V53.968C171.983 50.96 171.919 47.7067 171.791 44.208C171.727 42.5653 171.695 41.3813 171.695 40.656C171.695 39.8027 171.749 39.2587 171.855 39.024C171.962 38.7893 172.197 38.5867 172.559 38.416ZM199.188 48.816C198.783 48.7093 198.121 48.6133 197.204 48.528C196.607 48.4853 196.287 48.464 196.244 48.464C195.945 48.464 195.647 48.624 195.348 48.944C194.495 49.8187 194.036 51.0027 193.972 52.496C193.972 52.5813 193.961 52.6987 193.94 52.848C193.94 52.976 193.94 53.072 193.94 53.136C193.94 53.6267 194.068 54.0853 194.324 54.512C195.007 55.728 196.212 56.336 197.94 56.336C198.665 56.3147 199.401 56.0693 200.148 55.6C200.916 55.1093 201.471 54.5227 201.812 53.84C202.004 53.4347 202.1 52.9973 202.1 52.528C202.1 51.7387 201.823 50.992 201.268 50.288C200.735 49.5627 200.041 49.072 199.188 48.816ZM194.324 45.232C194.815 44.9547 195.305 44.816 195.796 44.816C195.903 44.816 196.297 44.8373 196.98 44.88C199.007 44.9867 200.639 45.4133 201.876 46.16C203.113 46.9067 204.105 48.0587 204.852 49.616C205.428 50.8107 205.716 51.952 205.716 53.04C205.716 53.3813 205.684 53.68 205.62 53.936C205.279 55.2587 204.532 56.464 203.38 57.552C202.228 58.64 200.959 59.3653 199.572 59.728C198.847 59.8987 198.271 59.984 197.844 59.984C197.417 59.984 196.841 59.8987 196.116 59.728C193.919 59.152 192.34 58.1067 191.38 56.592C190.633 55.4187 190.26 54.1813 190.26 52.88C190.26 51.5787 190.612 50.192 191.316 48.72C192.127 46.992 193.129 45.8293 194.324 45.232ZM209.709 44.88C210.05 44.5173 210.466 44.336 210.957 44.336C211.874 44.336 212.461 44.6987 212.717 45.424C212.845 45.8507 212.909 47.0987 212.909 49.168C212.909 51.2587 212.973 52.624 213.101 53.264C213.421 54.736 214.071 55.472 215.053 55.472C215.245 55.472 215.447 55.44 215.661 55.376C215.959 55.2907 216.343 55.0027 216.813 54.512C217.303 54.0213 217.655 53.5733 217.869 53.168C218.253 52.3787 218.594 50.8107 218.893 48.464C219.106 46.864 219.437 45.8933 219.885 45.552C220.183 45.3173 220.514 45.2 220.877 45.2C221.282 45.2 221.655 45.3493 221.997 45.648C222.359 45.9253 222.605 46.288 222.733 46.736C222.839 47.2053 223.021 48.88 223.277 51.76C223.554 54.6187 223.693 56.4427 223.693 57.232V57.488C223.607 57.8933 223.405 58.2133 223.085 58.448C222.765 58.6827 222.413 58.8 222.029 58.8C221.666 58.8 221.314 58.6933 220.973 58.48C220.653 58.2667 220.429 57.9573 220.301 57.552C220.13 57.0613 220.034 56.816 220.013 56.816C219.927 56.816 219.565 57.0613 218.925 57.552C217.645 58.576 216.386 59.088 215.149 59.088H215.053C214.029 59.088 213.111 58.8427 212.301 58.352C211.49 57.8613 210.85 57.168 210.381 56.272C209.933 55.376 209.645 54.5653 209.517 53.84C209.389 53.0933 209.314 51.6533 209.293 49.52L209.197 45.456L209.709 44.88ZM232.126 37.52C232.488 37.1573 232.926 36.976 233.438 36.976C233.822 36.976 234.163 37.0933 234.462 37.328C234.782 37.5413 235.006 37.8507 235.134 38.256C235.198 38.4907 235.304 39.6 235.454 41.584C235.603 43.5467 235.678 44.912 235.678 45.68C235.678 45.872 235.72 45.9893 235.806 46.032C235.912 46.0747 236.158 46.096 236.542 46.096C237.118 46.096 237.448 46.032 237.534 45.904C237.576 45.7973 238.014 45.744 238.846 45.744C239.912 45.744 240.616 45.8187 240.958 45.968C241.278 46.1173 241.523 46.4053 241.694 46.832C241.843 47.1307 241.918 47.376 241.918 47.568C241.918 47.7173 241.886 47.8987 241.822 48.112C241.672 48.6027 241.395 48.9333 240.99 49.104C240.606 49.2533 239.838 49.36 238.686 49.424C237.384 49.488 236.542 49.5733 236.158 49.68L235.646 49.808L235.774 54.32C235.816 56.3253 235.838 57.4027 235.838 57.552C235.838 58.4907 235.763 59.12 235.614 59.44C235.294 60.1227 234.771 60.464 234.046 60.464C233.768 60.464 233.48 60.4 233.182 60.272C232.947 60.1653 232.776 60.0693 232.67 59.984C232.563 59.8773 232.467 59.6107 232.382 59.184C232.296 58.736 232.243 58.2133 232.222 57.616C232.2 57.0187 232.179 56.0373 232.158 54.672L232.094 50.032L231.134 50.064C230.558 50.1067 230.046 50.192 229.598 50.32C229.491 50.3627 229.32 50.384 229.086 50.384C228.36 50.384 227.838 50.16 227.518 49.712C227.347 49.4347 227.262 49.0613 227.262 48.592C227.262 48.1867 227.326 47.8667 227.454 47.632C227.752 47.0987 228.798 46.6933 230.59 46.416L232.062 46.192L231.934 43.376C231.848 41.3707 231.774 40.0053 231.71 39.28C231.667 38.768 231.646 38.4907 231.646 38.448C231.646 38.1493 231.806 37.84 232.126 37.52ZM246.63 56.56C247.014 56.4107 247.238 56.336 247.302 56.336L247.91 56.56C248.678 56.88 249.062 57.456 249.062 58.288C249.062 58.736 248.87 59.1627 248.486 59.568C248.123 59.9733 247.739 60.176 247.334 60.176C246.95 60.176 246.587 60.048 246.246 59.792C245.926 59.5147 245.702 59.1733 245.574 58.768C245.51 58.576 245.478 58.3947 245.478 58.224C245.478 57.84 245.585 57.4987 245.798 57.2C246.011 56.88 246.289 56.6667 246.63 56.56Z" fill="#27263C"/>
</svg>
