<svg width="750" height="33" viewBox="0 0 750 33" fill="none" xmlns="http://www.w3.org/2000/svg">
<path d="M1.336 4.272C1.67733 3.952 1.99733 3.792 2.296 3.792C2.46667 3.792 2.616 3.80267 2.744 3.824C3.32 3.888 3.72533 4.08 3.96 4.4L4.376 4.88L4.312 13.264C4.29067 18.7893 4.19467 21.7653 4.024 22.192C3.74667 22.832 3.21333 23.152 2.424 23.152C2.168 23.152 1.976 23.1307 1.848 23.088C1.528 22.9813 1.31467 22.9067 1.208 22.864C1.12267 22.8 1.016 22.608 0.888 22.288C0.781333 21.9467 0.717333 21.4773 0.696 20.88C0.674667 20.2827 0.664 19.3653 0.664 18.128C0.664 17.7867 0.664 17.0933 0.664 16.048C0.685333 15.0027 0.696 14.128 0.696 13.424L0.728 4.784L1.336 4.272ZM15.3105 1.264C15.5238 1.2 15.7905 1.168 16.1105 1.168C17.1345 1.168 17.9452 1.33867 18.5425 1.68C19.3532 2.17067 19.7585 2.832 19.7585 3.664C19.7585 4.304 19.4705 4.77333 18.8945 5.072C18.6172 5.22133 18.3185 5.296 17.9985 5.296C17.6785 5.296 17.3052 5.2 16.8785 5.008C16.5372 4.85867 16.3558 4.784 16.3345 4.784C16.2492 4.784 16.1105 4.88 15.9185 5.072C15.6838 5.30667 15.4812 5.78667 15.3105 6.512C15.1398 7.23733 15.0545 8.03733 15.0545 8.912V9.584C15.0545 9.88267 15.0865 10.0853 15.1505 10.192C15.2145 10.2987 15.3638 10.352 15.5985 10.352C15.8118 10.352 16.3238 10.2987 17.1345 10.192C17.3265 10.1707 17.5825 10.16 17.9025 10.16C19.3745 10.16 20.1105 10.7573 20.1105 11.952C20.0892 12.5707 19.8652 13.0187 19.4385 13.296C19.0332 13.552 18.3078 13.7227 17.2625 13.808C16.2598 13.8933 15.7052 13.968 15.5985 14.032C15.5772 14.032 15.5665 14.128 15.5665 14.32C15.5665 14.8747 15.6732 15.9733 15.8865 17.616C16.0998 19.2587 16.3025 20.5493 16.4945 21.488C16.5798 22 16.6225 22.352 16.6225 22.544C16.6225 23.2693 16.4518 23.8453 16.1105 24.272C15.7692 24.6987 15.2998 24.912 14.7025 24.912C14.2118 24.912 13.7958 24.752 13.4545 24.432C13.2198 24.176 13.0598 23.8987 12.9745 23.6C12.9105 23.28 12.8145 22.448 12.6865 21.104C12.4732 19.0773 12.2812 17.4773 12.1105 16.304L11.8225 14.288L10.2545 14.224C9.52917 14.1813 9.0705 14.128 8.8785 14.064C8.6865 14 8.4945 13.8613 8.3025 13.648C8.02517 13.3067 7.8865 12.8907 7.8865 12.4C7.8865 12.1013 7.9505 11.824 8.0785 11.568C8.37717 11.056 9.12383 10.736 10.3185 10.608L11.3425 10.512L11.4385 8.56C11.5665 6.34133 11.9398 4.656 12.5585 3.504C13.1772 2.33067 14.0945 1.584 15.3105 1.264ZM35.1173 4.272C35.4586 3.952 35.7786 3.792 36.0773 3.792C36.2479 3.792 36.3973 3.80267 36.5253 3.824C37.1013 3.888 37.5066 4.08 37.7413 4.4L38.1573 4.88L38.0933 13.264C38.0719 18.7893 37.9759 21.7653 37.8053 22.192C37.5279 22.832 36.9946 23.152 36.2053 23.152C35.9493 23.152 35.7573 23.1307 35.6293 23.088C35.3093 22.9813 35.0959 22.9067 34.9893 22.864C34.9039 22.8 34.7973 22.608 34.6693 22.288C34.5626 21.9467 34.4986 21.4773 34.4773 20.88C34.4559 20.2827 34.4453 19.3653 34.4453 18.128C34.4453 17.7867 34.4453 17.0933 34.4453 16.048C34.4666 15.0027 34.4773 14.128 34.4773 13.424L34.5093 4.784L35.1173 4.272ZM63.2965 13.616C62.4432 13.2107 61.8458 13.008 61.5045 13.008C61.0992 13.008 60.5872 13.2853 59.9685 13.84C59.1365 14.608 58.7205 15.5573 58.7205 16.688C58.7205 17.6053 59.0192 18.2987 59.6165 18.768C59.8938 18.9813 60.1818 19.088 60.4805 19.088C60.8432 19.088 61.3018 18.9387 61.8565 18.64C63.6485 17.7013 64.5445 16.4853 64.5445 14.992V14.192L63.2965 13.616ZM64.9285 2.256C65.2912 1.95733 65.7178 1.808 66.2085 1.808C66.5285 1.808 66.7952 1.872 67.0085 2C67.2645 2.14933 67.4778 2.39467 67.6485 2.736C67.7765 2.992 67.8618 3.70667 67.9045 4.88C67.9685 6.05333 68.0112 8.74133 68.0325 12.944L68.0965 22.576L67.5525 23.12C67.1898 23.4827 66.7738 23.664 66.3045 23.664C65.8565 23.664 65.4512 23.504 65.0885 23.184C64.7258 22.864 64.5445 22.5013 64.5445 22.096C64.5445 21.7547 64.5232 21.5627 64.4805 21.52H64.4485C64.2992 21.52 63.9472 21.6587 63.3925 21.936C62.3472 22.4267 61.3658 22.672 60.4485 22.672C59.0192 22.672 57.7712 22.096 56.7045 20.944C55.6165 19.7493 55.0725 18.3413 55.0725 16.72C55.0725 14.5867 55.9045 12.752 57.5685 11.216C58.8272 10.064 60.1925 9.488 61.6645 9.488C62.3045 9.488 62.8912 9.57333 63.4245 9.744C64.0005 9.936 64.3098 10.032 64.3525 10.032C64.3738 10.032 64.3845 8.816 64.3845 6.384V2.736L64.9285 2.256ZM73.2373 8.912C73.3226 8.89067 73.4506 8.88 73.6213 8.88C74.0266 8.88 74.3999 8.98667 74.7413 9.2C75.0826 9.392 75.3173 9.65867 75.4453 10C75.5306 10.192 75.6159 11.6533 75.7013 14.384C75.8079 17.0933 75.8613 19.2267 75.8613 20.784C75.8613 21.4453 75.8506 21.8293 75.8293 21.936C75.7226 22.7467 75.3706 23.2907 74.7733 23.568C74.4746 23.696 74.2399 23.76 74.0693 23.76C73.9413 23.76 73.7493 23.728 73.4933 23.664C73.0026 23.5147 72.6933 23.312 72.5653 23.056C72.3093 22.5653 72.1599 20.6667 72.1173 17.36C72.1173 16.7627 72.1066 15.728 72.0853 14.256L72.0533 9.872L72.4373 9.424C72.6933 9.12533 72.9599 8.95467 73.2373 8.912ZM72.4693 2.896C72.7253 2.768 72.9706 2.704 73.2053 2.704C73.6746 2.704 74.0906 2.896 74.4533 3.28C74.8159 3.64267 74.9973 4.06933 74.9973 4.56C74.9973 4.90133 74.9119 5.2 74.7413 5.456C74.3786 6.032 73.8879 6.32 73.2693 6.32C72.8639 6.32 72.4906 6.18133 72.1493 5.904C71.8079 5.62667 71.5946 5.24267 71.5093 4.752C71.5093 4.73067 71.4986 4.69867 71.4773 4.656C71.4773 4.592 71.4773 4.54933 71.4773 4.528C71.4773 4.208 71.5733 3.89867 71.7653 3.6C71.9573 3.28 72.1919 3.04533 72.4693 2.896ZM87.9945 12.624C87.8878 12.5387 87.6318 12.496 87.2265 12.496C86.4798 12.496 85.8612 12.6027 85.3705 12.816C83.7065 13.584 82.8745 14.8427 82.8745 16.592C82.8745 17.36 83.0558 18.1067 83.4185 18.832C83.9732 19.9413 84.7412 20.496 85.7225 20.496C86.0212 20.496 86.2558 20.4427 86.4265 20.336C86.6185 20.2293 86.9065 19.9733 87.2905 19.568C88.1865 18.6507 88.7198 17.264 88.8905 15.408C88.9118 15.2373 88.9225 15.024 88.9225 14.768C88.9225 14.3627 88.8158 13.9467 88.6025 13.52C88.3678 13.0293 88.1652 12.7307 87.9945 12.624ZM85.1465 9.072C85.6158 8.92267 86.1598 8.848 86.7785 8.848C87.5678 8.848 88.3358 8.976 89.0825 9.232C89.8292 9.46667 90.3945 9.78667 90.7785 10.192C91.0558 10.4693 91.4078 11.0347 91.8345 11.888C92.1332 12.464 92.3145 12.9333 92.3785 13.296C92.4638 13.6373 92.5385 14.352 92.6025 15.44C92.6452 15.9093 92.7092 16.7093 92.7945 17.84C92.9012 18.9707 92.9865 20.016 93.0505 20.976C93.1145 21.936 93.1465 22.8107 93.1465 23.6C93.1465 24.8587 93.0505 25.936 92.8585 26.832C92.2398 29.6267 90.9278 31.3867 88.9225 32.112C88.2825 32.3467 87.4185 32.464 86.3305 32.464C85.6052 32.4427 85.0612 32.3893 84.6985 32.304C84.3358 32.24 83.7918 32.0693 83.0665 31.792C81.8292 31.3227 81.0078 30.96 80.6025 30.704C80.1972 30.4693 79.9198 30.1813 79.7705 29.84C79.6852 29.6053 79.6425 29.3707 79.6425 29.136C79.6425 28.432 79.9625 27.92 80.6025 27.6L81.3065 27.28L83.2265 28.048C84.1012 28.3893 84.7305 28.6027 85.1145 28.688C85.4985 28.7733 85.9892 28.816 86.5865 28.816C87.2265 28.816 87.6318 28.784 87.8025 28.72C87.9732 28.6773 88.1758 28.5173 88.4105 28.24C89.0932 27.4293 89.4985 26.064 89.6265 24.144C89.6478 23.9733 89.6585 23.7493 89.6585 23.472C89.6585 23.0027 89.5732 22.768 89.4025 22.768C89.2745 22.768 89.0612 22.8853 88.7625 23.12C87.9092 23.76 86.8958 24.08 85.7225 24.08H85.3385C84.6132 24.08 83.9412 23.92 83.3225 23.6C82.4052 23.152 81.6052 22.4907 80.9225 21.616C80.2612 20.7413 79.8025 19.7707 79.5465 18.704C79.3972 17.9573 79.3225 17.2 79.3225 16.432C79.3225 14.6613 79.8345 13.1253 80.8585 11.824C81.9038 10.5013 83.3332 9.584 85.1465 9.072ZM120.333 13.232C119.714 12.6133 118.754 12.304 117.453 12.304C116.813 12.304 116.247 12.4107 115.757 12.624C115.287 12.8373 114.775 13.2533 114.221 13.872C113.666 14.4907 113.303 15.056 113.133 15.568C112.941 16.1227 112.845 16.6453 112.845 17.136C112.845 18.2667 113.293 19.0667 114.189 19.536C114.722 19.8133 115.415 19.952 116.269 19.952C116.845 19.952 117.282 19.8773 117.581 19.728C119.309 18.8533 120.365 17.2853 120.749 15.024L120.941 13.808L120.333 13.232ZM115.469 8.88C115.981 8.73067 116.578 8.656 117.261 8.656C118.413 8.656 119.543 8.85867 120.653 9.264C121.762 9.66933 122.53 10.1813 122.957 10.8C123.255 11.2267 123.639 11.6747 124.109 12.144C124.621 12.6773 125.09 13.5947 125.517 14.896C125.922 16.1333 126.295 17.5093 126.637 19.024C126.999 20.5387 127.181 21.5627 127.181 22.096C127.181 22.6293 127.021 23.0453 126.701 23.344C126.295 23.728 125.911 23.92 125.549 23.92C125.399 23.92 125.207 23.888 124.973 23.824C124.567 23.6747 124.247 23.4187 124.013 23.056C123.799 22.6933 123.607 22.1067 123.437 21.296C123.223 20.336 123.106 19.856 123.085 19.856C122.999 19.856 122.551 20.2613 121.741 21.072C120.141 22.6293 118.477 23.472 116.749 23.6H116.301C115.255 23.6 114.231 23.4187 113.229 23.056C112.247 22.6933 111.469 22.2133 110.893 21.616C110.594 21.3173 110.295 20.8693 109.997 20.272C109.698 19.6533 109.495 19.088 109.389 18.576C109.282 18.0427 109.229 17.5627 109.229 17.136C109.229 15.3653 109.826 13.6693 111.021 12.048C112.237 10.4267 113.719 9.37067 115.469 8.88ZM131.208 9.328C131.592 9.008 132.008 8.848 132.456 8.848C132.925 8.848 133.331 9.01867 133.672 9.36C134.013 9.68 134.184 10.096 134.184 10.608C134.184 11.12 134.28 11.376 134.472 11.376C134.579 11.376 134.803 11.2587 135.144 11.024C136.723 9.936 138.291 9.392 139.848 9.392C140.509 9.392 141.16 9.50933 141.8 9.744C142.376 9.97867 142.781 10.2347 143.016 10.512C143.251 10.7893 143.368 11.1627 143.368 11.632C143.368 12.144 143.176 12.5813 142.792 12.944C142.472 13.2427 142.184 13.392 141.928 13.392C141.843 13.392 141.245 13.3173 140.136 13.168C140.008 13.1467 139.827 13.136 139.592 13.136C139.251 13.136 138.813 13.2533 138.28 13.488C136.893 14.128 135.923 14.9387 135.368 15.92C134.813 16.9013 134.536 18.3093 134.536 20.144C134.515 21.488 134.355 22.4267 134.056 22.96C133.779 23.4933 133.277 23.76 132.552 23.76C132.061 23.76 131.645 23.5893 131.304 23.248L130.792 22.736L130.728 17.072C130.685 12.8907 130.664 10.736 130.664 10.608C130.664 10.096 130.845 9.66933 131.208 9.328ZM155.813 12.816C155.408 12.7093 154.746 12.6133 153.829 12.528C153.232 12.4853 152.912 12.464 152.869 12.464C152.57 12.464 152.272 12.624 151.973 12.944C151.12 13.8187 150.661 15.0027 150.597 16.496C150.597 16.5813 150.586 16.6987 150.565 16.848C150.565 16.976 150.565 17.072 150.565 17.136C150.565 17.6267 150.693 18.0853 150.949 18.512C151.632 19.728 152.837 20.336 154.565 20.336C155.29 20.3147 156.026 20.0693 156.773 19.6C157.541 19.1093 158.096 18.5227 158.437 17.84C158.629 17.4347 158.725 16.9973 158.725 16.528C158.725 15.7387 158.448 14.992 157.893 14.288C157.36 13.5627 156.666 13.072 155.813 12.816ZM150.949 9.232C151.44 8.95467 151.93 8.816 152.421 8.816C152.528 8.816 152.922 8.83733 153.605 8.88C155.632 8.98667 157.264 9.41333 158.501 10.16C159.738 10.9067 160.73 12.0587 161.477 13.616C162.053 14.8107 162.341 15.952 162.341 17.04C162.341 17.3813 162.309 17.68 162.245 17.936C161.904 19.2587 161.157 20.464 160.005 21.552C158.853 22.64 157.584 23.3653 156.197 23.728C155.472 23.8987 154.896 23.984 154.469 23.984C154.042 23.984 153.466 23.8987 152.741 23.728C150.544 23.152 148.965 22.1067 148.005 20.592C147.258 19.4187 146.885 18.1813 146.885 16.88C146.885 15.5787 147.237 14.192 147.941 12.72C148.752 10.992 149.754 9.82933 150.949 9.232ZM166.302 9.008C166.664 8.64533 167.07 8.464 167.518 8.464C167.966 8.464 168.392 8.64533 168.798 9.008L169.374 9.52L169.47 13.808C169.512 15.7067 169.555 16.9333 169.598 17.488C169.662 18.0427 169.779 18.512 169.95 18.896C170.206 19.4507 170.43 19.728 170.622 19.728C171.112 19.728 171.699 19.3653 172.382 18.64C173.086 17.9147 173.63 17.0933 174.014 16.176C174.291 15.5147 174.611 14.384 174.974 12.784C175.251 11.504 175.464 10.672 175.614 10.288C175.784 9.904 176.051 9.62667 176.414 9.456C176.734 9.30667 177.043 9.232 177.342 9.232C177.64 9.232 177.95 9.31733 178.27 9.488C178.782 9.744 179.123 10.3733 179.294 11.376C179.486 12.3573 179.688 14.64 179.902 18.224C180.051 20.8693 180.126 22.2347 180.126 22.32C180.126 22.8107 180.04 23.1733 179.87 23.408C179.507 23.8987 178.984 24.144 178.302 24.144C177.704 24.144 177.267 23.952 176.99 23.568C176.648 23.0987 176.478 22.32 176.478 21.232C176.478 20.464 176.392 20.08 176.222 20.08C176.051 20.08 175.635 20.4107 174.974 21.072C174.163 21.8613 173.47 22.4373 172.894 22.8C172.51 23.0347 172.179 23.184 171.902 23.248C171.646 23.312 171.208 23.344 170.59 23.344C169.95 23.344 169.512 23.3227 169.278 23.28C169.064 23.216 168.798 23.056 168.478 22.8C167.411 22.0107 166.696 20.976 166.334 19.696C165.971 18.3947 165.79 16.2507 165.79 13.264V9.52L166.302 9.008ZM184.02 8.112C184.361 7.74933 184.798 7.568 185.332 7.568C185.694 7.568 186.014 7.664 186.292 7.856C186.526 8.02667 186.729 8.304 186.9 8.688C187.092 9.072 187.188 9.424 187.188 9.744C187.188 10.0853 187.273 10.256 187.444 10.256C187.636 10.256 187.945 10.1173 188.372 9.84C188.798 9.584 189.364 9.34933 190.068 9.136C190.772 8.92267 191.337 8.816 191.764 8.816C192.19 8.816 192.713 8.95467 193.332 9.232C193.972 9.50933 194.473 9.81867 194.836 10.16C195.604 10.9067 196.148 11.952 196.468 13.296C196.809 14.64 196.98 16.5067 196.98 18.896C196.98 20.5813 196.926 21.6907 196.82 22.224C196.713 22.736 196.468 23.0987 196.084 23.312C195.828 23.44 195.518 23.504 195.156 23.504C194.772 23.504 194.452 23.44 194.196 23.312C193.833 23.12 193.598 22.768 193.492 22.256C193.406 21.7227 193.342 20.4427 193.3 18.416C193.257 16.3893 193.172 15.056 193.044 14.416C192.916 13.7547 192.649 13.2213 192.244 12.816C192.03 12.6027 191.764 12.496 191.444 12.496C190.91 12.496 190.334 12.7627 189.716 13.296C189.118 13.808 188.628 14.4693 188.244 15.28C188.052 15.6853 187.934 16.0693 187.892 16.432C187.849 16.7947 187.806 17.6267 187.764 18.928C187.721 20.72 187.636 21.7867 187.508 22.128C187.209 22.9173 186.633 23.312 185.78 23.312C185.076 23.312 184.542 23.0027 184.18 22.384C184.073 22.1493 183.966 20.1547 183.86 16.4C183.732 12.368 183.646 10.1387 183.604 9.712C183.561 9.28533 183.54 9.05067 183.54 9.008C183.54 8.73067 183.7 8.432 184.02 8.112ZM208.511 13.872C208.319 13.6373 207.988 13.52 207.519 13.52C207.135 13.52 206.751 13.616 206.367 13.808C205.791 14.0853 205.247 14.672 204.735 15.568C204.223 16.464 203.967 17.2533 203.967 17.936C203.967 18.1493 203.999 18.3307 204.063 18.48C204.212 18.8213 204.575 19.1413 205.151 19.44C205.727 19.7173 206.271 19.856 206.783 19.856C206.889 19.856 207.049 19.8347 207.263 19.792C207.753 19.6427 208.244 19.2373 208.735 18.576C209.247 17.8933 209.641 17.0933 209.919 16.176C210.089 15.6213 210.175 15.248 210.175 15.056C210.175 14.7573 209.951 14.544 209.503 14.416C208.991 14.224 208.66 14.0427 208.511 13.872ZM211.103 2.704C211.295 2.61867 211.519 2.576 211.775 2.576C212.585 2.576 213.129 2.928 213.407 3.632C213.535 3.952 213.737 5.24267 214.015 7.504C214.271 9.872 214.42 11.2053 214.463 11.504C215.337 17.84 215.775 21.4667 215.775 22.384C215.775 22.8107 215.593 23.184 215.231 23.504C214.889 23.824 214.495 23.984 214.047 23.984C213.428 23.984 212.948 23.76 212.607 23.312C212.265 22.8427 212.095 22.2133 212.095 21.424C212.095 21.0827 212.052 20.8693 211.967 20.784H211.935C211.807 20.784 211.412 21.0933 210.751 21.712C210.047 22.416 209.364 22.8853 208.703 23.12C208.105 23.3547 207.423 23.472 206.655 23.472C205.524 23.472 204.436 23.1947 203.391 22.64C202.345 22.064 201.535 21.3067 200.959 20.368C200.745 20.0053 200.607 19.696 200.543 19.44C200.5 19.1627 200.479 18.64 200.479 17.872C200.5 16.8907 200.617 16.0693 200.831 15.408C201.044 14.7467 201.439 13.9787 202.015 13.104C202.42 12.4853 202.996 11.888 203.743 11.312C204.489 10.736 205.14 10.3627 205.695 10.192C206.249 10.0427 206.836 9.968 207.455 9.968C208.223 9.968 208.895 10.064 209.471 10.256C210.089 10.448 210.42 10.544 210.463 10.544C210.505 10.544 210.527 10.416 210.527 10.16C210.527 9.456 210.441 8.57067 210.271 7.504C210.121 6.62933 210.047 5.84 210.047 5.136C210.047 3.81333 210.399 3.00267 211.103 2.704ZM221.659 19.344C221.809 19.1947 222.139 19.12 222.651 19.12C223.078 19.12 223.451 19.248 223.771 19.504C224.091 19.76 224.294 20.0907 224.379 20.496C224.401 20.56 224.411 20.6773 224.411 20.848C224.411 21.4453 224.251 22.3093 223.931 23.44C223.611 24.5493 223.227 25.5947 222.779 26.576C222.459 27.28 221.905 27.632 221.115 27.632C220.262 27.632 219.686 27.216 219.387 26.384C219.345 26.2773 219.323 26.128 219.323 25.936C219.323 25.6587 219.494 25.0827 219.835 24.208C220.305 22.9067 220.593 21.9467 220.699 21.328C220.827 20.7307 220.955 20.304 221.083 20.048C221.211 19.792 221.403 19.5573 221.659 19.344ZM239.43 4.272C239.771 3.952 240.091 3.792 240.39 3.792C240.56 3.792 240.71 3.80267 240.838 3.824C241.414 3.888 241.819 4.08 242.054 4.4L242.47 4.88L242.406 13.264C242.384 18.7893 242.288 21.7653 242.118 22.192C241.84 22.832 241.307 23.152 240.518 23.152C240.262 23.152 240.07 23.1307 239.942 23.088C239.622 22.9813 239.408 22.9067 239.302 22.864C239.216 22.8 239.11 22.608 238.982 22.288C238.875 21.9467 238.811 21.4773 238.79 20.88C238.768 20.2827 238.758 19.3653 238.758 18.128C238.758 17.7867 238.758 17.0933 238.758 16.048C238.779 15.0027 238.79 14.128 238.79 13.424L238.822 4.784L239.43 4.272ZM260.21 8.496C260.594 8.432 260.988 8.4 261.394 8.4C262.674 8.4 263.815 8.688 264.818 9.264C265.82 9.84 266.322 10.5013 266.322 11.248C266.322 11.44 266.29 11.6107 266.226 11.76C265.906 12.5707 265.426 12.976 264.786 12.976C264.316 12.976 263.783 12.8267 263.186 12.528C262.503 12.1867 261.874 12.016 261.298 12.016C260.679 12.016 260.167 12.2187 259.762 12.624C259.548 12.8373 259.442 13.008 259.442 13.136C259.442 13.3067 259.602 13.5093 259.922 13.744C260.263 13.9573 260.882 14.2987 261.778 14.768C263.25 15.536 264.242 16.1653 264.754 16.656C265.244 17.0827 265.671 17.616 266.034 18.256C266.396 18.8747 266.578 19.3973 266.578 19.824C266.578 20.3147 266.45 20.8053 266.194 21.296C265.938 21.7867 265.618 22.16 265.234 22.416C264.252 23.0773 263.058 23.408 261.65 23.408C260.327 23.408 258.962 23.0987 257.554 22.48C256.892 22.16 256.476 21.7973 256.306 21.392C256.178 21.0933 256.114 20.8267 256.114 20.592C256.114 20.1653 256.316 19.7493 256.722 19.344C256.999 19.024 257.372 18.864 257.842 18.864C258.29 18.864 258.834 19.0027 259.474 19.28C260.178 19.5787 260.988 19.728 261.906 19.728C262.332 19.728 262.546 19.6747 262.546 19.568C262.546 19.312 261.628 18.7253 259.794 17.808C258.364 17.0613 257.319 16.3253 256.658 15.6C255.996 14.8533 255.666 14.032 255.666 13.136C255.666 12.0693 256.103 11.088 256.978 10.192C257.874 9.27467 258.951 8.70933 260.21 8.496ZM275.065 2.192C275.406 1.97867 275.726 1.872 276.025 1.872C276.259 1.872 276.526 1.936 276.825 2.064C277.273 2.27733 277.561 2.608 277.689 3.056C277.817 3.504 277.902 4.57067 277.945 6.256L278.041 9.424L279.513 9.328C279.683 9.30667 279.929 9.296 280.249 9.296C281.017 9.296 281.561 9.43467 281.881 9.712C282.222 9.98933 282.393 10.4373 282.393 11.056C282.393 11.7173 282.169 12.1867 281.721 12.464C281.294 12.7413 280.462 12.9333 279.225 13.04L277.881 13.168L277.657 17.616C277.507 20.624 277.369 22.288 277.241 22.608C276.963 23.248 276.43 23.568 275.641 23.568C275.193 23.568 274.841 23.4507 274.585 23.216C274.307 23.0027 274.115 22.768 274.009 22.512C273.902 22.256 273.849 21.84 273.849 21.264C273.849 20.7947 273.881 20.0907 273.945 19.152C274.051 17.4667 274.126 16.0267 274.169 14.832L274.201 13.328L272.761 13.296C271.95 13.2747 271.395 13.2107 271.097 13.104C270.798 12.976 270.542 12.72 270.329 12.336C270.201 12.08 270.137 11.8133 270.137 11.536C270.137 11.024 270.35 10.576 270.777 10.192C271.011 9.97867 271.31 9.84 271.673 9.776C272.035 9.69067 272.707 9.60533 273.689 9.52L274.201 9.456L274.329 6.064C274.35 5.552 274.361 4.99733 274.361 4.4C274.382 3.78133 274.393 3.32266 274.393 3.024L274.425 2.576L274.521 2.512C274.585 2.46933 274.67 2.416 274.777 2.352C274.883 2.288 274.979 2.23467 275.065 2.192ZM287.388 9.456C287.473 9.43467 287.601 9.424 287.772 9.424C288.241 9.424 288.657 9.57333 289.02 9.872C289.382 10.1707 289.596 10.5547 289.66 11.024C289.745 11.4933 289.788 13.5093 289.788 17.072L289.82 22.48L289.276 22.992C288.913 23.3547 288.486 23.536 287.996 23.536C287.548 23.536 287.164 23.376 286.844 23.056C286.63 22.8427 286.481 22.6293 286.396 22.416C286.332 22.1813 286.278 21.7333 286.236 21.072C286.172 20.24 286.14 18.2347 286.14 15.056L286.108 10.576L286.556 10.032C286.876 9.69067 287.153 9.49867 287.388 9.456ZM286.812 3.088C287.089 2.93867 287.377 2.864 287.676 2.864C288.166 2.864 288.582 3.04533 288.924 3.408C289.265 3.77067 289.436 4.18667 289.436 4.656C289.436 5.06133 289.276 5.456 288.956 5.84C288.55 6.26667 288.102 6.48 287.612 6.48C287.142 6.48 286.726 6.32 286.364 6C286.022 5.65867 285.852 5.25333 285.852 4.784C285.852 4.50666 285.916 4.22933 286.044 3.952C286.236 3.54667 286.492 3.25867 286.812 3.088ZM294.7 2.864C294.977 2.75733 295.223 2.704 295.436 2.704C295.756 2.704 296.076 2.8 296.396 2.992C296.716 3.20533 296.929 3.44 297.036 3.696C297.164 3.952 297.228 4.44267 297.228 5.168C297.228 6 297.185 7.056 297.1 8.336C296.951 10.96 296.855 14.0533 296.812 17.616C296.812 21.0933 296.737 22.9707 296.588 23.248C296.481 23.4613 296.257 23.6747 295.916 23.888C295.596 24.08 295.319 24.176 295.084 24.176C294.828 24.176 294.54 24.0693 294.22 23.856C293.9 23.6427 293.676 23.408 293.548 23.152C293.292 22.64 293.164 20.9227 293.164 18C293.164 15.056 293.292 11.1733 293.548 6.352C293.612 5.09333 293.719 4.24 293.868 3.792C294.017 3.344 294.295 3.03467 294.7 2.864ZM301.242 1.424C301.583 1.08267 301.988 0.911999 302.458 0.911999C302.906 0.911999 303.3 1.08267 303.641 1.424C303.983 1.76533 304.196 2.32 304.282 3.088C304.303 3.30133 304.314 4.58133 304.314 6.928C304.314 17.8933 304.239 23.6 304.09 24.048C304.004 24.304 303.812 24.5067 303.514 24.656C303.215 24.8053 302.884 24.88 302.522 24.88C302.095 24.88 301.754 24.7947 301.498 24.624C301.114 24.368 300.868 23.9947 300.762 23.504C300.676 22.992 300.634 21.6267 300.634 19.408C300.634 16.8267 300.644 14.5333 300.666 12.528L300.762 1.904L301.242 1.424ZM321.933 1.552C322.295 1.25333 322.669 1.104 323.053 1.104C323.821 1.104 324.386 1.57333 324.749 2.512C324.898 2.93867 325.058 3.96267 325.229 5.584C325.399 7.184 325.538 8.67733 325.645 10.064C325.751 11.4293 325.815 12.112 325.837 12.112C325.879 12.112 326.231 11.8773 326.893 11.408C328.194 10.4907 329.431 10.032 330.605 10.032C331.693 10.032 332.642 10.4373 333.453 11.248C334.285 12.0373 334.935 13.2 335.405 14.736C335.767 15.9307 335.949 17.7867 335.949 20.304C335.949 21.8827 335.853 22.9493 335.661 23.504C335.447 24.08 334.957 24.368 334.189 24.368C333.677 24.368 333.25 24.1973 332.909 23.856L332.429 23.376L332.333 20.144C332.205 15.984 331.629 13.84 330.605 13.712H330.509C330.018 13.712 329.41 13.9893 328.685 14.544C327.959 15.0773 327.437 15.664 327.117 16.304C326.925 16.7307 326.669 17.04 326.349 17.232L325.933 17.52L325.869 21.008C325.826 22.7147 325.783 23.7493 325.741 24.112C325.719 24.4533 325.602 24.7307 325.389 24.944C325.047 25.3067 324.621 25.488 324.109 25.488C323.341 25.488 322.807 25.1467 322.509 24.464C322.359 24.0587 322.253 21.6053 322.189 17.104C322.082 9.57333 321.805 5.06133 321.357 3.568C321.293 3.33333 321.261 3.10933 321.261 2.896C321.261 2.34133 321.485 1.89333 321.933 1.552ZM350.552 13.232C349.933 12.6133 348.973 12.304 347.672 12.304C347.032 12.304 346.466 12.4107 345.976 12.624C345.506 12.8373 344.994 13.2533 344.44 13.872C343.885 14.4907 343.522 15.056 343.352 15.568C343.16 16.1227 343.064 16.6453 343.064 17.136C343.064 18.2667 343.512 19.0667 344.408 19.536C344.941 19.8133 345.634 19.952 346.488 19.952C347.064 19.952 347.501 19.8773 347.8 19.728C349.528 18.8533 350.584 17.2853 350.968 15.024L351.16 13.808L350.552 13.232ZM345.688 8.88C346.2 8.73067 346.797 8.656 347.48 8.656C348.632 8.656 349.762 8.85867 350.872 9.264C351.981 9.66933 352.749 10.1813 353.176 10.8C353.474 11.2267 353.858 11.6747 354.328 12.144C354.84 12.6773 355.309 13.5947 355.736 14.896C356.141 16.1333 356.514 17.5093 356.856 19.024C357.218 20.5387 357.4 21.5627 357.4 22.096C357.4 22.6293 357.24 23.0453 356.92 23.344C356.514 23.728 356.13 23.92 355.767 23.92C355.618 23.92 355.426 23.888 355.192 23.824C354.786 23.6747 354.466 23.4187 354.232 23.056C354.018 22.6933 353.826 22.1067 353.656 21.296C353.442 20.336 353.325 19.856 353.304 19.856C353.218 19.856 352.77 20.2613 351.96 21.072C350.36 22.6293 348.696 23.472 346.968 23.6H346.52C345.474 23.6 344.45 23.4187 343.448 23.056C342.466 22.6933 341.688 22.2133 341.112 21.616C340.813 21.3173 340.514 20.8693 340.216 20.272C339.917 19.6533 339.714 19.088 339.608 18.576C339.501 18.0427 339.448 17.5627 339.448 17.136C339.448 15.3653 340.045 13.6693 341.24 12.048C342.456 10.4267 343.938 9.37067 345.688 8.88ZM361.043 10.352C361.043 9.904 361.213 9.52 361.555 9.2C361.917 8.85867 362.323 8.688 362.771 8.688C363.283 8.688 363.709 8.88 364.051 9.264C364.392 9.62667 364.765 10.3093 365.171 11.312C365.576 12.3573 366.195 13.7653 367.027 15.536C367.88 17.2853 368.349 18.16 368.435 18.16C368.499 18.16 368.861 17.552 369.523 16.336C369.928 15.568 370.568 14.4373 371.443 12.944C372.339 11.4507 372.861 10.5653 373.011 10.288C373.309 9.75467 373.576 9.41333 373.811 9.264C374.045 9.11467 374.408 9.04 374.899 9.04C375.368 9.04 375.773 9.21067 376.115 9.552C376.477 9.89333 376.659 10.2987 376.659 10.768C376.659 10.8747 376.637 11.0133 376.595 11.184C376.509 11.4613 376.083 12.24 375.315 13.52C372.691 17.808 371.112 20.8267 370.579 22.576C370.237 23.6853 369.555 24.24 368.531 24.24C368.253 24.24 367.955 24.176 367.635 24.048C367.336 23.92 367.059 23.6533 366.803 23.248C366.568 22.8213 365.96 21.6053 364.979 19.6C362.355 14.224 361.043 11.1413 361.043 10.352ZM390.054 13.808C389.67 13.616 389.126 13.52 388.422 13.52C387.654 13.52 387.004 13.6373 386.47 13.872C386.108 14.0213 385.638 14.352 385.062 14.864C384.486 15.3547 384.198 15.6747 384.198 15.824C384.198 15.888 384.529 15.92 385.19 15.92C386.172 15.92 387.345 15.8667 388.71 15.76C390.076 15.6533 390.854 15.536 391.046 15.408C391.11 15.3867 391.142 15.3227 391.142 15.216C391.142 15.024 391.025 14.7787 390.79 14.48C390.556 14.16 390.31 13.936 390.054 13.808ZM386.278 10.096C386.812 9.94667 387.441 9.872 388.166 9.872C389.51 9.872 390.737 10.1387 391.846 10.672C392.678 11.0987 393.372 11.7493 393.926 12.624C394.481 13.4773 394.822 14.4373 394.95 15.504C394.95 15.5467 394.95 15.6107 394.95 15.696C394.972 15.7813 394.982 15.8453 394.982 15.888C394.982 16.4427 394.876 16.9867 394.662 17.52C394.47 18.0533 394.236 18.416 393.958 18.608C393.596 18.864 391.046 19.184 386.31 19.568C385.308 19.6533 384.806 19.7493 384.806 19.856C384.806 19.984 385.03 20.1867 385.478 20.464C385.926 20.7413 386.364 20.9333 386.79 21.04C387.174 21.1253 387.484 21.168 387.718 21.168C388.401 21.168 389.286 20.944 390.374 20.496C391.142 20.176 391.708 20.016 392.07 20.016C392.433 20.016 392.774 20.176 393.094 20.496C393.521 20.9227 393.734 21.328 393.734 21.712C393.734 21.968 393.67 22.2347 393.542 22.512C393.436 22.768 393.286 22.9707 393.094 23.12C392.924 23.2693 392.604 23.4507 392.134 23.664C390.577 24.3467 389.126 24.688 387.782 24.688C387.014 24.688 386.225 24.5707 385.414 24.336C384.326 23.9947 383.334 23.4187 382.438 22.608C381.542 21.776 380.902 20.8587 380.518 19.856C380.284 19.1947 380.166 18.4587 380.166 17.648C380.166 16.4747 380.358 15.4933 380.742 14.704C381.19 13.7227 381.948 12.784 383.014 11.888C384.081 10.992 385.169 10.3947 386.278 10.096ZM417.495 11.6C416.919 11.4933 416.439 11.44 416.055 11.44C415.18 11.44 414.444 11.6213 413.847 11.984C413.548 12.176 413.196 12.8267 412.791 13.936C412.407 15.024 412.215 15.8987 412.215 16.56C412.215 17.6267 412.556 18.4907 413.239 19.152C413.943 19.792 414.86 20.1227 415.991 20.144C416.908 20.144 417.761 19.888 418.551 19.376C419.361 18.864 419.948 18.192 420.311 17.36C420.545 16.8267 420.663 16.2187 420.663 15.536C420.663 14.704 420.503 13.9787 420.183 13.36C419.948 12.8693 419.628 12.496 419.223 12.24C418.817 11.984 418.241 11.7707 417.495 11.6ZM413.879 8.176C414.625 7.984 415.361 7.888 416.087 7.888C417.452 7.888 418.913 8.22933 420.471 8.912C421.58 9.40267 422.455 10.2667 423.095 11.504C423.756 12.7413 424.097 14.2027 424.119 15.888V16.08C424.119 18.6187 422.988 20.6773 420.727 22.256C419.319 23.2587 417.751 23.76 416.023 23.76C414.593 23.76 413.271 23.408 412.055 22.704C410.839 21.9787 409.921 20.9653 409.303 19.664C409.089 19.216 408.951 18.832 408.887 18.512C408.844 18.192 408.823 17.52 408.823 16.496C408.844 14.9813 409.004 13.7867 409.303 12.912C410.007 10.9707 410.839 9.65867 411.799 8.976C412.183 8.69867 412.876 8.432 413.879 8.176ZM432.563 1.52C432.926 1.15733 433.363 0.975998 433.875 0.975998C434.259 0.975998 434.6 1.09333 434.899 1.328C435.219 1.54133 435.443 1.85067 435.571 2.256C435.635 2.49067 435.742 3.6 435.891 5.584C436.04 7.54667 436.115 8.912 436.115 9.68C436.115 9.872 436.158 9.98933 436.243 10.032C436.35 10.0747 436.595 10.096 436.979 10.096C437.555 10.096 437.886 10.032 437.971 9.904C438.014 9.79733 438.451 9.744 439.283 9.744C440.35 9.744 441.054 9.81867 441.395 9.968C441.715 10.1173 441.96 10.4053 442.131 10.832C442.28 11.1307 442.355 11.376 442.355 11.568C442.355 11.7173 442.323 11.8987 442.259 12.112C442.11 12.6027 441.832 12.9333 441.427 13.104C441.043 13.2533 440.275 13.36 439.123 13.424C437.822 13.488 436.979 13.5733 436.595 13.68L436.083 13.808L436.211 18.32C436.254 20.3253 436.275 21.4027 436.275 21.552C436.275 22.4907 436.2 23.12 436.051 23.44C435.731 24.1227 435.208 24.464 434.483 24.464C434.206 24.464 433.918 24.4 433.619 24.272C433.384 24.1653 433.214 24.0693 433.107 23.984C433 23.8773 432.904 23.6107 432.819 23.184C432.734 22.736 432.68 22.2133 432.659 21.616C432.638 21.0187 432.616 20.0373 432.595 18.672L432.531 14.032L431.571 14.064C430.995 14.1067 430.483 14.192 430.035 14.32C429.928 14.3627 429.758 14.384 429.523 14.384C428.798 14.384 428.275 14.16 427.955 13.712C427.784 13.4347 427.699 13.0613 427.699 12.592C427.699 12.1867 427.763 11.8667 427.891 11.632C428.19 11.0987 429.235 10.6933 431.027 10.416L432.499 10.192L432.371 7.376C432.286 5.37067 432.211 4.00533 432.147 3.28C432.104 2.768 432.083 2.49067 432.083 2.448C432.083 2.14933 432.243 1.84 432.563 1.52ZM446.652 1.552C447.014 1.25333 447.388 1.104 447.772 1.104C448.54 1.104 449.105 1.57333 449.468 2.512C449.617 2.93867 449.777 3.96267 449.948 5.584C450.118 7.184 450.257 8.67733 450.364 10.064C450.47 11.4293 450.534 12.112 450.556 12.112C450.598 12.112 450.95 11.8773 451.612 11.408C452.913 10.4907 454.15 10.032 455.324 10.032C456.412 10.032 457.361 10.4373 458.172 11.248C459.004 12.0373 459.654 13.2 460.124 14.736C460.486 15.9307 460.668 17.7867 460.668 20.304C460.668 21.8827 460.572 22.9493 460.38 23.504C460.166 24.08 459.676 24.368 458.908 24.368C458.396 24.368 457.969 24.1973 457.628 23.856L457.148 23.376L457.052 20.144C456.924 15.984 456.348 13.84 455.324 13.712H455.228C454.737 13.712 454.129 13.9893 453.404 14.544C452.678 15.0773 452.156 15.664 451.836 16.304C451.644 16.7307 451.388 17.04 451.068 17.232L450.652 17.52L450.588 21.008C450.545 22.7147 450.502 23.7493 450.46 24.112C450.438 24.4533 450.321 24.7307 450.108 24.944C449.766 25.3067 449.34 25.488 448.828 25.488C448.06 25.488 447.526 25.1467 447.228 24.464C447.078 24.0587 446.972 21.6053 446.908 17.104C446.801 9.57333 446.524 5.06133 446.076 3.568C446.012 3.33333 445.98 3.10933 445.98 2.896C445.98 2.34133 446.204 1.89333 446.652 1.552ZM474.054 13.808C473.67 13.616 473.126 13.52 472.422 13.52C471.654 13.52 471.004 13.6373 470.47 13.872C470.108 14.0213 469.638 14.352 469.062 14.864C468.486 15.3547 468.198 15.6747 468.198 15.824C468.198 15.888 468.529 15.92 469.19 15.92C470.172 15.92 471.345 15.8667 472.71 15.76C474.076 15.6533 474.854 15.536 475.046 15.408C475.11 15.3867 475.142 15.3227 475.142 15.216C475.142 15.024 475.025 14.7787 474.79 14.48C474.556 14.16 474.31 13.936 474.054 13.808ZM470.278 10.096C470.812 9.94667 471.441 9.872 472.166 9.872C473.51 9.872 474.737 10.1387 475.846 10.672C476.678 11.0987 477.372 11.7493 477.926 12.624C478.481 13.4773 478.822 14.4373 478.95 15.504C478.95 15.5467 478.95 15.6107 478.95 15.696C478.972 15.7813 478.982 15.8453 478.982 15.888C478.982 16.4427 478.876 16.9867 478.662 17.52C478.47 18.0533 478.236 18.416 477.958 18.608C477.596 18.864 475.046 19.184 470.31 19.568C469.308 19.6533 468.806 19.7493 468.806 19.856C468.806 19.984 469.03 20.1867 469.478 20.464C469.926 20.7413 470.364 20.9333 470.79 21.04C471.174 21.1253 471.484 21.168 471.718 21.168C472.401 21.168 473.286 20.944 474.374 20.496C475.142 20.176 475.708 20.016 476.07 20.016C476.433 20.016 476.774 20.176 477.094 20.496C477.521 20.9227 477.734 21.328 477.734 21.712C477.734 21.968 477.67 22.2347 477.542 22.512C477.436 22.768 477.286 22.9707 477.094 23.12C476.924 23.2693 476.604 23.4507 476.134 23.664C474.577 24.3467 473.126 24.688 471.782 24.688C471.014 24.688 470.225 24.5707 469.414 24.336C468.326 23.9947 467.334 23.4187 466.438 22.608C465.542 21.776 464.902 20.8587 464.518 19.856C464.284 19.1947 464.166 18.4587 464.166 17.648C464.166 16.4747 464.358 15.4933 464.742 14.704C465.19 13.7227 465.948 12.784 467.014 11.888C468.081 10.992 469.169 10.3947 470.278 10.096ZM482.927 9.328C483.311 9.008 483.727 8.848 484.175 8.848C484.644 8.848 485.049 9.01867 485.391 9.36C485.732 9.68 485.903 10.096 485.903 10.608C485.903 11.12 485.999 11.376 486.191 11.376C486.297 11.376 486.521 11.2587 486.863 11.024C488.441 9.936 490.009 9.392 491.567 9.392C492.228 9.392 492.879 9.50933 493.519 9.744C494.095 9.97867 494.5 10.2347 494.735 10.512C494.969 10.7893 495.087 11.1627 495.087 11.632C495.087 12.144 494.895 12.5813 494.511 12.944C494.191 13.2427 493.903 13.392 493.647 13.392C493.561 13.392 492.964 13.3173 491.855 13.168C491.727 13.1467 491.545 13.136 491.311 13.136C490.969 13.136 490.532 13.2533 489.999 13.488C488.612 14.128 487.641 14.9387 487.087 15.92C486.532 16.9013 486.255 18.3093 486.255 20.144C486.233 21.488 486.073 22.4267 485.775 22.96C485.497 23.4933 484.996 23.76 484.271 23.76C483.78 23.76 483.364 23.5893 483.023 23.248L482.511 22.736L482.447 17.072C482.404 12.8907 482.383 10.736 482.383 10.608C482.383 10.096 482.564 9.66933 482.927 9.328ZM513.513 2.864C513.79 2.75733 514.035 2.704 514.249 2.704C514.569 2.704 514.889 2.8 515.209 2.992C515.529 3.20533 515.742 3.44 515.849 3.696C515.977 3.952 516.041 4.44267 516.041 5.168C516.041 6 515.998 7.056 515.913 8.336C515.763 10.96 515.667 14.0533 515.625 17.616C515.625 21.0933 515.55 22.9707 515.401 23.248C515.294 23.4613 515.07 23.6747 514.729 23.888C514.409 24.08 514.131 24.176 513.897 24.176C513.641 24.176 513.353 24.0693 513.033 23.856C512.713 23.6427 512.489 23.408 512.361 23.152C512.105 22.64 511.977 20.9227 511.977 18C511.977 15.056 512.105 11.1733 512.361 6.352C512.425 5.09333 512.531 4.24 512.681 3.792C512.83 3.344 513.107 3.03467 513.513 2.864ZM520.95 9.456C521.035 9.43467 521.163 9.424 521.334 9.424C521.803 9.424 522.219 9.57333 522.582 9.872C522.945 10.1707 523.158 10.5547 523.222 11.024C523.307 11.4933 523.35 13.5093 523.35 17.072L523.382 22.48L522.838 22.992C522.475 23.3547 522.049 23.536 521.558 23.536C521.11 23.536 520.726 23.376 520.406 23.056C520.193 22.8427 520.043 22.6293 519.958 22.416C519.894 22.1813 519.841 21.7333 519.798 21.072C519.734 20.24 519.702 18.2347 519.702 15.056L519.67 10.576L520.118 10.032C520.438 9.69067 520.715 9.49867 520.95 9.456ZM520.374 3.088C520.651 2.93867 520.939 2.864 521.238 2.864C521.729 2.864 522.145 3.04533 522.486 3.408C522.827 3.77067 522.998 4.18667 522.998 4.656C522.998 5.06133 522.838 5.456 522.518 5.84C522.113 6.26667 521.665 6.48 521.174 6.48C520.705 6.48 520.289 6.32 519.926 6C519.585 5.65867 519.414 5.25333 519.414 4.784C519.414 4.50666 519.478 4.22933 519.606 3.952C519.798 3.54667 520.054 3.25867 520.374 3.088ZM531.815 2.192C532.156 1.97867 532.476 1.872 532.775 1.872C533.009 1.872 533.276 1.936 533.575 2.064C534.023 2.27733 534.311 2.608 534.439 3.056C534.567 3.504 534.652 4.57067 534.695 6.256L534.791 9.424L536.263 9.328C536.433 9.30667 536.679 9.296 536.999 9.296C537.767 9.296 538.311 9.43467 538.631 9.712C538.972 9.98933 539.143 10.4373 539.143 11.056C539.143 11.7173 538.919 12.1867 538.471 12.464C538.044 12.7413 537.212 12.9333 535.975 13.04L534.631 13.168L534.407 17.616C534.257 20.624 534.119 22.288 533.991 22.608C533.713 23.248 533.18 23.568 532.391 23.568C531.943 23.568 531.591 23.4507 531.335 23.216C531.057 23.0027 530.865 22.768 530.759 22.512C530.652 22.256 530.599 21.84 530.599 21.264C530.599 20.7947 530.631 20.0907 530.695 19.152C530.801 17.4667 530.876 16.0267 530.919 14.832L530.951 13.328L529.511 13.296C528.7 13.2747 528.145 13.2107 527.847 13.104C527.548 12.976 527.292 12.72 527.079 12.336C526.951 12.08 526.887 11.8133 526.887 11.536C526.887 11.024 527.1 10.576 527.527 10.192C527.761 9.97867 528.06 9.84 528.423 9.776C528.785 9.69067 529.457 9.60533 530.439 9.52L530.951 9.456L531.079 6.064C531.1 5.552 531.111 4.99733 531.111 4.4C531.132 3.78133 531.143 3.32266 531.143 3.024L531.175 2.576L531.271 2.512C531.335 2.46933 531.42 2.416 531.527 2.352C531.633 2.288 531.729 2.23467 531.815 2.192ZM547.69 2.192C548.031 1.97867 548.351 1.872 548.65 1.872C548.884 1.872 549.151 1.936 549.45 2.064C549.898 2.27733 550.186 2.608 550.314 3.056C550.442 3.504 550.527 4.57067 550.57 6.256L550.666 9.424L552.138 9.328C552.308 9.30667 552.554 9.296 552.874 9.296C553.642 9.296 554.186 9.43467 554.506 9.712C554.847 9.98933 555.018 10.4373 555.018 11.056C555.018 11.7173 554.794 12.1867 554.346 12.464C553.919 12.7413 553.087 12.9333 551.85 13.04L550.506 13.168L550.282 17.616C550.132 20.624 549.994 22.288 549.866 22.608C549.588 23.248 549.055 23.568 548.266 23.568C547.818 23.568 547.466 23.4507 547.21 23.216C546.932 23.0027 546.74 22.768 546.634 22.512C546.527 22.256 546.474 21.84 546.474 21.264C546.474 20.7947 546.506 20.0907 546.57 19.152C546.676 17.4667 546.751 16.0267 546.794 14.832L546.826 13.328L545.386 13.296C544.575 13.2747 544.02 13.2107 543.722 13.104C543.423 12.976 543.167 12.72 542.954 12.336C542.826 12.08 542.762 11.8133 542.762 11.536C542.762 11.024 542.975 10.576 543.402 10.192C543.636 9.97867 543.935 9.84 544.298 9.776C544.66 9.69067 545.332 9.60533 546.314 9.52L546.826 9.456L546.954 6.064C546.975 5.552 546.986 4.99733 546.986 4.4C547.007 3.78133 547.018 3.32266 547.018 3.024L547.05 2.576L547.146 2.512C547.21 2.46933 547.295 2.416 547.402 2.352C547.508 2.288 547.604 2.23467 547.69 2.192ZM560.013 2.864C560.29 2.75733 560.535 2.704 560.749 2.704C561.069 2.704 561.389 2.8 561.709 2.992C562.029 3.20533 562.242 3.44 562.349 3.696C562.477 3.952 562.541 4.44267 562.541 5.168C562.541 6 562.498 7.056 562.413 8.336C562.263 10.96 562.167 14.0533 562.125 17.616C562.125 21.0933 562.05 22.9707 561.901 23.248C561.794 23.4613 561.57 23.6747 561.229 23.888C560.909 24.08 560.631 24.176 560.397 24.176C560.141 24.176 559.853 24.0693 559.533 23.856C559.213 23.6427 558.989 23.408 558.861 23.152C558.605 22.64 558.477 20.9227 558.477 18C558.477 15.056 558.605 11.1733 558.861 6.352C558.925 5.09333 559.031 4.24 559.181 3.792C559.33 3.344 559.607 3.03467 560.013 2.864ZM575.898 13.808C575.514 13.616 574.97 13.52 574.266 13.52C573.498 13.52 572.847 13.6373 572.314 13.872C571.951 14.0213 571.482 14.352 570.906 14.864C570.33 15.3547 570.042 15.6747 570.042 15.824C570.042 15.888 570.373 15.92 571.034 15.92C572.015 15.92 573.189 15.8667 574.554 15.76C575.919 15.6533 576.698 15.536 576.89 15.408C576.954 15.3867 576.986 15.3227 576.986 15.216C576.986 15.024 576.869 14.7787 576.634 14.48C576.399 14.16 576.154 13.936 575.898 13.808ZM572.122 10.096C572.655 9.94667 573.285 9.872 574.01 9.872C575.354 9.872 576.581 10.1387 577.69 10.672C578.522 11.0987 579.215 11.7493 579.77 12.624C580.325 13.4773 580.666 14.4373 580.794 15.504C580.794 15.5467 580.794 15.6107 580.794 15.696C580.815 15.7813 580.826 15.8453 580.826 15.888C580.826 16.4427 580.719 16.9867 580.506 17.52C580.314 18.0533 580.079 18.416 579.802 18.608C579.439 18.864 576.89 19.184 572.154 19.568C571.151 19.6533 570.65 19.7493 570.65 19.856C570.65 19.984 570.874 20.1867 571.322 20.464C571.77 20.7413 572.207 20.9333 572.634 21.04C573.018 21.1253 573.327 21.168 573.562 21.168C574.245 21.168 575.13 20.944 576.218 20.496C576.986 20.176 577.551 20.016 577.914 20.016C578.277 20.016 578.618 20.176 578.938 20.496C579.365 20.9227 579.578 21.328 579.578 21.712C579.578 21.968 579.514 22.2347 579.386 22.512C579.279 22.768 579.13 22.9707 578.938 23.12C578.767 23.2693 578.447 23.4507 577.978 23.664C576.421 24.3467 574.97 24.688 573.626 24.688C572.858 24.688 572.069 24.5707 571.258 24.336C570.17 23.9947 569.178 23.4187 568.282 22.608C567.386 21.776 566.746 20.8587 566.362 19.856C566.127 19.1947 566.01 18.4587 566.01 17.648C566.01 16.4747 566.202 15.4933 566.586 14.704C567.034 13.7227 567.791 12.784 568.858 11.888C569.925 10.992 571.013 10.3947 572.122 10.096ZM608.02 13.232C607.402 12.6133 606.442 12.304 605.14 12.304C604.5 12.304 603.935 12.4107 603.444 12.624C602.975 12.8373 602.463 13.2533 601.908 13.872C601.354 14.4907 600.991 15.056 600.82 15.568C600.628 16.1227 600.532 16.6453 600.532 17.136C600.532 18.2667 600.98 19.0667 601.876 19.536C602.41 19.8133 603.103 19.952 603.956 19.952C604.532 19.952 604.97 19.8773 605.268 19.728C606.996 18.8533 608.052 17.2853 608.436 15.024L608.628 13.808L608.02 13.232ZM603.156 8.88C603.668 8.73067 604.266 8.656 604.948 8.656C606.1 8.656 607.231 8.85867 608.34 9.264C609.45 9.66933 610.218 10.1813 610.644 10.8C610.943 11.2267 611.327 11.6747 611.796 12.144C612.308 12.6773 612.778 13.5947 613.204 14.896C613.61 16.1333 613.983 17.5093 614.324 19.024C614.687 20.5387 614.868 21.5627 614.868 22.096C614.868 22.6293 614.708 23.0453 614.388 23.344C613.983 23.728 613.599 23.92 613.236 23.92C613.087 23.92 612.895 23.888 612.66 23.824C612.255 23.6747 611.935 23.4187 611.7 23.056C611.487 22.6933 611.295 22.1067 611.124 21.296C610.911 20.336 610.794 19.856 610.772 19.856C610.687 19.856 610.239 20.2613 609.428 21.072C607.828 22.6293 606.164 23.472 604.436 23.6H603.988C602.943 23.6 601.919 23.4187 600.916 23.056C599.935 22.6933 599.156 22.2133 598.58 21.616C598.282 21.3173 597.983 20.8693 597.684 20.272C597.386 19.6533 597.183 19.088 597.076 18.576C596.97 18.0427 596.916 17.5627 596.916 17.136C596.916 15.3653 597.514 13.6693 598.708 12.048C599.924 10.4267 601.407 9.37067 603.156 8.88ZM618.896 9.328C619.28 9.008 619.696 8.848 620.144 8.848C620.613 8.848 621.018 9.01867 621.36 9.36C621.701 9.68 621.872 10.096 621.872 10.608C621.872 11.12 621.968 11.376 622.16 11.376C622.266 11.376 622.49 11.2587 622.832 11.024C624.41 9.936 625.978 9.392 627.536 9.392C628.197 9.392 628.848 9.50933 629.488 9.744C630.064 9.97867 630.469 10.2347 630.704 10.512C630.938 10.7893 631.056 11.1627 631.056 11.632C631.056 12.144 630.864 12.5813 630.48 12.944C630.16 13.2427 629.872 13.392 629.616 13.392C629.53 13.392 628.933 13.3173 627.824 13.168C627.696 13.1467 627.514 13.136 627.28 13.136C626.938 13.136 626.501 13.2533 625.968 13.488C624.581 14.128 623.61 14.9387 623.056 15.92C622.501 16.9013 622.224 18.3093 622.224 20.144C622.202 21.488 622.042 22.4267 621.744 22.96C621.466 23.4933 620.965 23.76 620.24 23.76C619.749 23.76 619.333 23.5893 618.992 23.248L618.48 22.736L618.416 17.072C618.373 12.8907 618.352 10.736 618.352 10.608C618.352 10.096 618.533 9.66933 618.896 9.328ZM639.565 2.192C639.906 1.97867 640.226 1.872 640.525 1.872C640.759 1.872 641.026 1.936 641.325 2.064C641.773 2.27733 642.061 2.608 642.189 3.056C642.317 3.504 642.402 4.57067 642.445 6.256L642.541 9.424L644.013 9.328C644.183 9.30667 644.429 9.296 644.749 9.296C645.517 9.296 646.061 9.43467 646.381 9.712C646.722 9.98933 646.893 10.4373 646.893 11.056C646.893 11.7173 646.669 12.1867 646.221 12.464C645.794 12.7413 644.962 12.9333 643.725 13.04L642.381 13.168L642.157 17.616C642.007 20.624 641.869 22.288 641.741 22.608C641.463 23.248 640.93 23.568 640.141 23.568C639.693 23.568 639.341 23.4507 639.085 23.216C638.807 23.0027 638.615 22.768 638.509 22.512C638.402 22.256 638.349 21.84 638.349 21.264C638.349 20.7947 638.381 20.0907 638.445 19.152C638.551 17.4667 638.626 16.0267 638.669 14.832L638.701 13.328L637.261 13.296C636.45 13.2747 635.895 13.2107 635.597 13.104C635.298 12.976 635.042 12.72 634.829 12.336C634.701 12.08 634.637 11.8133 634.637 11.536C634.637 11.024 634.85 10.576 635.277 10.192C635.511 9.97867 635.81 9.84 636.173 9.776C636.535 9.69067 637.207 9.60533 638.189 9.52L638.701 9.456L638.829 6.064C638.85 5.552 638.861 4.99733 638.861 4.4C638.882 3.78133 638.893 3.32266 638.893 3.024L638.925 2.576L639.021 2.512C639.085 2.46933 639.17 2.416 639.277 2.352C639.383 2.288 639.479 2.23467 639.565 2.192ZM652.144 8.912C652.229 8.89067 652.357 8.88 652.528 8.88C652.933 8.88 653.306 8.98667 653.648 9.2C653.989 9.392 654.224 9.65867 654.352 10C654.437 10.192 654.522 11.6533 654.608 14.384C654.714 17.0933 654.768 19.2267 654.768 20.784C654.768 21.4453 654.757 21.8293 654.736 21.936C654.629 22.7467 654.277 23.2907 653.68 23.568C653.381 23.696 653.146 23.76 652.976 23.76C652.848 23.76 652.656 23.728 652.4 23.664C651.909 23.5147 651.6 23.312 651.472 23.056C651.216 22.5653 651.066 20.6667 651.024 17.36C651.024 16.7627 651.013 15.728 650.992 14.256L650.96 9.872L651.344 9.424C651.6 9.12533 651.866 8.95467 652.144 8.912ZM651.376 2.896C651.632 2.768 651.877 2.704 652.112 2.704C652.581 2.704 652.997 2.896 653.36 3.28C653.722 3.64267 653.904 4.06933 653.904 4.56C653.904 4.90133 653.818 5.2 653.648 5.456C653.285 6.032 652.794 6.32 652.176 6.32C651.77 6.32 651.397 6.18133 651.056 5.904C650.714 5.62667 650.501 5.24267 650.416 4.752C650.416 4.73067 650.405 4.69867 650.384 4.656C650.384 4.592 650.384 4.54933 650.384 4.528C650.384 4.208 650.48 3.89867 650.672 3.6C650.864 3.28 651.098 3.04533 651.376 2.896ZM665.717 1.264C665.93 1.2 666.197 1.168 666.517 1.168C667.541 1.168 668.351 1.33867 668.949 1.68C669.759 2.17067 670.165 2.832 670.165 3.664C670.165 4.304 669.877 4.77333 669.301 5.072C669.023 5.22133 668.725 5.296 668.405 5.296C668.085 5.296 667.711 5.2 667.285 5.008C666.943 4.85867 666.762 4.784 666.741 4.784C666.655 4.784 666.517 4.88 666.325 5.072C666.09 5.30667 665.887 5.78667 665.717 6.512C665.546 7.23733 665.461 8.03733 665.461 8.912V9.584C665.461 9.88267 665.493 10.0853 665.557 10.192C665.621 10.2987 665.77 10.352 666.005 10.352C666.218 10.352 666.73 10.2987 667.541 10.192C667.733 10.1707 667.989 10.16 668.309 10.16C669.781 10.16 670.517 10.7573 670.517 11.952C670.495 12.5707 670.271 13.0187 669.845 13.296C669.439 13.552 668.714 13.7227 667.669 13.808C666.666 13.8933 666.111 13.968 666.005 14.032C665.983 14.032 665.973 14.128 665.973 14.32C665.973 14.8747 666.079 15.9733 666.293 17.616C666.506 19.2587 666.709 20.5493 666.901 21.488C666.986 22 667.029 22.352 667.029 22.544C667.029 23.2693 666.858 23.8453 666.517 24.272C666.175 24.6987 665.706 24.912 665.109 24.912C664.618 24.912 664.202 24.752 663.861 24.432C663.626 24.176 663.466 23.8987 663.381 23.6C663.317 23.28 663.221 22.448 663.093 21.104C662.879 19.0773 662.687 17.4773 662.517 16.304L662.229 14.288L660.661 14.224C659.935 14.1813 659.477 14.128 659.285 14.064C659.093 14 658.901 13.8613 658.709 13.648C658.431 13.3067 658.293 12.8907 658.293 12.4C658.293 12.1013 658.357 11.824 658.485 11.568C658.783 11.056 659.53 10.736 660.725 10.608L661.749 10.512L661.845 8.56C661.973 6.34133 662.346 4.656 662.965 3.504C663.583 2.33067 664.501 1.584 665.717 1.264ZM685.177 13.232C684.558 12.6133 683.598 12.304 682.297 12.304C681.657 12.304 681.091 12.4107 680.601 12.624C680.131 12.8373 679.619 13.2533 679.065 13.872C678.51 14.4907 678.147 15.056 677.977 15.568C677.785 16.1227 677.689 16.6453 677.689 17.136C677.689 18.2667 678.137 19.0667 679.033 19.536C679.566 19.8133 680.259 19.952 681.113 19.952C681.689 19.952 682.126 19.8773 682.425 19.728C684.153 18.8533 685.209 17.2853 685.593 15.024L685.785 13.808L685.177 13.232ZM680.312 8.88C680.825 8.73067 681.422 8.656 682.105 8.656C683.257 8.656 684.387 8.85867 685.497 9.264C686.606 9.66933 687.374 10.1813 687.801 10.8C688.099 11.2267 688.483 11.6747 688.953 12.144C689.465 12.6773 689.934 13.5947 690.361 14.896C690.766 16.1333 691.139 17.5093 691.481 19.024C691.843 20.5387 692.025 21.5627 692.025 22.096C692.025 22.6293 691.865 23.0453 691.545 23.344C691.139 23.728 690.755 23.92 690.392 23.92C690.243 23.92 690.051 23.888 689.817 23.824C689.411 23.6747 689.091 23.4187 688.857 23.056C688.643 22.6933 688.451 22.1067 688.281 21.296C688.067 20.336 687.95 19.856 687.929 19.856C687.843 19.856 687.395 20.2613 686.585 21.072C684.985 22.6293 683.321 23.472 681.593 23.6H681.145C680.099 23.6 679.075 23.4187 678.073 23.056C677.091 22.6933 676.313 22.2133 675.737 21.616C675.438 21.3173 675.139 20.8693 674.841 20.272C674.542 19.6533 674.339 19.088 674.233 18.576C674.126 18.0427 674.073 17.5627 674.073 17.136C674.073 15.3653 674.67 13.6693 675.865 12.048C677.081 10.4267 678.563 9.37067 680.312 8.88ZM699.668 9.392C700.009 9.264 700.542 9.2 701.268 9.2C701.652 9.2 701.961 9.21067 702.196 9.232C703.049 9.25333 703.636 9.30667 703.956 9.392C704.276 9.456 704.702 9.616 705.236 9.872C706.75 10.64 707.508 11.568 707.508 12.656C707.508 12.8907 707.433 13.1787 707.284 13.52C706.964 14.1387 706.473 14.448 705.812 14.448C705.214 14.448 704.67 14.1707 704.18 13.616C703.945 13.36 703.732 13.1893 703.54 13.104C703.348 12.9973 703.038 12.912 702.612 12.848C702.185 12.8053 701.897 12.784 701.748 12.784C701.001 12.784 700.457 13.0187 700.116 13.488C699.518 14.3627 699.22 15.312 699.22 16.336C699.22 17.4453 699.561 18.3947 700.244 19.184C700.926 19.952 701.822 20.336 702.932 20.336C703.358 20.336 703.956 20.2293 704.724 20.016C705.492 19.7813 706.004 19.568 706.26 19.376C706.473 19.2053 706.846 19.12 707.38 19.12C707.892 19.12 708.308 19.28 708.628 19.6C708.969 19.92 709.14 20.3253 709.14 20.816C709.14 21.264 709.033 21.6267 708.82 21.904C708.606 22.1813 708.201 22.4693 707.604 22.768C706.068 23.536 704.532 23.92 702.996 23.92C700.457 23.92 698.526 23.0133 697.204 21.2C696.137 19.7493 695.604 18.16 695.604 16.432C695.604 15.3653 695.817 14.2453 696.244 13.072C696.564 12.24 697.033 11.4827 697.652 10.8C698.292 10.1173 698.964 9.648 699.668 9.392ZM717.657 1.52C718.019 1.15733 718.457 0.975998 718.969 0.975998C719.353 0.975998 719.694 1.09333 719.993 1.328C720.313 1.54133 720.537 1.85067 720.665 2.256C720.729 2.49067 720.835 3.6 720.985 5.584C721.134 7.54667 721.209 8.912 721.209 9.68C721.209 9.872 721.251 9.98933 721.337 10.032C721.443 10.0747 721.689 10.096 722.073 10.096C722.649 10.096 722.979 10.032 723.065 9.904C723.107 9.79733 723.545 9.744 724.377 9.744C725.443 9.744 726.147 9.81867 726.489 9.968C726.809 10.1173 727.054 10.4053 727.225 10.832C727.374 11.1307 727.449 11.376 727.449 11.568C727.449 11.7173 727.417 11.8987 727.353 12.112C727.203 12.6027 726.926 12.9333 726.521 13.104C726.137 13.2533 725.369 13.36 724.217 13.424C722.915 13.488 722.073 13.5733 721.689 13.68L721.177 13.808L721.305 18.32C721.347 20.3253 721.369 21.4027 721.369 21.552C721.369 22.4907 721.294 23.12 721.145 23.44C720.825 24.1227 720.302 24.464 719.577 24.464C719.299 24.464 719.011 24.4 718.713 24.272C718.478 24.1653 718.307 24.0693 718.201 23.984C718.094 23.8773 717.998 23.6107 717.913 23.184C717.827 22.736 717.774 22.2133 717.753 21.616C717.731 21.0187 717.71 20.0373 717.689 18.672L717.625 14.032L716.665 14.064C716.089 14.1067 715.577 14.192 715.129 14.32C715.022 14.3627 714.851 14.384 714.617 14.384C713.891 14.384 713.369 14.16 713.049 13.712C712.878 13.4347 712.793 13.0613 712.793 12.592C712.793 12.1867 712.857 11.8667 712.985 11.632C713.283 11.0987 714.329 10.6933 716.121 10.416L717.593 10.192L717.465 7.376C717.379 5.37067 717.305 4.00533 717.241 3.28C717.198 2.768 717.177 2.49067 717.177 2.448C717.177 2.14933 717.337 1.84 717.657 1.52ZM735.553 8.496C735.937 8.432 736.332 8.4 736.737 8.4C738.017 8.4 739.159 8.688 740.161 9.264C741.164 9.84 741.665 10.5013 741.665 11.248C741.665 11.44 741.633 11.6107 741.569 11.76C741.249 12.5707 740.769 12.976 740.129 12.976C739.66 12.976 739.127 12.8267 738.529 12.528C737.847 12.1867 737.217 12.016 736.641 12.016C736.023 12.016 735.511 12.2187 735.105 12.624C734.892 12.8373 734.785 13.008 734.785 13.136C734.785 13.3067 734.945 13.5093 735.265 13.744C735.607 13.9573 736.225 14.2987 737.121 14.768C738.593 15.536 739.585 16.1653 740.097 16.656C740.588 17.0827 741.015 17.616 741.377 18.256C741.74 18.8747 741.921 19.3973 741.921 19.824C741.921 20.3147 741.793 20.8053 741.537 21.296C741.281 21.7867 740.961 22.16 740.577 22.416C739.596 23.0773 738.401 23.408 736.993 23.408C735.671 23.408 734.305 23.0987 732.897 22.48C732.236 22.16 731.82 21.7973 731.649 21.392C731.521 21.0933 731.457 20.8267 731.457 20.592C731.457 20.1653 731.66 19.7493 732.065 19.344C732.343 19.024 732.716 18.864 733.185 18.864C733.633 18.864 734.177 19.0027 734.817 19.28C735.521 19.5787 736.332 19.728 737.249 19.728C737.676 19.728 737.889 19.6747 737.889 19.568C737.889 19.312 736.972 18.7253 735.137 17.808C733.708 17.0613 732.663 16.3253 732.001 15.6C731.34 14.8533 731.009 14.032 731.009 13.136C731.009 12.0693 731.447 11.088 732.321 10.192C733.217 9.27467 734.295 8.70933 735.553 8.496ZM745.672 21.424C745.843 21.0613 746.035 20.816 746.248 20.688C746.462 20.56 746.835 20.496 747.368 20.496C747.731 20.496 747.976 20.528 748.104 20.592C748.254 20.656 748.424 20.8053 748.616 21.04C748.936 21.424 749.096 21.8293 749.096 22.256C749.096 22.7253 748.894 23.1627 748.488 23.568C748.083 23.9733 747.667 24.176 747.24 24.176C746.814 24.176 746.398 23.9947 745.992 23.632C745.608 23.248 745.416 22.8533 745.416 22.448C745.416 22.128 745.502 21.7867 745.672 21.424Z" fill="#27263C"/>
</svg>
