<svg width="986" height="33" viewBox="0 0 986 33" fill="none" xmlns="http://www.w3.org/2000/svg">
<path d="M1.336 4.272C1.67733 3.952 1.99733 3.792 2.296 3.792C2.46667 3.792 2.616 3.80267 2.744 3.824C3.32 3.888 3.72533 4.08 3.96 4.4L4.376 4.88L4.312 13.264C4.29067 18.7893 4.19467 21.7653 4.024 22.192C3.74667 22.832 3.21333 23.152 2.424 23.152C2.168 23.152 1.976 23.1307 1.848 23.088C1.528 22.9813 1.31467 22.9067 1.208 22.864C1.12267 22.8 1.016 22.608 0.888 22.288C0.781333 21.9467 0.717333 21.4773 0.696 20.88C0.674667 20.2827 0.664 19.3653 0.664 18.128C0.664 17.7867 0.664 17.0933 0.664 16.048C0.685333 15.0027 0.696 14.128 0.696 13.424L0.728 4.784L1.336 4.272ZM21.0918 8.208C21.4758 8.10133 22.0731 8.048 22.8838 8.048C24.5904 8.048 25.8278 8.176 26.5958 8.432C27.6624 8.77333 28.1958 9.36 28.1958 10.192C28.1958 10.6827 27.9611 11.1307 27.4918 11.536C27.1718 11.8347 26.8624 11.984 26.5638 11.984C26.5424 11.984 26.4998 11.984 26.4358 11.984C26.3718 11.9627 26.3184 11.952 26.2758 11.952C24.8678 11.7173 23.7584 11.6 22.9478 11.6C22.6918 11.6 22.4571 11.6213 22.2438 11.664C21.5824 11.8347 21.2518 12.144 21.2518 12.592C21.2518 12.6773 21.2624 12.7413 21.2838 12.784C21.4331 13.2107 22.2758 13.744 23.8118 14.384C26.5638 15.536 28.2598 16.9653 28.8998 18.672C29.0918 19.184 29.1878 19.664 29.1878 20.112C29.1878 20.9013 28.8998 21.5733 28.3238 22.128C27.7691 22.6827 26.9798 23.056 25.9558 23.248C25.5291 23.3333 24.8251 23.376 23.8438 23.376C22.0518 23.376 20.9104 23.2693 20.4198 23.056C20.1424 22.928 19.9078 22.7147 19.7158 22.416C19.5238 22.096 19.4278 21.7867 19.4278 21.488C19.4278 21.168 19.5344 20.848 19.7478 20.528C19.9611 20.1867 20.2171 19.952 20.5158 19.824C20.7931 19.7173 21.1238 19.664 21.5078 19.664C21.6571 19.664 21.9878 19.6853 22.4998 19.728C22.8411 19.7707 23.2998 19.792 23.8758 19.792C24.7718 19.792 25.2198 19.6853 25.2198 19.472C25.2198 19.088 24.2918 18.512 22.4358 17.744C20.7718 17.0187 19.5451 16.2613 18.7558 15.472C17.9878 14.6613 17.6038 13.744 17.6038 12.72C17.6038 12.5493 17.6251 12.2933 17.6678 11.952C17.8384 10.9067 18.2651 10.0747 18.9478 9.456C19.5024 8.90133 20.2171 8.48533 21.0918 8.208ZM41.4008 11.6C40.8248 11.4933 40.3448 11.44 39.9608 11.44C39.0861 11.44 38.3501 11.6213 37.7528 11.984C37.4541 12.176 37.1021 12.8267 36.6968 13.936C36.3128 15.024 36.1208 15.8987 36.1208 16.56C36.1208 17.6267 36.4621 18.4907 37.1448 19.152C37.8488 19.792 38.7661 20.1227 39.8968 20.144C40.8141 20.144 41.6674 19.888 42.4568 19.376C43.2674 18.864 43.8541 18.192 44.2168 17.36C44.4514 16.8267 44.5688 16.2187 44.5688 15.536C44.5688 14.704 44.4088 13.9787 44.0888 13.36C43.8541 12.8693 43.5341 12.496 43.1288 12.24C42.7234 11.984 42.1474 11.7707 41.4008 11.6ZM37.7848 8.176C38.5314 7.984 39.2674 7.888 39.9928 7.888C41.3581 7.888 42.8194 8.22933 44.3768 8.912C45.4861 9.40267 46.3608 10.2667 47.0008 11.504C47.6621 12.7413 48.0034 14.2027 48.0248 15.888V16.08C48.0248 18.6187 46.8941 20.6773 44.6328 22.256C43.2248 23.2587 41.6568 23.76 39.9288 23.76C38.4994 23.76 37.1768 23.408 35.9608 22.704C34.7448 21.9787 33.8274 20.9653 33.2088 19.664C32.9954 19.216 32.8568 18.832 32.7928 18.512C32.7501 18.192 32.7288 17.52 32.7288 16.496C32.7501 14.9813 32.9101 13.7867 33.2088 12.912C33.9128 10.9707 34.7448 9.65867 35.7048 8.976C36.0888 8.69867 36.7821 8.432 37.7848 8.176ZM52.7573 7.344C53.0559 7.30133 53.2266 7.26933 53.2693 7.248C53.3759 7.248 53.6213 7.32267 54.0052 7.472C54.3039 7.6 54.5706 7.856 54.8053 8.24C55.0399 8.624 55.1573 8.99733 55.1573 9.36C55.1573 9.63733 55.2106 9.85067 55.3173 10C55.4026 10.1067 55.4773 10.1493 55.5413 10.128C55.6053 10.1067 55.7546 10 55.9893 9.808C56.9493 8.99733 58.1226 8.496 59.5093 8.304C59.9359 8.26133 60.2346 8.24 60.4053 8.24C61.4933 8.24 62.4213 8.63467 63.1893 9.424L63.9253 10.16L64.8533 9.424C66.3679 8.208 67.8399 7.6 69.2693 7.6C69.7599 7.6 70.1973 7.67467 70.5813 7.824C71.0079 7.99467 71.4666 8.32533 71.9573 8.816C72.4693 9.28533 72.8533 9.78667 73.1093 10.32C73.8773 11.8773 74.3786 14.7787 74.6133 19.024C74.6559 20.0907 74.6773 20.6773 74.6773 20.784C74.6773 21.3387 74.6026 21.7547 74.4533 22.032C74.1333 22.6507 73.6426 22.96 72.9813 22.96C72.5119 22.96 72.0959 22.7893 71.7333 22.448L71.1573 21.968L70.9973 18.992C70.7626 14.5547 70.2293 11.984 69.3973 11.28C69.2693 11.1947 69.1626 11.152 69.0773 11.152C68.9066 11.152 68.5973 11.2693 68.1493 11.504C67.0399 12.0373 66.2506 12.944 65.7812 14.224C65.5253 14.8853 65.3546 16.2613 65.2693 18.352C65.1626 20.464 65.0559 21.6373 64.9493 21.872C64.6079 22.4693 64.0639 22.768 63.3173 22.768C62.9119 22.768 62.5493 22.64 62.2293 22.384C61.7599 22 61.5253 21.0613 61.5253 19.568C61.5253 18.8853 61.5359 18.32 61.5573 17.872C61.5573 17.7227 61.5573 17.52 61.5573 17.264C61.5786 16.9867 61.5893 16.784 61.5893 16.656C61.5893 14.5653 61.3546 13.1147 60.8853 12.304C60.6933 11.9627 60.5013 11.792 60.3093 11.792C60.2879 11.792 60.1493 11.8133 59.8933 11.856C58.5279 12.112 57.3759 13.2107 56.4373 15.152C56.0533 15.9627 55.8613 16.816 55.8613 17.712C55.8613 18.48 55.9253 19.4187 56.0533 20.528C56.1173 20.976 56.1493 21.3493 56.1493 21.648C56.1493 22.4587 55.7973 23.0347 55.0933 23.376C54.7946 23.5253 54.5599 23.6 54.3893 23.6C54.2613 23.6 54.0586 23.5467 53.7812 23.44C53.2479 23.248 52.8959 22.8853 52.7253 22.352C52.5546 21.7973 52.4159 20.6133 52.3093 18.8C52.1599 15.7067 51.9039 12.5173 51.5413 9.232C51.5413 9.18933 51.5306 9.12533 51.5093 9.04C51.5093 8.95467 51.5093 8.90133 51.5093 8.88C51.5093 8.58133 51.6373 8.272 51.8932 7.952C52.2133 7.58933 52.5013 7.38667 52.7573 7.344ZM86.9343 12.944C86.5503 12.6667 85.9423 12.528 85.1103 12.528C84.5983 12.528 84.1929 12.592 83.8943 12.72C83.6169 12.848 83.2969 13.1147 82.9343 13.52C82.5929 13.904 82.4223 14.1813 82.4223 14.352C82.4223 14.5013 82.5823 14.576 82.9023 14.576C83.3289 14.5547 84.2143 14.4587 85.5583 14.288C86.9023 14.1173 87.5956 14.0107 87.6383 13.968C87.6596 13.9467 87.6703 13.9147 87.6703 13.872C87.6703 13.6373 87.4249 13.328 86.9343 12.944ZM83.4783 9.04C83.8623 8.93333 84.3316 8.88 84.8863 8.88C86.0169 8.88 86.9876 9.04 87.7983 9.36C88.4596 9.59467 89.1103 10.0533 89.7503 10.736C90.4116 11.3973 90.9556 12.144 91.3823 12.976C91.8089 13.8293 92.0223 14.4053 92.0223 14.704C92.0223 15.3867 91.7236 16.0267 91.1263 16.624C90.4863 17.2 88.4916 17.6267 85.1423 17.904C83.8623 18.0107 83.0303 18.096 82.6463 18.16C82.2623 18.224 82.0703 18.32 82.0703 18.448C82.0703 18.5547 82.2623 18.7787 82.6463 19.12C83.3076 19.76 84.4916 20.144 86.1983 20.272C86.3689 20.2933 86.5929 20.304 86.8703 20.304C87.3183 20.304 87.8516 20.1973 88.4703 19.984C89.3449 19.664 90.0383 19.504 90.5503 19.504C91.3183 19.504 91.8196 19.888 92.0543 20.656C92.1183 20.848 92.1503 21.0293 92.1503 21.2C92.1503 21.9253 91.6916 22.5227 90.7743 22.992C89.8783 23.44 88.6089 23.696 86.9663 23.76C86.8809 23.76 86.7636 23.7707 86.6143 23.792C86.4649 23.792 86.3583 23.792 86.2943 23.792C84.4809 23.792 82.9129 23.44 81.5903 22.736C80.2889 22.0107 79.3076 20.9867 78.6463 19.664C78.3263 19.024 78.1663 18.1707 78.1663 17.104C78.1663 16.0373 78.2729 15.1947 78.4863 14.576C79.0196 12.976 79.6809 11.7493 80.4703 10.896C81.2596 10.0213 82.2623 9.40267 83.4783 9.04ZM100.627 2.192C100.968 1.97867 101.288 1.872 101.587 1.872C101.822 1.872 102.088 1.936 102.387 2.064C102.835 2.27733 103.123 2.608 103.251 3.056C103.379 3.504 103.464 4.57067 103.507 6.256L103.603 9.424L105.075 9.328C105.246 9.30667 105.491 9.296 105.811 9.296C106.579 9.296 107.123 9.43467 107.443 9.712C107.784 9.98933 107.955 10.4373 107.955 11.056C107.955 11.7173 107.731 12.1867 107.283 12.464C106.856 12.7413 106.024 12.9333 104.787 13.04L103.443 13.168L103.219 17.616C103.07 20.624 102.931 22.288 102.803 22.608C102.526 23.248 101.992 23.568 101.203 23.568C100.755 23.568 100.403 23.4507 100.147 23.216C99.8697 23.0027 99.6777 22.768 99.571 22.512C99.4643 22.256 99.411 21.84 99.411 21.264C99.411 20.7947 99.443 20.0907 99.507 19.152C99.6137 17.4667 99.6883 16.0267 99.731 14.832L99.763 13.328L98.323 13.296C97.5123 13.2747 96.9577 13.2107 96.659 13.104C96.3603 12.976 96.1043 12.72 95.891 12.336C95.763 12.08 95.699 11.8133 95.699 11.536C95.699 11.024 95.9123 10.576 96.339 10.192C96.5737 9.97867 96.8723 9.84 97.235 9.776C97.5977 9.69067 98.2697 9.60533 99.251 9.52L99.763 9.456L99.891 6.064C99.9123 5.552 99.923 4.99733 99.923 4.4C99.9443 3.78133 99.955 3.32266 99.955 3.024L99.987 2.576L100.083 2.512C100.147 2.46933 100.232 2.416 100.339 2.352C100.446 2.288 100.542 2.23467 100.627 2.192ZM112.95 9.456C113.035 9.43467 113.163 9.424 113.334 9.424C113.803 9.424 114.219 9.57333 114.582 9.872C114.945 10.1707 115.158 10.5547 115.222 11.024C115.307 11.4933 115.35 13.5093 115.35 17.072L115.382 22.48L114.838 22.992C114.475 23.3547 114.049 23.536 113.558 23.536C113.11 23.536 112.726 23.376 112.406 23.056C112.193 22.8427 112.043 22.6293 111.958 22.416C111.894 22.1813 111.841 21.7333 111.798 21.072C111.734 20.24 111.702 18.2347 111.702 15.056L111.67 10.576L112.118 10.032C112.438 9.69067 112.715 9.49867 112.95 9.456ZM112.374 3.088C112.651 2.93867 112.939 2.864 113.238 2.864C113.729 2.864 114.145 3.04533 114.486 3.408C114.827 3.77067 114.998 4.18667 114.998 4.656C114.998 5.06133 114.838 5.456 114.518 5.84C114.113 6.26667 113.665 6.48 113.174 6.48C112.705 6.48 112.289 6.32 111.926 6C111.585 5.65867 111.414 5.25333 111.414 4.784C111.414 4.50666 111.478 4.22933 111.606 3.952C111.798 3.54667 112.054 3.25867 112.374 3.088ZM120.039 7.344C120.337 7.30133 120.508 7.26933 120.551 7.248C120.657 7.248 120.903 7.32267 121.286 7.472C121.585 7.6 121.852 7.856 122.087 8.24C122.321 8.624 122.439 8.99733 122.439 9.36C122.439 9.63733 122.492 9.85067 122.599 10C122.684 10.1067 122.759 10.1493 122.823 10.128C122.887 10.1067 123.036 10 123.271 9.808C124.231 8.99733 125.404 8.496 126.791 8.304C127.217 8.26133 127.516 8.24 127.687 8.24C128.775 8.24 129.703 8.63467 130.471 9.424L131.207 10.16L132.135 9.424C133.649 8.208 135.121 7.6 136.551 7.6C137.041 7.6 137.479 7.67467 137.863 7.824C138.289 7.99467 138.748 8.32533 139.239 8.816C139.751 9.28533 140.135 9.78667 140.391 10.32C141.159 11.8773 141.66 14.7787 141.895 19.024C141.937 20.0907 141.959 20.6773 141.959 20.784C141.959 21.3387 141.884 21.7547 141.735 22.032C141.415 22.6507 140.924 22.96 140.263 22.96C139.793 22.96 139.377 22.7893 139.015 22.448L138.439 21.968L138.279 18.992C138.044 14.5547 137.511 11.984 136.679 11.28C136.551 11.1947 136.444 11.152 136.359 11.152C136.188 11.152 135.879 11.2693 135.431 11.504C134.321 12.0373 133.532 12.944 133.062 14.224C132.807 14.8853 132.636 16.2613 132.551 18.352C132.444 20.464 132.337 21.6373 132.231 21.872C131.889 22.4693 131.345 22.768 130.599 22.768C130.193 22.768 129.831 22.64 129.511 22.384C129.041 22 128.807 21.0613 128.807 19.568C128.807 18.8853 128.817 18.32 128.839 17.872C128.839 17.7227 128.839 17.52 128.839 17.264C128.86 16.9867 128.871 16.784 128.871 16.656C128.871 14.5653 128.636 13.1147 128.167 12.304C127.975 11.9627 127.783 11.792 127.591 11.792C127.569 11.792 127.431 11.8133 127.175 11.856C125.809 12.112 124.657 13.2107 123.719 15.152C123.335 15.9627 123.143 16.816 123.143 17.712C123.143 18.48 123.207 19.4187 123.335 20.528C123.399 20.976 123.431 21.3493 123.431 21.648C123.431 22.4587 123.079 23.0347 122.375 23.376C122.076 23.5253 121.841 23.6 121.671 23.6C121.543 23.6 121.34 23.5467 121.062 23.44C120.529 23.248 120.177 22.8853 120.007 22.352C119.836 21.7973 119.697 20.6133 119.591 18.8C119.441 15.7067 119.185 12.5173 118.823 9.232C118.823 9.18933 118.812 9.12533 118.791 9.04C118.791 8.95467 118.791 8.90133 118.791 8.88C118.791 8.58133 118.919 8.272 119.174 7.952C119.495 7.58933 119.783 7.38667 120.039 7.344ZM155.336 13.808C154.952 13.616 154.408 13.52 153.704 13.52C152.936 13.52 152.285 13.6373 151.752 13.872C151.389 14.0213 150.92 14.352 150.344 14.864C149.768 15.3547 149.48 15.6747 149.48 15.824C149.48 15.888 149.81 15.92 150.472 15.92C151.453 15.92 152.626 15.8667 153.992 15.76C155.357 15.6533 156.136 15.536 156.328 15.408C156.392 15.3867 156.424 15.3227 156.424 15.216C156.424 15.024 156.306 14.7787 156.072 14.48C155.837 14.16 155.592 13.936 155.336 13.808ZM151.56 10.096C152.093 9.94667 152.722 9.872 153.448 9.872C154.792 9.872 156.018 10.1387 157.128 10.672C157.96 11.0987 158.653 11.7493 159.208 12.624C159.762 13.4773 160.104 14.4373 160.232 15.504C160.232 15.5467 160.232 15.6107 160.232 15.696C160.253 15.7813 160.264 15.8453 160.264 15.888C160.264 16.4427 160.157 16.9867 159.944 17.52C159.752 18.0533 159.517 18.416 159.24 18.608C158.877 18.864 156.328 19.184 151.592 19.568C150.589 19.6533 150.088 19.7493 150.088 19.856C150.088 19.984 150.312 20.1867 150.76 20.464C151.208 20.7413 151.645 20.9333 152.072 21.04C152.456 21.1253 152.765 21.168 153 21.168C153.682 21.168 154.568 20.944 155.656 20.496C156.424 20.176 156.989 20.016 157.352 20.016C157.714 20.016 158.056 20.176 158.376 20.496C158.802 20.9227 159.016 21.328 159.016 21.712C159.016 21.968 158.952 22.2347 158.824 22.512C158.717 22.768 158.568 22.9707 158.376 23.12C158.205 23.2693 157.885 23.4507 157.416 23.664C155.858 24.3467 154.408 24.688 153.064 24.688C152.296 24.688 151.506 24.5707 150.696 24.336C149.608 23.9947 148.616 23.4187 147.72 22.608C146.824 21.776 146.184 20.8587 145.799 19.856C145.565 19.1947 145.448 18.4587 145.448 17.648C145.448 16.4747 145.64 15.4933 146.024 14.704C146.472 13.7227 147.229 12.784 148.296 11.888C149.362 10.992 150.45 10.3947 151.56 10.096ZM168.272 8.496C168.656 8.432 169.051 8.4 169.456 8.4C170.736 8.4 171.877 8.688 172.88 9.264C173.883 9.84 174.384 10.5013 174.384 11.248C174.384 11.44 174.352 11.6107 174.288 11.76C173.968 12.5707 173.488 12.976 172.848 12.976C172.379 12.976 171.845 12.8267 171.248 12.528C170.565 12.1867 169.936 12.016 169.36 12.016C168.741 12.016 168.229 12.2187 167.824 12.624C167.611 12.8373 167.504 13.008 167.504 13.136C167.504 13.3067 167.664 13.5093 167.984 13.744C168.325 13.9573 168.944 14.2987 169.84 14.768C171.312 15.536 172.304 16.1653 172.816 16.656C173.307 17.0827 173.733 17.616 174.096 18.256C174.459 18.8747 174.64 19.3973 174.64 19.824C174.64 20.3147 174.512 20.8053 174.256 21.296C174 21.7867 173.68 22.16 173.296 22.416C172.315 23.0773 171.12 23.408 169.712 23.408C168.389 23.408 167.024 23.0987 165.616 22.48C164.955 22.16 164.539 21.7973 164.368 21.392C164.24 21.0933 164.176 20.8267 164.176 20.592C164.176 20.1653 164.379 19.7493 164.784 19.344C165.061 19.024 165.435 18.864 165.904 18.864C166.352 18.864 166.896 19.0027 167.536 19.28C168.24 19.5787 169.051 19.728 169.968 19.728C170.395 19.728 170.608 19.6747 170.608 19.568C170.608 19.312 169.691 18.7253 167.856 17.808C166.427 17.0613 165.381 16.3253 164.72 15.6C164.059 14.8533 163.728 14.032 163.728 13.136C163.728 12.0693 164.165 11.088 165.04 10.192C165.936 9.27467 167.013 8.70933 168.272 8.496ZM199.092 1.264C199.305 1.2 199.572 1.168 199.892 1.168C200.916 1.168 201.726 1.33867 202.324 1.68C203.134 2.17067 203.54 2.832 203.54 3.664C203.54 4.304 203.252 4.77333 202.676 5.072C202.398 5.22133 202.1 5.296 201.78 5.296C201.46 5.296 201.086 5.2 200.66 5.008C200.318 4.85867 200.137 4.784 200.116 4.784C200.03 4.784 199.892 4.88 199.7 5.072C199.465 5.30667 199.262 5.78667 199.092 6.512C198.921 7.23733 198.836 8.03733 198.836 8.912V9.584C198.836 9.88267 198.868 10.0853 198.932 10.192C198.996 10.2987 199.145 10.352 199.38 10.352C199.593 10.352 200.105 10.2987 200.916 10.192C201.108 10.1707 201.364 10.16 201.684 10.16C203.156 10.16 203.892 10.7573 203.892 11.952C203.87 12.5707 203.646 13.0187 203.22 13.296C202.814 13.552 202.089 13.7227 201.044 13.808C200.041 13.8933 199.486 13.968 199.38 14.032C199.358 14.032 199.348 14.128 199.348 14.32C199.348 14.8747 199.454 15.9733 199.668 17.616C199.881 19.2587 200.084 20.5493 200.276 21.488C200.361 22 200.404 22.352 200.404 22.544C200.404 23.2693 200.233 23.8453 199.892 24.272C199.55 24.6987 199.081 24.912 198.484 24.912C197.993 24.912 197.577 24.752 197.236 24.432C197.001 24.176 196.841 23.8987 196.756 23.6C196.692 23.28 196.596 22.448 196.468 21.104C196.254 19.0773 196.062 17.4773 195.892 16.304L195.604 14.288L194.036 14.224C193.31 14.1813 192.852 14.128 192.66 14.064C192.468 14 192.276 13.8613 192.084 13.648C191.806 13.3067 191.668 12.8907 191.668 12.4C191.668 12.1013 191.732 11.824 191.86 11.568C192.158 11.056 192.905 10.736 194.1 10.608L195.124 10.512L195.22 8.56C195.348 6.34133 195.721 4.656 196.34 3.504C196.958 2.33067 197.876 1.584 199.092 1.264ZM209.144 8.912C209.229 8.89067 209.357 8.88 209.528 8.88C209.933 8.88 210.306 8.98667 210.648 9.2C210.989 9.392 211.224 9.65867 211.352 10C211.437 10.192 211.522 11.6533 211.608 14.384C211.714 17.0933 211.768 19.2267 211.768 20.784C211.768 21.4453 211.757 21.8293 211.736 21.936C211.629 22.7467 211.277 23.2907 210.68 23.568C210.381 23.696 210.146 23.76 209.976 23.76C209.848 23.76 209.656 23.728 209.4 23.664C208.909 23.5147 208.6 23.312 208.472 23.056C208.216 22.5653 208.066 20.6667 208.024 17.36C208.024 16.7627 208.013 15.728 207.992 14.256L207.96 9.872L208.344 9.424C208.6 9.12533 208.866 8.95467 209.144 8.912ZM208.376 2.896C208.632 2.768 208.877 2.704 209.112 2.704C209.581 2.704 209.997 2.896 210.36 3.28C210.722 3.64267 210.904 4.06933 210.904 4.56C210.904 4.90133 210.818 5.2 210.648 5.456C210.285 6.032 209.794 6.32 209.176 6.32C208.77 6.32 208.397 6.18133 208.056 5.904C207.714 5.62667 207.501 5.24267 207.416 4.752C207.416 4.73067 207.405 4.69867 207.384 4.656C207.384 4.592 207.384 4.54933 207.384 4.528C207.384 4.208 207.48 3.89867 207.672 3.6C207.864 3.28 208.098 3.04533 208.376 2.896ZM216.061 9.072C216.317 8.944 216.583 8.88 216.861 8.88C217.245 8.88 217.607 9.008 217.949 9.264C218.29 9.49867 218.525 9.81867 218.653 10.224L218.845 10.896L219.645 10.416C220.178 10.096 220.914 9.936 221.853 9.936C222.77 9.936 223.527 10.0853 224.125 10.384C224.615 10.6187 225.138 11.0027 225.693 11.536C226.269 12.0693 226.727 12.6027 227.069 13.136C228.221 14.9493 228.85 17.7653 228.957 21.584V22.224C228.957 22.736 228.807 23.152 228.509 23.472C228.146 23.8347 227.719 24.016 227.229 24.016C226.439 24.016 225.917 23.6747 225.661 22.992C225.533 22.6293 225.426 21.9147 225.341 20.848C225.085 17.1147 224.253 14.7787 222.845 13.84C222.546 13.648 222.247 13.552 221.949 13.552C221.394 13.552 220.893 13.8613 220.445 14.48C220.018 15.0773 219.677 15.9307 219.421 17.04C219.314 17.5307 219.186 18.416 219.037 19.696C218.887 20.976 218.813 21.84 218.813 22.288C218.813 22.5013 218.631 22.7893 218.269 23.152C217.906 23.4933 217.49 23.664 217.021 23.664C216.146 23.664 215.57 23.2053 215.293 22.288C215.165 21.84 215.101 19.8987 215.101 16.464C215.101 12.368 215.175 10.1387 215.325 9.776C215.453 9.49867 215.698 9.264 216.061 9.072ZM240.542 13.872C240.35 13.6373 240.019 13.52 239.55 13.52C239.166 13.52 238.782 13.616 238.398 13.808C237.822 14.0853 237.278 14.672 236.766 15.568C236.254 16.464 235.998 17.2533 235.998 17.936C235.998 18.1493 236.03 18.3307 236.094 18.48C236.243 18.8213 236.606 19.1413 237.182 19.44C237.758 19.7173 238.302 19.856 238.814 19.856C238.921 19.856 239.081 19.8347 239.294 19.792C239.785 19.6427 240.275 19.2373 240.766 18.576C241.278 17.8933 241.673 17.0933 241.95 16.176C242.121 15.6213 242.206 15.248 242.206 15.056C242.206 14.7573 241.982 14.544 241.534 14.416C241.022 14.224 240.691 14.0427 240.542 13.872ZM243.134 2.704C243.326 2.61867 243.55 2.576 243.806 2.576C244.617 2.576 245.161 2.928 245.438 3.632C245.566 3.952 245.769 5.24267 246.046 7.504C246.302 9.872 246.451 11.2053 246.494 11.504C247.369 17.84 247.806 21.4667 247.806 22.384C247.806 22.8107 247.625 23.184 247.262 23.504C246.921 23.824 246.526 23.984 246.078 23.984C245.459 23.984 244.979 23.76 244.638 23.312C244.297 22.8427 244.126 22.2133 244.126 21.424C244.126 21.0827 244.083 20.8693 243.998 20.784H243.966C243.838 20.784 243.443 21.0933 242.782 21.712C242.078 22.416 241.395 22.8853 240.734 23.12C240.137 23.3547 239.454 23.472 238.686 23.472C237.555 23.472 236.467 23.1947 235.422 22.64C234.377 22.064 233.566 21.3067 232.99 20.368C232.777 20.0053 232.638 19.696 232.574 19.44C232.531 19.1627 232.51 18.64 232.51 17.872C232.531 16.8907 232.649 16.0693 232.862 15.408C233.075 14.7467 233.47 13.9787 234.046 13.104C234.451 12.4853 235.027 11.888 235.774 11.312C236.521 10.736 237.171 10.3627 237.726 10.192C238.281 10.0427 238.867 9.968 239.486 9.968C240.254 9.968 240.926 10.064 241.502 10.256C242.121 10.448 242.451 10.544 242.494 10.544C242.537 10.544 242.558 10.416 242.558 10.16C242.558 9.456 242.473 8.57067 242.302 7.504C242.153 6.62933 242.078 5.84 242.078 5.136C242.078 3.81333 242.43 3.00267 243.134 2.704ZM271.735 9.072C272.269 8.96533 272.77 8.912 273.239 8.912C274.647 8.912 275.97 9.264 277.207 9.968C277.741 10.288 278.093 10.544 278.263 10.736C278.455 10.928 278.605 11.2053 278.711 11.568C278.733 11.632 278.743 11.728 278.743 11.856C278.743 12.5173 278.487 13.04 277.975 13.424C277.698 13.5947 277.431 13.68 277.175 13.68C276.813 13.68 276.237 13.4987 275.447 13.136C274.615 12.752 273.847 12.56 273.143 12.56C272.503 12.56 271.906 12.72 271.351 13.04C270.861 13.3387 270.327 13.7867 269.751 14.384C269.175 14.9813 268.802 15.4827 268.631 15.888C268.461 16.2933 268.375 16.6133 268.375 16.848C268.375 17.2107 268.663 17.68 269.239 18.256C270.114 19.1093 271.341 19.6107 272.919 19.76C272.983 19.76 273.069 19.7707 273.175 19.792C273.303 19.792 273.389 19.792 273.431 19.792C273.794 19.792 274.285 19.632 274.903 19.312C275.565 18.9493 276.077 18.768 276.439 18.768C276.781 18.768 277.122 18.9173 277.463 19.216C277.911 19.6427 278.135 20.08 278.135 20.528C278.135 21.36 277.485 22.1067 276.183 22.768C275.415 23.1733 274.647 23.376 273.879 23.376H273.367C271.575 23.3547 269.943 22.9493 268.471 22.16C266.999 21.3493 265.943 20.2933 265.303 18.992C264.962 18.3093 264.791 17.584 264.791 16.816C264.791 14.8533 265.901 12.8907 268.119 10.928C269.207 9.94667 270.413 9.328 271.735 9.072ZM290.963 11.6C290.387 11.4933 289.907 11.44 289.523 11.44C288.649 11.44 287.913 11.6213 287.315 11.984C287.017 12.176 286.665 12.8267 286.259 13.936C285.875 15.024 285.683 15.8987 285.683 16.56C285.683 17.6267 286.025 18.4907 286.707 19.152C287.411 19.792 288.329 20.1227 289.459 20.144C290.377 20.144 291.23 19.888 292.019 19.376C292.83 18.864 293.417 18.192 293.779 17.36C294.014 16.8267 294.131 16.2187 294.131 15.536C294.131 14.704 293.971 13.9787 293.651 13.36C293.417 12.8693 293.097 12.496 292.691 12.24C292.286 11.984 291.71 11.7707 290.963 11.6ZM287.347 8.176C288.094 7.984 288.83 7.888 289.555 7.888C290.921 7.888 292.382 8.22933 293.939 8.912C295.049 9.40267 295.923 10.2667 296.563 11.504C297.225 12.7413 297.566 14.2027 297.587 15.888V16.08C297.587 18.6187 296.457 20.6773 294.195 22.256C292.787 23.2587 291.219 23.76 289.491 23.76C288.062 23.76 286.739 23.408 285.523 22.704C284.307 21.9787 283.39 20.9653 282.771 19.664C282.558 19.216 282.419 18.832 282.355 18.512C282.313 18.192 282.291 17.52 282.291 16.496C282.313 14.9813 282.473 13.7867 282.771 12.912C283.475 10.9707 284.307 9.65867 285.267 8.976C285.651 8.69867 286.345 8.432 287.347 8.176ZM302.128 8.528C302.341 8.42133 302.597 8.368 302.896 8.368C303.984 8.368 304.666 9.28533 304.944 11.12C305.008 11.6747 305.082 11.952 305.168 11.952C305.189 11.952 305.488 11.7067 306.064 11.216C307.237 10.1707 308.432 9.648 309.648 9.648C310.309 9.648 310.938 9.82933 311.536 10.192C312.112 10.5547 312.485 10.8747 312.656 11.152L312.944 11.6L313.712 10.896C314.885 9.85067 316.144 9.328 317.488 9.328C318.789 9.328 319.909 9.82933 320.848 10.832C322.448 12.4747 323.397 15.28 323.696 19.248C323.738 19.9733 323.76 20.4213 323.76 20.592C323.76 21.1467 323.685 21.552 323.536 21.808C323.408 22.064 323.173 22.288 322.832 22.48C322.533 22.6293 322.245 22.704 321.968 22.704C321.498 22.704 321.082 22.4907 320.72 22.064C320.442 21.7013 320.261 21.0827 320.176 20.208C320.005 18.2453 319.792 16.784 319.536 15.824C319.28 14.864 318.917 14.1173 318.448 13.584C318.085 13.2 317.712 13.008 317.328 13.008C316.602 13.008 315.962 13.5733 315.408 14.704C315.194 15.152 315.056 15.568 314.992 15.952C314.928 16.336 314.874 17.2107 314.832 18.576C314.746 20.4533 314.64 21.5733 314.512 21.936C314.213 22.64 313.669 22.992 312.88 22.992C312.41 22.992 312.016 22.832 311.696 22.512C311.184 22 310.864 20.4853 310.736 17.968C310.672 17.008 310.554 16.08 310.384 15.184C310.213 14.288 310.053 13.7547 309.904 13.584C309.776 13.4347 309.637 13.36 309.488 13.36C309.232 13.36 308.805 13.6267 308.208 14.16C307.568 14.7573 307.088 15.3973 306.768 16.08C306.469 16.6987 306.288 17.2 306.224 17.584C306.181 17.9467 306.138 19.1947 306.096 21.328C306.074 21.8827 305.904 22.3307 305.584 22.672C305.264 23.0133 304.858 23.184 304.368 23.184C303.877 23.184 303.482 23.088 303.184 22.896C302.757 22.5973 302.458 22.0213 302.288 21.168C302.117 20.2933 301.925 18.2347 301.712 14.992C301.584 13.072 301.434 11.7707 301.264 11.088C301.136 10.576 301.072 10.2347 301.072 10.064C301.072 9.872 301.136 9.648 301.264 9.392C301.456 8.944 301.744 8.656 302.128 8.528ZM334.748 1.264C334.961 1.2 335.228 1.168 335.548 1.168C336.572 1.168 337.383 1.33867 337.98 1.68C338.791 2.17067 339.196 2.832 339.196 3.664C339.196 4.304 338.908 4.77333 338.332 5.072C338.055 5.22133 337.756 5.296 337.436 5.296C337.116 5.296 336.743 5.2 336.316 5.008C335.975 4.85867 335.793 4.784 335.772 4.784C335.687 4.784 335.548 4.88 335.356 5.072C335.121 5.30667 334.919 5.78667 334.748 6.512C334.577 7.23733 334.492 8.03733 334.492 8.912V9.584C334.492 9.88267 334.524 10.0853 334.588 10.192C334.652 10.2987 334.801 10.352 335.036 10.352C335.249 10.352 335.761 10.2987 336.572 10.192C336.764 10.1707 337.02 10.16 337.34 10.16C338.812 10.16 339.548 10.7573 339.548 11.952C339.527 12.5707 339.303 13.0187 338.876 13.296C338.471 13.552 337.745 13.7227 336.7 13.808C335.697 13.8933 335.143 13.968 335.036 14.032C335.015 14.032 335.004 14.128 335.004 14.32C335.004 14.8747 335.111 15.9733 335.324 17.616C335.537 19.2587 335.74 20.5493 335.932 21.488C336.017 22 336.06 22.352 336.06 22.544C336.06 23.2693 335.889 23.8453 335.548 24.272C335.207 24.6987 334.737 24.912 334.14 24.912C333.649 24.912 333.233 24.752 332.892 24.432C332.657 24.176 332.497 23.8987 332.412 23.6C332.348 23.28 332.252 22.448 332.124 21.104C331.911 19.0773 331.719 17.4773 331.548 16.304L331.26 14.288L329.692 14.224C328.967 14.1813 328.508 14.128 328.316 14.064C328.124 14 327.932 13.8613 327.74 13.648C327.463 13.3067 327.324 12.8907 327.324 12.4C327.324 12.1013 327.388 11.824 327.516 11.568C327.815 11.056 328.561 10.736 329.756 10.608L330.78 10.512L330.876 8.56C331.004 6.34133 331.377 4.656 331.996 3.504C332.615 2.33067 333.532 1.584 334.748 1.264ZM352.032 12.816C351.626 12.7093 350.965 12.6133 350.048 12.528C349.45 12.4853 349.13 12.464 349.088 12.464C348.789 12.464 348.49 12.624 348.192 12.944C347.338 13.8187 346.88 15.0027 346.816 16.496C346.816 16.5813 346.805 16.6987 346.784 16.848C346.784 16.976 346.784 17.072 346.784 17.136C346.784 17.6267 346.912 18.0853 347.168 18.512C347.85 19.728 349.056 20.336 350.784 20.336C351.509 20.3147 352.245 20.0693 352.992 19.6C353.76 19.1093 354.314 18.5227 354.656 17.84C354.848 17.4347 354.944 16.9973 354.944 16.528C354.944 15.7387 354.666 14.992 354.112 14.288C353.578 13.5627 352.885 13.072 352.032 12.816ZM347.168 9.232C347.658 8.95467 348.149 8.816 348.64 8.816C348.746 8.816 349.141 8.83733 349.824 8.88C351.85 8.98667 353.482 9.41333 354.72 10.16C355.957 10.9067 356.949 12.0587 357.696 13.616C358.272 14.8107 358.56 15.952 358.56 17.04C358.56 17.3813 358.528 17.68 358.464 17.936C358.122 19.2587 357.376 20.464 356.224 21.552C355.072 22.64 353.802 23.3653 352.416 23.728C351.69 23.8987 351.114 23.984 350.688 23.984C350.261 23.984 349.685 23.8987 348.96 23.728C346.762 23.152 345.184 22.1067 344.224 20.592C343.477 19.4187 343.104 18.1813 343.104 16.88C343.104 15.5787 343.456 14.192 344.16 12.72C344.97 10.992 345.973 9.82933 347.168 9.232ZM362.521 9.328C362.905 9.008 363.321 8.848 363.769 8.848C364.238 8.848 364.643 9.01867 364.985 9.36C365.326 9.68 365.497 10.096 365.497 10.608C365.497 11.12 365.593 11.376 365.785 11.376C365.891 11.376 366.115 11.2587 366.457 11.024C368.035 9.936 369.603 9.392 371.161 9.392C371.822 9.392 372.473 9.50933 373.113 9.744C373.689 9.97867 374.094 10.2347 374.329 10.512C374.563 10.7893 374.681 11.1627 374.681 11.632C374.681 12.144 374.489 12.5813 374.105 12.944C373.785 13.2427 373.497 13.392 373.241 13.392C373.155 13.392 372.558 13.3173 371.449 13.168C371.321 13.1467 371.139 13.136 370.905 13.136C370.563 13.136 370.126 13.2533 369.593 13.488C368.206 14.128 367.235 14.9387 366.681 15.92C366.126 16.9013 365.849 18.3093 365.849 20.144C365.827 21.488 365.667 22.4267 365.369 22.96C365.091 23.4933 364.59 23.76 363.865 23.76C363.374 23.76 362.958 23.5893 362.617 23.248L362.105 22.736L362.041 17.072C361.998 12.8907 361.977 10.736 361.977 10.608C361.977 10.096 362.158 9.66933 362.521 9.328ZM383.126 1.52C383.488 1.15733 383.926 0.975998 384.438 0.975998C384.822 0.975998 385.163 1.09333 385.462 1.328C385.782 1.54133 386.006 1.85067 386.134 2.256C386.198 2.49067 386.304 3.6 386.454 5.584C386.603 7.54667 386.678 8.912 386.678 9.68C386.678 9.872 386.72 9.98933 386.806 10.032C386.912 10.0747 387.158 10.096 387.542 10.096C388.118 10.096 388.448 10.032 388.534 9.904C388.576 9.79733 389.014 9.744 389.846 9.744C390.912 9.744 391.616 9.81867 391.958 9.968C392.278 10.1173 392.523 10.4053 392.694 10.832C392.843 11.1307 392.918 11.376 392.918 11.568C392.918 11.7173 392.886 11.8987 392.822 12.112C392.672 12.6027 392.395 12.9333 391.99 13.104C391.606 13.2533 390.838 13.36 389.686 13.424C388.384 13.488 387.542 13.5733 387.158 13.68L386.646 13.808L386.774 18.32C386.816 20.3253 386.838 21.4027 386.838 21.552C386.838 22.4907 386.763 23.12 386.614 23.44C386.294 24.1227 385.771 24.464 385.046 24.464C384.768 24.464 384.48 24.4 384.182 24.272C383.947 24.1653 383.776 24.0693 383.67 23.984C383.563 23.8773 383.467 23.6107 383.382 23.184C383.296 22.736 383.243 22.2133 383.222 21.616C383.2 21.0187 383.179 20.0373 383.158 18.672L383.094 14.032L382.134 14.064C381.558 14.1067 381.046 14.192 380.598 14.32C380.491 14.3627 380.32 14.384 380.086 14.384C379.36 14.384 378.838 14.16 378.518 13.712C378.347 13.4347 378.262 13.0613 378.262 12.592C378.262 12.1867 378.326 11.8667 378.454 11.632C378.752 11.0987 379.798 10.6933 381.59 10.416L383.062 10.192L382.934 7.376C382.848 5.37067 382.774 4.00533 382.71 3.28C382.667 2.768 382.646 2.49067 382.646 2.448C382.646 2.14933 382.806 1.84 383.126 1.52ZM420.667 0.431999C421.051 0.389332 421.339 0.367998 421.531 0.367998C423.067 0.367998 424.219 0.751998 424.987 1.52C425.456 2.01067 425.691 2.53333 425.691 3.088C425.691 3.55733 425.52 3.96267 425.179 4.304C424.859 4.624 424.453 4.784 423.963 4.784C423.515 4.784 423.077 4.63467 422.651 4.336C422.267 4.05866 421.915 3.92 421.595 3.92C421.083 3.92 420.603 4.28267 420.155 5.008C419.707 5.73333 419.429 6.58667 419.323 7.568C419.28 7.90933 419.259 8.112 419.259 8.176C419.259 8.45333 419.397 8.63467 419.675 8.72C419.952 8.784 420.603 8.82667 421.627 8.848C421.797 8.848 421.936 8.848 422.043 8.848C423.024 8.89067 423.611 8.93333 423.803 8.976C424.016 9.01867 424.229 9.15733 424.443 9.392C424.72 9.69067 424.859 10.0747 424.859 10.544C424.859 11.0347 424.709 11.44 424.411 11.76L423.963 12.304H418.907L418.811 12.752C418.789 12.816 418.779 13.168 418.779 13.808C418.779 16.752 418.864 19.3653 419.035 21.648C419.035 21.7333 419.035 21.8507 419.035 22C419.056 22.1493 419.067 22.256 419.067 22.32C419.067 22.8747 418.992 23.28 418.843 23.536C418.693 23.792 418.427 24.016 418.043 24.208C417.787 24.336 417.509 24.4 417.211 24.4C416.613 24.4 416.155 24.176 415.835 23.728C415.664 23.472 415.504 22.5333 415.355 20.912C415.227 19.2693 415.163 17.6587 415.163 16.08C415.163 15.3547 415.173 14.832 415.195 14.512L415.291 12.272L413.211 12.368C412.229 12.4107 411.717 12.432 411.675 12.432C411.269 12.432 410.928 12.3253 410.651 12.112C410.245 11.7493 410.043 11.2693 410.043 10.672C410.043 10.416 410.085 10.192 410.171 10C410.32 9.616 410.629 9.33867 411.099 9.168C411.568 8.99733 412.347 8.88 413.435 8.816C414.779 8.73067 415.461 8.66667 415.483 8.624C415.525 8.58133 415.643 7.97333 415.835 6.8C416.176 4.60267 416.944 2.928 418.139 1.776C418.587 1.328 418.96 1.01867 419.259 0.848C419.579 0.677333 420.048 0.538666 420.667 0.431999ZM429.834 9.68C430.154 9.36 430.548 9.2 431.018 9.2C431.551 9.2 431.978 9.37067 432.298 9.712C432.596 10.0107 432.746 10.2347 432.746 10.384C432.746 10.5333 432.81 10.608 432.938 10.608C433.066 10.608 433.3 10.4907 433.642 10.256C434.474 9.68 435.434 9.392 436.522 9.392C437.354 9.392 438.346 9.57333 439.498 9.936C440.223 10.1493 440.703 10.3307 440.938 10.48C441.172 10.608 441.364 10.7893 441.514 11.024C441.748 11.3867 441.866 11.7173 441.866 12.016C441.866 12.2507 441.78 12.5387 441.61 12.88C441.311 13.456 440.82 13.744 440.138 13.744C439.69 13.744 439.156 13.6373 438.538 13.424C437.876 13.1893 437.279 13.072 436.746 13.072C436.212 13.072 435.796 13.1893 435.498 13.424C435.178 13.68 434.804 14.256 434.378 15.152C433.972 16.0267 433.695 16.8587 433.546 17.648C433.375 18.6293 433.29 19.6853 433.29 20.816C433.29 22.0747 433.162 22.9387 432.906 23.408C432.65 23.856 432.18 24.08 431.498 24.08H431.242C430.751 24.0373 430.378 23.888 430.122 23.632C429.866 23.3547 429.684 22.896 429.578 22.256C429.492 21.8507 429.418 20.4427 429.354 18.032C429.29 15.6 429.258 13.584 429.258 11.984C429.258 11.152 429.268 10.6933 429.29 10.608C429.354 10.3307 429.535 10.0213 429.834 9.68ZM454.057 11.6C453.481 11.4933 453.001 11.44 452.617 11.44C451.742 11.44 451.006 11.6213 450.409 11.984C450.11 12.176 449.758 12.8267 449.353 13.936C448.969 15.024 448.777 15.8987 448.777 16.56C448.777 17.6267 449.118 18.4907 449.801 19.152C450.505 19.792 451.422 20.1227 452.553 20.144C453.47 20.144 454.324 19.888 455.113 19.376C455.924 18.864 456.51 18.192 456.873 17.36C457.108 16.8267 457.225 16.2187 457.225 15.536C457.225 14.704 457.065 13.9787 456.745 13.36C456.51 12.8693 456.19 12.496 455.785 12.24C455.38 11.984 454.804 11.7707 454.057 11.6ZM450.441 8.176C451.188 7.984 451.924 7.888 452.649 7.888C454.014 7.888 455.476 8.22933 457.033 8.912C458.142 9.40267 459.017 10.2667 459.657 11.504C460.318 12.7413 460.66 14.2027 460.681 15.888V16.08C460.681 18.6187 459.55 20.6773 457.289 22.256C455.881 23.2587 454.313 23.76 452.585 23.76C451.156 23.76 449.833 23.408 448.617 22.704C447.401 21.9787 446.484 20.9653 445.865 19.664C445.652 19.216 445.513 18.832 445.449 18.512C445.406 18.192 445.385 17.52 445.385 16.496C445.406 14.9813 445.566 13.7867 445.865 12.912C446.569 10.9707 447.401 9.65867 448.361 8.976C448.745 8.69867 449.438 8.432 450.441 8.176ZM465.222 8.528C465.435 8.42133 465.691 8.368 465.99 8.368C467.078 8.368 467.76 9.28533 468.038 11.12C468.102 11.6747 468.176 11.952 468.262 11.952C468.283 11.952 468.582 11.7067 469.158 11.216C470.331 10.1707 471.526 9.648 472.742 9.648C473.403 9.648 474.032 9.82933 474.63 10.192C475.206 10.5547 475.579 10.8747 475.75 11.152L476.038 11.6L476.806 10.896C477.979 9.85067 479.238 9.328 480.582 9.328C481.883 9.328 483.003 9.82933 483.942 10.832C485.542 12.4747 486.491 15.28 486.79 19.248C486.832 19.9733 486.854 20.4213 486.854 20.592C486.854 21.1467 486.779 21.552 486.63 21.808C486.502 22.064 486.267 22.288 485.926 22.48C485.627 22.6293 485.339 22.704 485.062 22.704C484.592 22.704 484.176 22.4907 483.814 22.064C483.536 21.7013 483.355 21.0827 483.27 20.208C483.099 18.2453 482.886 16.784 482.63 15.824C482.374 14.864 482.011 14.1173 481.542 13.584C481.179 13.2 480.806 13.008 480.422 13.008C479.696 13.008 479.056 13.5733 478.502 14.704C478.288 15.152 478.15 15.568 478.086 15.952C478.022 16.336 477.968 17.2107 477.926 18.576C477.84 20.4533 477.734 21.5733 477.606 21.936C477.307 22.64 476.763 22.992 475.974 22.992C475.504 22.992 475.11 22.832 474.79 22.512C474.278 22 473.958 20.4853 473.83 17.968C473.766 17.008 473.648 16.08 473.478 15.184C473.307 14.288 473.147 13.7547 472.998 13.584C472.87 13.4347 472.731 13.36 472.582 13.36C472.326 13.36 471.899 13.6267 471.302 14.16C470.662 14.7573 470.182 15.3973 469.862 16.08C469.563 16.6987 469.382 17.2 469.318 17.584C469.275 17.9467 469.232 19.1947 469.19 21.328C469.168 21.8827 468.998 22.3307 468.678 22.672C468.358 23.0133 467.952 23.184 467.462 23.184C466.971 23.184 466.576 23.088 466.278 22.896C465.851 22.5973 465.552 22.0213 465.382 21.168C465.211 20.2933 465.019 18.2347 464.806 14.992C464.678 13.072 464.528 11.7707 464.358 11.088C464.23 10.576 464.166 10.2347 464.166 10.064C464.166 9.872 464.23 9.648 464.358 9.392C464.55 8.944 464.838 8.656 465.222 8.528ZM504.647 8.496C505.031 8.432 505.426 8.4 505.831 8.4C507.111 8.4 508.252 8.688 509.255 9.264C510.258 9.84 510.759 10.5013 510.759 11.248C510.759 11.44 510.727 11.6107 510.663 11.76C510.343 12.5707 509.863 12.976 509.223 12.976C508.754 12.976 508.22 12.8267 507.623 12.528C506.94 12.1867 506.311 12.016 505.735 12.016C505.116 12.016 504.604 12.2187 504.199 12.624C503.986 12.8373 503.879 13.008 503.879 13.136C503.879 13.3067 504.039 13.5093 504.359 13.744C504.7 13.9573 505.319 14.2987 506.215 14.768C507.687 15.536 508.679 16.1653 509.191 16.656C509.682 17.0827 510.108 17.616 510.471 18.256C510.834 18.8747 511.015 19.3973 511.015 19.824C511.015 20.3147 510.887 20.8053 510.631 21.296C510.375 21.7867 510.055 22.16 509.671 22.416C508.69 23.0773 507.495 23.408 506.087 23.408C504.764 23.408 503.399 23.0987 501.991 22.48C501.33 22.16 500.914 21.7973 500.743 21.392C500.615 21.0933 500.551 20.8267 500.551 20.592C500.551 20.1653 500.754 19.7493 501.159 19.344C501.436 19.024 501.81 18.864 502.279 18.864C502.727 18.864 503.271 19.0027 503.911 19.28C504.615 19.5787 505.426 19.728 506.343 19.728C506.77 19.728 506.983 19.6747 506.983 19.568C506.983 19.312 506.066 18.7253 504.231 17.808C502.802 17.0613 501.756 16.3253 501.095 15.6C500.434 14.8533 500.103 14.032 500.103 13.136C500.103 12.0693 500.54 11.088 501.415 10.192C502.311 9.27467 503.388 8.70933 504.647 8.496ZM519.438 1.52C519.801 1.15733 520.238 0.975998 520.75 0.975998C521.134 0.975998 521.475 1.09333 521.774 1.328C522.094 1.54133 522.318 1.85067 522.446 2.256C522.51 2.49067 522.617 3.6 522.766 5.584C522.915 7.54667 522.99 8.912 522.99 9.68C522.99 9.872 523.033 9.98933 523.118 10.032C523.225 10.0747 523.47 10.096 523.854 10.096C524.43 10.096 524.761 10.032 524.846 9.904C524.889 9.79733 525.326 9.744 526.158 9.744C527.225 9.744 527.929 9.81867 528.27 9.968C528.59 10.1173 528.835 10.4053 529.006 10.832C529.155 11.1307 529.23 11.376 529.23 11.568C529.23 11.7173 529.198 11.8987 529.134 12.112C528.985 12.6027 528.707 12.9333 528.302 13.104C527.918 13.2533 527.15 13.36 525.998 13.424C524.697 13.488 523.854 13.5733 523.47 13.68L522.958 13.808L523.086 18.32C523.129 20.3253 523.15 21.4027 523.15 21.552C523.15 22.4907 523.075 23.12 522.926 23.44C522.606 24.1227 522.083 24.464 521.358 24.464C521.081 24.464 520.793 24.4 520.494 24.272C520.259 24.1653 520.089 24.0693 519.982 23.984C519.875 23.8773 519.779 23.6107 519.694 23.184C519.609 22.736 519.555 22.2133 519.534 21.616C519.513 21.0187 519.491 20.0373 519.47 18.672L519.406 14.032L518.446 14.064C517.87 14.1067 517.358 14.192 516.91 14.32C516.803 14.3627 516.633 14.384 516.398 14.384C515.673 14.384 515.15 14.16 514.83 13.712C514.659 13.4347 514.574 13.0613 514.574 12.592C514.574 12.1867 514.638 11.8667 514.766 11.632C515.065 11.0987 516.11 10.6933 517.902 10.416L519.374 10.192L519.246 7.376C519.161 5.37067 519.086 4.00533 519.022 3.28C518.979 2.768 518.958 2.49067 518.958 2.448C518.958 2.14933 519.118 1.84 519.438 1.52ZM533.271 9.328C533.655 9.008 534.071 8.848 534.519 8.848C534.988 8.848 535.393 9.01867 535.735 9.36C536.076 9.68 536.247 10.096 536.247 10.608C536.247 11.12 536.343 11.376 536.535 11.376C536.641 11.376 536.865 11.2587 537.207 11.024C538.785 9.936 540.353 9.392 541.911 9.392C542.572 9.392 543.223 9.50933 543.863 9.744C544.439 9.97867 544.844 10.2347 545.079 10.512C545.313 10.7893 545.431 11.1627 545.431 11.632C545.431 12.144 545.239 12.5813 544.855 12.944C544.535 13.2427 544.247 13.392 543.991 13.392C543.905 13.392 543.308 13.3173 542.199 13.168C542.071 13.1467 541.889 13.136 541.655 13.136C541.313 13.136 540.876 13.2533 540.343 13.488C538.956 14.128 537.985 14.9387 537.431 15.92C536.876 16.9013 536.599 18.3093 536.599 20.144C536.577 21.488 536.417 22.4267 536.119 22.96C535.841 23.4933 535.34 23.76 534.615 23.76C534.124 23.76 533.708 23.5893 533.367 23.248L532.855 22.736L532.791 17.072C532.748 12.8907 532.727 10.736 532.727 10.608C532.727 10.096 532.908 9.66933 533.271 9.328ZM560.052 13.232C559.433 12.6133 558.473 12.304 557.172 12.304C556.532 12.304 555.966 12.4107 555.476 12.624C555.006 12.8373 554.494 13.2533 553.94 13.872C553.385 14.4907 553.022 15.056 552.852 15.568C552.66 16.1227 552.564 16.6453 552.564 17.136C552.564 18.2667 553.012 19.0667 553.908 19.536C554.441 19.8133 555.134 19.952 555.988 19.952C556.564 19.952 557.001 19.8773 557.3 19.728C559.028 18.8533 560.084 17.2853 560.468 15.024L560.66 13.808L560.052 13.232ZM555.188 8.88C555.7 8.73067 556.297 8.656 556.98 8.656C558.132 8.656 559.262 8.85867 560.372 9.264C561.481 9.66933 562.249 10.1813 562.676 10.8C562.974 11.2267 563.358 11.6747 563.828 12.144C564.34 12.6773 564.809 13.5947 565.236 14.896C565.641 16.1333 566.014 17.5093 566.356 19.024C566.718 20.5387 566.9 21.5627 566.9 22.096C566.9 22.6293 566.74 23.0453 566.42 23.344C566.014 23.728 565.63 23.92 565.267 23.92C565.118 23.92 564.926 23.888 564.692 23.824C564.286 23.6747 563.966 23.4187 563.732 23.056C563.518 22.6933 563.326 22.1067 563.156 21.296C562.942 20.336 562.825 19.856 562.804 19.856C562.718 19.856 562.27 20.2613 561.46 21.072C559.86 22.6293 558.196 23.472 556.468 23.6H556.02C554.974 23.6 553.95 23.4187 552.948 23.056C551.966 22.6933 551.188 22.2133 550.612 21.616C550.313 21.3173 550.014 20.8693 549.716 20.272C549.417 19.6533 549.214 19.088 549.108 18.576C549.001 18.0427 548.948 17.5627 548.948 17.136C548.948 15.3653 549.545 13.6693 550.74 12.048C551.956 10.4267 553.438 9.37067 555.188 8.88ZM571.311 9.072C571.567 8.944 571.833 8.88 572.111 8.88C572.495 8.88 572.857 9.008 573.199 9.264C573.54 9.49867 573.775 9.81867 573.903 10.224L574.095 10.896L574.895 10.416C575.428 10.096 576.164 9.936 577.103 9.936C578.02 9.936 578.777 10.0853 579.375 10.384C579.865 10.6187 580.388 11.0027 580.943 11.536C581.519 12.0693 581.977 12.6027 582.319 13.136C583.471 14.9493 584.1 17.7653 584.207 21.584V22.224C584.207 22.736 584.057 23.152 583.759 23.472C583.396 23.8347 582.969 24.016 582.479 24.016C581.689 24.016 581.167 23.6747 580.911 22.992C580.783 22.6293 580.676 21.9147 580.591 20.848C580.335 17.1147 579.503 14.7787 578.095 13.84C577.796 13.648 577.497 13.552 577.199 13.552C576.644 13.552 576.143 13.8613 575.695 14.48C575.268 15.0773 574.927 15.9307 574.671 17.04C574.564 17.5307 574.436 18.416 574.287 19.696C574.137 20.976 574.063 21.84 574.063 22.288C574.063 22.5013 573.881 22.7893 573.519 23.152C573.156 23.4933 572.74 23.664 572.271 23.664C571.396 23.664 570.82 23.2053 570.543 22.288C570.415 21.84 570.351 19.8987 570.351 16.464C570.351 12.368 570.425 10.1387 570.575 9.776C570.703 9.49867 570.948 9.264 571.311 9.072ZM596.432 12.624C596.325 12.5387 596.069 12.496 595.664 12.496C594.917 12.496 594.299 12.6027 593.808 12.816C592.144 13.584 591.312 14.8427 591.312 16.592C591.312 17.36 591.493 18.1067 591.856 18.832C592.411 19.9413 593.179 20.496 594.16 20.496C594.459 20.496 594.693 20.4427 594.864 20.336C595.056 20.2293 595.344 19.9733 595.728 19.568C596.624 18.6507 597.157 17.264 597.328 15.408C597.349 15.2373 597.36 15.024 597.36 14.768C597.36 14.3627 597.253 13.9467 597.04 13.52C596.805 13.0293 596.603 12.7307 596.432 12.624ZM593.584 9.072C594.053 8.92267 594.597 8.848 595.216 8.848C596.005 8.848 596.773 8.976 597.52 9.232C598.267 9.46667 598.832 9.78667 599.216 10.192C599.493 10.4693 599.845 11.0347 600.272 11.888C600.571 12.464 600.752 12.9333 600.816 13.296C600.901 13.6373 600.976 14.352 601.04 15.44C601.083 15.9093 601.147 16.7093 601.232 17.84C601.339 18.9707 601.424 20.016 601.488 20.976C601.552 21.936 601.584 22.8107 601.584 23.6C601.584 24.8587 601.488 25.936 601.296 26.832C600.677 29.6267 599.365 31.3867 597.36 32.112C596.72 32.3467 595.856 32.464 594.768 32.464C594.043 32.4427 593.499 32.3893 593.136 32.304C592.773 32.24 592.229 32.0693 591.504 31.792C590.267 31.3227 589.445 30.96 589.04 30.704C588.635 30.4693 588.357 30.1813 588.208 29.84C588.123 29.6053 588.08 29.3707 588.08 29.136C588.08 28.432 588.4 27.92 589.04 27.6L589.744 27.28L591.664 28.048C592.539 28.3893 593.168 28.6027 593.552 28.688C593.936 28.7733 594.427 28.816 595.024 28.816C595.664 28.816 596.069 28.784 596.24 28.72C596.411 28.6773 596.613 28.5173 596.848 28.24C597.531 27.4293 597.936 26.064 598.064 24.144C598.085 23.9733 598.096 23.7493 598.096 23.472C598.096 23.0027 598.011 22.768 597.84 22.768C597.712 22.768 597.499 22.8853 597.2 23.12C596.347 23.76 595.333 24.08 594.16 24.08H593.776C593.051 24.08 592.379 23.92 591.76 23.6C590.843 23.152 590.043 22.4907 589.36 21.616C588.699 20.7413 588.24 19.7707 587.984 18.704C587.835 17.9573 587.76 17.2 587.76 16.432C587.76 14.6613 588.272 13.1253 589.296 11.824C590.341 10.5013 591.771 9.584 593.584 9.072ZM614.961 13.808C614.577 13.616 614.033 13.52 613.329 13.52C612.561 13.52 611.91 13.6373 611.377 13.872C611.014 14.0213 610.545 14.352 609.969 14.864C609.393 15.3547 609.105 15.6747 609.105 15.824C609.105 15.888 609.435 15.92 610.097 15.92C611.078 15.92 612.251 15.8667 613.617 15.76C614.982 15.6533 615.761 15.536 615.953 15.408C616.017 15.3867 616.049 15.3227 616.049 15.216C616.049 15.024 615.931 14.7787 615.697 14.48C615.462 14.16 615.217 13.936 614.961 13.808ZM611.185 10.096C611.718 9.94667 612.347 9.872 613.073 9.872C614.417 9.872 615.643 10.1387 616.753 10.672C617.585 11.0987 618.278 11.7493 618.833 12.624C619.387 13.4773 619.729 14.4373 619.857 15.504C619.857 15.5467 619.857 15.6107 619.857 15.696C619.878 15.7813 619.889 15.8453 619.889 15.888C619.889 16.4427 619.782 16.9867 619.569 17.52C619.377 18.0533 619.142 18.416 618.865 18.608C618.502 18.864 615.953 19.184 611.217 19.568C610.214 19.6533 609.713 19.7493 609.713 19.856C609.713 19.984 609.937 20.1867 610.385 20.464C610.833 20.7413 611.27 20.9333 611.697 21.04C612.081 21.1253 612.39 21.168 612.625 21.168C613.307 21.168 614.193 20.944 615.281 20.496C616.049 20.176 616.614 20.016 616.977 20.016C617.339 20.016 617.681 20.176 618.001 20.496C618.427 20.9227 618.641 21.328 618.641 21.712C618.641 21.968 618.577 22.2347 618.449 22.512C618.342 22.768 618.193 22.9707 618.001 23.12C617.83 23.2693 617.51 23.4507 617.041 23.664C615.483 24.3467 614.033 24.688 612.689 24.688C611.921 24.688 611.131 24.5707 610.321 24.336C609.233 23.9947 608.241 23.4187 607.345 22.608C606.449 21.776 605.809 20.8587 605.424 19.856C605.19 19.1947 605.073 18.4587 605.073 17.648C605.073 16.4747 605.265 15.4933 605.649 14.704C606.097 13.7227 606.854 12.784 607.921 11.888C608.987 10.992 610.075 10.3947 611.185 10.096ZM623.833 9.328C624.217 9.008 624.633 8.848 625.081 8.848C625.55 8.848 625.956 9.01867 626.297 9.36C626.638 9.68 626.809 10.096 626.809 10.608C626.809 11.12 626.905 11.376 627.097 11.376C627.204 11.376 627.428 11.2587 627.769 11.024C629.348 9.936 630.916 9.392 632.473 9.392C633.134 9.392 633.785 9.50933 634.425 9.744C635.001 9.97867 635.406 10.2347 635.641 10.512C635.876 10.7893 635.993 11.1627 635.993 11.632C635.993 12.144 635.801 12.5813 635.417 12.944C635.097 13.2427 634.809 13.392 634.553 13.392C634.468 13.392 633.87 13.3173 632.761 13.168C632.633 13.1467 632.452 13.136 632.217 13.136C631.876 13.136 631.438 13.2533 630.905 13.488C629.518 14.128 628.548 14.9387 627.993 15.92C627.438 16.9013 627.161 18.3093 627.161 20.144C627.14 21.488 626.98 22.4267 626.681 22.96C626.404 23.4933 625.902 23.76 625.177 23.76C624.686 23.76 624.27 23.5893 623.929 23.248L623.417 22.736L623.353 17.072C623.31 12.8907 623.289 10.736 623.289 10.608C623.289 10.096 623.47 9.66933 623.833 9.328ZM642.998 8.208C643.382 8.10133 643.979 8.048 644.79 8.048C646.497 8.048 647.734 8.176 648.502 8.432C649.569 8.77333 650.102 9.36 650.102 10.192C650.102 10.6827 649.867 11.1307 649.398 11.536C649.078 11.8347 648.769 11.984 648.47 11.984C648.449 11.984 648.406 11.984 648.342 11.984C648.278 11.9627 648.225 11.952 648.182 11.952C646.774 11.7173 645.665 11.6 644.854 11.6C644.598 11.6 644.363 11.6213 644.15 11.664C643.489 11.8347 643.158 12.144 643.158 12.592C643.158 12.6773 643.169 12.7413 643.19 12.784C643.339 13.2107 644.182 13.744 645.718 14.384C648.47 15.536 650.166 16.9653 650.806 18.672C650.998 19.184 651.094 19.664 651.094 20.112C651.094 20.9013 650.806 21.5733 650.23 22.128C649.675 22.6827 648.886 23.056 647.862 23.248C647.435 23.3333 646.731 23.376 645.75 23.376C643.958 23.376 642.817 23.2693 642.326 23.056C642.049 22.928 641.814 22.7147 641.622 22.416C641.43 22.096 641.334 21.7867 641.334 21.488C641.334 21.168 641.441 20.848 641.654 20.528C641.867 20.1867 642.123 19.952 642.422 19.824C642.699 19.7173 643.03 19.664 643.414 19.664C643.563 19.664 643.894 19.6853 644.406 19.728C644.747 19.7707 645.206 19.792 645.782 19.792C646.678 19.792 647.126 19.6853 647.126 19.472C647.126 19.088 646.198 18.512 644.342 17.744C642.678 17.0187 641.451 16.2613 640.662 15.472C639.894 14.6613 639.51 13.744 639.51 12.72C639.51 12.5493 639.531 12.2933 639.574 11.952C639.745 10.9067 640.171 10.0747 640.854 9.456C641.409 8.90133 642.123 8.48533 642.998 8.208ZM673.907 12.816C673.501 12.7093 672.84 12.6133 671.923 12.528C671.325 12.4853 671.005 12.464 670.963 12.464C670.664 12.464 670.365 12.624 670.067 12.944C669.213 13.8187 668.755 15.0027 668.691 16.496C668.691 16.5813 668.68 16.6987 668.659 16.848C668.659 16.976 668.659 17.072 668.659 17.136C668.659 17.6267 668.787 18.0853 669.043 18.512C669.725 19.728 670.931 20.336 672.659 20.336C673.384 20.3147 674.12 20.0693 674.867 19.6C675.635 19.1093 676.189 18.5227 676.531 17.84C676.723 17.4347 676.819 16.9973 676.819 16.528C676.819 15.7387 676.541 14.992 675.987 14.288C675.453 13.5627 674.76 13.072 673.907 12.816ZM669.043 9.232C669.533 8.95467 670.024 8.816 670.515 8.816C670.621 8.816 671.016 8.83733 671.699 8.88C673.725 8.98667 675.357 9.41333 676.595 10.16C677.832 10.9067 678.824 12.0587 679.571 13.616C680.147 14.8107 680.435 15.952 680.435 17.04C680.435 17.3813 680.403 17.68 680.339 17.936C679.997 19.2587 679.251 20.464 678.099 21.552C676.947 22.64 675.677 23.3653 674.291 23.728C673.565 23.8987 672.989 23.984 672.563 23.984C672.136 23.984 671.56 23.8987 670.835 23.728C668.637 23.152 667.059 22.1067 666.099 20.592C665.352 19.4187 664.979 18.1813 664.979 16.88C664.979 15.5787 665.331 14.192 666.035 12.72C666.845 10.992 667.848 9.82933 669.043 9.232ZM684.364 8.112C684.705 7.74933 685.142 7.568 685.676 7.568C686.038 7.568 686.358 7.664 686.636 7.856C686.87 8.02667 687.073 8.304 687.244 8.688C687.436 9.072 687.532 9.424 687.532 9.744C687.532 10.0853 687.617 10.256 687.788 10.256C687.98 10.256 688.289 10.1173 688.716 9.84C689.142 9.584 689.708 9.34933 690.411 9.136C691.116 8.92267 691.681 8.816 692.108 8.816C692.534 8.816 693.057 8.95467 693.676 9.232C694.316 9.50933 694.817 9.81867 695.18 10.16C695.948 10.9067 696.492 11.952 696.812 13.296C697.153 14.64 697.324 16.5067 697.324 18.896C697.324 20.5813 697.27 21.6907 697.164 22.224C697.057 22.736 696.812 23.0987 696.428 23.312C696.172 23.44 695.862 23.504 695.5 23.504C695.116 23.504 694.796 23.44 694.54 23.312C694.177 23.12 693.942 22.768 693.836 22.256C693.75 21.7227 693.686 20.4427 693.644 18.416C693.601 16.3893 693.516 15.056 693.388 14.416C693.26 13.7547 692.993 13.2213 692.588 12.816C692.374 12.6027 692.108 12.496 691.788 12.496C691.254 12.496 690.678 12.7627 690.06 13.296C689.462 13.808 688.972 14.4693 688.588 15.28C688.396 15.6853 688.278 16.0693 688.236 16.432C688.193 16.7947 688.15 17.6267 688.108 18.928C688.065 20.72 687.98 21.7867 687.852 22.128C687.553 22.9173 686.977 23.312 686.124 23.312C685.42 23.312 684.886 23.0027 684.524 22.384C684.417 22.1493 684.31 20.1547 684.204 16.4C684.076 12.368 683.99 10.1387 683.948 9.712C683.905 9.28533 683.884 9.05067 683.884 9.008C683.884 8.73067 684.044 8.432 684.364 8.112ZM715.532 1.52C715.894 1.15733 716.332 0.975998 716.844 0.975998C717.228 0.975998 717.569 1.09333 717.868 1.328C718.188 1.54133 718.412 1.85067 718.54 2.256C718.604 2.49067 718.71 3.6 718.86 5.584C719.009 7.54667 719.084 8.912 719.084 9.68C719.084 9.872 719.126 9.98933 719.212 10.032C719.318 10.0747 719.564 10.096 719.948 10.096C720.524 10.096 720.854 10.032 720.94 9.904C720.982 9.79733 721.42 9.744 722.252 9.744C723.318 9.744 724.022 9.81867 724.364 9.968C724.684 10.1173 724.929 10.4053 725.1 10.832C725.249 11.1307 725.324 11.376 725.324 11.568C725.324 11.7173 725.292 11.8987 725.228 12.112C725.078 12.6027 724.801 12.9333 724.396 13.104C724.012 13.2533 723.244 13.36 722.092 13.424C720.79 13.488 719.948 13.5733 719.564 13.68L719.052 13.808L719.18 18.32C719.222 20.3253 719.244 21.4027 719.244 21.552C719.244 22.4907 719.169 23.12 719.02 23.44C718.7 24.1227 718.177 24.464 717.452 24.464C717.174 24.464 716.886 24.4 716.588 24.272C716.353 24.1653 716.182 24.0693 716.076 23.984C715.969 23.8773 715.873 23.6107 715.788 23.184C715.702 22.736 715.649 22.2133 715.628 21.616C715.606 21.0187 715.585 20.0373 715.564 18.672L715.5 14.032L714.54 14.064C713.964 14.1067 713.452 14.192 713.004 14.32C712.897 14.3627 712.726 14.384 712.492 14.384C711.766 14.384 711.244 14.16 710.924 13.712C710.753 13.4347 710.668 13.0613 710.668 12.592C710.668 12.1867 710.732 11.8667 710.86 11.632C711.158 11.0987 712.204 10.6933 713.996 10.416L715.468 10.192L715.34 7.376C715.254 5.37067 715.18 4.00533 715.116 3.28C715.073 2.768 715.052 2.49067 715.052 2.448C715.052 2.14933 715.212 1.84 715.532 1.52ZM729.62 1.552C729.983 1.25333 730.356 1.104 730.74 1.104C731.508 1.104 732.074 1.57333 732.436 2.512C732.586 2.93867 732.746 3.96267 732.916 5.584C733.087 7.184 733.226 8.67733 733.332 10.064C733.439 11.4293 733.503 12.112 733.524 12.112C733.567 12.112 733.919 11.8773 734.58 11.408C735.882 10.4907 737.119 10.032 738.292 10.032C739.38 10.032 740.33 10.4373 741.14 11.248C741.972 12.0373 742.623 13.2 743.092 14.736C743.455 15.9307 743.636 17.7867 743.636 20.304C743.636 21.8827 743.54 22.9493 743.348 23.504C743.135 24.08 742.644 24.368 741.876 24.368C741.364 24.368 740.938 24.1973 740.596 23.856L740.116 23.376L740.02 20.144C739.892 15.984 739.316 13.84 738.292 13.712H738.196C737.706 13.712 737.098 13.9893 736.372 14.544C735.647 15.0773 735.124 15.664 734.804 16.304C734.612 16.7307 734.356 17.04 734.036 17.232L733.62 17.52L733.556 21.008C733.514 22.7147 733.471 23.7493 733.428 24.112C733.407 24.4533 733.29 24.7307 733.076 24.944C732.735 25.3067 732.308 25.488 731.796 25.488C731.028 25.488 730.495 25.1467 730.196 24.464C730.047 24.0587 729.94 21.6053 729.876 17.104C729.77 9.57333 729.492 5.06133 729.044 3.568C728.98 3.33333 728.948 3.10933 728.948 2.896C728.948 2.34133 729.172 1.89333 729.62 1.552ZM757.023 13.808C756.639 13.616 756.095 13.52 755.391 13.52C754.623 13.52 753.972 13.6373 753.439 13.872C753.076 14.0213 752.607 14.352 752.031 14.864C751.455 15.3547 751.167 15.6747 751.167 15.824C751.167 15.888 751.498 15.92 752.159 15.92C753.14 15.92 754.314 15.8667 755.679 15.76C757.044 15.6533 757.823 15.536 758.015 15.408C758.079 15.3867 758.111 15.3227 758.111 15.216C758.111 15.024 757.994 14.7787 757.759 14.48C757.524 14.16 757.279 13.936 757.023 13.808ZM753.247 10.096C753.78 9.94667 754.41 9.872 755.135 9.872C756.479 9.872 757.706 10.1387 758.815 10.672C759.647 11.0987 760.34 11.7493 760.895 12.624C761.45 13.4773 761.791 14.4373 761.919 15.504C761.919 15.5467 761.919 15.6107 761.919 15.696C761.94 15.7813 761.951 15.8453 761.951 15.888C761.951 16.4427 761.844 16.9867 761.631 17.52C761.439 18.0533 761.204 18.416 760.927 18.608C760.564 18.864 758.015 19.184 753.279 19.568C752.276 19.6533 751.775 19.7493 751.775 19.856C751.775 19.984 751.999 20.1867 752.447 20.464C752.895 20.7413 753.332 20.9333 753.759 21.04C754.143 21.1253 754.452 21.168 754.687 21.168C755.37 21.168 756.255 20.944 757.343 20.496C758.111 20.176 758.676 20.016 759.039 20.016C759.402 20.016 759.743 20.176 760.063 20.496C760.49 20.9227 760.703 21.328 760.703 21.712C760.703 21.968 760.639 22.2347 760.511 22.512C760.404 22.768 760.255 22.9707 760.063 23.12C759.892 23.2693 759.572 23.4507 759.103 23.664C757.546 24.3467 756.095 24.688 754.751 24.688C753.983 24.688 753.194 24.5707 752.383 24.336C751.295 23.9947 750.303 23.4187 749.407 22.608C748.511 21.776 747.871 20.8587 747.487 19.856C747.252 19.1947 747.135 18.4587 747.135 17.648C747.135 16.4747 747.327 15.4933 747.711 14.704C748.159 13.7227 748.916 12.784 749.983 11.888C751.05 10.992 752.138 10.3947 753.247 10.096ZM780.612 8.912C780.698 8.89067 780.826 8.88 780.996 8.88C781.402 8.88 781.775 8.98667 782.116 9.2C782.458 9.392 782.692 9.65867 782.82 10C782.906 10.192 782.991 11.6533 783.076 14.384C783.183 17.0933 783.236 19.2267 783.236 20.784C783.236 21.4453 783.226 21.8293 783.204 21.936C783.098 22.7467 782.746 23.2907 782.148 23.568C781.85 23.696 781.615 23.76 781.444 23.76C781.316 23.76 781.124 23.728 780.868 23.664C780.378 23.5147 780.068 23.312 779.94 23.056C779.684 22.5653 779.535 20.6667 779.492 17.36C779.492 16.7627 779.482 15.728 779.46 14.256L779.428 9.872L779.812 9.424C780.068 9.12533 780.335 8.95467 780.612 8.912ZM779.844 2.896C780.1 2.768 780.346 2.704 780.58 2.704C781.05 2.704 781.466 2.896 781.828 3.28C782.191 3.64267 782.372 4.06933 782.372 4.56C782.372 4.90133 782.287 5.2 782.116 5.456C781.754 6.032 781.263 6.32 780.644 6.32C780.239 6.32 779.866 6.18133 779.524 5.904C779.183 5.62667 778.97 5.24267 778.884 4.752C778.884 4.73067 778.874 4.69867 778.852 4.656C778.852 4.592 778.852 4.54933 778.852 4.528C778.852 4.208 778.948 3.89867 779.14 3.6C779.332 3.28 779.567 3.04533 779.844 2.896ZM787.53 9.072C787.786 8.944 788.052 8.88 788.33 8.88C788.714 8.88 789.076 9.008 789.418 9.264C789.759 9.49867 789.994 9.81867 790.122 10.224L790.314 10.896L791.114 10.416C791.647 10.096 792.383 9.936 793.322 9.936C794.239 9.936 794.996 10.0853 795.594 10.384C796.084 10.6187 796.607 11.0027 797.162 11.536C797.738 12.0693 798.196 12.6027 798.538 13.136C799.69 14.9493 800.319 17.7653 800.426 21.584V22.224C800.426 22.736 800.276 23.152 799.978 23.472C799.615 23.8347 799.188 24.016 798.698 24.016C797.908 24.016 797.386 23.6747 797.13 22.992C797.002 22.6293 796.895 21.9147 796.81 20.848C796.554 17.1147 795.722 14.7787 794.314 13.84C794.015 13.648 793.716 13.552 793.418 13.552C792.863 13.552 792.362 13.8613 791.914 14.48C791.487 15.0773 791.146 15.9307 790.89 17.04C790.783 17.5307 790.655 18.416 790.506 19.696C790.356 20.976 790.282 21.84 790.282 22.288C790.282 22.5013 790.1 22.7893 789.738 23.152C789.375 23.4933 788.959 23.664 788.49 23.664C787.615 23.664 787.039 23.2053 786.762 22.288C786.634 21.84 786.57 19.8987 786.57 16.464C786.57 12.368 786.644 10.1387 786.794 9.776C786.922 9.49867 787.167 9.264 787.53 9.072ZM808.971 2.192C809.312 1.97867 809.632 1.872 809.931 1.872C810.165 1.872 810.432 1.936 810.731 2.064C811.179 2.27733 811.467 2.608 811.595 3.056C811.723 3.504 811.808 4.57067 811.851 6.256L811.947 9.424L813.419 9.328C813.589 9.30667 813.835 9.296 814.155 9.296C814.923 9.296 815.467 9.43467 815.787 9.712C816.128 9.98933 816.299 10.4373 816.299 11.056C816.299 11.7173 816.075 12.1867 815.627 12.464C815.2 12.7413 814.368 12.9333 813.131 13.04L811.787 13.168L811.563 17.616C811.413 20.624 811.275 22.288 811.147 22.608C810.869 23.248 810.336 23.568 809.547 23.568C809.099 23.568 808.747 23.4507 808.491 23.216C808.213 23.0027 808.021 22.768 807.915 22.512C807.808 22.256 807.755 21.84 807.755 21.264C807.755 20.7947 807.787 20.0907 807.851 19.152C807.957 17.4667 808.032 16.0267 808.075 14.832L808.107 13.328L806.667 13.296C805.856 13.2747 805.301 13.2107 805.003 13.104C804.704 12.976 804.448 12.72 804.235 12.336C804.107 12.08 804.043 11.8133 804.043 11.536C804.043 11.024 804.256 10.576 804.683 10.192C804.917 9.97867 805.216 9.84 805.579 9.776C805.941 9.69067 806.613 9.60533 807.595 9.52L808.107 9.456L808.235 6.064C808.256 5.552 808.267 4.99733 808.267 4.4C808.288 3.78133 808.299 3.32266 808.299 3.024L808.331 2.576L808.427 2.512C808.491 2.46933 808.576 2.416 808.683 2.352C808.789 2.288 808.885 2.23467 808.971 2.192ZM829.742 13.808C829.358 13.616 828.814 13.52 828.11 13.52C827.342 13.52 826.691 13.6373 826.158 13.872C825.795 14.0213 825.326 14.352 824.75 14.864C824.174 15.3547 823.886 15.6747 823.886 15.824C823.886 15.888 824.216 15.92 824.878 15.92C825.859 15.92 827.032 15.8667 828.398 15.76C829.763 15.6533 830.542 15.536 830.734 15.408C830.798 15.3867 830.83 15.3227 830.83 15.216C830.83 15.024 830.712 14.7787 830.478 14.48C830.243 14.16 829.998 13.936 829.742 13.808ZM825.966 10.096C826.499 9.94667 827.128 9.872 827.854 9.872C829.198 9.872 830.424 10.1387 831.534 10.672C832.366 11.0987 833.059 11.7493 833.614 12.624C834.168 13.4773 834.51 14.4373 834.638 15.504C834.638 15.5467 834.638 15.6107 834.638 15.696C834.659 15.7813 834.67 15.8453 834.67 15.888C834.67 16.4427 834.563 16.9867 834.35 17.52C834.158 18.0533 833.923 18.416 833.646 18.608C833.283 18.864 830.734 19.184 825.998 19.568C824.995 19.6533 824.494 19.7493 824.494 19.856C824.494 19.984 824.718 20.1867 825.166 20.464C825.614 20.7413 826.051 20.9333 826.478 21.04C826.862 21.1253 827.171 21.168 827.406 21.168C828.088 21.168 828.974 20.944 830.062 20.496C830.83 20.176 831.395 20.016 831.758 20.016C832.12 20.016 832.462 20.176 832.782 20.496C833.208 20.9227 833.422 21.328 833.422 21.712C833.422 21.968 833.358 22.2347 833.23 22.512C833.123 22.768 832.974 22.9707 832.782 23.12C832.611 23.2693 832.291 23.4507 831.822 23.664C830.264 24.3467 828.814 24.688 827.47 24.688C826.702 24.688 825.912 24.5707 825.102 24.336C824.014 23.9947 823.022 23.4187 822.126 22.608C821.23 21.776 820.59 20.8587 820.206 19.856C819.971 19.1947 819.854 18.4587 819.854 17.648C819.854 16.4747 820.046 15.4933 820.43 14.704C820.878 13.7227 821.635 12.784 822.702 11.888C823.768 10.992 824.856 10.3947 825.966 10.096ZM838.614 9.328C838.998 9.008 839.414 8.848 839.862 8.848C840.332 8.848 840.737 9.01867 841.078 9.36C841.42 9.68 841.59 10.096 841.59 10.608C841.59 11.12 841.686 11.376 841.878 11.376C841.985 11.376 842.209 11.2587 842.55 11.024C844.129 9.936 845.697 9.392 847.254 9.392C847.916 9.392 848.566 9.50933 849.206 9.744C849.782 9.97867 850.188 10.2347 850.422 10.512C850.657 10.7893 850.774 11.1627 850.774 11.632C850.774 12.144 850.582 12.5813 850.198 12.944C849.878 13.2427 849.59 13.392 849.334 13.392C849.249 13.392 848.652 13.3173 847.542 13.168C847.414 13.1467 847.233 13.136 846.998 13.136C846.657 13.136 846.22 13.2533 845.686 13.488C844.3 14.128 843.329 14.9387 842.774 15.92C842.22 16.9013 841.942 18.3093 841.942 20.144C841.921 21.488 841.761 22.4267 841.462 22.96C841.185 23.4933 840.684 23.76 839.958 23.76C839.468 23.76 839.052 23.5893 838.71 23.248L838.198 22.736L838.134 17.072C838.092 12.8907 838.07 10.736 838.07 10.608C838.07 10.096 838.252 9.66933 838.614 9.328ZM855.123 9.072C855.379 8.944 855.646 8.88 855.923 8.88C856.307 8.88 856.67 9.008 857.011 9.264C857.353 9.49867 857.587 9.81867 857.715 10.224L857.907 10.896L858.707 10.416C859.241 10.096 859.977 9.936 860.915 9.936C861.833 9.936 862.59 10.0853 863.187 10.384C863.678 10.6187 864.201 11.0027 864.755 11.536C865.331 12.0693 865.79 12.6027 866.131 13.136C867.283 14.9493 867.913 17.7653 868.019 21.584V22.224C868.019 22.736 867.87 23.152 867.571 23.472C867.209 23.8347 866.782 24.016 866.291 24.016C865.502 24.016 864.979 23.6747 864.723 22.992C864.595 22.6293 864.489 21.9147 864.403 20.848C864.147 17.1147 863.315 14.7787 861.907 13.84C861.609 13.648 861.31 13.552 861.011 13.552C860.457 13.552 859.955 13.8613 859.507 14.48C859.081 15.0773 858.739 15.9307 858.483 17.04C858.377 17.5307 858.249 18.416 858.099 19.696C857.95 20.976 857.875 21.84 857.875 22.288C857.875 22.5013 857.694 22.7893 857.331 23.152C856.969 23.4933 856.553 23.664 856.083 23.664C855.209 23.664 854.633 23.2053 854.355 22.288C854.227 21.84 854.163 19.8987 854.163 16.464C854.163 12.368 854.238 10.1387 854.387 9.776C854.515 9.49867 854.761 9.264 855.123 9.072ZM880.341 12.944C879.957 12.6667 879.349 12.528 878.517 12.528C878.005 12.528 877.599 12.592 877.301 12.72C877.023 12.848 876.703 13.1147 876.341 13.52C875.999 13.904 875.829 14.1813 875.829 14.352C875.829 14.5013 875.989 14.576 876.309 14.576C876.735 14.5547 877.621 14.4587 878.965 14.288C880.309 14.1173 881.002 14.0107 881.045 13.968C881.066 13.9467 881.077 13.9147 881.077 13.872C881.077 13.6373 880.831 13.328 880.341 12.944ZM876.885 9.04C877.269 8.93333 877.738 8.88 878.293 8.88C879.423 8.88 880.394 9.04 881.205 9.36C881.866 9.59467 882.517 10.0533 883.157 10.736C883.818 11.3973 884.362 12.144 884.789 12.976C885.215 13.8293 885.429 14.4053 885.429 14.704C885.429 15.3867 885.13 16.0267 884.533 16.624C883.893 17.2 881.898 17.6267 878.549 17.904C877.269 18.0107 876.437 18.096 876.053 18.16C875.669 18.224 875.477 18.32 875.477 18.448C875.477 18.5547 875.669 18.7787 876.053 19.12C876.714 19.76 877.898 20.144 879.605 20.272C879.775 20.2933 879.999 20.304 880.277 20.304C880.725 20.304 881.258 20.1973 881.877 19.984C882.751 19.664 883.445 19.504 883.957 19.504C884.725 19.504 885.226 19.888 885.461 20.656C885.525 20.848 885.557 21.0293 885.557 21.2C885.557 21.9253 885.098 22.5227 884.181 22.992C883.285 23.44 882.015 23.696 880.373 23.76C880.287 23.76 880.17 23.7707 880.021 23.792C879.871 23.792 879.765 23.792 879.701 23.792C877.887 23.792 876.319 23.44 874.997 22.736C873.695 22.0107 872.714 20.9867 872.053 19.664C871.733 19.024 871.573 18.1707 871.573 17.104C871.573 16.0373 871.679 15.1947 871.893 14.576C872.426 12.976 873.087 11.7493 873.877 10.896C874.666 10.0213 875.669 9.40267 876.885 9.04ZM893.969 1.52C894.332 1.15733 894.769 0.975998 895.281 0.975998C895.665 0.975998 896.007 1.09333 896.305 1.328C896.625 1.54133 896.849 1.85067 896.977 2.256C897.041 2.49067 897.148 3.6 897.297 5.584C897.447 7.54667 897.521 8.912 897.521 9.68C897.521 9.872 897.564 9.98933 897.649 10.032C897.756 10.0747 898.001 10.096 898.385 10.096C898.961 10.096 899.292 10.032 899.377 9.904C899.42 9.79733 899.857 9.744 900.689 9.744C901.756 9.744 902.46 9.81867 902.801 9.968C903.121 10.1173 903.367 10.4053 903.537 10.832C903.687 11.1307 903.761 11.376 903.761 11.568C903.761 11.7173 903.729 11.8987 903.665 12.112C903.516 12.6027 903.239 12.9333 902.833 13.104C902.449 13.2533 901.681 13.36 900.529 13.424C899.228 13.488 898.385 13.5733 898.001 13.68L897.489 13.808L897.617 18.32C897.66 20.3253 897.681 21.4027 897.681 21.552C897.681 22.4907 897.607 23.12 897.457 23.44C897.137 24.1227 896.615 24.464 895.889 24.464C895.612 24.464 895.324 24.4 895.025 24.272C894.791 24.1653 894.62 24.0693 894.513 23.984C894.407 23.8773 894.311 23.6107 894.225 23.184C894.14 22.736 894.087 22.2133 894.065 21.616C894.044 21.0187 894.023 20.0373 894.001 18.672L893.937 14.032L892.977 14.064C892.401 14.1067 891.889 14.192 891.441 14.32C891.335 14.3627 891.164 14.384 890.929 14.384C890.204 14.384 889.681 14.16 889.361 13.712C889.191 13.4347 889.105 13.0613 889.105 12.592C889.105 12.1867 889.169 11.8667 889.297 11.632C889.596 11.0987 890.641 10.6933 892.433 10.416L893.905 10.192L893.777 7.376C893.692 5.37067 893.617 4.00533 893.553 3.28C893.511 2.768 893.489 2.49067 893.489 2.448C893.489 2.14933 893.649 1.84 893.969 1.52ZM909.914 20.176C910.212 19.9413 910.543 19.824 910.906 19.824C911.354 19.824 911.727 19.9627 912.026 20.24C912.452 20.6027 912.666 21.04 912.666 21.552C912.666 21.9573 912.58 22.384 912.41 22.832C912.324 23.0667 911.994 24.176 911.418 26.16C911.012 27.632 910.628 28.5173 910.266 28.816C909.924 29.1147 909.562 29.264 909.178 29.264C908.772 29.264 908.399 29.1147 908.058 28.816C907.631 28.432 907.418 28.0053 907.418 27.536C907.418 27.2373 907.482 26.8747 907.61 26.448C907.652 26.2987 907.748 25.9147 907.898 25.296C908.068 24.656 908.196 24.1653 908.282 23.824C908.794 21.8187 909.338 20.6027 909.914 20.176ZM930.938 1.52C931.301 1.15733 931.738 0.975998 932.25 0.975998C932.634 0.975998 932.975 1.09333 933.274 1.328C933.594 1.54133 933.818 1.85067 933.946 2.256C934.01 2.49067 934.117 3.6 934.266 5.584C934.415 7.54667 934.49 8.912 934.49 9.68C934.49 9.872 934.533 9.98933 934.618 10.032C934.725 10.0747 934.97 10.096 935.354 10.096C935.93 10.096 936.261 10.032 936.346 9.904C936.389 9.79733 936.826 9.744 937.658 9.744C938.725 9.744 939.429 9.81867 939.77 9.968C940.09 10.1173 940.335 10.4053 940.506 10.832C940.655 11.1307 940.73 11.376 940.73 11.568C940.73 11.7173 940.698 11.8987 940.634 12.112C940.485 12.6027 940.207 12.9333 939.802 13.104C939.418 13.2533 938.65 13.36 937.498 13.424C936.197 13.488 935.354 13.5733 934.97 13.68L934.458 13.808L934.586 18.32C934.629 20.3253 934.65 21.4027 934.65 21.552C934.65 22.4907 934.575 23.12 934.426 23.44C934.106 24.1227 933.583 24.464 932.858 24.464C932.581 24.464 932.293 24.4 931.994 24.272C931.759 24.1653 931.589 24.0693 931.482 23.984C931.375 23.8773 931.279 23.6107 931.194 23.184C931.109 22.736 931.055 22.2133 931.034 21.616C931.013 21.0187 930.991 20.0373 930.97 18.672L930.906 14.032L929.946 14.064C929.37 14.1067 928.858 14.192 928.41 14.32C928.303 14.3627 928.133 14.384 927.898 14.384C927.173 14.384 926.65 14.16 926.33 13.712C926.159 13.4347 926.074 13.0613 926.074 12.592C926.074 12.1867 926.138 11.8667 926.266 11.632C926.565 11.0987 927.61 10.6933 929.402 10.416L930.874 10.192L930.746 7.376C930.661 5.37067 930.586 4.00533 930.522 3.28C930.479 2.768 930.458 2.49067 930.458 2.448C930.458 2.14933 930.618 1.84 930.938 1.52ZM952.995 11.6C952.419 11.4933 951.939 11.44 951.555 11.44C950.68 11.44 949.944 11.6213 949.347 11.984C949.048 12.176 948.696 12.8267 948.291 13.936C947.907 15.024 947.715 15.8987 947.715 16.56C947.715 17.6267 948.056 18.4907 948.739 19.152C949.443 19.792 950.36 20.1227 951.491 20.144C952.408 20.144 953.261 19.888 954.051 19.376C954.861 18.864 955.448 18.192 955.811 17.36C956.045 16.8267 956.163 16.2187 956.163 15.536C956.163 14.704 956.003 13.9787 955.683 13.36C955.448 12.8693 955.128 12.496 954.723 12.24C954.317 11.984 953.741 11.7707 952.995 11.6ZM949.379 8.176C950.125 7.984 950.861 7.888 951.587 7.888C952.952 7.888 954.413 8.22933 955.971 8.912C957.08 9.40267 957.955 10.2667 958.595 11.504C959.256 12.7413 959.597 14.2027 959.619 15.888V16.08C959.619 18.6187 958.488 20.6773 956.227 22.256C954.819 23.2587 953.251 23.76 951.523 23.76C950.093 23.76 948.771 23.408 947.555 22.704C946.339 21.9787 945.421 20.9653 944.803 19.664C944.589 19.216 944.451 18.832 944.387 18.512C944.344 18.192 944.323 17.52 944.323 16.496C944.344 14.9813 944.504 13.7867 944.803 12.912C945.507 10.9707 946.339 9.65867 947.299 8.976C947.683 8.69867 948.376 8.432 949.379 8.176ZM972.063 12.816C971.658 12.7093 970.996 12.6133 970.079 12.528C969.482 12.4853 969.162 12.464 969.119 12.464C968.82 12.464 968.522 12.624 968.223 12.944C967.37 13.8187 966.911 15.0027 966.847 16.496C966.847 16.5813 966.836 16.6987 966.815 16.848C966.815 16.976 966.815 17.072 966.815 17.136C966.815 17.6267 966.943 18.0853 967.199 18.512C967.882 19.728 969.087 20.336 970.815 20.336C971.54 20.3147 972.276 20.0693 973.023 19.6C973.791 19.1093 974.346 18.5227 974.687 17.84C974.879 17.4347 974.975 16.9973 974.975 16.528C974.975 15.7387 974.698 14.992 974.143 14.288C973.61 13.5627 972.916 13.072 972.063 12.816ZM967.199 9.232C967.69 8.95467 968.18 8.816 968.671 8.816C968.778 8.816 969.172 8.83733 969.855 8.88C971.882 8.98667 973.514 9.41333 974.751 10.16C975.988 10.9067 976.98 12.0587 977.727 13.616C978.303 14.8107 978.591 15.952 978.591 17.04C978.591 17.3813 978.559 17.68 978.495 17.936C978.154 19.2587 977.407 20.464 976.255 21.552C975.103 22.64 973.834 23.3653 972.447 23.728C971.722 23.8987 971.146 23.984 970.719 23.984C970.292 23.984 969.716 23.8987 968.991 23.728C966.794 23.152 965.215 22.1067 964.255 20.592C963.508 19.4187 963.135 18.1813 963.135 16.88C963.135 15.5787 963.487 14.192 964.191 12.72C965.002 10.992 966.004 9.82933 967.199 9.232ZM982.36 21.424C982.53 21.0613 982.722 20.816 982.936 20.688C983.149 20.56 983.522 20.496 984.056 20.496C984.418 20.496 984.664 20.528 984.792 20.592C984.941 20.656 985.112 20.8053 985.304 21.04C985.624 21.424 985.784 21.8293 985.784 22.256C985.784 22.7253 985.581 23.1627 985.176 23.568C984.77 23.9733 984.354 24.176 983.928 24.176C983.501 24.176 983.085 23.9947 982.68 23.632C982.296 23.248 982.104 22.8533 982.104 22.448C982.104 22.128 982.189 21.7867 982.36 21.424Z" fill="#27263C"/>
</svg>
