<svg width="758" height="33" viewBox="0 0 758 33" fill="none" xmlns="http://www.w3.org/2000/svg">
<path d="M14.264 2.8C16.3547 2.672 17.6133 2.608 18.04 2.608H18.264C18.7973 2.62933 19.224 2.81067 19.544 3.152C19.8853 3.49333 20.056 3.888 20.056 4.336C20.056 4.82667 19.8747 5.24267 19.512 5.584C19.256 5.84 18.9787 6 18.68 6.064C18.4027 6.10667 17.464 6.18133 15.864 6.288C13.7307 6.416 12.632 6.52267 12.568 6.608C12.5253 6.65067 12.504 8.13333 12.504 11.056V14.16C12.504 14.672 12.504 15.3227 12.504 16.112C12.5253 16.88 12.536 17.4027 12.536 17.68C12.536 19.856 12.4827 21.2427 12.376 21.84C12.2907 22.416 12.0667 22.8427 11.704 23.12C11.4267 23.3333 11.1067 23.44 10.744 23.44C10.3173 23.44 9.93333 23.312 9.592 23.056C9.25067 22.8 9.03733 22.4587 8.952 22.032C8.90933 21.7973 8.86667 19.1627 8.824 14.128L8.76 6.8H1.848L1.336 6.224C0.994667 5.81867 0.824 5.43467 0.824 5.072C0.824 4.688 0.994667 4.29333 1.336 3.888L1.848 3.312L6.456 3.152C9.42133 3.06667 12.024 2.94933 14.264 2.8ZM24.4015 1.552C24.7642 1.25333 25.1375 1.104 25.5215 1.104C26.2895 1.104 26.8548 1.57333 27.2175 2.512C27.3668 2.93867 27.5268 3.96267 27.6975 5.584C27.8682 7.184 28.0068 8.67733 28.1135 10.064C28.2202 11.4293 28.2842 12.112 28.3055 12.112C28.3482 12.112 28.7002 11.8773 29.3615 11.408C30.6628 10.4907 31.9002 10.032 33.0735 10.032C34.1615 10.032 35.1108 10.4373 35.9215 11.248C36.7535 12.0373 37.4042 13.2 37.8735 14.736C38.2362 15.9307 38.4175 17.7867 38.4175 20.304C38.4175 21.8827 38.3215 22.9493 38.1295 23.504C37.9162 24.08 37.4255 24.368 36.6575 24.368C36.1455 24.368 35.7188 24.1973 35.3775 23.856L34.8975 23.376L34.8015 20.144C34.6735 15.984 34.0975 13.84 33.0735 13.712H32.9775C32.4868 13.712 31.8788 13.9893 31.1535 14.544C30.4282 15.0773 29.9055 15.664 29.5855 16.304C29.3935 16.7307 29.1375 17.04 28.8175 17.232L28.4015 17.52L28.3375 21.008C28.2948 22.7147 28.2522 23.7493 28.2095 24.112C28.1882 24.4533 28.0708 24.7307 27.8575 24.944C27.5162 25.3067 27.0895 25.488 26.5775 25.488C25.8095 25.488 25.2762 25.1467 24.9775 24.464C24.8282 24.0587 24.7215 21.6053 24.6575 17.104C24.5508 9.57333 24.2735 5.06133 23.8255 3.568C23.7615 3.33333 23.7295 3.10933 23.7295 2.896C23.7295 2.34133 23.9535 1.89333 24.4015 1.552ZM50.6843 12.944C50.3003 12.6667 49.6923 12.528 48.8603 12.528C48.3483 12.528 47.9429 12.592 47.6443 12.72C47.3669 12.848 47.0469 13.1147 46.6843 13.52C46.3429 13.904 46.1723 14.1813 46.1723 14.352C46.1723 14.5013 46.3323 14.576 46.6523 14.576C47.0789 14.5547 47.9643 14.4587 49.3083 14.288C50.6523 14.1173 51.3456 14.0107 51.3883 13.968C51.4096 13.9467 51.4203 13.9147 51.4203 13.872C51.4203 13.6373 51.1749 13.328 50.6843 12.944ZM47.2283 9.04C47.6123 8.93333 48.0816 8.88 48.6363 8.88C49.7669 8.88 50.7376 9.04 51.5483 9.36C52.2096 9.59467 52.8603 10.0533 53.5003 10.736C54.1616 11.3973 54.7056 12.144 55.1323 12.976C55.5589 13.8293 55.7723 14.4053 55.7723 14.704C55.7723 15.3867 55.4736 16.0267 54.8763 16.624C54.2363 17.2 52.2416 17.6267 48.8923 17.904C47.6123 18.0107 46.7803 18.096 46.3963 18.16C46.0123 18.224 45.8203 18.32 45.8203 18.448C45.8203 18.5547 46.0123 18.7787 46.3963 19.12C47.0576 19.76 48.2416 20.144 49.9483 20.272C50.1189 20.2933 50.3429 20.304 50.6203 20.304C51.0683 20.304 51.6016 20.1973 52.2203 19.984C53.0949 19.664 53.7883 19.504 54.3003 19.504C55.0683 19.504 55.5696 19.888 55.8043 20.656C55.8683 20.848 55.9003 21.0293 55.9003 21.2C55.9003 21.9253 55.4416 22.5227 54.5243 22.992C53.6283 23.44 52.3589 23.696 50.7163 23.76C50.6309 23.76 50.5136 23.7707 50.3643 23.792C50.2149 23.792 50.1083 23.792 50.0443 23.792C48.2309 23.792 46.6629 23.44 45.3403 22.736C44.0389 22.0107 43.0576 20.9867 42.3963 19.664C42.0763 19.024 41.9163 18.1707 41.9163 17.104C41.9163 16.0373 42.0229 15.1947 42.2363 14.576C42.7696 12.976 43.4309 11.7493 44.2203 10.896C45.0096 10.0213 46.0123 9.40267 47.2283 9.04ZM61.081 8.912C61.1663 8.89067 61.2943 8.88 61.465 8.88C61.8703 8.88 62.2437 8.98667 62.585 9.2C62.9263 9.392 63.161 9.65867 63.289 10C63.3743 10.192 63.4597 11.6533 63.545 14.384C63.6517 17.0933 63.705 19.2267 63.705 20.784C63.705 21.4453 63.6943 21.8293 63.673 21.936C63.5663 22.7467 63.2143 23.2907 62.617 23.568C62.3183 23.696 62.0837 23.76 61.913 23.76C61.785 23.76 61.593 23.728 61.337 23.664C60.8463 23.5147 60.537 23.312 60.409 23.056C60.153 22.5653 60.0037 20.6667 59.961 17.36C59.961 16.7627 59.9503 15.728 59.929 14.256L59.897 9.872L60.281 9.424C60.537 9.12533 60.8037 8.95467 61.081 8.912ZM60.313 2.896C60.569 2.768 60.8143 2.704 61.049 2.704C61.5183 2.704 61.9343 2.896 62.297 3.28C62.6597 3.64267 62.841 4.06933 62.841 4.56C62.841 4.90133 62.7557 5.2 62.585 5.456C62.2223 6.032 61.7317 6.32 61.113 6.32C60.7077 6.32 60.3343 6.18133 59.993 5.904C59.6517 5.62667 59.4383 5.24267 59.353 4.752C59.353 4.73067 59.3423 4.69867 59.321 4.656C59.321 4.592 59.321 4.54933 59.321 4.528C59.321 4.208 59.417 3.89867 59.609 3.6C59.801 3.28 60.0357 3.04533 60.313 2.896ZM67.6143 9.328C67.9983 9.008 68.4143 8.848 68.8623 8.848C69.3316 8.848 69.7369 9.01867 70.0783 9.36C70.4196 9.68 70.5903 10.096 70.5903 10.608C70.5903 11.12 70.6863 11.376 70.8783 11.376C70.9849 11.376 71.2089 11.2587 71.5503 11.024C73.1289 9.936 74.6969 9.392 76.2543 9.392C76.9156 9.392 77.5663 9.50933 78.2063 9.744C78.7823 9.97867 79.1876 10.2347 79.4223 10.512C79.6569 10.7893 79.7743 11.1627 79.7743 11.632C79.7743 12.144 79.5823 12.5813 79.1983 12.944C78.8783 13.2427 78.5903 13.392 78.3343 13.392C78.2489 13.392 77.6516 13.3173 76.5423 13.168C76.4143 13.1467 76.2329 13.136 75.9983 13.136C75.6569 13.136 75.2196 13.2533 74.6863 13.488C73.2996 14.128 72.3289 14.9387 71.7743 15.92C71.2196 16.9013 70.9423 18.3093 70.9423 20.144C70.9209 21.488 70.7609 22.4267 70.4623 22.96C70.1849 23.4933 69.6836 23.76 68.9583 23.76C68.4676 23.76 68.0516 23.5893 67.7103 23.248L67.1983 22.736L67.1343 17.072C67.0916 12.8907 67.0703 10.736 67.0703 10.608C67.0703 10.096 67.2516 9.66933 67.6143 9.328ZM93.0533 8.816C93.3733 8.496 93.7786 8.336 94.2693 8.336C94.9306 8.336 95.3893 8.56 95.6453 9.008C95.9226 9.43467 96.3599 10.64 96.9573 12.624C97.1279 13.1787 97.3413 13.8933 97.5973 14.768C98.3226 17.072 98.7386 18.2453 98.8453 18.288C98.9733 18.288 99.2613 17.648 99.7093 16.368C100.435 14.192 101.032 12.6667 101.501 11.792C101.992 10.9173 102.568 10.3413 103.229 10.064C103.549 9.91467 103.869 9.84 104.189 9.84C104.659 9.84 105.085 10.064 105.469 10.512C105.875 10.9387 106.323 11.664 106.813 12.688C108.691 16.6773 109.683 18.672 109.789 18.672C109.832 18.672 110.077 18 110.525 16.656C110.995 15.2907 111.485 13.8827 111.997 12.432C112.531 10.9813 112.883 10.16 113.053 9.968C113.395 9.584 113.8 9.392 114.269 9.392C114.781 9.392 115.251 9.616 115.677 10.064C115.912 10.2987 116.029 10.608 116.029 10.992C116.029 11.6107 115.539 13.36 114.557 16.24C113.533 19.248 112.744 21.2213 112.189 22.16C111.635 23.0773 110.941 23.536 110.109 23.536C109.853 23.536 109.661 23.5253 109.533 23.504C108.851 23.3973 108.264 23.0453 107.773 22.448C107.283 21.8507 106.568 20.5707 105.629 18.608C104.584 16.432 104.029 15.344 103.965 15.344C103.901 15.344 103.709 15.792 103.389 16.688C102.365 19.632 101.64 21.5413 101.213 22.416C100.787 23.2907 100.339 23.8347 99.8693 24.048C99.5066 24.1973 99.0799 24.272 98.5893 24.272C98.1626 24.272 97.8319 24.2187 97.5973 24.112C97.1706 23.8987 96.6586 23.0453 96.0613 21.552C95.4639 20.0587 94.6213 17.4987 93.5333 13.872C92.9146 11.824 92.6053 10.512 92.6053 9.936C92.6053 9.488 92.7546 9.11467 93.0533 8.816ZM128.213 11.6C127.637 11.4933 127.157 11.44 126.773 11.44C125.899 11.44 125.163 11.6213 124.565 11.984C124.267 12.176 123.915 12.8267 123.509 13.936C123.125 15.024 122.933 15.8987 122.933 16.56C122.933 17.6267 123.275 18.4907 123.957 19.152C124.661 19.792 125.579 20.1227 126.709 20.144C127.627 20.144 128.48 19.888 129.269 19.376C130.08 18.864 130.667 18.192 131.029 17.36C131.264 16.8267 131.381 16.2187 131.381 15.536C131.381 14.704 131.221 13.9787 130.901 13.36C130.667 12.8693 130.347 12.496 129.941 12.24C129.536 11.984 128.96 11.7707 128.213 11.6ZM124.597 8.176C125.344 7.984 126.08 7.888 126.805 7.888C128.171 7.888 129.632 8.22933 131.189 8.912C132.299 9.40267 133.173 10.2667 133.813 11.504C134.475 12.7413 134.816 14.2027 134.837 15.888V16.08C134.837 18.6187 133.707 20.6773 131.445 22.256C130.037 23.2587 128.469 23.76 126.741 23.76C125.312 23.76 123.989 23.408 122.773 22.704C121.557 21.9787 120.64 20.9653 120.021 19.664C119.808 19.216 119.669 18.832 119.605 18.512C119.563 18.192 119.541 17.52 119.541 16.496C119.563 14.9813 119.723 13.7867 120.021 12.912C120.725 10.9707 121.557 9.65867 122.517 8.976C122.901 8.69867 123.595 8.432 124.597 8.176ZM138.834 9.68C139.154 9.36 139.548 9.2 140.018 9.2C140.551 9.2 140.978 9.37067 141.298 9.712C141.596 10.0107 141.746 10.2347 141.746 10.384C141.746 10.5333 141.81 10.608 141.938 10.608C142.066 10.608 142.3 10.4907 142.642 10.256C143.474 9.68 144.434 9.392 145.522 9.392C146.354 9.392 147.346 9.57333 148.498 9.936C149.223 10.1493 149.703 10.3307 149.938 10.48C150.172 10.608 150.364 10.7893 150.514 11.024C150.748 11.3867 150.866 11.7173 150.866 12.016C150.866 12.2507 150.78 12.5387 150.61 12.88C150.311 13.456 149.82 13.744 149.138 13.744C148.69 13.744 148.156 13.6373 147.538 13.424C146.876 13.1893 146.279 13.072 145.746 13.072C145.212 13.072 144.796 13.1893 144.498 13.424C144.178 13.68 143.804 14.256 143.378 15.152C142.972 16.0267 142.695 16.8587 142.546 17.648C142.375 18.6293 142.29 19.6853 142.29 20.816C142.29 22.0747 142.162 22.9387 141.906 23.408C141.65 23.856 141.18 24.08 140.498 24.08H140.242C139.751 24.0373 139.378 23.888 139.122 23.632C138.866 23.3547 138.684 22.896 138.578 22.256C138.492 21.8507 138.418 20.4427 138.354 18.032C138.29 15.6 138.258 13.584 138.258 11.984C138.258 11.152 138.268 10.6933 138.29 10.608C138.354 10.3307 138.535 10.0213 138.834 9.68ZM162.417 13.872C162.225 13.6373 161.894 13.52 161.425 13.52C161.041 13.52 160.657 13.616 160.273 13.808C159.697 14.0853 159.153 14.672 158.641 15.568C158.129 16.464 157.873 17.2533 157.873 17.936C157.873 18.1493 157.905 18.3307 157.969 18.48C158.118 18.8213 158.481 19.1413 159.057 19.44C159.633 19.7173 160.177 19.856 160.689 19.856C160.796 19.856 160.956 19.8347 161.169 19.792C161.66 19.6427 162.15 19.2373 162.641 18.576C163.153 17.8933 163.548 17.0933 163.825 16.176C163.996 15.6213 164.081 15.248 164.081 15.056C164.081 14.7573 163.857 14.544 163.409 14.416C162.897 14.224 162.566 14.0427 162.417 13.872ZM165.009 2.704C165.201 2.61867 165.425 2.576 165.681 2.576C166.492 2.576 167.036 2.928 167.313 3.632C167.441 3.952 167.644 5.24267 167.921 7.504C168.177 9.872 168.326 11.2053 168.369 11.504C169.244 17.84 169.681 21.4667 169.681 22.384C169.681 22.8107 169.5 23.184 169.137 23.504C168.796 23.824 168.401 23.984 167.953 23.984C167.334 23.984 166.854 23.76 166.513 23.312C166.172 22.8427 166.001 22.2133 166.001 21.424C166.001 21.0827 165.958 20.8693 165.873 20.784H165.841C165.713 20.784 165.318 21.0933 164.657 21.712C163.953 22.416 163.27 22.8853 162.609 23.12C162.012 23.3547 161.329 23.472 160.561 23.472C159.43 23.472 158.342 23.1947 157.297 22.64C156.252 22.064 155.441 21.3067 154.865 20.368C154.652 20.0053 154.513 19.696 154.449 19.44C154.406 19.1627 154.385 18.64 154.385 17.872C154.406 16.8907 154.524 16.0693 154.737 15.408C154.95 14.7467 155.345 13.9787 155.921 13.104C156.326 12.4853 156.902 11.888 157.649 11.312C158.396 10.736 159.046 10.3627 159.601 10.192C160.156 10.0427 160.742 9.968 161.361 9.968C162.129 9.968 162.801 10.064 163.377 10.256C163.996 10.448 164.326 10.544 164.369 10.544C164.412 10.544 164.433 10.416 164.433 10.16C164.433 9.456 164.348 8.57067 164.177 7.504C164.028 6.62933 163.953 5.84 163.953 5.136C163.953 3.81333 164.305 3.00267 165.009 2.704ZM176.686 8.208C177.07 8.10133 177.667 8.048 178.478 8.048C180.184 8.048 181.422 8.176 182.19 8.432C183.256 8.77333 183.79 9.36 183.79 10.192C183.79 10.6827 183.555 11.1307 183.086 11.536C182.766 11.8347 182.456 11.984 182.158 11.984C182.136 11.984 182.094 11.984 182.03 11.984C181.966 11.9627 181.912 11.952 181.87 11.952C180.462 11.7173 179.352 11.6 178.542 11.6C178.286 11.6 178.051 11.6213 177.838 11.664C177.176 11.8347 176.846 12.144 176.846 12.592C176.846 12.6773 176.856 12.7413 176.878 12.784C177.027 13.2107 177.87 13.744 179.406 14.384C182.158 15.536 183.854 16.9653 184.494 18.672C184.686 19.184 184.782 19.664 184.782 20.112C184.782 20.9013 184.494 21.5733 183.918 22.128C183.363 22.6827 182.574 23.056 181.55 23.248C181.123 23.3333 180.419 23.376 179.438 23.376C177.646 23.376 176.504 23.2693 176.014 23.056C175.736 22.928 175.502 22.7147 175.31 22.416C175.118 22.096 175.022 21.7867 175.022 21.488C175.022 21.168 175.128 20.848 175.342 20.528C175.555 20.1867 175.811 19.952 176.11 19.824C176.387 19.7173 176.718 19.664 177.102 19.664C177.251 19.664 177.582 19.6853 178.094 19.728C178.435 19.7707 178.894 19.792 179.47 19.792C180.366 19.792 180.814 19.6853 180.814 19.472C180.814 19.088 179.886 18.512 178.03 17.744C176.366 17.0187 175.139 16.2613 174.35 15.472C173.582 14.6613 173.198 13.744 173.198 12.72C173.198 12.5493 173.219 12.2933 173.262 11.952C173.432 10.9067 173.859 10.0747 174.542 9.456C175.096 8.90133 175.811 8.48533 176.686 8.208ZM212.02 13.232C211.402 12.6133 210.442 12.304 209.14 12.304C208.5 12.304 207.935 12.4107 207.444 12.624C206.975 12.8373 206.463 13.2533 205.908 13.872C205.354 14.4907 204.991 15.056 204.82 15.568C204.628 16.1227 204.532 16.6453 204.532 17.136C204.532 18.2667 204.98 19.0667 205.876 19.536C206.41 19.8133 207.103 19.952 207.956 19.952C208.532 19.952 208.97 19.8773 209.268 19.728C210.996 18.8533 212.052 17.2853 212.436 15.024L212.628 13.808L212.02 13.232ZM207.156 8.88C207.668 8.73067 208.266 8.656 208.948 8.656C210.1 8.656 211.231 8.85867 212.34 9.264C213.45 9.66933 214.218 10.1813 214.644 10.8C214.943 11.2267 215.327 11.6747 215.796 12.144C216.308 12.6773 216.778 13.5947 217.204 14.896C217.61 16.1333 217.983 17.5093 218.324 19.024C218.687 20.5387 218.868 21.5627 218.868 22.096C218.868 22.6293 218.708 23.0453 218.388 23.344C217.983 23.728 217.599 23.92 217.236 23.92C217.087 23.92 216.895 23.888 216.66 23.824C216.255 23.6747 215.935 23.4187 215.7 23.056C215.487 22.6933 215.295 22.1067 215.124 21.296C214.911 20.336 214.794 19.856 214.772 19.856C214.687 19.856 214.239 20.2613 213.428 21.072C211.828 22.6293 210.164 23.472 208.436 23.6H207.988C206.943 23.6 205.919 23.4187 204.916 23.056C203.935 22.6933 203.156 22.2133 202.58 21.616C202.282 21.3173 201.983 20.8693 201.684 20.272C201.386 19.6533 201.183 19.088 201.076 18.576C200.97 18.0427 200.916 17.5627 200.916 17.136C200.916 15.3653 201.514 13.6693 202.708 12.048C203.924 10.4267 205.407 9.37067 207.156 8.88ZM222.896 9.328C223.28 9.008 223.696 8.848 224.144 8.848C224.613 8.848 225.018 9.01867 225.36 9.36C225.701 9.68 225.872 10.096 225.872 10.608C225.872 11.12 225.968 11.376 226.16 11.376C226.266 11.376 226.49 11.2587 226.832 11.024C228.41 9.936 229.978 9.392 231.536 9.392C232.197 9.392 232.848 9.50933 233.488 9.744C234.064 9.97867 234.469 10.2347 234.704 10.512C234.938 10.7893 235.056 11.1627 235.056 11.632C235.056 12.144 234.864 12.5813 234.48 12.944C234.16 13.2427 233.872 13.392 233.616 13.392C233.53 13.392 232.933 13.3173 231.824 13.168C231.696 13.1467 231.514 13.136 231.28 13.136C230.938 13.136 230.501 13.2533 229.968 13.488C228.581 14.128 227.61 14.9387 227.056 15.92C226.501 16.9013 226.224 18.3093 226.224 20.144C226.202 21.488 226.042 22.4267 225.744 22.96C225.466 23.4933 224.965 23.76 224.24 23.76C223.749 23.76 223.333 23.5893 222.992 23.248L222.48 22.736L222.416 17.072C222.373 12.8907 222.352 10.736 222.352 10.608C222.352 10.096 222.533 9.66933 222.896 9.328ZM248.461 13.808C248.077 13.616 247.533 13.52 246.829 13.52C246.061 13.52 245.41 13.6373 244.877 13.872C244.514 14.0213 244.045 14.352 243.469 14.864C242.893 15.3547 242.605 15.6747 242.605 15.824C242.605 15.888 242.935 15.92 243.597 15.92C244.578 15.92 245.751 15.8667 247.117 15.76C248.482 15.6533 249.261 15.536 249.453 15.408C249.517 15.3867 249.549 15.3227 249.549 15.216C249.549 15.024 249.431 14.7787 249.197 14.48C248.962 14.16 248.717 13.936 248.461 13.808ZM244.685 10.096C245.218 9.94667 245.847 9.872 246.573 9.872C247.917 9.872 249.143 10.1387 250.253 10.672C251.085 11.0987 251.778 11.7493 252.333 12.624C252.887 13.4773 253.229 14.4373 253.357 15.504C253.357 15.5467 253.357 15.6107 253.357 15.696C253.378 15.7813 253.389 15.8453 253.389 15.888C253.389 16.4427 253.282 16.9867 253.069 17.52C252.877 18.0533 252.642 18.416 252.365 18.608C252.002 18.864 249.453 19.184 244.717 19.568C243.714 19.6533 243.213 19.7493 243.213 19.856C243.213 19.984 243.437 20.1867 243.885 20.464C244.333 20.7413 244.77 20.9333 245.197 21.04C245.581 21.1253 245.89 21.168 246.125 21.168C246.807 21.168 247.693 20.944 248.781 20.496C249.549 20.176 250.114 20.016 250.477 20.016C250.839 20.016 251.181 20.176 251.501 20.496C251.927 20.9227 252.141 21.328 252.141 21.712C252.141 21.968 252.077 22.2347 251.949 22.512C251.842 22.768 251.693 22.9707 251.501 23.12C251.33 23.2693 251.01 23.4507 250.541 23.664C248.983 24.3467 247.533 24.688 246.189 24.688C245.421 24.688 244.631 24.5707 243.821 24.336C242.733 23.9947 241.741 23.4187 240.845 22.608C239.949 21.776 239.309 20.8587 238.924 19.856C238.69 19.1947 238.573 18.4587 238.573 17.648C238.573 16.4747 238.765 15.4933 239.149 14.704C239.597 13.7227 240.354 12.784 241.421 11.888C242.487 10.992 243.575 10.3947 244.685 10.096ZM271.594 1.52C271.957 1.15733 272.394 0.975998 272.906 0.975998C273.29 0.975998 273.632 1.09333 273.93 1.328C274.25 1.54133 274.474 1.85067 274.602 2.256C274.666 2.49067 274.773 3.6 274.922 5.584C275.072 7.54667 275.146 8.912 275.146 9.68C275.146 9.872 275.189 9.98933 275.274 10.032C275.381 10.0747 275.626 10.096 276.01 10.096C276.586 10.096 276.917 10.032 277.002 9.904C277.045 9.79733 277.482 9.744 278.314 9.744C279.381 9.744 280.085 9.81867 280.426 9.968C280.746 10.1173 280.992 10.4053 281.162 10.832C281.312 11.1307 281.386 11.376 281.386 11.568C281.386 11.7173 281.354 11.8987 281.29 12.112C281.141 12.6027 280.864 12.9333 280.458 13.104C280.074 13.2533 279.306 13.36 278.154 13.424C276.853 13.488 276.01 13.5733 275.626 13.68L275.114 13.808L275.242 18.32C275.285 20.3253 275.306 21.4027 275.306 21.552C275.306 22.4907 275.232 23.12 275.082 23.44C274.762 24.1227 274.24 24.464 273.514 24.464C273.237 24.464 272.949 24.4 272.65 24.272C272.416 24.1653 272.245 24.0693 272.138 23.984C272.032 23.8773 271.936 23.6107 271.85 23.184C271.765 22.736 271.712 22.2133 271.69 21.616C271.669 21.0187 271.648 20.0373 271.626 18.672L271.562 14.032L270.602 14.064C270.026 14.1067 269.514 14.192 269.066 14.32C268.96 14.3627 268.789 14.384 268.554 14.384C267.829 14.384 267.306 14.16 266.986 13.712C266.816 13.4347 266.73 13.0613 266.73 12.592C266.73 12.1867 266.794 11.8667 266.922 11.632C267.221 11.0987 268.266 10.6933 270.058 10.416L271.53 10.192L271.402 7.376C271.317 5.37067 271.242 4.00533 271.178 3.28C271.136 2.768 271.114 2.49067 271.114 2.448C271.114 2.14933 271.274 1.84 271.594 1.52ZM285.683 1.552C286.045 1.25333 286.419 1.104 286.803 1.104C287.571 1.104 288.136 1.57333 288.499 2.512C288.648 2.93867 288.808 3.96267 288.979 5.584C289.149 7.184 289.288 8.67733 289.395 10.064C289.501 11.4293 289.565 12.112 289.587 12.112C289.629 12.112 289.981 11.8773 290.643 11.408C291.944 10.4907 293.181 10.032 294.355 10.032C295.443 10.032 296.392 10.4373 297.203 11.248C298.035 12.0373 298.685 13.2 299.155 14.736C299.517 15.9307 299.699 17.7867 299.699 20.304C299.699 21.8827 299.603 22.9493 299.411 23.504C299.197 24.08 298.707 24.368 297.939 24.368C297.427 24.368 297 24.1973 296.659 23.856L296.179 23.376L296.083 20.144C295.955 15.984 295.379 13.84 294.355 13.712H294.259C293.768 13.712 293.16 13.9893 292.435 14.544C291.709 15.0773 291.187 15.664 290.867 16.304C290.675 16.7307 290.419 17.04 290.099 17.232L289.683 17.52L289.619 21.008C289.576 22.7147 289.533 23.7493 289.491 24.112C289.469 24.4533 289.352 24.7307 289.139 24.944C288.797 25.3067 288.371 25.488 287.859 25.488C287.091 25.488 286.557 25.1467 286.259 24.464C286.109 24.0587 286.003 21.6053 285.939 17.104C285.832 9.57333 285.555 5.06133 285.107 3.568C285.043 3.33333 285.011 3.10933 285.011 2.896C285.011 2.34133 285.235 1.89333 285.683 1.552ZM313.086 13.808C312.702 13.616 312.158 13.52 311.454 13.52C310.686 13.52 310.035 13.6373 309.502 13.872C309.139 14.0213 308.67 14.352 308.094 14.864C307.518 15.3547 307.23 15.6747 307.23 15.824C307.23 15.888 307.56 15.92 308.222 15.92C309.203 15.92 310.376 15.8667 311.742 15.76C313.107 15.6533 313.886 15.536 314.078 15.408C314.142 15.3867 314.174 15.3227 314.174 15.216C314.174 15.024 314.056 14.7787 313.822 14.48C313.587 14.16 313.342 13.936 313.086 13.808ZM309.31 10.096C309.843 9.94667 310.472 9.872 311.198 9.872C312.542 9.872 313.768 10.1387 314.878 10.672C315.71 11.0987 316.403 11.7493 316.958 12.624C317.512 13.4773 317.854 14.4373 317.982 15.504C317.982 15.5467 317.982 15.6107 317.982 15.696C318.003 15.7813 318.014 15.8453 318.014 15.888C318.014 16.4427 317.907 16.9867 317.694 17.52C317.502 18.0533 317.267 18.416 316.99 18.608C316.627 18.864 314.078 19.184 309.342 19.568C308.339 19.6533 307.838 19.7493 307.838 19.856C307.838 19.984 308.062 20.1867 308.51 20.464C308.958 20.7413 309.395 20.9333 309.822 21.04C310.206 21.1253 310.515 21.168 310.75 21.168C311.432 21.168 312.318 20.944 313.406 20.496C314.174 20.176 314.739 20.016 315.102 20.016C315.464 20.016 315.806 20.176 316.126 20.496C316.552 20.9227 316.766 21.328 316.766 21.712C316.766 21.968 316.702 22.2347 316.574 22.512C316.467 22.768 316.318 22.9707 316.126 23.12C315.955 23.2693 315.635 23.4507 315.166 23.664C313.608 24.3467 312.158 24.688 310.814 24.688C310.046 24.688 309.256 24.5707 308.446 24.336C307.358 23.9947 306.366 23.4187 305.47 22.608C304.574 21.776 303.934 20.8587 303.549 19.856C303.315 19.1947 303.198 18.4587 303.198 17.648C303.198 16.4747 303.39 15.4933 303.774 14.704C304.222 13.7227 304.979 12.784 306.046 11.888C307.112 10.992 308.2 10.3947 309.31 10.096ZM335.803 8.496C336.187 8.432 336.582 8.4 336.987 8.4C338.267 8.4 339.409 8.688 340.411 9.264C341.414 9.84 341.915 10.5013 341.915 11.248C341.915 11.44 341.883 11.6107 341.819 11.76C341.499 12.5707 341.019 12.976 340.379 12.976C339.91 12.976 339.377 12.8267 338.779 12.528C338.097 12.1867 337.467 12.016 336.891 12.016C336.273 12.016 335.761 12.2187 335.355 12.624C335.142 12.8373 335.035 13.008 335.035 13.136C335.035 13.3067 335.195 13.5093 335.515 13.744C335.857 13.9573 336.475 14.2987 337.371 14.768C338.843 15.536 339.835 16.1653 340.347 16.656C340.838 17.0827 341.265 17.616 341.627 18.256C341.99 18.8747 342.171 19.3973 342.171 19.824C342.171 20.3147 342.043 20.8053 341.787 21.296C341.531 21.7867 341.211 22.16 340.827 22.416C339.846 23.0773 338.651 23.408 337.243 23.408C335.921 23.408 334.555 23.0987 333.147 22.48C332.486 22.16 332.07 21.7973 331.899 21.392C331.771 21.0933 331.707 20.8267 331.707 20.592C331.707 20.1653 331.91 19.7493 332.315 19.344C332.593 19.024 332.966 18.864 333.435 18.864C333.883 18.864 334.427 19.0027 335.067 19.28C335.771 19.5787 336.582 19.728 337.499 19.728C337.926 19.728 338.139 19.6747 338.139 19.568C338.139 19.312 337.222 18.7253 335.387 17.808C333.958 17.0613 332.913 16.3253 332.251 15.6C331.59 14.8533 331.259 14.032 331.259 13.136C331.259 12.0693 331.697 11.088 332.571 10.192C333.467 9.27467 334.545 8.70933 335.803 8.496ZM354.882 13.68C354.776 13.3387 354.68 13.1467 354.594 13.104C354.509 13.04 354.274 13.008 353.89 13.008C352.781 13.0293 351.746 13.552 350.786 14.576C349.826 15.5787 349.346 16.592 349.346 17.616C349.346 18.128 349.485 18.5547 349.762 18.896C350.381 19.5787 351.032 19.92 351.714 19.92C351.757 19.92 351.8 19.92 351.842 19.92C351.885 19.8987 351.928 19.888 351.97 19.888C352.354 19.8027 352.76 19.5467 353.186 19.12C353.634 18.6933 353.976 18.224 354.21 17.712C354.701 16.56 354.946 15.44 354.946 14.352C354.946 14.032 354.925 13.808 354.882 13.68ZM351.906 9.648C352.482 9.456 353.144 9.36 353.89 9.36C354.872 9.36 355.704 9.52 356.386 9.84C356.834 10.0747 357.24 10.4267 357.602 10.896C357.986 11.344 358.221 11.7707 358.306 12.176C358.392 12.5813 358.509 12.9653 358.658 13.328C358.893 13.9467 359.362 16.272 360.066 20.304C360.173 20.944 360.226 21.424 360.226 21.744C360.226 23.024 359.629 23.664 358.434 23.664C358.029 23.664 357.656 23.504 357.314 23.184C356.994 22.864 356.792 22.4693 356.706 22C356.621 21.5733 356.546 21.328 356.482 21.264C356.397 21.2 356.152 21.3707 355.746 21.776C354.53 22.992 353.133 23.6 351.554 23.6C351.277 23.6 350.989 23.568 350.69 23.504C349.517 23.248 348.418 22.608 347.394 21.584C346.242 20.432 345.666 19.1413 345.666 17.712C345.666 16.5813 346.018 15.3547 346.722 14.032C347.256 13.0293 347.981 12.1333 348.898 11.344C349.837 10.5547 350.84 9.98933 351.906 9.648ZM364.976 7.344C365.275 7.30133 365.445 7.26933 365.488 7.248C365.595 7.248 365.84 7.32267 366.224 7.472C366.523 7.6 366.789 7.856 367.024 8.24C367.259 8.624 367.376 8.99733 367.376 9.36C367.376 9.63733 367.429 9.85067 367.536 10C367.621 10.1067 367.696 10.1493 367.76 10.128C367.824 10.1067 367.973 10 368.208 9.808C369.168 8.99733 370.341 8.496 371.728 8.304C372.155 8.26133 372.453 8.24 372.624 8.24C373.712 8.24 374.64 8.63467 375.408 9.424L376.144 10.16L377.072 9.424C378.587 8.208 380.059 7.6 381.488 7.6C381.979 7.6 382.416 7.67467 382.8 7.824C383.227 7.99467 383.685 8.32533 384.176 8.816C384.688 9.28533 385.072 9.78667 385.328 10.32C386.096 11.8773 386.597 14.7787 386.832 19.024C386.875 20.0907 386.896 20.6773 386.896 20.784C386.896 21.3387 386.821 21.7547 386.672 22.032C386.352 22.6507 385.861 22.96 385.2 22.96C384.731 22.96 384.315 22.7893 383.952 22.448L383.376 21.968L383.216 18.992C382.981 14.5547 382.448 11.984 381.616 11.28C381.488 11.1947 381.381 11.152 381.296 11.152C381.125 11.152 380.816 11.2693 380.368 11.504C379.259 12.0373 378.469 12.944 378 14.224C377.744 14.8853 377.573 16.2613 377.488 18.352C377.381 20.464 377.275 21.6373 377.168 21.872C376.827 22.4693 376.283 22.768 375.536 22.768C375.131 22.768 374.768 22.64 374.448 22.384C373.979 22 373.744 21.0613 373.744 19.568C373.744 18.8853 373.755 18.32 373.776 17.872C373.776 17.7227 373.776 17.52 373.776 17.264C373.797 16.9867 373.808 16.784 373.808 16.656C373.808 14.5653 373.573 13.1147 373.104 12.304C372.912 11.9627 372.72 11.792 372.528 11.792C372.507 11.792 372.368 11.8133 372.112 11.856C370.747 12.112 369.595 13.2107 368.656 15.152C368.272 15.9627 368.08 16.816 368.08 17.712C368.08 18.48 368.144 19.4187 368.272 20.528C368.336 20.976 368.368 21.3493 368.368 21.648C368.368 22.4587 368.016 23.0347 367.312 23.376C367.013 23.5253 366.779 23.6 366.608 23.6C366.48 23.6 366.277 23.5467 366 23.44C365.467 23.248 365.115 22.8853 364.944 22.352C364.773 21.7973 364.635 20.6133 364.528 18.8C364.379 15.7067 364.123 12.5173 363.76 9.232C363.76 9.18933 363.749 9.12533 363.728 9.04C363.728 8.95467 363.728 8.90133 363.728 8.88C363.728 8.58133 363.856 8.272 364.112 7.952C364.432 7.58933 364.72 7.38667 364.976 7.344ZM400.273 13.808C399.889 13.616 399.345 13.52 398.641 13.52C397.873 13.52 397.222 13.6373 396.689 13.872C396.326 14.0213 395.857 14.352 395.281 14.864C394.705 15.3547 394.417 15.6747 394.417 15.824C394.417 15.888 394.748 15.92 395.409 15.92C396.39 15.92 397.564 15.8667 398.929 15.76C400.294 15.6533 401.073 15.536 401.265 15.408C401.329 15.3867 401.361 15.3227 401.361 15.216C401.361 15.024 401.244 14.7787 401.009 14.48C400.774 14.16 400.529 13.936 400.273 13.808ZM396.497 10.096C397.03 9.94667 397.66 9.872 398.385 9.872C399.729 9.872 400.956 10.1387 402.065 10.672C402.897 11.0987 403.59 11.7493 404.145 12.624C404.7 13.4773 405.041 14.4373 405.169 15.504C405.169 15.5467 405.169 15.6107 405.169 15.696C405.19 15.7813 405.201 15.8453 405.201 15.888C405.201 16.4427 405.094 16.9867 404.881 17.52C404.689 18.0533 404.454 18.416 404.177 18.608C403.814 18.864 401.265 19.184 396.529 19.568C395.526 19.6533 395.025 19.7493 395.025 19.856C395.025 19.984 395.249 20.1867 395.697 20.464C396.145 20.7413 396.582 20.9333 397.009 21.04C397.393 21.1253 397.702 21.168 397.937 21.168C398.62 21.168 399.505 20.944 400.593 20.496C401.361 20.176 401.926 20.016 402.289 20.016C402.652 20.016 402.993 20.176 403.313 20.496C403.74 20.9227 403.953 21.328 403.953 21.712C403.953 21.968 403.889 22.2347 403.761 22.512C403.654 22.768 403.505 22.9707 403.313 23.12C403.142 23.2693 402.822 23.4507 402.353 23.664C400.796 24.3467 399.345 24.688 398.001 24.688C397.233 24.688 396.444 24.5707 395.633 24.336C394.545 23.9947 393.553 23.4187 392.657 22.608C391.761 21.776 391.121 20.8587 390.737 19.856C390.502 19.1947 390.385 18.4587 390.385 17.648C390.385 16.4747 390.577 15.4933 390.961 14.704C391.409 13.7227 392.166 12.784 393.233 11.888C394.3 10.992 395.388 10.3947 396.497 10.096ZM432.395 13.232C431.777 12.6133 430.817 12.304 429.515 12.304C428.875 12.304 428.31 12.4107 427.819 12.624C427.35 12.8373 426.838 13.2533 426.283 13.872C425.729 14.4907 425.366 15.056 425.195 15.568C425.003 16.1227 424.907 16.6453 424.907 17.136C424.907 18.2667 425.355 19.0667 426.251 19.536C426.785 19.8133 427.478 19.952 428.331 19.952C428.907 19.952 429.345 19.8773 429.643 19.728C431.371 18.8533 432.427 17.2853 432.811 15.024L433.003 13.808L432.395 13.232ZM427.531 8.88C428.043 8.73067 428.641 8.656 429.323 8.656C430.475 8.656 431.606 8.85867 432.715 9.264C433.825 9.66933 434.593 10.1813 435.019 10.8C435.318 11.2267 435.702 11.6747 436.171 12.144C436.683 12.6773 437.153 13.5947 437.579 14.896C437.985 16.1333 438.358 17.5093 438.699 19.024C439.062 20.5387 439.243 21.5627 439.243 22.096C439.243 22.6293 439.083 23.0453 438.763 23.344C438.358 23.728 437.974 23.92 437.611 23.92C437.462 23.92 437.27 23.888 437.035 23.824C436.63 23.6747 436.31 23.4187 436.075 23.056C435.862 22.6933 435.67 22.1067 435.499 21.296C435.286 20.336 435.169 19.856 435.147 19.856C435.062 19.856 434.614 20.2613 433.803 21.072C432.203 22.6293 430.539 23.472 428.811 23.6H428.363C427.318 23.6 426.294 23.4187 425.291 23.056C424.31 22.6933 423.531 22.2133 422.955 21.616C422.657 21.3173 422.358 20.8693 422.059 20.272C421.761 19.6533 421.558 19.088 421.451 18.576C421.345 18.0427 421.291 17.5627 421.291 17.136C421.291 15.3653 421.889 13.6693 423.083 12.048C424.299 10.4267 425.782 9.37067 427.531 8.88ZM447.335 8.496C447.719 8.432 448.113 8.4 448.519 8.4C449.799 8.4 450.94 8.688 451.943 9.264C452.945 9.84 453.447 10.5013 453.447 11.248C453.447 11.44 453.415 11.6107 453.351 11.76C453.031 12.5707 452.551 12.976 451.911 12.976C451.441 12.976 450.908 12.8267 450.311 12.528C449.628 12.1867 448.999 12.016 448.423 12.016C447.804 12.016 447.292 12.2187 446.887 12.624C446.673 12.8373 446.567 13.008 446.567 13.136C446.567 13.3067 446.727 13.5093 447.047 13.744C447.388 13.9573 448.007 14.2987 448.903 14.768C450.375 15.536 451.367 16.1653 451.879 16.656C452.369 17.0827 452.796 17.616 453.159 18.256C453.521 18.8747 453.703 19.3973 453.703 19.824C453.703 20.3147 453.575 20.8053 453.319 21.296C453.063 21.7867 452.743 22.16 452.359 22.416C451.377 23.0773 450.183 23.408 448.775 23.408C447.452 23.408 446.087 23.0987 444.679 22.48C444.017 22.16 443.601 21.7973 443.431 21.392C443.303 21.0933 443.239 20.8267 443.239 20.592C443.239 20.1653 443.441 19.7493 443.847 19.344C444.124 19.024 444.497 18.864 444.967 18.864C445.415 18.864 445.959 19.0027 446.599 19.28C447.303 19.5787 448.113 19.728 449.031 19.728C449.457 19.728 449.671 19.6747 449.671 19.568C449.671 19.312 448.753 18.7253 446.919 17.808C445.489 17.0613 444.444 16.3253 443.783 15.6C443.121 14.8533 442.791 14.032 442.791 13.136C442.791 12.0693 443.228 11.088 444.103 10.192C444.999 9.27467 446.076 8.70933 447.335 8.496ZM468.757 7.344C469.056 7.30133 469.227 7.26933 469.269 7.248C469.376 7.248 469.621 7.32267 470.005 7.472C470.304 7.6 470.571 7.856 470.805 8.24C471.04 8.624 471.157 8.99733 471.157 9.36C471.157 9.63733 471.211 9.85067 471.317 10C471.403 10.1067 471.477 10.1493 471.541 10.128C471.605 10.1067 471.755 10 471.989 9.808C472.949 8.99733 474.123 8.496 475.509 8.304C475.936 8.26133 476.235 8.24 476.405 8.24C477.493 8.24 478.421 8.63467 479.189 9.424L479.925 10.16L480.853 9.424C482.368 8.208 483.84 7.6 485.269 7.6C485.76 7.6 486.197 7.67467 486.581 7.824C487.008 7.99467 487.467 8.32533 487.957 8.816C488.469 9.28533 488.853 9.78667 489.109 10.32C489.877 11.8773 490.379 14.7787 490.613 19.024C490.656 20.0907 490.677 20.6773 490.677 20.784C490.677 21.3387 490.603 21.7547 490.453 22.032C490.133 22.6507 489.643 22.96 488.981 22.96C488.512 22.96 488.096 22.7893 487.733 22.448L487.157 21.968L486.997 18.992C486.763 14.5547 486.229 11.984 485.397 11.28C485.269 11.1947 485.163 11.152 485.077 11.152C484.907 11.152 484.597 11.2693 484.149 11.504C483.04 12.0373 482.251 12.944 481.781 14.224C481.525 14.8853 481.355 16.2613 481.269 18.352C481.163 20.464 481.056 21.6373 480.949 21.872C480.608 22.4693 480.064 22.768 479.317 22.768C478.912 22.768 478.549 22.64 478.229 22.384C477.76 22 477.525 21.0613 477.525 19.568C477.525 18.8853 477.536 18.32 477.557 17.872C477.557 17.7227 477.557 17.52 477.557 17.264C477.579 16.9867 477.589 16.784 477.589 16.656C477.589 14.5653 477.355 13.1147 476.885 12.304C476.693 11.9627 476.501 11.792 476.309 11.792C476.288 11.792 476.149 11.8133 475.893 11.856C474.528 12.112 473.376 13.2107 472.437 15.152C472.053 15.9627 471.861 16.816 471.861 17.712C471.861 18.48 471.925 19.4187 472.053 20.528C472.117 20.976 472.149 21.3493 472.149 21.648C472.149 22.4587 471.797 23.0347 471.093 23.376C470.795 23.5253 470.56 23.6 470.389 23.6C470.261 23.6 470.059 23.5467 469.781 23.44C469.248 23.248 468.896 22.8853 468.725 22.352C468.555 21.7973 468.416 20.6133 468.309 18.8C468.16 15.7067 467.904 12.5173 467.541 9.232C467.541 9.18933 467.531 9.12533 467.509 9.04C467.509 8.95467 467.509 8.90133 467.509 8.88C467.509 8.58133 467.637 8.272 467.893 7.952C468.213 7.58933 468.501 7.38667 468.757 7.344ZM506.134 8.272C506.348 8.208 506.508 8.176 506.614 8.176C506.7 8.176 506.945 8.26133 507.35 8.432C507.777 8.60267 508.076 8.89067 508.246 9.296C508.332 9.46667 508.374 9.65867 508.374 9.872C508.374 10.192 508.118 11.1627 507.606 12.784C506.668 15.792 505.484 18.8107 504.054 21.84C503.393 23.2907 502.38 25.168 501.014 27.472C499.649 29.7973 498.817 31.0453 498.518 31.216C498.177 31.4293 497.825 31.536 497.462 31.536C496.972 31.536 496.545 31.3653 496.182 31.024C495.841 30.704 495.67 30.2773 495.67 29.744C495.67 29.36 496.012 28.6347 496.694 27.568C497.228 26.736 497.921 25.5627 498.774 24.048C499.628 22.512 500.054 21.6907 500.054 21.584C500.054 21.52 499.82 21.0933 499.35 20.304C499.137 19.9627 498.38 18.576 497.078 16.144C495.798 13.6907 495.02 12.272 494.742 11.888C494.401 11.3973 494.23 10.9067 494.23 10.416C494.23 9.712 494.572 9.21067 495.254 8.912C495.51 8.80533 495.734 8.752 495.926 8.752C496.374 8.752 496.812 9.008 497.238 9.52C497.665 10.0107 498.209 10.864 498.87 12.08C500.3 14.7253 501.27 16.4533 501.782 17.264C501.889 17.4133 501.953 17.488 501.974 17.488C502.06 17.488 502.273 17.0293 502.614 16.112C503.105 14.768 503.596 13.3387 504.086 11.824C504.513 10.4587 504.854 9.552 505.11 9.104C505.388 8.656 505.729 8.37867 506.134 8.272ZM533.134 8.272C533.348 8.208 533.508 8.176 533.614 8.176C533.7 8.176 533.945 8.26133 534.35 8.432C534.777 8.60267 535.076 8.89067 535.246 9.296C535.332 9.46667 535.374 9.65867 535.374 9.872C535.374 10.192 535.118 11.1627 534.606 12.784C533.668 15.792 532.484 18.8107 531.054 21.84C530.393 23.2907 529.38 25.168 528.014 27.472C526.649 29.7973 525.817 31.0453 525.518 31.216C525.177 31.4293 524.825 31.536 524.462 31.536C523.972 31.536 523.545 31.3653 523.182 31.024C522.841 30.704 522.67 30.2773 522.67 29.744C522.67 29.36 523.012 28.6347 523.694 27.568C524.228 26.736 524.921 25.5627 525.774 24.048C526.628 22.512 527.054 21.6907 527.054 21.584C527.054 21.52 526.82 21.0933 526.35 20.304C526.137 19.9627 525.38 18.576 524.078 16.144C522.798 13.6907 522.02 12.272 521.742 11.888C521.401 11.3973 521.23 10.9067 521.23 10.416C521.23 9.712 521.572 9.21067 522.254 8.912C522.51 8.80533 522.734 8.752 522.926 8.752C523.374 8.752 523.812 9.008 524.238 9.52C524.665 10.0107 525.209 10.864 525.87 12.08C527.3 14.7253 528.27 16.4533 528.782 17.264C528.889 17.4133 528.953 17.488 528.974 17.488C529.06 17.488 529.273 17.0293 529.614 16.112C530.105 14.768 530.596 13.3387 531.086 11.824C531.513 10.4587 531.854 9.552 532.11 9.104C532.388 8.656 532.729 8.37867 533.134 8.272ZM547.588 11.6C547.012 11.4933 546.532 11.44 546.148 11.44C545.274 11.44 544.538 11.6213 543.94 11.984C543.642 12.176 543.29 12.8267 542.884 13.936C542.5 15.024 542.308 15.8987 542.308 16.56C542.308 17.6267 542.65 18.4907 543.332 19.152C544.036 19.792 544.954 20.1227 546.084 20.144C547.002 20.144 547.855 19.888 548.644 19.376C549.455 18.864 550.042 18.192 550.404 17.36C550.639 16.8267 550.756 16.2187 550.756 15.536C550.756 14.704 550.596 13.9787 550.276 13.36C550.042 12.8693 549.722 12.496 549.316 12.24C548.911 11.984 548.335 11.7707 547.588 11.6ZM543.972 8.176C544.719 7.984 545.455 7.888 546.18 7.888C547.546 7.888 549.007 8.22933 550.564 8.912C551.674 9.40267 552.548 10.2667 553.188 11.504C553.85 12.7413 554.191 14.2027 554.212 15.888V16.08C554.212 18.6187 553.082 20.6773 550.82 22.256C549.412 23.2587 547.844 23.76 546.116 23.76C544.687 23.76 543.364 23.408 542.148 22.704C540.932 21.9787 540.015 20.9653 539.396 19.664C539.183 19.216 539.044 18.832 538.98 18.512C538.938 18.192 538.916 17.52 538.916 16.496C538.938 14.9813 539.098 13.7867 539.396 12.912C540.1 10.9707 540.932 9.65867 541.892 8.976C542.276 8.69867 542.97 8.432 543.972 8.176ZM566.401 12.624C566.294 12.5387 566.038 12.496 565.633 12.496C564.886 12.496 564.267 12.6027 563.777 12.816C562.113 13.584 561.281 14.8427 561.281 16.592C561.281 17.36 561.462 18.1067 561.825 18.832C562.379 19.9413 563.147 20.496 564.129 20.496C564.427 20.496 564.662 20.4427 564.833 20.336C565.025 20.2293 565.313 19.9733 565.697 19.568C566.593 18.6507 567.126 17.264 567.297 15.408C567.318 15.2373 567.329 15.024 567.329 14.768C567.329 14.3627 567.222 13.9467 567.009 13.52C566.774 13.0293 566.571 12.7307 566.401 12.624ZM563.553 9.072C564.022 8.92267 564.566 8.848 565.185 8.848C565.974 8.848 566.742 8.976 567.489 9.232C568.235 9.46667 568.801 9.78667 569.185 10.192C569.462 10.4693 569.814 11.0347 570.241 11.888C570.539 12.464 570.721 12.9333 570.785 13.296C570.87 13.6373 570.945 14.352 571.009 15.44C571.051 15.9093 571.115 16.7093 571.201 17.84C571.307 18.9707 571.393 20.016 571.457 20.976C571.521 21.936 571.553 22.8107 571.553 23.6C571.553 24.8587 571.457 25.936 571.265 26.832C570.646 29.6267 569.334 31.3867 567.329 32.112C566.689 32.3467 565.825 32.464 564.737 32.464C564.011 32.4427 563.467 32.3893 563.105 32.304C562.742 32.24 562.198 32.0693 561.473 31.792C560.235 31.3227 559.414 30.96 559.009 30.704C558.603 30.4693 558.326 30.1813 558.177 29.84C558.091 29.6053 558.049 29.3707 558.049 29.136C558.049 28.432 558.369 27.92 559.009 27.6L559.713 27.28L561.633 28.048C562.507 28.3893 563.137 28.6027 563.521 28.688C563.905 28.7733 564.395 28.816 564.993 28.816C565.633 28.816 566.038 28.784 566.209 28.72C566.379 28.6773 566.582 28.5173 566.817 28.24C567.499 27.4293 567.905 26.064 568.033 24.144C568.054 23.9733 568.065 23.7493 568.065 23.472C568.065 23.0027 567.979 22.768 567.809 22.768C567.681 22.768 567.467 22.8853 567.169 23.12C566.315 23.76 565.302 24.08 564.129 24.08H563.745C563.019 24.08 562.347 23.92 561.729 23.6C560.811 23.152 560.011 22.4907 559.329 21.616C558.667 20.7413 558.209 19.7707 557.953 18.704C557.803 17.9573 557.729 17.2 557.729 16.432C557.729 14.6613 558.241 13.1253 559.265 11.824C560.31 10.5013 561.739 9.584 563.553 9.072ZM586.145 13.232C585.527 12.6133 584.567 12.304 583.265 12.304C582.625 12.304 582.06 12.4107 581.569 12.624C581.1 12.8373 580.588 13.2533 580.033 13.872C579.479 14.4907 579.116 15.056 578.945 15.568C578.753 16.1227 578.657 16.6453 578.657 17.136C578.657 18.2667 579.105 19.0667 580.001 19.536C580.535 19.8133 581.228 19.952 582.081 19.952C582.657 19.952 583.095 19.8773 583.393 19.728C585.121 18.8533 586.177 17.2853 586.561 15.024L586.753 13.808L586.145 13.232ZM581.281 8.88C581.793 8.73067 582.391 8.656 583.073 8.656C584.225 8.656 585.356 8.85867 586.465 9.264C587.575 9.66933 588.343 10.1813 588.769 10.8C589.068 11.2267 589.452 11.6747 589.921 12.144C590.433 12.6773 590.903 13.5947 591.329 14.896C591.735 16.1333 592.108 17.5093 592.449 19.024C592.812 20.5387 592.993 21.5627 592.993 22.096C592.993 22.6293 592.833 23.0453 592.513 23.344C592.108 23.728 591.724 23.92 591.361 23.92C591.212 23.92 591.02 23.888 590.785 23.824C590.38 23.6747 590.06 23.4187 589.825 23.056C589.612 22.6933 589.42 22.1067 589.249 21.296C589.036 20.336 588.919 19.856 588.897 19.856C588.812 19.856 588.364 20.2613 587.553 21.072C585.953 22.6293 584.289 23.472 582.561 23.6H582.113C581.068 23.6 580.044 23.4187 579.041 23.056C578.06 22.6933 577.281 22.2133 576.705 21.616C576.407 21.3173 576.108 20.8693 575.809 20.272C575.511 19.6533 575.308 19.088 575.201 18.576C575.095 18.0427 575.041 17.5627 575.041 17.136C575.041 15.3653 575.639 13.6693 576.833 12.048C578.049 10.4267 579.532 9.37067 581.281 8.88ZM611.346 2.192C611.687 1.97867 612.007 1.872 612.306 1.872C612.54 1.872 612.807 1.936 613.106 2.064C613.554 2.27733 613.842 2.608 613.97 3.056C614.098 3.504 614.183 4.57067 614.226 6.256L614.322 9.424L615.794 9.328C615.964 9.30667 616.21 9.296 616.53 9.296C617.298 9.296 617.842 9.43467 618.162 9.712C618.503 9.98933 618.674 10.4373 618.674 11.056C618.674 11.7173 618.45 12.1867 618.002 12.464C617.575 12.7413 616.743 12.9333 615.506 13.04L614.162 13.168L613.938 17.616C613.788 20.624 613.65 22.288 613.522 22.608C613.244 23.248 612.711 23.568 611.922 23.568C611.474 23.568 611.122 23.4507 610.866 23.216C610.588 23.0027 610.396 22.768 610.29 22.512C610.183 22.256 610.13 21.84 610.13 21.264C610.13 20.7947 610.162 20.0907 610.226 19.152C610.332 17.4667 610.407 16.0267 610.45 14.832L610.482 13.328L609.042 13.296C608.231 13.2747 607.676 13.2107 607.378 13.104C607.079 12.976 606.823 12.72 606.61 12.336C606.482 12.08 606.418 11.8133 606.418 11.536C606.418 11.024 606.631 10.576 607.058 10.192C607.292 9.97867 607.591 9.84 607.954 9.776C608.316 9.69067 608.988 9.60533 609.97 9.52L610.482 9.456L610.61 6.064C610.631 5.552 610.642 4.99733 610.642 4.4C610.663 3.78133 610.674 3.32266 610.674 3.024L610.706 2.576L610.802 2.512C610.866 2.46933 610.951 2.416 611.058 2.352C611.164 2.288 611.26 2.23467 611.346 2.192ZM630.997 12.944C630.613 12.6667 630.005 12.528 629.173 12.528C628.661 12.528 628.255 12.592 627.957 12.72C627.679 12.848 627.359 13.1147 626.997 13.52C626.655 13.904 626.485 14.1813 626.485 14.352C626.485 14.5013 626.645 14.576 626.965 14.576C627.391 14.5547 628.277 14.4587 629.621 14.288C630.965 14.1173 631.658 14.0107 631.701 13.968C631.722 13.9467 631.733 13.9147 631.733 13.872C631.733 13.6373 631.487 13.328 630.997 12.944ZM627.541 9.04C627.925 8.93333 628.394 8.88 628.949 8.88C630.079 8.88 631.05 9.04 631.861 9.36C632.522 9.59467 633.173 10.0533 633.813 10.736C634.474 11.3973 635.018 12.144 635.445 12.976C635.871 13.8293 636.085 14.4053 636.085 14.704C636.085 15.3867 635.786 16.0267 635.189 16.624C634.549 17.2 632.554 17.6267 629.205 17.904C627.925 18.0107 627.093 18.096 626.709 18.16C626.325 18.224 626.133 18.32 626.133 18.448C626.133 18.5547 626.325 18.7787 626.709 19.12C627.37 19.76 628.554 20.144 630.261 20.272C630.431 20.2933 630.655 20.304 630.933 20.304C631.381 20.304 631.914 20.1973 632.533 19.984C633.407 19.664 634.101 19.504 634.613 19.504C635.381 19.504 635.882 19.888 636.117 20.656C636.181 20.848 636.213 21.0293 636.213 21.2C636.213 21.9253 635.754 22.5227 634.837 22.992C633.941 23.44 632.671 23.696 631.029 23.76C630.943 23.76 630.826 23.7707 630.677 23.792C630.527 23.792 630.421 23.792 630.357 23.792C628.543 23.792 626.975 23.44 625.653 22.736C624.351 22.0107 623.37 20.9867 622.709 19.664C622.389 19.024 622.229 18.1707 622.229 17.104C622.229 16.0373 622.335 15.1947 622.549 14.576C623.082 12.976 623.743 11.7493 624.533 10.896C625.322 10.0213 626.325 9.40267 627.541 9.04ZM650.802 13.232C650.183 12.6133 649.223 12.304 647.922 12.304C647.282 12.304 646.716 12.4107 646.226 12.624C645.756 12.8373 645.244 13.2533 644.69 13.872C644.135 14.4907 643.772 15.056 643.602 15.568C643.41 16.1227 643.314 16.6453 643.314 17.136C643.314 18.2667 643.762 19.0667 644.658 19.536C645.191 19.8133 645.884 19.952 646.738 19.952C647.314 19.952 647.751 19.8773 648.05 19.728C649.778 18.8533 650.834 17.2853 651.218 15.024L651.41 13.808L650.802 13.232ZM645.938 8.88C646.45 8.73067 647.047 8.656 647.73 8.656C648.882 8.656 650.012 8.85867 651.122 9.264C652.231 9.66933 652.999 10.1813 653.426 10.8C653.724 11.2267 654.108 11.6747 654.578 12.144C655.09 12.6773 655.559 13.5947 655.986 14.896C656.391 16.1333 656.764 17.5093 657.106 19.024C657.468 20.5387 657.65 21.5627 657.65 22.096C657.65 22.6293 657.49 23.0453 657.17 23.344C656.764 23.728 656.38 23.92 656.017 23.92C655.868 23.92 655.676 23.888 655.442 23.824C655.036 23.6747 654.716 23.4187 654.482 23.056C654.268 22.6933 654.076 22.1067 653.906 21.296C653.692 20.336 653.575 19.856 653.554 19.856C653.468 19.856 653.02 20.2613 652.21 21.072C650.61 22.6293 648.946 23.472 647.218 23.6H646.77C645.724 23.6 644.7 23.4187 643.698 23.056C642.716 22.6933 641.938 22.2133 641.362 21.616C641.063 21.3173 640.764 20.8693 640.466 20.272C640.167 19.6533 639.964 19.088 639.858 18.576C639.751 18.0427 639.698 17.5627 639.698 17.136C639.698 15.3653 640.295 13.6693 641.49 12.048C642.706 10.4267 644.188 9.37067 645.938 8.88ZM665.293 9.392C665.634 9.264 666.167 9.2 666.893 9.2C667.277 9.2 667.586 9.21067 667.821 9.232C668.674 9.25333 669.261 9.30667 669.581 9.392C669.901 9.456 670.327 9.616 670.861 9.872C672.375 10.64 673.133 11.568 673.133 12.656C673.133 12.8907 673.058 13.1787 672.909 13.52C672.589 14.1387 672.098 14.448 671.437 14.448C670.839 14.448 670.295 14.1707 669.805 13.616C669.57 13.36 669.357 13.1893 669.165 13.104C668.973 12.9973 668.663 12.912 668.237 12.848C667.81 12.8053 667.522 12.784 667.373 12.784C666.626 12.784 666.082 13.0187 665.741 13.488C665.143 14.3627 664.845 15.312 664.845 16.336C664.845 17.4453 665.186 18.3947 665.869 19.184C666.551 19.952 667.447 20.336 668.557 20.336C668.983 20.336 669.581 20.2293 670.349 20.016C671.117 19.7813 671.629 19.568 671.885 19.376C672.098 19.2053 672.471 19.12 673.005 19.12C673.517 19.12 673.933 19.28 674.253 19.6C674.594 19.92 674.765 20.3253 674.765 20.816C674.765 21.264 674.658 21.6267 674.445 21.904C674.231 22.1813 673.826 22.4693 673.229 22.768C671.693 23.536 670.157 23.92 668.621 23.92C666.082 23.92 664.151 23.0133 662.829 21.2C661.762 19.7493 661.229 18.16 661.229 16.432C661.229 15.3653 661.442 14.2453 661.869 13.072C662.189 12.24 662.658 11.4827 663.277 10.8C663.917 10.1173 664.589 9.648 665.293 9.392ZM679.058 1.552C679.42 1.25333 679.794 1.104 680.178 1.104C680.946 1.104 681.511 1.57333 681.874 2.512C682.023 2.93867 682.183 3.96267 682.354 5.584C682.524 7.184 682.663 8.67733 682.77 10.064C682.876 11.4293 682.94 12.112 682.962 12.112C683.004 12.112 683.356 11.8773 684.018 11.408C685.319 10.4907 686.556 10.032 687.73 10.032C688.818 10.032 689.767 10.4373 690.578 11.248C691.41 12.0373 692.06 13.2 692.53 14.736C692.892 15.9307 693.074 17.7867 693.074 20.304C693.074 21.8827 692.978 22.9493 692.786 23.504C692.572 24.08 692.082 24.368 691.314 24.368C690.802 24.368 690.375 24.1973 690.034 23.856L689.554 23.376L689.458 20.144C689.33 15.984 688.754 13.84 687.73 13.712H687.634C687.143 13.712 686.535 13.9893 685.81 14.544C685.084 15.0773 684.562 15.664 684.242 16.304C684.05 16.7307 683.794 17.04 683.474 17.232L683.058 17.52L682.994 21.008C682.951 22.7147 682.908 23.7493 682.866 24.112C682.844 24.4533 682.727 24.7307 682.514 24.944C682.172 25.3067 681.746 25.488 681.234 25.488C680.466 25.488 679.932 25.1467 679.634 24.464C679.484 24.0587 679.378 21.6053 679.314 17.104C679.207 9.57333 678.93 5.06133 678.482 3.568C678.418 3.33333 678.386 3.10933 678.386 2.896C678.386 2.34133 678.61 1.89333 679.058 1.552ZM706.461 13.808C706.077 13.616 705.533 13.52 704.829 13.52C704.061 13.52 703.41 13.6373 702.877 13.872C702.514 14.0213 702.045 14.352 701.469 14.864C700.893 15.3547 700.605 15.6747 700.605 15.824C700.605 15.888 700.935 15.92 701.597 15.92C702.578 15.92 703.751 15.8667 705.117 15.76C706.482 15.6533 707.261 15.536 707.453 15.408C707.517 15.3867 707.549 15.3227 707.549 15.216C707.549 15.024 707.431 14.7787 707.197 14.48C706.962 14.16 706.717 13.936 706.461 13.808ZM702.685 10.096C703.218 9.94667 703.847 9.872 704.573 9.872C705.917 9.872 707.143 10.1387 708.253 10.672C709.085 11.0987 709.778 11.7493 710.333 12.624C710.887 13.4773 711.229 14.4373 711.357 15.504C711.357 15.5467 711.357 15.6107 711.357 15.696C711.378 15.7813 711.389 15.8453 711.389 15.888C711.389 16.4427 711.282 16.9867 711.069 17.52C710.877 18.0533 710.642 18.416 710.365 18.608C710.002 18.864 707.453 19.184 702.717 19.568C701.714 19.6533 701.213 19.7493 701.213 19.856C701.213 19.984 701.437 20.1867 701.885 20.464C702.333 20.7413 702.77 20.9333 703.197 21.04C703.581 21.1253 703.89 21.168 704.125 21.168C704.807 21.168 705.693 20.944 706.781 20.496C707.549 20.176 708.114 20.016 708.477 20.016C708.839 20.016 709.181 20.176 709.501 20.496C709.927 20.9227 710.141 21.328 710.141 21.712C710.141 21.968 710.077 22.2347 709.949 22.512C709.842 22.768 709.693 22.9707 709.501 23.12C709.33 23.2693 709.01 23.4507 708.541 23.664C706.983 24.3467 705.533 24.688 704.189 24.688C703.421 24.688 702.631 24.5707 701.821 24.336C700.733 23.9947 699.741 23.4187 698.845 22.608C697.949 21.776 697.309 20.8587 696.924 19.856C696.69 19.1947 696.573 18.4587 696.573 17.648C696.573 16.4747 696.765 15.4933 697.149 14.704C697.597 13.7227 698.354 12.784 699.421 11.888C700.487 10.992 701.575 10.3947 702.685 10.096ZM715.333 9.328C715.717 9.008 716.133 8.848 716.581 8.848C717.05 8.848 717.456 9.01867 717.797 9.36C718.138 9.68 718.309 10.096 718.309 10.608C718.309 11.12 718.405 11.376 718.597 11.376C718.704 11.376 718.928 11.2587 719.269 11.024C720.848 9.936 722.416 9.392 723.973 9.392C724.634 9.392 725.285 9.50933 725.925 9.744C726.501 9.97867 726.906 10.2347 727.141 10.512C727.376 10.7893 727.493 11.1627 727.493 11.632C727.493 12.144 727.301 12.5813 726.917 12.944C726.597 13.2427 726.309 13.392 726.053 13.392C725.968 13.392 725.37 13.3173 724.261 13.168C724.133 13.1467 723.952 13.136 723.717 13.136C723.376 13.136 722.938 13.2533 722.405 13.488C721.018 14.128 720.048 14.9387 719.493 15.92C718.938 16.9013 718.661 18.3093 718.661 20.144C718.64 21.488 718.48 22.4267 718.181 22.96C717.904 23.4933 717.402 23.76 716.677 23.76C716.186 23.76 715.77 23.5893 715.429 23.248L714.917 22.736L714.853 17.072C714.81 12.8907 714.789 10.736 714.789 10.608C714.789 10.096 714.97 9.66933 715.333 9.328ZM732.066 2.608C732.365 2.43733 732.653 2.352 732.93 2.352C733.207 2.352 733.517 2.43733 733.858 2.608C734.221 2.8 734.455 3.03466 734.562 3.312C734.669 3.58933 734.722 4.144 734.722 4.976V5.52C734.701 7.90933 734.466 9.328 734.018 9.776C733.655 10.1387 733.207 10.32 732.674 10.32C732.333 10.32 732.055 10.2453 731.842 10.096C731.522 9.88267 731.298 9.616 731.17 9.296C731.063 8.976 731.01 8.44267 731.01 7.696C731.01 7.09867 731.021 6.59733 731.042 6.192C731.106 4.848 731.191 3.97333 731.298 3.568C731.426 3.14133 731.682 2.82133 732.066 2.608ZM742.741 8.496C743.125 8.432 743.519 8.4 743.925 8.4C745.205 8.4 746.346 8.688 747.349 9.264C748.351 9.84 748.853 10.5013 748.853 11.248C748.853 11.44 748.821 11.6107 748.757 11.76C748.437 12.5707 747.957 12.976 747.317 12.976C746.847 12.976 746.314 12.8267 745.717 12.528C745.034 12.1867 744.405 12.016 743.829 12.016C743.21 12.016 742.698 12.2187 742.293 12.624C742.079 12.8373 741.973 13.008 741.973 13.136C741.973 13.3067 742.133 13.5093 742.453 13.744C742.794 13.9573 743.413 14.2987 744.309 14.768C745.781 15.536 746.773 16.1653 747.285 16.656C747.775 17.0827 748.202 17.616 748.565 18.256C748.927 18.8747 749.109 19.3973 749.109 19.824C749.109 20.3147 748.981 20.8053 748.725 21.296C748.469 21.7867 748.149 22.16 747.765 22.416C746.783 23.0773 745.589 23.408 744.181 23.408C742.858 23.408 741.493 23.0987 740.085 22.48C739.423 22.16 739.007 21.7973 738.837 21.392C738.709 21.0933 738.645 20.8267 738.645 20.592C738.645 20.1653 738.847 19.7493 739.253 19.344C739.53 19.024 739.903 18.864 740.373 18.864C740.821 18.864 741.365 19.0027 742.005 19.28C742.709 19.5787 743.519 19.728 744.437 19.728C744.863 19.728 745.077 19.6747 745.077 19.568C745.077 19.312 744.159 18.7253 742.325 17.808C740.895 17.0613 739.85 16.3253 739.189 15.6C738.527 14.8533 738.197 14.032 738.197 13.136C738.197 12.0693 738.634 11.088 739.509 10.192C740.405 9.27467 741.482 8.70933 742.741 8.496ZM753.724 21.008C753.894 20.6453 754.086 20.4 754.3 20.272C754.513 20.144 754.876 20.08 755.388 20.08C755.921 20.08 756.348 20.2507 756.668 20.592C757.009 20.912 757.18 21.328 757.18 21.84C757.18 22.352 756.988 22.8 756.604 23.184C756.241 23.568 755.814 23.76 755.324 23.76C754.897 23.76 754.481 23.5787 754.076 23.216C753.67 22.832 753.468 22.4373 753.468 22.032C753.468 21.6907 753.553 21.3493 753.724 21.008ZM752.604 10.48C752.604 9.968 752.785 9.54133 753.148 9.2C753.51 8.85867 753.926 8.688 754.396 8.688C754.886 8.688 755.313 8.85867 755.676 9.2C756.06 9.54133 756.252 9.95733 756.252 10.448C756.252 10.7253 756.177 11.0027 756.028 11.28C755.686 11.9627 755.142 12.304 754.396 12.304C753.905 12.304 753.478 12.144 753.116 11.824C752.774 11.4827 752.604 11.0347 752.604 10.48Z" fill="#27263C"/>
</svg>
