<svg width="671" height="33" viewBox="0 0 671 33" fill="none" xmlns="http://www.w3.org/2000/svg">
<path d="M5.688 1.52C6.05067 1.15733 6.488 0.975998 7 0.975998C7.384 0.975998 7.72533 1.09333 8.024 1.328C8.344 1.54133 8.568 1.85067 8.696 2.256C8.76 2.49067 8.86667 3.6 9.016 5.584C9.16533 7.54667 9.24 8.912 9.24 9.68C9.24 9.872 9.28267 9.98933 9.368 10.032C9.47467 10.0747 9.72 10.096 10.104 10.096C10.68 10.096 11.0107 10.032 11.096 9.904C11.1387 9.79733 11.576 9.744 12.408 9.744C13.4747 9.744 14.1787 9.81867 14.52 9.968C14.84 10.1173 15.0853 10.4053 15.256 10.832C15.4053 11.1307 15.48 11.376 15.48 11.568C15.48 11.7173 15.448 11.8987 15.384 12.112C15.2347 12.6027 14.9573 12.9333 14.552 13.104C14.168 13.2533 13.4 13.36 12.248 13.424C10.9467 13.488 10.104 13.5733 9.72 13.68L9.208 13.808L9.336 18.32C9.37867 20.3253 9.4 21.4027 9.4 21.552C9.4 22.4907 9.32533 23.12 9.176 23.44C8.856 24.1227 8.33333 24.464 7.608 24.464C7.33067 24.464 7.04267 24.4 6.744 24.272C6.50933 24.1653 6.33867 24.0693 6.232 23.984C6.12533 23.8773 6.02933 23.6107 5.944 23.184C5.85867 22.736 5.80533 22.2133 5.784 21.616C5.76267 21.0187 5.74133 20.0373 5.72 18.672L5.656 14.032L4.696 14.064C4.12 14.1067 3.608 14.192 3.16 14.32C3.05333 14.3627 2.88267 14.384 2.648 14.384C1.92267 14.384 1.4 14.16 1.08 13.712C0.909333 13.4347 0.824 13.0613 0.824 12.592C0.824 12.1867 0.888 11.8667 1.016 11.632C1.31467 11.0987 2.36 10.6933 4.152 10.416L5.624 10.192L5.496 7.376C5.41067 5.37067 5.336 4.00533 5.272 3.28C5.22933 2.768 5.208 2.49067 5.208 2.448C5.208 2.14933 5.368 1.84 5.688 1.52ZM19.7765 1.552C20.1392 1.25333 20.5125 1.104 20.8965 1.104C21.6645 1.104 22.2298 1.57333 22.5925 2.512C22.7418 2.93867 22.9018 3.96267 23.0725 5.584C23.2432 7.184 23.3818 8.67733 23.4885 10.064C23.5952 11.4293 23.6592 12.112 23.6805 12.112C23.7232 12.112 24.0752 11.8773 24.7365 11.408C26.0378 10.4907 27.2752 10.032 28.4485 10.032C29.5365 10.032 30.4858 10.4373 31.2965 11.248C32.1285 12.0373 32.7792 13.2 33.2485 14.736C33.6112 15.9307 33.7925 17.7867 33.7925 20.304C33.7925 21.8827 33.6965 22.9493 33.5045 23.504C33.2912 24.08 32.8005 24.368 32.0325 24.368C31.5205 24.368 31.0938 24.1973 30.7525 23.856L30.2725 23.376L30.1765 20.144C30.0485 15.984 29.4725 13.84 28.4485 13.712H28.3525C27.8618 13.712 27.2538 13.9893 26.5285 14.544C25.8032 15.0773 25.2805 15.664 24.9605 16.304C24.7685 16.7307 24.5125 17.04 24.1925 17.232L23.7765 17.52L23.7125 21.008C23.6698 22.7147 23.6272 23.7493 23.5845 24.112C23.5632 24.4533 23.4458 24.7307 23.2325 24.944C22.8912 25.3067 22.4645 25.488 21.9525 25.488C21.1845 25.488 20.6512 25.1467 20.3525 24.464C20.2032 24.0587 20.0965 21.6053 20.0325 17.104C19.9258 9.57333 19.6485 5.06133 19.2005 3.568C19.1365 3.33333 19.1045 3.10933 19.1045 2.896C19.1045 2.34133 19.3285 1.89333 19.7765 1.552ZM46.5073 13.68C46.4006 13.3387 46.3046 13.1467 46.2193 13.104C46.1339 13.04 45.8993 13.008 45.5153 13.008C44.4059 13.0293 43.3713 13.552 42.4113 14.576C41.4513 15.5787 40.9713 16.592 40.9713 17.616C40.9713 18.128 41.1099 18.5547 41.3873 18.896C42.0059 19.5787 42.6566 19.92 43.3393 19.92C43.3819 19.92 43.4246 19.92 43.4673 19.92C43.5099 19.8987 43.5526 19.888 43.5953 19.888C43.9793 19.8027 44.3846 19.5467 44.8113 19.12C45.2593 18.6933 45.6006 18.224 45.8353 17.712C46.3259 16.56 46.5713 15.44 46.5713 14.352C46.5713 14.032 46.5499 13.808 46.5073 13.68ZM43.5312 9.648C44.1073 9.456 44.7686 9.36 45.5153 9.36C46.4966 9.36 47.3286 9.52 48.0113 9.84C48.4593 10.0747 48.8646 10.4267 49.2273 10.896C49.6113 11.344 49.8459 11.7707 49.9313 12.176C50.0166 12.5813 50.1339 12.9653 50.2833 13.328C50.5179 13.9467 50.9873 16.272 51.6912 20.304C51.7979 20.944 51.8513 21.424 51.8513 21.744C51.8513 23.024 51.2539 23.664 50.0593 23.664C49.6539 23.664 49.2806 23.504 48.9393 23.184C48.6193 22.864 48.4166 22.4693 48.3313 22C48.2459 21.5733 48.1713 21.328 48.1073 21.264C48.0219 21.2 47.7766 21.3707 47.3713 21.776C46.1553 22.992 44.7579 23.6 43.1793 23.6C42.9019 23.6 42.6139 23.568 42.3153 23.504C41.1419 23.248 40.0433 22.608 39.0193 21.584C37.8673 20.432 37.2913 19.1413 37.2913 17.712C37.2913 16.5813 37.6433 15.3547 38.3473 14.032C38.8806 13.0293 39.6059 12.1333 40.5233 11.344C41.4619 10.5547 42.4646 9.98933 43.5312 9.648ZM60.313 1.52C60.6757 1.15733 61.113 0.975998 61.625 0.975998C62.009 0.975998 62.3503 1.09333 62.649 1.328C62.969 1.54133 63.193 1.85067 63.321 2.256C63.385 2.49067 63.4917 3.6 63.641 5.584C63.7903 7.54667 63.865 8.912 63.865 9.68C63.865 9.872 63.9077 9.98933 63.993 10.032C64.0997 10.0747 64.345 10.096 64.729 10.096C65.305 10.096 65.6357 10.032 65.721 9.904C65.7637 9.79733 66.201 9.744 67.033 9.744C68.0997 9.744 68.8037 9.81867 69.145 9.968C69.465 10.1173 69.7103 10.4053 69.881 10.832C70.0303 11.1307 70.105 11.376 70.105 11.568C70.105 11.7173 70.073 11.8987 70.009 12.112C69.8597 12.6027 69.5823 12.9333 69.177 13.104C68.793 13.2533 68.025 13.36 66.873 13.424C65.5717 13.488 64.729 13.5733 64.345 13.68L63.833 13.808L63.961 18.32C64.0037 20.3253 64.025 21.4027 64.025 21.552C64.025 22.4907 63.9503 23.12 63.801 23.44C63.481 24.1227 62.9583 24.464 62.233 24.464C61.9557 24.464 61.6677 24.4 61.369 24.272C61.1343 24.1653 60.9637 24.0693 60.857 23.984C60.7503 23.8773 60.6543 23.6107 60.569 23.184C60.4837 22.736 60.4303 22.2133 60.409 21.616C60.3877 21.0187 60.3663 20.0373 60.345 18.672L60.281 14.032L59.321 14.064C58.745 14.1067 58.233 14.192 57.785 14.32C57.6783 14.3627 57.5077 14.384 57.273 14.384C56.5477 14.384 56.025 14.16 55.705 13.712C55.5343 13.4347 55.449 13.0613 55.449 12.592C55.449 12.1867 55.513 11.8667 55.641 11.632C55.9397 11.0987 56.985 10.6933 58.777 10.416L60.249 10.192L60.121 7.376C60.0357 5.37067 59.961 4.00533 59.897 3.28C59.8543 2.768 59.833 2.49067 59.833 2.448C59.833 2.14933 59.993 1.84 60.313 1.52ZM97.0543 13.808C96.6703 13.616 96.1263 13.52 95.4223 13.52C94.6543 13.52 94.0036 13.6373 93.4703 13.872C93.1076 14.0213 92.6383 14.352 92.0623 14.864C91.4863 15.3547 91.1983 15.6747 91.1983 15.824C91.1983 15.888 91.5289 15.92 92.1903 15.92C93.1716 15.92 94.3449 15.8667 95.7103 15.76C97.0756 15.6533 97.8543 15.536 98.0463 15.408C98.1103 15.3867 98.1423 15.3227 98.1423 15.216C98.1423 15.024 98.0249 14.7787 97.7903 14.48C97.5556 14.16 97.3103 13.936 97.0543 13.808ZM93.2783 10.096C93.8116 9.94667 94.4409 9.872 95.1663 9.872C96.5103 9.872 97.7369 10.1387 98.8463 10.672C99.6783 11.0987 100.372 11.7493 100.926 12.624C101.481 13.4773 101.822 14.4373 101.95 15.504C101.95 15.5467 101.95 15.6107 101.95 15.696C101.972 15.7813 101.982 15.8453 101.982 15.888C101.982 16.4427 101.876 16.9867 101.662 17.52C101.47 18.0533 101.236 18.416 100.958 18.608C100.596 18.864 98.0463 19.184 93.3103 19.568C92.3076 19.6533 91.8063 19.7493 91.8063 19.856C91.8063 19.984 92.0303 20.1867 92.4783 20.464C92.9263 20.7413 93.3636 20.9333 93.7903 21.04C94.1743 21.1253 94.4836 21.168 94.7183 21.168C95.4009 21.168 96.2863 20.944 97.3743 20.496C98.1423 20.176 98.7076 20.016 99.0703 20.016C99.4329 20.016 99.7743 20.176 100.094 20.496C100.521 20.9227 100.734 21.328 100.734 21.712C100.734 21.968 100.67 22.2347 100.542 22.512C100.436 22.768 100.286 22.9707 100.094 23.12C99.9236 23.2693 99.6036 23.4507 99.1343 23.664C97.5769 24.3467 96.1263 24.688 94.7823 24.688C94.0143 24.688 93.2249 24.5707 92.4143 24.336C91.3263 23.9947 90.3343 23.4187 89.4383 22.608C88.5423 21.776 87.9023 20.8587 87.5182 19.856C87.2836 19.1947 87.1663 18.4587 87.1663 17.648C87.1663 16.4747 87.3583 15.4933 87.7423 14.704C88.1903 13.7227 88.9476 12.784 90.0143 11.888C91.0809 10.992 92.1689 10.3947 93.2783 10.096ZM105.543 10.352C105.543 9.904 105.713 9.52 106.055 9.2C106.417 8.85867 106.823 8.688 107.271 8.688C107.783 8.688 108.209 8.88 108.551 9.264C108.892 9.62667 109.265 10.3093 109.671 11.312C110.076 12.3573 110.695 13.7653 111.527 15.536C112.38 17.2853 112.849 18.16 112.935 18.16C112.999 18.16 113.361 17.552 114.023 16.336C114.428 15.568 115.068 14.4373 115.943 12.944C116.839 11.4507 117.361 10.5653 117.511 10.288C117.809 9.75467 118.076 9.41333 118.311 9.264C118.545 9.11467 118.908 9.04 119.399 9.04C119.868 9.04 120.273 9.21067 120.615 9.552C120.977 9.89333 121.159 10.2987 121.159 10.768C121.159 10.8747 121.137 11.0133 121.095 11.184C121.009 11.4613 120.583 12.24 119.815 13.52C117.191 17.808 115.612 20.8267 115.079 22.576C114.737 23.6853 114.055 24.24 113.031 24.24C112.753 24.24 112.455 24.176 112.135 24.048C111.836 23.92 111.559 23.6533 111.303 23.248C111.068 22.8213 110.46 21.6053 109.479 19.6C106.855 14.224 105.543 11.1413 105.543 10.352ZM134.554 13.808C134.17 13.616 133.626 13.52 132.922 13.52C132.154 13.52 131.504 13.6373 130.97 13.872C130.608 14.0213 130.138 14.352 129.562 14.864C128.986 15.3547 128.698 15.6747 128.698 15.824C128.698 15.888 129.029 15.92 129.69 15.92C130.672 15.92 131.845 15.8667 133.21 15.76C134.576 15.6533 135.354 15.536 135.546 15.408C135.61 15.3867 135.642 15.3227 135.642 15.216C135.642 15.024 135.525 14.7787 135.29 14.48C135.056 14.16 134.81 13.936 134.554 13.808ZM130.778 10.096C131.312 9.94667 131.941 9.872 132.666 9.872C134.01 9.872 135.237 10.1387 136.346 10.672C137.178 11.0987 137.872 11.7493 138.426 12.624C138.981 13.4773 139.322 14.4373 139.45 15.504C139.45 15.5467 139.45 15.6107 139.45 15.696C139.472 15.7813 139.482 15.8453 139.482 15.888C139.482 16.4427 139.376 16.9867 139.162 17.52C138.97 18.0533 138.736 18.416 138.458 18.608C138.096 18.864 135.546 19.184 130.81 19.568C129.808 19.6533 129.306 19.7493 129.306 19.856C129.306 19.984 129.53 20.1867 129.978 20.464C130.426 20.7413 130.864 20.9333 131.29 21.04C131.674 21.1253 131.984 21.168 132.218 21.168C132.901 21.168 133.786 20.944 134.874 20.496C135.642 20.176 136.208 20.016 136.57 20.016C136.933 20.016 137.274 20.176 137.594 20.496C138.021 20.9227 138.234 21.328 138.234 21.712C138.234 21.968 138.17 22.2347 138.042 22.512C137.936 22.768 137.786 22.9707 137.594 23.12C137.424 23.2693 137.104 23.4507 136.634 23.664C135.077 24.3467 133.626 24.688 132.282 24.688C131.514 24.688 130.725 24.5707 129.914 24.336C128.826 23.9947 127.834 23.4187 126.938 22.608C126.042 21.776 125.402 20.8587 125.018 19.856C124.784 19.1947 124.666 18.4587 124.666 17.648C124.666 16.4747 124.858 15.4933 125.242 14.704C125.69 13.7227 126.448 12.784 127.514 11.888C128.581 10.992 129.669 10.3947 130.778 10.096ZM143.427 9.328C143.811 9.008 144.227 8.848 144.675 8.848C145.144 8.848 145.549 9.01867 145.891 9.36C146.232 9.68 146.403 10.096 146.403 10.608C146.403 11.12 146.499 11.376 146.691 11.376C146.797 11.376 147.021 11.2587 147.363 11.024C148.941 9.936 150.509 9.392 152.067 9.392C152.728 9.392 153.379 9.50933 154.019 9.744C154.595 9.97867 155 10.2347 155.235 10.512C155.469 10.7893 155.587 11.1627 155.587 11.632C155.587 12.144 155.395 12.5813 155.011 12.944C154.691 13.2427 154.403 13.392 154.147 13.392C154.061 13.392 153.464 13.3173 152.355 13.168C152.227 13.1467 152.045 13.136 151.811 13.136C151.469 13.136 151.032 13.2533 150.499 13.488C149.112 14.128 148.141 14.9387 147.587 15.92C147.032 16.9013 146.755 18.3093 146.755 20.144C146.733 21.488 146.573 22.4267 146.275 22.96C145.997 23.4933 145.496 23.76 144.771 23.76C144.28 23.76 143.864 23.5893 143.523 23.248L143.011 22.736L142.947 17.072C142.904 12.8907 142.883 10.736 142.883 10.608C142.883 10.096 143.064 9.66933 143.427 9.328ZM160.576 9.008C160.597 9.008 160.629 9.008 160.672 9.008C160.736 8.98667 160.778 8.976 160.8 8.976C161.354 8.976 161.802 9.168 162.144 9.552C162.293 9.744 162.581 10.3307 163.008 11.312C163.456 12.2933 163.733 12.8693 163.84 13.04C163.989 13.2533 164.458 14.1493 165.248 15.728C165.952 17.1147 166.346 17.808 166.432 17.808C166.56 17.808 166.656 17.648 166.72 17.328C166.762 17.1573 167.082 16.1013 167.68 14.16C168.277 12.2187 168.597 11.152 168.64 10.96C168.81 9.97867 169.141 9.392 169.632 9.2C169.973 9.072 170.304 9.008 170.624 9.008C171.37 9.008 171.882 9.34933 172.16 10.032C172.266 10.288 172.32 10.5333 172.32 10.768C172.32 11.3653 171.786 13.2533 170.72 16.432C170.08 18.3733 169.589 19.9413 169.248 21.136C168.906 22.3093 168.448 23.8027 167.872 25.616C166.954 28.496 166.453 30.224 166.368 30.8C166.218 31.76 165.802 32.336 165.12 32.528C164.906 32.592 164.704 32.624 164.512 32.624C163.829 32.624 163.338 32.3573 163.04 31.824C162.869 31.5253 162.784 31.1627 162.784 30.736C162.784 29.8613 163.189 28.2187 164 25.808C164.704 23.696 165.056 22.5973 165.056 22.512C165.056 22.4267 164.906 22.2133 164.608 21.872C164.202 21.4453 163.264 19.8027 161.792 16.944C160.341 14.064 159.488 12.176 159.232 11.28C159.189 11.0667 159.168 10.9067 159.168 10.8C159.168 10.3733 159.296 9.98933 159.552 9.648C159.829 9.30667 160.17 9.09333 160.576 9.008ZM180.782 1.52C181.144 1.15733 181.582 0.975998 182.094 0.975998C182.478 0.975998 182.819 1.09333 183.118 1.328C183.438 1.54133 183.662 1.85067 183.79 2.256C183.854 2.49067 183.96 3.6 184.11 5.584C184.259 7.54667 184.334 8.912 184.334 9.68C184.334 9.872 184.376 9.98933 184.462 10.032C184.568 10.0747 184.814 10.096 185.198 10.096C185.774 10.096 186.104 10.032 186.19 9.904C186.232 9.79733 186.67 9.744 187.502 9.744C188.568 9.744 189.272 9.81867 189.614 9.968C189.934 10.1173 190.179 10.4053 190.35 10.832C190.499 11.1307 190.574 11.376 190.574 11.568C190.574 11.7173 190.542 11.8987 190.478 12.112C190.328 12.6027 190.051 12.9333 189.646 13.104C189.262 13.2533 188.494 13.36 187.342 13.424C186.04 13.488 185.198 13.5733 184.814 13.68L184.302 13.808L184.43 18.32C184.472 20.3253 184.494 21.4027 184.494 21.552C184.494 22.4907 184.419 23.12 184.27 23.44C183.95 24.1227 183.427 24.464 182.702 24.464C182.424 24.464 182.136 24.4 181.838 24.272C181.603 24.1653 181.432 24.0693 181.326 23.984C181.219 23.8773 181.123 23.6107 181.038 23.184C180.952 22.736 180.899 22.2133 180.878 21.616C180.856 21.0187 180.835 20.0373 180.814 18.672L180.75 14.032L179.79 14.064C179.214 14.1067 178.702 14.192 178.254 14.32C178.147 14.3627 177.976 14.384 177.742 14.384C177.016 14.384 176.494 14.16 176.174 13.712C176.003 13.4347 175.918 13.0613 175.918 12.592C175.918 12.1867 175.982 11.8667 176.11 11.632C176.408 11.0987 177.454 10.6933 179.246 10.416L180.718 10.192L180.59 7.376C180.504 5.37067 180.43 4.00533 180.366 3.28C180.323 2.768 180.302 2.49067 180.302 2.448C180.302 2.14933 180.462 1.84 180.782 1.52ZM194.87 1.552C195.233 1.25333 195.606 1.104 195.99 1.104C196.758 1.104 197.324 1.57333 197.686 2.512C197.836 2.93867 197.996 3.96267 198.166 5.584C198.337 7.184 198.476 8.67733 198.582 10.064C198.689 11.4293 198.753 12.112 198.774 12.112C198.817 12.112 199.169 11.8773 199.83 11.408C201.132 10.4907 202.369 10.032 203.542 10.032C204.63 10.032 205.58 10.4373 206.39 11.248C207.222 12.0373 207.873 13.2 208.342 14.736C208.705 15.9307 208.886 17.7867 208.886 20.304C208.886 21.8827 208.79 22.9493 208.598 23.504C208.385 24.08 207.894 24.368 207.126 24.368C206.614 24.368 206.188 24.1973 205.846 23.856L205.366 23.376L205.27 20.144C205.142 15.984 204.566 13.84 203.542 13.712H203.446C202.956 13.712 202.348 13.9893 201.622 14.544C200.897 15.0773 200.374 15.664 200.054 16.304C199.862 16.7307 199.606 17.04 199.286 17.232L198.87 17.52L198.806 21.008C198.764 22.7147 198.721 23.7493 198.678 24.112C198.657 24.4533 198.54 24.7307 198.326 24.944C197.985 25.3067 197.558 25.488 197.046 25.488C196.278 25.488 195.745 25.1467 195.446 24.464C195.297 24.0587 195.19 21.6053 195.126 17.104C195.02 9.57333 194.742 5.06133 194.294 3.568C194.23 3.33333 194.198 3.10933 194.198 2.896C194.198 2.34133 194.422 1.89333 194.87 1.552ZM214.081 8.912C214.166 8.89067 214.294 8.88 214.465 8.88C214.87 8.88 215.244 8.98667 215.585 9.2C215.926 9.392 216.161 9.65867 216.289 10C216.374 10.192 216.46 11.6533 216.545 14.384C216.652 17.0933 216.705 19.2267 216.705 20.784C216.705 21.4453 216.694 21.8293 216.673 21.936C216.566 22.7467 216.214 23.2907 215.617 23.568C215.318 23.696 215.084 23.76 214.913 23.76C214.785 23.76 214.593 23.728 214.337 23.664C213.846 23.5147 213.537 23.312 213.409 23.056C213.153 22.5653 213.004 20.6667 212.961 17.36C212.961 16.7627 212.95 15.728 212.929 14.256L212.897 9.872L213.281 9.424C213.537 9.12533 213.804 8.95467 214.081 8.912ZM213.313 2.896C213.569 2.768 213.814 2.704 214.049 2.704C214.518 2.704 214.934 2.896 215.297 3.28C215.66 3.64267 215.841 4.06933 215.841 4.56C215.841 4.90133 215.756 5.2 215.585 5.456C215.222 6.032 214.732 6.32 214.113 6.32C213.708 6.32 213.334 6.18133 212.993 5.904C212.652 5.62667 212.438 5.24267 212.353 4.752C212.353 4.73067 212.342 4.69867 212.321 4.656C212.321 4.592 212.321 4.54933 212.321 4.528C212.321 4.208 212.417 3.89867 212.609 3.6C212.801 3.28 213.036 3.04533 213.313 2.896ZM220.998 9.072C221.254 8.944 221.521 8.88 221.798 8.88C222.182 8.88 222.545 9.008 222.886 9.264C223.228 9.49867 223.462 9.81867 223.59 10.224L223.782 10.896L224.582 10.416C225.116 10.096 225.852 9.936 226.79 9.936C227.708 9.936 228.465 10.0853 229.062 10.384C229.553 10.6187 230.076 11.0027 230.63 11.536C231.206 12.0693 231.665 12.6027 232.006 13.136C233.158 14.9493 233.788 17.7653 233.894 21.584V22.224C233.894 22.736 233.745 23.152 233.446 23.472C233.084 23.8347 232.657 24.016 232.166 24.016C231.377 24.016 230.854 23.6747 230.598 22.992C230.47 22.6293 230.364 21.9147 230.278 20.848C230.022 17.1147 229.19 14.7787 227.782 13.84C227.484 13.648 227.185 13.552 226.886 13.552C226.332 13.552 225.83 13.8613 225.382 14.48C224.956 15.0773 224.614 15.9307 224.358 17.04C224.252 17.5307 224.124 18.416 223.974 19.696C223.825 20.976 223.75 21.84 223.75 22.288C223.75 22.5013 223.569 22.7893 223.206 23.152C222.844 23.4933 222.428 23.664 221.958 23.664C221.084 23.664 220.508 23.2053 220.23 22.288C220.102 21.84 220.038 19.8987 220.038 16.464C220.038 12.368 220.113 10.1387 220.262 9.776C220.39 9.49867 220.636 9.264 220.998 9.072ZM246.952 12.08C246.653 11.8667 246.397 11.7387 246.184 11.696C245.97 11.632 245.565 11.6 244.968 11.6C243.389 11.6427 242.333 12.048 241.8 12.816C241.586 13.1147 241.394 13.584 241.224 14.224C241.053 14.8427 240.968 15.3653 240.968 15.792C240.968 15.8347 240.968 15.8987 240.968 15.984C240.989 16.048 241 16.0907 241 16.112C241.128 16.752 241.48 17.3173 242.056 17.808C242.653 18.2987 243.346 18.5973 244.135 18.704C244.242 18.7253 244.402 18.736 244.616 18.736C245.426 18.736 246.226 18.3093 247.016 17.456C247.805 16.6027 248.2 15.7067 248.2 14.768C248.2 14.4693 248.189 14.2453 248.168 14.096C248.104 13.5413 248.008 13.1573 247.88 12.944C247.752 12.7307 247.442 12.4427 246.952 12.08ZM242.92 8.144C243.389 8.03733 244.072 7.984 244.968 7.984H245.48C246.269 8.00533 246.792 8.05867 247.048 8.144C247.325 8.208 247.762 8.41067 248.36 8.752C249.149 9.24267 249.8 9.60533 250.312 9.84C250.802 10.0747 251.122 10.32 251.272 10.576C251.485 10.896 251.698 12.3893 251.912 15.056C252.146 17.7013 252.264 20.0373 252.264 22.064C252.264 23.728 252.082 25.1147 251.72 26.224C251.378 27.3547 250.802 28.3787 249.992 29.296C248.648 30.832 246.973 31.6 244.968 31.6C243.709 31.6 242.248 31.312 240.584 30.736C239.858 30.5013 239.378 30.2987 239.144 30.128C238.909 29.9573 238.706 29.6907 238.536 29.328C238.45 29.136 238.408 28.912 238.408 28.656C238.408 28.1653 238.578 27.7493 238.92 27.408C239.176 27.1093 239.549 26.96 240.04 26.96C240.488 26.96 241.138 27.1093 241.992 27.408C242.76 27.6853 243.57 27.8667 244.424 27.952C244.488 27.952 244.562 27.952 244.648 27.952C244.754 27.9733 244.829 27.984 244.872 27.984C246.066 27.984 247.005 27.4507 247.688 26.384C248.05 25.872 248.296 25.392 248.424 24.944C248.573 24.4747 248.68 23.8027 248.744 22.928C248.786 22.3307 248.808 21.968 248.808 21.84C248.808 21.4347 248.712 21.232 248.52 21.232C248.349 21.232 248.05 21.3493 247.624 21.584C246.642 22.0747 245.629 22.32 244.584 22.32C242.792 22.32 241.181 21.7227 239.752 20.528C238.322 19.3333 237.565 17.8613 237.48 16.112C237.48 16.048 237.469 15.952 237.448 15.824C237.448 15.696 237.448 15.6 237.448 15.536C237.448 13.68 237.928 12.1013 238.888 10.8C239.869 9.47733 241.213 8.592 242.92 8.144ZM267.211 4.272C267.552 3.952 267.872 3.792 268.171 3.792C268.342 3.792 268.491 3.80267 268.619 3.824C269.195 3.888 269.6 4.08 269.835 4.4L270.251 4.88L270.187 13.264C270.166 18.7893 270.07 21.7653 269.899 22.192C269.622 22.832 269.088 23.152 268.299 23.152C268.043 23.152 267.851 23.1307 267.723 23.088C267.403 22.9813 267.19 22.9067 267.083 22.864C266.998 22.8 266.891 22.608 266.763 22.288C266.656 21.9467 266.592 21.4773 266.571 20.88C266.55 20.2827 266.539 19.3653 266.539 18.128C266.539 17.7867 266.539 17.0933 266.539 16.048C266.56 15.0027 266.571 14.128 266.571 13.424L266.603 4.784L267.211 4.272ZM284.873 9.072C285.129 8.944 285.396 8.88 285.673 8.88C286.057 8.88 286.42 9.008 286.761 9.264C287.103 9.49867 287.337 9.81867 287.465 10.224L287.657 10.896L288.457 10.416C288.991 10.096 289.727 9.936 290.665 9.936C291.583 9.936 292.34 10.0853 292.937 10.384C293.428 10.6187 293.951 11.0027 294.505 11.536C295.081 12.0693 295.54 12.6027 295.881 13.136C297.033 14.9493 297.663 17.7653 297.769 21.584V22.224C297.769 22.736 297.62 23.152 297.321 23.472C296.959 23.8347 296.532 24.016 296.041 24.016C295.252 24.016 294.729 23.6747 294.473 22.992C294.345 22.6293 294.239 21.9147 294.153 20.848C293.897 17.1147 293.065 14.7787 291.657 13.84C291.359 13.648 291.06 13.552 290.761 13.552C290.207 13.552 289.705 13.8613 289.257 14.48C288.831 15.0773 288.489 15.9307 288.233 17.04C288.127 17.5307 287.999 18.416 287.849 19.696C287.7 20.976 287.625 21.84 287.625 22.288C287.625 22.5013 287.444 22.7893 287.081 23.152C286.719 23.4933 286.303 23.664 285.833 23.664C284.959 23.664 284.383 23.2053 284.105 22.288C283.977 21.84 283.913 19.8987 283.913 16.464C283.913 12.368 283.988 10.1387 284.137 9.776C284.265 9.49867 284.511 9.264 284.873 9.072ZM310.091 12.944C309.707 12.6667 309.099 12.528 308.267 12.528C307.755 12.528 307.349 12.592 307.051 12.72C306.773 12.848 306.453 13.1147 306.091 13.52C305.749 13.904 305.579 14.1813 305.579 14.352C305.579 14.5013 305.739 14.576 306.059 14.576C306.485 14.5547 307.371 14.4587 308.715 14.288C310.059 14.1173 310.752 14.0107 310.795 13.968C310.816 13.9467 310.827 13.9147 310.827 13.872C310.827 13.6373 310.581 13.328 310.091 12.944ZM306.635 9.04C307.019 8.93333 307.488 8.88 308.043 8.88C309.173 8.88 310.144 9.04 310.955 9.36C311.616 9.59467 312.267 10.0533 312.907 10.736C313.568 11.3973 314.112 12.144 314.539 12.976C314.965 13.8293 315.179 14.4053 315.179 14.704C315.179 15.3867 314.88 16.0267 314.283 16.624C313.643 17.2 311.648 17.6267 308.299 17.904C307.019 18.0107 306.187 18.096 305.803 18.16C305.419 18.224 305.227 18.32 305.227 18.448C305.227 18.5547 305.419 18.7787 305.803 19.12C306.464 19.76 307.648 20.144 309.355 20.272C309.525 20.2933 309.749 20.304 310.027 20.304C310.475 20.304 311.008 20.1973 311.627 19.984C312.501 19.664 313.195 19.504 313.707 19.504C314.475 19.504 314.976 19.888 315.211 20.656C315.275 20.848 315.307 21.0293 315.307 21.2C315.307 21.9253 314.848 22.5227 313.931 22.992C313.035 23.44 311.765 23.696 310.123 23.76C310.037 23.76 309.92 23.7707 309.771 23.792C309.621 23.792 309.515 23.792 309.451 23.792C307.637 23.792 306.069 23.44 304.747 22.736C303.445 22.0107 302.464 20.9867 301.803 19.664C301.483 19.024 301.323 18.1707 301.323 17.104C301.323 16.0373 301.429 15.1947 301.643 14.576C302.176 12.976 302.837 11.7493 303.627 10.896C304.416 10.0213 305.419 9.40267 306.635 9.04ZM328.679 13.808C328.295 13.616 327.751 13.52 327.047 13.52C326.279 13.52 325.629 13.6373 325.095 13.872C324.733 14.0213 324.263 14.352 323.687 14.864C323.111 15.3547 322.823 15.6747 322.823 15.824C322.823 15.888 323.154 15.92 323.815 15.92C324.797 15.92 325.97 15.8667 327.335 15.76C328.701 15.6533 329.479 15.536 329.671 15.408C329.735 15.3867 329.767 15.3227 329.767 15.216C329.767 15.024 329.65 14.7787 329.415 14.48C329.181 14.16 328.935 13.936 328.679 13.808ZM324.903 10.096C325.437 9.94667 326.066 9.872 326.791 9.872C328.135 9.872 329.362 10.1387 330.471 10.672C331.303 11.0987 331.997 11.7493 332.551 12.624C333.106 13.4773 333.447 14.4373 333.575 15.504C333.575 15.5467 333.575 15.6107 333.575 15.696C333.597 15.7813 333.607 15.8453 333.607 15.888C333.607 16.4427 333.501 16.9867 333.287 17.52C333.095 18.0533 332.861 18.416 332.583 18.608C332.221 18.864 329.671 19.184 324.935 19.568C323.933 19.6533 323.431 19.7493 323.431 19.856C323.431 19.984 323.655 20.1867 324.103 20.464C324.551 20.7413 324.989 20.9333 325.415 21.04C325.799 21.1253 326.109 21.168 326.343 21.168C327.026 21.168 327.911 20.944 328.999 20.496C329.767 20.176 330.333 20.016 330.695 20.016C331.058 20.016 331.399 20.176 331.719 20.496C332.146 20.9227 332.359 21.328 332.359 21.712C332.359 21.968 332.295 22.2347 332.167 22.512C332.061 22.768 331.911 22.9707 331.719 23.12C331.549 23.2693 331.229 23.4507 330.759 23.664C329.202 24.3467 327.751 24.688 326.407 24.688C325.639 24.688 324.85 24.5707 324.039 24.336C322.951 23.9947 321.959 23.4187 321.063 22.608C320.167 21.776 319.527 20.8587 319.143 19.856C318.909 19.1947 318.791 18.4587 318.791 17.648C318.791 16.4747 318.983 15.4933 319.367 14.704C319.815 13.7227 320.573 12.784 321.639 11.888C322.706 10.992 323.794 10.3947 324.903 10.096ZM345.328 13.616C344.474 13.2107 343.877 13.008 343.536 13.008C343.13 13.008 342.618 13.2853 342 13.84C341.168 14.608 340.752 15.5573 340.752 16.688C340.752 17.6053 341.05 18.2987 341.648 18.768C341.925 18.9813 342.213 19.088 342.512 19.088C342.874 19.088 343.333 18.9387 343.888 18.64C345.68 17.7013 346.576 16.4853 346.576 14.992V14.192L345.328 13.616ZM346.96 2.256C347.322 1.95733 347.749 1.808 348.24 1.808C348.56 1.808 348.826 1.872 349.04 2C349.296 2.14933 349.509 2.39467 349.68 2.736C349.808 2.992 349.893 3.70667 349.936 4.88C350 6.05333 350.042 8.74133 350.064 12.944L350.128 22.576L349.584 23.12C349.221 23.4827 348.805 23.664 348.336 23.664C347.888 23.664 347.482 23.504 347.12 23.184C346.757 22.864 346.576 22.5013 346.576 22.096C346.576 21.7547 346.554 21.5627 346.512 21.52H346.48C346.33 21.52 345.978 21.6587 345.424 21.936C344.378 22.4267 343.397 22.672 342.48 22.672C341.05 22.672 339.802 22.096 338.736 20.944C337.648 19.7493 337.104 18.3413 337.104 16.72C337.104 14.5867 337.936 12.752 339.6 11.216C340.858 10.064 342.224 9.488 343.696 9.488C344.336 9.488 344.922 9.57333 345.456 9.744C346.032 9.936 346.341 10.032 346.384 10.032C346.405 10.032 346.416 8.816 346.416 6.384V2.736L346.96 2.256ZM368.737 8.912C368.823 8.89067 368.951 8.88 369.121 8.88C369.527 8.88 369.9 8.98667 370.241 9.2C370.583 9.392 370.817 9.65867 370.945 10C371.031 10.192 371.116 11.6533 371.201 14.384C371.308 17.0933 371.361 19.2267 371.361 20.784C371.361 21.4453 371.351 21.8293 371.329 21.936C371.223 22.7467 370.871 23.2907 370.273 23.568C369.975 23.696 369.74 23.76 369.569 23.76C369.441 23.76 369.249 23.728 368.993 23.664C368.503 23.5147 368.193 23.312 368.065 23.056C367.809 22.5653 367.66 20.6667 367.617 17.36C367.617 16.7627 367.607 15.728 367.585 14.256L367.553 9.872L367.937 9.424C368.193 9.12533 368.46 8.95467 368.737 8.912ZM367.969 2.896C368.225 2.768 368.471 2.704 368.705 2.704C369.175 2.704 369.591 2.896 369.953 3.28C370.316 3.64267 370.497 4.06933 370.497 4.56C370.497 4.90133 370.412 5.2 370.241 5.456C369.879 6.032 369.388 6.32 368.769 6.32C368.364 6.32 367.991 6.18133 367.649 5.904C367.308 5.62667 367.095 5.24267 367.009 4.752C367.009 4.73067 366.999 4.69867 366.977 4.656C366.977 4.592 366.977 4.54933 366.977 4.528C366.977 4.208 367.073 3.89867 367.265 3.6C367.457 3.28 367.692 3.04533 367.969 2.896ZM379.335 8.496C379.719 8.432 380.113 8.4 380.519 8.4C381.799 8.4 382.94 8.688 383.943 9.264C384.945 9.84 385.447 10.5013 385.447 11.248C385.447 11.44 385.415 11.6107 385.351 11.76C385.031 12.5707 384.551 12.976 383.911 12.976C383.441 12.976 382.908 12.8267 382.311 12.528C381.628 12.1867 380.999 12.016 380.423 12.016C379.804 12.016 379.292 12.2187 378.887 12.624C378.673 12.8373 378.567 13.008 378.567 13.136C378.567 13.3067 378.727 13.5093 379.047 13.744C379.388 13.9573 380.007 14.2987 380.903 14.768C382.375 15.536 383.367 16.1653 383.879 16.656C384.369 17.0827 384.796 17.616 385.159 18.256C385.521 18.8747 385.703 19.3973 385.703 19.824C385.703 20.3147 385.575 20.8053 385.319 21.296C385.063 21.7867 384.743 22.16 384.359 22.416C383.377 23.0773 382.183 23.408 380.775 23.408C379.452 23.408 378.087 23.0987 376.679 22.48C376.017 22.16 375.601 21.7973 375.431 21.392C375.303 21.0933 375.239 20.8267 375.239 20.592C375.239 20.1653 375.441 19.7493 375.847 19.344C376.124 19.024 376.497 18.864 376.967 18.864C377.415 18.864 377.959 19.0027 378.599 19.28C379.303 19.5787 380.113 19.728 381.031 19.728C381.457 19.728 381.671 19.6747 381.671 19.568C381.671 19.312 380.753 18.7253 378.919 17.808C377.489 17.0613 376.444 16.3253 375.783 15.6C375.121 14.8533 374.791 14.032 374.791 13.136C374.791 12.0693 375.228 11.088 376.103 10.192C376.999 9.27467 378.076 8.70933 379.335 8.496ZM411.007 13.68C410.901 13.3387 410.805 13.1467 410.719 13.104C410.634 13.04 410.399 13.008 410.015 13.008C408.906 13.0293 407.871 13.552 406.911 14.576C405.951 15.5787 405.471 16.592 405.471 17.616C405.471 18.128 405.61 18.5547 405.887 18.896C406.506 19.5787 407.157 19.92 407.839 19.92C407.882 19.92 407.925 19.92 407.967 19.92C408.01 19.8987 408.053 19.888 408.095 19.888C408.479 19.8027 408.885 19.5467 409.311 19.12C409.759 18.6933 410.101 18.224 410.335 17.712C410.826 16.56 411.071 15.44 411.071 14.352C411.071 14.032 411.05 13.808 411.007 13.68ZM408.031 9.648C408.607 9.456 409.269 9.36 410.015 9.36C410.997 9.36 411.829 9.52 412.511 9.84C412.959 10.0747 413.365 10.4267 413.727 10.896C414.111 11.344 414.346 11.7707 414.431 12.176C414.517 12.5813 414.634 12.9653 414.783 13.328C415.018 13.9467 415.487 16.272 416.191 20.304C416.298 20.944 416.351 21.424 416.351 21.744C416.351 23.024 415.754 23.664 414.559 23.664C414.154 23.664 413.781 23.504 413.439 23.184C413.119 22.864 412.917 22.4693 412.831 22C412.746 21.5733 412.671 21.328 412.607 21.264C412.522 21.2 412.277 21.3707 411.871 21.776C410.655 22.992 409.258 23.6 407.679 23.6C407.402 23.6 407.114 23.568 406.815 23.504C405.642 23.248 404.543 22.608 403.519 21.584C402.367 20.432 401.791 19.1413 401.791 17.712C401.791 16.5813 402.143 15.3547 402.847 14.032C403.381 13.0293 404.106 12.1333 405.023 11.344C405.962 10.5547 406.965 9.98933 408.031 9.648ZM420.429 1.424C420.77 1.08267 421.176 0.911999 421.645 0.911999C422.093 0.911999 422.488 1.08267 422.829 1.424C423.17 1.76533 423.384 2.32 423.469 3.088C423.49 3.30133 423.501 4.58133 423.501 6.928C423.501 17.8933 423.426 23.6 423.277 24.048C423.192 24.304 423 24.5067 422.701 24.656C422.402 24.8053 422.072 24.88 421.709 24.88C421.282 24.88 420.941 24.7947 420.685 24.624C420.301 24.368 420.056 23.9947 419.949 23.504C419.864 22.992 419.821 21.6267 419.821 19.408C419.821 16.8267 419.832 14.5333 419.853 12.528L419.949 1.904L420.429 1.424ZM427.396 9.328C427.78 9.008 428.196 8.848 428.644 8.848C429.113 8.848 429.518 9.01867 429.86 9.36C430.201 9.68 430.372 10.096 430.372 10.608C430.372 11.12 430.468 11.376 430.66 11.376C430.766 11.376 430.99 11.2587 431.332 11.024C432.91 9.936 434.478 9.392 436.036 9.392C436.697 9.392 437.348 9.50933 437.988 9.744C438.564 9.97867 438.969 10.2347 439.204 10.512C439.438 10.7893 439.556 11.1627 439.556 11.632C439.556 12.144 439.364 12.5813 438.98 12.944C438.66 13.2427 438.372 13.392 438.116 13.392C438.03 13.392 437.433 13.3173 436.324 13.168C436.196 13.1467 436.014 13.136 435.78 13.136C435.438 13.136 435.001 13.2533 434.468 13.488C433.081 14.128 432.11 14.9387 431.556 15.92C431.001 16.9013 430.724 18.3093 430.724 20.144C430.702 21.488 430.542 22.4267 430.244 22.96C429.966 23.4933 429.465 23.76 428.74 23.76C428.249 23.76 427.833 23.5893 427.492 23.248L426.98 22.736L426.916 17.072C426.873 12.8907 426.852 10.736 426.852 10.608C426.852 10.096 427.033 9.66933 427.396 9.328ZM451.841 12.944C451.457 12.6667 450.849 12.528 450.017 12.528C449.505 12.528 449.099 12.592 448.801 12.72C448.523 12.848 448.203 13.1147 447.841 13.52C447.499 13.904 447.329 14.1813 447.329 14.352C447.329 14.5013 447.489 14.576 447.809 14.576C448.235 14.5547 449.121 14.4587 450.465 14.288C451.809 14.1173 452.502 14.0107 452.545 13.968C452.566 13.9467 452.577 13.9147 452.577 13.872C452.577 13.6373 452.331 13.328 451.841 12.944ZM448.385 9.04C448.769 8.93333 449.238 8.88 449.793 8.88C450.923 8.88 451.894 9.04 452.705 9.36C453.366 9.59467 454.017 10.0533 454.657 10.736C455.318 11.3973 455.862 12.144 456.289 12.976C456.715 13.8293 456.929 14.4053 456.929 14.704C456.929 15.3867 456.63 16.0267 456.033 16.624C455.393 17.2 453.398 17.6267 450.049 17.904C448.769 18.0107 447.937 18.096 447.553 18.16C447.169 18.224 446.977 18.32 446.977 18.448C446.977 18.5547 447.169 18.7787 447.553 19.12C448.214 19.76 449.398 20.144 451.105 20.272C451.275 20.2933 451.499 20.304 451.777 20.304C452.225 20.304 452.758 20.1973 453.377 19.984C454.251 19.664 454.945 19.504 455.457 19.504C456.225 19.504 456.726 19.888 456.961 20.656C457.025 20.848 457.057 21.0293 457.057 21.2C457.057 21.9253 456.598 22.5227 455.681 22.992C454.785 23.44 453.515 23.696 451.873 23.76C451.787 23.76 451.67 23.7707 451.521 23.792C451.371 23.792 451.265 23.792 451.201 23.792C449.387 23.792 447.819 23.44 446.497 22.736C445.195 22.0107 444.214 20.9867 443.553 19.664C443.233 19.024 443.073 18.1707 443.073 17.104C443.073 16.0373 443.179 15.1947 443.393 14.576C443.926 12.976 444.587 11.7493 445.377 10.896C446.166 10.0213 447.169 9.40267 448.385 9.04ZM471.645 13.232C471.027 12.6133 470.067 12.304 468.765 12.304C468.125 12.304 467.56 12.4107 467.069 12.624C466.6 12.8373 466.088 13.2533 465.533 13.872C464.979 14.4907 464.616 15.056 464.445 15.568C464.253 16.1227 464.157 16.6453 464.157 17.136C464.157 18.2667 464.605 19.0667 465.501 19.536C466.035 19.8133 466.728 19.952 467.581 19.952C468.157 19.952 468.595 19.8773 468.893 19.728C470.621 18.8533 471.677 17.2853 472.061 15.024L472.253 13.808L471.645 13.232ZM466.781 8.88C467.293 8.73067 467.891 8.656 468.573 8.656C469.725 8.656 470.856 8.85867 471.965 9.264C473.075 9.66933 473.843 10.1813 474.269 10.8C474.568 11.2267 474.952 11.6747 475.421 12.144C475.933 12.6773 476.403 13.5947 476.829 14.896C477.235 16.1333 477.608 17.5093 477.949 19.024C478.312 20.5387 478.493 21.5627 478.493 22.096C478.493 22.6293 478.333 23.0453 478.013 23.344C477.608 23.728 477.224 23.92 476.861 23.92C476.712 23.92 476.52 23.888 476.285 23.824C475.88 23.6747 475.56 23.4187 475.325 23.056C475.112 22.6933 474.92 22.1067 474.749 21.296C474.536 20.336 474.419 19.856 474.397 19.856C474.312 19.856 473.864 20.2613 473.053 21.072C471.453 22.6293 469.789 23.472 468.061 23.6H467.613C466.568 23.6 465.544 23.4187 464.541 23.056C463.56 22.6933 462.781 22.2133 462.205 21.616C461.907 21.3173 461.608 20.8693 461.309 20.272C461.011 19.6533 460.808 19.088 460.701 18.576C460.595 18.0427 460.541 17.5627 460.541 17.136C460.541 15.3653 461.139 13.6693 462.333 12.048C463.549 10.4267 465.032 9.37067 466.781 8.88ZM490.297 13.616C489.443 13.2107 488.846 13.008 488.505 13.008C488.099 13.008 487.587 13.2853 486.969 13.84C486.137 14.608 485.721 15.5573 485.721 16.688C485.721 17.6053 486.019 18.2987 486.617 18.768C486.894 18.9813 487.182 19.088 487.481 19.088C487.843 19.088 488.302 18.9387 488.857 18.64C490.649 17.7013 491.545 16.4853 491.545 14.992V14.192L490.297 13.616ZM491.929 2.256C492.291 1.95733 492.718 1.808 493.209 1.808C493.529 1.808 493.795 1.872 494.009 2C494.265 2.14933 494.478 2.39467 494.649 2.736C494.777 2.992 494.862 3.70667 494.905 4.88C494.969 6.05333 495.011 8.74133 495.033 12.944L495.097 22.576L494.553 23.12C494.19 23.4827 493.774 23.664 493.305 23.664C492.857 23.664 492.451 23.504 492.089 23.184C491.726 22.864 491.545 22.5013 491.545 22.096C491.545 21.7547 491.523 21.5627 491.481 21.52H491.449C491.299 21.52 490.947 21.6587 490.393 21.936C489.347 22.4267 488.366 22.672 487.449 22.672C486.019 22.672 484.771 22.096 483.705 20.944C482.617 19.7493 482.073 18.3413 482.073 16.72C482.073 14.5867 482.905 12.752 484.569 11.216C485.827 10.064 487.193 9.488 488.665 9.488C489.305 9.488 489.891 9.57333 490.425 9.744C491.001 9.936 491.31 10.032 491.353 10.032C491.374 10.032 491.385 8.816 491.385 6.384V2.736L491.929 2.256ZM510.509 8.272C510.723 8.208 510.883 8.176 510.989 8.176C511.075 8.176 511.32 8.26133 511.725 8.432C512.152 8.60267 512.451 8.89067 512.621 9.296C512.707 9.46667 512.749 9.65867 512.749 9.872C512.749 10.192 512.493 11.1627 511.981 12.784C511.043 15.792 509.859 18.8107 508.429 21.84C507.768 23.2907 506.755 25.168 505.389 27.472C504.024 29.7973 503.192 31.0453 502.893 31.216C502.552 31.4293 502.2 31.536 501.837 31.536C501.347 31.536 500.92 31.3653 500.557 31.024C500.216 30.704 500.045 30.2773 500.045 29.744C500.045 29.36 500.387 28.6347 501.069 27.568C501.603 26.736 502.296 25.5627 503.149 24.048C504.003 22.512 504.429 21.6907 504.429 21.584C504.429 21.52 504.195 21.0933 503.725 20.304C503.512 19.9627 502.755 18.576 501.453 16.144C500.173 13.6907 499.395 12.272 499.117 11.888C498.776 11.3973 498.605 10.9067 498.605 10.416C498.605 9.712 498.947 9.21067 499.629 8.912C499.885 8.80533 500.109 8.752 500.301 8.752C500.749 8.752 501.187 9.008 501.613 9.52C502.04 10.0107 502.584 10.864 503.245 12.08C504.675 14.7253 505.645 16.4533 506.157 17.264C506.264 17.4133 506.328 17.488 506.349 17.488C506.435 17.488 506.648 17.0293 506.989 16.112C507.48 14.768 507.971 13.3387 508.461 11.824C508.888 10.4587 509.229 9.552 509.485 9.104C509.763 8.656 510.104 8.37867 510.509 8.272ZM531.456 8.912C531.541 8.89067 531.669 8.88 531.84 8.88C532.245 8.88 532.619 8.98667 532.96 9.2C533.301 9.392 533.536 9.65867 533.664 10C533.749 10.192 533.835 11.6533 533.92 14.384C534.027 17.0933 534.08 19.2267 534.08 20.784C534.08 21.4453 534.069 21.8293 534.048 21.936C533.941 22.7467 533.589 23.2907 532.992 23.568C532.693 23.696 532.459 23.76 532.288 23.76C532.16 23.76 531.968 23.728 531.712 23.664C531.221 23.5147 530.912 23.312 530.784 23.056C530.528 22.5653 530.379 20.6667 530.336 17.36C530.336 16.7627 530.325 15.728 530.304 14.256L530.272 9.872L530.656 9.424C530.912 9.12533 531.179 8.95467 531.456 8.912ZM530.688 2.896C530.944 2.768 531.189 2.704 531.424 2.704C531.893 2.704 532.309 2.896 532.672 3.28C533.035 3.64267 533.216 4.06933 533.216 4.56C533.216 4.90133 533.131 5.2 532.96 5.456C532.597 6.032 532.107 6.32 531.488 6.32C531.083 6.32 530.709 6.18133 530.368 5.904C530.027 5.62667 529.813 5.24267 529.728 4.752C529.728 4.73067 529.717 4.69867 529.696 4.656C529.696 4.592 529.696 4.54933 529.696 4.528C529.696 4.208 529.792 3.89867 529.984 3.6C530.176 3.28 530.411 3.04533 530.688 2.896ZM538.373 9.072C538.629 8.944 538.896 8.88 539.173 8.88C539.557 8.88 539.92 9.008 540.261 9.264C540.603 9.49867 540.837 9.81867 540.965 10.224L541.157 10.896L541.957 10.416C542.491 10.096 543.227 9.936 544.165 9.936C545.083 9.936 545.84 10.0853 546.437 10.384C546.928 10.6187 547.451 11.0027 548.005 11.536C548.581 12.0693 549.04 12.6027 549.381 13.136C550.533 14.9493 551.163 17.7653 551.269 21.584V22.224C551.269 22.736 551.12 23.152 550.821 23.472C550.459 23.8347 550.032 24.016 549.541 24.016C548.752 24.016 548.229 23.6747 547.973 22.992C547.845 22.6293 547.739 21.9147 547.653 20.848C547.397 17.1147 546.565 14.7787 545.157 13.84C544.859 13.648 544.56 13.552 544.261 13.552C543.707 13.552 543.205 13.8613 542.757 14.48C542.331 15.0773 541.989 15.9307 541.733 17.04C541.627 17.5307 541.499 18.416 541.349 19.696C541.2 20.976 541.125 21.84 541.125 22.288C541.125 22.5013 540.944 22.7893 540.581 23.152C540.219 23.4933 539.803 23.664 539.333 23.664C538.459 23.664 537.883 23.2053 537.605 22.288C537.477 21.84 537.413 19.8987 537.413 16.464C537.413 12.368 537.488 10.1387 537.637 9.776C537.765 9.49867 538.011 9.264 538.373 9.072ZM559.335 8.496C559.719 8.432 560.113 8.4 560.519 8.4C561.799 8.4 562.94 8.688 563.943 9.264C564.945 9.84 565.447 10.5013 565.447 11.248C565.447 11.44 565.415 11.6107 565.351 11.76C565.031 12.5707 564.551 12.976 563.911 12.976C563.441 12.976 562.908 12.8267 562.311 12.528C561.628 12.1867 560.999 12.016 560.423 12.016C559.804 12.016 559.292 12.2187 558.887 12.624C558.673 12.8373 558.567 13.008 558.567 13.136C558.567 13.3067 558.727 13.5093 559.047 13.744C559.388 13.9573 560.007 14.2987 560.903 14.768C562.375 15.536 563.367 16.1653 563.879 16.656C564.369 17.0827 564.796 17.616 565.159 18.256C565.521 18.8747 565.703 19.3973 565.703 19.824C565.703 20.3147 565.575 20.8053 565.319 21.296C565.063 21.7867 564.743 22.16 564.359 22.416C563.377 23.0773 562.183 23.408 560.775 23.408C559.452 23.408 558.087 23.0987 556.679 22.48C556.017 22.16 555.601 21.7973 555.431 21.392C555.303 21.0933 555.239 20.8267 555.239 20.592C555.239 20.1653 555.441 19.7493 555.847 19.344C556.124 19.024 556.497 18.864 556.967 18.864C557.415 18.864 557.959 19.0027 558.599 19.28C559.303 19.5787 560.113 19.728 561.031 19.728C561.457 19.728 561.671 19.6747 561.671 19.568C561.671 19.312 560.753 18.7253 558.919 17.808C557.489 17.0613 556.444 16.3253 555.783 15.6C555.121 14.8533 554.791 14.032 554.791 13.136C554.791 12.0693 555.228 11.088 556.103 10.192C556.999 9.27467 558.076 8.70933 559.335 8.496ZM570.894 8.912C570.979 8.89067 571.107 8.88 571.278 8.88C571.683 8.88 572.056 8.98667 572.398 9.2C572.739 9.392 572.974 9.65867 573.102 10C573.187 10.192 573.272 11.6533 573.358 14.384C573.464 17.0933 573.518 19.2267 573.518 20.784C573.518 21.4453 573.507 21.8293 573.486 21.936C573.379 22.7467 573.027 23.2907 572.43 23.568C572.131 23.696 571.896 23.76 571.726 23.76C571.598 23.76 571.406 23.728 571.15 23.664C570.659 23.5147 570.35 23.312 570.222 23.056C569.966 22.5653 569.816 20.6667 569.774 17.36C569.774 16.7627 569.763 15.728 569.742 14.256L569.71 9.872L570.094 9.424C570.35 9.12533 570.616 8.95467 570.894 8.912ZM570.126 2.896C570.382 2.768 570.627 2.704 570.862 2.704C571.331 2.704 571.747 2.896 572.11 3.28C572.472 3.64267 572.654 4.06933 572.654 4.56C572.654 4.90133 572.568 5.2 572.398 5.456C572.035 6.032 571.544 6.32 570.926 6.32C570.52 6.32 570.147 6.18133 569.806 5.904C569.464 5.62667 569.251 5.24267 569.166 4.752C569.166 4.73067 569.155 4.69867 569.134 4.656C569.134 4.592 569.134 4.54933 569.134 4.528C569.134 4.208 569.23 3.89867 569.422 3.6C569.614 3.28 569.848 3.04533 570.126 2.896ZM585.203 13.616C584.349 13.2107 583.752 13.008 583.411 13.008C583.005 13.008 582.493 13.2853 581.875 13.84C581.043 14.608 580.627 15.5573 580.627 16.688C580.627 17.6053 580.925 18.2987 581.523 18.768C581.8 18.9813 582.088 19.088 582.387 19.088C582.749 19.088 583.208 18.9387 583.763 18.64C585.555 17.7013 586.451 16.4853 586.451 14.992V14.192L585.203 13.616ZM586.835 2.256C587.197 1.95733 587.624 1.808 588.115 1.808C588.435 1.808 588.701 1.872 588.915 2C589.171 2.14933 589.384 2.39467 589.555 2.736C589.683 2.992 589.768 3.70667 589.811 4.88C589.875 6.05333 589.917 8.74133 589.939 12.944L590.003 22.576L589.459 23.12C589.096 23.4827 588.68 23.664 588.211 23.664C587.763 23.664 587.357 23.504 586.995 23.184C586.632 22.864 586.451 22.5013 586.451 22.096C586.451 21.7547 586.429 21.5627 586.387 21.52H586.355C586.205 21.52 585.853 21.6587 585.299 21.936C584.253 22.4267 583.272 22.672 582.355 22.672C580.925 22.672 579.677 22.096 578.611 20.944C577.523 19.7493 576.979 18.3413 576.979 16.72C576.979 14.5867 577.811 12.752 579.475 11.216C580.733 10.064 582.099 9.488 583.571 9.488C584.211 9.488 584.797 9.57333 585.331 9.744C585.907 9.936 586.216 10.032 586.259 10.032C586.28 10.032 586.291 8.816 586.291 6.384V2.736L586.835 2.256ZM603.336 13.808C602.952 13.616 602.408 13.52 601.704 13.52C600.936 13.52 600.285 13.6373 599.752 13.872C599.389 14.0213 598.92 14.352 598.344 14.864C597.768 15.3547 597.48 15.6747 597.48 15.824C597.48 15.888 597.81 15.92 598.472 15.92C599.453 15.92 600.626 15.8667 601.992 15.76C603.357 15.6533 604.136 15.536 604.328 15.408C604.392 15.3867 604.424 15.3227 604.424 15.216C604.424 15.024 604.306 14.7787 604.072 14.48C603.837 14.16 603.592 13.936 603.336 13.808ZM599.56 10.096C600.093 9.94667 600.722 9.872 601.448 9.872C602.792 9.872 604.018 10.1387 605.128 10.672C605.96 11.0987 606.653 11.7493 607.208 12.624C607.762 13.4773 608.104 14.4373 608.232 15.504C608.232 15.5467 608.232 15.6107 608.232 15.696C608.253 15.7813 608.264 15.8453 608.264 15.888C608.264 16.4427 608.157 16.9867 607.944 17.52C607.752 18.0533 607.517 18.416 607.24 18.608C606.877 18.864 604.328 19.184 599.592 19.568C598.589 19.6533 598.088 19.7493 598.088 19.856C598.088 19.984 598.312 20.1867 598.76 20.464C599.208 20.7413 599.645 20.9333 600.072 21.04C600.456 21.1253 600.765 21.168 601 21.168C601.682 21.168 602.568 20.944 603.656 20.496C604.424 20.176 604.989 20.016 605.352 20.016C605.714 20.016 606.056 20.176 606.376 20.496C606.802 20.9227 607.016 21.328 607.016 21.712C607.016 21.968 606.952 22.2347 606.824 22.512C606.717 22.768 606.568 22.9707 606.376 23.12C606.205 23.2693 605.885 23.4507 605.416 23.664C603.858 24.3467 602.408 24.688 601.064 24.688C600.296 24.688 599.506 24.5707 598.696 24.336C597.608 23.9947 596.616 23.4187 595.72 22.608C594.824 21.776 594.184 20.8587 593.799 19.856C593.565 19.1947 593.448 18.4587 593.448 17.648C593.448 16.4747 593.64 15.4933 594.024 14.704C594.472 13.7227 595.229 12.784 596.296 11.888C597.362 10.992 598.45 10.3947 599.56 10.096ZM623.32 7.344C623.618 7.30133 623.789 7.26933 623.832 7.248C623.938 7.248 624.184 7.32267 624.568 7.472C624.866 7.6 625.133 7.856 625.368 8.24C625.602 8.624 625.72 8.99733 625.72 9.36C625.72 9.63733 625.773 9.85067 625.88 10C625.965 10.1067 626.04 10.1493 626.104 10.128C626.168 10.1067 626.317 10 626.552 9.808C627.512 8.99733 628.685 8.496 630.072 8.304C630.498 8.26133 630.797 8.24 630.968 8.24C632.056 8.24 632.984 8.63467 633.752 9.424L634.488 10.16L635.416 9.424C636.93 8.208 638.402 7.6 639.832 7.6C640.322 7.6 640.76 7.67467 641.144 7.824C641.57 7.99467 642.029 8.32533 642.52 8.816C643.032 9.28533 643.416 9.78667 643.672 10.32C644.44 11.8773 644.941 14.7787 645.176 19.024C645.218 20.0907 645.24 20.6773 645.24 20.784C645.24 21.3387 645.165 21.7547 645.016 22.032C644.696 22.6507 644.205 22.96 643.544 22.96C643.074 22.96 642.658 22.7893 642.296 22.448L641.72 21.968L641.56 18.992C641.325 14.5547 640.792 11.984 639.96 11.28C639.832 11.1947 639.725 11.152 639.64 11.152C639.469 11.152 639.16 11.2693 638.712 11.504C637.602 12.0373 636.813 12.944 636.344 14.224C636.088 14.8853 635.917 16.2613 635.832 18.352C635.725 20.464 635.618 21.6373 635.512 21.872C635.17 22.4693 634.626 22.768 633.88 22.768C633.474 22.768 633.112 22.64 632.792 22.384C632.322 22 632.088 21.0613 632.088 19.568C632.088 18.8853 632.098 18.32 632.12 17.872C632.12 17.7227 632.12 17.52 632.12 17.264C632.141 16.9867 632.152 16.784 632.152 16.656C632.152 14.5653 631.917 13.1147 631.448 12.304C631.256 11.9627 631.064 11.792 630.872 11.792C630.85 11.792 630.712 11.8133 630.456 11.856C629.09 12.112 627.938 13.2107 627 15.152C626.616 15.9627 626.424 16.816 626.424 17.712C626.424 18.48 626.488 19.4187 626.616 20.528C626.68 20.976 626.712 21.3493 626.712 21.648C626.712 22.4587 626.36 23.0347 625.656 23.376C625.357 23.5253 625.122 23.6 624.952 23.6C624.824 23.6 624.621 23.5467 624.344 23.44C623.81 23.248 623.458 22.8853 623.288 22.352C623.117 21.7973 622.978 20.6133 622.872 18.8C622.722 15.7067 622.466 12.5173 622.104 9.232C622.104 9.18933 622.093 9.12533 622.072 9.04C622.072 8.95467 622.072 8.90133 622.072 8.88C622.072 8.58133 622.2 8.272 622.456 7.952C622.776 7.58933 623.064 7.38667 623.32 7.344ZM658.617 13.808C658.233 13.616 657.689 13.52 656.985 13.52C656.217 13.52 655.566 13.6373 655.033 13.872C654.67 14.0213 654.201 14.352 653.625 14.864C653.049 15.3547 652.761 15.6747 652.761 15.824C652.761 15.888 653.091 15.92 653.753 15.92C654.734 15.92 655.907 15.8667 657.273 15.76C658.638 15.6533 659.417 15.536 659.609 15.408C659.673 15.3867 659.705 15.3227 659.705 15.216C659.705 15.024 659.587 14.7787 659.353 14.48C659.118 14.16 658.873 13.936 658.617 13.808ZM654.841 10.096C655.374 9.94667 656.003 9.872 656.729 9.872C658.073 9.872 659.299 10.1387 660.409 10.672C661.241 11.0987 661.934 11.7493 662.489 12.624C663.043 13.4773 663.385 14.4373 663.513 15.504C663.513 15.5467 663.513 15.6107 663.513 15.696C663.534 15.7813 663.545 15.8453 663.545 15.888C663.545 16.4427 663.438 16.9867 663.225 17.52C663.033 18.0533 662.798 18.416 662.521 18.608C662.158 18.864 659.609 19.184 654.873 19.568C653.87 19.6533 653.369 19.7493 653.369 19.856C653.369 19.984 653.593 20.1867 654.041 20.464C654.489 20.7413 654.926 20.9333 655.353 21.04C655.737 21.1253 656.046 21.168 656.281 21.168C656.963 21.168 657.849 20.944 658.937 20.496C659.705 20.176 660.27 20.016 660.633 20.016C660.995 20.016 661.337 20.176 661.657 20.496C662.083 20.9227 662.297 21.328 662.297 21.712C662.297 21.968 662.233 22.2347 662.105 22.512C661.998 22.768 661.849 22.9707 661.657 23.12C661.486 23.2693 661.166 23.4507 660.697 23.664C659.139 24.3467 657.689 24.688 656.345 24.688C655.577 24.688 654.787 24.5707 653.977 24.336C652.889 23.9947 651.897 23.4187 651.001 22.608C650.105 21.776 649.465 20.8587 649.081 19.856C648.846 19.1947 648.729 18.4587 648.729 17.648C648.729 16.4747 648.921 15.4933 649.305 14.704C649.753 13.7227 650.51 12.784 651.577 11.888C652.643 10.992 653.731 10.3947 654.841 10.096ZM668.161 20.56C668.545 20.4107 668.769 20.336 668.833 20.336L669.441 20.56C670.209 20.88 670.593 21.456 670.593 22.288C670.593 22.736 670.401 23.1627 670.017 23.568C669.655 23.9733 669.271 24.176 668.865 24.176C668.481 24.176 668.119 24.048 667.777 23.792C667.457 23.5147 667.233 23.1733 667.105 22.768C667.041 22.576 667.009 22.3947 667.009 22.224C667.009 21.84 667.116 21.4987 667.329 21.2C667.543 20.88 667.82 20.6667 668.161 20.56Z" fill="#27263C"/>
</svg>
