<svg width="830" height="32" viewBox="0 0 830 32" fill="none" xmlns="http://www.w3.org/2000/svg">
<path d="M1.336 4.272C1.67733 3.952 1.99733 3.792 2.296 3.792C2.46667 3.792 2.616 3.80267 2.744 3.824C3.32 3.888 3.72533 4.08 3.96 4.4L4.376 4.88L4.312 13.264C4.29067 18.7893 4.19467 21.7653 4.024 22.192C3.74667 22.832 3.21333 23.152 2.424 23.152C2.168 23.152 1.976 23.1307 1.848 23.088C1.528 22.9813 1.31467 22.9067 1.208 22.864C1.12267 22.8 1.016 22.608 0.888 22.288C0.781333 21.9467 0.717333 21.4773 0.696 20.88C0.674667 20.2827 0.664 19.3653 0.664 18.128C0.664 17.7867 0.664 17.0933 0.664 16.048C0.685333 15.0027 0.696 14.128 0.696 13.424L0.728 4.784L1.336 4.272ZM22.1158 8.496C22.4998 8.432 22.8944 8.4 23.2998 8.4C24.5798 8.4 25.7211 8.688 26.7238 9.264C27.7264 9.84 28.2278 10.5013 28.2278 11.248C28.2278 11.44 28.1958 11.6107 28.1318 11.76C27.8118 12.5707 27.3318 12.976 26.6918 12.976C26.2224 12.976 25.6891 12.8267 25.0918 12.528C24.4091 12.1867 23.7798 12.016 23.2038 12.016C22.5851 12.016 22.0731 12.2187 21.6678 12.624C21.4544 12.8373 21.3478 13.008 21.3478 13.136C21.3478 13.3067 21.5078 13.5093 21.8278 13.744C22.1691 13.9573 22.7878 14.2987 23.6838 14.768C25.1558 15.536 26.1478 16.1653 26.6598 16.656C27.1504 17.0827 27.5771 17.616 27.9398 18.256C28.3024 18.8747 28.4838 19.3973 28.4838 19.824C28.4838 20.3147 28.3558 20.8053 28.0998 21.296C27.8438 21.7867 27.5238 22.16 27.1398 22.416C26.1584 23.0773 24.9638 23.408 23.5558 23.408C22.2331 23.408 20.8678 23.0987 19.4598 22.48C18.7984 22.16 18.3824 21.7973 18.2118 21.392C18.0838 21.0933 18.0198 20.8267 18.0198 20.592C18.0198 20.1653 18.2224 19.7493 18.6278 19.344C18.9051 19.024 19.2784 18.864 19.7478 18.864C20.1958 18.864 20.7398 19.0027 21.3798 19.28C22.0838 19.5787 22.8944 19.728 23.8118 19.728C24.2384 19.728 24.4518 19.6747 24.4518 19.568C24.4518 19.312 23.5344 18.7253 21.6998 17.808C20.2704 17.0613 19.2251 16.3253 18.5638 15.6C17.9024 14.8533 17.5718 14.032 17.5718 13.136C17.5718 12.0693 18.0091 11.088 18.8838 10.192C19.7798 9.27467 20.8571 8.70933 22.1158 8.496ZM36.9708 2.192C37.3121 1.97867 37.6321 1.872 37.9308 1.872C38.1654 1.872 38.4321 1.936 38.7308 2.064C39.1788 2.27733 39.4668 2.608 39.5948 3.056C39.7228 3.504 39.8081 4.57067 39.8508 6.256L39.9468 9.424L41.4188 9.328C41.5894 9.30667 41.8348 9.296 42.1548 9.296C42.9228 9.296 43.4668 9.43467 43.7868 9.712C44.1281 9.98933 44.2988 10.4373 44.2988 11.056C44.2988 11.7173 44.0748 12.1867 43.6268 12.464C43.2001 12.7413 42.3681 12.9333 41.1308 13.04L39.7868 13.168L39.5628 17.616C39.4134 20.624 39.2748 22.288 39.1468 22.608C38.8694 23.248 38.3361 23.568 37.5468 23.568C37.0988 23.568 36.7468 23.4507 36.4908 23.216C36.2134 23.0027 36.0214 22.768 35.9148 22.512C35.8081 22.256 35.7548 21.84 35.7548 21.264C35.7548 20.7947 35.7868 20.0907 35.8508 19.152C35.9574 17.4667 36.0321 16.0267 36.0748 14.832L36.1068 13.328L34.6668 13.296C33.8561 13.2747 33.3014 13.2107 33.0028 13.104C32.7041 12.976 32.4481 12.72 32.2348 12.336C32.1068 12.08 32.0428 11.8133 32.0428 11.536C32.0428 11.024 32.2561 10.576 32.6828 10.192C32.9174 9.97867 33.2161 9.84 33.5788 9.776C33.9414 9.69067 34.6134 9.60533 35.5948 9.52L36.1068 9.456L36.2348 6.064C36.2561 5.552 36.2668 4.99733 36.2668 4.4C36.2881 3.78133 36.2988 3.32266 36.2988 3.024L36.3308 2.576L36.4268 2.512C36.4908 2.46933 36.5761 2.416 36.6828 2.352C36.7894 2.288 36.8854 2.23467 36.9708 2.192ZM49.2938 9.456C49.3791 9.43467 49.5071 9.424 49.6778 9.424C50.1471 9.424 50.5631 9.57333 50.9258 9.872C51.2884 10.1707 51.5018 10.5547 51.5658 11.024C51.6511 11.4933 51.6938 13.5093 51.6938 17.072L51.7258 22.48L51.1818 22.992C50.8191 23.3547 50.3924 23.536 49.9018 23.536C49.4538 23.536 49.0698 23.376 48.7498 23.056C48.5364 22.8427 48.3871 22.6293 48.3018 22.416C48.2378 22.1813 48.1844 21.7333 48.1418 21.072C48.0778 20.24 48.0458 18.2347 48.0458 15.056L48.0138 10.576L48.4618 10.032C48.7818 9.69067 49.0591 9.49867 49.2938 9.456ZM48.7178 3.088C48.9951 2.93867 49.2831 2.864 49.5818 2.864C50.0724 2.864 50.4884 3.04533 50.8298 3.408C51.1711 3.77067 51.3418 4.18667 51.3418 4.656C51.3418 5.06133 51.1818 5.456 50.8618 5.84C50.4564 6.26667 50.0084 6.48 49.5178 6.48C49.0484 6.48 48.6324 6.32 48.2698 6C47.9284 5.65867 47.7578 5.25333 47.7578 4.784C47.7578 4.50666 47.8218 4.22933 47.9498 3.952C48.1418 3.54667 48.3978 3.25867 48.7178 3.088ZM56.6063 2.864C56.8836 2.75733 57.1289 2.704 57.3423 2.704C57.6623 2.704 57.9823 2.8 58.3023 2.992C58.6223 3.20533 58.8356 3.44 58.9423 3.696C59.0703 3.952 59.1343 4.44267 59.1343 5.168C59.1343 6 59.0916 7.056 59.0063 8.336C58.8569 10.96 58.7609 14.0533 58.7183 17.616C58.7183 21.0933 58.6436 22.9707 58.4943 23.248C58.3876 23.4613 58.1636 23.6747 57.8223 23.888C57.5023 24.08 57.2249 24.176 56.9903 24.176C56.7343 24.176 56.4463 24.0693 56.1263 23.856C55.8063 23.6427 55.5823 23.408 55.4543 23.152C55.1983 22.64 55.0703 20.9227 55.0703 18C55.0703 15.056 55.1983 11.1733 55.4543 6.352C55.5183 5.09333 55.6249 4.24 55.7743 3.792C55.9236 3.344 56.2009 3.03467 56.6063 2.864ZM63.1478 1.424C63.4891 1.08267 63.8944 0.911999 64.3638 0.911999C64.8118 0.911999 65.2064 1.08267 65.5477 1.424C65.8891 1.76533 66.1024 2.32 66.1878 3.088C66.2091 3.30133 66.2198 4.58133 66.2198 6.928C66.2198 17.8933 66.1451 23.6 65.9958 24.048C65.9104 24.304 65.7184 24.5067 65.4198 24.656C65.1211 24.8053 64.7904 24.88 64.4278 24.88C64.0011 24.88 63.6598 24.7947 63.4038 24.624C63.0198 24.368 62.7744 23.9947 62.6678 23.504C62.5824 22.992 62.5398 21.6267 62.5398 19.408C62.5398 16.8267 62.5504 14.5333 62.5718 12.528L62.6678 1.904L63.1478 1.424ZM79.4283 8.816C79.7483 8.496 80.1536 8.336 80.6443 8.336C81.3056 8.336 81.7643 8.56 82.0203 9.008C82.2976 9.43467 82.7349 10.64 83.3323 12.624C83.5029 13.1787 83.7163 13.8933 83.9723 14.768C84.6976 17.072 85.1136 18.2453 85.2203 18.288C85.3483 18.288 85.6363 17.648 86.0843 16.368C86.8096 14.192 87.4069 12.6667 87.8763 11.792C88.3669 10.9173 88.9429 10.3413 89.6043 10.064C89.9243 9.91467 90.2443 9.84 90.5643 9.84C91.0336 9.84 91.4603 10.064 91.8443 10.512C92.2496 10.9387 92.6976 11.664 93.1883 12.688C95.0656 16.6773 96.0576 18.672 96.1643 18.672C96.2069 18.672 96.4523 18 96.9003 16.656C97.3696 15.2907 97.8603 13.8827 98.3723 12.432C98.9056 10.9813 99.2576 10.16 99.4283 9.968C99.7696 9.584 100.175 9.392 100.644 9.392C101.156 9.392 101.626 9.616 102.052 10.064C102.287 10.2987 102.404 10.608 102.404 10.992C102.404 11.6107 101.914 13.36 100.932 16.24C99.9083 19.248 99.1189 21.2213 98.5643 22.16C98.0096 23.0773 97.3163 23.536 96.4843 23.536C96.2283 23.536 96.0363 23.5253 95.9083 23.504C95.2256 23.3973 94.6389 23.0453 94.1483 22.448C93.6576 21.8507 92.9429 20.5707 92.0043 18.608C90.9589 16.432 90.4043 15.344 90.3403 15.344C90.2763 15.344 90.0843 15.792 89.7643 16.688C88.7403 19.632 88.0149 21.5413 87.5883 22.416C87.1616 23.2907 86.7136 23.8347 86.2443 24.048C85.8816 24.1973 85.4549 24.272 84.9643 24.272C84.5376 24.272 84.2069 24.2187 83.9723 24.112C83.5456 23.8987 83.0336 23.0453 82.4363 21.552C81.8389 20.0587 80.9963 17.4987 79.9083 13.872C79.2896 11.824 78.9803 10.512 78.9803 9.936C78.9803 9.488 79.1296 9.11467 79.4283 8.816ZM114.588 11.6C114.012 11.4933 113.532 11.44 113.148 11.44C112.274 11.44 111.538 11.6213 110.94 11.984C110.642 12.176 110.29 12.8267 109.884 13.936C109.5 15.024 109.308 15.8987 109.308 16.56C109.308 17.6267 109.65 18.4907 110.332 19.152C111.036 19.792 111.954 20.1227 113.084 20.144C114.002 20.144 114.855 19.888 115.644 19.376C116.455 18.864 117.042 18.192 117.404 17.36C117.639 16.8267 117.756 16.2187 117.756 15.536C117.756 14.704 117.596 13.9787 117.276 13.36C117.042 12.8693 116.722 12.496 116.316 12.24C115.911 11.984 115.335 11.7707 114.588 11.6ZM110.972 8.176C111.719 7.984 112.455 7.888 113.18 7.888C114.546 7.888 116.007 8.22933 117.564 8.912C118.674 9.40267 119.548 10.2667 120.188 11.504C120.85 12.7413 121.191 14.2027 121.212 15.888V16.08C121.212 18.6187 120.082 20.6773 117.82 22.256C116.412 23.2587 114.844 23.76 113.116 23.76C111.687 23.76 110.364 23.408 109.148 22.704C107.932 21.9787 107.015 20.9653 106.396 19.664C106.183 19.216 106.044 18.832 105.98 18.512C105.938 18.192 105.916 17.52 105.916 16.496C105.938 14.9813 106.098 13.7867 106.396 12.912C107.1 10.9707 107.932 9.65867 108.892 8.976C109.276 8.69867 109.97 8.432 110.972 8.176ZM125.209 8.88C125.55 8.51733 125.966 8.336 126.457 8.336C127.374 8.336 127.961 8.69867 128.217 9.424C128.345 9.85067 128.409 11.0987 128.409 13.168C128.409 15.2587 128.473 16.624 128.601 17.264C128.921 18.736 129.571 19.472 130.553 19.472C130.745 19.472 130.947 19.44 131.161 19.376C131.459 19.2907 131.843 19.0027 132.313 18.512C132.803 18.0213 133.155 17.5733 133.369 17.168C133.753 16.3787 134.094 14.8107 134.393 12.464C134.606 10.864 134.937 9.89333 135.385 9.552C135.683 9.31733 136.014 9.2 136.377 9.2C136.782 9.2 137.155 9.34933 137.497 9.648C137.859 9.92533 138.105 10.288 138.233 10.736C138.339 11.2053 138.521 12.88 138.777 15.76C139.054 18.6187 139.193 20.4427 139.193 21.232V21.488C139.107 21.8933 138.905 22.2133 138.585 22.448C138.265 22.6827 137.913 22.8 137.529 22.8C137.166 22.8 136.814 22.6933 136.473 22.48C136.153 22.2667 135.929 21.9573 135.801 21.552C135.63 21.0613 135.534 20.816 135.513 20.816C135.427 20.816 135.065 21.0613 134.425 21.552C133.145 22.576 131.886 23.088 130.649 23.088H130.553C129.529 23.088 128.611 22.8427 127.801 22.352C126.99 21.8613 126.35 21.168 125.881 20.272C125.433 19.376 125.145 18.5653 125.017 17.84C124.889 17.0933 124.814 15.6533 124.793 13.52L124.697 9.456L125.209 8.88ZM143.242 1.424C143.583 1.08267 143.988 0.911999 144.458 0.911999C144.906 0.911999 145.3 1.08267 145.641 1.424C145.983 1.76533 146.196 2.32 146.282 3.088C146.303 3.30133 146.314 4.58133 146.314 6.928C146.314 17.8933 146.239 23.6 146.09 24.048C146.004 24.304 145.812 24.5067 145.514 24.656C145.215 24.8053 144.884 24.88 144.522 24.88C144.095 24.88 143.754 24.7947 143.498 24.624C143.114 24.368 142.868 23.9947 142.762 23.504C142.676 22.992 142.634 21.6267 142.634 19.408C142.634 16.8267 142.644 14.5333 142.666 12.528L142.762 1.904L143.242 1.424ZM157.984 13.616C157.131 13.2107 156.533 13.008 156.192 13.008C155.787 13.008 155.275 13.2853 154.656 13.84C153.824 14.608 153.408 15.5573 153.408 16.688C153.408 17.6053 153.707 18.2987 154.304 18.768C154.581 18.9813 154.869 19.088 155.168 19.088C155.531 19.088 155.989 18.9387 156.544 18.64C158.336 17.7013 159.232 16.4853 159.232 14.992V14.192L157.984 13.616ZM159.616 2.256C159.979 1.95733 160.405 1.808 160.896 1.808C161.216 1.808 161.483 1.872 161.696 2C161.952 2.14933 162.165 2.39467 162.336 2.736C162.464 2.992 162.549 3.70667 162.592 4.88C162.656 6.05333 162.699 8.74133 162.72 12.944L162.784 22.576L162.24 23.12C161.877 23.4827 161.461 23.664 160.992 23.664C160.544 23.664 160.139 23.504 159.776 23.184C159.413 22.864 159.232 22.5013 159.232 22.096C159.232 21.7547 159.211 21.5627 159.168 21.52H159.136C158.987 21.52 158.635 21.6587 158.08 21.936C157.035 22.4267 156.053 22.672 155.136 22.672C153.707 22.672 152.459 22.096 151.392 20.944C150.304 19.7493 149.76 18.3413 149.76 16.72C149.76 14.5867 150.592 12.752 152.256 11.216C153.515 10.064 154.88 9.488 156.352 9.488C156.992 9.488 157.579 9.57333 158.112 9.744C158.688 9.936 158.997 10.032 159.04 10.032C159.061 10.032 159.072 8.816 159.072 6.384V2.736L159.616 2.256ZM166.645 8.112C166.986 7.74933 167.423 7.568 167.957 7.568C168.319 7.568 168.639 7.664 168.917 7.856C169.151 8.02667 169.354 8.304 169.525 8.688C169.717 9.072 169.813 9.424 169.813 9.744C169.813 10.0853 169.898 10.256 170.069 10.256C170.261 10.256 170.57 10.1173 170.997 9.84C171.423 9.584 171.989 9.34933 172.693 9.136C173.397 8.92267 173.962 8.816 174.389 8.816C174.815 8.816 175.338 8.95467 175.957 9.232C176.597 9.50933 177.098 9.81867 177.461 10.16C178.229 10.9067 178.773 11.952 179.093 13.296C179.434 14.64 179.605 16.5067 179.605 18.896C179.605 20.5813 179.551 21.6907 179.445 22.224C179.338 22.736 179.093 23.0987 178.709 23.312C178.453 23.44 178.143 23.504 177.781 23.504C177.397 23.504 177.077 23.44 176.821 23.312C176.458 23.12 176.223 22.768 176.117 22.256C176.031 21.7227 175.967 20.4427 175.925 18.416C175.882 16.3893 175.797 15.056 175.669 14.416C175.541 13.7547 175.274 13.2213 174.869 12.816C174.655 12.6027 174.389 12.496 174.069 12.496C173.535 12.496 172.959 12.7627 172.341 13.296C171.743 13.808 171.253 14.4693 170.869 15.28C170.677 15.6853 170.559 16.0693 170.517 16.432C170.474 16.7947 170.431 17.6267 170.389 18.928C170.346 20.72 170.261 21.7867 170.133 22.128C169.834 22.9173 169.258 23.312 168.405 23.312C167.701 23.312 167.167 23.0027 166.805 22.384C166.698 22.1493 166.591 20.1547 166.485 16.4C166.357 12.368 166.271 10.1387 166.229 9.712C166.186 9.28533 166.165 9.05067 166.165 9.008C166.165 8.73067 166.325 8.432 166.645 8.112ZM187.904 3.504C187.626 4.63467 187.232 5.872 186.72 7.216C186.208 8.56 185.685 9.81867 185.152 10.992H181.728C182.026 9.73333 182.325 8.38933 182.624 6.96C182.922 5.53067 183.146 4.26133 183.296 3.152H187.68L187.904 3.504ZM194.969 1.52C195.332 1.15733 195.769 0.975998 196.281 0.975998C196.665 0.975998 197.007 1.09333 197.305 1.328C197.625 1.54133 197.849 1.85067 197.977 2.256C198.041 2.49067 198.148 3.6 198.297 5.584C198.447 7.54667 198.521 8.912 198.521 9.68C198.521 9.872 198.564 9.98933 198.649 10.032C198.756 10.0747 199.001 10.096 199.385 10.096C199.961 10.096 200.292 10.032 200.377 9.904C200.42 9.79733 200.857 9.744 201.689 9.744C202.756 9.744 203.46 9.81867 203.801 9.968C204.121 10.1173 204.367 10.4053 204.537 10.832C204.687 11.1307 204.761 11.376 204.761 11.568C204.761 11.7173 204.729 11.8987 204.665 12.112C204.516 12.6027 204.239 12.9333 203.833 13.104C203.449 13.2533 202.681 13.36 201.529 13.424C200.228 13.488 199.385 13.5733 199.001 13.68L198.489 13.808L198.617 18.32C198.66 20.3253 198.681 21.4027 198.681 21.552C198.681 22.4907 198.607 23.12 198.457 23.44C198.137 24.1227 197.615 24.464 196.889 24.464C196.612 24.464 196.324 24.4 196.025 24.272C195.791 24.1653 195.62 24.0693 195.513 23.984C195.407 23.8773 195.311 23.6107 195.225 23.184C195.14 22.736 195.087 22.2133 195.065 21.616C195.044 21.0187 195.023 20.0373 195.001 18.672L194.937 14.032L193.977 14.064C193.401 14.1067 192.889 14.192 192.441 14.32C192.335 14.3627 192.164 14.384 191.929 14.384C191.204 14.384 190.681 14.16 190.361 13.712C190.191 13.4347 190.105 13.0613 190.105 12.592C190.105 12.1867 190.169 11.8667 190.297 11.632C190.596 11.0987 191.641 10.6933 193.433 10.416L194.905 10.192L194.777 7.376C194.692 5.37067 194.617 4.00533 194.553 3.28C194.511 2.768 194.489 2.49067 194.489 2.448C194.489 2.14933 194.649 1.84 194.969 1.52ZM222.647 8.496C223.031 8.432 223.426 8.4 223.831 8.4C225.111 8.4 226.252 8.688 227.255 9.264C228.258 9.84 228.759 10.5013 228.759 11.248C228.759 11.44 228.727 11.6107 228.663 11.76C228.343 12.5707 227.863 12.976 227.223 12.976C226.754 12.976 226.22 12.8267 225.623 12.528C224.94 12.1867 224.311 12.016 223.735 12.016C223.116 12.016 222.604 12.2187 222.199 12.624C221.986 12.8373 221.879 13.008 221.879 13.136C221.879 13.3067 222.039 13.5093 222.359 13.744C222.7 13.9573 223.319 14.2987 224.215 14.768C225.687 15.536 226.679 16.1653 227.191 16.656C227.682 17.0827 228.108 17.616 228.471 18.256C228.834 18.8747 229.015 19.3973 229.015 19.824C229.015 20.3147 228.887 20.8053 228.631 21.296C228.375 21.7867 228.055 22.16 227.671 22.416C226.69 23.0773 225.495 23.408 224.087 23.408C222.764 23.408 221.399 23.0987 219.991 22.48C219.33 22.16 218.914 21.7973 218.743 21.392C218.615 21.0933 218.551 20.8267 218.551 20.592C218.551 20.1653 218.754 19.7493 219.159 19.344C219.436 19.024 219.81 18.864 220.279 18.864C220.727 18.864 221.271 19.0027 221.911 19.28C222.615 19.5787 223.426 19.728 224.343 19.728C224.77 19.728 224.983 19.6747 224.983 19.568C224.983 19.312 224.066 18.7253 222.231 17.808C220.802 17.0613 219.756 16.3253 219.095 15.6C218.434 14.8533 218.103 14.032 218.103 13.136C218.103 12.0693 218.54 11.088 219.415 10.192C220.311 9.27467 221.388 8.70933 222.647 8.496ZM241.726 13.68C241.619 13.3387 241.523 13.1467 241.438 13.104C241.353 13.04 241.118 13.008 240.734 13.008C239.625 13.0293 238.59 13.552 237.63 14.576C236.67 15.5787 236.19 16.592 236.19 17.616C236.19 18.128 236.329 18.5547 236.606 18.896C237.225 19.5787 237.875 19.92 238.558 19.92C238.601 19.92 238.643 19.92 238.686 19.92C238.729 19.8987 238.771 19.888 238.814 19.888C239.198 19.8027 239.603 19.5467 240.03 19.12C240.478 18.6933 240.819 18.224 241.054 17.712C241.545 16.56 241.79 15.44 241.79 14.352C241.79 14.032 241.769 13.808 241.726 13.68ZM238.75 9.648C239.326 9.456 239.987 9.36 240.734 9.36C241.715 9.36 242.547 9.52 243.23 9.84C243.678 10.0747 244.083 10.4267 244.446 10.896C244.83 11.344 245.065 11.7707 245.15 12.176C245.235 12.5813 245.353 12.9653 245.502 13.328C245.737 13.9467 246.206 16.272 246.91 20.304C247.017 20.944 247.07 21.424 247.07 21.744C247.07 23.024 246.473 23.664 245.278 23.664C244.873 23.664 244.499 23.504 244.158 23.184C243.838 22.864 243.635 22.4693 243.55 22C243.465 21.5733 243.39 21.328 243.326 21.264C243.241 21.2 242.995 21.3707 242.59 21.776C241.374 22.992 239.977 23.6 238.398 23.6C238.121 23.6 237.833 23.568 237.534 23.504C236.361 23.248 235.262 22.608 234.238 21.584C233.086 20.432 232.51 19.1413 232.51 17.712C232.51 16.5813 232.862 15.3547 233.566 14.032C234.099 13.0293 234.825 12.1333 235.742 11.344C236.681 10.5547 237.683 9.98933 238.75 9.648ZM262.572 8.272C262.785 8.208 262.945 8.176 263.052 8.176C263.137 8.176 263.382 8.26133 263.788 8.432C264.214 8.60267 264.513 8.89067 264.684 9.296C264.769 9.46667 264.812 9.65867 264.812 9.872C264.812 10.192 264.556 11.1627 264.044 12.784C263.105 15.792 261.921 18.8107 260.492 21.84C259.83 23.2907 258.817 25.168 257.452 27.472C256.086 29.7973 255.254 31.0453 254.956 31.216C254.614 31.4293 254.262 31.536 253.9 31.536C253.409 31.536 252.982 31.3653 252.62 31.024C252.278 30.704 252.108 30.2773 252.108 29.744C252.108 29.36 252.449 28.6347 253.132 27.568C253.665 26.736 254.358 25.5627 255.212 24.048C256.065 22.512 256.492 21.6907 256.492 21.584C256.492 21.52 256.257 21.0933 255.788 20.304C255.574 19.9627 254.817 18.576 253.516 16.144C252.236 13.6907 251.457 12.272 251.18 11.888C250.838 11.3973 250.668 10.9067 250.668 10.416C250.668 9.712 251.009 9.21067 251.692 8.912C251.948 8.80533 252.172 8.752 252.364 8.752C252.812 8.752 253.249 9.008 253.676 9.52C254.102 10.0107 254.646 10.864 255.308 12.08C256.737 14.7253 257.708 16.4533 258.22 17.264C258.326 17.4133 258.39 17.488 258.412 17.488C258.497 17.488 258.71 17.0293 259.052 16.112C259.542 14.768 260.033 13.3387 260.524 11.824C260.95 10.4587 261.292 9.552 261.548 9.104C261.825 8.656 262.166 8.37867 262.572 8.272ZM283.063 1.52C283.426 1.15733 283.863 0.975998 284.375 0.975998C284.759 0.975998 285.1 1.09333 285.399 1.328C285.719 1.54133 285.943 1.85067 286.071 2.256C286.135 2.49067 286.242 3.6 286.391 5.584C286.54 7.54667 286.615 8.912 286.615 9.68C286.615 9.872 286.658 9.98933 286.743 10.032C286.85 10.0747 287.095 10.096 287.479 10.096C288.055 10.096 288.386 10.032 288.471 9.904C288.514 9.79733 288.951 9.744 289.783 9.744C290.85 9.744 291.554 9.81867 291.895 9.968C292.215 10.1173 292.46 10.4053 292.631 10.832C292.78 11.1307 292.855 11.376 292.855 11.568C292.855 11.7173 292.823 11.8987 292.759 12.112C292.61 12.6027 292.332 12.9333 291.927 13.104C291.543 13.2533 290.775 13.36 289.623 13.424C288.322 13.488 287.479 13.5733 287.095 13.68L286.583 13.808L286.711 18.32C286.754 20.3253 286.775 21.4027 286.775 21.552C286.775 22.4907 286.7 23.12 286.551 23.44C286.231 24.1227 285.708 24.464 284.983 24.464C284.706 24.464 284.418 24.4 284.119 24.272C283.884 24.1653 283.714 24.0693 283.607 23.984C283.5 23.8773 283.404 23.6107 283.319 23.184C283.234 22.736 283.18 22.2133 283.159 21.616C283.138 21.0187 283.116 20.0373 283.095 18.672L283.031 14.032L282.071 14.064C281.495 14.1067 280.983 14.192 280.535 14.32C280.428 14.3627 280.258 14.384 280.023 14.384C279.298 14.384 278.775 14.16 278.455 13.712C278.284 13.4347 278.199 13.0613 278.199 12.592C278.199 12.1867 278.263 11.8667 278.391 11.632C278.69 11.0987 279.735 10.6933 281.527 10.416L282.999 10.192L282.871 7.376C282.786 5.37067 282.711 4.00533 282.647 3.28C282.604 2.768 282.583 2.49067 282.583 2.448C282.583 2.14933 282.743 1.84 283.063 1.52ZM297.152 1.552C297.514 1.25333 297.888 1.104 298.272 1.104C299.04 1.104 299.605 1.57333 299.968 2.512C300.117 2.93867 300.277 3.96267 300.448 5.584C300.618 7.184 300.757 8.67733 300.864 10.064C300.97 11.4293 301.034 12.112 301.056 12.112C301.098 12.112 301.45 11.8773 302.112 11.408C303.413 10.4907 304.65 10.032 305.824 10.032C306.912 10.032 307.861 10.4373 308.672 11.248C309.504 12.0373 310.154 13.2 310.624 14.736C310.986 15.9307 311.168 17.7867 311.168 20.304C311.168 21.8827 311.072 22.9493 310.88 23.504C310.666 24.08 310.176 24.368 309.408 24.368C308.896 24.368 308.469 24.1973 308.128 23.856L307.648 23.376L307.552 20.144C307.424 15.984 306.848 13.84 305.824 13.712H305.728C305.237 13.712 304.629 13.9893 303.904 14.544C303.178 15.0773 302.656 15.664 302.336 16.304C302.144 16.7307 301.888 17.04 301.568 17.232L301.152 17.52L301.088 21.008C301.045 22.7147 301.002 23.7493 300.96 24.112C300.938 24.4533 300.821 24.7307 300.608 24.944C300.266 25.3067 299.84 25.488 299.328 25.488C298.56 25.488 298.026 25.1467 297.728 24.464C297.578 24.0587 297.472 21.6053 297.408 17.104C297.301 9.57333 297.024 5.06133 296.576 3.568C296.512 3.33333 296.48 3.10933 296.48 2.896C296.48 2.34133 296.704 1.89333 297.152 1.552ZM323.882 13.68C323.776 13.3387 323.68 13.1467 323.594 13.104C323.509 13.04 323.274 13.008 322.89 13.008C321.781 13.0293 320.746 13.552 319.786 14.576C318.826 15.5787 318.346 16.592 318.346 17.616C318.346 18.128 318.485 18.5547 318.762 18.896C319.381 19.5787 320.032 19.92 320.714 19.92C320.757 19.92 320.8 19.92 320.842 19.92C320.885 19.8987 320.928 19.888 320.97 19.888C321.354 19.8027 321.76 19.5467 322.186 19.12C322.634 18.6933 322.976 18.224 323.21 17.712C323.701 16.56 323.946 15.44 323.946 14.352C323.946 14.032 323.925 13.808 323.882 13.68ZM320.906 9.648C321.482 9.456 322.144 9.36 322.89 9.36C323.872 9.36 324.704 9.52 325.386 9.84C325.834 10.0747 326.24 10.4267 326.602 10.896C326.986 11.344 327.221 11.7707 327.306 12.176C327.392 12.5813 327.509 12.9653 327.658 13.328C327.893 13.9467 328.362 16.272 329.066 20.304C329.173 20.944 329.226 21.424 329.226 21.744C329.226 23.024 328.629 23.664 327.434 23.664C327.029 23.664 326.656 23.504 326.314 23.184C325.994 22.864 325.792 22.4693 325.706 22C325.621 21.5733 325.546 21.328 325.482 21.264C325.397 21.2 325.152 21.3707 324.746 21.776C323.53 22.992 322.133 23.6 320.554 23.6C320.277 23.6 319.989 23.568 319.69 23.504C318.517 23.248 317.418 22.608 316.394 21.584C315.242 20.432 314.666 19.1413 314.666 17.712C314.666 16.5813 315.018 15.3547 315.722 14.032C316.256 13.0293 316.981 12.1333 317.898 11.344C318.837 10.5547 319.84 9.98933 320.906 9.648ZM337.688 1.52C338.051 1.15733 338.488 0.975998 339 0.975998C339.384 0.975998 339.725 1.09333 340.024 1.328C340.344 1.54133 340.568 1.85067 340.696 2.256C340.76 2.49067 340.867 3.6 341.016 5.584C341.165 7.54667 341.24 8.912 341.24 9.68C341.24 9.872 341.283 9.98933 341.368 10.032C341.475 10.0747 341.72 10.096 342.104 10.096C342.68 10.096 343.011 10.032 343.096 9.904C343.139 9.79733 343.576 9.744 344.408 9.744C345.475 9.744 346.179 9.81867 346.52 9.968C346.84 10.1173 347.085 10.4053 347.256 10.832C347.405 11.1307 347.48 11.376 347.48 11.568C347.48 11.7173 347.448 11.8987 347.384 12.112C347.235 12.6027 346.957 12.9333 346.552 13.104C346.168 13.2533 345.4 13.36 344.248 13.424C342.947 13.488 342.104 13.5733 341.72 13.68L341.208 13.808L341.336 18.32C341.379 20.3253 341.4 21.4027 341.4 21.552C341.4 22.4907 341.325 23.12 341.176 23.44C340.856 24.1227 340.333 24.464 339.608 24.464C339.331 24.464 339.043 24.4 338.744 24.272C338.509 24.1653 338.339 24.0693 338.232 23.984C338.125 23.8773 338.029 23.6107 337.944 23.184C337.859 22.736 337.805 22.2133 337.784 21.616C337.763 21.0187 337.741 20.0373 337.72 18.672L337.656 14.032L336.696 14.064C336.12 14.1067 335.608 14.192 335.16 14.32C335.053 14.3627 334.883 14.384 334.648 14.384C333.923 14.384 333.4 14.16 333.08 13.712C332.909 13.4347 332.824 13.0613 332.824 12.592C332.824 12.1867 332.888 11.8667 333.016 11.632C333.315 11.0987 334.36 10.6933 336.152 10.416L337.624 10.192L337.496 7.376C337.411 5.37067 337.336 4.00533 337.272 3.28C337.229 2.768 337.208 2.49067 337.208 2.448C337.208 2.14933 337.368 1.84 337.688 1.52ZM362.524 4.272C362.865 3.952 363.185 3.792 363.484 3.792C363.654 3.792 363.804 3.80267 363.932 3.824C364.508 3.888 364.913 4.08 365.148 4.4L365.564 4.88L365.5 13.264C365.478 18.7893 365.382 21.7653 365.212 22.192C364.934 22.832 364.401 23.152 363.612 23.152C363.356 23.152 363.164 23.1307 363.036 23.088C362.716 22.9813 362.502 22.9067 362.396 22.864C362.31 22.8 362.204 22.608 362.076 22.288C361.969 21.9467 361.905 21.4773 361.884 20.88C361.862 20.2827 361.852 19.3653 361.852 18.128C361.852 17.7867 361.852 17.0933 361.852 16.048C361.873 15.0027 361.884 14.128 361.884 13.424L361.916 4.784L362.524 4.272ZM373.81 3.504C373.533 4.63467 373.138 5.872 372.626 7.216C372.114 8.56 371.591 9.81867 371.058 10.992H367.634C367.933 9.73333 368.231 8.38933 368.53 6.96C368.829 5.53067 369.053 4.26133 369.202 3.152H373.586L373.81 3.504ZM376.972 8.528C377.185 8.42133 377.441 8.368 377.74 8.368C378.828 8.368 379.51 9.28533 379.788 11.12C379.852 11.6747 379.926 11.952 380.012 11.952C380.033 11.952 380.332 11.7067 380.908 11.216C382.081 10.1707 383.276 9.648 384.492 9.648C385.153 9.648 385.782 9.82933 386.38 10.192C386.956 10.5547 387.329 10.8747 387.5 11.152L387.788 11.6L388.556 10.896C389.729 9.85067 390.988 9.328 392.332 9.328C393.633 9.328 394.753 9.82933 395.692 10.832C397.292 12.4747 398.241 15.28 398.54 19.248C398.582 19.9733 398.604 20.4213 398.604 20.592C398.604 21.1467 398.529 21.552 398.38 21.808C398.252 22.064 398.017 22.288 397.676 22.48C397.377 22.6293 397.089 22.704 396.812 22.704C396.342 22.704 395.926 22.4907 395.564 22.064C395.286 21.7013 395.105 21.0827 395.02 20.208C394.849 18.2453 394.636 16.784 394.38 15.824C394.124 14.864 393.761 14.1173 393.292 13.584C392.929 13.2 392.556 13.008 392.172 13.008C391.446 13.008 390.806 13.5733 390.252 14.704C390.038 15.152 389.9 15.568 389.836 15.952C389.772 16.336 389.718 17.2107 389.676 18.576C389.59 20.4533 389.484 21.5733 389.356 21.936C389.057 22.64 388.513 22.992 387.724 22.992C387.254 22.992 386.86 22.832 386.54 22.512C386.028 22 385.708 20.4853 385.58 17.968C385.516 17.008 385.398 16.08 385.228 15.184C385.057 14.288 384.897 13.7547 384.748 13.584C384.62 13.4347 384.481 13.36 384.332 13.36C384.076 13.36 383.649 13.6267 383.052 14.16C382.412 14.7573 381.932 15.3973 381.612 16.08C381.313 16.6987 381.132 17.2 381.068 17.584C381.025 17.9467 380.982 19.1947 380.94 21.328C380.918 21.8827 380.748 22.3307 380.428 22.672C380.108 23.0133 379.702 23.184 379.212 23.184C378.721 23.184 378.326 23.088 378.028 22.896C377.601 22.5973 377.302 22.0213 377.132 21.168C376.961 20.2933 376.769 18.2347 376.556 14.992C376.428 13.072 376.278 11.7707 376.108 11.088C375.98 10.576 375.916 10.2347 375.916 10.064C375.916 9.872 375.98 9.648 376.108 9.392C376.3 8.944 376.588 8.656 376.972 8.528ZM416.813 1.52C417.176 1.15733 417.613 0.975998 418.125 0.975998C418.509 0.975998 418.85 1.09333 419.149 1.328C419.469 1.54133 419.693 1.85067 419.821 2.256C419.885 2.49067 419.992 3.6 420.141 5.584C420.29 7.54667 420.365 8.912 420.365 9.68C420.365 9.872 420.408 9.98933 420.493 10.032C420.6 10.0747 420.845 10.096 421.229 10.096C421.805 10.096 422.136 10.032 422.221 9.904C422.264 9.79733 422.701 9.744 423.533 9.744C424.6 9.744 425.304 9.81867 425.645 9.968C425.965 10.1173 426.21 10.4053 426.381 10.832C426.53 11.1307 426.605 11.376 426.605 11.568C426.605 11.7173 426.573 11.8987 426.509 12.112C426.36 12.6027 426.082 12.9333 425.677 13.104C425.293 13.2533 424.525 13.36 423.373 13.424C422.072 13.488 421.229 13.5733 420.845 13.68L420.333 13.808L420.461 18.32C420.504 20.3253 420.525 21.4027 420.525 21.552C420.525 22.4907 420.45 23.12 420.301 23.44C419.981 24.1227 419.458 24.464 418.733 24.464C418.456 24.464 418.168 24.4 417.869 24.272C417.634 24.1653 417.464 24.0693 417.357 23.984C417.25 23.8773 417.154 23.6107 417.069 23.184C416.984 22.736 416.93 22.2133 416.909 21.616C416.888 21.0187 416.866 20.0373 416.845 18.672L416.781 14.032L415.821 14.064C415.245 14.1067 414.733 14.192 414.285 14.32C414.178 14.3627 414.008 14.384 413.773 14.384C413.048 14.384 412.525 14.16 412.205 13.712C412.034 13.4347 411.949 13.0613 411.949 12.592C411.949 12.1867 412.013 11.8667 412.141 11.632C412.44 11.0987 413.485 10.6933 415.277 10.416L416.749 10.192L416.621 7.376C416.536 5.37067 416.461 4.00533 416.397 3.28C416.354 2.768 416.333 2.49067 416.333 2.448C416.333 2.14933 416.493 1.84 416.813 1.52ZM438.87 11.6C438.294 11.4933 437.814 11.44 437.43 11.44C436.555 11.44 435.819 11.6213 435.222 11.984C434.923 12.176 434.571 12.8267 434.166 13.936C433.782 15.024 433.59 15.8987 433.59 16.56C433.59 17.6267 433.931 18.4907 434.614 19.152C435.318 19.792 436.235 20.1227 437.366 20.144C438.283 20.144 439.136 19.888 439.926 19.376C440.736 18.864 441.323 18.192 441.686 17.36C441.92 16.8267 442.038 16.2187 442.038 15.536C442.038 14.704 441.878 13.9787 441.558 13.36C441.323 12.8693 441.003 12.496 440.598 12.24C440.192 11.984 439.616 11.7707 438.87 11.6ZM435.254 8.176C436 7.984 436.736 7.888 437.462 7.888C438.827 7.888 440.288 8.22933 441.846 8.912C442.955 9.40267 443.83 10.2667 444.47 11.504C445.131 12.7413 445.472 14.2027 445.494 15.888V16.08C445.494 18.6187 444.363 20.6773 442.102 22.256C440.694 23.2587 439.126 23.76 437.398 23.76C435.968 23.76 434.646 23.408 433.43 22.704C432.214 21.9787 431.296 20.9653 430.678 19.664C430.464 19.216 430.326 18.832 430.262 18.512C430.219 18.192 430.198 17.52 430.198 16.496C430.219 14.9813 430.379 13.7867 430.678 12.912C431.382 10.9707 432.214 9.65867 433.174 8.976C433.558 8.69867 434.251 8.432 435.254 8.176ZM454.002 2.192C454.343 1.97867 454.663 1.872 454.962 1.872C455.197 1.872 455.463 1.936 455.762 2.064C456.21 2.27733 456.498 2.608 456.626 3.056C456.754 3.504 456.839 4.57067 456.882 6.256L456.978 9.424L458.45 9.328C458.621 9.30667 458.866 9.296 459.186 9.296C459.954 9.296 460.498 9.43467 460.818 9.712C461.159 9.98933 461.33 10.4373 461.33 11.056C461.33 11.7173 461.106 12.1867 460.658 12.464C460.231 12.7413 459.399 12.9333 458.162 13.04L456.818 13.168L456.594 17.616C456.445 20.624 456.306 22.288 456.178 22.608C455.901 23.248 455.367 23.568 454.578 23.568C454.13 23.568 453.778 23.4507 453.522 23.216C453.245 23.0027 453.053 22.768 452.946 22.512C452.839 22.256 452.786 21.84 452.786 21.264C452.786 20.7947 452.818 20.0907 452.882 19.152C452.989 17.4667 453.063 16.0267 453.106 14.832L453.138 13.328L451.698 13.296C450.887 13.2747 450.333 13.2107 450.034 13.104C449.735 12.976 449.479 12.72 449.266 12.336C449.138 12.08 449.074 11.8133 449.074 11.536C449.074 11.024 449.287 10.576 449.714 10.192C449.949 9.97867 450.247 9.84 450.61 9.776C450.973 9.69067 451.645 9.60533 452.626 9.52L453.138 9.456L453.266 6.064C453.287 5.552 453.298 4.99733 453.298 4.4C453.319 3.78133 453.33 3.32266 453.33 3.024L453.362 2.576L453.458 2.512C453.522 2.46933 453.607 2.416 453.714 2.352C453.821 2.288 453.917 2.23467 454.002 2.192ZM474.101 13.68C473.994 13.3387 473.898 13.1467 473.813 13.104C473.728 13.04 473.493 13.008 473.109 13.008C472 13.0293 470.965 13.552 470.005 14.576C469.045 15.5787 468.565 16.592 468.565 17.616C468.565 18.128 468.704 18.5547 468.981 18.896C469.6 19.5787 470.25 19.92 470.933 19.92C470.976 19.92 471.018 19.92 471.061 19.92C471.104 19.8987 471.146 19.888 471.189 19.888C471.573 19.8027 471.978 19.5467 472.405 19.12C472.853 18.6933 473.194 18.224 473.429 17.712C473.92 16.56 474.165 15.44 474.165 14.352C474.165 14.032 474.144 13.808 474.101 13.68ZM471.125 9.648C471.701 9.456 472.362 9.36 473.109 9.36C474.09 9.36 474.922 9.52 475.605 9.84C476.053 10.0747 476.458 10.4267 476.821 10.896C477.205 11.344 477.44 11.7707 477.525 12.176C477.61 12.5813 477.728 12.9653 477.877 13.328C478.112 13.9467 478.581 16.272 479.285 20.304C479.392 20.944 479.445 21.424 479.445 21.744C479.445 23.024 478.848 23.664 477.653 23.664C477.248 23.664 476.874 23.504 476.533 23.184C476.213 22.864 476.01 22.4693 475.925 22C475.84 21.5733 475.765 21.328 475.701 21.264C475.616 21.2 475.37 21.3707 474.965 21.776C473.749 22.992 472.352 23.6 470.773 23.6C470.496 23.6 470.208 23.568 469.909 23.504C468.736 23.248 467.637 22.608 466.613 21.584C465.461 20.432 464.885 19.1413 464.885 17.712C464.885 16.5813 465.237 15.3547 465.941 14.032C466.474 13.0293 467.2 12.1333 468.117 11.344C469.056 10.5547 470.058 9.98933 471.125 9.648ZM484.419 2.864C484.696 2.75733 484.941 2.704 485.155 2.704C485.475 2.704 485.795 2.8 486.115 2.992C486.435 3.20533 486.648 3.44 486.755 3.696C486.883 3.952 486.947 4.44267 486.947 5.168C486.947 6 486.904 7.056 486.819 8.336C486.669 10.96 486.573 14.0533 486.531 17.616C486.531 21.0933 486.456 22.9707 486.307 23.248C486.2 23.4613 485.976 23.6747 485.635 23.888C485.315 24.08 485.037 24.176 484.803 24.176C484.547 24.176 484.259 24.0693 483.939 23.856C483.619 23.6427 483.395 23.408 483.267 23.152C483.011 22.64 482.883 20.9227 482.883 18C482.883 15.056 483.011 11.1733 483.267 6.352C483.331 5.09333 483.437 4.24 483.587 3.792C483.736 3.344 484.013 3.03467 484.419 2.864ZM491.856 2.864C492.134 2.75733 492.379 2.704 492.592 2.704C492.912 2.704 493.232 2.8 493.552 2.992C493.872 3.20533 494.086 3.44 494.192 3.696C494.32 3.952 494.384 4.44267 494.384 5.168C494.384 6 494.342 7.056 494.256 8.336C494.107 10.96 494.011 14.0533 493.968 17.616C493.968 21.0933 493.894 22.9707 493.744 23.248C493.638 23.4613 493.414 23.6747 493.072 23.888C492.752 24.08 492.475 24.176 492.24 24.176C491.984 24.176 491.696 24.0693 491.376 23.856C491.056 23.6427 490.832 23.408 490.704 23.152C490.448 22.64 490.32 20.9227 490.32 18C490.32 15.056 490.448 11.1733 490.704 6.352C490.768 5.09333 490.875 4.24 491.024 3.792C491.174 3.344 491.451 3.03467 491.856 2.864ZM509.822 8.272C510.035 8.208 510.195 8.176 510.302 8.176C510.387 8.176 510.632 8.26133 511.038 8.432C511.464 8.60267 511.763 8.89067 511.934 9.296C512.019 9.46667 512.062 9.65867 512.062 9.872C512.062 10.192 511.806 11.1627 511.294 12.784C510.355 15.792 509.171 18.8107 507.742 21.84C507.08 23.2907 506.067 25.168 504.702 27.472C503.336 29.7973 502.504 31.0453 502.206 31.216C501.864 31.4293 501.512 31.536 501.15 31.536C500.659 31.536 500.232 31.3653 499.87 31.024C499.528 30.704 499.358 30.2773 499.358 29.744C499.358 29.36 499.699 28.6347 500.382 27.568C500.915 26.736 501.608 25.5627 502.462 24.048C503.315 22.512 503.742 21.6907 503.742 21.584C503.742 21.52 503.507 21.0933 503.038 20.304C502.824 19.9627 502.067 18.576 500.766 16.144C499.486 13.6907 498.707 12.272 498.43 11.888C498.088 11.3973 497.918 10.9067 497.918 10.416C497.918 9.712 498.259 9.21067 498.942 8.912C499.198 8.80533 499.422 8.752 499.614 8.752C500.062 8.752 500.499 9.008 500.926 9.52C501.352 10.0107 501.896 10.864 502.558 12.08C503.987 14.7253 504.958 16.4533 505.47 17.264C505.576 17.4133 505.64 17.488 505.662 17.488C505.747 17.488 505.96 17.0293 506.302 16.112C506.792 14.768 507.283 13.3387 507.774 11.824C508.2 10.4587 508.542 9.552 508.798 9.104C509.075 8.656 509.416 8.37867 509.822 8.272ZM530.313 1.52C530.676 1.15733 531.113 0.975998 531.625 0.975998C532.009 0.975998 532.35 1.09333 532.649 1.328C532.969 1.54133 533.193 1.85067 533.321 2.256C533.385 2.49067 533.492 3.6 533.641 5.584C533.79 7.54667 533.865 8.912 533.865 9.68C533.865 9.872 533.908 9.98933 533.993 10.032C534.1 10.0747 534.345 10.096 534.729 10.096C535.305 10.096 535.636 10.032 535.721 9.904C535.764 9.79733 536.201 9.744 537.033 9.744C538.1 9.744 538.804 9.81867 539.145 9.968C539.465 10.1173 539.71 10.4053 539.881 10.832C540.03 11.1307 540.105 11.376 540.105 11.568C540.105 11.7173 540.073 11.8987 540.009 12.112C539.86 12.6027 539.582 12.9333 539.177 13.104C538.793 13.2533 538.025 13.36 536.873 13.424C535.572 13.488 534.729 13.5733 534.345 13.68L533.833 13.808L533.961 18.32C534.004 20.3253 534.025 21.4027 534.025 21.552C534.025 22.4907 533.95 23.12 533.801 23.44C533.481 24.1227 532.958 24.464 532.233 24.464C531.956 24.464 531.668 24.4 531.369 24.272C531.134 24.1653 530.964 24.0693 530.857 23.984C530.75 23.8773 530.654 23.6107 530.569 23.184C530.484 22.736 530.43 22.2133 530.409 21.616C530.388 21.0187 530.366 20.0373 530.345 18.672L530.281 14.032L529.321 14.064C528.745 14.1067 528.233 14.192 527.785 14.32C527.678 14.3627 527.508 14.384 527.273 14.384C526.548 14.384 526.025 14.16 525.705 13.712C525.534 13.4347 525.449 13.0613 525.449 12.592C525.449 12.1867 525.513 11.8667 525.641 11.632C525.94 11.0987 526.985 10.6933 528.777 10.416L530.249 10.192L530.121 7.376C530.036 5.37067 529.961 4.00533 529.897 3.28C529.854 2.768 529.833 2.49067 529.833 2.448C529.833 2.14933 529.993 1.84 530.313 1.52ZM544.402 1.552C544.764 1.25333 545.138 1.104 545.522 1.104C546.29 1.104 546.855 1.57333 547.218 2.512C547.367 2.93867 547.527 3.96267 547.698 5.584C547.868 7.184 548.007 8.67733 548.114 10.064C548.22 11.4293 548.284 12.112 548.306 12.112C548.348 12.112 548.7 11.8773 549.362 11.408C550.663 10.4907 551.9 10.032 553.074 10.032C554.162 10.032 555.111 10.4373 555.922 11.248C556.754 12.0373 557.404 13.2 557.874 14.736C558.236 15.9307 558.418 17.7867 558.418 20.304C558.418 21.8827 558.322 22.9493 558.13 23.504C557.916 24.08 557.426 24.368 556.658 24.368C556.146 24.368 555.719 24.1973 555.378 23.856L554.898 23.376L554.802 20.144C554.674 15.984 554.098 13.84 553.074 13.712H552.978C552.487 13.712 551.879 13.9893 551.154 14.544C550.428 15.0773 549.906 15.664 549.586 16.304C549.394 16.7307 549.138 17.04 548.818 17.232L548.402 17.52L548.338 21.008C548.295 22.7147 548.252 23.7493 548.21 24.112C548.188 24.4533 548.071 24.7307 547.858 24.944C547.516 25.3067 547.09 25.488 546.578 25.488C545.81 25.488 545.276 25.1467 544.978 24.464C544.828 24.0587 544.722 21.6053 544.658 17.104C544.551 9.57333 544.274 5.06133 543.826 3.568C543.762 3.33333 543.73 3.10933 543.73 2.896C543.73 2.34133 543.954 1.89333 544.402 1.552ZM562.364 9.328C562.748 9.008 563.164 8.848 563.612 8.848C564.082 8.848 564.487 9.01867 564.828 9.36C565.17 9.68 565.34 10.096 565.34 10.608C565.34 11.12 565.436 11.376 565.628 11.376C565.735 11.376 565.959 11.2587 566.3 11.024C567.879 9.936 569.447 9.392 571.004 9.392C571.666 9.392 572.316 9.50933 572.956 9.744C573.532 9.97867 573.938 10.2347 574.172 10.512C574.407 10.7893 574.524 11.1627 574.524 11.632C574.524 12.144 574.332 12.5813 573.948 12.944C573.628 13.2427 573.34 13.392 573.084 13.392C572.999 13.392 572.402 13.3173 571.292 13.168C571.164 13.1467 570.983 13.136 570.748 13.136C570.407 13.136 569.97 13.2533 569.436 13.488C568.05 14.128 567.079 14.9387 566.524 15.92C565.97 16.9013 565.692 18.3093 565.692 20.144C565.671 21.488 565.511 22.4267 565.212 22.96C564.935 23.4933 564.434 23.76 563.708 23.76C563.218 23.76 562.802 23.5893 562.46 23.248L561.948 22.736L561.884 17.072C561.842 12.8907 561.82 10.736 561.82 10.608C561.82 10.096 562.002 9.66933 562.364 9.328ZM579.737 8.912C579.823 8.89067 579.951 8.88 580.121 8.88C580.527 8.88 580.9 8.98667 581.241 9.2C581.583 9.392 581.817 9.65867 581.945 10C582.031 10.192 582.116 11.6533 582.201 14.384C582.308 17.0933 582.361 19.2267 582.361 20.784C582.361 21.4453 582.351 21.8293 582.329 21.936C582.223 22.7467 581.871 23.2907 581.273 23.568C580.975 23.696 580.74 23.76 580.569 23.76C580.441 23.76 580.249 23.728 579.993 23.664C579.503 23.5147 579.193 23.312 579.065 23.056C578.809 22.5653 578.66 20.6667 578.617 17.36C578.617 16.7627 578.607 15.728 578.585 14.256L578.553 9.872L578.937 9.424C579.193 9.12533 579.46 8.95467 579.737 8.912ZM578.969 2.896C579.225 2.768 579.471 2.704 579.705 2.704C580.175 2.704 580.591 2.896 580.953 3.28C581.316 3.64267 581.497 4.06933 581.497 4.56C581.497 4.90133 581.412 5.2 581.241 5.456C580.879 6.032 580.388 6.32 579.769 6.32C579.364 6.32 578.991 6.18133 578.649 5.904C578.308 5.62667 578.095 5.24267 578.009 4.752C578.009 4.73067 577.999 4.69867 577.977 4.656C577.977 4.592 577.977 4.54933 577.977 4.528C577.977 4.208 578.073 3.89867 578.265 3.6C578.457 3.28 578.692 3.04533 578.969 2.896ZM585.887 10.352C585.887 9.904 586.057 9.52 586.399 9.2C586.761 8.85867 587.167 8.688 587.615 8.688C588.127 8.688 588.553 8.88 588.895 9.264C589.236 9.62667 589.609 10.3093 590.015 11.312C590.42 12.3573 591.039 13.7653 591.871 15.536C592.724 17.2853 593.193 18.16 593.279 18.16C593.343 18.16 593.705 17.552 594.367 16.336C594.772 15.568 595.412 14.4373 596.287 12.944C597.183 11.4507 597.705 10.5653 597.855 10.288C598.153 9.75467 598.42 9.41333 598.655 9.264C598.889 9.11467 599.252 9.04 599.743 9.04C600.212 9.04 600.617 9.21067 600.958 9.552C601.321 9.89333 601.503 10.2987 601.503 10.768C601.503 10.8747 601.481 11.0133 601.439 11.184C601.353 11.4613 600.927 12.24 600.159 13.52C597.535 17.808 595.956 20.8267 595.423 22.576C595.081 23.6853 594.399 24.24 593.375 24.24C593.097 24.24 592.799 24.176 592.479 24.048C592.18 23.92 591.903 23.6533 591.647 23.248C591.412 22.8213 590.804 21.6053 589.823 19.6C587.199 14.224 585.887 11.1413 585.887 10.352ZM606.706 8.912C606.791 8.89067 606.919 8.88 607.09 8.88C607.495 8.88 607.869 8.98667 608.21 9.2C608.551 9.392 608.786 9.65867 608.914 10C608.999 10.192 609.085 11.6533 609.17 14.384C609.277 17.0933 609.33 19.2267 609.33 20.784C609.33 21.4453 609.319 21.8293 609.298 21.936C609.191 22.7467 608.839 23.2907 608.242 23.568C607.943 23.696 607.709 23.76 607.538 23.76C607.41 23.76 607.218 23.728 606.962 23.664C606.471 23.5147 606.162 23.312 606.034 23.056C605.778 22.5653 605.629 20.6667 605.586 17.36C605.586 16.7627 605.575 15.728 605.554 14.256L605.522 9.872L605.906 9.424C606.162 9.12533 606.429 8.95467 606.706 8.912ZM605.938 2.896C606.194 2.768 606.439 2.704 606.674 2.704C607.143 2.704 607.559 2.896 607.922 3.28C608.285 3.64267 608.466 4.06933 608.466 4.56C608.466 4.90133 608.381 5.2 608.21 5.456C607.847 6.032 607.357 6.32 606.738 6.32C606.333 6.32 605.959 6.18133 605.618 5.904C605.277 5.62667 605.063 5.24267 604.978 4.752C604.978 4.73067 604.967 4.69867 604.946 4.656C604.946 4.592 604.946 4.54933 604.946 4.528C604.946 4.208 605.042 3.89867 605.234 3.6C605.426 3.28 605.661 3.04533 605.938 2.896ZM613.623 9.072C613.879 8.944 614.146 8.88 614.423 8.88C614.807 8.88 615.17 9.008 615.511 9.264C615.853 9.49867 616.087 9.81867 616.215 10.224L616.407 10.896L617.207 10.416C617.741 10.096 618.477 9.936 619.415 9.936C620.333 9.936 621.09 10.0853 621.687 10.384C622.178 10.6187 622.701 11.0027 623.255 11.536C623.831 12.0693 624.29 12.6027 624.631 13.136C625.783 14.9493 626.413 17.7653 626.519 21.584V22.224C626.519 22.736 626.37 23.152 626.071 23.472C625.709 23.8347 625.282 24.016 624.791 24.016C624.002 24.016 623.479 23.6747 623.223 22.992C623.095 22.6293 622.989 21.9147 622.903 20.848C622.647 17.1147 621.815 14.7787 620.407 13.84C620.109 13.648 619.81 13.552 619.511 13.552C618.957 13.552 618.455 13.8613 618.007 14.48C617.581 15.0773 617.239 15.9307 616.983 17.04C616.877 17.5307 616.749 18.416 616.599 19.696C616.45 20.976 616.375 21.84 616.375 22.288C616.375 22.5013 616.194 22.7893 615.831 23.152C615.469 23.4933 615.053 23.664 614.583 23.664C613.709 23.664 613.133 23.2053 612.855 22.288C612.727 21.84 612.663 19.8987 612.663 16.464C612.663 12.368 612.738 10.1387 612.887 9.776C613.015 9.49867 613.261 9.264 613.623 9.072ZM639.577 12.08C639.278 11.8667 639.022 11.7387 638.809 11.696C638.595 11.632 638.19 11.6 637.593 11.6C636.014 11.6427 634.958 12.048 634.425 12.816C634.211 13.1147 634.019 13.584 633.849 14.224C633.678 14.8427 633.593 15.3653 633.593 15.792C633.593 15.8347 633.593 15.8987 633.593 15.984C633.614 16.048 633.625 16.0907 633.625 16.112C633.753 16.752 634.105 17.3173 634.681 17.808C635.278 18.2987 635.971 18.5973 636.76 18.704C636.867 18.7253 637.027 18.736 637.241 18.736C638.051 18.736 638.851 18.3093 639.641 17.456C640.43 16.6027 640.825 15.7067 640.825 14.768C640.825 14.4693 640.814 14.2453 640.793 14.096C640.729 13.5413 640.633 13.1573 640.505 12.944C640.377 12.7307 640.067 12.4427 639.577 12.08ZM635.545 8.144C636.014 8.03733 636.697 7.984 637.593 7.984H638.105C638.894 8.00533 639.417 8.05867 639.673 8.144C639.95 8.208 640.387 8.41067 640.985 8.752C641.774 9.24267 642.425 9.60533 642.937 9.84C643.427 10.0747 643.747 10.32 643.897 10.576C644.11 10.896 644.323 12.3893 644.537 15.056C644.771 17.7013 644.889 20.0373 644.889 22.064C644.889 23.728 644.707 25.1147 644.345 26.224C644.003 27.3547 643.427 28.3787 642.617 29.296C641.273 30.832 639.598 31.6 637.593 31.6C636.334 31.6 634.873 31.312 633.209 30.736C632.483 30.5013 632.003 30.2987 631.769 30.128C631.534 29.9573 631.331 29.6907 631.161 29.328C631.075 29.136 631.033 28.912 631.033 28.656C631.033 28.1653 631.203 27.7493 631.545 27.408C631.801 27.1093 632.174 26.96 632.665 26.96C633.113 26.96 633.763 27.1093 634.617 27.408C635.385 27.6853 636.195 27.8667 637.049 27.952C637.113 27.952 637.187 27.952 637.273 27.952C637.379 27.9733 637.454 27.984 637.497 27.984C638.691 27.984 639.63 27.4507 640.313 26.384C640.675 25.872 640.921 25.392 641.049 24.944C641.198 24.4747 641.305 23.8027 641.369 22.928C641.411 22.3307 641.433 21.968 641.433 21.84C641.433 21.4347 641.337 21.232 641.145 21.232C640.974 21.232 640.675 21.3493 640.249 21.584C639.267 22.0747 638.254 22.32 637.209 22.32C635.417 22.32 633.806 21.7227 632.377 20.528C630.947 19.3333 630.19 17.8613 630.105 16.112C630.105 16.048 630.094 15.952 630.073 15.824C630.073 15.696 630.073 15.6 630.073 15.536C630.073 13.68 630.553 12.1013 631.513 10.8C632.494 9.47733 633.838 8.592 635.545 8.144ZM663.094 1.52C663.457 1.15733 663.894 0.975998 664.406 0.975998C664.79 0.975998 665.132 1.09333 665.43 1.328C665.75 1.54133 665.974 1.85067 666.102 2.256C666.166 2.49067 666.273 3.6 666.422 5.584C666.572 7.54667 666.646 8.912 666.646 9.68C666.646 9.872 666.689 9.98933 666.774 10.032C666.881 10.0747 667.126 10.096 667.51 10.096C668.086 10.096 668.417 10.032 668.502 9.904C668.545 9.79733 668.982 9.744 669.814 9.744C670.881 9.744 671.585 9.81867 671.926 9.968C672.246 10.1173 672.492 10.4053 672.662 10.832C672.812 11.1307 672.886 11.376 672.886 11.568C672.886 11.7173 672.854 11.8987 672.79 12.112C672.641 12.6027 672.364 12.9333 671.958 13.104C671.574 13.2533 670.806 13.36 669.654 13.424C668.353 13.488 667.51 13.5733 667.126 13.68L666.614 13.808L666.742 18.32C666.785 20.3253 666.806 21.4027 666.806 21.552C666.806 22.4907 666.732 23.12 666.582 23.44C666.262 24.1227 665.74 24.464 665.014 24.464C664.737 24.464 664.449 24.4 664.15 24.272C663.916 24.1653 663.745 24.0693 663.638 23.984C663.532 23.8773 663.436 23.6107 663.35 23.184C663.265 22.736 663.212 22.2133 663.19 21.616C663.169 21.0187 663.148 20.0373 663.126 18.672L663.062 14.032L662.102 14.064C661.526 14.1067 661.014 14.192 660.566 14.32C660.46 14.3627 660.289 14.384 660.054 14.384C659.329 14.384 658.806 14.16 658.486 13.712C658.316 13.4347 658.23 13.0613 658.23 12.592C658.23 12.1867 658.294 11.8667 658.422 11.632C658.721 11.0987 659.766 10.6933 661.558 10.416L663.03 10.192L662.902 7.376C662.817 5.37067 662.742 4.00533 662.678 3.28C662.636 2.768 662.614 2.49067 662.614 2.448C662.614 2.14933 662.774 1.84 663.094 1.52ZM677.183 1.552C677.545 1.25333 677.919 1.104 678.303 1.104C679.071 1.104 679.636 1.57333 679.999 2.512C680.148 2.93867 680.308 3.96267 680.479 5.584C680.649 7.184 680.788 8.67733 680.895 10.064C681.001 11.4293 681.065 12.112 681.087 12.112C681.129 12.112 681.481 11.8773 682.143 11.408C683.444 10.4907 684.681 10.032 685.855 10.032C686.943 10.032 687.892 10.4373 688.703 11.248C689.535 12.0373 690.185 13.2 690.655 14.736C691.017 15.9307 691.199 17.7867 691.199 20.304C691.199 21.8827 691.103 22.9493 690.911 23.504C690.697 24.08 690.207 24.368 689.439 24.368C688.927 24.368 688.5 24.1973 688.159 23.856L687.679 23.376L687.583 20.144C687.455 15.984 686.879 13.84 685.855 13.712H685.759C685.268 13.712 684.66 13.9893 683.935 14.544C683.209 15.0773 682.687 15.664 682.367 16.304C682.175 16.7307 681.919 17.04 681.599 17.232L681.183 17.52L681.119 21.008C681.076 22.7147 681.033 23.7493 680.991 24.112C680.969 24.4533 680.852 24.7307 680.639 24.944C680.297 25.3067 679.871 25.488 679.359 25.488C678.591 25.488 678.057 25.1467 677.759 24.464C677.609 24.0587 677.503 21.6053 677.439 17.104C677.332 9.57333 677.055 5.06133 676.607 3.568C676.543 3.33333 676.511 3.10933 676.511 2.896C676.511 2.34133 676.735 1.89333 677.183 1.552ZM704.586 13.808C704.202 13.616 703.658 13.52 702.954 13.52C702.186 13.52 701.535 13.6373 701.002 13.872C700.639 14.0213 700.17 14.352 699.594 14.864C699.018 15.3547 698.73 15.6747 698.73 15.824C698.73 15.888 699.06 15.92 699.722 15.92C700.703 15.92 701.876 15.8667 703.242 15.76C704.607 15.6533 705.386 15.536 705.578 15.408C705.642 15.3867 705.674 15.3227 705.674 15.216C705.674 15.024 705.556 14.7787 705.322 14.48C705.087 14.16 704.842 13.936 704.586 13.808ZM700.81 10.096C701.343 9.94667 701.972 9.872 702.698 9.872C704.042 9.872 705.268 10.1387 706.378 10.672C707.21 11.0987 707.903 11.7493 708.458 12.624C709.012 13.4773 709.354 14.4373 709.482 15.504C709.482 15.5467 709.482 15.6107 709.482 15.696C709.503 15.7813 709.514 15.8453 709.514 15.888C709.514 16.4427 709.407 16.9867 709.194 17.52C709.002 18.0533 708.767 18.416 708.49 18.608C708.127 18.864 705.578 19.184 700.842 19.568C699.839 19.6533 699.338 19.7493 699.338 19.856C699.338 19.984 699.562 20.1867 700.01 20.464C700.458 20.7413 700.895 20.9333 701.322 21.04C701.706 21.1253 702.015 21.168 702.25 21.168C702.932 21.168 703.818 20.944 704.906 20.496C705.674 20.176 706.239 20.016 706.602 20.016C706.964 20.016 707.306 20.176 707.626 20.496C708.052 20.9227 708.266 21.328 708.266 21.712C708.266 21.968 708.202 22.2347 708.074 22.512C707.967 22.768 707.818 22.9707 707.626 23.12C707.455 23.2693 707.135 23.4507 706.666 23.664C705.108 24.3467 703.658 24.688 702.314 24.688C701.546 24.688 700.756 24.5707 699.946 24.336C698.858 23.9947 697.866 23.4187 696.97 22.608C696.074 21.776 695.434 20.8587 695.049 19.856C694.815 19.1947 694.698 18.4587 694.698 17.648C694.698 16.4747 694.89 15.4933 695.274 14.704C695.722 13.7227 696.479 12.784 697.546 11.888C698.612 10.992 699.7 10.3947 700.81 10.096ZM717.522 8.496C717.906 8.432 718.301 8.4 718.706 8.4C719.986 8.4 721.127 8.688 722.13 9.264C723.133 9.84 723.634 10.5013 723.634 11.248C723.634 11.44 723.602 11.6107 723.538 11.76C723.218 12.5707 722.738 12.976 722.098 12.976C721.629 12.976 721.095 12.8267 720.498 12.528C719.815 12.1867 719.186 12.016 718.61 12.016C717.991 12.016 717.479 12.2187 717.074 12.624C716.861 12.8373 716.754 13.008 716.754 13.136C716.754 13.3067 716.914 13.5093 717.234 13.744C717.575 13.9573 718.194 14.2987 719.09 14.768C720.562 15.536 721.554 16.1653 722.066 16.656C722.557 17.0827 722.983 17.616 723.346 18.256C723.709 18.8747 723.89 19.3973 723.89 19.824C723.89 20.3147 723.762 20.8053 723.506 21.296C723.25 21.7867 722.93 22.16 722.546 22.416C721.565 23.0773 720.37 23.408 718.962 23.408C717.639 23.408 716.274 23.0987 714.866 22.48C714.205 22.16 713.789 21.7973 713.618 21.392C713.49 21.0933 713.426 20.8267 713.426 20.592C713.426 20.1653 713.629 19.7493 714.034 19.344C714.311 19.024 714.685 18.864 715.154 18.864C715.602 18.864 716.146 19.0027 716.786 19.28C717.49 19.5787 718.301 19.728 719.218 19.728C719.645 19.728 719.858 19.6747 719.858 19.568C719.858 19.312 718.941 18.7253 717.106 17.808C715.677 17.0613 714.631 16.3253 713.97 15.6C713.309 14.8533 712.978 14.032 712.978 13.136C712.978 12.0693 713.415 11.088 714.29 10.192C715.186 9.27467 716.263 8.70933 717.522 8.496ZM737.273 13.808C736.889 13.616 736.345 13.52 735.641 13.52C734.873 13.52 734.222 13.6373 733.689 13.872C733.326 14.0213 732.857 14.352 732.281 14.864C731.705 15.3547 731.417 15.6747 731.417 15.824C731.417 15.888 731.748 15.92 732.409 15.92C733.39 15.92 734.564 15.8667 735.929 15.76C737.294 15.6533 738.073 15.536 738.265 15.408C738.329 15.3867 738.361 15.3227 738.361 15.216C738.361 15.024 738.244 14.7787 738.009 14.48C737.774 14.16 737.529 13.936 737.273 13.808ZM733.497 10.096C734.03 9.94667 734.66 9.872 735.385 9.872C736.729 9.872 737.956 10.1387 739.065 10.672C739.897 11.0987 740.59 11.7493 741.145 12.624C741.7 13.4773 742.041 14.4373 742.169 15.504C742.169 15.5467 742.169 15.6107 742.169 15.696C742.19 15.7813 742.201 15.8453 742.201 15.888C742.201 16.4427 742.094 16.9867 741.881 17.52C741.689 18.0533 741.454 18.416 741.177 18.608C740.814 18.864 738.265 19.184 733.529 19.568C732.526 19.6533 732.025 19.7493 732.025 19.856C732.025 19.984 732.249 20.1867 732.697 20.464C733.145 20.7413 733.582 20.9333 734.009 21.04C734.393 21.1253 734.702 21.168 734.937 21.168C735.62 21.168 736.505 20.944 737.593 20.496C738.361 20.176 738.926 20.016 739.289 20.016C739.652 20.016 739.993 20.176 740.313 20.496C740.74 20.9227 740.953 21.328 740.953 21.712C740.953 21.968 740.889 22.2347 740.761 22.512C740.654 22.768 740.505 22.9707 740.313 23.12C740.142 23.2693 739.822 23.4507 739.353 23.664C737.796 24.3467 736.345 24.688 735.001 24.688C734.233 24.688 733.444 24.5707 732.633 24.336C731.545 23.9947 730.553 23.4187 729.657 22.608C728.761 21.776 728.121 20.8587 727.737 19.856C727.502 19.1947 727.385 18.4587 727.385 17.648C727.385 16.4747 727.577 15.4933 727.961 14.704C728.409 13.7227 729.166 12.784 730.233 11.888C731.3 10.992 732.388 10.3947 733.497 10.096ZM767.39 13.616C766.537 13.2107 765.94 13.008 765.598 13.008C765.193 13.008 764.681 13.2853 764.062 13.84C763.23 14.608 762.814 15.5573 762.814 16.688C762.814 17.6053 763.113 18.2987 763.71 18.768C763.988 18.9813 764.276 19.088 764.574 19.088C764.937 19.088 765.396 18.9387 765.95 18.64C767.742 17.7013 768.638 16.4853 768.638 14.992V14.192L767.39 13.616ZM769.022 2.256C769.385 1.95733 769.812 1.808 770.302 1.808C770.622 1.808 770.889 1.872 771.102 2C771.358 2.14933 771.572 2.39467 771.742 2.736C771.87 2.992 771.956 3.70667 771.998 4.88C772.062 6.05333 772.105 8.74133 772.126 12.944L772.19 22.576L771.646 23.12C771.284 23.4827 770.868 23.664 770.398 23.664C769.95 23.664 769.545 23.504 769.182 23.184C768.82 22.864 768.638 22.5013 768.638 22.096C768.638 21.7547 768.617 21.5627 768.574 21.52H768.542C768.393 21.52 768.041 21.6587 767.486 21.936C766.441 22.4267 765.46 22.672 764.542 22.672C763.113 22.672 761.865 22.096 760.798 20.944C759.71 19.7493 759.166 18.3413 759.166 16.72C759.166 14.5867 759.998 12.752 761.662 11.216C762.921 10.064 764.286 9.488 765.758 9.488C766.398 9.488 766.985 9.57333 767.518 9.744C768.094 9.936 768.404 10.032 768.446 10.032C768.468 10.032 768.478 8.816 768.478 6.384V2.736L769.022 2.256ZM784.851 13.68C784.744 13.3387 784.648 13.1467 784.563 13.104C784.478 13.04 784.243 13.008 783.859 13.008C782.75 13.0293 781.715 13.552 780.755 14.576C779.795 15.5787 779.315 16.592 779.315 17.616C779.315 18.128 779.454 18.5547 779.731 18.896C780.35 19.5787 781 19.92 781.683 19.92C781.726 19.92 781.768 19.92 781.811 19.92C781.854 19.8987 781.896 19.888 781.939 19.888C782.323 19.8027 782.728 19.5467 783.155 19.12C783.603 18.6933 783.944 18.224 784.179 17.712C784.67 16.56 784.915 15.44 784.915 14.352C784.915 14.032 784.894 13.808 784.851 13.68ZM781.875 9.648C782.451 9.456 783.112 9.36 783.859 9.36C784.84 9.36 785.672 9.52 786.355 9.84C786.803 10.0747 787.208 10.4267 787.571 10.896C787.955 11.344 788.19 11.7707 788.275 12.176C788.36 12.5813 788.478 12.9653 788.627 13.328C788.862 13.9467 789.331 16.272 790.035 20.304C790.142 20.944 790.195 21.424 790.195 21.744C790.195 23.024 789.598 23.664 788.403 23.664C787.998 23.664 787.624 23.504 787.283 23.184C786.963 22.864 786.76 22.4693 786.675 22C786.59 21.5733 786.515 21.328 786.451 21.264C786.366 21.2 786.12 21.3707 785.715 21.776C784.499 22.992 783.102 23.6 781.523 23.6C781.246 23.6 780.958 23.568 780.659 23.504C779.486 23.248 778.387 22.608 777.363 21.584C776.211 20.432 775.635 19.1413 775.635 17.712C775.635 16.5813 775.987 15.3547 776.691 14.032C777.224 13.0293 777.95 12.1333 778.867 11.344C779.806 10.5547 780.808 9.98933 781.875 9.648ZM805.697 8.272C805.91 8.208 806.07 8.176 806.177 8.176C806.262 8.176 806.507 8.26133 806.913 8.432C807.339 8.60267 807.638 8.89067 807.809 9.296C807.894 9.46667 807.937 9.65867 807.937 9.872C807.937 10.192 807.681 11.1627 807.169 12.784C806.23 15.792 805.046 18.8107 803.617 21.84C802.955 23.2907 801.942 25.168 800.577 27.472C799.211 29.7973 798.379 31.0453 798.081 31.216C797.739 31.4293 797.387 31.536 797.025 31.536C796.534 31.536 796.107 31.3653 795.745 31.024C795.403 30.704 795.233 30.2773 795.233 29.744C795.233 29.36 795.574 28.6347 796.257 27.568C796.79 26.736 797.483 25.5627 798.337 24.048C799.19 22.512 799.617 21.6907 799.617 21.584C799.617 21.52 799.382 21.0933 798.913 20.304C798.699 19.9627 797.942 18.576 796.641 16.144C795.361 13.6907 794.582 12.272 794.305 11.888C793.963 11.3973 793.793 10.9067 793.793 10.416C793.793 9.712 794.134 9.21067 794.817 8.912C795.073 8.80533 795.297 8.752 795.489 8.752C795.937 8.752 796.374 9.008 796.801 9.52C797.227 10.0107 797.771 10.864 798.433 12.08C799.862 14.7253 800.833 16.4533 801.345 17.264C801.451 17.4133 801.515 17.488 801.537 17.488C801.622 17.488 801.835 17.0293 802.177 16.112C802.667 14.768 803.158 13.3387 803.649 11.824C804.075 10.4587 804.417 9.552 804.673 9.104C804.95 8.656 805.291 8.37867 805.697 8.272ZM815.991 8.496C816.375 8.432 816.769 8.4 817.175 8.4C818.455 8.4 819.596 8.688 820.599 9.264C821.601 9.84 822.103 10.5013 822.103 11.248C822.103 11.44 822.071 11.6107 822.007 11.76C821.687 12.5707 821.207 12.976 820.567 12.976C820.097 12.976 819.564 12.8267 818.967 12.528C818.284 12.1867 817.655 12.016 817.079 12.016C816.46 12.016 815.948 12.2187 815.543 12.624C815.329 12.8373 815.223 13.008 815.223 13.136C815.223 13.3067 815.383 13.5093 815.703 13.744C816.044 13.9573 816.663 14.2987 817.559 14.768C819.031 15.536 820.023 16.1653 820.535 16.656C821.025 17.0827 821.452 17.616 821.815 18.256C822.177 18.8747 822.359 19.3973 822.359 19.824C822.359 20.3147 822.231 20.8053 821.975 21.296C821.719 21.7867 821.399 22.16 821.015 22.416C820.033 23.0773 818.839 23.408 817.431 23.408C816.108 23.408 814.743 23.0987 813.335 22.48C812.673 22.16 812.257 21.7973 812.087 21.392C811.959 21.0933 811.895 20.8267 811.895 20.592C811.895 20.1653 812.097 19.7493 812.503 19.344C812.78 19.024 813.153 18.864 813.623 18.864C814.071 18.864 814.615 19.0027 815.255 19.28C815.959 19.5787 816.769 19.728 817.687 19.728C818.113 19.728 818.327 19.6747 818.327 19.568C818.327 19.312 817.409 18.7253 815.575 17.808C814.145 17.0613 813.1 16.3253 812.439 15.6C811.777 14.8533 811.447 14.032 811.447 13.136C811.447 12.0693 811.884 11.088 812.759 10.192C813.655 9.27467 814.732 8.70933 815.991 8.496ZM826.11 21.424C826.28 21.0613 826.472 20.816 826.686 20.688C826.899 20.56 827.272 20.496 827.806 20.496C828.168 20.496 828.414 20.528 828.542 20.592C828.691 20.656 828.862 20.8053 829.054 21.04C829.374 21.424 829.534 21.8293 829.534 22.256C829.534 22.7253 829.331 23.1627 828.926 23.568C828.52 23.9733 828.104 24.176 827.678 24.176C827.251 24.176 826.835 23.9947 826.43 23.632C826.046 23.248 825.854 22.8533 825.854 22.448C825.854 22.128 825.939 21.7867 826.11 21.424Z" fill="#27263C"/>
</svg>
