<svg width="831" height="32" viewBox="0 0 831 32" fill="none" xmlns="http://www.w3.org/2000/svg">
<path d="M1.336 4.272C1.67733 3.952 1.99733 3.792 2.296 3.792C2.46667 3.792 2.616 3.80267 2.744 3.824C3.32 3.888 3.72533 4.08 3.96 4.4L4.376 4.88L4.312 13.264C4.29067 18.7893 4.19467 21.7653 4.024 22.192C3.74667 22.832 3.21333 23.152 2.424 23.152C2.168 23.152 1.976 23.1307 1.848 23.088C1.528 22.9813 1.31467 22.9067 1.208 22.864C1.12267 22.8 1.016 22.608 0.888 22.288C0.781333 21.9467 0.717333 21.4773 0.696 20.88C0.674667 20.2827 0.664 19.3653 0.664 18.128C0.664 17.7867 0.664 17.0933 0.664 16.048C0.685333 15.0027 0.696 14.128 0.696 13.424L0.728 4.784L1.336 4.272ZM22.1158 8.496C22.4998 8.432 22.8944 8.4 23.2998 8.4C24.5798 8.4 25.7211 8.688 26.7238 9.264C27.7264 9.84 28.2278 10.5013 28.2278 11.248C28.2278 11.44 28.1958 11.6107 28.1318 11.76C27.8118 12.5707 27.3318 12.976 26.6918 12.976C26.2224 12.976 25.6891 12.8267 25.0918 12.528C24.4091 12.1867 23.7798 12.016 23.2038 12.016C22.5851 12.016 22.0731 12.2187 21.6678 12.624C21.4544 12.8373 21.3478 13.008 21.3478 13.136C21.3478 13.3067 21.5078 13.5093 21.8278 13.744C22.1691 13.9573 22.7878 14.2987 23.6838 14.768C25.1558 15.536 26.1478 16.1653 26.6598 16.656C27.1504 17.0827 27.5771 17.616 27.9398 18.256C28.3024 18.8747 28.4838 19.3973 28.4838 19.824C28.4838 20.3147 28.3558 20.8053 28.0998 21.296C27.8438 21.7867 27.5238 22.16 27.1398 22.416C26.1584 23.0773 24.9638 23.408 23.5558 23.408C22.2331 23.408 20.8678 23.0987 19.4598 22.48C18.7984 22.16 18.3824 21.7973 18.2118 21.392C18.0838 21.0933 18.0198 20.8267 18.0198 20.592C18.0198 20.1653 18.2224 19.7493 18.6278 19.344C18.9051 19.024 19.2784 18.864 19.7478 18.864C20.1958 18.864 20.7398 19.0027 21.3798 19.28C22.0838 19.5787 22.8944 19.728 23.8118 19.728C24.2384 19.728 24.4518 19.6747 24.4518 19.568C24.4518 19.312 23.5344 18.7253 21.6998 17.808C20.2704 17.0613 19.2251 16.3253 18.5638 15.6C17.9024 14.8533 17.5718 14.032 17.5718 13.136C17.5718 12.0693 18.0091 11.088 18.8838 10.192C19.7798 9.27467 20.8571 8.70933 22.1158 8.496ZM36.9708 2.192C37.3121 1.97867 37.6321 1.872 37.9308 1.872C38.1654 1.872 38.4321 1.936 38.7308 2.064C39.1788 2.27733 39.4668 2.608 39.5948 3.056C39.7228 3.504 39.8081 4.57067 39.8508 6.256L39.9468 9.424L41.4188 9.328C41.5894 9.30667 41.8348 9.296 42.1548 9.296C42.9228 9.296 43.4668 9.43467 43.7868 9.712C44.1281 9.98933 44.2988 10.4373 44.2988 11.056C44.2988 11.7173 44.0748 12.1867 43.6268 12.464C43.2001 12.7413 42.3681 12.9333 41.1308 13.04L39.7868 13.168L39.5628 17.616C39.4134 20.624 39.2748 22.288 39.1468 22.608C38.8694 23.248 38.3361 23.568 37.5468 23.568C37.0988 23.568 36.7468 23.4507 36.4908 23.216C36.2134 23.0027 36.0214 22.768 35.9148 22.512C35.8081 22.256 35.7548 21.84 35.7548 21.264C35.7548 20.7947 35.7868 20.0907 35.8508 19.152C35.9574 17.4667 36.0321 16.0267 36.0748 14.832L36.1068 13.328L34.6668 13.296C33.8561 13.2747 33.3014 13.2107 33.0028 13.104C32.7041 12.976 32.4481 12.72 32.2348 12.336C32.1068 12.08 32.0428 11.8133 32.0428 11.536C32.0428 11.024 32.2561 10.576 32.6828 10.192C32.9174 9.97867 33.2161 9.84 33.5788 9.776C33.9414 9.69067 34.6134 9.60533 35.5948 9.52L36.1068 9.456L36.2348 6.064C36.2561 5.552 36.2668 4.99733 36.2668 4.4C36.2881 3.78133 36.2988 3.32266 36.2988 3.024L36.3308 2.576L36.4268 2.512C36.4908 2.46933 36.5761 2.416 36.6828 2.352C36.7894 2.288 36.8854 2.23467 36.9708 2.192ZM49.2938 9.456C49.3791 9.43467 49.5071 9.424 49.6778 9.424C50.1471 9.424 50.5631 9.57333 50.9258 9.872C51.2884 10.1707 51.5018 10.5547 51.5658 11.024C51.6511 11.4933 51.6938 13.5093 51.6938 17.072L51.7258 22.48L51.1818 22.992C50.8191 23.3547 50.3924 23.536 49.9018 23.536C49.4538 23.536 49.0698 23.376 48.7498 23.056C48.5364 22.8427 48.3871 22.6293 48.3018 22.416C48.2378 22.1813 48.1844 21.7333 48.1418 21.072C48.0778 20.24 48.0458 18.2347 48.0458 15.056L48.0138 10.576L48.4618 10.032C48.7818 9.69067 49.0591 9.49867 49.2938 9.456ZM48.7178 3.088C48.9951 2.93867 49.2831 2.864 49.5818 2.864C50.0724 2.864 50.4884 3.04533 50.8298 3.408C51.1711 3.77067 51.3418 4.18667 51.3418 4.656C51.3418 5.06133 51.1818 5.456 50.8618 5.84C50.4564 6.26667 50.0084 6.48 49.5178 6.48C49.0484 6.48 48.6324 6.32 48.2698 6C47.9284 5.65867 47.7578 5.25333 47.7578 4.784C47.7578 4.50666 47.8218 4.22933 47.9498 3.952C48.1418 3.54667 48.3978 3.25867 48.7178 3.088ZM56.6063 2.864C56.8836 2.75733 57.1289 2.704 57.3423 2.704C57.6623 2.704 57.9823 2.8 58.3023 2.992C58.6223 3.20533 58.8356 3.44 58.9423 3.696C59.0703 3.952 59.1343 4.44267 59.1343 5.168C59.1343 6 59.0916 7.056 59.0063 8.336C58.8569 10.96 58.7609 14.0533 58.7183 17.616C58.7183 21.0933 58.6436 22.9707 58.4943 23.248C58.3876 23.4613 58.1636 23.6747 57.8223 23.888C57.5023 24.08 57.2249 24.176 56.9903 24.176C56.7343 24.176 56.4463 24.0693 56.1263 23.856C55.8063 23.6427 55.5823 23.408 55.4543 23.152C55.1983 22.64 55.0703 20.9227 55.0703 18C55.0703 15.056 55.1983 11.1733 55.4543 6.352C55.5183 5.09333 55.6249 4.24 55.7743 3.792C55.9236 3.344 56.2009 3.03467 56.6063 2.864ZM63.1478 1.424C63.4891 1.08267 63.8944 0.911999 64.3638 0.911999C64.8118 0.911999 65.2064 1.08267 65.5477 1.424C65.8891 1.76533 66.1024 2.32 66.1878 3.088C66.2091 3.30133 66.2198 4.58133 66.2198 6.928C66.2198 17.8933 66.1451 23.6 65.9958 24.048C65.9104 24.304 65.7184 24.5067 65.4198 24.656C65.1211 24.8053 64.7904 24.88 64.4278 24.88C64.0011 24.88 63.6598 24.7947 63.4038 24.624C63.0198 24.368 62.7744 23.9947 62.6678 23.504C62.5824 22.992 62.5398 21.6267 62.5398 19.408C62.5398 16.8267 62.5504 14.5333 62.5718 12.528L62.6678 1.904L63.1478 1.424ZM79.4283 8.816C79.7483 8.496 80.1536 8.336 80.6443 8.336C81.3056 8.336 81.7643 8.56 82.0203 9.008C82.2976 9.43467 82.7349 10.64 83.3323 12.624C83.5029 13.1787 83.7163 13.8933 83.9723 14.768C84.6976 17.072 85.1136 18.2453 85.2203 18.288C85.3483 18.288 85.6363 17.648 86.0843 16.368C86.8096 14.192 87.4069 12.6667 87.8763 11.792C88.3669 10.9173 88.9429 10.3413 89.6043 10.064C89.9243 9.91467 90.2443 9.84 90.5643 9.84C91.0336 9.84 91.4603 10.064 91.8443 10.512C92.2496 10.9387 92.6976 11.664 93.1883 12.688C95.0656 16.6773 96.0576 18.672 96.1643 18.672C96.2069 18.672 96.4523 18 96.9003 16.656C97.3696 15.2907 97.8603 13.8827 98.3723 12.432C98.9056 10.9813 99.2576 10.16 99.4283 9.968C99.7696 9.584 100.175 9.392 100.644 9.392C101.156 9.392 101.626 9.616 102.052 10.064C102.287 10.2987 102.404 10.608 102.404 10.992C102.404 11.6107 101.914 13.36 100.932 16.24C99.9083 19.248 99.1189 21.2213 98.5643 22.16C98.0096 23.0773 97.3163 23.536 96.4843 23.536C96.2283 23.536 96.0363 23.5253 95.9083 23.504C95.2256 23.3973 94.6389 23.0453 94.1483 22.448C93.6576 21.8507 92.9429 20.5707 92.0043 18.608C90.9589 16.432 90.4043 15.344 90.3403 15.344C90.2763 15.344 90.0843 15.792 89.7643 16.688C88.7403 19.632 88.0149 21.5413 87.5883 22.416C87.1616 23.2907 86.7136 23.8347 86.2443 24.048C85.8816 24.1973 85.4549 24.272 84.9643 24.272C84.5376 24.272 84.2069 24.2187 83.9723 24.112C83.5456 23.8987 83.0336 23.0453 82.4363 21.552C81.8389 20.0587 80.9963 17.4987 79.9083 13.872C79.2896 11.824 78.9803 10.512 78.9803 9.936C78.9803 9.488 79.1296 9.11467 79.4283 8.816ZM114.588 11.6C114.012 11.4933 113.532 11.44 113.148 11.44C112.274 11.44 111.538 11.6213 110.94 11.984C110.642 12.176 110.29 12.8267 109.884 13.936C109.5 15.024 109.308 15.8987 109.308 16.56C109.308 17.6267 109.65 18.4907 110.332 19.152C111.036 19.792 111.954 20.1227 113.084 20.144C114.002 20.144 114.855 19.888 115.644 19.376C116.455 18.864 117.042 18.192 117.404 17.36C117.639 16.8267 117.756 16.2187 117.756 15.536C117.756 14.704 117.596 13.9787 117.276 13.36C117.042 12.8693 116.722 12.496 116.316 12.24C115.911 11.984 115.335 11.7707 114.588 11.6ZM110.972 8.176C111.719 7.984 112.455 7.888 113.18 7.888C114.546 7.888 116.007 8.22933 117.564 8.912C118.674 9.40267 119.548 10.2667 120.188 11.504C120.85 12.7413 121.191 14.2027 121.212 15.888V16.08C121.212 18.6187 120.082 20.6773 117.82 22.256C116.412 23.2587 114.844 23.76 113.116 23.76C111.687 23.76 110.364 23.408 109.148 22.704C107.932 21.9787 107.015 20.9653 106.396 19.664C106.183 19.216 106.044 18.832 105.98 18.512C105.938 18.192 105.916 17.52 105.916 16.496C105.938 14.9813 106.098 13.7867 106.396 12.912C107.1 10.9707 107.932 9.65867 108.892 8.976C109.276 8.69867 109.97 8.432 110.972 8.176ZM125.209 8.88C125.55 8.51733 125.966 8.336 126.457 8.336C127.374 8.336 127.961 8.69867 128.217 9.424C128.345 9.85067 128.409 11.0987 128.409 13.168C128.409 15.2587 128.473 16.624 128.601 17.264C128.921 18.736 129.571 19.472 130.553 19.472C130.745 19.472 130.947 19.44 131.161 19.376C131.459 19.2907 131.843 19.0027 132.313 18.512C132.803 18.0213 133.155 17.5733 133.369 17.168C133.753 16.3787 134.094 14.8107 134.393 12.464C134.606 10.864 134.937 9.89333 135.385 9.552C135.683 9.31733 136.014 9.2 136.377 9.2C136.782 9.2 137.155 9.34933 137.497 9.648C137.859 9.92533 138.105 10.288 138.233 10.736C138.339 11.2053 138.521 12.88 138.777 15.76C139.054 18.6187 139.193 20.4427 139.193 21.232V21.488C139.107 21.8933 138.905 22.2133 138.585 22.448C138.265 22.6827 137.913 22.8 137.529 22.8C137.166 22.8 136.814 22.6933 136.473 22.48C136.153 22.2667 135.929 21.9573 135.801 21.552C135.63 21.0613 135.534 20.816 135.513 20.816C135.427 20.816 135.065 21.0613 134.425 21.552C133.145 22.576 131.886 23.088 130.649 23.088H130.553C129.529 23.088 128.611 22.8427 127.801 22.352C126.99 21.8613 126.35 21.168 125.881 20.272C125.433 19.376 125.145 18.5653 125.017 17.84C124.889 17.0933 124.814 15.6533 124.793 13.52L124.697 9.456L125.209 8.88ZM143.242 1.424C143.583 1.08267 143.988 0.911999 144.458 0.911999C144.906 0.911999 145.3 1.08267 145.641 1.424C145.983 1.76533 146.196 2.32 146.282 3.088C146.303 3.30133 146.314 4.58133 146.314 6.928C146.314 17.8933 146.239 23.6 146.09 24.048C146.004 24.304 145.812 24.5067 145.514 24.656C145.215 24.8053 144.884 24.88 144.522 24.88C144.095 24.88 143.754 24.7947 143.498 24.624C143.114 24.368 142.868 23.9947 142.762 23.504C142.676 22.992 142.634 21.6267 142.634 19.408C142.634 16.8267 142.644 14.5333 142.666 12.528L142.762 1.904L143.242 1.424ZM157.984 13.616C157.131 13.2107 156.533 13.008 156.192 13.008C155.787 13.008 155.275 13.2853 154.656 13.84C153.824 14.608 153.408 15.5573 153.408 16.688C153.408 17.6053 153.707 18.2987 154.304 18.768C154.581 18.9813 154.869 19.088 155.168 19.088C155.531 19.088 155.989 18.9387 156.544 18.64C158.336 17.7013 159.232 16.4853 159.232 14.992V14.192L157.984 13.616ZM159.616 2.256C159.979 1.95733 160.405 1.808 160.896 1.808C161.216 1.808 161.483 1.872 161.696 2C161.952 2.14933 162.165 2.39467 162.336 2.736C162.464 2.992 162.549 3.70667 162.592 4.88C162.656 6.05333 162.699 8.74133 162.72 12.944L162.784 22.576L162.24 23.12C161.877 23.4827 161.461 23.664 160.992 23.664C160.544 23.664 160.139 23.504 159.776 23.184C159.413 22.864 159.232 22.5013 159.232 22.096C159.232 21.7547 159.211 21.5627 159.168 21.52H159.136C158.987 21.52 158.635 21.6587 158.08 21.936C157.035 22.4267 156.053 22.672 155.136 22.672C153.707 22.672 152.459 22.096 151.392 20.944C150.304 19.7493 149.76 18.3413 149.76 16.72C149.76 14.5867 150.592 12.752 152.256 11.216C153.515 10.064 154.88 9.488 156.352 9.488C156.992 9.488 157.579 9.57333 158.112 9.744C158.688 9.936 158.997 10.032 159.04 10.032C159.061 10.032 159.072 8.816 159.072 6.384V2.736L159.616 2.256ZM166.645 8.112C166.986 7.74933 167.423 7.568 167.957 7.568C168.319 7.568 168.639 7.664 168.917 7.856C169.151 8.02667 169.354 8.304 169.525 8.688C169.717 9.072 169.813 9.424 169.813 9.744C169.813 10.0853 169.898 10.256 170.069 10.256C170.261 10.256 170.57 10.1173 170.997 9.84C171.423 9.584 171.989 9.34933 172.693 9.136C173.397 8.92267 173.962 8.816 174.389 8.816C174.815 8.816 175.338 8.95467 175.957 9.232C176.597 9.50933 177.098 9.81867 177.461 10.16C178.229 10.9067 178.773 11.952 179.093 13.296C179.434 14.64 179.605 16.5067 179.605 18.896C179.605 20.5813 179.551 21.6907 179.445 22.224C179.338 22.736 179.093 23.0987 178.709 23.312C178.453 23.44 178.143 23.504 177.781 23.504C177.397 23.504 177.077 23.44 176.821 23.312C176.458 23.12 176.223 22.768 176.117 22.256C176.031 21.7227 175.967 20.4427 175.925 18.416C175.882 16.3893 175.797 15.056 175.669 14.416C175.541 13.7547 175.274 13.2213 174.869 12.816C174.655 12.6027 174.389 12.496 174.069 12.496C173.535 12.496 172.959 12.7627 172.341 13.296C171.743 13.808 171.253 14.4693 170.869 15.28C170.677 15.6853 170.559 16.0693 170.517 16.432C170.474 16.7947 170.431 17.6267 170.389 18.928C170.346 20.72 170.261 21.7867 170.133 22.128C169.834 22.9173 169.258 23.312 168.405 23.312C167.701 23.312 167.167 23.0027 166.805 22.384C166.698 22.1493 166.591 20.1547 166.485 16.4C166.357 12.368 166.271 10.1387 166.229 9.712C166.186 9.28533 166.165 9.05067 166.165 9.008C166.165 8.73067 166.325 8.432 166.645 8.112ZM183.872 2.384C184.17 2.10667 184.554 1.968 185.024 1.968C185.536 1.968 185.952 2.13867 186.272 2.48C186.506 2.71467 186.645 2.98133 186.688 3.28C186.752 3.57867 186.794 4.368 186.816 5.648C186.837 6.07467 186.848 6.58667 186.848 7.184C186.848 8.05867 186.773 8.64533 186.624 8.944C186.325 9.62667 185.824 9.968 185.12 9.968C185.034 9.968 184.885 9.94667 184.672 9.904C184.117 9.75467 183.722 9.37067 183.488 8.752C183.253 8.112 183.125 7.056 183.104 5.584V5.296C183.104 3.80267 183.36 2.832 183.872 2.384ZM195.282 1.52C195.644 1.15733 196.082 0.975998 196.594 0.975998C196.978 0.975998 197.319 1.09333 197.618 1.328C197.938 1.54133 198.162 1.85067 198.29 2.256C198.354 2.49067 198.46 3.6 198.61 5.584C198.759 7.54667 198.834 8.912 198.834 9.68C198.834 9.872 198.876 9.98933 198.962 10.032C199.068 10.0747 199.314 10.096 199.698 10.096C200.274 10.096 200.604 10.032 200.69 9.904C200.732 9.79733 201.17 9.744 202.002 9.744C203.068 9.744 203.772 9.81867 204.114 9.968C204.434 10.1173 204.679 10.4053 204.85 10.832C204.999 11.1307 205.074 11.376 205.074 11.568C205.074 11.7173 205.042 11.8987 204.978 12.112C204.828 12.6027 204.551 12.9333 204.146 13.104C203.762 13.2533 202.994 13.36 201.842 13.424C200.54 13.488 199.698 13.5733 199.314 13.68L198.802 13.808L198.93 18.32C198.972 20.3253 198.994 21.4027 198.994 21.552C198.994 22.4907 198.919 23.12 198.77 23.44C198.45 24.1227 197.927 24.464 197.202 24.464C196.924 24.464 196.636 24.4 196.338 24.272C196.103 24.1653 195.932 24.0693 195.826 23.984C195.719 23.8773 195.623 23.6107 195.538 23.184C195.452 22.736 195.399 22.2133 195.378 21.616C195.356 21.0187 195.335 20.0373 195.314 18.672L195.25 14.032L194.29 14.064C193.714 14.1067 193.202 14.192 192.754 14.32C192.647 14.3627 192.476 14.384 192.242 14.384C191.516 14.384 190.994 14.16 190.674 13.712C190.503 13.4347 190.418 13.0613 190.418 12.592C190.418 12.1867 190.482 11.8667 190.61 11.632C190.908 11.0987 191.954 10.6933 193.746 10.416L195.218 10.192L195.09 7.376C195.004 5.37067 194.93 4.00533 194.866 3.28C194.823 2.768 194.802 2.49067 194.802 2.448C194.802 2.14933 194.962 1.84 195.282 1.52ZM222.96 8.496C223.344 8.432 223.738 8.4 224.144 8.4C225.424 8.4 226.565 8.688 227.568 9.264C228.57 9.84 229.072 10.5013 229.072 11.248C229.072 11.44 229.04 11.6107 228.976 11.76C228.656 12.5707 228.176 12.976 227.536 12.976C227.066 12.976 226.533 12.8267 225.936 12.528C225.253 12.1867 224.624 12.016 224.048 12.016C223.429 12.016 222.917 12.2187 222.512 12.624C222.298 12.8373 222.192 13.008 222.192 13.136C222.192 13.3067 222.352 13.5093 222.672 13.744C223.013 13.9573 223.632 14.2987 224.528 14.768C226 15.536 226.992 16.1653 227.504 16.656C227.994 17.0827 228.421 17.616 228.784 18.256C229.146 18.8747 229.328 19.3973 229.328 19.824C229.328 20.3147 229.2 20.8053 228.944 21.296C228.688 21.7867 228.368 22.16 227.984 22.416C227.002 23.0773 225.808 23.408 224.4 23.408C223.077 23.408 221.712 23.0987 220.304 22.48C219.642 22.16 219.226 21.7973 219.056 21.392C218.928 21.0933 218.864 20.8267 218.864 20.592C218.864 20.1653 219.066 19.7493 219.472 19.344C219.749 19.024 220.122 18.864 220.592 18.864C221.04 18.864 221.584 19.0027 222.224 19.28C222.928 19.5787 223.738 19.728 224.656 19.728C225.082 19.728 225.296 19.6747 225.296 19.568C225.296 19.312 224.378 18.7253 222.544 17.808C221.114 17.0613 220.069 16.3253 219.408 15.6C218.746 14.8533 218.416 14.032 218.416 13.136C218.416 12.0693 218.853 11.088 219.728 10.192C220.624 9.27467 221.701 8.70933 222.96 8.496ZM242.039 13.68C241.932 13.3387 241.836 13.1467 241.751 13.104C241.665 13.04 241.431 13.008 241.047 13.008C239.937 13.0293 238.903 13.552 237.943 14.576C236.983 15.5787 236.503 16.592 236.503 17.616C236.503 18.128 236.641 18.5547 236.919 18.896C237.537 19.5787 238.188 19.92 238.871 19.92C238.913 19.92 238.956 19.92 238.999 19.92C239.041 19.8987 239.084 19.888 239.127 19.888C239.511 19.8027 239.916 19.5467 240.343 19.12C240.791 18.6933 241.132 18.224 241.367 17.712C241.857 16.56 242.103 15.44 242.103 14.352C242.103 14.032 242.081 13.808 242.039 13.68ZM239.062 9.648C239.639 9.456 240.3 9.36 241.047 9.36C242.028 9.36 242.86 9.52 243.543 9.84C243.991 10.0747 244.396 10.4267 244.759 10.896C245.143 11.344 245.377 11.7707 245.463 12.176C245.548 12.5813 245.665 12.9653 245.815 13.328C246.049 13.9467 246.519 16.272 247.222 20.304C247.329 20.944 247.383 21.424 247.383 21.744C247.383 23.024 246.785 23.664 245.591 23.664C245.185 23.664 244.812 23.504 244.471 23.184C244.151 22.864 243.948 22.4693 243.863 22C243.777 21.5733 243.703 21.328 243.639 21.264C243.553 21.2 243.308 21.3707 242.903 21.776C241.687 22.992 240.289 23.6 238.711 23.6C238.433 23.6 238.145 23.568 237.847 23.504C236.673 23.248 235.575 22.608 234.551 21.584C233.399 20.432 232.823 19.1413 232.823 17.712C232.823 16.5813 233.175 15.3547 233.879 14.032C234.412 13.0293 235.137 12.1333 236.055 11.344C236.993 10.5547 237.996 9.98933 239.062 9.648ZM262.884 8.272C263.098 8.208 263.258 8.176 263.364 8.176C263.45 8.176 263.695 8.26133 264.1 8.432C264.527 8.60267 264.826 8.89067 264.996 9.296C265.082 9.46667 265.124 9.65867 265.124 9.872C265.124 10.192 264.868 11.1627 264.356 12.784C263.418 15.792 262.234 18.8107 260.804 21.84C260.143 23.2907 259.13 25.168 257.764 27.472C256.399 29.7973 255.567 31.0453 255.268 31.216C254.927 31.4293 254.575 31.536 254.212 31.536C253.722 31.536 253.295 31.3653 252.932 31.024C252.591 30.704 252.42 30.2773 252.42 29.744C252.42 29.36 252.762 28.6347 253.444 27.568C253.978 26.736 254.671 25.5627 255.524 24.048C256.378 22.512 256.804 21.6907 256.804 21.584C256.804 21.52 256.57 21.0933 256.1 20.304C255.887 19.9627 255.13 18.576 253.828 16.144C252.548 13.6907 251.77 12.272 251.492 11.888C251.151 11.3973 250.98 10.9067 250.98 10.416C250.98 9.712 251.322 9.21067 252.004 8.912C252.26 8.80533 252.484 8.752 252.676 8.752C253.124 8.752 253.562 9.008 253.988 9.52C254.415 10.0107 254.959 10.864 255.62 12.08C257.05 14.7253 258.02 16.4533 258.532 17.264C258.639 17.4133 258.703 17.488 258.724 17.488C258.81 17.488 259.023 17.0293 259.364 16.112C259.855 14.768 260.346 13.3387 260.836 11.824C261.263 10.4587 261.604 9.552 261.86 9.104C262.138 8.656 262.479 8.37867 262.884 8.272ZM283.376 1.52C283.738 1.15733 284.176 0.975998 284.688 0.975998C285.072 0.975998 285.413 1.09333 285.712 1.328C286.032 1.54133 286.256 1.85067 286.384 2.256C286.448 2.49067 286.554 3.6 286.704 5.584C286.853 7.54667 286.928 8.912 286.928 9.68C286.928 9.872 286.97 9.98933 287.056 10.032C287.162 10.0747 287.408 10.096 287.792 10.096C288.368 10.096 288.698 10.032 288.784 9.904C288.826 9.79733 289.264 9.744 290.096 9.744C291.162 9.744 291.866 9.81867 292.208 9.968C292.528 10.1173 292.773 10.4053 292.944 10.832C293.093 11.1307 293.168 11.376 293.168 11.568C293.168 11.7173 293.136 11.8987 293.072 12.112C292.922 12.6027 292.645 12.9333 292.24 13.104C291.856 13.2533 291.088 13.36 289.936 13.424C288.634 13.488 287.792 13.5733 287.408 13.68L286.896 13.808L287.024 18.32C287.066 20.3253 287.088 21.4027 287.088 21.552C287.088 22.4907 287.013 23.12 286.864 23.44C286.544 24.1227 286.021 24.464 285.296 24.464C285.018 24.464 284.73 24.4 284.432 24.272C284.197 24.1653 284.026 24.0693 283.92 23.984C283.813 23.8773 283.717 23.6107 283.632 23.184C283.546 22.736 283.493 22.2133 283.472 21.616C283.45 21.0187 283.429 20.0373 283.408 18.672L283.344 14.032L282.384 14.064C281.808 14.1067 281.296 14.192 280.848 14.32C280.741 14.3627 280.57 14.384 280.336 14.384C279.61 14.384 279.088 14.16 278.768 13.712C278.597 13.4347 278.512 13.0613 278.512 12.592C278.512 12.1867 278.576 11.8667 278.704 11.632C279.002 11.0987 280.048 10.6933 281.84 10.416L283.312 10.192L283.184 7.376C283.098 5.37067 283.024 4.00533 282.96 3.28C282.917 2.768 282.896 2.49067 282.896 2.448C282.896 2.14933 283.056 1.84 283.376 1.52ZM297.464 1.552C297.827 1.25333 298.2 1.104 298.584 1.104C299.352 1.104 299.917 1.57333 300.28 2.512C300.429 2.93867 300.589 3.96267 300.76 5.584C300.931 7.184 301.069 8.67733 301.176 10.064C301.283 11.4293 301.347 12.112 301.368 12.112C301.411 12.112 301.763 11.8773 302.424 11.408C303.725 10.4907 304.963 10.032 306.136 10.032C307.224 10.032 308.173 10.4373 308.984 11.248C309.816 12.0373 310.467 13.2 310.936 14.736C311.299 15.9307 311.48 17.7867 311.48 20.304C311.48 21.8827 311.384 22.9493 311.192 23.504C310.979 24.08 310.488 24.368 309.72 24.368C309.208 24.368 308.781 24.1973 308.44 23.856L307.96 23.376L307.864 20.144C307.736 15.984 307.16 13.84 306.136 13.712H306.04C305.549 13.712 304.941 13.9893 304.216 14.544C303.491 15.0773 302.968 15.664 302.648 16.304C302.456 16.7307 302.2 17.04 301.88 17.232L301.464 17.52L301.4 21.008C301.357 22.7147 301.315 23.7493 301.272 24.112C301.251 24.4533 301.133 24.7307 300.92 24.944C300.579 25.3067 300.152 25.488 299.64 25.488C298.872 25.488 298.339 25.1467 298.04 24.464C297.891 24.0587 297.784 21.6053 297.72 17.104C297.613 9.57333 297.336 5.06133 296.888 3.568C296.824 3.33333 296.792 3.10933 296.792 2.896C296.792 2.34133 297.016 1.89333 297.464 1.552ZM324.195 13.68C324.088 13.3387 323.992 13.1467 323.907 13.104C323.821 13.04 323.587 13.008 323.203 13.008C322.093 13.0293 321.059 13.552 320.099 14.576C319.139 15.5787 318.659 16.592 318.659 17.616C318.659 18.128 318.797 18.5547 319.075 18.896C319.693 19.5787 320.344 19.92 321.027 19.92C321.069 19.92 321.112 19.92 321.155 19.92C321.197 19.8987 321.24 19.888 321.283 19.888C321.667 19.8027 322.072 19.5467 322.499 19.12C322.947 18.6933 323.288 18.224 323.523 17.712C324.013 16.56 324.259 15.44 324.259 14.352C324.259 14.032 324.237 13.808 324.195 13.68ZM321.219 9.648C321.795 9.456 322.456 9.36 323.203 9.36C324.184 9.36 325.016 9.52 325.699 9.84C326.147 10.0747 326.552 10.4267 326.915 10.896C327.299 11.344 327.533 11.7707 327.619 12.176C327.704 12.5813 327.821 12.9653 327.971 13.328C328.205 13.9467 328.675 16.272 329.379 20.304C329.485 20.944 329.539 21.424 329.539 21.744C329.539 23.024 328.941 23.664 327.747 23.664C327.341 23.664 326.968 23.504 326.627 23.184C326.307 22.864 326.104 22.4693 326.019 22C325.933 21.5733 325.859 21.328 325.795 21.264C325.709 21.2 325.464 21.3707 325.059 21.776C323.843 22.992 322.445 23.6 320.867 23.6C320.589 23.6 320.301 23.568 320.003 23.504C318.829 23.248 317.731 22.608 316.707 21.584C315.555 20.432 314.979 19.1413 314.979 17.712C314.979 16.5813 315.331 15.3547 316.035 14.032C316.568 13.0293 317.293 12.1333 318.211 11.344C319.149 10.5547 320.152 9.98933 321.219 9.648ZM338.001 1.52C338.363 1.15733 338.801 0.975998 339.312 0.975998C339.697 0.975998 340.038 1.09333 340.337 1.328C340.657 1.54133 340.881 1.85067 341.009 2.256C341.073 2.49067 341.179 3.6 341.329 5.584C341.478 7.54667 341.553 8.912 341.553 9.68C341.553 9.872 341.595 9.98933 341.681 10.032C341.787 10.0747 342.033 10.096 342.417 10.096C342.993 10.096 343.323 10.032 343.409 9.904C343.451 9.79733 343.889 9.744 344.721 9.744C345.787 9.744 346.491 9.81867 346.833 9.968C347.153 10.1173 347.398 10.4053 347.569 10.832C347.718 11.1307 347.793 11.376 347.793 11.568C347.793 11.7173 347.761 11.8987 347.697 12.112C347.547 12.6027 347.27 12.9333 346.865 13.104C346.481 13.2533 345.713 13.36 344.561 13.424C343.259 13.488 342.417 13.5733 342.033 13.68L341.521 13.808L341.649 18.32C341.691 20.3253 341.713 21.4027 341.713 21.552C341.713 22.4907 341.638 23.12 341.489 23.44C341.169 24.1227 340.646 24.464 339.921 24.464C339.643 24.464 339.355 24.4 339.057 24.272C338.822 24.1653 338.651 24.0693 338.545 23.984C338.438 23.8773 338.342 23.6107 338.257 23.184C338.171 22.736 338.118 22.2133 338.097 21.616C338.075 21.0187 338.054 20.0373 338.033 18.672L337.969 14.032L337.009 14.064C336.433 14.1067 335.921 14.192 335.473 14.32C335.366 14.3627 335.195 14.384 334.961 14.384C334.235 14.384 333.713 14.16 333.393 13.712C333.222 13.4347 333.137 13.0613 333.137 12.592C333.137 12.1867 333.201 11.8667 333.329 11.632C333.627 11.0987 334.673 10.6933 336.465 10.416L337.937 10.192L337.809 7.376C337.723 5.37067 337.649 4.00533 337.585 3.28C337.542 2.768 337.521 2.49067 337.521 2.448C337.521 2.14933 337.681 1.84 338.001 1.52ZM362.836 4.272C363.177 3.952 363.497 3.792 363.796 3.792C363.967 3.792 364.116 3.80267 364.244 3.824C364.82 3.888 365.225 4.08 365.46 4.4L365.876 4.88L365.812 13.264C365.791 18.7893 365.695 21.7653 365.524 22.192C365.247 22.832 364.713 23.152 363.924 23.152C363.668 23.152 363.476 23.1307 363.348 23.088C363.028 22.9813 362.815 22.9067 362.708 22.864C362.623 22.8 362.516 22.608 362.388 22.288C362.281 21.9467 362.217 21.4773 362.196 20.88C362.175 20.2827 362.164 19.3653 362.164 18.128C362.164 17.7867 362.164 17.0933 362.164 16.048C362.185 15.0027 362.196 14.128 362.196 13.424L362.228 4.784L362.836 4.272ZM370.091 2.384C370.389 2.10667 370.773 1.968 371.243 1.968C371.755 1.968 372.171 2.13867 372.491 2.48C372.725 2.71467 372.864 2.98133 372.907 3.28C372.971 3.57867 373.013 4.368 373.035 5.648C373.056 6.07467 373.067 6.58667 373.067 7.184C373.067 8.05867 372.992 8.64533 372.843 8.944C372.544 9.62667 372.043 9.968 371.339 9.968C371.253 9.968 371.104 9.94667 370.891 9.904C370.336 9.75467 369.941 9.37067 369.707 8.752C369.472 8.112 369.344 7.056 369.323 5.584V5.296C369.323 3.80267 369.579 2.832 370.091 2.384ZM377.597 8.528C377.81 8.42133 378.066 8.368 378.365 8.368C379.453 8.368 380.135 9.28533 380.413 11.12C380.477 11.6747 380.551 11.952 380.637 11.952C380.658 11.952 380.957 11.7067 381.533 11.216C382.706 10.1707 383.901 9.648 385.117 9.648C385.778 9.648 386.407 9.82933 387.005 10.192C387.581 10.5547 387.954 10.8747 388.125 11.152L388.413 11.6L389.181 10.896C390.354 9.85067 391.613 9.328 392.957 9.328C394.258 9.328 395.378 9.82933 396.317 10.832C397.917 12.4747 398.866 15.28 399.165 19.248C399.207 19.9733 399.229 20.4213 399.229 20.592C399.229 21.1467 399.154 21.552 399.005 21.808C398.877 22.064 398.642 22.288 398.301 22.48C398.002 22.6293 397.714 22.704 397.437 22.704C396.967 22.704 396.551 22.4907 396.189 22.064C395.911 21.7013 395.73 21.0827 395.645 20.208C395.474 18.2453 395.261 16.784 395.005 15.824C394.749 14.864 394.386 14.1173 393.917 13.584C393.554 13.2 393.181 13.008 392.797 13.008C392.071 13.008 391.431 13.5733 390.877 14.704C390.663 15.152 390.525 15.568 390.461 15.952C390.397 16.336 390.343 17.2107 390.301 18.576C390.215 20.4533 390.109 21.5733 389.981 21.936C389.682 22.64 389.138 22.992 388.349 22.992C387.879 22.992 387.485 22.832 387.165 22.512C386.653 22 386.333 20.4853 386.205 17.968C386.141 17.008 386.023 16.08 385.853 15.184C385.682 14.288 385.522 13.7547 385.373 13.584C385.245 13.4347 385.106 13.36 384.957 13.36C384.701 13.36 384.274 13.6267 383.677 14.16C383.037 14.7573 382.557 15.3973 382.237 16.08C381.938 16.6987 381.757 17.2 381.693 17.584C381.65 17.9467 381.607 19.1947 381.565 21.328C381.543 21.8827 381.373 22.3307 381.053 22.672C380.733 23.0133 380.327 23.184 379.837 23.184C379.346 23.184 378.951 23.088 378.653 22.896C378.226 22.5973 377.927 22.0213 377.757 21.168C377.586 20.2933 377.394 18.2347 377.181 14.992C377.053 13.072 376.903 11.7707 376.733 11.088C376.605 10.576 376.541 10.2347 376.541 10.064C376.541 9.872 376.605 9.648 376.733 9.392C376.925 8.944 377.213 8.656 377.597 8.528ZM417.438 1.52C417.801 1.15733 418.238 0.975998 418.75 0.975998C419.134 0.975998 419.475 1.09333 419.774 1.328C420.094 1.54133 420.318 1.85067 420.446 2.256C420.51 2.49067 420.617 3.6 420.766 5.584C420.915 7.54667 420.99 8.912 420.99 9.68C420.99 9.872 421.033 9.98933 421.118 10.032C421.225 10.0747 421.47 10.096 421.854 10.096C422.43 10.096 422.761 10.032 422.846 9.904C422.889 9.79733 423.326 9.744 424.158 9.744C425.225 9.744 425.929 9.81867 426.27 9.968C426.59 10.1173 426.835 10.4053 427.006 10.832C427.155 11.1307 427.23 11.376 427.23 11.568C427.23 11.7173 427.198 11.8987 427.134 12.112C426.985 12.6027 426.707 12.9333 426.302 13.104C425.918 13.2533 425.15 13.36 423.998 13.424C422.697 13.488 421.854 13.5733 421.47 13.68L420.958 13.808L421.086 18.32C421.129 20.3253 421.15 21.4027 421.15 21.552C421.15 22.4907 421.075 23.12 420.926 23.44C420.606 24.1227 420.083 24.464 419.358 24.464C419.081 24.464 418.793 24.4 418.494 24.272C418.259 24.1653 418.089 24.0693 417.982 23.984C417.875 23.8773 417.779 23.6107 417.694 23.184C417.609 22.736 417.555 22.2133 417.534 21.616C417.513 21.0187 417.491 20.0373 417.47 18.672L417.406 14.032L416.446 14.064C415.87 14.1067 415.358 14.192 414.91 14.32C414.803 14.3627 414.633 14.384 414.398 14.384C413.673 14.384 413.15 14.16 412.83 13.712C412.659 13.4347 412.574 13.0613 412.574 12.592C412.574 12.1867 412.638 11.8667 412.766 11.632C413.065 11.0987 414.11 10.6933 415.902 10.416L417.374 10.192L417.246 7.376C417.161 5.37067 417.086 4.00533 417.022 3.28C416.979 2.768 416.958 2.49067 416.958 2.448C416.958 2.14933 417.118 1.84 417.438 1.52ZM439.495 11.6C438.919 11.4933 438.439 11.44 438.055 11.44C437.18 11.44 436.444 11.6213 435.847 11.984C435.548 12.176 435.196 12.8267 434.791 13.936C434.407 15.024 434.215 15.8987 434.215 16.56C434.215 17.6267 434.556 18.4907 435.239 19.152C435.943 19.792 436.86 20.1227 437.991 20.144C438.908 20.144 439.761 19.888 440.551 19.376C441.361 18.864 441.948 18.192 442.311 17.36C442.545 16.8267 442.663 16.2187 442.663 15.536C442.663 14.704 442.503 13.9787 442.183 13.36C441.948 12.8693 441.628 12.496 441.223 12.24C440.817 11.984 440.241 11.7707 439.495 11.6ZM435.879 8.176C436.625 7.984 437.361 7.888 438.087 7.888C439.452 7.888 440.913 8.22933 442.471 8.912C443.58 9.40267 444.455 10.2667 445.095 11.504C445.756 12.7413 446.097 14.2027 446.119 15.888V16.08C446.119 18.6187 444.988 20.6773 442.727 22.256C441.319 23.2587 439.751 23.76 438.023 23.76C436.593 23.76 435.271 23.408 434.055 22.704C432.839 21.9787 431.921 20.9653 431.303 19.664C431.089 19.216 430.951 18.832 430.887 18.512C430.844 18.192 430.823 17.52 430.823 16.496C430.844 14.9813 431.004 13.7867 431.303 12.912C432.007 10.9707 432.839 9.65867 433.799 8.976C434.183 8.69867 434.876 8.432 435.879 8.176ZM454.627 2.192C454.968 1.97867 455.288 1.872 455.587 1.872C455.822 1.872 456.088 1.936 456.387 2.064C456.835 2.27733 457.123 2.608 457.251 3.056C457.379 3.504 457.464 4.57067 457.507 6.256L457.603 9.424L459.075 9.328C459.246 9.30667 459.491 9.296 459.811 9.296C460.579 9.296 461.123 9.43467 461.443 9.712C461.784 9.98933 461.955 10.4373 461.955 11.056C461.955 11.7173 461.731 12.1867 461.283 12.464C460.856 12.7413 460.024 12.9333 458.787 13.04L457.443 13.168L457.219 17.616C457.07 20.624 456.931 22.288 456.803 22.608C456.526 23.248 455.992 23.568 455.203 23.568C454.755 23.568 454.403 23.4507 454.147 23.216C453.87 23.0027 453.678 22.768 453.571 22.512C453.464 22.256 453.411 21.84 453.411 21.264C453.411 20.7947 453.443 20.0907 453.507 19.152C453.614 17.4667 453.688 16.0267 453.731 14.832L453.763 13.328L452.323 13.296C451.512 13.2747 450.958 13.2107 450.659 13.104C450.36 12.976 450.104 12.72 449.891 12.336C449.763 12.08 449.699 11.8133 449.699 11.536C449.699 11.024 449.912 10.576 450.339 10.192C450.574 9.97867 450.872 9.84 451.235 9.776C451.598 9.69067 452.27 9.60533 453.251 9.52L453.763 9.456L453.891 6.064C453.912 5.552 453.923 4.99733 453.923 4.4C453.944 3.78133 453.955 3.32266 453.955 3.024L453.987 2.576L454.083 2.512C454.147 2.46933 454.232 2.416 454.339 2.352C454.446 2.288 454.542 2.23467 454.627 2.192ZM474.726 13.68C474.619 13.3387 474.523 13.1467 474.438 13.104C474.353 13.04 474.118 13.008 473.734 13.008C472.625 13.0293 471.59 13.552 470.63 14.576C469.67 15.5787 469.19 16.592 469.19 17.616C469.19 18.128 469.329 18.5547 469.606 18.896C470.225 19.5787 470.875 19.92 471.558 19.92C471.601 19.92 471.643 19.92 471.686 19.92C471.729 19.8987 471.771 19.888 471.814 19.888C472.198 19.8027 472.603 19.5467 473.03 19.12C473.478 18.6933 473.819 18.224 474.054 17.712C474.545 16.56 474.79 15.44 474.79 14.352C474.79 14.032 474.769 13.808 474.726 13.68ZM471.75 9.648C472.326 9.456 472.987 9.36 473.734 9.36C474.715 9.36 475.547 9.52 476.23 9.84C476.678 10.0747 477.083 10.4267 477.446 10.896C477.83 11.344 478.065 11.7707 478.15 12.176C478.235 12.5813 478.353 12.9653 478.502 13.328C478.737 13.9467 479.206 16.272 479.91 20.304C480.017 20.944 480.07 21.424 480.07 21.744C480.07 23.024 479.473 23.664 478.278 23.664C477.873 23.664 477.499 23.504 477.158 23.184C476.838 22.864 476.635 22.4693 476.55 22C476.465 21.5733 476.39 21.328 476.326 21.264C476.241 21.2 475.995 21.3707 475.59 21.776C474.374 22.992 472.977 23.6 471.398 23.6C471.121 23.6 470.833 23.568 470.534 23.504C469.361 23.248 468.262 22.608 467.238 21.584C466.086 20.432 465.51 19.1413 465.51 17.712C465.51 16.5813 465.862 15.3547 466.566 14.032C467.099 13.0293 467.825 12.1333 468.742 11.344C469.681 10.5547 470.683 9.98933 471.75 9.648ZM485.044 2.864C485.321 2.75733 485.566 2.704 485.78 2.704C486.1 2.704 486.42 2.8 486.74 2.992C487.06 3.20533 487.273 3.44 487.38 3.696C487.508 3.952 487.572 4.44267 487.572 5.168C487.572 6 487.529 7.056 487.444 8.336C487.294 10.96 487.198 14.0533 487.156 17.616C487.156 21.0933 487.081 22.9707 486.932 23.248C486.825 23.4613 486.601 23.6747 486.26 23.888C485.94 24.08 485.662 24.176 485.428 24.176C485.172 24.176 484.884 24.0693 484.564 23.856C484.244 23.6427 484.02 23.408 483.892 23.152C483.636 22.64 483.508 20.9227 483.508 18C483.508 15.056 483.636 11.1733 483.892 6.352C483.956 5.09333 484.062 4.24 484.212 3.792C484.361 3.344 484.638 3.03467 485.044 2.864ZM492.481 2.864C492.759 2.75733 493.004 2.704 493.217 2.704C493.537 2.704 493.857 2.8 494.177 2.992C494.497 3.20533 494.711 3.44 494.817 3.696C494.945 3.952 495.009 4.44267 495.009 5.168C495.009 6 494.967 7.056 494.881 8.336C494.732 10.96 494.636 14.0533 494.593 17.616C494.593 21.0933 494.519 22.9707 494.369 23.248C494.263 23.4613 494.039 23.6747 493.697 23.888C493.377 24.08 493.1 24.176 492.865 24.176C492.609 24.176 492.321 24.0693 492.001 23.856C491.681 23.6427 491.457 23.408 491.329 23.152C491.073 22.64 490.945 20.9227 490.945 18C490.945 15.056 491.073 11.1733 491.329 6.352C491.393 5.09333 491.5 4.24 491.649 3.792C491.799 3.344 492.076 3.03467 492.481 2.864ZM510.447 8.272C510.66 8.208 510.82 8.176 510.927 8.176C511.012 8.176 511.257 8.26133 511.663 8.432C512.089 8.60267 512.388 8.89067 512.559 9.296C512.644 9.46667 512.687 9.65867 512.687 9.872C512.687 10.192 512.431 11.1627 511.919 12.784C510.98 15.792 509.796 18.8107 508.367 21.84C507.705 23.2907 506.692 25.168 505.327 27.472C503.961 29.7973 503.129 31.0453 502.831 31.216C502.489 31.4293 502.137 31.536 501.775 31.536C501.284 31.536 500.857 31.3653 500.495 31.024C500.153 30.704 499.983 30.2773 499.983 29.744C499.983 29.36 500.324 28.6347 501.007 27.568C501.54 26.736 502.233 25.5627 503.087 24.048C503.94 22.512 504.367 21.6907 504.367 21.584C504.367 21.52 504.132 21.0933 503.663 20.304C503.449 19.9627 502.692 18.576 501.391 16.144C500.111 13.6907 499.332 12.272 499.055 11.888C498.713 11.3973 498.543 10.9067 498.543 10.416C498.543 9.712 498.884 9.21067 499.567 8.912C499.823 8.80533 500.047 8.752 500.239 8.752C500.687 8.752 501.124 9.008 501.551 9.52C501.977 10.0107 502.521 10.864 503.183 12.08C504.612 14.7253 505.583 16.4533 506.095 17.264C506.201 17.4133 506.265 17.488 506.287 17.488C506.372 17.488 506.585 17.0293 506.927 16.112C507.417 14.768 507.908 13.3387 508.399 11.824C508.825 10.4587 509.167 9.552 509.423 9.104C509.7 8.656 510.041 8.37867 510.447 8.272ZM530.938 1.52C531.301 1.15733 531.738 0.975998 532.25 0.975998C532.634 0.975998 532.975 1.09333 533.274 1.328C533.594 1.54133 533.818 1.85067 533.946 2.256C534.01 2.49067 534.117 3.6 534.266 5.584C534.415 7.54667 534.49 8.912 534.49 9.68C534.49 9.872 534.533 9.98933 534.618 10.032C534.725 10.0747 534.97 10.096 535.354 10.096C535.93 10.096 536.261 10.032 536.346 9.904C536.389 9.79733 536.826 9.744 537.658 9.744C538.725 9.744 539.429 9.81867 539.77 9.968C540.09 10.1173 540.335 10.4053 540.506 10.832C540.655 11.1307 540.73 11.376 540.73 11.568C540.73 11.7173 540.698 11.8987 540.634 12.112C540.485 12.6027 540.207 12.9333 539.802 13.104C539.418 13.2533 538.65 13.36 537.498 13.424C536.197 13.488 535.354 13.5733 534.97 13.68L534.458 13.808L534.586 18.32C534.629 20.3253 534.65 21.4027 534.65 21.552C534.65 22.4907 534.575 23.12 534.426 23.44C534.106 24.1227 533.583 24.464 532.858 24.464C532.581 24.464 532.293 24.4 531.994 24.272C531.759 24.1653 531.589 24.0693 531.482 23.984C531.375 23.8773 531.279 23.6107 531.194 23.184C531.109 22.736 531.055 22.2133 531.034 21.616C531.013 21.0187 530.991 20.0373 530.97 18.672L530.906 14.032L529.946 14.064C529.37 14.1067 528.858 14.192 528.41 14.32C528.303 14.3627 528.133 14.384 527.898 14.384C527.173 14.384 526.65 14.16 526.33 13.712C526.159 13.4347 526.074 13.0613 526.074 12.592C526.074 12.1867 526.138 11.8667 526.266 11.632C526.565 11.0987 527.61 10.6933 529.402 10.416L530.874 10.192L530.746 7.376C530.661 5.37067 530.586 4.00533 530.522 3.28C530.479 2.768 530.458 2.49067 530.458 2.448C530.458 2.14933 530.618 1.84 530.938 1.52ZM545.027 1.552C545.389 1.25333 545.763 1.104 546.147 1.104C546.915 1.104 547.48 1.57333 547.843 2.512C547.992 2.93867 548.152 3.96267 548.323 5.584C548.493 7.184 548.632 8.67733 548.739 10.064C548.845 11.4293 548.909 12.112 548.931 12.112C548.973 12.112 549.325 11.8773 549.987 11.408C551.288 10.4907 552.525 10.032 553.699 10.032C554.787 10.032 555.736 10.4373 556.547 11.248C557.379 12.0373 558.029 13.2 558.499 14.736C558.861 15.9307 559.043 17.7867 559.043 20.304C559.043 21.8827 558.947 22.9493 558.755 23.504C558.541 24.08 558.051 24.368 557.283 24.368C556.771 24.368 556.344 24.1973 556.003 23.856L555.523 23.376L555.427 20.144C555.299 15.984 554.723 13.84 553.699 13.712H553.603C553.112 13.712 552.504 13.9893 551.779 14.544C551.053 15.0773 550.531 15.664 550.211 16.304C550.019 16.7307 549.763 17.04 549.443 17.232L549.027 17.52L548.963 21.008C548.92 22.7147 548.877 23.7493 548.835 24.112C548.813 24.4533 548.696 24.7307 548.483 24.944C548.141 25.3067 547.715 25.488 547.203 25.488C546.435 25.488 545.901 25.1467 545.603 24.464C545.453 24.0587 545.347 21.6053 545.283 17.104C545.176 9.57333 544.899 5.06133 544.451 3.568C544.387 3.33333 544.355 3.10933 544.355 2.896C544.355 2.34133 544.579 1.89333 545.027 1.552ZM562.989 9.328C563.373 9.008 563.789 8.848 564.237 8.848C564.707 8.848 565.112 9.01867 565.453 9.36C565.795 9.68 565.965 10.096 565.965 10.608C565.965 11.12 566.061 11.376 566.253 11.376C566.36 11.376 566.584 11.2587 566.925 11.024C568.504 9.936 570.072 9.392 571.629 9.392C572.291 9.392 572.941 9.50933 573.581 9.744C574.157 9.97867 574.563 10.2347 574.797 10.512C575.032 10.7893 575.149 11.1627 575.149 11.632C575.149 12.144 574.957 12.5813 574.573 12.944C574.253 13.2427 573.965 13.392 573.709 13.392C573.624 13.392 573.027 13.3173 571.917 13.168C571.789 13.1467 571.608 13.136 571.373 13.136C571.032 13.136 570.595 13.2533 570.061 13.488C568.675 14.128 567.704 14.9387 567.149 15.92C566.595 16.9013 566.317 18.3093 566.317 20.144C566.296 21.488 566.136 22.4267 565.837 22.96C565.56 23.4933 565.059 23.76 564.333 23.76C563.843 23.76 563.427 23.5893 563.085 23.248L562.573 22.736L562.509 17.072C562.467 12.8907 562.445 10.736 562.445 10.608C562.445 10.096 562.627 9.66933 562.989 9.328ZM580.362 8.912C580.448 8.89067 580.576 8.88 580.746 8.88C581.152 8.88 581.525 8.98667 581.866 9.2C582.208 9.392 582.442 9.65867 582.57 10C582.656 10.192 582.741 11.6533 582.826 14.384C582.933 17.0933 582.986 19.2267 582.986 20.784C582.986 21.4453 582.976 21.8293 582.954 21.936C582.848 22.7467 582.496 23.2907 581.898 23.568C581.6 23.696 581.365 23.76 581.194 23.76C581.066 23.76 580.874 23.728 580.618 23.664C580.128 23.5147 579.818 23.312 579.69 23.056C579.434 22.5653 579.285 20.6667 579.242 17.36C579.242 16.7627 579.232 15.728 579.21 14.256L579.178 9.872L579.562 9.424C579.818 9.12533 580.085 8.95467 580.362 8.912ZM579.594 2.896C579.85 2.768 580.096 2.704 580.33 2.704C580.8 2.704 581.216 2.896 581.578 3.28C581.941 3.64267 582.122 4.06933 582.122 4.56C582.122 4.90133 582.037 5.2 581.866 5.456C581.504 6.032 581.013 6.32 580.394 6.32C579.989 6.32 579.616 6.18133 579.274 5.904C578.933 5.62667 578.72 5.24267 578.634 4.752C578.634 4.73067 578.624 4.69867 578.602 4.656C578.602 4.592 578.602 4.54933 578.602 4.528C578.602 4.208 578.698 3.89867 578.89 3.6C579.082 3.28 579.317 3.04533 579.594 2.896ZM586.512 10.352C586.512 9.904 586.682 9.52 587.024 9.2C587.386 8.85867 587.792 8.688 588.24 8.688C588.752 8.688 589.178 8.88 589.52 9.264C589.861 9.62667 590.234 10.3093 590.64 11.312C591.045 12.3573 591.664 13.7653 592.496 15.536C593.349 17.2853 593.818 18.16 593.904 18.16C593.968 18.16 594.33 17.552 594.992 16.336C595.397 15.568 596.037 14.4373 596.912 12.944C597.808 11.4507 598.33 10.5653 598.48 10.288C598.778 9.75467 599.045 9.41333 599.28 9.264C599.514 9.11467 599.877 9.04 600.368 9.04C600.837 9.04 601.242 9.21067 601.583 9.552C601.946 9.89333 602.128 10.2987 602.128 10.768C602.128 10.8747 602.106 11.0133 602.064 11.184C601.978 11.4613 601.552 12.24 600.784 13.52C598.16 17.808 596.581 20.8267 596.048 22.576C595.706 23.6853 595.024 24.24 594 24.24C593.722 24.24 593.424 24.176 593.104 24.048C592.805 23.92 592.528 23.6533 592.272 23.248C592.037 22.8213 591.429 21.6053 590.448 19.6C587.824 14.224 586.512 11.1413 586.512 10.352ZM607.331 8.912C607.416 8.89067 607.544 8.88 607.715 8.88C608.12 8.88 608.494 8.98667 608.835 9.2C609.176 9.392 609.411 9.65867 609.539 10C609.624 10.192 609.71 11.6533 609.795 14.384C609.902 17.0933 609.955 19.2267 609.955 20.784C609.955 21.4453 609.944 21.8293 609.923 21.936C609.816 22.7467 609.464 23.2907 608.867 23.568C608.568 23.696 608.334 23.76 608.163 23.76C608.035 23.76 607.843 23.728 607.587 23.664C607.096 23.5147 606.787 23.312 606.659 23.056C606.403 22.5653 606.254 20.6667 606.211 17.36C606.211 16.7627 606.2 15.728 606.179 14.256L606.147 9.872L606.531 9.424C606.787 9.12533 607.054 8.95467 607.331 8.912ZM606.563 2.896C606.819 2.768 607.064 2.704 607.299 2.704C607.768 2.704 608.184 2.896 608.547 3.28C608.91 3.64267 609.091 4.06933 609.091 4.56C609.091 4.90133 609.006 5.2 608.835 5.456C608.472 6.032 607.982 6.32 607.363 6.32C606.958 6.32 606.584 6.18133 606.243 5.904C605.902 5.62667 605.688 5.24267 605.603 4.752C605.603 4.73067 605.592 4.69867 605.571 4.656C605.571 4.592 605.571 4.54933 605.571 4.528C605.571 4.208 605.667 3.89867 605.859 3.6C606.051 3.28 606.286 3.04533 606.563 2.896ZM614.248 9.072C614.504 8.944 614.771 8.88 615.048 8.88C615.432 8.88 615.795 9.008 616.136 9.264C616.478 9.49867 616.712 9.81867 616.84 10.224L617.032 10.896L617.832 10.416C618.366 10.096 619.102 9.936 620.04 9.936C620.958 9.936 621.715 10.0853 622.312 10.384C622.803 10.6187 623.326 11.0027 623.88 11.536C624.456 12.0693 624.915 12.6027 625.256 13.136C626.408 14.9493 627.038 17.7653 627.144 21.584V22.224C627.144 22.736 626.995 23.152 626.696 23.472C626.334 23.8347 625.907 24.016 625.416 24.016C624.627 24.016 624.104 23.6747 623.848 22.992C623.72 22.6293 623.614 21.9147 623.528 20.848C623.272 17.1147 622.44 14.7787 621.032 13.84C620.734 13.648 620.435 13.552 620.136 13.552C619.582 13.552 619.08 13.8613 618.632 14.48C618.206 15.0773 617.864 15.9307 617.608 17.04C617.502 17.5307 617.374 18.416 617.224 19.696C617.075 20.976 617 21.84 617 22.288C617 22.5013 616.819 22.7893 616.456 23.152C616.094 23.4933 615.678 23.664 615.208 23.664C614.334 23.664 613.758 23.2053 613.48 22.288C613.352 21.84 613.288 19.8987 613.288 16.464C613.288 12.368 613.363 10.1387 613.512 9.776C613.64 9.49867 613.886 9.264 614.248 9.072ZM640.202 12.08C639.903 11.8667 639.647 11.7387 639.434 11.696C639.22 11.632 638.815 11.6 638.218 11.6C636.639 11.6427 635.583 12.048 635.05 12.816C634.836 13.1147 634.644 13.584 634.474 14.224C634.303 14.8427 634.218 15.3653 634.218 15.792C634.218 15.8347 634.218 15.8987 634.218 15.984C634.239 16.048 634.25 16.0907 634.25 16.112C634.378 16.752 634.73 17.3173 635.306 17.808C635.903 18.2987 636.596 18.5973 637.385 18.704C637.492 18.7253 637.652 18.736 637.866 18.736C638.676 18.736 639.476 18.3093 640.266 17.456C641.055 16.6027 641.45 15.7067 641.45 14.768C641.45 14.4693 641.439 14.2453 641.418 14.096C641.354 13.5413 641.258 13.1573 641.13 12.944C641.002 12.7307 640.692 12.4427 640.202 12.08ZM636.17 8.144C636.639 8.03733 637.322 7.984 638.218 7.984H638.73C639.519 8.00533 640.042 8.05867 640.298 8.144C640.575 8.208 641.012 8.41067 641.61 8.752C642.399 9.24267 643.05 9.60533 643.562 9.84C644.052 10.0747 644.372 10.32 644.522 10.576C644.735 10.896 644.948 12.3893 645.162 15.056C645.396 17.7013 645.514 20.0373 645.514 22.064C645.514 23.728 645.332 25.1147 644.97 26.224C644.628 27.3547 644.052 28.3787 643.242 29.296C641.898 30.832 640.223 31.6 638.218 31.6C636.959 31.6 635.498 31.312 633.834 30.736C633.108 30.5013 632.628 30.2987 632.394 30.128C632.159 29.9573 631.956 29.6907 631.786 29.328C631.7 29.136 631.658 28.912 631.658 28.656C631.658 28.1653 631.828 27.7493 632.17 27.408C632.426 27.1093 632.799 26.96 633.29 26.96C633.738 26.96 634.388 27.1093 635.242 27.408C636.01 27.6853 636.82 27.8667 637.674 27.952C637.738 27.952 637.812 27.952 637.898 27.952C638.004 27.9733 638.079 27.984 638.122 27.984C639.316 27.984 640.255 27.4507 640.938 26.384C641.3 25.872 641.546 25.392 641.674 24.944C641.823 24.4747 641.93 23.8027 641.994 22.928C642.036 22.3307 642.058 21.968 642.058 21.84C642.058 21.4347 641.962 21.232 641.77 21.232C641.599 21.232 641.3 21.3493 640.874 21.584C639.892 22.0747 638.879 22.32 637.834 22.32C636.042 22.32 634.431 21.7227 633.002 20.528C631.572 19.3333 630.815 17.8613 630.73 16.112C630.73 16.048 630.719 15.952 630.698 15.824C630.698 15.696 630.698 15.6 630.698 15.536C630.698 13.68 631.178 12.1013 632.138 10.8C633.119 9.47733 634.463 8.592 636.17 8.144ZM663.719 1.52C664.082 1.15733 664.519 0.975998 665.031 0.975998C665.415 0.975998 665.757 1.09333 666.055 1.328C666.375 1.54133 666.599 1.85067 666.727 2.256C666.791 2.49067 666.898 3.6 667.047 5.584C667.197 7.54667 667.271 8.912 667.271 9.68C667.271 9.872 667.314 9.98933 667.399 10.032C667.506 10.0747 667.751 10.096 668.135 10.096C668.711 10.096 669.042 10.032 669.127 9.904C669.17 9.79733 669.607 9.744 670.439 9.744C671.506 9.744 672.21 9.81867 672.551 9.968C672.871 10.1173 673.117 10.4053 673.287 10.832C673.437 11.1307 673.511 11.376 673.511 11.568C673.511 11.7173 673.479 11.8987 673.415 12.112C673.266 12.6027 672.989 12.9333 672.583 13.104C672.199 13.2533 671.431 13.36 670.279 13.424C668.978 13.488 668.135 13.5733 667.751 13.68L667.239 13.808L667.367 18.32C667.41 20.3253 667.431 21.4027 667.431 21.552C667.431 22.4907 667.357 23.12 667.207 23.44C666.887 24.1227 666.365 24.464 665.639 24.464C665.362 24.464 665.074 24.4 664.775 24.272C664.541 24.1653 664.37 24.0693 664.263 23.984C664.157 23.8773 664.061 23.6107 663.975 23.184C663.89 22.736 663.837 22.2133 663.815 21.616C663.794 21.0187 663.773 20.0373 663.751 18.672L663.687 14.032L662.727 14.064C662.151 14.1067 661.639 14.192 661.191 14.32C661.085 14.3627 660.914 14.384 660.679 14.384C659.954 14.384 659.431 14.16 659.111 13.712C658.941 13.4347 658.855 13.0613 658.855 12.592C658.855 12.1867 658.919 11.8667 659.047 11.632C659.346 11.0987 660.391 10.6933 662.183 10.416L663.655 10.192L663.527 7.376C663.442 5.37067 663.367 4.00533 663.303 3.28C663.261 2.768 663.239 2.49067 663.239 2.448C663.239 2.14933 663.399 1.84 663.719 1.52ZM677.808 1.552C678.17 1.25333 678.544 1.104 678.928 1.104C679.696 1.104 680.261 1.57333 680.624 2.512C680.773 2.93867 680.933 3.96267 681.104 5.584C681.274 7.184 681.413 8.67733 681.52 10.064C681.626 11.4293 681.69 12.112 681.712 12.112C681.754 12.112 682.106 11.8773 682.768 11.408C684.069 10.4907 685.306 10.032 686.48 10.032C687.568 10.032 688.517 10.4373 689.328 11.248C690.16 12.0373 690.81 13.2 691.28 14.736C691.642 15.9307 691.824 17.7867 691.824 20.304C691.824 21.8827 691.728 22.9493 691.536 23.504C691.322 24.08 690.832 24.368 690.064 24.368C689.552 24.368 689.125 24.1973 688.784 23.856L688.304 23.376L688.208 20.144C688.08 15.984 687.504 13.84 686.48 13.712H686.384C685.893 13.712 685.285 13.9893 684.56 14.544C683.834 15.0773 683.312 15.664 682.992 16.304C682.8 16.7307 682.544 17.04 682.224 17.232L681.808 17.52L681.744 21.008C681.701 22.7147 681.658 23.7493 681.616 24.112C681.594 24.4533 681.477 24.7307 681.264 24.944C680.922 25.3067 680.496 25.488 679.984 25.488C679.216 25.488 678.682 25.1467 678.384 24.464C678.234 24.0587 678.128 21.6053 678.064 17.104C677.957 9.57333 677.68 5.06133 677.232 3.568C677.168 3.33333 677.136 3.10933 677.136 2.896C677.136 2.34133 677.36 1.89333 677.808 1.552ZM705.211 13.808C704.827 13.616 704.283 13.52 703.579 13.52C702.811 13.52 702.16 13.6373 701.627 13.872C701.264 14.0213 700.795 14.352 700.219 14.864C699.643 15.3547 699.355 15.6747 699.355 15.824C699.355 15.888 699.685 15.92 700.347 15.92C701.328 15.92 702.501 15.8667 703.867 15.76C705.232 15.6533 706.011 15.536 706.203 15.408C706.267 15.3867 706.299 15.3227 706.299 15.216C706.299 15.024 706.181 14.7787 705.947 14.48C705.712 14.16 705.467 13.936 705.211 13.808ZM701.435 10.096C701.968 9.94667 702.597 9.872 703.323 9.872C704.667 9.872 705.893 10.1387 707.003 10.672C707.835 11.0987 708.528 11.7493 709.083 12.624C709.637 13.4773 709.979 14.4373 710.107 15.504C710.107 15.5467 710.107 15.6107 710.107 15.696C710.128 15.7813 710.139 15.8453 710.139 15.888C710.139 16.4427 710.032 16.9867 709.819 17.52C709.627 18.0533 709.392 18.416 709.115 18.608C708.752 18.864 706.203 19.184 701.467 19.568C700.464 19.6533 699.963 19.7493 699.963 19.856C699.963 19.984 700.187 20.1867 700.635 20.464C701.083 20.7413 701.52 20.9333 701.947 21.04C702.331 21.1253 702.64 21.168 702.875 21.168C703.557 21.168 704.443 20.944 705.531 20.496C706.299 20.176 706.864 20.016 707.227 20.016C707.589 20.016 707.931 20.176 708.251 20.496C708.677 20.9227 708.891 21.328 708.891 21.712C708.891 21.968 708.827 22.2347 708.699 22.512C708.592 22.768 708.443 22.9707 708.251 23.12C708.08 23.2693 707.76 23.4507 707.291 23.664C705.733 24.3467 704.283 24.688 702.939 24.688C702.171 24.688 701.381 24.5707 700.571 24.336C699.483 23.9947 698.491 23.4187 697.595 22.608C696.699 21.776 696.059 20.8587 695.674 19.856C695.44 19.1947 695.323 18.4587 695.323 17.648C695.323 16.4747 695.515 15.4933 695.899 14.704C696.347 13.7227 697.104 12.784 698.171 11.888C699.237 10.992 700.325 10.3947 701.435 10.096ZM718.147 8.496C718.531 8.432 718.926 8.4 719.331 8.4C720.611 8.4 721.752 8.688 722.755 9.264C723.758 9.84 724.259 10.5013 724.259 11.248C724.259 11.44 724.227 11.6107 724.163 11.76C723.843 12.5707 723.363 12.976 722.723 12.976C722.254 12.976 721.72 12.8267 721.123 12.528C720.44 12.1867 719.811 12.016 719.235 12.016C718.616 12.016 718.104 12.2187 717.699 12.624C717.486 12.8373 717.379 13.008 717.379 13.136C717.379 13.3067 717.539 13.5093 717.859 13.744C718.2 13.9573 718.819 14.2987 719.715 14.768C721.187 15.536 722.179 16.1653 722.691 16.656C723.182 17.0827 723.608 17.616 723.971 18.256C724.334 18.8747 724.515 19.3973 724.515 19.824C724.515 20.3147 724.387 20.8053 724.131 21.296C723.875 21.7867 723.555 22.16 723.171 22.416C722.19 23.0773 720.995 23.408 719.587 23.408C718.264 23.408 716.899 23.0987 715.491 22.48C714.83 22.16 714.414 21.7973 714.243 21.392C714.115 21.0933 714.051 20.8267 714.051 20.592C714.051 20.1653 714.254 19.7493 714.659 19.344C714.936 19.024 715.31 18.864 715.779 18.864C716.227 18.864 716.771 19.0027 717.411 19.28C718.115 19.5787 718.926 19.728 719.843 19.728C720.27 19.728 720.483 19.6747 720.483 19.568C720.483 19.312 719.566 18.7253 717.731 17.808C716.302 17.0613 715.256 16.3253 714.595 15.6C713.934 14.8533 713.603 14.032 713.603 13.136C713.603 12.0693 714.04 11.088 714.915 10.192C715.811 9.27467 716.888 8.70933 718.147 8.496ZM737.898 13.808C737.514 13.616 736.97 13.52 736.266 13.52C735.498 13.52 734.847 13.6373 734.314 13.872C733.951 14.0213 733.482 14.352 732.906 14.864C732.33 15.3547 732.042 15.6747 732.042 15.824C732.042 15.888 732.373 15.92 733.034 15.92C734.015 15.92 735.189 15.8667 736.554 15.76C737.919 15.6533 738.698 15.536 738.89 15.408C738.954 15.3867 738.986 15.3227 738.986 15.216C738.986 15.024 738.869 14.7787 738.634 14.48C738.399 14.16 738.154 13.936 737.898 13.808ZM734.122 10.096C734.655 9.94667 735.285 9.872 736.01 9.872C737.354 9.872 738.581 10.1387 739.69 10.672C740.522 11.0987 741.215 11.7493 741.77 12.624C742.325 13.4773 742.666 14.4373 742.794 15.504C742.794 15.5467 742.794 15.6107 742.794 15.696C742.815 15.7813 742.826 15.8453 742.826 15.888C742.826 16.4427 742.719 16.9867 742.506 17.52C742.314 18.0533 742.079 18.416 741.802 18.608C741.439 18.864 738.89 19.184 734.154 19.568C733.151 19.6533 732.65 19.7493 732.65 19.856C732.65 19.984 732.874 20.1867 733.322 20.464C733.77 20.7413 734.207 20.9333 734.634 21.04C735.018 21.1253 735.327 21.168 735.562 21.168C736.245 21.168 737.13 20.944 738.218 20.496C738.986 20.176 739.551 20.016 739.914 20.016C740.277 20.016 740.618 20.176 740.938 20.496C741.365 20.9227 741.578 21.328 741.578 21.712C741.578 21.968 741.514 22.2347 741.386 22.512C741.279 22.768 741.13 22.9707 740.938 23.12C740.767 23.2693 740.447 23.4507 739.978 23.664C738.421 24.3467 736.97 24.688 735.626 24.688C734.858 24.688 734.069 24.5707 733.258 24.336C732.17 23.9947 731.178 23.4187 730.282 22.608C729.386 21.776 728.746 20.8587 728.362 19.856C728.127 19.1947 728.01 18.4587 728.01 17.648C728.01 16.4747 728.202 15.4933 728.586 14.704C729.034 13.7227 729.791 12.784 730.858 11.888C731.925 10.992 733.013 10.3947 734.122 10.096ZM768.015 13.616C767.162 13.2107 766.565 13.008 766.223 13.008C765.818 13.008 765.306 13.2853 764.687 13.84C763.855 14.608 763.439 15.5573 763.439 16.688C763.439 17.6053 763.738 18.2987 764.335 18.768C764.613 18.9813 764.901 19.088 765.199 19.088C765.562 19.088 766.021 18.9387 766.575 18.64C768.367 17.7013 769.263 16.4853 769.263 14.992V14.192L768.015 13.616ZM769.647 2.256C770.01 1.95733 770.437 1.808 770.927 1.808C771.247 1.808 771.514 1.872 771.727 2C771.983 2.14933 772.197 2.39467 772.367 2.736C772.495 2.992 772.581 3.70667 772.623 4.88C772.687 6.05333 772.73 8.74133 772.751 12.944L772.815 22.576L772.271 23.12C771.909 23.4827 771.493 23.664 771.023 23.664C770.575 23.664 770.17 23.504 769.807 23.184C769.445 22.864 769.263 22.5013 769.263 22.096C769.263 21.7547 769.242 21.5627 769.199 21.52H769.167C769.018 21.52 768.666 21.6587 768.111 21.936C767.066 22.4267 766.085 22.672 765.167 22.672C763.738 22.672 762.49 22.096 761.423 20.944C760.335 19.7493 759.791 18.3413 759.791 16.72C759.791 14.5867 760.623 12.752 762.287 11.216C763.546 10.064 764.911 9.488 766.383 9.488C767.023 9.488 767.61 9.57333 768.143 9.744C768.719 9.936 769.029 10.032 769.071 10.032C769.093 10.032 769.103 8.816 769.103 6.384V2.736L769.647 2.256ZM785.476 13.68C785.369 13.3387 785.273 13.1467 785.188 13.104C785.103 13.04 784.868 13.008 784.484 13.008C783.375 13.0293 782.34 13.552 781.38 14.576C780.42 15.5787 779.94 16.592 779.94 17.616C779.94 18.128 780.079 18.5547 780.356 18.896C780.975 19.5787 781.625 19.92 782.308 19.92C782.351 19.92 782.393 19.92 782.436 19.92C782.479 19.8987 782.521 19.888 782.564 19.888C782.948 19.8027 783.353 19.5467 783.78 19.12C784.228 18.6933 784.569 18.224 784.804 17.712C785.295 16.56 785.54 15.44 785.54 14.352C785.54 14.032 785.519 13.808 785.476 13.68ZM782.5 9.648C783.076 9.456 783.737 9.36 784.484 9.36C785.465 9.36 786.297 9.52 786.98 9.84C787.428 10.0747 787.833 10.4267 788.196 10.896C788.58 11.344 788.815 11.7707 788.9 12.176C788.985 12.5813 789.103 12.9653 789.252 13.328C789.487 13.9467 789.956 16.272 790.66 20.304C790.767 20.944 790.82 21.424 790.82 21.744C790.82 23.024 790.223 23.664 789.028 23.664C788.623 23.664 788.249 23.504 787.908 23.184C787.588 22.864 787.385 22.4693 787.3 22C787.215 21.5733 787.14 21.328 787.076 21.264C786.991 21.2 786.745 21.3707 786.34 21.776C785.124 22.992 783.727 23.6 782.148 23.6C781.871 23.6 781.583 23.568 781.284 23.504C780.111 23.248 779.012 22.608 777.988 21.584C776.836 20.432 776.26 19.1413 776.26 17.712C776.26 16.5813 776.612 15.3547 777.316 14.032C777.849 13.0293 778.575 12.1333 779.492 11.344C780.431 10.5547 781.433 9.98933 782.5 9.648ZM806.322 8.272C806.535 8.208 806.695 8.176 806.802 8.176C806.887 8.176 807.132 8.26133 807.538 8.432C807.964 8.60267 808.263 8.89067 808.434 9.296C808.519 9.46667 808.562 9.65867 808.562 9.872C808.562 10.192 808.306 11.1627 807.794 12.784C806.855 15.792 805.671 18.8107 804.242 21.84C803.58 23.2907 802.567 25.168 801.202 27.472C799.836 29.7973 799.004 31.0453 798.706 31.216C798.364 31.4293 798.012 31.536 797.65 31.536C797.159 31.536 796.732 31.3653 796.37 31.024C796.028 30.704 795.858 30.2773 795.858 29.744C795.858 29.36 796.199 28.6347 796.882 27.568C797.415 26.736 798.108 25.5627 798.962 24.048C799.815 22.512 800.242 21.6907 800.242 21.584C800.242 21.52 800.007 21.0933 799.538 20.304C799.324 19.9627 798.567 18.576 797.266 16.144C795.986 13.6907 795.207 12.272 794.93 11.888C794.588 11.3973 794.418 10.9067 794.418 10.416C794.418 9.712 794.759 9.21067 795.442 8.912C795.698 8.80533 795.922 8.752 796.114 8.752C796.562 8.752 796.999 9.008 797.426 9.52C797.852 10.0107 798.396 10.864 799.058 12.08C800.487 14.7253 801.458 16.4533 801.97 17.264C802.076 17.4133 802.14 17.488 802.162 17.488C802.247 17.488 802.46 17.0293 802.802 16.112C803.292 14.768 803.783 13.3387 804.274 11.824C804.7 10.4587 805.042 9.552 805.298 9.104C805.575 8.656 805.916 8.37867 806.322 8.272ZM816.616 8.496C817 8.432 817.394 8.4 817.8 8.4C819.08 8.4 820.221 8.688 821.224 9.264C822.226 9.84 822.728 10.5013 822.728 11.248C822.728 11.44 822.696 11.6107 822.632 11.76C822.312 12.5707 821.832 12.976 821.192 12.976C820.722 12.976 820.189 12.8267 819.592 12.528C818.909 12.1867 818.28 12.016 817.704 12.016C817.085 12.016 816.573 12.2187 816.168 12.624C815.954 12.8373 815.848 13.008 815.848 13.136C815.848 13.3067 816.008 13.5093 816.328 13.744C816.669 13.9573 817.288 14.2987 818.184 14.768C819.656 15.536 820.648 16.1653 821.16 16.656C821.65 17.0827 822.077 17.616 822.44 18.256C822.802 18.8747 822.984 19.3973 822.984 19.824C822.984 20.3147 822.856 20.8053 822.6 21.296C822.344 21.7867 822.024 22.16 821.64 22.416C820.658 23.0773 819.464 23.408 818.056 23.408C816.733 23.408 815.368 23.0987 813.96 22.48C813.298 22.16 812.882 21.7973 812.712 21.392C812.584 21.0933 812.52 20.8267 812.52 20.592C812.52 20.1653 812.722 19.7493 813.128 19.344C813.405 19.024 813.778 18.864 814.248 18.864C814.696 18.864 815.24 19.0027 815.88 19.28C816.584 19.5787 817.394 19.728 818.312 19.728C818.738 19.728 818.952 19.6747 818.952 19.568C818.952 19.312 818.034 18.7253 816.2 17.808C814.77 17.0613 813.725 16.3253 813.064 15.6C812.402 14.8533 812.072 14.032 812.072 13.136C812.072 12.0693 812.509 11.088 813.384 10.192C814.28 9.27467 815.357 8.70933 816.616 8.496ZM826.735 21.424C826.905 21.0613 827.097 20.816 827.311 20.688C827.524 20.56 827.897 20.496 828.431 20.496C828.793 20.496 829.039 20.528 829.167 20.592C829.316 20.656 829.487 20.8053 829.679 21.04C829.999 21.424 830.159 21.8293 830.159 22.256C830.159 22.7253 829.956 23.1627 829.551 23.568C829.145 23.9733 828.729 24.176 828.303 24.176C827.876 24.176 827.46 23.9947 827.055 23.632C826.671 23.248 826.479 22.8533 826.479 22.448C826.479 22.128 826.564 21.7867 826.735 21.424Z" fill="#27263C"/>
</svg>
