<svg width="398" height="32" viewBox="0 0 398 32" fill="none" xmlns="http://www.w3.org/2000/svg">
<path d="M3 2.128C3.23467 1.91467 3.544 1.808 3.928 1.808C4.39733 1.808 4.81333 1.968 5.176 2.288C5.38933 2.50133 5.77333 3.07733 6.328 4.016C6.88267 4.95467 7.45867 5.94667 8.056 6.992C8.65333 8.03733 9.00533 8.64533 9.112 8.816C9.56 9.47733 10.0507 10.1707 10.584 10.896C11.1387 11.6 11.448 11.952 11.512 11.952C11.5547 11.952 11.896 11.3973 12.536 10.288C13.0907 9.264 13.8373 8.048 14.776 6.64C15.7147 5.232 16.3973 4.304 16.824 3.856C17.2507 3.42933 17.7093 3.216 18.2 3.216C18.4987 3.216 18.7547 3.25867 18.968 3.344C19.2027 3.408 19.416 3.55733 19.608 3.792C19.8213 4.00533 19.992 4.28267 20.12 4.624C20.2693 4.944 20.408 5.41333 20.536 6.032C20.6853 6.65067 20.8027 7.33333 20.888 8.08C20.9733 8.80533 21.0587 9.75467 21.144 10.928C21.2507 12.08 21.336 13.3067 21.4 14.608C21.4853 15.9093 21.5707 17.488 21.656 19.344L21.88 23.664L21.336 24.208C20.952 24.592 20.5253 24.784 20.056 24.784C19.5867 24.784 19.1707 24.6027 18.808 24.24L18.296 23.728L18.04 19.12C17.72 13.1253 17.5067 9.95733 17.4 9.616C17.3573 9.50933 17.3147 9.44533 17.272 9.424C17.208 9.424 17.016 9.69067 16.696 10.224C16.2693 10.8853 15.672 11.9627 14.904 13.456C14.2 14.8213 13.6453 15.728 13.24 16.176C12.8347 16.624 12.3547 16.848 11.8 16.848C11.4587 16.848 11.192 16.7947 11 16.688C10.8293 16.56 10.488 16.24 9.976 15.728C9.42133 15.152 8.71733 14.32 7.864 13.232C7.032 12.1227 6.38133 11.184 5.912 10.416C5.57067 9.88267 5.34667 9.616 5.24 9.616H5.208C5.144 9.65867 5.06933 10.1067 4.984 10.96C4.92 11.792 4.84533 12.816 4.76 14.032C4.67467 15.2267 4.6 16.4107 4.536 17.584C4.472 18.7573 4.408 19.792 4.344 20.688C4.30133 21.584 4.28 22.0533 4.28 22.096C4.19467 23.248 3.77867 23.9413 3.032 24.176C2.88267 24.24 2.712 24.272 2.52 24.272C1.85867 24.272 1.32533 23.984 0.92 23.408C0.792 23.216 0.728 22.864 0.728 22.352C0.728 21.584 0.92 18.4053 1.304 12.816C1.624 8.272 1.86933 5.44533 2.04 4.336C2.21067 3.22667 2.53067 2.49067 3 2.128ZM34.5698 13.68C34.4631 13.3387 34.3671 13.1467 34.2818 13.104C34.1964 13.04 33.9618 13.008 33.5778 13.008C32.4684 13.0293 31.4338 13.552 30.4738 14.576C29.5138 15.5787 29.0338 16.592 29.0338 17.616C29.0338 18.128 29.1724 18.5547 29.4498 18.896C30.0684 19.5787 30.7191 19.92 31.4018 19.92C31.4444 19.92 31.4871 19.92 31.5298 19.92C31.5724 19.8987 31.6151 19.888 31.6578 19.888C32.0418 19.8027 32.4471 19.5467 32.8738 19.12C33.3218 18.6933 33.6631 18.224 33.8978 17.712C34.3884 16.56 34.6338 15.44 34.6338 14.352C34.6338 14.032 34.6124 13.808 34.5698 13.68ZM31.5938 9.648C32.1698 9.456 32.8311 9.36 33.5778 9.36C34.5591 9.36 35.3911 9.52 36.0738 9.84C36.5218 10.0747 36.9271 10.4267 37.2898 10.896C37.6738 11.344 37.9084 11.7707 37.9938 12.176C38.0791 12.5813 38.1964 12.9653 38.3458 13.328C38.5804 13.9467 39.0498 16.272 39.7537 20.304C39.8604 20.944 39.9138 21.424 39.9138 21.744C39.9138 23.024 39.3164 23.664 38.1218 23.664C37.7164 23.664 37.3431 23.504 37.0018 23.184C36.6818 22.864 36.4791 22.4693 36.3938 22C36.3084 21.5733 36.2338 21.328 36.1698 21.264C36.0844 21.2 35.8391 21.3707 35.4338 21.776C34.2178 22.992 32.8204 23.6 31.2418 23.6C30.9644 23.6 30.6764 23.568 30.3778 23.504C29.2044 23.248 28.1058 22.608 27.0818 21.584C25.9298 20.432 25.3538 19.1413 25.3538 17.712C25.3538 16.5813 25.7058 15.3547 26.4098 14.032C26.9431 13.0293 27.6684 12.1333 28.5858 11.344C29.5244 10.5547 30.5271 9.98933 31.5938 9.648ZM55.4155 8.272C55.6288 8.208 55.7888 8.176 55.8955 8.176C55.9808 8.176 56.2262 8.26133 56.6315 8.432C57.0582 8.60267 57.3568 8.89067 57.5275 9.296C57.6128 9.46667 57.6555 9.65867 57.6555 9.872C57.6555 10.192 57.3995 11.1627 56.8875 12.784C55.9488 15.792 54.7648 18.8107 53.3355 21.84C52.6742 23.2907 51.6608 25.168 50.2955 27.472C48.9302 29.7973 48.0982 31.0453 47.7995 31.216C47.4582 31.4293 47.1062 31.536 46.7435 31.536C46.2528 31.536 45.8262 31.3653 45.4635 31.024C45.1222 30.704 44.9515 30.2773 44.9515 29.744C44.9515 29.36 45.2928 28.6347 45.9755 27.568C46.5088 26.736 47.2022 25.5627 48.0555 24.048C48.9088 22.512 49.3355 21.6907 49.3355 21.584C49.3355 21.52 49.1008 21.0933 48.6315 20.304C48.4182 19.9627 47.6608 18.576 46.3595 16.144C45.0795 13.6907 44.3008 12.272 44.0235 11.888C43.6822 11.3973 43.5115 10.9067 43.5115 10.416C43.5115 9.712 43.8528 9.21067 44.5355 8.912C44.7915 8.80533 45.0155 8.752 45.2075 8.752C45.6555 8.752 46.0928 9.008 46.5195 9.52C46.9462 10.0107 47.4902 10.864 48.1515 12.08C49.5808 14.7253 50.5515 16.4533 51.0635 17.264C51.1702 17.4133 51.2342 17.488 51.2555 17.488C51.3408 17.488 51.5542 17.0293 51.8955 16.112C52.3862 14.768 52.8768 13.3387 53.3675 11.824C53.7942 10.4587 54.1355 9.552 54.3915 9.104C54.6688 8.656 55.0102 8.37867 55.4155 8.272ZM72.0455 15.152C71.6402 14.64 71.0642 14.2133 70.3175 13.872C69.5708 13.5307 68.7068 13.36 67.7255 13.36C67.1282 13.36 66.6695 13.4347 66.3495 13.584C66.0082 13.7333 65.6775 14.0747 65.3575 14.608C65.0588 15.12 64.9095 15.7493 64.9095 16.496V17.04C64.9735 18.5547 65.0162 19.4507 65.0375 19.728L65.1655 20.752L65.9335 20.88C66.2322 20.9227 66.4775 20.944 66.6695 20.944C67.9282 20.944 69.0695 20.6987 70.0935 20.208C70.6055 19.9733 71.0962 19.5893 71.5655 19.056C72.0562 18.5013 72.3868 17.9573 72.5575 17.424C72.6428 17.1253 72.6855 16.8907 72.6855 16.72C72.6855 16.1653 72.4722 15.6427 72.0455 15.152ZM61.9655 2.416C62.1788 2.30933 62.4348 2.256 62.7335 2.256C63.2455 2.256 63.6935 2.448 64.0775 2.832C64.3122 3.06667 64.4508 3.35467 64.4935 3.696C64.5575 4.016 64.6428 5.02933 64.7495 6.736C64.8562 8.976 64.9308 10.1173 64.9735 10.16H65.0055C65.1122 10.16 65.4855 10.0853 66.1255 9.936C66.8722 9.76533 67.5228 9.68 68.0775 9.68C69.1442 9.68 70.4455 10.032 71.9815 10.736C73.7308 11.5467 74.9575 12.6773 75.6615 14.128C75.8748 14.576 76.0028 14.9493 76.0455 15.248C76.1095 15.5467 76.1415 16.048 76.1415 16.752C76.1415 17.456 76.1095 17.9573 76.0455 18.256C75.9815 18.5333 75.8108 18.96 75.5335 19.536C74.9148 20.7307 74.0615 21.744 72.9735 22.576C71.8855 23.408 70.6802 23.9627 69.3575 24.24C68.5895 24.4107 67.7895 24.496 66.9575 24.496C66.1682 24.496 65.2402 24.4213 64.1735 24.272C63.3628 24.144 62.8295 24.0373 62.5735 23.952C62.3175 23.8667 62.0828 23.7067 61.8695 23.472L61.3895 22.96V17.968C61.3895 14.96 61.3255 11.7067 61.1975 8.208C61.1335 6.56533 61.1015 5.38133 61.1015 4.656C61.1015 3.80267 61.1548 3.25867 61.2615 3.024C61.3682 2.78933 61.6028 2.58667 61.9655 2.416ZM89.5543 13.808C89.1703 13.616 88.6263 13.52 87.9223 13.52C87.1543 13.52 86.5036 13.6373 85.9703 13.872C85.6076 14.0213 85.1383 14.352 84.5623 14.864C83.9863 15.3547 83.6983 15.6747 83.6983 15.824C83.6983 15.888 84.0289 15.92 84.6903 15.92C85.6716 15.92 86.8449 15.8667 88.2103 15.76C89.5756 15.6533 90.3543 15.536 90.5463 15.408C90.6103 15.3867 90.6423 15.3227 90.6423 15.216C90.6423 15.024 90.5249 14.7787 90.2903 14.48C90.0556 14.16 89.8103 13.936 89.5543 13.808ZM85.7783 10.096C86.3116 9.94667 86.9409 9.872 87.6663 9.872C89.0103 9.872 90.2369 10.1387 91.3463 10.672C92.1783 11.0987 92.8716 11.7493 93.4263 12.624C93.9809 13.4773 94.3223 14.4373 94.4503 15.504C94.4503 15.5467 94.4503 15.6107 94.4503 15.696C94.4716 15.7813 94.4823 15.8453 94.4823 15.888C94.4823 16.4427 94.3756 16.9867 94.1623 17.52C93.9703 18.0533 93.7356 18.416 93.4583 18.608C93.0956 18.864 90.5463 19.184 85.8103 19.568C84.8076 19.6533 84.3063 19.7493 84.3063 19.856C84.3063 19.984 84.5303 20.1867 84.9783 20.464C85.4263 20.7413 85.8636 20.9333 86.2903 21.04C86.6743 21.1253 86.9836 21.168 87.2183 21.168C87.9009 21.168 88.7863 20.944 89.8743 20.496C90.6423 20.176 91.2076 20.016 91.5703 20.016C91.9329 20.016 92.2743 20.176 92.5943 20.496C93.0209 20.9227 93.2343 21.328 93.2343 21.712C93.2343 21.968 93.1703 22.2347 93.0423 22.512C92.9356 22.768 92.7863 22.9707 92.5943 23.12C92.4236 23.2693 92.1036 23.4507 91.6343 23.664C90.0769 24.3467 88.6263 24.688 87.2823 24.688C86.5143 24.688 85.7249 24.5707 84.9143 24.336C83.8263 23.9947 82.8343 23.4187 81.9383 22.608C81.0423 21.776 80.4023 20.8587 80.0182 19.856C79.7836 19.1947 79.6663 18.4587 79.6663 17.648C79.6663 16.4747 79.8583 15.4933 80.2423 14.704C80.6903 13.7227 81.4476 12.784 82.5143 11.888C83.5809 10.992 84.6689 10.3947 85.7783 10.096ZM107.741 8.816C108.061 8.496 108.466 8.336 108.957 8.336C109.618 8.336 110.077 8.56 110.333 9.008C110.61 9.43467 111.047 10.64 111.645 12.624C111.815 13.1787 112.029 13.8933 112.285 14.768C113.01 17.072 113.426 18.2453 113.533 18.288C113.661 18.288 113.949 17.648 114.397 16.368C115.122 14.192 115.719 12.6667 116.189 11.792C116.679 10.9173 117.255 10.3413 117.917 10.064C118.237 9.91467 118.557 9.84 118.877 9.84C119.346 9.84 119.773 10.064 120.157 10.512C120.562 10.9387 121.01 11.664 121.501 12.688C123.378 16.6773 124.37 18.672 124.477 18.672C124.519 18.672 124.765 18 125.213 16.656C125.682 15.2907 126.173 13.8827 126.685 12.432C127.218 10.9813 127.57 10.16 127.741 9.968C128.082 9.584 128.487 9.392 128.957 9.392C129.469 9.392 129.938 9.616 130.365 10.064C130.599 10.2987 130.717 10.608 130.717 10.992C130.717 11.6107 130.226 13.36 129.245 16.24C128.221 19.248 127.431 21.2213 126.877 22.16C126.322 23.0773 125.629 23.536 124.797 23.536C124.541 23.536 124.349 23.5253 124.221 23.504C123.538 23.3973 122.951 23.0453 122.461 22.448C121.97 21.8507 121.255 20.5707 120.317 18.608C119.271 16.432 118.717 15.344 118.653 15.344C118.589 15.344 118.397 15.792 118.077 16.688C117.053 19.632 116.327 21.5413 115.901 22.416C115.474 23.2907 115.026 23.8347 114.557 24.048C114.194 24.1973 113.767 24.272 113.277 24.272C112.85 24.272 112.519 24.2187 112.285 24.112C111.858 23.8987 111.346 23.0453 110.749 21.552C110.151 20.0587 109.309 17.4987 108.221 13.872C107.602 11.824 107.293 10.512 107.293 9.936C107.293 9.488 107.442 9.11467 107.741 8.816ZM134.933 1.552C135.295 1.25333 135.669 1.104 136.053 1.104C136.821 1.104 137.386 1.57333 137.749 2.512C137.898 2.93867 138.058 3.96267 138.229 5.584C138.399 7.184 138.538 8.67733 138.645 10.064C138.751 11.4293 138.815 12.112 138.837 12.112C138.879 12.112 139.231 11.8773 139.893 11.408C141.194 10.4907 142.431 10.032 143.605 10.032C144.693 10.032 145.642 10.4373 146.453 11.248C147.285 12.0373 147.935 13.2 148.405 14.736C148.767 15.9307 148.949 17.7867 148.949 20.304C148.949 21.8827 148.853 22.9493 148.661 23.504C148.447 24.08 147.957 24.368 147.189 24.368C146.677 24.368 146.25 24.1973 145.909 23.856L145.429 23.376L145.333 20.144C145.205 15.984 144.629 13.84 143.605 13.712H143.509C143.018 13.712 142.41 13.9893 141.685 14.544C140.959 15.0773 140.437 15.664 140.117 16.304C139.925 16.7307 139.669 17.04 139.349 17.232L138.933 17.52L138.869 21.008C138.826 22.7147 138.783 23.7493 138.741 24.112C138.719 24.4533 138.602 24.7307 138.389 24.944C138.047 25.3067 137.621 25.488 137.109 25.488C136.341 25.488 135.807 25.1467 135.509 24.464C135.359 24.0587 135.253 21.6053 135.189 17.104C135.082 9.57333 134.805 5.06133 134.357 3.568C134.293 3.33333 134.261 3.10933 134.261 2.896C134.261 2.34133 134.485 1.89333 134.933 1.552ZM161.664 13.68C161.557 13.3387 161.461 13.1467 161.376 13.104C161.29 13.04 161.056 13.008 160.672 13.008C159.562 13.0293 158.528 13.552 157.568 14.576C156.608 15.5787 156.128 16.592 156.128 17.616C156.128 18.128 156.266 18.5547 156.544 18.896C157.162 19.5787 157.813 19.92 158.496 19.92C158.538 19.92 158.581 19.92 158.624 19.92C158.666 19.8987 158.709 19.888 158.752 19.888C159.136 19.8027 159.541 19.5467 159.968 19.12C160.416 18.6933 160.757 18.224 160.992 17.712C161.482 16.56 161.728 15.44 161.728 14.352C161.728 14.032 161.706 13.808 161.664 13.68ZM158.688 9.648C159.264 9.456 159.925 9.36 160.672 9.36C161.653 9.36 162.485 9.52 163.168 9.84C163.616 10.0747 164.021 10.4267 164.384 10.896C164.768 11.344 165.002 11.7707 165.088 12.176C165.173 12.5813 165.29 12.9653 165.44 13.328C165.674 13.9467 166.144 16.272 166.847 20.304C166.954 20.944 167.008 21.424 167.008 21.744C167.008 23.024 166.41 23.664 165.216 23.664C164.81 23.664 164.437 23.504 164.096 23.184C163.776 22.864 163.573 22.4693 163.488 22C163.402 21.5733 163.328 21.328 163.264 21.264C163.178 21.2 162.933 21.3707 162.528 21.776C161.312 22.992 159.914 23.6 158.336 23.6C158.058 23.6 157.77 23.568 157.472 23.504C156.298 23.248 155.2 22.608 154.176 21.584C153.024 20.432 152.448 19.1413 152.448 17.712C152.448 16.5813 152.8 15.3547 153.504 14.032C154.037 13.0293 154.762 12.1333 155.68 11.344C156.618 10.5547 157.621 9.98933 158.688 9.648ZM175.469 1.52C175.832 1.15733 176.269 0.975998 176.781 0.975998C177.165 0.975998 177.507 1.09333 177.805 1.328C178.125 1.54133 178.349 1.85067 178.477 2.256C178.541 2.49067 178.648 3.6 178.797 5.584C178.947 7.54667 179.021 8.912 179.021 9.68C179.021 9.872 179.064 9.98933 179.149 10.032C179.256 10.0747 179.501 10.096 179.885 10.096C180.461 10.096 180.792 10.032 180.877 9.904C180.92 9.79733 181.357 9.744 182.189 9.744C183.256 9.744 183.96 9.81867 184.301 9.968C184.621 10.1173 184.867 10.4053 185.037 10.832C185.187 11.1307 185.261 11.376 185.261 11.568C185.261 11.7173 185.229 11.8987 185.165 12.112C185.016 12.6027 184.739 12.9333 184.333 13.104C183.949 13.2533 183.181 13.36 182.029 13.424C180.728 13.488 179.885 13.5733 179.501 13.68L178.989 13.808L179.117 18.32C179.16 20.3253 179.181 21.4027 179.181 21.552C179.181 22.4907 179.107 23.12 178.957 23.44C178.637 24.1227 178.115 24.464 177.389 24.464C177.112 24.464 176.824 24.4 176.525 24.272C176.291 24.1653 176.12 24.0693 176.013 23.984C175.907 23.8773 175.811 23.6107 175.725 23.184C175.64 22.736 175.587 22.2133 175.565 21.616C175.544 21.0187 175.523 20.0373 175.501 18.672L175.437 14.032L174.477 14.064C173.901 14.1067 173.389 14.192 172.941 14.32C172.835 14.3627 172.664 14.384 172.429 14.384C171.704 14.384 171.181 14.16 170.861 13.712C170.691 13.4347 170.605 13.0613 170.605 12.592C170.605 12.1867 170.669 11.8667 170.797 11.632C171.096 11.0987 172.141 10.6933 173.933 10.416L175.405 10.192L175.277 7.376C175.192 5.37067 175.117 4.00533 175.053 3.28C175.011 2.768 174.989 2.49067 174.989 2.448C174.989 2.14933 175.149 1.84 175.469 1.52ZM189.622 2.384C189.92 2.10667 190.304 1.968 190.774 1.968C191.286 1.968 191.702 2.13867 192.022 2.48C192.256 2.71467 192.395 2.98133 192.438 3.28C192.502 3.57867 192.544 4.368 192.566 5.648C192.587 6.07467 192.598 6.58667 192.598 7.184C192.598 8.05867 192.523 8.64533 192.374 8.944C192.075 9.62667 191.574 9.968 190.87 9.968C190.784 9.968 190.635 9.94667 190.422 9.904C189.867 9.75467 189.472 9.37067 189.238 8.752C189.003 8.112 188.875 7.056 188.854 5.584V5.296C188.854 3.80267 189.11 2.832 189.622 2.384ZM199.592 8.208C199.976 8.10133 200.573 8.048 201.384 8.048C203.09 8.048 204.328 8.176 205.096 8.432C206.162 8.77333 206.696 9.36 206.696 10.192C206.696 10.6827 206.461 11.1307 205.992 11.536C205.672 11.8347 205.362 11.984 205.064 11.984C205.042 11.984 205 11.984 204.936 11.984C204.872 11.9627 204.818 11.952 204.776 11.952C203.368 11.7173 202.258 11.6 201.448 11.6C201.192 11.6 200.957 11.6213 200.744 11.664C200.082 11.8347 199.752 12.144 199.752 12.592C199.752 12.6773 199.762 12.7413 199.784 12.784C199.933 13.2107 200.776 13.744 202.312 14.384C205.064 15.536 206.76 16.9653 207.4 18.672C207.592 19.184 207.688 19.664 207.688 20.112C207.688 20.9013 207.4 21.5733 206.824 22.128C206.269 22.6827 205.48 23.056 204.456 23.248C204.029 23.3333 203.325 23.376 202.344 23.376C200.552 23.376 199.41 23.2693 198.92 23.056C198.642 22.928 198.408 22.7147 198.216 22.416C198.024 22.096 197.928 21.7867 197.928 21.488C197.928 21.168 198.034 20.848 198.248 20.528C198.461 20.1867 198.717 19.952 199.016 19.824C199.293 19.7173 199.624 19.664 200.008 19.664C200.157 19.664 200.488 19.6853 201 19.728C201.341 19.7707 201.8 19.792 202.376 19.792C203.272 19.792 203.72 19.6853 203.72 19.472C203.72 19.088 202.792 18.512 200.936 17.744C199.272 17.0187 198.045 16.2613 197.256 15.472C196.488 14.6613 196.104 13.744 196.104 12.72C196.104 12.5493 196.125 12.2933 196.168 11.952C196.338 10.9067 196.765 10.0747 197.448 9.456C198.002 8.90133 198.717 8.48533 199.592 8.208ZM226.394 8.912C226.479 8.89067 226.607 8.88 226.778 8.88C227.183 8.88 227.556 8.98667 227.898 9.2C228.239 9.392 228.474 9.65867 228.602 10C228.687 10.192 228.772 11.6533 228.858 14.384C228.964 17.0933 229.018 19.2267 229.018 20.784C229.018 21.4453 229.007 21.8293 228.986 21.936C228.879 22.7467 228.527 23.2907 227.93 23.568C227.631 23.696 227.396 23.76 227.226 23.76C227.098 23.76 226.906 23.728 226.65 23.664C226.159 23.5147 225.85 23.312 225.722 23.056C225.466 22.5653 225.316 20.6667 225.274 17.36C225.274 16.7627 225.263 15.728 225.242 14.256L225.21 9.872L225.594 9.424C225.85 9.12533 226.116 8.95467 226.394 8.912ZM225.626 2.896C225.882 2.768 226.127 2.704 226.362 2.704C226.831 2.704 227.247 2.896 227.61 3.28C227.972 3.64267 228.154 4.06933 228.154 4.56C228.154 4.90133 228.068 5.2 227.898 5.456C227.535 6.032 227.044 6.32 226.426 6.32C226.02 6.32 225.647 6.18133 225.306 5.904C224.964 5.62667 224.751 5.24267 224.666 4.752C224.666 4.73067 224.655 4.69867 224.634 4.656C224.634 4.592 224.634 4.54933 224.634 4.528C224.634 4.208 224.73 3.89867 224.922 3.6C225.114 3.28 225.348 3.04533 225.626 2.896ZM233.311 9.072C233.567 8.944 233.833 8.88 234.111 8.88C234.495 8.88 234.857 9.008 235.199 9.264C235.54 9.49867 235.775 9.81867 235.903 10.224L236.095 10.896L236.895 10.416C237.428 10.096 238.164 9.936 239.103 9.936C240.02 9.936 240.777 10.0853 241.375 10.384C241.865 10.6187 242.388 11.0027 242.943 11.536C243.519 12.0693 243.977 12.6027 244.319 13.136C245.471 14.9493 246.1 17.7653 246.207 21.584V22.224C246.207 22.736 246.057 23.152 245.759 23.472C245.396 23.8347 244.969 24.016 244.479 24.016C243.689 24.016 243.167 23.6747 242.911 22.992C242.783 22.6293 242.676 21.9147 242.591 20.848C242.335 17.1147 241.503 14.7787 240.095 13.84C239.796 13.648 239.497 13.552 239.199 13.552C238.644 13.552 238.143 13.8613 237.695 14.48C237.268 15.0773 236.927 15.9307 236.671 17.04C236.564 17.5307 236.436 18.416 236.287 19.696C236.137 20.976 236.063 21.84 236.063 22.288C236.063 22.5013 235.881 22.7893 235.519 23.152C235.156 23.4933 234.74 23.664 234.271 23.664C233.396 23.664 232.82 23.2053 232.543 22.288C232.415 21.84 232.351 19.8987 232.351 16.464C232.351 12.368 232.425 10.1387 232.575 9.776C232.703 9.49867 232.948 9.264 233.311 9.072ZM254.752 2.192C255.093 1.97867 255.413 1.872 255.712 1.872C255.947 1.872 256.213 1.936 256.512 2.064C256.96 2.27733 257.248 2.608 257.376 3.056C257.504 3.504 257.589 4.57067 257.632 6.256L257.728 9.424L259.2 9.328C259.371 9.30667 259.616 9.296 259.936 9.296C260.704 9.296 261.248 9.43467 261.568 9.712C261.909 9.98933 262.08 10.4373 262.08 11.056C262.08 11.7173 261.856 12.1867 261.408 12.464C260.981 12.7413 260.149 12.9333 258.912 13.04L257.568 13.168L257.344 17.616C257.195 20.624 257.056 22.288 256.928 22.608C256.651 23.248 256.117 23.568 255.328 23.568C254.88 23.568 254.528 23.4507 254.272 23.216C253.995 23.0027 253.803 22.768 253.696 22.512C253.589 22.256 253.536 21.84 253.536 21.264C253.536 20.7947 253.568 20.0907 253.632 19.152C253.739 17.4667 253.813 16.0267 253.856 14.832L253.888 13.328L252.448 13.296C251.637 13.2747 251.083 13.2107 250.784 13.104C250.485 12.976 250.229 12.72 250.016 12.336C249.888 12.08 249.824 11.8133 249.824 11.536C249.824 11.024 250.037 10.576 250.464 10.192C250.699 9.97867 250.997 9.84 251.36 9.776C251.723 9.69067 252.395 9.60533 253.376 9.52L253.888 9.456L254.016 6.064C254.037 5.552 254.048 4.99733 254.048 4.4C254.069 3.78133 254.08 3.32266 254.08 3.024L254.112 2.576L254.208 2.512C254.272 2.46933 254.357 2.416 254.464 2.352C254.571 2.288 254.667 2.23467 254.752 2.192ZM275.523 13.808C275.139 13.616 274.595 13.52 273.891 13.52C273.123 13.52 272.472 13.6373 271.939 13.872C271.576 14.0213 271.107 14.352 270.531 14.864C269.955 15.3547 269.667 15.6747 269.667 15.824C269.667 15.888 269.998 15.92 270.659 15.92C271.64 15.92 272.814 15.8667 274.179 15.76C275.544 15.6533 276.323 15.536 276.515 15.408C276.579 15.3867 276.611 15.3227 276.611 15.216C276.611 15.024 276.494 14.7787 276.259 14.48C276.024 14.16 275.779 13.936 275.523 13.808ZM271.747 10.096C272.28 9.94667 272.91 9.872 273.635 9.872C274.979 9.872 276.206 10.1387 277.315 10.672C278.147 11.0987 278.84 11.7493 279.395 12.624C279.95 13.4773 280.291 14.4373 280.419 15.504C280.419 15.5467 280.419 15.6107 280.419 15.696C280.44 15.7813 280.451 15.8453 280.451 15.888C280.451 16.4427 280.344 16.9867 280.131 17.52C279.939 18.0533 279.704 18.416 279.427 18.608C279.064 18.864 276.515 19.184 271.779 19.568C270.776 19.6533 270.275 19.7493 270.275 19.856C270.275 19.984 270.499 20.1867 270.947 20.464C271.395 20.7413 271.832 20.9333 272.259 21.04C272.643 21.1253 272.952 21.168 273.187 21.168C273.87 21.168 274.755 20.944 275.843 20.496C276.611 20.176 277.176 20.016 277.539 20.016C277.902 20.016 278.243 20.176 278.563 20.496C278.99 20.9227 279.203 21.328 279.203 21.712C279.203 21.968 279.139 22.2347 279.011 22.512C278.904 22.768 278.755 22.9707 278.563 23.12C278.392 23.2693 278.072 23.4507 277.603 23.664C276.046 24.3467 274.595 24.688 273.251 24.688C272.483 24.688 271.694 24.5707 270.883 24.336C269.795 23.9947 268.803 23.4187 267.907 22.608C267.011 21.776 266.371 20.8587 265.987 19.856C265.752 19.1947 265.635 18.4587 265.635 17.648C265.635 16.4747 265.827 15.4933 266.211 14.704C266.659 13.7227 267.416 12.784 268.483 11.888C269.55 10.992 270.638 10.3947 271.747 10.096ZM284.396 9.328C284.78 9.008 285.196 8.848 285.644 8.848C286.113 8.848 286.518 9.01867 286.86 9.36C287.201 9.68 287.372 10.096 287.372 10.608C287.372 11.12 287.468 11.376 287.66 11.376C287.766 11.376 287.99 11.2587 288.332 11.024C289.91 9.936 291.478 9.392 293.036 9.392C293.697 9.392 294.348 9.50933 294.988 9.744C295.564 9.97867 295.969 10.2347 296.204 10.512C296.438 10.7893 296.556 11.1627 296.556 11.632C296.556 12.144 296.364 12.5813 295.98 12.944C295.66 13.2427 295.372 13.392 295.116 13.392C295.03 13.392 294.433 13.3173 293.324 13.168C293.196 13.1467 293.014 13.136 292.78 13.136C292.438 13.136 292.001 13.2533 291.468 13.488C290.081 14.128 289.11 14.9387 288.556 15.92C288.001 16.9013 287.724 18.3093 287.724 20.144C287.702 21.488 287.542 22.4267 287.244 22.96C286.966 23.4933 286.465 23.76 285.74 23.76C285.249 23.76 284.833 23.5893 284.492 23.248L283.98 22.736L283.916 17.072C283.873 12.8907 283.852 10.736 283.852 10.608C283.852 10.096 284.033 9.66933 284.396 9.328ZM309.961 13.808C309.577 13.616 309.033 13.52 308.329 13.52C307.561 13.52 306.91 13.6373 306.377 13.872C306.014 14.0213 305.545 14.352 304.969 14.864C304.393 15.3547 304.105 15.6747 304.105 15.824C304.105 15.888 304.435 15.92 305.097 15.92C306.078 15.92 307.251 15.8667 308.617 15.76C309.982 15.6533 310.761 15.536 310.953 15.408C311.017 15.3867 311.049 15.3227 311.049 15.216C311.049 15.024 310.931 14.7787 310.697 14.48C310.462 14.16 310.217 13.936 309.961 13.808ZM306.185 10.096C306.718 9.94667 307.347 9.872 308.073 9.872C309.417 9.872 310.643 10.1387 311.753 10.672C312.585 11.0987 313.278 11.7493 313.833 12.624C314.387 13.4773 314.729 14.4373 314.857 15.504C314.857 15.5467 314.857 15.6107 314.857 15.696C314.878 15.7813 314.889 15.8453 314.889 15.888C314.889 16.4427 314.782 16.9867 314.569 17.52C314.377 18.0533 314.142 18.416 313.865 18.608C313.502 18.864 310.953 19.184 306.217 19.568C305.214 19.6533 304.713 19.7493 304.713 19.856C304.713 19.984 304.937 20.1867 305.385 20.464C305.833 20.7413 306.27 20.9333 306.697 21.04C307.081 21.1253 307.39 21.168 307.625 21.168C308.307 21.168 309.193 20.944 310.281 20.496C311.049 20.176 311.614 20.016 311.977 20.016C312.339 20.016 312.681 20.176 313.001 20.496C313.427 20.9227 313.641 21.328 313.641 21.712C313.641 21.968 313.577 22.2347 313.449 22.512C313.342 22.768 313.193 22.9707 313.001 23.12C312.83 23.2693 312.51 23.4507 312.041 23.664C310.483 24.3467 309.033 24.688 307.689 24.688C306.921 24.688 306.131 24.5707 305.321 24.336C304.233 23.9947 303.241 23.4187 302.345 22.608C301.449 21.776 300.809 20.8587 300.424 19.856C300.19 19.1947 300.073 18.4587 300.073 17.648C300.073 16.4747 300.265 15.4933 300.649 14.704C301.097 13.7227 301.854 12.784 302.921 11.888C303.987 10.992 305.075 10.3947 306.185 10.096ZM322.897 8.496C323.281 8.432 323.676 8.4 324.081 8.4C325.361 8.4 326.502 8.688 327.505 9.264C328.508 9.84 329.009 10.5013 329.009 11.248C329.009 11.44 328.977 11.6107 328.913 11.76C328.593 12.5707 328.113 12.976 327.473 12.976C327.004 12.976 326.47 12.8267 325.873 12.528C325.19 12.1867 324.561 12.016 323.985 12.016C323.366 12.016 322.854 12.2187 322.449 12.624C322.236 12.8373 322.129 13.008 322.129 13.136C322.129 13.3067 322.289 13.5093 322.609 13.744C322.95 13.9573 323.569 14.2987 324.465 14.768C325.937 15.536 326.929 16.1653 327.441 16.656C327.932 17.0827 328.358 17.616 328.721 18.256C329.084 18.8747 329.265 19.3973 329.265 19.824C329.265 20.3147 329.137 20.8053 328.881 21.296C328.625 21.7867 328.305 22.16 327.921 22.416C326.94 23.0773 325.745 23.408 324.337 23.408C323.014 23.408 321.649 23.0987 320.241 22.48C319.58 22.16 319.164 21.7973 318.993 21.392C318.865 21.0933 318.801 20.8267 318.801 20.592C318.801 20.1653 319.004 19.7493 319.409 19.344C319.686 19.024 320.06 18.864 320.529 18.864C320.977 18.864 321.521 19.0027 322.161 19.28C322.865 19.5787 323.676 19.728 324.593 19.728C325.02 19.728 325.233 19.6747 325.233 19.568C325.233 19.312 324.316 18.7253 322.481 17.808C321.052 17.0613 320.006 16.3253 319.345 15.6C318.684 14.8533 318.353 14.032 318.353 13.136C318.353 12.0693 318.79 11.088 319.665 10.192C320.561 9.27467 321.638 8.70933 322.897 8.496ZM337.752 2.192C338.093 1.97867 338.413 1.872 338.712 1.872C338.947 1.872 339.213 1.936 339.512 2.064C339.96 2.27733 340.248 2.608 340.376 3.056C340.504 3.504 340.589 4.57067 340.632 6.256L340.728 9.424L342.2 9.328C342.371 9.30667 342.616 9.296 342.936 9.296C343.704 9.296 344.248 9.43467 344.568 9.712C344.909 9.98933 345.08 10.4373 345.08 11.056C345.08 11.7173 344.856 12.1867 344.408 12.464C343.981 12.7413 343.149 12.9333 341.912 13.04L340.568 13.168L340.344 17.616C340.195 20.624 340.056 22.288 339.928 22.608C339.651 23.248 339.117 23.568 338.328 23.568C337.88 23.568 337.528 23.4507 337.272 23.216C336.995 23.0027 336.803 22.768 336.696 22.512C336.589 22.256 336.536 21.84 336.536 21.264C336.536 20.7947 336.568 20.0907 336.632 19.152C336.739 17.4667 336.813 16.0267 336.856 14.832L336.888 13.328L335.448 13.296C334.637 13.2747 334.083 13.2107 333.784 13.104C333.485 12.976 333.229 12.72 333.016 12.336C332.888 12.08 332.824 11.8133 332.824 11.536C332.824 11.024 333.037 10.576 333.464 10.192C333.699 9.97867 333.997 9.84 334.36 9.776C334.723 9.69067 335.395 9.60533 336.376 9.52L336.888 9.456L337.016 6.064C337.037 5.552 337.048 4.99733 337.048 4.4C337.069 3.78133 337.08 3.32266 337.08 3.024L337.112 2.576L337.208 2.512C337.272 2.46933 337.357 2.416 337.464 2.352C337.571 2.288 337.667 2.23467 337.752 2.192ZM350.331 8.912C350.416 8.89067 350.544 8.88 350.715 8.88C351.12 8.88 351.494 8.98667 351.835 9.2C352.176 9.392 352.411 9.65867 352.539 10C352.624 10.192 352.71 11.6533 352.795 14.384C352.902 17.0933 352.955 19.2267 352.955 20.784C352.955 21.4453 352.944 21.8293 352.923 21.936C352.816 22.7467 352.464 23.2907 351.867 23.568C351.568 23.696 351.334 23.76 351.163 23.76C351.035 23.76 350.843 23.728 350.587 23.664C350.096 23.5147 349.787 23.312 349.659 23.056C349.403 22.5653 349.254 20.6667 349.211 17.36C349.211 16.7627 349.2 15.728 349.179 14.256L349.147 9.872L349.531 9.424C349.787 9.12533 350.054 8.95467 350.331 8.912ZM349.563 2.896C349.819 2.768 350.064 2.704 350.299 2.704C350.768 2.704 351.184 2.896 351.547 3.28C351.91 3.64267 352.091 4.06933 352.091 4.56C352.091 4.90133 352.006 5.2 351.835 5.456C351.472 6.032 350.982 6.32 350.363 6.32C349.958 6.32 349.584 6.18133 349.243 5.904C348.902 5.62667 348.688 5.24267 348.603 4.752C348.603 4.73067 348.592 4.69867 348.571 4.656C348.571 4.592 348.571 4.54933 348.571 4.528C348.571 4.208 348.667 3.89867 348.859 3.6C349.051 3.28 349.286 3.04533 349.563 2.896ZM357.248 9.072C357.504 8.944 357.771 8.88 358.048 8.88C358.432 8.88 358.795 9.008 359.136 9.264C359.478 9.49867 359.712 9.81867 359.84 10.224L360.032 10.896L360.832 10.416C361.366 10.096 362.102 9.936 363.04 9.936C363.958 9.936 364.715 10.0853 365.312 10.384C365.803 10.6187 366.326 11.0027 366.88 11.536C367.456 12.0693 367.915 12.6027 368.256 13.136C369.408 14.9493 370.038 17.7653 370.144 21.584V22.224C370.144 22.736 369.995 23.152 369.696 23.472C369.334 23.8347 368.907 24.016 368.416 24.016C367.627 24.016 367.104 23.6747 366.848 22.992C366.72 22.6293 366.614 21.9147 366.528 20.848C366.272 17.1147 365.44 14.7787 364.032 13.84C363.734 13.648 363.435 13.552 363.136 13.552C362.582 13.552 362.08 13.8613 361.632 14.48C361.206 15.0773 360.864 15.9307 360.608 17.04C360.502 17.5307 360.374 18.416 360.224 19.696C360.075 20.976 360 21.84 360 22.288C360 22.5013 359.819 22.7893 359.456 23.152C359.094 23.4933 358.678 23.664 358.208 23.664C357.334 23.664 356.758 23.2053 356.48 22.288C356.352 21.84 356.288 19.8987 356.288 16.464C356.288 12.368 356.363 10.1387 356.512 9.776C356.64 9.49867 356.886 9.264 357.248 9.072ZM383.202 12.08C382.903 11.8667 382.647 11.7387 382.434 11.696C382.22 11.632 381.815 11.6 381.218 11.6C379.639 11.6427 378.583 12.048 378.05 12.816C377.836 13.1147 377.644 13.584 377.474 14.224C377.303 14.8427 377.218 15.3653 377.218 15.792C377.218 15.8347 377.218 15.8987 377.218 15.984C377.239 16.048 377.25 16.0907 377.25 16.112C377.378 16.752 377.73 17.3173 378.306 17.808C378.903 18.2987 379.596 18.5973 380.385 18.704C380.492 18.7253 380.652 18.736 380.866 18.736C381.676 18.736 382.476 18.3093 383.266 17.456C384.055 16.6027 384.45 15.7067 384.45 14.768C384.45 14.4693 384.439 14.2453 384.418 14.096C384.354 13.5413 384.258 13.1573 384.13 12.944C384.002 12.7307 383.692 12.4427 383.202 12.08ZM379.17 8.144C379.639 8.03733 380.322 7.984 381.218 7.984H381.73C382.519 8.00533 383.042 8.05867 383.298 8.144C383.575 8.208 384.012 8.41067 384.61 8.752C385.399 9.24267 386.05 9.60533 386.562 9.84C387.052 10.0747 387.372 10.32 387.522 10.576C387.735 10.896 387.948 12.3893 388.162 15.056C388.396 17.7013 388.514 20.0373 388.514 22.064C388.514 23.728 388.332 25.1147 387.97 26.224C387.628 27.3547 387.052 28.3787 386.242 29.296C384.898 30.832 383.223 31.6 381.218 31.6C379.959 31.6 378.498 31.312 376.834 30.736C376.108 30.5013 375.628 30.2987 375.394 30.128C375.159 29.9573 374.956 29.6907 374.786 29.328C374.7 29.136 374.658 28.912 374.658 28.656C374.658 28.1653 374.828 27.7493 375.17 27.408C375.426 27.1093 375.799 26.96 376.29 26.96C376.738 26.96 377.388 27.1093 378.242 27.408C379.01 27.6853 379.82 27.8667 380.674 27.952C380.738 27.952 380.812 27.952 380.898 27.952C381.004 27.9733 381.079 27.984 381.122 27.984C382.316 27.984 383.255 27.4507 383.938 26.384C384.3 25.872 384.546 25.392 384.674 24.944C384.823 24.4747 384.93 23.8027 384.994 22.928C385.036 22.3307 385.058 21.968 385.058 21.84C385.058 21.4347 384.962 21.232 384.77 21.232C384.599 21.232 384.3 21.3493 383.874 21.584C382.892 22.0747 381.879 22.32 380.834 22.32C379.042 22.32 377.431 21.7227 376.002 20.528C374.572 19.3333 373.815 17.8613 373.73 16.112C373.73 16.048 373.719 15.952 373.698 15.824C373.698 15.696 373.698 15.6 373.698 15.536C373.698 13.68 374.178 12.1013 375.138 10.8C376.119 9.47733 377.463 8.592 379.17 8.144ZM394.378 19.344C394.527 19.1947 394.858 19.12 395.37 19.12C395.797 19.12 396.17 19.248 396.49 19.504C396.81 19.76 397.013 20.0907 397.098 20.496C397.119 20.56 397.13 20.6773 397.13 20.848C397.13 21.4453 396.97 22.3093 396.65 23.44C396.33 24.5493 395.946 25.5947 395.498 26.576C395.178 27.28 394.623 27.632 393.834 27.632C392.981 27.632 392.405 27.216 392.106 26.384C392.063 26.2773 392.042 26.128 392.042 25.936C392.042 25.6587 392.213 25.0827 392.554 24.208C393.023 22.9067 393.311 21.9467 393.418 21.328C393.546 20.7307 393.674 20.304 393.802 20.048C393.93 19.792 394.122 19.5573 394.378 19.344Z" fill="#27263C"/>
</svg>
