<svg width="1304" height="45" viewBox="0 0 1304 45" fill="none" xmlns="http://www.w3.org/2000/svg">
<path d="M11.136 24.936C10.368 24.6373 9.152 24.488 7.488 24.488C6.82667 24.488 6.368 24.5093 6.112 24.552L5.44 24.616V30.536L6.624 30.664C6.79467 30.6853 7.06133 30.696 7.424 30.696C8.46933 30.696 9.51467 30.536 10.56 30.216C11.6053 29.8747 12.4587 29.4373 13.12 28.904C13.568 28.5413 13.792 28.1893 13.792 27.848C13.792 27.5707 13.7067 27.272 13.536 26.952C13.1093 26.056 12.3093 25.384 11.136 24.936ZM11.008 16.456C10.7093 16.2213 10.0053 16.0933 8.896 16.072H8.128C7.01867 16.072 6.144 16.136 5.504 16.264C5.35467 16.3067 5.25867 16.3707 5.216 16.456C5.17333 16.5413 5.152 16.744 5.152 17.064C5.152 17.512 5.16267 17.928 5.184 18.312C5.26933 19.6347 5.33333 20.3173 5.376 20.36H5.44C5.71733 20.36 6.464 20.2 7.68 19.88C8.91733 19.5387 9.73867 19.272 10.144 19.08C11.104 18.6533 11.584 18.1093 11.584 17.448C11.584 17.0853 11.392 16.7547 11.008 16.456ZM2.08 13.896C2.48533 13.3627 3.21067 13.0107 4.256 12.84C5.30133 12.6693 6.67733 12.5627 8.384 12.52H9.12C10.1653 12.52 11.0293 12.6373 11.712 12.872C12.7573 13.2133 13.6107 13.8107 14.272 14.664C14.9333 15.496 15.264 16.4133 15.264 17.416C15.264 17.4587 15.2533 17.5333 15.232 17.64C15.232 17.7467 15.232 17.8213 15.232 17.864C15.1253 18.9307 14.6347 19.944 13.76 20.904L12.992 21.736L13.92 22.28C14.9227 22.856 15.7547 23.6987 16.416 24.808C17.0987 25.896 17.44 26.952 17.44 27.976C17.44 28.232 17.4293 28.424 17.408 28.552C17.2587 29.5973 16.5973 30.6213 15.424 31.624C14.2507 32.6053 12.8533 33.3413 11.232 33.832C10.464 34.0453 9.408 34.152 8.064 34.152H7.296C5.97333 34.152 5.13067 34.1307 4.768 34.088C4.40533 34.0453 3.97867 33.9067 3.488 33.672C2.80533 33.352 2.38933 33.064 2.24 32.808C2.048 32.5307 1.89867 29.8533 1.792 24.776C1.70667 21.7253 1.664 19.2933 1.664 17.48C1.664 15.4533 1.80267 14.2587 2.08 13.896ZM21.49 19.88C21.8313 19.5173 22.2473 19.336 22.738 19.336C23.6553 19.336 24.242 19.6987 24.498 20.424C24.626 20.8507 24.69 22.0987 24.69 24.168C24.69 26.2587 24.754 27.624 24.882 28.264C25.202 29.736 25.8527 30.472 26.834 30.472C27.026 30.472 27.2287 30.44 27.442 30.376C27.7407 30.2907 28.1247 30.0027 28.594 29.512C29.0847 29.0213 29.4367 28.5733 29.65 28.168C30.034 27.3787 30.3753 25.8107 30.674 23.464C30.8873 21.864 31.218 20.8933 31.666 20.552C31.9647 20.3173 32.2953 20.2 32.658 20.2C33.0633 20.2 33.4367 20.3493 33.778 20.648C34.1407 20.9253 34.386 21.288 34.514 21.736C34.6207 22.2053 34.802 23.88 35.058 26.76C35.3353 29.6187 35.474 31.4427 35.474 32.232V32.488C35.3887 32.8933 35.186 33.2133 34.866 33.448C34.546 33.6827 34.194 33.8 33.81 33.8C33.4473 33.8 33.0953 33.6933 32.754 33.48C32.434 33.2667 32.21 32.9573 32.082 32.552C31.9113 32.0613 31.8153 31.816 31.794 31.816C31.7087 31.816 31.346 32.0613 30.706 32.552C29.426 33.576 28.1673 34.088 26.93 34.088H26.834C25.81 34.088 24.8927 33.8427 24.082 33.352C23.2713 32.8613 22.6313 32.168 22.162 31.272C21.714 30.376 21.426 29.5653 21.298 28.84C21.17 28.0933 21.0953 26.6533 21.074 24.52L20.978 20.456L21.49 19.88ZM43.9068 12.52C44.2694 12.1573 44.7068 11.976 45.2188 11.976C45.6028 11.976 45.9441 12.0933 46.2428 12.328C46.5628 12.5413 46.7868 12.8507 46.9148 13.256C46.9788 13.4907 47.0854 14.6 47.2348 16.584C47.3841 18.5467 47.4588 19.912 47.4588 20.68C47.4588 20.872 47.5014 20.9893 47.5868 21.032C47.6934 21.0747 47.9388 21.096 48.3228 21.096C48.8988 21.096 49.2294 21.032 49.3148 20.904C49.3574 20.7973 49.7948 20.744 50.6268 20.744C51.6934 20.744 52.3974 20.8187 52.7388 20.968C53.0588 21.1173 53.3041 21.4053 53.4748 21.832C53.6241 22.1307 53.6988 22.376 53.6988 22.568C53.6988 22.7173 53.6668 22.8987 53.6028 23.112C53.4534 23.6027 53.1761 23.9333 52.7708 24.104C52.3868 24.2533 51.6188 24.36 50.4668 24.424C49.1654 24.488 48.3228 24.5733 47.9388 24.68L47.4268 24.808L47.5548 29.32C47.5974 31.3253 47.6188 32.4027 47.6188 32.552C47.6188 33.4907 47.5441 34.12 47.3948 34.44C47.0748 35.1227 46.5521 35.464 45.8268 35.464C45.5494 35.464 45.2614 35.4 44.9628 35.272C44.7281 35.1653 44.5574 35.0693 44.4508 34.984C44.3441 34.8773 44.2481 34.6107 44.1628 34.184C44.0774 33.736 44.0241 33.2133 44.0028 32.616C43.9814 32.0187 43.9601 31.0373 43.9388 29.672L43.8748 25.032L42.9148 25.064C42.3388 25.1067 41.8268 25.192 41.3788 25.32C41.2721 25.3627 41.1014 25.384 40.8668 25.384C40.1414 25.384 39.6188 25.16 39.2988 24.712C39.1281 24.4347 39.0428 24.0613 39.0428 23.592C39.0428 23.1867 39.1068 22.8667 39.2348 22.632C39.5334 22.0987 40.5788 21.6933 42.3708 21.416L43.8428 21.192L43.7148 18.376C43.6294 16.3707 43.5548 15.0053 43.4908 14.28C43.4481 13.768 43.4268 13.4907 43.4268 13.448C43.4268 13.1493 43.5868 12.84 43.9068 12.52ZM59.8513 31.176C60.1499 30.9413 60.4806 30.824 60.8433 30.824C61.2913 30.824 61.6646 30.9627 61.9633 31.24C62.3899 31.6027 62.6033 32.04 62.6033 32.552C62.6033 32.9573 62.5179 33.384 62.3473 33.832C62.2619 34.0667 61.9313 35.176 61.3553 37.16C60.9499 38.632 60.5659 39.5173 60.2033 39.816C59.8619 40.1147 59.4993 40.264 59.1153 40.264C58.7099 40.264 58.3366 40.1147 57.9953 39.816C57.5686 39.432 57.3553 39.0053 57.3553 38.536C57.3553 38.2373 57.4193 37.8747 57.5473 37.448C57.5899 37.2987 57.6859 36.9147 57.8353 36.296C58.0059 35.656 58.1339 35.1653 58.2193 34.824C58.7313 32.8187 59.2753 31.6027 59.8513 31.176ZM75.4803 21.352C75.4803 20.904 75.6509 20.52 75.9923 20.2C76.3549 19.8587 76.7603 19.688 77.2083 19.688C77.7203 19.688 78.1469 19.88 78.4883 20.264C78.8296 20.6267 79.2029 21.3093 79.6083 22.312C80.0136 23.3573 80.6323 24.7653 81.4643 26.536C82.3176 28.2853 82.7869 29.16 82.8723 29.16C82.9363 29.16 83.2989 28.552 83.9603 27.336C84.3656 26.568 85.0056 25.4373 85.8803 23.944C86.7763 22.4507 87.2989 21.5653 87.4483 21.288C87.7469 20.7547 88.0136 20.4133 88.2483 20.264C88.4829 20.1147 88.8456 20.04 89.3363 20.04C89.8056 20.04 90.2109 20.2107 90.5522 20.552C90.9149 20.8933 91.0963 21.2987 91.0963 21.768C91.0963 21.8747 91.0749 22.0133 91.0323 22.184C90.9469 22.4613 90.5203 23.24 89.7523 24.52C87.1283 28.808 85.5496 31.8267 85.0163 33.576C84.6749 34.6853 83.9923 35.24 82.9683 35.24C82.6909 35.24 82.3923 35.176 82.0723 35.048C81.7736 34.92 81.4963 34.6533 81.2403 34.248C81.0056 33.8213 80.3976 32.6053 79.4163 30.6C76.7923 25.224 75.4803 22.1413 75.4803 21.352ZM104.492 24.808C104.108 24.616 103.564 24.52 102.86 24.52C102.092 24.52 101.441 24.6373 100.908 24.872C100.545 25.0213 100.076 25.352 99.4998 25.864C98.9238 26.3547 98.6358 26.6747 98.6358 26.824C98.6358 26.888 98.9664 26.92 99.6278 26.92C100.609 26.92 101.782 26.8667 103.148 26.76C104.513 26.6533 105.292 26.536 105.484 26.408C105.548 26.3867 105.58 26.3227 105.58 26.216C105.58 26.024 105.462 25.7787 105.228 25.48C104.993 25.16 104.748 24.936 104.492 24.808ZM100.716 21.096C101.249 20.9467 101.878 20.872 102.604 20.872C103.948 20.872 105.174 21.1387 106.284 21.672C107.116 22.0987 107.809 22.7493 108.364 23.624C108.918 24.4773 109.26 25.4373 109.388 26.504C109.388 26.5467 109.388 26.6107 109.388 26.696C109.409 26.7813 109.42 26.8453 109.42 26.888C109.42 27.4427 109.313 27.9867 109.1 28.52C108.908 29.0533 108.673 29.416 108.396 29.608C108.033 29.864 105.484 30.184 100.748 30.568C99.7451 30.6533 99.2438 30.7493 99.2438 30.856C99.2438 30.984 99.4678 31.1867 99.9158 31.464C100.364 31.7413 100.801 31.9333 101.228 32.04C101.612 32.1253 101.921 32.168 102.156 32.168C102.838 32.168 103.724 31.944 104.812 31.496C105.58 31.176 106.145 31.016 106.508 31.016C106.87 31.016 107.212 31.176 107.532 31.496C107.958 31.9227 108.172 32.328 108.172 32.712C108.172 32.968 108.108 33.2347 107.98 33.512C107.873 33.768 107.724 33.9707 107.532 34.12C107.361 34.2693 107.041 34.4507 106.572 34.664C105.014 35.3467 103.564 35.688 102.22 35.688C101.452 35.688 100.662 35.5707 99.8518 35.336C98.7638 34.9947 97.7718 34.4187 96.8758 33.608C95.9798 32.776 95.3398 31.8587 94.9557 30.856C94.7211 30.1947 94.6038 29.4587 94.6038 28.648C94.6038 27.4747 94.7958 26.4933 95.1798 25.704C95.6278 24.7227 96.3851 23.784 97.4518 22.888C98.5184 21.992 99.6064 21.3947 100.716 21.096ZM113.364 20.328C113.748 20.008 114.164 19.848 114.612 19.848C115.082 19.848 115.487 20.0187 115.828 20.36C116.17 20.68 116.34 21.096 116.34 21.608C116.34 22.12 116.436 22.376 116.628 22.376C116.735 22.376 116.959 22.2587 117.3 22.024C118.879 20.936 120.447 20.392 122.004 20.392C122.666 20.392 123.316 20.5093 123.956 20.744C124.532 20.9787 124.938 21.2347 125.172 21.512C125.407 21.7893 125.524 22.1627 125.524 22.632C125.524 23.144 125.332 23.5813 124.948 23.944C124.628 24.2427 124.34 24.392 124.084 24.392C123.999 24.392 123.402 24.3173 122.292 24.168C122.164 24.1467 121.983 24.136 121.748 24.136C121.407 24.136 120.97 24.2533 120.436 24.488C119.05 25.128 118.079 25.9387 117.524 26.92C116.97 27.9013 116.692 29.3093 116.692 31.144C116.671 32.488 116.511 33.4267 116.212 33.96C115.935 34.4933 115.434 34.76 114.708 34.76C114.218 34.76 113.802 34.5893 113.46 34.248L112.948 33.736L112.884 28.072C112.842 23.8907 112.82 21.736 112.82 21.608C112.82 21.096 113.002 20.6693 113.364 20.328ZM141.009 19.272C141.223 19.208 141.383 19.176 141.489 19.176C141.575 19.176 141.82 19.2613 142.225 19.432C142.652 19.6027 142.951 19.8907 143.121 20.296C143.207 20.4667 143.249 20.6587 143.249 20.872C143.249 21.192 142.993 22.1627 142.481 23.784C141.543 26.792 140.359 29.8107 138.929 32.84C138.268 34.2907 137.255 36.168 135.889 38.472C134.524 40.7973 133.692 42.0453 133.393 42.216C133.052 42.4293 132.7 42.536 132.337 42.536C131.847 42.536 131.42 42.3653 131.057 42.024C130.716 41.704 130.545 41.2773 130.545 40.744C130.545 40.36 130.887 39.6347 131.569 38.568C132.103 37.736 132.796 36.5627 133.649 35.048C134.503 33.512 134.929 32.6907 134.929 32.584C134.929 32.52 134.695 32.0933 134.225 31.304C134.012 30.9627 133.255 29.576 131.953 27.144C130.673 24.6907 129.895 23.272 129.617 22.888C129.276 22.3973 129.105 21.9067 129.105 21.416C129.105 20.712 129.447 20.2107 130.129 19.912C130.385 19.8053 130.609 19.752 130.801 19.752C131.249 19.752 131.687 20.008 132.113 20.52C132.54 21.0107 133.084 21.864 133.745 23.08C135.175 25.7253 136.145 27.4533 136.657 28.264C136.764 28.4133 136.828 28.488 136.849 28.488C136.935 28.488 137.148 28.0293 137.489 27.112C137.98 25.768 138.471 24.3387 138.961 22.824C139.388 21.4587 139.729 20.552 139.985 20.104C140.263 19.656 140.604 19.3787 141.009 19.272ZM166.063 23.816C165.658 23.7093 164.996 23.6133 164.079 23.528C163.482 23.4853 163.162 23.464 163.119 23.464C162.82 23.464 162.522 23.624 162.223 23.944C161.37 24.8187 160.911 26.0027 160.847 27.496C160.847 27.5813 160.836 27.6987 160.815 27.848C160.815 27.976 160.815 28.072 160.815 28.136C160.815 28.6267 160.943 29.0853 161.199 29.512C161.882 30.728 163.087 31.336 164.815 31.336C165.54 31.3147 166.276 31.0693 167.023 30.6C167.791 30.1093 168.346 29.5227 168.687 28.84C168.879 28.4347 168.975 27.9973 168.975 27.528C168.975 26.7387 168.698 25.992 168.143 25.288C167.61 24.5627 166.916 24.072 166.063 23.816ZM161.199 20.232C161.69 19.9547 162.18 19.816 162.671 19.816C162.778 19.816 163.172 19.8373 163.855 19.88C165.882 19.9867 167.514 20.4133 168.751 21.16C169.988 21.9067 170.98 23.0587 171.727 24.616C172.303 25.8107 172.591 26.952 172.591 28.04C172.591 28.3813 172.559 28.68 172.495 28.936C172.154 30.2587 171.407 31.464 170.255 32.552C169.103 33.64 167.834 34.3653 166.447 34.728C165.722 34.8987 165.146 34.984 164.719 34.984C164.292 34.984 163.716 34.8987 162.991 34.728C160.794 34.152 159.215 33.1067 158.255 31.592C157.508 30.4187 157.135 29.1813 157.135 27.88C157.135 26.5787 157.487 25.192 158.191 23.72C159.002 21.992 160.004 20.8293 161.199 20.232ZM183.048 20.072C183.581 19.9653 184.082 19.912 184.552 19.912C185.96 19.912 187.282 20.264 188.52 20.968C189.053 21.288 189.405 21.544 189.576 21.736C189.768 21.928 189.917 22.2053 190.024 22.568C190.045 22.632 190.056 22.728 190.056 22.856C190.056 23.5173 189.8 24.04 189.288 24.424C189.01 24.5947 188.744 24.68 188.488 24.68C188.125 24.68 187.549 24.4987 186.76 24.136C185.928 23.752 185.16 23.56 184.456 23.56C183.816 23.56 183.218 23.72 182.664 24.04C182.173 24.3387 181.64 24.7867 181.064 25.384C180.488 25.9813 180.114 26.4827 179.944 26.888C179.773 27.2933 179.688 27.6133 179.688 27.848C179.688 28.2107 179.976 28.68 180.552 29.256C181.426 30.1093 182.653 30.6107 184.232 30.76C184.296 30.76 184.381 30.7707 184.488 30.792C184.616 30.792 184.701 30.792 184.744 30.792C185.106 30.792 185.597 30.632 186.216 30.312C186.877 29.9493 187.389 29.768 187.752 29.768C188.093 29.768 188.434 29.9173 188.776 30.216C189.224 30.6427 189.448 31.08 189.448 31.528C189.448 32.36 188.797 33.1067 187.496 33.768C186.728 34.1733 185.96 34.376 185.192 34.376H184.68C182.888 34.3547 181.256 33.9493 179.784 33.16C178.312 32.3493 177.256 31.2933 176.616 29.992C176.274 29.3093 176.104 28.584 176.104 27.816C176.104 25.8533 177.213 23.8907 179.432 21.928C180.52 20.9467 181.725 20.328 183.048 20.072ZM197.668 20.392C198.009 20.264 198.542 20.2 199.268 20.2C199.652 20.2 199.961 20.2107 200.196 20.232C201.049 20.2533 201.636 20.3067 201.956 20.392C202.276 20.456 202.702 20.616 203.236 20.872C204.75 21.64 205.508 22.568 205.508 23.656C205.508 23.8907 205.433 24.1787 205.284 24.52C204.964 25.1387 204.473 25.448 203.812 25.448C203.214 25.448 202.67 25.1707 202.18 24.616C201.945 24.36 201.732 24.1893 201.54 24.104C201.348 23.9973 201.038 23.912 200.612 23.848C200.185 23.8053 199.897 23.784 199.748 23.784C199.001 23.784 198.457 24.0187 198.116 24.488C197.518 25.3627 197.22 26.312 197.22 27.336C197.22 28.4453 197.561 29.3947 198.244 30.184C198.926 30.952 199.822 31.336 200.932 31.336C201.358 31.336 201.956 31.2293 202.724 31.016C203.492 30.7813 204.004 30.568 204.26 30.376C204.473 30.2053 204.846 30.12 205.38 30.12C205.892 30.12 206.308 30.28 206.628 30.6C206.969 30.92 207.14 31.3253 207.14 31.816C207.14 32.264 207.033 32.6267 206.82 32.904C206.606 33.1813 206.201 33.4693 205.604 33.768C204.068 34.536 202.532 34.92 200.996 34.92C198.457 34.92 196.526 34.0133 195.204 32.2C194.137 30.7493 193.604 29.16 193.604 27.432C193.604 26.3653 193.817 25.2453 194.244 24.072C194.564 23.24 195.033 22.4827 195.652 21.8C196.292 21.1173 196.964 20.648 197.668 20.392ZM221.833 24.232C221.214 23.6133 220.254 23.304 218.953 23.304C218.313 23.304 217.747 23.4107 217.257 23.624C216.787 23.8373 216.275 24.2533 215.721 24.872C215.166 25.4907 214.803 26.056 214.633 26.568C214.441 27.1227 214.345 27.6453 214.345 28.136C214.345 29.2667 214.793 30.0667 215.689 30.536C216.222 30.8133 216.915 30.952 217.769 30.952C218.345 30.952 218.782 30.8773 219.081 30.728C220.809 29.8533 221.865 28.2853 222.249 26.024L222.441 24.808L221.833 24.232ZM216.969 19.88C217.481 19.7307 218.078 19.656 218.761 19.656C219.913 19.656 221.043 19.8587 222.153 20.264C223.262 20.6693 224.03 21.1813 224.457 21.8C224.755 22.2267 225.139 22.6747 225.609 23.144C226.121 23.6773 226.59 24.5947 227.017 25.896C227.422 27.1333 227.795 28.5093 228.137 30.024C228.499 31.5387 228.681 32.5627 228.681 33.096C228.681 33.6293 228.521 34.0453 228.201 34.344C227.795 34.728 227.411 34.92 227.049 34.92C226.899 34.92 226.707 34.888 226.473 34.824C226.067 34.6747 225.747 34.4187 225.513 34.056C225.299 33.6933 225.107 33.1067 224.937 32.296C224.723 31.336 224.606 30.856 224.585 30.856C224.499 30.856 224.051 31.2613 223.241 32.072C221.641 33.6293 219.977 34.472 218.249 34.6H217.801C216.755 34.6 215.731 34.4187 214.729 34.056C213.747 33.6933 212.969 33.2133 212.393 32.616C212.094 32.3173 211.795 31.8693 211.497 31.272C211.198 30.6533 210.995 30.088 210.889 29.576C210.782 29.0427 210.729 28.5627 210.729 28.136C210.729 26.3653 211.326 24.6693 212.521 23.048C213.737 21.4267 215.219 20.3707 216.969 19.88ZM236.772 19.496C237.156 19.432 237.551 19.4 237.956 19.4C239.236 19.4 240.377 19.688 241.38 20.264C242.383 20.84 242.884 21.5013 242.884 22.248C242.884 22.44 242.852 22.6107 242.788 22.76C242.468 23.5707 241.988 23.976 241.348 23.976C240.879 23.976 240.345 23.8267 239.748 23.528C239.065 23.1867 238.436 23.016 237.86 23.016C237.241 23.016 236.729 23.2187 236.324 23.624C236.111 23.8373 236.004 24.008 236.004 24.136C236.004 24.3067 236.164 24.5093 236.484 24.744C236.825 24.9573 237.444 25.2987 238.34 25.768C239.812 26.536 240.804 27.1653 241.316 27.656C241.807 28.0827 242.233 28.616 242.596 29.256C242.959 29.8747 243.14 30.3973 243.14 30.824C243.14 31.3147 243.012 31.8053 242.756 32.296C242.5 32.7867 242.18 33.16 241.796 33.416C240.815 34.0773 239.62 34.408 238.212 34.408C236.889 34.408 235.524 34.0987 234.116 33.48C233.455 33.16 233.039 32.7973 232.868 32.392C232.74 32.0933 232.676 31.8267 232.676 31.592C232.676 31.1653 232.879 30.7493 233.284 30.344C233.561 30.024 233.935 29.864 234.404 29.864C234.852 29.864 235.396 30.0027 236.036 30.28C236.74 30.5787 237.551 30.728 238.468 30.728C238.895 30.728 239.108 30.6747 239.108 30.568C239.108 30.312 238.191 29.7253 236.356 28.808C234.927 28.0613 233.881 27.3253 233.22 26.6C232.559 25.8533 232.228 25.032 232.228 24.136C232.228 23.0693 232.665 22.088 233.54 21.192C234.436 20.2747 235.513 19.7093 236.772 19.496ZM248.331 19.912C248.416 19.8907 248.544 19.88 248.715 19.88C249.12 19.88 249.494 19.9867 249.835 20.2C250.176 20.392 250.411 20.6587 250.539 21C250.624 21.192 250.71 22.6533 250.795 25.384C250.902 28.0933 250.955 30.2267 250.955 31.784C250.955 32.4453 250.944 32.8293 250.923 32.936C250.816 33.7467 250.464 34.2907 249.867 34.568C249.568 34.696 249.334 34.76 249.163 34.76C249.035 34.76 248.843 34.728 248.587 34.664C248.096 34.5147 247.787 34.312 247.659 34.056C247.403 33.5653 247.254 31.6667 247.211 28.36C247.211 27.7627 247.2 26.728 247.179 25.256L247.147 20.872L247.531 20.424C247.787 20.1253 248.054 19.9547 248.331 19.912ZM247.563 13.896C247.819 13.768 248.064 13.704 248.299 13.704C248.768 13.704 249.184 13.896 249.547 14.28C249.91 14.6427 250.091 15.0693 250.091 15.56C250.091 15.9013 250.006 16.2 249.835 16.456C249.472 17.032 248.982 17.32 248.363 17.32C247.958 17.32 247.584 17.1813 247.243 16.904C246.902 16.6267 246.688 16.2427 246.603 15.752C246.603 15.7307 246.592 15.6987 246.571 15.656C246.571 15.592 246.571 15.5493 246.571 15.528C246.571 15.208 246.667 14.8987 246.859 14.6C247.051 14.28 247.286 14.0453 247.563 13.896ZM263.088 22.6C262.512 22.4933 262.032 22.44 261.648 22.44C260.774 22.44 260.038 22.6213 259.44 22.984C259.142 23.176 258.79 23.8267 258.384 24.936C258 26.024 257.808 26.8987 257.808 27.56C257.808 28.6267 258.15 29.4907 258.832 30.152C259.536 30.792 260.454 31.1227 261.584 31.144C262.502 31.144 263.355 30.888 264.144 30.376C264.955 29.864 265.542 29.192 265.904 28.36C266.139 27.8267 266.256 27.2187 266.256 26.536C266.256 25.704 266.096 24.9787 265.776 24.36C265.542 23.8693 265.222 23.496 264.816 23.24C264.411 22.984 263.835 22.7707 263.088 22.6ZM259.472 19.176C260.219 18.984 260.955 18.888 261.68 18.888C263.046 18.888 264.507 19.2293 266.064 19.912C267.174 20.4027 268.048 21.2667 268.688 22.504C269.35 23.7413 269.691 25.2027 269.712 26.888V27.08C269.712 29.6187 268.582 31.6773 266.32 33.256C264.912 34.2587 263.344 34.76 261.616 34.76C260.187 34.76 258.864 34.408 257.648 33.704C256.432 32.9787 255.515 31.9653 254.896 30.664C254.683 30.216 254.544 29.832 254.48 29.512C254.438 29.192 254.416 28.52 254.416 27.496C254.438 25.9813 254.598 24.7867 254.896 23.912C255.6 21.9707 256.432 20.6587 257.392 19.976C257.776 19.6987 258.47 19.432 259.472 19.176ZM274.061 20.072C274.317 19.944 274.583 19.88 274.861 19.88C275.245 19.88 275.607 20.008 275.949 20.264C276.29 20.4987 276.525 20.8187 276.653 21.224L276.845 21.896L277.645 21.416C278.178 21.096 278.914 20.936 279.853 20.936C280.77 20.936 281.527 21.0853 282.125 21.384C282.615 21.6187 283.138 22.0027 283.693 22.536C284.269 23.0693 284.727 23.6027 285.069 24.136C286.221 25.9493 286.85 28.7653 286.957 32.584V33.224C286.957 33.736 286.807 34.152 286.509 34.472C286.146 34.8347 285.719 35.016 285.229 35.016C284.439 35.016 283.917 34.6747 283.661 33.992C283.533 33.6293 283.426 32.9147 283.341 31.848C283.085 28.1147 282.253 25.7787 280.845 24.84C280.546 24.648 280.247 24.552 279.949 24.552C279.394 24.552 278.893 24.8613 278.445 25.48C278.018 26.0773 277.677 26.9307 277.421 28.04C277.314 28.5307 277.186 29.416 277.037 30.696C276.887 31.976 276.813 32.84 276.813 33.288C276.813 33.5013 276.631 33.7893 276.269 34.152C275.906 34.4933 275.49 34.664 275.021 34.664C274.146 34.664 273.57 34.2053 273.293 33.288C273.165 32.84 273.101 30.8987 273.101 27.464C273.101 23.368 273.175 21.1387 273.325 20.776C273.453 20.4987 273.698 20.264 274.061 20.072ZM299.726 24.68C299.619 24.3387 299.523 24.1467 299.438 24.104C299.353 24.04 299.118 24.008 298.734 24.008C297.625 24.0293 296.59 24.552 295.63 25.576C294.67 26.5787 294.19 27.592 294.19 28.616C294.19 29.128 294.329 29.5547 294.606 29.896C295.225 30.5787 295.875 30.92 296.558 30.92C296.601 30.92 296.643 30.92 296.686 30.92C296.729 30.8987 296.771 30.888 296.814 30.888C297.198 30.8027 297.603 30.5467 298.03 30.12C298.478 29.6933 298.819 29.224 299.054 28.712C299.545 27.56 299.79 26.44 299.79 25.352C299.79 25.032 299.769 24.808 299.726 24.68ZM296.75 20.648C297.326 20.456 297.987 20.36 298.734 20.36C299.715 20.36 300.547 20.52 301.23 20.84C301.678 21.0747 302.083 21.4267 302.446 21.896C302.83 22.344 303.065 22.7707 303.15 23.176C303.235 23.5813 303.353 23.9653 303.502 24.328C303.737 24.9467 304.206 27.272 304.91 31.304C305.017 31.944 305.07 32.424 305.07 32.744C305.07 34.024 304.473 34.664 303.278 34.664C302.873 34.664 302.499 34.504 302.158 34.184C301.838 33.864 301.635 33.4693 301.55 33C301.465 32.5733 301.39 32.328 301.326 32.264C301.241 32.2 300.995 32.3707 300.59 32.776C299.374 33.992 297.977 34.6 296.398 34.6C296.121 34.6 295.833 34.568 295.534 34.504C294.361 34.248 293.262 33.608 292.238 32.584C291.086 31.432 290.51 30.1413 290.51 28.712C290.51 27.5813 290.862 26.3547 291.566 25.032C292.099 24.0293 292.825 23.1333 293.742 22.344C294.681 21.5547 295.683 20.9893 296.75 20.648ZM310.044 13.864C310.321 13.7573 310.566 13.704 310.78 13.704C311.1 13.704 311.42 13.8 311.74 13.992C312.06 14.2053 312.273 14.44 312.38 14.696C312.508 14.952 312.572 15.4427 312.572 16.168C312.572 17 312.529 18.056 312.444 19.336C312.294 21.96 312.198 25.0533 312.156 28.616C312.156 32.0933 312.081 33.9707 311.932 34.248C311.825 34.4613 311.601 34.6747 311.26 34.888C310.94 35.08 310.662 35.176 310.428 35.176C310.172 35.176 309.884 35.0693 309.564 34.856C309.244 34.6427 309.02 34.408 308.892 34.152C308.636 33.64 308.508 31.9227 308.508 29C308.508 26.056 308.636 22.1733 308.892 17.352C308.956 16.0933 309.062 15.24 309.212 14.792C309.361 14.344 309.638 14.0347 310.044 13.864ZM317.481 13.864C317.759 13.7573 318.004 13.704 318.217 13.704C318.537 13.704 318.857 13.8 319.177 13.992C319.497 14.2053 319.711 14.44 319.817 14.696C319.945 14.952 320.009 15.4427 320.009 16.168C320.009 17 319.967 18.056 319.881 19.336C319.732 21.96 319.636 25.0533 319.593 28.616C319.593 32.0933 319.519 33.9707 319.369 34.248C319.263 34.4613 319.039 34.6747 318.697 34.888C318.377 35.08 318.1 35.176 317.865 35.176C317.609 35.176 317.321 35.0693 317.001 34.856C316.681 34.6427 316.457 34.408 316.329 34.152C316.073 33.64 315.945 31.9227 315.945 29C315.945 26.056 316.073 22.1733 316.329 17.352C316.393 16.0933 316.5 15.24 316.649 14.792C316.799 14.344 317.076 14.0347 317.481 13.864ZM335.447 19.272C335.66 19.208 335.82 19.176 335.927 19.176C336.012 19.176 336.257 19.2613 336.663 19.432C337.089 19.6027 337.388 19.8907 337.559 20.296C337.644 20.4667 337.687 20.6587 337.687 20.872C337.687 21.192 337.431 22.1627 336.919 23.784C335.98 26.792 334.796 29.8107 333.367 32.84C332.705 34.2907 331.692 36.168 330.327 38.472C328.961 40.7973 328.129 42.0453 327.831 42.216C327.489 42.4293 327.137 42.536 326.775 42.536C326.284 42.536 325.857 42.3653 325.495 42.024C325.153 41.704 324.983 41.2773 324.983 40.744C324.983 40.36 325.324 39.6347 326.007 38.568C326.54 37.736 327.233 36.5627 328.087 35.048C328.94 33.512 329.367 32.6907 329.367 32.584C329.367 32.52 329.132 32.0933 328.663 31.304C328.449 30.9627 327.692 29.576 326.391 27.144C325.111 24.6907 324.332 23.272 324.055 22.888C323.713 22.3973 323.543 21.9067 323.543 21.416C323.543 20.712 323.884 20.2107 324.567 19.912C324.823 19.8053 325.047 19.752 325.239 19.752C325.687 19.752 326.124 20.008 326.551 20.52C326.977 21.0107 327.521 21.864 328.183 23.08C329.612 25.7253 330.583 27.4533 331.095 28.264C331.201 28.4133 331.265 28.488 331.287 28.488C331.372 28.488 331.585 28.0293 331.927 27.112C332.417 25.768 332.908 24.3387 333.399 22.824C333.825 21.4587 334.167 20.552 334.423 20.104C334.7 19.656 335.041 19.3787 335.447 19.272ZM343.789 31.176C344.087 30.9413 344.418 30.824 344.781 30.824C345.229 30.824 345.602 30.9627 345.901 31.24C346.327 31.6027 346.541 32.04 346.541 32.552C346.541 32.9573 346.455 33.384 346.285 33.832C346.199 34.0667 345.869 35.176 345.293 37.16C344.887 38.632 344.503 39.5173 344.141 39.816C343.799 40.1147 343.437 40.264 343.053 40.264C342.647 40.264 342.274 40.1147 341.933 39.816C341.506 39.432 341.293 39.0053 341.293 38.536C341.293 38.2373 341.357 37.8747 341.485 37.448C341.527 37.2987 341.623 36.9147 341.773 36.296C341.943 35.656 342.071 35.1653 342.157 34.824C342.669 32.8187 343.213 31.6027 343.789 31.176ZM361.555 15.272C361.896 14.952 362.216 14.792 362.515 14.792C362.685 14.792 362.835 14.8027 362.963 14.824C363.539 14.888 363.944 15.08 364.179 15.4L364.595 15.88L364.531 24.264C364.509 29.7893 364.413 32.7653 364.243 33.192C363.965 33.832 363.432 34.152 362.643 34.152C362.387 34.152 362.195 34.1307 362.067 34.088C361.747 33.9813 361.533 33.9067 361.427 33.864C361.341 33.8 361.235 33.608 361.107 33.288C361 32.9467 360.936 32.4773 360.915 31.88C360.893 31.2827 360.883 30.3653 360.883 29.128C360.883 28.7867 360.883 28.0933 360.883 27.048C360.904 26.0027 360.915 25.128 360.915 24.424L360.947 15.784L361.555 15.272ZM382.214 12.552C382.577 12.2533 382.95 12.104 383.334 12.104C384.102 12.104 384.667 12.5733 385.03 13.512C385.179 13.9387 385.339 14.9627 385.51 16.584C385.681 18.184 385.819 19.6773 385.926 21.064C386.033 22.4293 386.097 23.112 386.118 23.112C386.161 23.112 386.513 22.8773 387.174 22.408C388.475 21.4907 389.713 21.032 390.886 21.032C391.974 21.032 392.923 21.4373 393.734 22.248C394.566 23.0373 395.217 24.2 395.686 25.736C396.049 26.9307 396.23 28.7867 396.23 31.304C396.23 32.8827 396.134 33.9493 395.942 34.504C395.729 35.08 395.238 35.368 394.47 35.368C393.958 35.368 393.531 35.1973 393.19 34.856L392.71 34.376L392.614 31.144C392.486 26.984 391.91 24.84 390.886 24.712H390.79C390.299 24.712 389.691 24.9893 388.966 25.544C388.241 26.0773 387.718 26.664 387.398 27.304C387.206 27.7307 386.95 28.04 386.63 28.232L386.214 28.52L386.15 32.008C386.107 33.7147 386.065 34.7493 386.022 35.112C386.001 35.4533 385.883 35.7307 385.67 35.944C385.329 36.3067 384.902 36.488 384.39 36.488C383.622 36.488 383.089 36.1467 382.79 35.464C382.641 35.0587 382.534 32.6053 382.47 28.104C382.363 20.5733 382.086 16.0613 381.638 14.568C381.574 14.3333 381.542 14.1093 381.542 13.896C381.542 13.3413 381.766 12.8933 382.214 12.552ZM410.833 24.232C410.214 23.6133 409.254 23.304 407.953 23.304C407.313 23.304 406.747 23.4107 406.257 23.624C405.787 23.8373 405.275 24.2533 404.721 24.872C404.166 25.4907 403.803 26.056 403.633 26.568C403.441 27.1227 403.345 27.6453 403.345 28.136C403.345 29.2667 403.793 30.0667 404.689 30.536C405.222 30.8133 405.915 30.952 406.769 30.952C407.345 30.952 407.782 30.8773 408.081 30.728C409.809 29.8533 410.865 28.2853 411.249 26.024L411.441 24.808L410.833 24.232ZM405.969 19.88C406.481 19.7307 407.078 19.656 407.761 19.656C408.913 19.656 410.043 19.8587 411.153 20.264C412.262 20.6693 413.03 21.1813 413.457 21.8C413.755 22.2267 414.139 22.6747 414.609 23.144C415.121 23.6773 415.59 24.5947 416.017 25.896C416.422 27.1333 416.795 28.5093 417.137 30.024C417.499 31.5387 417.681 32.5627 417.681 33.096C417.681 33.6293 417.521 34.0453 417.201 34.344C416.795 34.728 416.411 34.92 416.049 34.92C415.899 34.92 415.707 34.888 415.473 34.824C415.067 34.6747 414.747 34.4187 414.513 34.056C414.299 33.6933 414.107 33.1067 413.937 32.296C413.723 31.336 413.606 30.856 413.585 30.856C413.499 30.856 413.051 31.2613 412.241 32.072C410.641 33.6293 408.977 34.472 407.249 34.6H406.801C405.755 34.6 404.731 34.4187 403.729 34.056C402.747 33.6933 401.969 33.2133 401.393 32.616C401.094 32.3173 400.795 31.8693 400.497 31.272C400.198 30.6533 399.995 30.088 399.889 29.576C399.782 29.0427 399.729 28.5627 399.729 28.136C399.729 26.3653 400.326 24.6693 401.521 23.048C402.737 21.4267 404.219 20.3707 405.969 19.88ZM421.324 21.352C421.324 20.904 421.495 20.52 421.836 20.2C422.199 19.8587 422.604 19.688 423.052 19.688C423.564 19.688 423.991 19.88 424.332 20.264C424.673 20.6267 425.047 21.3093 425.452 22.312C425.857 23.3573 426.476 24.7653 427.308 26.536C428.161 28.2853 428.631 29.16 428.716 29.16C428.78 29.16 429.143 28.552 429.804 27.336C430.209 26.568 430.849 25.4373 431.724 23.944C432.62 22.4507 433.143 21.5653 433.292 21.288C433.591 20.7547 433.857 20.4133 434.092 20.264C434.327 20.1147 434.689 20.04 435.18 20.04C435.649 20.04 436.055 20.2107 436.396 20.552C436.759 20.8933 436.94 21.2987 436.94 21.768C436.94 21.8747 436.919 22.0133 436.876 22.184C436.791 22.4613 436.364 23.24 435.596 24.52C432.972 28.808 431.393 31.8267 430.86 33.576C430.519 34.6853 429.836 35.24 428.812 35.24C428.535 35.24 428.236 35.176 427.916 35.048C427.617 34.92 427.34 34.6533 427.084 34.248C426.849 33.8213 426.241 32.6053 425.26 30.6C422.636 25.224 421.324 22.1413 421.324 21.352ZM450.336 24.808C449.952 24.616 449.408 24.52 448.704 24.52C447.936 24.52 447.285 24.6373 446.752 24.872C446.389 25.0213 445.92 25.352 445.344 25.864C444.768 26.3547 444.48 26.6747 444.48 26.824C444.48 26.888 444.81 26.92 445.472 26.92C446.453 26.92 447.626 26.8667 448.992 26.76C450.357 26.6533 451.136 26.536 451.328 26.408C451.392 26.3867 451.424 26.3227 451.424 26.216C451.424 26.024 451.306 25.7787 451.072 25.48C450.837 25.16 450.592 24.936 450.336 24.808ZM446.56 21.096C447.093 20.9467 447.722 20.872 448.448 20.872C449.792 20.872 451.018 21.1387 452.128 21.672C452.96 22.0987 453.653 22.7493 454.208 23.624C454.762 24.4773 455.104 25.4373 455.232 26.504C455.232 26.5467 455.232 26.6107 455.232 26.696C455.253 26.7813 455.264 26.8453 455.264 26.888C455.264 27.4427 455.157 27.9867 454.944 28.52C454.752 29.0533 454.517 29.416 454.24 29.608C453.877 29.864 451.328 30.184 446.592 30.568C445.589 30.6533 445.088 30.7493 445.088 30.856C445.088 30.984 445.312 31.1867 445.76 31.464C446.208 31.7413 446.645 31.9333 447.072 32.04C447.456 32.1253 447.765 32.168 448 32.168C448.682 32.168 449.568 31.944 450.656 31.496C451.424 31.176 451.989 31.016 452.352 31.016C452.714 31.016 453.056 31.176 453.376 31.496C453.802 31.9227 454.016 32.328 454.016 32.712C454.016 32.968 453.952 33.2347 453.824 33.512C453.717 33.768 453.568 33.9707 453.376 34.12C453.205 34.2693 452.885 34.4507 452.416 34.664C450.858 35.3467 449.408 35.688 448.064 35.688C447.296 35.688 446.506 35.5707 445.696 35.336C444.608 34.9947 443.616 34.4187 442.72 33.608C441.824 32.776 441.184 31.8587 440.799 30.856C440.565 30.1947 440.448 29.4587 440.448 28.648C440.448 27.4747 440.64 26.4933 441.024 25.704C441.472 24.7227 442.229 23.784 443.296 22.888C444.362 21.992 445.45 21.3947 446.56 21.096ZM481.402 24.584C480.954 24.4133 480.538 24.328 480.154 24.328C478.81 24.328 477.764 24.9573 477.018 26.216C476.804 26.5787 476.676 26.8987 476.634 27.176C476.591 27.432 476.559 27.9973 476.538 28.872V30.696L477.21 30.856C477.53 30.92 477.956 30.952 478.49 30.952C480.154 30.952 481.242 30.8027 481.754 30.504C482.522 30.056 482.906 29.288 482.906 28.2C482.906 27.7947 482.842 27.3147 482.714 26.76C482.458 25.5653 482.02 24.84 481.402 24.584ZM471.866 14.184C472.207 13.8427 472.634 13.672 473.146 13.672C473.85 13.672 474.362 13.96 474.682 14.536C474.81 14.7493 474.991 16.04 475.226 18.408C475.503 20.84 475.652 22.056 475.674 22.056H475.706C475.855 22.056 476.154 21.928 476.602 21.672C477.839 21.0107 479.066 20.68 480.282 20.68C480.964 20.68 481.636 20.7973 482.298 21.032C483.087 21.288 483.812 21.7467 484.474 22.408C485.028 22.984 485.444 23.6027 485.722 24.264C485.999 24.904 486.223 25.8107 486.394 26.984C486.458 27.3893 486.49 27.7947 486.49 28.2C486.49 30.1627 485.807 31.7627 484.442 33C483.78 33.5973 483.098 33.9813 482.394 34.152C481.69 34.3013 480.431 34.376 478.618 34.376C477.188 34.3547 476.282 34.3227 475.898 34.28C475.514 34.2373 475.087 34.12 474.618 33.928C473.892 33.6293 473.444 33.3413 473.274 33.064C472.975 32.6373 472.73 31.2507 472.538 28.904C472.516 28.5627 472.474 28.008 472.41 27.24C472.26 25.064 472.058 22.8347 471.802 20.552C471.524 17.5653 471.386 15.9013 471.386 15.56C471.386 14.9627 471.546 14.504 471.866 14.184ZM490.458 20.328C490.842 20.008 491.258 19.848 491.706 19.848C492.175 19.848 492.581 20.0187 492.922 20.36C493.263 20.68 493.434 21.096 493.434 21.608C493.434 22.12 493.53 22.376 493.722 22.376C493.829 22.376 494.053 22.2587 494.394 22.024C495.973 20.936 497.541 20.392 499.098 20.392C499.759 20.392 500.41 20.5093 501.05 20.744C501.626 20.9787 502.031 21.2347 502.266 21.512C502.501 21.7893 502.618 22.1627 502.618 22.632C502.618 23.144 502.426 23.5813 502.042 23.944C501.722 24.2427 501.434 24.392 501.178 24.392C501.093 24.392 500.495 24.3173 499.386 24.168C499.258 24.1467 499.077 24.136 498.842 24.136C498.501 24.136 498.063 24.2533 497.53 24.488C496.143 25.128 495.173 25.9387 494.618 26.92C494.063 27.9013 493.786 29.3093 493.786 31.144C493.765 32.488 493.605 33.4267 493.306 33.96C493.029 34.4933 492.527 34.76 491.802 34.76C491.311 34.76 490.895 34.5893 490.554 34.248L490.042 33.736L489.978 28.072C489.935 23.8907 489.914 21.736 489.914 21.608C489.914 21.096 490.095 20.6693 490.458 20.328ZM507.575 20.456C507.66 20.4347 507.788 20.424 507.959 20.424C508.428 20.424 508.844 20.5733 509.207 20.872C509.57 21.1707 509.783 21.5547 509.847 22.024C509.932 22.4933 509.975 24.5093 509.975 28.072L510.007 33.48L509.463 33.992C509.1 34.3547 508.674 34.536 508.183 34.536C507.735 34.536 507.351 34.376 507.031 34.056C506.818 33.8427 506.668 33.6293 506.583 33.416C506.519 33.1813 506.466 32.7333 506.423 32.072C506.359 31.24 506.327 29.2347 506.327 26.056L506.295 21.576L506.743 21.032C507.063 20.6907 507.34 20.4987 507.575 20.456ZM506.999 14.088C507.276 13.9387 507.564 13.864 507.863 13.864C508.354 13.864 508.77 14.0453 509.111 14.408C509.452 14.7707 509.623 15.1867 509.623 15.656C509.623 16.0613 509.463 16.456 509.143 16.84C508.738 17.2667 508.29 17.48 507.799 17.48C507.33 17.48 506.914 17.32 506.551 17C506.21 16.6587 506.039 16.2533 506.039 15.784C506.039 15.5067 506.103 15.2293 506.231 14.952C506.423 14.5467 506.679 14.2587 506.999 14.088ZM523.336 24.808C522.952 24.616 522.408 24.52 521.704 24.52C520.936 24.52 520.285 24.6373 519.752 24.872C519.389 25.0213 518.92 25.352 518.344 25.864C517.768 26.3547 517.48 26.6747 517.48 26.824C517.48 26.888 517.81 26.92 518.472 26.92C519.453 26.92 520.626 26.8667 521.992 26.76C523.357 26.6533 524.136 26.536 524.328 26.408C524.392 26.3867 524.424 26.3227 524.424 26.216C524.424 26.024 524.306 25.7787 524.072 25.48C523.837 25.16 523.592 24.936 523.336 24.808ZM519.56 21.096C520.093 20.9467 520.722 20.872 521.448 20.872C522.792 20.872 524.018 21.1387 525.128 21.672C525.96 22.0987 526.653 22.7493 527.208 23.624C527.762 24.4773 528.104 25.4373 528.232 26.504C528.232 26.5467 528.232 26.6107 528.232 26.696C528.253 26.7813 528.264 26.8453 528.264 26.888C528.264 27.4427 528.157 27.9867 527.944 28.52C527.752 29.0533 527.517 29.416 527.24 29.608C526.877 29.864 524.328 30.184 519.592 30.568C518.589 30.6533 518.088 30.7493 518.088 30.856C518.088 30.984 518.312 31.1867 518.76 31.464C519.208 31.7413 519.645 31.9333 520.072 32.04C520.456 32.1253 520.765 32.168 521 32.168C521.682 32.168 522.568 31.944 523.656 31.496C524.424 31.176 524.989 31.016 525.352 31.016C525.714 31.016 526.056 31.176 526.376 31.496C526.802 31.9227 527.016 32.328 527.016 32.712C527.016 32.968 526.952 33.2347 526.824 33.512C526.717 33.768 526.568 33.9707 526.376 34.12C526.205 34.2693 525.885 34.4507 525.416 34.664C523.858 35.3467 522.408 35.688 521.064 35.688C520.296 35.688 519.506 35.5707 518.696 35.336C517.608 34.9947 516.616 34.4187 515.72 33.608C514.824 32.776 514.184 31.8587 513.799 30.856C513.565 30.1947 513.448 29.4587 513.448 28.648C513.448 27.4747 513.64 26.4933 514.024 25.704C514.472 24.7227 515.229 23.784 516.296 22.888C517.362 21.992 518.45 21.3947 519.56 21.096ZM539.248 12.264C539.461 12.2 539.728 12.168 540.048 12.168C541.072 12.168 541.883 12.3387 542.48 12.68C543.291 13.1707 543.696 13.832 543.696 14.664C543.696 15.304 543.408 15.7733 542.832 16.072C542.555 16.2213 542.256 16.296 541.936 16.296C541.616 16.296 541.243 16.2 540.816 16.008C540.475 15.8587 540.293 15.784 540.272 15.784C540.187 15.784 540.048 15.88 539.856 16.072C539.621 16.3067 539.419 16.7867 539.248 17.512C539.077 18.2373 538.992 19.0373 538.992 19.912V20.584C538.992 20.8827 539.024 21.0853 539.088 21.192C539.152 21.2987 539.301 21.352 539.536 21.352C539.749 21.352 540.261 21.2987 541.072 21.192C541.264 21.1707 541.52 21.16 541.84 21.16C543.312 21.16 544.048 21.7573 544.048 22.952C544.027 23.5707 543.803 24.0187 543.376 24.296C542.971 24.552 542.245 24.7227 541.2 24.808C540.197 24.8933 539.643 24.968 539.536 25.032C539.515 25.032 539.504 25.128 539.504 25.32C539.504 25.8747 539.611 26.9733 539.824 28.616C540.037 30.2587 540.24 31.5493 540.432 32.488C540.517 33 540.56 33.352 540.56 33.544C540.56 34.2693 540.389 34.8453 540.048 35.272C539.707 35.6987 539.237 35.912 538.64 35.912C538.149 35.912 537.733 35.752 537.392 35.432C537.157 35.176 536.997 34.8987 536.912 34.6C536.848 34.28 536.752 33.448 536.624 32.104C536.411 30.0773 536.219 28.4773 536.048 27.304L535.76 25.288L534.192 25.224C533.467 25.1813 533.008 25.128 532.816 25.064C532.624 25 532.432 24.8613 532.24 24.648C531.963 24.3067 531.824 23.8907 531.824 23.4C531.824 23.1013 531.888 22.824 532.016 22.568C532.315 22.056 533.061 21.736 534.256 21.608L535.28 21.512L535.376 19.56C535.504 17.3413 535.877 15.656 536.496 14.504C537.115 13.3307 538.032 12.584 539.248 12.264ZM558.972 19.528C559.185 19.4213 559.441 19.368 559.74 19.368C560.828 19.368 561.51 20.2853 561.788 22.12C561.852 22.6747 561.926 22.952 562.012 22.952C562.033 22.952 562.332 22.7067 562.908 22.216C564.081 21.1707 565.276 20.648 566.492 20.648C567.153 20.648 567.782 20.8293 568.38 21.192C568.956 21.5547 569.329 21.8747 569.5 22.152L569.788 22.6L570.556 21.896C571.729 20.8507 572.988 20.328 574.332 20.328C575.633 20.328 576.753 20.8293 577.692 21.832C579.292 23.4747 580.241 26.28 580.54 30.248C580.582 30.9733 580.604 31.4213 580.604 31.592C580.604 32.1467 580.529 32.552 580.38 32.808C580.252 33.064 580.017 33.288 579.676 33.48C579.377 33.6293 579.089 33.704 578.812 33.704C578.342 33.704 577.926 33.4907 577.564 33.064C577.286 32.7013 577.105 32.0827 577.02 31.208C576.849 29.2453 576.636 27.784 576.38 26.824C576.124 25.864 575.761 25.1173 575.292 24.584C574.929 24.2 574.556 24.008 574.172 24.008C573.446 24.008 572.806 24.5733 572.252 25.704C572.038 26.152 571.9 26.568 571.836 26.952C571.772 27.336 571.718 28.2107 571.676 29.576C571.59 31.4533 571.484 32.5733 571.356 32.936C571.057 33.64 570.513 33.992 569.724 33.992C569.254 33.992 568.86 33.832 568.54 33.512C568.028 33 567.708 31.4853 567.58 28.968C567.516 28.008 567.398 27.08 567.228 26.184C567.057 25.288 566.897 24.7547 566.748 24.584C566.62 24.4347 566.481 24.36 566.332 24.36C566.076 24.36 565.649 24.6267 565.052 25.16C564.412 25.7573 563.932 26.3973 563.612 27.08C563.313 27.6987 563.132 28.2 563.068 28.584C563.025 28.9467 562.982 30.1947 562.94 32.328C562.918 32.8827 562.748 33.3307 562.428 33.672C562.108 34.0133 561.702 34.184 561.212 34.184C560.721 34.184 560.326 34.088 560.028 33.896C559.601 33.5973 559.302 33.0213 559.132 32.168C558.961 31.2933 558.769 29.2347 558.556 25.992C558.428 24.072 558.278 22.7707 558.108 22.088C557.98 21.576 557.916 21.2347 557.916 21.064C557.916 20.872 557.98 20.648 558.108 20.392C558.3 19.944 558.588 19.656 558.972 19.528ZM592.776 22.6C592.2 22.4933 591.72 22.44 591.336 22.44C590.461 22.44 589.725 22.6213 589.128 22.984C588.829 23.176 588.477 23.8267 588.072 24.936C587.688 26.024 587.496 26.8987 587.496 27.56C587.496 28.6267 587.837 29.4907 588.52 30.152C589.224 30.792 590.141 31.1227 591.272 31.144C592.189 31.144 593.042 30.888 593.832 30.376C594.642 29.864 595.229 29.192 595.592 28.36C595.826 27.8267 595.944 27.2187 595.944 26.536C595.944 25.704 595.784 24.9787 595.464 24.36C595.229 23.8693 594.909 23.496 594.504 23.24C594.098 22.984 593.522 22.7707 592.776 22.6ZM589.16 19.176C589.906 18.984 590.642 18.888 591.368 18.888C592.733 18.888 594.194 19.2293 595.752 19.912C596.861 20.4027 597.736 21.2667 598.376 22.504C599.037 23.7413 599.378 25.2027 599.4 26.888V27.08C599.4 29.6187 598.269 31.6773 596.008 33.256C594.6 34.2587 593.032 34.76 591.304 34.76C589.874 34.76 588.552 34.408 587.336 33.704C586.12 32.9787 585.202 31.9653 584.584 30.664C584.37 30.216 584.232 29.832 584.168 29.512C584.125 29.192 584.104 28.52 584.104 27.496C584.125 25.9813 584.285 24.7867 584.584 23.912C585.288 21.9707 586.12 20.6587 587.08 19.976C587.464 19.6987 588.157 19.432 589.16 19.176ZM604.132 18.344C604.431 18.3013 604.602 18.2693 604.644 18.248C604.751 18.248 604.996 18.3227 605.38 18.472C605.679 18.6 605.946 18.856 606.18 19.24C606.415 19.624 606.532 19.9973 606.532 20.36C606.532 20.6373 606.586 20.8507 606.692 21C606.778 21.1067 606.852 21.1493 606.916 21.128C606.98 21.1067 607.13 21 607.364 20.808C608.324 19.9973 609.498 19.496 610.884 19.304C611.311 19.2613 611.61 19.24 611.78 19.24C612.868 19.24 613.796 19.6347 614.564 20.424L615.3 21.16L616.228 20.424C617.743 19.208 619.215 18.6 620.644 18.6C621.135 18.6 621.572 18.6747 621.956 18.824C622.383 18.9947 622.842 19.3253 623.332 19.816C623.844 20.2853 624.228 20.7867 624.484 21.32C625.252 22.8773 625.754 25.7787 625.988 30.024C626.031 31.0907 626.052 31.6773 626.052 31.784C626.052 32.3387 625.978 32.7547 625.828 33.032C625.508 33.6507 625.018 33.96 624.356 33.96C623.887 33.96 623.471 33.7893 623.108 33.448L622.532 32.968L622.372 29.992C622.138 25.5547 621.604 22.984 620.772 22.28C620.644 22.1947 620.538 22.152 620.452 22.152C620.282 22.152 619.972 22.2693 619.524 22.504C618.415 23.0373 617.626 23.944 617.156 25.224C616.9 25.8853 616.73 27.2613 616.644 29.352C616.538 31.464 616.431 32.6373 616.324 32.872C615.983 33.4693 615.439 33.768 614.692 33.768C614.287 33.768 613.924 33.64 613.604 33.384C613.135 33 612.9 32.0613 612.9 30.568C612.9 29.8853 612.911 29.32 612.932 28.872C612.932 28.7227 612.932 28.52 612.932 28.264C612.954 27.9867 612.964 27.784 612.964 27.656C612.964 25.5653 612.73 24.1147 612.26 23.304C612.068 22.9627 611.876 22.792 611.684 22.792C611.663 22.792 611.524 22.8133 611.268 22.856C609.903 23.112 608.751 24.2107 607.812 26.152C607.428 26.9627 607.236 27.816 607.236 28.712C607.236 29.48 607.3 30.4187 607.428 31.528C607.492 31.976 607.524 32.3493 607.524 32.648C607.524 33.4587 607.172 34.0347 606.468 34.376C606.17 34.5253 605.935 34.6 605.764 34.6C605.636 34.6 605.434 34.5467 605.156 34.44C604.623 34.248 604.271 33.8853 604.1 33.352C603.93 32.7973 603.791 31.6133 603.684 29.8C603.535 26.7067 603.279 23.5173 602.916 20.232C602.916 20.1893 602.906 20.1253 602.884 20.04C602.884 19.9547 602.884 19.9013 602.884 19.88C602.884 19.5813 603.012 19.272 603.268 18.952C603.588 18.5893 603.876 18.3867 604.132 18.344ZM639.429 24.808C639.045 24.616 638.501 24.52 637.797 24.52C637.029 24.52 636.379 24.6373 635.845 24.872C635.483 25.0213 635.013 25.352 634.437 25.864C633.861 26.3547 633.573 26.6747 633.573 26.824C633.573 26.888 633.904 26.92 634.565 26.92C635.547 26.92 636.72 26.8667 638.085 26.76C639.451 26.6533 640.229 26.536 640.421 26.408C640.485 26.3867 640.517 26.3227 640.517 26.216C640.517 26.024 640.4 25.7787 640.165 25.48C639.931 25.16 639.685 24.936 639.429 24.808ZM635.653 21.096C636.187 20.9467 636.816 20.872 637.541 20.872C638.885 20.872 640.112 21.1387 641.221 21.672C642.053 22.0987 642.747 22.7493 643.301 23.624C643.856 24.4773 644.197 25.4373 644.325 26.504C644.325 26.5467 644.325 26.6107 644.325 26.696C644.347 26.7813 644.357 26.8453 644.357 26.888C644.357 27.4427 644.251 27.9867 644.037 28.52C643.845 29.0533 643.611 29.416 643.333 29.608C642.971 29.864 640.421 30.184 635.685 30.568C634.683 30.6533 634.181 30.7493 634.181 30.856C634.181 30.984 634.405 31.1867 634.853 31.464C635.301 31.7413 635.739 31.9333 636.165 32.04C636.549 32.1253 636.859 32.168 637.093 32.168C637.776 32.168 638.661 31.944 639.749 31.496C640.517 31.176 641.083 31.016 641.445 31.016C641.808 31.016 642.149 31.176 642.469 31.496C642.896 31.9227 643.109 32.328 643.109 32.712C643.109 32.968 643.045 33.2347 642.917 33.512C642.811 33.768 642.661 33.9707 642.469 34.12C642.299 34.2693 641.979 34.4507 641.509 34.664C639.952 35.3467 638.501 35.688 637.157 35.688C636.389 35.688 635.6 35.5707 634.789 35.336C633.701 34.9947 632.709 34.4187 631.813 33.608C630.917 32.776 630.277 31.8587 629.893 30.856C629.659 30.1947 629.541 29.4587 629.541 28.648C629.541 27.4747 629.733 26.4933 630.117 25.704C630.565 24.7227 631.323 23.784 632.389 22.888C633.456 21.992 634.544 21.3947 635.653 21.096ZM648.686 20.072C648.942 19.944 649.208 19.88 649.486 19.88C649.87 19.88 650.232 20.008 650.574 20.264C650.915 20.4987 651.15 20.8187 651.278 21.224L651.47 21.896L652.27 21.416C652.803 21.096 653.539 20.936 654.478 20.936C655.395 20.936 656.152 21.0853 656.75 21.384C657.24 21.6187 657.763 22.0027 658.318 22.536C658.894 23.0693 659.352 23.6027 659.694 24.136C660.846 25.9493 661.475 28.7653 661.582 32.584V33.224C661.582 33.736 661.432 34.152 661.134 34.472C660.771 34.8347 660.344 35.016 659.854 35.016C659.064 35.016 658.542 34.6747 658.286 33.992C658.158 33.6293 658.051 32.9147 657.966 31.848C657.71 28.1147 656.878 25.7787 655.47 24.84C655.171 24.648 654.872 24.552 654.574 24.552C654.019 24.552 653.518 24.8613 653.07 25.48C652.643 26.0773 652.302 26.9307 652.046 28.04C651.939 28.5307 651.811 29.416 651.662 30.696C651.512 31.976 651.438 32.84 651.438 33.288C651.438 33.5013 651.256 33.7893 650.894 34.152C650.531 34.4933 650.115 34.664 649.646 34.664C648.771 34.664 648.195 34.2053 647.918 33.288C647.79 32.84 647.726 30.8987 647.726 27.464C647.726 23.368 647.8 21.1387 647.95 20.776C648.078 20.4987 648.323 20.264 648.686 20.072ZM670.063 12.52C670.426 12.1573 670.863 11.976 671.375 11.976C671.759 11.976 672.1 12.0933 672.399 12.328C672.719 12.5413 672.943 12.8507 673.071 13.256C673.135 13.4907 673.242 14.6 673.391 16.584C673.54 18.5467 673.615 19.912 673.615 20.68C673.615 20.872 673.658 20.9893 673.743 21.032C673.85 21.0747 674.095 21.096 674.479 21.096C675.055 21.096 675.386 21.032 675.471 20.904C675.514 20.7973 675.951 20.744 676.783 20.744C677.85 20.744 678.554 20.8187 678.895 20.968C679.215 21.1173 679.46 21.4053 679.631 21.832C679.78 22.1307 679.855 22.376 679.855 22.568C679.855 22.7173 679.823 22.8987 679.759 23.112C679.61 23.6027 679.332 23.9333 678.927 24.104C678.543 24.2533 677.775 24.36 676.623 24.424C675.322 24.488 674.479 24.5733 674.095 24.68L673.583 24.808L673.711 29.32C673.754 31.3253 673.775 32.4027 673.775 32.552C673.775 33.4907 673.7 34.12 673.551 34.44C673.231 35.1227 672.708 35.464 671.983 35.464C671.706 35.464 671.418 35.4 671.119 35.272C670.884 35.1653 670.714 35.0693 670.607 34.984C670.5 34.8773 670.404 34.6107 670.319 34.184C670.234 33.736 670.18 33.2133 670.159 32.616C670.138 32.0187 670.116 31.0373 670.095 29.672L670.031 25.032L669.071 25.064C668.495 25.1067 667.983 25.192 667.535 25.32C667.428 25.3627 667.258 25.384 667.023 25.384C666.298 25.384 665.775 25.16 665.455 24.712C665.284 24.4347 665.199 24.0613 665.199 23.592C665.199 23.1867 665.263 22.8667 665.391 22.632C665.69 22.0987 666.735 21.6933 668.527 21.416L669.999 21.192L669.871 18.376C669.786 16.3707 669.711 15.0053 669.647 14.28C669.604 13.768 669.583 13.4907 669.583 13.448C669.583 13.1493 669.743 12.84 670.063 12.52ZM687.96 19.496C688.344 19.432 688.738 19.4 689.144 19.4C690.424 19.4 691.565 19.688 692.568 20.264C693.57 20.84 694.072 21.5013 694.072 22.248C694.072 22.44 694.04 22.6107 693.976 22.76C693.656 23.5707 693.176 23.976 692.536 23.976C692.066 23.976 691.533 23.8267 690.936 23.528C690.253 23.1867 689.624 23.016 689.048 23.016C688.429 23.016 687.917 23.2187 687.512 23.624C687.298 23.8373 687.192 24.008 687.192 24.136C687.192 24.3067 687.352 24.5093 687.672 24.744C688.013 24.9573 688.632 25.2987 689.528 25.768C691 26.536 691.992 27.1653 692.504 27.656C692.994 28.0827 693.421 28.616 693.784 29.256C694.146 29.8747 694.328 30.3973 694.328 30.824C694.328 31.3147 694.2 31.8053 693.944 32.296C693.688 32.7867 693.368 33.16 692.984 33.416C692.002 34.0773 690.808 34.408 689.4 34.408C688.077 34.408 686.712 34.0987 685.304 33.48C684.642 33.16 684.226 32.7973 684.056 32.392C683.928 32.0933 683.864 31.8267 683.864 31.592C683.864 31.1653 684.066 30.7493 684.472 30.344C684.749 30.024 685.122 29.864 685.592 29.864C686.04 29.864 686.584 30.0027 687.224 30.28C687.928 30.5787 688.738 30.728 689.656 30.728C690.082 30.728 690.296 30.6747 690.296 30.568C690.296 30.312 689.378 29.7253 687.544 28.808C686.114 28.0613 685.069 27.3253 684.408 26.6C683.746 25.8533 683.416 25.032 683.416 24.136C683.416 23.0693 683.853 22.088 684.728 21.192C685.624 20.2747 686.701 19.7093 687.96 19.496ZM707.585 19.816C707.905 19.496 708.31 19.336 708.801 19.336C709.462 19.336 709.921 19.56 710.177 20.008C710.454 20.4347 710.891 21.64 711.489 23.624C711.659 24.1787 711.873 24.8933 712.129 25.768C712.854 28.072 713.27 29.2453 713.377 29.288C713.505 29.288 713.793 28.648 714.241 27.368C714.966 25.192 715.563 23.6667 716.033 22.792C716.523 21.9173 717.099 21.3413 717.761 21.064C718.081 20.9147 718.401 20.84 718.721 20.84C719.19 20.84 719.617 21.064 720.001 21.512C720.406 21.9387 720.854 22.664 721.345 23.688C723.222 27.6773 724.214 29.672 724.321 29.672C724.363 29.672 724.609 29 725.057 27.656C725.526 26.2907 726.017 24.8827 726.529 23.432C727.062 21.9813 727.414 21.16 727.585 20.968C727.926 20.584 728.331 20.392 728.801 20.392C729.313 20.392 729.782 20.616 730.209 21.064C730.443 21.2987 730.561 21.608 730.561 21.992C730.561 22.6107 730.07 24.36 729.089 27.24C728.065 30.248 727.275 32.2213 726.721 33.16C726.166 34.0773 725.473 34.536 724.641 34.536C724.385 34.536 724.193 34.5253 724.065 34.504C723.382 34.3973 722.795 34.0453 722.305 33.448C721.814 32.8507 721.099 31.5707 720.161 29.608C719.115 27.432 718.561 26.344 718.497 26.344C718.433 26.344 718.241 26.792 717.921 27.688C716.897 30.632 716.171 32.5413 715.745 33.416C715.318 34.2907 714.87 34.8347 714.401 35.048C714.038 35.1973 713.611 35.272 713.121 35.272C712.694 35.272 712.363 35.2187 712.129 35.112C711.702 34.8987 711.19 34.0453 710.593 32.552C709.995 31.0587 709.153 28.4987 708.065 24.872C707.446 22.824 707.137 21.512 707.137 20.936C707.137 20.488 707.286 20.1147 707.585 19.816ZM734.777 12.552C735.139 12.2533 735.513 12.104 735.897 12.104C736.665 12.104 737.23 12.5733 737.593 13.512C737.742 13.9387 737.902 14.9627 738.073 16.584C738.243 18.184 738.382 19.6773 738.489 21.064C738.595 22.4293 738.659 23.112 738.681 23.112C738.723 23.112 739.075 22.8773 739.737 22.408C741.038 21.4907 742.275 21.032 743.449 21.032C744.537 21.032 745.486 21.4373 746.297 22.248C747.129 23.0373 747.779 24.2 748.249 25.736C748.611 26.9307 748.793 28.7867 748.793 31.304C748.793 32.8827 748.697 33.9493 748.505 34.504C748.291 35.08 747.801 35.368 747.033 35.368C746.521 35.368 746.094 35.1973 745.753 34.856L745.273 34.376L745.177 31.144C745.049 26.984 744.473 24.84 743.449 24.712H743.353C742.862 24.712 742.254 24.9893 741.529 25.544C740.803 26.0773 740.281 26.664 739.961 27.304C739.769 27.7307 739.513 28.04 739.193 28.232L738.777 28.52L738.713 32.008C738.67 33.7147 738.627 34.7493 738.585 35.112C738.563 35.4533 738.446 35.7307 738.233 35.944C737.891 36.3067 737.465 36.488 736.953 36.488C736.185 36.488 735.651 36.1467 735.353 35.464C735.203 35.0587 735.097 32.6053 735.033 28.104C734.926 20.5733 734.649 16.0613 734.201 14.568C734.137 14.3333 734.105 14.1093 734.105 13.896C734.105 13.3413 734.329 12.8933 734.777 12.552ZM762.179 24.808C761.795 24.616 761.251 24.52 760.547 24.52C759.779 24.52 759.129 24.6373 758.595 24.872C758.233 25.0213 757.763 25.352 757.187 25.864C756.611 26.3547 756.323 26.6747 756.323 26.824C756.323 26.888 756.654 26.92 757.315 26.92C758.297 26.92 759.47 26.8667 760.835 26.76C762.201 26.6533 762.979 26.536 763.171 26.408C763.235 26.3867 763.267 26.3227 763.267 26.216C763.267 26.024 763.15 25.7787 762.915 25.48C762.681 25.16 762.435 24.936 762.179 24.808ZM758.403 21.096C758.937 20.9467 759.566 20.872 760.291 20.872C761.635 20.872 762.862 21.1387 763.971 21.672C764.803 22.0987 765.497 22.7493 766.051 23.624C766.606 24.4773 766.947 25.4373 767.075 26.504C767.075 26.5467 767.075 26.6107 767.075 26.696C767.097 26.7813 767.107 26.8453 767.107 26.888C767.107 27.4427 767.001 27.9867 766.787 28.52C766.595 29.0533 766.361 29.416 766.083 29.608C765.721 29.864 763.171 30.184 758.435 30.568C757.433 30.6533 756.931 30.7493 756.931 30.856C756.931 30.984 757.155 31.1867 757.603 31.464C758.051 31.7413 758.489 31.9333 758.915 32.04C759.299 32.1253 759.609 32.168 759.843 32.168C760.526 32.168 761.411 31.944 762.499 31.496C763.267 31.176 763.833 31.016 764.195 31.016C764.558 31.016 764.899 31.176 765.219 31.496C765.646 31.9227 765.859 32.328 765.859 32.712C765.859 32.968 765.795 33.2347 765.667 33.512C765.561 33.768 765.411 33.9707 765.219 34.12C765.049 34.2693 764.729 34.4507 764.259 34.664C762.702 35.3467 761.251 35.688 759.907 35.688C759.139 35.688 758.35 35.5707 757.539 35.336C756.451 34.9947 755.459 34.4187 754.563 33.608C753.667 32.776 753.027 31.8587 752.643 30.856C752.409 30.1947 752.291 29.4587 752.291 28.648C752.291 27.4747 752.483 26.4933 752.867 25.704C753.315 24.7227 754.073 23.784 755.139 22.888C756.206 21.992 757.294 21.3947 758.403 21.096ZM771.052 20.328C771.436 20.008 771.852 19.848 772.3 19.848C772.769 19.848 773.174 20.0187 773.516 20.36C773.857 20.68 774.028 21.096 774.028 21.608C774.028 22.12 774.124 22.376 774.316 22.376C774.422 22.376 774.646 22.2587 774.988 22.024C776.566 20.936 778.134 20.392 779.692 20.392C780.353 20.392 781.004 20.5093 781.644 20.744C782.22 20.9787 782.625 21.2347 782.86 21.512C783.094 21.7893 783.212 22.1627 783.212 22.632C783.212 23.144 783.02 23.5813 782.636 23.944C782.316 24.2427 782.028 24.392 781.772 24.392C781.686 24.392 781.089 24.3173 779.98 24.168C779.852 24.1467 779.67 24.136 779.436 24.136C779.094 24.136 778.657 24.2533 778.124 24.488C776.737 25.128 775.766 25.9387 775.212 26.92C774.657 27.9013 774.38 29.3093 774.38 31.144C774.358 32.488 774.198 33.4267 773.9 33.96C773.622 34.4933 773.121 34.76 772.396 34.76C771.905 34.76 771.489 34.5893 771.148 34.248L770.636 33.736L770.572 28.072C770.529 23.8907 770.508 21.736 770.508 21.608C770.508 21.096 770.689 20.6693 771.052 20.328ZM796.617 24.808C796.233 24.616 795.689 24.52 794.985 24.52C794.217 24.52 793.566 24.6373 793.033 24.872C792.67 25.0213 792.201 25.352 791.625 25.864C791.049 26.3547 790.761 26.6747 790.761 26.824C790.761 26.888 791.091 26.92 791.753 26.92C792.734 26.92 793.907 26.8667 795.273 26.76C796.638 26.6533 797.417 26.536 797.609 26.408C797.673 26.3867 797.705 26.3227 797.705 26.216C797.705 26.024 797.587 25.7787 797.353 25.48C797.118 25.16 796.873 24.936 796.617 24.808ZM792.841 21.096C793.374 20.9467 794.003 20.872 794.729 20.872C796.073 20.872 797.299 21.1387 798.409 21.672C799.241 22.0987 799.934 22.7493 800.489 23.624C801.043 24.4773 801.385 25.4373 801.513 26.504C801.513 26.5467 801.513 26.6107 801.513 26.696C801.534 26.7813 801.545 26.8453 801.545 26.888C801.545 27.4427 801.438 27.9867 801.225 28.52C801.033 29.0533 800.798 29.416 800.521 29.608C800.158 29.864 797.609 30.184 792.873 30.568C791.87 30.6533 791.369 30.7493 791.369 30.856C791.369 30.984 791.593 31.1867 792.041 31.464C792.489 31.7413 792.926 31.9333 793.353 32.04C793.737 32.1253 794.046 32.168 794.281 32.168C794.963 32.168 795.849 31.944 796.937 31.496C797.705 31.176 798.27 31.016 798.633 31.016C798.995 31.016 799.337 31.176 799.657 31.496C800.083 31.9227 800.297 32.328 800.297 32.712C800.297 32.968 800.233 33.2347 800.105 33.512C799.998 33.768 799.849 33.9707 799.657 34.12C799.486 34.2693 799.166 34.4507 798.697 34.664C797.139 35.3467 795.689 35.688 794.345 35.688C793.577 35.688 792.787 35.5707 791.977 35.336C790.889 34.9947 789.897 34.4187 789.001 33.608C788.105 32.776 787.465 31.8587 787.081 30.856C786.846 30.1947 786.729 29.4587 786.729 28.648C786.729 27.4747 786.921 26.4933 787.305 25.704C787.753 24.7227 788.51 23.784 789.577 22.888C790.643 21.992 791.731 21.3947 792.841 21.096ZM816.492 15.272C816.834 14.952 817.154 14.792 817.452 14.792C817.623 14.792 817.772 14.8027 817.9 14.824C818.476 14.888 818.882 15.08 819.116 15.4L819.532 15.88L819.468 24.264C819.447 29.7893 819.351 32.7653 819.18 33.192C818.903 33.832 818.37 34.152 817.58 34.152C817.324 34.152 817.132 34.1307 817.004 34.088C816.684 33.9813 816.471 33.9067 816.364 33.864C816.279 33.8 816.172 33.608 816.044 33.288C815.938 32.9467 815.874 32.4773 815.852 31.88C815.831 31.2827 815.82 30.3653 815.82 29.128C815.82 28.7867 815.82 28.0933 815.82 27.048C815.842 26.0027 815.852 25.128 815.852 24.424L815.884 15.784L816.492 15.272ZM843.936 12.264C844.149 12.2 844.416 12.168 844.736 12.168C845.76 12.168 846.57 12.3387 847.168 12.68C847.978 13.1707 848.384 13.832 848.384 14.664C848.384 15.304 848.096 15.7733 847.52 16.072C847.242 16.2213 846.944 16.296 846.624 16.296C846.304 16.296 845.93 16.2 845.504 16.008C845.162 15.8587 844.981 15.784 844.96 15.784C844.874 15.784 844.736 15.88 844.544 16.072C844.309 16.3067 844.106 16.7867 843.936 17.512C843.765 18.2373 843.68 19.0373 843.68 19.912V20.584C843.68 20.8827 843.712 21.0853 843.776 21.192C843.84 21.2987 843.989 21.352 844.224 21.352C844.437 21.352 844.949 21.2987 845.76 21.192C845.952 21.1707 846.208 21.16 846.528 21.16C848 21.16 848.736 21.7573 848.736 22.952C848.714 23.5707 848.49 24.0187 848.064 24.296C847.658 24.552 846.933 24.7227 845.888 24.808C844.885 24.8933 844.33 24.968 844.224 25.032C844.202 25.032 844.192 25.128 844.192 25.32C844.192 25.8747 844.298 26.9733 844.512 28.616C844.725 30.2587 844.928 31.5493 845.12 32.488C845.205 33 845.248 33.352 845.248 33.544C845.248 34.2693 845.077 34.8453 844.736 35.272C844.394 35.6987 843.925 35.912 843.328 35.912C842.837 35.912 842.421 35.752 842.08 35.432C841.845 35.176 841.685 34.8987 841.6 34.6C841.536 34.28 841.44 33.448 841.312 32.104C841.098 30.0773 840.906 28.4773 840.736 27.304L840.448 25.288L838.88 25.224C838.154 25.1813 837.696 25.128 837.504 25.064C837.312 25 837.12 24.8613 836.928 24.648C836.65 24.3067 836.512 23.8907 836.512 23.4C836.512 23.1013 836.576 22.824 836.704 22.568C837.002 22.056 837.749 21.736 838.944 21.608L839.968 21.512L840.064 19.56C840.192 17.3413 840.565 15.656 841.184 14.504C841.802 13.3307 842.72 12.584 843.936 12.264ZM861.059 23.944C860.675 23.6667 860.067 23.528 859.235 23.528C858.723 23.528 858.318 23.592 858.019 23.72C857.742 23.848 857.422 24.1147 857.059 24.52C856.718 24.904 856.547 25.1813 856.547 25.352C856.547 25.5013 856.707 25.576 857.027 25.576C857.454 25.5547 858.339 25.4587 859.683 25.288C861.027 25.1173 861.721 25.0107 861.763 24.968C861.785 24.9467 861.795 24.9147 861.795 24.872C861.795 24.6373 861.55 24.328 861.059 23.944ZM857.603 20.04C857.987 19.9333 858.457 19.88 859.011 19.88C860.142 19.88 861.113 20.04 861.923 20.36C862.585 20.5947 863.235 21.0533 863.875 21.736C864.537 22.3973 865.081 23.144 865.507 23.976C865.934 24.8293 866.147 25.4053 866.147 25.704C866.147 26.3867 865.849 27.0267 865.251 27.624C864.611 28.2 862.617 28.6267 859.267 28.904C857.987 29.0107 857.155 29.096 856.771 29.16C856.387 29.224 856.195 29.32 856.195 29.448C856.195 29.5547 856.387 29.7787 856.771 30.12C857.433 30.76 858.617 31.144 860.323 31.272C860.494 31.2933 860.718 31.304 860.995 31.304C861.443 31.304 861.977 31.1973 862.595 30.984C863.47 30.664 864.163 30.504 864.675 30.504C865.443 30.504 865.945 30.888 866.179 31.656C866.243 31.848 866.275 32.0293 866.275 32.2C866.275 32.9253 865.817 33.5227 864.899 33.992C864.003 34.44 862.734 34.696 861.091 34.76C861.006 34.76 860.889 34.7707 860.739 34.792C860.59 34.792 860.483 34.792 860.419 34.792C858.606 34.792 857.038 34.44 855.715 33.736C854.414 33.0107 853.433 31.9867 852.771 30.664C852.451 30.024 852.291 29.1707 852.291 28.104C852.291 27.0373 852.398 26.1947 852.611 25.576C853.145 23.976 853.806 22.7493 854.595 21.896C855.385 21.0213 856.387 20.4027 857.603 20.04ZM878.528 23.944C878.144 23.6667 877.536 23.528 876.704 23.528C876.192 23.528 875.787 23.592 875.488 23.72C875.211 23.848 874.891 24.1147 874.528 24.52C874.187 24.904 874.016 25.1813 874.016 25.352C874.016 25.5013 874.176 25.576 874.496 25.576C874.923 25.5547 875.808 25.4587 877.152 25.288C878.496 25.1173 879.189 25.0107 879.232 24.968C879.253 24.9467 879.264 24.9147 879.264 24.872C879.264 24.6373 879.019 24.328 878.528 23.944ZM875.072 20.04C875.456 19.9333 875.925 19.88 876.48 19.88C877.611 19.88 878.581 20.04 879.392 20.36C880.053 20.5947 880.704 21.0533 881.344 21.736C882.005 22.3973 882.549 23.144 882.976 23.976C883.403 24.8293 883.616 25.4053 883.616 25.704C883.616 26.3867 883.317 27.0267 882.72 27.624C882.08 28.2 880.085 28.6267 876.736 28.904C875.456 29.0107 874.624 29.096 874.24 29.16C873.856 29.224 873.664 29.32 873.664 29.448C873.664 29.5547 873.856 29.7787 874.24 30.12C874.901 30.76 876.085 31.144 877.792 31.272C877.963 31.2933 878.187 31.304 878.464 31.304C878.912 31.304 879.445 31.1973 880.064 30.984C880.939 30.664 881.632 30.504 882.144 30.504C882.912 30.504 883.413 30.888 883.648 31.656C883.712 31.848 883.744 32.0293 883.744 32.2C883.744 32.9253 883.285 33.5227 882.368 33.992C881.472 34.44 880.203 34.696 878.56 34.76C878.475 34.76 878.357 34.7707 878.208 34.792C878.059 34.792 877.952 34.792 877.888 34.792C876.075 34.792 874.507 34.44 873.184 33.736C871.883 33.0107 870.901 31.9867 870.24 30.664C869.92 30.024 869.76 29.1707 869.76 28.104C869.76 27.0373 869.867 26.1947 870.08 25.576C870.613 23.976 871.275 22.7493 872.064 21.896C872.853 21.0213 873.856 20.4027 875.072 20.04ZM887.773 12.424C888.114 12.0827 888.519 11.912 888.989 11.912C889.437 11.912 889.831 12.0827 890.173 12.424C890.514 12.7653 890.727 13.32 890.813 14.088C890.834 14.3013 890.845 15.5813 890.845 17.928C890.845 28.8933 890.77 34.6 890.621 35.048C890.535 35.304 890.343 35.5067 890.045 35.656C889.746 35.8053 889.415 35.88 889.053 35.88C888.626 35.88 888.285 35.7947 888.029 35.624C887.645 35.368 887.399 34.9947 887.293 34.504C887.207 33.992 887.165 32.6267 887.165 30.408C887.165 27.8267 887.175 25.5333 887.197 23.528L887.293 12.904L887.773 12.424ZM909.2 13.864C909.477 13.7573 909.723 13.704 909.936 13.704C910.256 13.704 910.576 13.8 910.896 13.992C911.216 14.2053 911.429 14.44 911.536 14.696C911.664 14.952 911.728 15.4427 911.728 16.168C911.728 17 911.685 18.056 911.6 19.336C911.451 21.96 911.355 25.0533 911.312 28.616C911.312 32.0933 911.237 33.9707 911.088 34.248C910.981 34.4613 910.757 34.6747 910.416 34.888C910.096 35.08 909.819 35.176 909.584 35.176C909.328 35.176 909.04 35.0693 908.72 34.856C908.4 34.6427 908.176 34.408 908.048 34.152C907.792 33.64 907.664 31.9227 907.664 29C907.664 26.056 907.792 22.1733 908.048 17.352C908.112 16.0933 908.219 15.24 908.368 14.792C908.517 14.344 908.795 14.0347 909.2 13.864ZM916.894 19.912C916.979 19.8907 917.107 19.88 917.278 19.88C917.683 19.88 918.056 19.9867 918.398 20.2C918.739 20.392 918.974 20.6587 919.102 21C919.187 21.192 919.272 22.6533 919.358 25.384C919.464 28.0933 919.518 30.2267 919.518 31.784C919.518 32.4453 919.507 32.8293 919.486 32.936C919.379 33.7467 919.027 34.2907 918.43 34.568C918.131 34.696 917.896 34.76 917.726 34.76C917.598 34.76 917.406 34.728 917.15 34.664C916.659 34.5147 916.35 34.312 916.222 34.056C915.966 33.5653 915.816 31.6667 915.774 28.36C915.774 27.7627 915.763 26.728 915.742 25.256L915.71 20.872L916.094 20.424C916.35 20.1253 916.616 19.9547 916.894 19.912ZM916.126 13.896C916.382 13.768 916.627 13.704 916.862 13.704C917.331 13.704 917.747 13.896 918.11 14.28C918.472 14.6427 918.654 15.0693 918.654 15.56C918.654 15.9013 918.568 16.2 918.398 16.456C918.035 17.032 917.544 17.32 916.926 17.32C916.52 17.32 916.147 17.1813 915.806 16.904C915.464 16.6267 915.251 16.2427 915.166 15.752C915.166 15.7307 915.155 15.6987 915.134 15.656C915.134 15.592 915.134 15.5493 915.134 15.528C915.134 15.208 915.23 14.8987 915.422 14.6C915.614 14.28 915.848 14.0453 916.126 13.896ZM923.683 13.608C924.003 13.4373 924.333 13.352 924.675 13.352C925.123 13.352 925.507 13.5227 925.827 13.864C926.147 14.2053 926.339 14.6747 926.403 15.272C926.467 15.784 926.552 17.2667 926.659 19.72C926.787 22.152 926.851 23.7093 926.851 24.392C926.851 24.968 926.904 25.2347 927.011 25.192C927.181 25.128 927.661 24.5627 928.451 23.496C929.24 22.4293 929.731 21.6827 929.923 21.256C930.371 20.3173 930.936 19.848 931.619 19.848C931.939 19.848 932.248 19.9227 932.547 20.072C933.187 20.3707 933.507 20.9147 933.507 21.704C933.507 22.0453 933.421 22.4187 933.251 22.824C933.101 23.1867 932.472 24.104 931.363 25.576C930.147 27.2187 929.528 28.072 929.507 28.136C929.464 28.2213 929.443 28.2853 929.443 28.328C929.443 28.52 930.296 29.2027 932.003 30.376C933.859 31.656 934.851 32.392 934.979 32.584C935.149 32.8187 935.235 33.1067 935.235 33.448C935.235 33.9173 935.075 34.3333 934.755 34.696C934.435 35.0373 934.029 35.2187 933.539 35.24C933.219 35.24 932.856 35.144 932.451 34.952C932.067 34.7387 931.267 34.216 930.051 33.384C928.173 32.1253 927.213 31.496 927.171 31.496C927.149 31.496 927.096 32.0827 927.011 33.256C926.968 34.0667 926.915 34.5893 926.851 34.824C926.808 35.0373 926.669 35.272 926.435 35.528C926.072 35.8907 925.645 36.072 925.155 36.072C924.792 36.072 924.461 35.976 924.163 35.784C923.864 35.5707 923.661 35.2933 923.555 34.952C923.469 34.6533 923.384 32.1893 923.299 27.56C923.235 23.464 923.128 20.2213 922.979 17.832C922.915 16.872 922.883 16.136 922.883 15.624C922.883 14.984 922.936 14.536 923.043 14.28C923.171 14.0027 923.384 13.7787 923.683 13.608ZM948.773 24.808C948.389 24.616 947.845 24.52 947.141 24.52C946.373 24.52 945.722 24.6373 945.189 24.872C944.826 25.0213 944.357 25.352 943.781 25.864C943.205 26.3547 942.917 26.6747 942.917 26.824C942.917 26.888 943.248 26.92 943.909 26.92C944.89 26.92 946.064 26.8667 947.429 26.76C948.794 26.6533 949.573 26.536 949.765 26.408C949.829 26.3867 949.861 26.3227 949.861 26.216C949.861 26.024 949.744 25.7787 949.509 25.48C949.274 25.16 949.029 24.936 948.773 24.808ZM944.997 21.096C945.53 20.9467 946.16 20.872 946.885 20.872C948.229 20.872 949.456 21.1387 950.565 21.672C951.397 22.0987 952.09 22.7493 952.645 23.624C953.2 24.4773 953.541 25.4373 953.669 26.504C953.669 26.5467 953.669 26.6107 953.669 26.696C953.69 26.7813 953.701 26.8453 953.701 26.888C953.701 27.4427 953.594 27.9867 953.381 28.52C953.189 29.0533 952.954 29.416 952.677 29.608C952.314 29.864 949.765 30.184 945.029 30.568C944.026 30.6533 943.525 30.7493 943.525 30.856C943.525 30.984 943.749 31.1867 944.197 31.464C944.645 31.7413 945.082 31.9333 945.509 32.04C945.893 32.1253 946.202 32.168 946.437 32.168C947.12 32.168 948.005 31.944 949.093 31.496C949.861 31.176 950.426 31.016 950.789 31.016C951.152 31.016 951.493 31.176 951.813 31.496C952.24 31.9227 952.453 32.328 952.453 32.712C952.453 32.968 952.389 33.2347 952.261 33.512C952.154 33.768 952.005 33.9707 951.813 34.12C951.642 34.2693 951.322 34.4507 950.853 34.664C949.296 35.3467 947.845 35.688 946.501 35.688C945.733 35.688 944.944 35.5707 944.133 35.336C943.045 34.9947 942.053 34.4187 941.157 33.608C940.261 32.776 939.621 31.8587 939.237 30.856C939.002 30.1947 938.885 29.4587 938.885 28.648C938.885 27.4747 939.077 26.4933 939.461 25.704C939.909 24.7227 940.666 23.784 941.733 22.888C942.8 21.992 943.888 21.3947 944.997 21.096ZM968.649 15.272C968.99 14.952 969.31 14.792 969.609 14.792C969.779 14.792 969.929 14.8027 970.057 14.824C970.633 14.888 971.038 15.08 971.273 15.4L971.689 15.88L971.625 24.264C971.603 29.7893 971.507 32.7653 971.337 33.192C971.059 33.832 970.526 34.152 969.737 34.152C969.481 34.152 969.289 34.1307 969.161 34.088C968.841 33.9813 968.627 33.9067 968.521 33.864C968.435 33.8 968.329 33.608 968.201 33.288C968.094 32.9467 968.03 32.4773 968.009 31.88C967.987 31.2827 967.977 30.3653 967.977 29.128C967.977 28.7867 967.977 28.0933 967.977 27.048C967.998 26.0027 968.009 25.128 968.009 24.424L968.041 15.784L968.649 15.272ZM979.935 14.504C979.658 15.6347 979.263 16.872 978.751 18.216C978.239 19.56 977.716 20.8187 977.183 21.992H973.759C974.058 20.7333 974.356 19.3893 974.655 17.96C974.954 16.5307 975.178 15.2613 975.327 14.152H979.711L979.935 14.504ZM983.097 19.528C983.31 19.4213 983.566 19.368 983.865 19.368C984.953 19.368 985.635 20.2853 985.913 22.12C985.977 22.6747 986.051 22.952 986.137 22.952C986.158 22.952 986.457 22.7067 987.033 22.216C988.206 21.1707 989.401 20.648 990.617 20.648C991.278 20.648 991.907 20.8293 992.505 21.192C993.081 21.5547 993.454 21.8747 993.625 22.152L993.913 22.6L994.681 21.896C995.854 20.8507 997.113 20.328 998.457 20.328C999.758 20.328 1000.88 20.8293 1001.82 21.832C1003.42 23.4747 1004.37 26.28 1004.66 30.248C1004.71 30.9733 1004.73 31.4213 1004.73 31.592C1004.73 32.1467 1004.65 32.552 1004.5 32.808C1004.38 33.064 1004.14 33.288 1003.8 33.48C1003.5 33.6293 1003.21 33.704 1002.94 33.704C1002.47 33.704 1002.05 33.4907 1001.69 33.064C1001.41 32.7013 1001.23 32.0827 1001.14 31.208C1000.97 29.2453 1000.76 27.784 1000.5 26.824C1000.25 25.864 999.886 25.1173 999.417 24.584C999.054 24.2 998.681 24.008 998.297 24.008C997.571 24.008 996.931 24.5733 996.377 25.704C996.163 26.152 996.025 26.568 995.961 26.952C995.897 27.336 995.843 28.2107 995.801 29.576C995.715 31.4533 995.609 32.5733 995.481 32.936C995.182 33.64 994.638 33.992 993.849 33.992C993.379 33.992 992.985 33.832 992.665 33.512C992.153 33 991.833 31.4853 991.705 28.968C991.641 28.008 991.523 27.08 991.353 26.184C991.182 25.288 991.022 24.7547 990.873 24.584C990.745 24.4347 990.606 24.36 990.457 24.36C990.201 24.36 989.774 24.6267 989.177 25.16C988.537 25.7573 988.057 26.3973 987.737 27.08C987.438 27.6987 987.257 28.2 987.193 28.584C987.15 28.9467 987.107 30.1947 987.065 32.328C987.043 32.8827 986.873 33.3307 986.553 33.672C986.233 34.0133 985.827 34.184 985.337 34.184C984.846 34.184 984.451 34.088 984.153 33.896C983.726 33.5973 983.427 33.0213 983.257 32.168C983.086 31.2933 982.894 29.2347 982.681 25.992C982.553 24.072 982.403 22.7707 982.233 22.088C982.105 21.576 982.041 21.2347 982.041 21.064C982.041 20.872 982.105 20.648 982.233 20.392C982.425 19.944 982.713 19.656 983.097 19.528ZM1023.14 13.864C1023.41 13.7573 1023.66 13.704 1023.87 13.704C1024.19 13.704 1024.51 13.8 1024.83 13.992C1025.15 14.2053 1025.37 14.44 1025.47 14.696C1025.6 14.952 1025.67 15.4427 1025.67 16.168C1025.67 17 1025.62 18.056 1025.54 19.336C1025.39 21.96 1025.29 25.0533 1025.25 28.616C1025.25 32.0933 1025.17 33.9707 1025.03 34.248C1024.92 34.4613 1024.69 34.6747 1024.35 34.888C1024.03 35.08 1023.76 35.176 1023.52 35.176C1023.27 35.176 1022.98 35.0693 1022.66 34.856C1022.34 34.6427 1022.11 34.408 1021.99 34.152C1021.73 33.64 1021.6 31.9227 1021.6 29C1021.6 26.056 1021.73 22.1733 1021.99 17.352C1022.05 16.0933 1022.16 15.24 1022.31 14.792C1022.45 14.344 1022.73 14.0347 1023.14 13.864ZM1030.83 19.912C1030.92 19.8907 1031.04 19.88 1031.22 19.88C1031.62 19.88 1031.99 19.9867 1032.34 20.2C1032.68 20.392 1032.91 20.6587 1033.04 21C1033.12 21.192 1033.21 22.6533 1033.3 25.384C1033.4 28.0933 1033.46 30.2267 1033.46 31.784C1033.46 32.4453 1033.44 32.8293 1033.42 32.936C1033.32 33.7467 1032.96 34.2907 1032.37 34.568C1032.07 34.696 1031.83 34.76 1031.66 34.76C1031.54 34.76 1031.34 34.728 1031.09 34.664C1030.6 34.5147 1030.29 34.312 1030.16 34.056C1029.9 33.5653 1029.75 31.6667 1029.71 28.36C1029.71 27.7627 1029.7 26.728 1029.68 25.256L1029.65 20.872L1030.03 20.424C1030.29 20.1253 1030.55 19.9547 1030.83 19.912ZM1030.06 13.896C1030.32 13.768 1030.56 13.704 1030.8 13.704C1031.27 13.704 1031.68 13.896 1032.05 14.28C1032.41 14.6427 1032.59 15.0693 1032.59 15.56C1032.59 15.9013 1032.51 16.2 1032.34 16.456C1031.97 17.032 1031.48 17.32 1030.86 17.32C1030.46 17.32 1030.08 17.1813 1029.74 16.904C1029.4 16.6267 1029.19 16.2427 1029.1 15.752C1029.1 15.7307 1029.09 15.6987 1029.07 15.656C1029.07 15.592 1029.07 15.5493 1029.07 15.528C1029.07 15.208 1029.17 14.8987 1029.36 14.6C1029.55 14.28 1029.79 14.0453 1030.06 13.896ZM1036.98 21.352C1036.98 20.904 1037.15 20.52 1037.49 20.2C1037.85 19.8587 1038.26 19.688 1038.71 19.688C1039.22 19.688 1039.65 19.88 1039.99 20.264C1040.33 20.6267 1040.7 21.3093 1041.11 22.312C1041.51 23.3573 1042.13 24.7653 1042.96 26.536C1043.82 28.2853 1044.29 29.16 1044.37 29.16C1044.44 29.16 1044.8 28.552 1045.46 27.336C1045.87 26.568 1046.51 25.4373 1047.38 23.944C1048.28 22.4507 1048.8 21.5653 1048.95 21.288C1049.25 20.7547 1049.51 20.4133 1049.75 20.264C1049.98 20.1147 1050.35 20.04 1050.84 20.04C1051.31 20.04 1051.71 20.2107 1052.05 20.552C1052.41 20.8933 1052.6 21.2987 1052.6 21.768C1052.6 21.8747 1052.57 22.0133 1052.53 22.184C1052.45 22.4613 1052.02 23.24 1051.25 24.52C1048.63 28.808 1047.05 31.8267 1046.52 33.576C1046.17 34.6853 1045.49 35.24 1044.47 35.24C1044.19 35.24 1043.89 35.176 1043.57 35.048C1043.27 34.92 1043 34.6533 1042.74 34.248C1042.51 33.8213 1041.9 32.6053 1040.92 30.6C1038.29 25.224 1036.98 22.1413 1036.98 21.352ZM1057.8 19.912C1057.89 19.8907 1058.01 19.88 1058.18 19.88C1058.59 19.88 1058.96 19.9867 1059.3 20.2C1059.65 20.392 1059.88 20.6587 1060.01 21C1060.09 21.192 1060.18 22.6533 1060.26 25.384C1060.37 28.0933 1060.42 30.2267 1060.42 31.784C1060.42 32.4453 1060.41 32.8293 1060.39 32.936C1060.29 33.7467 1059.93 34.2907 1059.34 34.568C1059.04 34.696 1058.8 34.76 1058.63 34.76C1058.5 34.76 1058.31 34.728 1058.06 34.664C1057.57 34.5147 1057.26 34.312 1057.13 34.056C1056.87 33.5653 1056.72 31.6667 1056.68 28.36C1056.68 27.7627 1056.67 26.728 1056.65 25.256L1056.62 20.872L1057 20.424C1057.26 20.1253 1057.52 19.9547 1057.8 19.912ZM1057.03 13.896C1057.29 13.768 1057.53 13.704 1057.77 13.704C1058.24 13.704 1058.65 13.896 1059.02 14.28C1059.38 14.6427 1059.56 15.0693 1059.56 15.56C1059.56 15.9013 1059.47 16.2 1059.3 16.456C1058.94 17.032 1058.45 17.32 1057.83 17.32C1057.43 17.32 1057.05 17.1813 1056.71 16.904C1056.37 16.6267 1056.16 16.2427 1056.07 15.752C1056.07 15.7307 1056.06 15.6987 1056.04 15.656C1056.04 15.592 1056.04 15.5493 1056.04 15.528C1056.04 15.208 1056.14 14.8987 1056.33 14.6C1056.52 14.28 1056.75 14.0453 1057.03 13.896ZM1064.72 20.072C1064.97 19.944 1065.24 19.88 1065.52 19.88C1065.9 19.88 1066.26 20.008 1066.61 20.264C1066.95 20.4987 1067.18 20.8187 1067.31 21.224L1067.5 21.896L1068.3 21.416C1068.83 21.096 1069.57 20.936 1070.51 20.936C1071.43 20.936 1072.18 21.0853 1072.78 21.384C1073.27 21.6187 1073.79 22.0027 1074.35 22.536C1074.93 23.0693 1075.38 23.6027 1075.73 24.136C1076.88 25.9493 1077.51 28.7653 1077.61 32.584V33.224C1077.61 33.736 1077.46 34.152 1077.17 34.472C1076.8 34.8347 1076.38 35.016 1075.89 35.016C1075.1 35.016 1074.57 34.6747 1074.32 33.992C1074.19 33.6293 1074.08 32.9147 1074 31.848C1073.74 28.1147 1072.91 25.7787 1071.5 24.84C1071.2 24.648 1070.9 24.552 1070.61 24.552C1070.05 24.552 1069.55 24.8613 1069.1 25.48C1068.67 26.0773 1068.33 26.9307 1068.08 28.04C1067.97 28.5307 1067.84 29.416 1067.69 30.696C1067.54 31.976 1067.47 32.84 1067.47 33.288C1067.47 33.5013 1067.29 33.7893 1066.93 34.152C1066.56 34.4933 1066.15 34.664 1065.68 34.664C1064.8 34.664 1064.23 34.2053 1063.95 33.288C1063.82 32.84 1063.76 30.8987 1063.76 27.464C1063.76 23.368 1063.83 21.1387 1063.98 20.776C1064.11 20.4987 1064.35 20.264 1064.72 20.072ZM1090.67 23.08C1090.37 22.8667 1090.12 22.7387 1089.9 22.696C1089.69 22.632 1089.28 22.6 1088.69 22.6C1087.11 22.6427 1086.05 23.048 1085.52 23.816C1085.3 24.1147 1085.11 24.584 1084.94 25.224C1084.77 25.8427 1084.69 26.3653 1084.69 26.792C1084.69 26.8347 1084.69 26.8987 1084.69 26.984C1084.71 27.048 1084.72 27.0907 1084.72 27.112C1084.85 27.752 1085.2 28.3173 1085.77 28.808C1086.37 29.2987 1087.06 29.5973 1087.85 29.704C1087.96 29.7253 1088.12 29.736 1088.33 29.736C1089.14 29.736 1089.94 29.3093 1090.73 28.456C1091.52 27.6027 1091.92 26.7067 1091.92 25.768C1091.92 25.4693 1091.91 25.2453 1091.89 25.096C1091.82 24.5413 1091.73 24.1573 1091.6 23.944C1091.47 23.7307 1091.16 23.4427 1090.67 23.08ZM1086.64 19.144C1087.11 19.0373 1087.79 18.984 1088.69 18.984H1089.2C1089.99 19.0053 1090.51 19.0587 1090.77 19.144C1091.04 19.208 1091.48 19.4107 1092.08 19.752C1092.87 20.2427 1093.52 20.6053 1094.03 20.84C1094.52 21.0747 1094.84 21.32 1094.99 21.576C1095.2 21.896 1095.42 23.3893 1095.63 26.056C1095.86 28.7013 1095.98 31.0373 1095.98 33.064C1095.98 34.728 1095.8 36.1147 1095.44 37.224C1095.1 38.3547 1094.52 39.3787 1093.71 40.296C1092.37 41.832 1090.69 42.6 1088.69 42.6C1087.43 42.6 1085.97 42.312 1084.3 41.736C1083.58 41.5013 1083.1 41.2987 1082.86 41.128C1082.63 40.9573 1082.42 40.6907 1082.25 40.328C1082.17 40.136 1082.13 39.912 1082.13 39.656C1082.13 39.1653 1082.3 38.7493 1082.64 38.408C1082.89 38.1093 1083.27 37.96 1083.76 37.96C1084.21 37.96 1084.86 38.1093 1085.71 38.408C1086.48 38.6853 1087.29 38.8667 1088.14 38.952C1088.21 38.952 1088.28 38.952 1088.37 38.952C1088.47 38.9733 1088.55 38.984 1088.59 38.984C1089.78 38.984 1090.72 38.4507 1091.41 37.384C1091.77 36.872 1092.01 36.392 1092.14 35.944C1092.29 35.4747 1092.4 34.8027 1092.46 33.928C1092.5 33.3307 1092.53 32.968 1092.53 32.84C1092.53 32.4347 1092.43 32.232 1092.24 32.232C1092.07 32.232 1091.77 32.3493 1091.34 32.584C1090.36 33.0747 1089.35 33.32 1088.3 33.32C1086.51 33.32 1084.9 32.7227 1083.47 31.528C1082.04 30.3333 1081.28 28.8613 1081.2 27.112C1081.2 27.048 1081.19 26.952 1081.17 26.824C1081.17 26.696 1081.17 26.6 1081.17 26.536C1081.17 24.68 1081.65 23.1013 1082.61 21.8C1083.59 20.4773 1084.93 19.592 1086.64 19.144ZM1123.18 24.232C1122.56 23.6133 1121.6 23.304 1120.3 23.304C1119.66 23.304 1119.09 23.4107 1118.6 23.624C1118.13 23.8373 1117.62 24.2533 1117.06 24.872C1116.51 25.4907 1116.15 26.056 1115.98 26.568C1115.78 27.1227 1115.69 27.6453 1115.69 28.136C1115.69 29.2667 1116.14 30.0667 1117.03 30.536C1117.57 30.8133 1118.26 30.952 1119.11 30.952C1119.69 30.952 1120.13 30.8773 1120.42 30.728C1122.15 29.8533 1123.21 28.2853 1123.59 26.024L1123.78 24.808L1123.18 24.232ZM1118.31 19.88C1118.82 19.7307 1119.42 19.656 1120.1 19.656C1121.26 19.656 1122.39 19.8587 1123.5 20.264C1124.61 20.6693 1125.37 21.1813 1125.8 21.8C1126.1 22.2267 1126.48 22.6747 1126.95 23.144C1127.46 23.6773 1127.93 24.5947 1128.36 25.896C1128.77 27.1333 1129.14 28.5093 1129.48 30.024C1129.84 31.5387 1130.02 32.5627 1130.02 33.096C1130.02 33.6293 1129.86 34.0453 1129.54 34.344C1129.14 34.728 1128.76 34.92 1128.39 34.92C1128.24 34.92 1128.05 34.888 1127.82 34.824C1127.41 34.6747 1127.09 34.4187 1126.86 34.056C1126.64 33.6933 1126.45 33.1067 1126.28 32.296C1126.07 31.336 1125.95 30.856 1125.93 30.856C1125.84 30.856 1125.4 31.2613 1124.58 32.072C1122.98 33.6293 1121.32 34.472 1119.59 34.6H1119.14C1118.1 34.6 1117.08 34.4187 1116.07 34.056C1115.09 33.6933 1114.31 33.2133 1113.74 32.616C1113.44 32.3173 1113.14 31.8693 1112.84 31.272C1112.54 30.6533 1112.34 30.088 1112.23 29.576C1112.13 29.0427 1112.07 28.5627 1112.07 28.136C1112.07 26.3653 1112.67 24.6693 1113.86 23.048C1115.08 21.4267 1116.56 20.3707 1118.31 19.88ZM1152.84 17.16C1152.42 16.9467 1151.92 16.84 1151.37 16.84C1150.9 16.84 1150.47 16.9147 1150.09 17.064C1149.79 17.1707 1149.59 17.256 1149.48 17.32C1149.4 17.384 1149.29 17.4693 1149.16 17.576C1149.06 17.6613 1148.99 17.8533 1148.97 18.152C1148.95 18.4507 1148.93 18.7493 1148.91 19.048C1148.91 19.3253 1148.91 19.848 1148.91 20.616C1148.91 22.5147 1148.95 23.464 1149.03 23.464C1149.29 23.464 1149.88 23.3147 1150.79 23.016C1151.73 22.696 1152.45 22.408 1152.94 22.152C1154.56 21.3413 1155.37 20.6373 1155.37 20.04C1155.37 19.5707 1155.11 19.0587 1154.6 18.504C1154.11 17.928 1153.52 17.48 1152.84 17.16ZM1149 13.704C1149.6 13.4907 1150.32 13.384 1151.18 13.384H1151.72C1152.47 13.4053 1152.99 13.448 1153.29 13.512C1153.61 13.576 1154.04 13.7467 1154.57 14.024C1155.89 14.6853 1156.96 15.592 1157.77 16.744C1158.58 17.896 1158.99 19.0373 1158.99 20.168C1158.99 20.68 1158.91 21.128 1158.76 21.512C1158.55 22.024 1158.18 22.568 1157.64 23.144C1157.11 23.72 1156.51 24.2213 1155.85 24.648C1155.19 25.0747 1154.86 25.2987 1154.86 25.32C1154.86 25.3627 1155.39 25.9173 1156.46 26.984C1157.46 27.9867 1158.4 29.1387 1159.27 30.44C1160.17 31.72 1160.62 32.5947 1160.62 33.064C1160.62 33.32 1160.52 33.6293 1160.33 33.992C1160.14 34.3333 1159.95 34.5573 1159.75 34.664C1159.54 34.7707 1159.2 34.824 1158.73 34.824C1158.32 34.824 1158 34.7067 1157.77 34.472C1157.54 34.2373 1157.06 33.576 1156.33 32.488C1154.84 30.2053 1153.27 28.6587 1151.63 27.848C1150.67 27.3787 1149.98 27.112 1149.58 27.048L1148.91 26.92V27.944C1148.91 28.4773 1148.86 29.64 1148.78 31.432C1148.74 32.6267 1148.68 33.3627 1148.62 33.64C1148.58 33.896 1148.44 34.1307 1148.2 34.344C1147.88 34.664 1147.46 34.824 1146.92 34.824C1146.58 34.824 1146.34 34.792 1146.19 34.728C1146.04 34.664 1145.88 34.5253 1145.71 34.312L1145.26 33.768L1145.32 24.328C1145.39 18.056 1145.47 14.8133 1145.58 14.6C1145.83 14.1307 1146.32 13.896 1147.05 13.896C1147.2 13.896 1147.31 13.9067 1147.37 13.928C1147.39 13.928 1147.43 13.9387 1147.5 13.96C1147.56 13.96 1147.62 13.96 1147.66 13.96C1148 13.96 1148.45 13.8747 1149 13.704ZM1173 23.944C1172.61 23.6667 1172 23.528 1171.17 23.528C1170.66 23.528 1170.26 23.592 1169.96 23.72C1169.68 23.848 1169.36 24.1147 1169 24.52C1168.66 24.904 1168.48 25.1813 1168.48 25.352C1168.48 25.5013 1168.64 25.576 1168.96 25.576C1169.39 25.5547 1170.28 25.4587 1171.62 25.288C1172.96 25.1173 1173.66 25.0107 1173.7 24.968C1173.72 24.9467 1173.73 24.9147 1173.73 24.872C1173.73 24.6373 1173.49 24.328 1173 23.944ZM1169.54 20.04C1169.92 19.9333 1170.39 19.88 1170.95 19.88C1172.08 19.88 1173.05 20.04 1173.86 20.36C1174.52 20.5947 1175.17 21.0533 1175.81 21.736C1176.47 22.3973 1177.02 23.144 1177.44 23.976C1177.87 24.8293 1178.08 25.4053 1178.08 25.704C1178.08 26.3867 1177.79 27.0267 1177.19 27.624C1176.55 28.2 1174.55 28.6267 1171.2 28.904C1169.92 29.0107 1169.09 29.096 1168.71 29.16C1168.32 29.224 1168.13 29.32 1168.13 29.448C1168.13 29.5547 1168.32 29.7787 1168.71 30.12C1169.37 30.76 1170.55 31.144 1172.26 31.272C1172.43 31.2933 1172.66 31.304 1172.93 31.304C1173.38 31.304 1173.91 31.1973 1174.53 30.984C1175.41 30.664 1176.1 30.504 1176.61 30.504C1177.38 30.504 1177.88 30.888 1178.12 31.656C1178.18 31.848 1178.21 32.0293 1178.21 32.2C1178.21 32.9253 1177.75 33.5227 1176.84 33.992C1175.94 34.44 1174.67 34.696 1173.03 34.76C1172.94 34.76 1172.83 34.7707 1172.68 34.792C1172.53 34.792 1172.42 34.792 1172.36 34.792C1170.54 34.792 1168.98 34.44 1167.65 33.736C1166.35 33.0107 1165.37 31.9867 1164.71 30.664C1164.39 30.024 1164.23 29.1707 1164.23 28.104C1164.23 27.0373 1164.34 26.1947 1164.55 25.576C1165.08 23.976 1165.74 22.7493 1166.53 21.896C1167.32 21.0213 1168.32 20.4027 1169.54 20.04ZM1190.91 24.68C1190.81 24.3387 1190.71 24.1467 1190.63 24.104C1190.54 24.04 1190.31 24.008 1189.92 24.008C1188.81 24.0293 1187.78 24.552 1186.82 25.576C1185.86 26.5787 1185.38 27.592 1185.38 28.616C1185.38 29.128 1185.52 29.5547 1185.79 29.896C1186.41 30.5787 1187.06 30.92 1187.75 30.92C1187.79 30.92 1187.83 30.92 1187.87 30.92C1187.92 30.8987 1187.96 30.888 1188 30.888C1188.39 30.8027 1188.79 30.5467 1189.22 30.12C1189.67 29.6933 1190.01 29.224 1190.24 28.712C1190.73 27.56 1190.98 26.44 1190.98 25.352C1190.98 25.032 1190.96 24.808 1190.91 24.68ZM1187.94 20.648C1188.51 20.456 1189.17 20.36 1189.92 20.36C1190.9 20.36 1191.73 20.52 1192.42 20.84C1192.87 21.0747 1193.27 21.4267 1193.63 21.896C1194.02 22.344 1194.25 22.7707 1194.34 23.176C1194.42 23.5813 1194.54 23.9653 1194.69 24.328C1194.92 24.9467 1195.39 27.272 1196.1 31.304C1196.2 31.944 1196.26 32.424 1196.26 32.744C1196.26 34.024 1195.66 34.664 1194.47 34.664C1194.06 34.664 1193.69 34.504 1193.35 34.184C1193.03 33.864 1192.82 33.4693 1192.74 33C1192.65 32.5733 1192.58 32.328 1192.51 32.264C1192.43 32.2 1192.18 32.3707 1191.78 32.776C1190.56 33.992 1189.16 34.6 1187.59 34.6C1187.31 34.6 1187.02 34.568 1186.72 34.504C1185.55 34.248 1184.45 33.608 1183.43 32.584C1182.27 31.432 1181.7 30.1413 1181.7 28.712C1181.7 27.5813 1182.05 26.3547 1182.75 25.032C1183.29 24.0293 1184.01 23.1333 1184.93 22.344C1185.87 21.5547 1186.87 20.9893 1187.94 20.648ZM1200.34 12.424C1200.68 12.0827 1201.08 11.912 1201.55 11.912C1202 11.912 1202.39 12.0827 1202.74 12.424C1203.08 12.7653 1203.29 13.32 1203.38 14.088C1203.4 14.3013 1203.41 15.5813 1203.41 17.928C1203.41 28.8933 1203.33 34.6 1203.18 35.048C1203.1 35.304 1202.91 35.5067 1202.61 35.656C1202.31 35.8053 1201.98 35.88 1201.62 35.88C1201.19 35.88 1200.85 35.7947 1200.59 35.624C1200.21 35.368 1199.96 34.9947 1199.86 34.504C1199.77 33.992 1199.73 32.6267 1199.73 30.408C1199.73 27.8267 1199.74 25.5333 1199.76 23.528L1199.86 12.904L1200.34 12.424ZM1218.3 15.016C1218.67 14.7173 1219.06 14.568 1219.49 14.568C1220.21 14.568 1220.74 14.8987 1221.06 15.56C1221.18 15.8373 1221.28 18.536 1221.34 23.656L1221.47 31.432H1222.82C1223.88 31.432 1225.32 31.3787 1227.14 31.272C1228.2 31.2293 1228.86 31.208 1229.12 31.208C1229.97 31.208 1230.55 31.2827 1230.85 31.432C1231.15 31.5813 1231.39 31.8907 1231.58 32.36C1231.69 32.68 1231.74 32.904 1231.74 33.032C1231.74 33.1813 1231.68 33.384 1231.55 33.64C1231.4 33.9387 1231.26 34.152 1231.14 34.28C1231.03 34.408 1230.73 34.5253 1230.24 34.632C1229.75 34.7387 1229.16 34.8133 1228.48 34.856C1227.8 34.8773 1226.7 34.9093 1225.18 34.952C1224.12 34.9947 1222.82 35.016 1221.28 35.016C1220.21 35.016 1219.62 34.9947 1219.49 34.952C1219.1 34.8453 1218.73 34.6107 1218.37 34.248L1217.86 33.704L1217.73 25.32C1217.66 22.3333 1217.63 19.8587 1217.63 17.896C1217.63 16.8933 1217.64 16.3387 1217.66 16.232C1217.77 15.6987 1217.98 15.2933 1218.3 15.016ZM1237.05 19.912C1237.14 19.8907 1237.26 19.88 1237.43 19.88C1237.84 19.88 1238.21 19.9867 1238.55 20.2C1238.9 20.392 1239.13 20.6587 1239.26 21C1239.34 21.192 1239.43 22.6533 1239.51 25.384C1239.62 28.0933 1239.67 30.2267 1239.67 31.784C1239.67 32.4453 1239.66 32.8293 1239.64 32.936C1239.54 33.7467 1239.18 34.2907 1238.59 34.568C1238.29 34.696 1238.05 34.76 1237.88 34.76C1237.75 34.76 1237.56 34.728 1237.31 34.664C1236.82 34.5147 1236.51 34.312 1236.38 34.056C1236.12 33.5653 1235.97 31.6667 1235.93 28.36C1235.93 27.7627 1235.92 26.728 1235.9 25.256L1235.87 20.872L1236.25 20.424C1236.51 20.1253 1236.77 19.9547 1237.05 19.912ZM1236.28 13.896C1236.54 13.768 1236.78 13.704 1237.02 13.704C1237.49 13.704 1237.9 13.896 1238.27 14.28C1238.63 14.6427 1238.81 15.0693 1238.81 15.56C1238.81 15.9013 1238.72 16.2 1238.55 16.456C1238.19 17.032 1237.7 17.32 1237.08 17.32C1236.68 17.32 1236.3 17.1813 1235.96 16.904C1235.62 16.6267 1235.41 16.2427 1235.32 15.752C1235.32 15.7307 1235.31 15.6987 1235.29 15.656C1235.29 15.592 1235.29 15.5493 1235.29 15.528C1235.29 15.208 1235.39 14.8987 1235.58 14.6C1235.77 14.28 1236 14.0453 1236.28 13.896ZM1250.62 12.264C1250.84 12.2 1251.1 12.168 1251.42 12.168C1252.45 12.168 1253.26 12.3387 1253.86 12.68C1254.67 13.1707 1255.07 13.832 1255.07 14.664C1255.07 15.304 1254.78 15.7733 1254.21 16.072C1253.93 16.2213 1253.63 16.296 1253.31 16.296C1252.99 16.296 1252.62 16.2 1252.19 16.008C1251.85 15.8587 1251.67 15.784 1251.65 15.784C1251.56 15.784 1251.42 15.88 1251.23 16.072C1251 16.3067 1250.79 16.7867 1250.62 17.512C1250.45 18.2373 1250.37 19.0373 1250.37 19.912V20.584C1250.37 20.8827 1250.4 21.0853 1250.46 21.192C1250.53 21.2987 1250.68 21.352 1250.91 21.352C1251.12 21.352 1251.64 21.2987 1252.45 21.192C1252.64 21.1707 1252.9 21.16 1253.22 21.16C1254.69 21.16 1255.42 21.7573 1255.42 22.952C1255.4 23.5707 1255.18 24.0187 1254.75 24.296C1254.35 24.552 1253.62 24.7227 1252.58 24.808C1251.57 24.8933 1251.02 24.968 1250.91 25.032C1250.89 25.032 1250.88 25.128 1250.88 25.32C1250.88 25.8747 1250.99 26.9733 1251.2 28.616C1251.41 30.2587 1251.62 31.5493 1251.81 32.488C1251.89 33 1251.94 33.352 1251.94 33.544C1251.94 34.2693 1251.76 34.8453 1251.42 35.272C1251.08 35.6987 1250.61 35.912 1250.02 35.912C1249.52 35.912 1249.11 35.752 1248.77 35.432C1248.53 35.176 1248.37 34.8987 1248.29 34.6C1248.22 34.28 1248.13 33.448 1248 32.104C1247.79 30.0773 1247.59 28.4773 1247.42 27.304L1247.14 25.288L1245.57 25.224C1244.84 25.1813 1244.38 25.128 1244.19 25.064C1244 25 1243.81 24.8613 1243.62 24.648C1243.34 24.3067 1243.2 23.8907 1243.2 23.4C1243.2 23.1013 1243.26 22.824 1243.39 22.568C1243.69 22.056 1244.44 21.736 1245.63 21.608L1246.66 21.512L1246.75 19.56C1246.88 17.3413 1247.25 15.656 1247.87 14.504C1248.49 13.3307 1249.41 12.584 1250.62 12.264ZM1268.87 24.808C1268.48 24.616 1267.94 24.52 1267.23 24.52C1266.47 24.52 1265.82 24.6373 1265.28 24.872C1264.92 25.0213 1264.45 25.352 1263.87 25.864C1263.3 26.3547 1263.01 26.6747 1263.01 26.824C1263.01 26.888 1263.34 26.92 1264 26.92C1264.98 26.92 1266.16 26.8667 1267.52 26.76C1268.89 26.6533 1269.67 26.536 1269.86 26.408C1269.92 26.3867 1269.95 26.3227 1269.95 26.216C1269.95 26.024 1269.84 25.7787 1269.6 25.48C1269.37 25.16 1269.12 24.936 1268.87 24.808ZM1265.09 21.096C1265.62 20.9467 1266.25 20.872 1266.98 20.872C1268.32 20.872 1269.55 21.1387 1270.66 21.672C1271.49 22.0987 1272.18 22.7493 1272.74 23.624C1273.29 24.4773 1273.63 25.4373 1273.76 26.504C1273.76 26.5467 1273.76 26.6107 1273.76 26.696C1273.78 26.7813 1273.79 26.8453 1273.79 26.888C1273.79 27.4427 1273.69 27.9867 1273.47 28.52C1273.28 29.0533 1273.05 29.416 1272.77 29.608C1272.41 29.864 1269.86 30.184 1265.12 30.568C1264.12 30.6533 1263.62 30.7493 1263.62 30.856C1263.62 30.984 1263.84 31.1867 1264.29 31.464C1264.74 31.7413 1265.18 31.9333 1265.6 32.04C1265.99 32.1253 1266.3 32.168 1266.53 32.168C1267.21 32.168 1268.1 31.944 1269.19 31.496C1269.95 31.176 1270.52 31.016 1270.88 31.016C1271.25 31.016 1271.59 31.176 1271.91 31.496C1272.33 31.9227 1272.55 32.328 1272.55 32.712C1272.55 32.968 1272.48 33.2347 1272.35 33.512C1272.25 33.768 1272.1 33.9707 1271.91 34.12C1271.74 34.2693 1271.42 34.4507 1270.95 34.664C1269.39 35.3467 1267.94 35.688 1266.59 35.688C1265.83 35.688 1265.04 35.5707 1264.23 35.336C1263.14 34.9947 1262.15 34.4187 1261.25 33.608C1260.35 32.776 1259.71 31.8587 1259.33 30.856C1259.1 30.1947 1258.98 29.4587 1258.98 28.648C1258.98 27.4747 1259.17 26.4933 1259.55 25.704C1260 24.7227 1260.76 23.784 1261.83 22.888C1262.89 21.992 1263.98 21.3947 1265.09 21.096ZM1298.77 32.424C1298.94 32.0613 1299.13 31.816 1299.34 31.688C1299.56 31.56 1299.93 31.496 1300.46 31.496C1300.82 31.496 1301.07 31.528 1301.2 31.592C1301.35 31.656 1301.52 31.8053 1301.71 32.04C1302.03 32.424 1302.19 32.8293 1302.19 33.256C1302.19 33.7253 1301.99 34.1627 1301.58 34.568C1301.18 34.9733 1300.76 35.176 1300.33 35.176C1299.91 35.176 1299.49 34.9947 1299.09 34.632C1298.7 34.248 1298.51 33.8533 1298.51 33.448C1298.51 33.128 1298.6 32.7867 1298.77 32.424Z" fill="#27263C"/>
<path d="M1287.63 1.4C1288.68 1.336 1289.31 1.304 1289.52 1.304H1289.63C1289.9 1.31467 1290.11 1.40533 1290.27 1.576C1290.44 1.74667 1290.53 1.944 1290.53 2.168C1290.53 2.41333 1290.44 2.62133 1290.26 2.792C1290.13 2.92 1289.99 3 1289.84 3.032C1289.7 3.05333 1289.23 3.09067 1288.43 3.144C1287.37 3.208 1286.82 3.26133 1286.78 3.304C1286.76 3.32533 1286.75 4.06667 1286.75 5.528V7.08C1286.75 7.336 1286.75 7.66133 1286.75 8.056C1286.76 8.44 1286.77 8.70133 1286.77 8.84C1286.77 9.928 1286.74 10.6213 1286.69 10.92C1286.65 11.208 1286.53 11.4213 1286.35 11.56C1286.21 11.6667 1286.05 11.72 1285.87 11.72C1285.66 11.72 1285.47 11.656 1285.3 11.528C1285.13 11.4 1285.02 11.2293 1284.98 11.016C1284.95 10.8987 1284.93 9.58133 1284.91 7.064L1284.88 3.4H1281.42L1281.17 3.112C1281 2.90933 1280.91 2.71733 1280.91 2.536C1280.91 2.344 1281 2.14667 1281.17 1.944L1281.42 1.656L1283.73 1.576C1285.21 1.53333 1286.51 1.47467 1287.63 1.4ZM1293.47 1.064C1293.59 0.957333 1293.74 0.903999 1293.93 0.903999C1294.17 0.903999 1294.38 0.983999 1294.56 1.144C1294.66 1.25067 1294.86 1.53867 1295.13 2.008C1295.41 2.47733 1295.7 2.97333 1296 3.496C1296.3 4.01867 1296.47 4.32267 1296.52 4.408C1296.75 4.73867 1296.99 5.08533 1297.26 5.448C1297.54 5.8 1297.69 5.976 1297.72 5.976C1297.75 5.976 1297.92 5.69867 1298.24 5.144C1298.51 4.632 1298.89 4.024 1299.36 3.32C1299.83 2.616 1300.17 2.152 1300.38 1.928C1300.59 1.71467 1300.82 1.608 1301.07 1.608C1301.22 1.608 1301.35 1.62933 1301.45 1.672C1301.57 1.704 1301.68 1.77867 1301.77 1.896C1301.88 2.00267 1301.96 2.14133 1302.03 2.312C1302.1 2.472 1302.17 2.70667 1302.24 3.016C1302.31 3.32533 1302.37 3.66667 1302.41 4.04C1302.46 4.40267 1302.5 4.87733 1302.54 5.464C1302.59 6.04 1302.64 6.65333 1302.67 7.304C1302.71 7.95467 1302.75 8.744 1302.8 9.672L1302.91 11.832L1302.64 12.104C1302.44 12.296 1302.23 12.392 1302 12.392C1301.76 12.392 1301.55 12.3013 1301.37 12.12L1301.12 11.864L1300.99 9.56C1300.83 6.56267 1300.72 4.97867 1300.67 4.808C1300.65 4.75467 1300.63 4.72267 1300.6 4.712C1300.57 4.712 1300.48 4.84533 1300.32 5.112C1300.1 5.44267 1299.8 5.98133 1299.42 6.728C1299.07 7.41067 1298.79 7.864 1298.59 8.088C1298.39 8.312 1298.15 8.424 1297.87 8.424C1297.7 8.424 1297.56 8.39733 1297.47 8.344C1297.38 8.28 1297.21 8.12 1296.96 7.864C1296.68 7.576 1296.33 7.16 1295.9 6.616C1295.48 6.06133 1295.16 5.592 1294.92 5.208C1294.75 4.94133 1294.64 4.808 1294.59 4.808H1294.57C1294.54 4.82933 1294.5 5.05333 1294.46 5.48C1294.43 5.896 1294.39 6.408 1294.35 7.016C1294.31 7.61333 1294.27 8.20533 1294.24 8.792C1294.2 9.37867 1294.17 9.896 1294.14 10.344C1294.12 10.792 1294.11 11.0267 1294.11 11.048C1294.07 11.624 1293.86 11.9707 1293.48 12.088C1293.41 12.12 1293.32 12.136 1293.23 12.136C1292.9 12.136 1292.63 11.992 1292.43 11.704C1292.36 11.608 1292.33 11.432 1292.33 11.176C1292.33 10.792 1292.43 9.20267 1292.62 6.408C1292.78 4.136 1292.9 2.72267 1292.99 2.168C1293.07 1.61333 1293.23 1.24533 1293.47 1.064Z" fill="#27263C"/>
</svg>
