<svg width="492" height="32" viewBox="0 0 492 32" fill="none" xmlns="http://www.w3.org/2000/svg">
<path d="M3 2.128C3.23467 1.91467 3.544 1.808 3.928 1.808C4.39733 1.808 4.81333 1.968 5.176 2.288C5.38933 2.50133 5.77333 3.07733 6.328 4.016C6.88267 4.95467 7.45867 5.94667 8.056 6.992C8.65333 8.03733 9.00533 8.64533 9.112 8.816C9.56 9.47733 10.0507 10.1707 10.584 10.896C11.1387 11.6 11.448 11.952 11.512 11.952C11.5547 11.952 11.896 11.3973 12.536 10.288C13.0907 9.264 13.8373 8.048 14.776 6.64C15.7147 5.232 16.3973 4.304 16.824 3.856C17.2507 3.42933 17.7093 3.216 18.2 3.216C18.4987 3.216 18.7547 3.25867 18.968 3.344C19.2027 3.408 19.416 3.55733 19.608 3.792C19.8213 4.00533 19.992 4.28267 20.12 4.624C20.2693 4.944 20.408 5.41333 20.536 6.032C20.6853 6.65067 20.8027 7.33333 20.888 8.08C20.9733 8.80533 21.0587 9.75467 21.144 10.928C21.2507 12.08 21.336 13.3067 21.4 14.608C21.4853 15.9093 21.5707 17.488 21.656 19.344L21.88 23.664L21.336 24.208C20.952 24.592 20.5253 24.784 20.056 24.784C19.5867 24.784 19.1707 24.6027 18.808 24.24L18.296 23.728L18.04 19.12C17.72 13.1253 17.5067 9.95733 17.4 9.616C17.3573 9.50933 17.3147 9.44533 17.272 9.424C17.208 9.424 17.016 9.69067 16.696 10.224C16.2693 10.8853 15.672 11.9627 14.904 13.456C14.2 14.8213 13.6453 15.728 13.24 16.176C12.8347 16.624 12.3547 16.848 11.8 16.848C11.4587 16.848 11.192 16.7947 11 16.688C10.8293 16.56 10.488 16.24 9.976 15.728C9.42133 15.152 8.71733 14.32 7.864 13.232C7.032 12.1227 6.38133 11.184 5.912 10.416C5.57067 9.88267 5.34667 9.616 5.24 9.616H5.208C5.144 9.65867 5.06933 10.1067 4.984 10.96C4.92 11.792 4.84533 12.816 4.76 14.032C4.67467 15.2267 4.6 16.4107 4.536 17.584C4.472 18.7573 4.408 19.792 4.344 20.688C4.30133 21.584 4.28 22.0533 4.28 22.096C4.19467 23.248 3.77867 23.9413 3.032 24.176C2.88267 24.24 2.712 24.272 2.52 24.272C1.85867 24.272 1.32533 23.984 0.92 23.408C0.792 23.216 0.728 22.864 0.728 22.352C0.728 21.584 0.92 18.4053 1.304 12.816C1.624 8.272 1.86933 5.44533 2.04 4.336C2.21067 3.22667 2.53067 2.49067 3 2.128ZM34.5698 13.68C34.4631 13.3387 34.3671 13.1467 34.2818 13.104C34.1964 13.04 33.9618 13.008 33.5778 13.008C32.4684 13.0293 31.4338 13.552 30.4738 14.576C29.5138 15.5787 29.0338 16.592 29.0338 17.616C29.0338 18.128 29.1724 18.5547 29.4498 18.896C30.0684 19.5787 30.7191 19.92 31.4018 19.92C31.4444 19.92 31.4871 19.92 31.5298 19.92C31.5724 19.8987 31.6151 19.888 31.6578 19.888C32.0418 19.8027 32.4471 19.5467 32.8738 19.12C33.3218 18.6933 33.6631 18.224 33.8978 17.712C34.3884 16.56 34.6338 15.44 34.6338 14.352C34.6338 14.032 34.6124 13.808 34.5698 13.68ZM31.5938 9.648C32.1698 9.456 32.8311 9.36 33.5778 9.36C34.5591 9.36 35.3911 9.52 36.0738 9.84C36.5218 10.0747 36.9271 10.4267 37.2898 10.896C37.6738 11.344 37.9084 11.7707 37.9938 12.176C38.0791 12.5813 38.1964 12.9653 38.3458 13.328C38.5804 13.9467 39.0498 16.272 39.7537 20.304C39.8604 20.944 39.9138 21.424 39.9138 21.744C39.9138 23.024 39.3164 23.664 38.1218 23.664C37.7164 23.664 37.3431 23.504 37.0018 23.184C36.6818 22.864 36.4791 22.4693 36.3938 22C36.3084 21.5733 36.2338 21.328 36.1698 21.264C36.0844 21.2 35.8391 21.3707 35.4338 21.776C34.2178 22.992 32.8204 23.6 31.2418 23.6C30.9644 23.6 30.6764 23.568 30.3778 23.504C29.2044 23.248 28.1058 22.608 27.0818 21.584C25.9298 20.432 25.3538 19.1413 25.3538 17.712C25.3538 16.5813 25.7058 15.3547 26.4098 14.032C26.9431 13.0293 27.6684 12.1333 28.5858 11.344C29.5244 10.5547 30.5271 9.98933 31.5938 9.648ZM55.4155 8.272C55.6288 8.208 55.7888 8.176 55.8955 8.176C55.9808 8.176 56.2262 8.26133 56.6315 8.432C57.0582 8.60267 57.3568 8.89067 57.5275 9.296C57.6128 9.46667 57.6555 9.65867 57.6555 9.872C57.6555 10.192 57.3995 11.1627 56.8875 12.784C55.9488 15.792 54.7648 18.8107 53.3355 21.84C52.6742 23.2907 51.6608 25.168 50.2955 27.472C48.9302 29.7973 48.0982 31.0453 47.7995 31.216C47.4582 31.4293 47.1062 31.536 46.7435 31.536C46.2528 31.536 45.8262 31.3653 45.4635 31.024C45.1222 30.704 44.9515 30.2773 44.9515 29.744C44.9515 29.36 45.2928 28.6347 45.9755 27.568C46.5088 26.736 47.2022 25.5627 48.0555 24.048C48.9088 22.512 49.3355 21.6907 49.3355 21.584C49.3355 21.52 49.1008 21.0933 48.6315 20.304C48.4182 19.9627 47.6608 18.576 46.3595 16.144C45.0795 13.6907 44.3008 12.272 44.0235 11.888C43.6822 11.3973 43.5115 10.9067 43.5115 10.416C43.5115 9.712 43.8528 9.21067 44.5355 8.912C44.7915 8.80533 45.0155 8.752 45.2075 8.752C45.6555 8.752 46.0928 9.008 46.5195 9.52C46.9462 10.0107 47.4902 10.864 48.1515 12.08C49.5808 14.7253 50.5515 16.4533 51.0635 17.264C51.1702 17.4133 51.2342 17.488 51.2555 17.488C51.3408 17.488 51.5542 17.0293 51.8955 16.112C52.3862 14.768 52.8768 13.3387 53.3675 11.824C53.7942 10.4587 54.1355 9.552 54.3915 9.104C54.6688 8.656 55.0102 8.37867 55.4155 8.272ZM72.0455 15.152C71.6402 14.64 71.0642 14.2133 70.3175 13.872C69.5708 13.5307 68.7068 13.36 67.7255 13.36C67.1282 13.36 66.6695 13.4347 66.3495 13.584C66.0082 13.7333 65.6775 14.0747 65.3575 14.608C65.0588 15.12 64.9095 15.7493 64.9095 16.496V17.04C64.9735 18.5547 65.0162 19.4507 65.0375 19.728L65.1655 20.752L65.9335 20.88C66.2322 20.9227 66.4775 20.944 66.6695 20.944C67.9282 20.944 69.0695 20.6987 70.0935 20.208C70.6055 19.9733 71.0962 19.5893 71.5655 19.056C72.0562 18.5013 72.3868 17.9573 72.5575 17.424C72.6428 17.1253 72.6855 16.8907 72.6855 16.72C72.6855 16.1653 72.4722 15.6427 72.0455 15.152ZM61.9655 2.416C62.1788 2.30933 62.4348 2.256 62.7335 2.256C63.2455 2.256 63.6935 2.448 64.0775 2.832C64.3122 3.06667 64.4508 3.35467 64.4935 3.696C64.5575 4.016 64.6428 5.02933 64.7495 6.736C64.8562 8.976 64.9308 10.1173 64.9735 10.16H65.0055C65.1122 10.16 65.4855 10.0853 66.1255 9.936C66.8722 9.76533 67.5228 9.68 68.0775 9.68C69.1442 9.68 70.4455 10.032 71.9815 10.736C73.7308 11.5467 74.9575 12.6773 75.6615 14.128C75.8748 14.576 76.0028 14.9493 76.0455 15.248C76.1095 15.5467 76.1415 16.048 76.1415 16.752C76.1415 17.456 76.1095 17.9573 76.0455 18.256C75.9815 18.5333 75.8108 18.96 75.5335 19.536C74.9148 20.7307 74.0615 21.744 72.9735 22.576C71.8855 23.408 70.6802 23.9627 69.3575 24.24C68.5895 24.4107 67.7895 24.496 66.9575 24.496C66.1682 24.496 65.2402 24.4213 64.1735 24.272C63.3628 24.144 62.8295 24.0373 62.5735 23.952C62.3175 23.8667 62.0828 23.7067 61.8695 23.472L61.3895 22.96V17.968C61.3895 14.96 61.3255 11.7067 61.1975 8.208C61.1335 6.56533 61.1015 5.38133 61.1015 4.656C61.1015 3.80267 61.1548 3.25867 61.2615 3.024C61.3682 2.78933 61.6028 2.58667 61.9655 2.416ZM89.5543 13.808C89.1703 13.616 88.6263 13.52 87.9223 13.52C87.1543 13.52 86.5036 13.6373 85.9703 13.872C85.6076 14.0213 85.1383 14.352 84.5623 14.864C83.9863 15.3547 83.6983 15.6747 83.6983 15.824C83.6983 15.888 84.0289 15.92 84.6903 15.92C85.6716 15.92 86.8449 15.8667 88.2103 15.76C89.5756 15.6533 90.3543 15.536 90.5463 15.408C90.6103 15.3867 90.6423 15.3227 90.6423 15.216C90.6423 15.024 90.5249 14.7787 90.2903 14.48C90.0556 14.16 89.8103 13.936 89.5543 13.808ZM85.7783 10.096C86.3116 9.94667 86.9409 9.872 87.6663 9.872C89.0103 9.872 90.2369 10.1387 91.3463 10.672C92.1783 11.0987 92.8716 11.7493 93.4263 12.624C93.9809 13.4773 94.3223 14.4373 94.4503 15.504C94.4503 15.5467 94.4503 15.6107 94.4503 15.696C94.4716 15.7813 94.4823 15.8453 94.4823 15.888C94.4823 16.4427 94.3756 16.9867 94.1623 17.52C93.9703 18.0533 93.7356 18.416 93.4583 18.608C93.0956 18.864 90.5463 19.184 85.8103 19.568C84.8076 19.6533 84.3063 19.7493 84.3063 19.856C84.3063 19.984 84.5303 20.1867 84.9783 20.464C85.4263 20.7413 85.8636 20.9333 86.2903 21.04C86.6743 21.1253 86.9836 21.168 87.2183 21.168C87.9009 21.168 88.7863 20.944 89.8743 20.496C90.6423 20.176 91.2076 20.016 91.5703 20.016C91.9329 20.016 92.2743 20.176 92.5943 20.496C93.0209 20.9227 93.2343 21.328 93.2343 21.712C93.2343 21.968 93.1703 22.2347 93.0423 22.512C92.9356 22.768 92.7863 22.9707 92.5943 23.12C92.4236 23.2693 92.1036 23.4507 91.6343 23.664C90.0769 24.3467 88.6263 24.688 87.2823 24.688C86.5143 24.688 85.7249 24.5707 84.9143 24.336C83.8263 23.9947 82.8343 23.4187 81.9383 22.608C81.0423 21.776 80.4023 20.8587 80.0182 19.856C79.7836 19.1947 79.6663 18.4587 79.6663 17.648C79.6663 16.4747 79.8583 15.4933 80.2423 14.704C80.6903 13.7227 81.4476 12.784 82.5143 11.888C83.5809 10.992 84.6689 10.3947 85.7783 10.096ZM112.688 1.52C113.051 1.15733 113.488 0.975998 114 0.975998C114.384 0.975998 114.725 1.09333 115.024 1.328C115.344 1.54133 115.568 1.85067 115.696 2.256C115.76 2.49067 115.867 3.6 116.016 5.584C116.165 7.54667 116.24 8.912 116.24 9.68C116.24 9.872 116.283 9.98933 116.368 10.032C116.475 10.0747 116.72 10.096 117.104 10.096C117.68 10.096 118.011 10.032 118.096 9.904C118.139 9.79733 118.576 9.744 119.408 9.744C120.475 9.744 121.179 9.81867 121.52 9.968C121.84 10.1173 122.085 10.4053 122.256 10.832C122.405 11.1307 122.48 11.376 122.48 11.568C122.48 11.7173 122.448 11.8987 122.384 12.112C122.235 12.6027 121.957 12.9333 121.552 13.104C121.168 13.2533 120.4 13.36 119.248 13.424C117.947 13.488 117.104 13.5733 116.72 13.68L116.208 13.808L116.336 18.32C116.379 20.3253 116.4 21.4027 116.4 21.552C116.4 22.4907 116.325 23.12 116.176 23.44C115.856 24.1227 115.333 24.464 114.608 24.464C114.331 24.464 114.043 24.4 113.744 24.272C113.509 24.1653 113.339 24.0693 113.232 23.984C113.125 23.8773 113.029 23.6107 112.944 23.184C112.859 22.736 112.805 22.2133 112.784 21.616C112.763 21.0187 112.741 20.0373 112.72 18.672L112.656 14.032L111.696 14.064C111.12 14.1067 110.608 14.192 110.16 14.32C110.053 14.3627 109.883 14.384 109.648 14.384C108.923 14.384 108.4 14.16 108.08 13.712C107.909 13.4347 107.824 13.0613 107.824 12.592C107.824 12.1867 107.888 11.8667 108.016 11.632C108.315 11.0987 109.36 10.6933 111.152 10.416L112.624 10.192L112.496 7.376C112.411 5.37067 112.336 4.00533 112.272 3.28C112.229 2.768 112.208 2.49067 112.208 2.448C112.208 2.14933 112.368 1.84 112.688 1.52ZM126.777 1.552C127.139 1.25333 127.513 1.104 127.897 1.104C128.665 1.104 129.23 1.57333 129.593 2.512C129.742 2.93867 129.902 3.96267 130.073 5.584C130.243 7.184 130.382 8.67733 130.489 10.064C130.595 11.4293 130.659 12.112 130.681 12.112C130.723 12.112 131.075 11.8773 131.737 11.408C133.038 10.4907 134.275 10.032 135.449 10.032C136.537 10.032 137.486 10.4373 138.297 11.248C139.129 12.0373 139.779 13.2 140.249 14.736C140.611 15.9307 140.793 17.7867 140.793 20.304C140.793 21.8827 140.697 22.9493 140.505 23.504C140.291 24.08 139.801 24.368 139.033 24.368C138.521 24.368 138.094 24.1973 137.753 23.856L137.273 23.376L137.177 20.144C137.049 15.984 136.473 13.84 135.449 13.712H135.353C134.862 13.712 134.254 13.9893 133.529 14.544C132.803 15.0773 132.281 15.664 131.961 16.304C131.769 16.7307 131.513 17.04 131.193 17.232L130.777 17.52L130.713 21.008C130.67 22.7147 130.627 23.7493 130.585 24.112C130.563 24.4533 130.446 24.7307 130.233 24.944C129.891 25.3067 129.465 25.488 128.953 25.488C128.185 25.488 127.651 25.1467 127.353 24.464C127.203 24.0587 127.097 21.6053 127.033 17.104C126.926 9.57333 126.649 5.06133 126.201 3.568C126.137 3.33333 126.105 3.10933 126.105 2.896C126.105 2.34133 126.329 1.89333 126.777 1.552ZM154.179 13.808C153.795 13.616 153.251 13.52 152.547 13.52C151.779 13.52 151.129 13.6373 150.595 13.872C150.233 14.0213 149.763 14.352 149.187 14.864C148.611 15.3547 148.323 15.6747 148.323 15.824C148.323 15.888 148.654 15.92 149.315 15.92C150.297 15.92 151.47 15.8667 152.835 15.76C154.201 15.6533 154.979 15.536 155.171 15.408C155.235 15.3867 155.267 15.3227 155.267 15.216C155.267 15.024 155.15 14.7787 154.915 14.48C154.681 14.16 154.435 13.936 154.179 13.808ZM150.403 10.096C150.937 9.94667 151.566 9.872 152.291 9.872C153.635 9.872 154.862 10.1387 155.971 10.672C156.803 11.0987 157.497 11.7493 158.051 12.624C158.606 13.4773 158.947 14.4373 159.075 15.504C159.075 15.5467 159.075 15.6107 159.075 15.696C159.097 15.7813 159.107 15.8453 159.107 15.888C159.107 16.4427 159.001 16.9867 158.787 17.52C158.595 18.0533 158.361 18.416 158.083 18.608C157.721 18.864 155.171 19.184 150.435 19.568C149.433 19.6533 148.931 19.7493 148.931 19.856C148.931 19.984 149.155 20.1867 149.603 20.464C150.051 20.7413 150.489 20.9333 150.915 21.04C151.299 21.1253 151.609 21.168 151.843 21.168C152.526 21.168 153.411 20.944 154.499 20.496C155.267 20.176 155.833 20.016 156.195 20.016C156.558 20.016 156.899 20.176 157.219 20.496C157.646 20.9227 157.859 21.328 157.859 21.712C157.859 21.968 157.795 22.2347 157.667 22.512C157.561 22.768 157.411 22.9707 157.219 23.12C157.049 23.2693 156.729 23.4507 156.259 23.664C154.702 24.3467 153.251 24.688 151.907 24.688C151.139 24.688 150.35 24.5707 149.539 24.336C148.451 23.9947 147.459 23.4187 146.563 22.608C145.667 21.776 145.027 20.8587 144.643 19.856C144.409 19.1947 144.291 18.4587 144.291 17.648C144.291 16.4747 144.483 15.4933 144.867 14.704C145.315 13.7227 146.073 12.784 147.139 11.888C148.206 10.992 149.294 10.3947 150.403 10.096ZM186.046 15.152C185.64 14.64 185.064 14.2133 184.318 13.872C183.571 13.5307 182.707 13.36 181.726 13.36C181.128 13.36 180.67 13.4347 180.35 13.584C180.008 13.7333 179.678 14.0747 179.358 14.608C179.059 15.12 178.91 15.7493 178.91 16.496V17.04C178.974 18.5547 179.016 19.4507 179.038 19.728L179.166 20.752L179.934 20.88C180.232 20.9227 180.478 20.944 180.67 20.944C181.928 20.944 183.07 20.6987 184.094 20.208C184.606 19.9733 185.096 19.5893 185.566 19.056C186.056 18.5013 186.387 17.9573 186.558 17.424C186.643 17.1253 186.686 16.8907 186.686 16.72C186.686 16.1653 186.472 15.6427 186.046 15.152ZM175.966 2.416C176.179 2.30933 176.435 2.256 176.734 2.256C177.246 2.256 177.694 2.448 178.078 2.832C178.312 3.06667 178.451 3.35467 178.494 3.696C178.558 4.016 178.643 5.02933 178.75 6.736C178.856 8.976 178.931 10.1173 178.974 10.16H179.006C179.112 10.16 179.486 10.0853 180.126 9.936C180.872 9.76533 181.523 9.68 182.078 9.68C183.144 9.68 184.446 10.032 185.982 10.736C187.731 11.5467 188.958 12.6773 189.662 14.128C189.875 14.576 190.003 14.9493 190.046 15.248C190.11 15.5467 190.142 16.048 190.142 16.752C190.142 17.456 190.11 17.9573 190.046 18.256C189.982 18.5333 189.811 18.96 189.534 19.536C188.915 20.7307 188.062 21.744 186.974 22.576C185.886 23.408 184.68 23.9627 183.358 24.24C182.59 24.4107 181.79 24.496 180.958 24.496C180.168 24.496 179.24 24.4213 178.174 24.272C177.363 24.144 176.83 24.0373 176.574 23.952C176.318 23.8667 176.083 23.7067 175.87 23.472L175.39 22.96V17.968C175.39 14.96 175.326 11.7067 175.198 8.208C175.134 6.56533 175.102 5.38133 175.102 4.656C175.102 3.80267 175.155 3.25867 175.262 3.024C175.368 2.78933 175.603 2.58667 175.966 2.416ZM203.554 13.808C203.17 13.616 202.626 13.52 201.922 13.52C201.154 13.52 200.504 13.6373 199.97 13.872C199.608 14.0213 199.138 14.352 198.562 14.864C197.986 15.3547 197.698 15.6747 197.698 15.824C197.698 15.888 198.029 15.92 198.69 15.92C199.672 15.92 200.845 15.8667 202.21 15.76C203.576 15.6533 204.354 15.536 204.546 15.408C204.61 15.3867 204.642 15.3227 204.642 15.216C204.642 15.024 204.525 14.7787 204.29 14.48C204.056 14.16 203.81 13.936 203.554 13.808ZM199.778 10.096C200.312 9.94667 200.941 9.872 201.666 9.872C203.01 9.872 204.237 10.1387 205.346 10.672C206.178 11.0987 206.872 11.7493 207.426 12.624C207.981 13.4773 208.322 14.4373 208.45 15.504C208.45 15.5467 208.45 15.6107 208.45 15.696C208.472 15.7813 208.482 15.8453 208.482 15.888C208.482 16.4427 208.376 16.9867 208.162 17.52C207.97 18.0533 207.736 18.416 207.458 18.608C207.096 18.864 204.546 19.184 199.81 19.568C198.808 19.6533 198.306 19.7493 198.306 19.856C198.306 19.984 198.53 20.1867 198.978 20.464C199.426 20.7413 199.864 20.9333 200.29 21.04C200.674 21.1253 200.984 21.168 201.218 21.168C201.901 21.168 202.786 20.944 203.874 20.496C204.642 20.176 205.208 20.016 205.57 20.016C205.933 20.016 206.274 20.176 206.594 20.496C207.021 20.9227 207.234 21.328 207.234 21.712C207.234 21.968 207.17 22.2347 207.042 22.512C206.936 22.768 206.786 22.9707 206.594 23.12C206.424 23.2693 206.104 23.4507 205.634 23.664C204.077 24.3467 202.626 24.688 201.282 24.688C200.514 24.688 199.725 24.5707 198.914 24.336C197.826 23.9947 196.834 23.4187 195.938 22.608C195.042 21.776 194.402 20.8587 194.018 19.856C193.784 19.1947 193.666 18.4587 193.666 17.648C193.666 16.4747 193.858 15.4933 194.242 14.704C194.69 13.7227 195.448 12.784 196.514 11.888C197.581 10.992 198.669 10.3947 199.778 10.096ZM216.491 8.496C216.875 8.432 217.269 8.4 217.675 8.4C218.955 8.4 220.096 8.688 221.099 9.264C222.101 9.84 222.603 10.5013 222.603 11.248C222.603 11.44 222.571 11.6107 222.507 11.76C222.187 12.5707 221.707 12.976 221.067 12.976C220.597 12.976 220.064 12.8267 219.467 12.528C218.784 12.1867 218.155 12.016 217.579 12.016C216.96 12.016 216.448 12.2187 216.043 12.624C215.829 12.8373 215.723 13.008 215.723 13.136C215.723 13.3067 215.883 13.5093 216.203 13.744C216.544 13.9573 217.163 14.2987 218.059 14.768C219.531 15.536 220.523 16.1653 221.035 16.656C221.525 17.0827 221.952 17.616 222.315 18.256C222.677 18.8747 222.859 19.3973 222.859 19.824C222.859 20.3147 222.731 20.8053 222.475 21.296C222.219 21.7867 221.899 22.16 221.515 22.416C220.533 23.0773 219.339 23.408 217.931 23.408C216.608 23.408 215.243 23.0987 213.835 22.48C213.173 22.16 212.757 21.7973 212.587 21.392C212.459 21.0933 212.395 20.8267 212.395 20.592C212.395 20.1653 212.597 19.7493 213.003 19.344C213.28 19.024 213.653 18.864 214.123 18.864C214.571 18.864 215.115 19.0027 215.755 19.28C216.459 19.5787 217.269 19.728 218.187 19.728C218.613 19.728 218.827 19.6747 218.827 19.568C218.827 19.312 217.909 18.7253 216.075 17.808C214.645 17.0613 213.6 16.3253 212.939 15.6C212.277 14.8533 211.947 14.032 211.947 13.136C211.947 12.0693 212.384 11.088 213.259 10.192C214.155 9.27467 215.232 8.70933 216.491 8.496ZM231.282 1.52C231.644 1.15733 232.082 0.975998 232.594 0.975998C232.978 0.975998 233.319 1.09333 233.618 1.328C233.938 1.54133 234.162 1.85067 234.29 2.256C234.354 2.49067 234.46 3.6 234.61 5.584C234.759 7.54667 234.834 8.912 234.834 9.68C234.834 9.872 234.876 9.98933 234.962 10.032C235.068 10.0747 235.314 10.096 235.698 10.096C236.274 10.096 236.604 10.032 236.69 9.904C236.732 9.79733 237.17 9.744 238.002 9.744C239.068 9.744 239.772 9.81867 240.114 9.968C240.434 10.1173 240.679 10.4053 240.85 10.832C240.999 11.1307 241.074 11.376 241.074 11.568C241.074 11.7173 241.042 11.8987 240.978 12.112C240.828 12.6027 240.551 12.9333 240.146 13.104C239.762 13.2533 238.994 13.36 237.842 13.424C236.54 13.488 235.698 13.5733 235.314 13.68L234.802 13.808L234.93 18.32C234.972 20.3253 234.994 21.4027 234.994 21.552C234.994 22.4907 234.919 23.12 234.77 23.44C234.45 24.1227 233.927 24.464 233.202 24.464C232.924 24.464 232.636 24.4 232.338 24.272C232.103 24.1653 231.932 24.0693 231.826 23.984C231.719 23.8773 231.623 23.6107 231.538 23.184C231.452 22.736 231.399 22.2133 231.378 21.616C231.356 21.0187 231.335 20.0373 231.314 18.672L231.25 14.032L230.29 14.064C229.714 14.1067 229.202 14.192 228.754 14.32C228.647 14.3627 228.476 14.384 228.242 14.384C227.516 14.384 226.994 14.16 226.674 13.712C226.503 13.4347 226.418 13.0613 226.418 12.592C226.418 12.1867 226.482 11.8667 226.61 11.632C226.908 11.0987 227.954 10.6933 229.746 10.416L231.218 10.192L231.09 7.376C231.004 5.37067 230.93 4.00533 230.866 3.28C230.823 2.768 230.802 2.49067 230.802 2.448C230.802 2.14933 230.962 1.84 231.282 1.52ZM259.376 1.52C259.738 1.15733 260.176 0.975998 260.688 0.975998C261.072 0.975998 261.413 1.09333 261.712 1.328C262.032 1.54133 262.256 1.85067 262.384 2.256C262.448 2.49067 262.554 3.6 262.704 5.584C262.853 7.54667 262.928 8.912 262.928 9.68C262.928 9.872 262.97 9.98933 263.056 10.032C263.162 10.0747 263.408 10.096 263.792 10.096C264.368 10.096 264.698 10.032 264.784 9.904C264.826 9.79733 265.264 9.744 266.096 9.744C267.162 9.744 267.866 9.81867 268.208 9.968C268.528 10.1173 268.773 10.4053 268.944 10.832C269.093 11.1307 269.168 11.376 269.168 11.568C269.168 11.7173 269.136 11.8987 269.072 12.112C268.922 12.6027 268.645 12.9333 268.24 13.104C267.856 13.2533 267.088 13.36 265.936 13.424C264.634 13.488 263.792 13.5733 263.408 13.68L262.896 13.808L263.024 18.32C263.066 20.3253 263.088 21.4027 263.088 21.552C263.088 22.4907 263.013 23.12 262.864 23.44C262.544 24.1227 262.021 24.464 261.296 24.464C261.018 24.464 260.73 24.4 260.432 24.272C260.197 24.1653 260.026 24.0693 259.92 23.984C259.813 23.8773 259.717 23.6107 259.632 23.184C259.546 22.736 259.493 22.2133 259.472 21.616C259.45 21.0187 259.429 20.0373 259.408 18.672L259.344 14.032L258.384 14.064C257.808 14.1067 257.296 14.192 256.848 14.32C256.741 14.3627 256.57 14.384 256.336 14.384C255.61 14.384 255.088 14.16 254.768 13.712C254.597 13.4347 254.512 13.0613 254.512 12.592C254.512 12.1867 254.576 11.8667 254.704 11.632C255.002 11.0987 256.048 10.6933 257.84 10.416L259.312 10.192L259.184 7.376C259.098 5.37067 259.024 4.00533 258.96 3.28C258.917 2.768 258.896 2.49067 258.896 2.448C258.896 2.14933 259.056 1.84 259.376 1.52ZM273.464 1.552C273.827 1.25333 274.2 1.104 274.584 1.104C275.352 1.104 275.917 1.57333 276.28 2.512C276.429 2.93867 276.589 3.96267 276.76 5.584C276.931 7.184 277.069 8.67733 277.176 10.064C277.283 11.4293 277.347 12.112 277.368 12.112C277.411 12.112 277.763 11.8773 278.424 11.408C279.725 10.4907 280.963 10.032 282.136 10.032C283.224 10.032 284.173 10.4373 284.984 11.248C285.816 12.0373 286.467 13.2 286.936 14.736C287.299 15.9307 287.48 17.7867 287.48 20.304C287.48 21.8827 287.384 22.9493 287.192 23.504C286.979 24.08 286.488 24.368 285.72 24.368C285.208 24.368 284.781 24.1973 284.44 23.856L283.96 23.376L283.864 20.144C283.736 15.984 283.16 13.84 282.136 13.712H282.04C281.549 13.712 280.941 13.9893 280.216 14.544C279.491 15.0773 278.968 15.664 278.648 16.304C278.456 16.7307 278.2 17.04 277.88 17.232L277.464 17.52L277.4 21.008C277.357 22.7147 277.315 23.7493 277.272 24.112C277.251 24.4533 277.133 24.7307 276.92 24.944C276.579 25.3067 276.152 25.488 275.64 25.488C274.872 25.488 274.339 25.1467 274.04 24.464C273.891 24.0587 273.784 21.6053 273.72 17.104C273.613 9.57333 273.336 5.06133 272.888 3.568C272.824 3.33333 272.792 3.10933 272.792 2.896C272.792 2.34133 273.016 1.89333 273.464 1.552ZM292.675 8.912C292.76 8.89067 292.888 8.88 293.059 8.88C293.464 8.88 293.837 8.98667 294.179 9.2C294.52 9.392 294.755 9.65867 294.883 10C294.968 10.192 295.053 11.6533 295.139 14.384C295.245 17.0933 295.299 19.2267 295.299 20.784C295.299 21.4453 295.288 21.8293 295.267 21.936C295.16 22.7467 294.808 23.2907 294.211 23.568C293.912 23.696 293.677 23.76 293.507 23.76C293.379 23.76 293.187 23.728 292.931 23.664C292.44 23.5147 292.131 23.312 292.003 23.056C291.747 22.5653 291.597 20.6667 291.555 17.36C291.555 16.7627 291.544 15.728 291.523 14.256L291.491 9.872L291.875 9.424C292.131 9.12533 292.397 8.95467 292.675 8.912ZM291.907 2.896C292.163 2.768 292.408 2.704 292.643 2.704C293.112 2.704 293.528 2.896 293.891 3.28C294.253 3.64267 294.435 4.06933 294.435 4.56C294.435 4.90133 294.349 5.2 294.179 5.456C293.816 6.032 293.325 6.32 292.707 6.32C292.301 6.32 291.928 6.18133 291.587 5.904C291.245 5.62667 291.032 5.24267 290.947 4.752C290.947 4.73067 290.936 4.69867 290.915 4.656C290.915 4.592 290.915 4.54933 290.915 4.528C290.915 4.208 291.011 3.89867 291.203 3.6C291.395 3.28 291.629 3.04533 291.907 2.896ZM299.592 9.072C299.848 8.944 300.115 8.88 300.392 8.88C300.776 8.88 301.139 9.008 301.48 9.264C301.821 9.49867 302.056 9.81867 302.184 10.224L302.376 10.896L303.176 10.416C303.709 10.096 304.445 9.936 305.384 9.936C306.301 9.936 307.059 10.0853 307.656 10.384C308.147 10.6187 308.669 11.0027 309.224 11.536C309.8 12.0693 310.259 12.6027 310.6 13.136C311.752 14.9493 312.381 17.7653 312.488 21.584V22.224C312.488 22.736 312.339 23.152 312.04 23.472C311.677 23.8347 311.251 24.016 310.76 24.016C309.971 24.016 309.448 23.6747 309.192 22.992C309.064 22.6293 308.957 21.9147 308.872 20.848C308.616 17.1147 307.784 14.7787 306.376 13.84C306.077 13.648 305.779 13.552 305.48 13.552C304.925 13.552 304.424 13.8613 303.976 14.48C303.549 15.0773 303.208 15.9307 302.952 17.04C302.845 17.5307 302.717 18.416 302.568 19.696C302.419 20.976 302.344 21.84 302.344 22.288C302.344 22.5013 302.163 22.7893 301.8 23.152C301.437 23.4933 301.021 23.664 300.552 23.664C299.677 23.664 299.101 23.2053 298.824 22.288C298.696 21.84 298.632 19.8987 298.632 16.464C298.632 12.368 298.707 10.1387 298.856 9.776C298.984 9.49867 299.229 9.264 299.592 9.072ZM325.545 12.08C325.247 11.8667 324.991 11.7387 324.777 11.696C324.564 11.632 324.159 11.6 323.561 11.6C321.983 11.6427 320.927 12.048 320.393 12.816C320.18 13.1147 319.988 13.584 319.817 14.224C319.647 14.8427 319.561 15.3653 319.561 15.792C319.561 15.8347 319.561 15.8987 319.561 15.984C319.583 16.048 319.593 16.0907 319.593 16.112C319.721 16.752 320.073 17.3173 320.649 17.808C321.247 18.2987 321.94 18.5973 322.729 18.704C322.836 18.7253 322.996 18.736 323.209 18.736C324.02 18.736 324.82 18.3093 325.609 17.456C326.399 16.6027 326.793 15.7067 326.793 14.768C326.793 14.4693 326.783 14.2453 326.761 14.096C326.697 13.5413 326.601 13.1573 326.473 12.944C326.345 12.7307 326.036 12.4427 325.545 12.08ZM321.513 8.144C321.983 8.03733 322.665 7.984 323.561 7.984H324.073C324.863 8.00533 325.385 8.05867 325.641 8.144C325.919 8.208 326.356 8.41067 326.953 8.752C327.743 9.24267 328.393 9.60533 328.905 9.84C329.396 10.0747 329.716 10.32 329.865 10.576C330.079 10.896 330.292 12.3893 330.505 15.056C330.74 17.7013 330.857 20.0373 330.857 22.064C330.857 23.728 330.676 25.1147 330.313 26.224C329.972 27.3547 329.396 28.3787 328.585 29.296C327.241 30.832 325.567 31.6 323.561 31.6C322.303 31.6 320.841 31.312 319.177 30.736C318.452 30.5013 317.972 30.2987 317.737 30.128C317.503 29.9573 317.3 29.6907 317.129 29.328C317.044 29.136 317.001 28.912 317.001 28.656C317.001 28.1653 317.172 27.7493 317.513 27.408C317.769 27.1093 318.143 26.96 318.633 26.96C319.081 26.96 319.732 27.1093 320.585 27.408C321.353 27.6853 322.164 27.8667 323.017 27.952C323.081 27.952 323.156 27.952 323.241 27.952C323.348 27.9733 323.423 27.984 323.465 27.984C324.66 27.984 325.599 27.4507 326.281 26.384C326.644 25.872 326.889 25.392 327.017 24.944C327.167 24.4747 327.273 23.8027 327.337 22.928C327.38 22.3307 327.401 21.968 327.401 21.84C327.401 21.4347 327.305 21.232 327.113 21.232C326.943 21.232 326.644 21.3493 326.217 21.584C325.236 22.0747 324.223 22.32 323.177 22.32C321.385 22.32 319.775 21.7227 318.345 20.528C316.916 19.3333 316.159 17.8613 316.073 16.112C316.073 16.048 316.063 15.952 316.041 15.824C316.041 15.696 316.041 15.6 316.041 15.536C316.041 13.68 316.521 12.1013 317.481 10.8C318.463 9.47733 319.807 8.592 321.513 8.144ZM345.805 4.272C346.146 3.952 346.466 3.792 346.765 3.792C346.935 3.792 347.085 3.80267 347.213 3.824C347.789 3.888 348.194 4.08 348.429 4.4L348.845 4.88L348.781 13.264C348.759 18.7893 348.663 21.7653 348.493 22.192C348.215 22.832 347.682 23.152 346.893 23.152C346.637 23.152 346.445 23.1307 346.317 23.088C345.997 22.9813 345.783 22.9067 345.677 22.864C345.591 22.8 345.485 22.608 345.357 22.288C345.25 21.9467 345.186 21.4773 345.165 20.88C345.143 20.2827 345.133 19.3653 345.133 18.128C345.133 17.7867 345.133 17.0933 345.133 16.048C345.154 15.0027 345.165 14.128 345.165 13.424L345.197 4.784L345.805 4.272ZM369.824 9.392C370.165 9.264 370.699 9.2 371.424 9.2C371.808 9.2 372.117 9.21067 372.352 9.232C373.205 9.25333 373.792 9.30667 374.112 9.392C374.432 9.456 374.859 9.616 375.392 9.872C376.907 10.64 377.664 11.568 377.664 12.656C377.664 12.8907 377.589 13.1787 377.44 13.52C377.12 14.1387 376.629 14.448 375.968 14.448C375.371 14.448 374.827 14.1707 374.336 13.616C374.101 13.36 373.888 13.1893 373.696 13.104C373.504 12.9973 373.195 12.912 372.768 12.848C372.341 12.8053 372.053 12.784 371.904 12.784C371.157 12.784 370.613 13.0187 370.272 13.488C369.675 14.3627 369.376 15.312 369.376 16.336C369.376 17.4453 369.717 18.3947 370.4 19.184C371.083 19.952 371.979 20.336 373.088 20.336C373.515 20.336 374.112 20.2293 374.88 20.016C375.648 19.7813 376.16 19.568 376.416 19.376C376.629 19.2053 377.003 19.12 377.536 19.12C378.048 19.12 378.464 19.28 378.784 19.6C379.125 19.92 379.296 20.3253 379.296 20.816C379.296 21.264 379.189 21.6267 378.976 21.904C378.763 22.1813 378.357 22.4693 377.76 22.768C376.224 23.536 374.688 23.92 373.152 23.92C370.613 23.92 368.683 23.0133 367.36 21.2C366.293 19.7493 365.76 18.16 365.76 16.432C365.76 15.3653 365.973 14.2453 366.4 13.072C366.72 12.24 367.189 11.4827 367.808 10.8C368.448 10.1173 369.12 9.648 369.824 9.392ZM393.989 13.232C393.37 12.6133 392.41 12.304 391.109 12.304C390.469 12.304 389.904 12.4107 389.413 12.624C388.944 12.8373 388.432 13.2533 387.877 13.872C387.322 14.4907 386.96 15.056 386.789 15.568C386.597 16.1227 386.501 16.6453 386.501 17.136C386.501 18.2667 386.949 19.0667 387.845 19.536C388.378 19.8133 389.072 19.952 389.925 19.952C390.501 19.952 390.938 19.8773 391.237 19.728C392.965 18.8533 394.021 17.2853 394.405 15.024L394.597 13.808L393.989 13.232ZM389.125 8.88C389.637 8.73067 390.234 8.656 390.917 8.656C392.069 8.656 393.2 8.85867 394.309 9.264C395.418 9.66933 396.186 10.1813 396.613 10.8C396.912 11.2267 397.296 11.6747 397.765 12.144C398.277 12.6773 398.746 13.5947 399.173 14.896C399.578 16.1333 399.952 17.5093 400.293 19.024C400.656 20.5387 400.837 21.5627 400.837 22.096C400.837 22.6293 400.677 23.0453 400.357 23.344C399.952 23.728 399.568 23.92 399.205 23.92C399.056 23.92 398.864 23.888 398.629 23.824C398.224 23.6747 397.904 23.4187 397.669 23.056C397.456 22.6933 397.264 22.1067 397.093 21.296C396.88 20.336 396.762 19.856 396.741 19.856C396.656 19.856 396.208 20.2613 395.397 21.072C393.797 22.6293 392.133 23.472 390.405 23.6H389.957C388.912 23.6 387.888 23.4187 386.885 23.056C385.904 22.6933 385.125 22.2133 384.549 21.616C384.25 21.3173 383.952 20.8693 383.653 20.272C383.354 19.6533 383.152 19.088 383.045 18.576C382.938 18.0427 382.885 17.5627 382.885 17.136C382.885 15.3653 383.482 13.6693 384.677 12.048C385.893 10.4267 387.376 9.37067 389.125 8.88ZM405.248 9.072C405.504 8.944 405.771 8.88 406.048 8.88C406.432 8.88 406.795 9.008 407.136 9.264C407.478 9.49867 407.712 9.81867 407.84 10.224L408.032 10.896L408.832 10.416C409.366 10.096 410.102 9.936 411.04 9.936C411.958 9.936 412.715 10.0853 413.312 10.384C413.803 10.6187 414.326 11.0027 414.88 11.536C415.456 12.0693 415.915 12.6027 416.256 13.136C417.408 14.9493 418.038 17.7653 418.144 21.584V22.224C418.144 22.736 417.995 23.152 417.696 23.472C417.334 23.8347 416.907 24.016 416.416 24.016C415.627 24.016 415.104 23.6747 414.848 22.992C414.72 22.6293 414.614 21.9147 414.528 20.848C414.272 17.1147 413.44 14.7787 412.032 13.84C411.734 13.648 411.435 13.552 411.136 13.552C410.582 13.552 410.08 13.8613 409.632 14.48C409.206 15.0773 408.864 15.9307 408.608 17.04C408.502 17.5307 408.374 18.416 408.224 19.696C408.075 20.976 408 21.84 408 22.288C408 22.5013 407.819 22.7893 407.456 23.152C407.094 23.4933 406.678 23.664 406.208 23.664C405.334 23.664 404.758 23.2053 404.48 22.288C404.352 21.84 404.288 19.8987 404.288 16.464C404.288 12.368 404.363 10.1387 404.512 9.776C404.64 9.49867 404.886 9.264 405.248 9.072ZM443.198 13.872C443.006 13.6373 442.676 13.52 442.206 13.52C441.822 13.52 441.438 13.616 441.054 13.808C440.478 14.0853 439.934 14.672 439.422 15.568C438.91 16.464 438.654 17.2533 438.654 17.936C438.654 18.1493 438.686 18.3307 438.75 18.48C438.9 18.8213 439.262 19.1413 439.838 19.44C440.414 19.7173 440.958 19.856 441.47 19.856C441.577 19.856 441.737 19.8347 441.95 19.792C442.441 19.6427 442.932 19.2373 443.422 18.576C443.934 17.8933 444.329 17.0933 444.606 16.176C444.777 15.6213 444.862 15.248 444.862 15.056C444.862 14.7573 444.638 14.544 444.19 14.416C443.678 14.224 443.348 14.0427 443.198 13.872ZM445.79 2.704C445.982 2.61867 446.206 2.576 446.462 2.576C447.273 2.576 447.817 2.928 448.094 3.632C448.222 3.952 448.425 5.24267 448.702 7.504C448.958 9.872 449.108 11.2053 449.15 11.504C450.025 17.84 450.462 21.4667 450.462 22.384C450.462 22.8107 450.281 23.184 449.918 23.504C449.577 23.824 449.182 23.984 448.734 23.984C448.116 23.984 447.636 23.76 447.294 23.312C446.953 22.8427 446.782 22.2133 446.782 21.424C446.782 21.0827 446.74 20.8693 446.654 20.784H446.622C446.494 20.784 446.1 21.0933 445.438 21.712C444.734 22.416 444.052 22.8853 443.39 23.12C442.793 23.3547 442.11 23.472 441.342 23.472C440.212 23.472 439.124 23.1947 438.078 22.64C437.033 22.064 436.222 21.3067 435.646 20.368C435.433 20.0053 435.294 19.696 435.23 19.44C435.188 19.1627 435.166 18.64 435.166 17.872C435.188 16.8907 435.305 16.0693 435.518 15.408C435.732 14.7467 436.126 13.9787 436.702 13.104C437.108 12.4853 437.684 11.888 438.43 11.312C439.177 10.736 439.828 10.3627 440.382 10.192C440.937 10.0427 441.524 9.968 442.142 9.968C442.91 9.968 443.582 10.064 444.158 10.256C444.777 10.448 445.108 10.544 445.15 10.544C445.193 10.544 445.214 10.416 445.214 10.16C445.214 9.456 445.129 8.57067 444.958 7.504C444.809 6.62933 444.734 5.84 444.734 5.136C444.734 3.81333 445.086 3.00267 445.79 2.704ZM462.907 12.816C462.501 12.7093 461.84 12.6133 460.923 12.528C460.325 12.4853 460.005 12.464 459.963 12.464C459.664 12.464 459.365 12.624 459.067 12.944C458.213 13.8187 457.755 15.0027 457.691 16.496C457.691 16.5813 457.68 16.6987 457.659 16.848C457.659 16.976 457.659 17.072 457.659 17.136C457.659 17.6267 457.787 18.0853 458.043 18.512C458.725 19.728 459.931 20.336 461.659 20.336C462.384 20.3147 463.12 20.0693 463.867 19.6C464.635 19.1093 465.189 18.5227 465.531 17.84C465.723 17.4347 465.819 16.9973 465.819 16.528C465.819 15.7387 465.541 14.992 464.987 14.288C464.453 13.5627 463.76 13.072 462.907 12.816ZM458.043 9.232C458.533 8.95467 459.024 8.816 459.515 8.816C459.621 8.816 460.016 8.83733 460.699 8.88C462.725 8.98667 464.357 9.41333 465.595 10.16C466.832 10.9067 467.824 12.0587 468.571 13.616C469.147 14.8107 469.435 15.952 469.435 17.04C469.435 17.3813 469.403 17.68 469.339 17.936C468.997 19.2587 468.251 20.464 467.099 21.552C465.947 22.64 464.677 23.3653 463.291 23.728C462.565 23.8987 461.989 23.984 461.563 23.984C461.136 23.984 460.56 23.8987 459.835 23.728C457.637 23.152 456.059 22.1067 455.099 20.592C454.352 19.4187 453.979 18.1813 453.979 16.88C453.979 15.5787 454.331 14.192 455.035 12.72C455.845 10.992 456.848 9.82933 458.043 9.232ZM473.204 21.424C473.374 21.0613 473.566 20.816 473.78 20.688C473.993 20.56 474.366 20.496 474.9 20.496C475.262 20.496 475.508 20.528 475.636 20.592C475.785 20.656 475.956 20.8053 476.148 21.04C476.468 21.424 476.628 21.8293 476.628 22.256C476.628 22.7253 476.425 23.1627 476.02 23.568C475.614 23.9733 475.198 24.176 474.772 24.176C474.345 24.176 473.929 23.9947 473.524 23.632C473.14 23.248 472.948 22.8533 472.948 22.448C472.948 22.128 473.033 21.7867 473.204 21.424ZM480.422 21.424C480.593 21.0613 480.785 20.816 480.998 20.688C481.212 20.56 481.585 20.496 482.118 20.496C482.481 20.496 482.726 20.528 482.854 20.592C483.004 20.656 483.174 20.8053 483.366 21.04C483.686 21.424 483.846 21.8293 483.846 22.256C483.846 22.7253 483.644 23.1627 483.238 23.568C482.833 23.9733 482.417 24.176 481.99 24.176C481.564 24.176 481.148 23.9947 480.742 23.632C480.358 23.248 480.166 22.8533 480.166 22.448C480.166 22.128 480.252 21.7867 480.422 21.424ZM487.641 21.424C487.812 21.0613 488.004 20.816 488.217 20.688C488.43 20.56 488.804 20.496 489.337 20.496C489.7 20.496 489.945 20.528 490.073 20.592C490.222 20.656 490.393 20.8053 490.585 21.04C490.905 21.424 491.065 21.8293 491.065 22.256C491.065 22.7253 490.862 23.1627 490.457 23.568C490.052 23.9733 489.636 24.176 489.209 24.176C488.782 24.176 488.366 23.9947 487.961 23.632C487.577 23.248 487.385 22.8533 487.385 22.448C487.385 22.128 487.47 21.7867 487.641 21.424Z" fill="#27263C"/>
</svg>
