<svg width="255" height="51" viewBox="0 0 255 51" fill="none" xmlns="http://www.w3.org/2000/svg">
<path d="M1.592 6.184C1.656 6.168 1.752 6.16 1.88 6.16C2.184 6.16 2.464 6.24 2.72 6.4C2.976 6.544 3.152 6.744 3.248 7C3.312 7.144 3.376 8.24 3.44 10.288C3.52 12.32 3.56 13.92 3.56 15.088C3.56 15.584 3.552 15.872 3.536 15.952C3.456 16.56 3.192 16.968 2.744 17.176C2.52 17.272 2.344 17.32 2.216 17.32C2.12 17.32 1.976 17.296 1.784 17.248C1.416 17.136 1.184 16.984 1.088 16.792C0.896 16.424 0.784 15 0.752 12.52C0.752 12.072 0.744 11.296 0.728 10.192L0.704 6.904L0.992 6.568C1.184 6.344 1.384 6.216 1.592 6.184ZM1.016 1.672C1.208 1.576 1.392 1.528 1.568 1.528C1.92 1.528 2.232 1.672 2.504 1.96C2.776 2.232 2.912 2.552 2.912 2.92C2.912 3.176 2.848 3.4 2.72 3.592C2.448 4.024 2.08 4.24 1.616 4.24C1.312 4.24 1.032 4.136 0.776 3.928C0.52 3.72 0.36 3.432 0.296 3.064C0.296 3.048 0.288 3.024 0.272 2.992C0.272 2.944 0.272 2.912 0.272 2.896C0.272 2.656 0.344 2.424 0.488 2.2C0.632 1.96 0.808 1.784 1.016 1.672ZM9.53994 5.872C9.82794 5.824 10.1239 5.8 10.4279 5.8C11.3879 5.8 12.2439 6.016 12.9959 6.448C13.7479 6.88 14.1239 7.376 14.1239 7.936C14.1239 8.08 14.0999 8.208 14.0519 8.32C13.8119 8.928 13.4519 9.232 12.9719 9.232C12.6199 9.232 12.2199 9.12 11.7719 8.896C11.2599 8.64 10.7879 8.512 10.3559 8.512C9.89194 8.512 9.50794 8.664 9.20394 8.968C9.04394 9.128 8.96394 9.256 8.96394 9.352C8.96394 9.48 9.08394 9.632 9.32394 9.808C9.57994 9.968 10.0439 10.224 10.7159 10.576C11.8199 11.152 12.5639 11.624 12.9479 11.992C13.3159 12.312 13.6359 12.712 13.9079 13.192C14.1799 13.656 14.3159 14.048 14.3159 14.368C14.3159 14.736 14.2199 15.104 14.0279 15.472C13.8359 15.84 13.5959 16.12 13.3079 16.312C12.5719 16.808 11.6759 17.056 10.6199 17.056C9.62794 17.056 8.60394 16.824 7.54794 16.36C7.05194 16.12 6.73994 15.848 6.61194 15.544C6.51594 15.32 6.46794 15.12 6.46794 14.944C6.46794 14.624 6.61994 14.312 6.92394 14.008C7.13194 13.768 7.41194 13.648 7.76394 13.648C8.09994 13.648 8.50794 13.752 8.98794 13.96C9.51594 14.184 10.1239 14.296 10.8119 14.296C11.1319 14.296 11.2919 14.256 11.2919 14.176C11.2919 13.984 10.6039 13.544 9.22794 12.856C8.15594 12.296 7.37194 11.744 6.87594 11.2C6.37994 10.64 6.13194 10.024 6.13194 9.352C6.13194 8.552 6.45994 7.816 7.11594 7.144C7.78794 6.456 8.59594 6.032 9.53994 5.872ZM31.2148 6.616C31.4708 6.456 31.7188 6.376 31.9588 6.376C32.2788 6.376 32.5508 6.512 32.7747 6.784C33.0148 7.056 33.1828 7.432 33.2788 7.912C33.4868 9 33.6628 10.584 33.8068 12.664C33.9668 14.744 34.0468 16.52 34.0468 17.992C34.0468 18.936 34.0068 19.584 33.9268 19.936C33.6868 20.864 33.1908 21.584 32.4388 22.096C31.6868 22.624 30.7588 22.896 29.6548 22.912H29.5108C28.3588 22.912 27.6228 22.576 27.3027 21.904C27.1908 21.68 27.1348 21.504 27.1348 21.376C27.1348 21.28 27.1748 21.128 27.2548 20.92C27.4788 20.36 27.9028 20.08 28.5268 20.08C28.7508 20.08 28.9188 20.096 29.0308 20.128C29.3828 20.192 29.6228 20.224 29.7508 20.224C30.2788 20.224 30.6868 20.08 30.9748 19.792C31.1348 19.632 31.2228 19.432 31.2388 19.192C31.2708 18.952 31.2868 18.208 31.2868 16.96C31.2868 14.8 31.1188 12.32 30.7828 9.52C30.6868 8.736 30.6388 8.16 30.6388 7.792C30.6388 7.232 30.8308 6.84 31.2148 6.616ZM30.7588 2.152C31.0148 1.912 31.3028 1.792 31.6228 1.792C31.8628 1.792 32.1028 1.856 32.3428 1.984C32.7748 2.192 32.9908 2.592 32.9908 3.184C32.9908 3.536 32.8628 3.84 32.6068 4.096C32.3508 4.352 32.0388 4.48 31.6708 4.48C31.5588 4.48 31.4708 4.472 31.4068 4.456C31.0868 4.392 30.8308 4.232 30.6388 3.976C30.4468 3.72 30.3508 3.44 30.3508 3.136C30.3508 2.752 30.4868 2.424 30.7588 2.152ZM37.0316 6.16C37.2876 5.888 37.5996 5.752 37.9676 5.752C38.6556 5.752 39.0956 6.024 39.2876 6.568C39.3836 6.888 39.4316 7.824 39.4316 9.376C39.4316 10.944 39.4796 11.968 39.5756 12.448C39.8156 13.552 40.3036 14.104 41.0396 14.104C41.1836 14.104 41.3356 14.08 41.4956 14.032C41.7196 13.968 42.0076 13.752 42.3596 13.384C42.7276 13.016 42.9916 12.68 43.1516 12.376C43.4396 11.784 43.6956 10.608 43.9196 8.848C44.0796 7.648 44.3276 6.92 44.6636 6.664C44.8876 6.488 45.1356 6.4 45.4076 6.4C45.7116 6.4 45.9916 6.512 46.2476 6.736C46.5196 6.944 46.7036 7.216 46.7996 7.552C46.8796 7.904 47.0156 9.16 47.2076 11.32C47.4156 13.464 47.5196 14.832 47.5196 15.424V15.616C47.4556 15.92 47.3036 16.16 47.0636 16.336C46.8236 16.512 46.5596 16.6 46.2716 16.6C45.9996 16.6 45.7356 16.52 45.4796 16.36C45.2396 16.2 45.0716 15.968 44.9756 15.664C44.8476 15.296 44.7756 15.112 44.7596 15.112C44.6956 15.112 44.4236 15.296 43.9436 15.664C42.9836 16.432 42.0396 16.816 41.1116 16.816H41.0396C40.2716 16.816 39.5836 16.632 38.9756 16.264C38.3676 15.896 37.8876 15.376 37.5356 14.704C37.1996 14.032 36.9836 13.424 36.8876 12.88C36.7916 12.32 36.7356 11.24 36.7196 9.64L36.6476 6.592L37.0316 6.16ZM53.5321 5.872C53.8201 5.824 54.1161 5.8 54.4201 5.8C55.3801 5.8 56.2361 6.016 56.9881 6.448C57.7401 6.88 58.1161 7.376 58.1161 7.936C58.1161 8.08 58.0921 8.208 58.0441 8.32C57.8041 8.928 57.4441 9.232 56.9641 9.232C56.6121 9.232 56.2121 9.12 55.7641 8.896C55.2521 8.64 54.7801 8.512 54.3481 8.512C53.8841 8.512 53.5001 8.664 53.1961 8.968C53.0361 9.128 52.9561 9.256 52.9561 9.352C52.9561 9.48 53.0761 9.632 53.3161 9.808C53.5721 9.968 54.0361 10.224 54.7081 10.576C55.8121 11.152 56.5561 11.624 56.9401 11.992C57.3081 12.312 57.6281 12.712 57.9001 13.192C58.1721 13.656 58.3081 14.048 58.3081 14.368C58.3081 14.736 58.2121 15.104 58.0201 15.472C57.8281 15.84 57.5881 16.12 57.3001 16.312C56.5641 16.808 55.6681 17.056 54.6121 17.056C53.6201 17.056 52.5961 16.824 51.5401 16.36C51.0441 16.12 50.7321 15.848 50.6041 15.544C50.5081 15.32 50.4601 15.12 50.4601 14.944C50.4601 14.624 50.6121 14.312 50.9161 14.008C51.1241 13.768 51.4041 13.648 51.7561 13.648C52.0921 13.648 52.5001 13.752 52.9801 13.96C53.5081 14.184 54.1161 14.296 54.8041 14.296C55.1241 14.296 55.2841 14.256 55.2841 14.176C55.2841 13.984 54.5961 13.544 53.2201 12.856C52.1481 12.296 51.3641 11.744 50.8681 11.2C50.3721 10.64 50.1241 10.024 50.1241 9.352C50.1241 8.552 50.4521 7.816 51.1081 7.144C51.7801 6.456 52.5881 6.032 53.5321 5.872ZM64.6254 0.639999C64.8974 0.367999 65.2254 0.231998 65.6094 0.231998C65.8974 0.231998 66.1534 0.319999 66.3774 0.495999C66.6174 0.655999 66.7854 0.887999 66.8814 1.192C66.9294 1.368 67.0094 2.2 67.1214 3.688C67.2334 5.16 67.2894 6.184 67.2894 6.76C67.2894 6.904 67.3214 6.992 67.3854 7.024C67.4654 7.056 67.6494 7.072 67.9374 7.072C68.3694 7.072 68.6174 7.024 68.6814 6.928C68.7134 6.848 69.0414 6.808 69.6654 6.808C70.4654 6.808 70.9934 6.864 71.2494 6.976C71.4894 7.088 71.6734 7.304 71.8014 7.624C71.9134 7.848 71.9694 8.032 71.9694 8.176C71.9694 8.288 71.9454 8.424 71.8974 8.584C71.7854 8.952 71.5774 9.2 71.2734 9.328C70.9854 9.44 70.4094 9.52 69.5454 9.568C68.5694 9.616 67.9374 9.68 67.6494 9.76L67.2654 9.856L67.3614 13.24C67.3934 14.744 67.4094 15.552 67.4094 15.664C67.4094 16.368 67.3534 16.84 67.2414 17.08C67.0014 17.592 66.6094 17.848 66.0654 17.848C65.8574 17.848 65.6414 17.8 65.4174 17.704C65.2414 17.624 65.1134 17.552 65.0334 17.488C64.9534 17.408 64.8814 17.208 64.8174 16.888C64.7534 16.552 64.7134 16.16 64.6974 15.712C64.6814 15.264 64.6654 14.528 64.6494 13.504L64.6014 10.024L63.8814 10.048C63.4494 10.08 63.0654 10.144 62.7294 10.24C62.6494 10.272 62.5214 10.288 62.3454 10.288C61.8014 10.288 61.4094 10.12 61.1694 9.784C61.0414 9.576 60.9774 9.296 60.9774 8.944C60.9774 8.64 61.0254 8.4 61.1214 8.224C61.3454 7.824 62.1294 7.52 63.4734 7.312L64.5774 7.144L64.4814 5.032C64.4174 3.528 64.3614 2.504 64.3134 1.96C64.2814 1.576 64.2654 1.368 64.2654 1.336C64.2654 1.112 64.3854 0.879999 64.6254 0.639999ZM92.2451 10.864C91.9411 10.48 91.5091 10.16 90.9491 9.904C90.3891 9.648 89.7411 9.52 89.0051 9.52C88.5571 9.52 88.2131 9.576 87.9731 9.688C87.7171 9.8 87.4691 10.056 87.2291 10.456C87.0051 10.84 86.8931 11.312 86.8931 11.872V12.28C86.9411 13.416 86.9731 14.088 86.9891 14.296L87.0851 15.064L87.6611 15.16C87.8851 15.192 88.0691 15.208 88.2131 15.208C89.1571 15.208 90.0131 15.024 90.7811 14.656C91.1651 14.48 91.5331 14.192 91.8851 13.792C92.2531 13.376 92.5011 12.968 92.6291 12.568C92.6931 12.344 92.7251 12.168 92.7251 12.04C92.7251 11.624 92.5651 11.232 92.2451 10.864ZM84.6851 1.312C84.8451 1.232 85.0371 1.192 85.2611 1.192C85.6451 1.192 85.9811 1.336 86.2691 1.624C86.4451 1.8 86.5491 2.016 86.5811 2.272C86.6291 2.512 86.6931 3.272 86.7731 4.552C86.8531 6.232 86.9091 7.088 86.9411 7.12H86.9651C87.0451 7.12 87.3251 7.064 87.8051 6.952C88.3651 6.824 88.8531 6.76 89.2691 6.76C90.0691 6.76 91.0451 7.024 92.1971 7.552C93.5091 8.16 94.4291 9.008 94.9571 10.096C95.1171 10.432 95.2131 10.712 95.2451 10.936C95.2931 11.16 95.3171 11.536 95.3171 12.064C95.3171 12.592 95.2931 12.968 95.2451 13.192C95.1971 13.4 95.0691 13.72 94.8611 14.152C94.3971 15.048 93.7571 15.808 92.9411 16.432C92.1251 17.056 91.2211 17.472 90.2291 17.68C89.6531 17.808 89.0531 17.872 88.4291 17.872C87.8371 17.872 87.1411 17.816 86.3411 17.704C85.7331 17.608 85.3331 17.528 85.1411 17.464C84.9491 17.4 84.7731 17.28 84.6131 17.104L84.2531 16.72V12.976C84.2531 10.72 84.2051 8.28 84.1091 5.656C84.0611 4.424 84.0371 3.536 84.0371 2.992C84.0371 2.352 84.0771 1.944 84.1571 1.768C84.2371 1.592 84.4131 1.44 84.6851 1.312ZM105.377 9.856C105.089 9.712 104.681 9.64 104.153 9.64C103.577 9.64 103.089 9.728 102.689 9.904C102.417 10.016 102.065 10.264 101.633 10.648C101.201 11.016 100.985 11.256 100.985 11.368C100.985 11.416 101.233 11.44 101.729 11.44C102.465 11.44 103.345 11.4 104.369 11.32C105.393 11.24 105.977 11.152 106.121 11.056C106.169 11.04 106.193 10.992 106.193 10.912C106.193 10.768 106.105 10.584 105.929 10.36C105.753 10.12 105.569 9.952 105.377 9.856ZM102.545 7.072C102.945 6.96 103.417 6.904 103.961 6.904C104.969 6.904 105.889 7.104 106.721 7.504C107.345 7.824 107.865 8.312 108.281 8.968C108.697 9.608 108.953 10.328 109.049 11.128C109.049 11.16 109.049 11.208 109.049 11.272C109.065 11.336 109.073 11.384 109.073 11.416C109.073 11.832 108.993 12.24 108.833 12.64C108.689 13.04 108.513 13.312 108.305 13.456C108.033 13.648 106.121 13.888 102.569 14.176C101.817 14.24 101.441 14.312 101.441 14.392C101.441 14.488 101.609 14.64 101.945 14.848C102.281 15.056 102.609 15.2 102.929 15.28C103.217 15.344 103.449 15.376 103.625 15.376C104.137 15.376 104.801 15.208 105.617 14.872C106.193 14.632 106.617 14.512 106.889 14.512C107.161 14.512 107.417 14.632 107.657 14.872C107.977 15.192 108.137 15.496 108.137 15.784C108.137 15.976 108.089 16.176 107.993 16.384C107.913 16.576 107.801 16.728 107.657 16.84C107.529 16.952 107.289 17.088 106.937 17.248C105.769 17.76 104.681 18.016 103.673 18.016C103.097 18.016 102.505 17.928 101.897 17.752C101.081 17.496 100.337 17.064 99.6646 16.456C98.9926 15.832 98.5126 15.144 98.2246 14.392C98.0486 13.896 97.9606 13.344 97.9606 12.736C97.9606 11.856 98.1046 11.12 98.3926 10.528C98.7286 9.792 99.2966 9.088 100.097 8.416C100.897 7.744 101.713 7.296 102.545 7.072ZM125.957 8.2C125.525 8.12 125.165 8.08 124.877 8.08C124.221 8.08 123.669 8.216 123.221 8.488C122.997 8.632 122.733 9.12 122.429 9.952C122.141 10.768 121.997 11.424 121.997 11.92C121.997 12.72 122.253 13.368 122.765 13.864C123.293 14.344 123.981 14.592 124.829 14.608C125.517 14.608 126.157 14.416 126.749 14.032C127.357 13.648 127.797 13.144 128.069 12.52C128.245 12.12 128.333 11.664 128.333 11.152C128.333 10.528 128.213 9.984 127.973 9.52C127.797 9.152 127.557 8.872 127.253 8.68C126.949 8.488 126.517 8.328 125.957 8.2ZM123.245 5.632C123.805 5.488 124.357 5.416 124.901 5.416C125.925 5.416 127.021 5.672 128.189 6.184C129.021 6.552 129.677 7.2 130.157 8.128C130.653 9.056 130.909 10.152 130.925 11.416V11.56C130.925 13.464 130.077 15.008 128.381 16.192C127.325 16.944 126.149 17.32 124.853 17.32C123.781 17.32 122.789 17.056 121.877 16.528C120.965 15.984 120.277 15.224 119.813 14.248C119.653 13.912 119.549 13.624 119.501 13.384C119.469 13.144 119.453 12.64 119.453 11.872C119.469 10.736 119.589 9.84 119.813 9.184C120.341 7.728 120.965 6.744 121.685 6.232C121.973 6.024 122.493 5.824 123.245 5.632ZM141.002 10.096C140.794 9.584 140.522 9.224 140.186 9.016C139.85 8.808 139.442 8.704 138.962 8.704C138.45 8.704 137.946 8.816 137.45 9.04C137.002 9.232 136.746 9.416 136.682 9.592C136.634 9.72 136.538 9.872 136.394 10.048C136.202 10.272 136.106 11.064 136.106 12.424C136.106 12.872 136.122 13.176 136.154 13.336L136.25 13.912L136.994 14.104C137.442 14.216 137.89 14.272 138.338 14.272C139.074 14.272 139.698 14.12 140.21 13.816C140.738 13.496 141.074 13.056 141.218 12.496C141.282 12.256 141.314 11.976 141.314 11.656C141.314 11.112 141.21 10.592 141.002 10.096ZM138.002 6.04C138.194 6.008 138.386 5.992 138.578 5.992C139.506 5.992 140.298 6.112 140.954 6.352C141.61 6.608 142.186 7.056 142.682 7.696C143.194 8.336 143.562 9.072 143.786 9.904C143.898 10.336 143.954 10.856 143.954 11.464C143.954 12.44 143.834 13.24 143.594 13.864C143.29 14.648 142.778 15.304 142.058 15.832C141.354 16.36 140.53 16.704 139.586 16.864C139.25 16.912 138.834 16.936 138.338 16.936C137.49 16.936 136.89 16.88 136.538 16.768C136.442 16.736 136.386 16.72 136.37 16.72C136.29 16.72 136.25 16.792 136.25 16.936C136.25 16.968 136.266 17.16 136.298 17.512C136.314 17.672 136.346 18.296 136.394 19.384V19.792C136.394 20.08 136.37 20.28 136.322 20.392C136.274 20.504 136.17 20.64 136.01 20.8C135.754 21.056 135.434 21.184 135.05 21.184C134.826 21.184 134.618 21.136 134.426 21.04C134.154 20.896 133.962 20.624 133.85 20.224C133.754 19.824 133.674 19 133.61 17.752C133.514 16.184 133.466 14.144 133.466 11.632C133.466 8.672 133.522 7.08 133.634 6.856C133.89 6.36 134.298 6.112 134.858 6.112C135.162 6.112 135.426 6.2 135.65 6.376L135.986 6.64L136.874 6.4C137.018 6.352 137.17 6.304 137.33 6.256C137.49 6.192 137.634 6.144 137.762 6.112C137.89 6.08 137.97 6.056 138.002 6.04ZM154.009 9.856C153.721 9.712 153.313 9.64 152.785 9.64C152.209 9.64 151.721 9.728 151.321 9.904C151.049 10.016 150.697 10.264 150.265 10.648C149.833 11.016 149.617 11.256 149.617 11.368C149.617 11.416 149.865 11.44 150.361 11.44C151.097 11.44 151.977 11.4 153.001 11.32C154.025 11.24 154.609 11.152 154.753 11.056C154.801 11.04 154.825 10.992 154.825 10.912C154.825 10.768 154.737 10.584 154.561 10.36C154.385 10.12 154.201 9.952 154.009 9.856ZM151.177 7.072C151.577 6.96 152.049 6.904 152.593 6.904C153.601 6.904 154.521 7.104 155.353 7.504C155.977 7.824 156.497 8.312 156.913 8.968C157.329 9.608 157.585 10.328 157.681 11.128C157.681 11.16 157.681 11.208 157.681 11.272C157.697 11.336 157.705 11.384 157.705 11.416C157.705 11.832 157.625 12.24 157.465 12.64C157.321 13.04 157.145 13.312 156.937 13.456C156.665 13.648 154.753 13.888 151.201 14.176C150.449 14.24 150.073 14.312 150.073 14.392C150.073 14.488 150.241 14.64 150.577 14.848C150.913 15.056 151.241 15.2 151.561 15.28C151.849 15.344 152.081 15.376 152.257 15.376C152.769 15.376 153.433 15.208 154.249 14.872C154.825 14.632 155.249 14.512 155.521 14.512C155.793 14.512 156.049 14.632 156.289 14.872C156.609 15.192 156.769 15.496 156.769 15.784C156.769 15.976 156.721 16.176 156.625 16.384C156.545 16.576 156.433 16.728 156.289 16.84C156.161 16.952 155.921 17.088 155.569 17.248C154.401 17.76 153.313 18.016 152.305 18.016C151.729 18.016 151.137 17.928 150.529 17.752C149.713 17.496 148.969 17.064 148.297 16.456C147.625 15.832 147.145 15.144 146.857 14.392C146.681 13.896 146.593 13.344 146.593 12.736C146.593 11.856 146.737 11.12 147.025 10.528C147.361 9.792 147.929 9.088 148.729 8.416C149.529 7.744 150.345 7.296 151.177 7.072ZM160.952 6.304C161.144 6.208 161.344 6.16 161.552 6.16C161.84 6.16 162.112 6.256 162.368 6.448C162.624 6.624 162.8 6.864 162.896 7.168L163.04 7.672L163.64 7.312C164.04 7.072 164.592 6.952 165.296 6.952C165.984 6.952 166.552 7.064 167 7.288C167.368 7.464 167.76 7.752 168.176 8.152C168.608 8.552 168.952 8.952 169.208 9.352C170.072 10.712 170.544 12.824 170.624 15.688V16.168C170.624 16.552 170.512 16.864 170.288 17.104C170.016 17.376 169.696 17.512 169.328 17.512C168.736 17.512 168.344 17.256 168.152 16.744C168.056 16.472 167.976 15.936 167.912 15.136C167.72 12.336 167.096 10.584 166.04 9.88C165.816 9.736 165.592 9.664 165.368 9.664C164.952 9.664 164.576 9.896 164.24 10.36C163.92 10.808 163.664 11.448 163.472 12.28C163.392 12.648 163.296 13.312 163.184 14.272C163.072 15.232 163.016 15.88 163.016 16.216C163.016 16.376 162.88 16.592 162.608 16.864C162.336 17.12 162.024 17.248 161.672 17.248C161.016 17.248 160.584 16.904 160.376 16.216C160.28 15.88 160.232 14.424 160.232 11.848C160.232 8.776 160.288 7.104 160.4 6.832C160.496 6.624 160.68 6.448 160.952 6.304ZM184.321 0.639999C184.593 0.367999 184.921 0.231998 185.305 0.231998C185.593 0.231998 185.849 0.319999 186.073 0.495999C186.313 0.655999 186.481 0.887999 186.577 1.192C186.625 1.368 186.705 2.2 186.817 3.688C186.929 5.16 186.985 6.184 186.985 6.76C186.985 6.904 187.017 6.992 187.081 7.024C187.161 7.056 187.345 7.072 187.633 7.072C188.065 7.072 188.313 7.024 188.377 6.928C188.409 6.848 188.737 6.808 189.361 6.808C190.161 6.808 190.689 6.864 190.945 6.976C191.185 7.088 191.369 7.304 191.497 7.624C191.609 7.848 191.665 8.032 191.665 8.176C191.665 8.288 191.641 8.424 191.593 8.584C191.481 8.952 191.273 9.2 190.969 9.328C190.681 9.44 190.105 9.52 189.241 9.568C188.265 9.616 187.633 9.68 187.345 9.76L186.961 9.856L187.057 13.24C187.089 14.744 187.105 15.552 187.105 15.664C187.105 16.368 187.049 16.84 186.937 17.08C186.697 17.592 186.305 17.848 185.761 17.848C185.553 17.848 185.337 17.8 185.113 17.704C184.937 17.624 184.809 17.552 184.729 17.488C184.649 17.408 184.577 17.208 184.513 16.888C184.449 16.552 184.409 16.16 184.393 15.712C184.377 15.264 184.361 14.528 184.345 13.504L184.297 10.024L183.577 10.048C183.145 10.08 182.761 10.144 182.425 10.24C182.345 10.272 182.217 10.288 182.041 10.288C181.497 10.288 181.105 10.12 180.865 9.784C180.737 9.576 180.673 9.296 180.673 8.944C180.673 8.64 180.721 8.4 180.817 8.224C181.041 7.824 181.825 7.52 183.169 7.312L184.273 7.144L184.177 5.032C184.113 3.528 184.057 2.504 184.009 1.96C183.977 1.576 183.961 1.368 183.961 1.336C183.961 1.112 184.081 0.879999 184.321 0.639999ZM200.863 8.2C200.431 8.12 200.071 8.08 199.783 8.08C199.127 8.08 198.575 8.216 198.127 8.488C197.903 8.632 197.639 9.12 197.335 9.952C197.047 10.768 196.903 11.424 196.903 11.92C196.903 12.72 197.159 13.368 197.671 13.864C198.199 14.344 198.887 14.592 199.735 14.608C200.423 14.608 201.063 14.416 201.655 14.032C202.263 13.648 202.703 13.144 202.975 12.52C203.151 12.12 203.239 11.664 203.239 11.152C203.239 10.528 203.119 9.984 202.879 9.52C202.703 9.152 202.463 8.872 202.159 8.68C201.855 8.488 201.423 8.328 200.863 8.2ZM198.151 5.632C198.711 5.488 199.263 5.416 199.807 5.416C200.831 5.416 201.927 5.672 203.095 6.184C203.927 6.552 204.583 7.2 205.063 8.128C205.559 9.056 205.815 10.152 205.831 11.416V11.56C205.831 13.464 204.983 15.008 203.287 16.192C202.231 16.944 201.055 17.32 199.759 17.32C198.687 17.32 197.695 17.056 196.783 16.528C195.871 15.984 195.183 15.224 194.719 14.248C194.559 13.912 194.455 13.624 194.407 13.384C194.375 13.144 194.359 12.64 194.359 11.872C194.375 10.736 194.495 9.84 194.719 9.184C195.247 7.728 195.871 6.744 196.591 6.232C196.879 6.024 197.399 5.824 198.151 5.632ZM1.232 32.008C1.456 31.976 1.584 31.952 1.616 31.936C1.696 31.936 1.88 31.992 2.168 32.104C2.392 32.2 2.592 32.392 2.768 32.68C2.944 32.968 3.032 33.248 3.032 33.52C3.032 33.728 3.072 33.888 3.152 34C3.216 34.08 3.272 34.112 3.32 34.096C3.368 34.08 3.48 34 3.656 33.856C4.376 33.248 5.256 32.872 6.296 32.728C6.616 32.696 6.84 32.68 6.968 32.68C7.784 32.68 8.48 32.976 9.056 33.568L9.608 34.12L10.304 33.568C11.44 32.656 12.544 32.2 13.616 32.2C13.984 32.2 14.312 32.256 14.6 32.368C14.92 32.496 15.264 32.744 15.632 33.112C16.016 33.464 16.304 33.84 16.496 34.24C17.072 35.408 17.448 37.584 17.624 40.768C17.656 41.568 17.672 42.008 17.672 42.088C17.672 42.504 17.616 42.816 17.504 43.024C17.264 43.488 16.896 43.72 16.4 43.72C16.048 43.72 15.736 43.592 15.464 43.336L15.032 42.976L14.912 40.744C14.736 37.416 14.336 35.488 13.712 34.96C13.616 34.896 13.536 34.864 13.472 34.864C13.344 34.864 13.112 34.952 12.776 35.128C11.944 35.528 11.352 36.208 11 37.168C10.808 37.664 10.68 38.696 10.616 40.264C10.536 41.848 10.456 42.728 10.376 42.904C10.12 43.352 9.712 43.576 9.152 43.576C8.848 43.576 8.576 43.48 8.336 43.288C7.984 43 7.808 42.296 7.808 41.176C7.808 40.664 7.816 40.24 7.832 39.904C7.832 39.792 7.832 39.64 7.832 39.448C7.848 39.24 7.856 39.088 7.856 38.992C7.856 37.424 7.68 36.336 7.328 35.728C7.184 35.472 7.04 35.344 6.896 35.344C6.88 35.344 6.776 35.36 6.584 35.392C5.56 35.584 4.696 36.408 3.992 37.864C3.704 38.472 3.56 39.112 3.56 39.784C3.56 40.36 3.608 41.064 3.704 41.896C3.752 42.232 3.776 42.512 3.776 42.736C3.776 43.344 3.512 43.776 2.984 44.032C2.76 44.144 2.584 44.2 2.456 44.2C2.36 44.2 2.208 44.16 2 44.08C1.6 43.936 1.336 43.664 1.208 43.264C1.08 42.848 0.976 41.96 0.896 40.6C0.784 38.28 0.592 35.888 0.32 33.424C0.32 33.392 0.312 33.344 0.296 33.28C0.296 33.216 0.296 33.176 0.296 33.16C0.296 32.936 0.392 32.704 0.584 32.464C0.824 32.192 1.04 32.04 1.232 32.008ZM28.6168 36.424C28.1528 35.96 27.4328 35.728 26.4568 35.728C25.9768 35.728 25.5528 35.808 25.1848 35.968C24.8328 36.128 24.4488 36.44 24.0328 36.904C23.6168 37.368 23.3448 37.792 23.2168 38.176C23.0728 38.592 23.0008 38.984 23.0008 39.352C23.0008 40.2 23.3368 40.8 24.0088 41.152C24.4088 41.36 24.9288 41.464 25.5688 41.464C26.0008 41.464 26.3288 41.408 26.5528 41.296C27.8488 40.64 28.6408 39.464 28.9288 37.768L29.0728 36.856L28.6168 36.424ZM24.9688 33.16C25.3528 33.048 25.8008 32.992 26.3128 32.992C27.1768 32.992 28.0248 33.144 28.8568 33.448C29.6888 33.752 30.2648 34.136 30.5848 34.6C30.8088 34.92 31.0968 35.256 31.4488 35.608C31.8328 36.008 32.1848 36.696 32.5048 37.672C32.8088 38.6 33.0888 39.632 33.3448 40.768C33.6168 41.904 33.7528 42.672 33.7528 43.072C33.7528 43.472 33.6328 43.784 33.3928 44.008C33.0888 44.296 32.8008 44.44 32.5287 44.44C32.4168 44.44 32.2728 44.416 32.0968 44.368C31.7928 44.256 31.5528 44.064 31.3768 43.792C31.2168 43.52 31.0728 43.08 30.9448 42.472C30.7848 41.752 30.6968 41.392 30.6808 41.392C30.6168 41.392 30.2808 41.696 29.6728 42.304C28.4728 43.472 27.2248 44.104 25.9288 44.2H25.5928C24.8088 44.2 24.0408 44.064 23.2888 43.792C22.5528 43.52 21.9688 43.16 21.5368 42.712C21.3128 42.488 21.0888 42.152 20.8648 41.704C20.6408 41.24 20.4888 40.816 20.4088 40.432C20.3288 40.032 20.2888 39.672 20.2888 39.352C20.2888 38.024 20.7368 36.752 21.6328 35.536C22.5448 34.32 23.6568 33.528 24.9688 33.16ZM36.9652 28.456C37.2052 28.328 37.4532 28.264 37.7092 28.264C38.0452 28.264 38.3332 28.392 38.5732 28.648C38.8132 28.904 38.9572 29.256 39.0052 29.704C39.0532 30.088 39.1172 31.2 39.1972 33.04C39.2932 34.864 39.3412 36.032 39.3412 36.544C39.3412 36.976 39.3812 37.176 39.4612 37.144C39.5892 37.096 39.9492 36.672 40.5412 35.872C41.1332 35.072 41.5012 34.512 41.6452 34.192C41.9812 33.488 42.4052 33.136 42.9172 33.136C43.1572 33.136 43.3892 33.192 43.6132 33.304C44.0932 33.528 44.3332 33.936 44.3332 34.528C44.3332 34.784 44.2692 35.064 44.1412 35.368C44.0292 35.64 43.5572 36.328 42.7252 37.432C41.8132 38.664 41.3492 39.304 41.3332 39.352C41.3012 39.416 41.2852 39.464 41.2852 39.496C41.2852 39.64 41.9252 40.152 43.2052 41.032C44.5972 41.992 45.3412 42.544 45.4372 42.688C45.5652 42.864 45.6292 43.08 45.6292 43.336C45.6292 43.688 45.5092 44 45.2692 44.272C45.0292 44.528 44.7252 44.664 44.3572 44.68C44.1172 44.68 43.8452 44.608 43.5412 44.464C43.2532 44.304 42.6532 43.912 41.7412 43.288C40.3332 42.344 39.6132 41.872 39.5812 41.872C39.5652 41.872 39.5252 42.312 39.4612 43.192C39.4292 43.8 39.3892 44.192 39.3412 44.368C39.3092 44.528 39.2052 44.704 39.0292 44.896C38.7572 45.168 38.4372 45.304 38.0692 45.304C37.7972 45.304 37.5492 45.232 37.3252 45.088C37.1012 44.928 36.9492 44.72 36.8692 44.464C36.8052 44.24 36.7412 42.392 36.6772 38.92C36.6292 35.848 36.5492 33.416 36.4372 31.624C36.3892 30.904 36.3652 30.352 36.3652 29.968C36.3652 29.488 36.4052 29.152 36.4852 28.96C36.5812 28.752 36.7412 28.584 36.9652 28.456ZM49.6389 33.184C49.7029 33.168 49.7989 33.16 49.9269 33.16C50.2309 33.16 50.5109 33.24 50.7669 33.4C51.0229 33.544 51.1989 33.744 51.2949 34C51.3589 34.144 51.4229 35.24 51.4869 37.288C51.5669 39.32 51.6069 40.92 51.6069 42.088C51.6069 42.584 51.5989 42.872 51.5829 42.952C51.5029 43.56 51.2389 43.968 50.7909 44.176C50.5669 44.272 50.3909 44.32 50.2629 44.32C50.1669 44.32 50.0229 44.296 49.8309 44.248C49.4629 44.136 49.2309 43.984 49.1349 43.792C48.9429 43.424 48.8309 42 48.7989 39.52C48.7989 39.072 48.7909 38.296 48.7749 37.192L48.7509 33.904L49.0389 33.568C49.2309 33.344 49.4309 33.216 49.6389 33.184ZM49.0629 28.672C49.2549 28.576 49.4389 28.528 49.6149 28.528C49.9669 28.528 50.2789 28.672 50.5509 28.96C50.8229 29.232 50.9589 29.552 50.9589 29.92C50.9589 30.176 50.8949 30.4 50.7669 30.592C50.4949 31.024 50.1269 31.24 49.6629 31.24C49.3589 31.24 49.0789 31.136 48.8229 30.928C48.5669 30.72 48.4069 30.432 48.3429 30.064C48.3429 30.048 48.3349 30.024 48.3189 29.992C48.3189 29.944 48.3189 29.912 48.3189 29.896C48.3189 29.656 48.3909 29.424 48.5349 29.2C48.6789 28.96 48.8549 28.784 49.0629 28.672ZM54.8268 33.304C55.0188 33.208 55.2188 33.16 55.4268 33.16C55.7148 33.16 55.9868 33.256 56.2428 33.448C56.4988 33.624 56.6748 33.864 56.7708 34.168L56.9148 34.672L57.5148 34.312C57.9148 34.072 58.4668 33.952 59.1708 33.952C59.8588 33.952 60.4268 34.064 60.8748 34.288C61.2428 34.464 61.6348 34.752 62.0508 35.152C62.4828 35.552 62.8268 35.952 63.0828 36.352C63.9468 37.712 64.4188 39.824 64.4988 42.688V43.168C64.4988 43.552 64.3868 43.864 64.1628 44.104C63.8908 44.376 63.5708 44.512 63.2028 44.512C62.6108 44.512 62.2188 44.256 62.0268 43.744C61.9308 43.472 61.8508 42.936 61.7868 42.136C61.5948 39.336 60.9708 37.584 59.9148 36.88C59.6908 36.736 59.4668 36.664 59.2428 36.664C58.8268 36.664 58.4508 36.896 58.1148 37.36C57.7948 37.808 57.5388 38.448 57.3468 39.28C57.2668 39.648 57.1708 40.312 57.0588 41.272C56.9468 42.232 56.8908 42.88 56.8908 43.216C56.8908 43.376 56.7548 43.592 56.4828 43.864C56.2108 44.12 55.8988 44.248 55.5468 44.248C54.8908 44.248 54.4588 43.904 54.2508 43.216C54.1548 42.88 54.1068 41.424 54.1068 38.848C54.1068 35.776 54.1628 34.104 54.2748 33.832C54.3708 33.624 54.5548 33.448 54.8268 33.304ZM74.2918 35.56C74.0678 35.4 73.8758 35.304 73.7158 35.272C73.5558 35.224 73.2518 35.2 72.8038 35.2C71.6198 35.232 70.8278 35.536 70.4278 36.112C70.2678 36.336 70.1238 36.688 69.9958 37.168C69.8678 37.632 69.8038 38.024 69.8038 38.344C69.8038 38.376 69.8038 38.424 69.8038 38.488C69.8198 38.536 69.8278 38.568 69.8278 38.584C69.9238 39.064 70.1878 39.488 70.6198 39.856C71.0678 40.224 71.5878 40.448 72.1797 40.528C72.2598 40.544 72.3798 40.552 72.5398 40.552C73.1478 40.552 73.7478 40.232 74.3398 39.592C74.9318 38.952 75.2278 38.28 75.2278 37.576C75.2278 37.352 75.2198 37.184 75.2038 37.072C75.1558 36.656 75.0838 36.368 74.9878 36.208C74.8918 36.048 74.6598 35.832 74.2918 35.56ZM71.2678 32.608C71.6198 32.528 72.1318 32.488 72.8038 32.488H73.1878C73.7798 32.504 74.1718 32.544 74.3638 32.608C74.5718 32.656 74.8998 32.808 75.3478 33.064C75.9398 33.432 76.4278 33.704 76.8118 33.88C77.1798 34.056 77.4198 34.24 77.5318 34.432C77.6918 34.672 77.8518 35.792 78.0118 37.792C78.1878 39.776 78.2758 41.528 78.2758 43.048C78.2758 44.296 78.1398 45.336 77.8678 46.168C77.6118 47.016 77.1798 47.784 76.5718 48.472C75.5638 49.624 74.3078 50.2 72.8038 50.2C71.8598 50.2 70.7638 49.984 69.5158 49.552C68.9718 49.376 68.6118 49.224 68.4358 49.096C68.2598 48.968 68.1078 48.768 67.9798 48.496C67.9158 48.352 67.8838 48.184 67.8838 47.992C67.8838 47.624 68.0118 47.312 68.2678 47.056C68.4598 46.832 68.7398 46.72 69.1078 46.72C69.4438 46.72 69.9318 46.832 70.5718 47.056C71.1478 47.264 71.7558 47.4 72.3958 47.464C72.4438 47.464 72.4998 47.464 72.5638 47.464C72.6438 47.48 72.6998 47.488 72.7318 47.488C73.6278 47.488 74.3318 47.088 74.8438 46.288C75.1158 45.904 75.2998 45.544 75.3958 45.208C75.5078 44.856 75.5878 44.352 75.6358 43.696C75.6678 43.248 75.6838 42.976 75.6838 42.88C75.6838 42.576 75.6118 42.424 75.4678 42.424C75.3398 42.424 75.1158 42.512 74.7958 42.688C74.0598 43.056 73.2998 43.24 72.5158 43.24C71.1718 43.24 69.9638 42.792 68.8918 41.896C67.8198 41 67.2518 39.896 67.1878 38.584C67.1878 38.536 67.1798 38.464 67.1638 38.368C67.1638 38.272 67.1638 38.2 67.1638 38.152C67.1638 36.76 67.5238 35.576 68.2438 34.6C68.9798 33.608 69.9878 32.944 71.2678 32.608ZM89.2799 33.304C89.4719 33.208 89.6719 33.16 89.8799 33.16C90.1679 33.16 90.4399 33.256 90.6959 33.448C90.9519 33.624 91.1279 33.864 91.2239 34.168L91.3679 34.672L91.9679 34.312C92.3679 34.072 92.9199 33.952 93.6239 33.952C94.3119 33.952 94.8799 34.064 95.3279 34.288C95.6959 34.464 96.0879 34.752 96.5039 35.152C96.9359 35.552 97.2799 35.952 97.5359 36.352C98.3999 37.712 98.8719 39.824 98.9519 42.688V43.168C98.9519 43.552 98.8399 43.864 98.6159 44.104C98.3439 44.376 98.0239 44.512 97.6559 44.512C97.0639 44.512 96.6719 44.256 96.4799 43.744C96.3839 43.472 96.3039 42.936 96.2399 42.136C96.0479 39.336 95.4239 37.584 94.3679 36.88C94.1439 36.736 93.9199 36.664 93.6959 36.664C93.2799 36.664 92.9039 36.896 92.5679 37.36C92.2479 37.808 91.9919 38.448 91.7999 39.28C91.7199 39.648 91.6239 40.312 91.5119 41.272C91.3999 42.232 91.3439 42.88 91.3439 43.216C91.3439 43.376 91.2079 43.592 90.9359 43.864C90.6639 44.12 90.3519 44.248 89.9999 44.248C89.3439 44.248 88.9119 43.904 88.7039 43.216C88.6079 42.88 88.5599 41.424 88.5599 38.848C88.5599 35.776 88.6159 34.104 88.7279 33.832C88.8239 33.624 89.0079 33.448 89.2799 33.304ZM108.193 36.208C107.905 36 107.449 35.896 106.825 35.896C106.441 35.896 106.137 35.944 105.913 36.04C105.705 36.136 105.465 36.336 105.193 36.64C104.937 36.928 104.809 37.136 104.809 37.264C104.809 37.376 104.929 37.432 105.169 37.432C105.489 37.416 106.153 37.344 107.161 37.216C108.169 37.088 108.689 37.008 108.721 36.976C108.737 36.96 108.745 36.936 108.745 36.904C108.745 36.728 108.561 36.496 108.193 36.208ZM105.601 33.28C105.889 33.2 106.241 33.16 106.657 33.16C107.505 33.16 108.233 33.28 108.841 33.52C109.337 33.696 109.825 34.04 110.305 34.552C110.801 35.048 111.209 35.608 111.529 36.232C111.849 36.872 112.009 37.304 112.009 37.528C112.009 38.04 111.785 38.52 111.337 38.968C110.857 39.4 109.361 39.72 106.849 39.928C105.889 40.008 105.265 40.072 104.977 40.12C104.689 40.168 104.545 40.24 104.545 40.336C104.545 40.416 104.689 40.584 104.977 40.84C105.473 41.32 106.361 41.608 107.641 41.704C107.769 41.72 107.937 41.728 108.145 41.728C108.481 41.728 108.881 41.648 109.345 41.488C110.001 41.248 110.521 41.128 110.905 41.128C111.481 41.128 111.857 41.416 112.033 41.992C112.081 42.136 112.105 42.272 112.105 42.4C112.105 42.944 111.761 43.392 111.073 43.744C110.401 44.08 109.449 44.272 108.217 44.32C108.153 44.32 108.065 44.328 107.953 44.344C107.841 44.344 107.761 44.344 107.713 44.344C106.353 44.344 105.177 44.08 104.185 43.552C103.209 43.008 102.473 42.24 101.977 41.248C101.737 40.768 101.617 40.128 101.617 39.328C101.617 38.528 101.697 37.896 101.857 37.432C102.257 36.232 102.753 35.312 103.345 34.672C103.937 34.016 104.689 33.552 105.601 33.28ZM115.102 33.112C115.342 32.872 115.646 32.752 116.014 32.752C116.51 32.752 116.854 32.92 117.046 33.256C117.254 33.576 117.582 34.48 118.03 35.968C118.158 36.384 118.318 36.92 118.51 37.576C119.054 39.304 119.366 40.184 119.446 40.216C119.542 40.216 119.758 39.736 120.094 38.776C120.638 37.144 121.086 36 121.438 35.344C121.806 34.688 122.238 34.256 122.734 34.048C122.974 33.936 123.214 33.88 123.454 33.88C123.806 33.88 124.126 34.048 124.414 34.384C124.718 34.704 125.054 35.248 125.422 36.016C126.83 39.008 127.574 40.504 127.654 40.504C127.686 40.504 127.87 40 128.206 38.992C128.558 37.968 128.926 36.912 129.31 35.824C129.71 34.736 129.974 34.12 130.102 33.976C130.358 33.688 130.662 33.544 131.014 33.544C131.398 33.544 131.75 33.712 132.07 34.048C132.246 34.224 132.334 34.456 132.334 34.744C132.334 35.208 131.966 36.52 131.23 38.68C130.462 40.936 129.87 42.416 129.454 43.12C129.038 43.808 128.518 44.152 127.894 44.152C127.702 44.152 127.558 44.144 127.462 44.128C126.95 44.048 126.51 43.784 126.142 43.336C125.774 42.888 125.238 41.928 124.534 40.456C123.75 38.824 123.334 38.008 123.286 38.008C123.238 38.008 123.094 38.344 122.854 39.016C122.086 41.224 121.542 42.656 121.222 43.312C120.902 43.968 120.566 44.376 120.214 44.536C119.942 44.648 119.622 44.704 119.254 44.704C118.934 44.704 118.686 44.664 118.51 44.584C118.19 44.424 117.806 43.784 117.358 42.664C116.91 41.544 116.278 39.624 115.462 36.904C114.998 35.368 114.766 34.384 114.766 33.952C114.766 33.616 114.878 33.336 115.102 33.112ZM143.638 32.008C143.862 31.976 143.99 31.952 144.022 31.936C144.102 31.936 144.286 31.992 144.574 32.104C144.798 32.2 144.998 32.392 145.174 32.68C145.35 32.968 145.438 33.248 145.438 33.52C145.438 33.728 145.478 33.888 145.558 34C145.622 34.08 145.678 34.112 145.726 34.096C145.774 34.08 145.886 34 146.062 33.856C146.782 33.248 147.662 32.872 148.702 32.728C149.022 32.696 149.246 32.68 149.374 32.68C150.19 32.68 150.886 32.976 151.462 33.568L152.014 34.12L152.71 33.568C153.846 32.656 154.95 32.2 156.022 32.2C156.39 32.2 156.718 32.256 157.006 32.368C157.326 32.496 157.67 32.744 158.038 33.112C158.422 33.464 158.71 33.84 158.902 34.24C159.478 35.408 159.854 37.584 160.03 40.768C160.062 41.568 160.078 42.008 160.078 42.088C160.078 42.504 160.022 42.816 159.91 43.024C159.67 43.488 159.302 43.72 158.806 43.72C158.454 43.72 158.142 43.592 157.87 43.336L157.438 42.976L157.318 40.744C157.142 37.416 156.742 35.488 156.118 34.96C156.022 34.896 155.942 34.864 155.878 34.864C155.75 34.864 155.518 34.952 155.182 35.128C154.35 35.528 153.758 36.208 153.406 37.168C153.214 37.664 153.086 38.696 153.022 40.264C152.942 41.848 152.862 42.728 152.782 42.904C152.526 43.352 152.118 43.576 151.558 43.576C151.254 43.576 150.982 43.48 150.742 43.288C150.39 43 150.214 42.296 150.214 41.176C150.214 40.664 150.222 40.24 150.238 39.904C150.238 39.792 150.238 39.64 150.238 39.448C150.254 39.24 150.262 39.088 150.262 38.992C150.262 37.424 150.086 36.336 149.734 35.728C149.59 35.472 149.446 35.344 149.302 35.344C149.286 35.344 149.182 35.36 148.99 35.392C147.966 35.584 147.102 36.408 146.398 37.864C146.11 38.472 145.966 39.112 145.966 39.784C145.966 40.36 146.014 41.064 146.11 41.896C146.158 42.232 146.182 42.512 146.182 42.736C146.182 43.344 145.918 43.776 145.39 44.032C145.166 44.144 144.99 44.2 144.862 44.2C144.766 44.2 144.614 44.16 144.406 44.08C144.006 43.936 143.742 43.664 143.614 43.264C143.486 42.848 143.382 41.96 143.302 40.6C143.19 38.28 142.998 35.888 142.726 33.424C142.726 33.392 142.718 33.344 142.702 33.28C142.702 33.216 142.702 33.176 142.702 33.16C142.702 32.936 142.798 32.704 142.99 32.464C143.23 32.192 143.446 32.04 143.638 32.008ZM169.271 36.208C168.983 36 168.527 35.896 167.903 35.896C167.519 35.896 167.215 35.944 166.991 36.04C166.783 36.136 166.543 36.336 166.271 36.64C166.015 36.928 165.887 37.136 165.887 37.264C165.887 37.376 166.007 37.432 166.247 37.432C166.567 37.416 167.231 37.344 168.239 37.216C169.247 37.088 169.767 37.008 169.799 36.976C169.815 36.96 169.823 36.936 169.823 36.904C169.823 36.728 169.639 36.496 169.271 36.208ZM166.679 33.28C166.967 33.2 167.319 33.16 167.735 33.16C168.583 33.16 169.311 33.28 169.919 33.52C170.415 33.696 170.903 34.04 171.383 34.552C171.879 35.048 172.287 35.608 172.607 36.232C172.927 36.872 173.087 37.304 173.087 37.528C173.087 38.04 172.863 38.52 172.415 38.968C171.935 39.4 170.439 39.72 167.927 39.928C166.967 40.008 166.343 40.072 166.055 40.12C165.767 40.168 165.623 40.24 165.623 40.336C165.623 40.416 165.767 40.584 166.055 40.84C166.551 41.32 167.439 41.608 168.719 41.704C168.847 41.72 169.015 41.728 169.223 41.728C169.559 41.728 169.959 41.648 170.423 41.488C171.079 41.248 171.599 41.128 171.983 41.128C172.559 41.128 172.935 41.416 173.111 41.992C173.159 42.136 173.183 42.272 173.183 42.4C173.183 42.944 172.839 43.392 172.151 43.744C171.479 44.08 170.527 44.272 169.295 44.32C169.231 44.32 169.143 44.328 169.031 44.344C168.919 44.344 168.839 44.344 168.791 44.344C167.431 44.344 166.255 44.08 165.263 43.552C164.287 43.008 163.551 42.24 163.055 41.248C162.815 40.768 162.695 40.128 162.695 39.328C162.695 38.528 162.775 37.896 162.935 37.432C163.335 36.232 163.831 35.312 164.423 34.672C165.015 34.016 165.767 33.552 166.679 33.28ZM176.565 32.896C176.725 32.816 176.917 32.776 177.141 32.776C177.957 32.776 178.469 33.464 178.677 34.84C178.725 35.256 178.781 35.464 178.845 35.464C178.861 35.464 179.085 35.28 179.517 34.912C180.397 34.128 181.293 33.736 182.205 33.736C182.701 33.736 183.173 33.872 183.621 34.144C184.053 34.416 184.333 34.656 184.461 34.864L184.677 35.2L185.253 34.672C186.133 33.888 187.077 33.496 188.085 33.496C189.061 33.496 189.901 33.872 190.605 34.624C191.805 35.856 192.517 37.96 192.741 40.936C192.773 41.48 192.789 41.816 192.789 41.944C192.789 42.36 192.733 42.664 192.621 42.856C192.525 43.048 192.349 43.216 192.093 43.36C191.869 43.472 191.653 43.528 191.445 43.528C191.093 43.528 190.781 43.368 190.509 43.048C190.301 42.776 190.165 42.312 190.101 41.656C189.973 40.184 189.813 39.088 189.621 38.368C189.429 37.648 189.157 37.088 188.805 36.688C188.533 36.4 188.253 36.256 187.965 36.256C187.421 36.256 186.941 36.68 186.525 37.528C186.365 37.864 186.261 38.176 186.213 38.464C186.165 38.752 186.125 39.408 186.093 40.432C186.029 41.84 185.949 42.68 185.853 42.952C185.629 43.48 185.221 43.744 184.629 43.744C184.277 43.744 183.981 43.624 183.741 43.384C183.357 43 183.117 41.864 183.021 39.976C182.973 39.256 182.885 38.56 182.757 37.888C182.629 37.216 182.509 36.816 182.397 36.688C182.301 36.576 182.197 36.52 182.085 36.52C181.893 36.52 181.573 36.72 181.125 37.12C180.645 37.568 180.285 38.048 180.045 38.56C179.821 39.024 179.685 39.4 179.637 39.688C179.605 39.96 179.573 40.896 179.541 42.496C179.525 42.912 179.397 43.248 179.157 43.504C178.917 43.76 178.613 43.888 178.245 43.888C177.877 43.888 177.581 43.816 177.357 43.672C177.037 43.448 176.813 43.016 176.685 42.376C176.557 41.72 176.413 40.176 176.253 37.744C176.157 36.304 176.045 35.328 175.917 34.816C175.821 34.432 175.773 34.176 175.773 34.048C175.773 33.904 175.821 33.736 175.917 33.544C176.061 33.208 176.277 32.992 176.565 32.896ZM201.918 35.2C201.486 35.12 201.126 35.08 200.838 35.08C200.182 35.08 199.63 35.216 199.182 35.488C198.958 35.632 198.694 36.12 198.39 36.952C198.102 37.768 197.958 38.424 197.958 38.92C197.958 39.72 198.214 40.368 198.726 40.864C199.254 41.344 199.942 41.592 200.79 41.608C201.478 41.608 202.118 41.416 202.71 41.032C203.318 40.648 203.758 40.144 204.03 39.52C204.206 39.12 204.294 38.664 204.294 38.152C204.294 37.528 204.174 36.984 203.934 36.52C203.758 36.152 203.518 35.872 203.214 35.68C202.91 35.488 202.478 35.328 201.918 35.2ZM199.206 32.632C199.766 32.488 200.318 32.416 200.862 32.416C201.886 32.416 202.982 32.672 204.15 33.184C204.982 33.552 205.638 34.2 206.118 35.128C206.614 36.056 206.87 37.152 206.886 38.416V38.56C206.886 40.464 206.038 42.008 204.342 43.192C203.286 43.944 202.11 44.32 200.814 44.32C199.742 44.32 198.75 44.056 197.838 43.528C196.926 42.984 196.238 42.224 195.774 41.248C195.614 40.912 195.51 40.624 195.462 40.384C195.43 40.144 195.414 39.64 195.414 38.872C195.43 37.736 195.55 36.84 195.774 36.184C196.302 34.728 196.926 33.744 197.646 33.232C197.934 33.024 198.454 32.824 199.206 32.632ZM209.859 33.496C210.147 33.256 210.459 33.136 210.795 33.136C211.147 33.136 211.451 33.264 211.707 33.52C211.963 33.76 212.091 34.072 212.091 34.456C212.091 34.84 212.163 35.032 212.307 35.032C212.387 35.032 212.555 34.944 212.811 34.768C213.995 33.952 215.171 33.544 216.339 33.544C216.835 33.544 217.323 33.632 217.803 33.808C218.235 33.984 218.539 34.176 218.715 34.384C218.891 34.592 218.979 34.872 218.979 35.224C218.979 35.608 218.835 35.936 218.547 36.208C218.307 36.432 218.091 36.544 217.899 36.544C217.835 36.544 217.387 36.488 216.555 36.376C216.459 36.36 216.323 36.352 216.147 36.352C215.891 36.352 215.563 36.44 215.163 36.616C214.123 37.096 213.395 37.704 212.979 38.44C212.563 39.176 212.355 40.232 212.355 41.608C212.339 42.616 212.219 43.32 211.995 43.72C211.787 44.12 211.411 44.32 210.867 44.32C210.499 44.32 210.187 44.192 209.931 43.936L209.547 43.552L209.499 39.304C209.467 36.168 209.451 34.552 209.451 34.456C209.451 34.072 209.587 33.752 209.859 33.496ZM222.697 33.592C222.761 33.576 222.857 33.568 222.985 33.568C223.337 33.568 223.649 33.68 223.921 33.904C224.193 34.128 224.353 34.416 224.401 34.768C224.465 35.12 224.497 36.632 224.497 39.304L224.521 43.36L224.113 43.744C223.841 44.016 223.521 44.152 223.153 44.152C222.817 44.152 222.529 44.032 222.289 43.792C222.129 43.632 222.017 43.472 221.953 43.312C221.905 43.136 221.865 42.8 221.833 42.304C221.785 41.68 221.761 40.176 221.761 37.792L221.737 34.432L222.073 34.024C222.313 33.768 222.521 33.624 222.697 33.592ZM222.265 28.816C222.473 28.704 222.689 28.648 222.913 28.648C223.281 28.648 223.593 28.784 223.849 29.056C224.105 29.328 224.233 29.64 224.233 29.992C224.233 30.296 224.113 30.592 223.873 30.88C223.569 31.2 223.233 31.36 222.865 31.36C222.513 31.36 222.201 31.24 221.929 31C221.673 30.744 221.545 30.44 221.545 30.088C221.545 29.88 221.593 29.672 221.689 29.464C221.833 29.16 222.025 28.944 222.265 28.816ZM234.517 36.856C234.229 36.712 233.821 36.64 233.293 36.64C232.717 36.64 232.229 36.728 231.829 36.904C231.557 37.016 231.205 37.264 230.773 37.648C230.341 38.016 230.125 38.256 230.125 38.368C230.125 38.416 230.373 38.44 230.869 38.44C231.605 38.44 232.485 38.4 233.509 38.32C234.533 38.24 235.117 38.152 235.261 38.056C235.309 38.04 235.333 37.992 235.333 37.912C235.333 37.768 235.245 37.584 235.069 37.36C234.893 37.12 234.709 36.952 234.517 36.856ZM231.685 34.072C232.085 33.96 232.557 33.904 233.101 33.904C234.109 33.904 235.029 34.104 235.861 34.504C236.485 34.824 237.005 35.312 237.421 35.968C237.837 36.608 238.093 37.328 238.189 38.128C238.189 38.16 238.189 38.208 238.189 38.272C238.205 38.336 238.213 38.384 238.213 38.416C238.213 38.832 238.133 39.24 237.973 39.64C237.829 40.04 237.653 40.312 237.445 40.456C237.173 40.648 235.261 40.888 231.709 41.176C230.957 41.24 230.581 41.312 230.581 41.392C230.581 41.488 230.749 41.64 231.085 41.848C231.421 42.056 231.749 42.2 232.069 42.28C232.357 42.344 232.589 42.376 232.765 42.376C233.277 42.376 233.941 42.208 234.757 41.872C235.333 41.632 235.757 41.512 236.029 41.512C236.301 41.512 236.557 41.632 236.797 41.872C237.117 42.192 237.277 42.496 237.277 42.784C237.277 42.976 237.229 43.176 237.133 43.384C237.053 43.576 236.941 43.728 236.797 43.84C236.669 43.952 236.429 44.088 236.077 44.248C234.909 44.76 233.821 45.016 232.813 45.016C232.237 45.016 231.645 44.928 231.037 44.752C230.221 44.496 229.477 44.064 228.805 43.456C228.133 42.832 227.653 42.144 227.365 41.392C227.189 40.896 227.101 40.344 227.101 39.736C227.101 38.856 227.245 38.12 227.533 37.528C227.869 36.792 228.437 36.088 229.237 35.416C230.037 34.744 230.853 34.296 231.685 34.072ZM244.22 32.872C244.508 32.824 244.804 32.8 245.108 32.8C246.068 32.8 246.924 33.016 247.676 33.448C248.428 33.88 248.804 34.376 248.804 34.936C248.804 35.08 248.78 35.208 248.732 35.32C248.492 35.928 248.132 36.232 247.652 36.232C247.3 36.232 246.9 36.12 246.452 35.896C245.94 35.64 245.468 35.512 245.036 35.512C244.572 35.512 244.188 35.664 243.884 35.968C243.724 36.128 243.644 36.256 243.644 36.352C243.644 36.48 243.764 36.632 244.004 36.808C244.26 36.968 244.724 37.224 245.396 37.576C246.5 38.152 247.244 38.624 247.628 38.992C247.996 39.312 248.316 39.712 248.588 40.192C248.86 40.656 248.996 41.048 248.996 41.368C248.996 41.736 248.9 42.104 248.708 42.472C248.516 42.84 248.276 43.12 247.988 43.312C247.252 43.808 246.356 44.056 245.3 44.056C244.308 44.056 243.284 43.824 242.228 43.36C241.732 43.12 241.42 42.848 241.292 42.544C241.196 42.32 241.148 42.12 241.148 41.944C241.148 41.624 241.3 41.312 241.604 41.008C241.812 40.768 242.092 40.648 242.444 40.648C242.78 40.648 243.188 40.752 243.668 40.96C244.196 41.184 244.804 41.296 245.492 41.296C245.812 41.296 245.972 41.256 245.972 41.176C245.972 40.984 245.284 40.544 243.908 39.856C242.836 39.296 242.052 38.744 241.556 38.2C241.06 37.64 240.812 37.024 240.812 36.352C240.812 35.552 241.14 34.816 241.796 34.144C242.468 33.456 243.276 33.032 244.22 32.872ZM251.809 42.568C251.937 42.296 252.081 42.112 252.241 42.016C252.401 41.92 252.681 41.872 253.081 41.872C253.353 41.872 253.537 41.896 253.633 41.944C253.745 41.992 253.873 42.104 254.017 42.28C254.257 42.568 254.377 42.872 254.377 43.192C254.377 43.544 254.225 43.872 253.921 44.176C253.617 44.48 253.305 44.632 252.985 44.632C252.665 44.632 252.353 44.496 252.049 44.224C251.761 43.936 251.617 43.64 251.617 43.336C251.617 43.096 251.681 42.84 251.809 42.568Z" fill="#27263C"/>
</svg>
