<svg width="194" height="15" viewBox="0 0 194 15" fill="none" xmlns="http://www.w3.org/2000/svg">
<path d="M2.8 1.736C2.90667 1.68267 3.02933 1.656 3.168 1.656C3.34933 1.656 3.51467 1.70933 3.664 1.816C3.81333 1.92267 3.91467 2.072 3.968 2.264C4.01067 2.392 4.032 2.47733 4.032 2.52C4.032 2.62667 3.84 3.02667 3.456 3.72C2.93333 4.62667 2.672 5.784 2.672 7.192C2.672 7.256 2.672 7.35733 2.672 7.496C2.68267 7.624 2.688 7.72533 2.688 7.8C2.72 8.6 2.8 9.256 2.928 9.768C3.03467 10.1947 3.232 10.712 3.52 11.32C3.81867 11.928 4.08533 12.3867 4.32 12.696C4.58667 13.0267 4.72 13.3147 4.72 13.56C4.72 13.72 4.67733 13.8587 4.592 13.976C4.41067 14.264 4.16533 14.408 3.856 14.408C3.74933 14.408 3.632 14.3813 3.504 14.328C3.09867 14.1573 2.64 13.592 2.128 12.632C1.616 11.672 1.25333 10.6907 1.04 9.688C0.912 9.10133 0.848 8.392 0.848 7.56C0.848 6.42933 0.954667 5.448 1.168 4.616C1.328 3.98667 1.57333 3.37867 1.904 2.792C2.24533 2.20533 2.544 1.85333 2.8 1.736ZM12.1351 6.616C11.8258 6.30667 11.3458 6.152 10.6951 6.152C10.3751 6.152 10.0925 6.20533 9.84713 6.312C9.61246 6.41867 9.35646 6.62667 9.07913 6.936C8.80179 7.24533 8.62046 7.528 8.53513 7.784C8.43913 8.06133 8.39113 8.32267 8.39113 8.568C8.39113 9.13333 8.61513 9.53333 9.06313 9.768C9.32979 9.90667 9.67646 9.976 10.1031 9.976C10.3911 9.976 10.6098 9.93867 10.7591 9.864C11.6231 9.42667 12.1511 8.64267 12.3431 7.512L12.4391 6.904L12.1351 6.616ZM9.70312 4.44C9.95913 4.36533 10.2578 4.328 10.5991 4.328C11.1751 4.328 11.7405 4.42933 12.2951 4.632C12.8498 4.83467 13.2338 5.09067 13.4471 5.4C13.5965 5.61333 13.7885 5.83733 14.0231 6.072C14.2791 6.33867 14.5138 6.79733 14.7271 7.448C14.9298 8.06667 15.1165 8.75467 15.2871 9.512C15.4685 10.2693 15.5591 10.7813 15.5591 11.048C15.5591 11.3147 15.4791 11.5227 15.3191 11.672C15.1165 11.864 14.9245 11.96 14.7431 11.96C14.6685 11.96 14.5725 11.944 14.4551 11.912C14.2525 11.8373 14.0925 11.7093 13.9751 11.528C13.8685 11.3467 13.7725 11.0533 13.6871 10.648C13.5805 10.168 13.5218 9.928 13.5111 9.928C13.4685 9.928 13.2445 10.1307 12.8391 10.536C12.0391 11.3147 11.2071 11.736 10.3431 11.8H10.1191C9.59646 11.8 9.08446 11.7093 8.58313 11.528C8.09246 11.3467 7.70313 11.1067 7.41513 10.808C7.26579 10.6587 7.11646 10.4347 6.96713 10.136C6.81779 9.82667 6.71646 9.544 6.66313 9.288C6.60979 9.02133 6.58313 8.78133 6.58313 8.568C6.58313 7.68267 6.88179 6.83467 7.47913 6.024C8.08713 5.21333 8.82846 4.68533 9.70312 4.44ZM17.7648 4.536C17.8928 4.472 18.0261 4.44 18.1648 4.44C18.3568 4.44 18.5381 4.504 18.7088 4.632C18.8794 4.74933 18.9968 4.90933 19.0608 5.112L19.1568 5.448L19.5568 5.208C19.8234 5.048 20.1914 4.968 20.6608 4.968C21.1194 4.968 21.4981 5.04267 21.7968 5.192C22.0421 5.30933 22.3034 5.50133 22.5808 5.768C22.8688 6.03467 23.0981 6.30133 23.2688 6.568C23.8448 7.47467 24.1594 8.88267 24.2128 10.792V11.112C24.2128 11.368 24.1381 11.576 23.9888 11.736C23.8074 11.9173 23.5941 12.008 23.3488 12.008C22.9541 12.008 22.6928 11.8373 22.5648 11.496C22.5008 11.3147 22.4474 10.9573 22.4048 10.424C22.2768 8.55733 21.8608 7.38933 21.1568 6.92C21.0074 6.824 20.8581 6.776 20.7088 6.776C20.4314 6.776 20.1808 6.93067 19.9568 7.24C19.7434 7.53867 19.5728 7.96533 19.4448 8.52C19.3914 8.76533 19.3274 9.208 19.2528 9.848C19.1781 10.488 19.1408 10.92 19.1408 11.144C19.1408 11.2507 19.0501 11.3947 18.8688 11.576C18.6874 11.7467 18.4794 11.832 18.2448 11.832C17.8074 11.832 17.5194 11.6027 17.3808 11.144C17.3168 10.92 17.2848 9.94933 17.2848 8.232C17.2848 6.184 17.3221 5.06933 17.3968 4.888C17.4608 4.74933 17.5834 4.632 17.7648 4.536ZM30.0054 6.936C29.9094 6.81867 29.744 6.76 29.5094 6.76C29.3174 6.76 29.1254 6.808 28.9334 6.904C28.6454 7.04267 28.3734 7.336 28.1174 7.784C27.8614 8.232 27.7334 8.62667 27.7334 8.968C27.7334 9.07467 27.7494 9.16533 27.7814 9.24C27.856 9.41067 28.0374 9.57067 28.3254 9.72C28.6134 9.85867 28.8854 9.928 29.1414 9.928C29.1947 9.928 29.2747 9.91733 29.3814 9.896C29.6267 9.82133 29.872 9.61867 30.1174 9.288C30.3734 8.94667 30.5707 8.54667 30.7094 8.088C30.7947 7.81067 30.8374 7.624 30.8374 7.528C30.8374 7.37867 30.7254 7.272 30.5014 7.208C30.2454 7.112 30.08 7.02133 30.0054 6.936ZM31.3014 1.352C31.3974 1.30933 31.5094 1.288 31.6374 1.288C32.0427 1.288 32.3147 1.464 32.4534 1.816C32.5174 1.976 32.6187 2.62133 32.7574 3.752C32.8854 4.936 32.96 5.60267 32.9814 5.752C33.4187 8.92 33.6374 10.7333 33.6374 11.192C33.6374 11.4053 33.5467 11.592 33.3654 11.752C33.1947 11.912 32.9974 11.992 32.7734 11.992C32.464 11.992 32.224 11.88 32.0534 11.656C31.8827 11.4213 31.7974 11.1067 31.7974 10.712C31.7974 10.5413 31.776 10.4347 31.7334 10.392H31.7174C31.6534 10.392 31.456 10.5467 31.1254 10.856C30.7734 11.208 30.432 11.4427 30.1014 11.56C29.8027 11.6773 29.4614 11.736 29.0774 11.736C28.512 11.736 27.968 11.5973 27.4454 11.32C26.9227 11.032 26.5174 10.6533 26.2294 10.184C26.1227 10.0027 26.0534 9.848 26.0214 9.72C26 9.58133 25.9894 9.32 25.9894 8.936C26 8.44533 26.0587 8.03467 26.1654 7.704C26.272 7.37333 26.4694 6.98933 26.7574 6.552C26.96 6.24267 27.248 5.944 27.6214 5.656C27.9947 5.368 28.32 5.18133 28.5974 5.096C28.8747 5.02133 29.168 4.984 29.4774 4.984C29.8614 4.984 30.1974 5.032 30.4854 5.128C30.7947 5.224 30.96 5.272 30.9814 5.272C31.0027 5.272 31.0134 5.208 31.0134 5.08C31.0134 4.728 30.9707 4.28533 30.8854 3.752C30.8107 3.31467 30.7734 2.92 30.7734 2.568C30.7734 1.90667 30.9494 1.50133 31.3014 1.352ZM47.1165 7.576C46.9138 7.32 46.6258 7.10667 46.2525 6.936C45.8792 6.76533 45.4472 6.68 44.9565 6.68C44.6578 6.68 44.4285 6.71733 44.2685 6.792C44.0978 6.86667 43.9325 7.03733 43.7725 7.304C43.6232 7.56 43.5485 7.87467 43.5485 8.248V8.52C43.5805 9.27733 43.6018 9.72533 43.6125 9.864L43.6765 10.376L44.0605 10.44C44.2098 10.4613 44.3325 10.472 44.4285 10.472C45.0578 10.472 45.6285 10.3493 46.1405 10.104C46.3965 9.98667 46.6418 9.79467 46.8765 9.528C47.1218 9.25067 47.2872 8.97867 47.3725 8.712C47.4152 8.56267 47.4365 8.44533 47.4365 8.36C47.4365 8.08267 47.3298 7.82133 47.1165 7.576ZM42.0765 1.208C42.1832 1.15467 42.3112 1.128 42.4605 1.128C42.7165 1.128 42.9405 1.224 43.1325 1.416C43.2498 1.53333 43.3192 1.67733 43.3405 1.848C43.3725 2.008 43.4152 2.51467 43.4685 3.368C43.5218 4.488 43.5592 5.05867 43.5805 5.08H43.5965C43.6498 5.08 43.8365 5.04267 44.1565 4.968C44.5298 4.88267 44.8552 4.84 45.1325 4.84C45.6658 4.84 46.3165 5.016 47.0845 5.368C47.9592 5.77333 48.5725 6.33867 48.9245 7.064C49.0312 7.288 49.0952 7.47467 49.1165 7.624C49.1485 7.77333 49.1645 8.024 49.1645 8.376C49.1645 8.728 49.1485 8.97867 49.1165 9.128C49.0845 9.26667 48.9992 9.48 48.8605 9.768C48.5512 10.3653 48.1245 10.872 47.5805 11.288C47.0365 11.704 46.4338 11.9813 45.7725 12.12C45.3885 12.2053 44.9885 12.248 44.5725 12.248C44.1778 12.248 43.7138 12.2107 43.1805 12.136C42.7752 12.072 42.5085 12.0187 42.3805 11.976C42.2525 11.9333 42.1352 11.8533 42.0285 11.736L41.7885 11.48V8.984C41.7885 7.48 41.7565 5.85333 41.6925 4.104C41.6605 3.28267 41.6445 2.69067 41.6445 2.328C41.6445 1.90133 41.6712 1.62933 41.7245 1.512C41.7778 1.39467 41.8952 1.29333 42.0765 1.208ZM56.4789 6.616C56.1695 6.30667 55.6895 6.152 55.0389 6.152C54.7189 6.152 54.4362 6.20533 54.1909 6.312C53.9562 6.41867 53.7002 6.62667 53.4229 6.936C53.1455 7.24533 52.9642 7.528 52.8789 7.784C52.7829 8.06133 52.7349 8.32267 52.7349 8.568C52.7349 9.13333 52.9589 9.53333 53.4069 9.768C53.6735 9.90667 54.0202 9.976 54.4469 9.976C54.7349 9.976 54.9535 9.93867 55.1029 9.864C55.9669 9.42667 56.4949 8.64267 56.6869 7.512L56.7829 6.904L56.4789 6.616ZM54.0469 4.44C54.3029 4.36533 54.6015 4.328 54.9429 4.328C55.5189 4.328 56.0842 4.42933 56.6389 4.632C57.1935 4.83467 57.5775 5.09067 57.7909 5.4C57.9402 5.61333 58.1322 5.83733 58.3669 6.072C58.6229 6.33867 58.8575 6.79733 59.0709 7.448C59.2735 8.06667 59.4602 8.75467 59.6309 9.512C59.8122 10.2693 59.9029 10.7813 59.9029 11.048C59.9029 11.3147 59.8229 11.5227 59.6629 11.672C59.4602 11.864 59.2682 11.96 59.0869 11.96C59.0122 11.96 58.9162 11.944 58.7989 11.912C58.5962 11.8373 58.4362 11.7093 58.3189 11.528C58.2122 11.3467 58.1162 11.0533 58.0309 10.648C57.9242 10.168 57.8655 9.928 57.8549 9.928C57.8122 9.928 57.5882 10.1307 57.1829 10.536C56.3829 11.3147 55.5509 11.736 54.6869 11.8H54.4629C53.9402 11.8 53.4282 11.7093 52.9269 11.528C52.4362 11.3467 52.0469 11.1067 51.7589 10.808C51.6095 10.6587 51.4602 10.4347 51.3109 10.136C51.1615 9.82667 51.0602 9.544 51.0069 9.288C50.9535 9.02133 50.9269 8.78133 50.9269 8.568C50.9269 7.68267 51.2255 6.83467 51.8229 6.024C52.4309 5.21333 53.1722 4.68533 54.0469 4.44ZM63.7245 4.696C63.8952 4.632 64.1618 4.6 64.5245 4.6C64.7165 4.6 64.8712 4.60533 64.9885 4.616C65.4152 4.62667 65.7085 4.65333 65.8685 4.696C66.0285 4.728 66.2418 4.808 66.5085 4.936C67.2658 5.32 67.6445 5.784 67.6445 6.328C67.6445 6.44533 67.6072 6.58933 67.5325 6.76C67.3725 7.06933 67.1272 7.224 66.7965 7.224C66.4978 7.224 66.2258 7.08533 65.9805 6.808C65.8632 6.68 65.7565 6.59467 65.6605 6.552C65.5645 6.49867 65.4098 6.456 65.1965 6.424C64.9832 6.40267 64.8392 6.392 64.7645 6.392C64.3912 6.392 64.1192 6.50933 63.9485 6.744C63.6498 7.18133 63.5005 7.656 63.5005 8.168C63.5005 8.72267 63.6712 9.19733 64.0125 9.592C64.3538 9.976 64.8018 10.168 65.3565 10.168C65.5698 10.168 65.8685 10.1147 66.2525 10.008C66.6365 9.89067 66.8925 9.784 67.0205 9.688C67.1272 9.60267 67.3138 9.56 67.5805 9.56C67.8365 9.56 68.0445 9.64 68.2045 9.8C68.3752 9.96 68.4605 10.1627 68.4605 10.408C68.4605 10.632 68.4072 10.8133 68.3005 10.952C68.1938 11.0907 67.9912 11.2347 67.6925 11.384C66.9245 11.768 66.1565 11.96 65.3885 11.96C64.1192 11.96 63.1538 11.5067 62.4925 10.6C61.9592 9.87467 61.6925 9.08 61.6925 8.216C61.6925 7.68267 61.7992 7.12267 62.0125 6.536C62.1725 6.12 62.4072 5.74133 62.7165 5.4C63.0365 5.05867 63.3725 4.824 63.7245 4.696ZM70.367 1.96C70.5377 1.61867 70.783 1.448 71.103 1.448C71.2417 1.448 71.3803 1.48533 71.519 1.56C71.7003 1.656 71.823 1.77333 71.887 1.912C71.951 2.05067 71.9937 2.296 72.015 2.648C72.0363 2.98933 72.047 3.62933 72.047 4.568C72.047 6.14667 72.0683 6.936 72.111 6.936C72.1963 6.936 72.5057 6.66933 73.039 6.136C73.5723 5.592 73.9083 5.208 74.047 4.984C74.3457 4.504 74.6657 4.264 75.007 4.264C75.2203 4.264 75.4337 4.36 75.647 4.552C75.7963 4.70133 75.871 4.87733 75.871 5.08C75.871 5.688 75.295 6.51467 74.143 7.56C73.6737 7.98667 73.439 8.216 73.439 8.248C73.439 8.30133 73.6203 8.43467 73.983 8.648C74.3563 8.872 74.927 9.27733 75.695 9.864C76.4737 10.44 76.8897 10.776 76.943 10.872C77.007 11 77.039 11.128 77.039 11.256C77.039 11.4907 76.9537 11.704 76.783 11.896C76.6123 12.0773 76.4043 12.168 76.159 12.168C75.9777 12.168 75.759 12.0933 75.503 11.944C75.2577 11.784 74.7617 11.416 74.015 10.84C73.663 10.5627 73.3057 10.3227 72.943 10.12C72.5803 9.91733 72.335 9.816 72.207 9.816C72.1323 9.816 72.0843 9.864 72.063 9.96C72.0523 10.056 72.047 10.3547 72.047 10.856C72.047 11.3573 72.0363 11.672 72.015 11.8C71.9937 11.9173 71.9243 12.0293 71.807 12.136C71.6363 12.296 71.4337 12.376 71.199 12.376C70.943 12.376 70.7243 12.28 70.543 12.088L70.319 11.848L70.271 9.464C70.2283 7.71467 70.207 6.11467 70.207 4.664C70.207 3.59733 70.2123 2.91467 70.223 2.616C70.2443 2.31733 70.2923 2.09867 70.367 1.96ZM86.2034 0.759999C86.3847 0.578666 86.6034 0.487999 86.8594 0.487999C87.0514 0.487999 87.222 0.546666 87.3714 0.664C87.5314 0.770666 87.6434 0.925333 87.7074 1.128C87.7394 1.24533 87.7927 1.8 87.8674 2.792C87.942 3.77333 87.9794 4.456 87.9794 4.84C87.9794 4.936 88.0007 4.99467 88.0434 5.016C88.0967 5.03733 88.2194 5.048 88.4114 5.048C88.6994 5.048 88.8647 5.016 88.9074 4.952C88.9287 4.89867 89.1474 4.872 89.5634 4.872C90.0967 4.872 90.4487 4.90933 90.6194 4.984C90.7794 5.05867 90.902 5.20267 90.9874 5.416C91.062 5.56533 91.0994 5.688 91.0994 5.784C91.0994 5.85867 91.0834 5.94933 91.0514 6.056C90.9767 6.30133 90.838 6.46667 90.6354 6.552C90.4434 6.62667 90.0594 6.68 89.4834 6.712C88.8327 6.744 88.4114 6.78667 88.2194 6.84L87.9634 6.904L88.0274 9.16C88.0487 10.1627 88.0594 10.7013 88.0594 10.776C88.0594 11.2453 88.022 11.56 87.9474 11.72C87.7874 12.0613 87.526 12.232 87.1634 12.232C87.0247 12.232 86.8807 12.2 86.7314 12.136C86.614 12.0827 86.5287 12.0347 86.4754 11.992C86.422 11.9387 86.374 11.8053 86.3314 11.592C86.2887 11.368 86.262 11.1067 86.2514 10.808C86.2407 10.5093 86.23 10.0187 86.2194 9.336L86.1874 7.016L85.7074 7.032C85.4194 7.05333 85.1634 7.096 84.9394 7.16C84.886 7.18133 84.8007 7.192 84.6834 7.192C84.3207 7.192 84.0594 7.08 83.8994 6.856C83.814 6.71733 83.7714 6.53067 83.7714 6.296C83.7714 6.09333 83.8034 5.93333 83.8674 5.816C84.0167 5.54933 84.5394 5.34667 85.4354 5.208L86.1714 5.096L86.1074 3.688C86.0647 2.68533 86.0274 2.00267 85.9954 1.64C85.974 1.384 85.9634 1.24533 85.9634 1.224C85.9634 1.07467 86.0434 0.919999 86.2034 0.759999ZM93.2476 0.775999C93.429 0.626666 93.6156 0.551999 93.8076 0.551999C94.1916 0.551999 94.4743 0.786666 94.6556 1.256C94.7303 1.46933 94.8103 1.98133 94.8956 2.792C94.981 3.592 95.0503 4.33867 95.1036 5.032C95.157 5.71467 95.189 6.056 95.1996 6.056C95.221 6.056 95.397 5.93867 95.7276 5.704C96.3783 5.24533 96.997 5.016 97.5836 5.016C98.1276 5.016 98.6023 5.21867 99.0076 5.624C99.4236 6.01867 99.749 6.6 99.9836 7.368C100.165 7.96533 100.256 8.89333 100.256 10.152C100.256 10.9413 100.208 11.4747 100.112 11.752C100.005 12.04 99.7596 12.184 99.3756 12.184C99.1196 12.184 98.9063 12.0987 98.7356 11.928L98.4956 11.688L98.4476 10.072C98.3836 7.992 98.0956 6.92 97.5836 6.856H97.5356C97.2903 6.856 96.9863 6.99467 96.6236 7.272C96.261 7.53867 95.9996 7.832 95.8396 8.152C95.7436 8.36533 95.6156 8.52 95.4556 8.616L95.2476 8.76L95.2156 10.504C95.1943 11.3573 95.173 11.8747 95.1516 12.056C95.141 12.2267 95.0823 12.3653 94.9756 12.472C94.805 12.6533 94.5916 12.744 94.3356 12.744C93.9516 12.744 93.685 12.5733 93.5356 12.232C93.461 12.0293 93.4076 10.8027 93.3756 8.552C93.3223 4.78667 93.1836 2.53067 92.9596 1.784C92.9276 1.66667 92.9116 1.55467 92.9116 1.448C92.9116 1.17067 93.0236 0.946666 93.2476 0.775999ZM106.613 6.84C106.56 6.66933 106.512 6.57333 106.469 6.552C106.426 6.52 106.309 6.504 106.117 6.504C105.562 6.51467 105.045 6.776 104.565 7.288C104.085 7.78933 103.845 8.296 103.845 8.808C103.845 9.064 103.914 9.27733 104.053 9.448C104.362 9.78933 104.688 9.96 105.029 9.96C105.05 9.96 105.072 9.96 105.093 9.96C105.114 9.94933 105.136 9.944 105.157 9.944C105.349 9.90133 105.552 9.77333 105.765 9.56C105.989 9.34667 106.16 9.112 106.277 8.856C106.522 8.28 106.645 7.72 106.645 7.176C106.645 7.016 106.634 6.904 106.613 6.84ZM105.125 4.824C105.413 4.728 105.744 4.68 106.117 4.68C106.608 4.68 107.024 4.76 107.365 4.92C107.589 5.03733 107.792 5.21333 107.973 5.448C108.165 5.672 108.282 5.88533 108.325 6.088C108.368 6.29067 108.426 6.48267 108.501 6.664C108.618 6.97333 108.853 8.136 109.205 10.152C109.258 10.472 109.285 10.712 109.285 10.872C109.285 11.512 108.986 11.832 108.389 11.832C108.186 11.832 108 11.752 107.829 11.592C107.669 11.432 107.568 11.2347 107.525 11C107.482 10.7867 107.445 10.664 107.413 10.632C107.37 10.6 107.248 10.6853 107.045 10.888C106.437 11.496 105.738 11.8 104.949 11.8C104.81 11.8 104.666 11.784 104.517 11.752C103.93 11.624 103.381 11.304 102.869 10.792C102.293 10.216 102.005 9.57067 102.005 8.856C102.005 8.29067 102.181 7.67733 102.533 7.016C102.8 6.51467 103.162 6.06667 103.621 5.672C104.09 5.27733 104.592 4.99467 105.125 4.824ZM113.516 0.759999C113.697 0.578666 113.916 0.487999 114.172 0.487999C114.364 0.487999 114.535 0.546666 114.684 0.664C114.844 0.770666 114.956 0.925333 115.02 1.128C115.052 1.24533 115.105 1.8 115.18 2.792C115.255 3.77333 115.292 4.456 115.292 4.84C115.292 4.936 115.313 4.99467 115.356 5.016C115.409 5.03733 115.532 5.048 115.724 5.048C116.012 5.048 116.177 5.016 116.22 4.952C116.241 4.89867 116.46 4.872 116.876 4.872C117.409 4.872 117.761 4.90933 117.932 4.984C118.092 5.05867 118.215 5.20267 118.3 5.416C118.375 5.56533 118.412 5.688 118.412 5.784C118.412 5.85867 118.396 5.94933 118.364 6.056C118.289 6.30133 118.151 6.46667 117.948 6.552C117.756 6.62667 117.372 6.68 116.796 6.712C116.145 6.744 115.724 6.78667 115.532 6.84L115.276 6.904L115.34 9.16C115.361 10.1627 115.372 10.7013 115.372 10.776C115.372 11.2453 115.335 11.56 115.26 11.72C115.1 12.0613 114.839 12.232 114.476 12.232C114.337 12.232 114.193 12.2 114.044 12.136C113.927 12.0827 113.841 12.0347 113.788 11.992C113.735 11.9387 113.687 11.8053 113.644 11.592C113.601 11.368 113.575 11.1067 113.564 10.808C113.553 10.5093 113.543 10.0187 113.532 9.336L113.5 7.016L113.02 7.032C112.732 7.05333 112.476 7.096 112.252 7.16C112.199 7.18133 112.113 7.192 111.996 7.192C111.633 7.192 111.372 7.08 111.212 6.856C111.127 6.71733 111.084 6.53067 111.084 6.296C111.084 6.09333 111.116 5.93333 111.18 5.816C111.329 5.54933 111.852 5.34667 112.748 5.208L113.484 5.096L113.42 3.688C113.377 2.68533 113.34 2.00267 113.308 1.64C113.287 1.384 113.276 1.24533 113.276 1.224C113.276 1.07467 113.356 0.919999 113.516 0.759999ZM126.843 4.104C127.035 4.05067 127.333 4.024 127.739 4.024C128.592 4.024 129.211 4.088 129.595 4.216C130.128 4.38667 130.395 4.68 130.395 5.096C130.395 5.34133 130.277 5.56533 130.043 5.768C129.883 5.91733 129.728 5.992 129.579 5.992C129.568 5.992 129.547 5.992 129.515 5.992C129.483 5.98133 129.456 5.976 129.435 5.976C128.731 5.85867 128.176 5.8 127.771 5.8C127.643 5.8 127.525 5.81067 127.419 5.832C127.088 5.91733 126.923 6.072 126.923 6.296C126.923 6.33867 126.928 6.37067 126.939 6.392C127.013 6.60533 127.435 6.872 128.203 7.192C129.579 7.768 130.427 8.48267 130.747 9.336C130.843 9.592 130.891 9.832 130.891 10.056C130.891 10.4507 130.747 10.7867 130.459 11.064C130.181 11.3413 129.787 11.528 129.275 11.624C129.061 11.6667 128.709 11.688 128.219 11.688C127.323 11.688 126.752 11.6347 126.507 11.528C126.368 11.464 126.251 11.3573 126.155 11.208C126.059 11.048 126.011 10.8933 126.011 10.744C126.011 10.584 126.064 10.424 126.171 10.264C126.277 10.0933 126.405 9.976 126.555 9.912C126.693 9.85867 126.859 9.832 127.051 9.832C127.125 9.832 127.291 9.84267 127.547 9.864C127.717 9.88533 127.947 9.896 128.235 9.896C128.683 9.896 128.907 9.84267 128.907 9.736C128.907 9.544 128.443 9.256 127.515 8.872C126.683 8.50933 126.069 8.13067 125.675 7.736C125.291 7.33067 125.099 6.872 125.099 6.36C125.099 6.27467 125.109 6.14667 125.131 5.976C125.216 5.45333 125.429 5.03733 125.771 4.728C126.048 4.45067 126.405 4.24267 126.843 4.104ZM133.013 0.775999C133.195 0.626666 133.381 0.551999 133.573 0.551999C133.957 0.551999 134.24 0.786666 134.421 1.256C134.496 1.46933 134.576 1.98133 134.661 2.792C134.747 3.592 134.816 4.33867 134.869 5.032C134.923 5.71467 134.955 6.056 134.965 6.056C134.987 6.056 135.163 5.93867 135.493 5.704C136.144 5.24533 136.763 5.016 137.349 5.016C137.893 5.016 138.368 5.21867 138.773 5.624C139.189 6.01867 139.515 6.6 139.749 7.368C139.931 7.96533 140.021 8.89333 140.021 10.152C140.021 10.9413 139.973 11.4747 139.877 11.752C139.771 12.04 139.525 12.184 139.141 12.184C138.885 12.184 138.672 12.0987 138.501 11.928L138.261 11.688L138.213 10.072C138.149 7.992 137.861 6.92 137.349 6.856H137.301C137.056 6.856 136.752 6.99467 136.389 7.272C136.027 7.53867 135.765 7.832 135.605 8.152C135.509 8.36533 135.381 8.52 135.221 8.616L135.013 8.76L134.981 10.504C134.96 11.3573 134.939 11.8747 134.917 12.056C134.907 12.2267 134.848 12.3653 134.741 12.472C134.571 12.6533 134.357 12.744 134.101 12.744C133.717 12.744 133.451 12.5733 133.301 12.232C133.227 12.0293 133.173 10.8027 133.141 8.552C133.088 4.78667 132.949 2.53067 132.725 1.784C132.693 1.66667 132.677 1.55467 132.677 1.448C132.677 1.17067 132.789 0.946666 133.013 0.775999ZM142.491 4.728C142.533 4.71733 142.597 4.712 142.683 4.712C142.917 4.712 143.125 4.78667 143.307 4.936C143.488 5.08533 143.595 5.27733 143.627 5.512C143.669 5.74667 143.691 6.75467 143.691 8.536L143.707 11.24L143.435 11.496C143.253 11.6773 143.04 11.768 142.795 11.768C142.571 11.768 142.379 11.688 142.219 11.528C142.112 11.4213 142.037 11.3147 141.995 11.208C141.963 11.0907 141.936 10.8667 141.915 10.536C141.883 10.12 141.867 9.11733 141.867 7.528L141.851 5.288L142.075 5.016C142.235 4.84533 142.373 4.74933 142.491 4.728ZM142.203 1.544C142.341 1.46933 142.485 1.432 142.635 1.432C142.88 1.432 143.088 1.52267 143.259 1.704C143.429 1.88533 143.515 2.09333 143.515 2.328C143.515 2.53067 143.435 2.728 143.275 2.92C143.072 3.13333 142.848 3.24 142.603 3.24C142.368 3.24 142.16 3.16 141.979 3C141.808 2.82933 141.723 2.62667 141.723 2.392C141.723 2.25333 141.755 2.11467 141.819 1.976C141.915 1.77333 142.043 1.62933 142.203 1.544ZM147.891 0.759999C148.072 0.578666 148.291 0.487999 148.547 0.487999C148.739 0.487999 148.91 0.546666 149.059 0.664C149.219 0.770666 149.331 0.925333 149.395 1.128C149.427 1.24533 149.48 1.8 149.555 2.792C149.63 3.77333 149.667 4.456 149.667 4.84C149.667 4.936 149.688 4.99467 149.731 5.016C149.784 5.03733 149.907 5.048 150.099 5.048C150.387 5.048 150.552 5.016 150.595 4.952C150.616 4.89867 150.835 4.872 151.251 4.872C151.784 4.872 152.136 4.90933 152.307 4.984C152.467 5.05867 152.59 5.20267 152.675 5.416C152.75 5.56533 152.787 5.688 152.787 5.784C152.787 5.85867 152.771 5.94933 152.739 6.056C152.664 6.30133 152.526 6.46667 152.323 6.552C152.131 6.62667 151.747 6.68 151.171 6.712C150.52 6.744 150.099 6.78667 149.907 6.84L149.651 6.904L149.715 9.16C149.736 10.1627 149.747 10.7013 149.747 10.776C149.747 11.2453 149.71 11.56 149.635 11.72C149.475 12.0613 149.214 12.232 148.851 12.232C148.712 12.232 148.568 12.2 148.419 12.136C148.302 12.0827 148.216 12.0347 148.163 11.992C148.11 11.9387 148.062 11.8053 148.019 11.592C147.976 11.368 147.95 11.1067 147.939 10.808C147.928 10.5093 147.918 10.0187 147.907 9.336L147.875 7.016L147.395 7.032C147.107 7.05333 146.851 7.096 146.627 7.16C146.574 7.18133 146.488 7.192 146.371 7.192C146.008 7.192 145.747 7.08 145.587 6.856C145.502 6.71733 145.459 6.53067 145.459 6.296C145.459 6.09333 145.491 5.93333 145.555 5.816C145.704 5.54933 146.227 5.34667 147.123 5.208L147.859 5.096L147.795 3.688C147.752 2.68533 147.715 2.00267 147.683 1.64C147.662 1.384 147.651 1.24533 147.651 1.224C147.651 1.07467 147.731 0.919999 147.891 0.759999ZM159.448 4.44C159.619 4.25867 159.827 4.168 160.072 4.168C160.531 4.168 160.824 4.34933 160.952 4.712C161.016 4.92533 161.048 5.54933 161.048 6.584C161.048 7.62933 161.08 8.312 161.144 8.632C161.304 9.368 161.629 9.736 162.12 9.736C162.216 9.736 162.317 9.72 162.424 9.688C162.573 9.64533 162.765 9.50133 163 9.256C163.245 9.01067 163.421 8.78667 163.528 8.584C163.72 8.18933 163.891 7.40533 164.04 6.232C164.147 5.432 164.312 4.94667 164.536 4.776C164.685 4.65867 164.851 4.6 165.032 4.6C165.235 4.6 165.421 4.67467 165.592 4.824C165.773 4.96267 165.896 5.144 165.96 5.368C166.013 5.60267 166.104 6.44 166.232 7.88C166.371 9.30933 166.44 10.2213 166.44 10.616V10.744C166.397 10.9467 166.296 11.1067 166.136 11.224C165.976 11.3413 165.8 11.4 165.608 11.4C165.427 11.4 165.251 11.3467 165.08 11.24C164.92 11.1333 164.808 10.9787 164.744 10.776C164.659 10.5307 164.611 10.408 164.6 10.408C164.557 10.408 164.376 10.5307 164.056 10.776C163.416 11.288 162.787 11.544 162.168 11.544H162.12C161.608 11.544 161.149 11.4213 160.744 11.176C160.339 10.9307 160.019 10.584 159.784 10.136C159.56 9.688 159.416 9.28267 159.352 8.92C159.288 8.54667 159.251 7.82667 159.24 6.76L159.192 4.728L159.448 4.44ZM173.153 7.064C173.014 6.72267 172.833 6.48267 172.609 6.344C172.385 6.20533 172.113 6.136 171.793 6.136C171.451 6.136 171.115 6.21067 170.785 6.36C170.486 6.488 170.315 6.61067 170.273 6.728C170.241 6.81333 170.177 6.91467 170.081 7.032C169.953 7.18133 169.889 7.70933 169.889 8.616C169.889 8.91467 169.899 9.11733 169.921 9.224L169.985 9.608L170.481 9.736C170.779 9.81067 171.078 9.848 171.377 9.848C171.867 9.848 172.283 9.74667 172.625 9.544C172.977 9.33067 173.201 9.03733 173.297 8.664C173.339 8.504 173.361 8.31733 173.361 8.104C173.361 7.74133 173.291 7.39467 173.153 7.064ZM171.153 4.36C171.281 4.33867 171.409 4.328 171.536 4.328C172.155 4.328 172.683 4.408 173.121 4.568C173.558 4.73867 173.942 5.03733 174.273 5.464C174.614 5.89067 174.859 6.38133 175.009 6.936C175.083 7.224 175.121 7.57067 175.121 7.976C175.121 8.62667 175.041 9.16 174.881 9.576C174.678 10.0987 174.337 10.536 173.857 10.888C173.387 11.24 172.838 11.4693 172.209 11.576C171.985 11.608 171.707 11.624 171.377 11.624C170.811 11.624 170.411 11.5867 170.177 11.512C170.113 11.4907 170.075 11.48 170.065 11.48C170.011 11.48 169.985 11.528 169.985 11.624C169.985 11.6453 169.995 11.7733 170.017 12.008C170.027 12.1147 170.049 12.5307 170.081 13.256V13.528C170.081 13.72 170.065 13.8533 170.033 13.928C170.001 14.0027 169.931 14.0933 169.825 14.2C169.654 14.3707 169.441 14.456 169.185 14.456C169.035 14.456 168.897 14.424 168.769 14.36C168.587 14.264 168.459 14.0827 168.385 13.816C168.321 13.5493 168.267 13 168.225 12.168C168.161 11.1227 168.129 9.76267 168.129 8.088C168.129 6.11467 168.166 5.05333 168.241 4.904C168.411 4.57333 168.683 4.408 169.057 4.408C169.259 4.408 169.435 4.46667 169.585 4.584L169.809 4.76L170.401 4.6C170.497 4.568 170.598 4.536 170.705 4.504C170.811 4.46133 170.907 4.42933 170.993 4.408C171.078 4.38667 171.131 4.37067 171.153 4.36ZM177.392 10.072C177.595 9.95467 177.781 9.896 177.952 9.896C178.197 9.896 178.437 10.0027 178.672 10.216C178.981 10.4933 179.136 10.7707 179.136 11.048C179.136 11.208 179.099 11.384 179.024 11.576C178.843 12.088 178.533 12.344 178.096 12.344C177.904 12.344 177.659 12.2747 177.36 12.136C177.019 11.9547 176.848 11.624 176.848 11.144C176.848 10.664 177.029 10.3067 177.392 10.072ZM177.712 0.424C177.861 0.381333 177.979 0.36 178.064 0.36C178.352 0.36 178.565 0.456 178.704 0.648C178.779 0.754666 178.821 0.994666 178.832 1.368C178.853 1.74133 178.864 2.86667 178.864 4.744V8.616L178.624 8.856C178.464 9.03733 178.272 9.128 178.048 9.128C177.845 9.128 177.643 9.03733 177.44 8.856L177.152 8.616L177.072 7.048C177.04 6.49333 177.024 5.72 177.024 4.728C177.024 4.088 177.029 3.62933 177.04 3.352C177.061 2.37067 177.083 1.74667 177.104 1.48C177.125 1.21333 177.173 1.00533 177.248 0.855999C177.355 0.631999 177.509 0.488 177.712 0.424ZM181.408 10.072C181.61 9.95467 181.797 9.896 181.968 9.896C182.213 9.896 182.453 10.0027 182.688 10.216C182.997 10.4933 183.152 10.7707 183.152 11.048C183.152 11.208 183.114 11.384 183.04 11.576C182.858 12.088 182.549 12.344 182.112 12.344C181.92 12.344 181.674 12.2747 181.376 12.136C181.034 11.9547 180.864 11.624 180.864 11.144C180.864 10.664 181.045 10.3067 181.408 10.072ZM181.728 0.424C181.877 0.381333 181.994 0.36 182.08 0.36C182.368 0.36 182.581 0.456 182.72 0.648C182.794 0.754666 182.837 0.994666 182.848 1.368C182.869 1.74133 182.88 2.86667 182.88 4.744V8.616L182.64 8.856C182.48 9.03733 182.288 9.128 182.064 9.128C181.861 9.128 181.658 9.03733 181.456 8.856L181.168 8.616L181.088 7.048C181.056 6.49333 181.04 5.72 181.04 4.728C181.04 4.088 181.045 3.62933 181.056 3.352C181.077 2.37067 181.098 1.74667 181.12 1.48C181.141 1.21333 181.189 1.00533 181.264 0.855999C181.37 0.631999 181.525 0.488 181.728 0.424ZM185.423 10.072C185.626 9.95467 185.813 9.896 185.983 9.896C186.229 9.896 186.469 10.0027 186.703 10.216C187.013 10.4933 187.167 10.7707 187.167 11.048C187.167 11.208 187.13 11.384 187.055 11.576C186.874 12.088 186.565 12.344 186.127 12.344C185.935 12.344 185.69 12.2747 185.391 12.136C185.05 11.9547 184.879 11.624 184.879 11.144C184.879 10.664 185.061 10.3067 185.423 10.072ZM185.743 0.424C185.893 0.381333 186.01 0.36 186.095 0.36C186.383 0.36 186.597 0.456 186.735 0.648C186.81 0.754666 186.853 0.994666 186.863 1.368C186.885 1.74133 186.895 2.86667 186.895 4.744V8.616L186.655 8.856C186.495 9.03733 186.303 9.128 186.079 9.128C185.877 9.128 185.674 9.03733 185.471 8.856L185.183 8.616L185.103 7.048C185.071 6.49333 185.055 5.72 185.055 4.728C185.055 4.088 185.061 3.62933 185.071 3.352C185.093 2.37067 185.114 1.74667 185.135 1.48C185.157 1.21333 185.205 1.00533 185.279 0.855999C185.386 0.631999 185.541 0.488 185.743 0.424ZM189.391 1.608C189.498 1.544 189.668 1.512 189.903 1.512C190.628 1.512 191.37 2.30667 192.127 3.896C192.415 4.51467 192.644 5.24 192.815 6.072C192.986 6.904 193.071 7.69867 193.071 8.456C193.071 8.85067 193.05 9.192 193.007 9.48C192.879 10.44 192.634 11.2133 192.271 11.8C192.143 12.024 191.855 12.3707 191.407 12.84C190.97 13.2987 190.671 13.5653 190.511 13.64C190.404 13.704 190.282 13.736 190.143 13.736C189.93 13.736 189.743 13.6613 189.583 13.512C189.423 13.3627 189.322 13.1707 189.279 12.936C189.268 12.8933 189.263 12.8347 189.263 12.76C189.263 12.5147 189.508 12.1627 189.999 11.704C190.447 11.2987 190.762 10.8613 190.943 10.392C191.135 9.912 191.231 9.29867 191.231 8.552C191.231 8.328 191.226 8.152 191.215 8.024C191.172 6.89333 190.991 5.90133 190.671 5.048C190.532 4.68533 190.34 4.31733 190.095 3.944C189.86 3.57067 189.658 3.32533 189.487 3.208C189.348 3.12267 189.226 3 189.119 2.84C189.023 2.68 188.975 2.53067 188.975 2.392C188.975 2.27467 189.023 2.13067 189.119 1.96C189.215 1.77867 189.306 1.66133 189.391 1.608Z" fill="#27263C"/>
</svg>
