<svg width="620" height="32" viewBox="0 0 620 32" fill="none" xmlns="http://www.w3.org/2000/svg">
<path d="M1.336 4.272C1.67733 3.952 1.99733 3.792 2.296 3.792C2.46667 3.792 2.616 3.80267 2.744 3.824C3.32 3.888 3.72533 4.08 3.96 4.4L4.376 4.88L4.312 13.264C4.29067 18.7893 4.19467 21.7653 4.024 22.192C3.74667 22.832 3.21333 23.152 2.424 23.152C2.168 23.152 1.976 23.1307 1.848 23.088C1.528 22.9813 1.31467 22.9067 1.208 22.864C1.12267 22.8 1.016 22.608 0.888 22.288C0.781333 21.9467 0.717333 21.4773 0.696 20.88C0.674667 20.2827 0.664 19.3653 0.664 18.128C0.664 17.7867 0.664 17.0933 0.664 16.048C0.685333 15.0027 0.696 14.128 0.696 13.424L0.728 4.784L1.336 4.272ZM18.1285 8.08C18.5125 7.90933 18.7578 7.824 18.8645 7.824C18.9498 7.824 19.1952 7.90933 19.6005 8.08C19.9845 8.22933 20.2832 8.54933 20.4965 9.04C20.7312 9.53067 21.0405 10.5227 21.4245 12.016C22.4698 16.1333 23.1098 18.3093 23.3445 18.544H23.3765C23.4618 18.544 23.7818 17.9147 24.3365 16.656C24.8912 15.376 25.5312 14.064 26.2565 12.72C27.0032 11.3547 27.6325 10.5973 28.1445 10.448C28.3578 10.384 28.5925 10.352 28.8485 10.352C29.6592 10.352 30.2565 10.576 30.6405 11.024C30.8965 11.3227 31.2912 12.1547 31.8245 13.52C33.0405 16.5493 33.7125 18.064 33.8405 18.064H33.8725C33.9365 18.0213 34.3205 16.976 35.0245 14.928C35.7285 12.7947 36.2085 11.4507 36.4645 10.896C36.7418 10.3413 37.0832 9.97867 37.4885 9.808C37.7658 9.68 38.0538 9.616 38.3525 9.616C38.4592 9.616 38.5338 9.62667 38.5765 9.648C38.9178 9.73333 39.2378 9.94667 39.5365 10.288C39.8565 10.6293 40.0165 10.9493 40.0165 11.248C40.0165 11.5893 39.5258 13.104 38.5445 15.792C37.5845 18.48 36.8698 20.3147 36.4005 21.296C35.9098 22.32 35.5045 22.992 35.1845 23.312C34.8645 23.6107 34.4378 23.76 33.9045 23.76C33.1365 23.76 32.5818 23.5573 32.2405 23.152C31.9205 22.7253 31.3232 21.4987 30.4485 19.472C29.4032 17.104 28.8272 15.92 28.7205 15.92C28.6138 15.92 28.1338 16.88 27.2805 18.8C26.2565 21.1253 25.5312 22.576 25.1045 23.152C24.6778 23.7067 24.0805 23.984 23.3125 23.984H23.1525C22.4272 23.9627 21.9578 23.8453 21.7445 23.632C20.9338 22.9493 19.7072 19.5467 18.0645 13.424C17.4458 11.12 17.1365 9.78667 17.1365 9.424C17.1365 9.232 17.1792 9.05067 17.2645 8.88C17.4565 8.47467 17.7445 8.208 18.1285 8.08ZM54.6453 13.232C54.0266 12.6133 53.0666 12.304 51.7653 12.304C51.1253 12.304 50.5599 12.4107 50.0693 12.624C49.5999 12.8373 49.0879 13.2533 48.5333 13.872C47.9786 14.4907 47.6159 15.056 47.4453 15.568C47.2533 16.1227 47.1573 16.6453 47.1573 17.136C47.1573 18.2667 47.6053 19.0667 48.5013 19.536C49.0346 19.8133 49.7279 19.952 50.5813 19.952C51.1573 19.952 51.5946 19.8773 51.8933 19.728C53.6213 18.8533 54.6773 17.2853 55.0613 15.024L55.2533 13.808L54.6453 13.232ZM49.7812 8.88C50.2933 8.73067 50.8906 8.656 51.5733 8.656C52.7253 8.656 53.8559 8.85867 54.9653 9.264C56.0746 9.66933 56.8426 10.1813 57.2693 10.8C57.5679 11.2267 57.9519 11.6747 58.4213 12.144C58.9333 12.6773 59.4026 13.5947 59.8293 14.896C60.2346 16.1333 60.6079 17.5093 60.9493 19.024C61.3119 20.5387 61.4933 21.5627 61.4933 22.096C61.4933 22.6293 61.3333 23.0453 61.0133 23.344C60.6079 23.728 60.2239 23.92 59.8612 23.92C59.7119 23.92 59.5199 23.888 59.2853 23.824C58.8799 23.6747 58.5599 23.4187 58.3253 23.056C58.1119 22.6933 57.9199 22.1067 57.7493 21.296C57.5359 20.336 57.4186 19.856 57.3973 19.856C57.3119 19.856 56.8639 20.2613 56.0533 21.072C54.4533 22.6293 52.7893 23.472 51.0613 23.6H50.6133C49.5679 23.6 48.5439 23.4187 47.5413 23.056C46.5599 22.6933 45.7813 22.2133 45.2053 21.616C44.9066 21.3173 44.6079 20.8693 44.3093 20.272C44.0106 19.6533 43.8079 19.088 43.7013 18.576C43.5946 18.0427 43.5413 17.5627 43.5413 17.136C43.5413 15.3653 44.1386 13.6693 45.3333 12.048C46.5493 10.4267 48.0319 9.37067 49.7812 8.88ZM69.5845 8.496C69.9685 8.432 70.3632 8.4 70.7685 8.4C72.0485 8.4 73.1898 8.688 74.1925 9.264C75.1952 9.84 75.6965 10.5013 75.6965 11.248C75.6965 11.44 75.6645 11.6107 75.6005 11.76C75.2805 12.5707 74.8005 12.976 74.1605 12.976C73.6912 12.976 73.1578 12.8267 72.5605 12.528C71.8778 12.1867 71.2485 12.016 70.6725 12.016C70.0538 12.016 69.5418 12.2187 69.1365 12.624C68.9232 12.8373 68.8165 13.008 68.8165 13.136C68.8165 13.3067 68.9765 13.5093 69.2965 13.744C69.6378 13.9573 70.2565 14.2987 71.1525 14.768C72.6245 15.536 73.6165 16.1653 74.1285 16.656C74.6192 17.0827 75.0458 17.616 75.4085 18.256C75.7712 18.8747 75.9525 19.3973 75.9525 19.824C75.9525 20.3147 75.8245 20.8053 75.5685 21.296C75.3125 21.7867 74.9925 22.16 74.6085 22.416C73.6272 23.0773 72.4325 23.408 71.0245 23.408C69.7018 23.408 68.3365 23.0987 66.9285 22.48C66.2672 22.16 65.8512 21.7973 65.6805 21.392C65.5525 21.0933 65.4885 20.8267 65.4885 20.592C65.4885 20.1653 65.6912 19.7493 66.0965 19.344C66.3738 19.024 66.7472 18.864 67.2165 18.864C67.6645 18.864 68.2085 19.0027 68.8485 19.28C69.5525 19.5787 70.3632 19.728 71.2805 19.728C71.7072 19.728 71.9205 19.6747 71.9205 19.568C71.9205 19.312 71.0032 18.7253 69.1685 17.808C67.7392 17.0613 66.6938 16.3253 66.0325 15.6C65.3712 14.8533 65.0405 14.032 65.0405 13.136C65.0405 12.0693 65.4778 11.088 66.3525 10.192C67.2485 9.27467 68.3258 8.70933 69.5845 8.496ZM94.6123 8.912C94.6976 8.89067 94.8256 8.88 94.9963 8.88C95.4016 8.88 95.7749 8.98667 96.1163 9.2C96.4576 9.392 96.6923 9.65867 96.8203 10C96.9056 10.192 96.9909 11.6533 97.0763 14.384C97.1829 17.0933 97.2363 19.2267 97.2363 20.784C97.2363 21.4453 97.2256 21.8293 97.2043 21.936C97.0976 22.7467 96.7456 23.2907 96.1483 23.568C95.8496 23.696 95.6149 23.76 95.4443 23.76C95.3163 23.76 95.1243 23.728 94.8683 23.664C94.3776 23.5147 94.0683 23.312 93.9403 23.056C93.6843 22.5653 93.5349 20.6667 93.4923 17.36C93.4923 16.7627 93.4816 15.728 93.4603 14.256L93.4283 9.872L93.8123 9.424C94.0683 9.12533 94.3349 8.95467 94.6123 8.912ZM93.8443 2.896C94.1003 2.768 94.3456 2.704 94.5803 2.704C95.0496 2.704 95.4656 2.896 95.8283 3.28C96.1909 3.64267 96.3723 4.06933 96.3723 4.56C96.3723 4.90133 96.2869 5.2 96.1163 5.456C95.7536 6.032 95.2629 6.32 94.6443 6.32C94.2389 6.32 93.8656 6.18133 93.5243 5.904C93.1829 5.62667 92.9696 5.24267 92.8843 4.752C92.8843 4.73067 92.8736 4.69867 92.8523 4.656C92.8523 4.592 92.8523 4.54933 92.8523 4.528C92.8523 4.208 92.9483 3.89867 93.1403 3.6C93.3323 3.28 93.5669 3.04533 93.8443 2.896ZM101.53 9.072C101.786 8.944 102.052 8.88 102.33 8.88C102.714 8.88 103.076 9.008 103.418 9.264C103.759 9.49867 103.994 9.81867 104.122 10.224L104.314 10.896L105.114 10.416C105.647 10.096 106.383 9.936 107.322 9.936C108.239 9.936 108.996 10.0853 109.594 10.384C110.084 10.6187 110.607 11.0027 111.162 11.536C111.738 12.0693 112.196 12.6027 112.538 13.136C113.69 14.9493 114.319 17.7653 114.426 21.584V22.224C114.426 22.736 114.276 23.152 113.978 23.472C113.615 23.8347 113.188 24.016 112.698 24.016C111.908 24.016 111.386 23.6747 111.13 22.992C111.002 22.6293 110.895 21.9147 110.81 20.848C110.554 17.1147 109.722 14.7787 108.314 13.84C108.015 13.648 107.716 13.552 107.418 13.552C106.863 13.552 106.362 13.8613 105.914 14.48C105.487 15.0773 105.146 15.9307 104.89 17.04C104.783 17.5307 104.655 18.416 104.506 19.696C104.356 20.976 104.282 21.84 104.282 22.288C104.282 22.5013 104.1 22.7893 103.738 23.152C103.375 23.4933 102.959 23.664 102.49 23.664C101.615 23.664 101.039 23.2053 100.762 22.288C100.634 21.84 100.57 19.8987 100.57 16.464C100.57 12.368 100.644 10.1387 100.794 9.776C100.922 9.49867 101.167 9.264 101.53 9.072ZM131.248 8.208C131.632 8.10133 132.229 8.048 133.04 8.048C134.747 8.048 135.984 8.176 136.752 8.432C137.819 8.77333 138.352 9.36 138.352 10.192C138.352 10.6827 138.117 11.1307 137.648 11.536C137.328 11.8347 137.019 11.984 136.72 11.984C136.699 11.984 136.656 11.984 136.592 11.984C136.528 11.9627 136.475 11.952 136.432 11.952C135.024 11.7173 133.915 11.6 133.104 11.6C132.848 11.6 132.613 11.6213 132.4 11.664C131.739 11.8347 131.408 12.144 131.408 12.592C131.408 12.6773 131.419 12.7413 131.44 12.784C131.589 13.2107 132.432 13.744 133.968 14.384C136.72 15.536 138.416 16.9653 139.056 18.672C139.248 19.184 139.344 19.664 139.344 20.112C139.344 20.9013 139.056 21.5733 138.48 22.128C137.925 22.6827 137.136 23.056 136.112 23.248C135.685 23.3333 134.981 23.376 134 23.376C132.208 23.376 131.067 23.2693 130.576 23.056C130.299 22.928 130.064 22.7147 129.872 22.416C129.68 22.096 129.584 21.7867 129.584 21.488C129.584 21.168 129.691 20.848 129.904 20.528C130.117 20.1867 130.373 19.952 130.672 19.824C130.949 19.7173 131.28 19.664 131.664 19.664C131.813 19.664 132.144 19.6853 132.656 19.728C132.997 19.7707 133.456 19.792 134.032 19.792C134.928 19.792 135.376 19.6853 135.376 19.472C135.376 19.088 134.448 18.512 132.592 17.744C130.928 17.0187 129.701 16.2613 128.912 15.472C128.144 14.6613 127.76 13.744 127.76 12.72C127.76 12.5493 127.781 12.2933 127.824 11.952C127.995 10.9067 128.421 10.0747 129.104 9.456C129.659 8.90133 130.373 8.48533 131.248 8.208ZM143.429 1.648C143.749 1.392 144.09 1.264 144.453 1.264C144.88 1.264 145.274 1.43467 145.637 1.776C146 2.096 146.224 2.512 146.309 3.024C146.373 3.49333 146.426 4.784 146.469 6.896C146.469 8.92267 146.512 9.97867 146.597 10.064H146.629C146.714 10.064 147.002 9.89333 147.493 9.552C148.88 8.464 150.32 7.92 151.813 7.92C152.432 7.92 153.029 8.03733 153.605 8.272C154.906 8.80533 155.824 10.16 156.357 12.336C156.485 12.848 156.613 14.0853 156.741 16.048C156.869 18.0107 156.933 19.536 156.933 20.624C156.933 21.072 156.922 21.3387 156.901 21.424C156.816 21.8933 156.602 22.2667 156.261 22.544C155.92 22.8213 155.546 22.96 155.141 22.96C154.65 22.96 154.234 22.7787 153.893 22.416L153.381 21.872L153.285 18.352C153.221 16.368 153.104 14.8107 152.933 13.68C152.826 13.0187 152.656 12.4747 152.421 12.048C152.208 11.6213 151.984 11.408 151.749 11.408C151.472 11.408 151.034 11.5893 150.437 11.952C149.84 12.2933 149.402 12.6133 149.125 12.912C148.4 13.744 147.898 14.6507 147.621 15.632C147.344 16.592 147.194 17.9253 147.173 19.632C147.173 21.1253 147.12 22.0853 147.013 22.512C146.928 22.9813 146.725 23.3547 146.405 23.632C146.085 23.888 145.722 24.016 145.317 24.016C144.848 24.016 144.432 23.8347 144.069 23.472C143.728 23.1307 143.514 22.8 143.429 22.48C143.344 22.1813 143.248 19.7493 143.141 15.184C143.013 10.4693 142.917 7.312 142.853 5.712C142.81 4.64533 142.789 4.016 142.789 3.824C142.789 2.71467 143.002 1.98933 143.429 1.648ZM169.344 12.816C168.939 12.7093 168.278 12.6133 167.36 12.528C166.763 12.4853 166.443 12.464 166.4 12.464C166.102 12.464 165.803 12.624 165.504 12.944C164.651 13.8187 164.192 15.0027 164.128 16.496C164.128 16.5813 164.118 16.6987 164.096 16.848C164.096 16.976 164.096 17.072 164.096 17.136C164.096 17.6267 164.224 18.0853 164.48 18.512C165.163 19.728 166.368 20.336 168.096 20.336C168.822 20.3147 169.558 20.0693 170.304 19.6C171.072 19.1093 171.627 18.5227 171.968 17.84C172.16 17.4347 172.256 16.9973 172.256 16.528C172.256 15.7387 171.979 14.992 171.424 14.288C170.891 13.5627 170.198 13.072 169.344 12.816ZM164.48 9.232C164.971 8.95467 165.462 8.816 165.952 8.816C166.059 8.816 166.454 8.83733 167.136 8.88C169.163 8.98667 170.795 9.41333 172.032 10.16C173.27 10.9067 174.262 12.0587 175.008 13.616C175.584 14.8107 175.872 15.952 175.872 17.04C175.872 17.3813 175.84 17.68 175.776 17.936C175.435 19.2587 174.688 20.464 173.536 21.552C172.384 22.64 171.115 23.3653 169.728 23.728C169.003 23.8987 168.427 23.984 168 23.984C167.574 23.984 166.998 23.8987 166.272 23.728C164.075 23.152 162.496 22.1067 161.536 20.592C160.79 19.4187 160.416 18.1813 160.416 16.88C160.416 15.5787 160.768 14.192 161.472 12.72C162.283 10.992 163.286 9.82933 164.48 9.232ZM186.329 9.072C186.862 8.96533 187.364 8.912 187.833 8.912C189.241 8.912 190.564 9.264 191.801 9.968C192.334 10.288 192.686 10.544 192.857 10.736C193.049 10.928 193.198 11.2053 193.305 11.568C193.326 11.632 193.337 11.728 193.337 11.856C193.337 12.5173 193.081 13.04 192.569 13.424C192.292 13.5947 192.025 13.68 191.769 13.68C191.406 13.68 190.83 13.4987 190.041 13.136C189.209 12.752 188.441 12.56 187.737 12.56C187.097 12.56 186.5 12.72 185.945 13.04C185.454 13.3387 184.921 13.7867 184.345 14.384C183.769 14.9813 183.396 15.4827 183.225 15.888C183.054 16.2933 182.969 16.6133 182.969 16.848C182.969 17.2107 183.257 17.68 183.833 18.256C184.708 19.1093 185.934 19.6107 187.513 19.76C187.577 19.76 187.662 19.7707 187.769 19.792C187.897 19.792 187.982 19.792 188.025 19.792C188.388 19.792 188.878 19.632 189.497 19.312C190.158 18.9493 190.67 18.768 191.033 18.768C191.374 18.768 191.716 18.9173 192.057 19.216C192.505 19.6427 192.729 20.08 192.729 20.528C192.729 21.36 192.078 22.1067 190.777 22.768C190.009 23.1733 189.241 23.376 188.473 23.376H187.961C186.169 23.3547 184.537 22.9493 183.065 22.16C181.593 21.3493 180.537 20.2933 179.897 18.992C179.556 18.3093 179.385 17.584 179.385 16.816C179.385 14.8533 180.494 12.8907 182.713 10.928C183.801 9.94667 185.006 9.328 186.329 9.072ZM197.109 3.92C197.45 3.23733 197.941 2.896 198.581 2.896C198.858 2.896 199.136 2.97066 199.413 3.12C199.776 3.312 200.021 3.54667 200.149 3.824C200.277 4.10133 200.362 4.592 200.405 5.296C200.448 5.97867 200.469 7.25867 200.469 9.136C200.469 12.2933 200.512 13.872 200.597 13.872C200.768 13.872 201.386 13.3387 202.453 12.272C203.52 11.184 204.192 10.416 204.469 9.968C205.066 9.008 205.706 8.528 206.389 8.528C206.816 8.528 207.242 8.72 207.669 9.104C207.968 9.40267 208.117 9.75467 208.117 10.16C208.117 11.376 206.965 13.0293 204.661 15.12C203.722 15.9733 203.253 16.432 203.253 16.496C203.253 16.6027 203.616 16.8693 204.341 17.296C205.088 17.744 206.229 18.5547 207.765 19.728C209.322 20.88 210.154 21.552 210.261 21.744C210.389 22 210.453 22.256 210.453 22.512C210.453 22.9813 210.282 23.408 209.941 23.792C209.6 24.1547 209.184 24.336 208.693 24.336C208.33 24.336 207.893 24.1867 207.381 23.888C206.89 23.568 205.898 22.832 204.405 21.68C203.701 21.1253 202.986 20.6453 202.261 20.24C201.536 19.8347 201.045 19.632 200.789 19.632C200.64 19.632 200.544 19.728 200.501 19.92C200.48 20.112 200.469 20.7093 200.469 21.712C200.469 22.7147 200.448 23.344 200.405 23.6C200.362 23.8347 200.224 24.0587 199.989 24.272C199.648 24.592 199.242 24.752 198.773 24.752C198.261 24.752 197.824 24.56 197.461 24.176L197.013 23.696L196.917 18.928C196.832 15.4293 196.789 12.2293 196.789 9.328C196.789 7.19467 196.8 5.82933 196.821 5.232C196.864 4.63467 196.96 4.19733 197.109 3.92ZM214.329 21.424C214.499 21.0613 214.691 20.816 214.905 20.688C215.118 20.56 215.491 20.496 216.025 20.496C216.387 20.496 216.633 20.528 216.761 20.592C216.91 20.656 217.081 20.8053 217.273 21.04C217.593 21.424 217.753 21.8293 217.753 22.256C217.753 22.7253 217.55 23.1627 217.145 23.568C216.739 23.9733 216.323 24.176 215.897 24.176C215.47 24.176 215.054 23.9947 214.649 23.632C214.265 23.248 214.073 22.8533 214.073 22.448C214.073 22.128 214.158 21.7867 214.329 21.424ZM232.742 4.272C233.084 3.952 233.404 3.792 233.702 3.792C233.873 3.792 234.022 3.80267 234.15 3.824C234.726 3.888 235.132 4.08 235.366 4.4L235.782 4.88L235.718 13.264C235.697 18.7893 235.601 21.7653 235.43 22.192C235.153 22.832 234.62 23.152 233.83 23.152C233.574 23.152 233.382 23.1307 233.254 23.088C232.934 22.9813 232.721 22.9067 232.614 22.864C232.529 22.8 232.422 22.608 232.294 22.288C232.188 21.9467 232.124 21.4773 232.102 20.88C232.081 20.2827 232.07 19.3653 232.07 18.128C232.07 17.7867 232.07 17.0933 232.07 16.048C232.092 15.0027 232.102 14.128 232.102 13.424L232.134 4.784L232.742 4.272ZM253.522 8.496C253.906 8.432 254.301 8.4 254.706 8.4C255.986 8.4 257.127 8.688 258.13 9.264C259.133 9.84 259.634 10.5013 259.634 11.248C259.634 11.44 259.602 11.6107 259.538 11.76C259.218 12.5707 258.738 12.976 258.098 12.976C257.629 12.976 257.095 12.8267 256.498 12.528C255.815 12.1867 255.186 12.016 254.61 12.016C253.991 12.016 253.479 12.2187 253.074 12.624C252.861 12.8373 252.754 13.008 252.754 13.136C252.754 13.3067 252.914 13.5093 253.234 13.744C253.575 13.9573 254.194 14.2987 255.09 14.768C256.562 15.536 257.554 16.1653 258.066 16.656C258.557 17.0827 258.983 17.616 259.346 18.256C259.709 18.8747 259.89 19.3973 259.89 19.824C259.89 20.3147 259.762 20.8053 259.506 21.296C259.25 21.7867 258.93 22.16 258.546 22.416C257.565 23.0773 256.37 23.408 254.962 23.408C253.639 23.408 252.274 23.0987 250.866 22.48C250.205 22.16 249.789 21.7973 249.618 21.392C249.49 21.0933 249.426 20.8267 249.426 20.592C249.426 20.1653 249.629 19.7493 250.034 19.344C250.311 19.024 250.685 18.864 251.154 18.864C251.602 18.864 252.146 19.0027 252.786 19.28C253.49 19.5787 254.301 19.728 255.218 19.728C255.645 19.728 255.858 19.6747 255.858 19.568C255.858 19.312 254.941 18.7253 253.106 17.808C251.677 17.0613 250.631 16.3253 249.97 15.6C249.309 14.8533 248.978 14.032 248.978 13.136C248.978 12.0693 249.415 11.088 250.29 10.192C251.186 9.27467 252.263 8.70933 253.522 8.496ZM263.897 8.816C264.217 8.496 264.622 8.336 265.113 8.336C265.774 8.336 266.233 8.56 266.489 9.008C266.766 9.43467 267.204 10.64 267.801 12.624C267.972 13.1787 268.185 13.8933 268.441 14.768C269.166 17.072 269.582 18.2453 269.689 18.288C269.817 18.288 270.105 17.648 270.553 16.368C271.278 14.192 271.876 12.6667 272.345 11.792C272.836 10.9173 273.412 10.3413 274.073 10.064C274.393 9.91467 274.713 9.84 275.033 9.84C275.502 9.84 275.929 10.064 276.313 10.512C276.718 10.9387 277.166 11.664 277.657 12.688C279.534 16.6773 280.526 18.672 280.633 18.672C280.676 18.672 280.921 18 281.369 16.656C281.838 15.2907 282.329 13.8827 282.841 12.432C283.374 10.9813 283.726 10.16 283.897 9.968C284.238 9.584 284.644 9.392 285.113 9.392C285.625 9.392 286.094 9.616 286.521 10.064C286.756 10.2987 286.873 10.608 286.873 10.992C286.873 11.6107 286.382 13.36 285.401 16.24C284.377 19.248 283.588 21.2213 283.033 22.16C282.478 23.0773 281.785 23.536 280.953 23.536C280.697 23.536 280.505 23.5253 280.377 23.504C279.694 23.3973 279.108 23.0453 278.617 22.448C278.126 21.8507 277.412 20.5707 276.473 18.608C275.428 16.432 274.873 15.344 274.809 15.344C274.745 15.344 274.553 15.792 274.233 16.688C273.209 19.632 272.484 21.5413 272.057 22.416C271.63 23.2907 271.182 23.8347 270.713 24.048C270.35 24.1973 269.924 24.272 269.433 24.272C269.006 24.272 268.676 24.2187 268.441 24.112C268.014 23.8987 267.502 23.0453 266.905 21.552C266.308 20.0587 265.465 17.4987 264.377 13.872C263.758 11.824 263.449 10.512 263.449 9.936C263.449 9.488 263.598 9.11467 263.897 8.816ZM299.057 11.6C298.481 11.4933 298.001 11.44 297.617 11.44C296.742 11.44 296.006 11.6213 295.409 11.984C295.11 12.176 294.758 12.8267 294.353 13.936C293.969 15.024 293.777 15.8987 293.777 16.56C293.777 17.6267 294.118 18.4907 294.801 19.152C295.505 19.792 296.422 20.1227 297.553 20.144C298.47 20.144 299.324 19.888 300.113 19.376C300.924 18.864 301.51 18.192 301.873 17.36C302.108 16.8267 302.225 16.2187 302.225 15.536C302.225 14.704 302.065 13.9787 301.745 13.36C301.51 12.8693 301.19 12.496 300.785 12.24C300.38 11.984 299.804 11.7707 299.057 11.6ZM295.441 8.176C296.188 7.984 296.924 7.888 297.649 7.888C299.014 7.888 300.476 8.22933 302.033 8.912C303.142 9.40267 304.017 10.2667 304.657 11.504C305.318 12.7413 305.66 14.2027 305.681 15.888V16.08C305.681 18.6187 304.55 20.6773 302.289 22.256C300.881 23.2587 299.313 23.76 297.585 23.76C296.156 23.76 294.833 23.408 293.617 22.704C292.401 21.9787 291.484 20.9653 290.865 19.664C290.652 19.216 290.513 18.832 290.449 18.512C290.406 18.192 290.385 17.52 290.385 16.496C290.406 14.9813 290.566 13.7867 290.865 12.912C291.569 10.9707 292.401 9.65867 293.361 8.976C293.745 8.69867 294.438 8.432 295.441 8.176ZM309.646 9.328C310.03 9.008 310.446 8.848 310.894 8.848C311.363 8.848 311.768 9.01867 312.11 9.36C312.451 9.68 312.622 10.096 312.622 10.608C312.622 11.12 312.718 11.376 312.91 11.376C313.016 11.376 313.24 11.2587 313.582 11.024C315.16 9.936 316.728 9.392 318.286 9.392C318.947 9.392 319.598 9.50933 320.238 9.744C320.814 9.97867 321.219 10.2347 321.454 10.512C321.688 10.7893 321.806 11.1627 321.806 11.632C321.806 12.144 321.614 12.5813 321.23 12.944C320.91 13.2427 320.622 13.392 320.366 13.392C320.28 13.392 319.683 13.3173 318.574 13.168C318.446 13.1467 318.264 13.136 318.03 13.136C317.688 13.136 317.251 13.2533 316.718 13.488C315.331 14.128 314.36 14.9387 313.806 15.92C313.251 16.9013 312.974 18.3093 312.974 20.144C312.952 21.488 312.792 22.4267 312.494 22.96C312.216 23.4933 311.715 23.76 310.99 23.76C310.499 23.76 310.083 23.5893 309.742 23.248L309.23 22.736L309.166 17.072C309.123 12.8907 309.102 10.736 309.102 10.608C309.102 10.096 309.283 9.66933 309.646 9.328ZM335.211 13.808C334.827 13.616 334.283 13.52 333.579 13.52C332.811 13.52 332.16 13.6373 331.627 13.872C331.264 14.0213 330.795 14.352 330.219 14.864C329.643 15.3547 329.355 15.6747 329.355 15.824C329.355 15.888 329.685 15.92 330.347 15.92C331.328 15.92 332.501 15.8667 333.867 15.76C335.232 15.6533 336.011 15.536 336.203 15.408C336.267 15.3867 336.299 15.3227 336.299 15.216C336.299 15.024 336.181 14.7787 335.947 14.48C335.712 14.16 335.467 13.936 335.211 13.808ZM331.435 10.096C331.968 9.94667 332.597 9.872 333.323 9.872C334.667 9.872 335.893 10.1387 337.003 10.672C337.835 11.0987 338.528 11.7493 339.083 12.624C339.637 13.4773 339.979 14.4373 340.107 15.504C340.107 15.5467 340.107 15.6107 340.107 15.696C340.128 15.7813 340.139 15.8453 340.139 15.888C340.139 16.4427 340.032 16.9867 339.819 17.52C339.627 18.0533 339.392 18.416 339.115 18.608C338.752 18.864 336.203 19.184 331.467 19.568C330.464 19.6533 329.963 19.7493 329.963 19.856C329.963 19.984 330.187 20.1867 330.635 20.464C331.083 20.7413 331.52 20.9333 331.947 21.04C332.331 21.1253 332.64 21.168 332.875 21.168C333.557 21.168 334.443 20.944 335.531 20.496C336.299 20.176 336.864 20.016 337.227 20.016C337.589 20.016 337.931 20.176 338.251 20.496C338.677 20.9227 338.891 21.328 338.891 21.712C338.891 21.968 338.827 22.2347 338.699 22.512C338.592 22.768 338.443 22.9707 338.251 23.12C338.08 23.2693 337.76 23.4507 337.291 23.664C335.733 24.3467 334.283 24.688 332.939 24.688C332.171 24.688 331.381 24.5707 330.571 24.336C329.483 23.9947 328.491 23.4187 327.595 22.608C326.699 21.776 326.059 20.8587 325.674 19.856C325.44 19.1947 325.323 18.4587 325.323 17.648C325.323 16.4747 325.515 15.4933 325.899 14.704C326.347 13.7227 327.104 12.784 328.171 11.888C329.237 10.992 330.325 10.3947 331.435 10.096ZM355.086 4.272C355.427 3.952 355.747 3.792 356.046 3.792C356.217 3.792 356.366 3.80267 356.494 3.824C357.07 3.888 357.475 4.08 357.71 4.4L358.126 4.88L358.062 13.264C358.041 18.7893 357.945 21.7653 357.774 22.192C357.497 22.832 356.963 23.152 356.174 23.152C355.918 23.152 355.726 23.1307 355.598 23.088C355.278 22.9813 355.065 22.9067 354.958 22.864C354.873 22.8 354.766 22.608 354.638 22.288C354.531 21.9467 354.467 21.4773 354.446 20.88C354.425 20.2827 354.414 19.3653 354.414 18.128C354.414 17.7867 354.414 17.0933 354.414 16.048C354.435 15.0027 354.446 14.128 354.446 13.424L354.478 4.784L355.086 4.272ZM385.014 15.152C384.609 14.64 384.033 14.2133 383.286 13.872C382.54 13.5307 381.676 13.36 380.694 13.36C380.097 13.36 379.638 13.4347 379.318 13.584C378.977 13.7333 378.646 14.0747 378.326 14.608C378.028 15.12 377.878 15.7493 377.878 16.496V17.04C377.942 18.5547 377.985 19.4507 378.006 19.728L378.134 20.752L378.902 20.88C379.201 20.9227 379.446 20.944 379.638 20.944C380.897 20.944 382.038 20.6987 383.062 20.208C383.574 19.9733 384.065 19.5893 384.534 19.056C385.025 18.5013 385.356 17.9573 385.526 17.424C385.612 17.1253 385.654 16.8907 385.654 16.72C385.654 16.1653 385.441 15.6427 385.014 15.152ZM374.934 2.416C375.148 2.30933 375.404 2.256 375.702 2.256C376.214 2.256 376.662 2.448 377.046 2.832C377.281 3.06667 377.42 3.35467 377.462 3.696C377.526 4.016 377.612 5.02933 377.718 6.736C377.825 8.976 377.9 10.1173 377.942 10.16H377.974C378.081 10.16 378.454 10.0853 379.094 9.936C379.841 9.76533 380.492 9.68 381.046 9.68C382.113 9.68 383.414 10.032 384.95 10.736C386.7 11.5467 387.926 12.6773 388.63 14.128C388.844 14.576 388.972 14.9493 389.014 15.248C389.078 15.5467 389.11 16.048 389.11 16.752C389.11 17.456 389.078 17.9573 389.014 18.256C388.95 18.5333 388.78 18.96 388.502 19.536C387.884 20.7307 387.03 21.744 385.942 22.576C384.854 23.408 383.649 23.9627 382.326 24.24C381.558 24.4107 380.758 24.496 379.926 24.496C379.137 24.496 378.209 24.4213 377.142 24.272C376.332 24.144 375.798 24.0373 375.542 23.952C375.286 23.8667 375.052 23.7067 374.838 23.472L374.358 22.96V17.968C374.358 14.96 374.294 11.7067 374.166 8.208C374.102 6.56533 374.07 5.38133 374.07 4.656C374.07 3.80267 374.124 3.25867 374.23 3.024C374.337 2.78933 374.572 2.58667 374.934 2.416ZM403.739 13.232C403.12 12.6133 402.16 12.304 400.859 12.304C400.219 12.304 399.654 12.4107 399.163 12.624C398.694 12.8373 398.182 13.2533 397.627 13.872C397.072 14.4907 396.71 15.056 396.539 15.568C396.347 16.1227 396.251 16.6453 396.251 17.136C396.251 18.2667 396.699 19.0667 397.595 19.536C398.128 19.8133 398.822 19.952 399.675 19.952C400.251 19.952 400.688 19.8773 400.987 19.728C402.715 18.8533 403.771 17.2853 404.155 15.024L404.347 13.808L403.739 13.232ZM398.875 8.88C399.387 8.73067 399.984 8.656 400.667 8.656C401.819 8.656 402.95 8.85867 404.059 9.264C405.168 9.66933 405.936 10.1813 406.363 10.8C406.662 11.2267 407.046 11.6747 407.515 12.144C408.027 12.6773 408.496 13.5947 408.923 14.896C409.328 16.1333 409.702 17.5093 410.043 19.024C410.406 20.5387 410.587 21.5627 410.587 22.096C410.587 22.6293 410.427 23.0453 410.107 23.344C409.702 23.728 409.318 23.92 408.955 23.92C408.806 23.92 408.614 23.888 408.379 23.824C407.974 23.6747 407.654 23.4187 407.419 23.056C407.206 22.6933 407.014 22.1067 406.843 21.296C406.63 20.336 406.512 19.856 406.491 19.856C406.406 19.856 405.958 20.2613 405.147 21.072C403.547 22.6293 401.883 23.472 400.155 23.6H399.707C398.662 23.6 397.638 23.4187 396.635 23.056C395.654 22.6933 394.875 22.2133 394.299 21.616C394 21.3173 393.702 20.8693 393.403 20.272C393.104 19.6533 392.902 19.088 392.795 18.576C392.688 18.0427 392.635 17.5627 392.635 17.136C392.635 15.3653 393.232 13.6693 394.427 12.048C395.643 10.4267 397.126 9.37067 398.875 8.88ZM418.23 9.392C418.572 9.264 419.105 9.2 419.83 9.2C420.214 9.2 420.524 9.21067 420.758 9.232C421.612 9.25333 422.198 9.30667 422.518 9.392C422.838 9.456 423.265 9.616 423.798 9.872C425.313 10.64 426.07 11.568 426.07 12.656C426.07 12.8907 425.996 13.1787 425.846 13.52C425.526 14.1387 425.036 14.448 424.374 14.448C423.777 14.448 423.233 14.1707 422.742 13.616C422.508 13.36 422.294 13.1893 422.102 13.104C421.91 12.9973 421.601 12.912 421.174 12.848C420.748 12.8053 420.46 12.784 420.31 12.784C419.564 12.784 419.02 13.0187 418.678 13.488C418.081 14.3627 417.782 15.312 417.782 16.336C417.782 17.4453 418.124 18.3947 418.806 19.184C419.489 19.952 420.385 20.336 421.494 20.336C421.921 20.336 422.518 20.2293 423.286 20.016C424.054 19.7813 424.566 19.568 424.822 19.376C425.036 19.2053 425.409 19.12 425.942 19.12C426.454 19.12 426.87 19.28 427.19 19.6C427.532 19.92 427.702 20.3253 427.702 20.816C427.702 21.264 427.596 21.6267 427.382 21.904C427.169 22.1813 426.764 22.4693 426.166 22.768C424.63 23.536 423.094 23.92 421.558 23.92C419.02 23.92 417.089 23.0133 415.766 21.2C414.7 19.7493 414.166 18.16 414.166 16.432C414.166 15.3653 414.38 14.2453 414.806 13.072C415.126 12.24 415.596 11.4827 416.214 10.8C416.854 10.1173 417.526 9.648 418.23 9.392ZM431.995 2.608C432.315 2.43733 432.646 2.352 432.987 2.352C433.435 2.352 433.819 2.52267 434.139 2.864C434.459 3.20533 434.651 3.67467 434.715 4.272C434.779 4.784 434.865 6.26667 434.971 8.72C435.099 11.152 435.163 12.7093 435.163 13.392C435.163 13.968 435.217 14.2347 435.323 14.192C435.494 14.128 435.974 13.5627 436.763 12.496C437.553 11.4293 438.043 10.6827 438.235 10.256C438.683 9.31733 439.249 8.848 439.931 8.848C440.251 8.848 440.561 8.92267 440.859 9.072C441.499 9.37067 441.819 9.91467 441.819 10.704C441.819 11.0453 441.734 11.4187 441.563 11.824C441.414 12.1867 440.785 13.104 439.675 14.576C438.459 16.2187 437.841 17.072 437.819 17.136C437.777 17.2213 437.755 17.2853 437.755 17.328C437.755 17.52 438.609 18.2027 440.315 19.376C442.171 20.656 443.163 21.392 443.291 21.584C443.462 21.8187 443.547 22.1067 443.547 22.448C443.547 22.9173 443.387 23.3333 443.067 23.696C442.747 24.0373 442.342 24.2187 441.851 24.24C441.531 24.24 441.169 24.144 440.763 23.952C440.379 23.7387 439.579 23.216 438.363 22.384C436.486 21.1253 435.526 20.496 435.483 20.496C435.462 20.496 435.409 21.0827 435.323 22.256C435.281 23.0667 435.227 23.5893 435.163 23.824C435.121 24.0373 434.982 24.272 434.747 24.528C434.385 24.8907 433.958 25.072 433.467 25.072C433.105 25.072 432.774 24.976 432.475 24.784C432.177 24.5707 431.974 24.2933 431.867 23.952C431.782 23.6533 431.697 21.1893 431.611 16.56C431.547 12.464 431.441 9.22133 431.291 6.832C431.227 5.872 431.195 5.136 431.195 4.624C431.195 3.984 431.249 3.536 431.355 3.28C431.483 3.00267 431.697 2.77867 431.995 2.608ZM457.086 13.808C456.702 13.616 456.158 13.52 455.454 13.52C454.686 13.52 454.035 13.6373 453.502 13.872C453.139 14.0213 452.67 14.352 452.094 14.864C451.518 15.3547 451.23 15.6747 451.23 15.824C451.23 15.888 451.56 15.92 452.222 15.92C453.203 15.92 454.376 15.8667 455.742 15.76C457.107 15.6533 457.886 15.536 458.078 15.408C458.142 15.3867 458.174 15.3227 458.174 15.216C458.174 15.024 458.056 14.7787 457.822 14.48C457.587 14.16 457.342 13.936 457.086 13.808ZM453.31 10.096C453.843 9.94667 454.472 9.872 455.198 9.872C456.542 9.872 457.768 10.1387 458.878 10.672C459.71 11.0987 460.403 11.7493 460.958 12.624C461.512 13.4773 461.854 14.4373 461.982 15.504C461.982 15.5467 461.982 15.6107 461.982 15.696C462.003 15.7813 462.014 15.8453 462.014 15.888C462.014 16.4427 461.907 16.9867 461.694 17.52C461.502 18.0533 461.267 18.416 460.99 18.608C460.627 18.864 458.078 19.184 453.342 19.568C452.339 19.6533 451.838 19.7493 451.838 19.856C451.838 19.984 452.062 20.1867 452.51 20.464C452.958 20.7413 453.395 20.9333 453.822 21.04C454.206 21.1253 454.515 21.168 454.75 21.168C455.432 21.168 456.318 20.944 457.406 20.496C458.174 20.176 458.739 20.016 459.102 20.016C459.464 20.016 459.806 20.176 460.126 20.496C460.552 20.9227 460.766 21.328 460.766 21.712C460.766 21.968 460.702 22.2347 460.574 22.512C460.467 22.768 460.318 22.9707 460.126 23.12C459.955 23.2693 459.635 23.4507 459.166 23.664C457.608 24.3467 456.158 24.688 454.814 24.688C454.046 24.688 453.256 24.5707 452.446 24.336C451.358 23.9947 450.366 23.4187 449.47 22.608C448.574 21.776 447.934 20.8587 447.549 19.856C447.315 19.1947 447.198 18.4587 447.198 17.648C447.198 16.4747 447.39 15.4933 447.774 14.704C448.222 13.7227 448.979 12.784 450.046 11.888C451.112 10.992 452.2 10.3947 453.31 10.096ZM473.734 13.616C472.881 13.2107 472.283 13.008 471.942 13.008C471.537 13.008 471.025 13.2853 470.406 13.84C469.574 14.608 469.158 15.5573 469.158 16.688C469.158 17.6053 469.457 18.2987 470.054 18.768C470.331 18.9813 470.619 19.088 470.918 19.088C471.281 19.088 471.739 18.9387 472.294 18.64C474.086 17.7013 474.982 16.4853 474.982 14.992V14.192L473.734 13.616ZM475.366 2.256C475.729 1.95733 476.155 1.808 476.646 1.808C476.966 1.808 477.233 1.872 477.446 2C477.702 2.14933 477.915 2.39467 478.086 2.736C478.214 2.992 478.299 3.70667 478.342 4.88C478.406 6.05333 478.449 8.74133 478.47 12.944L478.534 22.576L477.99 23.12C477.627 23.4827 477.211 23.664 476.742 23.664C476.294 23.664 475.889 23.504 475.526 23.184C475.163 22.864 474.982 22.5013 474.982 22.096C474.982 21.7547 474.961 21.5627 474.918 21.52H474.886C474.737 21.52 474.385 21.6587 473.83 21.936C472.785 22.4267 471.803 22.672 470.886 22.672C469.457 22.672 468.209 22.096 467.142 20.944C466.054 19.7493 465.51 18.3413 465.51 16.72C465.51 14.5867 466.342 12.752 468.006 11.216C469.265 10.064 470.63 9.488 472.102 9.488C472.742 9.488 473.329 9.57333 473.862 9.744C474.438 9.936 474.747 10.032 474.79 10.032C474.811 10.032 474.822 8.816 474.822 6.384V2.736L475.366 2.256ZM496.688 1.52C497.051 1.15733 497.488 0.975998 498 0.975998C498.384 0.975998 498.725 1.09333 499.024 1.328C499.344 1.54133 499.568 1.85067 499.696 2.256C499.76 2.49067 499.867 3.6 500.016 5.584C500.165 7.54667 500.24 8.912 500.24 9.68C500.24 9.872 500.283 9.98933 500.368 10.032C500.475 10.0747 500.72 10.096 501.104 10.096C501.68 10.096 502.011 10.032 502.096 9.904C502.139 9.79733 502.576 9.744 503.408 9.744C504.475 9.744 505.179 9.81867 505.52 9.968C505.84 10.1173 506.085 10.4053 506.256 10.832C506.405 11.1307 506.48 11.376 506.48 11.568C506.48 11.7173 506.448 11.8987 506.384 12.112C506.235 12.6027 505.957 12.9333 505.552 13.104C505.168 13.2533 504.4 13.36 503.248 13.424C501.947 13.488 501.104 13.5733 500.72 13.68L500.208 13.808L500.336 18.32C500.379 20.3253 500.4 21.4027 500.4 21.552C500.4 22.4907 500.325 23.12 500.176 23.44C499.856 24.1227 499.333 24.464 498.608 24.464C498.331 24.464 498.043 24.4 497.744 24.272C497.509 24.1653 497.339 24.0693 497.232 23.984C497.125 23.8773 497.029 23.6107 496.944 23.184C496.859 22.736 496.805 22.2133 496.784 21.616C496.763 21.0187 496.741 20.0373 496.72 18.672L496.656 14.032L495.696 14.064C495.12 14.1067 494.608 14.192 494.16 14.32C494.053 14.3627 493.883 14.384 493.648 14.384C492.923 14.384 492.4 14.16 492.08 13.712C491.909 13.4347 491.824 13.0613 491.824 12.592C491.824 12.1867 491.888 11.8667 492.016 11.632C492.315 11.0987 493.36 10.6933 495.152 10.416L496.624 10.192L496.496 7.376C496.411 5.37067 496.336 4.00533 496.272 3.28C496.229 2.768 496.208 2.49067 496.208 2.448C496.208 2.14933 496.368 1.84 496.688 1.52ZM510.777 1.552C511.139 1.25333 511.513 1.104 511.897 1.104C512.665 1.104 513.23 1.57333 513.593 2.512C513.742 2.93867 513.902 3.96267 514.073 5.584C514.243 7.184 514.382 8.67733 514.489 10.064C514.595 11.4293 514.659 12.112 514.681 12.112C514.723 12.112 515.075 11.8773 515.737 11.408C517.038 10.4907 518.275 10.032 519.449 10.032C520.537 10.032 521.486 10.4373 522.297 11.248C523.129 12.0373 523.779 13.2 524.249 14.736C524.611 15.9307 524.793 17.7867 524.793 20.304C524.793 21.8827 524.697 22.9493 524.505 23.504C524.291 24.08 523.801 24.368 523.033 24.368C522.521 24.368 522.094 24.1973 521.753 23.856L521.273 23.376L521.177 20.144C521.049 15.984 520.473 13.84 519.449 13.712H519.353C518.862 13.712 518.254 13.9893 517.529 14.544C516.803 15.0773 516.281 15.664 515.961 16.304C515.769 16.7307 515.513 17.04 515.193 17.232L514.777 17.52L514.713 21.008C514.67 22.7147 514.627 23.7493 514.585 24.112C514.563 24.4533 514.446 24.7307 514.233 24.944C513.891 25.3067 513.465 25.488 512.953 25.488C512.185 25.488 511.651 25.1467 511.353 24.464C511.203 24.0587 511.097 21.6053 511.033 17.104C510.926 9.57333 510.649 5.06133 510.201 3.568C510.137 3.33333 510.105 3.10933 510.105 2.896C510.105 2.34133 510.329 1.89333 510.777 1.552ZM537.059 12.944C536.675 12.6667 536.067 12.528 535.235 12.528C534.723 12.528 534.318 12.592 534.019 12.72C533.742 12.848 533.422 13.1147 533.059 13.52C532.718 13.904 532.547 14.1813 532.547 14.352C532.547 14.5013 532.707 14.576 533.027 14.576C533.454 14.5547 534.339 14.4587 535.683 14.288C537.027 14.1173 537.721 14.0107 537.763 13.968C537.785 13.9467 537.795 13.9147 537.795 13.872C537.795 13.6373 537.55 13.328 537.059 12.944ZM533.603 9.04C533.987 8.93333 534.457 8.88 535.011 8.88C536.142 8.88 537.113 9.04 537.923 9.36C538.585 9.59467 539.235 10.0533 539.875 10.736C540.537 11.3973 541.081 12.144 541.507 12.976C541.934 13.8293 542.147 14.4053 542.147 14.704C542.147 15.3867 541.849 16.0267 541.251 16.624C540.611 17.2 538.617 17.6267 535.267 17.904C533.987 18.0107 533.155 18.096 532.771 18.16C532.387 18.224 532.195 18.32 532.195 18.448C532.195 18.5547 532.387 18.7787 532.771 19.12C533.433 19.76 534.617 20.144 536.323 20.272C536.494 20.2933 536.718 20.304 536.995 20.304C537.443 20.304 537.977 20.1973 538.595 19.984C539.47 19.664 540.163 19.504 540.675 19.504C541.443 19.504 541.945 19.888 542.179 20.656C542.243 20.848 542.275 21.0293 542.275 21.2C542.275 21.9253 541.817 22.5227 540.899 22.992C540.003 23.44 538.734 23.696 537.091 23.76C537.006 23.76 536.889 23.7707 536.739 23.792C536.59 23.792 536.483 23.792 536.419 23.792C534.606 23.792 533.038 23.44 531.715 22.736C530.414 22.0107 529.433 20.9867 528.771 19.664C528.451 19.024 528.291 18.1707 528.291 17.104C528.291 16.0373 528.398 15.1947 528.611 14.576C529.145 12.976 529.806 11.7493 530.595 10.896C531.385 10.0213 532.387 9.40267 533.603 9.04ZM546.784 8.528C546.997 8.42133 547.253 8.368 547.552 8.368C548.64 8.368 549.323 9.28533 549.6 11.12C549.664 11.6747 549.739 11.952 549.824 11.952C549.845 11.952 550.144 11.7067 550.72 11.216C551.893 10.1707 553.088 9.648 554.304 9.648C554.965 9.648 555.595 9.82933 556.192 10.192C556.768 10.5547 557.141 10.8747 557.312 11.152L557.6 11.6L558.368 10.896C559.541 9.85067 560.8 9.328 562.144 9.328C563.445 9.328 564.565 9.82933 565.504 10.832C567.104 12.4747 568.053 15.28 568.352 19.248C568.395 19.9733 568.416 20.4213 568.416 20.592C568.416 21.1467 568.341 21.552 568.192 21.808C568.064 22.064 567.829 22.288 567.488 22.48C567.189 22.6293 566.901 22.704 566.624 22.704C566.155 22.704 565.739 22.4907 565.376 22.064C565.099 21.7013 564.917 21.0827 564.832 20.208C564.661 18.2453 564.448 16.784 564.192 15.824C563.936 14.864 563.573 14.1173 563.104 13.584C562.741 13.2 562.368 13.008 561.984 13.008C561.259 13.008 560.619 13.5733 560.064 14.704C559.851 15.152 559.712 15.568 559.648 15.952C559.584 16.336 559.531 17.2107 559.488 18.576C559.403 20.4533 559.296 21.5733 559.168 21.936C558.869 22.64 558.325 22.992 557.536 22.992C557.067 22.992 556.672 22.832 556.352 22.512C555.84 22 555.52 20.4853 555.392 17.968C555.328 17.008 555.211 16.08 555.04 15.184C554.869 14.288 554.709 13.7547 554.56 13.584C554.432 13.4347 554.293 13.36 554.144 13.36C553.888 13.36 553.461 13.6267 552.864 14.16C552.224 14.7573 551.744 15.3973 551.424 16.08C551.125 16.6987 550.944 17.2 550.88 17.584C550.837 17.9467 550.795 19.1947 550.752 21.328C550.731 21.8827 550.56 22.3307 550.24 22.672C549.92 23.0133 549.515 23.184 549.024 23.184C548.533 23.184 548.139 23.088 547.84 22.896C547.413 22.5973 547.115 22.0213 546.944 21.168C546.773 20.2933 546.581 18.2347 546.368 14.992C546.24 13.072 546.091 11.7707 545.92 11.088C545.792 10.576 545.728 10.2347 545.728 10.064C545.728 9.872 545.792 9.648 545.92 9.392C546.112 8.944 546.4 8.656 546.784 8.528ZM581.646 8.88C581.988 8.51733 582.404 8.336 582.894 8.336C583.812 8.336 584.398 8.69867 584.654 9.424C584.782 9.85067 584.846 11.0987 584.846 13.168C584.846 15.2587 584.91 16.624 585.038 17.264C585.358 18.736 586.009 19.472 586.99 19.472C587.182 19.472 587.385 19.44 587.598 19.376C587.897 19.2907 588.281 19.0027 588.75 18.512C589.241 18.0213 589.593 17.5733 589.806 17.168C590.19 16.3787 590.532 14.8107 590.83 12.464C591.044 10.864 591.374 9.89333 591.822 9.552C592.121 9.31733 592.452 9.2 592.814 9.2C593.22 9.2 593.593 9.34933 593.934 9.648C594.297 9.92533 594.542 10.288 594.67 10.736C594.777 11.2053 594.958 12.88 595.214 15.76C595.492 18.6187 595.63 20.4427 595.63 21.232V21.488C595.545 21.8933 595.342 22.2133 595.022 22.448C594.702 22.6827 594.35 22.8 593.966 22.8C593.604 22.8 593.252 22.6933 592.91 22.48C592.59 22.2667 592.366 21.9573 592.238 21.552C592.068 21.0613 591.972 20.816 591.95 20.816C591.865 20.816 591.502 21.0613 590.862 21.552C589.582 22.576 588.324 23.088 587.086 23.088H586.99C585.966 23.088 585.049 22.8427 584.238 22.352C583.428 21.8613 582.788 21.168 582.318 20.272C581.87 19.376 581.582 18.5653 581.454 17.84C581.326 17.0933 581.252 15.6533 581.23 13.52L581.134 9.456L581.646 8.88ZM608.831 16.304C608.831 15.6213 608.426 14.928 607.615 14.224C606.804 13.52 605.951 13.168 605.055 13.168C604.5 13.1893 604.106 13.264 603.871 13.392C603.636 13.52 603.412 13.808 603.199 14.256C603.007 14.704 602.911 15.1627 602.911 15.632C602.911 15.76 602.932 16.2933 602.975 17.232L603.103 19.472L603.679 19.568C603.743 19.5893 603.839 19.6 603.967 19.6C604.543 19.6 605.236 19.408 606.047 19.024C606.879 18.6187 607.583 18.1387 608.159 17.584C608.607 17.136 608.831 16.7093 608.831 16.304ZM600.351 9.456C600.372 9.456 600.404 9.456 600.447 9.456C600.49 9.43467 600.532 9.424 600.575 9.424C601.194 9.424 601.652 9.57333 601.951 9.872C602.058 9.936 602.175 9.968 602.303 9.968C602.474 9.968 602.762 9.904 603.167 9.776C603.743 9.60533 604.308 9.52 604.863 9.52C605.887 9.52 606.911 9.75467 607.935 10.224C608.98 10.672 609.866 11.2907 610.591 12.08C611.85 13.4667 612.479 14.896 612.479 16.368C612.479 18.0747 611.668 19.5253 610.047 20.72C609.087 21.4453 608.042 22.0427 606.911 22.512C605.78 22.9813 604.852 23.216 604.127 23.216C603.935 23.216 603.796 23.2053 603.711 23.184L603.199 23.088C603.242 23.856 603.284 25.0187 603.327 26.576C603.37 28.1333 603.412 29.3067 603.455 30.096L602.815 30.736C602.388 31.1627 601.972 31.376 601.567 31.376C601.183 31.376 600.81 31.1947 600.447 30.832C600.127 30.512 599.924 30.2027 599.839 29.904C599.796 29.648 599.7 27.2693 599.551 22.768C599.444 18.288 599.327 15.4933 599.199 14.384C599.092 13.3813 599.039 12.4427 599.039 11.568C599.039 11.056 599.06 10.7253 599.103 10.576C599.167 10.4053 599.306 10.2133 599.519 10C599.839 9.68 600.116 9.49867 600.351 9.456ZM617.099 20.56C617.483 20.4107 617.707 20.336 617.771 20.336L618.379 20.56C619.147 20.88 619.531 21.456 619.531 22.288C619.531 22.736 619.339 23.1627 618.955 23.568C618.592 23.9733 618.208 24.176 617.803 24.176C617.419 24.176 617.056 24.048 616.715 23.792C616.395 23.5147 616.171 23.1733 616.043 22.768C615.979 22.576 615.947 22.3947 615.947 22.224C615.947 21.84 616.053 21.4987 616.267 21.2C616.48 20.88 616.757 20.6667 617.099 20.56Z" fill="#27263C"/>
</svg>
