<svg width="472" height="32" viewBox="0 0 472 32" fill="none" xmlns="http://www.w3.org/2000/svg">
<path d="M10.136 13.936C9.368 13.6373 8.152 13.488 6.488 13.488C5.82667 13.488 5.368 13.5093 5.112 13.552L4.44 13.616V19.536L5.624 19.664C5.79467 19.6853 6.06133 19.696 6.424 19.696C7.46933 19.696 8.51467 19.536 9.56 19.216C10.6053 18.8747 11.4587 18.4373 12.12 17.904C12.568 17.5413 12.792 17.1893 12.792 16.848C12.792 16.5707 12.7067 16.272 12.536 15.952C12.1093 15.056 11.3093 14.384 10.136 13.936ZM10.008 5.456C9.70933 5.22133 9.00533 5.09333 7.896 5.072H7.128C6.01867 5.072 5.144 5.136 4.504 5.264C4.35467 5.30667 4.25867 5.37067 4.216 5.456C4.17333 5.54133 4.152 5.744 4.152 6.064C4.152 6.512 4.16267 6.928 4.184 7.312C4.26933 8.63467 4.33333 9.31733 4.376 9.36H4.44C4.71733 9.36 5.464 9.2 6.68 8.88C7.91733 8.53867 8.73867 8.272 9.144 8.08C10.104 7.65333 10.584 7.10933 10.584 6.448C10.584 6.08533 10.392 5.75467 10.008 5.456ZM1.08 2.896C1.48533 2.36267 2.21067 2.01067 3.256 1.84C4.30133 1.66933 5.67733 1.56267 7.384 1.52H8.12C9.16533 1.52 10.0293 1.63733 10.712 1.872C11.7573 2.21333 12.6107 2.81067 13.272 3.664C13.9333 4.496 14.264 5.41333 14.264 6.416C14.264 6.45867 14.2533 6.53333 14.232 6.64C14.232 6.74667 14.232 6.82133 14.232 6.864C14.1253 7.93067 13.6347 8.944 12.76 9.904L11.992 10.736L12.92 11.28C13.9227 11.856 14.7547 12.6987 15.416 13.808C16.0987 14.896 16.44 15.952 16.44 16.976C16.44 17.232 16.4293 17.424 16.408 17.552C16.2587 18.5973 15.5973 19.6213 14.424 20.624C13.2507 21.6053 11.8533 22.3413 10.232 22.832C9.464 23.0453 8.408 23.152 7.064 23.152H6.296C4.97333 23.152 4.13067 23.1307 3.768 23.088C3.40533 23.0453 2.97867 22.9067 2.488 22.672C1.80533 22.352 1.38933 22.064 1.24 21.808C1.048 21.5307 0.898667 18.8533 0.792 13.776C0.706667 10.7253 0.664 8.29333 0.664 6.48C0.664 4.45333 0.802667 3.25867 1.08 2.896ZM20.49 8.88C20.8313 8.51733 21.2473 8.336 21.738 8.336C22.6553 8.336 23.242 8.69867 23.498 9.424C23.626 9.85067 23.69 11.0987 23.69 13.168C23.69 15.2587 23.754 16.624 23.882 17.264C24.202 18.736 24.8527 19.472 25.834 19.472C26.026 19.472 26.2287 19.44 26.442 19.376C26.7407 19.2907 27.1247 19.0027 27.594 18.512C28.0847 18.0213 28.4367 17.5733 28.65 17.168C29.034 16.3787 29.3753 14.8107 29.674 12.464C29.8873 10.864 30.218 9.89333 30.666 9.552C30.9647 9.31733 31.2953 9.2 31.658 9.2C32.0633 9.2 32.4367 9.34933 32.778 9.648C33.1407 9.92533 33.386 10.288 33.514 10.736C33.6207 11.2053 33.802 12.88 34.058 15.76C34.3353 18.6187 34.474 20.4427 34.474 21.232V21.488C34.3887 21.8933 34.186 22.2133 33.866 22.448C33.546 22.6827 33.194 22.8 32.81 22.8C32.4473 22.8 32.0953 22.6933 31.754 22.48C31.434 22.2667 31.21 21.9573 31.082 21.552C30.9113 21.0613 30.8153 20.816 30.794 20.816C30.7087 20.816 30.346 21.0613 29.706 21.552C28.426 22.576 27.1673 23.088 25.93 23.088H25.834C24.81 23.088 23.8927 22.8427 23.082 22.352C22.2713 21.8613 21.6313 21.168 21.162 20.272C20.714 19.376 20.426 18.5653 20.298 17.84C20.17 17.0933 20.0953 15.6533 20.074 13.52L19.978 9.456L20.49 8.88ZM42.9068 1.52C43.2694 1.15733 43.7068 0.975998 44.2188 0.975998C44.6028 0.975998 44.9441 1.09333 45.2428 1.328C45.5628 1.54133 45.7868 1.85067 45.9148 2.256C45.9788 2.49067 46.0854 3.6 46.2348 5.584C46.3841 7.54667 46.4588 8.912 46.4588 9.68C46.4588 9.872 46.5014 9.98933 46.5868 10.032C46.6934 10.0747 46.9388 10.096 47.3228 10.096C47.8988 10.096 48.2294 10.032 48.3148 9.904C48.3574 9.79733 48.7948 9.744 49.6268 9.744C50.6934 9.744 51.3974 9.81867 51.7388 9.968C52.0588 10.1173 52.3041 10.4053 52.4748 10.832C52.6241 11.1307 52.6988 11.376 52.6988 11.568C52.6988 11.7173 52.6668 11.8987 52.6028 12.112C52.4534 12.6027 52.1761 12.9333 51.7708 13.104C51.3868 13.2533 50.6188 13.36 49.4668 13.424C48.1654 13.488 47.3228 13.5733 46.9388 13.68L46.4268 13.808L46.5548 18.32C46.5974 20.3253 46.6188 21.4027 46.6188 21.552C46.6188 22.4907 46.5441 23.12 46.3948 23.44C46.0748 24.1227 45.5521 24.464 44.8268 24.464C44.5494 24.464 44.2614 24.4 43.9628 24.272C43.7281 24.1653 43.5574 24.0693 43.4508 23.984C43.3441 23.8773 43.2481 23.6107 43.1628 23.184C43.0774 22.736 43.0241 22.2133 43.0028 21.616C42.9814 21.0187 42.9601 20.0373 42.9388 18.672L42.8748 14.032L41.9148 14.064C41.3388 14.1067 40.8268 14.192 40.3788 14.32C40.2721 14.3627 40.1014 14.384 39.8668 14.384C39.1414 14.384 38.6188 14.16 38.2988 13.712C38.1281 13.4347 38.0428 13.0613 38.0428 12.592C38.0428 12.1867 38.1068 11.8667 38.2348 11.632C38.5334 11.0987 39.5788 10.6933 41.3708 10.416L42.8428 10.192L42.7148 7.376C42.6294 5.37067 42.5548 4.00533 42.4908 3.28C42.4481 2.768 42.4268 2.49067 42.4268 2.448C42.4268 2.14933 42.5868 1.84 42.9068 1.52ZM71.0005 1.52C71.3632 1.15733 71.8005 0.975998 72.3125 0.975998C72.6965 0.975998 73.0378 1.09333 73.3365 1.328C73.6565 1.54133 73.8805 1.85067 74.0085 2.256C74.0725 2.49067 74.1792 3.6 74.3285 5.584C74.4778 7.54667 74.5525 8.912 74.5525 9.68C74.5525 9.872 74.5952 9.98933 74.6805 10.032C74.7872 10.0747 75.0325 10.096 75.4165 10.096C75.9925 10.096 76.3232 10.032 76.4085 9.904C76.4512 9.79733 76.8885 9.744 77.7205 9.744C78.7872 9.744 79.4912 9.81867 79.8325 9.968C80.1525 10.1173 80.3978 10.4053 80.5685 10.832C80.7178 11.1307 80.7925 11.376 80.7925 11.568C80.7925 11.7173 80.7605 11.8987 80.6965 12.112C80.5472 12.6027 80.2698 12.9333 79.8645 13.104C79.4805 13.2533 78.7125 13.36 77.5605 13.424C76.2592 13.488 75.4165 13.5733 75.0325 13.68L74.5205 13.808L74.6485 18.32C74.6912 20.3253 74.7125 21.4027 74.7125 21.552C74.7125 22.4907 74.6378 23.12 74.4885 23.44C74.1685 24.1227 73.6458 24.464 72.9205 24.464C72.6432 24.464 72.3552 24.4 72.0565 24.272C71.8218 24.1653 71.6512 24.0693 71.5445 23.984C71.4378 23.8773 71.3418 23.6107 71.2565 23.184C71.1712 22.736 71.1178 22.2133 71.0965 21.616C71.0752 21.0187 71.0538 20.0373 71.0325 18.672L70.9685 14.032L70.0085 14.064C69.4325 14.1067 68.9205 14.192 68.4725 14.32C68.3658 14.3627 68.1952 14.384 67.9605 14.384C67.2352 14.384 66.7125 14.16 66.3925 13.712C66.2218 13.4347 66.1365 13.0613 66.1365 12.592C66.1365 12.1867 66.2005 11.8667 66.3285 11.632C66.6272 11.0987 67.6725 10.6933 69.4645 10.416L70.9365 10.192L70.8085 7.376C70.7232 5.37067 70.6485 4.00533 70.5845 3.28C70.5418 2.768 70.5205 2.49067 70.5205 2.448C70.5205 2.14933 70.6805 1.84 71.0005 1.52ZM85.089 1.552C85.4517 1.25333 85.825 1.104 86.209 1.104C86.977 1.104 87.5423 1.57333 87.905 2.512C88.0543 2.93867 88.2143 3.96267 88.385 5.584C88.5557 7.184 88.6943 8.67733 88.801 10.064C88.9077 11.4293 88.9717 12.112 88.993 12.112C89.0357 12.112 89.3877 11.8773 90.049 11.408C91.3503 10.4907 92.5877 10.032 93.761 10.032C94.849 10.032 95.7983 10.4373 96.609 11.248C97.441 12.0373 98.0917 13.2 98.561 14.736C98.9237 15.9307 99.105 17.7867 99.105 20.304C99.105 21.8827 99.009 22.9493 98.817 23.504C98.6037 24.08 98.113 24.368 97.345 24.368C96.833 24.368 96.4063 24.1973 96.065 23.856L95.585 23.376L95.489 20.144C95.361 15.984 94.785 13.84 93.761 13.712H93.665C93.1743 13.712 92.5663 13.9893 91.841 14.544C91.1157 15.0773 90.593 15.664 90.273 16.304C90.081 16.7307 89.825 17.04 89.505 17.232L89.089 17.52L89.025 21.008C88.9823 22.7147 88.9397 23.7493 88.897 24.112C88.8757 24.4533 88.7583 24.7307 88.545 24.944C88.2037 25.3067 87.777 25.488 87.265 25.488C86.497 25.488 85.9637 25.1467 85.665 24.464C85.5157 24.0587 85.409 21.6053 85.345 17.104C85.2383 9.57333 84.961 5.06133 84.513 3.568C84.449 3.33333 84.417 3.10933 84.417 2.896C84.417 2.34133 84.641 1.89333 85.089 1.552ZM112.492 13.808C112.108 13.616 111.564 13.52 110.86 13.52C110.092 13.52 109.441 13.6373 108.908 13.872C108.545 14.0213 108.076 14.352 107.5 14.864C106.924 15.3547 106.636 15.6747 106.636 15.824C106.636 15.888 106.966 15.92 107.628 15.92C108.609 15.92 109.782 15.8667 111.148 15.76C112.513 15.6533 113.292 15.536 113.484 15.408C113.548 15.3867 113.58 15.3227 113.58 15.216C113.58 15.024 113.462 14.7787 113.228 14.48C112.993 14.16 112.748 13.936 112.492 13.808ZM108.716 10.096C109.249 9.94667 109.878 9.872 110.604 9.872C111.948 9.872 113.174 10.1387 114.284 10.672C115.116 11.0987 115.809 11.7493 116.364 12.624C116.918 13.4773 117.26 14.4373 117.388 15.504C117.388 15.5467 117.388 15.6107 117.388 15.696C117.409 15.7813 117.42 15.8453 117.42 15.888C117.42 16.4427 117.313 16.9867 117.1 17.52C116.908 18.0533 116.673 18.416 116.396 18.608C116.033 18.864 113.484 19.184 108.748 19.568C107.745 19.6533 107.244 19.7493 107.244 19.856C107.244 19.984 107.468 20.1867 107.916 20.464C108.364 20.7413 108.801 20.9333 109.228 21.04C109.612 21.1253 109.921 21.168 110.156 21.168C110.838 21.168 111.724 20.944 112.812 20.496C113.58 20.176 114.145 20.016 114.508 20.016C114.87 20.016 115.212 20.176 115.532 20.496C115.958 20.9227 116.172 21.328 116.172 21.712C116.172 21.968 116.108 22.2347 115.98 22.512C115.873 22.768 115.724 22.9707 115.532 23.12C115.361 23.2693 115.041 23.4507 114.572 23.664C113.014 24.3467 111.564 24.688 110.22 24.688C109.452 24.688 108.662 24.5707 107.852 24.336C106.764 23.9947 105.772 23.4187 104.876 22.608C103.98 21.776 103.34 20.8587 102.956 19.856C102.721 19.1947 102.604 18.4587 102.604 17.648C102.604 16.4747 102.796 15.4933 103.18 14.704C103.628 13.7227 104.385 12.784 105.452 11.888C106.518 10.992 107.606 10.3947 108.716 10.096ZM140.956 16.304C140.956 15.6213 140.551 14.928 139.74 14.224C138.929 13.52 138.076 13.168 137.18 13.168C136.625 13.1893 136.231 13.264 135.996 13.392C135.761 13.52 135.537 13.808 135.324 14.256C135.132 14.704 135.036 15.1627 135.036 15.632C135.036 15.76 135.057 16.2933 135.1 17.232L135.228 19.472L135.804 19.568C135.868 19.5893 135.964 19.6 136.092 19.6C136.668 19.6 137.361 19.408 138.172 19.024C139.004 18.6187 139.708 18.1387 140.284 17.584C140.732 17.136 140.956 16.7093 140.956 16.304ZM132.476 9.456C132.497 9.456 132.529 9.456 132.572 9.456C132.615 9.43467 132.657 9.424 132.7 9.424C133.319 9.424 133.777 9.57333 134.076 9.872C134.183 9.936 134.3 9.968 134.428 9.968C134.599 9.968 134.887 9.904 135.292 9.776C135.868 9.60533 136.433 9.52 136.988 9.52C138.012 9.52 139.036 9.75467 140.06 10.224C141.105 10.672 141.991 11.2907 142.716 12.08C143.975 13.4667 144.604 14.896 144.604 16.368C144.604 18.0747 143.793 19.5253 142.172 20.72C141.212 21.4453 140.167 22.0427 139.036 22.512C137.905 22.9813 136.977 23.216 136.252 23.216C136.06 23.216 135.921 23.2053 135.836 23.184L135.324 23.088C135.367 23.856 135.409 25.0187 135.452 26.576C135.495 28.1333 135.537 29.3067 135.58 30.096L134.94 30.736C134.513 31.1627 134.097 31.376 133.692 31.376C133.308 31.376 132.935 31.1947 132.572 30.832C132.252 30.512 132.049 30.2027 131.964 29.904C131.921 29.648 131.825 27.2693 131.676 22.768C131.569 18.288 131.452 15.4933 131.324 14.384C131.217 13.3813 131.164 12.4427 131.164 11.568C131.164 11.056 131.185 10.7253 131.228 10.576C131.292 10.4053 131.431 10.2133 131.644 10C131.964 9.68 132.241 9.49867 132.476 9.456ZM148.808 1.552C149.17 1.25333 149.544 1.104 149.928 1.104C150.696 1.104 151.261 1.57333 151.624 2.512C151.773 2.93867 151.933 3.96267 152.104 5.584C152.274 7.184 152.413 8.67733 152.52 10.064C152.626 11.4293 152.69 12.112 152.712 12.112C152.754 12.112 153.106 11.8773 153.768 11.408C155.069 10.4907 156.306 10.032 157.48 10.032C158.568 10.032 159.517 10.4373 160.328 11.248C161.16 12.0373 161.81 13.2 162.28 14.736C162.642 15.9307 162.824 17.7867 162.824 20.304C162.824 21.8827 162.728 22.9493 162.536 23.504C162.322 24.08 161.832 24.368 161.064 24.368C160.552 24.368 160.125 24.1973 159.784 23.856L159.304 23.376L159.208 20.144C159.08 15.984 158.504 13.84 157.48 13.712H157.384C156.893 13.712 156.285 13.9893 155.56 14.544C154.834 15.0773 154.312 15.664 153.992 16.304C153.8 16.7307 153.544 17.04 153.224 17.232L152.808 17.52L152.744 21.008C152.701 22.7147 152.658 23.7493 152.616 24.112C152.594 24.4533 152.477 24.7307 152.264 24.944C151.922 25.3067 151.496 25.488 150.984 25.488C150.216 25.488 149.682 25.1467 149.384 24.464C149.234 24.0587 149.128 21.6053 149.064 17.104C148.957 9.57333 148.68 5.06133 148.232 3.568C148.168 3.33333 148.136 3.10933 148.136 2.896C148.136 2.34133 148.36 1.89333 148.808 1.552ZM174.995 11.6C174.419 11.4933 173.939 11.44 173.555 11.44C172.68 11.44 171.944 11.6213 171.347 11.984C171.048 12.176 170.696 12.8267 170.291 13.936C169.907 15.024 169.715 15.8987 169.715 16.56C169.715 17.6267 170.056 18.4907 170.739 19.152C171.443 19.792 172.36 20.1227 173.491 20.144C174.408 20.144 175.261 19.888 176.051 19.376C176.861 18.864 177.448 18.192 177.811 17.36C178.045 16.8267 178.163 16.2187 178.163 15.536C178.163 14.704 178.003 13.9787 177.683 13.36C177.448 12.8693 177.128 12.496 176.723 12.24C176.317 11.984 175.741 11.7707 174.995 11.6ZM171.379 8.176C172.125 7.984 172.861 7.888 173.587 7.888C174.952 7.888 176.413 8.22933 177.971 8.912C179.08 9.40267 179.955 10.2667 180.595 11.504C181.256 12.7413 181.597 14.2027 181.619 15.888V16.08C181.619 18.6187 180.488 20.6773 178.227 22.256C176.819 23.2587 175.251 23.76 173.523 23.76C172.093 23.76 170.771 23.408 169.555 22.704C168.339 21.9787 167.421 20.9653 166.803 19.664C166.589 19.216 166.451 18.832 166.387 18.512C166.344 18.192 166.323 17.52 166.323 16.496C166.344 14.9813 166.504 13.7867 166.803 12.912C167.507 10.9707 168.339 9.65867 169.299 8.976C169.683 8.69867 170.376 8.432 171.379 8.176ZM190.063 1.52C190.426 1.15733 190.863 0.975998 191.375 0.975998C191.759 0.975998 192.1 1.09333 192.399 1.328C192.719 1.54133 192.943 1.85067 193.071 2.256C193.135 2.49067 193.242 3.6 193.391 5.584C193.54 7.54667 193.615 8.912 193.615 9.68C193.615 9.872 193.658 9.98933 193.743 10.032C193.85 10.0747 194.095 10.096 194.479 10.096C195.055 10.096 195.386 10.032 195.471 9.904C195.514 9.79733 195.951 9.744 196.783 9.744C197.85 9.744 198.554 9.81867 198.895 9.968C199.215 10.1173 199.46 10.4053 199.631 10.832C199.78 11.1307 199.855 11.376 199.855 11.568C199.855 11.7173 199.823 11.8987 199.759 12.112C199.61 12.6027 199.332 12.9333 198.927 13.104C198.543 13.2533 197.775 13.36 196.623 13.424C195.322 13.488 194.479 13.5733 194.095 13.68L193.583 13.808L193.711 18.32C193.754 20.3253 193.775 21.4027 193.775 21.552C193.775 22.4907 193.7 23.12 193.551 23.44C193.231 24.1227 192.708 24.464 191.983 24.464C191.706 24.464 191.418 24.4 191.119 24.272C190.884 24.1653 190.714 24.0693 190.607 23.984C190.5 23.8773 190.404 23.6107 190.319 23.184C190.234 22.736 190.18 22.2133 190.159 21.616C190.138 21.0187 190.116 20.0373 190.095 18.672L190.031 14.032L189.071 14.064C188.495 14.1067 187.983 14.192 187.535 14.32C187.428 14.3627 187.258 14.384 187.023 14.384C186.298 14.384 185.775 14.16 185.455 13.712C185.284 13.4347 185.199 13.0613 185.199 12.592C185.199 12.1867 185.263 11.8667 185.391 11.632C185.69 11.0987 186.735 10.6933 188.527 10.416L189.999 10.192L189.871 7.376C189.786 5.37067 189.711 4.00533 189.647 3.28C189.604 2.768 189.583 2.49067 189.583 2.448C189.583 2.14933 189.743 1.84 190.063 1.52ZM212.12 11.6C211.544 11.4933 211.064 11.44 210.68 11.44C209.805 11.44 209.069 11.6213 208.472 11.984C208.173 12.176 207.821 12.8267 207.416 13.936C207.032 15.024 206.84 15.8987 206.84 16.56C206.84 17.6267 207.181 18.4907 207.864 19.152C208.568 19.792 209.485 20.1227 210.616 20.144C211.533 20.144 212.386 19.888 213.176 19.376C213.986 18.864 214.573 18.192 214.936 17.36C215.17 16.8267 215.288 16.2187 215.288 15.536C215.288 14.704 215.128 13.9787 214.808 13.36C214.573 12.8693 214.253 12.496 213.848 12.24C213.442 11.984 212.866 11.7707 212.12 11.6ZM208.504 8.176C209.25 7.984 209.986 7.888 210.712 7.888C212.077 7.888 213.538 8.22933 215.096 8.912C216.205 9.40267 217.08 10.2667 217.72 11.504C218.381 12.7413 218.722 14.2027 218.744 15.888V16.08C218.744 18.6187 217.613 20.6773 215.352 22.256C213.944 23.2587 212.376 23.76 210.648 23.76C209.218 23.76 207.896 23.408 206.68 22.704C205.464 21.9787 204.546 20.9653 203.928 19.664C203.714 19.216 203.576 18.832 203.512 18.512C203.469 18.192 203.448 17.52 203.448 16.496C203.469 14.9813 203.629 13.7867 203.928 12.912C204.632 10.9707 205.464 9.65867 206.424 8.976C206.808 8.69867 207.501 8.432 208.504 8.176ZM225.748 8.208C226.132 8.10133 226.729 8.048 227.54 8.048C229.247 8.048 230.484 8.176 231.252 8.432C232.319 8.77333 232.852 9.36 232.852 10.192C232.852 10.6827 232.617 11.1307 232.148 11.536C231.828 11.8347 231.519 11.984 231.22 11.984C231.199 11.984 231.156 11.984 231.092 11.984C231.028 11.9627 230.975 11.952 230.932 11.952C229.524 11.7173 228.415 11.6 227.604 11.6C227.348 11.6 227.113 11.6213 226.9 11.664C226.239 11.8347 225.908 12.144 225.908 12.592C225.908 12.6773 225.919 12.7413 225.94 12.784C226.089 13.2107 226.932 13.744 228.468 14.384C231.22 15.536 232.916 16.9653 233.556 18.672C233.748 19.184 233.844 19.664 233.844 20.112C233.844 20.9013 233.556 21.5733 232.98 22.128C232.425 22.6827 231.636 23.056 230.612 23.248C230.185 23.3333 229.481 23.376 228.5 23.376C226.708 23.376 225.567 23.2693 225.076 23.056C224.799 22.928 224.564 22.7147 224.372 22.416C224.18 22.096 224.084 21.7867 224.084 21.488C224.084 21.168 224.191 20.848 224.404 20.528C224.617 20.1867 224.873 19.952 225.172 19.824C225.449 19.7173 225.78 19.664 226.164 19.664C226.313 19.664 226.644 19.6853 227.156 19.728C227.497 19.7707 227.956 19.792 228.532 19.792C229.428 19.792 229.876 19.6853 229.876 19.472C229.876 19.088 228.948 18.512 227.092 17.744C225.428 17.0187 224.201 16.2613 223.412 15.472C222.644 14.6613 222.26 13.744 222.26 12.72C222.26 12.5493 222.281 12.2933 222.324 11.952C222.495 10.9067 222.921 10.0747 223.604 9.456C224.159 8.90133 224.873 8.48533 225.748 8.208ZM247.691 8.08C248.075 7.90933 248.32 7.824 248.427 7.824C248.512 7.824 248.758 7.90933 249.163 8.08C249.547 8.22933 249.846 8.54933 250.059 9.04C250.294 9.53067 250.603 10.5227 250.987 12.016C252.032 16.1333 252.672 18.3093 252.907 18.544H252.939C253.024 18.544 253.344 17.9147 253.899 16.656C254.454 15.376 255.094 14.064 255.819 12.72C256.566 11.3547 257.195 10.5973 257.707 10.448C257.92 10.384 258.155 10.352 258.411 10.352C259.222 10.352 259.819 10.576 260.203 11.024C260.459 11.3227 260.854 12.1547 261.387 13.52C262.603 16.5493 263.275 18.064 263.403 18.064H263.435C263.499 18.0213 263.883 16.976 264.587 14.928C265.291 12.7947 265.771 11.4507 266.027 10.896C266.304 10.3413 266.646 9.97867 267.051 9.808C267.328 9.68 267.616 9.616 267.915 9.616C268.022 9.616 268.096 9.62667 268.139 9.648C268.48 9.73333 268.8 9.94667 269.099 10.288C269.419 10.6293 269.579 10.9493 269.579 11.248C269.579 11.5893 269.088 13.104 268.107 15.792C267.147 18.48 266.432 20.3147 265.963 21.296C265.472 22.32 265.067 22.992 264.747 23.312C264.427 23.6107 264 23.76 263.467 23.76C262.699 23.76 262.144 23.5573 261.803 23.152C261.483 22.7253 260.886 21.4987 260.011 19.472C258.966 17.104 258.39 15.92 258.283 15.92C258.176 15.92 257.696 16.88 256.843 18.8C255.819 21.1253 255.094 22.576 254.667 23.152C254.24 23.7067 253.643 23.984 252.875 23.984H252.715C251.99 23.9627 251.52 23.8453 251.307 23.632C250.496 22.9493 249.27 19.5467 247.627 13.424C247.008 11.12 246.699 9.78667 246.699 9.424C246.699 9.232 246.742 9.05067 246.827 8.88C247.019 8.47467 247.307 8.208 247.691 8.08ZM282.992 13.808C282.608 13.616 282.064 13.52 281.36 13.52C280.592 13.52 279.941 13.6373 279.408 13.872C279.045 14.0213 278.576 14.352 278 14.864C277.424 15.3547 277.136 15.6747 277.136 15.824C277.136 15.888 277.466 15.92 278.128 15.92C279.109 15.92 280.282 15.8667 281.648 15.76C283.013 15.6533 283.792 15.536 283.984 15.408C284.048 15.3867 284.08 15.3227 284.08 15.216C284.08 15.024 283.962 14.7787 283.728 14.48C283.493 14.16 283.248 13.936 282.992 13.808ZM279.216 10.096C279.749 9.94667 280.378 9.872 281.104 9.872C282.448 9.872 283.674 10.1387 284.784 10.672C285.616 11.0987 286.309 11.7493 286.864 12.624C287.418 13.4773 287.76 14.4373 287.888 15.504C287.888 15.5467 287.888 15.6107 287.888 15.696C287.909 15.7813 287.92 15.8453 287.92 15.888C287.92 16.4427 287.813 16.9867 287.6 17.52C287.408 18.0533 287.173 18.416 286.896 18.608C286.533 18.864 283.984 19.184 279.248 19.568C278.245 19.6533 277.744 19.7493 277.744 19.856C277.744 19.984 277.968 20.1867 278.416 20.464C278.864 20.7413 279.301 20.9333 279.728 21.04C280.112 21.1253 280.421 21.168 280.656 21.168C281.338 21.168 282.224 20.944 283.312 20.496C284.08 20.176 284.645 20.016 285.008 20.016C285.37 20.016 285.712 20.176 286.032 20.496C286.458 20.9227 286.672 21.328 286.672 21.712C286.672 21.968 286.608 22.2347 286.48 22.512C286.373 22.768 286.224 22.9707 286.032 23.12C285.861 23.2693 285.541 23.4507 285.072 23.664C283.514 24.3467 282.064 24.688 280.72 24.688C279.952 24.688 279.162 24.5707 278.352 24.336C277.264 23.9947 276.272 23.4187 275.376 22.608C274.48 21.776 273.84 20.8587 273.456 19.856C273.221 19.1947 273.104 18.4587 273.104 17.648C273.104 16.4747 273.296 15.4933 273.68 14.704C274.128 13.7227 274.885 12.784 275.952 11.888C277.018 10.992 278.106 10.3947 279.216 10.096ZM291.864 9.328C292.248 9.008 292.664 8.848 293.112 8.848C293.582 8.848 293.987 9.01867 294.328 9.36C294.67 9.68 294.84 10.096 294.84 10.608C294.84 11.12 294.936 11.376 295.128 11.376C295.235 11.376 295.459 11.2587 295.8 11.024C297.379 9.936 298.947 9.392 300.504 9.392C301.166 9.392 301.816 9.50933 302.456 9.744C303.032 9.97867 303.438 10.2347 303.672 10.512C303.907 10.7893 304.024 11.1627 304.024 11.632C304.024 12.144 303.832 12.5813 303.448 12.944C303.128 13.2427 302.84 13.392 302.584 13.392C302.499 13.392 301.902 13.3173 300.792 13.168C300.664 13.1467 300.483 13.136 300.248 13.136C299.907 13.136 299.47 13.2533 298.936 13.488C297.55 14.128 296.579 14.9387 296.024 15.92C295.47 16.9013 295.192 18.3093 295.192 20.144C295.171 21.488 295.011 22.4267 294.712 22.96C294.435 23.4933 293.934 23.76 293.208 23.76C292.718 23.76 292.302 23.5893 291.96 23.248L291.448 22.736L291.384 17.072C291.342 12.8907 291.32 10.736 291.32 10.608C291.32 10.096 291.502 9.66933 291.864 9.328ZM317.429 13.808C317.045 13.616 316.501 13.52 315.797 13.52C315.029 13.52 314.379 13.6373 313.845 13.872C313.483 14.0213 313.013 14.352 312.437 14.864C311.861 15.3547 311.573 15.6747 311.573 15.824C311.573 15.888 311.904 15.92 312.565 15.92C313.547 15.92 314.72 15.8667 316.085 15.76C317.451 15.6533 318.229 15.536 318.421 15.408C318.485 15.3867 318.517 15.3227 318.517 15.216C318.517 15.024 318.4 14.7787 318.165 14.48C317.931 14.16 317.685 13.936 317.429 13.808ZM313.653 10.096C314.187 9.94667 314.816 9.872 315.541 9.872C316.885 9.872 318.112 10.1387 319.221 10.672C320.053 11.0987 320.747 11.7493 321.301 12.624C321.856 13.4773 322.197 14.4373 322.325 15.504C322.325 15.5467 322.325 15.6107 322.325 15.696C322.347 15.7813 322.357 15.8453 322.357 15.888C322.357 16.4427 322.251 16.9867 322.037 17.52C321.845 18.0533 321.611 18.416 321.333 18.608C320.971 18.864 318.421 19.184 313.685 19.568C312.683 19.6533 312.181 19.7493 312.181 19.856C312.181 19.984 312.405 20.1867 312.853 20.464C313.301 20.7413 313.739 20.9333 314.165 21.04C314.549 21.1253 314.859 21.168 315.093 21.168C315.776 21.168 316.661 20.944 317.749 20.496C318.517 20.176 319.083 20.016 319.445 20.016C319.808 20.016 320.149 20.176 320.469 20.496C320.896 20.9227 321.109 21.328 321.109 21.712C321.109 21.968 321.045 22.2347 320.917 22.512C320.811 22.768 320.661 22.9707 320.469 23.12C320.299 23.2693 319.979 23.4507 319.509 23.664C317.952 24.3467 316.501 24.688 315.157 24.688C314.389 24.688 313.6 24.5707 312.789 24.336C311.701 23.9947 310.709 23.4187 309.813 22.608C308.917 21.776 308.277 20.8587 307.893 19.856C307.659 19.1947 307.541 18.4587 307.541 17.648C307.541 16.4747 307.733 15.4933 308.117 14.704C308.565 13.7227 309.323 12.784 310.389 11.888C311.456 10.992 312.544 10.3947 313.653 10.096ZM326.686 9.072C326.942 8.944 327.208 8.88 327.486 8.88C327.87 8.88 328.232 9.008 328.574 9.264C328.915 9.49867 329.15 9.81867 329.278 10.224L329.47 10.896L330.27 10.416C330.803 10.096 331.539 9.936 332.478 9.936C333.395 9.936 334.152 10.0853 334.75 10.384C335.24 10.6187 335.763 11.0027 336.318 11.536C336.894 12.0693 337.352 12.6027 337.694 13.136C338.846 14.9493 339.475 17.7653 339.582 21.584V22.224C339.582 22.736 339.432 23.152 339.134 23.472C338.771 23.8347 338.344 24.016 337.854 24.016C337.064 24.016 336.542 23.6747 336.286 22.992C336.158 22.6293 336.051 21.9147 335.966 20.848C335.71 17.1147 334.878 14.7787 333.47 13.84C333.171 13.648 332.872 13.552 332.574 13.552C332.019 13.552 331.518 13.8613 331.07 14.48C330.643 15.0773 330.302 15.9307 330.046 17.04C329.939 17.5307 329.811 18.416 329.662 19.696C329.512 20.976 329.438 21.84 329.438 22.288C329.438 22.5013 329.256 22.7893 328.894 23.152C328.531 23.4933 328.115 23.664 327.646 23.664C326.771 23.664 326.195 23.2053 325.918 22.288C325.79 21.84 325.726 19.8987 325.726 16.464C325.726 12.368 325.8 10.1387 325.95 9.776C326.078 9.49867 326.323 9.264 326.686 9.072ZM343.903 2.384C344.202 2.10667 344.586 1.968 345.055 1.968C345.567 1.968 345.983 2.13867 346.303 2.48C346.538 2.71467 346.676 2.98133 346.719 3.28C346.783 3.57867 346.826 4.368 346.847 5.648C346.868 6.07467 346.879 6.58667 346.879 7.184C346.879 8.05867 346.804 8.64533 346.655 8.944C346.356 9.62667 345.855 9.968 345.151 9.968C345.066 9.968 344.916 9.94667 344.703 9.904C344.148 9.75467 343.754 9.37067 343.519 8.752C343.284 8.112 343.156 7.056 343.135 5.584V5.296C343.135 3.80267 343.391 2.832 343.903 2.384ZM355.313 1.52C355.676 1.15733 356.113 0.975998 356.625 0.975998C357.009 0.975998 357.35 1.09333 357.649 1.328C357.969 1.54133 358.193 1.85067 358.321 2.256C358.385 2.49067 358.492 3.6 358.641 5.584C358.79 7.54667 358.865 8.912 358.865 9.68C358.865 9.872 358.908 9.98933 358.993 10.032C359.1 10.0747 359.345 10.096 359.729 10.096C360.305 10.096 360.636 10.032 360.721 9.904C360.764 9.79733 361.201 9.744 362.033 9.744C363.1 9.744 363.804 9.81867 364.145 9.968C364.465 10.1173 364.71 10.4053 364.881 10.832C365.03 11.1307 365.105 11.376 365.105 11.568C365.105 11.7173 365.073 11.8987 365.009 12.112C364.86 12.6027 364.582 12.9333 364.177 13.104C363.793 13.2533 363.025 13.36 361.873 13.424C360.572 13.488 359.729 13.5733 359.345 13.68L358.833 13.808L358.961 18.32C359.004 20.3253 359.025 21.4027 359.025 21.552C359.025 22.4907 358.95 23.12 358.801 23.44C358.481 24.1227 357.958 24.464 357.233 24.464C356.956 24.464 356.668 24.4 356.369 24.272C356.134 24.1653 355.964 24.0693 355.857 23.984C355.75 23.8773 355.654 23.6107 355.569 23.184C355.484 22.736 355.43 22.2133 355.409 21.616C355.388 21.0187 355.366 20.0373 355.345 18.672L355.281 14.032L354.321 14.064C353.745 14.1067 353.233 14.192 352.785 14.32C352.678 14.3627 352.508 14.384 352.273 14.384C351.548 14.384 351.025 14.16 350.705 13.712C350.534 13.4347 350.449 13.0613 350.449 12.592C350.449 12.1867 350.513 11.8667 350.641 11.632C350.94 11.0987 351.985 10.6933 353.777 10.416L355.249 10.192L355.121 7.376C355.036 5.37067 354.961 4.00533 354.897 3.28C354.854 2.768 354.833 2.49067 354.833 2.448C354.833 2.14933 354.993 1.84 355.313 1.52ZM383.407 1.52C383.769 1.15733 384.207 0.975998 384.719 0.975998C385.103 0.975998 385.444 1.09333 385.743 1.328C386.063 1.54133 386.287 1.85067 386.415 2.256C386.479 2.49067 386.585 3.6 386.735 5.584C386.884 7.54667 386.959 8.912 386.959 9.68C386.959 9.872 387.001 9.98933 387.087 10.032C387.193 10.0747 387.439 10.096 387.823 10.096C388.399 10.096 388.729 10.032 388.815 9.904C388.857 9.79733 389.295 9.744 390.127 9.744C391.193 9.744 391.897 9.81867 392.239 9.968C392.559 10.1173 392.804 10.4053 392.975 10.832C393.124 11.1307 393.199 11.376 393.199 11.568C393.199 11.7173 393.167 11.8987 393.103 12.112C392.953 12.6027 392.676 12.9333 392.271 13.104C391.887 13.2533 391.119 13.36 389.967 13.424C388.665 13.488 387.823 13.5733 387.439 13.68L386.927 13.808L387.055 18.32C387.097 20.3253 387.119 21.4027 387.119 21.552C387.119 22.4907 387.044 23.12 386.895 23.44C386.575 24.1227 386.052 24.464 385.327 24.464C385.049 24.464 384.761 24.4 384.463 24.272C384.228 24.1653 384.057 24.0693 383.951 23.984C383.844 23.8773 383.748 23.6107 383.663 23.184C383.577 22.736 383.524 22.2133 383.503 21.616C383.481 21.0187 383.46 20.0373 383.439 18.672L383.375 14.032L382.415 14.064C381.839 14.1067 381.327 14.192 380.879 14.32C380.772 14.3627 380.601 14.384 380.367 14.384C379.641 14.384 379.119 14.16 378.799 13.712C378.628 13.4347 378.543 13.0613 378.543 12.592C378.543 12.1867 378.607 11.8667 378.735 11.632C379.033 11.0987 380.079 10.6933 381.871 10.416L383.343 10.192L383.215 7.376C383.129 5.37067 383.055 4.00533 382.991 3.28C382.948 2.768 382.927 2.49067 382.927 2.448C382.927 2.14933 383.087 1.84 383.407 1.52ZM397.495 1.552C397.858 1.25333 398.231 1.104 398.615 1.104C399.383 1.104 399.949 1.57333 400.311 2.512C400.461 2.93867 400.621 3.96267 400.791 5.584C400.962 7.184 401.101 8.67733 401.207 10.064C401.314 11.4293 401.378 12.112 401.399 12.112C401.442 12.112 401.794 11.8773 402.455 11.408C403.757 10.4907 404.994 10.032 406.167 10.032C407.255 10.032 408.205 10.4373 409.015 11.248C409.847 12.0373 410.498 13.2 410.967 14.736C411.33 15.9307 411.511 17.7867 411.511 20.304C411.511 21.8827 411.415 22.9493 411.223 23.504C411.01 24.08 410.519 24.368 409.751 24.368C409.239 24.368 408.813 24.1973 408.471 23.856L407.991 23.376L407.895 20.144C407.767 15.984 407.191 13.84 406.167 13.712H406.071C405.581 13.712 404.973 13.9893 404.247 14.544C403.522 15.0773 402.999 15.664 402.679 16.304C402.487 16.7307 402.231 17.04 401.911 17.232L401.495 17.52L401.431 21.008C401.389 22.7147 401.346 23.7493 401.303 24.112C401.282 24.4533 401.165 24.7307 400.951 24.944C400.61 25.3067 400.183 25.488 399.671 25.488C398.903 25.488 398.37 25.1467 398.071 24.464C397.922 24.0587 397.815 21.6053 397.751 17.104C397.645 9.57333 397.367 5.06133 396.919 3.568C396.855 3.33333 396.823 3.10933 396.823 2.896C396.823 2.34133 397.047 1.89333 397.495 1.552ZM424.898 13.808C424.514 13.616 423.97 13.52 423.266 13.52C422.498 13.52 421.847 13.6373 421.314 13.872C420.951 14.0213 420.482 14.352 419.906 14.864C419.33 15.3547 419.042 15.6747 419.042 15.824C419.042 15.888 419.373 15.92 420.034 15.92C421.015 15.92 422.189 15.8667 423.554 15.76C424.919 15.6533 425.698 15.536 425.89 15.408C425.954 15.3867 425.986 15.3227 425.986 15.216C425.986 15.024 425.869 14.7787 425.634 14.48C425.399 14.16 425.154 13.936 424.898 13.808ZM421.122 10.096C421.655 9.94667 422.285 9.872 423.01 9.872C424.354 9.872 425.581 10.1387 426.69 10.672C427.522 11.0987 428.215 11.7493 428.77 12.624C429.325 13.4773 429.666 14.4373 429.794 15.504C429.794 15.5467 429.794 15.6107 429.794 15.696C429.815 15.7813 429.826 15.8453 429.826 15.888C429.826 16.4427 429.719 16.9867 429.506 17.52C429.314 18.0533 429.079 18.416 428.802 18.608C428.439 18.864 425.89 19.184 421.154 19.568C420.151 19.6533 419.65 19.7493 419.65 19.856C419.65 19.984 419.874 20.1867 420.322 20.464C420.77 20.7413 421.207 20.9333 421.634 21.04C422.018 21.1253 422.327 21.168 422.562 21.168C423.245 21.168 424.13 20.944 425.218 20.496C425.986 20.176 426.551 20.016 426.914 20.016C427.277 20.016 427.618 20.176 427.938 20.496C428.365 20.9227 428.578 21.328 428.578 21.712C428.578 21.968 428.514 22.2347 428.386 22.512C428.279 22.768 428.13 22.9707 427.938 23.12C427.767 23.2693 427.447 23.4507 426.978 23.664C425.421 24.3467 423.97 24.688 422.626 24.688C421.858 24.688 421.069 24.5707 420.258 24.336C419.17 23.9947 418.178 23.4187 417.282 22.608C416.386 21.776 415.746 20.8587 415.362 19.856C415.127 19.1947 415.01 18.4587 415.01 17.648C415.01 16.4747 415.202 15.4933 415.586 14.704C416.034 13.7227 416.791 12.784 417.858 11.888C418.925 10.992 420.013 10.3947 421.122 10.096ZM433.771 9.328C434.155 9.008 434.571 8.848 435.019 8.848C435.488 8.848 435.893 9.01867 436.235 9.36C436.576 9.68 436.747 10.096 436.747 10.608C436.747 11.12 436.843 11.376 437.035 11.376C437.141 11.376 437.365 11.2587 437.707 11.024C439.285 9.936 440.853 9.392 442.411 9.392C443.072 9.392 443.723 9.50933 444.363 9.744C444.939 9.97867 445.344 10.2347 445.579 10.512C445.813 10.7893 445.931 11.1627 445.931 11.632C445.931 12.144 445.739 12.5813 445.355 12.944C445.035 13.2427 444.747 13.392 444.491 13.392C444.405 13.392 443.808 13.3173 442.699 13.168C442.571 13.1467 442.389 13.136 442.155 13.136C441.813 13.136 441.376 13.2533 440.843 13.488C439.456 14.128 438.485 14.9387 437.931 15.92C437.376 16.9013 437.099 18.3093 437.099 20.144C437.077 21.488 436.917 22.4267 436.619 22.96C436.341 23.4933 435.84 23.76 435.115 23.76C434.624 23.76 434.208 23.5893 433.867 23.248L433.355 22.736L433.291 17.072C433.248 12.8907 433.227 10.736 433.227 10.608C433.227 10.096 433.408 9.66933 433.771 9.328ZM459.336 13.808C458.952 13.616 458.408 13.52 457.704 13.52C456.936 13.52 456.285 13.6373 455.752 13.872C455.389 14.0213 454.92 14.352 454.344 14.864C453.768 15.3547 453.48 15.6747 453.48 15.824C453.48 15.888 453.81 15.92 454.472 15.92C455.453 15.92 456.626 15.8667 457.992 15.76C459.357 15.6533 460.136 15.536 460.328 15.408C460.392 15.3867 460.424 15.3227 460.424 15.216C460.424 15.024 460.306 14.7787 460.072 14.48C459.837 14.16 459.592 13.936 459.336 13.808ZM455.56 10.096C456.093 9.94667 456.722 9.872 457.448 9.872C458.792 9.872 460.018 10.1387 461.128 10.672C461.96 11.0987 462.653 11.7493 463.208 12.624C463.762 13.4773 464.104 14.4373 464.232 15.504C464.232 15.5467 464.232 15.6107 464.232 15.696C464.253 15.7813 464.264 15.8453 464.264 15.888C464.264 16.4427 464.157 16.9867 463.944 17.52C463.752 18.0533 463.517 18.416 463.24 18.608C462.877 18.864 460.328 19.184 455.592 19.568C454.589 19.6533 454.088 19.7493 454.088 19.856C454.088 19.984 454.312 20.1867 454.76 20.464C455.208 20.7413 455.645 20.9333 456.072 21.04C456.456 21.1253 456.765 21.168 457 21.168C457.682 21.168 458.568 20.944 459.656 20.496C460.424 20.176 460.989 20.016 461.352 20.016C461.714 20.016 462.056 20.176 462.376 20.496C462.802 20.9227 463.016 21.328 463.016 21.712C463.016 21.968 462.952 22.2347 462.824 22.512C462.717 22.768 462.568 22.9707 462.376 23.12C462.205 23.2693 461.885 23.4507 461.416 23.664C459.858 24.3467 458.408 24.688 457.064 24.688C456.296 24.688 455.506 24.5707 454.696 24.336C453.608 23.9947 452.616 23.4187 451.72 22.608C450.824 21.776 450.184 20.8587 449.799 19.856C449.565 19.1947 449.448 18.4587 449.448 17.648C449.448 16.4747 449.64 15.4933 450.024 14.704C450.472 13.7227 451.229 12.784 452.296 11.888C453.362 10.992 454.45 10.3947 455.56 10.096ZM468.88 20.56C469.264 20.4107 469.488 20.336 469.552 20.336L470.16 20.56C470.928 20.88 471.312 21.456 471.312 22.288C471.312 22.736 471.12 23.1627 470.736 23.568C470.373 23.9733 469.989 24.176 469.584 24.176C469.2 24.176 468.837 24.048 468.496 23.792C468.176 23.5147 467.952 23.1733 467.824 22.768C467.76 22.576 467.728 22.3947 467.728 22.224C467.728 21.84 467.835 21.4987 468.048 21.2C468.261 20.88 468.539 20.6667 468.88 20.56Z" fill="#4F4F4F"/>
</svg>
