<svg width="280" height="33" viewBox="0 0 280 33" fill="none" xmlns="http://www.w3.org/2000/svg">
<path d="M1.336 4.272C1.67733 3.952 1.99733 3.792 2.296 3.792C2.46667 3.792 2.616 3.80267 2.744 3.824C3.32 3.888 3.72533 4.08 3.96 4.4L4.376 4.88L4.312 13.264C4.29067 18.7893 4.19467 21.7653 4.024 22.192C3.74667 22.832 3.21333 23.152 2.424 23.152C2.168 23.152 1.976 23.1307 1.848 23.088C1.528 22.9813 1.31467 22.9067 1.208 22.864C1.12267 22.8 1.016 22.608 0.888 22.288C0.781333 21.9467 0.717333 21.4773 0.696 20.88C0.674667 20.2827 0.664 19.3653 0.664 18.128C0.664 17.7867 0.664 17.0933 0.664 16.048C0.685333 15.0027 0.696 14.128 0.696 13.424L0.728 4.784L1.336 4.272ZM22.5318 1.52C22.8944 1.15733 23.3318 0.975998 23.8438 0.975998C24.2278 0.975998 24.5691 1.09333 24.8678 1.328C25.1878 1.54133 25.4118 1.85067 25.5398 2.256C25.6038 2.49067 25.7104 3.6 25.8598 5.584C26.0091 7.54667 26.0838 8.912 26.0838 9.68C26.0838 9.872 26.1264 9.98933 26.2118 10.032C26.3184 10.0747 26.5638 10.096 26.9478 10.096C27.5238 10.096 27.8544 10.032 27.9398 9.904C27.9824 9.79733 28.4198 9.744 29.2518 9.744C30.3184 9.744 31.0224 9.81867 31.3638 9.968C31.6838 10.1173 31.9291 10.4053 32.0998 10.832C32.2491 11.1307 32.3238 11.376 32.3238 11.568C32.3238 11.7173 32.2918 11.8987 32.2278 12.112C32.0784 12.6027 31.8011 12.9333 31.3958 13.104C31.0118 13.2533 30.2438 13.36 29.0918 13.424C27.7904 13.488 26.9478 13.5733 26.5638 13.68L26.0518 13.808L26.1798 18.32C26.2224 20.3253 26.2438 21.4027 26.2438 21.552C26.2438 22.4907 26.1691 23.12 26.0198 23.44C25.6998 24.1227 25.1771 24.464 24.4518 24.464C24.1744 24.464 23.8864 24.4 23.5878 24.272C23.3531 24.1653 23.1824 24.0693 23.0758 23.984C22.9691 23.8773 22.8731 23.6107 22.7878 23.184C22.7024 22.736 22.6491 22.2133 22.6278 21.616C22.6064 21.0187 22.5851 20.0373 22.5638 18.672L22.4998 14.032L21.5398 14.064C20.9638 14.1067 20.4518 14.192 20.0038 14.32C19.8971 14.3627 19.7264 14.384 19.4918 14.384C18.7664 14.384 18.2438 14.16 17.9238 13.712C17.7531 13.4347 17.6678 13.0613 17.6678 12.592C17.6678 12.1867 17.7318 11.8667 17.8598 11.632C18.1584 11.0987 19.2038 10.6933 20.9958 10.416L22.4678 10.192L22.3398 7.376C22.2544 5.37067 22.1798 4.00533 22.1158 3.28C22.0731 2.768 22.0518 2.49067 22.0518 2.448C22.0518 2.14933 22.2118 1.84 22.5318 1.52ZM36.3643 9.328C36.7483 9.008 37.1643 8.848 37.6123 8.848C38.0816 8.848 38.4869 9.01867 38.8283 9.36C39.1696 9.68 39.3403 10.096 39.3403 10.608C39.3403 11.12 39.4363 11.376 39.6283 11.376C39.7349 11.376 39.9589 11.2587 40.3003 11.024C41.8789 9.936 43.4469 9.392 45.0043 9.392C45.6656 9.392 46.3163 9.50933 46.9563 9.744C47.5323 9.97867 47.9376 10.2347 48.1723 10.512C48.4069 10.7893 48.5243 11.1627 48.5243 11.632C48.5243 12.144 48.3323 12.5813 47.9483 12.944C47.6283 13.2427 47.3403 13.392 47.0843 13.392C46.9989 13.392 46.4016 13.3173 45.2923 13.168C45.1643 13.1467 44.9829 13.136 44.7483 13.136C44.4069 13.136 43.9696 13.2533 43.4363 13.488C42.0496 14.128 41.0789 14.9387 40.5243 15.92C39.9696 16.9013 39.6923 18.3093 39.6923 20.144C39.6709 21.488 39.5109 22.4267 39.2123 22.96C38.9349 23.4933 38.4336 23.76 37.7083 23.76C37.2176 23.76 36.8016 23.5893 36.4603 23.248L35.9483 22.736L35.8843 17.072C35.8416 12.8907 35.8203 10.736 35.8203 10.608C35.8203 10.096 36.0016 9.66933 36.3643 9.328ZM53.4813 9.456C53.5666 9.43467 53.6946 9.424 53.8653 9.424C54.3346 9.424 54.7506 9.57333 55.1133 9.872C55.4759 10.1707 55.6893 10.5547 55.7533 11.024C55.8386 11.4933 55.8813 13.5093 55.8813 17.072L55.9133 22.48L55.3693 22.992C55.0066 23.3547 54.5799 23.536 54.0893 23.536C53.6413 23.536 53.2573 23.376 52.9373 23.056C52.7239 22.8427 52.5746 22.6293 52.4893 22.416C52.4253 22.1813 52.3719 21.7333 52.3293 21.072C52.2653 20.24 52.2333 18.2347 52.2333 15.056L52.2013 10.576L52.6493 10.032C52.9693 9.69067 53.2466 9.49867 53.4813 9.456ZM52.9053 3.088C53.1826 2.93867 53.4706 2.864 53.7693 2.864C54.2599 2.864 54.6759 3.04533 55.0173 3.408C55.3586 3.77067 55.5293 4.18667 55.5293 4.656C55.5293 5.06133 55.3693 5.456 55.0493 5.84C54.6439 6.26667 54.1959 6.48 53.7053 6.48C53.2359 6.48 52.8199 6.32 52.4573 6C52.1159 5.65867 51.9453 5.25333 51.9453 4.784C51.9453 4.50666 52.0093 4.22933 52.1373 3.952C52.3293 3.54667 52.5853 3.25867 52.9053 3.088ZM69.2418 13.808C68.8578 13.616 68.3138 13.52 67.6098 13.52C66.8418 13.52 66.1911 13.6373 65.6578 13.872C65.2951 14.0213 64.8258 14.352 64.2498 14.864C63.6738 15.3547 63.3858 15.6747 63.3858 15.824C63.3858 15.888 63.7164 15.92 64.3778 15.92C65.3591 15.92 66.5324 15.8667 67.8978 15.76C69.2631 15.6533 70.0418 15.536 70.2338 15.408C70.2978 15.3867 70.3298 15.3227 70.3298 15.216C70.3298 15.024 70.2124 14.7787 69.9778 14.48C69.7431 14.16 69.4978 13.936 69.2418 13.808ZM65.4658 10.096C65.9991 9.94667 66.6284 9.872 67.3538 9.872C68.6978 9.872 69.9244 10.1387 71.0338 10.672C71.8658 11.0987 72.5591 11.7493 73.1138 12.624C73.6684 13.4773 74.0098 14.4373 74.1378 15.504C74.1378 15.5467 74.1378 15.6107 74.1378 15.696C74.1591 15.7813 74.1698 15.8453 74.1698 15.888C74.1698 16.4427 74.0631 16.9867 73.8498 17.52C73.6578 18.0533 73.4231 18.416 73.1458 18.608C72.7831 18.864 70.2338 19.184 65.4978 19.568C64.4951 19.6533 63.9938 19.7493 63.9938 19.856C63.9938 19.984 64.2178 20.1867 64.6658 20.464C65.1138 20.7413 65.5511 20.9333 65.9778 21.04C66.3618 21.1253 66.6711 21.168 66.9058 21.168C67.5884 21.168 68.4738 20.944 69.5618 20.496C70.3298 20.176 70.8951 20.016 71.2578 20.016C71.6204 20.016 71.9618 20.176 72.2818 20.496C72.7084 20.9227 72.9218 21.328 72.9218 21.712C72.9218 21.968 72.8578 22.2347 72.7298 22.512C72.6231 22.768 72.4738 22.9707 72.2818 23.12C72.1111 23.2693 71.7911 23.4507 71.3218 23.664C69.7644 24.3467 68.3138 24.688 66.9698 24.688C66.2018 24.688 65.4124 24.5707 64.6018 24.336C63.5138 23.9947 62.5218 23.4187 61.6258 22.608C60.7298 21.776 60.0898 20.8587 59.7057 19.856C59.4711 19.1947 59.3538 18.4587 59.3538 17.648C59.3538 16.4747 59.5458 15.4933 59.9298 14.704C60.3778 13.7227 61.1351 12.784 62.2018 11.888C63.2684 10.992 64.3564 10.3947 65.4658 10.096ZM85.8903 13.616C85.0369 13.2107 84.4396 13.008 84.0983 13.008C83.6929 13.008 83.1809 13.2853 82.5623 13.84C81.7303 14.608 81.3143 15.5573 81.3143 16.688C81.3143 17.6053 81.6129 18.2987 82.2103 18.768C82.4876 18.9813 82.7756 19.088 83.0743 19.088C83.4369 19.088 83.8956 18.9387 84.4503 18.64C86.2423 17.7013 87.1383 16.4853 87.1383 14.992V14.192L85.8903 13.616ZM87.5223 2.256C87.8849 1.95733 88.3116 1.808 88.8023 1.808C89.1223 1.808 89.3889 1.872 89.6023 2C89.8583 2.14933 90.0716 2.39467 90.2423 2.736C90.3703 2.992 90.4556 3.70667 90.4983 4.88C90.5623 6.05333 90.6049 8.74133 90.6263 12.944L90.6903 22.576L90.1463 23.12C89.7836 23.4827 89.3676 23.664 88.8983 23.664C88.4503 23.664 88.0449 23.504 87.6823 23.184C87.3196 22.864 87.1383 22.5013 87.1383 22.096C87.1383 21.7547 87.1169 21.5627 87.0743 21.52H87.0423C86.8929 21.52 86.5409 21.6587 85.9863 21.936C84.9409 22.4267 83.9596 22.672 83.0423 22.672C81.6129 22.672 80.3649 22.096 79.2983 20.944C78.2103 19.7493 77.6663 18.3413 77.6663 16.72C77.6663 14.5867 78.4983 12.752 80.1623 11.216C81.4209 10.064 82.7863 9.488 84.2583 9.488C84.8983 9.488 85.4849 9.57333 86.0183 9.744C86.5943 9.936 86.9036 10.032 86.9463 10.032C86.9676 10.032 86.9783 8.816 86.9783 6.384V2.736L87.5223 2.256ZM117.492 13.808C117.108 13.616 116.564 13.52 115.86 13.52C115.092 13.52 114.441 13.6373 113.908 13.872C113.545 14.0213 113.076 14.352 112.5 14.864C111.924 15.3547 111.636 15.6747 111.636 15.824C111.636 15.888 111.966 15.92 112.628 15.92C113.609 15.92 114.782 15.8667 116.148 15.76C117.513 15.6533 118.292 15.536 118.484 15.408C118.548 15.3867 118.58 15.3227 118.58 15.216C118.58 15.024 118.462 14.7787 118.228 14.48C117.993 14.16 117.748 13.936 117.492 13.808ZM113.716 10.096C114.249 9.94667 114.878 9.872 115.604 9.872C116.948 9.872 118.174 10.1387 119.284 10.672C120.116 11.0987 120.809 11.7493 121.364 12.624C121.918 13.4773 122.26 14.4373 122.388 15.504C122.388 15.5467 122.388 15.6107 122.388 15.696C122.409 15.7813 122.42 15.8453 122.42 15.888C122.42 16.4427 122.313 16.9867 122.1 17.52C121.908 18.0533 121.673 18.416 121.396 18.608C121.033 18.864 118.484 19.184 113.748 19.568C112.745 19.6533 112.244 19.7493 112.244 19.856C112.244 19.984 112.468 20.1867 112.916 20.464C113.364 20.7413 113.801 20.9333 114.228 21.04C114.612 21.1253 114.921 21.168 115.156 21.168C115.838 21.168 116.724 20.944 117.812 20.496C118.58 20.176 119.145 20.016 119.508 20.016C119.87 20.016 120.212 20.176 120.532 20.496C120.958 20.9227 121.172 21.328 121.172 21.712C121.172 21.968 121.108 22.2347 120.98 22.512C120.873 22.768 120.724 22.9707 120.532 23.12C120.361 23.2693 120.041 23.4507 119.572 23.664C118.014 24.3467 116.564 24.688 115.22 24.688C114.452 24.688 113.662 24.5707 112.852 24.336C111.764 23.9947 110.772 23.4187 109.876 22.608C108.98 21.776 108.34 20.8587 107.956 19.856C107.721 19.1947 107.604 18.4587 107.604 17.648C107.604 16.4747 107.796 15.4933 108.18 14.704C108.628 13.7227 109.385 12.784 110.452 11.888C111.518 10.992 112.606 10.3947 113.716 10.096ZM125.98 10.352C125.98 9.904 126.151 9.52 126.492 9.2C126.855 8.85867 127.26 8.688 127.708 8.688C128.22 8.688 128.647 8.88 128.988 9.264C129.33 9.62667 129.703 10.3093 130.108 11.312C130.514 12.3573 131.132 13.7653 131.964 15.536C132.818 17.2853 133.287 18.16 133.372 18.16C133.436 18.16 133.799 17.552 134.46 16.336C134.866 15.568 135.506 14.4373 136.38 12.944C137.276 11.4507 137.799 10.5653 137.948 10.288C138.247 9.75467 138.514 9.41333 138.748 9.264C138.983 9.11467 139.346 9.04 139.836 9.04C140.306 9.04 140.711 9.21067 141.052 9.552C141.415 9.89333 141.596 10.2987 141.596 10.768C141.596 10.8747 141.575 11.0133 141.532 11.184C141.447 11.4613 141.02 12.24 140.252 13.52C137.628 17.808 136.05 20.8267 135.516 22.576C135.175 23.6853 134.492 24.24 133.468 24.24C133.191 24.24 132.892 24.176 132.572 24.048C132.274 23.92 131.996 23.6533 131.74 23.248C131.506 22.8213 130.898 21.6053 129.916 19.6C127.292 14.224 125.98 11.1413 125.98 10.352ZM154.992 13.808C154.608 13.616 154.064 13.52 153.36 13.52C152.592 13.52 151.941 13.6373 151.408 13.872C151.045 14.0213 150.576 14.352 150 14.864C149.424 15.3547 149.136 15.6747 149.136 15.824C149.136 15.888 149.466 15.92 150.128 15.92C151.109 15.92 152.282 15.8667 153.648 15.76C155.013 15.6533 155.792 15.536 155.984 15.408C156.048 15.3867 156.08 15.3227 156.08 15.216C156.08 15.024 155.962 14.7787 155.728 14.48C155.493 14.16 155.248 13.936 154.992 13.808ZM151.216 10.096C151.749 9.94667 152.378 9.872 153.104 9.872C154.448 9.872 155.674 10.1387 156.784 10.672C157.616 11.0987 158.309 11.7493 158.864 12.624C159.418 13.4773 159.76 14.4373 159.888 15.504C159.888 15.5467 159.888 15.6107 159.888 15.696C159.909 15.7813 159.92 15.8453 159.92 15.888C159.92 16.4427 159.813 16.9867 159.6 17.52C159.408 18.0533 159.173 18.416 158.896 18.608C158.533 18.864 155.984 19.184 151.248 19.568C150.245 19.6533 149.744 19.7493 149.744 19.856C149.744 19.984 149.968 20.1867 150.416 20.464C150.864 20.7413 151.301 20.9333 151.728 21.04C152.112 21.1253 152.421 21.168 152.656 21.168C153.338 21.168 154.224 20.944 155.312 20.496C156.08 20.176 156.645 20.016 157.008 20.016C157.37 20.016 157.712 20.176 158.032 20.496C158.458 20.9227 158.672 21.328 158.672 21.712C158.672 21.968 158.608 22.2347 158.48 22.512C158.373 22.768 158.224 22.9707 158.032 23.12C157.861 23.2693 157.541 23.4507 157.072 23.664C155.514 24.3467 154.064 24.688 152.72 24.688C151.952 24.688 151.162 24.5707 150.352 24.336C149.264 23.9947 148.272 23.4187 147.376 22.608C146.48 21.776 145.84 20.8587 145.456 19.856C145.221 19.1947 145.104 18.4587 145.104 17.648C145.104 16.4747 145.296 15.4933 145.68 14.704C146.128 13.7227 146.885 12.784 147.952 11.888C149.018 10.992 150.106 10.3947 151.216 10.096ZM163.864 9.328C164.248 9.008 164.664 8.848 165.112 8.848C165.582 8.848 165.987 9.01867 166.328 9.36C166.67 9.68 166.84 10.096 166.84 10.608C166.84 11.12 166.936 11.376 167.128 11.376C167.235 11.376 167.459 11.2587 167.8 11.024C169.379 9.936 170.947 9.392 172.504 9.392C173.166 9.392 173.816 9.50933 174.456 9.744C175.032 9.97867 175.438 10.2347 175.672 10.512C175.907 10.7893 176.024 11.1627 176.024 11.632C176.024 12.144 175.832 12.5813 175.448 12.944C175.128 13.2427 174.84 13.392 174.584 13.392C174.499 13.392 173.902 13.3173 172.792 13.168C172.664 13.1467 172.483 13.136 172.248 13.136C171.907 13.136 171.47 13.2533 170.936 13.488C169.55 14.128 168.579 14.9387 168.024 15.92C167.47 16.9013 167.192 18.3093 167.192 20.144C167.171 21.488 167.011 22.4267 166.712 22.96C166.435 23.4933 165.934 23.76 165.208 23.76C164.718 23.76 164.302 23.5893 163.96 23.248L163.448 22.736L163.384 17.072C163.342 12.8907 163.32 10.736 163.32 10.608C163.32 10.096 163.502 9.66933 163.864 9.328ZM181.013 9.008C181.035 9.008 181.067 9.008 181.109 9.008C181.173 8.98667 181.216 8.976 181.237 8.976C181.792 8.976 182.24 9.168 182.581 9.552C182.731 9.744 183.019 10.3307 183.445 11.312C183.893 12.2933 184.171 12.8693 184.277 13.04C184.427 13.2533 184.896 14.1493 185.685 15.728C186.389 17.1147 186.784 17.808 186.869 17.808C186.997 17.808 187.093 17.648 187.157 17.328C187.2 17.1573 187.52 16.1013 188.117 14.16C188.715 12.2187 189.035 11.152 189.077 10.96C189.248 9.97867 189.579 9.392 190.069 9.2C190.411 9.072 190.741 9.008 191.061 9.008C191.808 9.008 192.32 9.34933 192.597 10.032C192.704 10.288 192.757 10.5333 192.757 10.768C192.757 11.3653 192.224 13.2533 191.157 16.432C190.517 18.3733 190.027 19.9413 189.685 21.136C189.344 22.3093 188.885 23.8027 188.309 25.616C187.392 28.496 186.891 30.224 186.805 30.8C186.656 31.76 186.24 32.336 185.557 32.528C185.344 32.592 185.141 32.624 184.949 32.624C184.267 32.624 183.776 32.3573 183.477 31.824C183.307 31.5253 183.221 31.1627 183.221 30.736C183.221 29.8613 183.627 28.2187 184.437 25.808C185.141 23.696 185.493 22.5973 185.493 22.512C185.493 22.4267 185.344 22.2133 185.045 21.872C184.64 21.4453 183.701 19.8027 182.229 16.944C180.779 14.064 179.925 12.176 179.669 11.28C179.627 11.0667 179.605 10.9067 179.605 10.8C179.605 10.3733 179.733 9.98933 179.989 9.648C180.267 9.30667 180.608 9.09333 181.013 9.008ZM201.219 1.52C201.582 1.15733 202.019 0.975998 202.531 0.975998C202.915 0.975998 203.257 1.09333 203.555 1.328C203.875 1.54133 204.099 1.85067 204.227 2.256C204.291 2.49067 204.398 3.6 204.547 5.584C204.697 7.54667 204.771 8.912 204.771 9.68C204.771 9.872 204.814 9.98933 204.899 10.032C205.006 10.0747 205.251 10.096 205.635 10.096C206.211 10.096 206.542 10.032 206.627 9.904C206.67 9.79733 207.107 9.744 207.939 9.744C209.006 9.744 209.71 9.81867 210.051 9.968C210.371 10.1173 210.617 10.4053 210.787 10.832C210.937 11.1307 211.011 11.376 211.011 11.568C211.011 11.7173 210.979 11.8987 210.915 12.112C210.766 12.6027 210.489 12.9333 210.083 13.104C209.699 13.2533 208.931 13.36 207.779 13.424C206.478 13.488 205.635 13.5733 205.251 13.68L204.739 13.808L204.867 18.32C204.91 20.3253 204.931 21.4027 204.931 21.552C204.931 22.4907 204.857 23.12 204.707 23.44C204.387 24.1227 203.865 24.464 203.139 24.464C202.862 24.464 202.574 24.4 202.275 24.272C202.041 24.1653 201.87 24.0693 201.763 23.984C201.657 23.8773 201.561 23.6107 201.475 23.184C201.39 22.736 201.337 22.2133 201.315 21.616C201.294 21.0187 201.273 20.0373 201.251 18.672L201.187 14.032L200.227 14.064C199.651 14.1067 199.139 14.192 198.691 14.32C198.585 14.3627 198.414 14.384 198.179 14.384C197.454 14.384 196.931 14.16 196.611 13.712C196.441 13.4347 196.355 13.0613 196.355 12.592C196.355 12.1867 196.419 11.8667 196.547 11.632C196.846 11.0987 197.891 10.6933 199.683 10.416L201.155 10.192L201.027 7.376C200.942 5.37067 200.867 4.00533 200.803 3.28C200.761 2.768 200.739 2.49067 200.739 2.448C200.739 2.14933 200.899 1.84 201.219 1.52ZM215.308 1.552C215.67 1.25333 216.044 1.104 216.428 1.104C217.196 1.104 217.761 1.57333 218.124 2.512C218.273 2.93867 218.433 3.96267 218.604 5.584C218.774 7.184 218.913 8.67733 219.02 10.064C219.126 11.4293 219.19 12.112 219.212 12.112C219.254 12.112 219.606 11.8773 220.268 11.408C221.569 10.4907 222.806 10.032 223.98 10.032C225.068 10.032 226.017 10.4373 226.828 11.248C227.66 12.0373 228.31 13.2 228.78 14.736C229.142 15.9307 229.324 17.7867 229.324 20.304C229.324 21.8827 229.228 22.9493 229.036 23.504C228.822 24.08 228.332 24.368 227.564 24.368C227.052 24.368 226.625 24.1973 226.284 23.856L225.804 23.376L225.708 20.144C225.58 15.984 225.004 13.84 223.98 13.712H223.884C223.393 13.712 222.785 13.9893 222.06 14.544C221.334 15.0773 220.812 15.664 220.492 16.304C220.3 16.7307 220.044 17.04 219.724 17.232L219.308 17.52L219.244 21.008C219.201 22.7147 219.158 23.7493 219.116 24.112C219.094 24.4533 218.977 24.7307 218.764 24.944C218.422 25.3067 217.996 25.488 217.484 25.488C216.716 25.488 216.182 25.1467 215.884 24.464C215.734 24.0587 215.628 21.6053 215.564 17.104C215.457 9.57333 215.18 5.06133 214.732 3.568C214.668 3.33333 214.636 3.10933 214.636 2.896C214.636 2.34133 214.86 1.89333 215.308 1.552ZM234.519 8.912C234.604 8.89067 234.732 8.88 234.903 8.88C235.308 8.88 235.681 8.98667 236.023 9.2C236.364 9.392 236.599 9.65867 236.727 10C236.812 10.192 236.897 11.6533 236.983 14.384C237.089 17.0933 237.143 19.2267 237.143 20.784C237.143 21.4453 237.132 21.8293 237.111 21.936C237.004 22.7467 236.652 23.2907 236.055 23.568C235.756 23.696 235.521 23.76 235.351 23.76C235.223 23.76 235.031 23.728 234.775 23.664C234.284 23.5147 233.975 23.312 233.847 23.056C233.591 22.5653 233.441 20.6667 233.399 17.36C233.399 16.7627 233.388 15.728 233.367 14.256L233.335 9.872L233.719 9.424C233.975 9.12533 234.241 8.95467 234.519 8.912ZM233.751 2.896C234.007 2.768 234.252 2.704 234.487 2.704C234.956 2.704 235.372 2.896 235.735 3.28C236.097 3.64267 236.279 4.06933 236.279 4.56C236.279 4.90133 236.193 5.2 236.023 5.456C235.66 6.032 235.169 6.32 234.551 6.32C234.145 6.32 233.772 6.18133 233.431 5.904C233.089 5.62667 232.876 5.24267 232.791 4.752C232.791 4.73067 232.78 4.69867 232.759 4.656C232.759 4.592 232.759 4.54933 232.759 4.528C232.759 4.208 232.855 3.89867 233.047 3.6C233.239 3.28 233.473 3.04533 233.751 2.896ZM241.436 9.072C241.692 8.944 241.958 8.88 242.236 8.88C242.62 8.88 242.982 9.008 243.324 9.264C243.665 9.49867 243.9 9.81867 244.028 10.224L244.22 10.896L245.02 10.416C245.553 10.096 246.289 9.936 247.228 9.936C248.145 9.936 248.902 10.0853 249.5 10.384C249.99 10.6187 250.513 11.0027 251.068 11.536C251.644 12.0693 252.102 12.6027 252.444 13.136C253.596 14.9493 254.225 17.7653 254.332 21.584V22.224C254.332 22.736 254.182 23.152 253.884 23.472C253.521 23.8347 253.094 24.016 252.604 24.016C251.814 24.016 251.292 23.6747 251.036 22.992C250.908 22.6293 250.801 21.9147 250.716 20.848C250.46 17.1147 249.628 14.7787 248.22 13.84C247.921 13.648 247.622 13.552 247.324 13.552C246.769 13.552 246.268 13.8613 245.82 14.48C245.393 15.0773 245.052 15.9307 244.796 17.04C244.689 17.5307 244.561 18.416 244.412 19.696C244.262 20.976 244.188 21.84 244.188 22.288C244.188 22.5013 244.006 22.7893 243.644 23.152C243.281 23.4933 242.865 23.664 242.396 23.664C241.521 23.664 240.945 23.2053 240.668 22.288C240.54 21.84 240.476 19.8987 240.476 16.464C240.476 12.368 240.55 10.1387 240.7 9.776C240.828 9.49867 241.073 9.264 241.436 9.072ZM267.389 12.08C267.09 11.8667 266.834 11.7387 266.621 11.696C266.408 11.632 266.002 11.6 265.405 11.6C263.826 11.6427 262.77 12.048 262.237 12.816C262.024 13.1147 261.832 13.584 261.661 14.224C261.49 14.8427 261.405 15.3653 261.405 15.792C261.405 15.8347 261.405 15.8987 261.405 15.984C261.426 16.048 261.437 16.0907 261.437 16.112C261.565 16.752 261.917 17.3173 262.493 17.808C263.09 18.2987 263.784 18.5973 264.573 18.704C264.68 18.7253 264.84 18.736 265.053 18.736C265.864 18.736 266.664 18.3093 267.453 17.456C268.242 16.6027 268.637 15.7067 268.637 14.768C268.637 14.4693 268.626 14.2453 268.605 14.096C268.541 13.5413 268.445 13.1573 268.317 12.944C268.189 12.7307 267.88 12.4427 267.389 12.08ZM263.357 8.144C263.826 8.03733 264.509 7.984 265.405 7.984H265.917C266.706 8.00533 267.229 8.05867 267.485 8.144C267.762 8.208 268.2 8.41067 268.797 8.752C269.586 9.24267 270.237 9.60533 270.749 9.84C271.24 10.0747 271.56 10.32 271.709 10.576C271.922 10.896 272.136 12.3893 272.349 15.056C272.584 17.7013 272.701 20.0373 272.701 22.064C272.701 23.728 272.52 25.1147 272.157 26.224C271.816 27.3547 271.24 28.3787 270.429 29.296C269.085 30.832 267.41 31.6 265.405 31.6C264.146 31.6 262.685 31.312 261.021 30.736C260.296 30.5013 259.816 30.2987 259.581 30.128C259.346 29.9573 259.144 29.6907 258.973 29.328C258.888 29.136 258.845 28.912 258.845 28.656C258.845 28.1653 259.016 27.7493 259.357 27.408C259.613 27.1093 259.986 26.96 260.477 26.96C260.925 26.96 261.576 27.1093 262.429 27.408C263.197 27.6853 264.008 27.8667 264.861 27.952C264.925 27.952 265 27.952 265.085 27.952C265.192 27.9733 265.266 27.984 265.309 27.984C266.504 27.984 267.442 27.4507 268.125 26.384C268.488 25.872 268.733 25.392 268.861 24.944C269.01 24.4747 269.117 23.8027 269.181 22.928C269.224 22.3307 269.245 21.968 269.245 21.84C269.245 21.4347 269.149 21.232 268.957 21.232C268.786 21.232 268.488 21.3493 268.061 21.584C267.08 22.0747 266.066 22.32 265.021 22.32C263.229 22.32 261.618 21.7227 260.189 20.528C258.76 19.3333 258.002 17.8613 257.917 16.112C257.917 16.048 257.906 15.952 257.885 15.824C257.885 15.696 257.885 15.6 257.885 15.536C257.885 13.68 258.365 12.1013 259.325 10.8C260.306 9.47733 261.65 8.592 263.357 8.144ZM276.454 21.424C276.624 21.0613 276.816 20.816 277.03 20.688C277.243 20.56 277.616 20.496 278.15 20.496C278.512 20.496 278.758 20.528 278.886 20.592C279.035 20.656 279.206 20.8053 279.398 21.04C279.718 21.424 279.878 21.8293 279.878 22.256C279.878 22.7253 279.675 23.1627 279.27 23.568C278.864 23.9733 278.448 24.176 278.022 24.176C277.595 24.176 277.179 23.9947 276.774 23.632C276.39 23.248 276.198 22.8533 276.198 22.448C276.198 22.128 276.283 21.7867 276.454 21.424Z" fill="#27263C"/>
</svg>
