<svg width="395" height="46" viewBox="0 0 395 46" fill="none" xmlns="http://www.w3.org/2000/svg">
<path d="M0.752 2.704C1.008 2.464 1.248 2.344 1.472 2.344C1.6 2.344 1.712 2.352 1.808 2.368C2.24 2.416 2.544 2.56 2.72 2.8L3.032 3.16L2.984 9.448C2.968 13.592 2.896 15.824 2.768 16.144C2.56 16.624 2.16 16.864 1.568 16.864C1.376 16.864 1.232 16.848 1.136 16.816C0.896 16.736 0.736 16.68 0.656 16.648C0.592 16.6 0.512 16.456 0.416 16.216C0.336 15.96 0.288 15.608 0.272 15.16C0.256 14.712 0.248 14.024 0.248 13.096C0.248 12.84 0.248 12.32 0.248 11.536C0.264 10.752 0.272 10.096 0.272 9.568L0.296 3.088L0.752 2.704ZM21.8864 9.712C21.2464 9.408 20.7984 9.256 20.5424 9.256C20.2384 9.256 19.8544 9.464 19.3904 9.88C18.7664 10.456 18.4544 11.168 18.4544 12.016C18.4544 12.704 18.6784 13.224 19.1264 13.576C19.3344 13.736 19.5504 13.816 19.7744 13.816C20.0464 13.816 20.3904 13.704 20.8064 13.48C22.1504 12.776 22.8224 11.864 22.8224 10.744V10.144L21.8864 9.712ZM23.1104 1.192C23.3824 0.967999 23.7024 0.855999 24.0704 0.855999C24.3104 0.855999 24.5104 0.903999 24.6704 0.999999C24.8624 1.112 25.0224 1.296 25.1504 1.552C25.2464 1.744 25.3104 2.28 25.3424 3.16C25.3904 4.04 25.4224 6.056 25.4384 9.208L25.4864 16.432L25.0784 16.84C24.8064 17.112 24.4944 17.248 24.1424 17.248C23.8064 17.248 23.5024 17.128 23.2304 16.888C22.9584 16.648 22.8224 16.376 22.8224 16.072C22.8224 15.816 22.8064 15.672 22.7744 15.64H22.7504C22.6384 15.64 22.3744 15.744 21.9584 15.952C21.1744 16.32 20.4384 16.504 19.7504 16.504C18.6784 16.504 17.7424 16.072 16.9424 15.208C16.1264 14.312 15.7184 13.256 15.7184 12.04C15.7184 10.44 16.3424 9.064 17.5904 7.912C18.5344 7.048 19.5584 6.616 20.6624 6.616C21.1424 6.616 21.5824 6.68 21.9824 6.808C22.4144 6.952 22.6464 7.024 22.6784 7.024C22.6944 7.024 22.7024 6.112 22.7024 4.288V1.552L23.1104 1.192ZM35.486 9.856C35.198 9.712 34.79 9.64 34.262 9.64C33.686 9.64 33.198 9.728 32.798 9.904C32.526 10.016 32.174 10.264 31.742 10.648C31.31 11.016 31.094 11.256 31.094 11.368C31.094 11.416 31.342 11.44 31.838 11.44C32.574 11.44 33.454 11.4 34.478 11.32C35.502 11.24 36.086 11.152 36.23 11.056C36.278 11.04 36.302 10.992 36.302 10.912C36.302 10.768 36.214 10.584 36.038 10.36C35.862 10.12 35.678 9.952 35.486 9.856ZM32.654 7.072C33.054 6.96 33.526 6.904 34.07 6.904C35.078 6.904 35.998 7.104 36.83 7.504C37.454 7.824 37.974 8.312 38.39 8.968C38.806 9.608 39.062 10.328 39.158 11.128C39.158 11.16 39.158 11.208 39.158 11.272C39.174 11.336 39.182 11.384 39.182 11.416C39.182 11.832 39.102 12.24 38.942 12.64C38.798 13.04 38.622 13.312 38.414 13.456C38.142 13.648 36.23 13.888 32.678 14.176C31.926 14.24 31.55 14.312 31.55 14.392C31.55 14.488 31.718 14.64 32.054 14.848C32.39 15.056 32.718 15.2 33.038 15.28C33.326 15.344 33.558 15.376 33.734 15.376C34.246 15.376 34.91 15.208 35.726 14.872C36.302 14.632 36.726 14.512 36.998 14.512C37.27 14.512 37.526 14.632 37.766 14.872C38.086 15.192 38.246 15.496 38.246 15.784C38.246 15.976 38.198 16.176 38.102 16.384C38.022 16.576 37.91 16.728 37.766 16.84C37.638 16.952 37.398 17.088 37.046 17.248C35.878 17.76 34.79 18.016 33.782 18.016C33.206 18.016 32.614 17.928 32.006 17.752C31.19 17.496 30.446 17.064 29.774 16.456C29.102 15.832 28.622 15.144 28.334 14.392C28.158 13.896 28.07 13.344 28.07 12.736C28.07 11.856 28.214 11.12 28.502 10.528C28.838 9.792 29.406 9.088 30.206 8.416C31.006 7.744 31.822 7.296 32.654 7.072ZM45.1884 5.872C45.4764 5.824 45.7724 5.8 46.0764 5.8C47.0364 5.8 47.8924 6.016 48.6444 6.448C49.3964 6.88 49.7724 7.376 49.7724 7.936C49.7724 8.08 49.7484 8.208 49.7004 8.32C49.4604 8.928 49.1004 9.232 48.6204 9.232C48.2684 9.232 47.8684 9.12 47.4204 8.896C46.9084 8.64 46.4364 8.512 46.0044 8.512C45.5404 8.512 45.1564 8.664 44.8524 8.968C44.6924 9.128 44.6124 9.256 44.6124 9.352C44.6124 9.48 44.7324 9.632 44.9724 9.808C45.2284 9.968 45.6924 10.224 46.3644 10.576C47.4684 11.152 48.2124 11.624 48.5964 11.992C48.9644 12.312 49.2844 12.712 49.5564 13.192C49.8284 13.656 49.9644 14.048 49.9644 14.368C49.9644 14.736 49.8684 15.104 49.6764 15.472C49.4844 15.84 49.2444 16.12 48.9564 16.312C48.2204 16.808 47.3244 17.056 46.2684 17.056C45.2764 17.056 44.2524 16.824 43.1964 16.36C42.7004 16.12 42.3884 15.848 42.2604 15.544C42.1644 15.32 42.1164 15.12 42.1164 14.944C42.1164 14.624 42.2684 14.312 42.5724 14.008C42.7804 13.768 43.0604 13.648 43.4124 13.648C43.7484 13.648 44.1564 13.752 44.6364 13.96C45.1644 14.184 45.7724 14.296 46.4604 14.296C46.7804 14.296 46.9404 14.256 46.9404 14.176C46.9404 13.984 46.2524 13.544 44.8764 12.856C43.8044 12.296 43.0204 11.744 42.5244 11.2C42.0284 10.64 41.7804 10.024 41.7804 9.352C41.7804 8.552 42.1084 7.816 42.7644 7.144C43.4364 6.456 44.2444 6.032 45.1884 5.872ZM60.0256 10.096C59.8176 9.584 59.5456 9.224 59.2096 9.016C58.8736 8.808 58.4656 8.704 57.9856 8.704C57.4736 8.704 56.9696 8.816 56.4736 9.04C56.0256 9.232 55.7696 9.416 55.7056 9.592C55.6576 9.72 55.5616 9.872 55.4176 10.048C55.2256 10.272 55.1296 11.064 55.1296 12.424C55.1296 12.872 55.1456 13.176 55.1776 13.336L55.2736 13.912L56.0176 14.104C56.4656 14.216 56.9136 14.272 57.3616 14.272C58.0976 14.272 58.7216 14.12 59.2336 13.816C59.7616 13.496 60.0976 13.056 60.2416 12.496C60.3056 12.256 60.3376 11.976 60.3376 11.656C60.3376 11.112 60.2336 10.592 60.0256 10.096ZM57.0256 6.04C57.2176 6.008 57.4096 5.992 57.6016 5.992C58.5296 5.992 59.3216 6.112 59.9776 6.352C60.6336 6.608 61.2096 7.056 61.7056 7.696C62.2176 8.336 62.5856 9.072 62.8096 9.904C62.9216 10.336 62.9776 10.856 62.9776 11.464C62.9776 12.44 62.8576 13.24 62.6176 13.864C62.3136 14.648 61.8016 15.304 61.0816 15.832C60.3776 16.36 59.5536 16.704 58.6096 16.864C58.2736 16.912 57.8576 16.936 57.3616 16.936C56.5136 16.936 55.9136 16.88 55.5616 16.768C55.4656 16.736 55.4096 16.72 55.3936 16.72C55.3136 16.72 55.2736 16.792 55.2736 16.936C55.2736 16.968 55.2896 17.16 55.3216 17.512C55.3376 17.672 55.3696 18.296 55.4176 19.384V19.792C55.4176 20.08 55.3936 20.28 55.3456 20.392C55.2976 20.504 55.1936 20.64 55.0336 20.8C54.7776 21.056 54.4576 21.184 54.0736 21.184C53.8496 21.184 53.6416 21.136 53.4496 21.04C53.1776 20.896 52.9856 20.624 52.8736 20.224C52.7776 19.824 52.6976 19 52.6336 17.752C52.5376 16.184 52.4896 14.144 52.4896 11.632C52.4896 8.672 52.5456 7.08 52.6576 6.856C52.9136 6.36 53.3216 6.112 53.8816 6.112C54.1856 6.112 54.4496 6.2 54.6736 6.376L55.0096 6.64L55.8976 6.4C56.0416 6.352 56.1936 6.304 56.3536 6.256C56.5136 6.192 56.6576 6.144 56.7856 6.112C56.9136 6.08 56.9936 6.056 57.0256 6.04ZM73.0329 9.856C72.7449 9.712 72.3369 9.64 71.8089 9.64C71.2329 9.64 70.7449 9.728 70.3449 9.904C70.0729 10.016 69.7209 10.264 69.2889 10.648C68.8569 11.016 68.6409 11.256 68.6409 11.368C68.6409 11.416 68.8889 11.44 69.3849 11.44C70.1209 11.44 71.0009 11.4 72.0249 11.32C73.0489 11.24 73.6329 11.152 73.7769 11.056C73.8249 11.04 73.8489 10.992 73.8489 10.912C73.8489 10.768 73.7609 10.584 73.5849 10.36C73.4089 10.12 73.2249 9.952 73.0329 9.856ZM70.2009 7.072C70.6009 6.96 71.0729 6.904 71.6169 6.904C72.6249 6.904 73.5449 7.104 74.3769 7.504C75.0009 7.824 75.5209 8.312 75.9369 8.968C76.3529 9.608 76.6089 10.328 76.7049 11.128C76.7049 11.16 76.7049 11.208 76.7049 11.272C76.7209 11.336 76.7289 11.384 76.7289 11.416C76.7289 11.832 76.6489 12.24 76.4889 12.64C76.3449 13.04 76.1689 13.312 75.9609 13.456C75.6889 13.648 73.7769 13.888 70.2249 14.176C69.4729 14.24 69.0969 14.312 69.0969 14.392C69.0969 14.488 69.2649 14.64 69.6009 14.848C69.9369 15.056 70.2649 15.2 70.5849 15.28C70.8729 15.344 71.1049 15.376 71.2809 15.376C71.7929 15.376 72.4569 15.208 73.2729 14.872C73.8489 14.632 74.2729 14.512 74.5449 14.512C74.8169 14.512 75.0729 14.632 75.3129 14.872C75.6329 15.192 75.7929 15.496 75.7929 15.784C75.7929 15.976 75.7449 16.176 75.6489 16.384C75.5689 16.576 75.4569 16.728 75.3129 16.84C75.1849 16.952 74.9449 17.088 74.5929 17.248C73.4249 17.76 72.3369 18.016 71.3289 18.016C70.7529 18.016 70.1609 17.928 69.5529 17.752C68.7369 17.496 67.9929 17.064 67.3209 16.456C66.6489 15.832 66.1689 15.144 65.8809 14.392C65.7049 13.896 65.6169 13.344 65.6169 12.736C65.6169 11.856 65.7609 11.12 66.0489 10.528C66.3849 9.792 66.9529 9.088 67.7529 8.416C68.5529 7.744 69.3689 7.296 70.2009 7.072ZM79.6873 6.496C79.9753 6.256 80.2873 6.136 80.6233 6.136C80.9753 6.136 81.2793 6.264 81.5353 6.52C81.7913 6.76 81.9193 7.072 81.9193 7.456C81.9193 7.84 81.9913 8.032 82.1353 8.032C82.2153 8.032 82.3833 7.944 82.6393 7.768C83.8233 6.952 84.9993 6.544 86.1673 6.544C86.6633 6.544 87.1513 6.632 87.6313 6.808C88.0633 6.984 88.3673 7.176 88.5433 7.384C88.7193 7.592 88.8073 7.872 88.8073 8.224C88.8073 8.608 88.6633 8.936 88.3753 9.208C88.1353 9.432 87.9193 9.544 87.7273 9.544C87.6633 9.544 87.2153 9.488 86.3833 9.376C86.2873 9.36 86.1513 9.352 85.9753 9.352C85.7193 9.352 85.3913 9.44 84.9913 9.616C83.9513 10.096 83.2233 10.704 82.8073 11.44C82.3913 12.176 82.1833 13.232 82.1833 14.608C82.1673 15.616 82.0473 16.32 81.8233 16.72C81.6153 17.12 81.2393 17.32 80.6953 17.32C80.3273 17.32 80.0153 17.192 79.7593 16.936L79.3753 16.552L79.3273 12.304C79.2953 9.168 79.2793 7.552 79.2793 7.456C79.2793 7.072 79.4153 6.752 79.6873 6.496ZM98.357 9.76C98.277 9.504 98.205 9.36 98.141 9.328C98.077 9.28 97.901 9.256 97.613 9.256C96.781 9.272 96.005 9.664 95.285 10.432C94.565 11.184 94.205 11.944 94.205 12.712C94.205 13.096 94.309 13.416 94.517 13.672C94.981 14.184 95.469 14.44 95.981 14.44C96.013 14.44 96.045 14.44 96.077 14.44C96.109 14.424 96.141 14.416 96.173 14.416C96.461 14.352 96.765 14.16 97.085 13.84C97.421 13.52 97.677 13.168 97.853 12.784C98.221 11.92 98.405 11.08 98.405 10.264C98.405 10.024 98.389 9.856 98.357 9.76ZM96.125 6.736C96.557 6.592 97.053 6.52 97.613 6.52C98.349 6.52 98.973 6.64 99.485 6.88C99.821 7.056 100.125 7.32 100.397 7.672C100.685 8.008 100.861 8.328 100.925 8.632C100.989 8.936 101.077 9.224 101.189 9.496C101.365 9.96 101.717 11.704 102.245 14.728C102.325 15.208 102.365 15.568 102.365 15.808C102.365 16.768 101.917 17.248 101.021 17.248C100.717 17.248 100.437 17.128 100.181 16.888C99.941 16.648 99.789 16.352 99.725 16C99.661 15.68 99.605 15.496 99.557 15.448C99.493 15.4 99.309 15.528 99.005 15.832C98.093 16.744 97.045 17.2 95.861 17.2C95.653 17.2 95.437 17.176 95.213 17.128C94.333 16.936 93.509 16.456 92.741 15.688C91.877 14.824 91.445 13.856 91.445 12.784C91.445 11.936 91.709 11.016 92.237 10.024C92.637 9.272 93.181 8.6 93.869 8.008C94.573 7.416 95.325 6.992 96.125 6.736ZM108.759 1.144C109.015 0.984 109.255 0.904 109.479 0.904C109.655 0.904 109.855 0.952 110.079 1.048C110.415 1.208 110.631 1.456 110.727 1.792C110.823 2.128 110.887 2.928 110.919 4.192L110.991 6.568L112.095 6.496C112.223 6.48 112.407 6.472 112.647 6.472C113.223 6.472 113.631 6.576 113.871 6.784C114.127 6.992 114.255 7.328 114.255 7.792C114.255 8.288 114.087 8.64 113.751 8.848C113.431 9.056 112.807 9.2 111.879 9.28L110.871 9.376L110.703 12.712C110.591 14.968 110.487 16.216 110.391 16.456C110.183 16.936 109.783 17.176 109.191 17.176C108.855 17.176 108.591 17.088 108.399 16.912C108.191 16.752 108.047 16.576 107.967 16.384C107.887 16.192 107.847 15.88 107.847 15.448C107.847 15.096 107.871 14.568 107.919 13.864C107.999 12.6 108.055 11.52 108.087 10.624L108.111 9.496L107.031 9.472C106.423 9.456 106.007 9.408 105.783 9.328C105.559 9.232 105.367 9.04 105.207 8.752C105.111 8.56 105.063 8.36 105.063 8.152C105.063 7.768 105.223 7.432 105.543 7.144C105.719 6.984 105.943 6.88 106.215 6.832C106.487 6.768 106.991 6.704 107.727 6.64L108.111 6.592L108.207 4.048C108.223 3.664 108.231 3.248 108.231 2.8C108.247 2.336 108.255 1.992 108.255 1.768L108.279 1.432L108.351 1.384C108.399 1.352 108.463 1.312 108.543 1.264C108.623 1.216 108.695 1.176 108.759 1.144ZM123.498 9.208C123.21 9 122.754 8.896 122.13 8.896C121.746 8.896 121.442 8.944 121.218 9.04C121.01 9.136 120.77 9.336 120.498 9.64C120.242 9.928 120.114 10.136 120.114 10.264C120.114 10.376 120.234 10.432 120.474 10.432C120.794 10.416 121.458 10.344 122.466 10.216C123.474 10.088 123.994 10.008 124.026 9.976C124.042 9.96 124.05 9.936 124.05 9.904C124.05 9.728 123.866 9.496 123.498 9.208ZM120.906 6.28C121.194 6.2 121.546 6.16 121.962 6.16C122.81 6.16 123.538 6.28 124.146 6.52C124.642 6.696 125.13 7.04 125.61 7.552C126.106 8.048 126.514 8.608 126.834 9.232C127.154 9.872 127.314 10.304 127.314 10.528C127.314 11.04 127.09 11.52 126.642 11.968C126.162 12.4 124.666 12.72 122.154 12.928C121.194 13.008 120.57 13.072 120.282 13.12C119.994 13.168 119.85 13.24 119.85 13.336C119.85 13.416 119.994 13.584 120.282 13.84C120.778 14.32 121.666 14.608 122.946 14.704C123.074 14.72 123.242 14.728 123.45 14.728C123.786 14.728 124.186 14.648 124.65 14.488C125.306 14.248 125.826 14.128 126.21 14.128C126.786 14.128 127.162 14.416 127.338 14.992C127.386 15.136 127.41 15.272 127.41 15.4C127.41 15.944 127.066 16.392 126.378 16.744C125.706 17.08 124.754 17.272 123.522 17.32C123.458 17.32 123.37 17.328 123.258 17.344C123.146 17.344 123.066 17.344 123.018 17.344C121.658 17.344 120.482 17.08 119.49 16.552C118.514 16.008 117.778 15.24 117.282 14.248C117.042 13.768 116.922 13.128 116.922 12.328C116.922 11.528 117.002 10.896 117.162 10.432C117.562 9.232 118.058 8.312 118.65 7.672C119.242 7.016 119.994 6.552 120.906 6.28ZM131.103 1.648C131.311 1.568 131.495 1.528 131.655 1.528C131.895 1.528 132.135 1.6 132.375 1.744C132.615 1.904 132.775 2.08 132.855 2.272C132.951 2.464 132.999 2.832 132.999 3.376C132.999 4 132.967 4.792 132.903 5.752C132.791 7.72 132.719 10.04 132.687 12.712C132.687 15.32 132.631 16.728 132.519 16.936C132.439 17.096 132.271 17.256 132.015 17.416C131.775 17.56 131.567 17.632 131.391 17.632C131.199 17.632 130.983 17.552 130.743 17.392C130.503 17.232 130.335 17.056 130.239 16.864C130.047 16.48 129.951 15.192 129.951 13C129.951 10.792 130.047 7.88 130.239 4.264C130.287 3.32 130.367 2.68 130.479 2.344C130.591 2.008 130.799 1.776 131.103 1.648ZM144.577 5.704C144.737 5.656 144.857 5.632 144.937 5.632C145.001 5.632 145.185 5.696 145.489 5.824C145.809 5.952 146.033 6.168 146.161 6.472C146.225 6.6 146.257 6.744 146.257 6.904C146.257 7.144 146.065 7.872 145.681 9.088C144.977 11.344 144.089 13.608 143.017 15.88C142.521 16.968 141.761 18.376 140.737 20.104C139.713 21.848 139.089 22.784 138.865 22.912C138.609 23.072 138.345 23.152 138.073 23.152C137.705 23.152 137.385 23.024 137.113 22.768C136.857 22.528 136.729 22.208 136.729 21.808C136.729 21.52 136.985 20.976 137.497 20.176C137.897 19.552 138.417 18.672 139.057 17.536C139.697 16.384 140.017 15.768 140.017 15.688C140.017 15.64 139.841 15.32 139.489 14.728C139.329 14.472 138.761 13.432 137.785 11.608C136.825 9.768 136.241 8.704 136.033 8.416C135.777 8.048 135.649 7.68 135.649 7.312C135.649 6.784 135.905 6.408 136.417 6.184C136.609 6.104 136.777 6.064 136.921 6.064C137.257 6.064 137.585 6.256 137.905 6.64C138.225 7.008 138.633 7.648 139.129 8.56C140.201 10.544 140.929 11.84 141.313 12.448C141.393 12.56 141.441 12.616 141.457 12.616C141.521 12.616 141.681 12.272 141.937 11.584C142.305 10.576 142.673 9.504 143.041 8.368C143.361 7.344 143.617 6.664 143.809 6.328C144.017 5.992 144.273 5.784 144.577 5.704ZM159.634 5.872C159.922 5.824 160.218 5.8 160.522 5.8C161.482 5.8 162.338 6.016 163.09 6.448C163.842 6.88 164.218 7.376 164.218 7.936C164.218 8.08 164.194 8.208 164.146 8.32C163.906 8.928 163.546 9.232 163.066 9.232C162.714 9.232 162.314 9.12 161.866 8.896C161.354 8.64 160.882 8.512 160.45 8.512C159.986 8.512 159.602 8.664 159.298 8.968C159.138 9.128 159.058 9.256 159.058 9.352C159.058 9.48 159.178 9.632 159.418 9.808C159.674 9.968 160.138 10.224 160.81 10.576C161.914 11.152 162.658 11.624 163.042 11.992C163.41 12.312 163.73 12.712 164.002 13.192C164.274 13.656 164.41 14.048 164.41 14.368C164.41 14.736 164.314 15.104 164.122 15.472C163.93 15.84 163.69 16.12 163.402 16.312C162.666 16.808 161.77 17.056 160.714 17.056C159.722 17.056 158.698 16.824 157.642 16.36C157.146 16.12 156.834 15.848 156.706 15.544C156.61 15.32 156.562 15.12 156.562 14.944C156.562 14.624 156.714 14.312 157.018 14.008C157.226 13.768 157.506 13.648 157.858 13.648C158.194 13.648 158.602 13.752 159.082 13.96C159.61 14.184 160.218 14.296 160.906 14.296C161.226 14.296 161.386 14.256 161.386 14.176C161.386 13.984 160.698 13.544 159.322 12.856C158.25 12.296 157.466 11.744 156.97 11.2C156.474 10.64 156.226 10.024 156.226 9.352C156.226 8.552 156.554 7.816 157.21 7.144C157.882 6.456 158.69 6.032 159.634 5.872ZM173.607 9.208C173.319 9 172.863 8.896 172.239 8.896C171.855 8.896 171.551 8.944 171.327 9.04C171.119 9.136 170.879 9.336 170.607 9.64C170.351 9.928 170.223 10.136 170.223 10.264C170.223 10.376 170.343 10.432 170.583 10.432C170.903 10.416 171.567 10.344 172.575 10.216C173.583 10.088 174.103 10.008 174.135 9.976C174.151 9.96 174.159 9.936 174.159 9.904C174.159 9.728 173.975 9.496 173.607 9.208ZM171.015 6.28C171.303 6.2 171.655 6.16 172.071 6.16C172.919 6.16 173.647 6.28 174.255 6.52C174.751 6.696 175.239 7.04 175.719 7.552C176.215 8.048 176.623 8.608 176.943 9.232C177.263 9.872 177.423 10.304 177.423 10.528C177.423 11.04 177.199 11.52 176.751 11.968C176.271 12.4 174.775 12.72 172.263 12.928C171.303 13.008 170.679 13.072 170.391 13.12C170.103 13.168 169.959 13.24 169.959 13.336C169.959 13.416 170.103 13.584 170.391 13.84C170.887 14.32 171.775 14.608 173.055 14.704C173.183 14.72 173.351 14.728 173.559 14.728C173.895 14.728 174.295 14.648 174.759 14.488C175.415 14.248 175.935 14.128 176.319 14.128C176.895 14.128 177.271 14.416 177.447 14.992C177.495 15.136 177.519 15.272 177.519 15.4C177.519 15.944 177.175 16.392 176.487 16.744C175.815 17.08 174.863 17.272 173.631 17.32C173.567 17.32 173.479 17.328 173.367 17.344C173.255 17.344 173.175 17.344 173.127 17.344C171.767 17.344 170.591 17.08 169.599 16.552C168.623 16.008 167.887 15.24 167.391 14.248C167.151 13.768 167.031 13.128 167.031 12.328C167.031 11.528 167.111 10.896 167.271 10.432C167.671 9.232 168.167 8.312 168.759 7.672C169.351 7.016 170.103 6.552 171.015 6.28ZM188.461 9.424C187.997 8.96 187.277 8.728 186.301 8.728C185.821 8.728 185.397 8.808 185.029 8.968C184.677 9.128 184.293 9.44 183.877 9.904C183.461 10.368 183.189 10.792 183.061 11.176C182.917 11.592 182.845 11.984 182.845 12.352C182.845 13.2 183.181 13.8 183.853 14.152C184.253 14.36 184.773 14.464 185.413 14.464C185.845 14.464 186.173 14.408 186.397 14.296C187.693 13.64 188.485 12.464 188.773 10.768L188.917 9.856L188.461 9.424ZM184.812 6.16C185.197 6.048 185.645 5.992 186.157 5.992C187.021 5.992 187.869 6.144 188.701 6.448C189.533 6.752 190.109 7.136 190.429 7.6C190.653 7.92 190.941 8.256 191.293 8.608C191.677 9.008 192.029 9.696 192.349 10.672C192.653 11.6 192.933 12.632 193.189 13.768C193.461 14.904 193.597 15.672 193.597 16.072C193.597 16.472 193.477 16.784 193.237 17.008C192.933 17.296 192.645 17.44 192.372 17.44C192.261 17.44 192.117 17.416 191.941 17.368C191.637 17.256 191.397 17.064 191.221 16.792C191.061 16.52 190.917 16.08 190.789 15.472C190.629 14.752 190.541 14.392 190.525 14.392C190.461 14.392 190.125 14.696 189.517 15.304C188.317 16.472 187.069 17.104 185.773 17.2H185.437C184.653 17.2 183.885 17.064 183.133 16.792C182.397 16.52 181.813 16.16 181.381 15.712C181.157 15.488 180.933 15.152 180.709 14.704C180.485 14.24 180.333 13.816 180.253 13.432C180.173 13.032 180.133 12.672 180.133 12.352C180.133 11.024 180.581 9.752 181.477 8.536C182.389 7.32 183.501 6.528 184.812 6.16ZM196.617 6.496C196.905 6.256 197.217 6.136 197.553 6.136C197.905 6.136 198.209 6.264 198.465 6.52C198.721 6.76 198.849 7.072 198.849 7.456C198.849 7.84 198.921 8.032 199.065 8.032C199.145 8.032 199.313 7.944 199.569 7.768C200.753 6.952 201.929 6.544 203.097 6.544C203.593 6.544 204.081 6.632 204.561 6.808C204.993 6.984 205.297 7.176 205.473 7.384C205.649 7.592 205.737 7.872 205.737 8.224C205.737 8.608 205.593 8.936 205.305 9.208C205.065 9.432 204.849 9.544 204.657 9.544C204.593 9.544 204.145 9.488 203.313 9.376C203.217 9.36 203.081 9.352 202.905 9.352C202.649 9.352 202.321 9.44 201.921 9.616C200.881 10.096 200.153 10.704 199.737 11.44C199.321 12.176 199.113 13.232 199.113 14.608C199.097 15.616 198.977 16.32 198.753 16.72C198.545 17.12 198.169 17.32 197.625 17.32C197.257 17.32 196.945 17.192 196.689 16.936L196.305 16.552L196.257 12.304C196.225 9.168 196.209 7.552 196.209 7.456C196.209 7.072 196.345 6.752 196.617 6.496ZM213.583 6.304C213.983 6.224 214.359 6.184 214.711 6.184C215.767 6.184 216.759 6.448 217.687 6.976C218.087 7.216 218.351 7.408 218.479 7.552C218.623 7.696 218.735 7.904 218.815 8.176C218.831 8.224 218.839 8.296 218.839 8.392C218.839 8.888 218.647 9.28 218.263 9.568C218.055 9.696 217.855 9.76 217.663 9.76C217.391 9.76 216.959 9.624 216.367 9.352C215.743 9.064 215.167 8.92 214.639 8.92C214.159 8.92 213.711 9.04 213.295 9.28C212.927 9.504 212.527 9.84 212.095 10.288C211.663 10.736 211.383 11.112 211.255 11.416C211.127 11.72 211.063 11.96 211.063 12.136C211.063 12.408 211.279 12.76 211.711 13.192C212.367 13.832 213.287 14.208 214.471 14.32C214.519 14.32 214.583 14.328 214.663 14.344C214.759 14.344 214.823 14.344 214.855 14.344C215.127 14.344 215.495 14.224 215.959 13.984C216.455 13.712 216.839 13.576 217.111 13.576C217.367 13.576 217.623 13.688 217.879 13.912C218.215 14.232 218.383 14.56 218.383 14.896C218.383 15.52 217.895 16.08 216.919 16.576C216.343 16.88 215.767 17.032 215.191 17.032H214.807C213.463 17.016 212.239 16.712 211.135 16.12C210.031 15.512 209.239 14.72 208.759 13.744C208.503 13.232 208.375 12.688 208.375 12.112C208.375 10.64 209.207 9.168 210.871 7.696C211.687 6.96 212.591 6.496 213.583 6.304ZM222.028 0.663999C222.3 0.439999 222.58 0.327999 222.868 0.327999C223.444 0.327999 223.868 0.679999 224.14 1.384C224.252 1.704 224.372 2.472 224.5 3.688C224.628 4.888 224.732 6.008 224.812 7.048C224.892 8.072 224.94 8.584 224.956 8.584C224.988 8.584 225.252 8.408 225.748 8.056C226.724 7.368 227.652 7.024 228.532 7.024C229.348 7.024 230.06 7.328 230.668 7.936C231.292 8.528 231.78 9.4 232.132 10.552C232.404 11.448 232.54 12.84 232.54 14.728C232.54 15.912 232.468 16.712 232.324 17.128C232.164 17.56 231.796 17.776 231.22 17.776C230.836 17.776 230.516 17.648 230.26 17.392L229.9 17.032L229.828 14.608C229.732 11.488 229.3 9.88 228.532 9.784H228.46C228.092 9.784 227.636 9.992 227.092 10.408C226.548 10.808 226.156 11.248 225.916 11.728C225.772 12.048 225.58 12.28 225.34 12.424L225.028 12.64L224.98 15.256C224.948 16.536 224.916 17.312 224.884 17.584C224.868 17.84 224.78 18.048 224.62 18.208C224.364 18.48 224.044 18.616 223.66 18.616C223.084 18.616 222.684 18.36 222.46 17.848C222.348 17.544 222.268 15.704 222.22 12.328C222.14 6.68 221.932 3.296 221.596 2.176C221.548 2 221.524 1.832 221.524 1.672C221.524 1.256 221.692 0.919999 222.028 0.663999ZM242.58 9.856C242.292 9.712 241.884 9.64 241.356 9.64C240.78 9.64 240.292 9.728 239.892 9.904C239.62 10.016 239.268 10.264 238.836 10.648C238.404 11.016 238.188 11.256 238.188 11.368C238.188 11.416 238.436 11.44 238.932 11.44C239.668 11.44 240.548 11.4 241.572 11.32C242.596 11.24 243.18 11.152 243.324 11.056C243.372 11.04 243.396 10.992 243.396 10.912C243.396 10.768 243.308 10.584 243.132 10.36C242.956 10.12 242.772 9.952 242.58 9.856ZM239.748 7.072C240.148 6.96 240.62 6.904 241.164 6.904C242.172 6.904 243.092 7.104 243.924 7.504C244.548 7.824 245.068 8.312 245.484 8.968C245.9 9.608 246.156 10.328 246.252 11.128C246.252 11.16 246.252 11.208 246.252 11.272C246.268 11.336 246.276 11.384 246.276 11.416C246.276 11.832 246.196 12.24 246.036 12.64C245.892 13.04 245.716 13.312 245.508 13.456C245.236 13.648 243.324 13.888 239.772 14.176C239.02 14.24 238.644 14.312 238.644 14.392C238.644 14.488 238.812 14.64 239.148 14.848C239.484 15.056 239.812 15.2 240.132 15.28C240.42 15.344 240.652 15.376 240.828 15.376C241.34 15.376 242.004 15.208 242.82 14.872C243.396 14.632 243.82 14.512 244.092 14.512C244.364 14.512 244.62 14.632 244.86 14.872C245.18 15.192 245.34 15.496 245.34 15.784C245.34 15.976 245.292 16.176 245.196 16.384C245.116 16.576 245.004 16.728 244.86 16.84C244.732 16.952 244.492 17.088 244.14 17.248C242.972 17.76 241.884 18.016 240.876 18.016C240.3 18.016 239.708 17.928 239.1 17.752C238.284 17.496 237.54 17.064 236.868 16.456C236.196 15.832 235.716 15.144 235.428 14.392C235.252 13.896 235.164 13.344 235.164 12.736C235.164 11.856 235.308 11.12 235.596 10.528C235.932 9.792 236.5 9.088 237.3 8.416C238.1 7.744 238.916 7.296 239.748 7.072ZM255.066 9.712C254.426 9.408 253.978 9.256 253.722 9.256C253.418 9.256 253.034 9.464 252.57 9.88C251.946 10.456 251.634 11.168 251.634 12.016C251.634 12.704 251.858 13.224 252.306 13.576C252.514 13.736 252.73 13.816 252.954 13.816C253.226 13.816 253.57 13.704 253.986 13.48C255.33 12.776 256.002 11.864 256.002 10.744V10.144L255.066 9.712ZM256.29 1.192C256.562 0.967999 256.882 0.855999 257.25 0.855999C257.49 0.855999 257.69 0.903999 257.85 0.999999C258.042 1.112 258.202 1.296 258.33 1.552C258.426 1.744 258.49 2.28 258.522 3.16C258.57 4.04 258.602 6.056 258.618 9.208L258.666 16.432L258.258 16.84C257.986 17.112 257.674 17.248 257.322 17.248C256.986 17.248 256.682 17.128 256.41 16.888C256.138 16.648 256.002 16.376 256.002 16.072C256.002 15.816 255.986 15.672 255.954 15.64H255.93C255.818 15.64 255.554 15.744 255.138 15.952C254.354 16.32 253.618 16.504 252.93 16.504C251.858 16.504 250.922 16.072 250.122 15.208C249.306 14.312 248.898 13.256 248.898 12.04C248.898 10.44 249.522 9.064 250.77 7.912C251.714 7.048 252.738 6.616 253.842 6.616C254.322 6.616 254.762 6.68 255.162 6.808C255.594 6.952 255.826 7.024 255.858 7.024C255.874 7.024 255.882 6.112 255.882 4.288V1.552L256.29 1.192ZM272.282 0.639999C272.554 0.367999 272.882 0.231998 273.266 0.231998C273.554 0.231998 273.81 0.319999 274.034 0.495999C274.274 0.655999 274.442 0.887999 274.538 1.192C274.586 1.368 274.666 2.2 274.778 3.688C274.89 5.16 274.946 6.184 274.946 6.76C274.946 6.904 274.978 6.992 275.042 7.024C275.122 7.056 275.306 7.072 275.594 7.072C276.026 7.072 276.274 7.024 276.338 6.928C276.37 6.848 276.698 6.808 277.322 6.808C278.122 6.808 278.65 6.864 278.906 6.976C279.146 7.088 279.33 7.304 279.458 7.624C279.57 7.848 279.626 8.032 279.626 8.176C279.626 8.288 279.602 8.424 279.554 8.584C279.442 8.952 279.234 9.2 278.93 9.328C278.642 9.44 278.066 9.52 277.202 9.568C276.226 9.616 275.594 9.68 275.306 9.76L274.922 9.856L275.018 13.24C275.05 14.744 275.066 15.552 275.066 15.664C275.066 16.368 275.01 16.84 274.898 17.08C274.658 17.592 274.266 17.848 273.722 17.848C273.514 17.848 273.298 17.8 273.074 17.704C272.898 17.624 272.77 17.552 272.69 17.488C272.61 17.408 272.538 17.208 272.474 16.888C272.41 16.552 272.37 16.16 272.354 15.712C272.338 15.264 272.322 14.528 272.306 13.504L272.258 10.024L271.538 10.048C271.106 10.08 270.722 10.144 270.386 10.24C270.306 10.272 270.178 10.288 270.002 10.288C269.458 10.288 269.066 10.12 268.826 9.784C268.698 9.576 268.634 9.296 268.634 8.944C268.634 8.64 268.682 8.4 268.778 8.224C269.002 7.824 269.786 7.52 271.13 7.312L272.234 7.144L272.138 5.032C272.074 3.528 272.018 2.504 271.97 1.96C271.938 1.576 271.922 1.368 271.922 1.336C271.922 1.112 272.042 0.879999 272.282 0.639999ZM282.848 0.663999C283.12 0.439999 283.4 0.327999 283.688 0.327999C284.264 0.327999 284.688 0.679999 284.96 1.384C285.072 1.704 285.192 2.472 285.32 3.688C285.448 4.888 285.552 6.008 285.632 7.048C285.712 8.072 285.76 8.584 285.776 8.584C285.808 8.584 286.072 8.408 286.568 8.056C287.544 7.368 288.472 7.024 289.352 7.024C290.168 7.024 290.88 7.328 291.488 7.936C292.112 8.528 292.6 9.4 292.952 10.552C293.224 11.448 293.36 12.84 293.36 14.728C293.36 15.912 293.288 16.712 293.144 17.128C292.984 17.56 292.616 17.776 292.04 17.776C291.656 17.776 291.336 17.648 291.08 17.392L290.72 17.032L290.648 14.608C290.552 11.488 290.12 9.88 289.352 9.784H289.28C288.912 9.784 288.456 9.992 287.912 10.408C287.368 10.808 286.976 11.248 286.736 11.728C286.592 12.048 286.4 12.28 286.16 12.424L285.848 12.64L285.8 15.256C285.768 16.536 285.736 17.312 285.704 17.584C285.688 17.84 285.6 18.048 285.44 18.208C285.184 18.48 284.864 18.616 284.48 18.616C283.904 18.616 283.504 18.36 283.28 17.848C283.168 17.544 283.088 15.704 283.04 12.328C282.96 6.68 282.752 3.296 282.416 2.176C282.368 2 282.344 1.832 282.344 1.672C282.344 1.256 282.512 0.919999 282.848 0.663999ZM303.4 9.856C303.112 9.712 302.704 9.64 302.176 9.64C301.6 9.64 301.112 9.728 300.712 9.904C300.44 10.016 300.088 10.264 299.656 10.648C299.224 11.016 299.008 11.256 299.008 11.368C299.008 11.416 299.256 11.44 299.752 11.44C300.488 11.44 301.368 11.4 302.392 11.32C303.416 11.24 304 11.152 304.144 11.056C304.192 11.04 304.216 10.992 304.216 10.912C304.216 10.768 304.128 10.584 303.952 10.36C303.776 10.12 303.592 9.952 303.4 9.856ZM300.568 7.072C300.968 6.96 301.44 6.904 301.984 6.904C302.992 6.904 303.912 7.104 304.744 7.504C305.368 7.824 305.888 8.312 306.304 8.968C306.72 9.608 306.976 10.328 307.072 11.128C307.072 11.16 307.072 11.208 307.072 11.272C307.088 11.336 307.096 11.384 307.096 11.416C307.096 11.832 307.016 12.24 306.856 12.64C306.712 13.04 306.536 13.312 306.328 13.456C306.056 13.648 304.144 13.888 300.592 14.176C299.84 14.24 299.464 14.312 299.464 14.392C299.464 14.488 299.632 14.64 299.968 14.848C300.304 15.056 300.632 15.2 300.952 15.28C301.24 15.344 301.472 15.376 301.648 15.376C302.16 15.376 302.824 15.208 303.64 14.872C304.216 14.632 304.64 14.512 304.912 14.512C305.184 14.512 305.44 14.632 305.68 14.872C306 15.192 306.16 15.496 306.16 15.784C306.16 15.976 306.112 16.176 306.016 16.384C305.936 16.576 305.824 16.728 305.68 16.84C305.552 16.952 305.312 17.088 304.96 17.248C303.792 17.76 302.704 18.016 301.696 18.016C301.12 18.016 300.528 17.928 299.92 17.752C299.104 17.496 298.36 17.064 297.688 16.456C297.016 15.832 296.536 15.144 296.248 14.392C296.072 13.896 295.984 13.344 295.984 12.736C295.984 11.856 296.128 11.12 296.416 10.528C296.752 9.792 297.32 9.088 298.12 8.416C298.92 7.744 299.736 7.296 300.568 7.072ZM325.988 9.712C325.348 9.408 324.9 9.256 324.644 9.256C324.34 9.256 323.956 9.464 323.492 9.88C322.868 10.456 322.556 11.168 322.556 12.016C322.556 12.704 322.78 13.224 323.228 13.576C323.436 13.736 323.652 13.816 323.876 13.816C324.148 13.816 324.492 13.704 324.908 13.48C326.252 12.776 326.924 11.864 326.924 10.744V10.144L325.988 9.712ZM327.212 1.192C327.484 0.967999 327.804 0.855999 328.172 0.855999C328.412 0.855999 328.612 0.903999 328.772 0.999999C328.964 1.112 329.124 1.296 329.252 1.552C329.348 1.744 329.412 2.28 329.444 3.16C329.492 4.04 329.524 6.056 329.54 9.208L329.588 16.432L329.18 16.84C328.908 17.112 328.596 17.248 328.244 17.248C327.908 17.248 327.604 17.128 327.332 16.888C327.06 16.648 326.924 16.376 326.924 16.072C326.924 15.816 326.908 15.672 326.876 15.64H326.852C326.74 15.64 326.476 15.744 326.06 15.952C325.276 16.32 324.54 16.504 323.852 16.504C322.78 16.504 321.844 16.072 321.044 15.208C320.228 14.312 319.82 13.256 319.82 12.04C319.82 10.44 320.444 9.064 321.692 7.912C322.636 7.048 323.66 6.616 324.764 6.616C325.244 6.616 325.684 6.68 326.084 6.808C326.516 6.952 326.748 7.024 326.78 7.024C326.796 7.024 326.804 6.112 326.804 4.288V1.552L327.212 1.192ZM338.748 9.208C338.46 9 338.004 8.896 337.38 8.896C336.996 8.896 336.692 8.944 336.468 9.04C336.26 9.136 336.02 9.336 335.748 9.64C335.492 9.928 335.364 10.136 335.364 10.264C335.364 10.376 335.484 10.432 335.724 10.432C336.044 10.416 336.708 10.344 337.716 10.216C338.724 10.088 339.244 10.008 339.276 9.976C339.292 9.96 339.3 9.936 339.3 9.904C339.3 9.728 339.116 9.496 338.748 9.208ZM336.156 6.28C336.444 6.2 336.796 6.16 337.212 6.16C338.06 6.16 338.788 6.28 339.396 6.52C339.892 6.696 340.38 7.04 340.86 7.552C341.356 8.048 341.764 8.608 342.084 9.232C342.404 9.872 342.564 10.304 342.564 10.528C342.564 11.04 342.34 11.52 341.892 11.968C341.412 12.4 339.916 12.72 337.404 12.928C336.444 13.008 335.82 13.072 335.532 13.12C335.244 13.168 335.1 13.24 335.1 13.336C335.1 13.416 335.244 13.584 335.532 13.84C336.028 14.32 336.916 14.608 338.196 14.704C338.324 14.72 338.492 14.728 338.7 14.728C339.036 14.728 339.436 14.648 339.9 14.488C340.556 14.248 341.076 14.128 341.46 14.128C342.036 14.128 342.412 14.416 342.588 14.992C342.636 15.136 342.66 15.272 342.66 15.4C342.66 15.944 342.316 16.392 341.628 16.744C340.956 17.08 340.004 17.272 338.772 17.32C338.708 17.32 338.62 17.328 338.508 17.344C338.396 17.344 338.316 17.344 338.268 17.344C336.908 17.344 335.732 17.08 334.74 16.552C333.764 16.008 333.028 15.24 332.532 14.248C332.292 13.768 332.172 13.128 332.172 12.328C332.172 11.528 332.252 10.896 332.412 10.432C332.812 9.232 333.308 8.312 333.9 7.672C334.492 7.016 335.244 6.552 336.156 6.28ZM352.713 10.096C352.505 9.584 352.233 9.224 351.897 9.016C351.561 8.808 351.153 8.704 350.673 8.704C350.161 8.704 349.657 8.816 349.161 9.04C348.713 9.232 348.457 9.416 348.393 9.592C348.345 9.72 348.249 9.872 348.105 10.048C347.913 10.272 347.817 11.064 347.817 12.424C347.817 12.872 347.833 13.176 347.865 13.336L347.961 13.912L348.705 14.104C349.153 14.216 349.601 14.272 350.049 14.272C350.785 14.272 351.409 14.12 351.921 13.816C352.449 13.496 352.785 13.056 352.929 12.496C352.993 12.256 353.025 11.976 353.025 11.656C353.025 11.112 352.921 10.592 352.713 10.096ZM349.713 6.04C349.905 6.008 350.097 5.992 350.289 5.992C351.217 5.992 352.009 6.112 352.665 6.352C353.321 6.608 353.897 7.056 354.393 7.696C354.905 8.336 355.273 9.072 355.497 9.904C355.609 10.336 355.665 10.856 355.665 11.464C355.665 12.44 355.545 13.24 355.305 13.864C355.001 14.648 354.489 15.304 353.769 15.832C353.065 16.36 352.241 16.704 351.297 16.864C350.961 16.912 350.545 16.936 350.049 16.936C349.201 16.936 348.601 16.88 348.249 16.768C348.153 16.736 348.097 16.72 348.081 16.72C348.001 16.72 347.961 16.792 347.961 16.936C347.961 16.968 347.977 17.16 348.009 17.512C348.025 17.672 348.057 18.296 348.105 19.384V19.792C348.105 20.08 348.081 20.28 348.033 20.392C347.985 20.504 347.881 20.64 347.721 20.8C347.465 21.056 347.145 21.184 346.761 21.184C346.537 21.184 346.329 21.136 346.137 21.04C345.865 20.896 345.673 20.624 345.561 20.224C345.465 19.824 345.385 19 345.321 17.752C345.225 16.184 345.177 14.144 345.177 11.632C345.177 8.672 345.233 7.08 345.345 6.856C345.601 6.36 346.009 6.112 346.569 6.112C346.873 6.112 347.137 6.2 347.361 6.376L347.697 6.64L348.585 6.4C348.729 6.352 348.881 6.304 349.041 6.256C349.201 6.192 349.345 6.144 349.473 6.112C349.601 6.08 349.681 6.056 349.713 6.04ZM362 0.639999C362.272 0.367999 362.6 0.231998 362.984 0.231998C363.272 0.231998 363.528 0.319999 363.752 0.495999C363.992 0.655999 364.16 0.887999 364.256 1.192C364.304 1.368 364.384 2.2 364.496 3.688C364.608 5.16 364.664 6.184 364.664 6.76C364.664 6.904 364.696 6.992 364.76 7.024C364.84 7.056 365.024 7.072 365.312 7.072C365.744 7.072 365.992 7.024 366.056 6.928C366.088 6.848 366.416 6.808 367.04 6.808C367.84 6.808 368.368 6.864 368.624 6.976C368.864 7.088 369.048 7.304 369.176 7.624C369.288 7.848 369.344 8.032 369.344 8.176C369.344 8.288 369.32 8.424 369.272 8.584C369.16 8.952 368.952 9.2 368.648 9.328C368.36 9.44 367.784 9.52 366.92 9.568C365.944 9.616 365.312 9.68 365.024 9.76L364.64 9.856L364.736 13.24C364.768 14.744 364.784 15.552 364.784 15.664C364.784 16.368 364.728 16.84 364.616 17.08C364.376 17.592 363.984 17.848 363.44 17.848C363.232 17.848 363.016 17.8 362.792 17.704C362.616 17.624 362.488 17.552 362.408 17.488C362.328 17.408 362.256 17.208 362.192 16.888C362.128 16.552 362.088 16.16 362.072 15.712C362.056 15.264 362.04 14.528 362.024 13.504L361.976 10.024L361.256 10.048C360.824 10.08 360.44 10.144 360.104 10.24C360.024 10.272 359.896 10.288 359.72 10.288C359.176 10.288 358.784 10.12 358.544 9.784C358.416 9.576 358.352 9.296 358.352 8.944C358.352 8.64 358.4 8.4 358.496 8.224C358.72 7.824 359.504 7.52 360.848 7.312L361.952 7.144L361.856 5.032C361.792 3.528 361.736 2.504 361.688 1.96C361.656 1.576 361.64 1.368 361.64 1.336C361.64 1.112 361.76 0.879999 362 0.639999ZM372.567 0.663999C372.839 0.439999 373.119 0.327999 373.407 0.327999C373.983 0.327999 374.407 0.679999 374.679 1.384C374.791 1.704 374.911 2.472 375.039 3.688C375.167 4.888 375.271 6.008 375.351 7.048C375.431 8.072 375.479 8.584 375.495 8.584C375.527 8.584 375.791 8.408 376.287 8.056C377.263 7.368 378.191 7.024 379.071 7.024C379.887 7.024 380.599 7.328 381.207 7.936C381.831 8.528 382.319 9.4 382.671 10.552C382.943 11.448 383.079 12.84 383.079 14.728C383.079 15.912 383.007 16.712 382.863 17.128C382.703 17.56 382.335 17.776 381.759 17.776C381.375 17.776 381.055 17.648 380.799 17.392L380.439 17.032L380.367 14.608C380.271 11.488 379.839 9.88 379.071 9.784H378.999C378.631 9.784 378.175 9.992 377.631 10.408C377.087 10.808 376.695 11.248 376.455 11.728C376.311 12.048 376.119 12.28 375.879 12.424L375.567 12.64L375.519 15.256C375.487 16.536 375.455 17.312 375.423 17.584C375.407 17.84 375.319 18.048 375.159 18.208C374.903 18.48 374.583 18.616 374.199 18.616C373.623 18.616 373.223 18.36 372.999 17.848C372.887 17.544 372.807 15.704 372.759 12.328C372.679 6.68 372.471 3.296 372.135 2.176C372.087 2 372.063 1.832 372.063 1.672C372.063 1.256 372.231 0.919999 372.567 0.663999ZM388.319 5.656C388.607 5.576 389.055 5.536 389.663 5.536C390.943 5.536 391.871 5.632 392.447 5.824C393.247 6.08 393.647 6.52 393.647 7.144C393.647 7.512 393.471 7.848 393.119 8.152C392.879 8.376 392.647 8.488 392.423 8.488C392.407 8.488 392.375 8.488 392.327 8.488C392.279 8.472 392.239 8.464 392.207 8.464C391.151 8.288 390.319 8.2 389.711 8.2C389.519 8.2 389.343 8.216 389.183 8.248C388.687 8.376 388.439 8.608 388.439 8.944C388.439 9.008 388.447 9.056 388.463 9.088C388.575 9.408 389.207 9.808 390.359 10.288C392.423 11.152 393.695 12.224 394.175 13.504C394.319 13.888 394.391 14.248 394.391 14.584C394.391 15.176 394.175 15.68 393.743 16.096C393.327 16.512 392.735 16.792 391.967 16.936C391.647 17 391.119 17.032 390.383 17.032C389.039 17.032 388.183 16.952 387.815 16.792C387.607 16.696 387.431 16.536 387.287 16.312C387.143 16.072 387.071 15.84 387.071 15.616C387.071 15.376 387.151 15.136 387.311 14.896C387.471 14.64 387.663 14.464 387.887 14.368C388.095 14.288 388.343 14.248 388.631 14.248C388.743 14.248 388.991 14.264 389.375 14.296C389.631 14.328 389.975 14.344 390.407 14.344C391.079 14.344 391.415 14.264 391.415 14.104C391.415 13.816 390.719 13.384 389.327 12.808C388.079 12.264 387.159 11.696 386.567 11.104C385.991 10.496 385.703 9.808 385.703 9.04C385.703 8.912 385.719 8.72 385.751 8.464C385.879 7.68 386.199 7.056 386.711 6.592C387.127 6.176 387.663 5.864 388.319 5.656ZM7.016 36.112C6.712 36.032 6.216 35.96 5.528 35.896C5.08 35.864 4.84 35.848 4.808 35.848C4.584 35.848 4.36 35.968 4.136 36.208C3.496 36.864 3.152 37.752 3.104 38.872C3.104 38.936 3.096 39.024 3.08 39.136C3.08 39.232 3.08 39.304 3.08 39.352C3.08 39.72 3.176 40.064 3.368 40.384C3.88 41.296 4.784 41.752 6.08 41.752C6.624 41.736 7.176 41.552 7.736 41.2C8.312 40.832 8.728 40.392 8.984 39.88C9.128 39.576 9.2 39.248 9.2 38.896C9.2 38.304 8.992 37.744 8.576 37.216C8.176 36.672 7.656 36.304 7.016 36.112ZM3.368 33.424C3.736 33.216 4.104 33.112 4.472 33.112C4.552 33.112 4.848 33.128 5.36 33.16C6.88 33.24 8.104 33.56 9.032 34.12C9.96 34.68 10.704 35.544 11.264 36.712C11.696 37.608 11.912 38.464 11.912 39.28C11.912 39.536 11.888 39.76 11.84 39.952C11.584 40.944 11.024 41.848 10.16 42.664C9.296 43.48 8.344 44.024 7.304 44.296C6.76 44.424 6.328 44.488 6.008 44.488C5.688 44.488 5.256 44.424 4.712 44.296C3.064 43.864 1.88 43.08 1.16 41.944C0.6 41.064 0.32 40.136 0.32 39.16C0.32 38.184 0.584 37.144 1.112 36.04C1.72 34.744 2.472 33.872 3.368 33.424ZM22.5626 26.824C22.8506 26.792 23.0666 26.776 23.2106 26.776C24.3626 26.776 25.2266 27.064 25.8026 27.64C26.1546 28.008 26.3306 28.4 26.3306 28.816C26.3306 29.168 26.2026 29.472 25.9466 29.728C25.7066 29.968 25.4026 30.088 25.0346 30.088C24.6986 30.088 24.3706 29.976 24.0506 29.752C23.7626 29.544 23.4986 29.44 23.2586 29.44C22.8746 29.44 22.5146 29.712 22.1786 30.256C21.8426 30.8 21.6346 31.44 21.5546 32.176C21.5226 32.432 21.5066 32.584 21.5066 32.632C21.5066 32.84 21.6106 32.976 21.8186 33.04C22.0266 33.088 22.5146 33.12 23.2826 33.136C23.4106 33.136 23.5146 33.136 23.5946 33.136C24.3306 33.168 24.7706 33.2 24.9146 33.232C25.0746 33.264 25.2346 33.368 25.3946 33.544C25.6026 33.768 25.7066 34.056 25.7066 34.408C25.7066 34.776 25.5946 35.08 25.3706 35.32L25.0346 35.728H21.2426L21.1706 36.064C21.1546 36.112 21.1466 36.376 21.1466 36.856C21.1466 39.064 21.2106 41.024 21.3386 42.736C21.3386 42.8 21.3386 42.888 21.3386 43C21.3546 43.112 21.3626 43.192 21.3626 43.24C21.3626 43.656 21.3066 43.96 21.1946 44.152C21.0826 44.344 20.8826 44.512 20.5946 44.656C20.4026 44.752 20.1946 44.8 19.9706 44.8C19.5226 44.8 19.1786 44.632 18.9386 44.296C18.8106 44.104 18.6906 43.4 18.5786 42.184C18.4826 40.952 18.4346 39.744 18.4346 38.56C18.4346 38.016 18.4426 37.624 18.4586 37.384L18.5306 35.704L16.9706 35.776C16.2346 35.808 15.8506 35.824 15.8186 35.824C15.5146 35.824 15.2586 35.744 15.0506 35.584C14.7466 35.312 14.5946 34.952 14.5946 34.504C14.5946 34.312 14.6266 34.144 14.6906 34C14.8026 33.712 15.0346 33.504 15.3866 33.376C15.7386 33.248 16.3226 33.16 17.1386 33.112C18.1466 33.048 18.6586 33 18.6746 32.968C18.7066 32.936 18.7946 32.48 18.9386 31.6C19.1946 29.952 19.7706 28.696 20.6666 27.832C21.0026 27.496 21.2826 27.264 21.5066 27.136C21.7466 27.008 22.0986 26.904 22.5626 26.824ZM40.1098 27.64C40.3818 27.368 40.7098 27.232 41.0938 27.232C41.3818 27.232 41.6378 27.32 41.8618 27.496C42.1018 27.656 42.2698 27.888 42.3658 28.192C42.4138 28.368 42.4938 29.2 42.6058 30.688C42.7178 32.16 42.7738 33.184 42.7738 33.76C42.7738 33.904 42.8058 33.992 42.8698 34.024C42.9498 34.056 43.1338 34.072 43.4218 34.072C43.8538 34.072 44.1018 34.024 44.1658 33.928C44.1978 33.848 44.5258 33.808 45.1498 33.808C45.9498 33.808 46.4778 33.864 46.7338 33.976C46.9738 34.088 47.1578 34.304 47.2858 34.624C47.3978 34.848 47.4538 35.032 47.4538 35.176C47.4538 35.288 47.4298 35.424 47.3818 35.584C47.2698 35.952 47.0618 36.2 46.7578 36.328C46.4698 36.44 45.8938 36.52 45.0298 36.568C44.0538 36.616 43.4218 36.68 43.1338 36.76L42.7498 36.856L42.8458 40.24C42.8778 41.744 42.8938 42.552 42.8938 42.664C42.8938 43.368 42.8378 43.84 42.7258 44.08C42.4858 44.592 42.0938 44.848 41.5498 44.848C41.3418 44.848 41.1258 44.8 40.9018 44.704C40.7258 44.624 40.5978 44.552 40.5178 44.488C40.4378 44.408 40.3658 44.208 40.3018 43.888C40.2378 43.552 40.1978 43.16 40.1818 42.712C40.1658 42.264 40.1498 41.528 40.1338 40.504L40.0858 37.024L39.3658 37.048C38.9338 37.08 38.5498 37.144 38.2138 37.24C38.1338 37.272 38.0058 37.288 37.8298 37.288C37.2858 37.288 36.8938 37.12 36.6538 36.784C36.5258 36.576 36.4618 36.296 36.4618 35.944C36.4618 35.64 36.5098 35.4 36.6058 35.224C36.8298 34.824 37.6138 34.52 38.9578 34.312L40.0618 34.144L39.9658 32.032C39.9018 30.528 39.8458 29.504 39.7978 28.96C39.7658 28.576 39.7498 28.368 39.7498 28.336C39.7498 28.112 39.8698 27.88 40.1098 27.64ZM50.6761 27.664C50.9481 27.44 51.2281 27.328 51.5161 27.328C52.0921 27.328 52.5161 27.68 52.7881 28.384C52.9001 28.704 53.0201 29.472 53.1481 30.688C53.2761 31.888 53.3801 33.008 53.4601 34.048C53.5401 35.072 53.5881 35.584 53.6041 35.584C53.6361 35.584 53.9001 35.408 54.3961 35.056C55.3721 34.368 56.3001 34.024 57.1801 34.024C57.9961 34.024 58.7081 34.328 59.3161 34.936C59.9401 35.528 60.4281 36.4 60.7801 37.552C61.0521 38.448 61.1881 39.84 61.1881 41.728C61.1881 42.912 61.1161 43.712 60.9721 44.128C60.8121 44.56 60.4441 44.776 59.8681 44.776C59.4841 44.776 59.1641 44.648 58.9081 44.392L58.5481 44.032L58.4761 41.608C58.3801 38.488 57.9481 36.88 57.1801 36.784H57.1081C56.7401 36.784 56.2841 36.992 55.7401 37.408C55.1961 37.808 54.8041 38.248 54.5641 38.728C54.4201 39.048 54.2281 39.28 53.9881 39.424L53.6761 39.64L53.6281 42.256C53.5961 43.536 53.5641 44.312 53.5321 44.584C53.5161 44.84 53.4281 45.048 53.2681 45.208C53.0121 45.48 52.6921 45.616 52.3081 45.616C51.7321 45.616 51.3321 45.36 51.1081 44.848C50.9961 44.544 50.9161 42.704 50.8681 39.328C50.7881 33.68 50.5801 30.296 50.2441 29.176C50.1961 29 50.1721 28.832 50.1721 28.672C50.1721 28.256 50.3401 27.92 50.6761 27.664ZM71.2282 36.856C70.9402 36.712 70.5322 36.64 70.0042 36.64C69.4282 36.64 68.9402 36.728 68.5402 36.904C68.2682 37.016 67.9162 37.264 67.4842 37.648C67.0522 38.016 66.8362 38.256 66.8362 38.368C66.8362 38.416 67.0842 38.44 67.5802 38.44C68.3162 38.44 69.1962 38.4 70.2202 38.32C71.2442 38.24 71.8282 38.152 71.9722 38.056C72.0202 38.04 72.0442 37.992 72.0442 37.912C72.0442 37.768 71.9562 37.584 71.7802 37.36C71.6042 37.12 71.4202 36.952 71.2282 36.856ZM68.3962 34.072C68.7962 33.96 69.2682 33.904 69.8122 33.904C70.8202 33.904 71.7402 34.104 72.5722 34.504C73.1962 34.824 73.7162 35.312 74.1322 35.968C74.5482 36.608 74.8042 37.328 74.9002 38.128C74.9002 38.16 74.9002 38.208 74.9002 38.272C74.9162 38.336 74.9242 38.384 74.9242 38.416C74.9242 38.832 74.8442 39.24 74.6842 39.64C74.5402 40.04 74.3642 40.312 74.1562 40.456C73.8842 40.648 71.9722 40.888 68.4202 41.176C67.6682 41.24 67.2922 41.312 67.2922 41.392C67.2922 41.488 67.4602 41.64 67.7962 41.848C68.1322 42.056 68.4602 42.2 68.7802 42.28C69.0682 42.344 69.3002 42.376 69.4762 42.376C69.9882 42.376 70.6522 42.208 71.4682 41.872C72.0442 41.632 72.4682 41.512 72.7402 41.512C73.0122 41.512 73.2682 41.632 73.5082 41.872C73.8282 42.192 73.9882 42.496 73.9882 42.784C73.9882 42.976 73.9402 43.176 73.8442 43.384C73.7642 43.576 73.6522 43.728 73.5082 43.84C73.3802 43.952 73.1402 44.088 72.7882 44.248C71.6202 44.76 70.5322 45.016 69.5242 45.016C68.9482 45.016 68.3562 44.928 67.7482 44.752C66.9322 44.496 66.1882 44.064 65.5162 43.456C64.8442 42.832 64.3642 42.144 64.0762 41.392C63.9002 40.896 63.8122 40.344 63.8122 39.736C63.8122 38.856 63.9562 38.12 64.2442 37.528C64.5802 36.792 65.1482 36.088 65.9482 35.416C66.7482 34.744 67.5642 34.296 68.3962 34.072ZM88.9201 33.184C88.9841 33.168 89.0801 33.16 89.2081 33.16C89.5121 33.16 89.7921 33.24 90.0481 33.4C90.3041 33.544 90.4801 33.744 90.5761 34C90.6401 34.144 90.7041 35.24 90.7681 37.288C90.8481 39.32 90.8881 40.92 90.8881 42.088C90.8881 42.584 90.8801 42.872 90.8641 42.952C90.7841 43.56 90.5201 43.968 90.0721 44.176C89.8481 44.272 89.6721 44.32 89.5441 44.32C89.4481 44.32 89.3041 44.296 89.1121 44.248C88.7441 44.136 88.5121 43.984 88.4161 43.792C88.2241 43.424 88.1121 42 88.0801 39.52C88.0801 39.072 88.0721 38.296 88.0561 37.192L88.0321 33.904L88.3201 33.568C88.5121 33.344 88.7121 33.216 88.9201 33.184ZM88.3441 28.672C88.5361 28.576 88.7201 28.528 88.8961 28.528C89.2481 28.528 89.5601 28.672 89.8321 28.96C90.1041 29.232 90.2401 29.552 90.2401 29.92C90.2401 30.176 90.1761 30.4 90.0481 30.592C89.7761 31.024 89.4081 31.24 88.9441 31.24C88.6401 31.24 88.3601 31.136 88.1041 30.928C87.8481 30.72 87.6881 30.432 87.6241 30.064C87.6241 30.048 87.6161 30.024 87.6001 29.992C87.6001 29.944 87.6001 29.912 87.6001 29.896C87.6001 29.656 87.6721 29.424 87.8161 29.2C87.9601 28.96 88.1361 28.784 88.3441 28.672ZM94.1081 33.304C94.3001 33.208 94.5001 33.16 94.7081 33.16C94.9961 33.16 95.2681 33.256 95.5241 33.448C95.7801 33.624 95.9561 33.864 96.0521 34.168L96.1961 34.672L96.7961 34.312C97.1961 34.072 97.7481 33.952 98.4521 33.952C99.1401 33.952 99.7081 34.064 100.156 34.288C100.524 34.464 100.916 34.752 101.332 35.152C101.764 35.552 102.108 35.952 102.364 36.352C103.228 37.712 103.7 39.824 103.78 42.688V43.168C103.78 43.552 103.668 43.864 103.444 44.104C103.172 44.376 102.852 44.512 102.484 44.512C101.892 44.512 101.5 44.256 101.308 43.744C101.212 43.472 101.132 42.936 101.068 42.136C100.876 39.336 100.252 37.584 99.1961 36.88C98.9721 36.736 98.7481 36.664 98.5241 36.664C98.1081 36.664 97.7321 36.896 97.3961 37.36C97.0761 37.808 96.8201 38.448 96.6281 39.28C96.5481 39.648 96.4521 40.312 96.3401 41.272C96.2281 42.232 96.1721 42.88 96.1721 43.216C96.1721 43.376 96.0361 43.592 95.7641 43.864C95.4921 44.12 95.1801 44.248 94.8281 44.248C94.1721 44.248 93.7401 43.904 93.5321 43.216C93.4361 42.88 93.3881 41.424 93.3881 38.848C93.3881 35.776 93.4441 34.104 93.5561 33.832C93.6521 33.624 93.8361 33.448 94.1081 33.304ZM110.189 28.144C110.445 27.984 110.685 27.904 110.909 27.904C111.085 27.904 111.285 27.952 111.509 28.048C111.845 28.208 112.061 28.456 112.157 28.792C112.253 29.128 112.317 29.928 112.349 31.192L112.421 33.568L113.525 33.496C113.653 33.48 113.837 33.472 114.077 33.472C114.653 33.472 115.061 33.576 115.301 33.784C115.557 33.992 115.685 34.328 115.685 34.792C115.685 35.288 115.517 35.64 115.181 35.848C114.861 36.056 114.237 36.2 113.309 36.28L112.301 36.376L112.133 39.712C112.021 41.968 111.917 43.216 111.821 43.456C111.613 43.936 111.213 44.176 110.621 44.176C110.285 44.176 110.021 44.088 109.829 43.912C109.621 43.752 109.477 43.576 109.397 43.384C109.317 43.192 109.277 42.88 109.277 42.448C109.277 42.096 109.301 41.568 109.349 40.864C109.429 39.6 109.485 38.52 109.517 37.624L109.541 36.496L108.461 36.472C107.853 36.456 107.437 36.408 107.213 36.328C106.989 36.232 106.797 36.04 106.637 35.752C106.541 35.56 106.493 35.36 106.493 35.152C106.493 34.768 106.653 34.432 106.973 34.144C107.149 33.984 107.373 33.88 107.645 33.832C107.917 33.768 108.421 33.704 109.157 33.64L109.541 33.592L109.637 31.048C109.653 30.664 109.661 30.248 109.661 29.8C109.677 29.336 109.685 28.992 109.685 28.768L109.709 28.432L109.781 28.384C109.829 28.352 109.893 28.312 109.973 28.264C110.053 28.216 110.125 28.176 110.189 28.144ZM125.767 36.856C125.479 36.712 125.071 36.64 124.543 36.64C123.967 36.64 123.479 36.728 123.079 36.904C122.807 37.016 122.455 37.264 122.023 37.648C121.591 38.016 121.375 38.256 121.375 38.368C121.375 38.416 121.623 38.44 122.119 38.44C122.855 38.44 123.735 38.4 124.759 38.32C125.783 38.24 126.367 38.152 126.511 38.056C126.559 38.04 126.583 37.992 126.583 37.912C126.583 37.768 126.495 37.584 126.319 37.36C126.143 37.12 125.959 36.952 125.767 36.856ZM122.935 34.072C123.335 33.96 123.807 33.904 124.351 33.904C125.359 33.904 126.279 34.104 127.111 34.504C127.735 34.824 128.255 35.312 128.671 35.968C129.087 36.608 129.343 37.328 129.439 38.128C129.439 38.16 129.439 38.208 129.439 38.272C129.455 38.336 129.463 38.384 129.463 38.416C129.463 38.832 129.383 39.24 129.223 39.64C129.079 40.04 128.903 40.312 128.695 40.456C128.423 40.648 126.511 40.888 122.959 41.176C122.207 41.24 121.831 41.312 121.831 41.392C121.831 41.488 121.999 41.64 122.335 41.848C122.671 42.056 122.999 42.2 123.319 42.28C123.607 42.344 123.839 42.376 124.015 42.376C124.527 42.376 125.191 42.208 126.007 41.872C126.583 41.632 127.007 41.512 127.279 41.512C127.551 41.512 127.807 41.632 128.047 41.872C128.367 42.192 128.527 42.496 128.527 42.784C128.527 42.976 128.479 43.176 128.383 43.384C128.303 43.576 128.191 43.728 128.047 43.84C127.919 43.952 127.679 44.088 127.327 44.248C126.159 44.76 125.071 45.016 124.063 45.016C123.487 45.016 122.895 44.928 122.287 44.752C121.471 44.496 120.727 44.064 120.055 43.456C119.383 42.832 118.903 42.144 118.615 41.392C118.439 40.896 118.351 40.344 118.351 39.736C118.351 38.856 118.495 38.12 118.783 37.528C119.119 36.792 119.687 36.088 120.487 35.416C121.287 34.744 122.103 34.296 122.935 34.072ZM132.422 33.496C132.71 33.256 133.022 33.136 133.358 33.136C133.71 33.136 134.014 33.264 134.27 33.52C134.526 33.76 134.654 34.072 134.654 34.456C134.654 34.84 134.726 35.032 134.87 35.032C134.95 35.032 135.118 34.944 135.374 34.768C136.558 33.952 137.734 33.544 138.902 33.544C139.398 33.544 139.886 33.632 140.366 33.808C140.798 33.984 141.102 34.176 141.278 34.384C141.454 34.592 141.542 34.872 141.542 35.224C141.542 35.608 141.398 35.936 141.11 36.208C140.87 36.432 140.654 36.544 140.462 36.544C140.398 36.544 139.95 36.488 139.118 36.376C139.022 36.36 138.886 36.352 138.71 36.352C138.454 36.352 138.126 36.44 137.726 36.616C136.686 37.096 135.958 37.704 135.542 38.44C135.126 39.176 134.918 40.232 134.918 41.608C134.902 42.616 134.782 43.32 134.558 43.72C134.35 44.12 133.974 44.32 133.43 44.32C133.062 44.32 132.75 44.192 132.494 43.936L132.11 43.552L132.062 39.304C132.03 36.168 132.014 34.552 132.014 34.456C132.014 34.072 132.15 33.752 132.422 33.496ZM144.803 33.304C144.995 33.208 145.195 33.16 145.403 33.16C145.691 33.16 145.963 33.256 146.219 33.448C146.475 33.624 146.651 33.864 146.747 34.168L146.891 34.672L147.491 34.312C147.891 34.072 148.443 33.952 149.147 33.952C149.835 33.952 150.403 34.064 150.851 34.288C151.219 34.464 151.611 34.752 152.027 35.152C152.459 35.552 152.803 35.952 153.059 36.352C153.923 37.712 154.395 39.824 154.475 42.688V43.168C154.475 43.552 154.363 43.864 154.139 44.104C153.867 44.376 153.547 44.512 153.179 44.512C152.587 44.512 152.195 44.256 152.003 43.744C151.907 43.472 151.827 42.936 151.763 42.136C151.571 39.336 150.947 37.584 149.891 36.88C149.667 36.736 149.443 36.664 149.219 36.664C148.803 36.664 148.427 36.896 148.091 37.36C147.771 37.808 147.515 38.448 147.323 39.28C147.243 39.648 147.147 40.312 147.035 41.272C146.923 42.232 146.867 42.88 146.867 43.216C146.867 43.376 146.731 43.592 146.459 43.864C146.187 44.12 145.875 44.248 145.523 44.248C144.867 44.248 144.435 43.904 144.227 43.216C144.131 42.88 144.083 41.424 144.083 38.848C144.083 35.776 144.139 34.104 144.251 33.832C144.347 33.624 144.531 33.448 144.803 33.304ZM163.716 36.208C163.428 36 162.972 35.896 162.348 35.896C161.964 35.896 161.66 35.944 161.436 36.04C161.228 36.136 160.988 36.336 160.716 36.64C160.46 36.928 160.332 37.136 160.332 37.264C160.332 37.376 160.452 37.432 160.692 37.432C161.012 37.416 161.676 37.344 162.684 37.216C163.692 37.088 164.212 37.008 164.244 36.976C164.26 36.96 164.268 36.936 164.268 36.904C164.268 36.728 164.084 36.496 163.716 36.208ZM161.124 33.28C161.412 33.2 161.764 33.16 162.18 33.16C163.028 33.16 163.756 33.28 164.364 33.52C164.86 33.696 165.348 34.04 165.828 34.552C166.324 35.048 166.732 35.608 167.052 36.232C167.372 36.872 167.532 37.304 167.532 37.528C167.532 38.04 167.308 38.52 166.86 38.968C166.38 39.4 164.884 39.72 162.372 39.928C161.412 40.008 160.788 40.072 160.5 40.12C160.212 40.168 160.068 40.24 160.068 40.336C160.068 40.416 160.212 40.584 160.5 40.84C160.996 41.32 161.884 41.608 163.164 41.704C163.292 41.72 163.46 41.728 163.668 41.728C164.004 41.728 164.404 41.648 164.868 41.488C165.524 41.248 166.044 41.128 166.428 41.128C167.004 41.128 167.38 41.416 167.556 41.992C167.604 42.136 167.628 42.272 167.628 42.4C167.628 42.944 167.284 43.392 166.596 43.744C165.924 44.08 164.972 44.272 163.74 44.32C163.676 44.32 163.588 44.328 163.476 44.344C163.364 44.344 163.284 44.344 163.236 44.344C161.876 44.344 160.7 44.08 159.708 43.552C158.732 43.008 157.996 42.24 157.5 41.248C157.26 40.768 157.14 40.128 157.14 39.328C157.14 38.528 157.22 37.896 157.38 37.432C157.78 36.232 158.276 35.312 158.868 34.672C159.46 34.016 160.212 33.552 161.124 33.28ZM173.938 27.64C174.21 27.368 174.538 27.232 174.922 27.232C175.21 27.232 175.466 27.32 175.69 27.496C175.93 27.656 176.098 27.888 176.194 28.192C176.242 28.368 176.322 29.2 176.434 30.688C176.546 32.16 176.602 33.184 176.602 33.76C176.602 33.904 176.634 33.992 176.698 34.024C176.778 34.056 176.962 34.072 177.25 34.072C177.682 34.072 177.93 34.024 177.994 33.928C178.026 33.848 178.354 33.808 178.978 33.808C179.778 33.808 180.306 33.864 180.562 33.976C180.802 34.088 180.986 34.304 181.114 34.624C181.226 34.848 181.282 35.032 181.282 35.176C181.282 35.288 181.258 35.424 181.21 35.584C181.098 35.952 180.89 36.2 180.586 36.328C180.298 36.44 179.722 36.52 178.858 36.568C177.882 36.616 177.25 36.68 176.962 36.76L176.578 36.856L176.674 40.24C176.706 41.744 176.722 42.552 176.722 42.664C176.722 43.368 176.666 43.84 176.554 44.08C176.314 44.592 175.922 44.848 175.378 44.848C175.17 44.848 174.954 44.8 174.73 44.704C174.554 44.624 174.426 44.552 174.346 44.488C174.266 44.408 174.194 44.208 174.13 43.888C174.066 43.552 174.026 43.16 174.01 42.712C173.994 42.264 173.978 41.528 173.962 40.504L173.914 37.024L173.194 37.048C172.762 37.08 172.378 37.144 172.042 37.24C171.962 37.272 171.834 37.288 171.658 37.288C171.114 37.288 170.722 37.12 170.482 36.784C170.354 36.576 170.29 36.296 170.29 35.944C170.29 35.64 170.338 35.4 170.434 35.224C170.658 34.824 171.442 34.52 172.786 34.312L173.89 34.144L173.794 32.032C173.73 30.528 173.674 29.504 173.626 28.96C173.594 28.576 173.578 28.368 173.578 28.336C173.578 28.112 173.698 27.88 173.938 27.64ZM202.094 26.824C202.382 26.792 202.598 26.776 202.742 26.776C203.894 26.776 204.758 27.064 205.334 27.64C205.686 28.008 205.862 28.4 205.862 28.816C205.862 29.168 205.734 29.472 205.478 29.728C205.238 29.968 204.934 30.088 204.566 30.088C204.23 30.088 203.902 29.976 203.582 29.752C203.294 29.544 203.03 29.44 202.79 29.44C202.406 29.44 202.046 29.712 201.71 30.256C201.374 30.8 201.166 31.44 201.086 32.176C201.054 32.432 201.038 32.584 201.038 32.632C201.038 32.84 201.142 32.976 201.35 33.04C201.558 33.088 202.046 33.12 202.814 33.136C202.942 33.136 203.046 33.136 203.126 33.136C203.862 33.168 204.302 33.2 204.446 33.232C204.606 33.264 204.766 33.368 204.926 33.544C205.134 33.768 205.238 34.056 205.238 34.408C205.238 34.776 205.126 35.08 204.902 35.32L204.566 35.728H200.774L200.702 36.064C200.686 36.112 200.678 36.376 200.678 36.856C200.678 39.064 200.742 41.024 200.87 42.736C200.87 42.8 200.87 42.888 200.87 43C200.886 43.112 200.894 43.192 200.894 43.24C200.894 43.656 200.838 43.96 200.726 44.152C200.614 44.344 200.414 44.512 200.126 44.656C199.934 44.752 199.726 44.8 199.502 44.8C199.054 44.8 198.71 44.632 198.47 44.296C198.342 44.104 198.222 43.4 198.11 42.184C198.014 40.952 197.966 39.744 197.966 38.56C197.966 38.016 197.974 37.624 197.99 37.384L198.062 35.704L196.502 35.776C195.766 35.808 195.382 35.824 195.35 35.824C195.046 35.824 194.79 35.744 194.582 35.584C194.278 35.312 194.126 34.952 194.126 34.504C194.126 34.312 194.158 34.144 194.222 34C194.334 33.712 194.566 33.504 194.918 33.376C195.27 33.248 195.854 33.16 196.67 33.112C197.678 33.048 198.19 33 198.206 32.968C198.238 32.936 198.326 32.48 198.47 31.6C198.726 29.952 199.302 28.696 200.198 27.832C200.534 27.496 200.814 27.264 201.038 27.136C201.278 27.008 201.63 26.904 202.094 26.824ZM215.305 36.112C215.001 36.032 214.505 35.96 213.817 35.896C213.369 35.864 213.129 35.848 213.097 35.848C212.873 35.848 212.649 35.968 212.425 36.208C211.785 36.864 211.441 37.752 211.393 38.872C211.393 38.936 211.385 39.024 211.369 39.136C211.369 39.232 211.369 39.304 211.369 39.352C211.369 39.72 211.465 40.064 211.657 40.384C212.169 41.296 213.073 41.752 214.369 41.752C214.913 41.736 215.465 41.552 216.025 41.2C216.601 40.832 217.017 40.392 217.273 39.88C217.417 39.576 217.489 39.248 217.489 38.896C217.489 38.304 217.281 37.744 216.865 37.216C216.465 36.672 215.945 36.304 215.305 36.112ZM211.657 33.424C212.025 33.216 212.393 33.112 212.761 33.112C212.841 33.112 213.137 33.128 213.649 33.16C215.169 33.24 216.393 33.56 217.321 34.12C218.249 34.68 218.993 35.544 219.553 36.712C219.985 37.608 220.201 38.464 220.201 39.28C220.201 39.536 220.177 39.76 220.129 39.952C219.873 40.944 219.313 41.848 218.449 42.664C217.585 43.48 216.633 44.024 215.593 44.296C215.049 44.424 214.617 44.488 214.297 44.488C213.977 44.488 213.545 44.424 213.001 44.296C211.353 43.864 210.169 43.08 209.449 41.944C208.889 41.064 208.609 40.136 208.609 39.16C208.609 38.184 208.873 37.144 209.401 36.04C210.009 34.744 210.761 33.872 211.657 33.424ZM223.196 33.76C223.436 33.52 223.732 33.4 224.084 33.4C224.484 33.4 224.804 33.528 225.044 33.784C225.268 34.008 225.38 34.176 225.38 34.288C225.38 34.4 225.428 34.456 225.524 34.456C225.62 34.456 225.796 34.368 226.052 34.192C226.676 33.76 227.396 33.544 228.212 33.544C228.836 33.544 229.58 33.68 230.444 33.952C230.988 34.112 231.348 34.248 231.524 34.36C231.7 34.456 231.844 34.592 231.956 34.768C232.132 35.04 232.22 35.288 232.22 35.512C232.22 35.688 232.156 35.904 232.028 36.16C231.804 36.592 231.436 36.808 230.924 36.808C230.588 36.808 230.188 36.728 229.724 36.568C229.228 36.392 228.78 36.304 228.38 36.304C227.98 36.304 227.668 36.392 227.444 36.568C227.204 36.76 226.924 37.192 226.604 37.864C226.3 38.52 226.092 39.144 225.98 39.736C225.852 40.472 225.788 41.264 225.788 42.112C225.788 43.056 225.692 43.704 225.5 44.056C225.308 44.392 224.956 44.56 224.444 44.56H224.252C223.884 44.528 223.604 44.416 223.412 44.224C223.22 44.016 223.084 43.672 223.004 43.192C222.94 42.888 222.884 41.832 222.836 40.024C222.788 38.2 222.764 36.688 222.764 35.488C222.764 34.864 222.772 34.52 222.788 34.456C222.836 34.248 222.972 34.016 223.196 33.76ZM252.632 36.424C252.168 35.96 251.448 35.728 250.472 35.728C249.992 35.728 249.568 35.808 249.2 35.968C248.848 36.128 248.464 36.44 248.048 36.904C247.632 37.368 247.36 37.792 247.232 38.176C247.088 38.592 247.016 38.984 247.016 39.352C247.016 40.2 247.352 40.8 248.024 41.152C248.424 41.36 248.944 41.464 249.584 41.464C250.016 41.464 250.344 41.408 250.568 41.296C251.864 40.64 252.656 39.464 252.944 37.768L253.088 36.856L252.632 36.424ZM248.984 33.16C249.368 33.048 249.816 32.992 250.328 32.992C251.192 32.992 252.04 33.144 252.872 33.448C253.704 33.752 254.28 34.136 254.6 34.6C254.824 34.92 255.112 35.256 255.464 35.608C255.848 36.008 256.2 36.696 256.52 37.672C256.824 38.6 257.104 39.632 257.36 40.768C257.632 41.904 257.768 42.672 257.768 43.072C257.768 43.472 257.648 43.784 257.408 44.008C257.104 44.296 256.816 44.44 256.544 44.44C256.432 44.44 256.288 44.416 256.112 44.368C255.808 44.256 255.568 44.064 255.392 43.792C255.232 43.52 255.088 43.08 254.96 42.472C254.8 41.752 254.712 41.392 254.696 41.392C254.632 41.392 254.296 41.696 253.688 42.304C252.488 43.472 251.24 44.104 249.944 44.2H249.608C248.824 44.2 248.056 44.064 247.304 43.792C246.568 43.52 245.984 43.16 245.552 42.712C245.328 42.488 245.104 42.152 244.88 41.704C244.656 41.24 244.504 40.816 244.424 40.432C244.344 40.032 244.304 39.672 244.304 39.352C244.304 38.024 244.752 36.752 245.648 35.536C246.56 34.32 247.672 33.528 248.984 33.16ZM270.405 32.656C270.693 32.576 271.141 32.536 271.749 32.536C273.029 32.536 273.957 32.632 274.533 32.824C275.333 33.08 275.733 33.52 275.733 34.144C275.733 34.512 275.557 34.848 275.205 35.152C274.965 35.376 274.733 35.488 274.509 35.488C274.493 35.488 274.461 35.488 274.413 35.488C274.365 35.472 274.325 35.464 274.293 35.464C273.237 35.288 272.405 35.2 271.797 35.2C271.605 35.2 271.429 35.216 271.269 35.248C270.773 35.376 270.525 35.608 270.525 35.944C270.525 36.008 270.533 36.056 270.549 36.088C270.661 36.408 271.293 36.808 272.445 37.288C274.509 38.152 275.781 39.224 276.261 40.504C276.405 40.888 276.477 41.248 276.477 41.584C276.477 42.176 276.261 42.68 275.829 43.096C275.413 43.512 274.821 43.792 274.053 43.936C273.733 44 273.205 44.032 272.469 44.032C271.125 44.032 270.269 43.952 269.901 43.792C269.693 43.696 269.517 43.536 269.373 43.312C269.229 43.072 269.157 42.84 269.157 42.616C269.157 42.376 269.237 42.136 269.397 41.896C269.557 41.64 269.749 41.464 269.973 41.368C270.181 41.288 270.429 41.248 270.717 41.248C270.829 41.248 271.077 41.264 271.461 41.296C271.717 41.328 272.061 41.344 272.493 41.344C273.165 41.344 273.501 41.264 273.501 41.104C273.501 40.816 272.805 40.384 271.413 39.808C270.165 39.264 269.245 38.696 268.653 38.104C268.077 37.496 267.789 36.808 267.789 36.04C267.789 35.912 267.805 35.72 267.837 35.464C267.965 34.68 268.285 34.056 268.797 33.592C269.213 33.176 269.749 32.864 270.405 32.656ZM285.637 35.2C285.205 35.12 284.845 35.08 284.557 35.08C283.901 35.08 283.349 35.216 282.901 35.488C282.677 35.632 282.413 36.12 282.109 36.952C281.821 37.768 281.677 38.424 281.677 38.92C281.677 39.72 281.933 40.368 282.445 40.864C282.973 41.344 283.661 41.592 284.509 41.608C285.197 41.608 285.837 41.416 286.429 41.032C287.037 40.648 287.477 40.144 287.749 39.52C287.925 39.12 288.013 38.664 288.013 38.152C288.013 37.528 287.893 36.984 287.653 36.52C287.477 36.152 287.237 35.872 286.933 35.68C286.629 35.488 286.197 35.328 285.637 35.2ZM282.925 32.632C283.485 32.488 284.037 32.416 284.581 32.416C285.605 32.416 286.701 32.672 287.869 33.184C288.701 33.552 289.357 34.2 289.837 35.128C290.333 36.056 290.589 37.152 290.605 38.416V38.56C290.605 40.464 289.757 42.008 288.061 43.192C287.005 43.944 285.829 44.32 284.533 44.32C283.461 44.32 282.469 44.056 281.557 43.528C280.645 42.984 279.957 42.224 279.493 41.248C279.333 40.912 279.229 40.624 279.181 40.384C279.149 40.144 279.133 39.64 279.133 38.872C279.149 37.736 279.269 36.84 279.493 36.184C280.021 34.728 280.645 33.744 281.365 33.232C281.653 33.024 282.173 32.824 282.925 32.632ZM293.65 27.568C293.906 27.312 294.21 27.184 294.562 27.184C294.898 27.184 295.194 27.312 295.45 27.568C295.706 27.824 295.866 28.24 295.93 28.816C295.946 28.976 295.954 29.936 295.954 31.696C295.954 39.92 295.898 44.2 295.786 44.536C295.722 44.728 295.578 44.88 295.354 44.992C295.13 45.104 294.882 45.16 294.61 45.16C294.29 45.16 294.034 45.096 293.842 44.968C293.554 44.776 293.37 44.496 293.29 44.128C293.226 43.744 293.194 42.72 293.194 41.056C293.194 39.12 293.202 37.4 293.218 35.896L293.29 27.928L293.65 27.568ZM298.899 33.16C299.155 32.888 299.467 32.752 299.835 32.752C300.523 32.752 300.963 33.024 301.155 33.568C301.251 33.888 301.299 34.824 301.299 36.376C301.299 37.944 301.347 38.968 301.443 39.448C301.683 40.552 302.171 41.104 302.907 41.104C303.051 41.104 303.203 41.08 303.363 41.032C303.587 40.968 303.875 40.752 304.227 40.384C304.595 40.016 304.859 39.68 305.019 39.376C305.307 38.784 305.563 37.608 305.787 35.848C305.947 34.648 306.195 33.92 306.531 33.664C306.755 33.488 307.003 33.4 307.275 33.4C307.579 33.4 307.859 33.512 308.115 33.736C308.387 33.944 308.571 34.216 308.667 34.552C308.747 34.904 308.883 36.16 309.075 38.32C309.283 40.464 309.387 41.832 309.387 42.424V42.616C309.323 42.92 309.171 43.16 308.931 43.336C308.691 43.512 308.427 43.6 308.139 43.6C307.867 43.6 307.603 43.52 307.347 43.36C307.107 43.2 306.939 42.968 306.843 42.664C306.715 42.296 306.643 42.112 306.627 42.112C306.563 42.112 306.291 42.296 305.811 42.664C304.851 43.432 303.907 43.816 302.979 43.816H302.907C302.139 43.816 301.451 43.632 300.843 43.264C300.235 42.896 299.755 42.376 299.403 41.704C299.067 41.032 298.851 40.424 298.755 39.88C298.659 39.32 298.603 38.24 298.587 36.64L298.515 33.592L298.899 33.16ZM315.759 28.144C316.015 27.984 316.255 27.904 316.479 27.904C316.655 27.904 316.855 27.952 317.079 28.048C317.415 28.208 317.631 28.456 317.727 28.792C317.823 29.128 317.887 29.928 317.919 31.192L317.991 33.568L319.095 33.496C319.223 33.48 319.407 33.472 319.647 33.472C320.223 33.472 320.631 33.576 320.871 33.784C321.127 33.992 321.255 34.328 321.255 34.792C321.255 35.288 321.087 35.64 320.751 35.848C320.431 36.056 319.807 36.2 318.879 36.28L317.871 36.376L317.703 39.712C317.591 41.968 317.487 43.216 317.391 43.456C317.183 43.936 316.783 44.176 316.191 44.176C315.855 44.176 315.591 44.088 315.399 43.912C315.191 43.752 315.047 43.576 314.967 43.384C314.887 43.192 314.847 42.88 314.847 42.448C314.847 42.096 314.871 41.568 314.919 40.864C314.999 39.6 315.055 38.52 315.087 37.624L315.111 36.496L314.031 36.472C313.423 36.456 313.007 36.408 312.783 36.328C312.559 36.232 312.367 36.04 312.207 35.752C312.111 35.56 312.063 35.36 312.063 35.152C312.063 34.768 312.223 34.432 312.543 34.144C312.719 33.984 312.943 33.88 313.215 33.832C313.487 33.768 313.991 33.704 314.727 33.64L315.111 33.592L315.207 31.048C315.223 30.664 315.231 30.248 315.231 29.8C315.247 29.336 315.255 28.992 315.255 28.768L315.279 28.432L315.351 28.384C315.399 28.352 315.463 28.312 315.543 28.264C315.623 28.216 315.695 28.176 315.759 28.144ZM325.194 33.184C325.258 33.168 325.354 33.16 325.482 33.16C325.786 33.16 326.066 33.24 326.322 33.4C326.578 33.544 326.754 33.744 326.85 34C326.914 34.144 326.978 35.24 327.042 37.288C327.122 39.32 327.162 40.92 327.162 42.088C327.162 42.584 327.154 42.872 327.138 42.952C327.058 43.56 326.794 43.968 326.346 44.176C326.122 44.272 325.946 44.32 325.818 44.32C325.722 44.32 325.578 44.296 325.386 44.248C325.018 44.136 324.786 43.984 324.69 43.792C324.498 43.424 324.386 42 324.354 39.52C324.354 39.072 324.346 38.296 324.33 37.192L324.306 33.904L324.594 33.568C324.786 33.344 324.986 33.216 325.194 33.184ZM324.618 28.672C324.81 28.576 324.994 28.528 325.17 28.528C325.522 28.528 325.834 28.672 326.106 28.96C326.378 29.232 326.514 29.552 326.514 29.92C326.514 30.176 326.45 30.4 326.322 30.592C326.05 31.024 325.682 31.24 325.218 31.24C324.914 31.24 324.634 31.136 324.378 30.928C324.122 30.72 323.962 30.432 323.898 30.064C323.898 30.048 323.89 30.024 323.874 29.992C323.874 29.944 323.874 29.912 323.874 29.896C323.874 29.656 323.946 29.424 324.09 29.2C324.234 28.96 324.41 28.784 324.618 28.672ZM336.262 35.2C335.83 35.12 335.47 35.08 335.182 35.08C334.526 35.08 333.974 35.216 333.526 35.488C333.302 35.632 333.038 36.12 332.734 36.952C332.446 37.768 332.302 38.424 332.302 38.92C332.302 39.72 332.558 40.368 333.07 40.864C333.598 41.344 334.286 41.592 335.134 41.608C335.822 41.608 336.462 41.416 337.054 41.032C337.662 40.648 338.102 40.144 338.374 39.52C338.55 39.12 338.638 38.664 338.638 38.152C338.638 37.528 338.518 36.984 338.278 36.52C338.102 36.152 337.862 35.872 337.558 35.68C337.254 35.488 336.822 35.328 336.262 35.2ZM333.55 32.632C334.11 32.488 334.662 32.416 335.206 32.416C336.23 32.416 337.326 32.672 338.494 33.184C339.326 33.552 339.982 34.2 340.462 35.128C340.958 36.056 341.214 37.152 341.23 38.416V38.56C341.23 40.464 340.382 42.008 338.686 43.192C337.63 43.944 336.454 44.32 335.158 44.32C334.086 44.32 333.094 44.056 332.182 43.528C331.27 42.984 330.582 42.224 330.118 41.248C329.958 40.912 329.854 40.624 329.806 40.384C329.774 40.144 329.758 39.64 329.758 38.872C329.774 37.736 329.894 36.84 330.118 36.184C330.646 34.728 331.27 33.744 331.99 33.232C332.278 33.024 332.798 32.824 333.55 32.632ZM344.179 32.584C344.435 32.312 344.763 32.176 345.163 32.176C345.435 32.176 345.675 32.248 345.883 32.392C346.059 32.52 346.211 32.728 346.339 33.016C346.483 33.304 346.555 33.568 346.555 33.808C346.555 34.064 346.619 34.192 346.747 34.192C346.891 34.192 347.123 34.088 347.443 33.88C347.763 33.688 348.187 33.512 348.715 33.352C349.243 33.192 349.667 33.112 349.987 33.112C350.307 33.112 350.699 33.216 351.163 33.424C351.643 33.632 352.019 33.864 352.291 34.12C352.867 34.68 353.275 35.464 353.515 36.472C353.771 37.48 353.899 38.88 353.899 40.672C353.899 41.936 353.859 42.768 353.779 43.168C353.699 43.552 353.515 43.824 353.227 43.984C353.035 44.08 352.803 44.128 352.531 44.128C352.243 44.128 352.003 44.08 351.811 43.984C351.539 43.84 351.363 43.576 351.283 43.192C351.219 42.792 351.171 41.832 351.139 40.312C351.107 38.792 351.043 37.792 350.947 37.312C350.851 36.816 350.651 36.416 350.347 36.112C350.187 35.952 349.987 35.872 349.747 35.872C349.347 35.872 348.915 36.072 348.451 36.472C348.003 36.856 347.635 37.352 347.347 37.96C347.203 38.264 347.115 38.552 347.083 38.824C347.051 39.096 347.019 39.72 346.987 40.696C346.955 42.04 346.891 42.84 346.795 43.096C346.571 43.688 346.139 43.984 345.499 43.984C344.971 43.984 344.571 43.752 344.299 43.288C344.219 43.112 344.139 41.616 344.059 38.8C343.963 35.776 343.899 34.104 343.867 33.784C343.835 33.464 343.819 33.288 343.819 33.256C343.819 33.048 343.939 32.824 344.179 32.584ZM356.715 42.568C356.843 42.296 356.987 42.112 357.147 42.016C357.307 41.92 357.587 41.872 357.987 41.872C358.259 41.872 358.443 41.896 358.539 41.944C358.651 41.992 358.779 42.104 358.923 42.28C359.163 42.568 359.283 42.872 359.283 43.192C359.283 43.544 359.131 43.872 358.827 44.176C358.523 44.48 358.211 44.632 357.891 44.632C357.571 44.632 357.259 44.496 356.955 44.224C356.667 43.936 356.523 43.64 356.523 43.336C356.523 43.096 356.587 42.84 356.715 42.568Z" fill="#27263C"/>
</svg>
