<svg width="204" height="100" viewBox="0 0 204 100" fill="none" xmlns="http://www.w3.org/2000/svg">
<path d="M7.352 9.952C6.776 9.728 5.864 9.616 4.616 9.616C4.12 9.616 3.776 9.632 3.584 9.664L3.08 9.712V14.152L3.968 14.248C4.096 14.264 4.296 14.272 4.568 14.272C5.352 14.272 6.136 14.152 6.92 13.912C7.704 13.656 8.344 13.328 8.84 12.928C9.176 12.656 9.344 12.392 9.344 12.136C9.344 11.928 9.28 11.704 9.152 11.464C8.832 10.792 8.232 10.288 7.352 9.952ZM7.256 3.592C7.032 3.416 6.504 3.32 5.672 3.304H5.096C4.264 3.304 3.608 3.352 3.128 3.448C3.016 3.48 2.944 3.528 2.912 3.592C2.88 3.656 2.864 3.808 2.864 4.048C2.864 4.384 2.872 4.696 2.888 4.984C2.952 5.976 3 6.488 3.032 6.52H3.08C3.288 6.52 3.848 6.4 4.76 6.16C5.688 5.904 6.304 5.704 6.608 5.56C7.328 5.24 7.688 4.832 7.688 4.336C7.688 4.064 7.544 3.816 7.256 3.592ZM0.56 1.672C0.864 1.272 1.408 1.008 2.192 0.879999C2.976 0.751999 4.008 0.671999 5.288 0.639999H5.84C6.624 0.639999 7.272 0.727999 7.784 0.904C8.568 1.16 9.208 1.608 9.704 2.248C10.2 2.872 10.448 3.56 10.448 4.312C10.448 4.344 10.44 4.4 10.424 4.48C10.424 4.56 10.424 4.616 10.424 4.648C10.344 5.448 9.976 6.208 9.32 6.928L8.744 7.552L9.44 7.96C10.192 8.392 10.816 9.024 11.312 9.856C11.824 10.672 12.08 11.464 12.08 12.232C12.08 12.424 12.072 12.568 12.056 12.664C11.944 13.448 11.448 14.216 10.568 14.968C9.688 15.704 8.64 16.256 7.424 16.624C6.848 16.784 6.056 16.864 5.048 16.864H4.472C3.48 16.864 2.848 16.848 2.576 16.816C2.304 16.784 1.984 16.68 1.616 16.504C1.104 16.264 0.792 16.048 0.68 15.856C0.536 15.648 0.424 13.64 0.344 9.832C0.28 7.544 0.248 5.72 0.248 4.36C0.248 2.84 0.352 1.944 0.56 1.672ZM15.1175 6.16C15.3735 5.888 15.6855 5.752 16.0535 5.752C16.7415 5.752 17.1815 6.024 17.3735 6.568C17.4695 6.888 17.5175 7.824 17.5175 9.376C17.5175 10.944 17.5655 11.968 17.6615 12.448C17.9015 13.552 18.3895 14.104 19.1255 14.104C19.2695 14.104 19.4215 14.08 19.5815 14.032C19.8055 13.968 20.0935 13.752 20.4455 13.384C20.8135 13.016 21.0775 12.68 21.2375 12.376C21.5255 11.784 21.7815 10.608 22.0055 8.848C22.1655 7.648 22.4135 6.92 22.7495 6.664C22.9735 6.488 23.2215 6.4 23.4935 6.4C23.7975 6.4 24.0775 6.512 24.3335 6.736C24.6055 6.944 24.7895 7.216 24.8855 7.552C24.9655 7.904 25.1015 9.16 25.2935 11.32C25.5015 13.464 25.6055 14.832 25.6055 15.424V15.616C25.5415 15.92 25.3895 16.16 25.1495 16.336C24.9095 16.512 24.6455 16.6 24.3575 16.6C24.0855 16.6 23.8215 16.52 23.5655 16.36C23.3255 16.2 23.1575 15.968 23.0615 15.664C22.9335 15.296 22.8615 15.112 22.8455 15.112C22.7815 15.112 22.5095 15.296 22.0295 15.664C21.0695 16.432 20.1255 16.816 19.1975 16.816H19.1255C18.3575 16.816 17.6695 16.632 17.0615 16.264C16.4535 15.896 15.9735 15.376 15.6215 14.704C15.2855 14.032 15.0695 13.424 14.9735 12.88C14.8775 12.32 14.8215 11.24 14.8055 9.64L14.7335 6.592L15.1175 6.16ZM31.9301 0.639999C32.2021 0.367999 32.5301 0.231998 32.9141 0.231998C33.2021 0.231998 33.4581 0.319999 33.6821 0.495999C33.9221 0.655999 34.0901 0.887999 34.1861 1.192C34.2341 1.368 34.3141 2.2 34.4261 3.688C34.5381 5.16 34.5941 6.184 34.5941 6.76C34.5941 6.904 34.6261 6.992 34.6901 7.024C34.7701 7.056 34.9541 7.072 35.2421 7.072C35.6741 7.072 35.9221 7.024 35.9861 6.928C36.0181 6.848 36.3461 6.808 36.9701 6.808C37.7701 6.808 38.2981 6.864 38.5541 6.976C38.7941 7.088 38.9781 7.304 39.1061 7.624C39.2181 7.848 39.2741 8.032 39.2741 8.176C39.2741 8.288 39.2501 8.424 39.2021 8.584C39.0901 8.952 38.8821 9.2 38.5781 9.328C38.2901 9.44 37.7141 9.52 36.8501 9.568C35.8741 9.616 35.2421 9.68 34.9541 9.76L34.5701 9.856L34.6661 13.24C34.6981 14.744 34.7141 15.552 34.7141 15.664C34.7141 16.368 34.6581 16.84 34.5461 17.08C34.3061 17.592 33.9141 17.848 33.3701 17.848C33.1621 17.848 32.9461 17.8 32.7221 17.704C32.5461 17.624 32.4181 17.552 32.3381 17.488C32.2581 17.408 32.1861 17.208 32.1221 16.888C32.0581 16.552 32.0181 16.16 32.0021 15.712C31.9861 15.264 31.9701 14.528 31.9541 13.504L31.9061 10.024L31.1861 10.048C30.7541 10.08 30.3701 10.144 30.0341 10.24C29.9541 10.272 29.8261 10.288 29.6501 10.288C29.1061 10.288 28.7141 10.12 28.4741 9.784C28.3461 9.576 28.2821 9.296 28.2821 8.944C28.2821 8.64 28.3301 8.4 28.4261 8.224C28.6501 7.824 29.4341 7.52 30.7781 7.312L31.8821 7.144L31.7861 5.032C31.7221 3.528 31.6661 2.504 31.6181 1.96C31.5861 1.576 31.5701 1.368 31.5701 1.336C31.5701 1.112 31.6901 0.879999 31.9301 0.639999ZM59.7418 9.424C59.2778 8.96 58.5578 8.728 57.5818 8.728C57.1018 8.728 56.6778 8.808 56.3098 8.968C55.9578 9.128 55.5738 9.44 55.1578 9.904C54.7418 10.368 54.4698 10.792 54.3418 11.176C54.1978 11.592 54.1258 11.984 54.1258 12.352C54.1258 13.2 54.4618 13.8 55.1338 14.152C55.5338 14.36 56.0538 14.464 56.6938 14.464C57.1258 14.464 57.4538 14.408 57.6778 14.296C58.9738 13.64 59.7658 12.464 60.0538 10.768L60.1978 9.856L59.7418 9.424ZM56.0938 6.16C56.4778 6.048 56.9258 5.992 57.4378 5.992C58.3018 5.992 59.1498 6.144 59.9818 6.448C60.8138 6.752 61.3898 7.136 61.7098 7.6C61.9338 7.92 62.2218 8.256 62.5738 8.608C62.9578 9.008 63.3098 9.696 63.6298 10.672C63.9338 11.6 64.2138 12.632 64.4698 13.768C64.7418 14.904 64.8778 15.672 64.8778 16.072C64.8778 16.472 64.7578 16.784 64.5178 17.008C64.2138 17.296 63.9258 17.44 63.6537 17.44C63.5418 17.44 63.3978 17.416 63.2218 17.368C62.9178 17.256 62.6778 17.064 62.5018 16.792C62.3418 16.52 62.1978 16.08 62.0698 15.472C61.9098 14.752 61.8218 14.392 61.8058 14.392C61.7418 14.392 61.4058 14.696 60.7978 15.304C59.5978 16.472 58.3498 17.104 57.0538 17.2H56.7178C55.9338 17.2 55.1658 17.064 54.4138 16.792C53.6778 16.52 53.0938 16.16 52.6618 15.712C52.4378 15.488 52.2138 15.152 51.9898 14.704C51.7658 14.24 51.6138 13.816 51.5338 13.432C51.4538 13.032 51.4138 12.672 51.4138 12.352C51.4138 11.024 51.8618 9.752 52.7578 8.536C53.6698 7.32 54.7818 6.528 56.0938 6.16ZM73.1782 0.447999C73.3382 0.399999 73.5382 0.375999 73.7782 0.375999C74.5462 0.375999 75.1542 0.503999 75.6022 0.759999C76.2102 1.128 76.5142 1.624 76.5142 2.248C76.5142 2.728 76.2982 3.08 75.8662 3.304C75.6582 3.416 75.4342 3.472 75.1942 3.472C74.9542 3.472 74.6742 3.4 74.3542 3.256C74.0982 3.144 73.9622 3.088 73.9462 3.088C73.8822 3.088 73.7782 3.16 73.6342 3.304C73.4582 3.48 73.3062 3.84 73.1782 4.384C73.0502 4.928 72.9862 5.528 72.9862 6.184V6.688C72.9862 6.912 73.0102 7.064 73.0582 7.144C73.1062 7.224 73.2182 7.264 73.3942 7.264C73.5542 7.264 73.9382 7.224 74.5462 7.144C74.6902 7.128 74.8822 7.12 75.1222 7.12C76.2262 7.12 76.7782 7.568 76.7782 8.464C76.7622 8.928 76.5942 9.264 76.2742 9.472C75.9702 9.664 75.4262 9.792 74.6422 9.856C73.8902 9.92 73.4742 9.976 73.3942 10.024C73.3782 10.024 73.3702 10.096 73.3702 10.24C73.3702 10.656 73.4502 11.48 73.6102 12.712C73.7702 13.944 73.9222 14.912 74.0662 15.616C74.1302 16 74.1622 16.264 74.1622 16.408C74.1622 16.952 74.0342 17.384 73.7782 17.704C73.5222 18.024 73.1702 18.184 72.7222 18.184C72.3542 18.184 72.0422 18.064 71.7862 17.824C71.6102 17.632 71.4902 17.424 71.4262 17.2C71.3782 16.96 71.3062 16.336 71.2102 15.328C71.0502 13.808 70.9062 12.608 70.7782 11.728L70.5622 10.216L69.3862 10.168C68.8422 10.136 68.4982 10.096 68.3542 10.048C68.2102 10 68.0662 9.896 67.9222 9.736C67.7142 9.48 67.6102 9.168 67.6102 8.8C67.6102 8.576 67.6582 8.368 67.7542 8.176C67.9782 7.792 68.5382 7.552 69.4342 7.456L70.2022 7.384L70.2742 5.92C70.3702 4.256 70.6502 2.992 71.1142 2.128C71.5782 1.248 72.2662 0.687999 73.1782 0.447999ZM83.189 1.144C83.445 0.984 83.685 0.904 83.909 0.904C84.085 0.904 84.285 0.952 84.509 1.048C84.845 1.208 85.061 1.456 85.157 1.792C85.253 2.128 85.317 2.928 85.349 4.192L85.421 6.568L86.525 6.496C86.653 6.48 86.837 6.472 87.077 6.472C87.653 6.472 88.061 6.576 88.301 6.784C88.557 6.992 88.685 7.328 88.685 7.792C88.685 8.288 88.517 8.64 88.181 8.848C87.861 9.056 87.237 9.2 86.309 9.28L85.301 9.376L85.133 12.712C85.021 14.968 84.917 16.216 84.821 16.456C84.613 16.936 84.213 17.176 83.621 17.176C83.285 17.176 83.021 17.088 82.829 16.912C82.621 16.752 82.477 16.576 82.397 16.384C82.317 16.192 82.277 15.88 82.277 15.448C82.277 15.096 82.301 14.568 82.349 13.864C82.429 12.6 82.485 11.52 82.517 10.624L82.541 9.496L81.461 9.472C80.853 9.456 80.437 9.408 80.213 9.328C79.989 9.232 79.797 9.04 79.637 8.752C79.541 8.56 79.493 8.36 79.493 8.152C79.493 7.768 79.653 7.432 79.973 7.144C80.149 6.984 80.373 6.88 80.645 6.832C80.917 6.768 81.421 6.704 82.157 6.64L82.541 6.592L82.637 4.048C82.653 3.664 82.661 3.248 82.661 2.8C82.677 2.336 82.685 1.992 82.685 1.768L82.709 1.432L82.781 1.384C82.829 1.352 82.893 1.312 82.973 1.264C83.053 1.216 83.125 1.176 83.189 1.144ZM98.7673 9.856C98.4793 9.712 98.0713 9.64 97.5433 9.64C96.9673 9.64 96.4793 9.728 96.0793 9.904C95.8073 10.016 95.4553 10.264 95.0233 10.648C94.5913 11.016 94.3753 11.256 94.3753 11.368C94.3753 11.416 94.6233 11.44 95.1193 11.44C95.8553 11.44 96.7353 11.4 97.7593 11.32C98.7833 11.24 99.3673 11.152 99.5113 11.056C99.5593 11.04 99.5833 10.992 99.5833 10.912C99.5833 10.768 99.4953 10.584 99.3193 10.36C99.1433 10.12 98.9593 9.952 98.7673 9.856ZM95.9353 7.072C96.3353 6.96 96.8073 6.904 97.3513 6.904C98.3593 6.904 99.2793 7.104 100.111 7.504C100.735 7.824 101.255 8.312 101.671 8.968C102.087 9.608 102.343 10.328 102.439 11.128C102.439 11.16 102.439 11.208 102.439 11.272C102.455 11.336 102.463 11.384 102.463 11.416C102.463 11.832 102.383 12.24 102.223 12.64C102.079 13.04 101.903 13.312 101.695 13.456C101.423 13.648 99.5113 13.888 95.9593 14.176C95.2073 14.24 94.8313 14.312 94.8313 14.392C94.8313 14.488 94.9993 14.64 95.3353 14.848C95.6713 15.056 95.9993 15.2 96.3193 15.28C96.6073 15.344 96.8393 15.376 97.0153 15.376C97.5273 15.376 98.1913 15.208 99.0073 14.872C99.5833 14.632 100.007 14.512 100.279 14.512C100.551 14.512 100.807 14.632 101.047 14.872C101.367 15.192 101.527 15.496 101.527 15.784C101.527 15.976 101.479 16.176 101.383 16.384C101.303 16.576 101.191 16.728 101.047 16.84C100.919 16.952 100.679 17.088 100.327 17.248C99.1593 17.76 98.0713 18.016 97.0633 18.016C96.4873 18.016 95.8953 17.928 95.2873 17.752C94.4713 17.496 93.7273 17.064 93.0553 16.456C92.3833 15.832 91.9033 15.144 91.6152 14.392C91.4393 13.896 91.3513 13.344 91.3513 12.736C91.3513 11.856 91.4953 11.12 91.7833 10.528C92.1193 9.792 92.6873 9.088 93.4873 8.416C94.2873 7.744 95.1033 7.296 95.9353 7.072ZM105.422 6.496C105.71 6.256 106.022 6.136 106.358 6.136C106.71 6.136 107.014 6.264 107.27 6.52C107.526 6.76 107.654 7.072 107.654 7.456C107.654 7.84 107.726 8.032 107.87 8.032C107.95 8.032 108.118 7.944 108.374 7.768C109.558 6.952 110.734 6.544 111.902 6.544C112.398 6.544 112.886 6.632 113.366 6.808C113.798 6.984 114.102 7.176 114.278 7.384C114.454 7.592 114.542 7.872 114.542 8.224C114.542 8.608 114.398 8.936 114.11 9.208C113.87 9.432 113.654 9.544 113.462 9.544C113.398 9.544 112.95 9.488 112.118 9.376C112.022 9.36 111.886 9.352 111.71 9.352C111.454 9.352 111.126 9.44 110.726 9.616C109.686 10.096 108.958 10.704 108.542 11.44C108.126 12.176 107.918 13.232 107.918 14.608C107.902 15.616 107.782 16.32 107.558 16.72C107.35 17.12 106.974 17.32 106.43 17.32C106.062 17.32 105.75 17.192 105.494 16.936L105.11 16.552L105.062 12.304C105.03 9.168 105.014 7.552 105.014 7.456C105.014 7.072 105.15 6.752 105.422 6.496ZM128.259 1.144C128.515 0.984 128.755 0.904 128.979 0.904C129.155 0.904 129.355 0.952 129.579 1.048C129.915 1.208 130.131 1.456 130.227 1.792C130.323 2.128 130.387 2.928 130.419 4.192L130.491 6.568L131.595 6.496C131.723 6.48 131.907 6.472 132.147 6.472C132.723 6.472 133.131 6.576 133.371 6.784C133.627 6.992 133.755 7.328 133.755 7.792C133.755 8.288 133.587 8.64 133.251 8.848C132.931 9.056 132.307 9.2 131.379 9.28L130.371 9.376L130.203 12.712C130.091 14.968 129.987 16.216 129.891 16.456C129.683 16.936 129.283 17.176 128.691 17.176C128.355 17.176 128.091 17.088 127.899 16.912C127.691 16.752 127.547 16.576 127.467 16.384C127.387 16.192 127.347 15.88 127.347 15.448C127.347 15.096 127.371 14.568 127.419 13.864C127.499 12.6 127.555 11.52 127.587 10.624L127.611 9.496L126.531 9.472C125.923 9.456 125.507 9.408 125.283 9.328C125.059 9.232 124.867 9.04 124.707 8.752C124.611 8.56 124.563 8.36 124.563 8.152C124.563 7.768 124.723 7.432 125.043 7.144C125.219 6.984 125.443 6.88 125.715 6.832C125.987 6.768 126.491 6.704 127.227 6.64L127.611 6.592L127.707 4.048C127.723 3.664 127.731 3.248 127.731 2.8C127.747 2.336 127.755 1.992 127.755 1.768L127.779 1.432L127.851 1.384C127.899 1.352 127.963 1.312 128.043 1.264C128.123 1.216 128.195 1.176 128.259 1.144ZM136.806 6.112C137.046 5.872 137.35 5.752 137.718 5.752C138.214 5.752 138.558 5.92 138.75 6.256C138.958 6.576 139.286 7.48 139.734 8.968C139.862 9.384 140.022 9.92 140.214 10.576C140.758 12.304 141.07 13.184 141.15 13.216C141.246 13.216 141.462 12.736 141.798 11.776C142.342 10.144 142.79 9 143.142 8.344C143.51 7.688 143.942 7.256 144.438 7.048C144.678 6.936 144.918 6.88 145.158 6.88C145.51 6.88 145.83 7.048 146.118 7.384C146.422 7.704 146.758 8.248 147.126 9.016C148.534 12.008 149.278 13.504 149.358 13.504C149.39 13.504 149.574 13 149.91 11.992C150.262 10.968 150.63 9.912 151.014 8.824C151.414 7.736 151.678 7.12 151.806 6.976C152.062 6.688 152.366 6.544 152.718 6.544C153.102 6.544 153.454 6.712 153.774 7.048C153.95 7.224 154.038 7.456 154.038 7.744C154.038 8.208 153.67 9.52 152.934 11.68C152.166 13.936 151.574 15.416 151.158 16.12C150.742 16.808 150.222 17.152 149.598 17.152C149.406 17.152 149.262 17.144 149.166 17.128C148.654 17.048 148.214 16.784 147.846 16.336C147.478 15.888 146.942 14.928 146.238 13.456C145.454 11.824 145.038 11.008 144.99 11.008C144.942 11.008 144.798 11.344 144.558 12.016C143.79 14.224 143.246 15.656 142.926 16.312C142.606 16.968 142.27 17.376 141.918 17.536C141.646 17.648 141.326 17.704 140.958 17.704C140.638 17.704 140.39 17.664 140.214 17.584C139.894 17.424 139.51 16.784 139.062 15.664C138.614 14.544 137.982 12.624 137.166 9.904C136.702 8.368 136.47 7.384 136.47 6.952C136.47 6.616 136.582 6.336 136.806 6.112ZM163.176 8.2C162.744 8.12 162.384 8.08 162.096 8.08C161.44 8.08 160.888 8.216 160.44 8.488C160.216 8.632 159.952 9.12 159.648 9.952C159.36 10.768 159.216 11.424 159.216 11.92C159.216 12.72 159.472 13.368 159.984 13.864C160.512 14.344 161.2 14.592 162.048 14.608C162.736 14.608 163.376 14.416 163.968 14.032C164.576 13.648 165.016 13.144 165.288 12.52C165.464 12.12 165.552 11.664 165.552 11.152C165.552 10.528 165.432 9.984 165.192 9.52C165.016 9.152 164.776 8.872 164.472 8.68C164.168 8.488 163.736 8.328 163.176 8.2ZM160.464 5.632C161.024 5.488 161.576 5.416 162.12 5.416C163.144 5.416 164.24 5.672 165.408 6.184C166.24 6.552 166.896 7.2 167.376 8.128C167.872 9.056 168.128 10.152 168.144 11.416V11.56C168.144 13.464 167.296 15.008 165.6 16.192C164.544 16.944 163.368 17.32 162.072 17.32C161 17.32 160.008 17.056 159.096 16.528C158.184 15.984 157.496 15.224 157.032 14.248C156.872 13.912 156.768 13.624 156.72 13.384C156.688 13.144 156.672 12.64 156.672 11.872C156.688 10.736 156.808 9.84 157.032 9.184C157.56 7.728 158.184 6.744 158.904 6.232C159.192 6.024 159.712 5.824 160.464 5.632ZM6.488 36.712C5.848 36.408 5.4 36.256 5.144 36.256C4.84 36.256 4.456 36.464 3.992 36.88C3.368 37.456 3.056 38.168 3.056 39.016C3.056 39.704 3.28 40.224 3.728 40.576C3.936 40.736 4.152 40.816 4.376 40.816C4.648 40.816 4.992 40.704 5.408 40.48C6.752 39.776 7.424 38.864 7.424 37.744V37.144L6.488 36.712ZM7.712 28.192C7.984 27.968 8.304 27.856 8.672 27.856C8.912 27.856 9.112 27.904 9.272 28C9.464 28.112 9.624 28.296 9.752 28.552C9.848 28.744 9.912 29.28 9.944 30.16C9.992 31.04 10.024 33.056 10.04 36.208L10.088 43.432L9.68 43.84C9.408 44.112 9.096 44.248 8.744 44.248C8.408 44.248 8.104 44.128 7.832 43.888C7.56 43.648 7.424 43.376 7.424 43.072C7.424 42.816 7.408 42.672 7.376 42.64H7.352C7.24 42.64 6.976 42.744 6.56 42.952C5.776 43.32 5.04 43.504 4.352 43.504C3.28 43.504 2.344 43.072 1.544 42.208C0.728 41.312 0.32 40.256 0.32 39.04C0.32 37.44 0.944 36.064 2.192 34.912C3.136 34.048 4.16 33.616 5.264 33.616C5.744 33.616 6.184 33.68 6.584 33.808C7.016 33.952 7.248 34.024 7.28 34.024C7.296 34.024 7.304 33.112 7.304 31.288V28.552L7.712 28.192ZM19.5836 36.76C19.5036 36.504 19.4316 36.36 19.3676 36.328C19.3036 36.28 19.1276 36.256 18.8396 36.256C18.0076 36.272 17.2316 36.664 16.5116 37.432C15.7916 38.184 15.4316 38.944 15.4316 39.712C15.4316 40.096 15.5356 40.416 15.7436 40.672C16.2076 41.184 16.6956 41.44 17.2076 41.44C17.2396 41.44 17.2716 41.44 17.3036 41.44C17.3356 41.424 17.3676 41.416 17.3996 41.416C17.6876 41.352 17.9916 41.16 18.3116 40.84C18.6476 40.52 18.9036 40.168 19.0796 39.784C19.4476 38.92 19.6316 38.08 19.6316 37.264C19.6316 37.024 19.6156 36.856 19.5836 36.76ZM17.3516 33.736C17.7836 33.592 18.2796 33.52 18.8396 33.52C19.5756 33.52 20.1996 33.64 20.7116 33.88C21.0476 34.056 21.3516 34.32 21.6236 34.672C21.9116 35.008 22.0876 35.328 22.1516 35.632C22.2156 35.936 22.3036 36.224 22.4156 36.496C22.5916 36.96 22.9436 38.704 23.4716 41.728C23.5516 42.208 23.5916 42.568 23.5916 42.808C23.5916 43.768 23.1436 44.248 22.2476 44.248C21.9436 44.248 21.6636 44.128 21.4076 43.888C21.1676 43.648 21.0156 43.352 20.9516 43C20.8876 42.68 20.8316 42.496 20.7836 42.448C20.7196 42.4 20.5356 42.528 20.2316 42.832C19.3196 43.744 18.2716 44.2 17.0876 44.2C16.8796 44.2 16.6636 44.176 16.4396 44.128C15.5596 43.936 14.7356 43.456 13.9676 42.688C13.1036 41.824 12.6716 40.856 12.6716 39.784C12.6716 38.936 12.9356 38.016 13.4636 37.024C13.8636 36.272 14.4076 35.6 15.0956 35.008C15.7996 34.416 16.5516 33.992 17.3516 33.736ZM35.2179 32.704C35.3779 32.656 35.4979 32.632 35.5779 32.632C35.6419 32.632 35.8259 32.696 36.1299 32.824C36.4499 32.952 36.6739 33.168 36.8019 33.472C36.8659 33.6 36.8979 33.744 36.8979 33.904C36.8979 34.144 36.7059 34.872 36.3219 36.088C35.6179 38.344 34.7299 40.608 33.6579 42.88C33.1619 43.968 32.4019 45.376 31.3779 47.104C30.3539 48.848 29.7299 49.784 29.5059 49.912C29.2499 50.072 28.9859 50.152 28.7139 50.152C28.3459 50.152 28.0259 50.024 27.7539 49.768C27.4979 49.528 27.3699 49.208 27.3699 48.808C27.3699 48.52 27.6259 47.976 28.1379 47.176C28.5379 46.552 29.0579 45.672 29.6979 44.536C30.3379 43.384 30.6579 42.768 30.6579 42.688C30.6579 42.64 30.4819 42.32 30.1299 41.728C29.9699 41.472 29.4019 40.432 28.4259 38.608C27.4659 36.768 26.8819 35.704 26.6739 35.416C26.4179 35.048 26.2899 34.68 26.2899 34.312C26.2899 33.784 26.5459 33.408 27.0579 33.184C27.2499 33.104 27.4179 33.064 27.5619 33.064C27.8979 33.064 28.2259 33.256 28.5459 33.64C28.8659 34.008 29.2739 34.648 29.7699 35.56C30.8419 37.544 31.5699 38.84 31.9539 39.448C32.0339 39.56 32.0819 39.616 32.0979 39.616C32.1619 39.616 32.3219 39.272 32.5779 38.584C32.9459 37.576 33.3139 36.504 33.6819 35.368C34.0019 34.344 34.2579 33.664 34.4499 33.328C34.6579 32.992 34.9139 32.784 35.2179 32.704ZM42.9384 32.872C43.2264 32.824 43.5224 32.8 43.8264 32.8C44.7864 32.8 45.6424 33.016 46.3944 33.448C47.1464 33.88 47.5224 34.376 47.5224 34.936C47.5224 35.08 47.4984 35.208 47.4504 35.32C47.2104 35.928 46.8504 36.232 46.3704 36.232C46.0184 36.232 45.6184 36.12 45.1704 35.896C44.6584 35.64 44.1864 35.512 43.7544 35.512C43.2904 35.512 42.9064 35.664 42.6024 35.968C42.4424 36.128 42.3624 36.256 42.3624 36.352C42.3624 36.48 42.4824 36.632 42.7224 36.808C42.9784 36.968 43.4424 37.224 44.1144 37.576C45.2184 38.152 45.9624 38.624 46.3464 38.992C46.7144 39.312 47.0344 39.712 47.3064 40.192C47.5784 40.656 47.7144 41.048 47.7144 41.368C47.7144 41.736 47.6184 42.104 47.4264 42.472C47.2344 42.84 46.9944 43.12 46.7064 43.312C45.9704 43.808 45.0744 44.056 44.0184 44.056C43.0264 44.056 42.0024 43.824 40.9464 43.36C40.4504 43.12 40.1384 42.848 40.0104 42.544C39.9144 42.32 39.8664 42.12 39.8664 41.944C39.8664 41.624 40.0184 41.312 40.3224 41.008C40.5304 40.768 40.8104 40.648 41.1624 40.648C41.4984 40.648 41.9064 40.752 42.3864 40.96C42.9144 41.184 43.5224 41.296 44.2104 41.296C44.5304 41.296 44.6904 41.256 44.6904 41.176C44.6904 40.984 44.0024 40.544 42.6264 39.856C41.5544 39.296 40.7704 38.744 40.2744 38.2C39.7784 37.64 39.5304 37.024 39.5304 36.352C39.5304 35.552 39.8584 34.816 40.5144 34.144C41.1864 33.456 41.9944 33.032 42.9384 32.872ZM52.1116 41.008C52.2236 40.896 52.4716 40.84 52.8556 40.84C53.1756 40.84 53.4556 40.936 53.6956 41.128C53.9356 41.32 54.0876 41.568 54.1516 41.872C54.1676 41.92 54.1756 42.008 54.1756 42.136C54.1756 42.584 54.0556 43.232 53.8156 44.08C53.5756 44.912 53.2876 45.696 52.9516 46.432C52.7116 46.96 52.2956 47.224 51.7036 47.224C51.0636 47.224 50.6316 46.912 50.4076 46.288C50.3756 46.208 50.3596 46.096 50.3596 45.952C50.3596 45.744 50.4876 45.312 50.7436 44.656C51.0956 43.68 51.3116 42.96 51.3916 42.496C51.4876 42.048 51.5836 41.728 51.6796 41.536C51.7756 41.344 51.9196 41.168 52.1116 41.008ZM65.4395 29.704C65.6955 29.464 65.9355 29.344 66.1595 29.344C66.2875 29.344 66.3995 29.352 66.4955 29.368C66.9275 29.416 67.2315 29.56 67.4075 29.8L67.7195 30.16L67.6715 36.448C67.6555 40.592 67.5835 42.824 67.4555 43.144C67.2475 43.624 66.8475 43.864 66.2555 43.864C66.0635 43.864 65.9195 43.848 65.8235 43.816C65.5835 43.736 65.4235 43.68 65.3435 43.648C65.2795 43.6 65.1995 43.456 65.1035 43.216C65.0235 42.96 64.9755 42.608 64.9595 42.16C64.9435 41.712 64.9355 41.024 64.9355 40.096C64.9355 39.84 64.9355 39.32 64.9355 38.536C64.9515 37.752 64.9595 37.096 64.9595 36.568L64.9835 30.088L65.4395 29.704ZM86.9099 35.968C86.8299 35.904 86.6379 35.872 86.3339 35.872C85.7739 35.872 85.3099 35.952 84.9419 36.112C83.6939 36.688 83.0699 37.632 83.0699 38.944C83.0699 39.52 83.2059 40.08 83.4779 40.624C83.8939 41.456 84.4699 41.872 85.2059 41.872C85.4299 41.872 85.6059 41.832 85.7339 41.752C85.8779 41.672 86.0939 41.48 86.3819 41.176C87.0539 40.488 87.4539 39.448 87.5819 38.056C87.5979 37.928 87.6059 37.768 87.6059 37.576C87.6059 37.272 87.5259 36.96 87.3659 36.64C87.1899 36.272 87.0379 36.048 86.9099 35.968ZM84.7739 33.304C85.1259 33.192 85.5339 33.136 85.9979 33.136C86.5899 33.136 87.1659 33.232 87.7259 33.424C88.2859 33.6 88.7099 33.84 88.9979 34.144C89.2059 34.352 89.4699 34.776 89.7899 35.416C90.0139 35.848 90.1499 36.2 90.1979 36.472C90.2619 36.728 90.3179 37.264 90.3659 38.08C90.3979 38.432 90.4459 39.032 90.5099 39.88C90.5899 40.728 90.6539 41.512 90.7019 42.232C90.7499 42.952 90.7739 43.608 90.7739 44.2C90.7739 45.144 90.7019 45.952 90.5579 46.624C90.0939 48.72 89.1099 50.04 87.6059 50.584C87.1259 50.76 86.4779 50.848 85.6619 50.848C85.1179 50.832 84.7099 50.792 84.4379 50.728C84.1659 50.68 83.7579 50.552 83.2139 50.344C82.2859 49.992 81.6699 49.72 81.3659 49.528C81.0619 49.352 80.8539 49.136 80.7419 48.88C80.6779 48.704 80.6459 48.528 80.6459 48.352C80.6459 47.824 80.8859 47.44 81.3659 47.2L81.8939 46.96L83.3339 47.536C83.9899 47.792 84.4619 47.952 84.7499 48.016C85.0379 48.08 85.4059 48.112 85.8539 48.112C86.3339 48.112 86.6379 48.088 86.7659 48.04C86.8939 48.008 87.0459 47.888 87.2219 47.68C87.7339 47.072 88.0379 46.048 88.1339 44.608C88.1499 44.48 88.1579 44.312 88.1579 44.104C88.1579 43.752 88.0939 43.576 87.9659 43.576C87.8699 43.576 87.7099 43.664 87.4859 43.84C86.8459 44.32 86.0859 44.56 85.2059 44.56H84.9179C84.3739 44.56 83.8699 44.44 83.4059 44.2C82.7179 43.864 82.1179 43.368 81.6059 42.712C81.1099 42.056 80.7659 41.328 80.5739 40.528C80.4619 39.968 80.4059 39.4 80.4059 38.824C80.4059 37.496 80.7899 36.344 81.5579 35.368C82.3419 34.376 83.4139 33.688 84.7739 33.304ZM101.718 36.424C101.254 35.96 100.534 35.728 99.5583 35.728C99.0783 35.728 98.6543 35.808 98.2863 35.968C97.9343 36.128 97.5503 36.44 97.1343 36.904C96.7183 37.368 96.4463 37.792 96.3183 38.176C96.1743 38.592 96.1023 38.984 96.1023 39.352C96.1023 40.2 96.4383 40.8 97.1103 41.152C97.5103 41.36 98.0303 41.464 98.6703 41.464C99.1023 41.464 99.4303 41.408 99.6543 41.296C100.95 40.64 101.742 39.464 102.03 37.768L102.174 36.856L101.718 36.424ZM98.0703 33.16C98.4543 33.048 98.9023 32.992 99.4143 32.992C100.278 32.992 101.126 33.144 101.958 33.448C102.79 33.752 103.366 34.136 103.686 34.6C103.91 34.92 104.198 35.256 104.55 35.608C104.934 36.008 105.286 36.696 105.606 37.672C105.91 38.6 106.19 39.632 106.446 40.768C106.718 41.904 106.854 42.672 106.854 43.072C106.854 43.472 106.734 43.784 106.494 44.008C106.19 44.296 105.902 44.44 105.63 44.44C105.518 44.44 105.374 44.416 105.198 44.368C104.894 44.256 104.654 44.064 104.478 43.792C104.318 43.52 104.174 43.08 104.046 42.472C103.886 41.752 103.798 41.392 103.782 41.392C103.718 41.392 103.382 41.696 102.774 42.304C101.574 43.472 100.326 44.104 99.0303 44.2H98.6943C97.9103 44.2 97.1423 44.064 96.3903 43.792C95.6543 43.52 95.0703 43.16 94.6383 42.712C94.4143 42.488 94.1903 42.152 93.9663 41.704C93.7423 41.24 93.5903 40.816 93.5103 40.432C93.4303 40.032 93.3903 39.672 93.3903 39.352C93.3903 38.024 93.8383 36.752 94.7343 35.536C95.6463 34.32 96.7583 33.528 98.0703 33.16ZM109.587 34.264C109.587 33.928 109.715 33.64 109.971 33.4C110.243 33.144 110.547 33.016 110.883 33.016C111.267 33.016 111.587 33.16 111.843 33.448C112.099 33.72 112.379 34.232 112.683 34.984C112.987 35.768 113.451 36.824 114.075 38.152C114.715 39.464 115.067 40.12 115.131 40.12C115.179 40.12 115.451 39.664 115.947 38.752C116.251 38.176 116.731 37.328 117.387 36.208C118.059 35.088 118.451 34.424 118.563 34.216C118.787 33.816 118.987 33.56 119.163 33.448C119.339 33.336 119.611 33.28 119.979 33.28C120.331 33.28 120.635 33.408 120.891 33.664C121.163 33.92 121.299 34.224 121.299 34.576C121.299 34.656 121.283 34.76 121.251 34.888C121.187 35.096 120.867 35.68 120.291 36.64C118.323 39.856 117.139 42.12 116.739 43.432C116.483 44.264 115.971 44.68 115.203 44.68C114.995 44.68 114.771 44.632 114.531 44.536C114.307 44.44 114.099 44.24 113.907 43.936C113.731 43.616 113.275 42.704 112.539 41.2C110.571 37.168 109.587 34.856 109.587 34.264ZM131.345 36.856C131.057 36.712 130.649 36.64 130.121 36.64C129.545 36.64 129.057 36.728 128.657 36.904C128.385 37.016 128.033 37.264 127.601 37.648C127.169 38.016 126.953 38.256 126.953 38.368C126.953 38.416 127.201 38.44 127.697 38.44C128.433 38.44 129.313 38.4 130.337 38.32C131.361 38.24 131.945 38.152 132.089 38.056C132.137 38.04 132.161 37.992 132.161 37.912C132.161 37.768 132.073 37.584 131.897 37.36C131.721 37.12 131.537 36.952 131.345 36.856ZM128.513 34.072C128.913 33.96 129.385 33.904 129.929 33.904C130.937 33.904 131.857 34.104 132.689 34.504C133.313 34.824 133.833 35.312 134.249 35.968C134.665 36.608 134.921 37.328 135.017 38.128C135.017 38.16 135.017 38.208 135.017 38.272C135.033 38.336 135.041 38.384 135.041 38.416C135.041 38.832 134.961 39.24 134.801 39.64C134.657 40.04 134.481 40.312 134.273 40.456C134.001 40.648 132.089 40.888 128.537 41.176C127.785 41.24 127.409 41.312 127.409 41.392C127.409 41.488 127.577 41.64 127.913 41.848C128.249 42.056 128.577 42.2 128.897 42.28C129.185 42.344 129.417 42.376 129.593 42.376C130.105 42.376 130.769 42.208 131.585 41.872C132.161 41.632 132.585 41.512 132.857 41.512C133.129 41.512 133.385 41.632 133.625 41.872C133.945 42.192 134.105 42.496 134.105 42.784C134.105 42.976 134.057 43.176 133.961 43.384C133.881 43.576 133.769 43.728 133.625 43.84C133.497 43.952 133.257 44.088 132.905 44.248C131.737 44.76 130.649 45.016 129.641 45.016C129.065 45.016 128.473 44.928 127.865 44.752C127.049 44.496 126.305 44.064 125.633 43.456C124.961 42.832 124.481 42.144 124.193 41.392C124.017 40.896 123.929 40.344 123.929 39.736C123.929 38.856 124.073 38.12 124.361 37.528C124.697 36.792 125.265 36.088 126.065 35.416C126.865 34.744 127.681 34.296 128.513 34.072ZM144.961 33.16C145.217 32.888 145.529 32.752 145.897 32.752C146.585 32.752 147.025 33.024 147.217 33.568C147.313 33.888 147.361 34.824 147.361 36.376C147.361 37.944 147.409 38.968 147.505 39.448C147.745 40.552 148.233 41.104 148.969 41.104C149.113 41.104 149.265 41.08 149.425 41.032C149.649 40.968 149.937 40.752 150.289 40.384C150.657 40.016 150.921 39.68 151.081 39.376C151.369 38.784 151.625 37.608 151.849 35.848C152.009 34.648 152.257 33.92 152.593 33.664C152.817 33.488 153.065 33.4 153.337 33.4C153.641 33.4 153.921 33.512 154.177 33.736C154.449 33.944 154.633 34.216 154.729 34.552C154.809 34.904 154.945 36.16 155.137 38.32C155.345 40.464 155.449 41.832 155.449 42.424V42.616C155.385 42.92 155.233 43.16 154.993 43.336C154.753 43.512 154.489 43.6 154.201 43.6C153.929 43.6 153.665 43.52 153.409 43.36C153.169 43.2 153.001 42.968 152.905 42.664C152.777 42.296 152.705 42.112 152.689 42.112C152.625 42.112 152.353 42.296 151.873 42.664C150.913 43.432 149.969 43.816 149.041 43.816H148.969C148.201 43.816 147.513 43.632 146.905 43.264C146.297 42.896 145.817 42.376 145.465 41.704C145.129 41.032 144.913 40.424 144.817 39.88C144.721 39.32 144.665 38.24 144.649 36.64L144.577 33.592L144.961 33.16ZM165.35 38.728C165.35 38.216 165.046 37.696 164.438 37.168C163.83 36.64 163.19 36.376 162.518 36.376C162.102 36.392 161.806 36.448 161.63 36.544C161.454 36.64 161.286 36.856 161.126 37.192C160.982 37.528 160.91 37.872 160.91 38.224C160.91 38.32 160.926 38.72 160.958 39.424L161.054 41.104L161.486 41.176C161.534 41.192 161.606 41.2 161.702 41.2C162.134 41.2 162.654 41.056 163.262 40.768C163.886 40.464 164.414 40.104 164.846 39.688C165.182 39.352 165.35 39.032 165.35 38.728ZM158.99 33.592C159.006 33.592 159.03 33.592 159.062 33.592C159.094 33.576 159.126 33.568 159.158 33.568C159.622 33.568 159.966 33.68 160.19 33.904C160.27 33.952 160.358 33.976 160.454 33.976C160.582 33.976 160.798 33.928 161.102 33.832C161.534 33.704 161.958 33.64 162.374 33.64C163.142 33.64 163.91 33.816 164.678 34.168C165.462 34.504 166.126 34.968 166.67 35.56C167.614 36.6 168.086 37.672 168.086 38.776C168.086 40.056 167.478 41.144 166.262 42.04C165.542 42.584 164.758 43.032 163.91 43.384C163.062 43.736 162.366 43.912 161.822 43.912C161.678 43.912 161.574 43.904 161.51 43.888L161.126 43.816C161.158 44.392 161.19 45.264 161.222 46.432C161.254 47.6 161.286 48.48 161.318 49.072L160.838 49.552C160.518 49.872 160.206 50.032 159.902 50.032C159.614 50.032 159.334 49.896 159.062 49.624C158.822 49.384 158.67 49.152 158.606 48.928C158.574 48.736 158.502 46.952 158.39 43.576C158.31 40.216 158.222 38.12 158.126 37.288C158.046 36.536 158.006 35.832 158.006 35.176C158.006 34.792 158.022 34.544 158.054 34.432C158.102 34.304 158.206 34.16 158.366 34C158.606 33.76 158.814 33.624 158.99 33.592ZM181.743 27.64C182.015 27.368 182.343 27.232 182.727 27.232C183.015 27.232 183.271 27.32 183.495 27.496C183.735 27.656 183.903 27.888 183.999 28.192C184.047 28.368 184.127 29.2 184.239 30.688C184.351 32.16 184.407 33.184 184.407 33.76C184.407 33.904 184.439 33.992 184.503 34.024C184.583 34.056 184.767 34.072 185.055 34.072C185.487 34.072 185.735 34.024 185.799 33.928C185.831 33.848 186.159 33.808 186.783 33.808C187.583 33.808 188.111 33.864 188.367 33.976C188.607 34.088 188.791 34.304 188.919 34.624C189.031 34.848 189.087 35.032 189.087 35.176C189.087 35.288 189.063 35.424 189.015 35.584C188.903 35.952 188.695 36.2 188.391 36.328C188.103 36.44 187.527 36.52 186.663 36.568C185.687 36.616 185.055 36.68 184.767 36.76L184.383 36.856L184.479 40.24C184.511 41.744 184.527 42.552 184.527 42.664C184.527 43.368 184.471 43.84 184.359 44.08C184.119 44.592 183.727 44.848 183.183 44.848C182.975 44.848 182.759 44.8 182.535 44.704C182.359 44.624 182.231 44.552 182.151 44.488C182.071 44.408 181.999 44.208 181.935 43.888C181.871 43.552 181.831 43.16 181.815 42.712C181.799 42.264 181.783 41.528 181.767 40.504L181.719 37.024L180.999 37.048C180.567 37.08 180.183 37.144 179.847 37.24C179.767 37.272 179.639 37.288 179.463 37.288C178.919 37.288 178.527 37.12 178.287 36.784C178.159 36.576 178.095 36.296 178.095 35.944C178.095 35.64 178.143 35.4 178.239 35.224C178.463 34.824 179.247 34.52 180.591 34.312L181.695 34.144L181.599 32.032C181.535 30.528 181.479 29.504 181.431 28.96C181.399 28.576 181.383 28.368 181.383 28.336C181.383 28.112 181.503 27.88 181.743 27.64ZM198.285 35.2C197.853 35.12 197.493 35.08 197.205 35.08C196.549 35.08 195.997 35.216 195.549 35.488C195.325 35.632 195.061 36.12 194.757 36.952C194.469 37.768 194.325 38.424 194.325 38.92C194.325 39.72 194.581 40.368 195.093 40.864C195.621 41.344 196.309 41.592 197.157 41.608C197.845 41.608 198.485 41.416 199.077 41.032C199.685 40.648 200.125 40.144 200.397 39.52C200.573 39.12 200.661 38.664 200.661 38.152C200.661 37.528 200.541 36.984 200.301 36.52C200.125 36.152 199.885 35.872 199.581 35.68C199.277 35.488 198.845 35.328 198.285 35.2ZM195.573 32.632C196.133 32.488 196.685 32.416 197.229 32.416C198.253 32.416 199.349 32.672 200.517 33.184C201.349 33.552 202.005 34.2 202.485 35.128C202.981 36.056 203.237 37.152 203.253 38.416V38.56C203.253 40.464 202.405 42.008 200.709 43.192C199.653 43.944 198.477 44.32 197.181 44.32C196.109 44.32 195.117 44.056 194.205 43.528C193.293 42.984 192.605 42.224 192.141 41.248C191.981 40.912 191.877 40.624 191.829 40.384C191.797 40.144 191.781 39.64 191.781 38.872C191.797 37.736 191.917 36.84 192.141 36.184C192.669 34.728 193.293 33.744 194.013 33.232C194.301 33.024 194.821 32.824 195.573 32.632ZM8.648 63.424C8.184 62.96 7.464 62.728 6.488 62.728C6.008 62.728 5.584 62.808 5.216 62.968C4.864 63.128 4.48 63.44 4.064 63.904C3.648 64.368 3.376 64.792 3.248 65.176C3.104 65.592 3.032 65.984 3.032 66.352C3.032 67.2 3.368 67.8 4.04 68.152C4.44 68.36 4.96 68.464 5.6 68.464C6.032 68.464 6.36 68.408 6.584 68.296C7.88 67.64 8.672 66.464 8.96 64.768L9.104 63.856L8.648 63.424ZM5 60.16C5.384 60.048 5.832 59.992 6.344 59.992C7.208 59.992 8.056 60.144 8.888 60.448C9.72 60.752 10.296 61.136 10.616 61.6C10.84 61.92 11.128 62.256 11.48 62.608C11.864 63.008 12.216 63.696 12.536 64.672C12.84 65.6 13.12 66.632 13.376 67.768C13.648 68.904 13.784 69.672 13.784 70.072C13.784 70.472 13.664 70.784 13.424 71.008C13.12 71.296 12.832 71.44 12.56 71.44C12.448 71.44 12.304 71.416 12.128 71.368C11.824 71.256 11.584 71.064 11.408 70.792C11.248 70.52 11.104 70.08 10.976 69.472C10.816 68.752 10.728 68.392 10.712 68.392C10.648 68.392 10.312 68.696 9.704 69.304C8.504 70.472 7.256 71.104 5.96 71.2H5.624C4.84 71.2 4.072 71.064 3.32 70.792C2.584 70.52 2 70.16 1.568 69.712C1.344 69.488 1.12 69.152 0.896 68.704C0.672 68.24 0.52 67.816 0.44 67.432C0.36 67.032 0.32 66.672 0.32 66.352C0.32 65.024 0.768 63.752 1.664 62.536C2.576 61.32 3.688 60.528 5 60.16ZM19.5164 60.544C19.7724 60.448 20.1724 60.4 20.7164 60.4C21.0044 60.4 21.2364 60.408 21.4124 60.424C22.0524 60.44 22.4924 60.48 22.7324 60.544C22.9724 60.592 23.2924 60.712 23.6924 60.904C24.8284 61.48 25.3964 62.176 25.3964 62.992C25.3964 63.168 25.3404 63.384 25.2284 63.64C24.9884 64.104 24.6204 64.336 24.1244 64.336C23.6764 64.336 23.2684 64.128 22.9004 63.712C22.7244 63.52 22.5644 63.392 22.4204 63.328C22.2764 63.248 22.0444 63.184 21.7244 63.136C21.4044 63.104 21.1884 63.088 21.0764 63.088C20.5164 63.088 20.1084 63.264 19.8524 63.616C19.4044 64.272 19.1804 64.984 19.1804 65.752C19.1804 66.584 19.4364 67.296 19.9484 67.888C20.4604 68.464 21.1324 68.752 21.9644 68.752C22.2844 68.752 22.7324 68.672 23.3084 68.512C23.8844 68.336 24.2684 68.176 24.4604 68.032C24.6204 67.904 24.9004 67.84 25.3004 67.84C25.6844 67.84 25.9964 67.96 26.2364 68.2C26.4924 68.44 26.6204 68.744 26.6204 69.112C26.6204 69.448 26.5404 69.72 26.3804 69.928C26.2204 70.136 25.9164 70.352 25.4684 70.576C24.3164 71.152 23.1644 71.44 22.0124 71.44C20.1084 71.44 18.6604 70.76 17.6684 69.4C16.8684 68.312 16.4684 67.12 16.4684 65.824C16.4684 65.024 16.6284 64.184 16.9484 63.304C17.1884 62.68 17.5404 62.112 18.0044 61.6C18.4844 61.088 18.9884 60.736 19.5164 60.544ZM33.0082 54.64C33.2802 54.368 33.6082 54.232 33.9922 54.232C34.2802 54.232 34.5362 54.32 34.7602 54.496C35.0002 54.656 35.1682 54.888 35.2642 55.192C35.3122 55.368 35.3922 56.2 35.5042 57.688C35.6162 59.16 35.6722 60.184 35.6722 60.76C35.6722 60.904 35.7042 60.992 35.7682 61.024C35.8482 61.056 36.0322 61.072 36.3202 61.072C36.7522 61.072 37.0002 61.024 37.0642 60.928C37.0962 60.848 37.4242 60.808 38.0482 60.808C38.8482 60.808 39.3762 60.864 39.6322 60.976C39.8722 61.088 40.0562 61.304 40.1842 61.624C40.2962 61.848 40.3522 62.032 40.3522 62.176C40.3522 62.288 40.3282 62.424 40.2802 62.584C40.1682 62.952 39.9602 63.2 39.6562 63.328C39.3682 63.44 38.7922 63.52 37.9282 63.568C36.9522 63.616 36.3202 63.68 36.0322 63.76L35.6482 63.856L35.7442 67.24C35.7762 68.744 35.7922 69.552 35.7922 69.664C35.7922 70.368 35.7362 70.84 35.6242 71.08C35.3842 71.592 34.9922 71.848 34.4482 71.848C34.2402 71.848 34.0242 71.8 33.8002 71.704C33.6242 71.624 33.4962 71.552 33.4162 71.488C33.3362 71.408 33.2642 71.208 33.2002 70.888C33.1362 70.552 33.0962 70.16 33.0802 69.712C33.0642 69.264 33.0482 68.528 33.0322 67.504L32.9842 64.024L32.2642 64.048C31.8322 64.08 31.4482 64.144 31.1122 64.24C31.0322 64.272 30.9042 64.288 30.7282 64.288C30.1842 64.288 29.7922 64.12 29.5522 63.784C29.4242 63.576 29.3602 63.296 29.3602 62.944C29.3602 62.64 29.4082 62.4 29.5042 62.224C29.7282 61.824 30.5122 61.52 31.8562 61.312L32.9602 61.144L32.8642 59.032C32.8002 57.528 32.7442 56.504 32.6962 55.96C32.6642 55.576 32.6482 55.368 32.6482 55.336C32.6482 55.112 32.7682 54.88 33.0082 54.64ZM43.4066 60.16C43.6626 59.888 43.9746 59.752 44.3426 59.752C45.0306 59.752 45.4706 60.024 45.6626 60.568C45.7586 60.888 45.8066 61.824 45.8066 63.376C45.8066 64.944 45.8546 65.968 45.9506 66.448C46.1906 67.552 46.6786 68.104 47.4146 68.104C47.5586 68.104 47.7106 68.08 47.8706 68.032C48.0946 67.968 48.3826 67.752 48.7346 67.384C49.1026 67.016 49.3666 66.68 49.5266 66.376C49.8146 65.784 50.0706 64.608 50.2946 62.848C50.4546 61.648 50.7026 60.92 51.0386 60.664C51.2626 60.488 51.5106 60.4 51.7826 60.4C52.0866 60.4 52.3666 60.512 52.6226 60.736C52.8946 60.944 53.0786 61.216 53.1746 61.552C53.2546 61.904 53.3906 63.16 53.5826 65.32C53.7906 67.464 53.8946 68.832 53.8946 69.424V69.616C53.8306 69.92 53.6786 70.16 53.4386 70.336C53.1986 70.512 52.9346 70.6 52.6466 70.6C52.3746 70.6 52.1106 70.52 51.8546 70.36C51.6146 70.2 51.4466 69.968 51.3506 69.664C51.2226 69.296 51.1506 69.112 51.1346 69.112C51.0706 69.112 50.7986 69.296 50.3186 69.664C49.3586 70.432 48.4146 70.816 47.4866 70.816H47.4146C46.6466 70.816 45.9586 70.632 45.3506 70.264C44.7426 69.896 44.2626 69.376 43.9106 68.704C43.5746 68.032 43.3586 67.424 43.2626 66.88C43.1666 66.32 43.1106 65.24 43.0946 63.64L43.0226 60.592L43.4066 60.16ZM63.4351 63.76C63.3551 63.504 63.2831 63.36 63.2191 63.328C63.1551 63.28 62.9791 63.256 62.6911 63.256C61.8591 63.272 61.0831 63.664 60.3631 64.432C59.6431 65.184 59.2831 65.944 59.2831 66.712C59.2831 67.096 59.3871 67.416 59.5951 67.672C60.0591 68.184 60.5471 68.44 61.0591 68.44C61.0911 68.44 61.1231 68.44 61.1551 68.44C61.1871 68.424 61.2191 68.416 61.2511 68.416C61.5391 68.352 61.8431 68.16 62.1631 67.84C62.4991 67.52 62.7551 67.168 62.9311 66.784C63.2991 65.92 63.4831 65.08 63.4831 64.264C63.4831 64.024 63.4671 63.856 63.4351 63.76ZM61.2031 60.736C61.6351 60.592 62.1311 60.52 62.6911 60.52C63.4271 60.52 64.0511 60.64 64.5631 60.88C64.8991 61.056 65.2031 61.32 65.4751 61.672C65.7631 62.008 65.9391 62.328 66.0031 62.632C66.0671 62.936 66.1551 63.224 66.2671 63.496C66.4431 63.96 66.7951 65.704 67.3231 68.728C67.4031 69.208 67.4431 69.568 67.4431 69.808C67.4431 70.768 66.9951 71.248 66.0991 71.248C65.7951 71.248 65.5151 71.128 65.2591 70.888C65.0191 70.648 64.8671 70.352 64.8031 70C64.7391 69.68 64.6831 69.496 64.6351 69.448C64.5711 69.4 64.3871 69.528 64.0831 69.832C63.1711 70.744 62.1231 71.2 60.9391 71.2C60.7311 71.2 60.5151 71.176 60.2911 71.128C59.4111 70.936 58.5871 70.456 57.8191 69.688C56.9551 68.824 56.5231 67.856 56.5231 66.784C56.5231 65.936 56.7871 65.016 57.3151 64.024C57.7151 63.272 58.2591 62.6 58.9471 62.008C59.6511 61.416 60.4031 60.992 61.2031 60.736ZM71.1734 55.648C71.3814 55.568 71.5654 55.528 71.7254 55.528C71.9654 55.528 72.2054 55.6 72.4454 55.744C72.6854 55.904 72.8454 56.08 72.9254 56.272C73.0214 56.464 73.0694 56.832 73.0694 57.376C73.0694 58 73.0374 58.792 72.9734 59.752C72.8614 61.72 72.7894 64.04 72.7574 66.712C72.7574 69.32 72.7014 70.728 72.5894 70.936C72.5094 71.096 72.3414 71.256 72.0854 71.416C71.8454 71.56 71.6374 71.632 71.4614 71.632C71.2694 71.632 71.0534 71.552 70.8134 71.392C70.5734 71.232 70.4054 71.056 70.3094 70.864C70.1174 70.48 70.0214 69.192 70.0214 67C70.0214 64.792 70.1174 61.88 70.3094 58.264C70.3574 57.32 70.4374 56.68 70.5494 56.344C70.6614 56.008 70.8694 55.776 71.1734 55.648ZM76.7516 55.648C76.9596 55.568 77.1436 55.528 77.3036 55.528C77.5436 55.528 77.7836 55.6 78.0236 55.744C78.2636 55.904 78.4236 56.08 78.5036 56.272C78.5996 56.464 78.6476 56.832 78.6476 57.376C78.6476 58 78.6156 58.792 78.5516 59.752C78.4396 61.72 78.3676 64.04 78.3356 66.712C78.3356 69.32 78.2796 70.728 78.1676 70.936C78.0876 71.096 77.9196 71.256 77.6636 71.416C77.4236 71.56 77.2156 71.632 77.0396 71.632C76.8476 71.632 76.6316 71.552 76.3916 71.392C76.1516 71.232 75.9836 71.056 75.8876 70.864C75.6956 70.48 75.5996 69.192 75.5996 67C75.5996 64.792 75.6956 61.88 75.8876 58.264C75.9356 57.32 76.0156 56.68 76.1276 56.344C76.2396 56.008 76.4476 55.776 76.7516 55.648ZM90.2257 59.704C90.3857 59.656 90.5057 59.632 90.5857 59.632C90.6497 59.632 90.8337 59.696 91.1377 59.824C91.4577 59.952 91.6817 60.168 91.8097 60.472C91.8737 60.6 91.9057 60.744 91.9057 60.904C91.9057 61.144 91.7137 61.872 91.3297 63.088C90.6257 65.344 89.7377 67.608 88.6657 69.88C88.1697 70.968 87.4097 72.376 86.3857 74.104C85.3617 75.848 84.7377 76.784 84.5137 76.912C84.2577 77.072 83.9937 77.152 83.7217 77.152C83.3537 77.152 83.0337 77.024 82.7617 76.768C82.5057 76.528 82.3777 76.208 82.3777 75.808C82.3777 75.52 82.6337 74.976 83.1457 74.176C83.5457 73.552 84.0657 72.672 84.7057 71.536C85.3457 70.384 85.6657 69.768 85.6657 69.688C85.6657 69.64 85.4897 69.32 85.1377 68.728C84.9777 68.472 84.4097 67.432 83.4337 65.608C82.4737 63.768 81.8897 62.704 81.6817 62.416C81.4257 62.048 81.2977 61.68 81.2977 61.312C81.2977 60.784 81.5537 60.408 82.0657 60.184C82.2577 60.104 82.4257 60.064 82.5697 60.064C82.9057 60.064 83.2337 60.256 83.5537 60.64C83.8737 61.008 84.2817 61.648 84.7777 62.56C85.8497 64.544 86.5777 65.84 86.9617 66.448C87.0417 66.56 87.0897 66.616 87.1057 66.616C87.1697 66.616 87.3297 66.272 87.5857 65.584C87.9537 64.576 88.3217 63.504 88.6897 62.368C89.0097 61.344 89.2657 60.664 89.4577 60.328C89.6657 59.992 89.9217 59.784 90.2257 59.704ZM110.28 54.448C110.44 54.4 110.64 54.376 110.88 54.376C111.648 54.376 112.256 54.504 112.704 54.76C113.312 55.128 113.616 55.624 113.616 56.248C113.616 56.728 113.4 57.08 112.968 57.304C112.76 57.416 112.536 57.472 112.296 57.472C112.056 57.472 111.776 57.4 111.456 57.256C111.2 57.144 111.064 57.088 111.048 57.088C110.984 57.088 110.88 57.16 110.736 57.304C110.56 57.48 110.408 57.84 110.28 58.384C110.152 58.928 110.088 59.528 110.088 60.184V60.688C110.088 60.912 110.112 61.064 110.16 61.144C110.208 61.224 110.32 61.264 110.496 61.264C110.656 61.264 111.04 61.224 111.648 61.144C111.792 61.128 111.984 61.12 112.224 61.12C113.328 61.12 113.88 61.568 113.88 62.464C113.864 62.928 113.696 63.264 113.376 63.472C113.072 63.664 112.528 63.792 111.744 63.856C110.992 63.92 110.576 63.976 110.496 64.024C110.48 64.024 110.472 64.096 110.472 64.24C110.472 64.656 110.552 65.48 110.712 66.712C110.872 67.944 111.024 68.912 111.168 69.616C111.232 70 111.264 70.264 111.264 70.408C111.264 70.952 111.136 71.384 110.88 71.704C110.624 72.024 110.272 72.184 109.824 72.184C109.456 72.184 109.144 72.064 108.888 71.824C108.712 71.632 108.592 71.424 108.528 71.2C108.48 70.96 108.408 70.336 108.312 69.328C108.152 67.808 108.008 66.608 107.88 65.728L107.664 64.216L106.488 64.168C105.944 64.136 105.6 64.096 105.456 64.048C105.312 64 105.168 63.896 105.024 63.736C104.816 63.48 104.712 63.168 104.712 62.8C104.712 62.576 104.76 62.368 104.856 62.176C105.08 61.792 105.64 61.552 106.536 61.456L107.304 61.384L107.376 59.92C107.472 58.256 107.752 56.992 108.216 56.128C108.68 55.248 109.368 54.688 110.28 54.448ZM117.819 60.184C117.883 60.168 117.979 60.16 118.107 60.16C118.411 60.16 118.691 60.24 118.947 60.4C119.203 60.544 119.379 60.744 119.475 61C119.539 61.144 119.603 62.24 119.667 64.288C119.747 66.32 119.787 67.92 119.787 69.088C119.787 69.584 119.779 69.872 119.763 69.952C119.683 70.56 119.419 70.968 118.971 71.176C118.747 71.272 118.571 71.32 118.443 71.32C118.347 71.32 118.203 71.296 118.011 71.248C117.643 71.136 117.411 70.984 117.315 70.792C117.123 70.424 117.011 69 116.979 66.52C116.979 66.072 116.971 65.296 116.955 64.192L116.931 60.904L117.219 60.568C117.411 60.344 117.611 60.216 117.819 60.184ZM117.243 55.672C117.435 55.576 117.619 55.528 117.795 55.528C118.147 55.528 118.459 55.672 118.731 55.96C119.003 56.232 119.139 56.552 119.139 56.92C119.139 57.176 119.075 57.4 118.947 57.592C118.675 58.024 118.307 58.24 117.843 58.24C117.539 58.24 117.259 58.136 117.003 57.928C116.747 57.72 116.587 57.432 116.523 57.064C116.523 57.048 116.515 57.024 116.499 56.992C116.499 56.944 116.499 56.912 116.499 56.896C116.499 56.656 116.571 56.424 116.715 56.2C116.859 55.96 117.035 55.784 117.243 55.672ZM123.007 60.304C123.199 60.208 123.399 60.16 123.607 60.16C123.895 60.16 124.167 60.256 124.423 60.448C124.679 60.624 124.855 60.864 124.951 61.168L125.095 61.672L125.695 61.312C126.095 61.072 126.647 60.952 127.351 60.952C128.039 60.952 128.607 61.064 129.055 61.288C129.423 61.464 129.815 61.752 130.231 62.152C130.663 62.552 131.007 62.952 131.263 63.352C132.127 64.712 132.599 66.824 132.679 69.688V70.168C132.679 70.552 132.567 70.864 132.343 71.104C132.071 71.376 131.751 71.512 131.383 71.512C130.791 71.512 130.399 71.256 130.207 70.744C130.111 70.472 130.031 69.936 129.967 69.136C129.775 66.336 129.151 64.584 128.095 63.88C127.871 63.736 127.647 63.664 127.423 63.664C127.007 63.664 126.631 63.896 126.295 64.36C125.975 64.808 125.719 65.448 125.527 66.28C125.447 66.648 125.351 67.312 125.239 68.272C125.127 69.232 125.071 69.88 125.071 70.216C125.071 70.376 124.935 70.592 124.663 70.864C124.391 71.12 124.079 71.248 123.727 71.248C123.071 71.248 122.639 70.904 122.431 70.216C122.335 69.88 122.287 68.424 122.287 65.848C122.287 62.776 122.343 61.104 122.455 60.832C122.551 60.624 122.735 60.448 123.007 60.304ZM136.615 60.184C136.679 60.168 136.775 60.16 136.903 60.16C137.207 60.16 137.487 60.24 137.743 60.4C137.999 60.544 138.175 60.744 138.271 61C138.335 61.144 138.399 62.24 138.463 64.288C138.543 66.32 138.583 67.92 138.583 69.088C138.583 69.584 138.575 69.872 138.559 69.952C138.479 70.56 138.215 70.968 137.767 71.176C137.543 71.272 137.367 71.32 137.239 71.32C137.143 71.32 136.999 71.296 136.807 71.248C136.439 71.136 136.207 70.984 136.111 70.792C135.919 70.424 135.807 69 135.775 66.52C135.775 66.072 135.767 65.296 135.751 64.192L135.727 60.904L136.015 60.568C136.207 60.344 136.407 60.216 136.615 60.184ZM136.039 55.672C136.231 55.576 136.415 55.528 136.591 55.528C136.943 55.528 137.255 55.672 137.527 55.96C137.799 56.232 137.935 56.552 137.935 56.92C137.935 57.176 137.871 57.4 137.743 57.592C137.471 58.024 137.103 58.24 136.639 58.24C136.335 58.24 136.055 58.136 135.799 57.928C135.543 57.72 135.383 57.432 135.319 57.064C135.319 57.048 135.311 57.024 135.295 56.992C135.295 56.944 135.295 56.912 135.295 56.896C135.295 56.656 135.367 56.424 135.511 56.2C135.655 55.96 135.831 55.784 136.039 55.672ZM144.563 59.872C144.851 59.824 145.147 59.8 145.451 59.8C146.411 59.8 147.267 60.016 148.019 60.448C148.771 60.88 149.147 61.376 149.147 61.936C149.147 62.08 149.123 62.208 149.075 62.32C148.835 62.928 148.475 63.232 147.995 63.232C147.643 63.232 147.243 63.12 146.795 62.896C146.283 62.64 145.811 62.512 145.379 62.512C144.915 62.512 144.531 62.664 144.227 62.968C144.067 63.128 143.987 63.256 143.987 63.352C143.987 63.48 144.107 63.632 144.347 63.808C144.603 63.968 145.067 64.224 145.739 64.576C146.843 65.152 147.587 65.624 147.971 65.992C148.339 66.312 148.659 66.712 148.931 67.192C149.203 67.656 149.339 68.048 149.339 68.368C149.339 68.736 149.243 69.104 149.051 69.472C148.859 69.84 148.619 70.12 148.331 70.312C147.595 70.808 146.699 71.056 145.643 71.056C144.651 71.056 143.627 70.824 142.571 70.36C142.075 70.12 141.763 69.848 141.635 69.544C141.539 69.32 141.491 69.12 141.491 68.944C141.491 68.624 141.643 68.312 141.947 68.008C142.155 67.768 142.435 67.648 142.787 67.648C143.123 67.648 143.531 67.752 144.011 67.96C144.539 68.184 145.147 68.296 145.835 68.296C146.155 68.296 146.315 68.256 146.315 68.176C146.315 67.984 145.627 67.544 144.251 66.856C143.179 66.296 142.395 65.744 141.899 65.2C141.403 64.64 141.155 64.024 141.155 63.352C141.155 62.552 141.483 61.816 142.139 61.144C142.811 60.456 143.619 60.032 144.563 59.872ZM152.369 54.736C152.609 54.544 152.865 54.448 153.137 54.448C153.457 54.448 153.753 54.576 154.025 54.832C154.297 55.072 154.465 55.384 154.529 55.768C154.577 56.12 154.617 57.088 154.649 58.672C154.649 60.192 154.681 60.984 154.745 61.048H154.769C154.833 61.048 155.049 60.92 155.417 60.664C156.457 59.848 157.537 59.44 158.657 59.44C159.121 59.44 159.569 59.528 160.001 59.704C160.977 60.104 161.665 61.12 162.065 62.752C162.161 63.136 162.257 64.064 162.353 65.536C162.449 67.008 162.497 68.152 162.497 68.968C162.497 69.304 162.489 69.504 162.473 69.568C162.409 69.92 162.249 70.2 161.993 70.408C161.737 70.616 161.457 70.72 161.153 70.72C160.785 70.72 160.473 70.584 160.217 70.312L159.833 69.904L159.761 67.264C159.713 65.776 159.625 64.608 159.497 63.76C159.417 63.264 159.289 62.856 159.113 62.536C158.953 62.216 158.785 62.056 158.609 62.056C158.401 62.056 158.073 62.192 157.625 62.464C157.177 62.72 156.849 62.96 156.641 63.184C156.097 63.808 155.721 64.488 155.513 65.224C155.305 65.944 155.193 66.944 155.177 68.224C155.177 69.344 155.137 70.064 155.057 70.384C154.993 70.736 154.841 71.016 154.601 71.224C154.361 71.416 154.089 71.512 153.785 71.512C153.433 71.512 153.121 71.376 152.849 71.104C152.593 70.848 152.433 70.6 152.369 70.36C152.305 70.136 152.233 68.312 152.153 64.888C152.057 61.352 151.985 58.984 151.937 57.784C151.905 56.984 151.889 56.512 151.889 56.368C151.889 55.536 152.049 54.992 152.369 54.736ZM173.779 59.008C174.003 58.976 174.131 58.952 174.163 58.936C174.243 58.936 174.427 58.992 174.715 59.104C174.939 59.2 175.139 59.392 175.315 59.68C175.491 59.968 175.579 60.248 175.579 60.52C175.579 60.728 175.619 60.888 175.699 61C175.763 61.08 175.819 61.112 175.867 61.096C175.915 61.08 176.027 61 176.203 60.856C176.923 60.248 177.803 59.872 178.843 59.728C179.163 59.696 179.387 59.68 179.515 59.68C180.331 59.68 181.027 59.976 181.603 60.568L182.155 61.12L182.851 60.568C183.987 59.656 185.091 59.2 186.163 59.2C186.531 59.2 186.859 59.256 187.147 59.368C187.467 59.496 187.811 59.744 188.179 60.112C188.563 60.464 188.851 60.84 189.043 61.24C189.619 62.408 189.995 64.584 190.171 67.768C190.203 68.568 190.219 69.008 190.219 69.088C190.219 69.504 190.163 69.816 190.051 70.024C189.811 70.488 189.443 70.72 188.947 70.72C188.595 70.72 188.283 70.592 188.011 70.336L187.579 69.976L187.459 67.744C187.283 64.416 186.883 62.488 186.259 61.96C186.163 61.896 186.083 61.864 186.019 61.864C185.891 61.864 185.659 61.952 185.323 62.128C184.491 62.528 183.899 63.208 183.547 64.168C183.355 64.664 183.227 65.696 183.163 67.264C183.083 68.848 183.003 69.728 182.923 69.904C182.667 70.352 182.259 70.576 181.699 70.576C181.395 70.576 181.123 70.48 180.883 70.288C180.531 70 180.355 69.296 180.355 68.176C180.355 67.664 180.363 67.24 180.379 66.904C180.379 66.792 180.379 66.64 180.379 66.448C180.395 66.24 180.403 66.088 180.403 65.992C180.403 64.424 180.227 63.336 179.875 62.728C179.731 62.472 179.587 62.344 179.443 62.344C179.427 62.344 179.323 62.36 179.131 62.392C178.107 62.584 177.243 63.408 176.539 64.864C176.251 65.472 176.107 66.112 176.107 66.784C176.107 67.36 176.155 68.064 176.251 68.896C176.299 69.232 176.323 69.512 176.323 69.736C176.323 70.344 176.059 70.776 175.531 71.032C175.307 71.144 175.131 71.2 175.003 71.2C174.907 71.2 174.755 71.16 174.547 71.08C174.147 70.936 173.883 70.664 173.755 70.264C173.627 69.848 173.523 68.96 173.443 67.6C173.331 65.28 173.139 62.888 172.867 60.424C172.867 60.392 172.859 60.344 172.843 60.28C172.843 60.216 172.843 60.176 172.843 60.16C172.843 59.936 172.939 59.704 173.131 59.464C173.371 59.192 173.587 59.04 173.779 59.008ZM201.812 59.704C201.972 59.656 202.092 59.632 202.172 59.632C202.236 59.632 202.42 59.696 202.724 59.824C203.044 59.952 203.268 60.168 203.396 60.472C203.46 60.6 203.492 60.744 203.492 60.904C203.492 61.144 203.3 61.872 202.916 63.088C202.212 65.344 201.324 67.608 200.252 69.88C199.756 70.968 198.996 72.376 197.972 74.104C196.948 75.848 196.324 76.784 196.1 76.912C195.844 77.072 195.58 77.152 195.308 77.152C194.94 77.152 194.62 77.024 194.348 76.768C194.092 76.528 193.964 76.208 193.964 75.808C193.964 75.52 194.22 74.976 194.732 74.176C195.132 73.552 195.652 72.672 196.292 71.536C196.932 70.384 197.252 69.768 197.252 69.688C197.252 69.64 197.076 69.32 196.724 68.728C196.564 68.472 195.996 67.432 195.02 65.608C194.06 63.768 193.476 62.704 193.268 62.416C193.012 62.048 192.884 61.68 192.884 61.312C192.884 60.784 193.14 60.408 193.652 60.184C193.844 60.104 194.012 60.064 194.156 60.064C194.492 60.064 194.82 60.256 195.14 60.64C195.46 61.008 195.868 61.648 196.364 62.56C197.436 64.544 198.164 65.84 198.548 66.448C198.628 66.56 198.676 66.616 198.692 66.616C198.756 66.616 198.916 66.272 199.172 65.584C199.54 64.576 199.908 63.504 200.276 62.368C200.596 61.344 200.852 60.664 201.044 60.328C201.252 59.992 201.508 59.784 201.812 59.704ZM4.016 81.64C4.288 81.368 4.616 81.232 5 81.232C5.288 81.232 5.544 81.32 5.768 81.496C6.008 81.656 6.176 81.888 6.272 82.192C6.32 82.368 6.4 83.2 6.512 84.688C6.624 86.16 6.68 87.184 6.68 87.76C6.68 87.904 6.712 87.992 6.776 88.024C6.856 88.056 7.04 88.072 7.328 88.072C7.76 88.072 8.008 88.024 8.072 87.928C8.104 87.848 8.432 87.808 9.056 87.808C9.856 87.808 10.384 87.864 10.64 87.976C10.88 88.088 11.064 88.304 11.192 88.624C11.304 88.848 11.36 89.032 11.36 89.176C11.36 89.288 11.336 89.424 11.288 89.584C11.176 89.952 10.968 90.2 10.664 90.328C10.376 90.44 9.8 90.52 8.936 90.568C7.96 90.616 7.328 90.68 7.04 90.76L6.656 90.856L6.752 94.24C6.784 95.744 6.8 96.552 6.8 96.664C6.8 97.368 6.744 97.84 6.632 98.08C6.392 98.592 6 98.848 5.456 98.848C5.248 98.848 5.032 98.8 4.808 98.704C4.632 98.624 4.504 98.552 4.424 98.488C4.344 98.408 4.272 98.208 4.208 97.888C4.144 97.552 4.104 97.16 4.088 96.712C4.072 96.264 4.056 95.528 4.04 94.504L3.992 91.024L3.272 91.048C2.84 91.08 2.456 91.144 2.12 91.24C2.04 91.272 1.912 91.288 1.736 91.288C1.192 91.288 0.8 91.12 0.56 90.784C0.432 90.576 0.368 90.296 0.368 89.944C0.368 89.64 0.416 89.4 0.512 89.224C0.736 88.824 1.52 88.52 2.864 88.312L3.968 88.144L3.872 86.032C3.808 84.528 3.752 83.504 3.704 82.96C3.672 82.576 3.656 82.368 3.656 82.336C3.656 82.112 3.776 81.88 4.016 81.64ZM14.5824 81.664C14.8544 81.44 15.1344 81.328 15.4224 81.328C15.9984 81.328 16.4224 81.68 16.6944 82.384C16.8064 82.704 16.9264 83.472 17.0544 84.688C17.1824 85.888 17.2864 87.008 17.3664 88.048C17.4464 89.072 17.4944 89.584 17.5104 89.584C17.5424 89.584 17.8064 89.408 18.3024 89.056C19.2784 88.368 20.2064 88.024 21.0864 88.024C21.9024 88.024 22.6144 88.328 23.2224 88.936C23.8464 89.528 24.3344 90.4 24.6864 91.552C24.9584 92.448 25.0944 93.84 25.0944 95.728C25.0944 96.912 25.0224 97.712 24.8784 98.128C24.7184 98.56 24.3504 98.776 23.7744 98.776C23.3904 98.776 23.0704 98.648 22.8144 98.392L22.4544 98.032L22.3824 95.608C22.2864 92.488 21.8544 90.88 21.0864 90.784H21.0144C20.6464 90.784 20.1904 90.992 19.6464 91.408C19.1024 91.808 18.7104 92.248 18.4704 92.728C18.3264 93.048 18.1344 93.28 17.8944 93.424L17.5824 93.64L17.5344 96.256C17.5024 97.536 17.4704 98.312 17.4384 98.584C17.4224 98.84 17.3344 99.048 17.1744 99.208C16.9184 99.48 16.5984 99.616 16.2144 99.616C15.6384 99.616 15.2384 99.36 15.0144 98.848C14.9024 98.544 14.8224 96.704 14.7744 93.328C14.6944 87.68 14.4864 84.296 14.1504 83.176C14.1024 83 14.0784 82.832 14.0784 82.672C14.0784 82.256 14.2464 81.92 14.5824 81.664ZM35.1344 90.856C34.8464 90.712 34.4384 90.64 33.9104 90.64C33.3344 90.64 32.8464 90.728 32.4464 90.904C32.1744 91.016 31.8224 91.264 31.3904 91.648C30.9584 92.016 30.7424 92.256 30.7424 92.368C30.7424 92.416 30.9904 92.44 31.4864 92.44C32.2224 92.44 33.1024 92.4 34.1264 92.32C35.1504 92.24 35.7344 92.152 35.8784 92.056C35.9264 92.04 35.9504 91.992 35.9504 91.912C35.9504 91.768 35.8624 91.584 35.6864 91.36C35.5104 91.12 35.3264 90.952 35.1344 90.856ZM32.3024 88.072C32.7024 87.96 33.1744 87.904 33.7184 87.904C34.7264 87.904 35.6464 88.104 36.4784 88.504C37.1024 88.824 37.6224 89.312 38.0384 89.968C38.4544 90.608 38.7104 91.328 38.8064 92.128C38.8064 92.16 38.8064 92.208 38.8064 92.272C38.8224 92.336 38.8304 92.384 38.8304 92.416C38.8304 92.832 38.7504 93.24 38.5904 93.64C38.4464 94.04 38.2704 94.312 38.0624 94.456C37.7904 94.648 35.8784 94.888 32.3264 95.176C31.5744 95.24 31.1984 95.312 31.1984 95.392C31.1984 95.488 31.3664 95.64 31.7024 95.848C32.0384 96.056 32.3664 96.2 32.6864 96.28C32.9744 96.344 33.2064 96.376 33.3824 96.376C33.8944 96.376 34.5584 96.208 35.3744 95.872C35.9504 95.632 36.3744 95.512 36.6464 95.512C36.9184 95.512 37.1744 95.632 37.4144 95.872C37.7344 96.192 37.8944 96.496 37.8944 96.784C37.8944 96.976 37.8464 97.176 37.7504 97.384C37.6704 97.576 37.5584 97.728 37.4144 97.84C37.2864 97.952 37.0464 98.088 36.6944 98.248C35.5264 98.76 34.4384 99.016 33.4304 99.016C32.8544 99.016 32.2624 98.928 31.6544 98.752C30.8384 98.496 30.0944 98.064 29.4224 97.456C28.7504 96.832 28.2704 96.144 27.9824 95.392C27.8064 94.896 27.7184 94.344 27.7184 93.736C27.7184 92.856 27.8624 92.12 28.1504 91.528C28.4864 90.792 29.0544 90.088 29.8544 89.416C30.6544 88.744 31.4704 88.296 32.3024 88.072ZM44.8368 86.872C45.1248 86.824 45.4208 86.8 45.7248 86.8C46.6848 86.8 47.5408 87.016 48.2928 87.448C49.0448 87.88 49.4208 88.376 49.4208 88.936C49.4208 89.08 49.3968 89.208 49.3488 89.32C49.1088 89.928 48.7488 90.232 48.2688 90.232C47.9168 90.232 47.5168 90.12 47.0688 89.896C46.5568 89.64 46.0848 89.512 45.6528 89.512C45.1888 89.512 44.8048 89.664 44.5008 89.968C44.3408 90.128 44.2608 90.256 44.2608 90.352C44.2608 90.48 44.3808 90.632 44.6208 90.808C44.8768 90.968 45.3408 91.224 46.0128 91.576C47.1168 92.152 47.8608 92.624 48.2448 92.992C48.6128 93.312 48.9328 93.712 49.2048 94.192C49.4768 94.656 49.6128 95.048 49.6128 95.368C49.6128 95.736 49.5168 96.104 49.3248 96.472C49.1328 96.84 48.8928 97.12 48.6048 97.312C47.8688 97.808 46.9728 98.056 45.9168 98.056C44.9248 98.056 43.9008 97.824 42.8448 97.36C42.3488 97.12 42.0368 96.848 41.9088 96.544C41.8128 96.32 41.7648 96.12 41.7648 95.944C41.7648 95.624 41.9168 95.312 42.2208 95.008C42.4288 94.768 42.7088 94.648 43.0608 94.648C43.3968 94.648 43.8048 94.752 44.2848 94.96C44.8128 95.184 45.4208 95.296 46.1088 95.296C46.4288 95.296 46.5888 95.256 46.5888 95.176C46.5888 94.984 45.9008 94.544 44.5248 93.856C43.4528 93.296 42.6688 92.744 42.1728 92.2C41.6768 91.64 41.4288 91.024 41.4288 90.352C41.4288 89.552 41.7568 88.816 42.4128 88.144C43.0848 87.456 43.8928 87.032 44.8368 86.872ZM53.5061 87.184C53.5701 87.168 53.6661 87.16 53.7941 87.16C54.0981 87.16 54.3781 87.24 54.6341 87.4C54.8901 87.544 55.0661 87.744 55.1621 88C55.2261 88.144 55.2901 89.24 55.3541 91.288C55.4341 93.32 55.4741 94.92 55.4741 96.088C55.4741 96.584 55.4661 96.872 55.4501 96.952C55.3701 97.56 55.1061 97.968 54.6581 98.176C54.4341 98.272 54.2581 98.32 54.1301 98.32C54.0341 98.32 53.8901 98.296 53.6981 98.248C53.3301 98.136 53.0981 97.984 53.0021 97.792C52.8101 97.424 52.6981 96 52.6661 93.52C52.6661 93.072 52.6581 92.296 52.6421 91.192L52.6181 87.904L52.9061 87.568C53.0981 87.344 53.2981 87.216 53.5061 87.184ZM52.9301 82.672C53.1221 82.576 53.3061 82.528 53.4821 82.528C53.8341 82.528 54.1461 82.672 54.4181 82.96C54.6901 83.232 54.8261 83.552 54.8261 83.92C54.8261 84.176 54.7621 84.4 54.6341 84.592C54.3621 85.024 53.9941 85.24 53.5301 85.24C53.2261 85.24 52.9461 85.136 52.6901 84.928C52.4341 84.72 52.2741 84.432 52.2101 84.064C52.2101 84.048 52.2021 84.024 52.1861 83.992C52.1861 83.944 52.1861 83.912 52.1861 83.896C52.1861 83.656 52.2581 83.424 52.4021 83.2C52.5461 82.96 52.7221 82.784 52.9301 82.672ZM61.454 86.872C61.742 86.824 62.038 86.8 62.342 86.8C63.302 86.8 64.158 87.016 64.91 87.448C65.662 87.88 66.038 88.376 66.038 88.936C66.038 89.08 66.014 89.208 65.966 89.32C65.726 89.928 65.366 90.232 64.886 90.232C64.534 90.232 64.134 90.12 63.686 89.896C63.174 89.64 62.702 89.512 62.27 89.512C61.806 89.512 61.422 89.664 61.118 89.968C60.958 90.128 60.878 90.256 60.878 90.352C60.878 90.48 60.998 90.632 61.238 90.808C61.494 90.968 61.958 91.224 62.63 91.576C63.734 92.152 64.478 92.624 64.862 92.992C65.23 93.312 65.55 93.712 65.822 94.192C66.094 94.656 66.23 95.048 66.23 95.368C66.23 95.736 66.134 96.104 65.942 96.472C65.75 96.84 65.51 97.12 65.222 97.312C64.486 97.808 63.59 98.056 62.534 98.056C61.542 98.056 60.518 97.824 59.462 97.36C58.966 97.12 58.654 96.848 58.526 96.544C58.43 96.32 58.382 96.12 58.382 95.944C58.382 95.624 58.534 95.312 58.838 95.008C59.046 94.768 59.326 94.648 59.678 94.648C60.014 94.648 60.422 94.752 60.902 94.96C61.43 95.184 62.038 95.296 62.726 95.296C63.046 95.296 63.206 95.256 63.206 95.176C63.206 94.984 62.518 94.544 61.142 93.856C60.07 93.296 59.286 92.744 58.79 92.2C58.294 91.64 58.046 91.024 58.046 90.352C58.046 89.552 58.374 88.816 59.03 88.144C59.702 87.456 60.51 87.032 61.454 86.872ZM69.0433 96.568C69.1713 96.296 69.3153 96.112 69.4753 96.016C69.6353 95.92 69.9153 95.872 70.3153 95.872C70.5873 95.872 70.7713 95.896 70.8673 95.944C70.9793 95.992 71.1073 96.104 71.2513 96.28C71.4913 96.568 71.6113 96.872 71.6113 97.192C71.6113 97.544 71.4593 97.872 71.1553 98.176C70.8513 98.48 70.5393 98.632 70.2193 98.632C69.8993 98.632 69.5873 98.496 69.2833 98.224C68.9953 97.936 68.8513 97.64 68.8513 97.336C68.8513 97.096 68.9153 96.84 69.0433 96.568Z" fill="#27263C"/>
</svg>
