<svg width="395" height="32" viewBox="0 0 395 32" fill="none" xmlns="http://www.w3.org/2000/svg">
<path d="M14.264 2.8C16.3547 2.672 17.6133 2.608 18.04 2.608H18.264C18.7973 2.62933 19.224 2.81067 19.544 3.152C19.8853 3.49333 20.056 3.888 20.056 4.336C20.056 4.82667 19.8747 5.24267 19.512 5.584C19.256 5.84 18.9787 6 18.68 6.064C18.4027 6.10667 17.464 6.18133 15.864 6.288C13.7307 6.416 12.632 6.52267 12.568 6.608C12.5253 6.65067 12.504 8.13333 12.504 11.056V14.16C12.504 14.672 12.504 15.3227 12.504 16.112C12.5253 16.88 12.536 17.4027 12.536 17.68C12.536 19.856 12.4827 21.2427 12.376 21.84C12.2907 22.416 12.0667 22.8427 11.704 23.12C11.4267 23.3333 11.1067 23.44 10.744 23.44C10.3173 23.44 9.93333 23.312 9.592 23.056C9.25067 22.8 9.03733 22.4587 8.952 22.032C8.90933 21.7973 8.86667 19.1627 8.824 14.128L8.76 6.8H1.848L1.336 6.224C0.994667 5.81867 0.824 5.43467 0.824 5.072C0.824 4.688 0.994667 4.29333 1.336 3.888L1.848 3.312L6.456 3.152C9.42133 3.06667 12.024 2.94933 14.264 2.8ZM24.4015 1.552C24.7642 1.25333 25.1375 1.104 25.5215 1.104C26.2895 1.104 26.8548 1.57333 27.2175 2.512C27.3668 2.93867 27.5268 3.96267 27.6975 5.584C27.8682 7.184 28.0068 8.67733 28.1135 10.064C28.2202 11.4293 28.2842 12.112 28.3055 12.112C28.3482 12.112 28.7002 11.8773 29.3615 11.408C30.6628 10.4907 31.9002 10.032 33.0735 10.032C34.1615 10.032 35.1108 10.4373 35.9215 11.248C36.7535 12.0373 37.4042 13.2 37.8735 14.736C38.2362 15.9307 38.4175 17.7867 38.4175 20.304C38.4175 21.8827 38.3215 22.9493 38.1295 23.504C37.9162 24.08 37.4255 24.368 36.6575 24.368C36.1455 24.368 35.7188 24.1973 35.3775 23.856L34.8975 23.376L34.8015 20.144C34.6735 15.984 34.0975 13.84 33.0735 13.712H32.9775C32.4868 13.712 31.8788 13.9893 31.1535 14.544C30.4282 15.0773 29.9055 15.664 29.5855 16.304C29.3935 16.7307 29.1375 17.04 28.8175 17.232L28.4015 17.52L28.3375 21.008C28.2948 22.7147 28.2522 23.7493 28.2095 24.112C28.1882 24.4533 28.0708 24.7307 27.8575 24.944C27.5162 25.3067 27.0895 25.488 26.5775 25.488C25.8095 25.488 25.2762 25.1467 24.9775 24.464C24.8282 24.0587 24.7215 21.6053 24.6575 17.104C24.5508 9.57333 24.2735 5.06133 23.8255 3.568C23.7615 3.33333 23.7295 3.10933 23.7295 2.896C23.7295 2.34133 23.9535 1.89333 24.4015 1.552ZM51.8043 13.808C51.4203 13.616 50.8763 13.52 50.1723 13.52C49.4043 13.52 48.7536 13.6373 48.2203 13.872C47.8576 14.0213 47.3883 14.352 46.8123 14.864C46.2363 15.3547 45.9483 15.6747 45.9483 15.824C45.9483 15.888 46.2789 15.92 46.9403 15.92C47.9216 15.92 49.0949 15.8667 50.4603 15.76C51.8256 15.6533 52.6043 15.536 52.7963 15.408C52.8603 15.3867 52.8923 15.3227 52.8923 15.216C52.8923 15.024 52.7749 14.7787 52.5403 14.48C52.3056 14.16 52.0603 13.936 51.8043 13.808ZM48.0283 10.096C48.5616 9.94667 49.1909 9.872 49.9163 9.872C51.2603 9.872 52.4869 10.1387 53.5963 10.672C54.4283 11.0987 55.1216 11.7493 55.6763 12.624C56.2309 13.4773 56.5723 14.4373 56.7003 15.504C56.7003 15.5467 56.7003 15.6107 56.7003 15.696C56.7216 15.7813 56.7323 15.8453 56.7323 15.888C56.7323 16.4427 56.6256 16.9867 56.4123 17.52C56.2203 18.0533 55.9856 18.416 55.7083 18.608C55.3456 18.864 52.7963 19.184 48.0603 19.568C47.0576 19.6533 46.5563 19.7493 46.5563 19.856C46.5563 19.984 46.7803 20.1867 47.2283 20.464C47.6763 20.7413 48.1136 20.9333 48.5403 21.04C48.9243 21.1253 49.2336 21.168 49.4683 21.168C50.1509 21.168 51.0363 20.944 52.1243 20.496C52.8923 20.176 53.4576 20.016 53.8203 20.016C54.1829 20.016 54.5243 20.176 54.8443 20.496C55.2709 20.9227 55.4843 21.328 55.4843 21.712C55.4843 21.968 55.4203 22.2347 55.2923 22.512C55.1856 22.768 55.0363 22.9707 54.8443 23.12C54.6736 23.2693 54.3536 23.4507 53.8843 23.664C52.3269 24.3467 50.8763 24.688 49.5323 24.688C48.7643 24.688 47.9749 24.5707 47.1643 24.336C46.0763 23.9947 45.0843 23.4187 44.1883 22.608C43.2923 21.776 42.6523 20.8587 42.2682 19.856C42.0336 19.1947 41.9163 18.4587 41.9163 17.648C41.9163 16.4747 42.1083 15.4933 42.4923 14.704C42.9403 13.7227 43.6976 12.784 44.7643 11.888C45.8309 10.992 46.9189 10.3947 48.0283 10.096ZM74.2415 1.424C74.5828 1.08267 74.9882 0.911999 75.4575 0.911999C75.9055 0.911999 76.3002 1.08267 76.6415 1.424C76.9828 1.76533 77.1962 2.32 77.2815 3.088C77.3028 3.30133 77.3135 4.58133 77.3135 6.928C77.3135 17.8933 77.2388 23.6 77.0895 24.048C77.0042 24.304 76.8122 24.5067 76.5135 24.656C76.2148 24.8053 75.8842 24.88 75.5215 24.88C75.0948 24.88 74.7535 24.7947 74.4975 24.624C74.1135 24.368 73.8682 23.9947 73.7615 23.504C73.6762 22.992 73.6335 21.6267 73.6335 19.408C73.6335 16.8267 73.6442 14.5333 73.6655 12.528L73.7615 1.904L74.2415 1.424ZM89.432 11.6C88.856 11.4933 88.376 11.44 87.992 11.44C87.1173 11.44 86.3813 11.6213 85.784 11.984C85.4853 12.176 85.1333 12.8267 84.728 13.936C84.344 15.024 84.152 15.8987 84.152 16.56C84.152 17.6267 84.4933 18.4907 85.176 19.152C85.88 19.792 86.7973 20.1227 87.928 20.144C88.8453 20.144 89.6987 19.888 90.488 19.376C91.2987 18.864 91.8853 18.192 92.248 17.36C92.4827 16.8267 92.6 16.2187 92.6 15.536C92.6 14.704 92.44 13.9787 92.12 13.36C91.8853 12.8693 91.5653 12.496 91.16 12.24C90.7547 11.984 90.1787 11.7707 89.432 11.6ZM85.816 8.176C86.5627 7.984 87.2987 7.888 88.024 7.888C89.3893 7.888 90.8507 8.22933 92.408 8.912C93.5173 9.40267 94.392 10.2667 95.032 11.504C95.6933 12.7413 96.0347 14.2027 96.056 15.888V16.08C96.056 18.6187 94.9253 20.6773 92.664 22.256C91.256 23.2587 89.688 23.76 87.96 23.76C86.5307 23.76 85.208 23.408 83.992 22.704C82.776 21.9787 81.8587 20.9653 81.24 19.664C81.0267 19.216 80.888 18.832 80.824 18.512C80.7813 18.192 80.76 17.52 80.76 16.496C80.7813 14.9813 80.9413 13.7867 81.24 12.912C81.944 10.9707 82.776 9.65867 83.736 8.976C84.12 8.69867 84.8133 8.432 85.816 8.176ZM103.061 8.208C103.445 8.10133 104.042 8.048 104.853 8.048C106.559 8.048 107.797 8.176 108.565 8.432C109.631 8.77333 110.165 9.36 110.165 10.192C110.165 10.6827 109.93 11.1307 109.461 11.536C109.141 11.8347 108.831 11.984 108.533 11.984C108.511 11.984 108.469 11.984 108.405 11.984C108.341 11.9627 108.287 11.952 108.245 11.952C106.837 11.7173 105.727 11.6 104.917 11.6C104.661 11.6 104.426 11.6213 104.213 11.664C103.551 11.8347 103.221 12.144 103.221 12.592C103.221 12.6773 103.231 12.7413 103.253 12.784C103.402 13.2107 104.245 13.744 105.781 14.384C108.533 15.536 110.229 16.9653 110.869 18.672C111.061 19.184 111.157 19.664 111.157 20.112C111.157 20.9013 110.869 21.5733 110.293 22.128C109.738 22.6827 108.949 23.056 107.925 23.248C107.498 23.3333 106.794 23.376 105.812 23.376C104.021 23.376 102.879 23.2693 102.389 23.056C102.111 22.928 101.877 22.7147 101.685 22.416C101.493 22.096 101.397 21.7867 101.397 21.488C101.397 21.168 101.503 20.848 101.717 20.528C101.93 20.1867 102.186 19.952 102.485 19.824C102.762 19.7173 103.093 19.664 103.477 19.664C103.626 19.664 103.957 19.6853 104.469 19.728C104.81 19.7707 105.269 19.792 105.845 19.792C106.741 19.792 107.189 19.6853 107.189 19.472C107.189 19.088 106.261 18.512 104.405 17.744C102.741 17.0187 101.514 16.2613 100.725 15.472C99.9565 14.6613 99.5725 13.744 99.5725 12.72C99.5725 12.5493 99.5938 12.2933 99.6365 11.952C99.8072 10.9067 100.234 10.0747 100.917 9.456C101.471 8.90133 102.186 8.48533 103.061 8.208ZM118.186 8.208C118.57 8.10133 119.167 8.048 119.978 8.048C121.684 8.048 122.922 8.176 123.69 8.432C124.756 8.77333 125.29 9.36 125.29 10.192C125.29 10.6827 125.055 11.1307 124.586 11.536C124.266 11.8347 123.956 11.984 123.658 11.984C123.636 11.984 123.594 11.984 123.53 11.984C123.466 11.9627 123.412 11.952 123.37 11.952C121.962 11.7173 120.852 11.6 120.042 11.6C119.786 11.6 119.551 11.6213 119.338 11.664C118.676 11.8347 118.346 12.144 118.346 12.592C118.346 12.6773 118.356 12.7413 118.378 12.784C118.527 13.2107 119.37 13.744 120.906 14.384C123.658 15.536 125.354 16.9653 125.994 18.672C126.186 19.184 126.282 19.664 126.282 20.112C126.282 20.9013 125.994 21.5733 125.418 22.128C124.863 22.6827 124.074 23.056 123.05 23.248C122.623 23.3333 121.919 23.376 120.938 23.376C119.146 23.376 118.004 23.2693 117.514 23.056C117.236 22.928 117.002 22.7147 116.81 22.416C116.618 22.096 116.522 21.7867 116.522 21.488C116.522 21.168 116.628 20.848 116.842 20.528C117.055 20.1867 117.311 19.952 117.61 19.824C117.887 19.7173 118.218 19.664 118.602 19.664C118.751 19.664 119.082 19.6853 119.594 19.728C119.935 19.7707 120.394 19.792 120.97 19.792C121.866 19.792 122.314 19.6853 122.314 19.472C122.314 19.088 121.386 18.512 119.53 17.744C117.866 17.0187 116.639 16.2613 115.85 15.472C115.082 14.6613 114.698 13.744 114.698 12.72C114.698 12.5493 114.719 12.2933 114.762 11.952C114.932 10.9067 115.359 10.0747 116.042 9.456C116.596 8.90133 117.311 8.48533 118.186 8.208ZM140.129 8.08C140.513 7.90933 140.758 7.824 140.865 7.824C140.95 7.824 141.195 7.90933 141.601 8.08C141.985 8.22933 142.283 8.54933 142.497 9.04C142.731 9.53067 143.041 10.5227 143.425 12.016C144.47 16.1333 145.11 18.3093 145.345 18.544H145.377C145.462 18.544 145.782 17.9147 146.337 16.656C146.891 15.376 147.531 14.064 148.257 12.72C149.003 11.3547 149.633 10.5973 150.145 10.448C150.358 10.384 150.593 10.352 150.849 10.352C151.659 10.352 152.257 10.576 152.641 11.024C152.897 11.3227 153.291 12.1547 153.825 13.52C155.041 16.5493 155.713 18.064 155.841 18.064H155.873C155.937 18.0213 156.321 16.976 157.025 14.928C157.729 12.7947 158.209 11.4507 158.465 10.896C158.742 10.3413 159.083 9.97867 159.489 9.808C159.766 9.68 160.054 9.616 160.353 9.616C160.459 9.616 160.534 9.62667 160.577 9.648C160.918 9.73333 161.238 9.94667 161.537 10.288C161.857 10.6293 162.017 10.9493 162.017 11.248C162.017 11.5893 161.526 13.104 160.545 15.792C159.585 18.48 158.87 20.3147 158.401 21.296C157.91 22.32 157.505 22.992 157.185 23.312C156.865 23.6107 156.438 23.76 155.905 23.76C155.137 23.76 154.582 23.5573 154.241 23.152C153.921 22.7253 153.323 21.4987 152.449 19.472C151.403 17.104 150.827 15.92 150.721 15.92C150.614 15.92 150.134 16.88 149.281 18.8C148.257 21.1253 147.531 22.576 147.105 23.152C146.678 23.7067 146.081 23.984 145.312 23.984H145.153C144.427 23.9627 143.958 23.8453 143.745 23.632C142.934 22.9493 141.707 19.5467 140.065 13.424C139.446 11.12 139.137 9.78667 139.137 9.424C139.137 9.232 139.179 9.05067 139.265 8.88C139.457 8.47467 139.745 8.208 140.129 8.08ZM176.645 13.232C176.027 12.6133 175.067 12.304 173.765 12.304C173.125 12.304 172.56 12.4107 172.069 12.624C171.6 12.8373 171.088 13.2533 170.533 13.872C169.979 14.4907 169.616 15.056 169.445 15.568C169.253 16.1227 169.157 16.6453 169.157 17.136C169.157 18.2667 169.605 19.0667 170.501 19.536C171.035 19.8133 171.728 19.952 172.581 19.952C173.157 19.952 173.595 19.8773 173.893 19.728C175.621 18.8533 176.677 17.2853 177.061 15.024L177.253 13.808L176.645 13.232ZM171.781 8.88C172.293 8.73067 172.891 8.656 173.573 8.656C174.725 8.656 175.856 8.85867 176.965 9.264C178.075 9.66933 178.843 10.1813 179.269 10.8C179.568 11.2267 179.952 11.6747 180.421 12.144C180.933 12.6773 181.403 13.5947 181.829 14.896C182.235 16.1333 182.608 17.5093 182.949 19.024C183.312 20.5387 183.493 21.5627 183.493 22.096C183.493 22.6293 183.333 23.0453 183.013 23.344C182.608 23.728 182.224 23.92 181.861 23.92C181.712 23.92 181.52 23.888 181.285 23.824C180.88 23.6747 180.56 23.4187 180.325 23.056C180.112 22.6933 179.92 22.1067 179.749 21.296C179.536 20.336 179.419 19.856 179.397 19.856C179.312 19.856 178.864 20.2613 178.053 21.072C176.453 22.6293 174.789 23.472 173.061 23.6H172.613C171.568 23.6 170.544 23.4187 169.541 23.056C168.56 22.6933 167.781 22.2133 167.205 21.616C166.907 21.3173 166.608 20.8693 166.309 20.272C166.011 19.6533 165.808 19.088 165.701 18.576C165.595 18.0427 165.541 17.5627 165.541 17.136C165.541 15.3653 166.139 13.6693 167.333 12.048C168.549 10.4267 170.032 9.37067 171.781 8.88ZM191.585 8.496C191.969 8.432 192.363 8.4 192.769 8.4C194.049 8.4 195.19 8.688 196.193 9.264C197.195 9.84 197.697 10.5013 197.697 11.248C197.697 11.44 197.665 11.6107 197.601 11.76C197.281 12.5707 196.801 12.976 196.161 12.976C195.691 12.976 195.158 12.8267 194.561 12.528C193.878 12.1867 193.249 12.016 192.673 12.016C192.054 12.016 191.542 12.2187 191.137 12.624C190.923 12.8373 190.817 13.008 190.817 13.136C190.817 13.3067 190.977 13.5093 191.297 13.744C191.638 13.9573 192.257 14.2987 193.153 14.768C194.625 15.536 195.617 16.1653 196.129 16.656C196.619 17.0827 197.046 17.616 197.409 18.256C197.771 18.8747 197.953 19.3973 197.953 19.824C197.953 20.3147 197.825 20.8053 197.569 21.296C197.313 21.7867 196.993 22.16 196.609 22.416C195.627 23.0773 194.433 23.408 193.025 23.408C191.702 23.408 190.337 23.0987 188.929 22.48C188.267 22.16 187.851 21.7973 187.681 21.392C187.553 21.0933 187.489 20.8267 187.489 20.592C187.489 20.1653 187.691 19.7493 188.097 19.344C188.374 19.024 188.747 18.864 189.217 18.864C189.665 18.864 190.209 19.0027 190.849 19.28C191.553 19.5787 192.363 19.728 193.281 19.728C193.707 19.728 193.921 19.6747 193.921 19.568C193.921 19.312 193.003 18.7253 191.169 17.808C189.739 17.0613 188.694 16.3253 188.033 15.6C187.371 14.8533 187.041 14.032 187.041 13.136C187.041 12.0693 187.478 11.088 188.353 10.192C189.249 9.27467 190.326 8.70933 191.585 8.496ZM223.14 13.616C222.287 13.2107 221.69 13.008 221.348 13.008C220.943 13.008 220.431 13.2853 219.812 13.84C218.98 14.608 218.564 15.5573 218.564 16.688C218.564 17.6053 218.863 18.2987 219.46 18.768C219.738 18.9813 220.026 19.088 220.324 19.088C220.687 19.088 221.146 18.9387 221.7 18.64C223.492 17.7013 224.388 16.4853 224.388 14.992V14.192L223.14 13.616ZM224.772 2.256C225.135 1.95733 225.562 1.808 226.052 1.808C226.372 1.808 226.639 1.872 226.852 2C227.108 2.14933 227.322 2.39467 227.492 2.736C227.62 2.992 227.706 3.70667 227.748 4.88C227.812 6.05333 227.855 8.74133 227.876 12.944L227.94 22.576L227.396 23.12C227.034 23.4827 226.618 23.664 226.148 23.664C225.7 23.664 225.295 23.504 224.932 23.184C224.57 22.864 224.388 22.5013 224.388 22.096C224.388 21.7547 224.367 21.5627 224.324 21.52H224.292C224.143 21.52 223.791 21.6587 223.236 21.936C222.191 22.4267 221.21 22.672 220.292 22.672C218.863 22.672 217.615 22.096 216.548 20.944C215.46 19.7493 214.916 18.3413 214.916 16.72C214.916 14.5867 215.748 12.752 217.412 11.216C218.671 10.064 220.036 9.488 221.508 9.488C222.148 9.488 222.735 9.57333 223.268 9.744C223.844 9.936 224.154 10.032 224.196 10.032C224.218 10.032 224.228 8.816 224.228 6.384V2.736L224.772 2.256ZM233.081 8.912C233.166 8.89067 233.294 8.88 233.465 8.88C233.87 8.88 234.244 8.98667 234.585 9.2C234.926 9.392 235.161 9.65867 235.289 10C235.374 10.192 235.46 11.6533 235.545 14.384C235.652 17.0933 235.705 19.2267 235.705 20.784C235.705 21.4453 235.694 21.8293 235.673 21.936C235.566 22.7467 235.214 23.2907 234.617 23.568C234.318 23.696 234.084 23.76 233.913 23.76C233.785 23.76 233.593 23.728 233.337 23.664C232.846 23.5147 232.537 23.312 232.409 23.056C232.153 22.5653 232.004 20.6667 231.961 17.36C231.961 16.7627 231.95 15.728 231.929 14.256L231.897 9.872L232.281 9.424C232.537 9.12533 232.804 8.95467 233.081 8.912ZM232.313 2.896C232.569 2.768 232.814 2.704 233.049 2.704C233.518 2.704 233.934 2.896 234.297 3.28C234.66 3.64267 234.841 4.06933 234.841 4.56C234.841 4.90133 234.756 5.2 234.585 5.456C234.222 6.032 233.732 6.32 233.113 6.32C232.708 6.32 232.334 6.18133 231.993 5.904C231.652 5.62667 231.438 5.24267 231.353 4.752C231.353 4.73067 231.342 4.69867 231.321 4.656C231.321 4.592 231.321 4.54933 231.321 4.528C231.321 4.208 231.417 3.89867 231.609 3.6C231.801 3.28 232.036 3.04533 232.313 2.896ZM243.678 8.496C244.062 8.432 244.457 8.4 244.862 8.4C246.142 8.4 247.284 8.688 248.286 9.264C249.289 9.84 249.79 10.5013 249.79 11.248C249.79 11.44 249.758 11.6107 249.694 11.76C249.374 12.5707 248.894 12.976 248.254 12.976C247.785 12.976 247.252 12.8267 246.654 12.528C245.972 12.1867 245.342 12.016 244.766 12.016C244.148 12.016 243.636 12.2187 243.23 12.624C243.017 12.8373 242.91 13.008 242.91 13.136C242.91 13.3067 243.07 13.5093 243.39 13.744C243.732 13.9573 244.35 14.2987 245.246 14.768C246.718 15.536 247.71 16.1653 248.222 16.656C248.713 17.0827 249.14 17.616 249.502 18.256C249.865 18.8747 250.046 19.3973 250.046 19.824C250.046 20.3147 249.918 20.8053 249.662 21.296C249.406 21.7867 249.086 22.16 248.702 22.416C247.721 23.0773 246.526 23.408 245.118 23.408C243.796 23.408 242.43 23.0987 241.022 22.48C240.361 22.16 239.945 21.7973 239.774 21.392C239.646 21.0933 239.582 20.8267 239.582 20.592C239.582 20.1653 239.785 19.7493 240.19 19.344C240.468 19.024 240.841 18.864 241.31 18.864C241.758 18.864 242.302 19.0027 242.942 19.28C243.646 19.5787 244.457 19.728 245.374 19.728C245.801 19.728 246.014 19.6747 246.014 19.568C246.014 19.312 245.097 18.7253 243.262 17.808C241.833 17.0613 240.788 16.3253 240.126 15.6C239.465 14.8533 239.134 14.032 239.134 13.136C239.134 12.0693 239.572 11.088 240.446 10.192C241.342 9.27467 242.42 8.70933 243.678 8.496ZM262.469 12.816C262.064 12.7093 261.403 12.6133 260.485 12.528C259.888 12.4853 259.568 12.464 259.525 12.464C259.227 12.464 258.928 12.624 258.629 12.944C257.776 13.8187 257.317 15.0027 257.253 16.496C257.253 16.5813 257.243 16.6987 257.221 16.848C257.221 16.976 257.221 17.072 257.221 17.136C257.221 17.6267 257.349 18.0853 257.605 18.512C258.288 19.728 259.493 20.336 261.221 20.336C261.947 20.3147 262.683 20.0693 263.429 19.6C264.197 19.1093 264.752 18.5227 265.093 17.84C265.285 17.4347 265.381 16.9973 265.381 16.528C265.381 15.7387 265.104 14.992 264.549 14.288C264.016 13.5627 263.323 13.072 262.469 12.816ZM257.605 9.232C258.096 8.95467 258.587 8.816 259.077 8.816C259.184 8.816 259.579 8.83733 260.261 8.88C262.288 8.98667 263.92 9.41333 265.157 10.16C266.395 10.9067 267.387 12.0587 268.133 13.616C268.709 14.8107 268.997 15.952 268.997 17.04C268.997 17.3813 268.965 17.68 268.901 17.936C268.56 19.2587 267.813 20.464 266.661 21.552C265.509 22.64 264.24 23.3653 262.853 23.728C262.128 23.8987 261.552 23.984 261.125 23.984C260.699 23.984 260.123 23.8987 259.397 23.728C257.2 23.152 255.621 22.1067 254.661 20.592C253.915 19.4187 253.541 18.1813 253.541 16.88C253.541 15.5787 253.893 14.192 254.597 12.72C255.408 10.992 256.411 9.82933 257.605 9.232ZM272.958 9.328C273.342 9.008 273.758 8.848 274.206 8.848C274.675 8.848 275.081 9.01867 275.422 9.36C275.763 9.68 275.934 10.096 275.934 10.608C275.934 11.12 276.03 11.376 276.222 11.376C276.329 11.376 276.553 11.2587 276.894 11.024C278.473 9.936 280.041 9.392 281.598 9.392C282.259 9.392 282.91 9.50933 283.55 9.744C284.126 9.97867 284.531 10.2347 284.766 10.512C285.001 10.7893 285.118 11.1627 285.118 11.632C285.118 12.144 284.926 12.5813 284.542 12.944C284.222 13.2427 283.934 13.392 283.678 13.392C283.593 13.392 282.995 13.3173 281.886 13.168C281.758 13.1467 281.577 13.136 281.342 13.136C281.001 13.136 280.563 13.2533 280.03 13.488C278.643 14.128 277.673 14.9387 277.118 15.92C276.563 16.9013 276.286 18.3093 276.286 20.144C276.265 21.488 276.105 22.4267 275.806 22.96C275.529 23.4933 275.027 23.76 274.302 23.76C273.811 23.76 273.395 23.5893 273.054 23.248L272.542 22.736L272.478 17.072C272.435 12.8907 272.414 10.736 272.414 10.608C272.414 10.096 272.595 9.66933 272.958 9.328ZM290.075 9.456C290.16 9.43467 290.288 9.424 290.459 9.424C290.928 9.424 291.344 9.57333 291.707 9.872C292.07 10.1707 292.283 10.5547 292.347 11.024C292.432 11.4933 292.475 13.5093 292.475 17.072L292.507 22.48L291.963 22.992C291.6 23.3547 291.174 23.536 290.683 23.536C290.235 23.536 289.851 23.376 289.531 23.056C289.318 22.8427 289.168 22.6293 289.083 22.416C289.019 22.1813 288.966 21.7333 288.923 21.072C288.859 20.24 288.827 18.2347 288.827 15.056L288.795 10.576L289.243 10.032C289.563 9.69067 289.84 9.49867 290.075 9.456ZM289.499 3.088C289.776 2.93867 290.064 2.864 290.363 2.864C290.854 2.864 291.27 3.04533 291.611 3.408C291.952 3.77067 292.123 4.18667 292.123 4.656C292.123 5.06133 291.963 5.456 291.643 5.84C291.238 6.26667 290.79 6.48 290.299 6.48C289.83 6.48 289.414 6.32 289.051 6C288.71 5.65867 288.539 5.25333 288.539 4.784C288.539 4.50666 288.603 4.22933 288.731 3.952C288.923 3.54667 289.179 3.25867 289.499 3.088ZM305.836 13.808C305.452 13.616 304.908 13.52 304.204 13.52C303.436 13.52 302.785 13.6373 302.252 13.872C301.889 14.0213 301.42 14.352 300.844 14.864C300.268 15.3547 299.98 15.6747 299.98 15.824C299.98 15.888 300.31 15.92 300.972 15.92C301.953 15.92 303.126 15.8667 304.492 15.76C305.857 15.6533 306.636 15.536 306.828 15.408C306.892 15.3867 306.924 15.3227 306.924 15.216C306.924 15.024 306.806 14.7787 306.572 14.48C306.337 14.16 306.092 13.936 305.836 13.808ZM302.06 10.096C302.593 9.94667 303.222 9.872 303.948 9.872C305.292 9.872 306.518 10.1387 307.628 10.672C308.46 11.0987 309.153 11.7493 309.708 12.624C310.262 13.4773 310.604 14.4373 310.732 15.504C310.732 15.5467 310.732 15.6107 310.732 15.696C310.753 15.7813 310.764 15.8453 310.764 15.888C310.764 16.4427 310.657 16.9867 310.444 17.52C310.252 18.0533 310.017 18.416 309.74 18.608C309.377 18.864 306.828 19.184 302.092 19.568C301.089 19.6533 300.588 19.7493 300.588 19.856C300.588 19.984 300.812 20.1867 301.26 20.464C301.708 20.7413 302.145 20.9333 302.572 21.04C302.956 21.1253 303.265 21.168 303.5 21.168C304.182 21.168 305.068 20.944 306.156 20.496C306.924 20.176 307.489 20.016 307.852 20.016C308.214 20.016 308.556 20.176 308.876 20.496C309.302 20.9227 309.516 21.328 309.516 21.712C309.516 21.968 309.452 22.2347 309.324 22.512C309.217 22.768 309.068 22.9707 308.876 23.12C308.705 23.2693 308.385 23.4507 307.916 23.664C306.358 24.3467 304.908 24.688 303.564 24.688C302.796 24.688 302.006 24.5707 301.196 24.336C300.108 23.9947 299.116 23.4187 298.22 22.608C297.324 21.776 296.684 20.8587 296.299 19.856C296.065 19.1947 295.948 18.4587 295.948 17.648C295.948 16.4747 296.14 15.4933 296.524 14.704C296.972 13.7227 297.729 12.784 298.796 11.888C299.862 10.992 300.95 10.3947 302.06 10.096ZM315.092 9.072C315.348 8.944 315.615 8.88 315.892 8.88C316.276 8.88 316.639 9.008 316.98 9.264C317.321 9.49867 317.556 9.81867 317.684 10.224L317.876 10.896L318.676 10.416C319.209 10.096 319.945 9.936 320.884 9.936C321.801 9.936 322.559 10.0853 323.156 10.384C323.647 10.6187 324.169 11.0027 324.724 11.536C325.3 12.0693 325.759 12.6027 326.1 13.136C327.252 14.9493 327.881 17.7653 327.988 21.584V22.224C327.988 22.736 327.839 23.152 327.54 23.472C327.177 23.8347 326.751 24.016 326.26 24.016C325.471 24.016 324.948 23.6747 324.692 22.992C324.564 22.6293 324.457 21.9147 324.372 20.848C324.116 17.1147 323.284 14.7787 321.876 13.84C321.577 13.648 321.279 13.552 320.98 13.552C320.425 13.552 319.924 13.8613 319.476 14.48C319.049 15.0773 318.708 15.9307 318.452 17.04C318.345 17.5307 318.217 18.416 318.068 19.696C317.919 20.976 317.844 21.84 317.844 22.288C317.844 22.5013 317.663 22.7893 317.3 23.152C316.937 23.4933 316.521 23.664 316.052 23.664C315.177 23.664 314.601 23.2053 314.324 22.288C314.196 21.84 314.132 19.8987 314.132 16.464C314.132 12.368 314.207 10.1387 314.356 9.776C314.484 9.49867 314.729 9.264 315.092 9.072ZM336.533 2.192C336.875 1.97867 337.195 1.872 337.493 1.872C337.728 1.872 337.995 1.936 338.293 2.064C338.741 2.27733 339.029 2.608 339.157 3.056C339.285 3.504 339.371 4.57067 339.413 6.256L339.509 9.424L340.981 9.328C341.152 9.30667 341.397 9.296 341.717 9.296C342.485 9.296 343.029 9.43467 343.349 9.712C343.691 9.98933 343.861 10.4373 343.861 11.056C343.861 11.7173 343.637 12.1867 343.189 12.464C342.763 12.7413 341.931 12.9333 340.693 13.04L339.349 13.168L339.125 17.616C338.976 20.624 338.837 22.288 338.709 22.608C338.432 23.248 337.899 23.568 337.109 23.568C336.661 23.568 336.309 23.4507 336.053 23.216C335.776 23.0027 335.584 22.768 335.477 22.512C335.371 22.256 335.317 21.84 335.317 21.264C335.317 20.7947 335.349 20.0907 335.413 19.152C335.52 17.4667 335.595 16.0267 335.637 14.832L335.669 13.328L334.229 13.296C333.419 13.2747 332.864 13.2107 332.565 13.104C332.267 12.976 332.011 12.72 331.797 12.336C331.669 12.08 331.605 11.8133 331.605 11.536C331.605 11.024 331.819 10.576 332.245 10.192C332.48 9.97867 332.779 9.84 333.141 9.776C333.504 9.69067 334.176 9.60533 335.157 9.52L335.669 9.456L335.797 6.064C335.819 5.552 335.829 4.99733 335.829 4.4C335.851 3.78133 335.861 3.32266 335.861 3.024L335.893 2.576L335.989 2.512C336.053 2.46933 336.139 2.416 336.245 2.352C336.352 2.288 336.448 2.23467 336.533 2.192ZM349.112 8.912C349.198 8.89067 349.326 8.88 349.496 8.88C349.902 8.88 350.275 8.98667 350.616 9.2C350.958 9.392 351.192 9.65867 351.32 10C351.406 10.192 351.491 11.6533 351.576 14.384C351.683 17.0933 351.736 19.2267 351.736 20.784C351.736 21.4453 351.726 21.8293 351.704 21.936C351.598 22.7467 351.246 23.2907 350.648 23.568C350.35 23.696 350.115 23.76 349.944 23.76C349.816 23.76 349.624 23.728 349.368 23.664C348.878 23.5147 348.568 23.312 348.44 23.056C348.184 22.5653 348.035 20.6667 347.992 17.36C347.992 16.7627 347.982 15.728 347.96 14.256L347.928 9.872L348.312 9.424C348.568 9.12533 348.835 8.95467 349.112 8.912ZM348.344 2.896C348.6 2.768 348.846 2.704 349.08 2.704C349.55 2.704 349.966 2.896 350.328 3.28C350.691 3.64267 350.872 4.06933 350.872 4.56C350.872 4.90133 350.787 5.2 350.616 5.456C350.254 6.032 349.763 6.32 349.144 6.32C348.739 6.32 348.366 6.18133 348.024 5.904C347.683 5.62667 347.47 5.24267 347.384 4.752C347.384 4.73067 347.374 4.69867 347.352 4.656C347.352 4.592 347.352 4.54933 347.352 4.528C347.352 4.208 347.448 3.89867 347.64 3.6C347.832 3.28 348.067 3.04533 348.344 2.896ZM356.03 9.072C356.286 8.944 356.552 8.88 356.83 8.88C357.214 8.88 357.576 9.008 357.918 9.264C358.259 9.49867 358.494 9.81867 358.622 10.224L358.814 10.896L359.614 10.416C360.147 10.096 360.883 9.936 361.822 9.936C362.739 9.936 363.496 10.0853 364.094 10.384C364.584 10.6187 365.107 11.0027 365.662 11.536C366.238 12.0693 366.696 12.6027 367.038 13.136C368.19 14.9493 368.819 17.7653 368.926 21.584V22.224C368.926 22.736 368.776 23.152 368.478 23.472C368.115 23.8347 367.688 24.016 367.198 24.016C366.408 24.016 365.886 23.6747 365.63 22.992C365.502 22.6293 365.395 21.9147 365.31 20.848C365.054 17.1147 364.222 14.7787 362.814 13.84C362.515 13.648 362.216 13.552 361.918 13.552C361.363 13.552 360.862 13.8613 360.414 14.48C359.987 15.0773 359.646 15.9307 359.39 17.04C359.283 17.5307 359.155 18.416 359.006 19.696C358.856 20.976 358.782 21.84 358.782 22.288C358.782 22.5013 358.6 22.7893 358.238 23.152C357.875 23.4933 357.459 23.664 356.99 23.664C356.115 23.664 355.539 23.2053 355.262 22.288C355.134 21.84 355.07 19.8987 355.07 16.464C355.07 12.368 355.144 10.1387 355.294 9.776C355.422 9.49867 355.667 9.264 356.03 9.072ZM381.983 12.08C381.684 11.8667 381.428 11.7387 381.215 11.696C381.001 11.632 380.596 11.6 379.999 11.6C378.42 11.6427 377.364 12.048 376.831 12.816C376.617 13.1147 376.425 13.584 376.255 14.224C376.084 14.8427 375.999 15.3653 375.999 15.792C375.999 15.8347 375.999 15.8987 375.999 15.984C376.02 16.048 376.031 16.0907 376.031 16.112C376.159 16.752 376.511 17.3173 377.087 17.808C377.684 18.2987 378.377 18.5973 379.167 18.704C379.273 18.7253 379.433 18.736 379.647 18.736C380.457 18.736 381.257 18.3093 382.047 17.456C382.836 16.6027 383.231 15.7067 383.231 14.768C383.231 14.4693 383.22 14.2453 383.199 14.096C383.135 13.5413 383.039 13.1573 382.911 12.944C382.783 12.7307 382.473 12.4427 381.983 12.08ZM377.951 8.144C378.42 8.03733 379.103 7.984 379.999 7.984H380.511C381.3 8.00533 381.823 8.05867 382.079 8.144C382.356 8.208 382.793 8.41067 383.391 8.752C384.18 9.24267 384.831 9.60533 385.343 9.84C385.833 10.0747 386.153 10.32 386.303 10.576C386.516 10.896 386.729 12.3893 386.943 15.056C387.177 17.7013 387.295 20.0373 387.295 22.064C387.295 23.728 387.113 25.1147 386.751 26.224C386.409 27.3547 385.833 28.3787 385.023 29.296C383.679 30.832 382.004 31.6 379.999 31.6C378.74 31.6 377.279 31.312 375.615 30.736C374.889 30.5013 374.409 30.2987 374.175 30.128C373.94 29.9573 373.737 29.6907 373.567 29.328C373.481 29.136 373.439 28.912 373.439 28.656C373.439 28.1653 373.609 27.7493 373.951 27.408C374.207 27.1093 374.58 26.96 375.071 26.96C375.519 26.96 376.169 27.1093 377.023 27.408C377.791 27.6853 378.601 27.8667 379.455 27.952C379.519 27.952 379.593 27.952 379.679 27.952C379.785 27.9733 379.86 27.984 379.903 27.984C381.097 27.984 382.036 27.4507 382.719 26.384C383.081 25.872 383.327 25.392 383.455 24.944C383.604 24.4747 383.711 23.8027 383.775 22.928C383.817 22.3307 383.839 21.968 383.839 21.84C383.839 21.4347 383.743 21.232 383.551 21.232C383.38 21.232 383.081 21.3493 382.655 21.584C381.673 22.0747 380.66 22.32 379.615 22.32C377.823 22.32 376.212 21.7227 374.783 20.528C373.353 19.3333 372.596 17.8613 372.511 16.112C372.511 16.048 372.5 15.952 372.479 15.824C372.479 15.696 372.479 15.6 372.479 15.536C372.479 13.68 372.959 12.1013 373.919 10.8C374.9 9.47733 376.244 8.592 377.951 8.144ZM391.047 21.424C391.218 21.0613 391.41 20.816 391.623 20.688C391.837 20.56 392.21 20.496 392.743 20.496C393.106 20.496 393.351 20.528 393.479 20.592C393.629 20.656 393.799 20.8053 393.991 21.04C394.311 21.424 394.471 21.8293 394.471 22.256C394.471 22.7253 394.269 23.1627 393.863 23.568C393.458 23.9733 393.042 24.176 392.615 24.176C392.189 24.176 391.773 23.9947 391.367 23.632C390.983 23.248 390.791 22.8533 390.791 22.448C390.791 22.128 390.877 21.7867 391.047 21.424Z" fill="#27263C"/>
</svg>
