<svg width="332" height="36" viewBox="0 0 332 36" fill="none" xmlns="http://www.w3.org/2000/svg">
<path d="M47.744 4.768C48.2133 4.64 48.7467 4.576 49.344 4.576C50.2187 4.576 51.0613 4.704 51.872 4.96C52.6827 5.19467 53.2373 5.504 53.536 5.888C53.7707 6.18667 53.888 6.50667 53.888 6.848C53.888 7.57333 53.536 8.10667 52.832 8.448C52.5547 8.59733 52.32 8.672 52.128 8.672C51.9573 8.672 51.7547 8.62933 51.52 8.544C50.9867 8.37333 50.4 8.26667 49.76 8.224C49.696 8.224 49.6 8.224 49.472 8.224C49.3653 8.20267 49.2907 8.192 49.248 8.192C48.8 8.192 48.3307 8.32 47.84 8.576C46.9013 9.04533 46.3787 9.62133 46.272 10.304C46.272 10.3467 46.2613 10.4 46.24 10.464C46.24 10.5067 46.24 10.5387 46.24 10.56C46.24 10.88 46.4 11.1573 46.72 11.392C47.0613 11.6267 47.7013 11.9253 48.64 12.288C50.688 13.0773 52.16 13.888 53.056 14.72C53.9733 15.552 54.6133 16.6613 54.976 18.048C55.168 18.752 55.264 19.424 55.264 20.064C55.264 22.2187 54.176 23.8293 52 24.896C51.3813 25.1733 50.9227 25.3547 50.624 25.44C50.3253 25.504 49.8667 25.536 49.248 25.536C47.9253 25.5147 46.5707 25.28 45.184 24.832C43.8187 24.384 42.8693 23.8613 42.336 23.264C41.9733 22.8373 41.792 22.4 41.792 21.952C41.792 21.504 41.9733 21.0987 42.336 20.736C42.72 20.3947 43.1147 20.224 43.52 20.224C43.904 20.224 44.3733 20.3947 44.928 20.736C45.2907 20.992 45.9733 21.2693 46.976 21.568C47.9787 21.8453 48.7467 21.984 49.28 21.984C49.6213 21.984 50.048 21.8453 50.56 21.568C51.3067 21.2053 51.68 20.6507 51.68 19.904C51.68 19.6693 51.648 19.424 51.584 19.168C51.4133 18.336 51.0613 17.7067 50.528 17.28C49.9947 16.832 48.9067 16.2773 47.264 15.616C45.8773 15.0827 44.8853 14.592 44.288 14.144C43.2 13.248 42.656 12.0213 42.656 10.464C42.656 9.48267 42.88 8.61867 43.328 7.872C43.6907 7.232 44.288 6.624 45.12 6.048C45.9733 5.45067 46.848 5.024 47.744 4.768ZM69.6392 6.24C69.8099 6.19733 70.0233 6.176 70.2793 6.176C71.2392 6.176 72.0606 6.272 72.7432 6.464C73.1912 6.592 73.6606 6.85867 74.1512 7.264C74.6419 7.648 74.9299 7.98933 75.0153 8.288C75.0366 8.37333 75.0472 8.512 75.0472 8.704C75.0472 9.45067 74.8446 9.96267 74.4392 10.24C74.2472 10.4107 73.9166 10.496 73.4473 10.496C72.8926 10.496 72.4126 10.3787 72.0072 10.144C71.6446 9.952 71.2926 9.856 70.9513 9.856C70.6953 9.856 70.4819 9.86667 70.3112 9.888C69.2872 10.016 68.3486 10.3893 67.4952 11.008C66.6419 11.6053 66.0019 12.3627 65.5752 13.28C65.2552 13.9413 65.0952 14.8053 65.0952 15.872C65.0952 16.5547 65.1166 17.0347 65.1592 17.312C65.2232 17.5893 65.3619 17.9413 65.5752 18.368C65.9806 19.072 66.3752 19.6373 66.7592 20.064C67.2712 20.64 67.9752 21.12 68.8713 21.504C69.7673 21.8667 70.6099 22.048 71.3993 22.048C71.6339 22.048 71.8046 22.0373 71.9113 22.016C72.3166 21.952 72.8926 21.76 73.6392 21.44C74.3859 21.0987 74.8019 20.8533 74.8872 20.704C74.9726 20.576 75.3032 20.512 75.8792 20.512C76.2632 20.512 76.5299 20.544 76.6793 20.608C76.8286 20.672 76.9992 20.8213 77.1912 21.056C77.4899 21.4187 77.6392 21.8453 77.6392 22.336C77.6392 22.656 77.5752 22.9227 77.4473 23.136C77.3193 23.3707 76.8606 23.7227 76.0713 24.192C75.2819 24.6613 74.5779 25.0027 73.9593 25.216C73.2126 25.472 72.3593 25.6 71.3993 25.6C69.6073 25.6 67.9966 25.216 66.5672 24.448C65.9272 24.1067 65.1806 23.5093 64.3272 22.656C63.4952 21.8027 62.8872 21.024 62.5032 20.32C62.1832 19.744 61.9059 19.0187 61.6712 18.144C61.4366 17.248 61.3192 16.4907 61.3192 15.872C61.3192 15.3173 61.4259 14.5813 61.6392 13.664C61.8739 12.7467 62.1299 11.9893 62.4072 11.392C62.7699 10.624 63.3352 9.856 64.1032 9.088C64.8926 8.32 65.6926 7.73333 66.5032 7.328C67.4419 6.88 68.4873 6.51733 69.6392 6.24ZM91.2742 8.16C90.8476 7.94667 90.3569 7.84 89.8022 7.84C89.3329 7.84 88.9062 7.91467 88.5222 8.064C88.2236 8.17067 88.0209 8.256 87.9142 8.32C87.8289 8.384 87.7222 8.46933 87.5942 8.576C87.4876 8.66133 87.4236 8.85333 87.4022 9.152C87.3809 9.45067 87.3596 9.74933 87.3382 10.048C87.3382 10.3253 87.3382 10.848 87.3382 11.616C87.3382 13.5147 87.3809 14.464 87.4662 14.464C87.7222 14.464 88.3089 14.3147 89.2262 14.016C90.1649 13.696 90.8796 13.408 91.3702 13.152C92.9916 12.3413 93.8022 11.6373 93.8022 11.04C93.8022 10.5707 93.5462 10.0587 93.0342 9.504C92.5436 8.928 91.9569 8.48 91.2742 8.16ZM87.4342 4.704C88.0316 4.49067 88.7569 4.384 89.6102 4.384H90.1542C90.9009 4.40533 91.4236 4.448 91.7222 4.512C92.0422 4.576 92.4689 4.74667 93.0022 5.024C94.3249 5.68533 95.3916 6.592 96.2022 7.744C97.0129 8.896 97.4183 10.0373 97.4183 11.168C97.4183 11.68 97.3436 12.128 97.1943 12.512C96.9809 13.024 96.6076 13.568 96.0742 14.144C95.5409 14.72 94.9436 15.2213 94.2822 15.648C93.6209 16.0747 93.2902 16.2987 93.2902 16.32C93.2902 16.3627 93.8236 16.9173 94.8902 17.984C95.8929 18.9867 96.8316 20.1387 97.7062 21.44C98.6022 22.72 99.0502 23.5947 99.0502 24.064C99.0502 24.32 98.9542 24.6293 98.7622 24.992C98.5702 25.3333 98.3782 25.5573 98.1862 25.664C97.9729 25.7707 97.6316 25.824 97.1622 25.824C96.7569 25.824 96.4369 25.7067 96.2022 25.472C95.9676 25.2373 95.4876 24.576 94.7622 23.488C93.2689 21.2053 91.7009 19.6587 90.0582 18.848C89.0982 18.3787 88.4156 18.112 88.0102 18.048L87.3382 17.92V18.944C87.3382 19.4773 87.2956 20.64 87.2102 22.432C87.1676 23.6267 87.1142 24.3627 87.0502 24.64C87.0076 24.896 86.8689 25.1307 86.6342 25.344C86.3142 25.664 85.8876 25.824 85.3542 25.824C85.0129 25.824 84.7676 25.792 84.6182 25.728C84.4689 25.664 84.3089 25.5253 84.1382 25.312L83.6902 24.768L83.7542 15.328C83.8182 9.056 83.9036 5.81333 84.0102 5.6C84.2662 5.13066 84.7569 4.896 85.4822 4.896C85.6316 4.896 85.7382 4.90667 85.8022 4.928C85.8236 4.928 85.8662 4.93867 85.9302 4.96C85.9942 4.96 86.0476 4.96 86.0902 4.96C86.4316 4.96 86.8796 4.87467 87.4342 4.704ZM114.341 9.216C113.339 9.00267 112.816 8.896 112.773 8.896C112.667 8.896 112.379 9.01333 111.909 9.248C110.544 9.90933 109.573 11.648 108.997 14.464C108.869 15.104 108.805 15.712 108.805 16.288C108.805 18.7627 109.84 20.3413 111.909 21.024C112.293 21.152 112.677 21.216 113.061 21.216C114.213 21.216 115.387 20.8 116.581 19.968C117.776 19.1147 118.597 18.272 119.045 17.44C119.344 16.8427 119.493 15.968 119.493 14.816C119.493 13.7707 119.365 12.96 119.109 12.384C118.384 10.8053 116.795 9.74933 114.341 9.216ZM111.781 5.568C112.165 5.504 112.571 5.472 112.997 5.472C114.32 5.472 115.707 5.74933 117.157 6.304C118.608 6.85867 119.771 7.56267 120.645 8.416C122.309 10.0373 123.141 12.192 123.141 14.88C123.141 16.3307 122.843 17.6853 122.245 18.944C121.584 20.3093 120.475 21.568 118.917 22.72C117.36 23.8507 115.803 24.5333 114.245 24.768C113.883 24.832 113.52 24.864 113.157 24.864C111.088 24.864 109.307 24.0853 107.813 22.528C107.131 21.824 106.555 20.992 106.085 20.032C105.616 19.072 105.339 18.1867 105.253 17.376C105.211 16.9067 105.189 16.5547 105.189 16.32C105.189 14.8053 105.477 13.216 106.053 11.552C106.651 9.888 107.397 8.544 108.293 7.52C109.275 6.45333 110.437 5.80267 111.781 5.568ZM129.763 6.016C130.126 5.71733 130.521 5.568 130.947 5.568C131.673 5.568 132.195 5.89867 132.515 6.56C132.643 6.83733 132.739 9.536 132.803 14.656L132.931 22.432H134.275C135.342 22.432 136.782 22.3787 138.595 22.272C139.662 22.2293 140.323 22.208 140.579 22.208C141.433 22.208 142.009 22.2827 142.307 22.432C142.606 22.5813 142.851 22.8907 143.043 23.36C143.15 23.68 143.203 23.904 143.203 24.032C143.203 24.1813 143.139 24.384 143.011 24.64C142.862 24.9387 142.723 25.152 142.595 25.28C142.489 25.408 142.19 25.5253 141.699 25.632C141.209 25.7387 140.622 25.8133 139.939 25.856C139.257 25.8773 138.158 25.9093 136.643 25.952C135.577 25.9947 134.275 26.016 132.739 26.016C131.673 26.016 131.075 25.9947 130.947 25.952C130.563 25.8453 130.19 25.6107 129.827 25.248L129.315 24.704L129.187 16.32C129.123 13.3333 129.091 10.8587 129.091 8.896C129.091 7.89333 129.102 7.33867 129.123 7.232C129.23 6.69867 129.443 6.29333 129.763 6.016ZM150.333 6.176C150.589 6.06933 150.834 6.016 151.069 6.016C151.517 6.016 151.922 6.15467 152.285 6.432C152.669 6.688 152.935 7.04 153.085 7.488C153.191 7.85067 153.245 8.992 153.245 10.912C153.245 12.4693 153.234 13.8027 153.213 14.912L153.085 21.664H157.693H158.909C160.85 21.664 162.13 21.7173 162.749 21.824C163.389 21.9307 163.847 22.176 164.125 22.56C164.381 22.88 164.509 23.232 164.509 23.616C164.509 24.0853 164.327 24.5227 163.965 24.928L163.421 25.472L161.629 25.312C160.669 25.2267 159.741 25.184 158.845 25.184C157.885 25.184 156.434 25.2267 154.493 25.312C153.234 25.376 152.349 25.408 151.837 25.408C151.218 25.408 150.77 25.3333 150.493 25.184C150.109 24.992 149.863 24.768 149.757 24.512C149.565 24.0213 149.469 21.952 149.469 18.304C149.469 17.92 149.469 17.312 149.469 16.48C149.469 11.36 149.415 8.56533 149.309 8.096C149.287 7.98933 149.277 7.85067 149.277 7.68C149.277 6.976 149.629 6.47467 150.333 6.176ZM192.449 4.352C195.436 4.288 197.452 4.256 198.497 4.256C199.18 4.256 199.692 4.27733 200.033 4.32C200.375 4.36267 200.588 4.416 200.673 4.48C200.78 4.52267 200.919 4.61867 201.089 4.768C201.452 5.10933 201.633 5.536 201.633 6.048C201.633 6.51733 201.484 6.90133 201.185 7.2C200.865 7.52 200.695 7.68 200.673 7.68L198.241 7.808L195.809 7.904V16.352L195.745 24.768L195.265 25.28C194.903 25.664 194.487 25.856 194.017 25.856C193.569 25.856 193.164 25.6747 192.801 25.312L192.321 24.8L192.289 16.608C192.268 11.1253 192.172 8.288 192.001 8.096C191.895 7.92533 191.671 7.84 191.329 7.84C191.265 7.84 190.935 7.86133 190.337 7.904C190.124 7.92533 189.175 7.968 187.489 8.032H186.785C186.401 8.032 186.145 8.01067 186.017 7.968C185.889 7.904 185.729 7.75467 185.537 7.52C185.217 7.136 185.057 6.73067 185.057 6.304C185.057 5.536 185.484 4.97067 186.337 4.608C186.529 4.52267 188.567 4.43733 192.449 4.352ZM220.826 7.616C220.272 7.424 219.781 7.328 219.354 7.328C219.056 7.328 218.821 7.38133 218.65 7.488C218.501 7.59467 218.074 7.648 217.37 7.648C216.261 7.648 215.152 8.16 214.042 9.184C213.253 9.93067 212.602 10.816 212.09 11.84C211.6 12.8427 211.354 13.7813 211.354 14.656V14.944C211.397 15.584 211.642 16.3413 212.09 17.216C212.538 18.0907 213.061 18.8267 213.658 19.424C214.789 20.5547 216.144 21.1307 217.722 21.152C218.512 21.152 219.365 20.9173 220.282 20.448C222.202 19.5093 223.397 18.3253 223.866 16.896C224.208 15.936 224.378 14.8907 224.378 13.76C224.378 12.3947 224.144 11.232 223.674 10.272C223.418 9.71733 223.002 9.184 222.426 8.672C221.872 8.13867 221.338 7.78667 220.826 7.616ZM217.114 3.84C217.712 3.75466 218.33 3.712 218.97 3.712C221.36 3.712 223.408 4.56533 225.114 6.272C226.992 8.14933 227.93 10.624 227.93 13.696V13.856C227.93 17.888 226.373 20.9067 223.258 22.912C221.381 24.1493 219.525 24.768 217.69 24.768C216.901 24.768 216.197 24.6827 215.578 24.512C214.128 24.1493 212.912 23.5307 211.93 22.656C210.949 21.7813 209.968 20.4587 208.986 18.688C208.517 17.856 208.208 17.184 208.058 16.672C207.909 16.1387 207.824 15.4773 207.802 14.688V14.464C207.802 13.2693 208.133 11.9467 208.794 10.496C209.733 8.384 211.322 6.60267 213.562 5.152C214.245 4.704 214.81 4.39467 215.258 4.224C215.728 4.05333 216.346 3.92533 217.114 3.84ZM259.786 10.4C259.658 9.888 258.868 9.44 257.418 9.056C255.988 8.65067 254.655 8.448 253.418 8.448C253.119 8.448 252.82 8.46933 252.522 8.512L251.914 8.608L251.978 11.84C252.02 14.0373 252.084 15.168 252.17 15.232C252.191 15.2533 252.244 15.264 252.33 15.264C252.735 15.264 253.588 14.9867 254.89 14.432C256.212 13.856 257.258 13.312 258.026 12.8C258.559 12.4587 258.986 12.0853 259.306 11.68C259.647 11.2533 259.818 10.8907 259.818 10.592C259.818 10.5707 259.807 10.5387 259.786 10.496C259.786 10.4533 259.786 10.4213 259.786 10.4ZM251.05 5.056C251.967 4.94933 252.788 4.896 253.514 4.896C255.796 4.896 257.812 5.25867 259.562 5.984C261.332 6.688 262.484 7.62667 263.018 8.8C263.231 9.22667 263.338 9.83467 263.338 10.624C263.338 11.2853 263.252 11.84 263.082 12.288C262.399 13.9307 260.842 15.4133 258.41 16.736L257.034 17.504L257.61 17.952C258.1 18.3147 259.242 19.3493 261.034 21.056C262.826 22.7627 263.743 23.6907 263.786 23.84C263.871 24.032 263.914 24.2453 263.914 24.48C263.914 24.9707 263.732 25.3973 263.37 25.76C263.007 26.1227 262.58 26.304 262.09 26.304C261.834 26.304 261.578 26.24 261.322 26.112C260.938 25.856 259.882 24.9173 258.154 23.296C256.618 21.8667 255.455 20.8747 254.666 20.32C253.898 19.7653 253.258 19.4773 252.746 19.456H252.106L252.042 22.08C251.999 23.936 251.956 24.9387 251.914 25.088C251.871 25.3227 251.658 25.568 251.274 25.824C250.89 26.0587 250.559 26.176 250.282 26.176C249.983 26.176 249.674 26.08 249.354 25.888C249.034 25.696 248.82 25.472 248.714 25.216C248.586 24.96 248.522 22.9013 248.522 19.04C248.522 15.456 248.458 12.4693 248.33 10.08C248.308 9.73867 248.287 9.35467 248.266 8.928C248.244 8.50133 248.223 8.18133 248.202 7.968C248.202 7.73333 248.202 7.53067 248.202 7.36C248.202 6.82667 248.287 6.42133 248.458 6.144C248.628 5.78133 248.852 5.54667 249.13 5.44C249.407 5.312 250.047 5.184 251.05 5.056ZM276.862 6.656C277.48 6.61333 279.102 6.56 281.726 6.496L284.51 6.464L284.926 6.912C285.246 7.27467 285.406 7.69067 285.406 8.16C285.406 8.672 285.235 9.10933 284.894 9.472C284.68 9.70667 284.435 9.856 284.158 9.92C283.902 9.96267 283.198 10.0053 282.046 10.048C276.67 10.2827 273.886 10.496 273.694 10.688C273.651 10.7307 273.63 10.9333 273.63 11.296C273.63 11.488 273.651 11.9253 273.694 12.608L273.822 14.4L275.326 14.304C278.184 14.0693 280.158 13.952 281.246 13.952C281.331 13.952 281.416 13.9627 281.502 13.984H281.63C281.822 14.0053 282.099 14.176 282.462 14.496C282.76 14.7947 282.91 15.1787 282.91 15.648C282.91 16.0747 282.792 16.4587 282.558 16.8C282.323 17.12 282.014 17.3227 281.63 17.408C281.374 17.472 280.179 17.5787 278.046 17.728C275.934 17.8773 274.824 17.9627 274.718 17.984L273.95 18.112V19.52C273.95 20.3947 273.992 21.088 274.078 21.6L274.174 22.304C275.091 22.2613 276.446 22.2187 278.238 22.176C280.051 22.1333 281.406 22.0907 282.302 22.048L282.846 22.496C283.315 22.88 283.55 23.3173 283.55 23.808C283.55 24.064 283.486 24.32 283.358 24.576C283.23 24.8533 283.112 25.056 283.006 25.184C282.92 25.2907 282.664 25.3973 282.238 25.504C281.811 25.5893 281.32 25.6533 280.766 25.696C280.211 25.7173 279.272 25.7493 277.95 25.792C274.984 25.8773 273.416 25.952 273.246 26.016C273.118 26.0587 273.022 26.08 272.958 26.08C272.659 26.08 272.35 25.9627 272.03 25.728C271.71 25.472 271.454 25.152 271.262 24.768C270.75 23.744 270.451 21.7387 270.366 18.752C270.259 16.192 270.152 14.1227 270.046 12.544C269.982 11.456 269.95 10.6347 269.95 10.08C269.95 9.39733 270.014 8.91733 270.142 8.64C270.27 8.36267 270.547 8.064 270.974 7.744C271.635 7.21067 273.598 6.848 276.862 6.656ZM300.63 12.544C300.544 12.352 300.448 12.256 300.342 12.256C300.235 12.256 299.851 12.928 299.19 14.272C298.528 15.616 298.198 16.4053 298.198 16.64C298.198 16.6827 298.326 16.704 298.582 16.704C299.094 16.704 299.755 16.6613 300.566 16.576C301.398 16.4693 301.814 16.3627 301.814 16.256C301.814 15.7653 301.419 14.528 300.63 12.544ZM299.574 6.912C299.958 6.74133 300.214 6.656 300.342 6.656C300.47 6.656 300.672 6.70933 300.95 6.816C302.08 7.24267 303.36 9.46133 304.79 13.472C305.323 15.008 306.059 16.9067 306.998 19.168C308.278 22.176 308.918 24.0427 308.918 24.768C308.918 24.8107 308.907 24.8533 308.886 24.896C308.886 24.9387 308.886 24.9707 308.886 24.992C308.651 25.8667 308.075 26.304 307.158 26.304C306.176 26.304 305.558 25.76 305.302 24.672C305.195 24.2453 304.843 23.328 304.246 21.92C303.712 20.5973 303.328 19.936 303.094 19.936H303.062C298.816 20.2773 296.64 20.544 296.534 20.736C296.384 20.928 296.107 21.568 295.702 22.656C295.296 23.744 295.094 24.3947 295.094 24.608C295.094 24.8853 294.944 25.2053 294.646 25.568C294.347 25.9093 294.048 26.112 293.75 26.176C293.686 26.1973 293.579 26.208 293.43 26.208C292.683 26.208 292.16 25.9733 291.862 25.504C291.67 25.2053 291.574 24.8427 291.574 24.416C291.574 23.6693 291.872 22.56 292.47 21.088C293.088 19.5733 293.59 18.304 293.974 17.28C294.72 15.2533 295.723 13.0773 296.982 10.752C298.24 8.40533 299.104 7.12533 299.574 6.912ZM321.502 9.568C320.393 9.03467 319.657 8.72533 319.294 8.64L318.718 8.512V22.624H319.39C320.5 22.6027 321.822 22.048 323.358 20.96C324.916 19.8507 325.822 18.816 326.078 17.856C326.164 17.536 326.206 17.12 326.206 16.608C326.206 15.5413 326.036 14.528 325.694 13.568C325.097 11.9467 323.7 10.6133 321.502 9.568ZM316.51 5.216C316.958 5.00267 317.502 4.896 318.142 4.896C319.316 4.896 320.873 5.33333 322.814 6.208C326.654 7.936 328.937 10.6133 329.663 14.24C329.833 15.0293 329.918 15.7333 329.918 16.352C329.918 16.9067 329.865 17.44 329.758 17.952C329.545 19.0827 329.15 20.064 328.574 20.896C328.02 21.728 327.166 22.5707 326.014 23.424C324.073 24.8747 322.292 25.7387 320.67 26.016C319.625 26.208 318.782 26.304 318.142 26.304C317.076 26.304 316.35 25.9307 315.966 25.184C315.732 24.7787 315.54 24.48 315.39 24.288C315.262 24.16 315.188 23.648 315.166 22.752C315.145 21.856 315.113 19.36 315.07 15.264L315.006 6.528L315.39 6.048C315.668 5.68533 316.041 5.408 316.51 5.216Z" fill="#DFA4B7"/>
<path d="M10 4L10 24" stroke="#DFA4B7" stroke-width="4" stroke-linecap="round" stroke-linejoin="round"/>
<path d="M2.5 15L10 24L18 15" stroke="#DFA4B7" stroke-width="4" stroke-linecap="round" stroke-linejoin="round"/>
</svg>
