<svg width="415" height="24" viewBox="0 0 415 24" fill="none" xmlns="http://www.w3.org/2000/svg">
<path d="M4.064 1.144C4.32 0.984 4.56 0.904 4.784 0.904C4.96 0.904 5.16 0.952 5.384 1.048C5.72 1.208 5.936 1.456 6.032 1.792C6.128 2.128 6.192 2.928 6.224 4.192L6.296 6.568L7.4 6.496C7.528 6.48 7.712 6.472 7.952 6.472C8.528 6.472 8.936 6.576 9.176 6.784C9.432 6.992 9.56 7.328 9.56 7.792C9.56 8.288 9.392 8.64 9.056 8.848C8.736 9.056 8.112 9.2 7.184 9.28L6.176 9.376L6.008 12.712C5.896 14.968 5.792 16.216 5.696 16.456C5.488 16.936 5.088 17.176 4.496 17.176C4.16 17.176 3.896 17.088 3.704 16.912C3.496 16.752 3.352 16.576 3.272 16.384C3.192 16.192 3.152 15.88 3.152 15.448C3.152 15.096 3.176 14.568 3.224 13.864C3.304 12.6 3.36 11.52 3.392 10.624L3.416 9.496L2.336 9.472C1.728 9.456 1.312 9.408 1.088 9.328C0.864 9.232 0.672 9.04 0.512 8.752C0.416 8.56 0.368 8.36 0.368 8.152C0.368 7.768 0.528 7.432 0.848 7.144C1.024 6.984 1.248 6.88 1.52 6.832C1.792 6.768 2.296 6.704 3.032 6.64L3.416 6.592L3.512 4.048C3.528 3.664 3.536 3.248 3.536 2.8C3.552 2.336 3.56 1.992 3.56 1.768L3.584 1.432L3.656 1.384C3.704 1.352 3.768 1.312 3.848 1.264C3.928 1.216 4 1.176 4.064 1.144ZM12.6103 6.112C12.8503 5.872 13.1543 5.752 13.5223 5.752C14.0183 5.752 14.3623 5.92 14.5543 6.256C14.7623 6.576 15.0903 7.48 15.5383 8.968C15.6663 9.384 15.8263 9.92 16.0183 10.576C16.5623 12.304 16.8743 13.184 16.9543 13.216C17.0503 13.216 17.2663 12.736 17.6023 11.776C18.1463 10.144 18.5943 9 18.9463 8.344C19.3143 7.688 19.7463 7.256 20.2423 7.048C20.4823 6.936 20.7223 6.88 20.9623 6.88C21.3143 6.88 21.6343 7.048 21.9223 7.384C22.2263 7.704 22.5623 8.248 22.9303 9.016C24.3383 12.008 25.0823 13.504 25.1623 13.504C25.1943 13.504 25.3783 13 25.7143 11.992C26.0663 10.968 26.4343 9.912 26.8183 8.824C27.2183 7.736 27.4823 7.12 27.6103 6.976C27.8663 6.688 28.1703 6.544 28.5223 6.544C28.9063 6.544 29.2583 6.712 29.5783 7.048C29.7543 7.224 29.8423 7.456 29.8423 7.744C29.8423 8.208 29.4743 9.52 28.7383 11.68C27.9703 13.936 27.3783 15.416 26.9623 16.12C26.5463 16.808 26.0263 17.152 25.4023 17.152C25.2103 17.152 25.0663 17.144 24.9703 17.128C24.4583 17.048 24.0183 16.784 23.6503 16.336C23.2823 15.888 22.7463 14.928 22.0423 13.456C21.2583 11.824 20.8423 11.008 20.7943 11.008C20.7463 11.008 20.6023 11.344 20.3623 12.016C19.5943 14.224 19.0503 15.656 18.7303 16.312C18.4103 16.968 18.0743 17.376 17.7223 17.536C17.4503 17.648 17.1303 17.704 16.7623 17.704C16.4423 17.704 16.1943 17.664 16.0183 17.584C15.6983 17.424 15.3143 16.784 14.8663 15.664C14.4183 14.544 13.7863 12.624 12.9703 9.904C12.5063 8.368 12.2743 7.384 12.2743 6.952C12.2743 6.616 12.3863 6.336 12.6103 6.112ZM38.9803 8.2C38.5483 8.12 38.1883 8.08 37.9003 8.08C37.2443 8.08 36.6923 8.216 36.2443 8.488C36.0203 8.632 35.7563 9.12 35.4523 9.952C35.1643 10.768 35.0203 11.424 35.0203 11.92C35.0203 12.72 35.2763 13.368 35.7883 13.864C36.3163 14.344 37.0043 14.592 37.8523 14.608C38.5403 14.608 39.1803 14.416 39.7723 14.032C40.3803 13.648 40.8203 13.144 41.0923 12.52C41.2683 12.12 41.3563 11.664 41.3563 11.152C41.3563 10.528 41.2363 9.984 40.9963 9.52C40.8203 9.152 40.5803 8.872 40.2763 8.68C39.9723 8.488 39.5403 8.328 38.9803 8.2ZM36.2683 5.632C36.8283 5.488 37.3803 5.416 37.9243 5.416C38.9483 5.416 40.0443 5.672 41.2123 6.184C42.0443 6.552 42.7003 7.2 43.1803 8.128C43.6763 9.056 43.9323 10.152 43.9483 11.416V11.56C43.9483 13.464 43.1003 15.008 41.4043 16.192C40.3483 16.944 39.1723 17.32 37.8763 17.32C36.8043 17.32 35.8123 17.056 34.9003 16.528C33.9883 15.984 33.3003 15.224 32.8363 14.248C32.6763 13.912 32.5723 13.624 32.5243 13.384C32.4923 13.144 32.4763 12.64 32.4763 11.872C32.4923 10.736 32.6123 9.84 32.8363 9.184C33.3643 7.728 33.9883 6.744 34.7083 6.232C34.9963 6.024 35.5163 5.824 36.2683 5.632ZM55.1114 5.896C55.2714 5.816 55.4634 5.776 55.6874 5.776C56.5034 5.776 57.0154 6.464 57.2234 7.84C57.2714 8.256 57.3274 8.464 57.3914 8.464C57.4074 8.464 57.6314 8.28 58.0634 7.912C58.9434 7.128 59.8394 6.736 60.7514 6.736C61.2474 6.736 61.7194 6.872 62.1674 7.144C62.5994 7.416 62.8794 7.656 63.0074 7.864L63.2234 8.2L63.7994 7.672C64.6794 6.888 65.6234 6.496 66.6314 6.496C67.6074 6.496 68.4474 6.872 69.1514 7.624C70.3514 8.856 71.0634 10.96 71.2874 13.936C71.3194 14.48 71.3354 14.816 71.3354 14.944C71.3354 15.36 71.2794 15.664 71.1674 15.856C71.0714 16.048 70.8954 16.216 70.6394 16.36C70.4154 16.472 70.1994 16.528 69.9914 16.528C69.6394 16.528 69.3274 16.368 69.0554 16.048C68.8474 15.776 68.7114 15.312 68.6474 14.656C68.5194 13.184 68.3594 12.088 68.1674 11.368C67.9754 10.648 67.7034 10.088 67.3514 9.688C67.0794 9.4 66.7994 9.256 66.5114 9.256C65.9674 9.256 65.4874 9.68 65.0714 10.528C64.9114 10.864 64.8074 11.176 64.7594 11.464C64.7114 11.752 64.6714 12.408 64.6394 13.432C64.5754 14.84 64.4954 15.68 64.3994 15.952C64.1754 16.48 63.7674 16.744 63.1754 16.744C62.8234 16.744 62.5274 16.624 62.2874 16.384C61.9034 16 61.6634 14.864 61.5674 12.976C61.5194 12.256 61.4314 11.56 61.3034 10.888C61.1754 10.216 61.0554 9.816 60.9434 9.688C60.8474 9.576 60.7434 9.52 60.6314 9.52C60.4394 9.52 60.1194 9.72 59.6714 10.12C59.1914 10.568 58.8314 11.048 58.5914 11.56C58.3674 12.024 58.2314 12.4 58.1834 12.688C58.1514 12.96 58.1194 13.896 58.0874 15.496C58.0714 15.912 57.9434 16.248 57.7034 16.504C57.4634 16.76 57.1594 16.888 56.7914 16.888C56.4234 16.888 56.1274 16.816 55.9034 16.672C55.5834 16.448 55.3594 16.016 55.2314 15.376C55.1034 14.72 54.9594 13.176 54.7994 10.744C54.7034 9.304 54.5914 8.328 54.4634 7.816C54.3674 7.432 54.3194 7.176 54.3194 7.048C54.3194 6.904 54.3674 6.736 54.4634 6.544C54.6074 6.208 54.8234 5.992 55.1114 5.896ZM80.4646 8.2C80.0326 8.12 79.6726 8.08 79.3846 8.08C78.7286 8.08 78.1766 8.216 77.7286 8.488C77.5046 8.632 77.2406 9.12 76.9366 9.952C76.6486 10.768 76.5046 11.424 76.5046 11.92C76.5046 12.72 76.7606 13.368 77.2726 13.864C77.8006 14.344 78.4886 14.592 79.3366 14.608C80.0246 14.608 80.6646 14.416 81.2566 14.032C81.8646 13.648 82.3046 13.144 82.5766 12.52C82.7526 12.12 82.8406 11.664 82.8406 11.152C82.8406 10.528 82.7206 9.984 82.4806 9.52C82.3046 9.152 82.0646 8.872 81.7606 8.68C81.4566 8.488 81.0246 8.328 80.4646 8.2ZM77.7526 5.632C78.3126 5.488 78.8646 5.416 79.4086 5.416C80.4326 5.416 81.5286 5.672 82.6966 6.184C83.5286 6.552 84.1846 7.2 84.6646 8.128C85.1606 9.056 85.4166 10.152 85.4326 11.416V11.56C85.4326 13.464 84.5846 15.008 82.8886 16.192C81.8326 16.944 80.6566 17.32 79.3606 17.32C78.2886 17.32 77.2966 17.056 76.3846 16.528C75.4726 15.984 74.7846 15.224 74.3206 14.248C74.1606 13.912 74.0566 13.624 74.0086 13.384C73.9766 13.144 73.9606 12.64 73.9606 11.872C73.9766 10.736 74.0966 9.84 74.3206 9.184C74.8486 7.728 75.4726 6.744 76.1926 6.232C76.4806 6.024 77.0006 5.824 77.7526 5.632ZM88.694 6.304C88.886 6.208 89.086 6.16 89.294 6.16C89.582 6.16 89.854 6.256 90.11 6.448C90.366 6.624 90.542 6.864 90.638 7.168L90.782 7.672L91.382 7.312C91.782 7.072 92.334 6.952 93.038 6.952C93.726 6.952 94.294 7.064 94.742 7.288C95.11 7.464 95.502 7.752 95.918 8.152C96.35 8.552 96.694 8.952 96.95 9.352C97.814 10.712 98.286 12.824 98.366 15.688V16.168C98.366 16.552 98.254 16.864 98.03 17.104C97.758 17.376 97.438 17.512 97.07 17.512C96.478 17.512 96.086 17.256 95.894 16.744C95.798 16.472 95.718 15.936 95.654 15.136C95.462 12.336 94.838 10.584 93.782 9.88C93.558 9.736 93.334 9.664 93.11 9.664C92.694 9.664 92.318 9.896 91.982 10.36C91.662 10.808 91.406 11.448 91.214 12.28C91.134 12.648 91.038 13.312 90.926 14.272C90.814 15.232 90.758 15.88 90.758 16.216C90.758 16.376 90.622 16.592 90.35 16.864C90.078 17.12 89.766 17.248 89.414 17.248C88.758 17.248 88.326 16.904 88.118 16.216C88.022 15.88 87.974 14.424 87.974 11.848C87.974 8.776 88.03 7.104 88.142 6.832C88.238 6.624 88.422 6.448 88.694 6.304ZM104.727 0.639999C104.999 0.367999 105.327 0.231998 105.711 0.231998C105.999 0.231998 106.255 0.319999 106.479 0.495999C106.719 0.655999 106.887 0.887999 106.983 1.192C107.031 1.368 107.111 2.2 107.223 3.688C107.335 5.16 107.391 6.184 107.391 6.76C107.391 6.904 107.423 6.992 107.487 7.024C107.567 7.056 107.751 7.072 108.039 7.072C108.471 7.072 108.719 7.024 108.783 6.928C108.815 6.848 109.143 6.808 109.767 6.808C110.567 6.808 111.095 6.864 111.351 6.976C111.591 7.088 111.775 7.304 111.903 7.624C112.015 7.848 112.071 8.032 112.071 8.176C112.071 8.288 112.047 8.424 111.999 8.584C111.887 8.952 111.679 9.2 111.375 9.328C111.087 9.44 110.511 9.52 109.647 9.568C108.671 9.616 108.039 9.68 107.751 9.76L107.367 9.856L107.463 13.24C107.495 14.744 107.511 15.552 107.511 15.664C107.511 16.368 107.455 16.84 107.343 17.08C107.103 17.592 106.711 17.848 106.167 17.848C105.959 17.848 105.743 17.8 105.519 17.704C105.343 17.624 105.215 17.552 105.135 17.488C105.055 17.408 104.983 17.208 104.919 16.888C104.855 16.552 104.815 16.16 104.799 15.712C104.783 15.264 104.767 14.528 104.751 13.504L104.703 10.024L103.983 10.048C103.551 10.08 103.167 10.144 102.831 10.24C102.751 10.272 102.623 10.288 102.447 10.288C101.903 10.288 101.511 10.12 101.271 9.784C101.143 9.576 101.079 9.296 101.079 8.944C101.079 8.64 101.127 8.4 101.223 8.224C101.447 7.824 102.231 7.52 103.575 7.312L104.679 7.144L104.583 5.032C104.519 3.528 104.463 2.504 104.415 1.96C104.383 1.576 104.367 1.368 104.367 1.336C104.367 1.112 104.487 0.879999 104.727 0.639999ZM115.293 0.663999C115.565 0.439999 115.845 0.327999 116.133 0.327999C116.709 0.327999 117.133 0.679999 117.405 1.384C117.517 1.704 117.637 2.472 117.765 3.688C117.893 4.888 117.997 6.008 118.077 7.048C118.157 8.072 118.205 8.584 118.221 8.584C118.253 8.584 118.517 8.408 119.013 8.056C119.989 7.368 120.917 7.024 121.797 7.024C122.613 7.024 123.325 7.328 123.933 7.936C124.557 8.528 125.045 9.4 125.397 10.552C125.669 11.448 125.805 12.84 125.805 14.728C125.805 15.912 125.733 16.712 125.589 17.128C125.429 17.56 125.061 17.776 124.485 17.776C124.101 17.776 123.781 17.648 123.525 17.392L123.165 17.032L123.093 14.608C122.997 11.488 122.565 9.88 121.797 9.784H121.725C121.357 9.784 120.901 9.992 120.357 10.408C119.813 10.808 119.421 11.248 119.181 11.728C119.037 12.048 118.845 12.28 118.605 12.424L118.293 12.64L118.245 15.256C118.213 16.536 118.181 17.312 118.149 17.584C118.133 17.84 118.045 18.048 117.885 18.208C117.629 18.48 117.309 18.616 116.925 18.616C116.349 18.616 115.949 18.36 115.725 17.848C115.613 17.544 115.533 15.704 115.485 12.328C115.405 6.68 115.197 3.296 114.861 2.176C114.813 2 114.789 1.832 114.789 1.672C114.789 1.256 114.957 0.919999 115.293 0.663999ZM131.045 5.656C131.333 5.576 131.781 5.536 132.389 5.536C133.669 5.536 134.597 5.632 135.173 5.824C135.973 6.08 136.373 6.52 136.373 7.144C136.373 7.512 136.197 7.848 135.845 8.152C135.605 8.376 135.373 8.488 135.149 8.488C135.133 8.488 135.101 8.488 135.053 8.488C135.005 8.472 134.965 8.464 134.933 8.464C133.877 8.288 133.045 8.2 132.437 8.2C132.245 8.2 132.069 8.216 131.909 8.248C131.413 8.376 131.165 8.608 131.165 8.944C131.165 9.008 131.173 9.056 131.189 9.088C131.301 9.408 131.933 9.808 133.085 10.288C135.149 11.152 136.421 12.224 136.901 13.504C137.045 13.888 137.117 14.248 137.117 14.584C137.117 15.176 136.901 15.68 136.469 16.096C136.053 16.512 135.461 16.792 134.693 16.936C134.373 17 133.845 17.032 133.109 17.032C131.765 17.032 130.909 16.952 130.541 16.792C130.333 16.696 130.157 16.536 130.013 16.312C129.869 16.072 129.797 15.84 129.797 15.616C129.797 15.376 129.877 15.136 130.037 14.896C130.197 14.64 130.389 14.464 130.613 14.368C130.821 14.288 131.069 14.248 131.357 14.248C131.469 14.248 131.717 14.264 132.101 14.296C132.357 14.328 132.701 14.344 133.133 14.344C133.805 14.344 134.141 14.264 134.141 14.104C134.141 13.816 133.445 13.384 132.053 12.808C130.805 12.264 129.885 11.696 129.293 11.104C128.717 10.496 128.429 9.808 128.429 9.04C128.429 8.912 128.445 8.72 128.477 8.464C128.605 7.68 128.925 7.056 129.437 6.592C129.853 6.176 130.389 5.864 131.045 5.656ZM151.147 6.184C151.211 6.168 151.307 6.16 151.435 6.16C151.739 6.16 152.019 6.24 152.275 6.4C152.531 6.544 152.707 6.744 152.803 7C152.867 7.144 152.931 8.24 152.995 10.288C153.075 12.32 153.115 13.92 153.115 15.088C153.115 15.584 153.107 15.872 153.091 15.952C153.011 16.56 152.747 16.968 152.299 17.176C152.075 17.272 151.899 17.32 151.771 17.32C151.675 17.32 151.531 17.296 151.339 17.248C150.971 17.136 150.739 16.984 150.643 16.792C150.451 16.424 150.339 15 150.307 12.52C150.307 12.072 150.299 11.296 150.283 10.192L150.259 6.904L150.547 6.568C150.739 6.344 150.939 6.216 151.147 6.184ZM150.571 1.672C150.763 1.576 150.947 1.528 151.123 1.528C151.475 1.528 151.787 1.672 152.059 1.96C152.331 2.232 152.467 2.552 152.467 2.92C152.467 3.176 152.403 3.4 152.275 3.592C152.003 4.024 151.635 4.24 151.171 4.24C150.867 4.24 150.587 4.136 150.331 3.928C150.075 3.72 149.915 3.432 149.851 3.064C149.851 3.048 149.843 3.024 149.827 2.992C149.827 2.944 149.827 2.912 149.827 2.896C149.827 2.656 149.899 2.424 150.043 2.2C150.187 1.96 150.363 1.784 150.571 1.672ZM156.335 6.304C156.527 6.208 156.727 6.16 156.935 6.16C157.223 6.16 157.495 6.256 157.751 6.448C158.007 6.624 158.183 6.864 158.279 7.168L158.423 7.672L159.023 7.312C159.423 7.072 159.975 6.952 160.679 6.952C161.367 6.952 161.935 7.064 162.383 7.288C162.751 7.464 163.143 7.752 163.559 8.152C163.991 8.552 164.335 8.952 164.591 9.352C165.455 10.712 165.927 12.824 166.007 15.688V16.168C166.007 16.552 165.895 16.864 165.671 17.104C165.399 17.376 165.079 17.512 164.711 17.512C164.119 17.512 163.727 17.256 163.535 16.744C163.439 16.472 163.359 15.936 163.295 15.136C163.103 12.336 162.479 10.584 161.423 9.88C161.199 9.736 160.975 9.664 160.751 9.664C160.335 9.664 159.959 9.896 159.623 10.36C159.303 10.808 159.047 11.448 158.855 12.28C158.775 12.648 158.679 13.312 158.567 14.272C158.455 15.232 158.399 15.88 158.399 16.216C158.399 16.376 158.263 16.592 157.991 16.864C157.719 17.12 157.407 17.248 157.055 17.248C156.399 17.248 155.967 16.904 155.759 16.216C155.663 15.88 155.615 14.424 155.615 11.848C155.615 8.776 155.671 7.104 155.783 6.832C155.879 6.624 156.063 6.448 156.335 6.304ZM172.368 0.639999C172.64 0.367999 172.968 0.231998 173.352 0.231998C173.64 0.231998 173.896 0.319999 174.12 0.495999C174.36 0.655999 174.528 0.887999 174.624 1.192C174.672 1.368 174.752 2.2 174.864 3.688C174.976 5.16 175.032 6.184 175.032 6.76C175.032 6.904 175.064 6.992 175.128 7.024C175.208 7.056 175.392 7.072 175.68 7.072C176.112 7.072 176.36 7.024 176.424 6.928C176.456 6.848 176.784 6.808 177.408 6.808C178.208 6.808 178.736 6.864 178.992 6.976C179.232 7.088 179.416 7.304 179.544 7.624C179.656 7.848 179.712 8.032 179.712 8.176C179.712 8.288 179.688 8.424 179.64 8.584C179.528 8.952 179.32 9.2 179.016 9.328C178.728 9.44 178.152 9.52 177.288 9.568C176.312 9.616 175.68 9.68 175.392 9.76L175.008 9.856L175.104 13.24C175.136 14.744 175.152 15.552 175.152 15.664C175.152 16.368 175.096 16.84 174.984 17.08C174.744 17.592 174.352 17.848 173.808 17.848C173.6 17.848 173.384 17.8 173.16 17.704C172.984 17.624 172.856 17.552 172.776 17.488C172.696 17.408 172.624 17.208 172.56 16.888C172.496 16.552 172.456 16.16 172.44 15.712C172.424 15.264 172.408 14.528 172.392 13.504L172.344 10.024L171.624 10.048C171.192 10.08 170.808 10.144 170.472 10.24C170.392 10.272 170.264 10.288 170.088 10.288C169.544 10.288 169.152 10.12 168.912 9.784C168.784 9.576 168.72 9.296 168.72 8.944C168.72 8.64 168.768 8.4 168.864 8.224C169.088 7.824 169.872 7.52 171.216 7.312L172.32 7.144L172.224 5.032C172.16 3.528 172.104 2.504 172.056 1.96C172.024 1.576 172.008 1.368 172.008 1.336C172.008 1.112 172.128 0.879999 172.368 0.639999ZM188.91 8.2C188.478 8.12 188.118 8.08 187.83 8.08C187.174 8.08 186.622 8.216 186.174 8.488C185.95 8.632 185.686 9.12 185.382 9.952C185.094 10.768 184.95 11.424 184.95 11.92C184.95 12.72 185.206 13.368 185.718 13.864C186.246 14.344 186.934 14.592 187.782 14.608C188.47 14.608 189.11 14.416 189.702 14.032C190.31 13.648 190.75 13.144 191.022 12.52C191.198 12.12 191.286 11.664 191.286 11.152C191.286 10.528 191.166 9.984 190.926 9.52C190.75 9.152 190.51 8.872 190.206 8.68C189.902 8.488 189.47 8.328 188.91 8.2ZM186.198 5.632C186.758 5.488 187.31 5.416 187.854 5.416C188.878 5.416 189.974 5.672 191.142 6.184C191.974 6.552 192.63 7.2 193.11 8.128C193.606 9.056 193.862 10.152 193.878 11.416V11.56C193.878 13.464 193.03 15.008 191.334 16.192C190.278 16.944 189.102 17.32 187.806 17.32C186.734 17.32 185.742 17.056 184.83 16.528C183.918 15.984 183.23 15.224 182.766 14.248C182.606 13.912 182.502 13.624 182.454 13.384C182.422 13.144 182.406 12.64 182.406 11.872C182.422 10.736 182.542 9.84 182.766 9.184C183.294 7.728 183.918 6.744 184.638 6.232C184.926 6.024 185.446 5.824 186.198 5.632ZM214.289 9.424C213.825 8.96 213.105 8.728 212.129 8.728C211.649 8.728 211.225 8.808 210.857 8.968C210.505 9.128 210.121 9.44 209.705 9.904C209.289 10.368 209.017 10.792 208.889 11.176C208.745 11.592 208.673 11.984 208.673 12.352C208.673 13.2 209.009 13.8 209.681 14.152C210.081 14.36 210.601 14.464 211.241 14.464C211.673 14.464 212.001 14.408 212.225 14.296C213.521 13.64 214.313 12.464 214.601 10.768L214.745 9.856L214.289 9.424ZM210.641 6.16C211.025 6.048 211.473 5.992 211.985 5.992C212.849 5.992 213.697 6.144 214.529 6.448C215.361 6.752 215.937 7.136 216.257 7.6C216.481 7.92 216.769 8.256 217.121 8.608C217.505 9.008 217.857 9.696 218.177 10.672C218.481 11.6 218.761 12.632 219.017 13.768C219.289 14.904 219.425 15.672 219.425 16.072C219.425 16.472 219.305 16.784 219.065 17.008C218.761 17.296 218.473 17.44 218.201 17.44C218.089 17.44 217.945 17.416 217.769 17.368C217.465 17.256 217.225 17.064 217.049 16.792C216.889 16.52 216.745 16.08 216.617 15.472C216.457 14.752 216.369 14.392 216.353 14.392C216.289 14.392 215.953 14.696 215.345 15.304C214.145 16.472 212.897 17.104 211.601 17.2H211.265C210.481 17.2 209.713 17.064 208.961 16.792C208.225 16.52 207.641 16.16 207.209 15.712C206.985 15.488 206.761 15.152 206.537 14.704C206.313 14.24 206.161 13.816 206.081 13.432C206.001 13.032 205.961 12.672 205.961 12.352C205.961 11.024 206.409 9.752 207.305 8.536C208.217 7.32 209.329 6.528 210.641 6.16ZM238.715 8.968C238.635 8.904 238.443 8.872 238.139 8.872C237.579 8.872 237.115 8.952 236.747 9.112C235.499 9.688 234.875 10.632 234.875 11.944C234.875 12.52 235.011 13.08 235.283 13.624C235.699 14.456 236.275 14.872 237.011 14.872C237.235 14.872 237.411 14.832 237.539 14.752C237.683 14.672 237.899 14.48 238.187 14.176C238.859 13.488 239.259 12.448 239.387 11.056C239.403 10.928 239.411 10.768 239.411 10.576C239.411 10.272 239.331 9.96 239.171 9.64C238.995 9.272 238.843 9.048 238.715 8.968ZM236.579 6.304C236.931 6.192 237.339 6.136 237.803 6.136C238.395 6.136 238.971 6.232 239.531 6.424C240.091 6.6 240.515 6.84 240.803 7.144C241.011 7.352 241.275 7.776 241.595 8.416C241.819 8.848 241.955 9.2 242.003 9.472C242.067 9.728 242.123 10.264 242.171 11.08C242.203 11.432 242.251 12.032 242.315 12.88C242.395 13.728 242.459 14.512 242.507 15.232C242.555 15.952 242.579 16.608 242.579 17.2C242.579 18.144 242.507 18.952 242.363 19.624C241.899 21.72 240.915 23.04 239.411 23.584C238.931 23.76 238.283 23.848 237.467 23.848C236.923 23.832 236.515 23.792 236.243 23.728C235.971 23.68 235.563 23.552 235.019 23.344C234.091 22.992 233.475 22.72 233.171 22.528C232.867 22.352 232.659 22.136 232.547 21.88C232.483 21.704 232.451 21.528 232.451 21.352C232.451 20.824 232.691 20.44 233.171 20.2L233.699 19.96L235.139 20.536C235.795 20.792 236.267 20.952 236.555 21.016C236.843 21.08 237.211 21.112 237.659 21.112C238.139 21.112 238.443 21.088 238.571 21.04C238.699 21.008 238.851 20.888 239.027 20.68C239.539 20.072 239.843 19.048 239.939 17.608C239.955 17.48 239.963 17.312 239.963 17.104C239.963 16.752 239.899 16.576 239.771 16.576C239.675 16.576 239.515 16.664 239.291 16.84C238.651 17.32 237.891 17.56 237.011 17.56H236.723C236.179 17.56 235.675 17.44 235.211 17.2C234.523 16.864 233.923 16.368 233.411 15.712C232.915 15.056 232.571 14.328 232.379 13.528C232.267 12.968 232.211 12.4 232.211 11.824C232.211 10.496 232.595 9.344 233.363 8.368C234.147 7.376 235.219 6.688 236.579 6.304ZM245.603 0.568C245.859 0.311999 246.163 0.183999 246.515 0.183999C246.851 0.183999 247.147 0.311999 247.403 0.568C247.659 0.823999 247.819 1.24 247.883 1.816C247.899 1.976 247.907 2.936 247.907 4.696C247.907 12.92 247.851 17.2 247.739 17.536C247.675 17.728 247.531 17.88 247.307 17.992C247.083 18.104 246.835 18.16 246.563 18.16C246.243 18.16 245.987 18.096 245.795 17.968C245.507 17.776 245.323 17.496 245.243 17.128C245.179 16.744 245.147 15.72 245.147 14.056C245.147 12.12 245.155 10.4 245.171 8.896L245.243 0.927999L245.603 0.568ZM256.996 8.2C256.564 8.12 256.204 8.08 255.916 8.08C255.26 8.08 254.708 8.216 254.26 8.488C254.036 8.632 253.772 9.12 253.468 9.952C253.18 10.768 253.036 11.424 253.036 11.92C253.036 12.72 253.292 13.368 253.804 13.864C254.332 14.344 255.02 14.592 255.868 14.608C256.556 14.608 257.196 14.416 257.788 14.032C258.396 13.648 258.836 13.144 259.108 12.52C259.284 12.12 259.372 11.664 259.372 11.152C259.372 10.528 259.252 9.984 259.012 9.52C258.836 9.152 258.596 8.872 258.292 8.68C257.988 8.488 257.556 8.328 256.996 8.2ZM254.284 5.632C254.844 5.488 255.396 5.416 255.94 5.416C256.964 5.416 258.06 5.672 259.228 6.184C260.06 6.552 260.716 7.2 261.196 8.128C261.692 9.056 261.948 10.152 261.964 11.416V11.56C261.964 13.464 261.116 15.008 259.42 16.192C258.364 16.944 257.188 17.32 255.892 17.32C254.82 17.32 253.828 17.056 252.916 16.528C252.004 15.984 251.316 15.224 250.852 14.248C250.692 13.912 250.588 13.624 250.54 13.384C250.508 13.144 250.492 12.64 250.492 11.872C250.508 10.736 250.628 9.84 250.852 9.184C251.38 7.728 252.004 6.744 252.724 6.232C253.012 6.024 253.532 5.824 254.284 5.632ZM272.737 10.864C272.433 10.48 272.001 10.16 271.441 9.904C270.881 9.648 270.233 9.52 269.497 9.52C269.049 9.52 268.705 9.576 268.465 9.688C268.209 9.8 267.961 10.056 267.721 10.456C267.497 10.84 267.385 11.312 267.385 11.872V12.28C267.433 13.416 267.465 14.088 267.481 14.296L267.577 15.064L268.153 15.16C268.377 15.192 268.561 15.208 268.705 15.208C269.649 15.208 270.505 15.024 271.273 14.656C271.657 14.48 272.025 14.192 272.377 13.792C272.745 13.376 272.993 12.968 273.121 12.568C273.185 12.344 273.217 12.168 273.217 12.04C273.217 11.624 273.057 11.232 272.737 10.864ZM265.177 1.312C265.337 1.232 265.529 1.192 265.753 1.192C266.137 1.192 266.473 1.336 266.761 1.624C266.937 1.8 267.041 2.016 267.073 2.272C267.121 2.512 267.185 3.272 267.265 4.552C267.345 6.232 267.401 7.088 267.433 7.12H267.457C267.537 7.12 267.817 7.064 268.297 6.952C268.857 6.824 269.345 6.76 269.761 6.76C270.561 6.76 271.537 7.024 272.689 7.552C274.001 8.16 274.921 9.008 275.449 10.096C275.609 10.432 275.705 10.712 275.737 10.936C275.785 11.16 275.809 11.536 275.809 12.064C275.809 12.592 275.785 12.968 275.737 13.192C275.689 13.4 275.561 13.72 275.353 14.152C274.889 15.048 274.249 15.808 273.433 16.432C272.617 17.056 271.713 17.472 270.721 17.68C270.145 17.808 269.545 17.872 268.921 17.872C268.329 17.872 267.633 17.816 266.833 17.704C266.225 17.608 265.825 17.528 265.633 17.464C265.441 17.4 265.265 17.28 265.105 17.104L264.745 16.72V12.976C264.745 10.72 264.697 8.28 264.601 5.656C264.553 4.424 264.529 3.536 264.529 2.992C264.529 2.352 264.569 1.944 264.649 1.768C264.729 1.592 264.905 1.44 265.177 1.312ZM285.365 9.76C285.285 9.504 285.213 9.36 285.149 9.328C285.085 9.28 284.909 9.256 284.621 9.256C283.789 9.272 283.013 9.664 282.293 10.432C281.573 11.184 281.213 11.944 281.213 12.712C281.213 13.096 281.317 13.416 281.525 13.672C281.989 14.184 282.477 14.44 282.989 14.44C283.021 14.44 283.053 14.44 283.085 14.44C283.117 14.424 283.149 14.416 283.181 14.416C283.469 14.352 283.773 14.16 284.093 13.84C284.429 13.52 284.685 13.168 284.861 12.784C285.229 11.92 285.413 11.08 285.413 10.264C285.413 10.024 285.397 9.856 285.365 9.76ZM283.133 6.736C283.565 6.592 284.061 6.52 284.621 6.52C285.357 6.52 285.981 6.64 286.493 6.88C286.829 7.056 287.133 7.32 287.405 7.672C287.693 8.008 287.869 8.328 287.933 8.632C287.997 8.936 288.085 9.224 288.197 9.496C288.373 9.96 288.725 11.704 289.253 14.728C289.333 15.208 289.373 15.568 289.373 15.808C289.373 16.768 288.925 17.248 288.029 17.248C287.725 17.248 287.445 17.128 287.189 16.888C286.949 16.648 286.797 16.352 286.733 16C286.669 15.68 286.613 15.496 286.565 15.448C286.501 15.4 286.317 15.528 286.013 15.832C285.101 16.744 284.053 17.2 282.869 17.2C282.661 17.2 282.445 17.176 282.221 17.128C281.341 16.936 280.517 16.456 279.749 15.688C278.885 14.824 278.453 13.856 278.453 12.784C278.453 11.936 278.717 11.016 279.245 10.024C279.645 9.272 280.189 8.6 280.877 8.008C281.581 7.416 282.333 6.992 283.133 6.736ZM292.431 0.568C292.687 0.311999 292.991 0.183999 293.343 0.183999C293.679 0.183999 293.975 0.311999 294.231 0.568C294.487 0.823999 294.647 1.24 294.711 1.816C294.727 1.976 294.735 2.936 294.735 4.696C294.735 12.92 294.679 17.2 294.567 17.536C294.503 17.728 294.359 17.88 294.135 17.992C293.911 18.104 293.663 18.16 293.391 18.16C293.071 18.16 292.815 18.096 292.623 17.968C292.335 17.776 292.151 17.496 292.071 17.128C292.007 16.744 291.975 15.72 291.975 14.056C291.975 12.12 291.983 10.4 291.999 8.896L292.071 0.927999L292.431 0.568ZM312.518 10.096C312.31 9.584 312.038 9.224 311.702 9.016C311.366 8.808 310.958 8.704 310.478 8.704C309.966 8.704 309.462 8.816 308.966 9.04C308.518 9.232 308.262 9.416 308.198 9.592C308.15 9.72 308.054 9.872 307.91 10.048C307.718 10.272 307.622 11.064 307.622 12.424C307.622 12.872 307.638 13.176 307.67 13.336L307.766 13.912L308.51 14.104C308.958 14.216 309.406 14.272 309.854 14.272C310.59 14.272 311.214 14.12 311.726 13.816C312.254 13.496 312.59 13.056 312.734 12.496C312.798 12.256 312.83 11.976 312.83 11.656C312.83 11.112 312.726 10.592 312.518 10.096ZM309.518 6.04C309.71 6.008 309.902 5.992 310.094 5.992C311.022 5.992 311.814 6.112 312.47 6.352C313.126 6.608 313.702 7.056 314.198 7.696C314.71 8.336 315.078 9.072 315.302 9.904C315.414 10.336 315.47 10.856 315.47 11.464C315.47 12.44 315.35 13.24 315.11 13.864C314.806 14.648 314.294 15.304 313.574 15.832C312.87 16.36 312.046 16.704 311.102 16.864C310.766 16.912 310.35 16.936 309.854 16.936C309.006 16.936 308.406 16.88 308.054 16.768C307.958 16.736 307.902 16.72 307.886 16.72C307.806 16.72 307.766 16.792 307.766 16.936C307.766 16.968 307.782 17.16 307.814 17.512C307.83 17.672 307.862 18.296 307.91 19.384V19.792C307.91 20.08 307.886 20.28 307.838 20.392C307.79 20.504 307.686 20.64 307.526 20.8C307.27 21.056 306.95 21.184 306.566 21.184C306.342 21.184 306.134 21.136 305.942 21.04C305.67 20.896 305.478 20.624 305.366 20.224C305.27 19.824 305.19 19 305.126 17.752C305.03 16.184 304.982 14.144 304.982 11.632C304.982 8.672 305.038 7.08 305.15 6.856C305.406 6.36 305.814 6.112 306.374 6.112C306.678 6.112 306.942 6.2 307.166 6.376L307.502 6.64L308.39 6.4C308.534 6.352 308.686 6.304 308.846 6.256C309.006 6.192 309.15 6.144 309.278 6.112C309.406 6.08 309.486 6.056 309.518 6.04ZM326.437 9.424C325.973 8.96 325.253 8.728 324.277 8.728C323.797 8.728 323.373 8.808 323.005 8.968C322.653 9.128 322.269 9.44 321.853 9.904C321.437 10.368 321.165 10.792 321.037 11.176C320.893 11.592 320.821 11.984 320.821 12.352C320.821 13.2 321.157 13.8 321.829 14.152C322.229 14.36 322.749 14.464 323.389 14.464C323.821 14.464 324.149 14.408 324.373 14.296C325.669 13.64 326.461 12.464 326.749 10.768L326.893 9.856L326.437 9.424ZM322.789 6.16C323.173 6.048 323.621 5.992 324.133 5.992C324.997 5.992 325.845 6.144 326.677 6.448C327.509 6.752 328.085 7.136 328.405 7.6C328.629 7.92 328.917 8.256 329.269 8.608C329.653 9.008 330.005 9.696 330.325 10.672C330.629 11.6 330.909 12.632 331.165 13.768C331.437 14.904 331.573 15.672 331.573 16.072C331.573 16.472 331.453 16.784 331.213 17.008C330.909 17.296 330.621 17.44 330.349 17.44C330.237 17.44 330.093 17.416 329.917 17.368C329.613 17.256 329.373 17.064 329.197 16.792C329.037 16.52 328.893 16.08 328.765 15.472C328.605 14.752 328.517 14.392 328.501 14.392C328.437 14.392 328.101 14.696 327.493 15.304C326.293 16.472 325.045 17.104 323.749 17.2H323.413C322.629 17.2 321.861 17.064 321.109 16.792C320.373 16.52 319.789 16.16 319.357 15.712C319.133 15.488 318.909 15.152 318.685 14.704C318.461 14.24 318.309 13.816 318.229 13.432C318.149 13.032 318.109 12.672 318.109 12.352C318.109 11.024 318.557 9.752 319.453 8.536C320.365 7.32 321.477 6.528 322.789 6.16ZM334.882 6.304C335.074 6.208 335.274 6.16 335.482 6.16C335.77 6.16 336.042 6.256 336.298 6.448C336.554 6.624 336.73 6.864 336.826 7.168L336.97 7.672L337.57 7.312C337.97 7.072 338.522 6.952 339.226 6.952C339.914 6.952 340.482 7.064 340.93 7.288C341.298 7.464 341.69 7.752 342.106 8.152C342.538 8.552 342.882 8.952 343.138 9.352C344.002 10.712 344.474 12.824 344.554 15.688V16.168C344.554 16.552 344.442 16.864 344.218 17.104C343.946 17.376 343.626 17.512 343.258 17.512C342.666 17.512 342.274 17.256 342.082 16.744C341.986 16.472 341.906 15.936 341.842 15.136C341.65 12.336 341.026 10.584 339.97 9.88C339.746 9.736 339.522 9.664 339.298 9.664C338.882 9.664 338.506 9.896 338.17 10.36C337.85 10.808 337.594 11.448 337.402 12.28C337.322 12.648 337.226 13.312 337.114 14.272C337.002 15.232 336.946 15.88 336.946 16.216C336.946 16.376 336.81 16.592 336.538 16.864C336.266 17.12 335.954 17.248 335.602 17.248C334.946 17.248 334.514 16.904 334.306 16.216C334.21 15.88 334.162 14.424 334.162 11.848C334.162 8.776 334.218 7.104 334.33 6.832C334.426 6.624 334.61 6.448 334.882 6.304ZM353.386 9.712C352.746 9.408 352.298 9.256 352.042 9.256C351.738 9.256 351.354 9.464 350.89 9.88C350.266 10.456 349.954 11.168 349.954 12.016C349.954 12.704 350.178 13.224 350.626 13.576C350.834 13.736 351.05 13.816 351.274 13.816C351.546 13.816 351.89 13.704 352.306 13.48C353.65 12.776 354.322 11.864 354.322 10.744V10.144L353.386 9.712ZM354.61 1.192C354.882 0.967999 355.202 0.855999 355.57 0.855999C355.81 0.855999 356.01 0.903999 356.17 0.999999C356.362 1.112 356.522 1.296 356.65 1.552C356.746 1.744 356.81 2.28 356.842 3.16C356.89 4.04 356.922 6.056 356.938 9.208L356.986 16.432L356.578 16.84C356.306 17.112 355.994 17.248 355.642 17.248C355.306 17.248 355.002 17.128 354.73 16.888C354.458 16.648 354.322 16.376 354.322 16.072C354.322 15.816 354.306 15.672 354.274 15.64H354.25C354.138 15.64 353.874 15.744 353.458 15.952C352.674 16.32 351.938 16.504 351.25 16.504C350.178 16.504 349.242 16.072 348.442 15.208C347.626 14.312 347.218 13.256 347.218 12.04C347.218 10.44 347.842 9.064 349.09 7.912C350.034 7.048 351.058 6.616 352.162 6.616C352.642 6.616 353.082 6.68 353.482 6.808C353.914 6.952 354.146 7.024 354.178 7.024C354.194 7.024 354.202 6.112 354.202 4.288V1.552L354.61 1.192ZM366.146 9.208C365.858 9 365.402 8.896 364.778 8.896C364.394 8.896 364.09 8.944 363.866 9.04C363.658 9.136 363.418 9.336 363.146 9.64C362.89 9.928 362.762 10.136 362.762 10.264C362.762 10.376 362.882 10.432 363.122 10.432C363.442 10.416 364.106 10.344 365.114 10.216C366.122 10.088 366.642 10.008 366.674 9.976C366.69 9.96 366.698 9.936 366.698 9.904C366.698 9.728 366.514 9.496 366.146 9.208ZM363.554 6.28C363.842 6.2 364.194 6.16 364.61 6.16C365.458 6.16 366.186 6.28 366.794 6.52C367.29 6.696 367.778 7.04 368.258 7.552C368.754 8.048 369.162 8.608 369.482 9.232C369.802 9.872 369.962 10.304 369.962 10.528C369.962 11.04 369.738 11.52 369.29 11.968C368.81 12.4 367.314 12.72 364.802 12.928C363.842 13.008 363.218 13.072 362.93 13.12C362.642 13.168 362.498 13.24 362.498 13.336C362.498 13.416 362.642 13.584 362.93 13.84C363.426 14.32 364.314 14.608 365.594 14.704C365.722 14.72 365.89 14.728 366.098 14.728C366.434 14.728 366.834 14.648 367.298 14.488C367.954 14.248 368.474 14.128 368.858 14.128C369.434 14.128 369.81 14.416 369.986 14.992C370.034 15.136 370.058 15.272 370.058 15.4C370.058 15.944 369.714 16.392 369.026 16.744C368.354 17.08 367.402 17.272 366.17 17.32C366.106 17.32 366.018 17.328 365.906 17.344C365.794 17.344 365.714 17.344 365.666 17.344C364.306 17.344 363.13 17.08 362.138 16.552C361.162 16.008 360.426 15.24 359.93 14.248C359.69 13.768 359.57 13.128 359.57 12.328C359.57 11.528 359.65 10.896 359.81 10.432C360.21 9.232 360.706 8.312 361.298 7.672C361.89 7.016 362.642 6.552 363.554 6.28ZM373.584 5.008C373.808 4.976 373.936 4.952 373.968 4.936C374.048 4.936 374.232 4.992 374.52 5.104C374.744 5.2 374.944 5.392 375.12 5.68C375.296 5.968 375.384 6.248 375.384 6.52C375.384 6.728 375.424 6.888 375.504 7C375.568 7.08 375.624 7.112 375.672 7.096C375.72 7.08 375.832 7 376.008 6.856C376.728 6.248 377.608 5.872 378.648 5.728C378.968 5.696 379.192 5.68 379.32 5.68C380.136 5.68 380.832 5.976 381.408 6.568L381.96 7.12L382.656 6.568C383.792 5.656 384.896 5.2 385.968 5.2C386.336 5.2 386.664 5.256 386.952 5.368C387.272 5.496 387.616 5.744 387.984 6.112C388.368 6.464 388.656 6.84 388.848 7.24C389.424 8.408 389.8 10.584 389.976 13.768C390.008 14.568 390.024 15.008 390.024 15.088C390.024 15.504 389.968 15.816 389.856 16.024C389.616 16.488 389.248 16.72 388.752 16.72C388.4 16.72 388.088 16.592 387.816 16.336L387.384 15.976L387.264 13.744C387.088 10.416 386.688 8.488 386.064 7.96C385.968 7.896 385.888 7.864 385.824 7.864C385.696 7.864 385.464 7.952 385.128 8.128C384.296 8.528 383.704 9.208 383.352 10.168C383.16 10.664 383.032 11.696 382.968 13.264C382.888 14.848 382.808 15.728 382.728 15.904C382.472 16.352 382.064 16.576 381.504 16.576C381.2 16.576 380.928 16.48 380.688 16.288C380.336 16 380.16 15.296 380.16 14.176C380.16 13.664 380.168 13.24 380.184 12.904C380.184 12.792 380.184 12.64 380.184 12.448C380.2 12.24 380.208 12.088 380.208 11.992C380.208 10.424 380.032 9.336 379.68 8.728C379.536 8.472 379.392 8.344 379.248 8.344C379.232 8.344 379.128 8.36 378.936 8.392C377.912 8.584 377.048 9.408 376.344 10.864C376.056 11.472 375.912 12.112 375.912 12.784C375.912 13.36 375.96 14.064 376.056 14.896C376.104 15.232 376.128 15.512 376.128 15.736C376.128 16.344 375.864 16.776 375.336 17.032C375.112 17.144 374.936 17.2 374.808 17.2C374.712 17.2 374.56 17.16 374.352 17.08C373.952 16.936 373.688 16.664 373.56 16.264C373.432 15.848 373.328 14.96 373.248 13.6C373.136 11.28 372.944 8.888 372.672 6.424C372.672 6.392 372.664 6.344 372.648 6.28C372.648 6.216 372.648 6.176 372.648 6.16C372.648 5.936 372.744 5.704 372.936 5.464C373.176 5.192 373.392 5.04 373.584 5.008ZM393.912 6.184C393.976 6.168 394.072 6.16 394.2 6.16C394.504 6.16 394.784 6.24 395.04 6.4C395.296 6.544 395.472 6.744 395.568 7C395.632 7.144 395.696 8.24 395.76 10.288C395.84 12.32 395.88 13.92 395.88 15.088C395.88 15.584 395.872 15.872 395.856 15.952C395.776 16.56 395.512 16.968 395.064 17.176C394.84 17.272 394.664 17.32 394.536 17.32C394.44 17.32 394.296 17.296 394.104 17.248C393.736 17.136 393.504 16.984 393.408 16.792C393.216 16.424 393.104 15 393.072 12.52C393.072 12.072 393.064 11.296 393.048 10.192L393.024 6.904L393.312 6.568C393.504 6.344 393.704 6.216 393.912 6.184ZM393.336 1.672C393.528 1.576 393.712 1.528 393.888 1.528C394.24 1.528 394.552 1.672 394.824 1.96C395.096 2.232 395.232 2.552 395.232 2.92C395.232 3.176 395.168 3.4 395.04 3.592C394.768 4.024 394.4 4.24 393.936 4.24C393.632 4.24 393.352 4.136 393.096 3.928C392.84 3.72 392.68 3.432 392.616 3.064C392.616 3.048 392.608 3.024 392.592 2.992C392.592 2.944 392.592 2.912 392.592 2.896C392.592 2.656 392.664 2.424 392.808 2.2C392.952 1.96 393.128 1.784 393.336 1.672ZM401.524 6.544C401.78 6.448 402.18 6.4 402.724 6.4C403.012 6.4 403.244 6.408 403.42 6.424C404.06 6.44 404.5 6.48 404.74 6.544C404.98 6.592 405.3 6.712 405.7 6.904C406.836 7.48 407.404 8.176 407.404 8.992C407.404 9.168 407.348 9.384 407.236 9.64C406.996 10.104 406.628 10.336 406.132 10.336C405.684 10.336 405.276 10.128 404.908 9.712C404.732 9.52 404.572 9.392 404.428 9.328C404.284 9.248 404.052 9.184 403.732 9.136C403.412 9.104 403.196 9.088 403.084 9.088C402.524 9.088 402.116 9.264 401.86 9.616C401.412 10.272 401.188 10.984 401.188 11.752C401.188 12.584 401.444 13.296 401.956 13.888C402.468 14.464 403.14 14.752 403.972 14.752C404.292 14.752 404.74 14.672 405.316 14.512C405.892 14.336 406.276 14.176 406.468 14.032C406.628 13.904 406.908 13.84 407.308 13.84C407.692 13.84 408.004 13.96 408.244 14.2C408.5 14.44 408.628 14.744 408.628 15.112C408.628 15.448 408.548 15.72 408.388 15.928C408.228 16.136 407.924 16.352 407.476 16.576C406.324 17.152 405.172 17.44 404.02 17.44C402.116 17.44 400.668 16.76 399.676 15.4C398.876 14.312 398.476 13.12 398.476 11.824C398.476 11.024 398.636 10.184 398.956 9.304C399.196 8.68 399.548 8.112 400.012 7.6C400.492 7.088 400.996 6.736 401.524 6.544ZM411.512 15.568C411.64 15.296 411.784 15.112 411.944 15.016C412.104 14.92 412.384 14.872 412.784 14.872C413.056 14.872 413.24 14.896 413.336 14.944C413.448 14.992 413.576 15.104 413.72 15.28C413.96 15.568 414.08 15.872 414.08 16.192C414.08 16.544 413.928 16.872 413.624 17.176C413.32 17.48 413.008 17.632 412.688 17.632C412.368 17.632 412.056 17.496 411.752 17.224C411.464 16.936 411.32 16.64 411.32 16.336C411.32 16.096 411.384 15.84 411.512 15.568Z" fill="#27263C"/>
</svg>
